%TF.GenerationSoftware,KiCad,Pcbnew,7.0.9*%
%TF.CreationDate,2024-09-05T13:52:43+09:00*%
%TF.ProjectId,STA5635,53544135-3633-4352-9e6b-696361645f70,rev?*%
%TF.SameCoordinates,Original*%
%TF.FileFunction,Soldermask,Top*%
%TF.FilePolarity,Negative*%
%FSLAX46Y46*%
G04 Gerber Fmt 4.6, Leading zero omitted, Abs format (unit mm)*
G04 Created by KiCad (PCBNEW 7.0.9) date 2024-09-05 13:52:43*
%MOMM*%
%LPD*%
G01*
G04 APERTURE LIST*
G04 Aperture macros list*
%AMRoundRect*
0 Rectangle with rounded corners*
0 $1 Rounding radius*
0 $2 $3 $4 $5 $6 $7 $8 $9 X,Y pos of 4 corners*
0 Add a 4 corners polygon primitive as box body*
4,1,4,$2,$3,$4,$5,$6,$7,$8,$9,$2,$3,0*
0 Add four circle primitives for the rounded corners*
1,1,$1+$1,$2,$3*
1,1,$1+$1,$4,$5*
1,1,$1+$1,$6,$7*
1,1,$1+$1,$8,$9*
0 Add four rect primitives between the rounded corners*
20,1,$1+$1,$2,$3,$4,$5,0*
20,1,$1+$1,$4,$5,$6,$7,0*
20,1,$1+$1,$6,$7,$8,$9,0*
20,1,$1+$1,$8,$9,$2,$3,0*%
G04 Aperture macros list end*
%ADD10C,2.300000*%
%ADD11RoundRect,0.050000X-0.850000X-0.850000X0.850000X-0.850000X0.850000X0.850000X-0.850000X0.850000X0*%
%ADD12RoundRect,0.050000X0.850000X0.850000X-0.850000X0.850000X-0.850000X-0.850000X0.850000X-0.850000X0*%
%ADD13O,1.800000X1.800000*%
%ADD14RoundRect,0.300000X0.325000X0.650000X-0.325000X0.650000X-0.325000X-0.650000X0.325000X-0.650000X0*%
%ADD15RoundRect,0.300000X-0.650000X0.325000X-0.650000X-0.325000X0.650000X-0.325000X0.650000X0.325000X0*%
%ADD16RoundRect,0.050000X0.850000X-0.850000X0.850000X0.850000X-0.850000X0.850000X-0.850000X-0.850000X0*%
%ADD17RoundRect,0.300000X-0.312500X-0.625000X0.312500X-0.625000X0.312500X0.625000X-0.312500X0.625000X0*%
%ADD18RoundRect,0.300000X0.625000X-0.312500X0.625000X0.312500X-0.625000X0.312500X-0.625000X-0.312500X0*%
%ADD19C,1.712000*%
%ADD20C,2.124000*%
%ADD21RoundRect,0.300000X-0.362500X-0.700000X0.362500X-0.700000X0.362500X0.700000X-0.362500X0.700000X0*%
%ADD22RoundRect,0.300000X-0.700000X0.362500X-0.700000X-0.362500X0.700000X-0.362500X0.700000X0.362500X0*%
%ADD23RoundRect,0.200000X-0.512500X-0.150000X0.512500X-0.150000X0.512500X0.150000X-0.512500X0.150000X0*%
%ADD24RoundRect,0.050000X-0.114300X-0.381000X0.114300X-0.381000X0.114300X0.381000X-0.114300X0.381000X0*%
%ADD25RoundRect,0.050000X-0.381000X0.114300X-0.381000X-0.114300X0.381000X-0.114300X0.381000X0.114300X0*%
%ADD26RoundRect,0.050000X-1.828800X1.828800X-1.828800X-1.828800X1.828800X-1.828800X1.828800X1.828800X0*%
%ADD27RoundRect,0.300000X0.650000X-0.325000X0.650000X0.325000X-0.650000X0.325000X-0.650000X-0.325000X0*%
G04 APERTURE END LIST*
D10*
%TO.C,H4*%
X159893000Y-113004600D03*
%TD*%
%TO.C,H3*%
X159893000Y-60071000D03*
%TD*%
D11*
%TO.C,TP1*%
X135483600Y-70180200D03*
%TD*%
%TO.C,TP10*%
X138277600Y-102285800D03*
%TD*%
D12*
%TO.C,J3*%
X131699000Y-96398000D03*
D13*
X131699000Y-93858000D03*
%TD*%
D11*
%TO.C,TP6*%
X131673600Y-80086200D03*
%TD*%
D10*
%TO.C,H2*%
X128270000Y-112776000D03*
%TD*%
%TO.C,H1*%
X128270000Y-60325000D03*
%TD*%
D11*
%TO.C,TP2*%
X135483600Y-80086200D03*
%TD*%
%TO.C,TP9*%
X135509000Y-64135000D03*
%TD*%
D14*
%TO.C,C7*%
X141987800Y-81457800D03*
X139037800Y-81457800D03*
%TD*%
D15*
%TO.C,C8*%
X139044950Y-106627400D03*
X139044950Y-109577400D03*
%TD*%
D16*
%TO.C,J4*%
X139954000Y-64135000D03*
D13*
X142494000Y-64135000D03*
%TD*%
D15*
%TO.C,C3*%
X136581150Y-106616700D03*
X136581150Y-109566700D03*
%TD*%
D17*
%TO.C,R2*%
X132217700Y-84328000D03*
X135142700Y-84328000D03*
%TD*%
D18*
%TO.C,R1*%
X134168150Y-109539500D03*
X134168150Y-106614500D03*
%TD*%
D19*
%TO.C,J2*%
X144856200Y-73812400D03*
D20*
X142456200Y-71412400D03*
X142456200Y-76212400D03*
X147256200Y-76212400D03*
X147256200Y-71412400D03*
%TD*%
D21*
%TO.C,L1*%
X138824900Y-83947000D03*
X142149900Y-83947000D03*
%TD*%
D11*
%TO.C,TP5*%
X135509000Y-75234800D03*
%TD*%
D22*
%TO.C,L2*%
X145770600Y-87057300D03*
X145770600Y-83732300D03*
%TD*%
D11*
%TO.C,TP3*%
X131699000Y-64135000D03*
%TD*%
D15*
%TO.C,C6*%
X143997950Y-106625600D03*
X143997950Y-109575600D03*
%TD*%
D11*
%TO.C,J1*%
X153035000Y-62890400D03*
D13*
X155575000Y-62890400D03*
X153035000Y-65430400D03*
X155575000Y-65430400D03*
X153035000Y-67970400D03*
X155575000Y-67970400D03*
X153035000Y-70510400D03*
X155575000Y-70510400D03*
X153035000Y-73050400D03*
X155575000Y-73050400D03*
X153035000Y-75590400D03*
X155575000Y-75590400D03*
X153035000Y-78130400D03*
X155575000Y-78130400D03*
X153035000Y-80670400D03*
X155575000Y-80670400D03*
X153035000Y-83210400D03*
X155575000Y-83210400D03*
X153035000Y-85750400D03*
X155575000Y-85750400D03*
X153035000Y-88290400D03*
X155575000Y-88290400D03*
X153035000Y-90830400D03*
X155575000Y-90830400D03*
X153035000Y-93370400D03*
X155575000Y-93370400D03*
X153035000Y-95910400D03*
X155575000Y-95910400D03*
X153035000Y-98450400D03*
X155575000Y-98450400D03*
X153035000Y-100990400D03*
X155575000Y-100990400D03*
X153035000Y-103530400D03*
X155575000Y-103530400D03*
X153035000Y-106070400D03*
X155575000Y-106070400D03*
X153035000Y-108610400D03*
X155575000Y-108610400D03*
X153035000Y-111150400D03*
X155575000Y-111150400D03*
%TD*%
D11*
%TO.C,TP4*%
X142036800Y-102285800D03*
%TD*%
D15*
%TO.C,C5*%
X146487150Y-106625600D03*
X146487150Y-109575600D03*
%TD*%
D23*
%TO.C,U2*%
X143383000Y-67360800D03*
X143383000Y-68310800D03*
X143383000Y-69260800D03*
X145658000Y-69260800D03*
X145658000Y-67360800D03*
%TD*%
D24*
%TO.C,U1*%
X141475841Y-89509600D03*
X140975715Y-89509600D03*
X140475589Y-89509600D03*
X139975463Y-89509600D03*
X139475337Y-89509600D03*
X138975211Y-89509600D03*
X138475085Y-89509600D03*
X137974959Y-89509600D03*
D25*
X137299700Y-90184859D03*
X137299700Y-90684985D03*
X137299700Y-91185111D03*
X137299700Y-91685237D03*
X137299700Y-92185363D03*
X137299700Y-92685489D03*
X137299700Y-93185615D03*
X137299700Y-93685741D03*
D24*
X137974959Y-94361000D03*
X138475085Y-94361000D03*
X138975211Y-94361000D03*
X139475337Y-94361000D03*
X139975463Y-94361000D03*
X140475589Y-94361000D03*
X140975715Y-94361000D03*
X141475841Y-94361000D03*
D25*
X142151100Y-93685741D03*
X142151100Y-93185615D03*
X142151100Y-92685489D03*
X142151100Y-92185363D03*
X142151100Y-91685237D03*
X142151100Y-91185111D03*
X142151100Y-90684985D03*
X142151100Y-90184859D03*
D26*
X139725400Y-91935300D03*
%TD*%
D15*
%TO.C,C1*%
X139522200Y-67105000D03*
X139522200Y-70055000D03*
%TD*%
%TO.C,C4*%
X148976350Y-106625600D03*
X148976350Y-109575600D03*
%TD*%
D14*
%TO.C,C2*%
X148541000Y-63881000D03*
X145591000Y-63881000D03*
%TD*%
D27*
%TO.C,C9*%
X147015200Y-81817000D03*
X147015200Y-78867000D03*
%TD*%
D11*
%TO.C,TP8*%
X131673600Y-70180200D03*
%TD*%
M02*
