%TF.GenerationSoftware,KiCad,Pcbnew,7.0.9*%
%TF.CreationDate,2024-09-05T13:52:43+09:00*%
%TF.ProjectId,STA5635,53544135-3633-4352-9e6b-696361645f70,rev?*%
%TF.SameCoordinates,Original*%
%TF.FileFunction,Paste,Top*%
%TF.FilePolarity,Positive*%
%FSLAX46Y46*%
G04 Gerber Fmt 4.6, Leading zero omitted, Abs format (unit mm)*
G04 Created by KiCad (PCBNEW 7.0.9) date 2024-09-05 13:52:43*
%MOMM*%
%LPD*%
G01*
G04 APERTURE LIST*
G04 Aperture macros list*
%AMRoundRect*
0 Rectangle with rounded corners*
0 $1 Rounding radius*
0 $2 $3 $4 $5 $6 $7 $8 $9 X,Y pos of 4 corners*
0 Add a 4 corners polygon primitive as box body*
4,1,4,$2,$3,$4,$5,$6,$7,$8,$9,$2,$3,0*
0 Add four circle primitives for the rounded corners*
1,1,$1+$1,$2,$3*
1,1,$1+$1,$4,$5*
1,1,$1+$1,$6,$7*
1,1,$1+$1,$8,$9*
0 Add four rect primitives between the rounded corners*
20,1,$1+$1,$2,$3,$4,$5,0*
20,1,$1+$1,$4,$5,$6,$7,0*
20,1,$1+$1,$6,$7,$8,$9,0*
20,1,$1+$1,$8,$9,$2,$3,0*%
G04 Aperture macros list end*
%ADD10RoundRect,0.250000X0.325000X0.650000X-0.325000X0.650000X-0.325000X-0.650000X0.325000X-0.650000X0*%
%ADD11RoundRect,0.250000X-0.650000X0.325000X-0.650000X-0.325000X0.650000X-0.325000X0.650000X0.325000X0*%
%ADD12RoundRect,0.250000X-0.312500X-0.625000X0.312500X-0.625000X0.312500X0.625000X-0.312500X0.625000X0*%
%ADD13RoundRect,0.250000X0.625000X-0.312500X0.625000X0.312500X-0.625000X0.312500X-0.625000X-0.312500X0*%
%ADD14RoundRect,0.250000X-0.362500X-0.700000X0.362500X-0.700000X0.362500X0.700000X-0.362500X0.700000X0*%
%ADD15RoundRect,0.250000X-0.700000X0.362500X-0.700000X-0.362500X0.700000X-0.362500X0.700000X0.362500X0*%
%ADD16RoundRect,0.150000X-0.512500X-0.150000X0.512500X-0.150000X0.512500X0.150000X-0.512500X0.150000X0*%
%ADD17R,0.228600X0.762000*%
%ADD18R,0.762000X0.228600*%
%ADD19R,3.657600X3.657600*%
%ADD20RoundRect,0.250000X0.650000X-0.325000X0.650000X0.325000X-0.650000X0.325000X-0.650000X-0.325000X0*%
G04 APERTURE END LIST*
%TO.C,U1*%
G36*
X141454200Y-91835300D02*
G01*
X139825400Y-91835300D01*
X139825400Y-90206500D01*
X141454200Y-90206500D01*
X141454200Y-91835300D01*
G37*
G36*
X139625400Y-91835300D02*
G01*
X137996600Y-91835300D01*
X137996600Y-90206500D01*
X139625400Y-90206500D01*
X139625400Y-91835300D01*
G37*
G36*
X141454200Y-93664100D02*
G01*
X139825400Y-93664100D01*
X139825400Y-92035300D01*
X141454200Y-92035300D01*
X141454200Y-93664100D01*
G37*
G36*
X139625400Y-93664100D02*
G01*
X137996600Y-93664100D01*
X137996600Y-92035300D01*
X139625400Y-92035300D01*
X139625400Y-93664100D01*
G37*
%TD*%
D10*
%TO.C,C7*%
X141987800Y-81457800D03*
X139037800Y-81457800D03*
%TD*%
D11*
%TO.C,C8*%
X139044950Y-106627400D03*
X139044950Y-109577400D03*
%TD*%
%TO.C,C3*%
X136581150Y-106616700D03*
X136581150Y-109566700D03*
%TD*%
D12*
%TO.C,R2*%
X132217700Y-84328000D03*
X135142700Y-84328000D03*
%TD*%
D13*
%TO.C,R1*%
X134168150Y-109539500D03*
X134168150Y-106614500D03*
%TD*%
D14*
%TO.C,L1*%
X138824900Y-83947000D03*
X142149900Y-83947000D03*
%TD*%
D15*
%TO.C,L2*%
X145770600Y-87057300D03*
X145770600Y-83732300D03*
%TD*%
D11*
%TO.C,C6*%
X143997950Y-106625600D03*
X143997950Y-109575600D03*
%TD*%
%TO.C,C5*%
X146487150Y-106625600D03*
X146487150Y-109575600D03*
%TD*%
D16*
%TO.C,U2*%
X143383000Y-67360800D03*
X143383000Y-68310800D03*
X143383000Y-69260800D03*
X145658000Y-69260800D03*
X145658000Y-67360800D03*
%TD*%
D17*
%TO.C,U1*%
X141475841Y-89509600D03*
X140975715Y-89509600D03*
X140475589Y-89509600D03*
X139975463Y-89509600D03*
X139475337Y-89509600D03*
X138975211Y-89509600D03*
X138475085Y-89509600D03*
X137974959Y-89509600D03*
D18*
X137299700Y-90184859D03*
X137299700Y-90684985D03*
X137299700Y-91185111D03*
X137299700Y-91685237D03*
X137299700Y-92185363D03*
X137299700Y-92685489D03*
X137299700Y-93185615D03*
X137299700Y-93685741D03*
D17*
X137974959Y-94361000D03*
X138475085Y-94361000D03*
X138975211Y-94361000D03*
X139475337Y-94361000D03*
X139975463Y-94361000D03*
X140475589Y-94361000D03*
X140975715Y-94361000D03*
X141475841Y-94361000D03*
D18*
X142151100Y-93685741D03*
X142151100Y-93185615D03*
X142151100Y-92685489D03*
X142151100Y-92185363D03*
X142151100Y-91685237D03*
X142151100Y-91185111D03*
X142151100Y-90684985D03*
X142151100Y-90184859D03*
D19*
X139725400Y-91935300D03*
%TD*%
D11*
%TO.C,C1*%
X139522200Y-67105000D03*
X139522200Y-70055000D03*
%TD*%
%TO.C,C4*%
X148976350Y-106625600D03*
X148976350Y-109575600D03*
%TD*%
D10*
%TO.C,C2*%
X148541000Y-63881000D03*
X145591000Y-63881000D03*
%TD*%
D20*
%TO.C,C9*%
X147015200Y-81817000D03*
X147015200Y-78867000D03*
%TD*%
M02*
