%TF.GenerationSoftware,KiCad,Pcbnew,7.0.9*%
%TF.CreationDate,2024-09-05T13:52:43+09:00*%
%TF.ProjectId,STA5635,53544135-3633-4352-9e6b-696361645f70,rev?*%
%TF.SameCoordinates,Original*%
%TF.FileFunction,Copper,L1,Top*%
%TF.FilePolarity,Positive*%
%FSLAX46Y46*%
G04 Gerber Fmt 4.6, Leading zero omitted, Abs format (unit mm)*
G04 Created by KiCad (PCBNEW 7.0.9) date 2024-09-05 13:52:43*
%MOMM*%
%LPD*%
G01*
G04 APERTURE LIST*
G04 Aperture macros list*
%AMRoundRect*
0 Rectangle with rounded corners*
0 $1 Rounding radius*
0 $2 $3 $4 $5 $6 $7 $8 $9 X,Y pos of 4 corners*
0 Add a 4 corners polygon primitive as box body*
4,1,4,$2,$3,$4,$5,$6,$7,$8,$9,$2,$3,0*
0 Add four circle primitives for the rounded corners*
1,1,$1+$1,$2,$3*
1,1,$1+$1,$4,$5*
1,1,$1+$1,$6,$7*
1,1,$1+$1,$8,$9*
0 Add four rect primitives between the rounded corners*
20,1,$1+$1,$2,$3,$4,$5,0*
20,1,$1+$1,$4,$5,$6,$7,0*
20,1,$1+$1,$6,$7,$8,$9,0*
20,1,$1+$1,$8,$9,$2,$3,0*%
G04 Aperture macros list end*
%TA.AperFunction,ComponentPad*%
%ADD10R,1.700000X1.700000*%
%TD*%
%TA.AperFunction,ComponentPad*%
%ADD11O,1.700000X1.700000*%
%TD*%
%TA.AperFunction,SMDPad,CuDef*%
%ADD12RoundRect,0.250000X0.325000X0.650000X-0.325000X0.650000X-0.325000X-0.650000X0.325000X-0.650000X0*%
%TD*%
%TA.AperFunction,SMDPad,CuDef*%
%ADD13RoundRect,0.250000X-0.650000X0.325000X-0.650000X-0.325000X0.650000X-0.325000X0.650000X0.325000X0*%
%TD*%
%TA.AperFunction,SMDPad,CuDef*%
%ADD14RoundRect,0.250000X-0.312500X-0.625000X0.312500X-0.625000X0.312500X0.625000X-0.312500X0.625000X0*%
%TD*%
%TA.AperFunction,SMDPad,CuDef*%
%ADD15RoundRect,0.250000X0.625000X-0.312500X0.625000X0.312500X-0.625000X0.312500X-0.625000X-0.312500X0*%
%TD*%
%TA.AperFunction,ComponentPad*%
%ADD16C,1.508000*%
%TD*%
%TA.AperFunction,ComponentPad*%
%ADD17C,1.920000*%
%TD*%
%TA.AperFunction,SMDPad,CuDef*%
%ADD18RoundRect,0.250000X-0.362500X-0.700000X0.362500X-0.700000X0.362500X0.700000X-0.362500X0.700000X0*%
%TD*%
%TA.AperFunction,SMDPad,CuDef*%
%ADD19RoundRect,0.250000X-0.700000X0.362500X-0.700000X-0.362500X0.700000X-0.362500X0.700000X0.362500X0*%
%TD*%
%TA.AperFunction,SMDPad,CuDef*%
%ADD20RoundRect,0.150000X-0.512500X-0.150000X0.512500X-0.150000X0.512500X0.150000X-0.512500X0.150000X0*%
%TD*%
%TA.AperFunction,SMDPad,CuDef*%
%ADD21R,0.228600X0.762000*%
%TD*%
%TA.AperFunction,SMDPad,CuDef*%
%ADD22R,0.762000X0.228600*%
%TD*%
%TA.AperFunction,SMDPad,CuDef*%
%ADD23R,3.657600X3.657600*%
%TD*%
%TA.AperFunction,SMDPad,CuDef*%
%ADD24RoundRect,0.250000X0.650000X-0.325000X0.650000X0.325000X-0.650000X0.325000X-0.650000X-0.325000X0*%
%TD*%
%TA.AperFunction,ViaPad*%
%ADD25C,0.800000*%
%TD*%
%TA.AperFunction,Conductor*%
%ADD26C,0.250000*%
%TD*%
%TA.AperFunction,Conductor*%
%ADD27C,0.400000*%
%TD*%
%TA.AperFunction,Conductor*%
%ADD28C,0.800000*%
%TD*%
%TA.AperFunction,Conductor*%
%ADD29C,1.500000*%
%TD*%
G04 APERTURE END LIST*
D10*
%TO.P,TP1,1,1*%
%TO.N,Net-(U1-RFA_IN)*%
X135483600Y-70180200D03*
%TD*%
%TO.P,TP10,1,1*%
%TO.N,GND*%
X138277600Y-102285800D03*
%TD*%
%TO.P,J3,1,Pin_1*%
%TO.N,Net-(J3-Pin_1)*%
X131699000Y-96398000D03*
D11*
%TO.P,J3,2,Pin_2*%
%TO.N,CHIP_EN*%
X131699000Y-93858000D03*
%TD*%
D10*
%TO.P,TP6,1,1*%
%TO.N,TCXO_IN*%
X131673600Y-80086200D03*
%TD*%
%TO.P,TP2,1,1*%
%TO.N,Net-(U1-LNA_OUT)*%
X135483600Y-80086200D03*
%TD*%
%TO.P,TP9,1,1*%
%TO.N,VDD*%
X135509000Y-64135000D03*
%TD*%
D12*
%TO.P,C7,1*%
%TO.N,1.1V*%
X141987800Y-81457800D03*
%TO.P,C7,2*%
%TO.N,GND*%
X139037800Y-81457800D03*
%TD*%
D13*
%TO.P,C8,1*%
%TO.N,VCC*%
X139044950Y-106627400D03*
%TO.P,C8,2*%
%TO.N,GND*%
X139044950Y-109577400D03*
%TD*%
D10*
%TO.P,J4,1,Pin_1*%
%TO.N,Net-(J4-Pin_1)*%
X139954000Y-64135000D03*
D11*
%TO.P,J4,2,Pin_2*%
%TO.N,VDD*%
X142494000Y-64135000D03*
%TD*%
D13*
%TO.P,C3,1*%
%TO.N,Net-(J3-Pin_1)*%
X136581150Y-106616700D03*
%TO.P,C3,2*%
%TO.N,GND*%
X136581150Y-109566700D03*
%TD*%
D14*
%TO.P,R2,1*%
%TO.N,VDD*%
X132217700Y-84328000D03*
%TO.P,R2,2*%
%TO.N,Net-(U1-TP_IF_N{slash}Sense2(1))*%
X135142700Y-84328000D03*
%TD*%
D15*
%TO.P,R1,1*%
%TO.N,VCC*%
X134168150Y-109539500D03*
%TO.P,R1,2*%
%TO.N,Net-(J3-Pin_1)*%
X134168150Y-106614500D03*
%TD*%
D16*
%TO.P,J2,1*%
%TO.N,Net-(C9-Pad2)*%
X144856200Y-73812400D03*
D17*
%TO.P,J2,G1*%
%TO.N,GND*%
X142456200Y-71412400D03*
%TO.P,J2,G2*%
X142456200Y-76212400D03*
%TO.P,J2,G3*%
X147256200Y-76212400D03*
%TO.P,J2,G4*%
X147256200Y-71412400D03*
%TD*%
D18*
%TO.P,L1,1*%
%TO.N,Net-(U1-TP_IF_N{slash}Sense2(1))*%
X138824900Y-83947000D03*
%TO.P,L1,2*%
%TO.N,Net-(C9-Pad2)*%
X142149900Y-83947000D03*
%TD*%
D10*
%TO.P,TP5,1,1*%
%TO.N,1.1V*%
X135509000Y-75234800D03*
%TD*%
D19*
%TO.P,L2,2*%
%TO.N,LNA_IN*%
X145770600Y-87057300D03*
%TO.P,L2,1*%
%TO.N,Net-(C9-Pad1)*%
X145770600Y-83732300D03*
%TD*%
D10*
%TO.P,TP3,1,1*%
%TO.N,Net-(U1-VCC_IO)*%
X131699000Y-64135000D03*
%TD*%
D13*
%TO.P,C6,1*%
%TO.N,Net-(U1-V11_OUT_DIG)*%
X143997950Y-106625600D03*
%TO.P,C6,2*%
%TO.N,GND*%
X143997950Y-109575600D03*
%TD*%
D10*
%TO.P,J1,1,Pin_1*%
%TO.N,CHIP_EN*%
X153035000Y-62890400D03*
D11*
%TO.P,J1,2,Pin_2*%
%TO.N,unconnected-(J1-Pin_2-Pad2)*%
X155575000Y-62890400D03*
%TO.P,J1,3,Pin_3*%
%TO.N,unconnected-(J1-Pin_3-Pad3)*%
X153035000Y-65430400D03*
%TO.P,J1,4,Pin_4*%
%TO.N,unconnected-(J1-Pin_4-Pad4)*%
X155575000Y-65430400D03*
%TO.P,J1,5,Pin_5*%
%TO.N,unconnected-(J1-Pin_5-Pad5)*%
X153035000Y-67970400D03*
%TO.P,J1,6,Pin_6*%
%TO.N,unconnected-(J1-Pin_6-Pad6)*%
X155575000Y-67970400D03*
%TO.P,J1,7,Pin_7*%
%TO.N,unconnected-(J1-Pin_7-Pad7)*%
X153035000Y-70510400D03*
%TO.P,J1,8,Pin_8*%
%TO.N,unconnected-(J1-Pin_8-Pad8)*%
X155575000Y-70510400D03*
%TO.P,J1,9,Pin_9*%
%TO.N,unconnected-(J1-Pin_9-Pad9)*%
X153035000Y-73050400D03*
%TO.P,J1,10,Pin_10*%
%TO.N,unconnected-(J1-Pin_10-Pad10)*%
X155575000Y-73050400D03*
%TO.P,J1,11,Pin_11*%
%TO.N,5V*%
X153035000Y-75590400D03*
%TO.P,J1,12,Pin_12*%
%TO.N,GND*%
X155575000Y-75590400D03*
%TO.P,J1,13,Pin_13*%
%TO.N,Net-(J1-Pin_13)*%
X153035000Y-78130400D03*
%TO.P,J1,14,Pin_14*%
%TO.N,unconnected-(J1-Pin_14-Pad14)*%
X155575000Y-78130400D03*
%TO.P,J1,15,Pin_15*%
%TO.N,Net-(J1-Pin_15)*%
X153035000Y-80670400D03*
%TO.P,J1,16,Pin_16*%
%TO.N,unconnected-(J1-Pin_16-Pad16)*%
X155575000Y-80670400D03*
%TO.P,J1,17,Pin_17*%
%TO.N,Net-(J1-Pin_17)*%
X153035000Y-83210400D03*
%TO.P,J1,18,Pin_18*%
%TO.N,unconnected-(J1-Pin_18-Pad18)*%
X155575000Y-83210400D03*
%TO.P,J1,19,Pin_19*%
%TO.N,Net-(J1-Pin_19)*%
X153035000Y-85750400D03*
%TO.P,J1,20,Pin_20*%
%TO.N,unconnected-(J1-Pin_20-Pad20)*%
X155575000Y-85750400D03*
%TO.P,J1,21,Pin_21*%
%TO.N,Net-(J1-Pin_21)*%
X153035000Y-88290400D03*
%TO.P,J1,22,Pin_22*%
%TO.N,unconnected-(J1-Pin_22-Pad22)*%
X155575000Y-88290400D03*
%TO.P,J1,23,Pin_23*%
%TO.N,Net-(J1-Pin_23)*%
X153035000Y-90830400D03*
%TO.P,J1,24,Pin_24*%
%TO.N,unconnected-(J1-Pin_24-Pad24)*%
X155575000Y-90830400D03*
%TO.P,J1,25,Pin_25*%
%TO.N,Net-(J1-Pin_25)*%
X153035000Y-93370400D03*
%TO.P,J1,26,Pin_26*%
%TO.N,unconnected-(J1-Pin_26-Pad26)*%
X155575000Y-93370400D03*
%TO.P,J1,27,Pin_27*%
%TO.N,Net-(J1-Pin_27)*%
X153035000Y-95910400D03*
%TO.P,J1,28,Pin_28*%
%TO.N,unconnected-(J1-Pin_28-Pad28)*%
X155575000Y-95910400D03*
%TO.P,J1,29,Pin_29*%
%TO.N,VDD*%
X153035000Y-98450400D03*
%TO.P,J1,30,Pin_30*%
%TO.N,GND*%
X155575000Y-98450400D03*
%TO.P,J1,31,Pin_31*%
%TO.N,Net-(J1-Pin_31)*%
X153035000Y-100990400D03*
%TO.P,J1,32,Pin_32*%
%TO.N,unconnected-(J1-Pin_32-Pad32)*%
X155575000Y-100990400D03*
%TO.P,J1,33,Pin_33*%
%TO.N,Net-(J1-Pin_33)*%
X153035000Y-103530400D03*
%TO.P,J1,34,Pin_34*%
%TO.N,unconnected-(J1-Pin_34-Pad34)*%
X155575000Y-103530400D03*
%TO.P,J1,35,Pin_35*%
%TO.N,Net-(J1-Pin_35)*%
X153035000Y-106070400D03*
%TO.P,J1,36,Pin_36*%
%TO.N,unconnected-(J1-Pin_36-Pad36)*%
X155575000Y-106070400D03*
%TO.P,J1,37,Pin_37*%
%TO.N,Net-(J1-Pin_37)*%
X153035000Y-108610400D03*
%TO.P,J1,38,Pin_38*%
%TO.N,unconnected-(J1-Pin_38-Pad38)*%
X155575000Y-108610400D03*
%TO.P,J1,39,Pin_39*%
%TO.N,TCXO_IN*%
X153035000Y-111150400D03*
%TO.P,J1,40,Pin_40*%
%TO.N,unconnected-(J1-Pin_40-Pad40)*%
X155575000Y-111150400D03*
%TD*%
D10*
%TO.P,TP4,1,1*%
%TO.N,Net-(U1-V11_OUT_DIG)*%
X142036800Y-102285800D03*
%TD*%
D13*
%TO.P,C5,1*%
%TO.N,Net-(U1-VCC_IO)*%
X146487150Y-106625600D03*
%TO.P,C5,2*%
%TO.N,GND*%
X146487150Y-109575600D03*
%TD*%
D20*
%TO.P,U2,1,VIN*%
%TO.N,VDD*%
X143383000Y-67360800D03*
%TO.P,U2,2,GND*%
%TO.N,GND*%
X143383000Y-68310800D03*
%TO.P,U2,3,EN*%
%TO.N,Net-(J4-Pin_1)*%
X143383000Y-69260800D03*
%TO.P,U2,4,NC*%
%TO.N,unconnected-(U2-NC-Pad4)*%
X145658000Y-69260800D03*
%TO.P,U2,5,VOUT*%
%TO.N,VCC*%
X145658000Y-67360800D03*
%TD*%
D21*
%TO.P,U1,1,V11_LNA*%
%TO.N,1.1V*%
X141475841Y-89509600D03*
%TO.P,U1,2,LNA_OUT*%
%TO.N,Net-(U1-LNA_OUT)*%
X140975715Y-89509600D03*
%TO.P,U1,3,V11_CHAIN*%
%TO.N,1.1V*%
X140475589Y-89509600D03*
%TO.P,U1,4,RFA_IN*%
%TO.N,Net-(U1-RFA_IN)*%
X139975463Y-89509600D03*
%TO.P,U1,5,TP_IF_P/Sense1(1)*%
%TO.N,VDD*%
X139475337Y-89509600D03*
%TO.P,U1,6,TP_IF_N/Sense2(1)*%
%TO.N,Net-(U1-TP_IF_N{slash}Sense2(1))*%
X138975211Y-89509600D03*
%TO.P,U1,7,V11_OUT_RF*%
%TO.N,1.1V*%
X138475085Y-89509600D03*
%TO.P,U1,8,VCC_RF*%
%TO.N,VCC*%
X137974959Y-89509600D03*
D22*
%TO.P,U1,9,V11_PLL*%
%TO.N,1.1V*%
X137299700Y-90184859D03*
%TO.P,U1,10,TCXO_IN*%
%TO.N,TCXO_IN*%
X137299700Y-90684985D03*
%TO.P,U1,11,NC*%
%TO.N,unconnected-(U1-NC-Pad11)*%
X137299700Y-91185111D03*
%TO.P,U1,12,CHIP_EN*%
%TO.N,CHIP_EN*%
X137299700Y-91685237D03*
%TO.P,U1,13,V11_OUT_DIG*%
%TO.N,Net-(U1-V11_OUT_DIG)*%
X137299700Y-92185363D03*
%TO.P,U1,14,GND_DIG*%
%TO.N,GND*%
X137299700Y-92685489D03*
%TO.P,U1,15,VCC_IO*%
%TO.N,Net-(U1-VCC_IO)*%
X137299700Y-93185615D03*
%TO.P,U1,16,V18_OUT*%
%TO.N,Net-(U1-V18_OUT)*%
X137299700Y-93685741D03*
D21*
%TO.P,U1,17,TCXO_CLK*%
%TO.N,TCXO_IN*%
X137974959Y-94361000D03*
%TO.P,U1,18,GND_IO*%
%TO.N,GND*%
X138475085Y-94361000D03*
%TO.P,U1,19,Q-sign2*%
%TO.N,Net-(J1-Pin_35)*%
X138975211Y-94361000D03*
%TO.P,U1,20,I-mag2*%
%TO.N,Net-(J1-Pin_33)*%
X139475337Y-94361000D03*
%TO.P,U1,21,I-sign2*%
%TO.N,Net-(J1-Pin_31)*%
X139975463Y-94361000D03*
%TO.P,U1,22,Q-mag2*%
%TO.N,Net-(J1-Pin_37)*%
X140475589Y-94361000D03*
%TO.P,U1,23,I-mag1*%
%TO.N,Net-(J1-Pin_27)*%
X140975715Y-94361000D03*
%TO.P,U1,24,I-sign1*%
%TO.N,Net-(J1-Pin_25)*%
X141475841Y-94361000D03*
D22*
%TO.P,U1,25,Q-sign1*%
%TO.N,Net-(J1-Pin_23)*%
X142151100Y-93685741D03*
%TO.P,U1,26,Q-mag1*%
%TO.N,Net-(J1-Pin_21)*%
X142151100Y-93185615D03*
%TO.P,U1,27,SPI_CLK*%
%TO.N,Net-(J1-Pin_19)*%
X142151100Y-92685489D03*
%TO.P,U1,28,SPI_DI*%
%TO.N,Net-(J1-Pin_17)*%
X142151100Y-92185363D03*
%TO.P,U1,29,SPI_DO*%
%TO.N,Net-(J1-Pin_15)*%
X142151100Y-91685237D03*
%TO.P,U1,30,SPI_NCS*%
%TO.N,Net-(J1-Pin_13)*%
X142151100Y-91185111D03*
%TO.P,U1,31,LNA_IN*%
%TO.N,LNA_IN*%
X142151100Y-90684985D03*
%TO.P,U1,32,LNA_GND*%
%TO.N,GNDA*%
X142151100Y-90184859D03*
D23*
%TO.P,U1,33,GND*%
%TO.N,GND*%
X139725400Y-91935300D03*
%TD*%
D13*
%TO.P,C1,1*%
%TO.N,VDD*%
X139522200Y-67105000D03*
%TO.P,C1,2*%
%TO.N,GND*%
X139522200Y-70055000D03*
%TD*%
%TO.P,C4,1*%
%TO.N,Net-(U1-V18_OUT)*%
X148976350Y-106625600D03*
%TO.P,C4,2*%
%TO.N,GND*%
X148976350Y-109575600D03*
%TD*%
D12*
%TO.P,C2,1*%
%TO.N,VCC*%
X148541000Y-63881000D03*
%TO.P,C2,2*%
%TO.N,GND*%
X145591000Y-63881000D03*
%TD*%
D24*
%TO.P,C9,1*%
%TO.N,Net-(C9-Pad1)*%
X147015200Y-81817000D03*
%TO.P,C9,2*%
%TO.N,Net-(C9-Pad2)*%
X147015200Y-78867000D03*
%TD*%
D10*
%TO.P,TP8,1,1*%
%TO.N,Net-(U1-TP_IF_N{slash}Sense2(1))*%
X131673600Y-70180200D03*
%TD*%
D25*
%TO.N,GNDA*%
X144018000Y-80467200D03*
X143992600Y-83185000D03*
X143713200Y-87477600D03*
%TO.N,VDD*%
X132054600Y-85965700D03*
X139115800Y-86156800D03*
%TO.N,GND*%
X140843000Y-90678000D03*
X140843000Y-91821000D03*
X137721100Y-66725800D03*
X138557000Y-90678000D03*
X142748000Y-65811400D03*
X140843000Y-93091000D03*
X138557000Y-91821000D03*
X138557000Y-93091000D03*
X149047200Y-102768400D03*
X139700000Y-90678000D03*
X139700000Y-93091000D03*
X139700000Y-91821000D03*
X141102350Y-108635800D03*
%TO.N,VCC*%
X147345400Y-67360800D03*
%TO.N,TCXO_IN*%
X131521200Y-88950800D03*
%TO.N,CHIP_EN*%
X132664200Y-90500200D03*
%TO.N,Net-(U1-VCC_IO)*%
X135261985Y-93185615D03*
%TO.N,Net-(U1-V11_OUT_DIG)*%
X134340600Y-98806000D03*
X141762750Y-106908600D03*
%TO.N,VDD*%
X150114000Y-70739000D03*
X147751800Y-65862200D03*
X144373600Y-65862200D03*
%TO.N,Net-(U1-TP_IF_N{slash}Sense2(1))*%
X138519500Y-87193901D03*
%TO.N,TCXO_IN*%
X137287000Y-95961200D03*
%TO.N,Net-(J1-Pin_37)*%
X140843000Y-96062800D03*
%TO.N,Net-(J4-Pin_1)*%
X141554200Y-69596000D03*
%TO.N,Net-(U1-RFA_IN)*%
X141808200Y-79273400D03*
X137871200Y-77622400D03*
%TO.N,Net-(U1-LNA_OUT)*%
X141986000Y-86016500D03*
%TO.N,1.1V*%
X134670800Y-87198200D03*
X136448800Y-86220900D03*
X140906500Y-86321900D03*
X142748000Y-86741000D03*
X132867400Y-87528400D03*
%TD*%
D26*
%TO.N,GNDA*%
X143713200Y-87477600D02*
X143764000Y-87833200D01*
X143764000Y-89103200D02*
X143713200Y-87477600D01*
X142682341Y-90184859D02*
X143764000Y-89103200D01*
X142151100Y-90184859D02*
X142682341Y-90184859D01*
%TO.N,Net-(C9-Pad1)*%
X145770600Y-83061600D02*
X147015200Y-81817000D01*
X145770600Y-83732300D02*
X145770600Y-83061600D01*
%TO.N,LNA_IN*%
X145770600Y-88239600D02*
X145770600Y-87057300D01*
X143325215Y-90684985D02*
X145770600Y-88239600D01*
X142151100Y-90684985D02*
X143325215Y-90684985D01*
%TO.N,Net-(J1-Pin_13)*%
X151663400Y-78130400D02*
X153035000Y-78130400D01*
X149682200Y-85496400D02*
X149682200Y-80111600D01*
X143993489Y-91185111D02*
X149682200Y-85496400D01*
X142151100Y-91185111D02*
X143993489Y-91185111D01*
X149682200Y-80111600D02*
X151663400Y-78130400D01*
%TO.N,Net-(J1-Pin_15)*%
X152196800Y-80670400D02*
X153035000Y-80670400D01*
X150520400Y-85953600D02*
X150520400Y-82346800D01*
X150520400Y-82346800D02*
X152196800Y-80670400D01*
X144788763Y-91685237D02*
X150520400Y-85953600D01*
X142151100Y-91685237D02*
X144788763Y-91685237D01*
%TO.N,Net-(J1-Pin_17)*%
X151079200Y-83489800D02*
X151358600Y-83210400D01*
X151358600Y-83210400D02*
X153035000Y-83210400D01*
X151079200Y-86487000D02*
X151079200Y-83489800D01*
X145380837Y-92185363D02*
X151079200Y-86487000D01*
X142151100Y-92185363D02*
X145380837Y-92185363D01*
%TO.N,Net-(J1-Pin_19)*%
X152984200Y-85750400D02*
X153035000Y-85750400D01*
X146049111Y-92685489D02*
X152984200Y-85750400D01*
X142151100Y-92685489D02*
X146049111Y-92685489D01*
%TO.N,Net-(J1-Pin_21)*%
X147377785Y-93185615D02*
X152273000Y-88290400D01*
X152273000Y-88290400D02*
X153035000Y-88290400D01*
X142151100Y-93185615D02*
X147377785Y-93185615D01*
%TO.N,Net-(J1-Pin_23)*%
X151917400Y-90830400D02*
X153035000Y-90830400D01*
X149062059Y-93685741D02*
X151917400Y-90830400D01*
X142151100Y-93685741D02*
X149062059Y-93685741D01*
%TO.N,Net-(J1-Pin_25)*%
X151180800Y-93370400D02*
X153035000Y-93370400D01*
X150190200Y-94361000D02*
X151180800Y-93370400D01*
X141475841Y-94361000D02*
X150190200Y-94361000D01*
%TO.N,Net-(C9-Pad2)*%
X144856200Y-79146400D02*
X145059400Y-79349600D01*
X144856200Y-73812400D02*
X144856200Y-79146400D01*
X145059400Y-79349600D02*
X145542000Y-78867000D01*
X145059400Y-80822800D02*
X145059400Y-79349600D01*
X142646400Y-83450500D02*
X142646400Y-83235800D01*
X145542000Y-78867000D02*
X147015200Y-78867000D01*
X142149900Y-83947000D02*
X142646400Y-83450500D01*
X142646400Y-83235800D02*
X145059400Y-80822800D01*
%TO.N,Net-(C9-Pad1)*%
X146466700Y-81817000D02*
X147015200Y-81817000D01*
%TO.N,VCC*%
X129489200Y-86323900D02*
X129855500Y-86690200D01*
X129489200Y-67792600D02*
X129489200Y-86323900D01*
X130784600Y-66497200D02*
X129489200Y-67792600D01*
X133527800Y-65913000D02*
X132943600Y-66497200D01*
X132943600Y-66497200D02*
X130784600Y-66497200D01*
X133985000Y-62255400D02*
X133527800Y-62712600D01*
X133527800Y-62712600D02*
X133527800Y-65913000D01*
X148107400Y-62255400D02*
X133985000Y-62255400D01*
X148541000Y-62689000D02*
X148107400Y-62255400D01*
X148541000Y-63881000D02*
X148541000Y-62689000D01*
%TO.N,VDD*%
X132217700Y-85802600D02*
X132054600Y-85965700D01*
X132217700Y-84328000D02*
X132217700Y-85802600D01*
X139471400Y-86512400D02*
X139115800Y-86156800D01*
X139471400Y-86766400D02*
X139471400Y-86512400D01*
X139475337Y-86770337D02*
X139471400Y-86766400D01*
%TO.N,VCC*%
X133172200Y-86690200D02*
X129855500Y-86690200D01*
X136970600Y-87923200D02*
X134370495Y-87923200D01*
X137974959Y-88927559D02*
X136970600Y-87923200D01*
X134370495Y-87923200D02*
X133945800Y-87498505D01*
X133945800Y-87498505D02*
X133945800Y-87463800D01*
X129855500Y-86690200D02*
X129641600Y-86904100D01*
X137974959Y-89509600D02*
X137974959Y-88927559D01*
X133945800Y-87463800D02*
X133172200Y-86690200D01*
%TO.N,1.1V*%
X138475085Y-88233885D02*
X138475085Y-89509600D01*
X137795000Y-87553800D02*
X138475085Y-88233885D01*
X137781700Y-87553800D02*
X137795000Y-87553800D01*
X136448800Y-86220900D02*
X137781700Y-87553800D01*
X134924800Y-87198200D02*
X134670800Y-87198200D01*
X136448800Y-86220900D02*
X135902100Y-86220900D01*
X135902100Y-86220900D02*
X134924800Y-87198200D01*
X135371459Y-90184859D02*
X137299700Y-90184859D01*
X132867400Y-87680800D02*
X135371459Y-90184859D01*
X132867400Y-87528400D02*
X132867400Y-87680800D01*
%TO.N,VDD*%
X130124200Y-82234500D02*
X132217700Y-84328000D01*
X130124200Y-68275200D02*
X130124200Y-82234500D01*
X131191000Y-67208400D02*
X130124200Y-68275200D01*
X134239000Y-67208400D02*
X131191000Y-67208400D01*
X135509000Y-65938400D02*
X134239000Y-67208400D01*
X135509000Y-64135000D02*
X135509000Y-65938400D01*
X136552200Y-64135000D02*
X135509000Y-64135000D01*
X139522200Y-67105000D02*
X136552200Y-64135000D01*
%TO.N,GND*%
X139522200Y-70055000D02*
X137718800Y-68251600D01*
X154305000Y-74320400D02*
X149148200Y-74320400D01*
X138975211Y-92685489D02*
X139725400Y-91935300D01*
X139700000Y-91960700D02*
X139700000Y-91821000D01*
X136581150Y-109566700D02*
X139034250Y-109566700D01*
X137718800Y-68251600D02*
X137718800Y-66725800D01*
D27*
X150469600Y-108082350D02*
X148976350Y-109575600D01*
D28*
X148976350Y-109575600D02*
X146487150Y-109575600D01*
X143997950Y-109575600D02*
X139046750Y-109575600D01*
X157632400Y-97637600D02*
X157632400Y-76301600D01*
D26*
X138277600Y-100914200D02*
X138277600Y-102285800D01*
X142456200Y-76212400D02*
X139037800Y-79630800D01*
X138557000Y-93103700D02*
X138557000Y-93091000D01*
X139700000Y-91821000D02*
X139839700Y-91821000D01*
D28*
X141102350Y-108635800D02*
X139986550Y-108635800D01*
D29*
X147256200Y-76212400D02*
X147256200Y-71412400D01*
D26*
X141266400Y-68310800D02*
X139522200Y-70055000D01*
D28*
X156921200Y-75590400D02*
X155575000Y-75590400D01*
D26*
X138475085Y-99776915D02*
X138480800Y-99782630D01*
X143383000Y-68310800D02*
X141266400Y-68310800D01*
X154305000Y-74320400D02*
X155575000Y-75590400D01*
X143256000Y-65811400D02*
X142748000Y-65811400D01*
X138569700Y-93091000D02*
X139700000Y-91960700D01*
D28*
X146487150Y-109575600D02*
X143997950Y-109575600D01*
D26*
X139037800Y-79630800D02*
X139037800Y-81457800D01*
X138480800Y-100711000D02*
X138277600Y-100914200D01*
D29*
X142456200Y-71412400D02*
X142456200Y-76212400D01*
D26*
X149148200Y-74320400D02*
X147256200Y-76212400D01*
X138480800Y-99782630D02*
X138480800Y-100711000D01*
D28*
X140879600Y-71412400D02*
X139522200Y-70055000D01*
D29*
X142456200Y-71412400D02*
X147256200Y-71412400D01*
D26*
X138557000Y-93091000D02*
X138569700Y-93091000D01*
D28*
X139986550Y-108635800D02*
X139044950Y-109577400D01*
D26*
X145591000Y-63881000D02*
X145186400Y-63881000D01*
X143996150Y-109577400D02*
X143997950Y-109575600D01*
D28*
X155575000Y-98450400D02*
X156819600Y-98450400D01*
D26*
X138475085Y-93185615D02*
X138557000Y-93103700D01*
D28*
X157632400Y-76301600D02*
X156921200Y-75590400D01*
D26*
X142746200Y-65809600D02*
X142748000Y-65811400D01*
X138475085Y-94361000D02*
X138475085Y-93185615D01*
D28*
X139046750Y-109575600D02*
X139044950Y-109577400D01*
X142456200Y-71412400D02*
X140879600Y-71412400D01*
D26*
X138475085Y-94361000D02*
X138475085Y-99776915D01*
D28*
X156819600Y-98450400D02*
X157632400Y-97637600D01*
D27*
X149047200Y-102768400D02*
X150469600Y-104190800D01*
D26*
X137299700Y-92685489D02*
X138975211Y-92685489D01*
X139034250Y-109566700D02*
X139044950Y-109577400D01*
D27*
X150469600Y-104190800D02*
X150469600Y-108082350D01*
D26*
X139839700Y-91821000D02*
X139725400Y-91935300D01*
X137718800Y-66725800D02*
X137721100Y-66725800D01*
X145186400Y-63881000D02*
X143256000Y-65811400D01*
%TO.N,VCC*%
X138689350Y-108077000D02*
X139044950Y-107721400D01*
%TO.N,VDD*%
X139475337Y-89509600D02*
X139475337Y-86770337D01*
%TO.N,VCC*%
X139044950Y-107721400D02*
X139044950Y-106627400D01*
X145658000Y-66764000D02*
X145658000Y-67360800D01*
X135630650Y-108077000D02*
X138689350Y-108077000D01*
X134168150Y-109539500D02*
X131713700Y-109539500D01*
X148541000Y-63881000D02*
X145658000Y-66764000D01*
X131713700Y-109539500D02*
X129641600Y-107467400D01*
X129641600Y-107467400D02*
X129641600Y-86904100D01*
X145696200Y-67322600D02*
X145658000Y-67360800D01*
X134168150Y-109539500D02*
X135630650Y-108077000D01*
X145658000Y-67360800D02*
X147345400Y-67360800D01*
%TO.N,Net-(J3-Pin_1)*%
X136581150Y-106616700D02*
X134170350Y-106616700D01*
X131699000Y-104145350D02*
X131699000Y-96398000D01*
X134168150Y-106614500D02*
X131699000Y-104145350D01*
X134170350Y-106616700D02*
X134168150Y-106614500D01*
%TO.N,TCXO_IN*%
X137299700Y-90684985D02*
X134906385Y-90684985D01*
X132232400Y-89662000D02*
X131521200Y-88950800D01*
X134906385Y-90684985D02*
X133883400Y-89662000D01*
X133883400Y-89662000D02*
X132232400Y-89662000D01*
%TO.N,CHIP_EN*%
X132664200Y-90500200D02*
X132664200Y-92892800D01*
X133283105Y-90500200D02*
X134468142Y-91685237D01*
X132664200Y-90500200D02*
X133283105Y-90500200D01*
X134468142Y-91685237D02*
X137299700Y-91685237D01*
X132664200Y-92892800D02*
X131699000Y-93858000D01*
%TO.N,Net-(U1-V18_OUT)*%
X136601200Y-104165400D02*
X148132800Y-104165400D01*
X148132800Y-104165400D02*
X148976350Y-105008950D01*
X148976350Y-105008950D02*
X148976350Y-106625600D01*
X136169400Y-93980000D02*
X136169400Y-103454200D01*
X137299700Y-93685741D02*
X136463659Y-93685741D01*
X136176000Y-103740200D02*
X136601200Y-104165400D01*
X136169400Y-103454200D02*
X136176000Y-103460800D01*
X136176000Y-103460800D02*
X136176000Y-103740200D01*
X136463659Y-93685741D02*
X136169400Y-93980000D01*
%TO.N,Net-(U1-VCC_IO)*%
X146100800Y-104648000D02*
X136321800Y-104648000D01*
X134790600Y-93657000D02*
X135261985Y-93185615D01*
X135261985Y-93185615D02*
X137299700Y-93185615D01*
X146487150Y-105034350D02*
X146100800Y-104648000D01*
X146487150Y-106625600D02*
X146487150Y-105034350D01*
X136321800Y-104648000D02*
X135509000Y-103835200D01*
X135509000Y-103835200D02*
X135509000Y-98769600D01*
X135509000Y-98769600D02*
X134790600Y-98051200D01*
X134790600Y-98051200D02*
X134790600Y-93657000D01*
%TO.N,Net-(U1-V11_OUT_DIG)*%
X142045750Y-106625600D02*
X141762750Y-106908600D01*
X134340600Y-92633800D02*
X134340600Y-98806000D01*
X137299700Y-92185363D02*
X134789037Y-92185363D01*
X143997950Y-106625600D02*
X142045750Y-106625600D01*
X134789037Y-92185363D02*
X134340600Y-92633800D01*
X143997950Y-106625600D02*
X142902150Y-106625600D01*
%TO.N,VDD*%
X143383000Y-67360800D02*
X143383000Y-66852800D01*
X150114000Y-68224400D02*
X150114000Y-70739000D01*
X139778000Y-67360800D02*
X139522200Y-67105000D01*
X143383000Y-66852800D02*
X144373600Y-65862200D01*
X143383000Y-67360800D02*
X139778000Y-67360800D01*
X147751800Y-65862200D02*
X150114000Y-68224400D01*
%TO.N,Net-(C9-Pad2)*%
X144500600Y-74168000D02*
X144856200Y-73812400D01*
%TO.N,Net-(U1-TP_IF_N{slash}Sense2(1))*%
X135142700Y-84328000D02*
X135142700Y-83199700D01*
X133756400Y-81813400D02*
X133756400Y-77495400D01*
X131673600Y-75412600D02*
X131673600Y-70180200D01*
X135142700Y-83199700D02*
X133756400Y-81813400D01*
X138824900Y-83947000D02*
X135523700Y-83947000D01*
X138519500Y-87024395D02*
X136991505Y-85496400D01*
X136991505Y-85496400D02*
X136311100Y-85496400D01*
X136311100Y-85496400D02*
X135142700Y-84328000D01*
X135523700Y-83947000D02*
X135142700Y-84328000D01*
X133756400Y-77495400D02*
X131673600Y-75412600D01*
X138975211Y-87649612D02*
X138519500Y-87193901D01*
X138519500Y-87193901D02*
X138519500Y-87024395D01*
X138975211Y-89509600D02*
X138975211Y-87649612D01*
%TO.N,Net-(J1-Pin_27)*%
X140975715Y-94361000D02*
X140975715Y-95006174D01*
X151231600Y-95910400D02*
X153035000Y-95910400D01*
X142057741Y-96088200D02*
X151053800Y-96088200D01*
X140975715Y-95006174D02*
X142057741Y-96088200D01*
X151053800Y-96088200D02*
X151231600Y-95910400D01*
%TO.N,Net-(J1-Pin_31)*%
X140833695Y-97078800D02*
X148361400Y-97078800D01*
X151130000Y-100126800D02*
X151993600Y-100990400D01*
X151130000Y-99847400D02*
X151130000Y-100126800D01*
X139975463Y-96220568D02*
X140833695Y-97078800D01*
X151993600Y-100990400D02*
X153035000Y-100990400D01*
X148361400Y-97078800D02*
X151130000Y-99847400D01*
X139975463Y-94361000D02*
X139975463Y-96220568D01*
%TO.N,Net-(J1-Pin_33)*%
X140908499Y-97790000D02*
X147980400Y-97790000D01*
X139475337Y-94361000D02*
X139475337Y-96356838D01*
X147980400Y-97790000D02*
X150622000Y-100431600D01*
X139475337Y-96356838D02*
X140908499Y-97790000D01*
X151511000Y-103530400D02*
X153035000Y-103530400D01*
X150622000Y-102641400D02*
X151511000Y-103530400D01*
X150622000Y-100431600D02*
X150622000Y-102641400D01*
%TO.N,Net-(J1-Pin_35)*%
X151206200Y-105664000D02*
X151206200Y-103987600D01*
X150139400Y-102920800D02*
X150139400Y-102387400D01*
X146227800Y-98475800D02*
X145465800Y-98475800D01*
X151206200Y-103987600D02*
X150139400Y-102920800D01*
X150139400Y-102387400D02*
X146227800Y-98475800D01*
X140957903Y-98475800D02*
X145465800Y-98475800D01*
X153035000Y-106070400D02*
X151612600Y-106070400D01*
X138975211Y-94361000D02*
X138975211Y-96493108D01*
X138975211Y-96493108D02*
X140957903Y-98475800D01*
X151612600Y-106070400D02*
X151206200Y-105664000D01*
%TO.N,TCXO_IN*%
X137287000Y-95961200D02*
X137972800Y-95275400D01*
X137974959Y-95070041D02*
X137974959Y-94361000D01*
X137972800Y-95072200D02*
X137974959Y-95070041D01*
X137972800Y-95275400D02*
X137972800Y-95072200D01*
%TO.N,Net-(J1-Pin_37)*%
X140475589Y-94361000D02*
X140475589Y-95695389D01*
X140475589Y-95695389D02*
X140843000Y-96062800D01*
%TO.N,Net-(J4-Pin_1)*%
X139522200Y-64098600D02*
X139536600Y-64084200D01*
X141889400Y-69260800D02*
X141554200Y-69596000D01*
X143383000Y-69260800D02*
X141889400Y-69260800D01*
%TO.N,Net-(U1-RFA_IN)*%
X139979400Y-86174326D02*
X139979400Y-85471000D01*
X140284200Y-82956400D02*
X140893800Y-82346800D01*
X139975463Y-86178263D02*
X139979400Y-86174326D01*
X140893800Y-82346800D02*
X140893800Y-80187800D01*
X139979400Y-85471000D02*
X140284200Y-85166200D01*
X139975463Y-89509600D02*
X139975463Y-86178263D01*
X140893800Y-80187800D02*
X141808200Y-79273400D01*
X140284200Y-85166200D02*
X140284200Y-82956400D01*
%TO.N,Net-(U1-LNA_OUT)*%
X141681200Y-86360000D02*
X141986000Y-86055200D01*
X140975715Y-89509600D02*
X140975715Y-88005285D01*
X141681200Y-87299800D02*
X141681200Y-86360000D01*
X141986000Y-86055200D02*
X141986000Y-86016500D01*
X140975715Y-88005285D02*
X141681200Y-87299800D01*
%TO.N,1.1V*%
X142722600Y-86766400D02*
X142748000Y-86741000D01*
X141475841Y-88444959D02*
X142722600Y-87198200D01*
X140906500Y-83250300D02*
X140906500Y-86321900D01*
X140906500Y-83250300D02*
X141987800Y-82169000D01*
X140906500Y-86321900D02*
X140475589Y-86752811D01*
X141475841Y-89509600D02*
X141475841Y-88444959D01*
X142722600Y-87198200D02*
X142722600Y-86766400D01*
X140475589Y-86752811D02*
X140475589Y-89509600D01*
%TD*%
%TA.AperFunction,Conductor*%
%TO.N,GNDA*%
G36*
X146248739Y-72382585D02*
G01*
X146294494Y-72435389D01*
X146305700Y-72486900D01*
X146305700Y-75503794D01*
X146286015Y-75570833D01*
X146280662Y-75578509D01*
X146271113Y-75591155D01*
X146265297Y-75598857D01*
X146265292Y-75598864D01*
X146169434Y-75791372D01*
X146169429Y-75791385D01*
X146110571Y-75998245D01*
X146090728Y-76212399D01*
X146090728Y-76212400D01*
X146110571Y-76426554D01*
X146169429Y-76633414D01*
X146169434Y-76633427D01*
X146265296Y-76825942D01*
X146357286Y-76947757D01*
X146394906Y-76997573D01*
X146553846Y-77142467D01*
X146736704Y-77255688D01*
X146736705Y-77255688D01*
X146736706Y-77255689D01*
X146764866Y-77266598D01*
X146937253Y-77333381D01*
X147148664Y-77372900D01*
X147148667Y-77372900D01*
X147363733Y-77372900D01*
X147363736Y-77372900D01*
X147575147Y-77333381D01*
X147775696Y-77255688D01*
X147958554Y-77142467D01*
X148117494Y-76997573D01*
X148247104Y-76825942D01*
X148342970Y-76633417D01*
X148401828Y-76426555D01*
X148421672Y-76212400D01*
X148401828Y-75998245D01*
X148342970Y-75791383D01*
X148314449Y-75734107D01*
X148302189Y-75665322D01*
X148329062Y-75600827D01*
X148337759Y-75591165D01*
X148708519Y-75220405D01*
X148769842Y-75186921D01*
X148839534Y-75191905D01*
X148895467Y-75233777D01*
X148919884Y-75299241D01*
X148920200Y-75308087D01*
X148920200Y-85746711D01*
X148900515Y-85813750D01*
X148883881Y-85834392D01*
X147130924Y-87587348D01*
X147069601Y-87620833D01*
X146999909Y-87615849D01*
X146943976Y-87573977D01*
X146919559Y-87508513D01*
X146919785Y-87488088D01*
X146921100Y-87474067D01*
X146921100Y-86640530D01*
X146918246Y-86610100D01*
X146918246Y-86610098D01*
X146873393Y-86481919D01*
X146873392Y-86481917D01*
X146841098Y-86438160D01*
X146792750Y-86372650D01*
X146683482Y-86292007D01*
X146683480Y-86292006D01*
X146555300Y-86247153D01*
X146524870Y-86244300D01*
X146524866Y-86244300D01*
X145016334Y-86244300D01*
X145016330Y-86244300D01*
X144985900Y-86247153D01*
X144985898Y-86247153D01*
X144857719Y-86292006D01*
X144857717Y-86292007D01*
X144748450Y-86372650D01*
X144667807Y-86481917D01*
X144667806Y-86481919D01*
X144622953Y-86610098D01*
X144622953Y-86610100D01*
X144620100Y-86640530D01*
X144620100Y-87474069D01*
X144622953Y-87504499D01*
X144622953Y-87504501D01*
X144667806Y-87632680D01*
X144667807Y-87632682D01*
X144748450Y-87741950D01*
X144775387Y-87761830D01*
X144817637Y-87817478D01*
X144823096Y-87887134D01*
X144790028Y-87948683D01*
X144728934Y-87982584D01*
X144701753Y-87985600D01*
X142694888Y-87985600D01*
X142627849Y-87965915D01*
X142582094Y-87913111D01*
X142572150Y-87843953D01*
X142601175Y-87780397D01*
X142607207Y-87773919D01*
X142661542Y-87719584D01*
X142940821Y-87440304D01*
X142944772Y-87436684D01*
X142975794Y-87410655D01*
X142996044Y-87375578D01*
X142998933Y-87371045D01*
X143022153Y-87337884D01*
X143022155Y-87337876D01*
X143024416Y-87333028D01*
X143031363Y-87316258D01*
X143036900Y-87301048D01*
X143040855Y-87302487D01*
X143062167Y-87259186D01*
X143077989Y-87244704D01*
X143176282Y-87169282D01*
X143272536Y-87043841D01*
X143333044Y-86897762D01*
X143353682Y-86741000D01*
X143351444Y-86724004D01*
X143338632Y-86626684D01*
X143333044Y-86584238D01*
X143272536Y-86438159D01*
X143176282Y-86312718D01*
X143050841Y-86216464D01*
X142980785Y-86187446D01*
X142904762Y-86155956D01*
X142904760Y-86155955D01*
X142748001Y-86135318D01*
X142748000Y-86135318D01*
X142731863Y-86137442D01*
X142662828Y-86126674D01*
X142610574Y-86080292D01*
X142594503Y-86024326D01*
X142592743Y-86024558D01*
X142571044Y-85859739D01*
X142571044Y-85859738D01*
X142510536Y-85713659D01*
X142414282Y-85588218D01*
X142288841Y-85491964D01*
X142142762Y-85431456D01*
X142142760Y-85431455D01*
X141986001Y-85410818D01*
X141985999Y-85410818D01*
X141829239Y-85431455D01*
X141829237Y-85431456D01*
X141683160Y-85491963D01*
X141683159Y-85491964D01*
X141557718Y-85588218D01*
X141469412Y-85703302D01*
X141456516Y-85720108D01*
X141454640Y-85718668D01*
X141412813Y-85758547D01*
X141344205Y-85771765D01*
X141279342Y-85745792D01*
X141238817Y-85688875D01*
X141232000Y-85648327D01*
X141232000Y-85029938D01*
X141251685Y-84962899D01*
X141304489Y-84917144D01*
X141373647Y-84907200D01*
X141437203Y-84936225D01*
X141455766Y-84956299D01*
X141465250Y-84969150D01*
X141574518Y-85049793D01*
X141617245Y-85064744D01*
X141702699Y-85094646D01*
X141733130Y-85097500D01*
X141733134Y-85097500D01*
X142566670Y-85097500D01*
X142597099Y-85094646D01*
X142597101Y-85094646D01*
X142661190Y-85072219D01*
X142725282Y-85049793D01*
X142834550Y-84969150D01*
X142915193Y-84859882D01*
X142937619Y-84795790D01*
X142960046Y-84731701D01*
X142960046Y-84731699D01*
X142962900Y-84701269D01*
X142962900Y-84149069D01*
X144620100Y-84149069D01*
X144622953Y-84179499D01*
X144622953Y-84179501D01*
X144667806Y-84307680D01*
X144667807Y-84307682D01*
X144748450Y-84416950D01*
X144857718Y-84497593D01*
X144900445Y-84512544D01*
X144985899Y-84542446D01*
X145016330Y-84545300D01*
X145016334Y-84545300D01*
X146524870Y-84545300D01*
X146555299Y-84542446D01*
X146555301Y-84542446D01*
X146619390Y-84520019D01*
X146683482Y-84497593D01*
X146792750Y-84416950D01*
X146873393Y-84307682D01*
X146895819Y-84243590D01*
X146918246Y-84179501D01*
X146918246Y-84179499D01*
X146921100Y-84149069D01*
X146921100Y-83315530D01*
X146918246Y-83285100D01*
X146918246Y-83285098D01*
X146873393Y-83156919D01*
X146873392Y-83156917D01*
X146849587Y-83124662D01*
X146792750Y-83047650D01*
X146683482Y-82967007D01*
X146683479Y-82967006D01*
X146604576Y-82939396D01*
X146547800Y-82898674D01*
X146522054Y-82833721D01*
X146535511Y-82765159D01*
X146557847Y-82734678D01*
X146663709Y-82628818D01*
X146725032Y-82595334D01*
X146751389Y-82592500D01*
X147719470Y-82592500D01*
X147749899Y-82589646D01*
X147749901Y-82589646D01*
X147813990Y-82567219D01*
X147878082Y-82544793D01*
X147987350Y-82464150D01*
X148067993Y-82354882D01*
X148090419Y-82290790D01*
X148112846Y-82226701D01*
X148112846Y-82226699D01*
X148115700Y-82196269D01*
X148115700Y-81437730D01*
X148112846Y-81407300D01*
X148112846Y-81407298D01*
X148067993Y-81279119D01*
X148067992Y-81279117D01*
X147987350Y-81169850D01*
X147878082Y-81089207D01*
X147878080Y-81089206D01*
X147749900Y-81044353D01*
X147719470Y-81041500D01*
X147719466Y-81041500D01*
X146310934Y-81041500D01*
X146310930Y-81041500D01*
X146280500Y-81044353D01*
X146280498Y-81044353D01*
X146152319Y-81089206D01*
X146152317Y-81089207D01*
X146043050Y-81169850D01*
X145962407Y-81279117D01*
X145962406Y-81279119D01*
X145917553Y-81407298D01*
X145917553Y-81407300D01*
X145914700Y-81437730D01*
X145914700Y-82196269D01*
X145917553Y-82226698D01*
X145950822Y-82321776D01*
X145954383Y-82391555D01*
X145921461Y-82450411D01*
X145552403Y-82819470D01*
X145548414Y-82823125D01*
X145517405Y-82849145D01*
X145512695Y-82857304D01*
X145462126Y-82905518D01*
X145405310Y-82919300D01*
X145016330Y-82919300D01*
X144985900Y-82922153D01*
X144985898Y-82922153D01*
X144857719Y-82967006D01*
X144857717Y-82967007D01*
X144748450Y-83047650D01*
X144667807Y-83156917D01*
X144667806Y-83156919D01*
X144622953Y-83285098D01*
X144622953Y-83285100D01*
X144620100Y-83315530D01*
X144620100Y-84149069D01*
X142962900Y-84149069D01*
X142962900Y-83543264D01*
X142967126Y-83511168D01*
X142975664Y-83479307D01*
X142972135Y-83438981D01*
X142971900Y-83433578D01*
X142971900Y-83421988D01*
X142991585Y-83354949D01*
X143008219Y-83334307D01*
X144138179Y-82204347D01*
X145277610Y-81064915D01*
X145281572Y-81061284D01*
X145312594Y-81035255D01*
X145332844Y-81000179D01*
X145335728Y-80995652D01*
X145358954Y-80962484D01*
X145358954Y-80962481D01*
X145361219Y-80957624D01*
X145368147Y-80940899D01*
X145369987Y-80935846D01*
X145369988Y-80935845D01*
X145377021Y-80895950D01*
X145378177Y-80890737D01*
X145388663Y-80851607D01*
X145385135Y-80811289D01*
X145384900Y-80805886D01*
X145384900Y-79535788D01*
X145404585Y-79468749D01*
X145421219Y-79448107D01*
X145640508Y-79228819D01*
X145701831Y-79195334D01*
X145728189Y-79192500D01*
X145800108Y-79192500D01*
X145867147Y-79212185D01*
X145912902Y-79264989D01*
X145917149Y-79275544D01*
X145946302Y-79358856D01*
X145962407Y-79404882D01*
X146043050Y-79514150D01*
X146152318Y-79594793D01*
X146195045Y-79609744D01*
X146280499Y-79639646D01*
X146310930Y-79642500D01*
X146310934Y-79642500D01*
X147719470Y-79642500D01*
X147749899Y-79639646D01*
X147749901Y-79639646D01*
X147813990Y-79617219D01*
X147878082Y-79594793D01*
X147987350Y-79514150D01*
X148067993Y-79404882D01*
X148097186Y-79321454D01*
X148112846Y-79276701D01*
X148112846Y-79276699D01*
X148115700Y-79246269D01*
X148115700Y-78487730D01*
X148112846Y-78457300D01*
X148112846Y-78457298D01*
X148067993Y-78329119D01*
X148067992Y-78329117D01*
X147987350Y-78219850D01*
X147878082Y-78139207D01*
X147878080Y-78139206D01*
X147749900Y-78094353D01*
X147719470Y-78091500D01*
X147719466Y-78091500D01*
X146310934Y-78091500D01*
X146310930Y-78091500D01*
X146280500Y-78094353D01*
X146280498Y-78094353D01*
X146152319Y-78139206D01*
X146152317Y-78139207D01*
X146043050Y-78219850D01*
X145962407Y-78329117D01*
X145917149Y-78458456D01*
X145876427Y-78515231D01*
X145811474Y-78540978D01*
X145800108Y-78541500D01*
X145558910Y-78541500D01*
X145553506Y-78541264D01*
X145547993Y-78540781D01*
X145513192Y-78537736D01*
X145474105Y-78548210D01*
X145468825Y-78549381D01*
X145428957Y-78556411D01*
X145423983Y-78558221D01*
X145407118Y-78565207D01*
X145402316Y-78567446D01*
X145376819Y-78585298D01*
X145310611Y-78607623D01*
X145242845Y-78590609D01*
X145195034Y-78539659D01*
X145181700Y-78483720D01*
X145181700Y-74795035D01*
X145201385Y-74727996D01*
X145247247Y-74685677D01*
X145389051Y-74609880D01*
X145389057Y-74609877D01*
X145534399Y-74490599D01*
X145653677Y-74345257D01*
X145653678Y-74345253D01*
X145653681Y-74345251D01*
X145742308Y-74179440D01*
X145742309Y-74179439D01*
X145796889Y-73999515D01*
X145815318Y-73812400D01*
X145796889Y-73625285D01*
X145742309Y-73445361D01*
X145742308Y-73445359D01*
X145653681Y-73279548D01*
X145653676Y-73279542D01*
X145534399Y-73134200D01*
X145389057Y-73014923D01*
X145389051Y-73014918D01*
X145223240Y-72926291D01*
X145043317Y-72871711D01*
X145043315Y-72871710D01*
X144856200Y-72853282D01*
X144669084Y-72871710D01*
X144669082Y-72871711D01*
X144489159Y-72926291D01*
X144323348Y-73014918D01*
X144323342Y-73014923D01*
X144178000Y-73134200D01*
X144058723Y-73279542D01*
X144058718Y-73279548D01*
X143970091Y-73445359D01*
X143915511Y-73625282D01*
X143915510Y-73625284D01*
X143897082Y-73812400D01*
X143915510Y-73999515D01*
X143915511Y-73999517D01*
X143970091Y-74179440D01*
X144058718Y-74345251D01*
X144058723Y-74345257D01*
X144178000Y-74490599D01*
X144282698Y-74576521D01*
X144323343Y-74609877D01*
X144323345Y-74609878D01*
X144323348Y-74609880D01*
X144465153Y-74685677D01*
X144514997Y-74734639D01*
X144530700Y-74795035D01*
X144530700Y-79129478D01*
X144530464Y-79134885D01*
X144526935Y-79175208D01*
X144537412Y-79214310D01*
X144538583Y-79219590D01*
X144545611Y-79259443D01*
X144547435Y-79264455D01*
X144554397Y-79281261D01*
X144556645Y-79286081D01*
X144556646Y-79286084D01*
X144570652Y-79306087D01*
X144579855Y-79319231D01*
X144582761Y-79323792D01*
X144596426Y-79347458D01*
X144603006Y-79358855D01*
X144603007Y-79358856D01*
X144603006Y-79358856D01*
X144634021Y-79384881D01*
X144638010Y-79388536D01*
X144697581Y-79448107D01*
X144731066Y-79509430D01*
X144733900Y-79535788D01*
X144733900Y-80636611D01*
X144714215Y-80703650D01*
X144697581Y-80724292D01*
X142661493Y-82760379D01*
X142600170Y-82793864D01*
X142569565Y-82796434D01*
X142569565Y-82796500D01*
X142568787Y-82796500D01*
X142568037Y-82796563D01*
X142566686Y-82796500D01*
X142566666Y-82796500D01*
X142438419Y-82796500D01*
X142371380Y-82776815D01*
X142325625Y-82724011D01*
X142315681Y-82654853D01*
X142344706Y-82591297D01*
X142397464Y-82555459D01*
X142463919Y-82532204D01*
X142525682Y-82510593D01*
X142634950Y-82429950D01*
X142715593Y-82320682D01*
X142738019Y-82256590D01*
X142760446Y-82192501D01*
X142760446Y-82192499D01*
X142763300Y-82162069D01*
X142763300Y-80753530D01*
X142760446Y-80723100D01*
X142760446Y-80723098D01*
X142715593Y-80594919D01*
X142715592Y-80594917D01*
X142634950Y-80485650D01*
X142525682Y-80405007D01*
X142525680Y-80405006D01*
X142397500Y-80360153D01*
X142367070Y-80357300D01*
X142367066Y-80357300D01*
X141608534Y-80357300D01*
X141608530Y-80357300D01*
X141578103Y-80360153D01*
X141525283Y-80378635D01*
X141481234Y-80394049D01*
X141411456Y-80397610D01*
X141350828Y-80362881D01*
X141318601Y-80300888D01*
X141325006Y-80231313D01*
X141352597Y-80189328D01*
X141636515Y-79905409D01*
X141697836Y-79871926D01*
X141740380Y-79870153D01*
X141808199Y-79879082D01*
X141808200Y-79879082D01*
X141808201Y-79879082D01*
X141860454Y-79872202D01*
X141964962Y-79858444D01*
X142111041Y-79797936D01*
X142236482Y-79701682D01*
X142332736Y-79576241D01*
X142393244Y-79430162D01*
X142412847Y-79281261D01*
X142413882Y-79273401D01*
X142413882Y-79273398D01*
X142393244Y-79116639D01*
X142393244Y-79116638D01*
X142332736Y-78970559D01*
X142236482Y-78845118D01*
X142111041Y-78748864D01*
X141964962Y-78688356D01*
X141964960Y-78688355D01*
X141808201Y-78667718D01*
X141808199Y-78667718D01*
X141651439Y-78688355D01*
X141651437Y-78688356D01*
X141505360Y-78748863D01*
X141379918Y-78845118D01*
X141283663Y-78970560D01*
X141223156Y-79116637D01*
X141223156Y-79116638D01*
X141216939Y-79163862D01*
X141188672Y-79227758D01*
X141130348Y-79266229D01*
X141060483Y-79267060D01*
X141001260Y-79229988D01*
X140971481Y-79166782D01*
X140970000Y-79147676D01*
X140970000Y-78210287D01*
X140989685Y-78143248D01*
X141006319Y-78122606D01*
X141037425Y-78091500D01*
X141833827Y-77295097D01*
X141895148Y-77261614D01*
X141964839Y-77266598D01*
X141966300Y-77267154D01*
X142137245Y-77333378D01*
X142137253Y-77333381D01*
X142348664Y-77372900D01*
X142348667Y-77372900D01*
X142563733Y-77372900D01*
X142563736Y-77372900D01*
X142775147Y-77333381D01*
X142975696Y-77255688D01*
X143158554Y-77142467D01*
X143317494Y-76997573D01*
X143447104Y-76825942D01*
X143542970Y-76633417D01*
X143601828Y-76426555D01*
X143621672Y-76212400D01*
X143601828Y-75998245D01*
X143542970Y-75791383D01*
X143514450Y-75734108D01*
X143447107Y-75598864D01*
X143447106Y-75598863D01*
X143447104Y-75598858D01*
X143431744Y-75578518D01*
X143407054Y-75513158D01*
X143406700Y-75503794D01*
X143406700Y-72486900D01*
X143426385Y-72419861D01*
X143479189Y-72374106D01*
X143530700Y-72362900D01*
X146181700Y-72362900D01*
X146248739Y-72382585D01*
G37*
%TD.AperFunction*%
%TD*%
M02*
