M48
; DRILL file {KiCad 7.0.9} date Thu Sep  5 13:53:02 2024
; FORMAT={-:-/ absolute / inch / decimal}
; #@! TF.CreationDate,2024-09-05T13:53:02+09:00
; #@! TF.GenerationSoftware,Kicad,Pcbnew,7.0.9
; #@! TF.FileFunction,Plated,1,2,PTH
FMAT,2
INCH
; #@! TA.AperFunction,Plated,PTH,ViaDrill
T1C0.0157
; #@! TA.AperFunction,Plated,PTH,ComponentDrill
T2C0.0394
; #@! TA.AperFunction,Plated,PTH,ComponentDrill
T3C0.0504
%
G90
G05
T1
X5.178Y-3.502
X5.199Y-3.3845
X5.223Y-3.563
X5.231Y-3.446
X5.289Y-3.89
X5.302Y-3.433
X5.3253Y-3.6687
X5.372Y-3.3945
X5.405Y-3.778
X5.4221Y-2.627
X5.428Y-3.056
X5.4535Y-3.4328
X5.455Y-3.57
X5.455Y-3.615
X5.455Y-3.665
X5.477Y-3.392
X5.5Y-3.57
X5.5Y-3.615
X5.5Y-3.665
X5.545Y-3.57
X5.545Y-3.615
X5.545Y-3.665
X5.545Y-3.782
X5.5475Y-3.3985
X5.5552Y-4.277
X5.573Y-2.74
X5.5812Y-4.209
X5.583Y-3.121
X5.59Y-3.3865
X5.62Y-2.591
X5.62Y-3.415
X5.658Y-3.444
X5.669Y-3.275
X5.67Y-3.168
X5.684Y-2.593
X5.801Y-2.652
X5.817Y-2.593
X5.868Y-4.046
X5.91Y-2.785
T2
X5.184Y-2.763
X5.184Y-3.153
X5.185Y-2.525
X5.185Y-3.6952
X5.185Y-3.7952
X5.334Y-2.763
X5.334Y-3.153
X5.335Y-2.525
X5.335Y-2.962
X5.444Y-4.027
X5.51Y-2.525
X5.592Y-4.027
X5.61Y-2.525
X5.703Y-2.906
X6.025Y-2.476
X6.025Y-2.576
X6.025Y-2.676
X6.025Y-2.776
X6.025Y-2.876
X6.025Y-2.976
X6.025Y-3.076
X6.025Y-3.176
X6.025Y-3.276
X6.025Y-3.376
X6.025Y-3.476
X6.025Y-3.576
X6.025Y-3.676
X6.025Y-3.776
X6.025Y-3.876
X6.025Y-3.976
X6.025Y-4.076
X6.025Y-4.176
X6.025Y-4.276
X6.025Y-4.376
X6.125Y-2.476
X6.125Y-2.576
X6.125Y-2.676
X6.125Y-2.776
X6.125Y-2.876
X6.125Y-2.976
X6.125Y-3.076
X6.125Y-3.176
X6.125Y-3.276
X6.125Y-3.376
X6.125Y-3.476
X6.125Y-3.576
X6.125Y-3.676
X6.125Y-3.776
X6.125Y-3.876
X6.125Y-3.976
X6.125Y-4.076
X6.125Y-4.176
X6.125Y-4.276
X6.125Y-4.376
T3
X5.6085Y-2.8115
X5.6085Y-3.0005
X5.7975Y-2.8115
X5.7975Y-3.0005
T0
M30
