M48
;Layer_Color=9474304
;FILE_FORMAT=2:4
INCH,TZ
;TYPE=PLATED
T01F00S00C0.0098
T02F00S00C0.0276
T03F00S00C0.0354
;TYPE=NON_PLATED
T04F00S00C0.0157
%
T01
X1752Y-4438
X2033Y-4295
X2314Y-4152
X2594Y-4009
X2875Y-3866
X3156Y-3723
X3436Y-3580
X3910Y-3743
X4147Y-3480
X4366Y-3201
X4628Y-2808
X4802Y-2500
X4955Y-2180
X5087Y-1851
X5197Y-1515
X5285Y-1172
X5350Y-824
X5393Y-472
X5000Y-531
X4830Y-834
X4636Y-413
X4253
X3943
X3699Y-225
X3503Y-389
X3524Y-709
X3145Y-660
X2800Y-675
X2771Y-937
X2608Y-1132
X2165Y-1181
X2126Y-1467
X2333Y-1604
X2569Y-1703
X2717Y-2096
X2717Y-2717
X2953Y-3031
X2844Y-3268
X2638Y-3514
X1752Y-3760
X1831Y-3110
Y-2835
X1944Y-1860
X1693
X1811Y-787
Y-315
Y157
Y630
X2293Y990
Y1240
X2234Y1781
X2480Y1752
X2579Y2136
X2136Y2323
X1880Y1878
X1575Y1850
X1565Y3396
X1752Y4438
X2033Y4295
X2314Y4152
X2594Y4009
X2875Y3866
X3156Y3723
X3436Y3580
X3573Y3130
X3944Y3300
X4147Y3480
X4366Y3201
X4628Y2808
X4802Y2500
X4955Y2180
X5087Y1851
X5197Y1515
X4830Y1528
X4823Y1122
X5125Y938
X5350Y824
X5393Y472
X5000Y531
X4646Y413
X4360
X3953
X3603Y260
X3406Y413
X3213Y260
X3018Y402
X3173Y590
X2863Y620
X3018Y-233
X3304Y-220
X3563Y-1260
X3219Y-1545
X3258Y-2333
X3649Y-2015
X3996Y-1831
X4239Y-2015
X4016Y-2362
X4534Y-1424
X5862Y-1299
X5934Y-913
X5981Y-563
X6275Y-549
X6299Y0
X6014
X5981Y563
X6275Y549
X6204Y1094
X5934Y913
X5862Y1299
X5764Y1680
X6085Y1630
X5919Y2154
X5642Y2053
X5495Y2418
X5709Y2662
X5326Y2772
X5455Y3150
X5133Y3115
X5160Y3613
X4918Y3444
X4682Y3758
X4825Y4049
X4427Y4056
X4454Y4454
X4152Y4337
X3910Y3743
X3947Y2913
X4302Y2549
X3839Y2247
X4026Y1929
X4173Y1732
X3780Y1673
Y1427
X4173Y1024
X5285Y1172
X6204Y-1094
X6085Y-1630
X5764Y-1680
X5642Y-2053
X5919Y-2154
X5495Y-2418
X5709Y-2662
X5326Y-2772
X5455Y-3150
X5133Y-3115
X5160Y-3613
X4918Y-3444
X4682Y-3758
X4825Y-4049
X4427Y-4056
X4454Y-4454
X4152Y-4337
X3169Y2510
X2923Y3116
X2648Y3120
X896Y2982
X906Y2520
X1299Y2520
X1133Y1850
X893Y1690
X633
X1373Y1641
X1339Y630
Y157
Y-315
Y-787
X866
X394
Y-315
X866
Y157
X394
Y630
X866
X-79Y1064
X43Y1290
X-267Y1269
X-581Y1457
X-866Y1437
X-748Y1890
X-497Y1845
X-495Y2798
X-687Y2971
X-1299Y2913
X-1053Y3465
X-1076Y3891
X-485
X-207Y3553
X89Y4085
X354Y3829
X696Y3891
X797Y3622
X630Y3425
X504Y2726
X492Y2402
X-49
X59Y2953
X-190Y4481
X10Y4961
X-610Y4980
X-1666Y5072
X-2257
X-2847
X-3150Y5108
X-3150Y5455
X-2662Y5709
X-2154Y5919
X-1962Y5662
X-1630Y6085
X-1094Y6204
X-549Y6275
X0Y6299
X549Y6275
X1094Y6204
X1059Y5852
X916Y5571
X773Y5290
X630Y5010
X911Y4867
X1191Y4724
X1472Y4581
X1417Y3976
X787Y4173
X285Y5522
X-1371Y4481
X-1962
X-2552
X-2963Y4272
X-2847Y3891
X-2257
X-2175Y3445
X-2257Y2710
X-1841Y2520
X-1772Y2126
X-2116Y2136
X-2510Y2234
Y1585
X-2785Y1526
X-2667Y1043
X-2598Y699
X-2847Y347
X-3169Y384
X-3839Y394
X-3819Y-394
X-3159Y-394
X-2638Y-207
X-2047Y-217
X-2037Y79
X-1693Y-177
X-1909Y-453
X-1781Y-955
X-1811Y-1220
X-1791Y-1801
X-1801Y-2244
X-2362Y-2205
Y-2480
X-2766Y-2362
X-2847Y-3196
X-3081Y-3415
X-2677Y-3720
X-2421Y-3524
X-2037Y-3041
X-1270Y-3120
X-699Y-3159
X-266Y-3406
X105Y-3196
X479Y-2907
X699Y-2795
X866Y-2992
X1014Y-3553
X994Y-4518
X1191Y-4724
X1472Y-4581
X911Y-4867
X659Y-4990
X401Y-4968
X-128Y-4990
X-463
X-433Y-5472
X-1076Y-5558
X-1368Y-5728
X-1545Y-5295
X-1630Y-6085
X-1094Y-6204
X-2154Y-5919
X-2662Y-5709
X-2628Y-5325
X-3150Y-5455
X-3327Y-4882
X-3613Y-5160
X-4049Y-4825
X-4454Y-4454
X-4825Y-4049
X-5160Y-3613
X-5210Y-3196
X-5455Y-3150
X-5709Y-2662
X-5919Y-2154
X-6085Y-1630
X-6150Y-1363
X-5505Y-1424
X-4914
X-4823Y-1870
X-4764Y-2323
X-4222Y-2362
X-3819Y-1969
Y-2756
X-4075Y-3967
X-2234Y-4665
X-1339Y-4370
X-89Y-4419
X187Y-2451
X207Y-2028
X600Y-2116
X1220Y-2165
X1220Y-2411
X846Y-1545
X-69Y-1476
X-433Y-1880
X-187Y-2224
X-364Y-2431
X-1122Y-2234
X-748Y-945
X-738Y-600
X-1063Y-600
X-1073Y148
X-1033Y817
X-1339Y669
X-3159Y1191
X-3819Y1181
X-4104Y1516
X-4114Y2402
X-4104Y3051
X-3819Y3543
X-3150Y3533
X-3209Y3061
X-2795Y2844
X-3143Y2119
X-5039Y2323
X-5059Y2687
X-5709Y2662
X-5919Y2154
X-6085Y1630
X-6150Y1363
X-5800Y1528
X-5210
X-5039Y748
Y256
Y-246
Y-758
X-5581Y10
X-6250Y187
X-6260Y-167
X-3819Y-1181
X-2894Y-1122
X-2847Y-834
X-2362Y-1457
X-2402Y-1713
X-1666Y3891
X-4035Y4232
X-4153Y4736
X-4454Y4454
X-4825Y4049
X-5160Y3613
X-5160
X-3613Y5160
X1059Y-5852
X1094Y-6204
T02
X-4793Y-1000
X-4293
Y-500
X-4793
X-4793Y0
X-4293
X-4293Y500
X-4793
Y1000
X-4293
T03
X-3776Y-4843
X-2776
X-1776
X-3642Y-3937
Y-3150
Y-2362
Y-1575
Y-787
Y0
Y787
Y1575
Y2362
Y3150
Y3937
Y4724
X-4429Y2756
Y-2756
T04
X4833Y-4429
X5021Y-4214
X5201Y-3990
X5370Y-3760
X5529Y-3522
Y3522
X5370Y3760
X5201Y3990
X5021Y4214
X4833Y4429
X-4833
X-5021Y4214
X-5201Y3990
X-5370Y3760
X-5529Y3522
Y-3522
X-5370Y-3760
X-5201Y-3990
X-5021Y-4214
X-4833Y-4429
M30
