%TF.GenerationSoftware,KiCad,Pcbnew,7.0.9*%
%TF.CreationDate,2023-12-16T14:17:49+09:00*%
%TF.ProjectId,extension,65787465-6e73-4696-9f6e-2e6b69636164,rev?*%
%TF.SameCoordinates,Original*%
%TF.FileFunction,Legend,Top*%
%TF.FilePolarity,Positive*%
%FSLAX46Y46*%
G04 Gerber Fmt 4.6, Leading zero omitted, Abs format (unit mm)*
G04 Created by KiCad (PCBNEW 7.0.9) date 2023-12-16 14:17:49*
%MOMM*%
%LPD*%
G01*
G04 APERTURE LIST*
%ADD10C,0.150000*%
%ADD11C,0.120000*%
%ADD12C,0.127000*%
%ADD13C,0.200000*%
G04 APERTURE END LIST*
D10*
X90679866Y-52961982D02*
X90646533Y-53028649D01*
X90646533Y-53028649D02*
X90646533Y-53128649D01*
X90646533Y-53128649D02*
X90679866Y-53228649D01*
X90679866Y-53228649D02*
X90746533Y-53295316D01*
X90746533Y-53295316D02*
X90813200Y-53328649D01*
X90813200Y-53328649D02*
X90946533Y-53361982D01*
X90946533Y-53361982D02*
X91046533Y-53361982D01*
X91046533Y-53361982D02*
X91179866Y-53328649D01*
X91179866Y-53328649D02*
X91246533Y-53295316D01*
X91246533Y-53295316D02*
X91313200Y-53228649D01*
X91313200Y-53228649D02*
X91346533Y-53128649D01*
X91346533Y-53128649D02*
X91346533Y-53061982D01*
X91346533Y-53061982D02*
X91313200Y-52961982D01*
X91313200Y-52961982D02*
X91279866Y-52928649D01*
X91279866Y-52928649D02*
X91046533Y-52928649D01*
X91046533Y-52928649D02*
X91046533Y-53061982D01*
X91346533Y-52628649D02*
X90646533Y-52628649D01*
X90646533Y-52628649D02*
X91346533Y-52228649D01*
X91346533Y-52228649D02*
X90646533Y-52228649D01*
X91346533Y-51895316D02*
X90646533Y-51895316D01*
X90646533Y-51895316D02*
X90646533Y-51728649D01*
X90646533Y-51728649D02*
X90679866Y-51628649D01*
X90679866Y-51628649D02*
X90746533Y-51561983D01*
X90746533Y-51561983D02*
X90813200Y-51528649D01*
X90813200Y-51528649D02*
X90946533Y-51495316D01*
X90946533Y-51495316D02*
X91046533Y-51495316D01*
X91046533Y-51495316D02*
X91179866Y-51528649D01*
X91179866Y-51528649D02*
X91246533Y-51561983D01*
X91246533Y-51561983D02*
X91313200Y-51628649D01*
X91313200Y-51628649D02*
X91346533Y-51728649D01*
X91346533Y-51728649D02*
X91346533Y-51895316D01*
X108851819Y-69037030D02*
X108851819Y-69513220D01*
X108851819Y-69513220D02*
X109328009Y-69560839D01*
X109328009Y-69560839D02*
X109280390Y-69513220D01*
X109280390Y-69513220D02*
X109232771Y-69417982D01*
X109232771Y-69417982D02*
X109232771Y-69179887D01*
X109232771Y-69179887D02*
X109280390Y-69084649D01*
X109280390Y-69084649D02*
X109328009Y-69037030D01*
X109328009Y-69037030D02*
X109423247Y-68989411D01*
X109423247Y-68989411D02*
X109661342Y-68989411D01*
X109661342Y-68989411D02*
X109756580Y-69037030D01*
X109756580Y-69037030D02*
X109804200Y-69084649D01*
X109804200Y-69084649D02*
X109851819Y-69179887D01*
X109851819Y-69179887D02*
X109851819Y-69417982D01*
X109851819Y-69417982D02*
X109804200Y-69513220D01*
X109804200Y-69513220D02*
X109756580Y-69560839D01*
X108851819Y-68703696D02*
X109851819Y-68370363D01*
X109851819Y-68370363D02*
X108851819Y-68037030D01*
X93186533Y-54265316D02*
X93186533Y-54598649D01*
X93186533Y-54598649D02*
X93519866Y-54631982D01*
X93519866Y-54631982D02*
X93486533Y-54598649D01*
X93486533Y-54598649D02*
X93453200Y-54531982D01*
X93453200Y-54531982D02*
X93453200Y-54365316D01*
X93453200Y-54365316D02*
X93486533Y-54298649D01*
X93486533Y-54298649D02*
X93519866Y-54265316D01*
X93519866Y-54265316D02*
X93586533Y-54231982D01*
X93586533Y-54231982D02*
X93753200Y-54231982D01*
X93753200Y-54231982D02*
X93819866Y-54265316D01*
X93819866Y-54265316D02*
X93853200Y-54298649D01*
X93853200Y-54298649D02*
X93886533Y-54365316D01*
X93886533Y-54365316D02*
X93886533Y-54531982D01*
X93886533Y-54531982D02*
X93853200Y-54598649D01*
X93853200Y-54598649D02*
X93819866Y-54631982D01*
X93186533Y-54031982D02*
X93886533Y-53798649D01*
X93886533Y-53798649D02*
X93186533Y-53565315D01*
X88901866Y-54231982D02*
X88868533Y-54298649D01*
X88868533Y-54298649D02*
X88868533Y-54398649D01*
X88868533Y-54398649D02*
X88901866Y-54498649D01*
X88901866Y-54498649D02*
X88968533Y-54565316D01*
X88968533Y-54565316D02*
X89035200Y-54598649D01*
X89035200Y-54598649D02*
X89168533Y-54631982D01*
X89168533Y-54631982D02*
X89268533Y-54631982D01*
X89268533Y-54631982D02*
X89401866Y-54598649D01*
X89401866Y-54598649D02*
X89468533Y-54565316D01*
X89468533Y-54565316D02*
X89535200Y-54498649D01*
X89535200Y-54498649D02*
X89568533Y-54398649D01*
X89568533Y-54398649D02*
X89568533Y-54331982D01*
X89568533Y-54331982D02*
X89535200Y-54231982D01*
X89535200Y-54231982D02*
X89501866Y-54198649D01*
X89501866Y-54198649D02*
X89268533Y-54198649D01*
X89268533Y-54198649D02*
X89268533Y-54331982D01*
X89568533Y-53898649D02*
X88868533Y-53898649D01*
X88868533Y-53898649D02*
X89568533Y-53498649D01*
X89568533Y-53498649D02*
X88868533Y-53498649D01*
X89568533Y-53165316D02*
X88868533Y-53165316D01*
X88868533Y-53165316D02*
X88868533Y-52998649D01*
X88868533Y-52998649D02*
X88901866Y-52898649D01*
X88901866Y-52898649D02*
X88968533Y-52831983D01*
X88968533Y-52831983D02*
X89035200Y-52798649D01*
X89035200Y-52798649D02*
X89168533Y-52765316D01*
X89168533Y-52765316D02*
X89268533Y-52765316D01*
X89268533Y-52765316D02*
X89401866Y-52798649D01*
X89401866Y-52798649D02*
X89468533Y-52831983D01*
X89468533Y-52831983D02*
X89535200Y-52898649D01*
X89535200Y-52898649D02*
X89568533Y-52998649D01*
X89568533Y-52998649D02*
X89568533Y-53165316D01*
X95218533Y-54265316D02*
X95218533Y-54598649D01*
X95218533Y-54598649D02*
X95551866Y-54631982D01*
X95551866Y-54631982D02*
X95518533Y-54598649D01*
X95518533Y-54598649D02*
X95485200Y-54531982D01*
X95485200Y-54531982D02*
X95485200Y-54365316D01*
X95485200Y-54365316D02*
X95518533Y-54298649D01*
X95518533Y-54298649D02*
X95551866Y-54265316D01*
X95551866Y-54265316D02*
X95618533Y-54231982D01*
X95618533Y-54231982D02*
X95785200Y-54231982D01*
X95785200Y-54231982D02*
X95851866Y-54265316D01*
X95851866Y-54265316D02*
X95885200Y-54298649D01*
X95885200Y-54298649D02*
X95918533Y-54365316D01*
X95918533Y-54365316D02*
X95918533Y-54531982D01*
X95918533Y-54531982D02*
X95885200Y-54598649D01*
X95885200Y-54598649D02*
X95851866Y-54631982D01*
X95218533Y-54031982D02*
X95918533Y-53798649D01*
X95918533Y-53798649D02*
X95218533Y-53565315D01*
X123123438Y-69497411D02*
X123075819Y-69592649D01*
X123075819Y-69592649D02*
X123075819Y-69735506D01*
X123075819Y-69735506D02*
X123123438Y-69878363D01*
X123123438Y-69878363D02*
X123218676Y-69973601D01*
X123218676Y-69973601D02*
X123313914Y-70021220D01*
X123313914Y-70021220D02*
X123504390Y-70068839D01*
X123504390Y-70068839D02*
X123647247Y-70068839D01*
X123647247Y-70068839D02*
X123837723Y-70021220D01*
X123837723Y-70021220D02*
X123932961Y-69973601D01*
X123932961Y-69973601D02*
X124028200Y-69878363D01*
X124028200Y-69878363D02*
X124075819Y-69735506D01*
X124075819Y-69735506D02*
X124075819Y-69640268D01*
X124075819Y-69640268D02*
X124028200Y-69497411D01*
X124028200Y-69497411D02*
X123980580Y-69449792D01*
X123980580Y-69449792D02*
X123647247Y-69449792D01*
X123647247Y-69449792D02*
X123647247Y-69640268D01*
X124075819Y-69021220D02*
X123075819Y-69021220D01*
X123075819Y-69021220D02*
X124075819Y-68449792D01*
X124075819Y-68449792D02*
X123075819Y-68449792D01*
X124075819Y-67973601D02*
X123075819Y-67973601D01*
X123075819Y-67973601D02*
X123075819Y-67735506D01*
X123075819Y-67735506D02*
X123123438Y-67592649D01*
X123123438Y-67592649D02*
X123218676Y-67497411D01*
X123218676Y-67497411D02*
X123313914Y-67449792D01*
X123313914Y-67449792D02*
X123504390Y-67402173D01*
X123504390Y-67402173D02*
X123647247Y-67402173D01*
X123647247Y-67402173D02*
X123837723Y-67449792D01*
X123837723Y-67449792D02*
X123932961Y-67497411D01*
X123932961Y-67497411D02*
X124028200Y-67592649D01*
X124028200Y-67592649D02*
X124075819Y-67735506D01*
X124075819Y-67735506D02*
X124075819Y-67973601D01*
X118487819Y-69243411D02*
X118487819Y-69814839D01*
X118487819Y-69529125D02*
X117487819Y-69529125D01*
X117487819Y-69529125D02*
X117630676Y-69624363D01*
X117630676Y-69624363D02*
X117725914Y-69719601D01*
X117725914Y-69719601D02*
X117773533Y-69814839D01*
X117583057Y-68862458D02*
X117535438Y-68814839D01*
X117535438Y-68814839D02*
X117487819Y-68719601D01*
X117487819Y-68719601D02*
X117487819Y-68481506D01*
X117487819Y-68481506D02*
X117535438Y-68386268D01*
X117535438Y-68386268D02*
X117583057Y-68338649D01*
X117583057Y-68338649D02*
X117678295Y-68291030D01*
X117678295Y-68291030D02*
X117773533Y-68291030D01*
X117773533Y-68291030D02*
X117916390Y-68338649D01*
X117916390Y-68338649D02*
X118487819Y-68910077D01*
X118487819Y-68910077D02*
X118487819Y-68291030D01*
X117487819Y-68005315D02*
X118487819Y-67671982D01*
X118487819Y-67671982D02*
X117487819Y-67338649D01*
X112963438Y-69497411D02*
X112915819Y-69592649D01*
X112915819Y-69592649D02*
X112915819Y-69735506D01*
X112915819Y-69735506D02*
X112963438Y-69878363D01*
X112963438Y-69878363D02*
X113058676Y-69973601D01*
X113058676Y-69973601D02*
X113153914Y-70021220D01*
X113153914Y-70021220D02*
X113344390Y-70068839D01*
X113344390Y-70068839D02*
X113487247Y-70068839D01*
X113487247Y-70068839D02*
X113677723Y-70021220D01*
X113677723Y-70021220D02*
X113772961Y-69973601D01*
X113772961Y-69973601D02*
X113868200Y-69878363D01*
X113868200Y-69878363D02*
X113915819Y-69735506D01*
X113915819Y-69735506D02*
X113915819Y-69640268D01*
X113915819Y-69640268D02*
X113868200Y-69497411D01*
X113868200Y-69497411D02*
X113820580Y-69449792D01*
X113820580Y-69449792D02*
X113487247Y-69449792D01*
X113487247Y-69449792D02*
X113487247Y-69640268D01*
X113915819Y-69021220D02*
X112915819Y-69021220D01*
X112915819Y-69021220D02*
X113915819Y-68449792D01*
X113915819Y-68449792D02*
X112915819Y-68449792D01*
X113915819Y-67973601D02*
X112915819Y-67973601D01*
X112915819Y-67973601D02*
X112915819Y-67735506D01*
X112915819Y-67735506D02*
X112963438Y-67592649D01*
X112963438Y-67592649D02*
X113058676Y-67497411D01*
X113058676Y-67497411D02*
X113153914Y-67449792D01*
X113153914Y-67449792D02*
X113344390Y-67402173D01*
X113344390Y-67402173D02*
X113487247Y-67402173D01*
X113487247Y-67402173D02*
X113677723Y-67449792D01*
X113677723Y-67449792D02*
X113772961Y-67497411D01*
X113772961Y-67497411D02*
X113868200Y-67592649D01*
X113868200Y-67592649D02*
X113915819Y-67735506D01*
X113915819Y-67735506D02*
X113915819Y-67973601D01*
X121118333Y-55129580D02*
X121070714Y-55177200D01*
X121070714Y-55177200D02*
X120927857Y-55224819D01*
X120927857Y-55224819D02*
X120832619Y-55224819D01*
X120832619Y-55224819D02*
X120689762Y-55177200D01*
X120689762Y-55177200D02*
X120594524Y-55081961D01*
X120594524Y-55081961D02*
X120546905Y-54986723D01*
X120546905Y-54986723D02*
X120499286Y-54796247D01*
X120499286Y-54796247D02*
X120499286Y-54653390D01*
X120499286Y-54653390D02*
X120546905Y-54462914D01*
X120546905Y-54462914D02*
X120594524Y-54367676D01*
X120594524Y-54367676D02*
X120689762Y-54272438D01*
X120689762Y-54272438D02*
X120832619Y-54224819D01*
X120832619Y-54224819D02*
X120927857Y-54224819D01*
X120927857Y-54224819D02*
X121070714Y-54272438D01*
X121070714Y-54272438D02*
X121118333Y-54320057D01*
X122070714Y-55224819D02*
X121499286Y-55224819D01*
X121785000Y-55224819D02*
X121785000Y-54224819D01*
X121785000Y-54224819D02*
X121689762Y-54367676D01*
X121689762Y-54367676D02*
X121594524Y-54462914D01*
X121594524Y-54462914D02*
X121499286Y-54510533D01*
X120165952Y-52364819D02*
X119594524Y-52364819D01*
X119880238Y-52364819D02*
X119880238Y-51364819D01*
X119880238Y-51364819D02*
X119785000Y-51507676D01*
X119785000Y-51507676D02*
X119689762Y-51602914D01*
X119689762Y-51602914D02*
X119594524Y-51650533D01*
X120785000Y-51364819D02*
X120880238Y-51364819D01*
X120880238Y-51364819D02*
X120975476Y-51412438D01*
X120975476Y-51412438D02*
X121023095Y-51460057D01*
X121023095Y-51460057D02*
X121070714Y-51555295D01*
X121070714Y-51555295D02*
X121118333Y-51745771D01*
X121118333Y-51745771D02*
X121118333Y-51983866D01*
X121118333Y-51983866D02*
X121070714Y-52174342D01*
X121070714Y-52174342D02*
X121023095Y-52269580D01*
X121023095Y-52269580D02*
X120975476Y-52317200D01*
X120975476Y-52317200D02*
X120880238Y-52364819D01*
X120880238Y-52364819D02*
X120785000Y-52364819D01*
X120785000Y-52364819D02*
X120689762Y-52317200D01*
X120689762Y-52317200D02*
X120642143Y-52269580D01*
X120642143Y-52269580D02*
X120594524Y-52174342D01*
X120594524Y-52174342D02*
X120546905Y-51983866D01*
X120546905Y-51983866D02*
X120546905Y-51745771D01*
X120546905Y-51745771D02*
X120594524Y-51555295D01*
X120594524Y-51555295D02*
X120642143Y-51460057D01*
X120642143Y-51460057D02*
X120689762Y-51412438D01*
X120689762Y-51412438D02*
X120785000Y-51364819D01*
X121737381Y-51364819D02*
X121832619Y-51364819D01*
X121832619Y-51364819D02*
X121927857Y-51412438D01*
X121927857Y-51412438D02*
X121975476Y-51460057D01*
X121975476Y-51460057D02*
X122023095Y-51555295D01*
X122023095Y-51555295D02*
X122070714Y-51745771D01*
X122070714Y-51745771D02*
X122070714Y-51983866D01*
X122070714Y-51983866D02*
X122023095Y-52174342D01*
X122023095Y-52174342D02*
X121975476Y-52269580D01*
X121975476Y-52269580D02*
X121927857Y-52317200D01*
X121927857Y-52317200D02*
X121832619Y-52364819D01*
X121832619Y-52364819D02*
X121737381Y-52364819D01*
X121737381Y-52364819D02*
X121642143Y-52317200D01*
X121642143Y-52317200D02*
X121594524Y-52269580D01*
X121594524Y-52269580D02*
X121546905Y-52174342D01*
X121546905Y-52174342D02*
X121499286Y-51983866D01*
X121499286Y-51983866D02*
X121499286Y-51745771D01*
X121499286Y-51745771D02*
X121546905Y-51555295D01*
X121546905Y-51555295D02*
X121594524Y-51460057D01*
X121594524Y-51460057D02*
X121642143Y-51412438D01*
X121642143Y-51412438D02*
X121737381Y-51364819D01*
X122499286Y-51698152D02*
X122499286Y-52364819D01*
X122499286Y-51793390D02*
X122546905Y-51745771D01*
X122546905Y-51745771D02*
X122642143Y-51698152D01*
X122642143Y-51698152D02*
X122785000Y-51698152D01*
X122785000Y-51698152D02*
X122880238Y-51745771D01*
X122880238Y-51745771D02*
X122927857Y-51841009D01*
X122927857Y-51841009D02*
X122927857Y-52364819D01*
X120978333Y-67509580D02*
X120930714Y-67557200D01*
X120930714Y-67557200D02*
X120787857Y-67604819D01*
X120787857Y-67604819D02*
X120692619Y-67604819D01*
X120692619Y-67604819D02*
X120549762Y-67557200D01*
X120549762Y-67557200D02*
X120454524Y-67461961D01*
X120454524Y-67461961D02*
X120406905Y-67366723D01*
X120406905Y-67366723D02*
X120359286Y-67176247D01*
X120359286Y-67176247D02*
X120359286Y-67033390D01*
X120359286Y-67033390D02*
X120406905Y-66842914D01*
X120406905Y-66842914D02*
X120454524Y-66747676D01*
X120454524Y-66747676D02*
X120549762Y-66652438D01*
X120549762Y-66652438D02*
X120692619Y-66604819D01*
X120692619Y-66604819D02*
X120787857Y-66604819D01*
X120787857Y-66604819D02*
X120930714Y-66652438D01*
X120930714Y-66652438D02*
X120978333Y-66700057D01*
X121359286Y-66700057D02*
X121406905Y-66652438D01*
X121406905Y-66652438D02*
X121502143Y-66604819D01*
X121502143Y-66604819D02*
X121740238Y-66604819D01*
X121740238Y-66604819D02*
X121835476Y-66652438D01*
X121835476Y-66652438D02*
X121883095Y-66700057D01*
X121883095Y-66700057D02*
X121930714Y-66795295D01*
X121930714Y-66795295D02*
X121930714Y-66890533D01*
X121930714Y-66890533D02*
X121883095Y-67033390D01*
X121883095Y-67033390D02*
X121311667Y-67604819D01*
X121311667Y-67604819D02*
X121930714Y-67604819D01*
X120025952Y-70464819D02*
X119454524Y-70464819D01*
X119740238Y-70464819D02*
X119740238Y-69464819D01*
X119740238Y-69464819D02*
X119645000Y-69607676D01*
X119645000Y-69607676D02*
X119549762Y-69702914D01*
X119549762Y-69702914D02*
X119454524Y-69750533D01*
X120645000Y-69464819D02*
X120740238Y-69464819D01*
X120740238Y-69464819D02*
X120835476Y-69512438D01*
X120835476Y-69512438D02*
X120883095Y-69560057D01*
X120883095Y-69560057D02*
X120930714Y-69655295D01*
X120930714Y-69655295D02*
X120978333Y-69845771D01*
X120978333Y-69845771D02*
X120978333Y-70083866D01*
X120978333Y-70083866D02*
X120930714Y-70274342D01*
X120930714Y-70274342D02*
X120883095Y-70369580D01*
X120883095Y-70369580D02*
X120835476Y-70417200D01*
X120835476Y-70417200D02*
X120740238Y-70464819D01*
X120740238Y-70464819D02*
X120645000Y-70464819D01*
X120645000Y-70464819D02*
X120549762Y-70417200D01*
X120549762Y-70417200D02*
X120502143Y-70369580D01*
X120502143Y-70369580D02*
X120454524Y-70274342D01*
X120454524Y-70274342D02*
X120406905Y-70083866D01*
X120406905Y-70083866D02*
X120406905Y-69845771D01*
X120406905Y-69845771D02*
X120454524Y-69655295D01*
X120454524Y-69655295D02*
X120502143Y-69560057D01*
X120502143Y-69560057D02*
X120549762Y-69512438D01*
X120549762Y-69512438D02*
X120645000Y-69464819D01*
X121597381Y-69464819D02*
X121692619Y-69464819D01*
X121692619Y-69464819D02*
X121787857Y-69512438D01*
X121787857Y-69512438D02*
X121835476Y-69560057D01*
X121835476Y-69560057D02*
X121883095Y-69655295D01*
X121883095Y-69655295D02*
X121930714Y-69845771D01*
X121930714Y-69845771D02*
X121930714Y-70083866D01*
X121930714Y-70083866D02*
X121883095Y-70274342D01*
X121883095Y-70274342D02*
X121835476Y-70369580D01*
X121835476Y-70369580D02*
X121787857Y-70417200D01*
X121787857Y-70417200D02*
X121692619Y-70464819D01*
X121692619Y-70464819D02*
X121597381Y-70464819D01*
X121597381Y-70464819D02*
X121502143Y-70417200D01*
X121502143Y-70417200D02*
X121454524Y-70369580D01*
X121454524Y-70369580D02*
X121406905Y-70274342D01*
X121406905Y-70274342D02*
X121359286Y-70083866D01*
X121359286Y-70083866D02*
X121359286Y-69845771D01*
X121359286Y-69845771D02*
X121406905Y-69655295D01*
X121406905Y-69655295D02*
X121454524Y-69560057D01*
X121454524Y-69560057D02*
X121502143Y-69512438D01*
X121502143Y-69512438D02*
X121597381Y-69464819D01*
X122359286Y-69798152D02*
X122359286Y-70464819D01*
X122359286Y-69893390D02*
X122406905Y-69845771D01*
X122406905Y-69845771D02*
X122502143Y-69798152D01*
X122502143Y-69798152D02*
X122645000Y-69798152D01*
X122645000Y-69798152D02*
X122740238Y-69845771D01*
X122740238Y-69845771D02*
X122787857Y-69941009D01*
X122787857Y-69941009D02*
X122787857Y-70464819D01*
X86204819Y-60478333D02*
X86919104Y-60478333D01*
X86919104Y-60478333D02*
X87061961Y-60525952D01*
X87061961Y-60525952D02*
X87157200Y-60621190D01*
X87157200Y-60621190D02*
X87204819Y-60764047D01*
X87204819Y-60764047D02*
X87204819Y-60859285D01*
X87204819Y-59478333D02*
X87204819Y-60049761D01*
X87204819Y-59764047D02*
X86204819Y-59764047D01*
X86204819Y-59764047D02*
X86347676Y-59859285D01*
X86347676Y-59859285D02*
X86442914Y-59954523D01*
X86442914Y-59954523D02*
X86490533Y-60049761D01*
X97300057Y-67644999D02*
X97252438Y-67597380D01*
X97252438Y-67597380D02*
X97204819Y-67502142D01*
X97204819Y-67502142D02*
X97204819Y-67264047D01*
X97204819Y-67264047D02*
X97252438Y-67168809D01*
X97252438Y-67168809D02*
X97300057Y-67121190D01*
X97300057Y-67121190D02*
X97395295Y-67073571D01*
X97395295Y-67073571D02*
X97490533Y-67073571D01*
X97490533Y-67073571D02*
X97633390Y-67121190D01*
X97633390Y-67121190D02*
X98204819Y-67692618D01*
X98204819Y-67692618D02*
X98204819Y-67073571D01*
X98109580Y-66644999D02*
X98157200Y-66597380D01*
X98157200Y-66597380D02*
X98204819Y-66644999D01*
X98204819Y-66644999D02*
X98157200Y-66692618D01*
X98157200Y-66692618D02*
X98109580Y-66644999D01*
X98109580Y-66644999D02*
X98204819Y-66644999D01*
X97204819Y-65978333D02*
X97204819Y-65883095D01*
X97204819Y-65883095D02*
X97252438Y-65787857D01*
X97252438Y-65787857D02*
X97300057Y-65740238D01*
X97300057Y-65740238D02*
X97395295Y-65692619D01*
X97395295Y-65692619D02*
X97585771Y-65645000D01*
X97585771Y-65645000D02*
X97823866Y-65645000D01*
X97823866Y-65645000D02*
X98014342Y-65692619D01*
X98014342Y-65692619D02*
X98109580Y-65740238D01*
X98109580Y-65740238D02*
X98157200Y-65787857D01*
X98157200Y-65787857D02*
X98204819Y-65883095D01*
X98204819Y-65883095D02*
X98204819Y-65978333D01*
X98204819Y-65978333D02*
X98157200Y-66073571D01*
X98157200Y-66073571D02*
X98109580Y-66121190D01*
X98109580Y-66121190D02*
X98014342Y-66168809D01*
X98014342Y-66168809D02*
X97823866Y-66216428D01*
X97823866Y-66216428D02*
X97585771Y-66216428D01*
X97585771Y-66216428D02*
X97395295Y-66168809D01*
X97395295Y-66168809D02*
X97300057Y-66121190D01*
X97300057Y-66121190D02*
X97252438Y-66073571D01*
X97252438Y-66073571D02*
X97204819Y-65978333D01*
X98204819Y-64454523D02*
X97538152Y-64454523D01*
X97633390Y-64454523D02*
X97585771Y-64406904D01*
X97585771Y-64406904D02*
X97538152Y-64311666D01*
X97538152Y-64311666D02*
X97538152Y-64168809D01*
X97538152Y-64168809D02*
X97585771Y-64073571D01*
X97585771Y-64073571D02*
X97681009Y-64025952D01*
X97681009Y-64025952D02*
X98204819Y-64025952D01*
X97681009Y-64025952D02*
X97585771Y-63978333D01*
X97585771Y-63978333D02*
X97538152Y-63883095D01*
X97538152Y-63883095D02*
X97538152Y-63740238D01*
X97538152Y-63740238D02*
X97585771Y-63644999D01*
X97585771Y-63644999D02*
X97681009Y-63597380D01*
X97681009Y-63597380D02*
X98204819Y-63597380D01*
X98204819Y-63121190D02*
X97538152Y-63121190D01*
X97633390Y-63121190D02*
X97585771Y-63073571D01*
X97585771Y-63073571D02*
X97538152Y-62978333D01*
X97538152Y-62978333D02*
X97538152Y-62835476D01*
X97538152Y-62835476D02*
X97585771Y-62740238D01*
X97585771Y-62740238D02*
X97681009Y-62692619D01*
X97681009Y-62692619D02*
X98204819Y-62692619D01*
X97681009Y-62692619D02*
X97585771Y-62645000D01*
X97585771Y-62645000D02*
X97538152Y-62549762D01*
X97538152Y-62549762D02*
X97538152Y-62406905D01*
X97538152Y-62406905D02*
X97585771Y-62311666D01*
X97585771Y-62311666D02*
X97681009Y-62264047D01*
X97681009Y-62264047D02*
X98204819Y-62264047D01*
X98157200Y-61073571D02*
X98204819Y-60930714D01*
X98204819Y-60930714D02*
X98204819Y-60692619D01*
X98204819Y-60692619D02*
X98157200Y-60597381D01*
X98157200Y-60597381D02*
X98109580Y-60549762D01*
X98109580Y-60549762D02*
X98014342Y-60502143D01*
X98014342Y-60502143D02*
X97919104Y-60502143D01*
X97919104Y-60502143D02*
X97823866Y-60549762D01*
X97823866Y-60549762D02*
X97776247Y-60597381D01*
X97776247Y-60597381D02*
X97728628Y-60692619D01*
X97728628Y-60692619D02*
X97681009Y-60883095D01*
X97681009Y-60883095D02*
X97633390Y-60978333D01*
X97633390Y-60978333D02*
X97585771Y-61025952D01*
X97585771Y-61025952D02*
X97490533Y-61073571D01*
X97490533Y-61073571D02*
X97395295Y-61073571D01*
X97395295Y-61073571D02*
X97300057Y-61025952D01*
X97300057Y-61025952D02*
X97252438Y-60978333D01*
X97252438Y-60978333D02*
X97204819Y-60883095D01*
X97204819Y-60883095D02*
X97204819Y-60645000D01*
X97204819Y-60645000D02*
X97252438Y-60502143D01*
X98204819Y-60073571D02*
X97204819Y-60073571D01*
X97204819Y-60073571D02*
X97919104Y-59740238D01*
X97919104Y-59740238D02*
X97204819Y-59406905D01*
X97204819Y-59406905D02*
X98204819Y-59406905D01*
X98204819Y-58930714D02*
X97204819Y-58930714D01*
X97204819Y-58930714D02*
X97204819Y-58692619D01*
X97204819Y-58692619D02*
X97252438Y-58549762D01*
X97252438Y-58549762D02*
X97347676Y-58454524D01*
X97347676Y-58454524D02*
X97442914Y-58406905D01*
X97442914Y-58406905D02*
X97633390Y-58359286D01*
X97633390Y-58359286D02*
X97776247Y-58359286D01*
X97776247Y-58359286D02*
X97966723Y-58406905D01*
X97966723Y-58406905D02*
X98061961Y-58454524D01*
X98061961Y-58454524D02*
X98157200Y-58549762D01*
X98157200Y-58549762D02*
X98204819Y-58692619D01*
X98204819Y-58692619D02*
X98204819Y-58930714D01*
X98157200Y-57216428D02*
X98204819Y-57073571D01*
X98204819Y-57073571D02*
X98204819Y-56835476D01*
X98204819Y-56835476D02*
X98157200Y-56740238D01*
X98157200Y-56740238D02*
X98109580Y-56692619D01*
X98109580Y-56692619D02*
X98014342Y-56645000D01*
X98014342Y-56645000D02*
X97919104Y-56645000D01*
X97919104Y-56645000D02*
X97823866Y-56692619D01*
X97823866Y-56692619D02*
X97776247Y-56740238D01*
X97776247Y-56740238D02*
X97728628Y-56835476D01*
X97728628Y-56835476D02*
X97681009Y-57025952D01*
X97681009Y-57025952D02*
X97633390Y-57121190D01*
X97633390Y-57121190D02*
X97585771Y-57168809D01*
X97585771Y-57168809D02*
X97490533Y-57216428D01*
X97490533Y-57216428D02*
X97395295Y-57216428D01*
X97395295Y-57216428D02*
X97300057Y-57168809D01*
X97300057Y-57168809D02*
X97252438Y-57121190D01*
X97252438Y-57121190D02*
X97204819Y-57025952D01*
X97204819Y-57025952D02*
X97204819Y-56787857D01*
X97204819Y-56787857D02*
X97252438Y-56645000D01*
X98204819Y-56073571D02*
X98157200Y-56168809D01*
X98157200Y-56168809D02*
X98109580Y-56216428D01*
X98109580Y-56216428D02*
X98014342Y-56264047D01*
X98014342Y-56264047D02*
X97728628Y-56264047D01*
X97728628Y-56264047D02*
X97633390Y-56216428D01*
X97633390Y-56216428D02*
X97585771Y-56168809D01*
X97585771Y-56168809D02*
X97538152Y-56073571D01*
X97538152Y-56073571D02*
X97538152Y-55930714D01*
X97538152Y-55930714D02*
X97585771Y-55835476D01*
X97585771Y-55835476D02*
X97633390Y-55787857D01*
X97633390Y-55787857D02*
X97728628Y-55740238D01*
X97728628Y-55740238D02*
X98014342Y-55740238D01*
X98014342Y-55740238D02*
X98109580Y-55787857D01*
X98109580Y-55787857D02*
X98157200Y-55835476D01*
X98157200Y-55835476D02*
X98204819Y-55930714D01*
X98204819Y-55930714D02*
X98204819Y-56073571D01*
X98157200Y-54883095D02*
X98204819Y-54978333D01*
X98204819Y-54978333D02*
X98204819Y-55168809D01*
X98204819Y-55168809D02*
X98157200Y-55264047D01*
X98157200Y-55264047D02*
X98109580Y-55311666D01*
X98109580Y-55311666D02*
X98014342Y-55359285D01*
X98014342Y-55359285D02*
X97728628Y-55359285D01*
X97728628Y-55359285D02*
X97633390Y-55311666D01*
X97633390Y-55311666D02*
X97585771Y-55264047D01*
X97585771Y-55264047D02*
X97538152Y-55168809D01*
X97538152Y-55168809D02*
X97538152Y-54978333D01*
X97538152Y-54978333D02*
X97585771Y-54883095D01*
X98204819Y-54454523D02*
X97204819Y-54454523D01*
X97823866Y-54359285D02*
X98204819Y-54073571D01*
X97538152Y-54073571D02*
X97919104Y-54454523D01*
X98157200Y-53264047D02*
X98204819Y-53359285D01*
X98204819Y-53359285D02*
X98204819Y-53549761D01*
X98204819Y-53549761D02*
X98157200Y-53644999D01*
X98157200Y-53644999D02*
X98061961Y-53692618D01*
X98061961Y-53692618D02*
X97681009Y-53692618D01*
X97681009Y-53692618D02*
X97585771Y-53644999D01*
X97585771Y-53644999D02*
X97538152Y-53549761D01*
X97538152Y-53549761D02*
X97538152Y-53359285D01*
X97538152Y-53359285D02*
X97585771Y-53264047D01*
X97585771Y-53264047D02*
X97681009Y-53216428D01*
X97681009Y-53216428D02*
X97776247Y-53216428D01*
X97776247Y-53216428D02*
X97871485Y-53692618D01*
X97538152Y-52930713D02*
X97538152Y-52549761D01*
X97204819Y-52787856D02*
X98061961Y-52787856D01*
X98061961Y-52787856D02*
X98157200Y-52740237D01*
X98157200Y-52740237D02*
X98204819Y-52644999D01*
X98204819Y-52644999D02*
X98204819Y-52549761D01*
X105975819Y-84588333D02*
X106690104Y-84588333D01*
X106690104Y-84588333D02*
X106832961Y-84635952D01*
X106832961Y-84635952D02*
X106928200Y-84731190D01*
X106928200Y-84731190D02*
X106975819Y-84874047D01*
X106975819Y-84874047D02*
X106975819Y-84969285D01*
X106309152Y-83683571D02*
X106975819Y-83683571D01*
X105928200Y-83921666D02*
X106642485Y-84159761D01*
X106642485Y-84159761D02*
X106642485Y-83540714D01*
X85059819Y-84418333D02*
X85774104Y-84418333D01*
X85774104Y-84418333D02*
X85916961Y-84465952D01*
X85916961Y-84465952D02*
X86012200Y-84561190D01*
X86012200Y-84561190D02*
X86059819Y-84704047D01*
X86059819Y-84704047D02*
X86059819Y-84799285D01*
X85155057Y-83989761D02*
X85107438Y-83942142D01*
X85107438Y-83942142D02*
X85059819Y-83846904D01*
X85059819Y-83846904D02*
X85059819Y-83608809D01*
X85059819Y-83608809D02*
X85107438Y-83513571D01*
X85107438Y-83513571D02*
X85155057Y-83465952D01*
X85155057Y-83465952D02*
X85250295Y-83418333D01*
X85250295Y-83418333D02*
X85345533Y-83418333D01*
X85345533Y-83418333D02*
X85488390Y-83465952D01*
X85488390Y-83465952D02*
X86059819Y-84037380D01*
X86059819Y-84037380D02*
X86059819Y-83418333D01*
X95974819Y-84588333D02*
X96689104Y-84588333D01*
X96689104Y-84588333D02*
X96831961Y-84635952D01*
X96831961Y-84635952D02*
X96927200Y-84731190D01*
X96927200Y-84731190D02*
X96974819Y-84874047D01*
X96974819Y-84874047D02*
X96974819Y-84969285D01*
X95974819Y-84207380D02*
X95974819Y-83588333D01*
X95974819Y-83588333D02*
X96355771Y-83921666D01*
X96355771Y-83921666D02*
X96355771Y-83778809D01*
X96355771Y-83778809D02*
X96403390Y-83683571D01*
X96403390Y-83683571D02*
X96451009Y-83635952D01*
X96451009Y-83635952D02*
X96546247Y-83588333D01*
X96546247Y-83588333D02*
X96784342Y-83588333D01*
X96784342Y-83588333D02*
X96879580Y-83635952D01*
X96879580Y-83635952D02*
X96927200Y-83683571D01*
X96927200Y-83683571D02*
X96974819Y-83778809D01*
X96974819Y-83778809D02*
X96974819Y-84064523D01*
X96974819Y-84064523D02*
X96927200Y-84159761D01*
X96927200Y-84159761D02*
X96879580Y-84207380D01*
X115881819Y-84153333D02*
X116596104Y-84153333D01*
X116596104Y-84153333D02*
X116738961Y-84200952D01*
X116738961Y-84200952D02*
X116834200Y-84296190D01*
X116834200Y-84296190D02*
X116881819Y-84439047D01*
X116881819Y-84439047D02*
X116881819Y-84534285D01*
X115881819Y-83200952D02*
X115881819Y-83677142D01*
X115881819Y-83677142D02*
X116358009Y-83724761D01*
X116358009Y-83724761D02*
X116310390Y-83677142D01*
X116310390Y-83677142D02*
X116262771Y-83581904D01*
X116262771Y-83581904D02*
X116262771Y-83343809D01*
X116262771Y-83343809D02*
X116310390Y-83248571D01*
X116310390Y-83248571D02*
X116358009Y-83200952D01*
X116358009Y-83200952D02*
X116453247Y-83153333D01*
X116453247Y-83153333D02*
X116691342Y-83153333D01*
X116691342Y-83153333D02*
X116786580Y-83200952D01*
X116786580Y-83200952D02*
X116834200Y-83248571D01*
X116834200Y-83248571D02*
X116881819Y-83343809D01*
X116881819Y-83343809D02*
X116881819Y-83581904D01*
X116881819Y-83581904D02*
X116834200Y-83677142D01*
X116834200Y-83677142D02*
X116786580Y-83724761D01*
X124333095Y-54884819D02*
X124333095Y-55694342D01*
X124333095Y-55694342D02*
X124380714Y-55789580D01*
X124380714Y-55789580D02*
X124428333Y-55837200D01*
X124428333Y-55837200D02*
X124523571Y-55884819D01*
X124523571Y-55884819D02*
X124714047Y-55884819D01*
X124714047Y-55884819D02*
X124809285Y-55837200D01*
X124809285Y-55837200D02*
X124856904Y-55789580D01*
X124856904Y-55789580D02*
X124904523Y-55694342D01*
X124904523Y-55694342D02*
X124904523Y-54884819D01*
X125904523Y-55884819D02*
X125333095Y-55884819D01*
X125618809Y-55884819D02*
X125618809Y-54884819D01*
X125618809Y-54884819D02*
X125523571Y-55027676D01*
X125523571Y-55027676D02*
X125428333Y-55122914D01*
X125428333Y-55122914D02*
X125333095Y-55170533D01*
X116498095Y-64599104D02*
X116974285Y-64599104D01*
X116402857Y-64884819D02*
X116736190Y-63884819D01*
X116736190Y-63884819D02*
X117069523Y-64884819D01*
X117402857Y-64884819D02*
X117402857Y-63884819D01*
X117402857Y-63884819D02*
X117736190Y-64599104D01*
X117736190Y-64599104D02*
X118069523Y-63884819D01*
X118069523Y-63884819D02*
X118069523Y-64884819D01*
X118498095Y-64837200D02*
X118640952Y-64884819D01*
X118640952Y-64884819D02*
X118879047Y-64884819D01*
X118879047Y-64884819D02*
X118974285Y-64837200D01*
X118974285Y-64837200D02*
X119021904Y-64789580D01*
X119021904Y-64789580D02*
X119069523Y-64694342D01*
X119069523Y-64694342D02*
X119069523Y-64599104D01*
X119069523Y-64599104D02*
X119021904Y-64503866D01*
X119021904Y-64503866D02*
X118974285Y-64456247D01*
X118974285Y-64456247D02*
X118879047Y-64408628D01*
X118879047Y-64408628D02*
X118688571Y-64361009D01*
X118688571Y-64361009D02*
X118593333Y-64313390D01*
X118593333Y-64313390D02*
X118545714Y-64265771D01*
X118545714Y-64265771D02*
X118498095Y-64170533D01*
X118498095Y-64170533D02*
X118498095Y-64075295D01*
X118498095Y-64075295D02*
X118545714Y-63980057D01*
X118545714Y-63980057D02*
X118593333Y-63932438D01*
X118593333Y-63932438D02*
X118688571Y-63884819D01*
X118688571Y-63884819D02*
X118926666Y-63884819D01*
X118926666Y-63884819D02*
X119069523Y-63932438D01*
X120021904Y-64884819D02*
X119450476Y-64884819D01*
X119736190Y-64884819D02*
X119736190Y-63884819D01*
X119736190Y-63884819D02*
X119640952Y-64027676D01*
X119640952Y-64027676D02*
X119545714Y-64122914D01*
X119545714Y-64122914D02*
X119450476Y-64170533D01*
X120974285Y-64884819D02*
X120402857Y-64884819D01*
X120688571Y-64884819D02*
X120688571Y-63884819D01*
X120688571Y-63884819D02*
X120593333Y-64027676D01*
X120593333Y-64027676D02*
X120498095Y-64122914D01*
X120498095Y-64122914D02*
X120402857Y-64170533D01*
X121926666Y-64884819D02*
X121355238Y-64884819D01*
X121640952Y-64884819D02*
X121640952Y-63884819D01*
X121640952Y-63884819D02*
X121545714Y-64027676D01*
X121545714Y-64027676D02*
X121450476Y-64122914D01*
X121450476Y-64122914D02*
X121355238Y-64170533D01*
X122260000Y-63884819D02*
X122926666Y-63884819D01*
X122926666Y-63884819D02*
X122498095Y-64884819D01*
X124545714Y-63884819D02*
X124069524Y-63884819D01*
X124069524Y-63884819D02*
X124021905Y-64361009D01*
X124021905Y-64361009D02*
X124069524Y-64313390D01*
X124069524Y-64313390D02*
X124164762Y-64265771D01*
X124164762Y-64265771D02*
X124402857Y-64265771D01*
X124402857Y-64265771D02*
X124498095Y-64313390D01*
X124498095Y-64313390D02*
X124545714Y-64361009D01*
X124545714Y-64361009D02*
X124593333Y-64456247D01*
X124593333Y-64456247D02*
X124593333Y-64694342D01*
X124593333Y-64694342D02*
X124545714Y-64789580D01*
X124545714Y-64789580D02*
X124498095Y-64837200D01*
X124498095Y-64837200D02*
X124402857Y-64884819D01*
X124402857Y-64884819D02*
X124164762Y-64884819D01*
X124164762Y-64884819D02*
X124069524Y-64837200D01*
X124069524Y-64837200D02*
X124021905Y-64789580D01*
X125021905Y-64789580D02*
X125069524Y-64837200D01*
X125069524Y-64837200D02*
X125021905Y-64884819D01*
X125021905Y-64884819D02*
X124974286Y-64837200D01*
X124974286Y-64837200D02*
X125021905Y-64789580D01*
X125021905Y-64789580D02*
X125021905Y-64884819D01*
X125688571Y-63884819D02*
X125783809Y-63884819D01*
X125783809Y-63884819D02*
X125879047Y-63932438D01*
X125879047Y-63932438D02*
X125926666Y-63980057D01*
X125926666Y-63980057D02*
X125974285Y-64075295D01*
X125974285Y-64075295D02*
X126021904Y-64265771D01*
X126021904Y-64265771D02*
X126021904Y-64503866D01*
X126021904Y-64503866D02*
X125974285Y-64694342D01*
X125974285Y-64694342D02*
X125926666Y-64789580D01*
X125926666Y-64789580D02*
X125879047Y-64837200D01*
X125879047Y-64837200D02*
X125783809Y-64884819D01*
X125783809Y-64884819D02*
X125688571Y-64884819D01*
X125688571Y-64884819D02*
X125593333Y-64837200D01*
X125593333Y-64837200D02*
X125545714Y-64789580D01*
X125545714Y-64789580D02*
X125498095Y-64694342D01*
X125498095Y-64694342D02*
X125450476Y-64503866D01*
X125450476Y-64503866D02*
X125450476Y-64265771D01*
X125450476Y-64265771D02*
X125498095Y-64075295D01*
X125498095Y-64075295D02*
X125545714Y-63980057D01*
X125545714Y-63980057D02*
X125593333Y-63932438D01*
X125593333Y-63932438D02*
X125688571Y-63884819D01*
D11*
%TO.C,C1*%
X121425580Y-53850000D02*
X121144420Y-53850000D01*
X121425580Y-52830000D02*
X121144420Y-52830000D01*
%TO.C,C2*%
X121004420Y-68070000D02*
X121285580Y-68070000D01*
X121004420Y-69090000D02*
X121285580Y-69090000D01*
%TO.C,J1*%
X88190000Y-62205000D02*
X88490000Y-62205000D01*
X88190000Y-62205000D02*
X88190000Y-58085000D01*
X90010000Y-62205000D02*
X90490000Y-62205000D01*
X92010000Y-62205000D02*
X92490000Y-62205000D01*
X94010000Y-62205000D02*
X94490000Y-62205000D01*
X96010000Y-62205000D02*
X96310000Y-62205000D01*
X96310000Y-62205000D02*
X96310000Y-58085000D01*
X88190000Y-58085000D02*
X88490000Y-58085000D01*
X88490000Y-58085000D02*
X88490000Y-55705000D01*
X90010000Y-58085000D02*
X90490000Y-58085000D01*
X92010000Y-58085000D02*
X92490000Y-58085000D01*
X94010000Y-58085000D02*
X94490000Y-58085000D01*
X96010000Y-58085000D02*
X96310000Y-58085000D01*
D12*
%TO.C,J4*%
X107556000Y-86530000D02*
X108186000Y-86530000D01*
X115456000Y-86530000D02*
X114826000Y-86530000D01*
X115456000Y-86530000D02*
X115456000Y-73830000D01*
X107556000Y-73830000D02*
X107556000Y-86530000D01*
X108186000Y-73830000D02*
X107556000Y-73830000D01*
X115456000Y-73830000D02*
X114826000Y-73830000D01*
D13*
X109606000Y-87780000D02*
G75*
G03*
X109606000Y-87780000I-100000J0D01*
G01*
D12*
%TO.C,J2*%
X87490000Y-86360000D02*
X88120000Y-86360000D01*
X95390000Y-86360000D02*
X94760000Y-86360000D01*
X95390000Y-86360000D02*
X95390000Y-73660000D01*
X87490000Y-73660000D02*
X87490000Y-86360000D01*
X88120000Y-73660000D02*
X87490000Y-73660000D01*
X95390000Y-73660000D02*
X94760000Y-73660000D01*
D13*
X89540000Y-87610000D02*
G75*
G03*
X89540000Y-87610000I-100000J0D01*
G01*
D12*
%TO.C,J3*%
X97630000Y-86530000D02*
X98260000Y-86530000D01*
X105530000Y-86530000D02*
X104900000Y-86530000D01*
X105530000Y-86530000D02*
X105530000Y-73830000D01*
X97630000Y-73830000D02*
X97630000Y-86530000D01*
X98260000Y-73830000D02*
X97630000Y-73830000D01*
X105530000Y-73830000D02*
X104900000Y-73830000D01*
D13*
X99680000Y-87780000D02*
G75*
G03*
X99680000Y-87780000I-100000J0D01*
G01*
D12*
%TO.C,J5*%
X117462000Y-86530000D02*
X118092000Y-86530000D01*
X125362000Y-86530000D02*
X124732000Y-86530000D01*
X125362000Y-86530000D02*
X125362000Y-73830000D01*
X117462000Y-73830000D02*
X117462000Y-86530000D01*
X118092000Y-73830000D02*
X117462000Y-73830000D01*
X125362000Y-73830000D02*
X124732000Y-73830000D01*
D13*
X119512000Y-87780000D02*
G75*
G03*
X119512000Y-87780000I-100000J0D01*
G01*
D11*
%TO.C,U1*%
X117160000Y-56520000D02*
X123170000Y-56520000D01*
X119410000Y-63340000D02*
X123170000Y-63340000D01*
X123170000Y-56520000D02*
X123170000Y-57780000D01*
X123170000Y-63340000D02*
X123170000Y-62080000D01*
%TD*%
M02*
