%TF.GenerationSoftware,KiCad,Pcbnew,7.0.9*%
%TF.CreationDate,2023-12-16T14:17:49+09:00*%
%TF.ProjectId,extension,65787465-6e73-4696-9f6e-2e6b69636164,rev?*%
%TF.SameCoordinates,Original*%
%TF.FileFunction,Copper,L1,Top*%
%TF.FilePolarity,Positive*%
%FSLAX46Y46*%
G04 Gerber Fmt 4.6, Leading zero omitted, Abs format (unit mm)*
G04 Created by KiCad (PCBNEW 7.0.9) date 2023-12-16 14:17:49*
%MOMM*%
%LPD*%
G01*
G04 APERTURE LIST*
G04 Aperture macros list*
%AMRoundRect*
0 Rectangle with rounded corners*
0 $1 Rounding radius*
0 $2 $3 $4 $5 $6 $7 $8 $9 X,Y pos of 4 corners*
0 Add a 4 corners polygon primitive as box body*
4,1,4,$2,$3,$4,$5,$6,$7,$8,$9,$2,$3,0*
0 Add four circle primitives for the rounded corners*
1,1,$1+$1,$2,$3*
1,1,$1+$1,$4,$5*
1,1,$1+$1,$6,$7*
1,1,$1+$1,$8,$9*
0 Add four rect primitives between the rounded corners*
20,1,$1+$1,$2,$3,$4,$5,0*
20,1,$1+$1,$4,$5,$6,$7,0*
20,1,$1+$1,$6,$7,$8,$9,0*
20,1,$1+$1,$8,$9,$2,$3,0*%
G04 Aperture macros list end*
%TA.AperFunction,SMDPad,CuDef*%
%ADD10RoundRect,0.225000X0.225000X0.250000X-0.225000X0.250000X-0.225000X-0.250000X0.225000X-0.250000X0*%
%TD*%
%TA.AperFunction,SMDPad,CuDef*%
%ADD11RoundRect,0.225000X-0.225000X-0.250000X0.225000X-0.250000X0.225000X0.250000X-0.225000X0.250000X0*%
%TD*%
%TA.AperFunction,SMDPad,CuDef*%
%ADD12R,1.000000X2.750000*%
%TD*%
%TA.AperFunction,SMDPad,CuDef*%
%ADD13R,2.000000X6.000000*%
%TD*%
%TA.AperFunction,SMDPad,CuDef*%
%ADD14R,2.000000X3.500000*%
%TD*%
%TA.AperFunction,SMDPad,CuDef*%
%ADD15R,2.000000X1.500000*%
%TD*%
%TA.AperFunction,SMDPad,CuDef*%
%ADD16R,2.000000X3.800000*%
%TD*%
%TA.AperFunction,ViaPad*%
%ADD17C,1.500000*%
%TD*%
%TA.AperFunction,Conductor*%
%ADD18C,0.800000*%
%TD*%
%TA.AperFunction,Conductor*%
%ADD19C,1.500000*%
%TD*%
%TA.AperFunction,Conductor*%
%ADD20C,0.500000*%
%TD*%
G04 APERTURE END LIST*
D10*
%TO.P,C1,1*%
%TO.N,Net-(J5-Pin_1)*%
X122060000Y-53340000D03*
%TO.P,C1,2*%
%TO.N,Net-(J1-Pin_1)*%
X120510000Y-53340000D03*
%TD*%
D11*
%TO.P,C2,1*%
%TO.N,Net-(J1-Pin_5)*%
X120370000Y-68580000D03*
%TO.P,C2,2*%
%TO.N,Net-(J1-Pin_1)*%
X121920000Y-68580000D03*
%TD*%
D12*
%TO.P,J1,1,Pin_1*%
%TO.N,Net-(J1-Pin_1)*%
X89250000Y-57020000D03*
%TO.P,J1,2,Pin_2*%
%TO.N,Net-(J1-Pin_2)*%
X89250000Y-63270000D03*
%TO.P,J1,3,Pin_3*%
%TO.N,Net-(J1-Pin_1)*%
X91250000Y-57020000D03*
%TO.P,J1,4,Pin_4*%
%TO.N,Net-(J1-Pin_4)*%
X91250000Y-63270000D03*
%TO.P,J1,5,Pin_5*%
%TO.N,Net-(J1-Pin_5)*%
X93250000Y-57020000D03*
%TO.P,J1,6,Pin_6*%
%TO.N,Net-(J1-Pin_6)*%
X93250000Y-63270000D03*
%TO.P,J1,7,Pin_7*%
%TO.N,Net-(J1-Pin_7)*%
X95250000Y-57020000D03*
%TO.P,J1,8,Pin_8*%
%TO.N,Net-(J1-Pin_8)*%
X95250000Y-63270000D03*
%TD*%
D13*
%TO.P,J4,1,Pin_1*%
%TO.N,Net-(J1-Pin_7)*%
X109506000Y-84180000D03*
D14*
X109506000Y-74930000D03*
D13*
%TO.P,J4,2,Pin_2*%
%TO.N,Net-(J1-Pin_1)*%
X113506000Y-84180000D03*
D14*
X113506000Y-74930000D03*
%TD*%
D13*
%TO.P,J2,1,Pin_1*%
%TO.N,Net-(J1-Pin_2)*%
X89440000Y-84010000D03*
D14*
X89440000Y-74760000D03*
D13*
%TO.P,J2,2,Pin_2*%
%TO.N,Net-(J1-Pin_4)*%
X93440000Y-84010000D03*
D14*
X93440000Y-74760000D03*
%TD*%
D13*
%TO.P,J3,1,Pin_1*%
%TO.N,Net-(J1-Pin_6)*%
X99580000Y-84180000D03*
D14*
X99580000Y-74930000D03*
D13*
%TO.P,J3,2,Pin_2*%
%TO.N,Net-(J1-Pin_8)*%
X103580000Y-84180000D03*
D14*
X103580000Y-74930000D03*
%TD*%
D13*
%TO.P,J5,1,Pin_1*%
%TO.N,Net-(J5-Pin_1)*%
X119412000Y-84180000D03*
D14*
X119412000Y-74930000D03*
D13*
%TO.P,J5,2,Pin_2*%
%TO.N,Net-(J1-Pin_1)*%
X123412000Y-84180000D03*
D14*
X123412000Y-74930000D03*
%TD*%
D15*
%TO.P,U1,1,ADJ*%
%TO.N,Net-(J1-Pin_1)*%
X118110000Y-57630000D03*
%TO.P,U1,2,VO*%
%TO.N,Net-(J1-Pin_5)*%
X118110000Y-59930000D03*
D16*
X124410000Y-59930000D03*
D15*
%TO.P,U1,3,VI*%
%TO.N,Net-(J5-Pin_1)*%
X118110000Y-62230000D03*
%TD*%
D17*
%TO.N,Net-(J1-Pin_1)*%
X92075000Y-53975000D03*
X123825000Y-66040000D03*
%TO.N,Net-(J1-Pin_5)*%
X113665000Y-53975000D03*
X106680000Y-53975000D03*
%TO.N,Net-(J5-Pin_1)*%
X115570000Y-62230000D03*
X124460000Y-54610000D03*
%TD*%
D18*
%TO.N,Net-(J1-Pin_1)*%
X89250000Y-57020000D02*
X91250000Y-57020000D01*
X123825000Y-66040000D02*
X127000000Y-66040000D01*
X127000000Y-66040000D02*
X127000000Y-54610000D01*
X127000000Y-54610000D02*
X124460000Y-52070000D01*
X119380000Y-53340000D02*
X120510000Y-53340000D01*
X123412000Y-66453000D02*
X123412000Y-68580000D01*
X118110000Y-54610000D02*
X119380000Y-53340000D01*
X118110000Y-53340000D02*
X118110000Y-57630000D01*
X91250000Y-57020000D02*
X91250000Y-54800000D01*
X118110000Y-57630000D02*
X118110000Y-54610000D01*
X123825000Y-66040000D02*
X123412000Y-66453000D01*
X91250000Y-54800000D02*
X92075000Y-53975000D01*
X121920000Y-68580000D02*
X123412000Y-68580000D01*
X119380000Y-52070000D02*
X118110000Y-53340000D01*
X124460000Y-52070000D02*
X119380000Y-52070000D01*
X123412000Y-68580000D02*
X123412000Y-74930000D01*
%TO.N,Net-(J1-Pin_5)*%
X118110000Y-59930000D02*
X115810000Y-59930000D01*
X115810000Y-59930000D02*
X114935000Y-59055000D01*
X93250000Y-54705000D02*
X93250000Y-57020000D01*
D19*
X124410000Y-59930000D02*
X119380000Y-59930000D01*
D18*
X120370000Y-60920000D02*
X119380000Y-59930000D01*
X106680000Y-53975000D02*
X93980000Y-53975000D01*
D19*
X119380000Y-59930000D02*
X118110000Y-59930000D01*
D18*
X114935000Y-55245000D02*
X113665000Y-53975000D01*
X93980000Y-53975000D02*
X93250000Y-54705000D01*
X120370000Y-68580000D02*
X120370000Y-60920000D01*
X114935000Y-59055000D02*
X114935000Y-55245000D01*
%TO.N,Net-(J1-Pin_7)*%
X95380000Y-57150000D02*
X95250000Y-57020000D01*
X107950000Y-57150000D02*
X95380000Y-57150000D01*
X109506000Y-74930000D02*
X109506000Y-58706000D01*
X109506000Y-58706000D02*
X107950000Y-57150000D01*
%TO.N,Net-(J1-Pin_2)*%
X89250000Y-63270000D02*
X89250000Y-74570000D01*
X89250000Y-74570000D02*
X89440000Y-74760000D01*
D20*
%TO.N,Net-(J5-Pin_1)*%
X122060000Y-53340000D02*
X123825000Y-53340000D01*
X124460000Y-53975000D02*
X124460000Y-54610000D01*
X123825000Y-53340000D02*
X124460000Y-53975000D01*
D18*
X118110000Y-62230000D02*
X115570000Y-62230000D01*
X118110000Y-73628000D02*
X119412000Y-74930000D01*
X118110000Y-62230000D02*
X118110000Y-73628000D01*
%TO.N,Net-(J1-Pin_8)*%
X95250000Y-63500000D02*
X95250000Y-62230000D01*
X103580000Y-71830000D02*
X95250000Y-63500000D01*
X103580000Y-74930000D02*
X103580000Y-71830000D01*
%TO.N,Net-(J1-Pin_6)*%
X93250000Y-65310000D02*
X93250000Y-62230000D01*
X99580000Y-71640000D02*
X93250000Y-65310000D01*
X99580000Y-74930000D02*
X99580000Y-71640000D01*
%TO.N,Net-(J1-Pin_1)*%
X107950000Y-52070000D02*
X91440000Y-52070000D01*
X91440000Y-52070000D02*
X89250000Y-54260000D01*
X89250000Y-54260000D02*
X89250000Y-57020000D01*
X113506000Y-57626000D02*
X107950000Y-52070000D01*
X113506000Y-74930000D02*
X113506000Y-57626000D01*
%TO.N,Net-(J1-Pin_4)*%
X91250000Y-67120000D02*
X91250000Y-63270000D01*
X93440000Y-74760000D02*
X93440000Y-69310000D01*
X93440000Y-69310000D02*
X91250000Y-67120000D01*
%TD*%
M02*
