%TF.GenerationSoftware,KiCad,Pcbnew,7.0.9*%
%TF.CreationDate,2023-12-16T14:17:49+09:00*%
%TF.ProjectId,extension,65787465-6e73-4696-9f6e-2e6b69636164,rev?*%
%TF.SameCoordinates,Original*%
%TF.FileFunction,Profile,NP*%
%FSLAX46Y46*%
G04 Gerber Fmt 4.6, Leading zero omitted, Abs format (unit mm)*
G04 Created by KiCad (PCBNEW 7.0.9) date 2023-12-16 14:17:49*
%MOMM*%
%LPD*%
G01*
G04 APERTURE LIST*
%ADD10C,0.150000*%
%TA.AperFunction,Profile*%
%ADD11C,0.100000*%
%TD*%
G04 APERTURE END LIST*
D10*
X102549438Y-69497411D02*
X102501819Y-69592649D01*
X102501819Y-69592649D02*
X102501819Y-69735506D01*
X102501819Y-69735506D02*
X102549438Y-69878363D01*
X102549438Y-69878363D02*
X102644676Y-69973601D01*
X102644676Y-69973601D02*
X102739914Y-70021220D01*
X102739914Y-70021220D02*
X102930390Y-70068839D01*
X102930390Y-70068839D02*
X103073247Y-70068839D01*
X103073247Y-70068839D02*
X103263723Y-70021220D01*
X103263723Y-70021220D02*
X103358961Y-69973601D01*
X103358961Y-69973601D02*
X103454200Y-69878363D01*
X103454200Y-69878363D02*
X103501819Y-69735506D01*
X103501819Y-69735506D02*
X103501819Y-69640268D01*
X103501819Y-69640268D02*
X103454200Y-69497411D01*
X103454200Y-69497411D02*
X103406580Y-69449792D01*
X103406580Y-69449792D02*
X103073247Y-69449792D01*
X103073247Y-69449792D02*
X103073247Y-69640268D01*
X103501819Y-69021220D02*
X102501819Y-69021220D01*
X102501819Y-69021220D02*
X102501819Y-68640268D01*
X102501819Y-68640268D02*
X102549438Y-68545030D01*
X102549438Y-68545030D02*
X102597057Y-68497411D01*
X102597057Y-68497411D02*
X102692295Y-68449792D01*
X102692295Y-68449792D02*
X102835152Y-68449792D01*
X102835152Y-68449792D02*
X102930390Y-68497411D01*
X102930390Y-68497411D02*
X102978009Y-68545030D01*
X102978009Y-68545030D02*
X103025628Y-68640268D01*
X103025628Y-68640268D02*
X103025628Y-69021220D01*
X103501819Y-68021220D02*
X102501819Y-68021220D01*
X102501819Y-67354554D02*
X102501819Y-67164078D01*
X102501819Y-67164078D02*
X102549438Y-67068840D01*
X102549438Y-67068840D02*
X102644676Y-66973602D01*
X102644676Y-66973602D02*
X102835152Y-66925983D01*
X102835152Y-66925983D02*
X103168485Y-66925983D01*
X103168485Y-66925983D02*
X103358961Y-66973602D01*
X103358961Y-66973602D02*
X103454200Y-67068840D01*
X103454200Y-67068840D02*
X103501819Y-67164078D01*
X103501819Y-67164078D02*
X103501819Y-67354554D01*
X103501819Y-67354554D02*
X103454200Y-67449792D01*
X103454200Y-67449792D02*
X103358961Y-67545030D01*
X103358961Y-67545030D02*
X103168485Y-67592649D01*
X103168485Y-67592649D02*
X102835152Y-67592649D01*
X102835152Y-67592649D02*
X102644676Y-67545030D01*
X102644676Y-67545030D02*
X102549438Y-67449792D01*
X102549438Y-67449792D02*
X102501819Y-67354554D01*
X98485438Y-69497411D02*
X98437819Y-69592649D01*
X98437819Y-69592649D02*
X98437819Y-69735506D01*
X98437819Y-69735506D02*
X98485438Y-69878363D01*
X98485438Y-69878363D02*
X98580676Y-69973601D01*
X98580676Y-69973601D02*
X98675914Y-70021220D01*
X98675914Y-70021220D02*
X98866390Y-70068839D01*
X98866390Y-70068839D02*
X99009247Y-70068839D01*
X99009247Y-70068839D02*
X99199723Y-70021220D01*
X99199723Y-70021220D02*
X99294961Y-69973601D01*
X99294961Y-69973601D02*
X99390200Y-69878363D01*
X99390200Y-69878363D02*
X99437819Y-69735506D01*
X99437819Y-69735506D02*
X99437819Y-69640268D01*
X99437819Y-69640268D02*
X99390200Y-69497411D01*
X99390200Y-69497411D02*
X99342580Y-69449792D01*
X99342580Y-69449792D02*
X99009247Y-69449792D01*
X99009247Y-69449792D02*
X99009247Y-69640268D01*
X99437819Y-69021220D02*
X98437819Y-69021220D01*
X98437819Y-69021220D02*
X98437819Y-68640268D01*
X98437819Y-68640268D02*
X98485438Y-68545030D01*
X98485438Y-68545030D02*
X98533057Y-68497411D01*
X98533057Y-68497411D02*
X98628295Y-68449792D01*
X98628295Y-68449792D02*
X98771152Y-68449792D01*
X98771152Y-68449792D02*
X98866390Y-68497411D01*
X98866390Y-68497411D02*
X98914009Y-68545030D01*
X98914009Y-68545030D02*
X98961628Y-68640268D01*
X98961628Y-68640268D02*
X98961628Y-69021220D01*
X99437819Y-68021220D02*
X98437819Y-68021220D01*
X98437819Y-67354554D02*
X98437819Y-67164078D01*
X98437819Y-67164078D02*
X98485438Y-67068840D01*
X98485438Y-67068840D02*
X98580676Y-66973602D01*
X98580676Y-66973602D02*
X98771152Y-66925983D01*
X98771152Y-66925983D02*
X99104485Y-66925983D01*
X99104485Y-66925983D02*
X99294961Y-66973602D01*
X99294961Y-66973602D02*
X99390200Y-67068840D01*
X99390200Y-67068840D02*
X99437819Y-67164078D01*
X99437819Y-67164078D02*
X99437819Y-67354554D01*
X99437819Y-67354554D02*
X99390200Y-67449792D01*
X99390200Y-67449792D02*
X99294961Y-67545030D01*
X99294961Y-67545030D02*
X99104485Y-67592649D01*
X99104485Y-67592649D02*
X98771152Y-67592649D01*
X98771152Y-67592649D02*
X98580676Y-67545030D01*
X98580676Y-67545030D02*
X98485438Y-67449792D01*
X98485438Y-67449792D02*
X98437819Y-67354554D01*
X92897438Y-69497411D02*
X92849819Y-69592649D01*
X92849819Y-69592649D02*
X92849819Y-69735506D01*
X92849819Y-69735506D02*
X92897438Y-69878363D01*
X92897438Y-69878363D02*
X92992676Y-69973601D01*
X92992676Y-69973601D02*
X93087914Y-70021220D01*
X93087914Y-70021220D02*
X93278390Y-70068839D01*
X93278390Y-70068839D02*
X93421247Y-70068839D01*
X93421247Y-70068839D02*
X93611723Y-70021220D01*
X93611723Y-70021220D02*
X93706961Y-69973601D01*
X93706961Y-69973601D02*
X93802200Y-69878363D01*
X93802200Y-69878363D02*
X93849819Y-69735506D01*
X93849819Y-69735506D02*
X93849819Y-69640268D01*
X93849819Y-69640268D02*
X93802200Y-69497411D01*
X93802200Y-69497411D02*
X93754580Y-69449792D01*
X93754580Y-69449792D02*
X93421247Y-69449792D01*
X93421247Y-69449792D02*
X93421247Y-69640268D01*
X93849819Y-69021220D02*
X92849819Y-69021220D01*
X92849819Y-69021220D02*
X92849819Y-68640268D01*
X92849819Y-68640268D02*
X92897438Y-68545030D01*
X92897438Y-68545030D02*
X92945057Y-68497411D01*
X92945057Y-68497411D02*
X93040295Y-68449792D01*
X93040295Y-68449792D02*
X93183152Y-68449792D01*
X93183152Y-68449792D02*
X93278390Y-68497411D01*
X93278390Y-68497411D02*
X93326009Y-68545030D01*
X93326009Y-68545030D02*
X93373628Y-68640268D01*
X93373628Y-68640268D02*
X93373628Y-69021220D01*
X93849819Y-68021220D02*
X92849819Y-68021220D01*
X92849819Y-67354554D02*
X92849819Y-67164078D01*
X92849819Y-67164078D02*
X92897438Y-67068840D01*
X92897438Y-67068840D02*
X92992676Y-66973602D01*
X92992676Y-66973602D02*
X93183152Y-66925983D01*
X93183152Y-66925983D02*
X93516485Y-66925983D01*
X93516485Y-66925983D02*
X93706961Y-66973602D01*
X93706961Y-66973602D02*
X93802200Y-67068840D01*
X93802200Y-67068840D02*
X93849819Y-67164078D01*
X93849819Y-67164078D02*
X93849819Y-67354554D01*
X93849819Y-67354554D02*
X93802200Y-67449792D01*
X93802200Y-67449792D02*
X93706961Y-67545030D01*
X93706961Y-67545030D02*
X93516485Y-67592649D01*
X93516485Y-67592649D02*
X93183152Y-67592649D01*
X93183152Y-67592649D02*
X92992676Y-67545030D01*
X92992676Y-67545030D02*
X92897438Y-67449792D01*
X92897438Y-67449792D02*
X92849819Y-67354554D01*
X88833438Y-69497411D02*
X88785819Y-69592649D01*
X88785819Y-69592649D02*
X88785819Y-69735506D01*
X88785819Y-69735506D02*
X88833438Y-69878363D01*
X88833438Y-69878363D02*
X88928676Y-69973601D01*
X88928676Y-69973601D02*
X89023914Y-70021220D01*
X89023914Y-70021220D02*
X89214390Y-70068839D01*
X89214390Y-70068839D02*
X89357247Y-70068839D01*
X89357247Y-70068839D02*
X89547723Y-70021220D01*
X89547723Y-70021220D02*
X89642961Y-69973601D01*
X89642961Y-69973601D02*
X89738200Y-69878363D01*
X89738200Y-69878363D02*
X89785819Y-69735506D01*
X89785819Y-69735506D02*
X89785819Y-69640268D01*
X89785819Y-69640268D02*
X89738200Y-69497411D01*
X89738200Y-69497411D02*
X89690580Y-69449792D01*
X89690580Y-69449792D02*
X89357247Y-69449792D01*
X89357247Y-69449792D02*
X89357247Y-69640268D01*
X89785819Y-69021220D02*
X88785819Y-69021220D01*
X88785819Y-69021220D02*
X88785819Y-68640268D01*
X88785819Y-68640268D02*
X88833438Y-68545030D01*
X88833438Y-68545030D02*
X88881057Y-68497411D01*
X88881057Y-68497411D02*
X88976295Y-68449792D01*
X88976295Y-68449792D02*
X89119152Y-68449792D01*
X89119152Y-68449792D02*
X89214390Y-68497411D01*
X89214390Y-68497411D02*
X89262009Y-68545030D01*
X89262009Y-68545030D02*
X89309628Y-68640268D01*
X89309628Y-68640268D02*
X89309628Y-69021220D01*
X89785819Y-68021220D02*
X88785819Y-68021220D01*
X88785819Y-67354554D02*
X88785819Y-67164078D01*
X88785819Y-67164078D02*
X88833438Y-67068840D01*
X88833438Y-67068840D02*
X88928676Y-66973602D01*
X88928676Y-66973602D02*
X89119152Y-66925983D01*
X89119152Y-66925983D02*
X89452485Y-66925983D01*
X89452485Y-66925983D02*
X89642961Y-66973602D01*
X89642961Y-66973602D02*
X89738200Y-67068840D01*
X89738200Y-67068840D02*
X89785819Y-67164078D01*
X89785819Y-67164078D02*
X89785819Y-67354554D01*
X89785819Y-67354554D02*
X89738200Y-67449792D01*
X89738200Y-67449792D02*
X89642961Y-67545030D01*
X89642961Y-67545030D02*
X89452485Y-67592649D01*
X89452485Y-67592649D02*
X89119152Y-67592649D01*
X89119152Y-67592649D02*
X88928676Y-67545030D01*
X88928676Y-67545030D02*
X88833438Y-67449792D01*
X88833438Y-67449792D02*
X88785819Y-67354554D01*
D11*
X83820000Y-50800000D02*
X129540000Y-50800000D01*
X83820000Y-88900000D02*
X83820000Y-50800000D01*
X129540000Y-50800000D02*
X129540000Y-88900000D01*
X129540000Y-88900000D02*
X83820000Y-88900000D01*
M02*
