<svg width="242" height="272" viewBox="0 0 242 272" fill="none" xmlns="http://www.w3.org/2000/svg">
<path d="M37 164.1C42.8 164.1 48.6 164.1 54.4 164.1C60.2 164.1 64.4 161.3 67.3 156.3C71 149.9 74.7 143.5 78.4 137.1C81.5 131.8 84.6 126.4 87.7 121.1C91.2 115 94.8 108.9 98.3 102.8C101.4 97.4 104.5 91.9 107.7 86.5C108.4 85.3 107.4 85.2 106.9 85C104.6 84.2 102.1 83.5 99.7 83.4C96.6 83.3 93.4 83.3 90.2 83.6C83.6 84.2 77.4 86.0999 71.2 88.1999C65.9 90.0999 60.7 92.4 55.4 94.4C50.9 96 46.3 96.2999 41.9 94.1999C36.4 91.6999 31.7 85.6999 31.7 79.1999C31.8 71.0999 35.9 65.6 42.6 61.8C48 58.7 53.7 56.1999 59.6 54.1999C64.4 52.5999 69.3 51.5 74.3 50.6C81.3 49.4 88.4 48.9 95.4 49.4C107.3 50.2 118.9 52.6 130 57.4C141.6 62.5 152.3 69.1 162.6 76.5C168.5 80.8 174 85.5 179.4 90.4C183.3 93.9 186.9 97.6 190.6 101.4C193.7 104.6 197.3 106.2 201.8 106.1C208.6 105.9 215.4 106 222.2 106.1C232.3 106.2 239.3 111.9 241.2 121.8C242 125.9 240.5 129.8 237.8 133C235.1 136.2 231.8 138.6 227.5 139.2C224.3 139.7 221.1 139.5 217.9 139.2C217.6 139.2 217.2 139.1 216.9 139.1C213 139 209.1 139 205.3 138.7C200.3 138.4 195.2 138.2 190.2 138.1C185.4 138 180.7 137 176.8 133.9C174.2 131.8 171.7 129.5 169.1 127.3C165.4 124.1 161.6 120.9 157.9 117.7C155.1 115.2 152.2 112.8 149.5 110.2C148.7 109.5 148.3 109.3 147.7 110.4C142.4 119.4 137.1 128.3 131.7 137.2C131.2 138.1 131.4 138.6 132.1 139.4C138.7 146.7 146 153.4 152.8 160.4C156.5 164.2 160.4 167.9 163.9 171.9C166.5 174.9 167.7 178.5 167.2 182.6C166.6 187.6 164.2 192 162.5 196.6C159.1 205.9 155.3 215.1 151.7 224.4C148.1 233.6 144.6 242.9 141 252.1C139.6 255.8 138.5 259.8 136.4 263.2C133.5 267.8 129.5 270.7 123.9 271.4C118.9 272.1 114.4 271.2 110.4 268.1C107.5 265.9 106.1 262.8 105.3 259.4C104.2 254.5 105.2 249.9 107 245.2C111.1 234.9 115 224.5 119 214.1C121.8 206.8 124.6 199.4 127.5 192.1C128.6 189.3 128.8 186.6 127.3 183.9C127 183.3 126.6 182.8 126.1 182.3C122.8 179 119.6 175.6 116.1 172.4C112.3 169 108.8 165.2 105.1 161.7C104.3 161 104 160.8 103.3 161.9C96.9 171.8 90.5 181.7 84 191.5C81.6 195.1 78.2 197.1 73.9 197.8C72 198.1 70.2 198.1 68.3 198.1C51.3 198.1 34.3 198.1 17.2 198.1C13.3 198.1 9.50001 197.2 6.40001 194.6C2.80001 191.7 0.900026 188 0.600026 183.4C0.200026 177.9 1.90001 173.2 5.80001 169.5C9.50001 165.9 14.1 164 19.4 163.9C25.4 164.1 31.2 164.1 37 164.1Z" fill="#593A2D"/>
<path d="M139.6 30.9C139.7 13.6 153 0.899908 169.2 0.699908C186.9 0.499908 199.9 13.5 200 30.9C200 47.8 187.3 60.9999 169.8 61.0999C152.9 61.1999 139.7 47.9 139.6 30.9Z" fill="#593A2D"/>
</svg>
