<svg width="334" height="132" viewBox="0 0 334 132" fill="none" xmlns="http://www.w3.org/2000/svg">
<path d="M271.3 124.1C269.6 129.2 266.1 131.6 260.8 131.6C257 131.6 253.2 131.6 249.4 131.6C242.3 131.4 238.2 127.3 238.2 119.9C238.1 108.2 238.2 96.5 238.2 84.7C238.2 61 238.2 37.2 238.2 13.5C238.2 4.5 242.3 0.499997 251.4 0.399997C254.6 0.399997 257.9 0.300003 261.1 0.500003C266.2 0.800003 270 3.00002 271.5 8.20002C271 9.50002 271.2 10.8 271.2 12.1C271.1 48.9 271.3 85.6 271.1 122.4C270.9 123 271.1 123.6 271.3 124.1Z" fill="#593A2D"/>
<path d="M93.7 124.2C92.1 129.3 88.4 131.6 83.2 131.7C79.3 131.8 75.3 131.9 71.4 131.7C64.6 131.5 60.5 126.9 60.5 119.5C60.5 97.7999 60.5 76.0999 60.5 54.4999C60.5 40.5999 60.5 26.6999 60.5 12.7999C60.5 5.19989 64.2 0.999902 71.7 0.499902C75.6 0.199902 79.6 0.199902 83.6 0.499902C87.7 0.799902 91.2 2.2999 93 6.3999C94.1 44.4999 93.2 82.5999 93.5 120.7C93.4 121.9 93.1 123.1 93.7 124.2Z" fill="#593A2D"/>
<path d="M50.9 111.4C50.6 111.7 50.4 112.2 50.1 112.4C45.8 115.7 28.8 115.9 24.5 112.7C21.4 110.4 20.2 107.2 20.2 103.5C20.1 78.4999 20.1 53.4999 20.2 28.4999C20.2 21.5999 24.2 17.6999 31.1 17.3999C35.3 17.1999 39.6 17.2999 43.8 17.3999C48.7 17.5999 52 19.9999 53.4 24.7999C53.3 29.2999 53.5 33.7999 53.5 38.2999C53.5 57.6999 53.4 77.0999 53.5 96.4999C53.5 101.7 53.6 106.8 50.9 111.4Z" fill="#593A2D"/>
<path d="M311.7 107.4C310 112.4 306.5 114.8 301.2 114.8C297.3 114.8 293.4 114.9 289.4 114.8C283.1 114.6 280.1 112 278.7 105.7C279.3 102.4 278.9 98.9999 278.9 95.5999C278.9 74.1999 278.9 52.7999 278.9 31.3999C278.9 29.7999 279.2 28.1999 278.6 26.5999C280.1 20.1999 283.1 17.5999 289.3 17.2999C293.2 17.0999 297.2 17.0999 301.1 17.2999C307 17.4999 309.8 19.7999 311.7 25.6999C311.2 26.6999 311.3 27.6999 311.3 28.6999C311.3 54.1999 311.3 79.6999 311.3 105.2C311.5 106 311.5 106.7 311.7 107.4Z" fill="#593A2D"/>
<path d="M231 54.0999C232.3 61.5999 231.3 69.1999 231.5 76.6999C231.5 77.9999 230.9 78.5998 229.6 78.4998C229 78.4998 228.4 78.4998 227.8 78.4998C186.6 78.4998 145.5 78.4998 104.3 78.4998C103.7 78.4998 103.1 78.3999 102.6 78.3999C101.8 72.0999 102.4 65.7998 102.1 59.5998C102 56.1998 103.3 54.7998 106.7 54.7998C112 54.8998 117.2 54.7998 122.5 54.7998C157 54.7998 191.6 54.8999 226.1 54.6999C229.4 54.6999 230.6 55.7998 230.5 58.8998C230.4 63.7998 230.5 68.6999 230.5 73.6999C230.5 68.1999 230.6 62.5999 230.4 57.0999C230.5 55.9999 230.2 54.8999 231 54.0999Z" fill="#593A2D"/>
<path d="M13.7999 66.2998C13.7999 71.0998 13.6999 75.8998 13.8999 80.7998C13.9999 83.3998 13.1 83.9998 10.7 83.9998C-4.1008e-05 83.7998 0.599958 85.0999 0.699958 74.1999C0.699958 67.1999 0.799958 60.1999 0.699958 53.1999C0.599958 49.8999 1.79993 48.5999 5.29993 48.5999C13.8999 48.6999 13.8999 48.4999 13.8999 57.1999C13.7999 60.0999 13.7999 63.1998 13.7999 66.2998Z" fill="#593A2D"/>
<path d="M332.2 83C331.9 83.2 331.6 83.5 331.3 83.7C328.5 82.4 325.5 83.5 322.6 83.4C320.1 83.4 319.4 82.5 319.4 80.1C319.5 70.7 319.5 61.4 319.4 52C319.4 49.7 320.2 49 322.5 49C334.4 49.2 332.6 47.7 332.6 58.9C332.5 66.9 333.1 74.9 332.2 83Z" fill="#593A2D"/>
<path d="M231 54.0998C231 61.7998 231 69.4998 231 77.1998C230.7 77.1998 230.4 77.1998 230.1 77.1998C230.1 71.7998 229.9 66.3998 230.2 60.9998C230.4 56.7998 229.4 55.3998 224.7 55.4998C186 55.7998 147.4 55.5998 108.7 55.5998C102.6 55.5998 102.6 55.5998 102.6 61.6998C102.6 65.8998 102.7 70.1998 102.6 74.3998C102.6 75.6998 106.1 76.9998 102.6 78.2998C101 78.0998 101.5 76.7998 101.5 75.8998C101.5 69.4998 101.6 62.9998 101.5 56.5998C101.5 54.5998 101.8 53.7998 104.1 53.7998C146.2 53.8998 188.4 53.8998 230.5 53.9998C230.8 53.9998 230.9 54.0998 231 54.0998Z" fill="#593A2D"/>
<path d="M50.8999 111.4C50.6999 110.6 49.8999 109.7 50.6999 109C52.9999 107.1 52.4999 104.5 52.4999 102.1C52.4999 77.8998 52.4999 53.6998 52.4999 29.3998C52.4999 27.8998 51.8999 26.1998 53.2999 24.7998C53.8999 26.8998 53.9999 29.0998 53.9999 31.2998C53.9999 54.8998 53.9999 78.5998 53.8999 102.2C53.9999 105.6 53.8999 109 50.8999 111.4Z" fill="#593A2D"/>
<path d="M93.6999 124.2C92.9999 123.8 92.4999 123.4 92.4999 122.5C93.3999 86.3999 92.5999 50.3999 92.9999 14.2999C92.9999 11.5999 90.6999 8.9999 92.8999 6.3999C94.2999 8.2999 94.0999 10.5999 94.0999 12.6999C94.0999 48.3999 94.0999 84.0999 94.0999 119.8C94.0999 121.3 93.8999 122.7 93.6999 124.2Z" fill="#593A2D"/>
<path d="M271.3 124.1C270.7 123.7 270.2 123.2 270.3 122.3C271.1 85.8998 270.4 49.5999 270.7 13.1999C270.7 11.4999 270.1 9.69985 271.4 8.09985C271.5 10.5999 271.8 13.0998 271.8 15.4998C271.8 49.5998 271.8 83.7999 271.8 117.9C271.7 120.1 271.4 122.1 271.3 124.1Z" fill="#593A2D"/>
<path d="M332.2 83C332.2 73.5 332.1 64 332.3 54.5C332.4 50.7 331.2 49.3 327.3 49.4C318.6 49.7 320 48.5 319.9 56.9C319.8 64.2 320.1 71.5 319.8 78.8C319.7 82.3 321 82.9 324.1 82.9C326.4 82.9 329.2 80.6 331.2 83.6C328 83.6 324.8 83.6 321.5 83.8C319.5 83.9 318.8 83.6 318.8 81.3C319 71.3 318.9 61.4 318.8 51.4C318.8 49.1 319.3 48.5 321.6 48.5C335 48.9 333 46.4 333.2 59.7C333.3 66 333.3 72.3 333.2 78.6C333.2 80.1 334 81.9 332.2 83Z" fill="#593A2D"/>
<path d="M311.7 107.4C310.8 106.4 311.1 105.2 311.1 104C311.1 79.0999 311.1 54.2999 311.1 29.3999C311.1 28.1999 310.6 26.7 311.9 25.7C312 53 312.3 80.2 311.7 107.4Z" fill="#593A2D"/>
<path d="M278.6 26.7C279.8 27.7 279.3 29.0999 279.3 30.3999C279.3 54.3999 279.3 78.4 279.3 102.4C279.3 103.5 279.5 104.8 278.6 105.7C278.5 86.2 278.5 66.7999 278.4 47.2999C278.5 40.3999 278.6 33.5 278.6 26.7Z" fill="#593A2D"/>
</svg>
