<?xml version="1.0" encoding="iso-8859-1"?>
<!-- Generator: Adobe Illustrator 19.1.0, SVG Export Plug-In . SVG Version: 6.00 Build 0)  -->
<svg version="1.1" id="Capa_1" xmlns="http://www.w3.org/2000/svg" xmlns:xlink="http://www.w3.org/1999/xlink" x="0px" y="0px"
	 viewBox="0 0 31.059 31.059" style="enable-background:new 0 0 31.059 31.059;" xml:space="preserve">
<g>
	<g>
		<g>
			<path style="fill:#010002;" d="M14.067,16.417c-0.114,0-0.229-0.023-0.34-0.068c-0.331-0.137-0.548-0.46-0.548-0.819V0.888
				c0-0.359,0.217-0.683,0.548-0.82c0.333-0.138,0.714-0.061,0.967,0.192l7.321,7.321c0.347,0.347,0.347,0.908,0,1.255l-7.321,7.32
				C14.524,16.326,14.298,16.417,14.067,16.417z M14.955,3.029v10.357l5.179-5.179L14.955,3.029z"/>
		</g>
		<g>
			<path style="fill:#010002;" d="M9.67,21.179c-0.215,0-0.431-0.077-0.602-0.235c-0.359-0.332-0.382-0.895-0.05-1.254l4.396-4.762
				c0.333-0.36,0.894-0.383,1.254-0.051c0.36,0.333,0.383,0.894,0.051,1.254l-4.398,4.763C10.147,21.083,9.909,21.179,9.67,21.179z"
				/>
		</g>
	</g>
	<g>
		<g>
			<path style="fill:#010002;" d="M14.067,31.059c-0.114,0-0.229-0.023-0.34-0.067c-0.331-0.138-0.548-0.461-0.548-0.82V15.529
				c0-0.359,0.217-0.683,0.548-0.82c0.333-0.137,0.714-0.061,0.967,0.193l7.321,7.32c0.347,0.347,0.347,0.908,0,1.255l-7.321,7.321
				C14.524,30.969,14.298,31.059,14.067,31.059z M14.955,17.672v10.357l5.179-5.179L14.955,17.672z"/>
		</g>
		<g>
			<path style="fill:#010002;" d="M14.067,16.417c-0.239,0-0.477-0.097-0.652-0.286l-4.396-4.762c-0.332-0.36-0.31-0.922,0.05-1.254
				c0.361-0.333,0.922-0.311,1.254,0.05l4.398,4.763c0.332,0.359,0.31,0.921-0.051,1.254C14.498,16.339,14.283,16.417,14.067,16.417
				z"/>
		</g>
	</g>
</g>
<g>
</g>
<g>
</g>
<g>
</g>
<g>
</g>
<g>
</g>
<g>
</g>
<g>
</g>
<g>
</g>
<g>
</g>
<g>
</g>
<g>
</g>
<g>
</g>
<g>
</g>
<g>
</g>
<g>
</g>
</svg>
