<?xml version="1.0" encoding="iso-8859-1"?>
<!-- Generator: Adobe Illustrator 19.1.0, SVG Export Plug-In . SVG Version: 6.00 Build 0)  -->
<svg version="1.1" id="Capa_1" xmlns="http://www.w3.org/2000/svg" xmlns:xlink="http://www.w3.org/1999/xlink" x="0px" y="0px"
	 viewBox="0 0 30.608 30.608" style="enable-background:new 0 0 30.608 30.608;" xml:space="preserve">
<g>
	<g>
		<g>
			<g>
				<path style="fill:#010002;" d="M29.733,30.608H0.875C0.392,30.608,0,30.216,0,29.733V10.611c0-0.29,0.145-0.562,0.386-0.725
					l14.43-9.736c0.297-0.199,0.683-0.199,0.979,0l14.428,9.736c0.241,0.162,0.386,0.434,0.386,0.725v19.122
					C30.608,30.216,30.217,30.608,29.733,30.608z M1.75,28.858h27.108V11.076L15.305,1.929L1.75,11.076V28.858z"/>
			</g>
			<g>
				<path style="fill:#010002;" d="M25.216,30.608h-9.911c-0.482,0-0.875-0.392-0.875-0.875V15.304c0-0.483,0.393-0.875,0.875-0.875
					h9.911c0.483,0,0.875,0.392,0.875,0.875v14.429C26.091,30.216,25.699,30.608,25.216,30.608z M16.18,28.858h8.161v-12.68H16.18
					V28.858z"/>
			</g>
		</g>
		<g>
			<path style="fill:#010002;" d="M10.321,20.873h-5.89c-0.483,0-0.875-0.392-0.875-0.875v-4.693c0-0.483,0.392-0.875,0.875-0.875
				h5.89c0.483,0,0.875,0.392,0.875,0.875v4.693C11.196,20.481,10.804,20.873,10.321,20.873z M5.307,19.123h4.14v-2.944h-4.14
				V19.123z"/>
		</g>
	</g>
	<g>
		<path style="fill:#010002;" d="M29.733,11.931H0.875C0.392,11.931,0,11.54,0,11.056c0-0.482,0.392-0.875,0.875-0.875h28.858
			c0.483,0,0.875,0.393,0.875,0.875C30.608,11.54,30.217,11.931,29.733,11.931z"/>
	</g>
</g>
<g>
</g>
<g>
</g>
<g>
</g>
<g>
</g>
<g>
</g>
<g>
</g>
<g>
</g>
<g>
</g>
<g>
</g>
<g>
</g>
<g>
</g>
<g>
</g>
<g>
</g>
<g>
</g>
<g>
</g>
</svg>
