<?xml version="1.0"?>
<!DOCTYPE svg PUBLIC "-//W3C//DTD SVG 1.1//EN" "http://www.w3.org/Graphics/SVG/1.1/DTD/svg11.dtd">
<svg width="173.46120000000002mm" height="78.89053441353312mm" viewBox="0 0 173.46120000000002 78.89053441353312" xmlns="http://www.w3.org/2000/svg" version="1.1">
<g id="Sketch" transform="translate(153.900600,76.788349) scale(1,-1)">
<path id="Sketch_w0000"  d="M -108.82 75.08774892948304 L -140.32794029573952 74.5983166290525 A 12 12 0 0 1 -152.2 62.599L -152.20000000000002 44.09234058657516 L -127.20000000000002 44.09234058657516 L -127.20000000000002 30.892340586575163 L -152.20000000000002 30.892340586575163 L -152.20000000000002 12.001349403767405 A 12 12 0 0 1 -140.207 -0.401585L -108.82660063969064 -0.401585484050083 L -108.82660063969064 4.0 L -98.82660063969064 4.0 L -98.82660063969064 0.0 L -72.23332351176397 0.0 L -72.23332351176397 3.999999999999999 L -62.23332351176397 3.999999999999999 L -62.23332351176397 0.0 L -35.826600639680116 0.0 L -35.826600639680116 3.999999999999999 L -25.82660063968012 3.999999999999999 L -25.82660063968012 -1e-17 L 5.867454385092664 -0.117862182628397 A 12 12 0 0 1 17.86 12L 17.86 25.499993121110553 L -12.05 25.499993121110556 A 12 12 0 0 0 -12.05 49.5L 17.799999999999986 49.500006616320505 L 17.799999999996864 62.59901092265834 A 12 12 0 0 1 5.80682 75.0036L -25.82660063968015 75.00355558590188 L -25.82660063968015 71.00000000000004 L -35.82660063968015 71.00000000000004 L -35.82660063968015 75.0 L -62.32660063969087 75.0 L -62.32660063969087 71.00000000000001 L -72.32660063969087 71.00000000000001 L -72.32660063969087 74.99999999999997 L -98.82 75.0 L -98.82 71.08774892948304 L -108.82 71.08774892948304 L -108.82 75.08774892948304 " stroke="#f1f3f5" stroke-width="0.7 px" style="stroke-width:0.7;stroke-miterlimit:4;stroke-dasharray:none;stroke-linecap:square;fill:none;fill-opacity:1;fill-rule: evenodd"/>
<circle cx="5.962192000000049" cy="55.25" r="1.1" stroke="#f1f3f5" stroke-width="0.7 px" style="stroke-width:0.7;stroke-miterlimit:4;stroke-dasharray:none;stroke-linecap:square;fill:none"/>
<circle cx="-65.03780799999996" cy="55.25" r="1.1" stroke="#f1f3f5" stroke-width="0.7 px" style="stroke-width:0.7;stroke-miterlimit:4;stroke-dasharray:none;stroke-linecap:square;fill:none"/>
<circle cx="-65.03780799999996" cy="19.749999999999996" r="1.1" stroke="#f1f3f5" stroke-width="0.7 px" style="stroke-width:0.7;stroke-miterlimit:4;stroke-dasharray:none;stroke-linecap:square;fill:none"/>
<circle cx="5.962192000000049" cy="19.749999999999996" r="1.1" stroke="#f1f3f5" stroke-width="0.7 px" style="stroke-width:0.7;stroke-miterlimit:4;stroke-dasharray:none;stroke-linecap:square;fill:none"/>
<circle cx="-140.20000000000002" cy="62.59899867840523" r="1.1" stroke="#f1f3f5" stroke-width="0.7 px" style="stroke-width:0.7;stroke-miterlimit:4;stroke-dasharray:none;stroke-linecap:square;fill:none"/>
<circle cx="-140.20676676303762" cy="11.598414515949917" r="1.1" stroke="#f1f3f5" stroke-width="0.7 px" style="stroke-width:0.7;stroke-miterlimit:4;stroke-dasharray:none;stroke-linecap:square;fill:none"/>
<circle cx="5.860578758654553" cy="11.882135847611487" r="1.1" stroke="#f1f3f5" stroke-width="0.7 px" style="stroke-width:0.7;stroke-miterlimit:4;stroke-dasharray:none;stroke-linecap:square;fill:none"/>
<circle cx="5.80682095457625" cy="63.003555585901886" r="1.1" stroke="#f1f3f5" stroke-width="0.7 px" style="stroke-width:0.7;stroke-miterlimit:4;stroke-dasharray:none;stroke-linecap:square;fill:none"/>
<circle cx="-115.26117099999995" cy="37.500000000000256" r="3.75" stroke="#f1f3f5" stroke-width="0.7 px" style="stroke-width:0.7;stroke-miterlimit:4;stroke-dasharray:none;stroke-linecap:square;fill:none"/>
<circle cx="-115.26117099999995" cy="56.25000000000004" r="3.75" stroke="#f1f3f5" stroke-width="0.7 px" style="stroke-width:0.7;stroke-miterlimit:4;stroke-dasharray:none;stroke-linecap:square;fill:none"/>
<circle cx="-115.26117099999996" cy="18.750000000000473" r="3.75" stroke="#f1f3f5" stroke-width="0.7 px" style="stroke-width:0.7;stroke-miterlimit:4;stroke-dasharray:none;stroke-linecap:square;fill:none"/>
<title>b'Sketch'</title>
</g>
</svg>