<?xml version="1.0"?>
<!DOCTYPE svg PUBLIC "-//W3C//DTD SVG 1.1//EN" "http://www.w3.org/Graphics/SVG/1.1/DTD/svg11.dtd">
<svg width="263.75292821391844mm" height="177.51465904341023mm" viewBox="0 0 263.75292821391844 177.51465904341023" xmlns="http://www.w3.org/2000/svg" version="1.1">
<g id="Sketch" transform="translate(97.868397,40.296285) scale(1,-1)">
<path id="Sketch_w0000"  d="M -55.28 -57.29 L -95.28 -57.29 L -95.28 -38.54 L -90.28 -38.54 L -90.28 -28.54 L -95.28 -28.54 L -95.28 8.96 L -90.28 8.96 L -90.28 18.96 L -95.28 18.96 L -95.28 37.71 L -55.279999999999966 37.7104719989252 L -55.28 32.71047199892521 L -45.28 32.71047199892521 L -45.28 37.71047200000001 L -10.280000000000001 37.710472000000046 L -10.280000000000001 32.71047200000004 L -0.2800000000000011 32.71047200000004 L -0.2800000000000011 37.710472 L 34.72 37.71047200000001 L 34.72 32.71047200000001 L 44.72 32.71047200000001 L 44.72 37.710472 " stroke="#000000" stroke-width="0.7 px" style="stroke-width:0.7;stroke-miterlimit:4;stroke-dasharray:none;stroke-linecap:square;fill:none;fill-opacity:1;fill-rule: evenodd"/>
<path id="Sketch_w0001"  d="M 44.72 37.71 L 79.72000000000001 37.71 L 79.72000000000001 18.959999999999994 L 74.72000000000001 18.96 L 74.72000000000001 8.96 L 79.72000000000001 8.959999999999997 L 79.72000000000001 -28.540000000000006 L 74.72000000000001 -28.540000000000006 L 74.72000000000001 -38.540000000000006 L 79.72000000000001 -38.540000000000006 L 79.72000000000001 -57.290000000000006 L 44.72 -57.289528 L 44.72 -52.289528 L 34.72 -52.289528 L 34.72 -57.289528 L -0.28000000000000025 -57.289528 L -0.28000000000000025 -52.289528 L -10.280000000000001 -52.289528 L -10.280000000000001 -57.289528 L -45.28 -57.289528 L -45.28 -52.28952799999999 L -55.28 -52.28952799999999 L -55.28 -57.28952799999999 " stroke="#000000" stroke-width="0.7 px" style="stroke-width:0.7;stroke-miterlimit:4;stroke-dasharray:none;stroke-linecap:square;fill:none;fill-opacity:1;fill-rule: evenodd"/>
<path id="Sketch_w0002"  d="M -73.95039 -42.29 L -8.950389999999999 -42.29 L -8.95039 22.71 L -73.95039 22.71 L -73.95039 -42.29 " stroke="#000000" stroke-width="0.7 px" style="stroke-width:0.7;stroke-miterlimit:4;stroke-dasharray:none;stroke-linecap:square;fill:none;fill-opacity:1;fill-rule: evenodd"/>
<title>b'Sketch'</title>
</g>
<g id="Sketch001" transform="translate(97.868397,40.296285) scale(1,-1)">
<path id="Sketch001_w0000"  d="M 79.7174156721832 -94.63256100000001 L 79.71741567218318 -69.63256100000001 L 44.617415672183185 -69.63256100000001 L 44.617415672183185 -64.63256100000001 L 34.81741567218319 -64.63256100000001 L 34.81741567218319 -69.63256100000001 L -0.3825843278168142 -69.63256100000001 L -0.38258432781681323 -64.63256100000001 L -10.182584327816814 -64.63256100000001 L -10.182584327816812 -69.63256100000001 L -45.382584327816815 -69.63256100000001 L -45.382584327816815 -64.63256100000001 L -55.18258432781682 -64.63256100000001 L -55.182584327816826 -69.63256100000001 L -95.28258432781682 -69.63256100000001 L -95.2825843278168 -94.63256100000001 L -90.2825843278168 -94.63256100000001 L -90.2825843278168 -104.63256100000001 L -95.2825843278168 -104.63256100000001 L -95.28258432781682 -129.632561 L -55.18258432781682 -129.632561 L -55.18258432781682 -134.632561 L -45.382584327816815 -134.632561 L -45.382584327816815 -129.632561 L -10.182584327816812 -129.632561 L -10.182584327816814 -134.632561 L -0.3825843278168133 -134.632561 L -0.3825843278168142 -129.632561 L 34.817415672183195 -129.632561 L 34.81741567218319 -134.632561 L 44.617415672183185 -134.632561 L 44.617415672183185 -129.632561 L 79.71741567218318 -129.632561 L 79.7174156721832 -104.63256100000001 L 74.71741567218321 -104.63256100000001 L 74.71741567218321 -94.63256100000001 L 79.71741567218321 -94.63256100000001 " stroke="#000000" stroke-width="0.7 px" style="stroke-width:0.7;stroke-miterlimit:4;stroke-dasharray:none;stroke-linecap:square;fill:none;fill-opacity:1;fill-rule: evenodd"/>
<path id="Sketch001_w0001"  d="M -84.84702161730856 -106.132561 L -65.84702161730856 -106.132561 L -65.84702161730856 -93.132561 L -84.84702161730856 -93.132561 L -84.84702161730856 -106.132561 " stroke="#000000" stroke-width="0.7 px" style="stroke-width:0.7;stroke-miterlimit:4;stroke-dasharray:none;stroke-linecap:square;fill:none;fill-opacity:1;fill-rule: evenodd"/>
<path id="Sketch001_w0002"  d="M -42.98402400000003 -107.13256100000001 L 62.01597599999997 -107.13256100000001 L 62.01597599999997 -92.13256100000001 L -42.98402400000003 -92.13256100000001 L -42.98402400000003 -107.13256100000001 " stroke="#000000" stroke-width="0.7 px" style="stroke-width:0.7;stroke-miterlimit:4;stroke-dasharray:none;stroke-linecap:square;fill:none;fill-opacity:1;fill-rule: evenodd"/>
<circle cx="-78.023979" cy="-83.132561" r="3.75" stroke="#000000" stroke-width="0.7 px" style="stroke-width:0.7;stroke-miterlimit:4;stroke-dasharray:none;stroke-linecap:square;fill:none"/>
<circle cx="-55.352493" cy="-83.132561" r="3.75" stroke="#000000" stroke-width="0.7 px" style="stroke-width:0.7;stroke-miterlimit:4;stroke-dasharray:none;stroke-linecap:square;fill:none"/>
<circle cx="-78.023979" cy="-116.132561" r="3.0" stroke="#000000" stroke-width="0.7 px" style="stroke-width:0.7;stroke-miterlimit:4;stroke-dasharray:none;stroke-linecap:square;fill:none"/>
<circle cx="-55.352493" cy="-116.132561" r="2.75" stroke="#000000" stroke-width="0.7 px" style="stroke-width:0.7;stroke-miterlimit:4;stroke-dasharray:none;stroke-linecap:square;fill:none"/>
<title>b'Sketch001'</title>
</g>
<g id="Sketch002" transform="translate(97.868397,40.296285) scale(1,-1)">
<path id="Sketch002_w0000"  d="M 98.29871784269145 18.96999999999999 L 93.29871784269145 18.96999999999999 L 93.29871784269145 9.169999999999993 L 98.29871784269145 9.169999999999995 L 98.29871784269145 -28.750000000000007 L 93.29871784269145 -28.750000000000007 L 93.29871784269145 -38.550000000000004 L 98.29871784269145 -38.55 L 98.29871784269145 -52.290000000000006 L 123.3987178426914 -52.290000000000006 L 123.3987178426914 -57.289999999999985 L 133.1987178426914 -57.289999999999985 L 133.1987178426914 -52.290000000000006 L 158.29871784269145 -52.290000000000006 L 158.29871784269145 -38.550000000000004 " stroke="#000000" stroke-width="0.7 px" style="stroke-width:0.7;stroke-miterlimit:4;stroke-dasharray:none;stroke-linecap:square;fill:none;fill-opacity:1;fill-rule: evenodd"/>
<path id="Sketch002_w0001"  d="M 158.29871784269145 -28.750000000000007 L 158.29871784269145 9.169999999999995 L 163.29871784269145 9.169999999999993 L 163.29871784269145 18.96999999999999 L 158.29871784269145 18.969999999999988 L 158.29871784269145 32.709999999999994 L 133.1987178426914 32.709999999999994 L 133.1987178426914 37.71000000000002 L 123.39871784269141 37.71000000000002 L 123.39871784269141 32.709999999999994 L 98.29871784269145 32.709999999999994 " stroke="#000000" stroke-width="0.7 px" style="stroke-width:0.7;stroke-miterlimit:4;stroke-dasharray:none;stroke-linecap:square;fill:none;fill-opacity:1;fill-rule: evenodd"/>
<path id="Sketch002_w0002"  d="M 158.137192 -38.550000000000004 L 163.137192 -38.550000000000004 L 163.137192 -28.750000000000007 L 158.137192 -28.750000000000007 " stroke="#000000" stroke-width="0.7 px" style="stroke-width:0.7;stroke-miterlimit:4;stroke-dasharray:none;stroke-linecap:square;fill:none;fill-opacity:1;fill-rule: evenodd"/>
<circle cx="128.29871784269145" cy="-9.790000000000003" r="5.5" stroke="#000000" stroke-width="0.7 px" style="stroke-width:0.7;stroke-miterlimit:4;stroke-dasharray:none;stroke-linecap:square;fill:none"/>
<circle cx="128.29871784269145" cy="10.209999999999997" r="3.5" stroke="#000000" stroke-width="0.7 px" style="stroke-width:0.7;stroke-miterlimit:4;stroke-dasharray:none;stroke-linecap:square;fill:none"/>
<circle cx="128.29871784269145" cy="-29.79" r="3.5" stroke="#000000" stroke-width="0.7 px" style="stroke-width:0.7;stroke-miterlimit:4;stroke-dasharray:none;stroke-linecap:square;fill:none"/>
<path id="Sketch002_w0006"  d="M 98.298718 32.71 L 98.298718 18.97 " stroke="#000000" stroke-width="0.7 px" style="stroke-width:0.7;stroke-miterlimit:4;stroke-dasharray:none;stroke-linecap:square;fill:none;fill-opacity:1;fill-rule: evenodd"/>
<title>b'Sketch002'</title>
</g>
</svg>