<?xml version="1.0" encoding="iso-8859-1"?>
<!-- Generator: Adobe Illustrator 19.1.0, SVG Export Plug-In . SVG Version: 6.00 Build 0)  -->
<svg version="1.1" id="Capa_1" xmlns="http://www.w3.org/2000/svg" xmlns:xlink="http://www.w3.org/1999/xlink" x="0px" y="0px"
	 viewBox="0 0 31.059 31.059" style="enable-background:new 0 0 31.059 31.059;" xml:space="preserve">
<path style="fill:#010002;" d="M0.888,31.058c-0.163,0-0.324-0.045-0.467-0.133C0.159,30.765,0,30.478,0,30.171v-9.879
	c0-0.419,0.292-0.78,0.701-0.868l18.143-3.895L0.701,11.635C0.292,11.547,0,11.185,0,10.766V0.888C0,0.58,0.159,0.294,0.421,0.133
	c0.261-0.161,0.588-0.177,0.863-0.039l29.283,14.642c0.301,0.15,0.491,0.458,0.491,0.794c0,0.336-0.19,0.644-0.491,0.794
	L1.284,30.965C1.159,31.027,1.023,31.058,0.888,31.058z M1.774,21.009v7.727l26.412-13.206L1.774,2.323v7.727l21.483,4.611
	c0.409,0.088,0.701,0.449,0.701,0.868c0,0.419-0.292,0.78-0.701,0.868L1.774,21.009z"/>
<g>
</g>
<g>
</g>
<g>
</g>
<g>
</g>
<g>
</g>
<g>
</g>
<g>
</g>
<g>
</g>
<g>
</g>
<g>
</g>
<g>
</g>
<g>
</g>
<g>
</g>
<g>
</g>
<g>
</g>
</svg>
