<?xml version="1.0" encoding="iso-8859-1"?>
<!-- Generator: Adobe Illustrator 19.1.0, SVG Export Plug-In . SVG Version: 6.00 Build 0)  -->
<svg version="1.1" id="Capa_1" xmlns="http://www.w3.org/2000/svg" xmlns:xlink="http://www.w3.org/1999/xlink" x="0px" y="0px"
	 viewBox="0 0 31.059 31.059" style="enable-background:new 0 0 31.059 31.059;" xml:space="preserve">
<g>
	<g>
		<path style="fill:#010002;" d="M30.171,7.632H0.888C0.398,7.632,0,7.234,0,6.744V0.888C0,0.397,0.398,0,0.888,0h29.283
			c0.49,0,0.888,0.397,0.888,0.888v5.856C31.059,7.234,30.661,7.632,30.171,7.632z M1.775,5.856h27.509V1.774H1.775V5.856z"/>
	</g>
	<g>
		<path style="fill:#010002;" d="M30.171,31.059H0.888C0.398,31.059,0,30.661,0,30.171V0.888C0,0.397,0.398,0,0.888,0h29.283
			c0.49,0,0.888,0.397,0.888,0.888v29.283C31.059,30.661,30.661,31.059,30.171,31.059z M1.775,29.284h27.509V1.774H1.775V29.284z"/>
	</g>
	<g>
		<g>
			<path style="fill:#010002;" d="M11.54,24.601h-0.933V12.868l-2.298,2.04v-1.095l2.298-1.99h0.933V24.601z"/>
			<path style="fill:#010002;" d="M11.54,25.134h-0.933c-0.294,0-0.532-0.238-0.532-0.532V14.054l-1.412,1.252
				c-0.157,0.14-0.381,0.174-0.571,0.088c-0.191-0.086-0.314-0.275-0.314-0.485v-1.095c0-0.154,0.067-0.301,0.184-0.402l2.298-1.99
				c0.097-0.084,0.221-0.131,0.349-0.131h0.933c0.294,0,0.533,0.238,0.533,0.533v12.778C12.073,24.896,11.834,25.134,11.54,25.134z
				 M10.791,12.368c0.012,0.005,0.022,0.01,0.034,0.015c0.071,0.032,0.133,0.079,0.183,0.136v-0.163L10.791,12.368z"/>
		</g>
		<g>
			<path style="fill:#010002;" d="M23.188,24.601h-6.767l0.007-0.803l5.129-6.733c0.464-0.623,0.697-1.287,0.697-1.993
				c0-0.778-0.218-1.397-0.653-1.858c-0.436-0.461-1.035-0.691-1.798-0.691c-0.775,0-1.378,0.229-1.807,0.683
				c-0.43,0.454-0.645,1.077-0.645,1.866H16.44c0-1.017,0.309-1.83,0.925-2.44c0.616-0.61,1.433-0.915,2.449-0.915
				c1.018,0,1.834,0.305,2.45,0.915c0.616,0.61,0.925,1.424,0.925,2.44c0,0.874-0.294,1.693-0.88,2.459l-4.792,6.264h5.672V24.601z"
				/>
			<path style="fill:#010002;" d="M23.188,25.134h-6.767c-0.142,0-0.278-0.057-0.378-0.157c-0.1-0.101-0.155-0.237-0.154-0.38
				l0.007-0.803c0.001-0.114,0.039-0.227,0.108-0.317l5.129-6.733c0.396-0.529,0.589-1.078,0.589-1.671
				c0-0.642-0.166-1.13-0.508-1.493c-0.334-0.352-0.795-0.523-1.411-0.523c-0.628,0-1.093,0.168-1.42,0.515
				c-0.336,0.355-0.499,0.847-0.499,1.501c0,0.295-0.238,0.533-0.532,0.533H16.44c-0.294,0-0.532-0.238-0.532-0.533
				c0-1.16,0.364-2.107,1.082-2.818c0.717-0.71,1.667-1.07,2.824-1.07c1.158,0,2.108,0.36,2.825,1.07
				c0.718,0.71,1.082,1.658,1.082,2.818c0,0.989-0.333,1.926-0.989,2.783l-4.137,5.407h4.594c0.293,0,0.532,0.238,0.532,0.532v0.808
				C23.721,24.896,23.482,25.134,23.188,25.134z"/>
		</g>
	</g>
</g>
<g>
</g>
<g>
</g>
<g>
</g>
<g>
</g>
<g>
</g>
<g>
</g>
<g>
</g>
<g>
</g>
<g>
</g>
<g>
</g>
<g>
</g>
<g>
</g>
<g>
</g>
<g>
</g>
<g>
</g>
</svg>
