<?xml version="1.0" encoding="iso-8859-1"?>
<!-- Generator: Adobe Illustrator 19.1.0, SVG Export Plug-In . SVG Version: 6.00 Build 0)  -->
<svg version="1.1" id="Capa_1" xmlns="http://www.w3.org/2000/svg" xmlns:xlink="http://www.w3.org/1999/xlink" x="0px" y="0px"
	 viewBox="0 0 31.059 31.059" style="enable-background:new 0 0 31.059 31.059;" xml:space="preserve">
<g>
	<g>
		<path style="fill:#010002;" d="M15.529,31.059C6.967,31.059,0,24.092,0,15.529S6.967,0,15.529,0s15.529,6.967,15.529,15.529
			S24.092,31.059,15.529,31.059z M15.529,1.774c-7.584,0-13.754,6.171-13.754,13.755s6.17,13.754,13.754,13.754
			c7.584,0,13.755-6.17,13.755-13.754S23.113,1.774,15.529,1.774z"/>
	</g>
	<g>
		<path style="fill:#010002;" d="M21.652,16.416H9.406c-0.49,0-0.887-0.396-0.887-0.887c0-0.49,0.397-0.888,0.887-0.888h12.246
			c0.49,0,0.888,0.398,0.888,0.888C22.54,16.02,22.142,16.416,21.652,16.416z"/>
	</g>
	<g>
		<path style="fill:#010002;" d="M15.529,12.408c-0.905,0-1.642-0.736-1.642-1.641c0-0.906,0.736-1.643,1.642-1.643
			c0.905,0,1.642,0.736,1.642,1.643C17.171,11.672,16.434,12.408,15.529,12.408z M15.529,10.634c-0.073,0-0.133,0.06-0.133,0.134
			c0,0.072,0.06,0.133,0.133,0.133c0.073,0,0.133-0.061,0.133-0.133C15.662,10.693,15.602,10.634,15.529,10.634z"/>
	</g>
	<g>
		<path style="fill:#010002;" d="M15.529,21.934c-0.905,0-1.642-0.736-1.642-1.643c0-0.904,0.736-1.641,1.642-1.641
			c0.905,0,1.642,0.736,1.642,1.641C17.171,21.197,16.434,21.934,15.529,21.934z M15.529,20.158c-0.073,0-0.133,0.061-0.133,0.133
			c0,0.074,0.06,0.134,0.133,0.134c0.073,0,0.133-0.06,0.133-0.134C15.662,20.219,15.602,20.158,15.529,20.158z"/>
	</g>
</g>
<g>
</g>
<g>
</g>
<g>
</g>
<g>
</g>
<g>
</g>
<g>
</g>
<g>
</g>
<g>
</g>
<g>
</g>
<g>
</g>
<g>
</g>
<g>
</g>
<g>
</g>
<g>
</g>
<g>
</g>
</svg>
