<?xml version="1.0" encoding="iso-8859-1"?>
<!-- Generator: Adobe Illustrator 19.1.0, SVG Export Plug-In . SVG Version: 6.00 Build 0)  -->
<svg version="1.1" id="Capa_1" xmlns="http://www.w3.org/2000/svg" xmlns:xlink="http://www.w3.org/1999/xlink" x="0px" y="0px"
	 viewBox="0 0 32.942 32.942" style="enable-background:new 0 0 32.942 32.942;" xml:space="preserve">
<g>
	<g>
		<path style="fill:#010002;" d="M32.001,23.154H12.141c-0.335,0-0.645-0.179-0.814-0.469L0.128,3.422
			c-0.261-0.449-0.109-1.025,0.34-1.286c0.449-0.263,1.024-0.109,1.287,0.341l10.928,18.795h19.318c0.52,0,0.941,0.422,0.941,0.941
			C32.942,22.733,32.521,23.154,32.001,23.154z"/>
	</g>
	<g>
		<path style="fill:#010002;" d="M16.47,30.935c-1.758,0-3.188-1.431-3.188-3.188s1.431-3.188,3.188-3.188s3.188,1.431,3.188,3.188
			S18.228,30.935,16.47,30.935z M16.47,26.441c-0.72,0-1.306,0.586-1.306,1.306s0.585,1.306,1.306,1.306s1.306-0.586,1.306-1.306
			S17.191,26.441,16.47,26.441z"/>
	</g>
	<g>
		<path style="fill:#010002;" d="M29.384,30.935c-1.758,0-3.188-1.431-3.188-3.188s1.431-3.188,3.188-3.188
			c1.758,0,3.189,1.431,3.189,3.188S31.142,30.935,29.384,30.935z M29.384,26.441c-0.72,0-1.306,0.586-1.306,1.306
			s0.585,1.306,1.306,1.306c0.72,0,1.306-0.586,1.306-1.306S30.105,26.441,29.384,26.441z"/>
	</g>
	<g>
		<path style="fill:#010002;" d="M32.001,19.264H13.623c-0.52,0-0.941-0.422-0.941-0.941c0-0.52,0.421-0.941,0.941-0.941h18.378
			c0.52,0,0.941,0.422,0.941,0.941C32.942,18.842,32.521,19.264,32.001,19.264z"/>
	</g>
	<g>
		<path style="fill:#010002;" d="M32.001,15.404H11.67c-0.52,0-0.941-0.422-0.941-0.941s0.421-0.941,0.941-0.941h20.331
			c0.52,0,0.941,0.422,0.941,0.941S32.521,15.404,32.001,15.404z"/>
	</g>
	<g>
		<path style="fill:#010002;" d="M32.001,11.546H9.763c-0.52,0-0.941-0.422-0.941-0.941c0-0.52,0.421-0.941,0.941-0.941h22.237
			c0.52,0,0.941,0.422,0.941,0.941C32.942,11.124,32.521,11.546,32.001,11.546z"/>
	</g>
</g>
<g>
</g>
<g>
</g>
<g>
</g>
<g>
</g>
<g>
</g>
<g>
</g>
<g>
</g>
<g>
</g>
<g>
</g>
<g>
</g>
<g>
</g>
<g>
</g>
<g>
</g>
<g>
</g>
<g>
</g>
</svg>
