<?xml version="1.0" encoding="iso-8859-1"?>
<!-- Generator: Adobe Illustrator 19.1.0, SVG Export Plug-In . SVG Version: 6.00 Build 0)  -->
<svg version="1.1" id="Capa_1" xmlns="http://www.w3.org/2000/svg" xmlns:xlink="http://www.w3.org/1999/xlink" x="0px" y="0px"
	 viewBox="0 0 31.84 31.84" style="enable-background:new 0 0 31.84 31.84;" xml:space="preserve">
<g>
	<g>
		<path style="fill:#010002;" d="M18.73,31.12c-2.982,0-3.126-3.283-3.252-6.18c-0.194-4.473-0.617-7.403-4.561-7.403H0.941
			C0.422,17.537,0,17.115,0,16.596V1.661C0,1.142,0.422,0.72,0.941,0.72h23.295c2.359,0,5.37,1.942,6.404,6.208l1.188,7.353
			c0.008,0.049,0.012,0.1,0.012,0.149c0,3.546-2.885,6.431-6.431,6.431h-3.265c0.159,1.062,0.344,2.681,0.344,4.485v0.158
			c0.007,0.992,0.021,3.317-1.31,4.656C20.546,30.798,19.723,31.12,18.73,31.12z M1.883,15.654h9.035
			c6.04,0,6.281,5.539,6.441,9.204c0.141,3.231,0.369,4.379,1.371,4.379c0.486,0,0.84-0.128,1.113-0.403
			c0.778-0.783,0.767-2.559,0.763-3.317l-0.001-0.17c0-2.525-0.383-4.652-0.5-5.243c-0.055-0.276,0.017-0.563,0.195-0.781
			s0.446-0.344,0.727-0.344h4.381c2.483,0,4.509-2.001,4.548-4.476l-1.161-7.204c-0.779-3.204-2.913-4.696-4.56-4.696H1.883V15.654z
			"/>
	</g>
	<g>
		<path style="fill:#010002;" d="M9.225,17.537H0.941C0.422,17.537,0,17.115,0,16.596V1.661C0,1.142,0.422,0.72,0.941,0.72h8.283
			c0.52,0,0.941,0.422,0.941,0.941v14.935C10.166,17.115,9.744,17.537,9.225,17.537z M1.883,15.654h6.4V2.603h-6.4V15.654z"/>
	</g>
</g>
<g>
</g>
<g>
</g>
<g>
</g>
<g>
</g>
<g>
</g>
<g>
</g>
<g>
</g>
<g>
</g>
<g>
</g>
<g>
</g>
<g>
</g>
<g>
</g>
<g>
</g>
<g>
</g>
<g>
</g>
</svg>
