<svg id="Layer_1" data-name="Layer 1" xmlns="http://www.w3.org/2000/svg" xmlns:xlink="http://www.w3.org/1999/xlink" viewBox="0 0 549.75 464.68"><defs><style>.cls-1,.cls-4,.cls-8{opacity:0.7;}.cls-10,.cls-11,.cls-2,.cls-3,.cls-4,.cls-6,.cls-7,.cls-8,.cls-9{fill:#231f20;}.cls-100,.cls-11,.cls-12,.cls-14,.cls-15,.cls-16,.cls-17,.cls-18,.cls-19,.cls-2,.cls-22,.cls-23,.cls-24,.cls-25,.cls-26,.cls-27,.cls-28,.cls-29,.cls-30,.cls-31,.cls-32,.cls-33,.cls-34,.cls-35,.cls-36,.cls-37,.cls-38,.cls-39,.cls-4,.cls-40,.cls-41,.cls-42,.cls-43,.cls-44,.cls-45,.cls-46,.cls-47,.cls-48,.cls-49,.cls-50,.cls-51,.cls-52,.cls-53,.cls-54,.cls-55,.cls-56,.cls-57,.cls-58,.cls-59,.cls-6,.cls-60,.cls-61,.cls-62,.cls-63,.cls-64,.cls-65,.cls-66,.cls-67,.cls-68,.cls-69,.cls-7,.cls-70,.cls-71,.cls-72,.cls-73,.cls-74,.cls-75,.cls-76,.cls-77,.cls-78,.cls-79,.cls-80,.cls-81,.cls-82,.cls-83,.cls-84,.cls-85,.cls-86,.cls-87,.cls-88,.cls-9,.cls-90,.cls-91,.cls-92,.cls-93,.cls-94,.cls-95,.cls-96,.cls-97,.cls-99{stroke:#231f20;stroke-miterlimit:10;}.cls-100,.cls-11,.cls-12,.cls-14,.cls-15,.cls-16,.cls-17,.cls-18,.cls-19,.cls-2,.cls-22,.cls-23,.cls-24,.cls-25,.cls-26,.cls-27,.cls-28,.cls-29,.cls-30,.cls-31,.cls-32,.cls-33,.cls-34,.cls-35,.cls-36,.cls-37,.cls-38,.cls-39,.cls-4,.cls-40,.cls-41,.cls-42,.cls-43,.cls-44,.cls-45,.cls-46,.cls-47,.cls-48,.cls-49,.cls-50,.cls-51,.cls-52,.cls-53,.cls-54,.cls-55,.cls-56,.cls-57,.cls-58,.cls-59,.cls-6,.cls-60,.cls-61,.cls-62,.cls-63,.cls-64,.cls-65,.cls-66,.cls-67,.cls-68,.cls-69,.cls-7,.cls-70,.cls-71,.cls-72,.cls-73,.cls-74,.cls-75,.cls-76,.cls-77,.cls-78,.cls-79,.cls-80,.cls-81,.cls-82,.cls-83,.cls-99{stroke-width:0.5px;}.cls-10,.cls-11,.cls-5{opacity:0.8;}.cls-6{opacity:0.9;}.cls-17,.cls-7,.cls-99{opacity:0.5;}.cls-84,.cls-85,.cls-86,.cls-87,.cls-88,.cls-9,.cls-90,.cls-91,.cls-92,.cls-93,.cls-94,.cls-95,.cls-96,.cls-97{stroke-width:0.25px;}.cls-12,.cls-13{fill:#a4a3aa;}.cls-14,.cls-86,.cls-89{fill:#414042;}.cls-15,.cls-20{fill:#aba9af;}.cls-16,.cls-98,.cls-99{fill:#d1d3d4;}.cls-17{fill:#e6e7e8;}.cls-18{fill:none;}.cls-19,.cls-21{fill:#808285;}.cls-22{fill:#a7a9ac;}.cls-23{fill:url(#linear-gradient);}.cls-24{fill:url(#linear-gradient-2);}.cls-25{fill:url(#linear-gradient-3);}.cls-26{fill:url(#linear-gradient-4);}.cls-27{fill:url(#linear-gradient-5);}.cls-28{fill:url(#linear-gradient-6);}.cls-29{fill:url(#linear-gradient-7);}.cls-30{fill:url(#linear-gradient-8);}.cls-31{fill:url(#linear-gradient-9);}.cls-32{fill:url(#linear-gradient-10);}.cls-33{fill:url(#linear-gradient-11);}.cls-34{fill:url(#linear-gradient-12);}.cls-35{fill:url(#linear-gradient-13);}.cls-36{fill:url(#linear-gradient-14);}.cls-37{fill:url(#linear-gradient-15);}.cls-38{fill:url(#linear-gradient-16);}.cls-39{fill:url(#linear-gradient-17);}.cls-40{fill:url(#linear-gradient-18);}.cls-41{fill:url(#linear-gradient-19);}.cls-42{fill:url(#linear-gradient-20);}.cls-43{fill:url(#linear-gradient-21);}.cls-44{fill:url(#linear-gradient-22);}.cls-45{fill:url(#linear-gradient-23);}.cls-46{fill:url(#linear-gradient-24);}.cls-47{fill:url(#linear-gradient-25);}.cls-48{fill:url(#linear-gradient-26);}.cls-49{fill:url(#linear-gradient-27);}.cls-50{fill:url(#linear-gradient-28);}.cls-51{fill:url(#linear-gradient-29);}.cls-52{fill:url(#linear-gradient-30);}.cls-53{fill:url(#linear-gradient-31);}.cls-54{fill:url(#linear-gradient-32);}.cls-55{fill:url(#linear-gradient-33);}.cls-56{fill:url(#linear-gradient-34);}.cls-57{fill:url(#linear-gradient-35);}.cls-58{fill:url(#linear-gradient-36);}.cls-59{fill:url(#linear-gradient-37);}.cls-60{fill:url(#linear-gradient-38);}.cls-61{fill:url(#linear-gradient-39);}.cls-62{fill:url(#linear-gradient-40);}.cls-63{fill:url(#linear-gradient-41);}.cls-64{fill:url(#linear-gradient-42);}.cls-65{fill:url(#linear-gradient-43);}.cls-66{fill:url(#linear-gradient-44);}.cls-67{fill:url(#linear-gradient-45);}.cls-68{fill:url(#linear-gradient-46);}.cls-69{fill:url(#linear-gradient-47);}.cls-70{fill:url(#linear-gradient-48);}.cls-71{fill:url(#linear-gradient-49);}.cls-72{fill:url(#linear-gradient-50);}.cls-73{fill:url(#linear-gradient-51);}.cls-74{fill:url(#linear-gradient-52);}.cls-75{fill:url(#linear-gradient-53);}.cls-76{fill:url(#linear-gradient-54);}.cls-77{fill:url(#linear-gradient-55);}.cls-78{fill:url(#linear-gradient-56);}.cls-79{fill:url(#linear-gradient-57);}.cls-80{fill:url(#linear-gradient-58);}.cls-81{fill:url(#linear-gradient-59);}.cls-82{fill:url(#linear-gradient-60);}.cls-83{fill:url(#linear-gradient-61);}.cls-84{fill:url(#linear-gradient-62);}.cls-85{fill:url(#linear-gradient-63);}.cls-87{fill:url(#linear-gradient-64);}.cls-88{fill:url(#linear-gradient-65);}.cls-90{fill:url(#linear-gradient-66);}.cls-91{fill:url(#linear-gradient-67);}.cls-92{fill:url(#linear-gradient-68);}.cls-93{fill:url(#linear-gradient-69);}.cls-94{fill:url(#linear-gradient-70);}.cls-95{fill:url(#linear-gradient-71);}.cls-96{fill:url(#linear-gradient-72);}.cls-97{fill:url(#linear-gradient-73);}.cls-100{fill:url(#radial-gradient);}</style><linearGradient id="linear-gradient" x1="238.88" y1="162.17" x2="240.38" y2="392.67" gradientUnits="userSpaceOnUse"><stop offset="0" stop-color="#58595b"/><stop offset="0.04" stop-color="#4b4c4e"/><stop offset="0.15" stop-color="#2b2b2c"/><stop offset="0.26" stop-color="#131314"/><stop offset="0.36" stop-color="#050505"/><stop offset="0.44"/><stop offset="0.62" stop-color="#020203"/><stop offset="0.72" stop-color="#0b0b0b"/><stop offset="0.81" stop-color="#181919"/><stop offset="0.89" stop-color="#2c2c2d"/><stop offset="0.96" stop-color="#454647"/><stop offset="1" stop-color="#58595b"/></linearGradient><linearGradient id="linear-gradient-2" x1="167.28" y1="162.17" x2="168.78" y2="392.67" xlink:href="#linear-gradient"/><linearGradient id="linear-gradient-3" x1="309.71" y1="162.17" x2="311.21" y2="392.67" xlink:href="#linear-gradient"/><linearGradient id="linear-gradient-4" x1="105.42" y1="277.9" x2="117.08" y2="277.9" gradientUnits="userSpaceOnUse"><stop offset="0" stop-color="#231f20"/><stop offset="1" stop-color="#6d6e71"/></linearGradient><linearGradient id="linear-gradient-5" x1="102.85" y1="279.94" x2="119.65" y2="279.94" xlink:href="#linear-gradient-4"/><linearGradient id="linear-gradient-6" x1="102.85" y1="294.91" x2="119.65" y2="294.91" gradientUnits="userSpaceOnUse"><stop offset="0.03" stop-color="#231f20"/><stop offset="0.17" stop-color="#282425"/><stop offset="0.33" stop-color="#353133"/><stop offset="0.5" stop-color="#4a484a"/><stop offset="0.68" stop-color="#69686a"/><stop offset="0.87" stop-color="#909193"/><stop offset="0.96" stop-color="#a7a9ac"/></linearGradient><linearGradient id="linear-gradient-7" x1="102.85" y1="289.91" x2="119.65" y2="289.91" gradientUnits="userSpaceOnUse"><stop offset="0.09" stop-color="#231f20"/><stop offset="0.21" stop-color="#2a2627"/><stop offset="0.39" stop-color="#3d3b3c"/><stop offset="0.61" stop-color="#5d5c5e"/><stop offset="0.85" stop-color="#898a8c"/><stop offset="1" stop-color="#a7a9ac"/></linearGradient><linearGradient id="linear-gradient-8" x1="105.25" y1="284.82" x2="118.62" y2="284.95" gradientUnits="userSpaceOnUse"><stop offset="0.06" stop-color="#231f20"/><stop offset="0.15" stop-color="#282425"/><stop offset="0.26" stop-color="#363334"/><stop offset="0.38" stop-color="#4d4b4c"/><stop offset="0.51" stop-color="#6d6c6e"/><stop offset="0.64" stop-color="#96979a"/><stop offset="0.68" stop-color="#a7a9ac"/><stop offset="0.86" stop-color="#6d6e71"/></linearGradient><linearGradient id="linear-gradient-9" x1="105.25" y1="279.82" x2="118.62" y2="279.95" xlink:href="#linear-gradient-8"/><linearGradient id="linear-gradient-10" x1="105.25" y1="289.57" x2="118.62" y2="289.7" xlink:href="#linear-gradient-8"/><linearGradient id="linear-gradient-11" x1="105.25" y1="294.57" x2="118.62" y2="294.7" xlink:href="#linear-gradient-8"/><linearGradient id="linear-gradient-12" x1="202.41" y1="276.28" x2="214.07" y2="276.28" xlink:href="#linear-gradient-4"/><linearGradient id="linear-gradient-13" x1="199.84" y1="278.31" x2="216.64" y2="278.31" xlink:href="#linear-gradient-4"/><linearGradient id="linear-gradient-14" x1="199.84" y1="293.28" x2="216.64" y2="293.28" xlink:href="#linear-gradient-6"/><linearGradient id="linear-gradient-15" x1="199.84" y1="288.28" x2="216.64" y2="288.28" xlink:href="#linear-gradient-7"/><linearGradient id="linear-gradient-16" x1="202.24" y1="283.19" x2="215.61" y2="283.32" xlink:href="#linear-gradient-8"/><linearGradient id="linear-gradient-17" x1="202.24" y1="278.19" x2="215.61" y2="278.32" xlink:href="#linear-gradient-8"/><linearGradient id="linear-gradient-18" x1="202.24" y1="287.94" x2="215.61" y2="288.07" xlink:href="#linear-gradient-8"/><linearGradient id="linear-gradient-19" x1="202.24" y1="292.94" x2="215.61" y2="293.07" xlink:href="#linear-gradient-8"/><linearGradient id="linear-gradient-20" x1="149.04" y1="292.55" x2="175.6" y2="292.55" gradientUnits="userSpaceOnUse"><stop offset="0.05" stop-color="#231f20"/><stop offset="1" stop-color="#6d6e71"/></linearGradient><linearGradient id="linear-gradient-21" x1="150.59" y1="254.74" x2="173.33" y2="254.74" gradientUnits="userSpaceOnUse"><stop offset="0.13" stop-color="#231f20"/><stop offset="0.26" stop-color="#262223"/><stop offset="0.34" stop-color="#2e2a2b"/><stop offset="0.41" stop-color="#3c393a"/><stop offset="0.47" stop-color="#504e4f"/><stop offset="0.53" stop-color="#6a696a"/><stop offset="0.58" stop-color="#8a8a8b"/><stop offset="0.63" stop-color="#afb0b2"/><stop offset="0.65" stop-color="#bcbec0"/><stop offset="0.68" stop-color="#a3a5a7"/><stop offset="0.73" stop-color="#888a8c"/><stop offset="0.78" stop-color="#737476"/><stop offset="0.84" stop-color="#646567"/><stop offset="0.9" stop-color="#5b5c5e"/><stop offset="1" stop-color="#58595b"/></linearGradient><linearGradient id="linear-gradient-22" x1="150.59" y1="250.2" x2="173.33" y2="250.2" xlink:href="#linear-gradient-21"/><linearGradient id="linear-gradient-23" x1="150.59" y1="240.74" x2="173.33" y2="240.74" xlink:href="#linear-gradient-21"/><linearGradient id="linear-gradient-24" x1="150.59" y1="245.74" x2="173.33" y2="245.74" xlink:href="#linear-gradient-21"/><linearGradient id="linear-gradient-25" x1="150.59" y1="273.74" x2="173.33" y2="273.74" gradientUnits="userSpaceOnUse"><stop offset="0.13" stop-color="#231f20" stop-opacity="0.96"/><stop offset="0.25" stop-color="#252223" stop-opacity="0.96"/><stop offset="0.32" stop-color="#2d2a2c" stop-opacity="0.96"/><stop offset="0.39" stop-color="#3b393b" stop-opacity="0.96"/><stop offset="0.44" stop-color="#4d4d4f" stop-opacity="0.96"/><stop offset="0.47" stop-color="#525254" stop-opacity="0.97"/><stop offset="0.51" stop-color="#606062" stop-opacity="0.97"/><stop offset="0.56" stop-color="#78787a" stop-opacity="0.98"/><stop offset="0.61" stop-color="#98999b" stop-opacity="0.99"/><stop offset="0.65" stop-color="#bcbec0"/><stop offset="0.68" stop-color="#a3a5a7"/><stop offset="0.73" stop-color="#888a8c"/><stop offset="0.78" stop-color="#737476"/><stop offset="0.84" stop-color="#646567"/><stop offset="0.9" stop-color="#5b5c5e"/><stop offset="1" stop-color="#58595b"/></linearGradient><linearGradient id="linear-gradient-26" x1="150.59" y1="269.2" x2="173.33" y2="269.2" xlink:href="#linear-gradient-21"/><linearGradient id="linear-gradient-27" x1="150.59" y1="259.74" x2="173.33" y2="259.74" xlink:href="#linear-gradient-21"/><linearGradient id="linear-gradient-28" x1="150.59" y1="264.74" x2="173.33" y2="264.74" xlink:href="#linear-gradient-21"/><linearGradient id="linear-gradient-29" x1="150.59" y1="292.74" x2="173.33" y2="292.74" xlink:href="#linear-gradient-25"/><linearGradient id="linear-gradient-30" x1="150.59" y1="288.2" x2="173.33" y2="288.2" xlink:href="#linear-gradient-21"/><linearGradient id="linear-gradient-31" x1="150.59" y1="278.74" x2="173.33" y2="278.74" xlink:href="#linear-gradient-21"/><linearGradient id="linear-gradient-32" x1="150.59" y1="283.74" x2="173.33" y2="283.74" xlink:href="#linear-gradient-21"/><linearGradient id="linear-gradient-33" x1="154.23" y1="235.26" x2="168.62" y2="235.26" xlink:href="#linear-gradient-4"/><linearGradient id="linear-gradient-34" x1="239.86" y1="296.69" x2="266.42" y2="296.69" xlink:href="#linear-gradient-20"/><linearGradient id="linear-gradient-35" x1="241.4" y1="258.88" x2="264.15" y2="258.88" xlink:href="#linear-gradient-21"/><linearGradient id="linear-gradient-36" x1="241.4" y1="254.33" x2="264.15" y2="254.33" xlink:href="#linear-gradient-21"/><linearGradient id="linear-gradient-37" x1="241.4" y1="244.88" x2="264.15" y2="244.88" xlink:href="#linear-gradient-21"/><linearGradient id="linear-gradient-38" x1="241.4" y1="249.88" x2="264.15" y2="249.88" xlink:href="#linear-gradient-21"/><linearGradient id="linear-gradient-39" x1="241.4" y1="277.88" x2="264.15" y2="277.88" xlink:href="#linear-gradient-25"/><linearGradient id="linear-gradient-40" x1="241.4" y1="273.33" x2="264.15" y2="273.33" xlink:href="#linear-gradient-21"/><linearGradient id="linear-gradient-41" x1="241.4" y1="263.88" x2="264.15" y2="263.88" xlink:href="#linear-gradient-21"/><linearGradient id="linear-gradient-42" x1="241.4" y1="268.88" x2="264.15" y2="268.88" xlink:href="#linear-gradient-21"/><linearGradient id="linear-gradient-43" x1="241.4" y1="296.88" x2="264.15" y2="296.88" xlink:href="#linear-gradient-25"/><linearGradient id="linear-gradient-44" x1="241.4" y1="292.33" x2="264.15" y2="292.33" xlink:href="#linear-gradient-21"/><linearGradient id="linear-gradient-45" x1="241.4" y1="282.88" x2="264.15" y2="282.88" xlink:href="#linear-gradient-21"/><linearGradient id="linear-gradient-46" x1="241.4" y1="287.88" x2="264.15" y2="287.88" xlink:href="#linear-gradient-21"/><linearGradient id="linear-gradient-47" x1="245.05" y1="239.4" x2="259.44" y2="239.4" xlink:href="#linear-gradient-4"/><linearGradient id="linear-gradient-48" x1="334.43" y1="296.92" x2="360.98" y2="296.92" xlink:href="#linear-gradient-20"/><linearGradient id="linear-gradient-49" x1="335.97" y1="259.11" x2="358.71" y2="259.11" xlink:href="#linear-gradient-21"/><linearGradient id="linear-gradient-50" x1="335.97" y1="254.57" x2="358.71" y2="254.57" xlink:href="#linear-gradient-21"/><linearGradient id="linear-gradient-51" x1="335.97" y1="245.11" x2="358.71" y2="245.11" xlink:href="#linear-gradient-21"/><linearGradient id="linear-gradient-52" x1="335.97" y1="250.11" x2="358.71" y2="250.11" xlink:href="#linear-gradient-21"/><linearGradient id="linear-gradient-53" x1="335.97" y1="278.11" x2="358.71" y2="278.11" xlink:href="#linear-gradient-25"/><linearGradient id="linear-gradient-54" x1="335.97" y1="273.57" x2="358.71" y2="273.57" xlink:href="#linear-gradient-21"/><linearGradient id="linear-gradient-55" x1="335.97" y1="264.11" x2="358.71" y2="264.11" xlink:href="#linear-gradient-21"/><linearGradient id="linear-gradient-56" x1="335.97" y1="269.11" x2="358.71" y2="269.11" xlink:href="#linear-gradient-21"/><linearGradient id="linear-gradient-57" x1="335.97" y1="297.11" x2="358.71" y2="297.11" xlink:href="#linear-gradient-25"/><linearGradient id="linear-gradient-58" x1="335.97" y1="292.57" x2="358.71" y2="292.57" xlink:href="#linear-gradient-21"/><linearGradient id="linear-gradient-59" x1="335.97" y1="283.11" x2="358.71" y2="283.11" xlink:href="#linear-gradient-21"/><linearGradient id="linear-gradient-60" x1="335.97" y1="288.11" x2="358.71" y2="288.11" xlink:href="#linear-gradient-21"/><linearGradient id="linear-gradient-61" x1="339.61" y1="239.63" x2="354.01" y2="239.63" xlink:href="#linear-gradient-4"/><linearGradient id="linear-gradient-62" x1="316.12" y1="279.82" x2="301.46" y2="279.91" gradientUnits="userSpaceOnUse"><stop offset="0" stop-color="#231f20"/><stop offset="0.12" stop-color="#252223"/><stop offset="0.19" stop-color="#2e2a2b"/><stop offset="0.25" stop-color="#3c393a"/><stop offset="0.31" stop-color="#4f4d4f"/><stop offset="0.36" stop-color="#69686a"/><stop offset="0.41" stop-color="#88888b"/><stop offset="0.45" stop-color="#a7a9ac"/><stop offset="0.48" stop-color="#858689"/><stop offset="0.52" stop-color="#616364"/><stop offset="0.56" stop-color="#434445"/><stop offset="0.61" stop-color="#2a2b2c"/><stop offset="0.66" stop-color="#171818"/><stop offset="0.72" stop-color="#0a0a0a"/><stop offset="0.8" stop-color="#020202"/><stop offset="0.94"/></linearGradient><linearGradient id="linear-gradient-63" x1="316.12" y1="288.06" x2="301.46" y2="288.14" gradientUnits="userSpaceOnUse"><stop offset="0.07" stop-color="#231f20"/><stop offset="0.17" stop-color="#252223"/><stop offset="0.23" stop-color="#2e2a2b"/><stop offset="0.29" stop-color="#3c393a"/><stop offset="0.33" stop-color="#4f4d4f"/><stop offset="0.38" stop-color="#69686a"/><stop offset="0.42" stop-color="#88888b"/><stop offset="0.45" stop-color="#a7a9ac"/><stop offset="0.48" stop-color="#858689"/><stop offset="0.52" stop-color="#616364"/><stop offset="0.56" stop-color="#434445"/><stop offset="0.61" stop-color="#2a2b2c"/><stop offset="0.66" stop-color="#171818"/><stop offset="0.72" stop-color="#0a0a0a"/><stop offset="0.8" stop-color="#020202"/><stop offset="0.94"/></linearGradient><linearGradient id="linear-gradient-64" x1="316.12" y1="296.07" x2="301.46" y2="296.16" xlink:href="#linear-gradient-62"/><linearGradient id="linear-gradient-65" x1="316.12" y1="304.31" x2="301.46" y2="304.39" xlink:href="#linear-gradient-63"/><linearGradient id="linear-gradient-66" x1="283.08" y1="279.73" x2="268.41" y2="279.81" xlink:href="#linear-gradient-62"/><linearGradient id="linear-gradient-67" x1="283.08" y1="287.97" x2="268.41" y2="288.05" xlink:href="#linear-gradient-63"/><linearGradient id="linear-gradient-68" x1="283.08" y1="295.98" x2="268.41" y2="296.06" xlink:href="#linear-gradient-62"/><linearGradient id="linear-gradient-69" x1="283.08" y1="304.22" x2="268.41" y2="304.3" xlink:href="#linear-gradient-63"/><linearGradient id="linear-gradient-70" x1="246.34" y1="279.73" x2="231.67" y2="279.81" xlink:href="#linear-gradient-62"/><linearGradient id="linear-gradient-71" x1="246.34" y1="287.97" x2="231.67" y2="288.05" xlink:href="#linear-gradient-63"/><linearGradient id="linear-gradient-72" x1="246.34" y1="295.98" x2="231.67" y2="296.06" xlink:href="#linear-gradient-62"/><linearGradient id="linear-gradient-73" x1="246.34" y1="304.22" x2="231.67" y2="304.3" xlink:href="#linear-gradient-63"/><radialGradient id="radial-gradient" cx="478.5" cy="237" r="94.37" gradientUnits="userSpaceOnUse"><stop offset="0" stop-color="#fff"/><stop offset="0.68" stop-color="#bcbec0"/><stop offset="1" stop-color="#58595b"/></radialGradient></defs><title>Transformer</title><g class="cls-1"><rect class="cls-2" x="0.25" y="362.98" width="9.19" height="2.33"/><rect class="cls-3" x="5.97" y="366.84" width="38.08" height="10.38"/><polygon class="cls-2" points="17.56 418.76 8.64 418.76 8.64 311.85 18.13 311.85 17.56 418.76"/><rect class="cls-2" x="63.28" y="134.4" width="324.3" height="320.54"/><rect class="cls-2" x="114.9" y="121.46" width="34.47" height="11.96"/><rect class="cls-4" x="63.28" y="448.32" width="324.29" height="9.62"/><rect class="cls-2" x="111.68" y="444.32" width="27.16" height="18.11"/><rect class="cls-2" x="321.5" y="444.32" width="28.22" height="14.91"/><rect class="cls-2" x="63.28" y="444.32" width="324.29" height="9.62"/><g class="cls-5"><rect class="cls-2" x="148.74" y="395.46" width="8.57" height="54.32"/><rect class="cls-2" x="289.78" y="395.46" width="8.58" height="54.32"/></g><rect class="cls-2" x="152.74" y="397.46" width="8.57" height="54.32"/><rect class="cls-2" x="293.78" y="397.46" width="8.58" height="54.32"/><polygon class="cls-2" points="387.58 416.1 387.58 421.43 377.68 421.43 377.68 390.26 381.15 390.26 381.15 416.1 387.58 416.1"/><rect class="cls-6" x="381.14" y="390.27" width="6.43" height="25.83"/><polygon class="cls-2" points="456.06 312.25 460.49 312.25 460.49 391.6 401.92 391.6 401.92 395.86 387.58 395.86 387.58 305.86 397.65 305.86 397.65 297.07 466.22 297.07 472.21 308.69 456.06 308.69 456.06 312.25"/><rect class="cls-2" x="387.58" y="287.22" width="27.11" height="9.85"/><rect class="cls-2" x="460.49" y="312.25" width="4.26" height="67.1"/><rect class="cls-7" x="464.75" y="343.14" width="3.99" height="26.09"/><rect class="cls-2" x="387.57" y="402.65" width="4.22" height="27.29"/><path class="cls-2" d="M540.07,328.43v2.93S482.29,440.53,481.23,440.8s-30.62,0-30.62,0,1.06,4.45,0,4.75-13.05,0-13.05,0l-21.79,17.08V431s2.64.13,6.08.26c6.45.25,15.71.52,15.71,0V345.47h17.31V346l-.54,69.23L493.7,346l.31-.54.26-17h12.78v14.65l-47.66,84.4v3.6l17.18-.13L530,331.36l.09-2.93Z" transform="translate(-28.19 -175.41)"/><path class="cls-2" d="M415.77,431s2.64.13,6.08.26h-6.08Z" transform="translate(-28.19 -175.41)"/><rect class="cls-2" x="394.57" y="216.92" width="3.9" height="24.67"/><rect class="cls-2" x="399.18" y="184.92" width="5.04" height="20.34"/><path class="cls-2" d="M463.83,568.5c0,17.49-16.53,31.66-36.9,31.66a42.67,42.67,0,0,1-6.94-.57V584a23.79,23.79,0,0,0,5.25.58A24.17,24.17,0,0,0,448.37,567h15.41C463.81,567.5,463.83,568,463.83,568.5Z" transform="translate(-28.19 -175.41)"/><rect class="cls-2" x="401.91" y="308.7" width="16.51" height="3.56"/><rect class="cls-2" x="424.28" y="308.7" width="21.48" height="3.56"/><rect class="cls-2" x="397.65" y="297.08" width="22.37" height="4.52"/><path class="cls-2" d="M90.89,245.8H86.75c0-13.27-9.93-23.5-20.9-23.5-8.69,0-17.73,4.58-18.76,16.19v348.1H43.66V233l0-.05c3.41-11.21,12.57-15,21.92-15C79.12,217.91,90.19,230,90.89,245.8Z" transform="translate(-28.19 -175.41)"/><path class="cls-2" d="M39,248.8" transform="translate(-28.19 -175.41)"/><path class="cls-2" d="M42.59,233.67" transform="translate(-28.19 -175.41)"/><line class="cls-2" x1="64.33" y1="71.79" x2="64.29" y2="71.79"/><path class="cls-2" d="M45.07,247.2" transform="translate(-28.19 -175.41)"/><path class="cls-2" d="M46.21,239.27" transform="translate(-28.19 -175.41)"/><path class="cls-2" d="M94.26,256.13H90c0-12.85-8.47-21.73-18.37-21.73-7.84,0-16,4.43-16.93,15.67V587H51.65V244.71a.08.08,0,0,1,0,0c3.07-10.85,11.34-14.52,19.78-14.52C83.64,230.15,93.63,240.82,94.26,256.13Z" transform="translate(-28.19 -175.41)"/><path class="cls-2" d="M47.39,242.72" transform="translate(-28.19 -175.41)"/><path class="cls-2" d="M51,248.32" transform="translate(-28.19 -175.41)"/><rect class="cls-2" x="18.89" y="147.57" width="4.56" height="3.73"/><rect class="cls-2" x="18.89" y="275.81" width="4.39" height="4.89"/><rect class="cls-2" x="18.89" y="362.98" width="4.56" height="2.33"/><rect class="cls-2" x="18.89" y="404.52" width="4.56" height="4.79"/><polygon class="cls-8" points="63.28 227.85 55.8 221.46 48.31 215.07 63.28 215.07 63.28 227.85"/><rect class="cls-2" x="51.91" y="131.33" width="62.97" height="4.93"/><rect class="cls-2" x="71.31" y="123.47" width="19.49" height="7.85"/><polygon class="cls-2" points="330.4 129.93 330.4 134.03 304.63 134.03 304.63 129.93 308.51 129.93 308.51 125.53 311.06 125.53 311.06 121.97 323.97 121.97 323.97 125.53 326.53 125.53 326.53 129.93 330.4 129.93"/><rect class="cls-2" x="120.47" y="118" width="23.33" height="3.45"/><polygon class="cls-3" points="63.28 359.47 56.77 363.15 50.26 366.84 63.28 366.84 63.28 359.47"/><rect class="cls-2" x="158.97" y="123.03" width="38.16" height="10.39"/><rect class="cls-2" x="75.38" y="119.25" width="11.36" height="4.4"/><rect class="cls-2" x="172.37" y="118.54" width="11.36" height="4.4"/><rect class="cls-2" x="336.41" y="122.14" width="14.2" height="11.26"/><rect class="cls-3" x="387.58" y="153.02" width="78.5" height="17.58"/><path class="cls-2" d="M426.76,266.81c-.51.6-1,1.22-1.45,1.86l-.26-.2Z" transform="translate(-28.19 -175.41)"/><path class="cls-2" d="M431.56,262.16l-4.8,4.65A33,33,0,0,1,431.56,262.16Z" transform="translate(-28.19 -175.41)"/><path class="cls-2" d="M430.14,306.46a34.14,34.14,0,0,1-5.39-8.47,31.55,31.55,0,0,1-2-6c.05.26.11.51.16.74a27.37,27.37,0,0,0,1.67,5.31,30.11,30.11,0,0,0,5.52,8.43c.45.5.93,1,1.42,1.47C431.05,307.48,430.58,307,430.14,306.46Z" transform="translate(-28.19 -175.41)"/><path class="cls-2" d="M432.41,308.81h-44.2c4.54-9.72,15.63-17.18,28.58-17.18,1.13,0,4.79-.09,5.89,0,0,.12.05.24.08.36s.11.51.16.74a27.37,27.37,0,0,0,1.67,5.31,5.29,5.29,0,0,0-2.74,4.71,5,5,0,0,0,4.86,5.21,4.7,4.7,0,0,0,3.4-1.49c.45.5.93,1,1.42,1.47l.18.18Z" transform="translate(-28.19 -175.41)"/><path class="cls-2" d="M531.56,269.7V273l-50,35.44-.4.38H432.41l-.7-.67-.18-.18c-.48-.48-.95-1-1.39-1.5a34.14,34.14,0,0,1-5.39-8.47,31.55,31.55,0,0,1-2-6c0-.12-.05-.24-.08-.36a32.37,32.37,0,0,1-.83-5.82c0-6.54,0-10.47,3.46-17.16a10.35,10.35,0,0,1,1.45-1.86l4.8-4.65,51.05-49.39a47.09,47.09,0,0,0,46,57H529C529.84,269.79,530.71,269.75,531.56,269.7Z" transform="translate(-28.19 -175.41)"/><path class="cls-2" d="M431.53,308c-.49-.48-1-1-1.42-1.47a30.11,30.11,0,0,1-5.52-8.43,27.37,27.37,0,0,1-1.67-5.31c-.05-.23-.11-.48-.16-.74a31.55,31.55,0,0,0,2,6,34.14,34.14,0,0,0,5.39,8.47C430.58,307,431.05,307.48,431.53,308Z" transform="translate(-28.19 -175.41)"/><path class="cls-2" d="M430.11,306.49a4.7,4.7,0,0,1-3.4,1.49,5,5,0,0,1-4.86-5.21,5.29,5.29,0,0,1,2.74-4.71A30.11,30.11,0,0,0,430.11,306.49Z" transform="translate(-28.19 -175.41)"/><path class="cls-2" d="M430.14,306.46l0,0a30.11,30.11,0,0,1-5.52-8.43l.16-.07A34.14,34.14,0,0,0,430.14,306.46Z" transform="translate(-28.19 -175.41)"/><rect class="cls-2" x="161.74" y="159.42" width="8.57" height="231.12"/><rect class="cls-2" x="232.62" y="159.42" width="10" height="230.85"/><rect class="cls-2" x="161.03" y="159.42" width="10" height="230.85"/><rect class="cls-2" x="303.45" y="159.42" width="10" height="230.85"/><rect class="cls-2" x="304.93" y="159.42" width="7.05" height="227.92"/><path class="cls-2" d="M539.67,268.48v1.22h-8.11A45.07,45.07,0,0,0,539.67,268.48Z" transform="translate(-28.19 -175.41)"/><path class="cls-2" d="M115.08,275.91c0,2-2.61,3.62-5.83,3.62s-5.83-1.62-5.83-3.62,2.61-3.63,5.83-3.63S115.08,273.9,115.08,275.91Z" transform="translate(-28.19 -175.41)"/><path class="cls-2" d="M117.65,277.53c0,1-1,1.8-2.63,2.41h0a18.95,18.95,0,0,1-11.54,0h0c-1.62-.61-2.63-1.46-2.63-2.41s1.1-1.88,2.85-2.48a18.34,18.34,0,0,0,11.1,0C116.55,275.65,117.65,276.54,117.65,277.53Z" transform="translate(-28.19 -175.41)"/><path class="cls-2" d="M117.65,292.5c0,1.82-3.76,3.31-8.4,3.31s-8.4-1.49-8.4-3.31c0-1,1.11-1.88,2.86-2.49h0a18.27,18.27,0,0,0,11.08,0h0C116.55,290.62,117.65,291.51,117.65,292.5Z" transform="translate(-28.19 -175.41)"/><path class="cls-2" d="M117.65,287.5c0,1.83-3.76,3.31-8.4,3.31s-8.4-1.48-8.4-3.31c0-1,1.11-1.88,2.86-2.48h0a18.27,18.27,0,0,0,11.08,0h0C116.55,285.62,117.65,286.51,117.65,287.5Z" transform="translate(-28.19 -175.41)"/><path class="cls-2" d="M117.65,282.43c0,1-1.1,2-2.86,2.59h0a18.27,18.27,0,0,1-11.08,0h0c-1.75-.63-2.86-1.55-2.86-2.59s1-1.87,2.63-2.49h0a18.95,18.95,0,0,0,11.54,0h0C116.64,280.56,117.65,281.45,117.65,282.43Z" transform="translate(-28.19 -175.41)"/><path class="cls-2" d="M117.65,277.43c0,1-1.1,2-2.86,2.59h0a18.27,18.27,0,0,1-11.08,0h0c-1.75-.63-2.86-1.55-2.86-2.59s1-1.87,2.63-2.49h0a18.95,18.95,0,0,0,11.54,0h0C116.64,275.56,117.65,276.45,117.65,277.43Z" transform="translate(-28.19 -175.41)"/><path class="cls-2" d="M117.65,287.18c0,1-1.1,2-2.86,2.59h0a18.27,18.27,0,0,1-11.08,0h0c-1.75-.63-2.86-1.55-2.86-2.59s1-1.87,2.63-2.49h0a18.95,18.95,0,0,0,11.54,0h0C116.64,285.31,117.65,286.2,117.65,287.18Z" transform="translate(-28.19 -175.41)"/><path class="cls-2" d="M117.65,292.18c0,1-1.1,2-2.86,2.59h0a18.27,18.27,0,0,1-11.08,0h0c-1.75-.63-2.86-1.55-2.86-2.59s1-1.87,2.63-2.49h0a18.95,18.95,0,0,0,11.54,0h0C116.64,290.31,117.65,291.2,117.65,292.18Z" transform="translate(-28.19 -175.41)"/><rect class="cls-3" x="79.8" y="91.1" width="2.51" height="5.83"/><path class="cls-2" d="M212.07,274.28c0,2-2.61,3.62-5.83,3.62s-5.83-1.62-5.83-3.62,2.61-3.63,5.83-3.63S212.07,272.27,212.07,274.28Z" transform="translate(-28.19 -175.41)"/><path class="cls-2" d="M214.64,275.9c0,1-1,1.8-2.63,2.41h0a18.95,18.95,0,0,1-11.54,0h0c-1.62-.61-2.63-1.46-2.63-2.41s1.1-1.88,2.85-2.48a18.34,18.34,0,0,0,11.1,0C213.54,274,214.64,274.91,214.64,275.9Z" transform="translate(-28.19 -175.41)"/><path class="cls-2" d="M214.64,290.87c0,1.82-3.76,3.31-8.4,3.31s-8.4-1.49-8.4-3.31c0-1,1.1-1.88,2.86-2.49h0a18.27,18.27,0,0,0,11.08,0h0C213.54,289,214.64,289.88,214.64,290.87Z" transform="translate(-28.19 -175.41)"/><path class="cls-2" d="M214.64,285.87c0,1.83-3.76,3.31-8.4,3.31s-8.4-1.48-8.4-3.31c0-1,1.1-1.88,2.86-2.48h0a18.27,18.27,0,0,0,11.08,0h0C213.54,284,214.64,284.88,214.64,285.87Z" transform="translate(-28.19 -175.41)"/><path class="cls-2" d="M214.64,280.8c0,1-1.1,2-2.86,2.59h0a18.27,18.27,0,0,1-11.08,0h0c-1.76-.63-2.86-1.55-2.86-2.59s1-1.87,2.63-2.49h0a18.95,18.95,0,0,0,11.54,0h0C213.63,278.93,214.64,279.82,214.64,280.8Z" transform="translate(-28.19 -175.41)"/><path class="cls-2" d="M214.64,275.8c0,1-1.1,2-2.86,2.59h0a18.27,18.27,0,0,1-11.08,0h0c-1.76-.63-2.86-1.55-2.86-2.59s1-1.87,2.63-2.49h0a18.95,18.95,0,0,0,11.54,0h0C213.63,273.93,214.64,274.82,214.64,275.8Z" transform="translate(-28.19 -175.41)"/><path class="cls-2" d="M214.64,285.55c0,1-1.1,2-2.86,2.59h0a18.27,18.27,0,0,1-11.08,0h0c-1.76-.63-2.86-1.55-2.86-2.59s1-1.87,2.63-2.49h0a18.95,18.95,0,0,0,11.54,0h0C213.63,283.68,214.64,284.57,214.64,285.55Z" transform="translate(-28.19 -175.41)"/><path class="cls-2" d="M214.64,290.55c0,1-1.1,2-2.86,2.59h0a18.27,18.27,0,0,1-11.08,0h0c-1.76-.63-2.86-1.55-2.86-2.59s1-1.87,2.63-2.49h0a18.95,18.95,0,0,0,11.54,0h0C213.63,288.68,214.64,289.57,214.64,290.55Z" transform="translate(-28.19 -175.41)"/><rect class="cls-3" x="176.79" y="89.47" width="2.51" height="5.83"/><path class="cls-2" d="M162.09,224.79a1.76,1.76,0,0,1-1.76,1.76h0a1.76,1.76,0,0,1-1.77-1.76V211.35a1.76,1.76,0,0,1,1.77-1.76h0a1.76,1.76,0,0,1,1.76,1.76Z" transform="translate(-28.19 -175.41)"/><path class="cls-2" d="M169.56,228.2c0,2-4.14,3.66-9.23,3.66s-9.24-1.64-9.24-3.66,4.14-3.66,9.24-3.66S169.56,226.18,169.56,228.2Z" transform="translate(-28.19 -175.41)"/><path class="cls-2" d="M173.6,290.14c0,1.83-5.94,3.31-13.28,3.31S147,292,147,290.14c0-1,1.75-1.88,4.52-2.48h0a45,45,0,0,0,17.51,0h0C171.85,288.26,173.6,289.15,173.6,290.14Z" transform="translate(-28.19 -175.41)"/><path class="cls-2" d="M173.61,252.33c0,1-1.64,1.82-4.25,2.43a46.82,46.82,0,0,1-18.07,0c-2.61-.61-4.24-1.47-4.24-2.43s1.74-1.88,4.51-2.48a45.1,45.1,0,0,0,17.53,0C171.86,250.45,173.61,251.34,173.61,252.33Z" transform="translate(-28.19 -175.41)"/><path class="cls-2" d="M173.61,247.79c0,1-1.64,1.82-4.25,2.42a46.82,46.82,0,0,1-18.07,0c-2.61-.6-4.24-1.46-4.24-2.42s1.74-1.88,4.51-2.48a45.62,45.62,0,0,0,17.53,0C171.86,245.91,173.61,246.8,173.61,247.79Z" transform="translate(-28.19 -175.41)"/><path class="cls-2" d="M173.61,238.33c0,1-1.64,1.82-4.25,2.43a46.82,46.82,0,0,1-18.07,0c-2.61-.61-4.24-1.47-4.24-2.43s1.74-1.88,4.51-2.48a45.1,45.1,0,0,0,17.53,0C171.86,236.45,173.61,237.34,173.61,238.33Z" transform="translate(-28.19 -175.41)"/><path class="cls-2" d="M173.61,243.33c0,1-1.64,1.82-4.25,2.43a46.82,46.82,0,0,1-18.07,0c-2.61-.61-4.24-1.47-4.24-2.43s1.74-1.88,4.51-2.48a45.1,45.1,0,0,0,17.53,0C171.86,241.45,173.61,242.34,173.61,243.33Z" transform="translate(-28.19 -175.41)"/><path class="cls-2" d="M173.61,271.33c0,1-1.64,1.82-4.25,2.43a46.82,46.82,0,0,1-18.07,0c-2.61-.61-4.24-1.47-4.24-2.43s1.74-1.88,4.51-2.48a45.1,45.1,0,0,0,17.53,0C171.86,269.45,173.61,270.34,173.61,271.33Z" transform="translate(-28.19 -175.41)"/><path class="cls-2" d="M173.61,266.79c0,1-1.64,1.82-4.25,2.42a46.82,46.82,0,0,1-18.07,0c-2.61-.6-4.24-1.46-4.24-2.42s1.74-1.88,4.51-2.48a45.62,45.62,0,0,0,17.53,0C171.86,264.91,173.61,265.8,173.61,266.79Z" transform="translate(-28.19 -175.41)"/><path class="cls-2" d="M173.61,257.33c0,1-1.64,1.82-4.25,2.43a46.82,46.82,0,0,1-18.07,0c-2.61-.61-4.24-1.47-4.24-2.43s1.74-1.88,4.51-2.48a45.1,45.1,0,0,0,17.53,0C171.86,255.45,173.61,256.34,173.61,257.33Z" transform="translate(-28.19 -175.41)"/><path class="cls-2" d="M173.61,262.33c0,1-1.64,1.82-4.25,2.43a46.82,46.82,0,0,1-18.07,0c-2.61-.61-4.24-1.47-4.24-2.43s1.74-1.88,4.51-2.48a45.1,45.1,0,0,0,17.53,0C171.86,260.45,173.61,261.34,173.61,262.33Z" transform="translate(-28.19 -175.41)"/><path class="cls-2" d="M173.61,290.33c0,1-1.64,1.82-4.25,2.43a46.82,46.82,0,0,1-18.07,0c-2.61-.61-4.24-1.47-4.24-2.43s1.74-1.88,4.51-2.48a45.1,45.1,0,0,0,17.53,0C171.86,288.45,173.61,289.34,173.61,290.33Z" transform="translate(-28.19 -175.41)"/><path class="cls-2" d="M173.61,285.79c0,1-1.64,1.82-4.25,2.42a46.82,46.82,0,0,1-18.07,0c-2.61-.6-4.24-1.46-4.24-2.42s1.74-1.88,4.51-2.48a45.62,45.62,0,0,0,17.53,0C171.86,283.91,173.61,284.8,173.61,285.79Z" transform="translate(-28.19 -175.41)"/><path class="cls-2" d="M173.61,276.33c0,1-1.64,1.82-4.25,2.43a46.82,46.82,0,0,1-18.07,0c-2.61-.61-4.24-1.47-4.24-2.43s1.74-1.88,4.51-2.48a45.1,45.1,0,0,0,17.53,0C171.86,274.45,173.61,275.34,173.61,276.33Z" transform="translate(-28.19 -175.41)"/><path class="cls-2" d="M173.61,281.33c0,1-1.64,1.82-4.25,2.43a46.82,46.82,0,0,1-18.07,0c-2.61-.61-4.24-1.47-4.24-2.43s1.74-1.88,4.51-2.48a45.1,45.1,0,0,0,17.53,0C171.86,279.45,173.61,280.34,173.61,281.33Z" transform="translate(-28.19 -175.41)"/><path class="cls-2" d="M173.61,233.27c0,1-1.75,1.95-4.52,2.58a45.1,45.1,0,0,1-17.53,0c-2.77-.63-4.51-1.56-4.51-2.58,0-1.9,5.94-3.45,13.28-3.45S173.61,231.37,173.61,233.27Z" transform="translate(-28.19 -175.41)"/><polygon class="cls-2" points="233.39 127.2 233.39 134.25 212.52 134.25 212.52 127.2 216.01 127.2 216.01 120.47 229.9 120.47 229.9 127.2 233.39 127.2"/><path class="cls-2" d="M252.91,228.92a1.77,1.77,0,0,1-1.77,1.77h0a1.76,1.76,0,0,1-1.76-1.77V215.48a1.76,1.76,0,0,1,1.76-1.76h0a1.76,1.76,0,0,1,1.77,1.76Z" transform="translate(-28.19 -175.41)"/><path class="cls-2" d="M260.37,232.33c0,2-4.13,3.66-9.23,3.66s-9.23-1.64-9.23-3.66,4.14-3.66,9.23-3.66S260.37,230.31,260.37,232.33Z" transform="translate(-28.19 -175.41)"/><path class="cls-2" d="M264.42,294.27c0,1.83-5.94,3.31-13.28,3.31s-13.28-1.48-13.28-3.31c0-1,1.75-1.87,4.52-2.48h0a45,45,0,0,0,17.51,0h0C262.67,292.4,264.42,293.28,264.42,294.27Z" transform="translate(-28.19 -175.41)"/><path class="cls-2" d="M264.42,256.46c0,1-1.63,1.82-4.24,2.43a46.82,46.82,0,0,1-18.07,0c-2.61-.61-4.25-1.47-4.25-2.43s1.75-1.88,4.52-2.48a45.1,45.1,0,0,0,17.53,0C262.68,254.58,264.42,255.47,264.42,256.46Z" transform="translate(-28.19 -175.41)"/><path class="cls-2" d="M264.42,251.92c0,1-1.63,1.82-4.24,2.42a46.31,46.31,0,0,1-18.07,0c-2.61-.6-4.25-1.46-4.25-2.42s1.75-1.88,4.52-2.48a45.62,45.62,0,0,0,17.53,0C262.68,250,264.42,250.93,264.42,251.92Z" transform="translate(-28.19 -175.41)"/><path class="cls-2" d="M264.42,242.46c0,1-1.63,1.82-4.24,2.43a46.82,46.82,0,0,1-18.07,0c-2.61-.61-4.25-1.47-4.25-2.43s1.75-1.88,4.52-2.48a45.1,45.1,0,0,0,17.53,0C262.68,240.58,264.42,241.47,264.42,242.46Z" transform="translate(-28.19 -175.41)"/><path class="cls-2" d="M264.42,247.46c0,1-1.63,1.82-4.24,2.43a46.82,46.82,0,0,1-18.07,0c-2.61-.61-4.25-1.47-4.25-2.43s1.75-1.88,4.52-2.48a45.1,45.1,0,0,0,17.53,0C262.68,245.58,264.42,246.47,264.42,247.46Z" transform="translate(-28.19 -175.41)"/><path class="cls-2" d="M264.42,275.46c0,1-1.63,1.82-4.24,2.43a46.82,46.82,0,0,1-18.07,0c-2.61-.61-4.25-1.47-4.25-2.43s1.75-1.88,4.52-2.48a45.1,45.1,0,0,0,17.53,0C262.68,273.58,264.42,274.47,264.42,275.46Z" transform="translate(-28.19 -175.41)"/><path class="cls-2" d="M264.42,270.92c0,1-1.63,1.82-4.24,2.42a46.31,46.31,0,0,1-18.07,0c-2.61-.6-4.25-1.46-4.25-2.42s1.75-1.88,4.52-2.48a45.62,45.62,0,0,0,17.53,0C262.68,269,264.42,269.93,264.42,270.92Z" transform="translate(-28.19 -175.41)"/><path class="cls-2" d="M264.42,261.46c0,1-1.63,1.82-4.24,2.43a46.82,46.82,0,0,1-18.07,0c-2.61-.61-4.25-1.47-4.25-2.43s1.75-1.88,4.52-2.48a45.1,45.1,0,0,0,17.53,0C262.68,259.58,264.42,260.47,264.42,261.46Z" transform="translate(-28.19 -175.41)"/><path class="cls-2" d="M264.42,266.46c0,1-1.63,1.82-4.24,2.43a46.82,46.82,0,0,1-18.07,0c-2.61-.61-4.25-1.47-4.25-2.43s1.75-1.88,4.52-2.48a45.1,45.1,0,0,0,17.53,0C262.68,264.58,264.42,265.47,264.42,266.46Z" transform="translate(-28.19 -175.41)"/><path class="cls-2" d="M264.42,294.46c0,1-1.63,1.82-4.24,2.43a46.82,46.82,0,0,1-18.07,0c-2.61-.61-4.25-1.47-4.25-2.43s1.75-1.88,4.52-2.48a45.1,45.1,0,0,0,17.53,0C262.68,292.58,264.42,293.47,264.42,294.46Z" transform="translate(-28.19 -175.41)"/><path class="cls-2" d="M264.42,289.92c0,1-1.63,1.82-4.24,2.42a46.31,46.31,0,0,1-18.07,0c-2.61-.6-4.25-1.46-4.25-2.42s1.75-1.88,4.52-2.48a45.62,45.62,0,0,0,17.53,0C262.68,288,264.42,288.93,264.42,289.92Z" transform="translate(-28.19 -175.41)"/><path class="cls-2" d="M264.42,280.46c0,1-1.63,1.82-4.24,2.43a46.82,46.82,0,0,1-18.07,0c-2.61-.61-4.25-1.47-4.25-2.43s1.75-1.88,4.52-2.48a45.1,45.1,0,0,0,17.53,0C262.68,278.58,264.42,279.47,264.42,280.46Z" transform="translate(-28.19 -175.41)"/><path class="cls-2" d="M264.42,285.46c0,1-1.63,1.82-4.24,2.43a46.82,46.82,0,0,1-18.07,0c-2.61-.61-4.25-1.47-4.25-2.43s1.75-1.88,4.52-2.48a45.1,45.1,0,0,0,17.53,0C262.68,283.58,264.42,284.47,264.42,285.46Z" transform="translate(-28.19 -175.41)"/><path class="cls-2" d="M264.42,237.4c0,1-1.74,1.95-4.51,2.58a45.1,45.1,0,0,1-17.53,0c-2.77-.63-4.52-1.55-4.52-2.58,0-1.9,5.95-3.45,13.28-3.45S264.42,235.5,264.42,237.4Z" transform="translate(-28.19 -175.41)"/><path class="cls-2" d="M347.47,229.16a1.76,1.76,0,0,1-1.76,1.76h0a1.76,1.76,0,0,1-1.77-1.76V215.72a1.76,1.76,0,0,1,1.77-1.76h0a1.76,1.76,0,0,1,1.76,1.76Z" transform="translate(-28.19 -175.41)"/><path class="cls-2" d="M354.94,232.57c0,2-4.14,3.66-9.23,3.66s-9.24-1.64-9.24-3.66,4.14-3.66,9.24-3.66S354.94,230.55,354.94,232.57Z" transform="translate(-28.19 -175.41)"/><path class="cls-2" d="M359,294.51c0,1.82-5.94,3.31-13.27,3.31s-13.28-1.49-13.28-3.31c0-1,1.74-1.88,4.51-2.48h0a45,45,0,0,0,17.51,0h0C357.23,292.63,359,293.52,359,294.51Z" transform="translate(-28.19 -175.41)"/><path class="cls-2" d="M359,256.7c0,1-1.64,1.82-4.25,2.42a46.31,46.31,0,0,1-18.07,0c-2.61-.6-4.24-1.46-4.24-2.42s1.74-1.88,4.51-2.48a45.1,45.1,0,0,0,17.53,0C357.24,254.82,359,255.71,359,256.7Z" transform="translate(-28.19 -175.41)"/><path class="cls-2" d="M359,252.16c0,1-1.64,1.82-4.25,2.42a46.82,46.82,0,0,1-18.07,0c-2.61-.6-4.24-1.47-4.24-2.42s1.74-1.88,4.51-2.49a45.1,45.1,0,0,0,17.53,0C357.24,250.28,359,251.17,359,252.16Z" transform="translate(-28.19 -175.41)"/><path class="cls-2" d="M359,242.7c0,1-1.64,1.82-4.25,2.42a46.31,46.31,0,0,1-18.07,0c-2.61-.6-4.24-1.46-4.24-2.42s1.74-1.88,4.51-2.48a45.1,45.1,0,0,0,17.53,0C357.24,240.82,359,241.71,359,242.7Z" transform="translate(-28.19 -175.41)"/><path class="cls-2" d="M359,247.7c0,1-1.64,1.82-4.25,2.42a46.31,46.31,0,0,1-18.07,0c-2.61-.6-4.24-1.46-4.24-2.42s1.74-1.88,4.51-2.48a45.1,45.1,0,0,0,17.53,0C357.24,245.82,359,246.71,359,247.7Z" transform="translate(-28.19 -175.41)"/><path class="cls-2" d="M359,275.7c0,1-1.64,1.82-4.25,2.42a46.31,46.31,0,0,1-18.07,0c-2.61-.6-4.24-1.46-4.24-2.42s1.74-1.88,4.51-2.48a45.1,45.1,0,0,0,17.53,0C357.24,273.82,359,274.71,359,275.7Z" transform="translate(-28.19 -175.41)"/><path class="cls-2" d="M359,271.16c0,.95-1.64,1.82-4.25,2.42a46.82,46.82,0,0,1-18.07,0c-2.61-.6-4.24-1.47-4.24-2.42s1.74-1.88,4.51-2.49a45.1,45.1,0,0,0,17.53,0C357.24,269.28,359,270.17,359,271.16Z" transform="translate(-28.19 -175.41)"/><path class="cls-2" d="M359,261.7c0,1-1.64,1.82-4.25,2.42a46.31,46.31,0,0,1-18.07,0c-2.61-.6-4.24-1.46-4.24-2.42s1.74-1.88,4.51-2.48a45.1,45.1,0,0,0,17.53,0C357.24,259.82,359,260.71,359,261.7Z" transform="translate(-28.19 -175.41)"/><path class="cls-2" d="M359,266.7c0,1-1.64,1.82-4.25,2.42a46.31,46.31,0,0,1-18.07,0c-2.61-.6-4.24-1.46-4.24-2.42s1.74-1.88,4.51-2.48a45.1,45.1,0,0,0,17.53,0C357.24,264.82,359,265.71,359,266.7Z" transform="translate(-28.19 -175.41)"/><path class="cls-2" d="M359,294.7c0,1-1.64,1.82-4.25,2.42a46.31,46.31,0,0,1-18.07,0c-2.61-.6-4.24-1.46-4.24-2.42s1.74-1.88,4.51-2.48a45.1,45.1,0,0,0,17.53,0C357.24,292.82,359,293.71,359,294.7Z" transform="translate(-28.19 -175.41)"/><path class="cls-2" d="M359,290.16c0,.95-1.64,1.82-4.25,2.42a46.82,46.82,0,0,1-18.07,0c-2.61-.6-4.24-1.47-4.24-2.42s1.74-1.88,4.51-2.49a45.1,45.1,0,0,0,17.53,0C357.24,288.28,359,289.17,359,290.16Z" transform="translate(-28.19 -175.41)"/><path class="cls-2" d="M359,280.7c0,1-1.64,1.82-4.25,2.42a46.31,46.31,0,0,1-18.07,0c-2.61-.6-4.24-1.46-4.24-2.42s1.74-1.88,4.51-2.48a45.1,45.1,0,0,0,17.53,0C357.24,278.82,359,279.71,359,280.7Z" transform="translate(-28.19 -175.41)"/><path class="cls-2" d="M359,285.7c0,1-1.64,1.82-4.25,2.42a46.31,46.31,0,0,1-18.07,0c-2.61-.6-4.24-1.46-4.24-2.42s1.74-1.88,4.51-2.48a45.1,45.1,0,0,0,17.53,0C357.24,283.82,359,284.71,359,285.7Z" transform="translate(-28.19 -175.41)"/><path class="cls-2" d="M359,237.64c0,1-1.75,2-4.52,2.58a45.1,45.1,0,0,1-17.53,0c-2.77-.63-4.51-1.56-4.51-2.58,0-1.91,5.94-3.45,13.28-3.45S359,235.73,359,237.64Z" transform="translate(-28.19 -175.41)"/><rect class="cls-3" x="277.69" y="88.33" width="1.46" height="9.58"/><rect class="cls-9" x="275.96" y="97.48" width="5.01" height="34.94"/><path class="cls-9" d="M315.36,277.87a1.64,1.64,0,0,1-1.5,1.75h-14.4a1.65,1.65,0,0,1-1.5-1.75h0a1.65,1.65,0,0,1,1.5-1.76h14.4a1.65,1.65,0,0,1,1.5,1.76Z" transform="translate(-28.19 -175.41)"/><path class="cls-9" d="M315.36,286.1a1.65,1.65,0,0,1-1.5,1.76h-14.4a1.65,1.65,0,0,1-1.5-1.76h0a1.64,1.64,0,0,1,1.5-1.75h14.4a1.64,1.64,0,0,1,1.5,1.75Z" transform="translate(-28.19 -175.41)"/><path class="cls-9" d="M315.36,302.35c0,1.1-.67,2-1.5,2h-14.4c-.82,0-1.5-.89-1.5-2h0a1.8,1.8,0,0,1,1.5-2h14.4a1.79,1.79,0,0,1,1.5,2Z" transform="translate(-28.19 -175.41)"/><path class="cls-9" d="M315.36,294.12a1.64,1.64,0,0,1-1.5,1.75h-14.4a1.65,1.65,0,0,1-1.5-1.75h0a1.65,1.65,0,0,1,1.5-1.76h14.4a1.65,1.65,0,0,1,1.5,1.76Z" transform="translate(-28.19 -175.41)"/><path class="cls-9" d="M315.36,302.35a1.65,1.65,0,0,1-1.5,1.76h-14.4a1.65,1.65,0,0,1-1.5-1.76h0a1.65,1.65,0,0,1,1.5-1.75h14.4a1.64,1.64,0,0,1,1.5,1.75Z" transform="translate(-28.19 -175.41)"/><rect class="cls-2" x="268.65" y="131.31" width="19.63" height="2.43"/><rect class="cls-3" x="276.57" y="96.12" width="3.69" height="1.36"/><rect class="cls-3" x="244.64" y="88.23" width="1.46" height="9.58"/><rect class="cls-9" x="242.92" y="97.38" width="5.01" height="34.94"/><path class="cls-9" d="M282.32,277.77a1.64,1.64,0,0,1-1.5,1.75h-14.4a1.64,1.64,0,0,1-1.5-1.75h0a1.64,1.64,0,0,1,1.5-1.75h14.4a1.64,1.64,0,0,1,1.5,1.75Z" transform="translate(-28.19 -175.41)"/><path class="cls-9" d="M282.32,286a1.64,1.64,0,0,1-1.5,1.75h-14.4a1.64,1.64,0,0,1-1.5-1.75h0a1.65,1.65,0,0,1,1.5-1.76h14.4a1.65,1.65,0,0,1,1.5,1.76Z" transform="translate(-28.19 -175.41)"/><path class="cls-9" d="M282.32,302.26a1.79,1.79,0,0,1-1.5,2h-14.4c-.83,0-1.5-.88-1.5-2h0c0-1.1.67-2,1.5-2h14.4c.82,0,1.5.89,1.5,2Z" transform="translate(-28.19 -175.41)"/><path class="cls-9" d="M282.32,294a1.64,1.64,0,0,1-1.5,1.75h-14.4a1.64,1.64,0,0,1-1.5-1.75h0a1.64,1.64,0,0,1,1.5-1.75h14.4a1.64,1.64,0,0,1,1.5,1.75Z" transform="translate(-28.19 -175.41)"/><path class="cls-9" d="M282.32,302.26a1.64,1.64,0,0,1-1.5,1.75h-14.4a1.64,1.64,0,0,1-1.5-1.75h0a1.65,1.65,0,0,1,1.5-1.76h14.4a1.65,1.65,0,0,1,1.5,1.76Z" transform="translate(-28.19 -175.41)"/><rect class="cls-2" x="235.61" y="131.21" width="19.63" height="2.43"/><rect class="cls-3" x="243.53" y="96.03" width="3.69" height="1.36"/><rect class="cls-3" x="207.9" y="88.23" width="1.46" height="9.58"/><rect class="cls-9" x="206.18" y="97.38" width="5.01" height="34.94"/><path class="cls-9" d="M245.57,277.77a1.64,1.64,0,0,1-1.5,1.75H229.68a1.64,1.64,0,0,1-1.5-1.75h0a1.64,1.64,0,0,1,1.5-1.75h14.39a1.64,1.64,0,0,1,1.5,1.75Z" transform="translate(-28.19 -175.41)"/><path class="cls-9" d="M245.57,286a1.64,1.64,0,0,1-1.5,1.75H229.68a1.64,1.64,0,0,1-1.5-1.75h0a1.65,1.65,0,0,1,1.5-1.76h14.39a1.65,1.65,0,0,1,1.5,1.76Z" transform="translate(-28.19 -175.41)"/><path class="cls-9" d="M245.57,302.26a1.79,1.79,0,0,1-1.5,2H229.68a1.79,1.79,0,0,1-1.5-2h0c0-1.1.67-2,1.5-2h14.39c.83,0,1.5.89,1.5,2Z" transform="translate(-28.19 -175.41)"/><path class="cls-9" d="M245.57,294a1.64,1.64,0,0,1-1.5,1.75H229.68a1.64,1.64,0,0,1-1.5-1.75h0a1.64,1.64,0,0,1,1.5-1.75h14.39a1.64,1.64,0,0,1,1.5,1.75Z" transform="translate(-28.19 -175.41)"/><path class="cls-9" d="M245.57,302.26a1.64,1.64,0,0,1-1.5,1.75H229.68a1.64,1.64,0,0,1-1.5-1.75h0a1.65,1.65,0,0,1,1.5-1.76h14.39a1.65,1.65,0,0,1,1.5,1.76Z" transform="translate(-28.19 -175.41)"/><rect class="cls-2" x="198.87" y="131.21" width="19.63" height="2.43"/><rect class="cls-3" x="206.79" y="96.03" width="3.69" height="1.36"/><rect class="cls-2" x="161.03" y="159.42" width="10" height="230.85"/><rect class="cls-10" x="63.28" y="208.15" width="37.15" height="10.92"/><rect class="cls-10" x="63.3" y="291.39" width="36.74" height="10.92"/><rect class="cls-3" x="19.29" y="204.15" width="80.15" height="10.92"/><rect class="cls-2" x="18.89" y="187.11" width="4.56" height="5.59"/><rect class="cls-2" x="18.89" y="229.03" width="4.56" height="6.14"/><rect class="cls-2" x="18.89" y="316.51" width="4.56" height="4.79"/><rect class="cls-3" x="42.19" y="286.92" width="57.25" height="9.92"/><rect class="cls-8" x="63.28" y="135.94" width="324.29" height="5.46"/><rect class="cls-3" x="63.28" y="133.4" width="324.29" height="3.47"/><g class="cls-5"><path class="cls-2" d="M254.82,327.43s-9.33-2.29-19.32-3.62c0-.11,0-.23,0-.35,0-8.64-5.3-15.65-11.85-15.65s-11.85,7-11.85,15.65c0,.12,0,.24,0,.35-10,1.33-19.31,3.62-19.31,3.62V571.86a112.05,112.05,0,0,0,19.32,4c0,.21,0,.41,0,.62,0,8.89,5.31,16.09,11.85,16.09s11.85-7.2,11.85-16.09c0-.21,0-.41,0-.62a112.34,112.34,0,0,0,19.32-4Z" transform="translate(-28.19 -175.41)"/><path class="cls-2" d="M327.13,327.43s-9.33-2.29-19.31-3.62v-.35c0-8.64-5.3-15.65-11.85-15.65s-11.85,7-11.85,15.65c0,.12,0,.24,0,.35-10,1.33-19.31,3.62-19.31,3.62V571.86a112.05,112.05,0,0,0,19.32,4c0,.21,0,.41,0,.62,0,8.89,5.31,16.09,11.85,16.09s11.85-7.2,11.85-16.09c0-.21,0-.41,0-.62a112.34,112.34,0,0,0,19.32-4Z" transform="translate(-28.19 -175.41)"/><path class="cls-2" d="M396.48,327.43s-9.33-2.29-19.31-3.62c0-.11,0-.23,0-.35,0-8.64-5.31-15.65-11.85-15.65s-11.85,7-11.85,15.65v.35c-10,1.33-19.31,3.62-19.31,3.62V571.86a112.34,112.34,0,0,0,19.32,4c0,.21,0,.41,0,.62,0,8.89,5.3,16.09,11.85,16.09s11.85-7.2,11.85-16.09c0-.21,0-.41,0-.62a112.34,112.34,0,0,0,19.32-4Z" transform="translate(-28.19 -175.41)"/><path class="cls-2" d="M183.93,327.43s-9.32-2.29-19.31-3.62c0-.11,0-.23,0-.35,0-8.64-5.31-15.65-11.85-15.65s-11.85,7-11.85,15.65c0,.12,0,.24,0,.35-10,1.33-19.31,3.62-19.31,3.62V571.86a112.07,112.07,0,0,0,19.31,4c0,.21,0,.41,0,.62,0,8.89,5.31,16.09,11.85,16.09s11.85-7.2,11.85-16.09c0-.21,0-.41,0-.62a112.07,112.07,0,0,0,19.31-4Z" transform="translate(-28.19 -175.41)"/></g><path class="cls-2" d="M260.82,328.43s-9.33-2.29-19.32-3.62c0-.11,0-.23,0-.35,0-8.64-5.3-15.65-11.85-15.65s-11.85,7-11.85,15.65c0,.12,0,.24,0,.35-10,1.33-19.31,3.62-19.31,3.62V572.86a112.05,112.05,0,0,0,19.32,4c0,.21,0,.41,0,.62,0,8.89,5.31,16.09,11.85,16.09s11.85-7.2,11.85-16.09c0-.21,0-.41,0-.62a112.34,112.34,0,0,0,19.32-4Z" transform="translate(-28.19 -175.41)"/><path class="cls-2" d="M333.13,328.43s-9.33-2.29-19.31-3.62v-.35c0-8.64-5.3-15.65-11.85-15.65s-11.85,7-11.85,15.65c0,.12,0,.24,0,.35-10,1.33-19.31,3.62-19.31,3.62V572.86a112.05,112.05,0,0,0,19.32,4c0,.21,0,.41,0,.62,0,8.89,5.31,16.09,11.85,16.09s11.85-7.2,11.85-16.09c0-.21,0-.41,0-.62a112.34,112.34,0,0,0,19.32-4Z" transform="translate(-28.19 -175.41)"/><path class="cls-2" d="M402.48,328.43s-9.33-2.29-19.31-3.62c0-.11,0-.23,0-.35,0-8.64-5.31-15.65-11.85-15.65s-11.85,7-11.85,15.65v.35c-10,1.33-19.31,3.62-19.31,3.62V572.86a112.34,112.34,0,0,0,19.32,4c0,.21,0,.41,0,.62,0,8.89,5.3,16.09,11.85,16.09s11.85-7.2,11.85-16.09c0-.21,0-.41,0-.62a112.34,112.34,0,0,0,19.32-4Z" transform="translate(-28.19 -175.41)"/><path class="cls-2" d="M189.93,328.43s-9.32-2.29-19.31-3.62c0-.11,0-.23,0-.35,0-8.64-5.31-15.65-11.85-15.65s-11.85,7-11.85,15.65c0,.12,0,.24,0,.35-10,1.33-19.31,3.62-19.31,3.62V572.86a112.07,112.07,0,0,0,19.31,4c0,.21,0,.41,0,.62,0,8.89,5.31,16.09,11.85,16.09s11.85-7.2,11.85-16.09c0-.21,0-.41,0-.62a112.07,112.07,0,0,0,19.31-4Z" transform="translate(-28.19 -175.41)"/><rect class="cls-7" x="204.12" y="162.83" width="7.49" height="230.85"/><rect class="cls-7" x="217.94" y="162.83" width="7.42" height="230.85"/><rect class="cls-7" x="177.58" y="162.83" width="7.49" height="230.85"/><rect class="cls-7" x="191.41" y="162.83" width="7.42" height="230.85"/><rect class="cls-7" x="347.61" y="162.83" width="7.49" height="230.85"/><rect class="cls-7" x="361.44" y="162.83" width="7.42" height="230.85"/><rect class="cls-7" x="321.08" y="162.83" width="7.49" height="230.85"/><rect class="cls-7" x="334.9" y="162.83" width="7.41" height="230.85"/><rect class="cls-7" x="276.59" y="162.83" width="7.49" height="230.85"/><rect class="cls-7" x="290.42" y="162.83" width="7.41" height="230.85"/><rect class="cls-7" x="250.06" y="162.83" width="7.49" height="230.85"/><rect class="cls-7" x="263.88" y="162.83" width="7.42" height="230.85"/><rect class="cls-7" x="133.1" y="162.83" width="7.49" height="230.85"/><rect class="cls-7" x="146.92" y="162.83" width="7.42" height="230.85"/><rect class="cls-7" x="106.56" y="162.83" width="7.49" height="230.85"/><rect class="cls-7" x="120.39" y="162.83" width="7.42" height="230.85"/><path class="cls-2" d="M452.26,567.11s-1.49,25.25-32.45,21.92" transform="translate(-28.19 -175.41)"/><path class="cls-2" d="M460.86,566.85s-1.87,34.54-40.87,30l.27-3.69C455.33,597.12,457,567,457,567l3.85.1" transform="translate(-28.19 -175.41)"/><path class="cls-2" d="M455,567.11s-1.62,26.94-35.13,23.39l.24-2.88c30.13,3.1,31.58-20.38,31.58-20.38l3.31.07" transform="translate(-28.19 -175.41)"/><rect class="cls-2" x="398.47" y="312.25" width="3.44" height="54.67"/><rect class="cls-3" x="394.57" y="216.92" width="3.9" height="24.67"/><rect class="cls-3" x="399.18" y="184.92" width="5.04" height="20.34"/><path class="cls-3" d="M415.77,346V431s2.64.13,6.08.26h15.71V346Zm10.89,71h-3.9V392.33h3.9Zm5.75-36.33h-5V360.33h5Z" transform="translate(-28.19 -175.41)"/><rect class="cls-7" x="503.37" y="93.44" width="7.3" height="39.96"/><rect class="cls-7" x="510.57" y="92.29" width="3.41" height="27.68"/><path class="cls-2" d="M575.69,222.73a47.05,47.05,0,0,1-30.82,44.18,48.45,48.45,0,0,1-4.8,1.47l-.4.1V223.59a6,6,0,1,0-8.11,2.91v43.2c-.85.05-1.72.09-2.6.09h-.34a47.07,47.07,0,1,1,47.07-47.07Z" transform="translate(-28.19 -175.41)"/><path class="cls-7" d="M539.67,223.59v44.89a45.07,45.07,0,0,1-8.11,1.22V226.5a5.91,5.91,0,0,0,2.65.62A6,6,0,0,0,539.67,223.59Z" transform="translate(-28.19 -175.41)"/><rect class="cls-7" x="481.06" y="42.09" width="22.31" height="6.88"/><path class="cls-3" d="M540.67,221.34a6.53,6.53,0,1,1-6.52-6.53A6.52,6.52,0,0,1,540.67,221.34Z" transform="translate(-28.19 -175.41)"/><rect class="cls-7" x="449.46" y="74.42" width="7.79" height="61.17"/><rect class="cls-2" x="386.36" y="133.4" width="124.3" height="19.62"/><rect class="cls-11" x="63.27" y="416.13" width="21.89" height="2.93"/><rect class="cls-10" x="77.47" y="396.44" width="3.2" height="22.75"/><rect class="cls-10" x="68.47" y="396.44" width="3.2" height="22.7"/><rect class="cls-2" x="79.47" y="395.49" width="3.2" height="23.69"/><rect class="cls-2" x="70.47" y="395.49" width="3.2" height="23.69"/><rect class="cls-2" x="63.28" y="418.13" width="23.11" height="2.93"/><rect class="cls-10" x="63.3" y="379.62" width="36.74" height="10.92"/><rect class="cls-3" x="44.05" y="366.84" width="55.38" height="15.71"/></g><rect class="cls-12" x="2.25" y="364.98" width="9.19" height="2.33"/><rect class="cls-13" x="7.97" y="368.84" width="38.08" height="10.38"/><polygon class="cls-14" points="19.56 420.76 10.64 420.76 10.64 313.85 20.13 313.85 19.56 420.76"/><rect class="cls-12" x="65.28" y="136.4" width="324.3" height="320.54"/><rect class="cls-12" x="116.9" y="123.46" width="34.47" height="11.96"/><rect class="cls-4" x="65.28" y="450.32" width="324.29" height="9.62"/><rect class="cls-15" x="113.68" y="446.32" width="27.16" height="18.11"/><rect class="cls-15" x="323.5" y="446.32" width="28.22" height="14.91"/><rect class="cls-12" x="65.28" y="446.32" width="324.29" height="9.62"/><g class="cls-5"><rect class="cls-2" x="150.74" y="397.46" width="8.57" height="54.32"/><rect class="cls-2" x="291.78" y="397.46" width="8.58" height="54.32"/></g><rect class="cls-15" x="154.74" y="399.46" width="8.57" height="54.32"/><rect class="cls-15" x="295.78" y="399.46" width="8.58" height="54.32"/><polygon class="cls-16" points="389.58 418.1 389.58 423.43 379.68 423.43 379.68 392.26 383.15 392.26 383.15 418.1 389.58 418.1"/><rect class="cls-6" x="383.14" y="392.27" width="6.43" height="25.83"/><polygon class="cls-12" points="458.06 314.25 462.49 314.25 462.49 393.6 403.92 393.6 403.92 397.86 389.58 397.86 389.58 307.86 399.65 307.86 399.65 299.07 468.22 299.07 474.21 310.69 458.06 310.69 458.06 314.25"/><rect class="cls-12" x="389.58" y="289.22" width="27.11" height="9.85"/><rect class="cls-16" x="462.49" y="314.25" width="4.26" height="67.1"/><rect class="cls-17" x="466.75" y="345.14" width="3.99" height="26.09"/><rect class="cls-12" x="389.57" y="404.65" width="4.22" height="27.29"/><path class="cls-12" d="M542.07,330.43v2.93S484.29,442.53,483.23,442.8s-30.62,0-30.62,0,1.06,4.45,0,4.75-13.05,0-13.05,0l-21.79,17.08V433s2.64.13,6.08.26c6.45.25,15.71.52,15.71,0V347.47h17.31V348l-.54,69.23L495.7,348l.31-.54.26-17h12.78v14.65l-47.66,84.4v3.6l17.18-.13L532,333.36l.09-2.93Z" transform="translate(-28.19 -175.41)"/><path class="cls-18" d="M417.77,433s2.64.13,6.08.26h-6.08Z" transform="translate(-28.19 -175.41)"/><rect class="cls-18" x="396.57" y="218.92" width="3.9" height="24.67"/><rect class="cls-18" x="401.18" y="186.92" width="5.04" height="20.34"/><path class="cls-12" d="M465.83,570.5c0,17.49-16.53,31.66-36.9,31.66a42.67,42.67,0,0,1-6.94-.57V586a23.79,23.79,0,0,0,5.25.58A24.17,24.17,0,0,0,450.37,569h15.41C465.81,569.5,465.83,570,465.83,570.5Z" transform="translate(-28.19 -175.41)"/><rect class="cls-2" x="403.91" y="310.7" width="16.51" height="3.56"/><rect class="cls-2" x="426.28" y="310.7" width="21.48" height="3.56"/><rect class="cls-2" x="399.65" y="299.08" width="22.37" height="4.52"/><path class="cls-12" d="M92.89,247.8H88.75c0-13.27-9.93-23.5-20.9-23.5-8.69,0-17.73,4.58-18.76,16.19v348.1H45.66V235l0-.05c3.41-11.21,12.57-15,21.92-15C81.12,219.91,92.19,232,92.89,247.8Z" transform="translate(-28.19 -175.41)"/><path class="cls-18" d="M41,250.8" transform="translate(-28.19 -175.41)"/><path class="cls-18" d="M44.59,235.67" transform="translate(-28.19 -175.41)"/><line class="cls-18" x1="66.33" y1="73.79" x2="66.29" y2="73.79"/><path class="cls-18" d="M47.07,249.2" transform="translate(-28.19 -175.41)"/><path class="cls-18" d="M48.21,241.27" transform="translate(-28.19 -175.41)"/><path class="cls-12" d="M96.26,258.13H92c0-12.85-8.47-21.73-18.37-21.73-7.84,0-16,4.43-16.93,15.67V589H53.65V246.71a.08.08,0,0,1,0,0c3.07-10.85,11.34-14.52,19.78-14.52C85.64,232.15,95.63,242.82,96.26,258.13Z" transform="translate(-28.19 -175.41)"/><path class="cls-18" d="M49.39,244.72" transform="translate(-28.19 -175.41)"/><path class="cls-18" d="M53,250.32" transform="translate(-28.19 -175.41)"/><rect class="cls-12" x="20.89" y="149.57" width="4.56" height="3.73"/><rect class="cls-12" x="20.89" y="277.81" width="4.39" height="4.89"/><rect class="cls-12" x="20.89" y="364.98" width="4.56" height="2.33"/><rect class="cls-12" x="20.89" y="406.52" width="4.56" height="4.79"/><polygon class="cls-8" points="65.28 229.85 57.8 223.46 50.31 217.07 65.28 217.07 65.28 229.85"/><rect class="cls-12" x="53.91" y="133.33" width="62.97" height="4.93"/><rect class="cls-12" x="73.31" y="125.47" width="19.49" height="7.85"/><polygon class="cls-19" points="332.4 131.93 332.4 136.03 306.63 136.03 306.63 131.93 310.51 131.93 310.51 127.53 313.06 127.53 313.06 123.97 325.97 123.97 325.97 127.53 328.53 127.53 328.53 131.93 332.4 131.93"/><rect class="cls-12" x="122.47" y="120" width="23.33" height="3.45"/><polygon class="cls-20" points="65.28 361.47 58.77 365.15 52.26 368.84 65.28 368.84 65.28 361.47"/><rect class="cls-12" x="160.97" y="125.03" width="38.16" height="10.39"/><rect class="cls-12" x="77.38" y="121.25" width="11.36" height="4.4"/><rect class="cls-12" x="174.37" y="120.54" width="11.36" height="4.4"/><rect class="cls-19" x="338.41" y="124.14" width="14.2" height="11.26"/><rect class="cls-21" x="389.58" y="155.02" width="78.5" height="17.58"/><path class="cls-18" d="M428.76,268.81c-.51.6-1,1.22-1.45,1.86l-.26-.2Z" transform="translate(-28.19 -175.41)"/><path class="cls-18" d="M433.56,264.16l-4.8,4.65A33,33,0,0,1,433.56,264.16Z" transform="translate(-28.19 -175.41)"/><path class="cls-18" d="M432.14,308.46a34.14,34.14,0,0,1-5.39-8.47,31.55,31.55,0,0,1-2-6c.05.26.11.51.16.74a27.37,27.37,0,0,0,1.67,5.31,30.11,30.11,0,0,0,5.52,8.43c.45.5.93,1,1.42,1.47C433.05,309.48,432.58,309,432.14,308.46Z" transform="translate(-28.19 -175.41)"/><path class="cls-22" d="M434.41,310.81h-44.2c4.54-9.72,15.63-17.18,28.58-17.18,1.13,0,4.79-.09,5.89,0,0,.12.05.24.08.36s.11.51.16.74a27.37,27.37,0,0,0,1.67,5.31,5.29,5.29,0,0,0-2.74,4.71,5,5,0,0,0,4.86,5.21,4.7,4.7,0,0,0,3.4-1.49c.45.5.93,1,1.42,1.47l.18.18Z" transform="translate(-28.19 -175.41)"/><path class="cls-22" d="M533.56,271.7V275l-50,35.44-.4.38H434.41l-.7-.67-.18-.18c-.48-.48-.95-1-1.39-1.5a34.14,34.14,0,0,1-5.39-8.47,31.55,31.55,0,0,1-2-6c0-.12-.05-.24-.08-.36a32.37,32.37,0,0,1-.83-5.82c0-6.54,0-10.47,3.46-17.16a10.35,10.35,0,0,1,1.45-1.86l4.8-4.65,51.05-49.39a47.09,47.09,0,0,0,46,57H531C531.84,271.79,532.71,271.75,533.56,271.7Z" transform="translate(-28.19 -175.41)"/><path class="cls-18" d="M433.53,310c-.49-.48-1-1-1.42-1.47a30.11,30.11,0,0,1-5.52-8.43,27.37,27.37,0,0,1-1.67-5.31c-.05-.23-.11-.48-.16-.74a31.55,31.55,0,0,0,2,6,34.14,34.14,0,0,0,5.39,8.47C432.58,309,433.05,309.48,433.53,310Z" transform="translate(-28.19 -175.41)"/><path class="cls-18" d="M432.11,308.49a4.7,4.7,0,0,1-3.4,1.49,5,5,0,0,1-4.86-5.21,5.29,5.29,0,0,1,2.74-4.71A30.11,30.11,0,0,0,432.11,308.49Z" transform="translate(-28.19 -175.41)"/><path class="cls-18" d="M432.14,308.46l0,0a30.11,30.11,0,0,1-5.52-8.43l.16-.07A34.14,34.14,0,0,0,432.14,308.46Z" transform="translate(-28.19 -175.41)"/><rect class="cls-18" x="163.74" y="161.42" width="8.57" height="231.12"/><rect class="cls-23" x="234.62" y="161.42" width="10" height="230.85"/><rect class="cls-24" x="163.03" y="161.42" width="10" height="230.85"/><rect class="cls-25" x="305.45" y="161.42" width="10" height="230.85"/><rect class="cls-18" x="306.93" y="161.42" width="7.05" height="227.92"/><path class="cls-18" d="M541.67,270.48v1.22h-8.11A45.07,45.07,0,0,0,541.67,270.48Z" transform="translate(-28.19 -175.41)"/><path class="cls-26" d="M117.08,277.91c0,2-2.61,3.62-5.83,3.62s-5.83-1.62-5.83-3.62,2.61-3.63,5.83-3.63S117.08,275.9,117.08,277.91Z" transform="translate(-28.19 -175.41)"/><path class="cls-27" d="M119.65,279.53c0,1-1,1.8-2.63,2.41h0a18.95,18.95,0,0,1-11.54,0h0c-1.62-.61-2.63-1.46-2.63-2.41s1.1-1.88,2.85-2.48a18.34,18.34,0,0,0,11.1,0C118.55,277.65,119.65,278.54,119.65,279.53Z" transform="translate(-28.19 -175.41)"/><path class="cls-28" d="M119.65,294.5c0,1.82-3.76,3.31-8.4,3.31s-8.4-1.49-8.4-3.31c0-1,1.11-1.88,2.86-2.49h0a18.27,18.27,0,0,0,11.08,0h0C118.55,292.62,119.65,293.51,119.65,294.5Z" transform="translate(-28.19 -175.41)"/><path class="cls-29" d="M119.65,289.5c0,1.83-3.76,3.31-8.4,3.31s-8.4-1.48-8.4-3.31c0-1,1.11-1.88,2.86-2.48h0a18.27,18.27,0,0,0,11.08,0h0C118.55,287.62,119.65,288.51,119.65,289.5Z" transform="translate(-28.19 -175.41)"/><path class="cls-30" d="M119.65,284.43c0,1-1.1,2-2.86,2.59h0a18.27,18.27,0,0,1-11.08,0h0c-1.75-.63-2.86-1.55-2.86-2.59s1-1.87,2.63-2.49h0a18.95,18.95,0,0,0,11.54,0h0C118.64,282.56,119.65,283.45,119.65,284.43Z" transform="translate(-28.19 -175.41)"/><path class="cls-31" d="M119.65,279.43c0,1-1.1,2-2.86,2.59h0a18.27,18.27,0,0,1-11.08,0h0c-1.75-.63-2.86-1.55-2.86-2.59s1-1.87,2.63-2.49h0a18.95,18.95,0,0,0,11.54,0h0C118.64,277.56,119.65,278.45,119.65,279.43Z" transform="translate(-28.19 -175.41)"/><path class="cls-32" d="M119.65,289.18c0,1-1.1,2-2.86,2.59h0a18.27,18.27,0,0,1-11.08,0h0c-1.75-.63-2.86-1.55-2.86-2.59s1-1.87,2.63-2.49h0a18.95,18.95,0,0,0,11.54,0h0C118.64,287.31,119.65,288.2,119.65,289.18Z" transform="translate(-28.19 -175.41)"/><path class="cls-33" d="M119.65,294.18c0,1-1.1,2-2.86,2.59h0a18.27,18.27,0,0,1-11.08,0h0c-1.75-.63-2.86-1.55-2.86-2.59s1-1.87,2.63-2.49h0a18.95,18.95,0,0,0,11.54,0h0C118.64,292.31,119.65,293.2,119.65,294.18Z" transform="translate(-28.19 -175.41)"/><rect class="cls-20" x="81.8" y="93.1" width="2.51" height="5.83"/><path class="cls-34" d="M214.07,276.28c0,2-2.61,3.62-5.83,3.62s-5.83-1.62-5.83-3.62,2.61-3.63,5.83-3.63S214.07,274.27,214.07,276.28Z" transform="translate(-28.19 -175.41)"/><path class="cls-35" d="M216.64,277.9c0,1-1,1.8-2.63,2.41h0a18.95,18.95,0,0,1-11.54,0h0c-1.62-.61-2.63-1.46-2.63-2.41s1.1-1.88,2.85-2.48a18.34,18.34,0,0,0,11.1,0C215.54,276,216.64,276.91,216.64,277.9Z" transform="translate(-28.19 -175.41)"/><path class="cls-36" d="M216.64,292.87c0,1.82-3.76,3.31-8.4,3.31s-8.4-1.49-8.4-3.31c0-1,1.1-1.88,2.86-2.49h0a18.27,18.27,0,0,0,11.08,0h0C215.54,291,216.64,291.88,216.64,292.87Z" transform="translate(-28.19 -175.41)"/><path class="cls-37" d="M216.64,287.87c0,1.83-3.76,3.31-8.4,3.31s-8.4-1.48-8.4-3.31c0-1,1.1-1.88,2.86-2.48h0a18.27,18.27,0,0,0,11.08,0h0C215.54,286,216.64,286.88,216.64,287.87Z" transform="translate(-28.19 -175.41)"/><path class="cls-38" d="M216.64,282.8c0,1-1.1,2-2.86,2.59h0a18.27,18.27,0,0,1-11.08,0h0c-1.76-.63-2.86-1.55-2.86-2.59s1-1.87,2.63-2.49h0a18.95,18.95,0,0,0,11.54,0h0C215.63,280.93,216.64,281.82,216.64,282.8Z" transform="translate(-28.19 -175.41)"/><path class="cls-39" d="M216.64,277.8c0,1-1.1,2-2.86,2.59h0a18.27,18.27,0,0,1-11.08,0h0c-1.76-.63-2.86-1.55-2.86-2.59s1-1.87,2.63-2.49h0a18.95,18.95,0,0,0,11.54,0h0C215.63,275.93,216.64,276.82,216.64,277.8Z" transform="translate(-28.19 -175.41)"/><path class="cls-40" d="M216.64,287.55c0,1-1.1,2-2.86,2.59h0a18.27,18.27,0,0,1-11.08,0h0c-1.76-.63-2.86-1.55-2.86-2.59s1-1.87,2.63-2.49h0a18.95,18.95,0,0,0,11.54,0h0C215.63,285.68,216.64,286.57,216.64,287.55Z" transform="translate(-28.19 -175.41)"/><path class="cls-41" d="M216.64,292.55c0,1-1.1,2-2.86,2.59h0a18.27,18.27,0,0,1-11.08,0h0c-1.76-.63-2.86-1.55-2.86-2.59s1-1.87,2.63-2.49h0a18.95,18.95,0,0,0,11.54,0h0C215.63,290.68,216.64,291.57,216.64,292.55Z" transform="translate(-28.19 -175.41)"/><rect class="cls-20" x="178.79" y="91.47" width="2.51" height="5.83"/><path class="cls-19" d="M164.09,226.79a1.76,1.76,0,0,1-1.76,1.76h0a1.76,1.76,0,0,1-1.77-1.76V213.35a1.76,1.76,0,0,1,1.77-1.76h0a1.76,1.76,0,0,1,1.76,1.76Z" transform="translate(-28.19 -175.41)"/><path class="cls-14" d="M171.56,230.2c0,2-4.14,3.66-9.23,3.66s-9.24-1.64-9.24-3.66,4.14-3.66,9.24-3.66S171.56,228.18,171.56,230.2Z" transform="translate(-28.19 -175.41)"/><path class="cls-42" d="M175.6,292.14c0,1.83-5.94,3.31-13.28,3.31S149,294,149,292.14c0-1,1.75-1.88,4.52-2.48h0a45,45,0,0,0,17.51,0h0C173.85,290.26,175.6,291.15,175.6,292.14Z" transform="translate(-28.19 -175.41)"/><path class="cls-43" d="M175.61,254.33c0,1-1.64,1.82-4.25,2.43a46.82,46.82,0,0,1-18.07,0c-2.61-.61-4.24-1.47-4.24-2.43s1.74-1.88,4.51-2.48a45.1,45.1,0,0,0,17.53,0C173.86,252.45,175.61,253.34,175.61,254.33Z" transform="translate(-28.19 -175.41)"/><path class="cls-44" d="M175.61,249.79c0,1-1.64,1.82-4.25,2.42a46.82,46.82,0,0,1-18.07,0c-2.61-.6-4.24-1.46-4.24-2.42s1.74-1.88,4.51-2.48a45.62,45.62,0,0,0,17.53,0C173.86,247.91,175.61,248.8,175.61,249.79Z" transform="translate(-28.19 -175.41)"/><path class="cls-45" d="M175.61,240.33c0,1-1.64,1.82-4.25,2.43a46.82,46.82,0,0,1-18.07,0c-2.61-.61-4.24-1.47-4.24-2.43s1.74-1.88,4.51-2.48a45.1,45.1,0,0,0,17.53,0C173.86,238.45,175.61,239.34,175.61,240.33Z" transform="translate(-28.19 -175.41)"/><path class="cls-46" d="M175.61,245.33c0,1-1.64,1.82-4.25,2.43a46.82,46.82,0,0,1-18.07,0c-2.61-.61-4.24-1.47-4.24-2.43s1.74-1.88,4.51-2.48a45.1,45.1,0,0,0,17.53,0C173.86,243.45,175.61,244.34,175.61,245.33Z" transform="translate(-28.19 -175.41)"/><path class="cls-47" d="M175.61,273.33c0,1-1.64,1.82-4.25,2.43a46.82,46.82,0,0,1-18.07,0c-2.61-.61-4.24-1.47-4.24-2.43s1.74-1.88,4.51-2.48a45.1,45.1,0,0,0,17.53,0C173.86,271.45,175.61,272.34,175.61,273.33Z" transform="translate(-28.19 -175.41)"/><path class="cls-48" d="M175.61,268.79c0,1-1.64,1.82-4.25,2.42a46.82,46.82,0,0,1-18.07,0c-2.61-.6-4.24-1.46-4.24-2.42s1.74-1.88,4.51-2.48a45.62,45.62,0,0,0,17.53,0C173.86,266.91,175.61,267.8,175.61,268.79Z" transform="translate(-28.19 -175.41)"/><path class="cls-49" d="M175.61,259.33c0,1-1.64,1.82-4.25,2.43a46.82,46.82,0,0,1-18.07,0c-2.61-.61-4.24-1.47-4.24-2.43s1.74-1.88,4.51-2.48a45.1,45.1,0,0,0,17.53,0C173.86,257.45,175.61,258.34,175.61,259.33Z" transform="translate(-28.19 -175.41)"/><path class="cls-50" d="M175.61,264.33c0,1-1.64,1.82-4.25,2.43a46.82,46.82,0,0,1-18.07,0c-2.61-.61-4.24-1.47-4.24-2.43s1.74-1.88,4.51-2.48a45.1,45.1,0,0,0,17.53,0C173.86,262.45,175.61,263.34,175.61,264.33Z" transform="translate(-28.19 -175.41)"/><path class="cls-51" d="M175.61,292.33c0,1-1.64,1.82-4.25,2.43a46.82,46.82,0,0,1-18.07,0c-2.61-.61-4.24-1.47-4.24-2.43s1.74-1.88,4.51-2.48a45.1,45.1,0,0,0,17.53,0C173.86,290.45,175.61,291.34,175.61,292.33Z" transform="translate(-28.19 -175.41)"/><path class="cls-52" d="M175.61,287.79c0,1-1.64,1.82-4.25,2.42a46.82,46.82,0,0,1-18.07,0c-2.61-.6-4.24-1.46-4.24-2.42s1.74-1.88,4.51-2.48a45.62,45.62,0,0,0,17.53,0C173.86,285.91,175.61,286.8,175.61,287.79Z" transform="translate(-28.19 -175.41)"/><path class="cls-53" d="M175.61,278.33c0,1-1.64,1.82-4.25,2.43a46.82,46.82,0,0,1-18.07,0c-2.61-.61-4.24-1.47-4.24-2.43s1.74-1.88,4.51-2.48a45.1,45.1,0,0,0,17.53,0C173.86,276.45,175.61,277.34,175.61,278.33Z" transform="translate(-28.19 -175.41)"/><path class="cls-54" d="M175.61,283.33c0,1-1.64,1.82-4.25,2.43a46.82,46.82,0,0,1-18.07,0c-2.61-.61-4.24-1.47-4.24-2.43s1.74-1.88,4.51-2.48a45.1,45.1,0,0,0,17.53,0C173.86,281.45,175.61,282.34,175.61,283.33Z" transform="translate(-28.19 -175.41)"/><path class="cls-55" d="M175.61,235.27c0,1-1.75,1.95-4.52,2.58a45.1,45.1,0,0,1-17.53,0c-2.77-.63-4.51-1.56-4.51-2.58,0-1.9,5.94-3.45,13.28-3.45S175.61,233.37,175.61,235.27Z" transform="translate(-28.19 -175.41)"/><polygon class="cls-19" points="235.39 129.21 235.39 136.25 214.52 136.25 214.52 129.21 218.01 129.21 218.01 122.47 231.9 122.47 231.9 129.21 235.39 129.21"/><path class="cls-19" d="M254.91,230.92a1.77,1.77,0,0,1-1.77,1.77h0a1.76,1.76,0,0,1-1.76-1.77V217.48a1.76,1.76,0,0,1,1.76-1.76h0a1.76,1.76,0,0,1,1.77,1.76Z" transform="translate(-28.19 -175.41)"/><path class="cls-14" d="M262.37,234.33c0,2-4.13,3.66-9.23,3.66s-9.23-1.64-9.23-3.66,4.14-3.66,9.23-3.66S262.37,232.31,262.37,234.33Z" transform="translate(-28.19 -175.41)"/><path class="cls-56" d="M266.42,296.27c0,1.83-5.94,3.31-13.28,3.31s-13.28-1.48-13.28-3.31c0-1,1.75-1.87,4.52-2.48h0a45,45,0,0,0,17.51,0h0C264.67,294.4,266.42,295.28,266.42,296.27Z" transform="translate(-28.19 -175.41)"/><path class="cls-57" d="M266.42,258.46c0,1-1.63,1.82-4.24,2.43a46.82,46.82,0,0,1-18.07,0c-2.61-.61-4.25-1.47-4.25-2.43s1.75-1.88,4.52-2.48a45.1,45.1,0,0,0,17.53,0C264.68,256.58,266.42,257.47,266.42,258.46Z" transform="translate(-28.19 -175.41)"/><path class="cls-58" d="M266.42,253.92c0,1-1.63,1.82-4.24,2.42a46.31,46.31,0,0,1-18.07,0c-2.61-.6-4.25-1.46-4.25-2.42s1.75-1.88,4.52-2.48a45.62,45.62,0,0,0,17.53,0C264.68,252,266.42,252.93,266.42,253.92Z" transform="translate(-28.19 -175.41)"/><path class="cls-59" d="M266.42,244.46c0,1-1.63,1.82-4.24,2.43a46.82,46.82,0,0,1-18.07,0c-2.61-.61-4.25-1.47-4.25-2.43s1.75-1.88,4.52-2.48a45.1,45.1,0,0,0,17.53,0C264.68,242.58,266.42,243.47,266.42,244.46Z" transform="translate(-28.19 -175.41)"/><path class="cls-60" d="M266.42,249.46c0,1-1.63,1.82-4.24,2.43a46.82,46.82,0,0,1-18.07,0c-2.61-.61-4.25-1.47-4.25-2.43s1.75-1.88,4.52-2.48a45.1,45.1,0,0,0,17.53,0C264.68,247.58,266.42,248.47,266.42,249.46Z" transform="translate(-28.19 -175.41)"/><path class="cls-61" d="M266.42,277.46c0,1-1.63,1.82-4.24,2.43a46.82,46.82,0,0,1-18.07,0c-2.61-.61-4.25-1.47-4.25-2.43s1.75-1.88,4.52-2.48a45.1,45.1,0,0,0,17.53,0C264.68,275.58,266.42,276.47,266.42,277.46Z" transform="translate(-28.19 -175.41)"/><path class="cls-62" d="M266.42,272.92c0,1-1.63,1.82-4.24,2.42a46.31,46.31,0,0,1-18.07,0c-2.61-.6-4.25-1.46-4.25-2.42s1.75-1.88,4.52-2.48a45.62,45.62,0,0,0,17.53,0C264.68,271,266.42,271.93,266.42,272.92Z" transform="translate(-28.19 -175.41)"/><path class="cls-63" d="M266.42,263.46c0,1-1.63,1.82-4.24,2.43a46.82,46.82,0,0,1-18.07,0c-2.61-.61-4.25-1.47-4.25-2.43s1.75-1.88,4.52-2.48a45.1,45.1,0,0,0,17.53,0C264.68,261.58,266.42,262.47,266.42,263.46Z" transform="translate(-28.19 -175.41)"/><path class="cls-64" d="M266.42,268.46c0,1-1.63,1.82-4.24,2.43a46.82,46.82,0,0,1-18.07,0c-2.61-.61-4.25-1.47-4.25-2.43s1.75-1.88,4.52-2.48a45.1,45.1,0,0,0,17.53,0C264.68,266.58,266.42,267.47,266.42,268.46Z" transform="translate(-28.19 -175.41)"/><path class="cls-65" d="M266.42,296.46c0,1-1.63,1.82-4.24,2.43a46.82,46.82,0,0,1-18.07,0c-2.61-.61-4.25-1.47-4.25-2.43s1.75-1.88,4.52-2.48a45.1,45.1,0,0,0,17.53,0C264.68,294.58,266.42,295.47,266.42,296.46Z" transform="translate(-28.19 -175.41)"/><path class="cls-66" d="M266.42,291.92c0,1-1.63,1.82-4.24,2.42a46.31,46.31,0,0,1-18.07,0c-2.61-.6-4.25-1.46-4.25-2.42s1.75-1.88,4.52-2.48a45.62,45.62,0,0,0,17.53,0C264.68,290,266.42,290.93,266.42,291.92Z" transform="translate(-28.19 -175.41)"/><path class="cls-67" d="M266.42,282.46c0,1-1.63,1.82-4.24,2.43a46.82,46.82,0,0,1-18.07,0c-2.61-.61-4.25-1.47-4.25-2.43s1.75-1.88,4.52-2.48a45.1,45.1,0,0,0,17.53,0C264.68,280.58,266.42,281.47,266.42,282.46Z" transform="translate(-28.19 -175.41)"/><path class="cls-68" d="M266.42,287.46c0,1-1.63,1.82-4.24,2.43a46.82,46.82,0,0,1-18.07,0c-2.61-.61-4.25-1.47-4.25-2.43s1.75-1.88,4.52-2.48a45.1,45.1,0,0,0,17.53,0C264.68,285.58,266.42,286.47,266.42,287.46Z" transform="translate(-28.19 -175.41)"/><path class="cls-69" d="M266.42,239.4c0,1-1.74,1.95-4.51,2.58a45.1,45.1,0,0,1-17.53,0c-2.77-.63-4.52-1.55-4.52-2.58,0-1.9,5.95-3.45,13.28-3.45S266.42,237.5,266.42,239.4Z" transform="translate(-28.19 -175.41)"/><path class="cls-19" d="M349.47,231.16a1.76,1.76,0,0,1-1.76,1.76h0a1.76,1.76,0,0,1-1.77-1.76V217.72a1.76,1.76,0,0,1,1.77-1.76h0a1.76,1.76,0,0,1,1.76,1.76Z" transform="translate(-28.19 -175.41)"/><path class="cls-14" d="M356.94,234.57c0,2-4.14,3.66-9.23,3.66s-9.24-1.64-9.24-3.66,4.14-3.66,9.24-3.66S356.94,232.55,356.94,234.57Z" transform="translate(-28.19 -175.41)"/><path class="cls-70" d="M361,296.51c0,1.82-5.94,3.31-13.27,3.31s-13.28-1.49-13.28-3.31c0-1,1.74-1.88,4.51-2.48h0a45,45,0,0,0,17.51,0h0C359.23,294.63,361,295.52,361,296.51Z" transform="translate(-28.19 -175.41)"/><path class="cls-71" d="M361,258.7c0,1-1.64,1.82-4.25,2.42a46.31,46.31,0,0,1-18.07,0c-2.61-.6-4.24-1.46-4.24-2.42s1.74-1.88,4.51-2.48a45.1,45.1,0,0,0,17.53,0C359.24,256.82,361,257.71,361,258.7Z" transform="translate(-28.19 -175.41)"/><path class="cls-72" d="M361,254.16c0,1-1.64,1.82-4.25,2.42a46.82,46.82,0,0,1-18.07,0c-2.61-.6-4.24-1.47-4.24-2.42s1.74-1.88,4.51-2.49a45.1,45.1,0,0,0,17.53,0C359.24,252.28,361,253.17,361,254.16Z" transform="translate(-28.19 -175.41)"/><path class="cls-73" d="M361,244.7c0,1-1.64,1.82-4.25,2.42a46.31,46.31,0,0,1-18.07,0c-2.61-.6-4.24-1.46-4.24-2.42s1.74-1.88,4.51-2.48a45.1,45.1,0,0,0,17.53,0C359.24,242.82,361,243.71,361,244.7Z" transform="translate(-28.19 -175.41)"/><path class="cls-74" d="M361,249.7c0,1-1.64,1.82-4.25,2.42a46.31,46.31,0,0,1-18.07,0c-2.61-.6-4.24-1.46-4.24-2.42s1.74-1.88,4.51-2.48a45.1,45.1,0,0,0,17.53,0C359.24,247.82,361,248.71,361,249.7Z" transform="translate(-28.19 -175.41)"/><path class="cls-75" d="M361,277.7c0,1-1.64,1.82-4.25,2.42a46.31,46.31,0,0,1-18.07,0c-2.61-.6-4.24-1.46-4.24-2.42s1.74-1.88,4.51-2.48a45.1,45.1,0,0,0,17.53,0C359.24,275.82,361,276.71,361,277.7Z" transform="translate(-28.19 -175.41)"/><path class="cls-76" d="M361,273.16c0,.95-1.64,1.82-4.25,2.42a46.82,46.82,0,0,1-18.07,0c-2.61-.6-4.24-1.47-4.24-2.42s1.74-1.88,4.51-2.49a45.1,45.1,0,0,0,17.53,0C359.24,271.28,361,272.17,361,273.16Z" transform="translate(-28.19 -175.41)"/><path class="cls-77" d="M361,263.7c0,1-1.64,1.82-4.25,2.42a46.31,46.31,0,0,1-18.07,0c-2.61-.6-4.24-1.46-4.24-2.42s1.74-1.88,4.51-2.48a45.1,45.1,0,0,0,17.53,0C359.24,261.82,361,262.71,361,263.7Z" transform="translate(-28.19 -175.41)"/><path class="cls-78" d="M361,268.7c0,1-1.64,1.82-4.25,2.42a46.31,46.31,0,0,1-18.07,0c-2.61-.6-4.24-1.46-4.24-2.42s1.74-1.88,4.51-2.48a45.1,45.1,0,0,0,17.53,0C359.24,266.82,361,267.71,361,268.7Z" transform="translate(-28.19 -175.41)"/><path class="cls-79" d="M361,296.7c0,1-1.64,1.82-4.25,2.42a46.31,46.31,0,0,1-18.07,0c-2.61-.6-4.24-1.46-4.24-2.42s1.74-1.88,4.51-2.48a45.1,45.1,0,0,0,17.53,0C359.24,294.82,361,295.71,361,296.7Z" transform="translate(-28.19 -175.41)"/><path class="cls-80" d="M361,292.16c0,.95-1.64,1.82-4.25,2.42a46.82,46.82,0,0,1-18.07,0c-2.61-.6-4.24-1.47-4.24-2.42s1.74-1.88,4.51-2.49a45.1,45.1,0,0,0,17.53,0C359.24,290.28,361,291.17,361,292.16Z" transform="translate(-28.19 -175.41)"/><path class="cls-81" d="M361,282.7c0,1-1.64,1.82-4.25,2.42a46.31,46.31,0,0,1-18.07,0c-2.61-.6-4.24-1.46-4.24-2.42s1.74-1.88,4.51-2.48a45.1,45.1,0,0,0,17.53,0C359.24,280.82,361,281.71,361,282.7Z" transform="translate(-28.19 -175.41)"/><path class="cls-82" d="M361,287.7c0,1-1.64,1.82-4.25,2.42a46.31,46.31,0,0,1-18.07,0c-2.61-.6-4.24-1.46-4.24-2.42s1.74-1.88,4.51-2.48a45.1,45.1,0,0,0,17.53,0C359.24,285.82,361,286.71,361,287.7Z" transform="translate(-28.19 -175.41)"/><path class="cls-83" d="M361,239.64c0,1-1.75,2-4.52,2.58a45.1,45.1,0,0,1-17.53,0c-2.77-.63-4.51-1.56-4.51-2.58,0-1.91,5.94-3.45,13.28-3.45S361,237.73,361,239.64Z" transform="translate(-28.19 -175.41)"/><rect class="cls-13" x="279.69" y="90.33" width="1.46" height="9.58"/><rect class="cls-9" x="277.96" y="99.48" width="5.01" height="34.94"/><path class="cls-84" d="M317.36,279.87a1.64,1.64,0,0,1-1.5,1.75h-14.4a1.65,1.65,0,0,1-1.5-1.75h0a1.65,1.65,0,0,1,1.5-1.76h14.4a1.65,1.65,0,0,1,1.5,1.76Z" transform="translate(-28.19 -175.41)"/><path class="cls-85" d="M317.36,288.1a1.65,1.65,0,0,1-1.5,1.76h-14.4a1.65,1.65,0,0,1-1.5-1.76h0a1.64,1.64,0,0,1,1.5-1.75h14.4a1.64,1.64,0,0,1,1.5,1.75Z" transform="translate(-28.19 -175.41)"/><path class="cls-86" d="M317.36,304.35c0,1.1-.67,2-1.5,2h-14.4c-.82,0-1.5-.89-1.5-2h0a1.8,1.8,0,0,1,1.5-2h14.4a1.79,1.79,0,0,1,1.5,2Z" transform="translate(-28.19 -175.41)"/><path class="cls-87" d="M317.36,296.12a1.64,1.64,0,0,1-1.5,1.75h-14.4a1.65,1.65,0,0,1-1.5-1.75h0a1.65,1.65,0,0,1,1.5-1.76h14.4a1.65,1.65,0,0,1,1.5,1.76Z" transform="translate(-28.19 -175.41)"/><path class="cls-88" d="M317.36,304.35a1.65,1.65,0,0,1-1.5,1.76h-14.4a1.65,1.65,0,0,1-1.5-1.76h0a1.65,1.65,0,0,1,1.5-1.75h14.4a1.64,1.64,0,0,1,1.5,1.75Z" transform="translate(-28.19 -175.41)"/><rect class="cls-12" x="270.65" y="133.31" width="19.63" height="2.43"/><rect class="cls-89" x="278.57" y="98.12" width="3.69" height="1.36"/><rect class="cls-13" x="246.64" y="90.23" width="1.46" height="9.58"/><rect class="cls-9" x="244.92" y="99.38" width="5.01" height="34.94"/><path class="cls-90" d="M284.32,279.77a1.64,1.64,0,0,1-1.5,1.75h-14.4a1.64,1.64,0,0,1-1.5-1.75h0a1.64,1.64,0,0,1,1.5-1.75h14.4a1.64,1.64,0,0,1,1.5,1.75Z" transform="translate(-28.19 -175.41)"/><path class="cls-91" d="M284.32,288a1.64,1.64,0,0,1-1.5,1.75h-14.4a1.64,1.64,0,0,1-1.5-1.75h0a1.65,1.65,0,0,1,1.5-1.76h14.4a1.65,1.65,0,0,1,1.5,1.76Z" transform="translate(-28.19 -175.41)"/><path class="cls-86" d="M284.32,304.26a1.79,1.79,0,0,1-1.5,2h-14.4c-.83,0-1.5-.88-1.5-2h0c0-1.1.67-2,1.5-2h14.4c.82,0,1.5.89,1.5,2Z" transform="translate(-28.19 -175.41)"/><path class="cls-92" d="M284.32,296a1.64,1.64,0,0,1-1.5,1.75h-14.4a1.64,1.64,0,0,1-1.5-1.75h0a1.64,1.64,0,0,1,1.5-1.75h14.4a1.64,1.64,0,0,1,1.5,1.75Z" transform="translate(-28.19 -175.41)"/><path class="cls-93" d="M284.32,304.26a1.64,1.64,0,0,1-1.5,1.75h-14.4a1.64,1.64,0,0,1-1.5-1.75h0a1.65,1.65,0,0,1,1.5-1.76h14.4a1.65,1.65,0,0,1,1.5,1.76Z" transform="translate(-28.19 -175.41)"/><rect class="cls-12" x="237.61" y="133.21" width="19.63" height="2.43"/><rect class="cls-89" x="245.53" y="98.03" width="3.69" height="1.36"/><rect class="cls-13" x="209.9" y="90.23" width="1.46" height="9.58"/><rect class="cls-9" x="208.18" y="99.38" width="5.01" height="34.94"/><path class="cls-94" d="M247.57,279.77a1.64,1.64,0,0,1-1.5,1.75H231.68a1.64,1.64,0,0,1-1.5-1.75h0a1.64,1.64,0,0,1,1.5-1.75h14.39a1.64,1.64,0,0,1,1.5,1.75Z" transform="translate(-28.19 -175.41)"/><path class="cls-95" d="M247.57,288a1.64,1.64,0,0,1-1.5,1.75H231.68a1.64,1.64,0,0,1-1.5-1.75h0a1.65,1.65,0,0,1,1.5-1.76h14.39a1.65,1.65,0,0,1,1.5,1.76Z" transform="translate(-28.19 -175.41)"/><path class="cls-86" d="M247.57,304.26a1.79,1.79,0,0,1-1.5,2H231.68a1.79,1.79,0,0,1-1.5-2h0c0-1.1.67-2,1.5-2h14.39c.83,0,1.5.89,1.5,2Z" transform="translate(-28.19 -175.41)"/><path class="cls-96" d="M247.57,296a1.64,1.64,0,0,1-1.5,1.75H231.68a1.64,1.64,0,0,1-1.5-1.75h0a1.64,1.64,0,0,1,1.5-1.75h14.39a1.64,1.64,0,0,1,1.5,1.75Z" transform="translate(-28.19 -175.41)"/><path class="cls-97" d="M247.57,304.26a1.64,1.64,0,0,1-1.5,1.75H231.68a1.64,1.64,0,0,1-1.5-1.75h0a1.65,1.65,0,0,1,1.5-1.76h14.39a1.65,1.65,0,0,1,1.5,1.76Z" transform="translate(-28.19 -175.41)"/><rect class="cls-12" x="200.87" y="133.21" width="19.63" height="2.43"/><rect class="cls-89" x="208.79" y="98.03" width="3.69" height="1.36"/><rect class="cls-24" x="163.03" y="161.42" width="10" height="230.85"/><rect class="cls-10" x="65.28" y="210.15" width="37.15" height="10.92"/><rect class="cls-10" x="65.3" y="293.39" width="36.74" height="10.92"/><rect class="cls-20" x="21.29" y="206.15" width="80.15" height="10.92"/><rect class="cls-12" x="20.89" y="189.11" width="4.56" height="5.59"/><rect class="cls-12" x="20.89" y="231.03" width="4.56" height="6.14"/><rect class="cls-12" x="20.89" y="318.51" width="4.56" height="4.79"/><rect class="cls-20" x="44.19" y="288.92" width="57.25" height="9.92"/><rect class="cls-8" x="65.28" y="137.94" width="324.29" height="5.46"/><rect class="cls-13" x="65.28" y="135.4" width="324.29" height="3.47"/><g class="cls-5"><path class="cls-2" d="M256.82,329.43s-9.33-2.29-19.32-3.62c0-.11,0-.23,0-.35,0-8.64-5.3-15.65-11.85-15.65s-11.85,7-11.85,15.65c0,.12,0,.24,0,.35-10,1.33-19.31,3.62-19.31,3.62V573.86a112.05,112.05,0,0,0,19.32,4c0,.21,0,.41,0,.62,0,8.89,5.31,16.09,11.85,16.09s11.85-7.2,11.85-16.09c0-.21,0-.41,0-.62a112.34,112.34,0,0,0,19.32-4Z" transform="translate(-28.19 -175.41)"/><path class="cls-2" d="M329.13,329.43s-9.33-2.29-19.31-3.62v-.35c0-8.64-5.3-15.65-11.85-15.65s-11.85,7-11.85,15.65c0,.12,0,.24,0,.35-10,1.33-19.31,3.62-19.31,3.62V573.86a112.05,112.05,0,0,0,19.32,4c0,.21,0,.41,0,.62,0,8.89,5.31,16.09,11.85,16.09s11.85-7.2,11.85-16.09c0-.21,0-.41,0-.62a112.34,112.34,0,0,0,19.32-4Z" transform="translate(-28.19 -175.41)"/><path class="cls-2" d="M398.48,329.43s-9.33-2.29-19.31-3.62c0-.11,0-.23,0-.35,0-8.64-5.31-15.65-11.85-15.65s-11.85,7-11.85,15.65v.35c-10,1.33-19.31,3.62-19.31,3.62V573.86a112.34,112.34,0,0,0,19.32,4c0,.21,0,.41,0,.62,0,8.89,5.3,16.09,11.85,16.09s11.85-7.2,11.85-16.09c0-.21,0-.41,0-.62a112.34,112.34,0,0,0,19.32-4Z" transform="translate(-28.19 -175.41)"/><path class="cls-2" d="M185.93,329.43s-9.32-2.29-19.31-3.62c0-.11,0-.23,0-.35,0-8.64-5.31-15.65-11.85-15.65s-11.85,7-11.85,15.65c0,.12,0,.24,0,.35-10,1.33-19.31,3.62-19.31,3.62V573.86a112.07,112.07,0,0,0,19.31,4c0,.21,0,.41,0,.62,0,8.89,5.31,16.09,11.85,16.09s11.85-7.2,11.85-16.09c0-.21,0-.41,0-.62a112.07,112.07,0,0,0,19.31-4Z" transform="translate(-28.19 -175.41)"/></g><path class="cls-16" d="M262.82,330.43s-9.33-2.29-19.32-3.62c0-.11,0-.23,0-.35,0-8.64-5.3-15.65-11.85-15.65s-11.85,7-11.85,15.65c0,.12,0,.24,0,.35-10,1.33-19.31,3.62-19.31,3.62V574.86a112.05,112.05,0,0,0,19.32,4c0,.21,0,.41,0,.62,0,8.89,5.31,16.09,11.85,16.09s11.85-7.2,11.85-16.09c0-.21,0-.41,0-.62a112.34,112.34,0,0,0,19.32-4Z" transform="translate(-28.19 -175.41)"/><path class="cls-16" d="M335.13,330.43s-9.33-2.29-19.31-3.62v-.35c0-8.64-5.3-15.65-11.85-15.65s-11.85,7-11.85,15.65c0,.12,0,.24,0,.35-10,1.33-19.31,3.62-19.31,3.62V574.86a112.05,112.05,0,0,0,19.32,4c0,.21,0,.41,0,.62,0,8.89,5.31,16.09,11.85,16.09s11.85-7.2,11.85-16.09c0-.21,0-.41,0-.62a112.34,112.34,0,0,0,19.32-4Z" transform="translate(-28.19 -175.41)"/><path class="cls-16" d="M404.48,330.43s-9.33-2.29-19.31-3.62c0-.11,0-.23,0-.35,0-8.64-5.31-15.65-11.85-15.65s-11.85,7-11.85,15.65v.35c-10,1.33-19.31,3.62-19.31,3.62V574.86a112.34,112.34,0,0,0,19.32,4c0,.21,0,.41,0,.62,0,8.89,5.3,16.09,11.85,16.09s11.85-7.2,11.85-16.09c0-.21,0-.41,0-.62a112.34,112.34,0,0,0,19.32-4Z" transform="translate(-28.19 -175.41)"/><path class="cls-16" d="M191.93,330.43s-9.32-2.29-19.31-3.62c0-.11,0-.23,0-.35,0-8.64-5.31-15.65-11.85-15.65s-11.85,7-11.85,15.65c0,.12,0,.24,0,.35-10,1.33-19.31,3.62-19.31,3.62V574.86a112.07,112.07,0,0,0,19.31,4c0,.21,0,.41,0,.62,0,8.89,5.31,16.09,11.85,16.09s11.85-7.2,11.85-16.09c0-.21,0-.41,0-.62a112.07,112.07,0,0,0,19.31-4Z" transform="translate(-28.19 -175.41)"/><rect class="cls-17" x="206.12" y="164.83" width="7.49" height="230.85"/><rect class="cls-17" x="219.94" y="164.83" width="7.42" height="230.85"/><rect class="cls-17" x="179.58" y="164.83" width="7.49" height="230.85"/><rect class="cls-17" x="193.41" y="164.83" width="7.42" height="230.85"/><rect class="cls-17" x="349.61" y="164.83" width="7.49" height="230.85"/><rect class="cls-17" x="363.44" y="164.83" width="7.42" height="230.85"/><rect class="cls-17" x="323.08" y="164.83" width="7.49" height="230.85"/><rect class="cls-17" x="336.9" y="164.83" width="7.41" height="230.85"/><rect class="cls-17" x="278.59" y="164.83" width="7.49" height="230.85"/><rect class="cls-17" x="292.42" y="164.83" width="7.41" height="230.85"/><rect class="cls-17" x="252.06" y="164.83" width="7.49" height="230.85"/><rect class="cls-17" x="265.88" y="164.83" width="7.42" height="230.85"/><rect class="cls-17" x="135.1" y="164.83" width="7.49" height="230.85"/><rect class="cls-17" x="148.92" y="164.83" width="7.42" height="230.85"/><rect class="cls-17" x="108.56" y="164.83" width="7.49" height="230.85"/><rect class="cls-17" x="122.39" y="164.83" width="7.42" height="230.85"/><path class="cls-18" d="M454.26,569.11s-1.49,25.25-32.45,21.92" transform="translate(-28.19 -175.41)"/><path class="cls-16" d="M462.86,568.85s-1.87,34.54-40.87,30l.27-3.69C457.33,599.12,459,569,459,569l3.85.1" transform="translate(-28.19 -175.41)"/><path class="cls-16" d="M457,569.11s-1.62,26.94-35.13,23.39l.24-2.88c30.13,3.1,31.58-20.38,31.58-20.38l3.31.07" transform="translate(-28.19 -175.41)"/><rect class="cls-2" x="400.47" y="314.25" width="3.44" height="54.67"/><rect class="cls-98" x="396.57" y="218.92" width="3.9" height="24.67"/><rect class="cls-98" x="401.18" y="186.92" width="5.04" height="20.34"/><path class="cls-21" d="M417.77,348V433s2.64.13,6.08.26h15.71V348Zm10.89,71h-3.9V394.33h3.9Zm5.75-36.33h-5V362.33h5Z" transform="translate(-28.19 -175.41)"/><rect class="cls-99" x="505.37" y="95.44" width="7.3" height="39.96"/><rect class="cls-99" x="512.57" y="94.29" width="3.41" height="27.68"/><path class="cls-100" d="M577.69,224.73a47.05,47.05,0,0,1-30.82,44.18,48.45,48.45,0,0,1-4.8,1.47l-.4.1V225.59a6,6,0,1,0-8.11,2.91v43.2c-.85.05-1.72.09-2.6.09h-.34a47.07,47.07,0,1,1,47.07-47.07Z" transform="translate(-28.19 -175.41)"/><path class="cls-99" d="M541.67,225.59v44.89a45.07,45.07,0,0,1-8.11,1.22V228.5a5.91,5.91,0,0,0,2.65.62A6,6,0,0,0,541.67,225.59Z" transform="translate(-28.19 -175.41)"/><rect class="cls-99" x="483.06" y="44.09" width="22.31" height="6.88"/><path class="cls-3" d="M542.67,223.34a6.53,6.53,0,1,1-6.52-6.53A6.52,6.52,0,0,1,542.67,223.34Z" transform="translate(-28.19 -175.41)"/><rect class="cls-99" x="451.46" y="76.42" width="7.79" height="61.17"/><rect class="cls-12" x="388.36" y="135.4" width="124.3" height="19.62"/><rect class="cls-11" x="65.27" y="418.13" width="21.89" height="2.93"/><rect class="cls-10" x="79.47" y="398.44" width="3.2" height="22.75"/><rect class="cls-10" x="70.47" y="398.44" width="3.2" height="22.7"/><rect class="cls-12" x="81.47" y="397.49" width="3.2" height="23.69"/><rect class="cls-12" x="72.47" y="397.49" width="3.2" height="23.69"/><rect class="cls-12" x="65.28" y="420.13" width="23.11" height="2.93"/><rect class="cls-10" x="65.3" y="381.62" width="36.74" height="10.92"/><rect class="cls-20" x="46.05" y="368.84" width="55.38" height="15.71"/></svg>