<svg id="Layer_1" data-name="Layer 1" xmlns="http://www.w3.org/2000/svg" xmlns:xlink="http://www.w3.org/1999/xlink" viewBox="0 0 336.27 419.74"><defs><style>.cls-1,.cls-2{fill:#a4a3aa;}.cls-1,.cls-10,.cls-11,.cls-12,.cls-13,.cls-14,.cls-15,.cls-16,.cls-17,.cls-18,.cls-19,.cls-20,.cls-21,.cls-22,.cls-23,.cls-24,.cls-25,.cls-26,.cls-27,.cls-28,.cls-29,.cls-3,.cls-30,.cls-31,.cls-32,.cls-33,.cls-34,.cls-35,.cls-36,.cls-37,.cls-38,.cls-39,.cls-4,.cls-40,.cls-41,.cls-42,.cls-43,.cls-44,.cls-45,.cls-46,.cls-47,.cls-48,.cls-49,.cls-50,.cls-51,.cls-52,.cls-53,.cls-54,.cls-58,.cls-59,.cls-6,.cls-7,.cls-8,.cls-9{stroke:#231f20;stroke-miterlimit:10;stroke-width:0.5px;}.cls-3,.cls-55,.cls-57,.cls-58,.cls-6,.cls-8{fill:#231f20;}.cls-3,.cls-57{opacity:0.7;}.cls-4{fill:#aba9af;}.cls-5,.cls-55,.cls-58{opacity:0.8;}.cls-7{fill:#d1d3d4;}.cls-60,.cls-8{opacity:0.9;}.cls-9{fill:none;}.cls-10{fill:#808285;}.cls-11{fill:#a7a9ac;}.cls-12{fill:#414042;}.cls-13{fill:url(#linear-gradient);}.cls-14{fill:url(#linear-gradient-2);}.cls-15{fill:url(#linear-gradient-3);}.cls-16{fill:url(#linear-gradient-4);}.cls-17{fill:url(#linear-gradient-5);}.cls-18{fill:url(#linear-gradient-6);}.cls-19{fill:url(#linear-gradient-7);}.cls-20{fill:url(#linear-gradient-8);}.cls-21{fill:url(#linear-gradient-9);}.cls-22{fill:url(#linear-gradient-10);}.cls-23{fill:url(#linear-gradient-11);}.cls-24{fill:url(#linear-gradient-12);}.cls-25{fill:url(#linear-gradient-13);}.cls-26{fill:url(#linear-gradient-14);}.cls-27{fill:url(#linear-gradient-15);}.cls-28{fill:url(#linear-gradient-16);}.cls-29{fill:url(#linear-gradient-17);}.cls-30{fill:url(#linear-gradient-18);}.cls-31{fill:url(#linear-gradient-19);}.cls-32{fill:url(#linear-gradient-20);}.cls-33{fill:url(#linear-gradient-21);}.cls-34{fill:url(#linear-gradient-22);}.cls-35{fill:url(#linear-gradient-23);}.cls-36{fill:url(#linear-gradient-24);}.cls-37{fill:url(#linear-gradient-25);}.cls-38{fill:url(#linear-gradient-26);}.cls-39{fill:url(#linear-gradient-27);}.cls-40{fill:url(#linear-gradient-28);}.cls-41{fill:url(#linear-gradient-29);}.cls-42{fill:url(#linear-gradient-30);}.cls-43{fill:url(#linear-gradient-31);}.cls-44{fill:url(#linear-gradient-32);}.cls-45{fill:url(#linear-gradient-33);}.cls-46{fill:url(#linear-gradient-34);}.cls-47{fill:url(#linear-gradient-35);}.cls-48{fill:url(#linear-gradient-36);}.cls-49{fill:url(#linear-gradient-37);}.cls-50{fill:url(#linear-gradient-38);}.cls-51{fill:url(#linear-gradient-39);}.cls-52{fill:url(#linear-gradient-40);}.cls-53{fill:url(#linear-gradient-41);}.cls-54{fill:url(#linear-gradient-42);}.cls-56{fill:#bcbec0;}.cls-59{fill:#e6e7e8;opacity:0.5;}.cls-60{fill:#fff;}</style><linearGradient id="linear-gradient" x1="148.66" y1="296.55" x2="175.22" y2="296.55" gradientUnits="userSpaceOnUse"><stop offset="0.05" stop-color="#231f20"/><stop offset="1" stop-color="#6d6e71"/></linearGradient><linearGradient id="linear-gradient-2" x1="150.2" y1="258.74" x2="172.95" y2="258.74" gradientUnits="userSpaceOnUse"><stop offset="0.13" stop-color="#231f20"/><stop offset="0.26" stop-color="#262223"/><stop offset="0.34" stop-color="#2e2a2b"/><stop offset="0.41" stop-color="#3c393a"/><stop offset="0.47" stop-color="#504e4f"/><stop offset="0.53" stop-color="#6a696a"/><stop offset="0.58" stop-color="#8a8a8b"/><stop offset="0.63" stop-color="#afb0b2"/><stop offset="0.65" stop-color="#bcbec0"/><stop offset="0.68" stop-color="#a3a5a7"/><stop offset="0.73" stop-color="#888a8c"/><stop offset="0.78" stop-color="#737476"/><stop offset="0.84" stop-color="#646567"/><stop offset="0.9" stop-color="#5b5c5e"/><stop offset="1" stop-color="#58595b"/></linearGradient><linearGradient id="linear-gradient-3" x1="150.2" y1="254.2" x2="172.95" y2="254.2" xlink:href="#linear-gradient-2"/><linearGradient id="linear-gradient-4" x1="150.2" y1="244.74" x2="172.95" y2="244.74" xlink:href="#linear-gradient-2"/><linearGradient id="linear-gradient-5" x1="150.2" y1="249.74" x2="172.95" y2="249.74" xlink:href="#linear-gradient-2"/><linearGradient id="linear-gradient-6" x1="150.2" y1="277.74" x2="172.95" y2="277.74" gradientUnits="userSpaceOnUse"><stop offset="0.13" stop-color="#231f20" stop-opacity="0.96"/><stop offset="0.25" stop-color="#252223" stop-opacity="0.96"/><stop offset="0.32" stop-color="#2d2a2c" stop-opacity="0.96"/><stop offset="0.39" stop-color="#3b393b" stop-opacity="0.96"/><stop offset="0.44" stop-color="#4d4d4f" stop-opacity="0.96"/><stop offset="0.47" stop-color="#525254" stop-opacity="0.97"/><stop offset="0.51" stop-color="#606062" stop-opacity="0.97"/><stop offset="0.56" stop-color="#78787a" stop-opacity="0.98"/><stop offset="0.61" stop-color="#98999b" stop-opacity="0.99"/><stop offset="0.65" stop-color="#bcbec0"/><stop offset="0.68" stop-color="#a3a5a7"/><stop offset="0.73" stop-color="#888a8c"/><stop offset="0.78" stop-color="#737476"/><stop offset="0.84" stop-color="#646567"/><stop offset="0.9" stop-color="#5b5c5e"/><stop offset="1" stop-color="#58595b"/></linearGradient><linearGradient id="linear-gradient-7" x1="150.2" y1="273.2" x2="172.95" y2="273.2" xlink:href="#linear-gradient-2"/><linearGradient id="linear-gradient-8" x1="150.2" y1="263.74" x2="172.95" y2="263.74" xlink:href="#linear-gradient-2"/><linearGradient id="linear-gradient-9" x1="150.2" y1="268.74" x2="172.95" y2="268.74" xlink:href="#linear-gradient-2"/><linearGradient id="linear-gradient-10" x1="150.2" y1="296.74" x2="172.95" y2="296.74" xlink:href="#linear-gradient-6"/><linearGradient id="linear-gradient-11" x1="150.2" y1="292.2" x2="172.95" y2="292.2" xlink:href="#linear-gradient-2"/><linearGradient id="linear-gradient-12" x1="150.2" y1="282.74" x2="172.95" y2="282.74" xlink:href="#linear-gradient-2"/><linearGradient id="linear-gradient-13" x1="150.2" y1="287.74" x2="172.95" y2="287.74" xlink:href="#linear-gradient-2"/><linearGradient id="linear-gradient-14" x1="153.84" y1="239.26" x2="168.24" y2="239.26" gradientUnits="userSpaceOnUse"><stop offset="0" stop-color="#231f20"/><stop offset="1" stop-color="#6d6e71"/></linearGradient><linearGradient id="linear-gradient-15" x1="239.62" y1="296.69" x2="266.18" y2="296.69" xlink:href="#linear-gradient"/><linearGradient id="linear-gradient-16" x1="241.16" y1="258.88" x2="263.91" y2="258.88" xlink:href="#linear-gradient-2"/><linearGradient id="linear-gradient-17" x1="241.16" y1="254.33" x2="263.91" y2="254.33" xlink:href="#linear-gradient-2"/><linearGradient id="linear-gradient-18" x1="241.16" y1="244.88" x2="263.91" y2="244.88" xlink:href="#linear-gradient-2"/><linearGradient id="linear-gradient-19" x1="241.16" y1="249.88" x2="263.91" y2="249.88" xlink:href="#linear-gradient-2"/><linearGradient id="linear-gradient-20" x1="241.16" y1="277.88" x2="263.91" y2="277.88" xlink:href="#linear-gradient-6"/><linearGradient id="linear-gradient-21" x1="241.16" y1="273.33" x2="263.91" y2="273.33" xlink:href="#linear-gradient-2"/><linearGradient id="linear-gradient-22" x1="241.16" y1="263.88" x2="263.91" y2="263.88" xlink:href="#linear-gradient-2"/><linearGradient id="linear-gradient-23" x1="241.16" y1="268.88" x2="263.91" y2="268.88" xlink:href="#linear-gradient-2"/><linearGradient id="linear-gradient-24" x1="241.16" y1="296.88" x2="263.91" y2="296.88" xlink:href="#linear-gradient-6"/><linearGradient id="linear-gradient-25" x1="241.16" y1="292.33" x2="263.91" y2="292.33" xlink:href="#linear-gradient-2"/><linearGradient id="linear-gradient-26" x1="241.16" y1="282.88" x2="263.91" y2="282.88" xlink:href="#linear-gradient-2"/><linearGradient id="linear-gradient-27" x1="241.16" y1="287.88" x2="263.91" y2="287.88" xlink:href="#linear-gradient-2"/><linearGradient id="linear-gradient-28" x1="244.81" y1="239.4" x2="259.2" y2="239.4" xlink:href="#linear-gradient-14"/><linearGradient id="linear-gradient-29" x1="334.85" y1="296.92" x2="361.41" y2="296.92" xlink:href="#linear-gradient"/><linearGradient id="linear-gradient-30" x1="336.39" y1="259.11" x2="359.14" y2="259.11" xlink:href="#linear-gradient-2"/><linearGradient id="linear-gradient-31" x1="336.39" y1="254.57" x2="359.14" y2="254.57" xlink:href="#linear-gradient-2"/><linearGradient id="linear-gradient-32" x1="336.39" y1="245.11" x2="359.14" y2="245.11" xlink:href="#linear-gradient-2"/><linearGradient id="linear-gradient-33" x1="336.39" y1="250.11" x2="359.14" y2="250.11" xlink:href="#linear-gradient-2"/><linearGradient id="linear-gradient-34" x1="336.39" y1="278.11" x2="359.14" y2="278.11" xlink:href="#linear-gradient-6"/><linearGradient id="linear-gradient-35" x1="336.39" y1="273.57" x2="359.14" y2="273.57" xlink:href="#linear-gradient-2"/><linearGradient id="linear-gradient-36" x1="336.39" y1="264.11" x2="359.14" y2="264.11" xlink:href="#linear-gradient-2"/><linearGradient id="linear-gradient-37" x1="336.39" y1="269.11" x2="359.14" y2="269.11" xlink:href="#linear-gradient-2"/><linearGradient id="linear-gradient-38" x1="336.39" y1="297.11" x2="359.14" y2="297.11" xlink:href="#linear-gradient-6"/><linearGradient id="linear-gradient-39" x1="336.39" y1="292.57" x2="359.14" y2="292.57" xlink:href="#linear-gradient-2"/><linearGradient id="linear-gradient-40" x1="336.39" y1="283.11" x2="359.14" y2="283.11" xlink:href="#linear-gradient-2"/><linearGradient id="linear-gradient-41" x1="336.39" y1="288.11" x2="359.14" y2="288.11" xlink:href="#linear-gradient-2"/><linearGradient id="linear-gradient-42" x1="340.03" y1="239.63" x2="354.43" y2="239.63" xlink:href="#linear-gradient-14"/></defs><title>Transformer2</title><rect class="cls-1" x="62.86" y="81.82" width="34.47" height="8.73"/><polygon class="cls-2" points="11.63 97.46 7.98 95.2 5.15 92.94 11.63 92.94 11.63 97.46"/><rect class="cls-1" x="11.62" y="91.47" width="324.3" height="320.54"/><polygon class="cls-3" points="335.92 405.39 11.63 405.39 9.4 415.01 332.7 415.01 335.92 405.39"/><rect class="cls-4" x="60.03" y="401.39" width="27.16" height="18.11"/><rect class="cls-4" x="273.37" y="401.39" width="27.16" height="18.11"/><rect class="cls-1" x="11.63" y="401.39" width="324.29" height="9.62"/><g class="cls-5"><rect class="cls-6" x="97.08" y="352.53" width="8.57" height="54.32"/><rect class="cls-6" x="238.12" y="352.53" width="8.58" height="54.32"/></g><rect class="cls-4" x="101.08" y="354.53" width="8.57" height="54.32"/><rect class="cls-4" x="242.12" y="354.53" width="8.58" height="54.32"/><polygon class="cls-7" points="335.92 373.16 335.92 378.49 326.02 378.49 326.02 347.33 329.49 347.33 329.49 373.16 335.92 373.16"/><rect class="cls-8" x="329.49" y="347.34" width="6.43" height="25.83"/><path class="cls-9" d="M41,250.8" transform="translate(-81.85 -220.34)"/><path class="cls-9" d="M44.59,235.67" transform="translate(-81.85 -220.34)"/><path class="cls-9" d="M47.07,249.2" transform="translate(-81.85 -220.34)"/><path class="cls-9" d="M48.21,241.27" transform="translate(-81.85 -220.34)"/><path class="cls-9" d="M49.39,244.72" transform="translate(-81.85 -220.34)"/><path class="cls-9" d="M53,250.32" transform="translate(-81.85 -220.34)"/><rect class="cls-1" x="0.25" y="89.39" width="62.97" height="4.93"/><polygon class="cls-10" points="279.16 87 279.16 91.09 253.39 91.09 253.39 87 257.27 87 257.27 82.6 259.82 82.6 259.82 79.04 272.73 79.04 272.73 82.6 275.29 82.6 275.29 87 279.16 87"/><rect class="cls-1" x="68.43" y="79.07" width="23.33" height="3.45"/><rect class="cls-10" x="284.75" y="79.21" width="14.2" height="11.26"/><path class="cls-11" d="M417.77,293.65v17.16H390.21C394.63,301.34,405.26,294,417.77,293.65Z" transform="translate(-81.85 -220.34)"/><path class="cls-10" d="M163.7,235.79a1.76,1.76,0,0,1-1.76,1.76h0a1.76,1.76,0,0,1-1.77-1.76V222.35a1.76,1.76,0,0,1,1.77-1.76h0a1.76,1.76,0,0,1,1.76,1.76Z" transform="translate(-81.85 -220.34)"/><path class="cls-12" d="M171.17,234.2c0,2-4.13,3.66-9.23,3.66s-9.23-1.64-9.23-3.66,4.13-3.66,9.23-3.66S171.17,232.18,171.17,234.2Z" transform="translate(-81.85 -220.34)"/><path class="cls-13" d="M175.22,296.14c0,1.83-5.95,3.31-13.28,3.31s-13.28-1.48-13.28-3.31c0-1,1.75-1.88,4.51-2.48h0a45,45,0,0,0,17.51,0h0C173.47,294.26,175.22,295.15,175.22,296.14Z" transform="translate(-81.85 -220.34)"/><path class="cls-14" d="M175.22,258.33c0,1-1.64,1.82-4.24,2.43a46.87,46.87,0,0,1-18.08,0c-2.61-.61-4.24-1.47-4.24-2.43s1.74-1.88,4.51-2.48a45.1,45.1,0,0,0,17.53,0C173.47,256.45,175.22,257.34,175.22,258.33Z" transform="translate(-81.85 -220.34)"/><path class="cls-15" d="M175.22,253.79c0,1-1.64,1.82-4.24,2.42a46.87,46.87,0,0,1-18.08,0c-2.61-.6-4.24-1.46-4.24-2.42s1.74-1.88,4.51-2.48a45.62,45.62,0,0,0,17.53,0C173.47,251.91,175.22,252.8,175.22,253.79Z" transform="translate(-81.85 -220.34)"/><path class="cls-16" d="M175.22,244.33c0,1-1.64,1.82-4.24,2.43a46.87,46.87,0,0,1-18.08,0c-2.61-.61-4.24-1.47-4.24-2.43s1.74-1.88,4.51-2.48a45.1,45.1,0,0,0,17.53,0C173.47,242.45,175.22,243.34,175.22,244.33Z" transform="translate(-81.85 -220.34)"/><path class="cls-17" d="M175.22,249.33c0,1-1.64,1.82-4.24,2.43a46.87,46.87,0,0,1-18.08,0c-2.61-.61-4.24-1.47-4.24-2.43s1.74-1.88,4.51-2.48a45.1,45.1,0,0,0,17.53,0C173.47,247.45,175.22,248.34,175.22,249.33Z" transform="translate(-81.85 -220.34)"/><path class="cls-18" d="M175.22,277.33c0,1-1.64,1.82-4.24,2.43a46.87,46.87,0,0,1-18.08,0c-2.61-.61-4.24-1.47-4.24-2.43s1.74-1.88,4.51-2.48a45.1,45.1,0,0,0,17.53,0C173.47,275.45,175.22,276.34,175.22,277.33Z" transform="translate(-81.85 -220.34)"/><path class="cls-19" d="M175.22,272.79c0,1-1.64,1.82-4.24,2.42a46.87,46.87,0,0,1-18.08,0c-2.61-.6-4.24-1.46-4.24-2.42s1.74-1.88,4.51-2.48a45.62,45.62,0,0,0,17.53,0C173.47,270.91,175.22,271.8,175.22,272.79Z" transform="translate(-81.85 -220.34)"/><path class="cls-20" d="M175.22,263.33c0,1-1.64,1.82-4.24,2.43a46.87,46.87,0,0,1-18.08,0c-2.61-.61-4.24-1.47-4.24-2.43s1.74-1.88,4.51-2.48a45.1,45.1,0,0,0,17.53,0C173.47,261.45,175.22,262.34,175.22,263.33Z" transform="translate(-81.85 -220.34)"/><path class="cls-21" d="M175.22,268.33c0,1-1.64,1.82-4.24,2.43a46.87,46.87,0,0,1-18.08,0c-2.61-.61-4.24-1.47-4.24-2.43s1.74-1.88,4.51-2.48a45.1,45.1,0,0,0,17.53,0C173.47,266.45,175.22,267.34,175.22,268.33Z" transform="translate(-81.85 -220.34)"/><path class="cls-22" d="M175.22,296.33c0,1-1.64,1.82-4.24,2.43a46.87,46.87,0,0,1-18.08,0c-2.61-.61-4.24-1.47-4.24-2.43s1.74-1.88,4.51-2.48a45.1,45.1,0,0,0,17.53,0C173.47,294.45,175.22,295.34,175.22,296.33Z" transform="translate(-81.85 -220.34)"/><path class="cls-23" d="M175.22,291.79c0,1-1.64,1.82-4.24,2.42a46.87,46.87,0,0,1-18.08,0c-2.61-.6-4.24-1.46-4.24-2.42s1.74-1.88,4.51-2.48a45.62,45.62,0,0,0,17.53,0C173.47,289.91,175.22,290.8,175.22,291.79Z" transform="translate(-81.85 -220.34)"/><path class="cls-24" d="M175.22,282.33c0,1-1.64,1.82-4.24,2.43a46.87,46.87,0,0,1-18.08,0c-2.61-.61-4.24-1.47-4.24-2.43s1.74-1.88,4.51-2.48a45.1,45.1,0,0,0,17.53,0C173.47,280.45,175.22,281.34,175.22,282.33Z" transform="translate(-81.85 -220.34)"/><path class="cls-25" d="M175.22,287.33c0,1-1.64,1.82-4.24,2.43a46.87,46.87,0,0,1-18.08,0c-2.61-.61-4.24-1.47-4.24-2.43s1.74-1.88,4.51-2.48a45.1,45.1,0,0,0,17.53,0C173.47,285.45,175.22,286.34,175.22,287.33Z" transform="translate(-81.85 -220.34)"/><path class="cls-26" d="M175.22,239.27c0,1-1.75,1.95-4.52,2.58a45.1,45.1,0,0,1-17.53,0c-2.77-.63-4.51-1.56-4.51-2.58,0-1.9,6-3.45,13.28-3.45S175.22,237.37,175.22,239.27Z" transform="translate(-81.85 -220.34)"/><polygon class="cls-10" points="181.49 84.27 181.49 91.31 160.62 91.31 160.62 84.27 164.11 84.27 164.11 77.54 178 77.54 178 84.27 181.49 84.27"/><path class="cls-10" d="M254.67,235.92a1.77,1.77,0,0,1-1.77,1.77h0a1.76,1.76,0,0,1-1.76-1.77V222.48a1.76,1.76,0,0,1,1.76-1.76h0a1.76,1.76,0,0,1,1.77,1.76Z" transform="translate(-81.85 -220.34)"/><path class="cls-12" d="M262.13,234.33c0,2-4.13,3.66-9.23,3.66s-9.23-1.64-9.23-3.66,4.14-3.66,9.23-3.66S262.13,232.31,262.13,234.33Z" transform="translate(-81.85 -220.34)"/><path class="cls-27" d="M266.18,296.27c0,1.83-5.95,3.31-13.28,3.31s-13.28-1.48-13.28-3.31c0-1,1.75-1.87,4.52-2.48h0a45,45,0,0,0,17.51,0h0C264.43,294.4,266.18,295.28,266.18,296.27Z" transform="translate(-81.85 -220.34)"/><path class="cls-28" d="M266.18,258.46c0,1-1.63,1.82-4.24,2.43a46.82,46.82,0,0,1-18.07,0c-2.61-.61-4.25-1.47-4.25-2.43s1.75-1.88,4.52-2.48a45.1,45.1,0,0,0,17.53,0C264.44,256.58,266.18,257.47,266.18,258.46Z" transform="translate(-81.85 -220.34)"/><path class="cls-29" d="M266.18,253.92c0,1-1.63,1.82-4.24,2.42a46.31,46.31,0,0,1-18.07,0c-2.61-.6-4.25-1.46-4.25-2.42s1.75-1.88,4.52-2.48a45.62,45.62,0,0,0,17.53,0C264.44,252,266.18,252.93,266.18,253.92Z" transform="translate(-81.85 -220.34)"/><path class="cls-30" d="M266.18,244.46c0,1-1.63,1.82-4.24,2.43a46.82,46.82,0,0,1-18.07,0c-2.61-.61-4.25-1.47-4.25-2.43s1.75-1.88,4.52-2.48a45.1,45.1,0,0,0,17.53,0C264.44,242.58,266.18,243.47,266.18,244.46Z" transform="translate(-81.85 -220.34)"/><path class="cls-31" d="M266.18,249.46c0,1-1.63,1.82-4.24,2.43a46.82,46.82,0,0,1-18.07,0c-2.61-.61-4.25-1.47-4.25-2.43s1.75-1.88,4.52-2.48a45.1,45.1,0,0,0,17.53,0C264.44,247.58,266.18,248.47,266.18,249.46Z" transform="translate(-81.85 -220.34)"/><path class="cls-32" d="M266.18,277.46c0,1-1.63,1.82-4.24,2.43a46.82,46.82,0,0,1-18.07,0c-2.61-.61-4.25-1.47-4.25-2.43s1.75-1.88,4.52-2.48a45.1,45.1,0,0,0,17.53,0C264.44,275.58,266.18,276.47,266.18,277.46Z" transform="translate(-81.85 -220.34)"/><path class="cls-33" d="M266.18,272.92c0,1-1.63,1.82-4.24,2.42a46.31,46.31,0,0,1-18.07,0c-2.61-.6-4.25-1.46-4.25-2.42s1.75-1.88,4.52-2.48a45.62,45.62,0,0,0,17.53,0C264.44,271,266.18,271.93,266.18,272.92Z" transform="translate(-81.85 -220.34)"/><path class="cls-34" d="M266.18,263.46c0,1-1.63,1.82-4.24,2.43a46.82,46.82,0,0,1-18.07,0c-2.61-.61-4.25-1.47-4.25-2.43s1.75-1.88,4.52-2.48a45.1,45.1,0,0,0,17.53,0C264.44,261.58,266.18,262.47,266.18,263.46Z" transform="translate(-81.85 -220.34)"/><path class="cls-35" d="M266.18,268.46c0,1-1.63,1.82-4.24,2.43a46.82,46.82,0,0,1-18.07,0c-2.61-.61-4.25-1.47-4.25-2.43s1.75-1.88,4.52-2.48a45.1,45.1,0,0,0,17.53,0C264.44,266.58,266.18,267.47,266.18,268.46Z" transform="translate(-81.85 -220.34)"/><path class="cls-36" d="M266.18,296.46c0,1-1.63,1.82-4.24,2.43a46.82,46.82,0,0,1-18.07,0c-2.61-.61-4.25-1.47-4.25-2.43s1.75-1.88,4.52-2.48a45.1,45.1,0,0,0,17.53,0C264.44,294.58,266.18,295.47,266.18,296.46Z" transform="translate(-81.85 -220.34)"/><path class="cls-37" d="M266.18,291.92c0,1-1.63,1.82-4.24,2.42a46.31,46.31,0,0,1-18.07,0c-2.61-.6-4.25-1.46-4.25-2.42s1.75-1.88,4.52-2.48a45.62,45.62,0,0,0,17.53,0C264.44,290,266.18,290.93,266.18,291.92Z" transform="translate(-81.85 -220.34)"/><path class="cls-38" d="M266.18,282.46c0,1-1.63,1.82-4.24,2.43a46.82,46.82,0,0,1-18.07,0c-2.61-.61-4.25-1.47-4.25-2.43s1.75-1.88,4.52-2.48a45.1,45.1,0,0,0,17.53,0C264.44,280.58,266.18,281.47,266.18,282.46Z" transform="translate(-81.85 -220.34)"/><path class="cls-39" d="M266.18,287.46c0,1-1.63,1.82-4.24,2.43a46.82,46.82,0,0,1-18.07,0c-2.61-.61-4.25-1.47-4.25-2.43s1.75-1.88,4.52-2.48a45.1,45.1,0,0,0,17.53,0C264.44,285.58,266.18,286.47,266.18,287.46Z" transform="translate(-81.85 -220.34)"/><path class="cls-40" d="M266.18,239.4c0,1-1.74,1.95-4.51,2.58a45.1,45.1,0,0,1-17.53,0c-2.77-.63-4.52-1.55-4.52-2.58,0-1.9,5.95-3.45,13.28-3.45S266.18,237.5,266.18,239.4Z" transform="translate(-81.85 -220.34)"/><path class="cls-10" d="M349.89,236.16a1.76,1.76,0,0,1-1.76,1.76h0a1.76,1.76,0,0,1-1.77-1.76V222.72a1.76,1.76,0,0,1,1.77-1.76h0a1.76,1.76,0,0,1,1.76,1.76Z" transform="translate(-81.85 -220.34)"/><path class="cls-12" d="M357.36,234.57c0,2-4.14,3.66-9.23,3.66s-9.23-1.64-9.23-3.66,4.13-3.66,9.23-3.66S357.36,232.55,357.36,234.57Z" transform="translate(-81.85 -220.34)"/><path class="cls-41" d="M361.41,296.51c0,1.82-6,3.31-13.28,3.31s-13.28-1.49-13.28-3.31c0-1,1.75-1.88,4.52-2.48h0a45,45,0,0,0,17.51,0h0C359.66,294.63,361.41,295.52,361.41,296.51Z" transform="translate(-81.85 -220.34)"/><path class="cls-42" d="M361.41,258.7c0,1-1.64,1.82-4.24,2.42a46.36,46.36,0,0,1-18.08,0c-2.61-.6-4.24-1.46-4.24-2.42s1.74-1.88,4.51-2.48a45.1,45.1,0,0,0,17.53,0C359.66,256.82,361.41,257.71,361.41,258.7Z" transform="translate(-81.85 -220.34)"/><path class="cls-43" d="M361.41,254.16c0,1-1.64,1.82-4.24,2.42a46.87,46.87,0,0,1-18.08,0c-2.61-.6-4.24-1.47-4.24-2.42s1.74-1.88,4.51-2.49a45.1,45.1,0,0,0,17.53,0C359.66,252.28,361.41,253.17,361.41,254.16Z" transform="translate(-81.85 -220.34)"/><path class="cls-44" d="M361.41,244.7c0,1-1.64,1.82-4.24,2.42a46.36,46.36,0,0,1-18.08,0c-2.61-.6-4.24-1.46-4.24-2.42s1.74-1.88,4.51-2.48a45.1,45.1,0,0,0,17.53,0C359.66,242.82,361.41,243.71,361.41,244.7Z" transform="translate(-81.85 -220.34)"/><path class="cls-45" d="M361.41,249.7c0,1-1.64,1.82-4.24,2.42a46.36,46.36,0,0,1-18.08,0c-2.61-.6-4.24-1.46-4.24-2.42s1.74-1.88,4.51-2.48a45.1,45.1,0,0,0,17.53,0C359.66,247.82,361.41,248.71,361.41,249.7Z" transform="translate(-81.85 -220.34)"/><path class="cls-46" d="M361.41,277.7c0,1-1.64,1.82-4.24,2.42a46.36,46.36,0,0,1-18.08,0c-2.61-.6-4.24-1.46-4.24-2.42s1.74-1.88,4.51-2.48a45.1,45.1,0,0,0,17.53,0C359.66,275.82,361.41,276.71,361.41,277.7Z" transform="translate(-81.85 -220.34)"/><path class="cls-47" d="M361.41,273.16c0,.95-1.64,1.82-4.24,2.42a46.87,46.87,0,0,1-18.08,0c-2.61-.6-4.24-1.47-4.24-2.42s1.74-1.88,4.51-2.49a45.1,45.1,0,0,0,17.53,0C359.66,271.28,361.41,272.17,361.41,273.16Z" transform="translate(-81.85 -220.34)"/><path class="cls-48" d="M361.41,263.7c0,1-1.64,1.82-4.24,2.42a46.36,46.36,0,0,1-18.08,0c-2.61-.6-4.24-1.46-4.24-2.42s1.74-1.88,4.51-2.48a45.1,45.1,0,0,0,17.53,0C359.66,261.82,361.41,262.71,361.41,263.7Z" transform="translate(-81.85 -220.34)"/><path class="cls-49" d="M361.41,268.7c0,1-1.64,1.82-4.24,2.42a46.36,46.36,0,0,1-18.08,0c-2.61-.6-4.24-1.46-4.24-2.42s1.74-1.88,4.51-2.48a45.1,45.1,0,0,0,17.53,0C359.66,266.82,361.41,267.71,361.41,268.7Z" transform="translate(-81.85 -220.34)"/><path class="cls-50" d="M361.41,296.7c0,1-1.64,1.82-4.24,2.42a46.36,46.36,0,0,1-18.08,0c-2.61-.6-4.24-1.46-4.24-2.42s1.74-1.88,4.51-2.48a45.1,45.1,0,0,0,17.53,0C359.66,294.82,361.41,295.71,361.41,296.7Z" transform="translate(-81.85 -220.34)"/><path class="cls-51" d="M361.41,292.16c0,.95-1.64,1.82-4.24,2.42a46.87,46.87,0,0,1-18.08,0c-2.61-.6-4.24-1.47-4.24-2.42s1.74-1.88,4.51-2.49a45.1,45.1,0,0,0,17.53,0C359.66,290.28,361.41,291.17,361.41,292.16Z" transform="translate(-81.85 -220.34)"/><path class="cls-52" d="M361.41,282.7c0,1-1.64,1.82-4.24,2.42a46.36,46.36,0,0,1-18.08,0c-2.61-.6-4.24-1.46-4.24-2.42s1.74-1.88,4.51-2.48a45.1,45.1,0,0,0,17.53,0C359.66,280.82,361.41,281.71,361.41,282.7Z" transform="translate(-81.85 -220.34)"/><path class="cls-53" d="M361.41,287.7c0,1-1.64,1.82-4.24,2.42a46.36,46.36,0,0,1-18.08,0c-2.61-.6-4.24-1.46-4.24-2.42s1.74-1.88,4.51-2.48a45.1,45.1,0,0,0,17.53,0C359.66,285.82,361.41,286.71,361.41,287.7Z" transform="translate(-81.85 -220.34)"/><path class="cls-54" d="M361.41,239.64c0,1-1.75,2-4.52,2.58a45.1,45.1,0,0,1-17.53,0c-2.77-.63-4.51-1.56-4.51-2.58,0-1.91,5.94-3.45,13.28-3.45S361.41,237.73,361.41,239.64Z" transform="translate(-81.85 -220.34)"/><rect class="cls-55" x="11.63" y="165.22" width="37.15" height="10.92"/><rect class="cls-55" x="11.64" y="248.46" width="36.74" height="10.92"/><rect class="cls-56" x="11.62" y="161.22" width="36.16" height="10.91"/><rect class="cls-56" x="11.62" y="243.99" width="36.16" height="9.92"/><rect class="cls-57" x="11.63" y="93" width="324.29" height="5.46"/><rect class="cls-2" x="11.63" y="90.47" width="324.29" height="3.47"/><rect class="cls-58" x="11.61" y="373.2" width="21.89" height="2.93"/><rect class="cls-55" x="25.81" y="353.5" width="3.2" height="22.75"/><rect class="cls-55" x="16.81" y="353.5" width="3.2" height="22.7"/><rect class="cls-1" x="27.81" y="352.56" width="3.2" height="23.69"/><rect class="cls-1" x="18.81" y="352.56" width="3.2" height="23.69"/><rect class="cls-1" x="11.62" y="375.2" width="23.11" height="2.93"/><rect class="cls-55" x="11.64" y="336.69" width="36.74" height="10.92"/><rect class="cls-56" x="11.62" y="323.9" width="36.16" height="15.71"/><rect class="cls-7" x="101.89" y="88.39" width="8.57" height="54.32"/><rect class="cls-7" x="242.93" y="88.39" width="8.57" height="54.32"/><path class="cls-6" d="M281.06,329.43s-9.33-2.29-19.31-3.62v-.35c0-8.64-5.3-15.65-11.85-15.65s-11.85,7-11.85,15.65c0,.12,0,.24,0,.35-10,1.33-19.31,3.62-19.31,3.62V573.86a112.05,112.05,0,0,0,19.32,4c0,.21,0,.41,0,.62,0,8.89,5.31,16.09,11.85,16.09s11.85-7.2,11.85-16.09c0-.21,0-.41,0-.62a112.34,112.34,0,0,0,19.32-4Z" transform="translate(-81.85 -220.34)"/><path class="cls-7" d="M287.06,330.43s-9.33-2.29-19.31-3.62v-.35c0-8.64-5.3-15.65-11.85-15.65s-11.85,7-11.85,15.65c0,.12,0,.24,0,.35-10,1.33-19.31,3.62-19.31,3.62V574.86a112.05,112.05,0,0,0,19.32,4c0,.21,0,.41,0,.62,0,8.89,5.31,16.09,11.85,16.09s11.85-7.2,11.85-16.09c0-.21,0-.41,0-.62a112.34,112.34,0,0,0,19.32-4Z" transform="translate(-81.85 -220.34)"/><rect class="cls-59" x="176.7" y="119.9" width="7.49" height="230.85"/><rect class="cls-59" x="190.53" y="119.9" width="7.41" height="230.85"/><rect class="cls-59" x="150.17" y="119.9" width="7.49" height="230.85"/><rect class="cls-59" x="163.99" y="119.9" width="7.42" height="230.85"/><path class="cls-6" d="M376.28,329.43S367,327.14,357,325.81c0-.11,0-.23,0-.35,0-8.64-5.31-15.65-11.85-15.65s-11.85,7-11.85,15.65c0,.12,0,.24,0,.35-10,1.33-19.31,3.62-19.31,3.62V573.86a112.07,112.07,0,0,0,19.31,4c0,.21,0,.41,0,.62,0,8.89,5.3,16.09,11.85,16.09S357,587.42,357,578.53c0-.21,0-.41,0-.62a112.05,112.05,0,0,0,19.32-4Z" transform="translate(-81.85 -220.34)"/><path class="cls-7" d="M382.28,330.43S373,328.14,363,326.81c0-.11,0-.23,0-.35,0-8.64-5.31-15.65-11.85-15.65s-11.85,7-11.85,15.65c0,.12,0,.24,0,.35-10,1.33-19.31,3.62-19.31,3.62V574.86a112.07,112.07,0,0,0,19.31,4c0,.21,0,.41,0,.62,0,8.89,5.3,16.09,11.85,16.09S363,588.42,363,579.53c0-.21,0-.41,0-.62a112.05,112.05,0,0,0,19.32-4Z" transform="translate(-81.85 -220.34)"/><rect class="cls-59" x="272.09" y="119.9" width="7.49" height="230.85"/><rect class="cls-59" x="285.92" y="119.9" width="7.41" height="230.85"/><rect class="cls-59" x="245.56" y="119.9" width="7.49" height="230.85"/><rect class="cls-59" x="259.38" y="119.9" width="7.42" height="230.85"/><path class="cls-6" d="M190.09,329.43s-9.33-2.29-19.31-3.62c0-.11,0-.23,0-.35,0-8.64-5.31-15.65-11.85-15.65s-11.85,7-11.85,15.65c0,.12,0,.24,0,.35-10,1.33-19.31,3.62-19.31,3.62V573.86a112.07,112.07,0,0,0,19.31,4c0,.21,0,.41,0,.62,0,8.89,5.3,16.09,11.85,16.09s11.85-7.2,11.85-16.09c0-.21,0-.41,0-.62a112.07,112.07,0,0,0,19.31-4Z" transform="translate(-81.85 -220.34)"/><path class="cls-7" d="M196.09,330.43s-9.33-2.29-19.31-3.62c0-.11,0-.23,0-.35,0-8.64-5.31-15.65-11.85-15.65s-11.85,7-11.85,15.65c0,.12,0,.24,0,.35-10,1.33-19.31,3.62-19.31,3.62V574.86a112.07,112.07,0,0,0,19.31,4c0,.21,0,.41,0,.62,0,8.89,5.3,16.09,11.85,16.09s11.85-7.2,11.85-16.09c0-.21,0-.41,0-.62a112.07,112.07,0,0,0,19.31-4Z" transform="translate(-81.85 -220.34)"/><rect class="cls-59" x="85.6" y="119.9" width="7.49" height="230.85"/><rect class="cls-59" x="99.42" y="119.9" width="7.42" height="230.85"/><rect class="cls-59" x="59.06" y="119.9" width="7.49" height="230.85"/><rect class="cls-59" x="72.89" y="119.9" width="7.42" height="230.85"/><rect class="cls-1" x="11.61" y="373.2" width="0.01" height="2.93"/><rect class="cls-57" x="322.63" y="332.06" width="13.52" height="7.06"/><rect class="cls-60" x="323.63" y="330.06" width="12.52" height="7.06"/></svg>