G04*
G04 #@! TF.GenerationSoftware,Altium Limited,Altium Designer,25.8.1 (18)*
G04*
G04 Layer_Color=16711935*
%FSLAX24Y24*%
%MOIN*%
G70*
G04*
G04 #@! TF.SameCoordinates,642ECA59-74B0-4D39-AD16-73E6623B2992*
G04*
G04*
G04 #@! TF.FilePolarity,Negative*
G04*
G01*
G75*
%ADD75R,0.0178X0.0166*%
%ADD91C,0.0787*%
%ADD94C,0.0454*%
%ADD113C,0.0611*%
%ADD114C,0.0651*%
%ADD115C,0.0217*%
%ADD141R,0.1714X0.1320*%
D75*
X3534Y872D02*
D03*
X3534Y1096D02*
D03*
X3770Y872D02*
D03*
Y1096D02*
D03*
D91*
X-4429Y3543D02*
D03*
X4016Y-955D02*
D03*
X-4429Y-3543D02*
D03*
D94*
X-4793Y1000D02*
D03*
X-4293Y-1000D02*
D03*
X-4793Y500D02*
D03*
X-4793Y0D02*
D03*
X-4293Y1000D02*
D03*
X-4293Y0D02*
D03*
X-4293Y-500D02*
D03*
X-4793Y-1000D02*
D03*
Y-500D02*
D03*
X-4293Y500D02*
D03*
D113*
X-4429Y-2756D02*
D03*
Y2756D02*
D03*
X-3642Y-3937D02*
D03*
Y-3150D02*
D03*
Y-2362D02*
D03*
Y-1575D02*
D03*
Y2362D02*
D03*
Y3150D02*
D03*
Y1575D02*
D03*
Y4724D02*
D03*
Y3937D02*
D03*
Y-787D02*
D03*
Y787D02*
D03*
Y0D02*
D03*
D114*
X-5118Y3150D02*
D03*
X-5512Y-1969D02*
D03*
X-1969Y-5512D02*
D03*
X4134Y3740D02*
D03*
X-5512Y1969D02*
D03*
X-4331Y-1969D02*
D03*
Y1969D02*
D03*
X-2776Y-4843D02*
D03*
X-1776D02*
D03*
X-3776D02*
D03*
D115*
X-5529Y3522D02*
D03*
X-5370Y3760D02*
D03*
X-4833Y4429D02*
D03*
X-5021Y4214D02*
D03*
X-5201Y3990D02*
D03*
X-5529Y-3522D02*
D03*
X-5370Y-3760D02*
D03*
X-4833Y-4429D02*
D03*
X-5021Y-4214D02*
D03*
X-5201Y-3990D02*
D03*
X5201D02*
D03*
X5021Y-4214D02*
D03*
X4833Y-4429D02*
D03*
X5370Y-3760D02*
D03*
X5529Y-3522D02*
D03*
X5201Y3990D02*
D03*
X5021Y4214D02*
D03*
X4833Y4429D02*
D03*
X5370Y3760D02*
D03*
X5529Y3522D02*
D03*
D141*
X0Y5768D02*
D03*
Y-5768D02*
D03*
M02*
