G04*
G04 #@! TF.GenerationSoftware,Altium Limited,Altium Designer,25.8.1 (18)*
G04*
G04 Layer_Physical_Order=2*
G04 Layer_Color=2130677*
%FSLAX24Y24*%
%MOIN*%
G70*
G04*
G04 #@! TF.SameCoordinates,642ECA59-74B0-4D39-AD16-73E6623B2992*
G04*
G04*
G04 #@! TF.FilePolarity,Positive*
G04*
G01*
G75*
%ADD118C,0.0394*%
%ADD134C,0.0551*%
%ADD135C,0.0591*%
%ADD137C,0.0197*%
G36*
X316Y6393D02*
X813Y6349D01*
X1305Y6266D01*
X1334Y6259D01*
X1355Y6214D01*
X764Y5056D01*
X3571Y3626D01*
X3752Y3981D01*
X3809Y3984D01*
X3897Y3897D01*
X3998Y3794D01*
X4096Y3688D01*
X4191Y3580D01*
X4283Y3469D01*
X4373Y3355D01*
X4459Y3240D01*
X4542Y3122D01*
X4623Y3002D01*
X4700Y2880D01*
X4773Y2756D01*
X4844Y2630D01*
X4911Y2502D01*
X4975Y2373D01*
X5035Y2242D01*
X5092Y2109D01*
X5146Y1975D01*
X5196Y1840D01*
X5242Y1703D01*
X5285Y1565D01*
X5324Y1427D01*
X5359Y1287D01*
X5391Y1146D01*
X5419Y1004D01*
X5444Y862D01*
X5465Y719D01*
X5482Y576D01*
X5495Y432D01*
X5504Y288D01*
X5510Y144D01*
X5512Y0D01*
X5510Y-144D01*
X5504Y-288D01*
X5495Y-432D01*
X5482Y-576D01*
X5465Y-719D01*
X5444Y-862D01*
X5419Y-1004D01*
X5391Y-1146D01*
X5359Y-1287D01*
X5324Y-1427D01*
X5285Y-1565D01*
X5242Y-1703D01*
X5196Y-1840D01*
X5146Y-1975D01*
X5092Y-2109D01*
X5035Y-2242D01*
X4975Y-2373D01*
X4911Y-2502D01*
X4844Y-2630D01*
X4773Y-2756D01*
X4700Y-2880D01*
X4623Y-3002D01*
X4542Y-3122D01*
X4459Y-3240D01*
X4373Y-3355D01*
X4283Y-3469D01*
X4191Y-3580D01*
X4096Y-3688D01*
X3998Y-3794D01*
X3897Y-3897D01*
X3809Y-3984D01*
X3752Y-3981D01*
X3571Y-3626D01*
X764Y-5056D01*
X1355Y-6214D01*
X1334Y-6259D01*
X1305Y-6266D01*
X813Y-6349D01*
X316Y-6393D01*
X-184Y-6398D01*
X-682Y-6364D01*
X-1176Y-6292D01*
X-1663Y-6181D01*
X-2139Y-6033D01*
X-2603Y-5847D01*
X-3051Y-5627D01*
X-3480Y-5372D01*
X-3888Y-5084D01*
X-4273Y-4766D01*
X-4631Y-4418D01*
X-4961Y-4044D01*
X-5262Y-3645D01*
X-5530Y-3223D01*
X-5764Y-2783D01*
X-5963Y-2325D01*
X-6126Y-1853D01*
X-6252Y-1370D01*
X-6268Y-1280D01*
X-6237Y-1242D01*
X-5236Y-1242D01*
X-5198Y-1234D01*
X-5165Y-1213D01*
X-5144Y-1180D01*
X-5136Y-1142D01*
Y-394D01*
X-5144Y-355D01*
X-5165Y-323D01*
X-5198Y-301D01*
X-5236Y-293D01*
X-6390D01*
X-6390Y-291D01*
X-6396Y-97D01*
X-6396Y97D01*
X-6390Y291D01*
X-6390Y293D01*
X-5236Y293D01*
X-5198Y301D01*
X-5165Y323D01*
X-5144Y355D01*
X-5136Y394D01*
Y1142D01*
X-5144Y1180D01*
X-5165Y1213D01*
X-5165Y1213D01*
X-5198Y1234D01*
X-5236Y1242D01*
X-6237Y1242D01*
X-6268Y1280D01*
X-6252Y1370D01*
X-6126Y1853D01*
X-5963Y2325D01*
X-5764Y2783D01*
X-5530Y3223D01*
X-5262Y3645D01*
X-4961Y4044D01*
X-4631Y4418D01*
X-4273Y4766D01*
X-3888Y5084D01*
X-3480Y5372D01*
X-3051Y5627D01*
X-2603Y5847D01*
X-2139Y6033D01*
X-1663Y6181D01*
X-1176Y6292D01*
X-682Y6364D01*
X-184Y6398D01*
X316Y6393D01*
D02*
G37*
G36*
X4370Y4676D02*
X4721Y4322D01*
X5044Y3940D01*
X5336Y3535D01*
X5595Y3109D01*
X5820Y2663D01*
X6010Y2201D01*
X6163Y1726D01*
X6279Y1241D01*
X6357Y747D01*
X6396Y250D01*
X6396Y-250D01*
X6357Y-747D01*
X6279Y-1241D01*
X6163Y-1726D01*
X6010Y-2201D01*
X5820Y-2663D01*
X5595Y-3109D01*
X5336Y-3535D01*
X5044Y-3941D01*
X4721Y-4322D01*
X4370Y-4677D01*
X4217Y-4809D01*
X4169Y-4799D01*
X3957Y-4384D01*
X3959Y-4382D01*
X4069Y-4281D01*
X4176Y-4176D01*
X4281Y-4069D01*
X4382Y-3959D01*
X4481Y-3847D01*
X4577Y-3732D01*
X4670Y-3615D01*
X4760Y-3496D01*
X4847Y-3374D01*
X4931Y-3250D01*
X5012Y-3124D01*
X5090Y-2996D01*
X5164Y-2866D01*
X5235Y-2734D01*
X5302Y-2601D01*
X5367Y-2466D01*
X5427Y-2329D01*
X5485Y-2191D01*
X5538Y-2051D01*
X5589Y-1910D01*
X5635Y-1768D01*
X5678Y-1625D01*
X5717Y-1480D01*
X5753Y-1335D01*
X5785Y-1189D01*
X5813Y-1042D01*
X5838Y-894D01*
X5859Y-746D01*
X5876Y-597D01*
X5889Y-448D01*
X5898Y-299D01*
X5904Y-150D01*
X5906Y0D01*
X5904Y150D01*
X5898Y299D01*
X5889Y448D01*
X5876Y597D01*
X5859Y746D01*
X5838Y894D01*
X5813Y1042D01*
X5785Y1189D01*
X5753Y1335D01*
X5717Y1480D01*
X5678Y1625D01*
X5635Y1768D01*
X5589Y1910D01*
X5538Y2051D01*
X5485Y2191D01*
X5427Y2329D01*
X5367Y2466D01*
X5302Y2601D01*
X5235Y2734D01*
X5164Y2866D01*
X5090Y2996D01*
X5012Y3124D01*
X4931Y3250D01*
X4847Y3374D01*
X4760Y3496D01*
X4670Y3615D01*
X4577Y3732D01*
X4481Y3847D01*
X4382Y3959D01*
X4281Y4069D01*
X4176Y4176D01*
X4069Y4281D01*
X3959Y4382D01*
X3957Y4384D01*
X4169Y4799D01*
X4217Y4809D01*
X4370Y4676D01*
D02*
G37*
%LPC*%
G36*
X-3642Y5059D02*
X-3675Y5058D01*
X-3707Y5053D01*
X-3739Y5045D01*
X-3770Y5034D01*
X-3800Y5020D01*
X-3828Y5003D01*
X-3854Y4983D01*
X-3879Y4961D01*
X-3901Y4937D01*
X-3920Y4911D01*
X-3937Y4882D01*
X-3951Y4853D01*
X-3962Y4822D01*
X-3970Y4790D01*
X-3975Y4757D01*
X-3977Y4724D01*
X-3975Y4692D01*
X-3970Y4659D01*
X-3962Y4627D01*
X-3951Y4596D01*
X-3937Y4566D01*
X-3920Y4538D01*
X-3901Y4512D01*
X-3879Y4487D01*
X-3854Y4465D01*
X-3828Y4446D01*
X-3800Y4429D01*
X-3770Y4415D01*
X-3739Y4404D01*
X-3707Y4396D01*
X-3675Y4391D01*
X-3642Y4389D01*
X-3609Y4391D01*
X-3576Y4396D01*
X-3544Y4404D01*
X-3514Y4415D01*
X-3484Y4429D01*
X-3456Y4446D01*
X-3429Y4465D01*
X-3405Y4487D01*
X-3383Y4512D01*
X-3363Y4538D01*
X-3346Y4566D01*
X-3332Y4596D01*
X-3321Y4627D01*
X-3313Y4659D01*
X-3308Y4692D01*
X-3307Y4724D01*
X-3308Y4757D01*
X-3313Y4790D01*
X-3321Y4822D01*
X-3332Y4853D01*
X-3346Y4882D01*
X-3363Y4911D01*
X-3383Y4937D01*
X-3405Y4961D01*
X-3429Y4983D01*
X-3456Y5003D01*
X-3484Y5020D01*
X-3514Y5034D01*
X-3544Y5045D01*
X-3576Y5053D01*
X-3609Y5058D01*
X-3642Y5059D01*
D02*
G37*
G36*
X787Y4331D02*
X763Y4329D01*
X739Y4323D01*
X716Y4314D01*
X695Y4301D01*
X676Y4285D01*
X660Y4266D01*
X647Y4245D01*
X637Y4222D01*
X631Y4198D01*
X629Y4173D01*
X631Y4149D01*
X637Y4124D01*
X647Y4102D01*
X660Y4080D01*
X676Y4062D01*
X695Y4045D01*
X716Y4032D01*
X739Y4023D01*
X763Y4017D01*
X787Y4015D01*
X812Y4017D01*
X836Y4023D01*
X859Y4032D01*
X880Y4045D01*
X899Y4062D01*
X915Y4080D01*
X928Y4102D01*
X938Y4124D01*
X943Y4149D01*
X945Y4173D01*
X943Y4198D01*
X938Y4222D01*
X928Y4245D01*
X915Y4266D01*
X899Y4285D01*
X880Y4301D01*
X859Y4314D01*
X836Y4323D01*
X812Y4329D01*
X787Y4331D01*
D02*
G37*
G36*
X1417Y4134D02*
X1393Y4132D01*
X1369Y4127D01*
X1346Y4117D01*
X1324Y4104D01*
X1306Y4088D01*
X1290Y4069D01*
X1277Y4048D01*
X1267Y4025D01*
X1261Y4001D01*
X1259Y3976D01*
X1261Y3952D01*
X1267Y3928D01*
X1277Y3905D01*
X1290Y3884D01*
X1306Y3865D01*
X1324Y3849D01*
X1346Y3836D01*
X1369Y3826D01*
X1393Y3820D01*
X1417Y3818D01*
X1442Y3820D01*
X1466Y3826D01*
X1489Y3836D01*
X1510Y3849D01*
X1529Y3865D01*
X1545Y3884D01*
X1558Y3905D01*
X1568Y3928D01*
X1573Y3952D01*
X1575Y3976D01*
X1573Y4001D01*
X1568Y4025D01*
X1558Y4048D01*
X1545Y4069D01*
X1529Y4088D01*
X1510Y4104D01*
X1489Y4117D01*
X1466Y4127D01*
X1442Y4132D01*
X1417Y4134D01*
D02*
G37*
G36*
X354Y3987D02*
X330Y3985D01*
X306Y3979D01*
X283Y3969D01*
X261Y3957D01*
X243Y3940D01*
X227Y3922D01*
X214Y3900D01*
X204Y3878D01*
X198Y3853D01*
X196Y3829D01*
X198Y3804D01*
X204Y3780D01*
X214Y3757D01*
X227Y3736D01*
X243Y3717D01*
X261Y3701D01*
X283Y3688D01*
X306Y3679D01*
X330Y3673D01*
X354Y3671D01*
X379Y3673D01*
X403Y3679D01*
X426Y3688D01*
X447Y3701D01*
X466Y3717D01*
X482Y3736D01*
X495Y3757D01*
X505Y3780D01*
X510Y3804D01*
X512Y3829D01*
X510Y3853D01*
X505Y3878D01*
X495Y3900D01*
X482Y3922D01*
X466Y3940D01*
X447Y3957D01*
X426Y3969D01*
X403Y3979D01*
X379Y3985D01*
X354Y3987D01*
D02*
G37*
G36*
X-3642Y4272D02*
X-3675Y4270D01*
X-3707Y4266D01*
X-3739Y4258D01*
X-3770Y4247D01*
X-3800Y4232D01*
X-3828Y4216D01*
X-3854Y4196D01*
X-3879Y4174D01*
X-3901Y4150D01*
X-3920Y4123D01*
X-3937Y4095D01*
X-3951Y4065D01*
X-3962Y4034D01*
X-3970Y4002D01*
X-3975Y3970D01*
X-3977Y3937D01*
X-3975Y3904D01*
X-3970Y3872D01*
X-3962Y3840D01*
X-3951Y3809D01*
X-3937Y3779D01*
X-3920Y3751D01*
X-3901Y3724D01*
X-3879Y3700D01*
X-3854Y3678D01*
X-3828Y3658D01*
X-3800Y3642D01*
X-3770Y3627D01*
X-3739Y3616D01*
X-3707Y3608D01*
X-3675Y3604D01*
X-3642Y3602D01*
X-3609Y3604D01*
X-3576Y3608D01*
X-3544Y3616D01*
X-3514Y3627D01*
X-3484Y3642D01*
X-3456Y3658D01*
X-3429Y3678D01*
X-3405Y3700D01*
X-3383Y3724D01*
X-3363Y3751D01*
X-3346Y3779D01*
X-3332Y3809D01*
X-3321Y3840D01*
X-3313Y3872D01*
X-3308Y3904D01*
X-3307Y3937D01*
X-3308Y3970D01*
X-3313Y4002D01*
X-3321Y4034D01*
X-3332Y4065D01*
X-3346Y4095D01*
X-3363Y4123D01*
X-3383Y4150D01*
X-3405Y4174D01*
X-3429Y4196D01*
X-3456Y4216D01*
X-3484Y4232D01*
X-3514Y4247D01*
X-3544Y4258D01*
X-3576Y4266D01*
X-3609Y4270D01*
X-3642Y4272D01*
D02*
G37*
G36*
X797Y3780D02*
X773Y3778D01*
X748Y3772D01*
X726Y3763D01*
X704Y3750D01*
X686Y3734D01*
X669Y3715D01*
X656Y3694D01*
X647Y3671D01*
X641Y3647D01*
X639Y3622D01*
X641Y3597D01*
X647Y3573D01*
X656Y3550D01*
X669Y3529D01*
X686Y3510D01*
X704Y3494D01*
X726Y3481D01*
X748Y3472D01*
X773Y3466D01*
X797Y3464D01*
X822Y3466D01*
X846Y3472D01*
X869Y3481D01*
X890Y3494D01*
X909Y3510D01*
X925Y3529D01*
X938Y3550D01*
X947Y3573D01*
X953Y3597D01*
X955Y3622D01*
X953Y3647D01*
X947Y3671D01*
X938Y3694D01*
X925Y3715D01*
X909Y3734D01*
X890Y3750D01*
X869Y3763D01*
X846Y3772D01*
X822Y3778D01*
X797Y3780D01*
D02*
G37*
G36*
X1565Y3554D02*
X1540Y3552D01*
X1516Y3546D01*
X1493Y3536D01*
X1472Y3523D01*
X1453Y3507D01*
X1437Y3489D01*
X1424Y3467D01*
X1415Y3444D01*
X1409Y3420D01*
X1407Y3396D01*
X1409Y3371D01*
X1415Y3347D01*
X1424Y3324D01*
X1437Y3303D01*
X1453Y3284D01*
X1472Y3268D01*
X1493Y3255D01*
X1516Y3245D01*
X1540Y3240D01*
X1565Y3238D01*
X1590Y3240D01*
X1614Y3245D01*
X1637Y3255D01*
X1658Y3268D01*
X1677Y3284D01*
X1693Y3303D01*
X1706Y3324D01*
X1715Y3347D01*
X1721Y3371D01*
X1723Y3396D01*
X1721Y3420D01*
X1715Y3444D01*
X1706Y3467D01*
X1693Y3489D01*
X1677Y3507D01*
X1658Y3523D01*
X1637Y3536D01*
X1614Y3546D01*
X1590Y3552D01*
X1565Y3554D01*
D02*
G37*
G36*
X3573Y3288D02*
X3548Y3286D01*
X3524Y3280D01*
X3501Y3271D01*
X3480Y3258D01*
X3461Y3242D01*
X3445Y3223D01*
X3432Y3202D01*
X3423Y3179D01*
X3417Y3155D01*
X3415Y3130D01*
X3417Y3105D01*
X3423Y3081D01*
X3432Y3058D01*
X3445Y3037D01*
X3461Y3018D01*
X3480Y3002D01*
X3501Y2989D01*
X3524Y2980D01*
X3548Y2974D01*
X3573Y2972D01*
X3598Y2974D01*
X3622Y2980D01*
X3645Y2989D01*
X3666Y3002D01*
X3685Y3018D01*
X3701Y3037D01*
X3714Y3058D01*
X3723Y3081D01*
X3729Y3105D01*
X3731Y3130D01*
X3729Y3155D01*
X3723Y3179D01*
X3714Y3202D01*
X3701Y3223D01*
X3685Y3242D01*
X3666Y3258D01*
X3645Y3271D01*
X3622Y3280D01*
X3598Y3286D01*
X3573Y3288D01*
D02*
G37*
G36*
X2648Y3278D02*
X2623Y3276D01*
X2599Y3270D01*
X2576Y3261D01*
X2555Y3248D01*
X2536Y3232D01*
X2520Y3213D01*
X2507Y3192D01*
X2497Y3169D01*
X2492Y3145D01*
X2490Y3120D01*
X2492Y3095D01*
X2497Y3071D01*
X2507Y3048D01*
X2520Y3027D01*
X2536Y3008D01*
X2555Y2992D01*
X2576Y2979D01*
X2599Y2970D01*
X2623Y2964D01*
X2648Y2962D01*
X2672Y2964D01*
X2696Y2970D01*
X2719Y2979D01*
X2740Y2992D01*
X2751Y3001D01*
X2765Y3008D01*
X2810Y3005D01*
X2816Y3001D01*
X2830Y2988D01*
X2852Y2975D01*
X2874Y2966D01*
X2899Y2960D01*
X2923Y2958D01*
X2948Y2960D01*
X2972Y2966D01*
X2995Y2975D01*
X3016Y2988D01*
X3035Y3004D01*
X3051Y3023D01*
X3064Y3044D01*
X3073Y3067D01*
X3079Y3091D01*
X3081Y3116D01*
X3079Y3141D01*
X3073Y3165D01*
X3064Y3188D01*
X3051Y3209D01*
X3035Y3228D01*
X3016Y3244D01*
X2995Y3257D01*
X2972Y3266D01*
X2948Y3272D01*
X2923Y3274D01*
X2899Y3272D01*
X2874Y3266D01*
X2852Y3257D01*
X2830Y3244D01*
X2820Y3235D01*
X2806Y3228D01*
X2761Y3232D01*
X2755Y3236D01*
X2740Y3248D01*
X2719Y3261D01*
X2696Y3270D01*
X2672Y3276D01*
X2648Y3278D01*
D02*
G37*
G36*
X-3642Y3485D02*
X-3675Y3483D01*
X-3707Y3478D01*
X-3739Y3470D01*
X-3770Y3459D01*
X-3800Y3445D01*
X-3828Y3428D01*
X-3854Y3409D01*
X-3879Y3387D01*
X-3901Y3362D01*
X-3920Y3336D01*
X-3937Y3308D01*
X-3951Y3278D01*
X-3962Y3247D01*
X-3970Y3215D01*
X-3975Y3182D01*
X-3977Y3150D01*
X-3975Y3117D01*
X-3970Y3084D01*
X-3962Y3052D01*
X-3951Y3021D01*
X-3937Y2992D01*
X-3920Y2963D01*
X-3901Y2937D01*
X-3879Y2913D01*
X-3854Y2891D01*
X-3828Y2871D01*
X-3800Y2854D01*
X-3770Y2840D01*
X-3739Y2829D01*
X-3707Y2821D01*
X-3675Y2816D01*
X-3642Y2815D01*
X-3609Y2816D01*
X-3576Y2821D01*
X-3544Y2829D01*
X-3514Y2840D01*
X-3484Y2854D01*
X-3456Y2871D01*
X-3429Y2891D01*
X-3405Y2913D01*
X-3383Y2937D01*
X-3363Y2963D01*
X-3346Y2992D01*
X-3332Y3021D01*
X-3321Y3052D01*
X-3313Y3084D01*
X-3308Y3117D01*
X-3307Y3150D01*
X-3308Y3182D01*
X-3313Y3215D01*
X-3321Y3247D01*
X-3332Y3278D01*
X-3346Y3308D01*
X-3363Y3336D01*
X-3383Y3362D01*
X-3405Y3387D01*
X-3429Y3409D01*
X-3456Y3428D01*
X-3484Y3445D01*
X-3514Y3459D01*
X-3544Y3470D01*
X-3576Y3478D01*
X-3609Y3483D01*
X-3642Y3485D01*
D02*
G37*
G36*
X-687Y3129D02*
X-712Y3127D01*
X-736Y3121D01*
X-759Y3111D01*
X-780Y3098D01*
X-799Y3082D01*
X-815Y3064D01*
X-828Y3042D01*
X-837Y3020D01*
X-843Y2995D01*
X-845Y2971D01*
X-843Y2946D01*
X-837Y2922D01*
X-828Y2899D01*
X-815Y2878D01*
X-799Y2859D01*
X-780Y2843D01*
X-759Y2830D01*
X-736Y2820D01*
X-712Y2815D01*
X-687Y2813D01*
X-659Y2801D01*
X-650Y2767D01*
X-646Y2750D01*
X-636Y2727D01*
X-623Y2706D01*
X-607Y2687D01*
X-588Y2671D01*
X-567Y2658D01*
X-544Y2648D01*
X-520Y2642D01*
X-495Y2640D01*
X-471Y2642D01*
X-446Y2648D01*
X-424Y2658D01*
X-402Y2671D01*
X-384Y2687D01*
X-367Y2706D01*
X-355Y2727D01*
X-345Y2750D01*
X-339Y2774D01*
X-337Y2798D01*
X-339Y2823D01*
X-345Y2847D01*
X-355Y2870D01*
X-367Y2891D01*
X-384Y2910D01*
X-402Y2926D01*
X-424Y2939D01*
X-446Y2949D01*
X-471Y2954D01*
X-495Y2956D01*
X-524Y2968D01*
X-533Y3002D01*
X-537Y3020D01*
X-546Y3042D01*
X-559Y3064D01*
X-576Y3082D01*
X-594Y3098D01*
X-616Y3111D01*
X-638Y3121D01*
X-663Y3127D01*
X-687Y3129D01*
D02*
G37*
G36*
X504Y2884D02*
X479Y2882D01*
X455Y2877D01*
X432Y2867D01*
X411Y2854D01*
X392Y2838D01*
X376Y2819D01*
X363Y2798D01*
X354Y2775D01*
X348Y2751D01*
X346Y2726D01*
X348Y2702D01*
X354Y2678D01*
X363Y2655D01*
X376Y2634D01*
X392Y2615D01*
X411Y2599D01*
X432Y2586D01*
X455Y2576D01*
X479Y2570D01*
X504Y2568D01*
X529Y2570D01*
X553Y2576D01*
X576Y2586D01*
X597Y2599D01*
X616Y2615D01*
X632Y2634D01*
X645Y2655D01*
X654Y2678D01*
X660Y2702D01*
X662Y2726D01*
X660Y2751D01*
X654Y2775D01*
X645Y2798D01*
X632Y2819D01*
X616Y2838D01*
X597Y2854D01*
X576Y2867D01*
X553Y2877D01*
X529Y2882D01*
X504Y2884D01*
D02*
G37*
G36*
X-4429Y3091D02*
X-4462Y3089D01*
X-4494Y3085D01*
X-4526Y3077D01*
X-4557Y3065D01*
X-4587Y3051D01*
X-4615Y3034D01*
X-4642Y3015D01*
X-4666Y2993D01*
X-4688Y2968D01*
X-4708Y2942D01*
X-4725Y2914D01*
X-4739Y2884D01*
X-4750Y2853D01*
X-4758Y2821D01*
X-4763Y2789D01*
X-4764Y2756D01*
X-4763Y2723D01*
X-4758Y2691D01*
X-4750Y2659D01*
X-4739Y2628D01*
X-4725Y2598D01*
X-4708Y2570D01*
X-4688Y2543D01*
X-4666Y2519D01*
X-4642Y2497D01*
X-4615Y2477D01*
X-4587Y2460D01*
X-4557Y2446D01*
X-4526Y2435D01*
X-4494Y2427D01*
X-4462Y2422D01*
X-4429Y2421D01*
X-4396Y2422D01*
X-4364Y2427D01*
X-4332Y2435D01*
X-4301Y2446D01*
X-4271Y2460D01*
X-4243Y2477D01*
X-4217Y2497D01*
X-4192Y2519D01*
X-4170Y2543D01*
X-4151Y2570D01*
X-4134Y2598D01*
X-4120Y2628D01*
X-4109Y2659D01*
X-4101Y2691D01*
X-4096Y2723D01*
X-4094Y2756D01*
X-4096Y2789D01*
X-4101Y2821D01*
X-4109Y2853D01*
X-4120Y2884D01*
X-4134Y2914D01*
X-4151Y2942D01*
X-4170Y2968D01*
X-4192Y2993D01*
X-4217Y3015D01*
X-4243Y3034D01*
X-4271Y3051D01*
X-4301Y3065D01*
X-4332Y3077D01*
X-4364Y3085D01*
X-4396Y3089D01*
X-4429Y3091D01*
D02*
G37*
G36*
X906Y2678D02*
X881Y2676D01*
X857Y2670D01*
X834Y2660D01*
X813Y2647D01*
X794Y2631D01*
X778Y2613D01*
X765Y2591D01*
X755Y2569D01*
X749Y2544D01*
X748Y2520D01*
X749Y2495D01*
X755Y2471D01*
X765Y2448D01*
X778Y2427D01*
X794Y2408D01*
X813Y2392D01*
X834Y2379D01*
X857Y2369D01*
X881Y2364D01*
X906Y2362D01*
X930Y2364D01*
X954Y2369D01*
X977Y2379D01*
X998Y2392D01*
X1017Y2408D01*
X1033Y2427D01*
X1046Y2448D01*
X1056Y2471D01*
X1062Y2495D01*
X1063Y2520D01*
X1062Y2544D01*
X1056Y2569D01*
X1046Y2591D01*
X1033Y2613D01*
X1017Y2631D01*
X998Y2647D01*
X977Y2660D01*
X954Y2670D01*
X930Y2676D01*
X906Y2678D01*
D02*
G37*
G36*
X-3642Y2697D02*
X-3675Y2696D01*
X-3707Y2691D01*
X-3739Y2683D01*
X-3770Y2672D01*
X-3800Y2658D01*
X-3828Y2641D01*
X-3854Y2621D01*
X-3879Y2599D01*
X-3901Y2575D01*
X-3920Y2548D01*
X-3937Y2520D01*
X-3951Y2490D01*
X-3962Y2459D01*
X-3970Y2428D01*
X-3975Y2395D01*
X-3977Y2362D01*
X-3975Y2329D01*
X-3970Y2297D01*
X-3962Y2265D01*
X-3951Y2234D01*
X-3937Y2204D01*
X-3920Y2176D01*
X-3901Y2150D01*
X-3879Y2125D01*
X-3854Y2103D01*
X-3828Y2084D01*
X-3800Y2067D01*
X-3770Y2053D01*
X-3739Y2042D01*
X-3707Y2034D01*
X-3675Y2029D01*
X-3642Y2027D01*
X-3609Y2029D01*
X-3576Y2034D01*
X-3544Y2042D01*
X-3514Y2053D01*
X-3484Y2067D01*
X-3456Y2084D01*
X-3429Y2103D01*
X-3405Y2125D01*
X-3383Y2150D01*
X-3363Y2176D01*
X-3346Y2204D01*
X-3332Y2234D01*
X-3321Y2265D01*
X-3313Y2297D01*
X-3308Y2329D01*
X-3307Y2362D01*
X-3308Y2395D01*
X-3313Y2428D01*
X-3321Y2459D01*
X-3332Y2490D01*
X-3346Y2520D01*
X-3363Y2548D01*
X-3383Y2575D01*
X-3405Y2599D01*
X-3429Y2621D01*
X-3456Y2641D01*
X-3484Y2658D01*
X-3514Y2672D01*
X-3544Y2683D01*
X-3576Y2691D01*
X-3609Y2696D01*
X-3642Y2697D01*
D02*
G37*
G36*
X2579Y2294D02*
X2554Y2292D01*
X2530Y2286D01*
X2507Y2277D01*
X2486Y2264D01*
X2467Y2248D01*
X2451Y2229D01*
X2438Y2208D01*
X2429Y2185D01*
X2423Y2161D01*
X2421Y2136D01*
X2423Y2111D01*
X2429Y2087D01*
X2438Y2064D01*
X2451Y2043D01*
X2467Y2024D01*
X2486Y2008D01*
X2507Y1995D01*
X2530Y1986D01*
X2554Y1980D01*
X2579Y1978D01*
X2603Y1980D01*
X2628Y1986D01*
X2650Y1995D01*
X2672Y2008D01*
X2690Y2024D01*
X2707Y2043D01*
X2719Y2064D01*
X2729Y2087D01*
X2735Y2111D01*
X2737Y2136D01*
X2735Y2161D01*
X2729Y2185D01*
X2719Y2208D01*
X2707Y2229D01*
X2690Y2248D01*
X2672Y2264D01*
X2650Y2277D01*
X2628Y2286D01*
X2603Y2292D01*
X2579Y2294D01*
D02*
G37*
G36*
X1880Y2036D02*
X1855Y2034D01*
X1831Y2029D01*
X1808Y2019D01*
X1787Y2006D01*
X1768Y1990D01*
X1752Y1971D01*
X1748Y1964D01*
X1736Y1959D01*
X1708Y1955D01*
X1689Y1959D01*
X1687Y1962D01*
X1668Y1978D01*
X1647Y1991D01*
X1624Y2001D01*
X1600Y2006D01*
X1575Y2008D01*
X1550Y2006D01*
X1526Y2001D01*
X1503Y1991D01*
X1482Y1978D01*
X1463Y1962D01*
X1447Y1943D01*
X1434Y1922D01*
X1425Y1899D01*
X1419Y1875D01*
X1417Y1850D01*
X1417Y1843D01*
X1413Y1833D01*
X1392Y1809D01*
X1375Y1799D01*
X1373Y1799D01*
X1349Y1797D01*
X1324Y1791D01*
X1302Y1782D01*
X1280Y1769D01*
X1262Y1753D01*
X1246Y1734D01*
X1233Y1713D01*
X1223Y1690D01*
X1217Y1666D01*
X1215Y1641D01*
X1217Y1616D01*
X1223Y1592D01*
X1233Y1569D01*
X1246Y1548D01*
X1262Y1529D01*
X1280Y1513D01*
X1302Y1500D01*
X1324Y1491D01*
X1349Y1485D01*
X1373Y1483D01*
X1398Y1485D01*
X1422Y1491D01*
X1445Y1500D01*
X1466Y1513D01*
X1485Y1529D01*
X1501Y1548D01*
X1514Y1569D01*
X1524Y1592D01*
X1529Y1616D01*
X1531Y1641D01*
X1531Y1648D01*
X1535Y1659D01*
X1557Y1682D01*
X1574Y1693D01*
X1575Y1692D01*
X1600Y1694D01*
X1624Y1700D01*
X1647Y1710D01*
X1668Y1723D01*
X1687Y1739D01*
X1703Y1758D01*
X1707Y1765D01*
X1719Y1770D01*
X1746Y1773D01*
X1765Y1770D01*
X1768Y1767D01*
X1787Y1751D01*
X1808Y1738D01*
X1831Y1728D01*
X1855Y1722D01*
X1880Y1720D01*
X1905Y1722D01*
X1929Y1728D01*
X1952Y1738D01*
X1973Y1751D01*
X1992Y1767D01*
X2008Y1786D01*
X2021Y1807D01*
X2030Y1830D01*
X2036Y1854D01*
X2038Y1878D01*
X2036Y1903D01*
X2030Y1927D01*
X2021Y1950D01*
X2008Y1971D01*
X1992Y1990D01*
X1973Y2006D01*
X1952Y2019D01*
X1929Y2029D01*
X1905Y2034D01*
X1880Y2036D01*
D02*
G37*
G36*
X-748Y2048D02*
X-773Y2046D01*
X-797Y2040D01*
X-820Y2031D01*
X-841Y2018D01*
X-860Y2001D01*
X-876Y1983D01*
X-889Y1961D01*
X-898Y1939D01*
X-904Y1914D01*
X-906Y1890D01*
X-904Y1865D01*
X-898Y1841D01*
X-889Y1818D01*
X-876Y1797D01*
X-860Y1778D01*
X-841Y1762D01*
X-820Y1749D01*
X-797Y1740D01*
X-773Y1734D01*
X-748Y1732D01*
X-723Y1734D01*
X-699Y1740D01*
X-676Y1749D01*
X-655Y1762D01*
X-636Y1778D01*
X-620Y1797D01*
X-607Y1818D01*
X-598Y1841D01*
X-592Y1865D01*
X-590Y1890D01*
X-592Y1914D01*
X-598Y1939D01*
X-607Y1961D01*
X-620Y1983D01*
X-636Y2001D01*
X-655Y2018D01*
X-676Y2031D01*
X-699Y2040D01*
X-723Y2046D01*
X-748Y2048D01*
D02*
G37*
G36*
X2234Y1939D02*
X2210Y1938D01*
X2185Y1932D01*
X2163Y1922D01*
X2141Y1909D01*
X2123Y1893D01*
X2106Y1874D01*
X2094Y1853D01*
X2084Y1830D01*
X2078Y1806D01*
X2076Y1781D01*
X2078Y1757D01*
X2084Y1733D01*
X2094Y1710D01*
X2106Y1689D01*
X2123Y1670D01*
X2141Y1654D01*
X2163Y1641D01*
X2185Y1631D01*
X2210Y1625D01*
X2234Y1624D01*
X2259Y1625D01*
X2283Y1631D01*
X2306Y1641D01*
X2306Y1641D01*
X2353Y1659D01*
X2369Y1640D01*
X2369Y1640D01*
X2376Y1634D01*
X2387Y1624D01*
X2409Y1611D01*
X2431Y1602D01*
X2456Y1596D01*
X2480Y1594D01*
X2505Y1596D01*
X2529Y1602D01*
X2552Y1611D01*
X2573Y1624D01*
X2592Y1640D01*
X2608Y1659D01*
X2621Y1680D01*
X2631Y1703D01*
X2636Y1727D01*
X2638Y1752D01*
X2636Y1777D01*
X2631Y1801D01*
X2621Y1824D01*
X2608Y1845D01*
X2592Y1864D01*
X2573Y1880D01*
X2552Y1893D01*
X2529Y1902D01*
X2505Y1908D01*
X2480Y1910D01*
X2456Y1908D01*
X2431Y1902D01*
X2409Y1893D01*
X2409Y1893D01*
X2362Y1874D01*
X2346Y1893D01*
X2346Y1893D01*
X2339Y1899D01*
X2327Y1909D01*
X2306Y1922D01*
X2283Y1932D01*
X2259Y1938D01*
X2234Y1939D01*
D02*
G37*
G36*
X4026Y2087D02*
X4001Y2085D01*
X3977Y2079D01*
X3954Y2070D01*
X3933Y2057D01*
X3914Y2041D01*
X3898Y2022D01*
X3885Y2001D01*
X3875Y1978D01*
X3870Y1954D01*
X3868Y1929D01*
X3870Y1904D01*
X3875Y1880D01*
X3885Y1857D01*
X3898Y1836D01*
X3914Y1817D01*
X3933Y1801D01*
X3954Y1788D01*
X3977Y1779D01*
X4001Y1773D01*
X4006Y1773D01*
X4017Y1757D01*
X4015Y1732D01*
X4017Y1708D01*
X4023Y1683D01*
X4032Y1661D01*
X4045Y1639D01*
X4062Y1621D01*
X4080Y1604D01*
X4102Y1592D01*
X4124Y1582D01*
X4149Y1576D01*
X4173Y1574D01*
X4198Y1576D01*
X4222Y1582D01*
X4245Y1592D01*
X4266Y1604D01*
X4285Y1621D01*
X4301Y1639D01*
X4314Y1661D01*
X4323Y1683D01*
X4329Y1708D01*
X4331Y1732D01*
X4329Y1757D01*
X4323Y1781D01*
X4314Y1804D01*
X4301Y1825D01*
X4285Y1844D01*
X4266Y1860D01*
X4245Y1873D01*
X4222Y1883D01*
X4198Y1888D01*
X4193Y1889D01*
X4182Y1904D01*
X4184Y1929D01*
X4182Y1954D01*
X4176Y1978D01*
X4166Y2001D01*
X4153Y2022D01*
X4137Y2041D01*
X4118Y2057D01*
X4097Y2070D01*
X4074Y2079D01*
X4050Y2085D01*
X4026Y2087D01*
D02*
G37*
G36*
X633Y1848D02*
X609Y1846D01*
X584Y1840D01*
X562Y1830D01*
X540Y1817D01*
X522Y1801D01*
X506Y1782D01*
X493Y1761D01*
X483Y1738D01*
X477Y1714D01*
X475Y1690D01*
X477Y1665D01*
X483Y1641D01*
X493Y1618D01*
X506Y1597D01*
X522Y1578D01*
X540Y1562D01*
X562Y1549D01*
X584Y1539D01*
X609Y1534D01*
X633Y1532D01*
X658Y1534D01*
X682Y1539D01*
X705Y1549D01*
X726Y1562D01*
X745Y1578D01*
X761Y1597D01*
X774Y1618D01*
X784Y1641D01*
X789Y1665D01*
X791Y1690D01*
X789Y1714D01*
X784Y1738D01*
X774Y1761D01*
X761Y1782D01*
X745Y1801D01*
X726Y1817D01*
X705Y1830D01*
X682Y1840D01*
X658Y1846D01*
X633Y1848D01*
D02*
G37*
G36*
X-2510Y1743D02*
X-2535Y1741D01*
X-2559Y1735D01*
X-2582Y1725D01*
X-2603Y1712D01*
X-2622Y1696D01*
X-2638Y1678D01*
X-2651Y1656D01*
X-2660Y1633D01*
X-2666Y1609D01*
X-2668Y1585D01*
X-2666Y1560D01*
X-2660Y1536D01*
X-2651Y1513D01*
X-2638Y1492D01*
X-2622Y1473D01*
X-2603Y1457D01*
X-2582Y1444D01*
X-2559Y1434D01*
X-2535Y1429D01*
X-2510Y1427D01*
X-2485Y1429D01*
X-2461Y1434D01*
X-2438Y1444D01*
X-2417Y1457D01*
X-2398Y1473D01*
X-2382Y1492D01*
X-2369Y1513D01*
X-2360Y1536D01*
X-2354Y1560D01*
X-2352Y1585D01*
X-2354Y1609D01*
X-2360Y1633D01*
X-2369Y1656D01*
X-2382Y1678D01*
X-2398Y1696D01*
X-2417Y1712D01*
X-2438Y1725D01*
X-2461Y1735D01*
X-2485Y1741D01*
X-2510Y1743D01*
D02*
G37*
G36*
X3780Y1585D02*
X3755Y1583D01*
X3731Y1577D01*
X3708Y1568D01*
X3687Y1555D01*
X3668Y1539D01*
X3652Y1520D01*
X3639Y1499D01*
X3629Y1476D01*
X3624Y1452D01*
X3622Y1427D01*
X3624Y1402D01*
X3629Y1378D01*
X3639Y1355D01*
X3652Y1334D01*
X3668Y1315D01*
X3687Y1299D01*
X3708Y1286D01*
X3731Y1277D01*
X3755Y1271D01*
X3780Y1269D01*
X3804Y1271D01*
X3828Y1277D01*
X3851Y1286D01*
X3872Y1299D01*
X3891Y1315D01*
X3907Y1334D01*
X3920Y1355D01*
X3930Y1378D01*
X3936Y1402D01*
X3938Y1427D01*
X3936Y1452D01*
X3930Y1476D01*
X3920Y1499D01*
X3907Y1520D01*
X3891Y1539D01*
X3872Y1555D01*
X3851Y1568D01*
X3828Y1577D01*
X3804Y1583D01*
X3780Y1585D01*
D02*
G37*
G36*
X-3642Y1910D02*
X-3675Y1908D01*
X-3707Y1903D01*
X-3739Y1895D01*
X-3770Y1884D01*
X-3800Y1870D01*
X-3828Y1853D01*
X-3854Y1834D01*
X-3879Y1812D01*
X-3901Y1787D01*
X-3920Y1761D01*
X-3937Y1733D01*
X-3951Y1703D01*
X-3962Y1672D01*
X-3970Y1640D01*
X-3975Y1608D01*
X-3977Y1575D01*
X-3975Y1542D01*
X-3970Y1509D01*
X-3962Y1478D01*
X-3951Y1447D01*
X-3937Y1417D01*
X-3920Y1389D01*
X-3901Y1362D01*
X-3879Y1338D01*
X-3854Y1316D01*
X-3828Y1296D01*
X-3800Y1279D01*
X-3770Y1265D01*
X-3739Y1254D01*
X-3707Y1246D01*
X-3675Y1241D01*
X-3642Y1240D01*
X-3609Y1241D01*
X-3576Y1246D01*
X-3544Y1254D01*
X-3514Y1265D01*
X-3484Y1279D01*
X-3456Y1296D01*
X-3429Y1316D01*
X-3405Y1338D01*
X-3383Y1362D01*
X-3363Y1389D01*
X-3346Y1417D01*
X-3332Y1447D01*
X-3321Y1478D01*
X-3313Y1509D01*
X-3308Y1542D01*
X-3307Y1575D01*
X-3308Y1608D01*
X-3313Y1640D01*
X-3321Y1672D01*
X-3332Y1703D01*
X-3346Y1733D01*
X-3363Y1761D01*
X-3383Y1787D01*
X-3405Y1812D01*
X-3429Y1834D01*
X-3456Y1853D01*
X-3484Y1870D01*
X-3514Y1884D01*
X-3544Y1895D01*
X-3576Y1903D01*
X-3609Y1908D01*
X-3642Y1910D01*
D02*
G37*
G36*
X-4293Y1256D02*
X-4322Y1255D01*
X-4350Y1250D01*
X-4378Y1242D01*
X-4405Y1231D01*
X-4430Y1217D01*
X-4453Y1200D01*
X-4475Y1181D01*
X-4494Y1160D01*
X-4510Y1136D01*
X-4516Y1127D01*
X-4528Y1123D01*
X-4558D01*
X-4571Y1127D01*
X-4576Y1136D01*
X-4593Y1160D01*
X-4612Y1181D01*
X-4633Y1200D01*
X-4657Y1217D01*
X-4682Y1231D01*
X-4709Y1242D01*
X-4736Y1250D01*
X-4765Y1255D01*
X-4793Y1256D01*
X-4822Y1255D01*
X-4850Y1250D01*
X-4878Y1242D01*
X-4905Y1231D01*
X-4930Y1217D01*
X-4953Y1200D01*
X-4975Y1181D01*
X-4994Y1160D01*
X-5010Y1136D01*
X-5024Y1111D01*
X-5035Y1085D01*
X-5043Y1057D01*
X-5048Y1029D01*
X-5050Y1000D01*
X-5048Y971D01*
X-5043Y943D01*
X-5035Y915D01*
X-5024Y889D01*
X-5010Y864D01*
X-4994Y840D01*
X-4975Y819D01*
X-4953Y800D01*
X-4930Y783D01*
X-4920Y778D01*
X-4916Y765D01*
Y735D01*
X-4920Y722D01*
X-4930Y717D01*
X-4953Y700D01*
X-4975Y681D01*
X-4994Y660D01*
X-5010Y636D01*
X-5024Y611D01*
X-5035Y585D01*
X-5043Y557D01*
X-5044Y550D01*
X-4793D01*
Y450D01*
X-5044D01*
X-5043Y443D01*
X-5035Y415D01*
X-5024Y389D01*
X-5010Y364D01*
X-4994Y340D01*
X-4975Y319D01*
X-4953Y300D01*
X-4930Y283D01*
X-4920Y278D01*
X-4916Y265D01*
X-4916Y235D01*
X-4920Y222D01*
X-4930Y217D01*
X-4953Y200D01*
X-4975Y181D01*
X-4994Y160D01*
X-5010Y136D01*
X-5024Y111D01*
X-5035Y85D01*
X-5043Y57D01*
X-5044Y50D01*
X-4793D01*
Y-50D01*
X-5044D01*
X-5043Y-57D01*
X-5035Y-85D01*
X-5024Y-111D01*
X-5010Y-136D01*
X-4994Y-160D01*
X-4975Y-181D01*
X-4953Y-200D01*
X-4930Y-217D01*
X-4920Y-222D01*
X-4916Y-235D01*
X-4916Y-265D01*
X-4920Y-278D01*
X-4930Y-283D01*
X-4953Y-300D01*
X-4975Y-319D01*
X-4994Y-340D01*
X-5010Y-364D01*
X-5024Y-389D01*
X-5035Y-415D01*
X-5043Y-443D01*
X-5048Y-471D01*
X-5050Y-500D01*
X-5048Y-529D01*
X-5043Y-557D01*
X-5035Y-585D01*
X-5024Y-611D01*
X-5010Y-636D01*
X-4994Y-660D01*
X-4975Y-681D01*
X-4953Y-700D01*
X-4930Y-717D01*
X-4920Y-722D01*
X-4916Y-735D01*
Y-765D01*
X-4920Y-778D01*
X-4930Y-783D01*
X-4953Y-800D01*
X-4975Y-819D01*
X-4994Y-840D01*
X-5010Y-864D01*
X-5024Y-889D01*
X-5035Y-915D01*
X-5043Y-943D01*
X-5044Y-950D01*
X-4793D01*
Y-1000D01*
X-4743D01*
Y-1251D01*
X-4736Y-1250D01*
X-4709Y-1242D01*
X-4682Y-1231D01*
X-4657Y-1217D01*
X-4633Y-1200D01*
X-4612Y-1181D01*
X-4593Y-1160D01*
X-4576Y-1136D01*
X-4571Y-1127D01*
X-4558Y-1123D01*
X-4528D01*
X-4516Y-1127D01*
X-4510Y-1136D01*
X-4494Y-1160D01*
X-4475Y-1181D01*
X-4453Y-1200D01*
X-4430Y-1217D01*
X-4405Y-1231D01*
X-4378Y-1242D01*
X-4350Y-1250D01*
X-4322Y-1255D01*
X-4293Y-1256D01*
X-4265Y-1255D01*
X-4236Y-1250D01*
X-4209Y-1242D01*
X-4182Y-1231D01*
X-4157Y-1217D01*
X-4133Y-1200D01*
X-4112Y-1181D01*
X-4093Y-1160D01*
X-4076Y-1136D01*
X-4062Y-1111D01*
X-4051Y-1085D01*
X-4043Y-1057D01*
X-4039Y-1029D01*
X-4037Y-1000D01*
X-4039Y-971D01*
X-4043Y-943D01*
X-4051Y-915D01*
X-4062Y-889D01*
X-4076Y-864D01*
X-4093Y-840D01*
X-4112Y-819D01*
X-4133Y-800D01*
X-4157Y-783D01*
X-4166Y-778D01*
X-4171Y-765D01*
Y-735D01*
X-4166Y-722D01*
X-4157Y-717D01*
X-4133Y-700D01*
X-4112Y-681D01*
X-4093Y-660D01*
X-4076Y-636D01*
X-4062Y-611D01*
X-4051Y-585D01*
X-4043Y-557D01*
X-4039Y-529D01*
X-4037Y-500D01*
X-4039Y-471D01*
X-4043Y-443D01*
X-4051Y-415D01*
X-4062Y-389D01*
X-4076Y-364D01*
X-4093Y-340D01*
X-4112Y-319D01*
X-4133Y-300D01*
X-4157Y-283D01*
X-4166Y-278D01*
X-4171Y-265D01*
X-4171Y-235D01*
X-4166Y-222D01*
X-4157Y-217D01*
X-4133Y-200D01*
X-4112Y-181D01*
X-4093Y-160D01*
X-4076Y-136D01*
X-4062Y-111D01*
X-4051Y-85D01*
X-4043Y-57D01*
X-4039Y-29D01*
X-4037Y0D01*
X-4039Y29D01*
X-4043Y57D01*
X-4051Y85D01*
X-4062Y111D01*
X-4076Y136D01*
X-4093Y160D01*
X-4112Y181D01*
X-4133Y200D01*
X-4157Y217D01*
X-4166Y222D01*
X-4171Y235D01*
X-4171Y265D01*
X-4166Y278D01*
X-4157Y283D01*
X-4133Y300D01*
X-4112Y319D01*
X-4093Y340D01*
X-4076Y364D01*
X-4062Y389D01*
X-4051Y415D01*
X-4043Y443D01*
X-4039Y471D01*
X-4037Y500D01*
X-4039Y529D01*
X-4043Y557D01*
X-4051Y585D01*
X-4062Y611D01*
X-4076Y636D01*
X-4093Y660D01*
X-4112Y681D01*
X-4133Y700D01*
X-4157Y717D01*
X-4166Y722D01*
X-4171Y735D01*
Y765D01*
X-4166Y778D01*
X-4157Y783D01*
X-4133Y800D01*
X-4112Y819D01*
X-4093Y840D01*
X-4076Y864D01*
X-4062Y889D01*
X-4051Y915D01*
X-4043Y943D01*
X-4039Y971D01*
X-4037Y1000D01*
X-4039Y1029D01*
X-4043Y1057D01*
X-4051Y1085D01*
X-4062Y1111D01*
X-4076Y1136D01*
X-4093Y1160D01*
X-4112Y1181D01*
X-4133Y1200D01*
X-4157Y1217D01*
X-4182Y1231D01*
X-4209Y1242D01*
X-4236Y1250D01*
X-4265Y1255D01*
X-4293Y1256D01*
D02*
G37*
G36*
X-267Y1427D02*
X-291Y1425D01*
X-316Y1419D01*
X-338Y1409D01*
X-360Y1396D01*
X-378Y1380D01*
X-394Y1362D01*
X-407Y1340D01*
X-417Y1317D01*
X-423Y1293D01*
X-425Y1269D01*
X-423Y1244D01*
X-417Y1220D01*
X-407Y1197D01*
X-394Y1176D01*
X-378Y1157D01*
X-360Y1141D01*
X-338Y1128D01*
X-316Y1118D01*
X-291Y1113D01*
X-267Y1111D01*
X-242Y1113D01*
X-218Y1118D01*
X-195Y1128D01*
X-174Y1141D01*
X-155Y1157D01*
X-139Y1176D01*
X-126Y1197D01*
X-116Y1220D01*
X-111Y1244D01*
X-109Y1269D01*
X-111Y1293D01*
X-116Y1317D01*
X-126Y1340D01*
X-139Y1362D01*
X-155Y1380D01*
X-174Y1396D01*
X-195Y1409D01*
X-218Y1419D01*
X-242Y1425D01*
X-267Y1427D01*
D02*
G37*
G36*
X4173Y1182D02*
X4149Y1180D01*
X4124Y1174D01*
X4102Y1164D01*
X4080Y1151D01*
X4062Y1135D01*
X4045Y1116D01*
X4032Y1095D01*
X4023Y1072D01*
X4017Y1048D01*
X4015Y1024D01*
X4017Y999D01*
X4023Y975D01*
X4032Y952D01*
X4045Y931D01*
X4062Y912D01*
X4080Y896D01*
X4102Y883D01*
X4124Y873D01*
X4149Y868D01*
X4173Y866D01*
X4198Y868D01*
X4222Y873D01*
X4245Y883D01*
X4266Y896D01*
X4285Y912D01*
X4301Y931D01*
X4314Y952D01*
X4323Y975D01*
X4329Y999D01*
X4331Y1024D01*
X4329Y1048D01*
X4323Y1072D01*
X4314Y1095D01*
X4301Y1116D01*
X4285Y1135D01*
X4266Y1151D01*
X4245Y1164D01*
X4222Y1174D01*
X4198Y1180D01*
X4173Y1182D01*
D02*
G37*
G36*
X2293Y1148D02*
X2269Y1146D01*
X2244Y1140D01*
X2222Y1130D01*
X2200Y1117D01*
X2182Y1101D01*
X2166Y1082D01*
X2153Y1061D01*
X2143Y1038D01*
X2137Y1014D01*
X2135Y990D01*
X2137Y965D01*
X2143Y941D01*
X2153Y918D01*
X2166Y897D01*
X2182Y878D01*
X2200Y862D01*
X2222Y849D01*
X2244Y839D01*
X2269Y834D01*
X2293Y832D01*
X2318Y834D01*
X2342Y839D01*
X2365Y849D01*
X2386Y862D01*
X2405Y878D01*
X2421Y897D01*
X2434Y918D01*
X2444Y941D01*
X2449Y965D01*
X2451Y990D01*
X2449Y1014D01*
X2444Y1038D01*
X2434Y1061D01*
X2421Y1082D01*
X2405Y1101D01*
X2386Y1117D01*
X2365Y1130D01*
X2342Y1140D01*
X2318Y1146D01*
X2293Y1148D01*
D02*
G37*
G36*
X-1033Y975D02*
X-1058Y973D01*
X-1082Y967D01*
X-1105Y958D01*
X-1126Y945D01*
X-1145Y929D01*
X-1161Y910D01*
X-1174Y889D01*
X-1184Y866D01*
X-1189Y842D01*
X-1191Y817D01*
X-1189Y792D01*
X-1184Y768D01*
X-1174Y745D01*
X-1161Y724D01*
X-1145Y705D01*
X-1126Y689D01*
X-1105Y676D01*
X-1082Y667D01*
X-1058Y661D01*
X-1033Y659D01*
X-1009Y661D01*
X-985Y667D01*
X-962Y676D01*
X-941Y689D01*
X-922Y705D01*
X-906Y724D01*
X-893Y745D01*
X-883Y768D01*
X-877Y792D01*
X-875Y817D01*
X-877Y842D01*
X-883Y866D01*
X-893Y889D01*
X-906Y910D01*
X-922Y929D01*
X-941Y945D01*
X-962Y958D01*
X-985Y967D01*
X-1009Y973D01*
X-1033Y975D01*
D02*
G37*
G36*
X2863Y778D02*
X2839Y776D01*
X2814Y770D01*
X2792Y760D01*
X2770Y747D01*
X2752Y731D01*
X2736Y712D01*
X2723Y691D01*
X2713Y668D01*
X2707Y644D01*
X2705Y620D01*
X2707Y595D01*
X2713Y571D01*
X2723Y548D01*
X2736Y527D01*
X2752Y508D01*
X2770Y492D01*
X2792Y479D01*
X2814Y469D01*
X2839Y464D01*
X2863Y462D01*
X2888Y464D01*
X2912Y469D01*
X2935Y479D01*
X2956Y492D01*
X2975Y508D01*
X2991Y527D01*
X3004Y548D01*
X3014Y571D01*
X3019Y595D01*
X3021Y620D01*
X3019Y644D01*
X3014Y668D01*
X3004Y691D01*
X2991Y712D01*
X2975Y731D01*
X2956Y747D01*
X2935Y760D01*
X2912Y770D01*
X2888Y776D01*
X2863Y778D01*
D02*
G37*
G36*
X-3642Y1122D02*
X-3675Y1121D01*
X-3707Y1116D01*
X-3739Y1108D01*
X-3770Y1097D01*
X-3800Y1083D01*
X-3828Y1066D01*
X-3854Y1046D01*
X-3879Y1024D01*
X-3901Y1000D01*
X-3920Y974D01*
X-3937Y945D01*
X-3951Y916D01*
X-3962Y885D01*
X-3970Y853D01*
X-3975Y820D01*
X-3977Y787D01*
X-3975Y755D01*
X-3970Y722D01*
X-3962Y690D01*
X-3951Y659D01*
X-3937Y629D01*
X-3920Y601D01*
X-3901Y575D01*
X-3879Y550D01*
X-3854Y528D01*
X-3828Y509D01*
X-3800Y492D01*
X-3770Y478D01*
X-3739Y467D01*
X-3707Y459D01*
X-3675Y454D01*
X-3642Y452D01*
X-3609Y454D01*
X-3576Y459D01*
X-3544Y467D01*
X-3514Y478D01*
X-3484Y492D01*
X-3456Y509D01*
X-3429Y528D01*
X-3405Y550D01*
X-3383Y575D01*
X-3363Y601D01*
X-3346Y629D01*
X-3332Y659D01*
X-3321Y690D01*
X-3313Y722D01*
X-3308Y755D01*
X-3307Y787D01*
X-3308Y820D01*
X-3313Y853D01*
X-3321Y885D01*
X-3332Y916D01*
X-3346Y945D01*
X-3363Y974D01*
X-3383Y1000D01*
X-3405Y1024D01*
X-3429Y1046D01*
X-3456Y1066D01*
X-3484Y1083D01*
X-3514Y1097D01*
X-3544Y1108D01*
X-3576Y1116D01*
X-3609Y1121D01*
X-3642Y1122D01*
D02*
G37*
G36*
X5000Y689D02*
X4975Y688D01*
X4951Y682D01*
X4928Y672D01*
X4907Y659D01*
X4888Y643D01*
X4872Y624D01*
X4859Y603D01*
X4850Y580D01*
X4844Y556D01*
X4842Y531D01*
X4844Y507D01*
X4850Y483D01*
X4859Y460D01*
X4872Y439D01*
X4888Y420D01*
X4907Y404D01*
X4928Y391D01*
X4951Y381D01*
X4975Y375D01*
X5000Y374D01*
X5025Y375D01*
X5049Y381D01*
X5072Y391D01*
X5093Y404D01*
X5112Y420D01*
X5128Y439D01*
X5141Y460D01*
X5150Y483D01*
X5156Y507D01*
X5158Y531D01*
X5156Y556D01*
X5150Y580D01*
X5141Y603D01*
X5128Y624D01*
X5112Y643D01*
X5093Y659D01*
X5072Y672D01*
X5049Y682D01*
X5025Y688D01*
X5000Y689D01*
D02*
G37*
G36*
X3406Y571D02*
X3381Y569D01*
X3357Y564D01*
X3334Y554D01*
X3313Y541D01*
X3294Y525D01*
X3278Y506D01*
X3265Y485D01*
X3255Y462D01*
X3249Y438D01*
X3248Y413D01*
X3249Y389D01*
X3255Y365D01*
X3265Y342D01*
X3278Y321D01*
X3294Y302D01*
X3313Y286D01*
X3334Y273D01*
X3357Y263D01*
X3381Y257D01*
X3406Y255D01*
X3430Y257D01*
X3454Y263D01*
X3477Y273D01*
X3498Y286D01*
X3517Y302D01*
X3533Y321D01*
X3546Y342D01*
X3556Y365D01*
X3562Y389D01*
X3563Y413D01*
X3562Y438D01*
X3556Y462D01*
X3546Y485D01*
X3533Y506D01*
X3517Y525D01*
X3498Y541D01*
X3477Y554D01*
X3454Y564D01*
X3430Y569D01*
X3406Y571D01*
D02*
G37*
G36*
X4449Y310D02*
X3933D01*
X3783Y160D01*
X2993D01*
Y300D01*
X2743D01*
Y-160D01*
X3138D01*
Y-353D01*
X3338Y-553D01*
X3387D01*
X3403Y-581D01*
X3407Y-603D01*
X3396Y-616D01*
X3383Y-637D01*
X3373Y-660D01*
X3368Y-684D01*
X3366Y-709D01*
X3368Y-733D01*
X3373Y-757D01*
X3383Y-780D01*
X3396Y-802D01*
X3412Y-820D01*
X3431Y-836D01*
X3452Y-849D01*
X3475Y-859D01*
X3499Y-865D01*
X3524Y-867D01*
X3548Y-865D01*
X3572Y-859D01*
X3595Y-849D01*
X3616Y-836D01*
X3635Y-820D01*
X3651Y-802D01*
X3664Y-780D01*
X3674Y-757D01*
X3680Y-733D01*
X3682Y-709D01*
X3680Y-684D01*
X3674Y-660D01*
X3664Y-637D01*
X3651Y-616D01*
X3640Y-603D01*
X3644Y-581D01*
X3660Y-553D01*
X3668D01*
X3858Y-363D01*
Y-310D01*
X4449D01*
Y-198D01*
X5079Y-197D01*
X5105Y-196D01*
X5130Y-191D01*
X5154Y-182D01*
X5177Y-171D01*
X5199Y-156D01*
X5218Y-139D01*
X5235Y-120D01*
X5250Y-99D01*
X5261Y-75D01*
X5269Y-51D01*
X5274Y-26D01*
X5276Y0D01*
X5274Y26D01*
X5269Y51D01*
X5261Y76D01*
X5250Y99D01*
X5235Y120D01*
X5218Y140D01*
X5199Y157D01*
X5177Y171D01*
X5154Y182D01*
X5130Y191D01*
X5104Y196D01*
X5079Y197D01*
X4484Y197D01*
X4449Y232D01*
Y310D01*
D02*
G37*
G36*
X-1073Y306D02*
X-1098Y304D01*
X-1122Y298D01*
X-1145Y288D01*
X-1166Y275D01*
X-1185Y259D01*
X-1201Y240D01*
X-1214Y219D01*
X-1223Y196D01*
X-1229Y172D01*
X-1231Y148D01*
X-1229Y123D01*
X-1223Y99D01*
X-1214Y76D01*
X-1201Y55D01*
X-1185Y36D01*
X-1166Y20D01*
X-1145Y7D01*
X-1122Y-3D01*
X-1098Y-8D01*
X-1073Y-10D01*
X-1048Y-8D01*
X-1024Y-3D01*
X-1001Y7D01*
X-980Y20D01*
X-961Y36D01*
X-945Y55D01*
X-932Y76D01*
X-923Y99D01*
X-917Y123D01*
X-915Y148D01*
X-917Y172D01*
X-923Y196D01*
X-932Y219D01*
X-945Y240D01*
X-961Y259D01*
X-980Y275D01*
X-1001Y288D01*
X-1024Y298D01*
X-1048Y304D01*
X-1073Y306D01*
D02*
G37*
G36*
X-3642Y335D02*
X-3675Y333D01*
X-3707Y329D01*
X-3739Y321D01*
X-3770Y310D01*
X-3800Y295D01*
X-3828Y279D01*
X-3854Y259D01*
X-3879Y237D01*
X-3901Y213D01*
X-3920Y186D01*
X-3937Y158D01*
X-3951Y128D01*
X-3962Y97D01*
X-3970Y65D01*
X-3975Y33D01*
X-3977Y0D01*
X-3975Y-33D01*
X-3970Y-65D01*
X-3962Y-97D01*
X-3951Y-128D01*
X-3937Y-158D01*
X-3920Y-186D01*
X-3901Y-213D01*
X-3879Y-237D01*
X-3854Y-259D01*
X-3828Y-279D01*
X-3800Y-295D01*
X-3770Y-310D01*
X-3739Y-321D01*
X-3707Y-329D01*
X-3675Y-333D01*
X-3642Y-335D01*
X-3609Y-333D01*
X-3576Y-329D01*
X-3544Y-321D01*
X-3514Y-310D01*
X-3484Y-295D01*
X-3456Y-279D01*
X-3429Y-259D01*
X-3405Y-237D01*
X-3383Y-213D01*
X-3363Y-186D01*
X-3346Y-158D01*
X-3332Y-128D01*
X-3321Y-97D01*
X-3313Y-65D01*
X-3308Y-33D01*
X-3307Y0D01*
X-3308Y33D01*
X-3313Y65D01*
X-3321Y97D01*
X-3332Y128D01*
X-3346Y158D01*
X-3363Y186D01*
X-3383Y213D01*
X-3405Y237D01*
X-3429Y259D01*
X-3456Y279D01*
X-3484Y295D01*
X-3514Y310D01*
X-3544Y321D01*
X-3576Y329D01*
X-3609Y333D01*
X-3642Y335D01*
D02*
G37*
G36*
X-2037Y237D02*
X-2062Y235D01*
X-2086Y229D01*
X-2109Y219D01*
X-2130Y207D01*
X-2149Y190D01*
X-2165Y172D01*
X-2178Y150D01*
X-2188Y128D01*
X-2193Y103D01*
X-2195Y79D01*
X-2193Y54D01*
X-2188Y30D01*
X-2178Y7D01*
X-2165Y-14D01*
X-2149Y-33D01*
X-2147Y-35D01*
X-2142Y-70D01*
X-2144Y-83D01*
X-2148Y-96D01*
X-2159Y-105D01*
X-2175Y-124D01*
X-2188Y-145D01*
X-2197Y-168D01*
X-2203Y-192D01*
X-2205Y-217D01*
X-2203Y-241D01*
X-2197Y-265D01*
X-2188Y-288D01*
X-2175Y-309D01*
X-2159Y-328D01*
X-2140Y-344D01*
X-2119Y-357D01*
X-2096Y-367D01*
X-2068Y-395D01*
X-2064Y-423D01*
X-2065Y-428D01*
X-2067Y-453D01*
X-2065Y-477D01*
X-2060Y-502D01*
X-2050Y-524D01*
X-2037Y-546D01*
X-2021Y-564D01*
X-2002Y-581D01*
X-1981Y-594D01*
X-1958Y-603D01*
X-1934Y-609D01*
X-1909Y-611D01*
X-1885Y-609D01*
X-1861Y-603D01*
X-1838Y-594D01*
X-1817Y-581D01*
X-1798Y-564D01*
X-1782Y-546D01*
X-1769Y-524D01*
X-1759Y-502D01*
X-1753Y-477D01*
X-1751Y-453D01*
X-1753Y-428D01*
X-1759Y-404D01*
X-1769Y-381D01*
X-1778Y-366D01*
X-1771Y-350D01*
X-1746Y-325D01*
X-1742Y-327D01*
X-1718Y-333D01*
X-1693Y-335D01*
X-1668Y-333D01*
X-1644Y-327D01*
X-1621Y-318D01*
X-1600Y-305D01*
X-1581Y-289D01*
X-1565Y-270D01*
X-1552Y-249D01*
X-1543Y-226D01*
X-1537Y-202D01*
X-1535Y-177D01*
X-1537Y-152D01*
X-1543Y-128D01*
X-1552Y-105D01*
X-1565Y-84D01*
X-1581Y-65D01*
X-1600Y-49D01*
X-1621Y-36D01*
X-1644Y-27D01*
X-1668Y-21D01*
X-1693Y-19D01*
X-1718Y-21D01*
X-1742Y-27D01*
X-1765Y-36D01*
X-1786Y-49D01*
X-1805Y-65D01*
X-1821Y-84D01*
X-1834Y-105D01*
X-1843Y-128D01*
X-1849Y-152D01*
X-1849Y-156D01*
X-1897Y-168D01*
X-1906Y-145D01*
X-1919Y-124D01*
X-1936Y-105D01*
X-1938Y-103D01*
X-1942Y-68D01*
X-1941Y-54D01*
X-1936Y-42D01*
X-1926Y-33D01*
X-1910Y-14D01*
X-1897Y7D01*
X-1887Y30D01*
X-1881Y54D01*
X-1879Y79D01*
X-1881Y103D01*
X-1887Y128D01*
X-1897Y150D01*
X-1910Y172D01*
X-1926Y190D01*
X-1945Y207D01*
X-1966Y219D01*
X-1989Y229D01*
X-2013Y235D01*
X-2037Y237D01*
D02*
G37*
G36*
X5000Y-374D02*
X4975Y-375D01*
X4951Y-381D01*
X4928Y-391D01*
X4907Y-404D01*
X4888Y-420D01*
X4872Y-439D01*
X4859Y-460D01*
X4850Y-483D01*
X4844Y-507D01*
X4842Y-531D01*
X4844Y-556D01*
X4850Y-580D01*
X4859Y-603D01*
X4872Y-624D01*
X4888Y-643D01*
X4907Y-659D01*
X4928Y-672D01*
X4951Y-682D01*
X4975Y-688D01*
X5000Y-689D01*
X5025Y-688D01*
X5049Y-682D01*
X5072Y-672D01*
X5093Y-659D01*
X5112Y-643D01*
X5128Y-624D01*
X5141Y-603D01*
X5150Y-580D01*
X5156Y-556D01*
X5158Y-531D01*
X5156Y-507D01*
X5150Y-483D01*
X5141Y-460D01*
X5128Y-439D01*
X5112Y-420D01*
X5093Y-404D01*
X5072Y-391D01*
X5049Y-381D01*
X5025Y-375D01*
X5000Y-374D01*
D02*
G37*
G36*
X-738Y-442D02*
X-763Y-444D01*
X-787Y-450D01*
X-810Y-460D01*
X-831Y-473D01*
X-850Y-489D01*
X-866Y-508D01*
X-879Y-529D01*
X-888Y-552D01*
X-894Y-576D01*
X-896Y-600D01*
X-894Y-625D01*
X-888Y-649D01*
X-879Y-672D01*
X-866Y-693D01*
X-850Y-712D01*
X-831Y-728D01*
X-810Y-741D01*
X-787Y-751D01*
X-763Y-756D01*
X-738Y-758D01*
X-713Y-756D01*
X-689Y-751D01*
X-666Y-741D01*
X-645Y-728D01*
X-626Y-712D01*
X-610Y-693D01*
X-597Y-672D01*
X-588Y-649D01*
X-582Y-625D01*
X-580Y-600D01*
X-582Y-576D01*
X-588Y-552D01*
X-597Y-529D01*
X-610Y-508D01*
X-626Y-489D01*
X-645Y-473D01*
X-666Y-460D01*
X-689Y-450D01*
X-713Y-444D01*
X-738Y-442D01*
D02*
G37*
G36*
X-1781Y-797D02*
X-1806Y-799D01*
X-1830Y-804D01*
X-1853Y-814D01*
X-1874Y-827D01*
X-1893Y-843D01*
X-1909Y-862D01*
X-1922Y-883D01*
X-1932Y-906D01*
X-1938Y-930D01*
X-1939Y-955D01*
X-1938Y-979D01*
X-1932Y-1004D01*
X-1922Y-1026D01*
X-1909Y-1048D01*
X-1893Y-1066D01*
X-1874Y-1083D01*
X-1853Y-1095D01*
X-1830Y-1105D01*
X-1806Y-1111D01*
X-1781Y-1113D01*
X-1757Y-1111D01*
X-1733Y-1105D01*
X-1710Y-1095D01*
X-1689Y-1083D01*
X-1670Y-1066D01*
X-1654Y-1048D01*
X-1641Y-1026D01*
X-1631Y-1004D01*
X-1625Y-979D01*
X-1624Y-955D01*
X-1625Y-930D01*
X-1631Y-906D01*
X-1641Y-883D01*
X-1654Y-862D01*
X-1670Y-843D01*
X-1689Y-827D01*
X-1710Y-814D01*
X-1733Y-804D01*
X-1757Y-799D01*
X-1781Y-797D01*
D02*
G37*
G36*
X-3642Y-452D02*
X-3675Y-454D01*
X-3707Y-459D01*
X-3739Y-467D01*
X-3770Y-478D01*
X-3800Y-492D01*
X-3828Y-509D01*
X-3854Y-528D01*
X-3879Y-550D01*
X-3901Y-575D01*
X-3920Y-601D01*
X-3937Y-629D01*
X-3951Y-659D01*
X-3962Y-690D01*
X-3970Y-722D01*
X-3975Y-755D01*
X-3977Y-787D01*
X-3975Y-820D01*
X-3970Y-853D01*
X-3962Y-885D01*
X-3951Y-916D01*
X-3937Y-945D01*
X-3920Y-974D01*
X-3901Y-1000D01*
X-3879Y-1024D01*
X-3854Y-1046D01*
X-3828Y-1066D01*
X-3800Y-1083D01*
X-3770Y-1097D01*
X-3739Y-1108D01*
X-3707Y-1116D01*
X-3675Y-1121D01*
X-3642Y-1122D01*
X-3609Y-1121D01*
X-3576Y-1116D01*
X-3544Y-1108D01*
X-3514Y-1097D01*
X-3484Y-1083D01*
X-3456Y-1066D01*
X-3429Y-1046D01*
X-3405Y-1024D01*
X-3383Y-1000D01*
X-3363Y-974D01*
X-3346Y-945D01*
X-3332Y-916D01*
X-3321Y-885D01*
X-3313Y-853D01*
X-3308Y-820D01*
X-3307Y-787D01*
X-3308Y-755D01*
X-3313Y-722D01*
X-3321Y-690D01*
X-3332Y-659D01*
X-3346Y-629D01*
X-3363Y-601D01*
X-3383Y-575D01*
X-3405Y-550D01*
X-3429Y-528D01*
X-3456Y-509D01*
X-3484Y-492D01*
X-3514Y-478D01*
X-3544Y-467D01*
X-3576Y-459D01*
X-3609Y-454D01*
X-3642Y-452D01*
D02*
G37*
G36*
X-4843Y-1050D02*
X-5044D01*
X-5043Y-1057D01*
X-5035Y-1085D01*
X-5024Y-1111D01*
X-5010Y-1136D01*
X-4994Y-1160D01*
X-4975Y-1181D01*
X-4953Y-1200D01*
X-4930Y-1217D01*
X-4905Y-1231D01*
X-4878Y-1242D01*
X-4850Y-1250D01*
X-4843Y-1251D01*
Y-1050D01*
D02*
G37*
G36*
X2800Y-517D02*
X2775Y-519D01*
X2751Y-525D01*
X2728Y-534D01*
X2707Y-547D01*
X2688Y-563D01*
X2672Y-582D01*
X2659Y-603D01*
X2650Y-626D01*
X2644Y-650D01*
X2642Y-675D01*
X2644Y-700D01*
X2650Y-724D01*
X2659Y-747D01*
X2672Y-768D01*
X2677Y-802D01*
X2659Y-826D01*
X2659Y-826D01*
X2643Y-845D01*
X2630Y-866D01*
X2620Y-889D01*
X2615Y-913D01*
X2614Y-925D01*
X2609Y-964D01*
X2568Y-980D01*
X2559Y-982D01*
X2537Y-991D01*
X2515Y-1004D01*
X2497Y-1020D01*
X2480Y-1039D01*
X2468Y-1060D01*
X2458Y-1083D01*
X2452Y-1107D01*
X2450Y-1132D01*
X2452Y-1157D01*
X2458Y-1181D01*
X2468Y-1204D01*
X2480Y-1225D01*
X2497Y-1244D01*
X2515Y-1260D01*
X2537Y-1273D01*
X2559Y-1282D01*
X2584Y-1288D01*
X2608Y-1290D01*
X2633Y-1288D01*
X2657Y-1282D01*
X2680Y-1273D01*
X2701Y-1260D01*
X2720Y-1244D01*
X2736Y-1225D01*
X2749Y-1204D01*
X2758Y-1181D01*
X2764Y-1157D01*
X2765Y-1144D01*
X2770Y-1105D01*
X2811Y-1090D01*
X2819Y-1088D01*
X2842Y-1078D01*
X2864Y-1065D01*
X2882Y-1049D01*
X2898Y-1030D01*
X2911Y-1009D01*
X2921Y-986D01*
X2927Y-962D01*
X2929Y-937D01*
X2927Y-913D01*
X2921Y-889D01*
X2911Y-866D01*
X2898Y-845D01*
X2894Y-810D01*
X2912Y-787D01*
X2912Y-786D01*
X2928Y-768D01*
X2941Y-747D01*
X2950Y-724D01*
X2956Y-700D01*
X2958Y-675D01*
X2956Y-650D01*
X2950Y-626D01*
X2941Y-603D01*
X2928Y-582D01*
X2912Y-563D01*
X2893Y-547D01*
X2872Y-534D01*
X2849Y-525D01*
X2825Y-519D01*
X2800Y-517D01*
D02*
G37*
G36*
X3563Y-1102D02*
X3538Y-1104D01*
X3514Y-1110D01*
X3491Y-1119D01*
X3470Y-1132D01*
X3451Y-1148D01*
X3435Y-1167D01*
X3422Y-1188D01*
X3413Y-1211D01*
X3407Y-1235D01*
X3405Y-1260D01*
X3407Y-1285D01*
X3413Y-1309D01*
X3422Y-1332D01*
X3435Y-1353D01*
X3451Y-1372D01*
X3470Y-1388D01*
X3491Y-1401D01*
X3514Y-1410D01*
X3538Y-1416D01*
X3563Y-1418D01*
X3588Y-1416D01*
X3612Y-1410D01*
X3635Y-1401D01*
X3656Y-1388D01*
X3675Y-1372D01*
X3691Y-1353D01*
X3704Y-1332D01*
X3713Y-1309D01*
X3719Y-1285D01*
X3721Y-1260D01*
X3719Y-1235D01*
X3713Y-1211D01*
X3704Y-1188D01*
X3691Y-1167D01*
X3675Y-1148D01*
X3656Y-1132D01*
X3635Y-1119D01*
X3612Y-1110D01*
X3588Y-1104D01*
X3563Y-1102D01*
D02*
G37*
G36*
X-2362Y-1299D02*
X-2387Y-1301D01*
X-2411Y-1306D01*
X-2434Y-1316D01*
X-2455Y-1329D01*
X-2474Y-1345D01*
X-2490Y-1364D01*
X-2503Y-1385D01*
X-2512Y-1408D01*
X-2518Y-1432D01*
X-2520Y-1457D01*
X-2518Y-1481D01*
X-2512Y-1506D01*
X-2503Y-1528D01*
X-2490Y-1550D01*
X-2474Y-1568D01*
X-2455Y-1584D01*
X-2434Y-1597D01*
X-2411Y-1607D01*
X-2387Y-1613D01*
X-2362Y-1615D01*
X-2337Y-1613D01*
X-2313Y-1607D01*
X-2290Y-1597D01*
X-2269Y-1584D01*
X-2251Y-1568D01*
X-2234Y-1550D01*
X-2221Y-1528D01*
X-2212Y-1506D01*
X-2206Y-1481D01*
X-2204Y-1457D01*
X-2206Y-1432D01*
X-2212Y-1408D01*
X-2221Y-1385D01*
X-2234Y-1364D01*
X-2251Y-1345D01*
X-2269Y-1329D01*
X-2290Y-1316D01*
X-2313Y-1306D01*
X-2337Y-1301D01*
X-2362Y-1299D01*
D02*
G37*
G36*
X3219Y-1387D02*
X3194Y-1389D01*
X3170Y-1395D01*
X3147Y-1405D01*
X3126Y-1417D01*
X3107Y-1434D01*
X3091Y-1452D01*
X3078Y-1474D01*
X3068Y-1496D01*
X3062Y-1521D01*
X3061Y-1545D01*
X3062Y-1570D01*
X3068Y-1594D01*
X3078Y-1617D01*
X3091Y-1638D01*
X3107Y-1657D01*
X3126Y-1673D01*
X3147Y-1686D01*
X3170Y-1696D01*
X3194Y-1701D01*
X3219Y-1703D01*
X3243Y-1701D01*
X3267Y-1696D01*
X3290Y-1686D01*
X3311Y-1673D01*
X3330Y-1657D01*
X3346Y-1638D01*
X3359Y-1617D01*
X3369Y-1594D01*
X3375Y-1570D01*
X3376Y-1545D01*
X3375Y-1521D01*
X3369Y-1496D01*
X3359Y-1474D01*
X3346Y-1452D01*
X3330Y-1434D01*
X3311Y-1417D01*
X3290Y-1405D01*
X3267Y-1395D01*
X3243Y-1389D01*
X3219Y-1387D01*
D02*
G37*
G36*
X846D02*
X822Y-1389D01*
X798Y-1395D01*
X775Y-1405D01*
X754Y-1417D01*
X735Y-1434D01*
X719Y-1452D01*
X706Y-1474D01*
X696Y-1496D01*
X690Y-1521D01*
X688Y-1545D01*
X690Y-1570D01*
X696Y-1594D01*
X706Y-1617D01*
X719Y-1638D01*
X735Y-1657D01*
X754Y-1673D01*
X775Y-1686D01*
X798Y-1696D01*
X822Y-1701D01*
X846Y-1703D01*
X871Y-1701D01*
X895Y-1696D01*
X918Y-1686D01*
X939Y-1673D01*
X958Y-1657D01*
X974Y-1638D01*
X987Y-1617D01*
X997Y-1594D01*
X1002Y-1570D01*
X1004Y-1545D01*
X1002Y-1521D01*
X997Y-1496D01*
X987Y-1474D01*
X974Y-1452D01*
X958Y-1434D01*
X939Y-1417D01*
X918Y-1405D01*
X895Y-1395D01*
X871Y-1389D01*
X846Y-1387D01*
D02*
G37*
G36*
X2165Y-1023D02*
X2141Y-1025D01*
X2117Y-1031D01*
X2094Y-1040D01*
X2072Y-1053D01*
X2054Y-1069D01*
X2038Y-1088D01*
X2025Y-1109D01*
X2015Y-1132D01*
X2009Y-1156D01*
X2007Y-1181D01*
X2009Y-1206D01*
X2015Y-1230D01*
X2025Y-1253D01*
X2038Y-1274D01*
X2041Y-1278D01*
X2043Y-1286D01*
X2039Y-1326D01*
X2033Y-1339D01*
X2032Y-1339D01*
X2014Y-1355D01*
X1998Y-1374D01*
X1985Y-1395D01*
X1976Y-1418D01*
X1970Y-1442D01*
X1968Y-1467D01*
X1970Y-1491D01*
X1976Y-1515D01*
X1985Y-1538D01*
X1998Y-1559D01*
X2014Y-1578D01*
X2033Y-1594D01*
X2054Y-1607D01*
X2077Y-1617D01*
X2101Y-1623D01*
X2126Y-1625D01*
X2127Y-1624D01*
X2177Y-1629D01*
X2182Y-1653D01*
X2192Y-1676D01*
X2205Y-1697D01*
X2221Y-1716D01*
X2240Y-1732D01*
X2261Y-1745D01*
X2284Y-1755D01*
X2308Y-1760D01*
X2333Y-1762D01*
X2357Y-1760D01*
X2381Y-1755D01*
X2410Y-1752D01*
X2434Y-1784D01*
X2441Y-1796D01*
X2457Y-1814D01*
X2476Y-1831D01*
X2497Y-1844D01*
X2520Y-1853D01*
X2544Y-1859D01*
X2569Y-1861D01*
X2594Y-1859D01*
X2618Y-1853D01*
X2641Y-1844D01*
X2662Y-1831D01*
X2681Y-1814D01*
X2697Y-1796D01*
X2710Y-1774D01*
X2719Y-1752D01*
X2725Y-1727D01*
X2727Y-1703D01*
X2725Y-1678D01*
X2719Y-1654D01*
X2710Y-1631D01*
X2697Y-1610D01*
X2681Y-1591D01*
X2662Y-1575D01*
X2641Y-1562D01*
X2618Y-1553D01*
X2594Y-1547D01*
X2569Y-1545D01*
X2544Y-1547D01*
X2520Y-1553D01*
X2492Y-1555D01*
X2467Y-1523D01*
X2460Y-1511D01*
X2444Y-1493D01*
X2426Y-1477D01*
X2404Y-1464D01*
X2381Y-1454D01*
X2357Y-1448D01*
X2333Y-1446D01*
X2332Y-1446D01*
X2282Y-1442D01*
X2276Y-1418D01*
X2267Y-1395D01*
X2254Y-1374D01*
X2250Y-1370D01*
X2248Y-1361D01*
X2252Y-1322D01*
X2258Y-1309D01*
X2259Y-1308D01*
X2277Y-1293D01*
X2293Y-1274D01*
X2306Y-1253D01*
X2316Y-1230D01*
X2321Y-1206D01*
X2323Y-1181D01*
X2321Y-1156D01*
X2316Y-1132D01*
X2306Y-1109D01*
X2293Y-1088D01*
X2277Y-1069D01*
X2258Y-1053D01*
X2237Y-1040D01*
X2214Y-1031D01*
X2190Y-1025D01*
X2165Y-1023D01*
D02*
G37*
G36*
X-3642Y-1240D02*
X-3675Y-1241D01*
X-3707Y-1246D01*
X-3739Y-1254D01*
X-3770Y-1265D01*
X-3800Y-1279D01*
X-3828Y-1296D01*
X-3854Y-1316D01*
X-3879Y-1338D01*
X-3901Y-1362D01*
X-3920Y-1389D01*
X-3937Y-1417D01*
X-3951Y-1447D01*
X-3962Y-1478D01*
X-3970Y-1509D01*
X-3975Y-1542D01*
X-3977Y-1575D01*
X-3975Y-1608D01*
X-3970Y-1640D01*
X-3962Y-1672D01*
X-3951Y-1703D01*
X-3937Y-1733D01*
X-3920Y-1761D01*
X-3901Y-1787D01*
X-3879Y-1812D01*
X-3854Y-1834D01*
X-3828Y-1853D01*
X-3800Y-1870D01*
X-3770Y-1884D01*
X-3739Y-1895D01*
X-3707Y-1903D01*
X-3675Y-1908D01*
X-3642Y-1910D01*
X-3609Y-1908D01*
X-3576Y-1903D01*
X-3544Y-1895D01*
X-3514Y-1884D01*
X-3484Y-1870D01*
X-3456Y-1853D01*
X-3429Y-1834D01*
X-3405Y-1812D01*
X-3383Y-1787D01*
X-3363Y-1761D01*
X-3346Y-1733D01*
X-3332Y-1703D01*
X-3321Y-1672D01*
X-3313Y-1640D01*
X-3308Y-1608D01*
X-3307Y-1575D01*
X-3308Y-1542D01*
X-3313Y-1509D01*
X-3321Y-1478D01*
X-3332Y-1447D01*
X-3346Y-1417D01*
X-3363Y-1389D01*
X-3383Y-1362D01*
X-3405Y-1338D01*
X-3429Y-1316D01*
X-3456Y-1296D01*
X-3484Y-1279D01*
X-3514Y-1265D01*
X-3544Y-1254D01*
X-3576Y-1246D01*
X-3609Y-1241D01*
X-3642Y-1240D01*
D02*
G37*
G36*
X1693Y-1702D02*
X1669Y-1704D01*
X1645Y-1710D01*
X1622Y-1720D01*
X1601Y-1733D01*
X1582Y-1749D01*
X1566Y-1768D01*
X1553Y-1789D01*
X1543Y-1812D01*
X1537Y-1836D01*
X1535Y-1860D01*
X1537Y-1885D01*
X1543Y-1909D01*
X1553Y-1932D01*
X1566Y-1953D01*
X1582Y-1972D01*
X1601Y-1988D01*
X1622Y-2001D01*
X1645Y-2011D01*
X1669Y-2016D01*
X1693Y-2018D01*
X1718Y-2016D01*
X1742Y-2011D01*
X1765Y-2001D01*
X1786Y-1988D01*
X1805Y-1972D01*
X1821Y-1953D01*
X1834Y-1932D01*
X1844Y-1909D01*
X1849Y-1885D01*
X1851Y-1860D01*
X1849Y-1836D01*
X1844Y-1812D01*
X1834Y-1789D01*
X1821Y-1768D01*
X1805Y-1749D01*
X1786Y-1733D01*
X1765Y-1720D01*
X1742Y-1710D01*
X1718Y-1704D01*
X1693Y-1702D01*
D02*
G37*
G36*
X207Y-1870D02*
X182Y-1872D01*
X158Y-1877D01*
X135Y-1887D01*
X114Y-1900D01*
X95Y-1916D01*
X79Y-1935D01*
X66Y-1956D01*
X56Y-1979D01*
X51Y-2003D01*
X49Y-2028D01*
X51Y-2052D01*
X56Y-2076D01*
X66Y-2099D01*
X79Y-2120D01*
X95Y-2139D01*
X114Y-2155D01*
X135Y-2168D01*
X158Y-2178D01*
X182Y-2184D01*
X207Y-2186D01*
X231Y-2184D01*
X256Y-2178D01*
X278Y-2168D01*
X300Y-2155D01*
X318Y-2139D01*
X334Y-2120D01*
X347Y-2099D01*
X357Y-2076D01*
X363Y-2052D01*
X365Y-2028D01*
X363Y-2003D01*
X357Y-1979D01*
X347Y-1956D01*
X334Y-1935D01*
X318Y-1916D01*
X300Y-1900D01*
X278Y-1887D01*
X256Y-1877D01*
X231Y-1872D01*
X207Y-1870D01*
D02*
G37*
G36*
X600Y-1958D02*
X576Y-1960D01*
X552Y-1966D01*
X529Y-1975D01*
X508Y-1988D01*
X489Y-2004D01*
X473Y-2023D01*
X460Y-2044D01*
X450Y-2067D01*
X444Y-2091D01*
X442Y-2116D01*
X444Y-2141D01*
X450Y-2165D01*
X460Y-2188D01*
X473Y-2209D01*
X489Y-2228D01*
X508Y-2244D01*
X529Y-2257D01*
X552Y-2266D01*
X576Y-2272D01*
X600Y-2274D01*
X625Y-2272D01*
X649Y-2266D01*
X672Y-2257D01*
X693Y-2244D01*
X712Y-2228D01*
X728Y-2209D01*
X741Y-2188D01*
X751Y-2165D01*
X756Y-2141D01*
X758Y-2116D01*
X756Y-2091D01*
X751Y-2067D01*
X741Y-2044D01*
X728Y-2023D01*
X712Y-2004D01*
X693Y-1988D01*
X672Y-1975D01*
X649Y-1966D01*
X625Y-1960D01*
X600Y-1958D01*
D02*
G37*
G36*
X-187Y-2066D02*
X-212Y-2068D01*
X-236Y-2074D01*
X-259Y-2084D01*
X-280Y-2097D01*
X-299Y-2113D01*
X-315Y-2132D01*
X-328Y-2153D01*
X-337Y-2176D01*
X-343Y-2200D01*
X-345Y-2224D01*
X-343Y-2249D01*
X-337Y-2273D01*
X-328Y-2296D01*
X-315Y-2317D01*
X-299Y-2336D01*
X-280Y-2352D01*
X-259Y-2365D01*
X-236Y-2375D01*
X-212Y-2380D01*
X-187Y-2382D01*
X-162Y-2380D01*
X-138Y-2375D01*
X-115Y-2365D01*
X-94Y-2352D01*
X-75Y-2336D01*
X-59Y-2317D01*
X-46Y-2296D01*
X-37Y-2273D01*
X-31Y-2249D01*
X-29Y-2224D01*
X-31Y-2200D01*
X-37Y-2176D01*
X-46Y-2153D01*
X-59Y-2132D01*
X-75Y-2113D01*
X-94Y-2097D01*
X-115Y-2084D01*
X-138Y-2074D01*
X-162Y-2068D01*
X-187Y-2066D01*
D02*
G37*
G36*
X-1122Y-2076D02*
X-1147Y-2078D01*
X-1171Y-2084D01*
X-1194Y-2094D01*
X-1215Y-2106D01*
X-1234Y-2123D01*
X-1250Y-2141D01*
X-1263Y-2163D01*
X-1272Y-2185D01*
X-1278Y-2210D01*
X-1280Y-2234D01*
X-1278Y-2259D01*
X-1272Y-2283D01*
X-1263Y-2306D01*
X-1250Y-2327D01*
X-1234Y-2346D01*
X-1215Y-2362D01*
X-1194Y-2375D01*
X-1171Y-2384D01*
X-1147Y-2390D01*
X-1122Y-2392D01*
X-1097Y-2390D01*
X-1073Y-2384D01*
X-1050Y-2375D01*
X-1029Y-2362D01*
X-1010Y-2346D01*
X-994Y-2327D01*
X-981Y-2306D01*
X-972Y-2283D01*
X-966Y-2259D01*
X-964Y-2234D01*
X-966Y-2210D01*
X-972Y-2185D01*
X-981Y-2163D01*
X-994Y-2141D01*
X-1010Y-2123D01*
X-1029Y-2106D01*
X-1050Y-2094D01*
X-1073Y-2084D01*
X-1097Y-2078D01*
X-1122Y-2076D01*
D02*
G37*
G36*
X-4222Y-2204D02*
X-4247Y-2206D01*
X-4271Y-2212D01*
X-4294Y-2221D01*
X-4315Y-2234D01*
X-4334Y-2251D01*
X-4350Y-2269D01*
X-4363Y-2290D01*
X-4373Y-2313D01*
X-4378Y-2337D01*
X-4380Y-2362D01*
X-4379Y-2375D01*
X-4383Y-2386D01*
X-4394Y-2400D01*
X-4421Y-2421D01*
X-4429Y-2421D01*
X-4462Y-2422D01*
X-4494Y-2427D01*
X-4526Y-2435D01*
X-4557Y-2446D01*
X-4587Y-2460D01*
X-4615Y-2477D01*
X-4642Y-2497D01*
X-4666Y-2519D01*
X-4688Y-2543D01*
X-4708Y-2570D01*
X-4725Y-2598D01*
X-4739Y-2628D01*
X-4750Y-2659D01*
X-4758Y-2691D01*
X-4760Y-2706D01*
X-4429D01*
X-4098D01*
X-4101Y-2691D01*
X-4109Y-2659D01*
X-4120Y-2628D01*
X-4134Y-2598D01*
X-4151Y-2570D01*
X-4159Y-2558D01*
X-4159Y-2558D01*
X-4152Y-2513D01*
X-4144Y-2499D01*
X-4130Y-2490D01*
X-4111Y-2474D01*
X-4095Y-2455D01*
X-4082Y-2434D01*
X-4072Y-2411D01*
X-4066Y-2387D01*
X-4064Y-2362D01*
X-4066Y-2337D01*
X-4072Y-2313D01*
X-4082Y-2290D01*
X-4095Y-2269D01*
X-4111Y-2251D01*
X-4130Y-2234D01*
X-4151Y-2221D01*
X-4174Y-2212D01*
X-4198Y-2206D01*
X-4222Y-2204D01*
D02*
G37*
G36*
X1220Y-2007D02*
X1196Y-2009D01*
X1172Y-2015D01*
X1149Y-2025D01*
X1128Y-2038D01*
X1109Y-2054D01*
X1093Y-2072D01*
X1080Y-2094D01*
X1070Y-2117D01*
X1064Y-2141D01*
X1063Y-2165D01*
X1064Y-2190D01*
X1070Y-2214D01*
X1080Y-2237D01*
X1093Y-2258D01*
X1109Y-2277D01*
X1093Y-2319D01*
X1080Y-2340D01*
X1070Y-2363D01*
X1064Y-2387D01*
X1063Y-2411D01*
X1064Y-2436D01*
X1070Y-2460D01*
X1080Y-2483D01*
X1093Y-2504D01*
X1109Y-2523D01*
X1128Y-2539D01*
X1149Y-2552D01*
X1172Y-2562D01*
X1196Y-2567D01*
X1220Y-2569D01*
X1245Y-2567D01*
X1269Y-2562D01*
X1292Y-2552D01*
X1313Y-2539D01*
X1332Y-2523D01*
X1348Y-2504D01*
X1361Y-2483D01*
X1371Y-2460D01*
X1376Y-2436D01*
X1378Y-2411D01*
X1376Y-2387D01*
X1371Y-2363D01*
X1361Y-2340D01*
X1348Y-2319D01*
X1332Y-2300D01*
X1348Y-2258D01*
X1361Y-2237D01*
X1371Y-2214D01*
X1376Y-2190D01*
X1378Y-2165D01*
X1376Y-2141D01*
X1371Y-2117D01*
X1361Y-2094D01*
X1348Y-2072D01*
X1332Y-2054D01*
X1313Y-2038D01*
X1292Y-2025D01*
X1269Y-2015D01*
X1245Y-2009D01*
X1220Y-2007D01*
D02*
G37*
G36*
X187Y-2293D02*
X162Y-2295D01*
X138Y-2301D01*
X115Y-2310D01*
X94Y-2323D01*
X75Y-2339D01*
X59Y-2358D01*
X46Y-2379D01*
X37Y-2402D01*
X31Y-2426D01*
X29Y-2451D01*
X31Y-2475D01*
X37Y-2500D01*
X46Y-2522D01*
X59Y-2544D01*
X75Y-2562D01*
X94Y-2579D01*
X115Y-2592D01*
X138Y-2601D01*
X162Y-2607D01*
X187Y-2609D01*
X212Y-2607D01*
X236Y-2601D01*
X259Y-2592D01*
X280Y-2579D01*
X299Y-2562D01*
X315Y-2544D01*
X328Y-2522D01*
X337Y-2500D01*
X343Y-2475D01*
X345Y-2451D01*
X343Y-2426D01*
X337Y-2402D01*
X328Y-2379D01*
X315Y-2358D01*
X299Y-2339D01*
X280Y-2323D01*
X259Y-2310D01*
X236Y-2301D01*
X212Y-2295D01*
X187Y-2293D01*
D02*
G37*
G36*
X-2362Y-2047D02*
X-2387Y-2049D01*
X-2411Y-2054D01*
X-2434Y-2064D01*
X-2455Y-2077D01*
X-2474Y-2093D01*
X-2490Y-2112D01*
X-2503Y-2133D01*
X-2512Y-2156D01*
X-2518Y-2180D01*
X-2520Y-2205D01*
X-2518Y-2229D01*
X-2512Y-2254D01*
X-2503Y-2276D01*
X-2490Y-2298D01*
X-2480Y-2310D01*
X-2474Y-2320D01*
Y-2365D01*
X-2480Y-2375D01*
X-2490Y-2387D01*
X-2503Y-2409D01*
X-2512Y-2431D01*
X-2518Y-2456D01*
X-2520Y-2480D01*
X-2518Y-2505D01*
X-2512Y-2529D01*
X-2503Y-2552D01*
X-2490Y-2573D01*
X-2474Y-2592D01*
X-2455Y-2608D01*
X-2434Y-2621D01*
X-2411Y-2631D01*
X-2387Y-2636D01*
X-2362Y-2638D01*
X-2337Y-2636D01*
X-2313Y-2631D01*
X-2290Y-2621D01*
X-2269Y-2608D01*
X-2251Y-2592D01*
X-2234Y-2573D01*
X-2221Y-2552D01*
X-2212Y-2529D01*
X-2206Y-2505D01*
X-2204Y-2480D01*
X-2206Y-2456D01*
X-2212Y-2431D01*
X-2221Y-2409D01*
X-2234Y-2387D01*
X-2245Y-2375D01*
X-2251Y-2365D01*
Y-2320D01*
X-2245Y-2310D01*
X-2234Y-2298D01*
X-2221Y-2276D01*
X-2212Y-2254D01*
X-2206Y-2229D01*
X-2204Y-2205D01*
X-2206Y-2180D01*
X-2212Y-2156D01*
X-2221Y-2133D01*
X-2234Y-2112D01*
X-2251Y-2093D01*
X-2269Y-2077D01*
X-2290Y-2064D01*
X-2313Y-2054D01*
X-2337Y-2049D01*
X-2362Y-2047D01*
D02*
G37*
G36*
X-3642Y-2027D02*
X-3675Y-2029D01*
X-3707Y-2034D01*
X-3739Y-2042D01*
X-3770Y-2053D01*
X-3800Y-2067D01*
X-3828Y-2084D01*
X-3854Y-2103D01*
X-3879Y-2125D01*
X-3901Y-2150D01*
X-3920Y-2176D01*
X-3937Y-2204D01*
X-3951Y-2234D01*
X-3962Y-2265D01*
X-3970Y-2297D01*
X-3975Y-2329D01*
X-3977Y-2362D01*
X-3975Y-2395D01*
X-3970Y-2428D01*
X-3962Y-2459D01*
X-3951Y-2490D01*
X-3937Y-2520D01*
X-3920Y-2548D01*
X-3901Y-2575D01*
X-3879Y-2599D01*
X-3854Y-2621D01*
X-3828Y-2641D01*
X-3800Y-2658D01*
X-3770Y-2672D01*
X-3739Y-2683D01*
X-3707Y-2691D01*
X-3675Y-2696D01*
X-3642Y-2697D01*
X-3609Y-2696D01*
X-3576Y-2691D01*
X-3544Y-2683D01*
X-3514Y-2672D01*
X-3484Y-2658D01*
X-3456Y-2641D01*
X-3429Y-2621D01*
X-3405Y-2599D01*
X-3383Y-2575D01*
X-3363Y-2548D01*
X-3346Y-2520D01*
X-3332Y-2490D01*
X-3321Y-2459D01*
X-3313Y-2428D01*
X-3308Y-2395D01*
X-3307Y-2362D01*
X-3308Y-2329D01*
X-3313Y-2297D01*
X-3321Y-2265D01*
X-3332Y-2234D01*
X-3346Y-2204D01*
X-3363Y-2176D01*
X-3383Y-2150D01*
X-3405Y-2125D01*
X-3429Y-2103D01*
X-3456Y-2084D01*
X-3484Y-2067D01*
X-3514Y-2053D01*
X-3544Y-2042D01*
X-3576Y-2034D01*
X-3609Y-2029D01*
X-3642Y-2027D01*
D02*
G37*
G36*
X699Y-2637D02*
X674Y-2639D01*
X650Y-2645D01*
X627Y-2655D01*
X606Y-2667D01*
X587Y-2684D01*
X571Y-2702D01*
X558Y-2724D01*
X549Y-2746D01*
X503Y-2751D01*
X479Y-2750D01*
X454Y-2751D01*
X430Y-2757D01*
X407Y-2767D01*
X386Y-2780D01*
X367Y-2796D01*
X351Y-2815D01*
X338Y-2836D01*
X328Y-2859D01*
X323Y-2883D01*
X321Y-2907D01*
X323Y-2932D01*
X328Y-2956D01*
X338Y-2979D01*
X351Y-3000D01*
X367Y-3019D01*
X386Y-3035D01*
X407Y-3048D01*
X430Y-3058D01*
X454Y-3063D01*
X479Y-3065D01*
X503Y-3063D01*
X527Y-3058D01*
X550Y-3048D01*
X571Y-3035D01*
X590Y-3019D01*
X606Y-3000D01*
X619Y-2979D01*
X641Y-2955D01*
X674Y-2951D01*
X701Y-2963D01*
X709Y-3002D01*
X710Y-3017D01*
X716Y-3041D01*
X725Y-3064D01*
X738Y-3085D01*
X754Y-3104D01*
X773Y-3120D01*
X794Y-3133D01*
X817Y-3142D01*
X841Y-3148D01*
X866Y-3150D01*
X891Y-3148D01*
X915Y-3142D01*
X938Y-3133D01*
X959Y-3120D01*
X978Y-3104D01*
X994Y-3085D01*
X1007Y-3064D01*
X1016Y-3041D01*
X1022Y-3017D01*
X1024Y-2992D01*
X1022Y-2967D01*
X1016Y-2943D01*
X1007Y-2920D01*
X994Y-2899D01*
X978Y-2880D01*
X959Y-2864D01*
X938Y-2851D01*
X915Y-2842D01*
X891Y-2836D01*
X864Y-2824D01*
X856Y-2786D01*
X855Y-2771D01*
X849Y-2746D01*
X840Y-2724D01*
X827Y-2702D01*
X811Y-2684D01*
X792Y-2667D01*
X771Y-2655D01*
X748Y-2645D01*
X724Y-2639D01*
X699Y-2637D01*
D02*
G37*
G36*
X2717Y-2559D02*
X2692Y-2561D01*
X2668Y-2566D01*
X2645Y-2576D01*
X2624Y-2589D01*
X2605Y-2605D01*
X2589Y-2624D01*
X2576Y-2645D01*
X2566Y-2668D01*
X2561Y-2692D01*
X2559Y-2717D01*
X2561Y-2741D01*
X2566Y-2765D01*
X2576Y-2788D01*
X2589Y-2809D01*
X2605Y-2828D01*
X2624Y-2844D01*
X2645Y-2857D01*
X2668Y-2867D01*
X2692Y-2873D01*
X2717Y-2874D01*
X2741Y-2873D01*
X2765Y-2867D01*
X2788Y-2857D01*
X2809Y-2844D01*
X2828Y-2828D01*
X2844Y-2809D01*
X2857Y-2788D01*
X2867Y-2765D01*
X2873Y-2741D01*
X2874Y-2717D01*
X2873Y-2692D01*
X2867Y-2668D01*
X2857Y-2645D01*
X2844Y-2624D01*
X2828Y-2605D01*
X2809Y-2589D01*
X2788Y-2576D01*
X2765Y-2566D01*
X2741Y-2561D01*
X2717Y-2559D01*
D02*
G37*
G36*
X1831Y-2677D02*
X1806Y-2679D01*
X1782Y-2684D01*
X1759Y-2694D01*
X1738Y-2707D01*
X1719Y-2723D01*
X1703Y-2742D01*
X1690Y-2763D01*
X1680Y-2786D01*
X1675Y-2810D01*
X1673Y-2835D01*
X1675Y-2859D01*
X1680Y-2883D01*
X1690Y-2906D01*
X1703Y-2928D01*
X1719Y-2946D01*
X1738Y-2962D01*
X1759Y-2975D01*
X1782Y-2985D01*
X1806Y-2991D01*
X1831Y-2993D01*
X1855Y-2991D01*
X1880Y-2985D01*
X1902Y-2975D01*
X1924Y-2962D01*
X1942Y-2946D01*
X1958Y-2928D01*
X1971Y-2906D01*
X1981Y-2883D01*
X1987Y-2859D01*
X1989Y-2835D01*
X1987Y-2810D01*
X1981Y-2786D01*
X1971Y-2763D01*
X1958Y-2742D01*
X1942Y-2723D01*
X1924Y-2707D01*
X1902Y-2694D01*
X1880Y-2684D01*
X1855Y-2679D01*
X1831Y-2677D01*
D02*
G37*
G36*
X-4098Y-2806D02*
X-4379D01*
Y-3087D01*
X-4364Y-3085D01*
X-4332Y-3077D01*
X-4301Y-3065D01*
X-4271Y-3051D01*
X-4243Y-3034D01*
X-4217Y-3015D01*
X-4192Y-2993D01*
X-4170Y-2968D01*
X-4151Y-2942D01*
X-4134Y-2914D01*
X-4120Y-2884D01*
X-4109Y-2853D01*
X-4101Y-2821D01*
X-4098Y-2806D01*
D02*
G37*
G36*
X-4479D02*
X-4760D01*
X-4758Y-2821D01*
X-4750Y-2853D01*
X-4739Y-2884D01*
X-4725Y-2914D01*
X-4708Y-2942D01*
X-4688Y-2968D01*
X-4666Y-2993D01*
X-4642Y-3015D01*
X-4615Y-3034D01*
X-4587Y-3051D01*
X-4557Y-3065D01*
X-4526Y-3077D01*
X-4494Y-3085D01*
X-4479Y-3087D01*
Y-2806D01*
D02*
G37*
G36*
X-1949Y-3170D02*
X-1983Y-3172D01*
X-2018Y-3177D01*
X-2051Y-3186D01*
X-2084Y-3197D01*
X-2115Y-3212D01*
X-2145Y-3230D01*
X-2173Y-3251D01*
X-2199Y-3274D01*
X-2222Y-3300D01*
X-2242Y-3327D01*
X-2260Y-3357D01*
X-2271Y-3381D01*
X-2277Y-3385D01*
X-2291Y-3391D01*
X-2328Y-3396D01*
X-2330Y-3395D01*
X-2350Y-3383D01*
X-2372Y-3373D01*
X-2397Y-3368D01*
X-2421Y-3366D01*
X-2446Y-3368D01*
X-2470Y-3373D01*
X-2493Y-3383D01*
X-2514Y-3396D01*
X-2533Y-3412D01*
X-2549Y-3431D01*
X-2562Y-3452D01*
X-2571Y-3475D01*
X-2577Y-3499D01*
X-2579Y-3524D01*
X-2577Y-3548D01*
X-2571Y-3572D01*
X-2562Y-3595D01*
X-2549Y-3616D01*
X-2533Y-3635D01*
X-2514Y-3651D01*
X-2493Y-3664D01*
X-2470Y-3674D01*
X-2446Y-3680D01*
X-2421Y-3682D01*
X-2397Y-3680D01*
X-2372Y-3674D01*
X-2350Y-3664D01*
X-2330Y-3652D01*
X-2328Y-3651D01*
X-2291Y-3657D01*
X-2277Y-3662D01*
X-2271Y-3666D01*
X-2260Y-3690D01*
X-2242Y-3720D01*
X-2222Y-3748D01*
X-2199Y-3773D01*
X-2173Y-3797D01*
X-2145Y-3817D01*
X-2115Y-3835D01*
X-2084Y-3850D01*
X-2051Y-3862D01*
X-2018Y-3870D01*
X-1983Y-3875D01*
X-1949Y-3877D01*
X-1914Y-3875D01*
X-1880Y-3870D01*
X-1846Y-3862D01*
X-1814Y-3850D01*
X-1782Y-3835D01*
X-1753Y-3817D01*
X-1725Y-3797D01*
X-1699Y-3773D01*
X-1676Y-3748D01*
X-1655Y-3720D01*
X-1637Y-3690D01*
X-1623Y-3659D01*
X-1611Y-3626D01*
X-1602Y-3593D01*
X-1597Y-3558D01*
X-1596Y-3524D01*
X-1597Y-3489D01*
X-1602Y-3455D01*
X-1611Y-3421D01*
X-1623Y-3388D01*
X-1637Y-3357D01*
X-1655Y-3327D01*
X-1676Y-3300D01*
X-1699Y-3274D01*
X-1725Y-3251D01*
X-1753Y-3230D01*
X-1782Y-3212D01*
X-1814Y-3197D01*
X-1846Y-3186D01*
X-1880Y-3177D01*
X-1914Y-3172D01*
X-1949Y-3170D01*
D02*
G37*
G36*
X2844Y-3110D02*
X2820Y-3112D01*
X2796Y-3117D01*
X2773Y-3127D01*
X2752Y-3140D01*
X2733Y-3156D01*
X2717Y-3175D01*
X2704Y-3196D01*
X2694Y-3219D01*
X2688Y-3243D01*
X2687Y-3268D01*
X2688Y-3292D01*
X2694Y-3317D01*
X2704Y-3339D01*
X2717Y-3361D01*
X2733Y-3379D01*
X2752Y-3396D01*
X2773Y-3408D01*
X2796Y-3418D01*
X2820Y-3424D01*
X2844Y-3426D01*
X2869Y-3424D01*
X2893Y-3418D01*
X2916Y-3408D01*
X2937Y-3396D01*
X2956Y-3379D01*
X2972Y-3361D01*
X2985Y-3339D01*
X2995Y-3317D01*
X3001Y-3292D01*
X3002Y-3268D01*
X3001Y-3243D01*
X2995Y-3219D01*
X2985Y-3196D01*
X2972Y-3175D01*
X2956Y-3156D01*
X2937Y-3140D01*
X2916Y-3127D01*
X2893Y-3117D01*
X2869Y-3112D01*
X2844Y-3110D01*
D02*
G37*
G36*
X-3642Y-2815D02*
X-3675Y-2816D01*
X-3707Y-2821D01*
X-3739Y-2829D01*
X-3770Y-2840D01*
X-3800Y-2854D01*
X-3828Y-2871D01*
X-3854Y-2891D01*
X-3879Y-2913D01*
X-3901Y-2937D01*
X-3920Y-2963D01*
X-3937Y-2992D01*
X-3951Y-3021D01*
X-3962Y-3052D01*
X-3970Y-3084D01*
X-3975Y-3117D01*
X-3977Y-3150D01*
X-3975Y-3182D01*
X-3970Y-3215D01*
X-3962Y-3247D01*
X-3951Y-3278D01*
X-3937Y-3308D01*
X-3920Y-3336D01*
X-3901Y-3362D01*
X-3879Y-3387D01*
X-3854Y-3409D01*
X-3828Y-3428D01*
X-3800Y-3445D01*
X-3770Y-3459D01*
X-3739Y-3470D01*
X-3707Y-3478D01*
X-3675Y-3483D01*
X-3642Y-3485D01*
X-3609Y-3483D01*
X-3576Y-3478D01*
X-3544Y-3470D01*
X-3514Y-3459D01*
X-3484Y-3445D01*
X-3456Y-3428D01*
X-3429Y-3409D01*
X-3405Y-3387D01*
X-3383Y-3362D01*
X-3363Y-3336D01*
X-3346Y-3308D01*
X-3332Y-3278D01*
X-3321Y-3247D01*
X-3313Y-3215D01*
X-3308Y-3182D01*
X-3307Y-3150D01*
X-3308Y-3117D01*
X-3313Y-3084D01*
X-3321Y-3052D01*
X-3332Y-3021D01*
X-3346Y-2992D01*
X-3363Y-2963D01*
X-3383Y-2937D01*
X-3405Y-2913D01*
X-3429Y-2891D01*
X-3456Y-2871D01*
X-3484Y-2854D01*
X-3514Y-2840D01*
X-3544Y-2829D01*
X-3576Y-2821D01*
X-3609Y-2816D01*
X-3642Y-2815D01*
D02*
G37*
G36*
X1752Y-3602D02*
X1727Y-3604D01*
X1703Y-3610D01*
X1680Y-3619D01*
X1659Y-3632D01*
X1640Y-3648D01*
X1624Y-3667D01*
X1611Y-3688D01*
X1602Y-3711D01*
X1596Y-3735D01*
X1594Y-3760D01*
X1596Y-3785D01*
X1602Y-3809D01*
X1611Y-3832D01*
X1624Y-3853D01*
X1640Y-3872D01*
X1659Y-3888D01*
X1680Y-3901D01*
X1703Y-3910D01*
X1727Y-3916D01*
X1752Y-3918D01*
X1777Y-3916D01*
X1801Y-3910D01*
X1824Y-3901D01*
X1845Y-3888D01*
X1864Y-3872D01*
X1880Y-3853D01*
X1893Y-3832D01*
X1902Y-3809D01*
X1908Y-3785D01*
X1910Y-3760D01*
X1908Y-3735D01*
X1902Y-3711D01*
X1893Y-3688D01*
X1880Y-3667D01*
X1864Y-3648D01*
X1845Y-3632D01*
X1824Y-3619D01*
X1801Y-3610D01*
X1777Y-3604D01*
X1752Y-3602D01*
D02*
G37*
G36*
X-3642Y-3602D02*
X-3675Y-3604D01*
X-3707Y-3608D01*
X-3739Y-3616D01*
X-3770Y-3627D01*
X-3800Y-3642D01*
X-3828Y-3658D01*
X-3854Y-3678D01*
X-3879Y-3700D01*
X-3901Y-3724D01*
X-3920Y-3751D01*
X-3937Y-3779D01*
X-3951Y-3809D01*
X-3962Y-3840D01*
X-3970Y-3872D01*
X-3975Y-3904D01*
X-3977Y-3937D01*
X-3975Y-3970D01*
X-3970Y-4002D01*
X-3962Y-4034D01*
X-3951Y-4065D01*
X-3937Y-4095D01*
X-3920Y-4123D01*
X-3901Y-4150D01*
X-3879Y-4174D01*
X-3854Y-4196D01*
X-3828Y-4216D01*
X-3800Y-4232D01*
X-3770Y-4247D01*
X-3739Y-4258D01*
X-3707Y-4266D01*
X-3675Y-4270D01*
X-3642Y-4272D01*
X-3609Y-4270D01*
X-3576Y-4266D01*
X-3544Y-4258D01*
X-3514Y-4247D01*
X-3484Y-4232D01*
X-3456Y-4216D01*
X-3429Y-4196D01*
X-3405Y-4174D01*
X-3383Y-4150D01*
X-3363Y-4123D01*
X-3346Y-4095D01*
X-3332Y-4065D01*
X-3321Y-4034D01*
X-3313Y-4002D01*
X-3308Y-3970D01*
X-3307Y-3937D01*
X-3308Y-3904D01*
X-3313Y-3872D01*
X-3321Y-3840D01*
X-3332Y-3809D01*
X-3346Y-3779D01*
X-3363Y-3751D01*
X-3383Y-3724D01*
X-3405Y-3700D01*
X-3429Y-3678D01*
X-3456Y-3658D01*
X-3484Y-3642D01*
X-3514Y-3627D01*
X-3544Y-3616D01*
X-3576Y-3608D01*
X-3609Y-3604D01*
X-3642Y-3602D01*
D02*
G37*
G36*
X-1776Y-4488D02*
X-1810Y-4489D01*
X-1845Y-4495D01*
X-1879Y-4503D01*
X-1911Y-4515D01*
X-1943Y-4530D01*
X-1973Y-4548D01*
X-2001Y-4568D01*
X-2026Y-4592D01*
X-2050Y-4617D01*
X-2071Y-4645D01*
X-2088Y-4675D01*
X-2103Y-4707D01*
X-2115Y-4740D01*
X-2124Y-4773D01*
X-2129Y-4808D01*
X-2130Y-4843D01*
X-2129Y-4877D01*
X-2124Y-4912D01*
X-2115Y-4945D01*
X-2103Y-4978D01*
X-2088Y-5010D01*
X-2071Y-5040D01*
X-2050Y-5068D01*
X-2026Y-5093D01*
X-2001Y-5117D01*
X-1973Y-5137D01*
X-1943Y-5155D01*
X-1911Y-5170D01*
X-1879Y-5182D01*
X-1845Y-5190D01*
X-1810Y-5196D01*
X-1776Y-5197D01*
X-1741Y-5196D01*
X-1706Y-5190D01*
X-1673Y-5182D01*
X-1640Y-5170D01*
X-1608Y-5155D01*
X-1578Y-5137D01*
X-1551Y-5117D01*
X-1525Y-5093D01*
X-1501Y-5068D01*
X-1481Y-5040D01*
X-1463Y-5010D01*
X-1448Y-4978D01*
X-1436Y-4945D01*
X-1428Y-4912D01*
X-1423Y-4877D01*
X-1421Y-4843D01*
X-1423Y-4808D01*
X-1428Y-4773D01*
X-1436Y-4740D01*
X-1448Y-4707D01*
X-1463Y-4675D01*
X-1481Y-4645D01*
X-1501Y-4617D01*
X-1525Y-4592D01*
X-1551Y-4568D01*
X-1578Y-4548D01*
X-1608Y-4530D01*
X-1640Y-4515D01*
X-1673Y-4503D01*
X-1706Y-4495D01*
X-1741Y-4489D01*
X-1776Y-4488D01*
D02*
G37*
G36*
X-2776D02*
X-2810Y-4489D01*
X-2845Y-4495D01*
X-2879Y-4503D01*
X-2911Y-4515D01*
X-2943Y-4530D01*
X-2973Y-4548D01*
X-3001Y-4568D01*
X-3026Y-4592D01*
X-3050Y-4617D01*
X-3071Y-4645D01*
X-3088Y-4675D01*
X-3103Y-4707D01*
X-3115Y-4740D01*
X-3124Y-4773D01*
X-3129Y-4808D01*
X-3130Y-4843D01*
X-3129Y-4877D01*
X-3124Y-4912D01*
X-3115Y-4945D01*
X-3103Y-4978D01*
X-3088Y-5010D01*
X-3071Y-5040D01*
X-3050Y-5068D01*
X-3026Y-5093D01*
X-3001Y-5117D01*
X-2973Y-5137D01*
X-2943Y-5155D01*
X-2911Y-5170D01*
X-2879Y-5182D01*
X-2845Y-5190D01*
X-2810Y-5196D01*
X-2776Y-5197D01*
X-2741Y-5196D01*
X-2706Y-5190D01*
X-2673Y-5182D01*
X-2640Y-5170D01*
X-2608Y-5155D01*
X-2578Y-5137D01*
X-2551Y-5117D01*
X-2525Y-5093D01*
X-2501Y-5068D01*
X-2481Y-5040D01*
X-2463Y-5010D01*
X-2448Y-4978D01*
X-2436Y-4945D01*
X-2428Y-4912D01*
X-2423Y-4877D01*
X-2421Y-4843D01*
X-2423Y-4808D01*
X-2428Y-4773D01*
X-2436Y-4740D01*
X-2448Y-4707D01*
X-2463Y-4675D01*
X-2481Y-4645D01*
X-2501Y-4617D01*
X-2525Y-4592D01*
X-2551Y-4568D01*
X-2578Y-4548D01*
X-2608Y-4530D01*
X-2640Y-4515D01*
X-2673Y-4503D01*
X-2706Y-4495D01*
X-2741Y-4489D01*
X-2776Y-4488D01*
D02*
G37*
G36*
X-433Y-5314D02*
X-458Y-5316D01*
X-482Y-5322D01*
X-505Y-5332D01*
X-526Y-5345D01*
X-545Y-5361D01*
X-561Y-5380D01*
X-574Y-5401D01*
X-583Y-5424D01*
X-589Y-5448D01*
X-591Y-5472D01*
X-589Y-5497D01*
X-583Y-5521D01*
X-574Y-5544D01*
X-561Y-5565D01*
X-545Y-5584D01*
X-526Y-5600D01*
X-505Y-5613D01*
X-482Y-5623D01*
X-458Y-5628D01*
X-433Y-5630D01*
X-408Y-5628D01*
X-384Y-5623D01*
X-361Y-5613D01*
X-340Y-5600D01*
X-321Y-5584D01*
X-305Y-5565D01*
X-292Y-5544D01*
X-283Y-5521D01*
X-277Y-5497D01*
X-275Y-5472D01*
X-277Y-5448D01*
X-283Y-5424D01*
X-292Y-5401D01*
X-305Y-5380D01*
X-321Y-5361D01*
X-340Y-5345D01*
X-361Y-5332D01*
X-384Y-5322D01*
X-408Y-5316D01*
X-433Y-5314D01*
D02*
G37*
%LPD*%
D118*
X-4793Y500D02*
D03*
X-4793Y0D02*
D03*
X-4793Y-1000D02*
D03*
D134*
X-4429Y-2756D02*
D03*
D135*
X-3776Y-4843D02*
D03*
D137*
X-2037Y-3041D02*
D03*
X-5581Y10D02*
D03*
X-6260Y-167D02*
D03*
X-6250Y187D02*
D03*
X-266Y-3406D02*
D03*
X-699Y-3159D02*
D03*
X3258Y-2333D02*
D03*
X2638Y-3514D02*
D03*
X-1368Y-5728D02*
D03*
X-2628Y-5325D02*
D03*
X-1545Y-5295D02*
D03*
X-2234Y-4665D02*
D03*
X-3327Y-4882D02*
D03*
X-3081Y-3415D02*
D03*
X-1811Y-1220D02*
D03*
X-2402Y-1713D02*
D03*
X-1270Y-3120D02*
D03*
X89Y4085D02*
D03*
X-3209Y3061D02*
D03*
X-3819Y3543D02*
D03*
Y1181D02*
D03*
Y-2756D02*
D03*
Y-1969D02*
D03*
Y-1181D02*
D03*
Y-394D02*
D03*
X-2638Y-207D02*
D03*
X-3839Y394D02*
D03*
X-2667Y1043D02*
D03*
X-2785Y1526D02*
D03*
X-4104Y3051D02*
D03*
X-4114Y2402D02*
D03*
X-1299Y2913D02*
D03*
X5125Y938D02*
D03*
X4830Y1528D02*
D03*
Y-834D02*
D03*
X4534Y-1424D02*
D03*
X3944Y3300D02*
D03*
X4239Y-2015D02*
D03*
X3649D02*
D03*
X696Y3891D02*
D03*
X401Y-4968D02*
D03*
X-190Y4481D02*
D03*
X105Y-3196D02*
D03*
X-485Y3891D02*
D03*
X-1371Y4481D02*
D03*
X-1076Y3891D02*
D03*
Y-5558D02*
D03*
X-1962Y5662D02*
D03*
X-1666Y5072D02*
D03*
X-1962Y4481D02*
D03*
X-1666Y3891D02*
D03*
X-2257Y5072D02*
D03*
X-2552Y4481D02*
D03*
X-2257Y3891D02*
D03*
Y2710D02*
D03*
X-2847Y5072D02*
D03*
Y3891D02*
D03*
X-3143Y2119D02*
D03*
X-2847Y347D02*
D03*
Y-834D02*
D03*
Y-3196D02*
D03*
X-4914Y-1424D02*
D03*
X-5210Y1528D02*
D03*
X-5505Y-1424D02*
D03*
X-5210Y-3196D02*
D03*
X-5800Y1528D02*
D03*
X-1339Y-4370D02*
D03*
X-5160Y3613D02*
D03*
X-4825Y4049D02*
D03*
X-4035Y4232D02*
D03*
X-3150Y5455D02*
D03*
X-6150Y-1363D02*
D03*
X1094Y-6204D02*
D03*
X4454Y-4454D02*
D03*
X4825Y-4049D02*
D03*
X5160Y-3613D02*
D03*
X5455Y-3150D02*
D03*
X5709Y-2662D02*
D03*
X5919Y-2154D02*
D03*
X6085Y-1630D02*
D03*
X6204Y-1094D02*
D03*
X6275Y-549D02*
D03*
X-6085Y-1630D02*
D03*
X-5919Y-2154D02*
D03*
X-5709Y-2662D02*
D03*
X-5455Y-3150D02*
D03*
X-5160Y-3613D02*
D03*
X-4825Y-4049D02*
D03*
X-4454Y-4454D02*
D03*
X-4049Y-4825D02*
D03*
X-3613Y-5160D02*
D03*
X-3150Y-5455D02*
D03*
X-2662Y-5709D02*
D03*
X-2154Y-5919D02*
D03*
X-1630Y-6085D02*
D03*
X-1094Y-6204D02*
D03*
X0Y6299D02*
D03*
X-549Y6275D02*
D03*
X-1094Y6204D02*
D03*
X-1630Y6085D02*
D03*
X-2154Y5919D02*
D03*
X-2662Y5709D02*
D03*
X-3613Y5160D02*
D03*
X-4153Y4736D02*
D03*
X-4454Y4454D02*
D03*
X-4825Y4049D02*
D03*
X-5160Y3613D02*
D03*
X-5709Y2662D02*
D03*
X-5919Y2154D02*
D03*
X-6085Y1630D02*
D03*
X549Y6275D02*
D03*
X1094Y6204D02*
D03*
X4454Y4454D02*
D03*
X4825Y4049D02*
D03*
X5160Y3613D02*
D03*
X5455Y3150D02*
D03*
X5709Y2662D02*
D03*
X5919Y2154D02*
D03*
X6085Y1630D02*
D03*
X6204Y1094D02*
D03*
X6275Y549D02*
D03*
X6299Y0D02*
D03*
X1811Y-787D02*
D03*
X1339D02*
D03*
X866D02*
D03*
X394D02*
D03*
X1811Y-315D02*
D03*
X1339D02*
D03*
X866D02*
D03*
X394D02*
D03*
X1811Y157D02*
D03*
X1339D02*
D03*
X866D02*
D03*
X394D02*
D03*
X1811Y630D02*
D03*
X1339D02*
D03*
X866D02*
D03*
X394D02*
D03*
X-6150Y1363D02*
D03*
X6014Y0D02*
D03*
X-433Y-1880D02*
D03*
X-1801Y-2244D02*
D03*
X-364Y-2431D02*
D03*
X1944Y-1860D02*
D03*
X3947Y2913D02*
D03*
X896Y2982D02*
D03*
X-4075Y-3967D02*
D03*
X-5039Y-758D02*
D03*
Y-246D02*
D03*
Y256D02*
D03*
Y748D02*
D03*
Y2323D02*
D03*
X-5059Y2687D02*
D03*
X4646Y413D02*
D03*
X4636Y-413D02*
D03*
X3996Y-1831D02*
D03*
X4016Y-2362D02*
D03*
X4823Y1122D02*
D03*
X630Y3425D02*
D03*
X-3150Y5108D02*
D03*
Y3533D02*
D03*
X-2963Y4272D02*
D03*
X-2175Y3445D02*
D03*
X-1053Y3465D02*
D03*
X-207Y3553D02*
D03*
X59Y2953D02*
D03*
X285Y5522D02*
D03*
X-610Y4980D02*
D03*
X10Y4961D02*
D03*
X-1841Y2520D02*
D03*
X-2795Y2844D02*
D03*
X-581Y1457D02*
D03*
X-2598Y699D02*
D03*
X-3159Y1191D02*
D03*
X-3169Y384D02*
D03*
X-3159Y-394D02*
D03*
X-128Y-4990D02*
D03*
X-2677Y-3720D02*
D03*
X-2766Y-2362D02*
D03*
X-1063Y-600D02*
D03*
X-2894Y-1122D02*
D03*
X-4764Y-2323D02*
D03*
X-4823Y-1870D02*
D03*
X1191Y-4724D02*
D03*
X2594Y-4009D02*
D03*
X3436Y-3580D02*
D03*
X2314Y-4152D02*
D03*
X2875Y-3866D02*
D03*
X2033Y-4295D02*
D03*
X1752Y-4438D02*
D03*
X1472Y-4581D02*
D03*
X911Y-4867D02*
D03*
X3156Y-3723D02*
D03*
X1059Y-5852D02*
D03*
X916Y5571D02*
D03*
X1059Y5852D02*
D03*
X773Y5290D02*
D03*
X3156Y3723D02*
D03*
X911Y4867D02*
D03*
X1472Y4581D02*
D03*
X1752Y4438D02*
D03*
X2033Y4295D02*
D03*
X2875Y3866D02*
D03*
X2314Y4152D02*
D03*
X3436Y3580D02*
D03*
X2594Y4009D02*
D03*
X630Y5010D02*
D03*
X1191Y4724D02*
D03*
X4152Y4337D02*
D03*
X4427Y4056D02*
D03*
X4682Y3758D02*
D03*
X4918Y3444D02*
D03*
X5133Y3115D02*
D03*
X5326Y2772D02*
D03*
X5495Y2418D02*
D03*
X5642Y2053D02*
D03*
X5764Y1680D02*
D03*
X5862Y1299D02*
D03*
X5934Y913D02*
D03*
X5350Y824D02*
D03*
X5285Y1172D02*
D03*
X5197Y1515D02*
D03*
X5393Y472D02*
D03*
X5087Y1851D02*
D03*
X4955Y2180D02*
D03*
X4802Y2500D02*
D03*
X4628Y2808D02*
D03*
X4366Y3201D02*
D03*
X4147Y3480D02*
D03*
X3910Y3743D02*
D03*
X5981Y563D02*
D03*
Y-563D02*
D03*
X3910Y-3743D02*
D03*
X4147Y-3480D02*
D03*
X4366Y-3201D02*
D03*
X4628Y-2808D02*
D03*
X4802Y-2500D02*
D03*
X4955Y-2180D02*
D03*
X5087Y-1851D02*
D03*
X5393Y-472D02*
D03*
X5197Y-1515D02*
D03*
X5285Y-1172D02*
D03*
X5350Y-824D02*
D03*
X5934Y-913D02*
D03*
X5862Y-1299D02*
D03*
X5764Y-1680D02*
D03*
X5642Y-2053D02*
D03*
X5495Y-2418D02*
D03*
X5326Y-2772D02*
D03*
X5133Y-3115D02*
D03*
X4918Y-3444D02*
D03*
X4682Y-3758D02*
D03*
X4427Y-4056D02*
D03*
X4152Y-4337D02*
D03*
X-4104Y1516D02*
D03*
X2136Y2323D02*
D03*
X-1791Y-1801D02*
D03*
X1831Y-3110D02*
D03*
X2293Y1240D02*
D03*
X3839Y2247D02*
D03*
X3780Y1673D02*
D03*
X-2116Y2136D02*
D03*
X-1772Y2126D02*
D03*
X-866Y1437D02*
D03*
X2953Y-3031D02*
D03*
X2717Y-2096D02*
D03*
X-1339Y669D02*
D03*
X-69Y-1476D02*
D03*
X3943Y-413D02*
D03*
X3953Y413D02*
D03*
X4253Y-413D02*
D03*
X4360Y413D02*
D03*
X-497Y1845D02*
D03*
X-748Y-945D02*
D03*
X-79Y1064D02*
D03*
X-49Y2402D02*
D03*
X43Y1290D02*
D03*
X4302Y2549D02*
D03*
X1299Y2520D02*
D03*
X492Y2402D02*
D03*
X1133Y1850D02*
D03*
X893Y1690D02*
D03*
X3018Y-233D02*
D03*
X3018Y402D02*
D03*
X3173Y590D02*
D03*
X3213Y260D02*
D03*
X3145Y-660D02*
D03*
X3603Y260D02*
D03*
X-2510Y2234D02*
D03*
X3169Y2510D02*
D03*
X1014Y-3553D02*
D03*
X994Y-4518D02*
D03*
X659Y-4990D02*
D03*
X-463D02*
D03*
X-89Y-4419D02*
D03*
M02*
