G04*
G04 #@! TF.GenerationSoftware,Altium Limited,Altium Designer,25.8.1 (18)*
G04*
G04 Layer_Color=8388736*
%FSLAX24Y24*%
%MOIN*%
G70*
G04*
G04 #@! TF.SameCoordinates,642ECA59-74B0-4D39-AD16-73E6623B2992*
G04*
G04*
G04 #@! TF.FilePolarity,Negative*
G04*
G01*
G75*
%ADD63C,0.0240*%
%ADD64R,0.0079X0.0472*%
G04:AMPARAMS|DCode=65|XSize=43.3mil|YSize=27.6mil|CornerRadius=0mil|HoleSize=0mil|Usage=FLASHONLY|Rotation=333.000|XOffset=0mil|YOffset=0mil|HoleType=Round|Shape=Rectangle|*
%AMROTATEDRECTD65*
4,1,4,-0.0255,-0.0024,-0.0130,0.0221,0.0255,0.0024,0.0130,-0.0221,-0.0255,-0.0024,0.0*
%
%ADD65ROTATEDRECTD65*%

G04:AMPARAMS|DCode=66|XSize=43.3mil|YSize=27.6mil|CornerRadius=0mil|HoleSize=0mil|Usage=FLASHONLY|Rotation=27.000|XOffset=0mil|YOffset=0mil|HoleType=Round|Shape=Rectangle|*
%AMROTATEDRECTD66*
4,1,4,-0.0130,-0.0221,-0.0255,0.0024,0.0130,0.0221,0.0255,-0.0024,-0.0130,-0.0221,0.0*
%
%ADD66ROTATEDRECTD66*%

G04:AMPARAMS|DCode=67|XSize=20.7mil|YSize=23.6mil|CornerRadius=0mil|HoleSize=0mil|Usage=FLASHONLY|Rotation=17.000|XOffset=0mil|YOffset=0mil|HoleType=Round|Shape=Rectangle|*
%AMROTATEDRECTD67*
4,1,4,-0.0064,-0.0143,-0.0133,0.0083,0.0064,0.0143,0.0133,-0.0083,-0.0064,-0.0143,0.0*
%
%ADD67ROTATEDRECTD67*%

G04:AMPARAMS|DCode=68|XSize=20.7mil|YSize=23.6mil|CornerRadius=0mil|HoleSize=0mil|Usage=FLASHONLY|Rotation=232.000|XOffset=0mil|YOffset=0mil|HoleType=Round|Shape=Rectangle|*
%AMROTATEDRECTD68*
4,1,4,-0.0029,0.0154,0.0157,0.0009,0.0029,-0.0154,-0.0157,-0.0009,-0.0029,0.0154,0.0*
%
%ADD68ROTATEDRECTD68*%

G04:AMPARAMS|DCode=69|XSize=20.7mil|YSize=23.6mil|CornerRadius=0mil|HoleSize=0mil|Usage=FLASHONLY|Rotation=316.000|XOffset=0mil|YOffset=0mil|HoleType=Round|Shape=Rectangle|*
%AMROTATEDRECTD69*
4,1,4,-0.0156,-0.0013,0.0008,0.0157,0.0156,0.0013,-0.0008,-0.0157,-0.0156,-0.0013,0.0*
%
%ADD69ROTATEDRECTD69*%

G04:AMPARAMS|DCode=70|XSize=43.3mil|YSize=27.6mil|CornerRadius=0mil|HoleSize=0mil|Usage=FLASHONLY|Rotation=207.000|XOffset=0mil|YOffset=0mil|HoleType=Round|Shape=Rectangle|*
%AMROTATEDRECTD70*
4,1,4,0.0130,0.0221,0.0255,-0.0024,-0.0130,-0.0221,-0.0255,0.0024,0.0130,0.0221,0.0*
%
%ADD70ROTATEDRECTD70*%

G04:AMPARAMS|DCode=71|XSize=19.7mil|YSize=23.6mil|CornerRadius=0mil|HoleSize=0mil|Usage=FLASHONLY|Rotation=128.000|XOffset=0mil|YOffset=0mil|HoleType=Round|Shape=Rectangle|*
%AMROTATEDRECTD71*
4,1,4,0.0154,-0.0005,-0.0032,-0.0150,-0.0154,0.0005,0.0032,0.0150,0.0154,-0.0005,0.0*
%
%ADD71ROTATEDRECTD71*%

G04:AMPARAMS|DCode=72|XSize=20.7mil|YSize=23.6mil|CornerRadius=0mil|HoleSize=0mil|Usage=FLASHONLY|Rotation=44.000|XOffset=0mil|YOffset=0mil|HoleType=Round|Shape=Rectangle|*
%AMROTATEDRECTD72*
4,1,4,0.0008,-0.0157,-0.0156,0.0013,-0.0008,0.0157,0.0156,-0.0013,0.0008,-0.0157,0.0*
%
%ADD72ROTATEDRECTD72*%

G04:AMPARAMS|DCode=73|XSize=20.7mil|YSize=23.6mil|CornerRadius=0mil|HoleSize=0mil|Usage=FLASHONLY|Rotation=328.000|XOffset=0mil|YOffset=0mil|HoleType=Round|Shape=Rectangle|*
%AMROTATEDRECTD73*
4,1,4,-0.0150,-0.0045,-0.0025,0.0155,0.0150,0.0045,0.0025,-0.0155,-0.0150,-0.0045,0.0*
%
%ADD73ROTATEDRECTD73*%

G04:AMPARAMS|DCode=74|XSize=20.7mil|YSize=23.6mil|CornerRadius=0mil|HoleSize=0mil|Usage=FLASHONLY|Rotation=32.000|XOffset=0mil|YOffset=0mil|HoleType=Round|Shape=Rectangle|*
%AMROTATEDRECTD74*
4,1,4,-0.0025,-0.0155,-0.0150,0.0045,0.0025,0.0155,0.0150,-0.0045,-0.0025,-0.0155,0.0*
%
%ADD74ROTATEDRECTD74*%

%ADD75R,0.0178X0.0166*%
%ADD76R,0.0146X0.0157*%
%ADD77R,0.0934X0.0544*%
%ADD78R,0.0169X0.0193*%
%ADD79R,0.0631X0.0454*%
%ADD80R,0.0217X0.0257*%
%ADD81R,0.0178X0.0277*%
%ADD82O,0.0139X0.0316*%
%ADD83R,0.0157X0.0146*%
%ADD84O,0.0316X0.0139*%
%ADD85R,0.0236X0.0236*%
%ADD86R,0.1399X0.0572*%
%ADD87R,0.0236X0.0207*%
%ADD88R,0.0158X0.0247*%
%ADD89R,0.0247X0.0158*%
%ADD90R,0.0178X0.0473*%
%ADD91C,0.0787*%
%ADD92R,0.0336X0.0316*%
%ADD93R,0.0166X0.0178*%
%ADD94C,0.0454*%
%ADD95R,0.0296X0.0257*%
%ADD96R,0.0375X0.0355*%
%ADD97R,0.0395X0.0434*%
%ADD98R,0.0355X0.0375*%
%ADD99R,0.0611X0.0355*%
%ADD100R,0.1910X0.1910*%
%ADD101R,0.0193X0.0169*%
G04:AMPARAMS|DCode=102|XSize=15.7mil|YSize=14.6mil|CornerRadius=0mil|HoleSize=0mil|Usage=FLASHONLY|Rotation=6.250|XOffset=0mil|YOffset=0mil|HoleType=Round|Shape=Rectangle|*
%AMROTATEDRECTD102*
4,1,4,-0.0070,-0.0081,-0.0086,0.0064,0.0070,0.0081,0.0086,-0.0064,-0.0070,-0.0081,0.0*
%
%ADD102ROTATEDRECTD102*%

%ADD103R,0.0316X0.0336*%
%ADD104R,0.0375X0.0572*%
G04:AMPARAMS|DCode=105|XSize=43.3mil|YSize=27.6mil|CornerRadius=0mil|HoleSize=0mil|Usage=FLASHONLY|Rotation=153.000|XOffset=0mil|YOffset=0mil|HoleType=Round|Shape=Rectangle|*
%AMROTATEDRECTD105*
4,1,4,0.0255,0.0024,0.0130,-0.0221,-0.0255,-0.0024,-0.0130,0.0221,0.0255,0.0024,0.0*
%
%ADD105ROTATEDRECTD105*%

%ADD106R,0.0375X0.0139*%
%ADD107R,0.0327X0.0209*%
%ADD108R,0.0138X0.0197*%
G04:AMPARAMS|DCode=109|XSize=20.7mil|YSize=23.6mil|CornerRadius=0mil|HoleSize=0mil|Usage=FLASHONLY|Rotation=343.000|XOffset=0mil|YOffset=0mil|HoleType=Round|Shape=Rectangle|*
%AMROTATEDRECTD109*
4,1,4,-0.0133,-0.0083,-0.0064,0.0143,0.0133,0.0083,0.0064,-0.0143,-0.0133,-0.0083,0.0*
%
%ADD109ROTATEDRECTD109*%

G04:AMPARAMS|DCode=110|XSize=15.7mil|YSize=14.6mil|CornerRadius=0mil|HoleSize=0mil|Usage=FLASHONLY|Rotation=173.750|XOffset=0mil|YOffset=0mil|HoleType=Round|Shape=Rectangle|*
%AMROTATEDRECTD110*
4,1,4,0.0086,0.0064,0.0070,-0.0081,-0.0086,-0.0064,-0.0070,0.0081,0.0086,0.0064,0.0*
%
%ADD110ROTATEDRECTD110*%

%ADD111R,0.0209X0.0327*%
%ADD112R,0.0197X0.0138*%
%ADD113C,0.0611*%
%ADD114C,0.0651*%
%ADD115C,0.0217*%
G36*
X-232Y6093D02*
X-227Y6092D01*
X-223Y6090D01*
X-219Y6087D01*
X-215Y6084D01*
X-212Y6081D01*
X-209Y6077D01*
X-208Y6072D01*
X-206Y6068D01*
X-206Y6063D01*
Y5551D01*
X-206Y5546D01*
X-208Y5542D01*
X-209Y5538D01*
X-212Y5533D01*
X-215Y5530D01*
X-219Y5527D01*
X-223Y5524D01*
X-227Y5523D01*
X-232Y5521D01*
X-236Y5521D01*
X-1575D01*
X-1580Y5521D01*
X-1584Y5523D01*
X-1588Y5524D01*
X-1592Y5527D01*
X-1596Y5530D01*
X-1599Y5533D01*
X-1602Y5538D01*
X-1603Y5542D01*
X-1605Y5546D01*
X-1605Y5551D01*
Y5886D01*
X-1605Y5887D01*
X-1605Y5888D01*
X-1605Y5889D01*
X-1605Y5891D01*
X-1604Y5892D01*
X-1604Y5893D01*
X-1604Y5894D01*
X-1603Y5895D01*
X-1603Y5896D01*
X-1602Y5898D01*
X-1602Y5899D01*
X-1602Y5899D01*
X-1601Y5901D01*
X-1600Y5902D01*
X-1600Y5903D01*
X-1599Y5904D01*
X-1598Y5905D01*
X-1598Y5906D01*
X-1597Y5906D01*
X-1596Y5907D01*
X-1595Y5908D01*
X-1594Y5909D01*
X-1593Y5909D01*
X-1592Y5910D01*
X-1591Y5911D01*
X-1590Y5912D01*
X-1589Y5912D01*
X-1588Y5913D01*
X-1587Y5913D01*
X-1586Y5914D01*
X-1585Y5914D01*
X-1584Y5914D01*
X-1583Y5915D01*
X-1582Y5915D01*
X-814Y6092D01*
X-813Y6092D01*
X-812Y6093D01*
X-810Y6093D01*
X-809Y6093D01*
X-808Y6093D01*
X-807Y6093D01*
X-236D01*
X-232Y6093D01*
D02*
G37*
G36*
X5171Y265D02*
X5175Y264D01*
X5184Y261D01*
X5186Y260D01*
X5187Y259D01*
X5190Y256D01*
X5197Y249D01*
X5199Y247D01*
X5200Y246D01*
X5202Y243D01*
X5205Y234D01*
X5206Y230D01*
X5206Y229D01*
X5207Y226D01*
Y221D01*
Y172D01*
Y167D01*
Y167D01*
Y167D01*
X5206Y163D01*
X5205Y160D01*
X5202Y151D01*
X5201Y149D01*
X5200Y147D01*
X5197Y144D01*
X5190Y137D01*
X5188Y136D01*
X5187Y135D01*
X5184Y133D01*
X5175Y129D01*
X5171Y128D01*
X5170Y128D01*
X5167Y128D01*
X5049D01*
X5045Y128D01*
X5042Y129D01*
X5038Y131D01*
X5035Y134D01*
X5033Y137D01*
X5031Y140D01*
X5030Y144D01*
X5029Y148D01*
Y246D01*
X5030Y250D01*
X5031Y254D01*
X5033Y257D01*
X5035Y260D01*
X5038Y263D01*
X5042Y264D01*
X5045Y265D01*
X5049Y266D01*
X5167D01*
X5167D01*
X5167D01*
X5171Y265D01*
D02*
G37*
G36*
X5762D02*
X5765Y264D01*
X5769Y263D01*
X5772Y260D01*
X5774Y257D01*
X5776Y254D01*
X5777Y250D01*
X5778Y246D01*
Y148D01*
X5777Y144D01*
X5776Y140D01*
X5774Y137D01*
X5772Y134D01*
X5769Y131D01*
X5765Y129D01*
X5762Y128D01*
X5758Y128D01*
X5640D01*
X5640D01*
X5640D01*
X5636Y128D01*
X5632Y129D01*
X5623Y133D01*
X5621Y134D01*
X5620Y135D01*
X5617Y137D01*
X5610Y144D01*
X5608Y146D01*
X5607Y147D01*
X5606Y151D01*
X5602Y160D01*
X5601Y163D01*
X5601Y164D01*
X5600Y167D01*
Y172D01*
Y172D01*
Y221D01*
Y226D01*
Y226D01*
Y226D01*
X5601Y230D01*
X5602Y234D01*
X5606Y243D01*
X5607Y245D01*
X5607Y246D01*
X5610Y249D01*
X5617Y256D01*
X5619Y258D01*
X5620Y259D01*
X5623Y261D01*
X5632Y264D01*
X5636Y265D01*
X5637Y266D01*
X5640Y266D01*
X5758D01*
X5762Y265D01*
D02*
G37*
G36*
X5171Y69D02*
X5175Y67D01*
X5184Y64D01*
X5186Y63D01*
X5187Y62D01*
X5190Y59D01*
X5197Y53D01*
X5199Y51D01*
X5200Y50D01*
X5202Y46D01*
X5205Y37D01*
X5206Y33D01*
X5206Y33D01*
X5207Y30D01*
Y25D01*
Y-25D01*
Y-30D01*
Y-30D01*
Y-30D01*
X5206Y-33D01*
X5205Y-37D01*
X5202Y-46D01*
X5201Y-48D01*
X5200Y-50D01*
X5197Y-53D01*
X5190Y-59D01*
X5188Y-61D01*
X5187Y-62D01*
X5184Y-64D01*
X5175Y-67D01*
X5171Y-69D01*
X5170Y-69D01*
X5167Y-69D01*
X5049D01*
X5045Y-69D01*
X5042Y-67D01*
X5038Y-66D01*
X5035Y-63D01*
X5033Y-60D01*
X5031Y-57D01*
X5030Y-53D01*
X5029Y-49D01*
Y49D01*
X5030Y53D01*
X5031Y57D01*
X5033Y60D01*
X5035Y63D01*
X5038Y66D01*
X5042Y67D01*
X5045Y69D01*
X5049Y69D01*
X5167D01*
X5167D01*
X5167D01*
X5171Y69D01*
D02*
G37*
G36*
X5762D02*
X5765Y67D01*
X5769Y66D01*
X5772Y63D01*
X5774Y60D01*
X5776Y57D01*
X5777Y53D01*
X5778Y49D01*
Y-49D01*
X5777Y-53D01*
X5776Y-57D01*
X5774Y-60D01*
X5772Y-63D01*
X5769Y-66D01*
X5765Y-67D01*
X5762Y-69D01*
X5758Y-69D01*
X5640D01*
X5640D01*
X5640D01*
X5636Y-69D01*
X5632Y-67D01*
X5623Y-64D01*
X5621Y-63D01*
X5620Y-62D01*
X5617Y-59D01*
X5610Y-53D01*
X5608Y-51D01*
X5607Y-50D01*
X5606Y-46D01*
X5602Y-37D01*
X5601Y-33D01*
X5601Y-33D01*
X5600Y-30D01*
Y-25D01*
Y-25D01*
Y25D01*
Y30D01*
Y30D01*
Y30D01*
X5601Y33D01*
X5602Y37D01*
X5606Y46D01*
X5607Y48D01*
X5607Y50D01*
X5610Y53D01*
X5617Y59D01*
X5619Y61D01*
X5620Y62D01*
X5623Y64D01*
X5632Y67D01*
X5636Y69D01*
X5637Y69D01*
X5640Y69D01*
X5758D01*
X5762Y69D01*
D02*
G37*
G36*
X5171Y-128D02*
X5175Y-129D01*
X5184Y-133D01*
X5186Y-134D01*
X5187Y-135D01*
X5190Y-137D01*
X5197Y-144D01*
X5199Y-146D01*
X5200Y-147D01*
X5202Y-151D01*
X5205Y-160D01*
X5206Y-163D01*
X5206Y-164D01*
X5207Y-167D01*
Y-172D01*
Y-221D01*
Y-226D01*
Y-226D01*
Y-226D01*
X5206Y-230D01*
X5205Y-234D01*
X5202Y-243D01*
X5201Y-245D01*
X5200Y-246D01*
X5197Y-249D01*
X5190Y-256D01*
X5188Y-258D01*
X5187Y-259D01*
X5184Y-261D01*
X5175Y-264D01*
X5171Y-265D01*
X5170Y-266D01*
X5167Y-266D01*
X5049D01*
X5045Y-265D01*
X5042Y-264D01*
X5038Y-263D01*
X5035Y-260D01*
X5033Y-257D01*
X5031Y-254D01*
X5030Y-250D01*
X5029Y-246D01*
Y-148D01*
X5030Y-144D01*
X5031Y-140D01*
X5033Y-137D01*
X5035Y-134D01*
X5038Y-131D01*
X5042Y-129D01*
X5045Y-128D01*
X5049Y-128D01*
X5167D01*
X5167D01*
X5167D01*
X5171Y-128D01*
D02*
G37*
G36*
X5447Y275D02*
X5450Y274D01*
X5454Y272D01*
X5457Y270D01*
X5459Y267D01*
X5461Y263D01*
X5462Y260D01*
X5463Y256D01*
X5500Y256D01*
X5508Y256D01*
X5508Y256D01*
X5508Y256D01*
X5510Y256D01*
X5512Y256D01*
X5512Y256D01*
X5512Y256D01*
X5514Y255D01*
X5516Y255D01*
X5516Y255D01*
X5516Y255D01*
X5531Y248D01*
X5531Y248D01*
X5531D01*
X5532Y248D01*
X5534Y246D01*
X5534Y246D01*
X5534Y246D01*
X5536Y245D01*
X5537Y244D01*
X5537Y244D01*
X5537Y244D01*
X5549Y232D01*
X5549Y232D01*
X5549Y232D01*
X5551Y230D01*
X5552Y229D01*
X5552Y229D01*
X5552Y229D01*
X5553Y226D01*
X5553Y226D01*
Y226D01*
X5553Y226D01*
X5560Y211D01*
X5560Y211D01*
X5560Y211D01*
X5560Y209D01*
X5561Y207D01*
Y207D01*
X5561Y207D01*
X5561Y205D01*
X5561Y203D01*
X5561Y203D01*
X5561Y203D01*
X5561Y195D01*
X5561Y195D01*
X5561Y-195D01*
D01*
X5561Y-203D01*
X5561Y-203D01*
X5561Y-203D01*
X5561Y-205D01*
X5561Y-207D01*
X5561Y-207D01*
X5561Y-207D01*
X5560Y-209D01*
X5560Y-211D01*
X5560Y-211D01*
X5560Y-211D01*
X5553Y-226D01*
X5553Y-226D01*
X5553Y-226D01*
X5552Y-228D01*
X5552Y-229D01*
X5552Y-229D01*
X5551Y-229D01*
X5550Y-231D01*
X5549Y-232D01*
X5549Y-232D01*
X5549Y-232D01*
X5537Y-244D01*
X5537Y-244D01*
X5537Y-244D01*
X5536Y-245D01*
X5534Y-246D01*
X5534Y-246D01*
X5534Y-246D01*
X5532Y-248D01*
X5531Y-248D01*
X5531Y-248D01*
X5531Y-248D01*
X5516Y-255D01*
X5516Y-255D01*
X5516Y-255D01*
X5514Y-255D01*
X5512Y-256D01*
X5512Y-256D01*
X5512Y-256D01*
X5510Y-256D01*
X5508Y-256D01*
X5508D01*
X5508Y-256D01*
X5500Y-256D01*
X5500Y-256D01*
X5463D01*
Y-256D01*
X5463Y-256D01*
X5463Y-256D01*
X5462Y-258D01*
X5462Y-260D01*
X5462Y-260D01*
X5462Y-260D01*
X5462Y-262D01*
X5461Y-264D01*
X5461Y-264D01*
X5461Y-264D01*
X5460Y-266D01*
X5459Y-267D01*
X5459Y-267D01*
X5459Y-267D01*
X5458Y-269D01*
X5457Y-270D01*
X5457Y-270D01*
X5457Y-270D01*
X5455Y-271D01*
X5454Y-273D01*
X5454Y-273D01*
X5454Y-273D01*
X5452Y-274D01*
X5450Y-274D01*
X5450Y-274D01*
X5450Y-275D01*
X5449Y-275D01*
X5447Y-276D01*
X5447Y-276D01*
X5447Y-276D01*
X5445Y-276D01*
X5443Y-276D01*
X5443Y-276D01*
X5443Y-276D01*
X5364Y-276D01*
X5362Y-275D01*
X5360Y-275D01*
X5360Y-275D01*
X5360Y-275D01*
X5358Y-275D01*
X5357Y-274D01*
X5357Y-274D01*
X5357Y-274D01*
X5355Y-273D01*
X5353Y-272D01*
X5353Y-272D01*
X5353Y-272D01*
X5351Y-271D01*
X5350Y-270D01*
X5350Y-270D01*
X5350Y-270D01*
X5349Y-268D01*
X5348Y-267D01*
X5348Y-267D01*
X5348Y-267D01*
X5347Y-265D01*
X5346Y-263D01*
X5346Y-263D01*
X5346Y-263D01*
X5345Y-262D01*
X5345Y-260D01*
X5345Y-260D01*
X5345Y-260D01*
X5345Y-258D01*
X5344Y-256D01*
X5307D01*
X5299Y-256D01*
X5299D01*
X5299D01*
X5295Y-256D01*
X5292Y-255D01*
X5291Y-255D01*
D01*
X5291Y-255D01*
X5276Y-248D01*
X5273Y-246D01*
X5270Y-244D01*
X5258Y-232D01*
Y-232D01*
X5258D01*
X5258Y-232D01*
X5256Y-229D01*
X5255Y-227D01*
X5254Y-226D01*
X5247Y-211D01*
X5247Y-211D01*
D01*
X5246Y-207D01*
X5246Y-203D01*
X5246Y-195D01*
X5246Y-195D01*
X5246Y178D01*
X5246Y178D01*
X5246Y178D01*
X5246Y180D01*
X5246Y182D01*
X5246Y182D01*
X5246Y182D01*
X5247Y184D01*
X5247Y186D01*
X5248Y186D01*
X5248Y186D01*
X5248Y188D01*
X5249Y189D01*
X5249Y189D01*
X5249Y189D01*
X5251Y191D01*
X5252Y192D01*
X5252Y192D01*
X5252Y192D01*
X5312Y250D01*
X5313Y252D01*
X5315Y253D01*
X5315Y253D01*
X5315Y253D01*
X5317Y254D01*
X5318Y255D01*
X5318Y255D01*
X5319Y255D01*
X5320Y255D01*
X5322Y256D01*
X5322Y256D01*
X5322Y256D01*
X5324Y256D01*
X5326Y256D01*
X5344D01*
X5345Y260D01*
X5346Y263D01*
X5348Y267D01*
X5350Y270D01*
X5353Y272D01*
X5357Y274D01*
X5360Y275D01*
X5364Y276D01*
X5443D01*
X5447Y275D01*
D02*
G37*
G36*
X5762Y-128D02*
X5765Y-129D01*
X5769Y-131D01*
X5772Y-134D01*
X5774Y-137D01*
X5776Y-140D01*
X5777Y-144D01*
X5778Y-148D01*
Y-246D01*
X5777Y-250D01*
X5776Y-254D01*
X5774Y-257D01*
X5772Y-260D01*
X5769Y-263D01*
X5765Y-264D01*
X5762Y-265D01*
X5758Y-266D01*
X5640D01*
X5640D01*
X5640D01*
X5636Y-265D01*
X5632Y-264D01*
X5623Y-261D01*
X5621Y-260D01*
X5620Y-259D01*
X5617Y-256D01*
X5610Y-249D01*
X5608Y-247D01*
X5607Y-246D01*
X5606Y-243D01*
X5602Y-234D01*
X5601Y-230D01*
X5601Y-229D01*
X5600Y-226D01*
Y-221D01*
Y-221D01*
Y-172D01*
Y-167D01*
Y-167D01*
Y-167D01*
X5601Y-163D01*
X5602Y-160D01*
X5606Y-151D01*
X5607Y-149D01*
X5607Y-147D01*
X5610Y-144D01*
X5617Y-137D01*
X5619Y-136D01*
X5620Y-135D01*
X5623Y-133D01*
X5632Y-129D01*
X5636Y-128D01*
X5637Y-128D01*
X5640Y-128D01*
X5758D01*
X5762Y-128D01*
D02*
G37*
G36*
X-2015Y-3301D02*
X-2014Y-3301D01*
X-2013Y-3301D01*
X-2013Y-3301D01*
X-2011Y-3301D01*
X-2009Y-3302D01*
X-1996Y-3305D01*
X-1994Y-3306D01*
X-1992Y-3306D01*
X-1992Y-3307D01*
X-1991Y-3307D01*
X-1990Y-3308D01*
X-1988Y-3308D01*
X-1988Y-3309D01*
X-1987Y-3309D01*
X-1986Y-3310D01*
X-1984Y-3311D01*
X-1974Y-3320D01*
X-1973Y-3321D01*
X-1971Y-3322D01*
X-1971Y-3323D01*
X-1971Y-3323D01*
X-1970Y-3325D01*
X-1968Y-3326D01*
X-1968Y-3326D01*
X-1968Y-3327D01*
X-1967Y-3328D01*
X-1966Y-3330D01*
X-1960Y-3342D01*
X-1960Y-3344D01*
X-1959Y-3346D01*
X-1959Y-3346D01*
X-1959Y-3347D01*
X-1958Y-3348D01*
X-1958Y-3350D01*
X-1958Y-3351D01*
X-1958Y-3351D01*
X-1958Y-3353D01*
X-1958Y-3355D01*
X-1958Y-3362D01*
X-1958Y-3690D01*
X-1958Y-3690D01*
X-1958Y-3696D01*
X-1958Y-3698D01*
X-1958Y-3700D01*
X-1958Y-3701D01*
X-1958Y-3701D01*
X-1958Y-3703D01*
X-1959Y-3705D01*
X-1959Y-3705D01*
X-1959Y-3706D01*
X-1960Y-3707D01*
X-1960Y-3709D01*
X-1966Y-3721D01*
X-1967Y-3723D01*
X-1968Y-3725D01*
X-1968Y-3725D01*
X-1968Y-3725D01*
X-1970Y-3727D01*
X-1971Y-3728D01*
X-1971Y-3729D01*
X-1971Y-3729D01*
X-1973Y-3730D01*
X-1974Y-3732D01*
X-1984Y-3740D01*
X-1986Y-3741D01*
X-1987Y-3742D01*
X-1988Y-3743D01*
X-1988Y-3743D01*
X-1990Y-3744D01*
X-1991Y-3745D01*
X-1992Y-3745D01*
X-1992Y-3745D01*
X-1994Y-3746D01*
X-1996Y-3746D01*
X-2009Y-3750D01*
X-2011Y-3750D01*
X-2013Y-3750D01*
X-2013Y-3750D01*
X-2014Y-3750D01*
X-2015Y-3751D01*
X-2017Y-3751D01*
X-2018Y-3751D01*
X-2018Y-3751D01*
X-2020Y-3750D01*
X-2022Y-3750D01*
X-2029Y-3749D01*
X-2029D01*
X-2045Y-3746D01*
X-2046Y-3746D01*
X-2046Y-3746D01*
X-2048Y-3745D01*
X-2050Y-3745D01*
X-2050Y-3744D01*
X-2050Y-3744D01*
X-2083Y-3733D01*
X-2083Y-3732D01*
X-2083Y-3732D01*
X-2085Y-3731D01*
X-2087Y-3731D01*
X-2087Y-3730D01*
X-2087Y-3730D01*
X-2117Y-3713D01*
X-2117Y-3713D01*
X-2117Y-3713D01*
X-2119Y-3711D01*
X-2121Y-3710D01*
X-2121Y-3710D01*
X-2121Y-3710D01*
X-2147Y-3688D01*
X-2147Y-3688D01*
X-2148Y-3688D01*
X-2149Y-3686D01*
X-2151Y-3685D01*
X-2151Y-3684D01*
X-2151Y-3684D01*
X-2173Y-3658D01*
X-2173Y-3658D01*
X-2173Y-3657D01*
X-2174Y-3656D01*
X-2176Y-3654D01*
X-2176Y-3654D01*
X-2176Y-3654D01*
X-2193Y-3624D01*
X-2193Y-3624D01*
X-2193Y-3623D01*
X-2194Y-3621D01*
X-2195Y-3620D01*
X-2195Y-3619D01*
X-2195Y-3619D01*
X-2207Y-3587D01*
X-2207Y-3587D01*
X-2207Y-3586D01*
X-2208Y-3584D01*
X-2208Y-3582D01*
X-2208Y-3582D01*
X-2208Y-3582D01*
X-2214Y-3548D01*
X-2214Y-3548D01*
X-2214Y-3548D01*
X-2214Y-3545D01*
X-2215Y-3543D01*
X-2215Y-3543D01*
X-2215Y-3543D01*
X-2215Y-3526D01*
X-2215Y-3509D01*
X-2215Y-3508D01*
X-2215Y-3508D01*
X-2214Y-3506D01*
X-2214Y-3504D01*
X-2214Y-3504D01*
X-2214Y-3503D01*
X-2208Y-3470D01*
X-2208Y-3469D01*
X-2208Y-3469D01*
X-2208Y-3467D01*
X-2207Y-3465D01*
X-2207Y-3465D01*
X-2207Y-3465D01*
X-2195Y-3432D01*
X-2195Y-3432D01*
X-2195Y-3432D01*
X-2194Y-3430D01*
X-2193Y-3428D01*
X-2193Y-3428D01*
X-2193Y-3428D01*
X-2176Y-3398D01*
X-2176Y-3398D01*
X-2176Y-3397D01*
X-2174Y-3396D01*
X-2173Y-3394D01*
X-2173Y-3394D01*
X-2173Y-3394D01*
X-2151Y-3367D01*
X-2151Y-3367D01*
X-2151Y-3367D01*
X-2149Y-3365D01*
X-2148Y-3364D01*
X-2147Y-3364D01*
X-2147Y-3364D01*
X-2121Y-3341D01*
X-2121Y-3341D01*
X-2121Y-3341D01*
X-2119Y-3340D01*
X-2117Y-3339D01*
X-2117Y-3339D01*
X-2117Y-3338D01*
X-2087Y-3321D01*
X-2087Y-3321D01*
X-2087Y-3321D01*
X-2085Y-3320D01*
X-2083Y-3319D01*
X-2083Y-3319D01*
X-2083Y-3319D01*
X-2050Y-3307D01*
X-2050Y-3307D01*
X-2050Y-3307D01*
X-2048Y-3306D01*
X-2046Y-3306D01*
X-2046Y-3306D01*
X-2045Y-3306D01*
X-2029Y-3302D01*
X-2028Y-3302D01*
X-2022Y-3301D01*
X-2020Y-3301D01*
X-2018Y-3301D01*
X-2018Y-3301D01*
X-2017Y-3301D01*
X-2015Y-3301D01*
D02*
G37*
G36*
X-1879Y-3301D02*
X-1878Y-3301D01*
X-1876Y-3301D01*
X-1875Y-3301D01*
X-1868Y-3302D01*
X-1868D01*
X-1851Y-3306D01*
X-1851Y-3306D01*
X-1851Y-3306D01*
X-1849Y-3306D01*
X-1847Y-3307D01*
X-1846Y-3307D01*
X-1846Y-3307D01*
X-1814Y-3319D01*
X-1814Y-3319D01*
X-1813Y-3319D01*
X-1812Y-3320D01*
X-1810Y-3321D01*
X-1809Y-3321D01*
X-1809Y-3321D01*
X-1780Y-3338D01*
X-1779Y-3339D01*
X-1779Y-3339D01*
X-1777Y-3340D01*
X-1776Y-3341D01*
X-1776Y-3341D01*
X-1775Y-3341D01*
X-1749Y-3364D01*
X-1749Y-3364D01*
X-1749Y-3364D01*
X-1747Y-3365D01*
X-1746Y-3367D01*
X-1746Y-3367D01*
X-1745Y-3367D01*
X-1724Y-3394D01*
X-1723Y-3394D01*
X-1723Y-3394D01*
X-1722Y-3396D01*
X-1721Y-3397D01*
X-1721Y-3398D01*
X-1721Y-3398D01*
X-1704Y-3428D01*
X-1703Y-3428D01*
X-1703Y-3428D01*
X-1702Y-3430D01*
X-1701Y-3432D01*
X-1701Y-3432D01*
X-1701Y-3432D01*
X-1690Y-3465D01*
X-1690Y-3465D01*
X-1689Y-3465D01*
X-1689Y-3467D01*
X-1688Y-3469D01*
X-1688Y-3469D01*
X-1688Y-3470D01*
X-1682Y-3503D01*
X-1682Y-3504D01*
X-1682Y-3504D01*
X-1682Y-3506D01*
X-1682Y-3508D01*
X-1682Y-3508D01*
X-1682Y-3509D01*
X-1682Y-3526D01*
X-1682Y-3543D01*
X-1682Y-3543D01*
X-1682Y-3543D01*
X-1682Y-3545D01*
X-1682Y-3548D01*
X-1682Y-3548D01*
X-1682Y-3548D01*
X-1688Y-3582D01*
X-1688Y-3582D01*
X-1688Y-3582D01*
X-1689Y-3584D01*
X-1689Y-3586D01*
X-1690Y-3587D01*
X-1690Y-3587D01*
X-1701Y-3619D01*
X-1701Y-3619D01*
X-1701Y-3620D01*
X-1702Y-3621D01*
X-1703Y-3623D01*
X-1703Y-3624D01*
X-1704Y-3624D01*
X-1721Y-3654D01*
X-1721Y-3654D01*
X-1721Y-3654D01*
X-1722Y-3656D01*
X-1723Y-3657D01*
X-1723Y-3658D01*
X-1724Y-3658D01*
X-1745Y-3684D01*
X-1746Y-3684D01*
X-1746Y-3685D01*
X-1747Y-3686D01*
X-1749Y-3688D01*
X-1749Y-3688D01*
X-1749Y-3688D01*
X-1775Y-3710D01*
X-1776Y-3710D01*
X-1776Y-3710D01*
X-1777Y-3712D01*
X-1779Y-3713D01*
X-1779Y-3713D01*
X-1780Y-3713D01*
X-1809Y-3730D01*
X-1809Y-3730D01*
X-1810Y-3731D01*
X-1812Y-3731D01*
X-1813Y-3732D01*
X-1814Y-3732D01*
X-1814Y-3733D01*
X-1846Y-3744D01*
X-1846Y-3744D01*
X-1847Y-3745D01*
X-1849Y-3745D01*
X-1851Y-3746D01*
X-1851Y-3746D01*
X-1851Y-3746D01*
X-1868Y-3749D01*
X-1868Y-3749D01*
X-1875Y-3750D01*
X-1876Y-3750D01*
X-1878Y-3751D01*
X-1879Y-3751D01*
X-1879Y-3751D01*
X-1881Y-3751D01*
X-1883Y-3750D01*
X-1883Y-3750D01*
X-1884Y-3750D01*
X-1886Y-3750D01*
X-1888Y-3750D01*
X-1901Y-3746D01*
X-1902Y-3746D01*
X-1904Y-3745D01*
X-1905Y-3745D01*
X-1905Y-3745D01*
X-1907Y-3744D01*
X-1908Y-3743D01*
X-1909Y-3743D01*
X-1909Y-3742D01*
X-1911Y-3741D01*
X-1912Y-3740D01*
X-1922Y-3732D01*
X-1924Y-3730D01*
X-1925Y-3729D01*
X-1925Y-3729D01*
X-1926Y-3728D01*
X-1927Y-3727D01*
X-1928Y-3725D01*
X-1928Y-3725D01*
X-1929Y-3725D01*
X-1930Y-3723D01*
X-1930Y-3721D01*
X-1936Y-3709D01*
X-1937Y-3707D01*
X-1937Y-3706D01*
X-1938Y-3705D01*
X-1938Y-3705D01*
X-1938Y-3703D01*
X-1939Y-3701D01*
X-1939Y-3701D01*
X-1939Y-3700D01*
X-1939Y-3698D01*
X-1939Y-3696D01*
X-1939Y-3690D01*
X-1939Y-3362D01*
X-1939Y-3362D01*
X-1939Y-3355D01*
X-1939Y-3353D01*
X-1939Y-3351D01*
X-1939Y-3351D01*
X-1939Y-3350D01*
X-1938Y-3348D01*
X-1938Y-3347D01*
X-1938Y-3346D01*
X-1937Y-3346D01*
X-1937Y-3344D01*
X-1936Y-3342D01*
X-1930Y-3330D01*
X-1930Y-3328D01*
X-1929Y-3327D01*
X-1928Y-3326D01*
X-1928Y-3326D01*
X-1927Y-3325D01*
X-1926Y-3323D01*
X-1925Y-3323D01*
X-1925Y-3322D01*
X-1924Y-3321D01*
X-1922Y-3320D01*
X-1912Y-3311D01*
X-1911Y-3310D01*
X-1909Y-3309D01*
X-1909Y-3309D01*
X-1908Y-3308D01*
X-1907Y-3308D01*
X-1905Y-3307D01*
X-1905Y-3307D01*
X-1904Y-3306D01*
X-1902Y-3306D01*
X-1901Y-3305D01*
X-1888Y-3302D01*
X-1886Y-3301D01*
X-1884Y-3301D01*
X-1883Y-3301D01*
X-1883Y-3301D01*
X-1881Y-3301D01*
X-1879Y-3301D01*
X-1879Y-3301D01*
D02*
G37*
D63*
X-1793Y-3526D02*
G03*
X-1793Y-3526I-116J0D01*
G01*
X-1871Y-3526D02*
G03*
X-1871Y-3526I-116J0D01*
G01*
D64*
X-1948Y-3526D02*
D03*
D65*
X2665Y4883D02*
D03*
X2897Y5339D02*
D03*
D66*
X2665Y-4883D02*
D03*
X2897Y-5339D02*
D03*
D67*
X1414Y-6090D02*
D03*
X1066Y-6196D02*
D03*
D68*
X4382Y-3658D02*
D03*
X4607Y-3371D02*
D03*
D69*
X4096Y-3955D02*
D03*
X3834Y-3702D02*
D03*
D70*
X3717Y-4346D02*
D03*
X3949Y-4802D02*
D03*
D71*
X4591Y3390D02*
D03*
X4398Y3639D02*
D03*
D72*
X4096Y3955D02*
D03*
X3834Y3702D02*
D03*
D73*
X4829Y-3017D02*
D03*
X4520Y-2824D02*
D03*
D74*
X4829Y3017D02*
D03*
X4520Y2824D02*
D03*
D75*
X2923Y3508D02*
D03*
X482Y-2368D02*
D03*
X719D02*
D03*
X-2126Y-2474D02*
D03*
X1113Y2312D02*
D03*
Y2087D02*
D03*
X2923Y3283D02*
D03*
X246Y-2683D02*
D03*
Y-2907D02*
D03*
X1486Y-1864D02*
D03*
Y-1640D02*
D03*
X1260Y-1864D02*
D03*
Y-1640D02*
D03*
X-2126Y-2250D02*
D03*
X719Y-2593D02*
D03*
X482D02*
D03*
X1053Y4169D02*
D03*
Y4394D02*
D03*
Y3559D02*
D03*
Y3783D02*
D03*
D76*
X3126Y3474D02*
D03*
Y3278D02*
D03*
X306Y1460D02*
D03*
X1700Y-1639D02*
D03*
X2856Y401D02*
D03*
X2631D02*
D03*
X866Y1460D02*
D03*
X642D02*
D03*
X81Y1460D02*
D03*
X1925Y-1639D02*
D03*
X3350Y3474D02*
D03*
Y3278D02*
D03*
X3933Y2687D02*
D03*
X4157Y2687D02*
D03*
X3932Y2457D02*
D03*
X4157D02*
D03*
X2857Y-231D02*
D03*
X2633D02*
D03*
X2631Y200D02*
D03*
X2856D02*
D03*
X4533Y0D02*
D03*
X4758Y0D02*
D03*
D77*
X2195Y3577D02*
D03*
Y2722D02*
D03*
D78*
X3169Y2967D02*
D03*
Y2250D02*
D03*
X3366Y2967D02*
D03*
Y2250D02*
D03*
D79*
X4183Y1388D02*
D03*
Y758D02*
D03*
D80*
X1555Y4232D02*
D03*
X1476Y-3760D02*
D03*
X1555Y3720D02*
D03*
X1280D02*
D03*
Y4232D02*
D03*
X1201Y-3760D02*
D03*
Y-4272D02*
D03*
X1476D02*
D03*
D81*
X1102Y2726D02*
D03*
X1299Y3278D02*
D03*
X1496Y2726D02*
D03*
D82*
X394Y1112D02*
D03*
X1654Y-1270D02*
D03*
X236Y1112D02*
D03*
X1339D02*
D03*
X551D02*
D03*
X709D02*
D03*
X866D02*
D03*
X1024D02*
D03*
X1181D02*
D03*
X1496D02*
D03*
X1654D02*
D03*
X1811D02*
D03*
X1969D02*
D03*
Y-1270D02*
D03*
X1811D02*
D03*
X1496D02*
D03*
X1339D02*
D03*
X1181D02*
D03*
X1024D02*
D03*
X866D02*
D03*
X709D02*
D03*
X551D02*
D03*
X394D02*
D03*
X236D02*
D03*
D83*
X2503Y987D02*
D03*
X2717Y-2520D02*
D03*
Y-3150D02*
D03*
X-945Y1894D02*
D03*
X-2510Y1797D02*
D03*
X-507Y-628D02*
D03*
X-2126Y-1463D02*
D03*
X2503Y1212D02*
D03*
X2717Y-2925D02*
D03*
X-2126Y-1687D02*
D03*
X-507Y-853D02*
D03*
X-2510Y2022D02*
D03*
X-945Y1669D02*
D03*
X1334Y2312D02*
D03*
Y2087D02*
D03*
X1113Y1457D02*
D03*
Y1682D02*
D03*
X2717Y-2295D02*
D03*
X3503Y-0D02*
D03*
Y-225D02*
D03*
X4153Y272D02*
D03*
Y47D02*
D03*
D84*
X2293Y787D02*
D03*
X-89Y-630D02*
D03*
X2293Y630D02*
D03*
Y472D02*
D03*
Y315D02*
D03*
Y157D02*
D03*
Y0D02*
D03*
Y-157D02*
D03*
Y-315D02*
D03*
Y-472D02*
D03*
Y-630D02*
D03*
Y-787D02*
D03*
Y-945D02*
D03*
X-89D02*
D03*
Y-787D02*
D03*
Y-472D02*
D03*
Y-315D02*
D03*
Y-157D02*
D03*
Y0D02*
D03*
Y157D02*
D03*
Y315D02*
D03*
Y472D02*
D03*
Y630D02*
D03*
Y787D02*
D03*
D85*
X2402Y-2520D02*
D03*
Y-3150D02*
D03*
X1457Y-2835D02*
D03*
Y-3150D02*
D03*
Y-2520D02*
D03*
Y-2205D02*
D03*
X2402D02*
D03*
Y-2835D02*
D03*
D86*
X-906Y2382D02*
D03*
D87*
X-267Y1480D02*
D03*
X-267Y1845D02*
D03*
D88*
X-1575Y1845D02*
D03*
X-1772D02*
D03*
X-1969D02*
D03*
Y1127D02*
D03*
X-1772D02*
D03*
X-1575D02*
D03*
D89*
X-2229Y1781D02*
D03*
X-1314Y1191D02*
D03*
X-1314Y1388D02*
D03*
Y1585D02*
D03*
Y1781D02*
D03*
X-2229Y1585D02*
D03*
Y1388D02*
D03*
X-2229Y1191D02*
D03*
D90*
X-1585Y-1508D02*
D03*
X-640D02*
D03*
X-955D02*
D03*
X-1270D02*
D03*
X-640Y-2547D02*
D03*
X-955D02*
D03*
X-1270D02*
D03*
X-1585D02*
D03*
D91*
X-4429Y3543D02*
D03*
X4016Y-955D02*
D03*
X-4429Y-3543D02*
D03*
D92*
X3996Y-1545D02*
D03*
X3248D02*
D03*
X3996Y-2707D02*
D03*
X3248D02*
D03*
D93*
X3046Y-453D02*
D03*
X2821D02*
D03*
X2856Y-0D02*
D03*
X2631D02*
D03*
X4482Y2165D02*
D03*
X4258D02*
D03*
X3402Y620D02*
D03*
X3626D02*
D03*
X685Y-1850D02*
D03*
X909D02*
D03*
X3717Y-0D02*
D03*
X3941D02*
D03*
X3065D02*
D03*
X3290D02*
D03*
X4258Y1929D02*
D03*
X4482D02*
D03*
X1797Y4045D02*
D03*
X2022D02*
D03*
D94*
X2795Y-1437D02*
D03*
X3563Y-3228D02*
D03*
X-4793Y1000D02*
D03*
X-4293Y-1000D02*
D03*
X-4793Y500D02*
D03*
X-4793Y0D02*
D03*
X-4293Y1000D02*
D03*
X-4293Y0D02*
D03*
X-4293Y-500D02*
D03*
X-4793Y-1000D02*
D03*
Y-500D02*
D03*
X-4293Y500D02*
D03*
D95*
X-3150Y-2756D02*
D03*
X-2756D02*
D03*
X-3150Y-1969D02*
D03*
X-2756D02*
D03*
D96*
X-984Y-4911D02*
D03*
Y-4380D02*
D03*
D97*
X2997Y1665D02*
D03*
X3450D02*
D03*
Y1094D02*
D03*
X2997D02*
D03*
D98*
X629Y1980D02*
D03*
X98D02*
D03*
D99*
X-698Y1104D02*
D03*
Y534D02*
D03*
D100*
X1102Y-79D02*
D03*
D101*
X3606Y2904D02*
D03*
X2929Y2313D02*
D03*
Y2510D02*
D03*
Y2707D02*
D03*
Y2904D02*
D03*
X3606Y2707D02*
D03*
X3606Y2510D02*
D03*
Y2313D02*
D03*
D102*
X5687Y510D02*
D03*
X5663Y733D02*
D03*
D103*
X581Y-4390D02*
D03*
Y-3642D02*
D03*
X-581Y-4390D02*
D03*
Y-3642D02*
D03*
D104*
X-2205Y512D02*
D03*
Y-945D02*
D03*
X-1339Y512D02*
D03*
Y-945D02*
D03*
D105*
X3949Y4802D02*
D03*
X3717Y4346D02*
D03*
D106*
X-1427Y-2028D02*
D03*
X-797D02*
D03*
D107*
X3273Y-1152D02*
D03*
D108*
X3361Y-876D02*
D03*
X3184D02*
D03*
D109*
X1066Y6196D02*
D03*
X1414Y6090D02*
D03*
D110*
X5663Y-733D02*
D03*
X5687Y-510D02*
D03*
D111*
X1604Y2195D02*
D03*
D112*
X1880Y2106D02*
D03*
Y2283D02*
D03*
D113*
X-4429Y-2756D02*
D03*
Y2756D02*
D03*
X-3642Y-3937D02*
D03*
Y-3150D02*
D03*
Y-2362D02*
D03*
Y-1575D02*
D03*
Y2362D02*
D03*
Y3150D02*
D03*
Y1575D02*
D03*
Y4724D02*
D03*
Y3937D02*
D03*
Y-787D02*
D03*
Y787D02*
D03*
Y0D02*
D03*
D114*
X-2776Y-4843D02*
D03*
X-1776D02*
D03*
X-3776D02*
D03*
D115*
X-5529Y3522D02*
D03*
X-5370Y3760D02*
D03*
X-4833Y4429D02*
D03*
X-5021Y4214D02*
D03*
X-5201Y3990D02*
D03*
X-5529Y-3522D02*
D03*
X-5370Y-3760D02*
D03*
X-4833Y-4429D02*
D03*
X-5021Y-4214D02*
D03*
X-5201Y-3990D02*
D03*
X5201D02*
D03*
X5021Y-4214D02*
D03*
X4833Y-4429D02*
D03*
X5370Y-3760D02*
D03*
X5529Y-3522D02*
D03*
X5201Y3990D02*
D03*
X5021Y4214D02*
D03*
X4833Y4429D02*
D03*
X5370Y3760D02*
D03*
X5529Y3522D02*
D03*
M02*
