G04*
G04 #@! TF.GenerationSoftware,Altium Limited,Altium Designer,25.8.1 (18)*
G04*
G04 Layer_Color=32768*
%FSLAX24Y24*%
%MOIN*%
G70*
G04*
G04 #@! TF.SameCoordinates,642ECA59-74B0-4D39-AD16-73E6623B2992*
G04*
G04*
G04 #@! TF.FilePolarity,Positive*
G04*
G01*
G75*
%ADD14C,0.0079*%
%ADD16C,0.0039*%
%ADD142C,0.0050*%
%ADD144C,0.0012*%
%ADD145C,0.0020*%
%ADD146C,0.0020*%
D14*
X1654Y-2992D02*
G03*
X1654Y-2992I-39J0D01*
G01*
D16*
X-4232Y-2756D02*
G03*
X-4232Y-2756I-197J0D01*
G01*
X-4134D02*
G03*
X-4134Y-2756I-295J0D01*
G01*
X-4232Y2756D02*
G03*
X-4232Y2756I-197J0D01*
G01*
X-4134D02*
G03*
X-4134Y2756I-295J0D01*
G01*
X-2007Y-3343D02*
G03*
X-2007Y-3704I32J-181D01*
G01*
X-1890D02*
G03*
X-1890Y-3343I-32J181D01*
G01*
X-2480Y-4843D02*
G03*
X-2480Y-4843I-295J0D01*
G01*
X-2598D02*
G03*
X-2598Y-4843I-177J0D01*
G01*
X-1598D02*
G03*
X-1598Y-4843I-177J0D01*
G01*
X-3598D02*
G03*
X-3598Y-4843I-177J0D01*
G01*
X-3480D02*
G03*
X-3480Y-4843I-295J0D01*
G01*
X-3445Y-3937D02*
G03*
X-3445Y-3937I-197J0D01*
G01*
X-3346D02*
G03*
X-3346Y-3937I-295J0D01*
G01*
X-3445Y-3150D02*
G03*
X-3445Y-3150I-197J0D01*
G01*
X-3346D02*
G03*
X-3346Y-3150I-295J0D01*
G01*
X-3445Y-2362D02*
G03*
X-3445Y-2362I-197J0D01*
G01*
X-3346D02*
G03*
X-3346Y-2362I-295J0D01*
G01*
X-3445Y-1575D02*
G03*
X-3445Y-1575I-197J0D01*
G01*
X-3346D02*
G03*
X-3346Y-1575I-295J0D01*
G01*
X-3445Y2362D02*
G03*
X-3445Y2362I-197J0D01*
G01*
X-3346D02*
G03*
X-3346Y2362I-295J0D01*
G01*
X-3445Y3150D02*
G03*
X-3445Y3150I-197J0D01*
G01*
X-3346D02*
G03*
X-3346Y3150I-295J0D01*
G01*
X-3445Y1575D02*
G03*
X-3445Y1575I-197J0D01*
G01*
X-3346D02*
G03*
X-3346Y1575I-295J0D01*
G01*
X1516Y4291D02*
G03*
X1575Y4232I59J0D01*
G01*
X1319Y3661D02*
G03*
X1260Y3720I-59J0D01*
G01*
X1575D02*
G03*
X1516Y3661I0J-59D01*
G01*
X1260Y4232D02*
G03*
X1319Y4291I0J59D01*
G01*
X-3445Y4724D02*
G03*
X-3445Y4724I-197J0D01*
G01*
X-3346D02*
G03*
X-3346Y4724I-295J0D01*
G01*
X-3445Y3937D02*
G03*
X-3445Y3937I-197J0D01*
G01*
X-3346D02*
G03*
X-3346Y3937I-295J0D01*
G01*
X-3445Y-787D02*
G03*
X-3445Y-787I-197J0D01*
G01*
X-3346D02*
G03*
X-3346Y-787I-295J0D01*
G01*
X-3445Y787D02*
G03*
X-3445Y787I-197J0D01*
G01*
X-3346D02*
G03*
X-3346Y787I-295J0D01*
G01*
X-3445Y0D02*
G03*
X-3445Y0I-197J0D01*
G01*
X-3346D02*
G03*
X-3346Y0I-295J0D01*
G01*
X2960Y1076D02*
G03*
X2999Y1037I39J0D01*
G01*
Y1722D02*
G03*
X2960Y1683I0J-39D01*
G01*
X3448Y1037D02*
G03*
X3487Y1076I0J39D01*
G01*
Y1683D02*
G03*
X3448Y1722I-39J0D01*
G01*
X2948Y986D02*
G03*
X2908Y1025I-39J0D01*
G01*
X3538D02*
G03*
X3499Y986I0J-39D01*
G01*
Y1773D02*
G03*
X3538Y1734I39J0D01*
G01*
X2908D02*
G03*
X2948Y1773I0J39D01*
G01*
X-934Y1173D02*
G03*
X-895Y1213I0J39D01*
G01*
X-501D02*
G03*
X-462Y1173I39J0D01*
G01*
Y465D02*
G03*
X-501Y425I0J-39D01*
G01*
X-895D02*
G03*
X-934Y465I-39J0D01*
G01*
X-513Y1122D02*
G03*
X-553Y1161I-39J0D01*
G01*
Y476D02*
G03*
X-513Y516I0J39D01*
G01*
X-844Y1161D02*
G03*
X-883Y1122I0J-39D01*
G01*
Y516D02*
G03*
X-844Y476I39J0D01*
G01*
X-107Y678D02*
G03*
X-107Y603I0J-37D01*
G01*
Y520D02*
G03*
X-107Y445I0J-37D01*
G01*
Y363D02*
G03*
X-107Y288I0J-37D01*
G01*
Y205D02*
G03*
X-107Y130I0J-37D01*
G01*
Y48D02*
G03*
X-107Y-27I0J-37D01*
G01*
Y-110D02*
G03*
X-107Y-185I0J-37D01*
G01*
Y-267D02*
G03*
X-107Y-342I0J-37D01*
G01*
Y-425D02*
G03*
X-107Y-500I0J-37D01*
G01*
Y-582D02*
G03*
X-107Y-657I0J-37D01*
G01*
Y-740D02*
G03*
X-107Y-815I0J-37D01*
G01*
Y-897D02*
G03*
X-107Y-972I0J-37D01*
G01*
Y835D02*
G03*
X-107Y760I0J-37D01*
G01*
X441Y709D02*
G03*
X441Y709I-126J0D01*
G01*
X188Y-1288D02*
G03*
X263Y-1288I37J0D01*
G01*
X1921D02*
G03*
X1996Y-1288I37J0D01*
G01*
X1763D02*
G03*
X1838Y-1288I37J0D01*
G01*
X1606D02*
G03*
X1681Y-1288I37J0D01*
G01*
X1448Y-1288D02*
G03*
X1523Y-1288I37J0D01*
G01*
X1291D02*
G03*
X1366Y-1288I37J0D01*
G01*
X1133D02*
G03*
X1208Y-1288I37J0D01*
G01*
X976Y-1288D02*
G03*
X1051Y-1288I37J0D01*
G01*
X818Y-1288D02*
G03*
X893Y-1288I37J0D01*
G01*
X661Y-1288D02*
G03*
X736Y-1288I37J0D01*
G01*
X503D02*
G03*
X578Y-1288I37J0D01*
G01*
X346D02*
G03*
X421Y-1288I37J0D01*
G01*
X2311Y-993D02*
G03*
X2311Y-918I0J37D01*
G01*
Y740D02*
G03*
X2311Y815I0J37D01*
G01*
Y582D02*
G03*
X2311Y657I0J37D01*
G01*
Y425D02*
G03*
X2311Y500I0J37D01*
G01*
X2311Y267D02*
G03*
X2311Y342I0J37D01*
G01*
Y110D02*
G03*
X2311Y185I0J37D01*
G01*
Y-48D02*
G03*
X2311Y27I0J37D01*
G01*
X2311Y-205D02*
G03*
X2311Y-130I0J37D01*
G01*
X2311Y-363D02*
G03*
X2311Y-288I0J37D01*
G01*
X2311Y-520D02*
G03*
X2311Y-445I0J37D01*
G01*
Y-678D02*
G03*
X2311Y-603I0J37D01*
G01*
Y-835D02*
G03*
X2311Y-760I0J37D01*
G01*
X2016Y1130D02*
G03*
X1941Y1130I-37J0D01*
G01*
X284D02*
G03*
X209Y1130I-37J0D01*
G01*
X441D02*
G03*
X366Y1130I-37J0D01*
G01*
X599D02*
G03*
X524Y1130I-37J0D01*
G01*
X756Y1130D02*
G03*
X681Y1130I-37J0D01*
G01*
X914D02*
G03*
X839Y1130I-37J0D01*
G01*
X1071D02*
G03*
X996Y1130I-37J0D01*
G01*
X1229Y1130D02*
G03*
X1154Y1130I-37J0D01*
G01*
X1386Y1130D02*
G03*
X1311Y1130I-37J0D01*
G01*
X1544Y1130D02*
G03*
X1469Y1130I-37J0D01*
G01*
X1701D02*
G03*
X1626Y1130I-37J0D01*
G01*
X1859D02*
G03*
X1784Y1130I-37J0D01*
G01*
X2303Y-2441D02*
G03*
X2303Y-2441I-138J0D01*
G01*
X2992Y2943D02*
G03*
X2992Y2943I-39J0D01*
G01*
X-4596Y-0D02*
G03*
X-4596Y-0I-197J0D01*
G01*
X-4656D02*
G03*
X-4656Y-0I-138J0D01*
G01*
Y1000D02*
G03*
X-4656Y1000I-138J0D01*
G01*
Y500D02*
G03*
X-4656Y500I-138J0D01*
G01*
X-4596D02*
G03*
X-4596Y500I-197J0D01*
G01*
Y-500D02*
G03*
X-4596Y-500I-197J0D01*
G01*
X-4656D02*
G03*
X-4656Y-500I-138J0D01*
G01*
Y-1000D02*
G03*
X-4656Y-1000I-138J0D01*
G01*
X-4596D02*
G03*
X-4596Y-1000I-197J0D01*
G01*
X-4096Y0D02*
G03*
X-4096Y0I-197J0D01*
G01*
X-4156D02*
G03*
X-4156Y0I-138J0D01*
G01*
X-4096Y-1000D02*
G03*
X-4096Y-1000I-197J0D01*
G01*
X-4156D02*
G03*
X-4156Y-1000I-138J0D01*
G01*
Y-500D02*
G03*
X-4156Y-500I-138J0D01*
G01*
X-4096D02*
G03*
X-4096Y-500I-197J0D01*
G01*
X-4156Y500D02*
G03*
X-4156Y500I-138J0D01*
G01*
X-4096D02*
G03*
X-4096Y500I-197J0D01*
G01*
Y1000D02*
G03*
X-4096Y1000I-197J0D01*
G01*
X-4156D02*
G03*
X-4156Y1000I-138J0D01*
G01*
X-4596D02*
G03*
X-4596Y1000I-197J0D01*
G01*
X-1161Y571D02*
G03*
X-1201Y610I-39J0D01*
G01*
Y-1043D02*
G03*
X-1161Y-1004I0J39D01*
G01*
X-2382D02*
G03*
X-2343Y-1043I39J0D01*
G01*
Y610D02*
G03*
X-2382Y571I0J-39D01*
G01*
X-1339Y-59D02*
G03*
X-2205Y-59I-433J0D01*
G01*
Y-374D02*
G03*
X-1339Y-374I433J0D01*
G01*
X-1368Y-2283D02*
G03*
X-1368Y-2283I-197J0D01*
G01*
X3760Y-3228D02*
G03*
X3760Y-3228I-197J0D01*
G01*
X3863D02*
G03*
X3863Y-3228I-300J0D01*
G01*
X5285Y177D02*
G03*
X5285Y177I-59J0D01*
G01*
X3095Y-1437D02*
G03*
X3095Y-1437I-300J0D01*
G01*
X2992D02*
G03*
X2992Y-1437I-197J0D01*
G01*
X1181Y-3760D02*
G03*
X1240Y-3701I0J59D01*
G01*
X1496Y-4272D02*
G03*
X1437Y-4331I0J-59D01*
G01*
X1240D02*
G03*
X1181Y-4272I-59J0D01*
G01*
X1437Y-3701D02*
G03*
X1496Y-3760I59J0D01*
G01*
X1399Y-5991D02*
X1457Y-6180D01*
X1080Y-6295D02*
X1457Y-6180D01*
X1023Y-6106D02*
X1080Y-6295D01*
X1023Y-6106D02*
X1399Y-5991D01*
X4296Y-3609D02*
X4451Y-3730D01*
X4296Y-3609D02*
X4538Y-3299D01*
X4693Y-3420D01*
X4451Y-3730D02*
X4693Y-3420D01*
X4296Y3609D02*
X4451Y3730D01*
X4693Y3420D01*
X4538Y3299D02*
X4693Y3420D01*
X4296Y3609D02*
X4538Y3299D01*
X4038Y4036D02*
X4175Y3895D01*
X3892Y3621D02*
X4175Y3895D01*
X3755Y3763D02*
X3892Y3621D01*
X3755Y3763D02*
X4038Y4036D01*
X4038Y-4036D02*
X4175Y-3895D01*
X3755Y-3763D02*
X4038Y-4036D01*
X3755Y-3763D02*
X3892Y-3621D01*
X4175Y-3895D01*
X4789Y-3109D02*
X4893Y-2942D01*
X4455Y-2900D02*
X4789Y-3109D01*
X4455Y-2900D02*
X4559Y-2733D01*
X4893Y-2942D01*
X4789Y3109D02*
X4893Y2942D01*
X4559Y2733D02*
X4893Y2942D01*
X4455Y2900D02*
X4559Y2733D01*
X4455Y2900D02*
X4789Y3109D01*
X-2007Y-3425D02*
Y-3343D01*
Y-3425D02*
X-1890D01*
X-2007Y-3622D02*
X-1890D01*
Y-3425D02*
X-1890Y-3343D01*
X-1890Y-3622D02*
X-1890Y-3704D01*
X-2007Y-3704D02*
X-2007Y-3622D01*
X-2276Y-5343D02*
Y-5043D01*
Y-4643D02*
Y-4343D01*
X-1276Y-5343D02*
Y-4343D01*
X-4276D02*
X-1276D01*
X-4276Y-5343D02*
Y-4343D01*
Y-5343D02*
X-1276D01*
X-2071Y-4547D02*
X-1480D01*
X-2071Y-5138D02*
Y-4547D01*
Y-5138D02*
X-1480D01*
Y-4547D01*
X1319Y3661D02*
X1516D01*
X1260Y3720D02*
Y4232D01*
X1575Y3720D02*
Y4232D01*
X1319Y4291D02*
X1516D01*
X1445Y3945D02*
X1528D01*
Y3862D02*
Y3945D01*
X1445Y3862D02*
X1528D01*
X1445D02*
Y3945D01*
X1386Y3866D02*
Y3949D01*
X1303Y3866D02*
X1386D01*
X1303D02*
Y3949D01*
Y3949D02*
X1386D01*
Y4004D02*
Y4087D01*
X1303Y4004D02*
X1386D01*
X1303D02*
Y4087D01*
Y4087D02*
X1386D01*
X-3159Y-2864D02*
Y-2648D01*
X-2746Y-2864D02*
Y-2648D01*
X-3159D02*
X-2746D01*
X-3159Y-2864D02*
X-2746D01*
X-3159Y-2077D02*
Y-1860D01*
X-2746Y-2077D02*
Y-1860D01*
X-3159D02*
X-2746D01*
X-3159Y-2077D02*
X-2746D01*
X-1161Y-4980D02*
Y-4311D01*
X-807Y-4980D02*
Y-4311D01*
X-1161Y-4980D02*
X-807D01*
X-1161Y-4311D02*
X-807D01*
X-2677Y2323D02*
Y5866D01*
Y2323D02*
Y5866D01*
X866Y2323D02*
Y5866D01*
X-2677D02*
X866D01*
X-2677Y2323D02*
X866D01*
X2809Y-518D02*
X3057D01*
X2809Y-388D02*
X3057D01*
Y-518D02*
Y-388D01*
X2809Y-518D02*
Y-388D01*
X2619Y-65D02*
Y65D01*
X2867Y-65D02*
Y65D01*
X2619D02*
X2867D01*
X2619Y-65D02*
X2867D01*
X2999Y1722D02*
X3448D01*
X2999Y1037D02*
X3448D01*
X2960Y1076D02*
Y1683D01*
X3487Y1076D02*
Y1683D01*
X2908Y1025D02*
Y1734D01*
X2948Y1773D02*
X3499D01*
X3538Y1025D02*
Y1734D01*
X2948Y986D02*
X3499D01*
X2619Y466D02*
X2867D01*
X2619Y336D02*
X2867D01*
X2619D02*
Y466D01*
X2867Y336D02*
Y466D01*
X-168Y1466D02*
Y1859D01*
X-365D02*
X-168D01*
X-365Y1466D02*
Y1859D01*
Y1466D02*
X-168D01*
X48Y1822D02*
X678D01*
X48Y2137D02*
X678D01*
Y1822D02*
Y2137D01*
X48Y1822D02*
Y2137D01*
X1048Y2076D02*
Y2324D01*
X1178Y2076D02*
Y2324D01*
X1048Y2076D02*
X1178D01*
X1048Y2324D02*
X1178D01*
X-895Y425D02*
X-501D01*
X-462Y465D02*
Y1173D01*
X-895Y1213D02*
X-501D01*
X-934Y465D02*
Y1173D01*
X-513Y516D02*
Y1122D01*
X-883Y516D02*
Y1122D01*
X-844Y476D02*
X-553D01*
X-844Y1161D02*
X-553D01*
X2438Y976D02*
X2568D01*
X2438Y1224D02*
X2568D01*
X2438Y976D02*
Y1224D01*
X2568Y976D02*
Y1224D01*
X630Y1525D02*
X878D01*
X630Y1395D02*
X878D01*
X630D02*
Y1525D01*
X878Y1395D02*
Y1525D01*
X-79Y-1260D02*
X2283D01*
X-79Y1102D02*
X2283D01*
Y-1260D02*
Y1102D01*
X-107Y603D02*
X-79D01*
X-107Y678D02*
X-79D01*
X-107Y445D02*
X-79D01*
X-107Y520D02*
X-79D01*
X-107Y288D02*
X-79D01*
X-107Y363D02*
X-79D01*
X-107Y130D02*
X-79D01*
X-107Y205D02*
X-79D01*
X-107Y-27D02*
X-79D01*
X-107Y48D02*
X-79D01*
X-107Y-185D02*
X-79D01*
X-107Y-110D02*
X-79D01*
X-107Y-342D02*
X-79D01*
X-107Y-267D02*
X-79D01*
X-107Y-500D02*
X-79D01*
X-107Y-425D02*
X-79D01*
X-107Y-657D02*
X-79D01*
X-107Y-582D02*
X-79D01*
X-107Y-815D02*
X-79D01*
X-107Y-740D02*
X-79D01*
X-107Y-972D02*
X-79D01*
X-107Y-897D02*
X-79D01*
X-107Y760D02*
X-79D01*
X-107Y835D02*
X-79D01*
X-79Y-1260D02*
Y1102D01*
X188Y-1288D02*
Y-1260D01*
X263Y-1288D02*
Y-1260D01*
X1921Y-1288D02*
Y-1260D01*
X1996Y-1288D02*
Y-1260D01*
X1763Y-1288D02*
Y-1260D01*
X1838Y-1288D02*
Y-1260D01*
X1606Y-1288D02*
Y-1260D01*
X1681Y-1288D02*
Y-1260D01*
X1448Y-1288D02*
Y-1260D01*
X1523Y-1288D02*
Y-1260D01*
X1291Y-1288D02*
Y-1260D01*
X1366D02*
X1366Y-1288D01*
X1133Y-1288D02*
Y-1260D01*
X1208Y-1288D02*
Y-1260D01*
X976Y-1288D02*
Y-1260D01*
X1051Y-1288D02*
Y-1260D01*
X818Y-1288D02*
X818Y-1260D01*
X893Y-1288D02*
Y-1260D01*
X661D02*
X661Y-1288D01*
X736Y-1288D02*
Y-1260D01*
X503Y-1288D02*
Y-1260D01*
X578Y-1288D02*
Y-1260D01*
X346D02*
X346Y-1288D01*
X421Y-1288D02*
Y-1260D01*
X2283Y-993D02*
X2311D01*
X2283Y-918D02*
X2311D01*
X2283Y740D02*
X2311D01*
X2283Y815D02*
X2311D01*
X2283Y582D02*
X2311D01*
X2283Y657D02*
X2311D01*
X2283Y425D02*
X2311D01*
X2283Y500D02*
X2311D01*
X2283Y267D02*
X2311D01*
X2283Y342D02*
X2311D01*
X2283Y110D02*
X2311D01*
X2283Y185D02*
X2311Y185D01*
X2283Y-48D02*
X2311D01*
X2283Y27D02*
X2311D01*
X2283Y-205D02*
X2311D01*
X2283Y-130D02*
X2311D01*
X2283Y-363D02*
X2311Y-363D01*
X2283Y-288D02*
X2311D01*
X2283Y-520D02*
X2311Y-520D01*
X2283Y-445D02*
X2311D01*
X2283Y-678D02*
X2311D01*
X2283Y-603D02*
X2311D01*
X2283Y-835D02*
X2311Y-835D01*
X2283Y-760D02*
X2311D01*
X2016Y1102D02*
Y1130D01*
X1941Y1102D02*
Y1130D01*
X284Y1102D02*
Y1130D01*
X209Y1102D02*
Y1130D01*
X441Y1102D02*
Y1130D01*
X366Y1102D02*
Y1130D01*
X599Y1102D02*
Y1130D01*
X524Y1102D02*
Y1130D01*
X756Y1102D02*
Y1130D01*
X681Y1102D02*
Y1130D01*
X914Y1102D02*
Y1130D01*
X839Y1130D02*
X839Y1102D01*
X1071D02*
Y1130D01*
X996Y1102D02*
Y1130D01*
X1229Y1102D02*
Y1130D01*
X1154Y1102D02*
Y1130D01*
X1386Y1102D02*
X1386Y1130D01*
X1311Y1102D02*
Y1130D01*
X1544Y1130D02*
X1544Y1102D01*
X1469D02*
Y1130D01*
X1701Y1102D02*
Y1130D01*
X1626Y1102D02*
Y1130D01*
X1859Y1130D02*
X1859Y1102D01*
X1784D02*
Y1130D01*
X2858Y3520D02*
X2988Y3520D01*
X2858Y3272D02*
X2988D01*
Y3520D01*
X2858Y3272D02*
Y3520D01*
X2652Y-2913D02*
X2781D01*
X2652Y-3161D02*
X2781D01*
X2781Y-2913D01*
X2652D02*
X2652Y-3161D01*
X2441Y-3189D02*
Y-2165D01*
X1417Y-3189D02*
Y-2165D01*
Y-3189D02*
X2441D01*
X1417Y-2165D02*
X2441D01*
X1339Y-2087D02*
X2520D01*
X1339Y-3268D02*
X2520D01*
X1339D02*
Y-2087D01*
X2520Y-3268D02*
Y-2087D01*
X2815Y2136D02*
X3720D01*
X2815Y3081D02*
X3720D01*
Y2136D02*
Y3081D01*
X2815Y2136D02*
Y3081D01*
X-2362Y994D02*
X-1181D01*
X-2362D02*
Y1978D01*
X-1181Y994D02*
Y1978D01*
X-2362D02*
X-1181D01*
X-2191Y-1699D02*
Y-1451D01*
X-2061Y-1699D02*
Y-1451D01*
X-2191Y-1699D02*
X-2061D01*
X-2191Y-1451D02*
X-2061D01*
X5597Y738D02*
X5726Y752D01*
X5624Y491D02*
X5753Y505D01*
X5726Y752D02*
X5753Y505D01*
X5597Y738D02*
X5624Y491D01*
X4246Y2230D02*
X4494D01*
X4246Y2100D02*
X4494D01*
X4246D02*
Y2230D01*
X4494Y2100D02*
Y2230D01*
X-2382Y-610D02*
X-1949Y-1043D01*
X-1594Y610D02*
X-1161Y177D01*
X-1594Y-1043D02*
X-1161Y-610D01*
X-2382Y177D02*
X-1949Y610D01*
X-2343Y610D02*
X-1201D01*
X-1161Y-1004D02*
Y571D01*
X-2343Y-1043D02*
X-1201D01*
X-2382Y-1004D02*
Y571D01*
X-1240Y610D02*
Y689D01*
X-2303Y610D02*
Y689D01*
X-1240Y-1122D02*
Y-1043D01*
X-2303Y-1122D02*
Y-1043D01*
X-1339Y-374D02*
Y-59D01*
X-2205Y-374D02*
Y-59D01*
X-2303Y689D02*
X-2087D01*
Y610D02*
Y689D01*
X-1457D02*
X-1240D01*
X-1457Y610D02*
Y689D01*
Y-1122D02*
X-1240D01*
X-1457D02*
Y-1043D01*
X-2303Y-1122D02*
X-2087D01*
Y-1043D01*
X3476Y4647D02*
X3651Y4558D01*
X3476Y4647D02*
X3565Y4823D01*
X3740Y4733D01*
X3651Y4558D02*
X3740Y4733D01*
X2835Y5304D02*
X3011Y5215D01*
X3604Y4471D02*
X3779Y4381D01*
X3011Y5215D02*
X3064Y5320D01*
X2778Y4758D02*
X2832Y4864D01*
X3550Y4365D02*
X3604Y4471D01*
X3782Y4821D02*
X3836Y4927D01*
X2656Y4953D02*
X2832Y4864D01*
X3782Y4821D02*
X3958Y4732D01*
X3725Y4276D02*
X4011Y4837D01*
X2889Y5409D02*
X4011Y4837D01*
X2603Y4848D02*
X2889Y5409D01*
X2603Y4848D02*
X3725Y4276D01*
X2603Y-4848D02*
X3725Y-4276D01*
X2603Y-4848D02*
X2889Y-5409D01*
X4011Y-4837D01*
X3725Y-4276D02*
X4011Y-4837D01*
X3782Y-4821D02*
X3958Y-4732D01*
X2656Y-4953D02*
X2832Y-4864D01*
X3782Y-4821D02*
X3836Y-4927D01*
X3550Y-4365D02*
X3604Y-4471D01*
X2778Y-4758D02*
X2832Y-4864D01*
X3011Y-5215D02*
X3064Y-5320D01*
X3604Y-4471D02*
X3779Y-4381D01*
X2835Y-5304D02*
X3011Y-5215D01*
X3651Y-4558D02*
X3740Y-4733D01*
X3565Y-4823D02*
X3740Y-4733D01*
X3476Y-4647D02*
X3565Y-4823D01*
X3476Y-4647D02*
X3651Y-4558D01*
X-305Y-2638D02*
Y-1417D01*
X-1919Y-2638D02*
Y-1417D01*
X-305D01*
X-1919Y-2638D02*
X-305D01*
X181Y-2919D02*
Y-2671D01*
X311Y-2919D02*
Y-2671D01*
X181Y-2919D02*
X311D01*
X181Y-2671D02*
X311D01*
X1634Y2746D02*
Y3258D01*
X965Y2746D02*
Y3258D01*
X1634D01*
X965Y2746D02*
X1634Y2746D01*
X1801Y2658D02*
Y3642D01*
X2589D01*
Y2658D02*
Y3642D01*
X1801Y2658D02*
X2589D01*
X3145Y-1220D02*
Y-807D01*
X3401Y-1220D02*
Y-807D01*
X3145Y-1220D02*
X3401D01*
X3145Y-807D02*
X3401D01*
X3390Y555D02*
X3638D01*
X3390Y685D02*
X3638D01*
Y555D02*
Y685D01*
X3390Y555D02*
Y685D01*
X1080Y6295D02*
X1457Y6180D01*
X1023Y6106D02*
X1080Y6295D01*
X1023Y6106D02*
X1399Y5991D01*
X1457Y6180D01*
X5108Y-295D02*
Y295D01*
X5699Y-295D02*
Y295D01*
X5108D02*
X5699D01*
X5108Y-295D02*
X5699D01*
X69Y1525D02*
X317D01*
X69Y1395D02*
X317D01*
X69D02*
Y1525D01*
X317Y1395D02*
Y1525D01*
X1689Y-1704D02*
X1937D01*
X1689Y-1574D02*
X1937D01*
Y-1704D02*
Y-1574D01*
X1689Y-1704D02*
Y-1574D01*
X-572Y-616D02*
X-442D01*
X-572Y-864D02*
X-442D01*
Y-616D01*
X-572Y-864D02*
Y-616D01*
X-2575Y2033D02*
X-2445D01*
X-2575Y1785D02*
X-2445D01*
X-2445Y2033D01*
X-2575Y1785D02*
Y2033D01*
X-1010Y1657D02*
X-880D01*
X-1010Y1906D02*
X-880D01*
X-1010Y1657D02*
Y1906D01*
X-880Y1657D02*
Y1906D01*
X3362Y3409D02*
Y3539D01*
X3114Y3409D02*
Y3539D01*
Y3409D02*
X3362D01*
X3114Y3539D02*
X3362D01*
X921Y-1915D02*
Y-1785D01*
X673Y-1915D02*
Y-1785D01*
Y-1915D02*
X921D01*
X673Y-1785D02*
X921D01*
X1421Y-1628D02*
X1551D01*
X1421Y-1876D02*
X1551D01*
Y-1628D01*
X1421Y-1876D02*
Y-1628D01*
X1195D02*
X1325D01*
X1195Y-1876D02*
X1325D01*
Y-1628D01*
X1195Y-1876D02*
Y-1628D01*
X1269Y2076D02*
Y2324D01*
X1399Y2076D02*
Y2324D01*
X1269Y2076D02*
X1399D01*
X1269Y2324D02*
X1399D01*
X3114Y3343D02*
X3362D01*
X3114Y3213D02*
X3362D01*
X3114D02*
Y3343D01*
X3362Y3213D02*
Y3343D01*
X4169Y2622D02*
Y2752D01*
X3921Y2752D02*
X3921Y2622D01*
X4169D01*
X3921Y2752D02*
X4169Y2752D01*
X4168Y2392D02*
Y2522D01*
X3920Y2392D02*
Y2522D01*
Y2392D02*
X4168D01*
X3920Y2522D02*
X4168D01*
X1224Y-3906D02*
X1307D01*
X1224Y-3988D02*
Y-3906D01*
Y-3988D02*
X1307D01*
Y-3906D01*
X1224Y-4043D02*
X1307D01*
X1224Y-4126D02*
Y-4043D01*
Y-4126D02*
X1307D01*
Y-4043D01*
X1366Y-4130D02*
Y-4047D01*
X1366Y-4130D02*
X1449D01*
Y-4047D01*
X1366D02*
X1449D01*
X1240Y-3701D02*
X1437D01*
X1496Y-4272D02*
Y-3760D01*
X1181Y-4272D02*
Y-3760D01*
X1240Y-4331D02*
X1437D01*
X-2191Y-2238D02*
X-2061D01*
X-2191Y-2486D02*
X-2061D01*
X-2061Y-2238D02*
X-2061Y-2486D01*
X-2191D02*
X-2191Y-2238D01*
X1048Y1694D02*
X1178D01*
X1048Y1446D02*
X1178D01*
Y1694D01*
X1048Y1446D02*
Y1694D01*
X5726Y-752D02*
X5753Y-505D01*
X5597Y-738D02*
X5624Y-491D01*
X5753Y-505D01*
X5597Y-738D02*
X5726Y-752D01*
X2621Y-166D02*
X2869D01*
X2621Y-296D02*
X2869D01*
X2621D02*
Y-166D01*
X2869Y-296D02*
Y-166D01*
X654Y-2604D02*
X783D01*
X654Y-2356D02*
X783D01*
X654Y-2604D02*
Y-2356D01*
X783Y-2604D02*
Y-2356D01*
X2652Y-2283D02*
X2781D01*
X2652Y-2531D02*
X2781D01*
X2781Y-2283D02*
X2781Y-2531D01*
X2652D02*
X2652Y-2283D01*
X417Y-2604D02*
X547D01*
X417Y-2356D02*
X547D01*
X417Y-2604D02*
Y-2356D01*
X547Y-2604D02*
Y-2356D01*
X2619Y135D02*
X2867D01*
X2619Y265D02*
X2867D01*
Y135D02*
Y265D01*
X2619Y135D02*
Y265D01*
X3438Y-237D02*
X3568D01*
X3438Y11D02*
X3568D01*
X3438Y-237D02*
Y11D01*
X3568Y-237D02*
Y11D01*
X3705Y-65D02*
X3953D01*
X3705Y65D02*
X3953D01*
Y-65D02*
Y65D01*
X3705Y-65D02*
Y65D01*
X3053Y-65D02*
X3301D01*
X3053Y65D02*
X3301D01*
Y-65D02*
Y65D01*
X3053Y-65D02*
Y65D01*
X4088Y36D02*
Y284D01*
X4218Y36D02*
Y284D01*
X4088Y36D02*
X4218D01*
X4088Y284D02*
X4218D01*
X1118Y4157D02*
Y4406D01*
X988Y4157D02*
Y4406D01*
X1118D01*
X988Y4157D02*
X1118D01*
X4494Y1864D02*
Y1994D01*
X4246Y1864D02*
Y1994D01*
Y1864D02*
X4494D01*
X4246Y1994D02*
X4494D01*
X1785Y3980D02*
X2033D01*
X1785Y4110D02*
X2033D01*
Y3980D02*
Y4110D01*
X1785Y3980D02*
Y4110D01*
X1118Y3547D02*
Y3795D01*
X988Y3547D02*
Y3795D01*
X1118D01*
X988Y3547D02*
X1118D01*
X4770Y65D02*
X4770Y-65D01*
X4522Y-65D02*
Y65D01*
Y-65D02*
X4770Y-65D01*
X4522Y65D02*
X4770Y65D01*
X1535Y2323D02*
X1949D01*
X1535Y2067D02*
X1949D01*
X1535D02*
Y2323D01*
X1949Y2067D02*
Y2323D01*
D142*
X3937Y679D02*
X4429D01*
Y1467D01*
X3937D02*
X4429D01*
X3937Y679D02*
Y1467D01*
D144*
X3154Y-1592D02*
G03*
X3114Y-1631I0J-39D01*
G01*
X3154Y-1638D02*
G03*
X3114Y-1677I0J-39D01*
G01*
X3461Y-1563D02*
G03*
X3407Y-1617I0J-53D01*
G01*
X3354Y-1670D02*
G03*
X3407Y-1617I0J53D01*
G01*
X3352Y-1638D02*
G03*
X3406Y-1585I0J53D01*
G01*
X3445Y-1543D02*
G03*
X3406Y-1583I0J-39D01*
G01*
X3352Y-1604D02*
G03*
X3393Y-1585I0J53D01*
G01*
X3449Y-1544D02*
G03*
X3408Y-1563I0J-53D01*
G01*
X3193Y-1670D02*
G03*
X3134Y-1729I0J-59D01*
G01*
X4110D02*
G03*
X4051Y-1670I-59J0D01*
G01*
X3836Y-1563D02*
G03*
X3795Y-1544I-41J-34D01*
G01*
X3851Y-1585D02*
G03*
X3892Y-1604I41J34D01*
G01*
X3839Y-1583D02*
G03*
X3799Y-1543I-39J0D01*
G01*
X3839Y-1585D02*
G03*
X3892Y-1638I53J0D01*
G01*
X3837Y-1617D02*
G03*
X3890Y-1670I53J0D01*
G01*
X3837Y-1617D02*
G03*
X3783Y-1563I-53J0D01*
G01*
X4130Y-1677D02*
G03*
X4091Y-1638I-39J0D01*
G01*
X4130Y-1631D02*
G03*
X4091Y-1592I-39J0D01*
G01*
X3134Y-2523D02*
G03*
X3193Y-2582I59J0D01*
G01*
X3408Y-2689D02*
G03*
X3449Y-2708I41J34D01*
G01*
X3393Y-2667D02*
G03*
X3352Y-2648I-41J-34D01*
G01*
X3406Y-2669D02*
G03*
X3445Y-2709I39J0D01*
G01*
X3406Y-2667D02*
G03*
X3352Y-2614I-53J0D01*
G01*
X3407Y-2635D02*
G03*
X3354Y-2582I-53J0D01*
G01*
X3407Y-2635D02*
G03*
X3461Y-2688I53J0D01*
G01*
X3114Y-2575D02*
G03*
X3154Y-2614I39J0D01*
G01*
X3114Y-2621D02*
G03*
X3154Y-2660I39J0D01*
G01*
X4091D02*
G03*
X4130Y-2621I0J39D01*
G01*
X4091Y-2614D02*
G03*
X4130Y-2575I0J39D01*
G01*
X3783Y-2688D02*
G03*
X3837Y-2635I0J53D01*
G01*
X3890Y-2582D02*
G03*
X3837Y-2635I0J-53D01*
G01*
X3892Y-2614D02*
G03*
X3839Y-2667I0J-53D01*
G01*
X3799Y-2709D02*
G03*
X3839Y-2669I0J39D01*
G01*
X3892Y-2648D02*
G03*
X3851Y-2667I0J-53D01*
G01*
X3795Y-2708D02*
G03*
X3836Y-2689I0J53D01*
G01*
X4051Y-2582D02*
G03*
X4110Y-2523I0J59D01*
G01*
X3783Y-2126D02*
G03*
X3783Y-2126I-161J0D01*
G01*
X4032D02*
G03*
X4032Y-2126I-410J0D01*
G01*
X410Y-4016D02*
G03*
X410Y-4016I-410J0D01*
G01*
X161D02*
G03*
X161Y-4016I-161J0D01*
G01*
X456Y-3587D02*
G03*
X397Y-3528I-59J0D01*
G01*
X582Y-3843D02*
G03*
X563Y-3802I-53J0D01*
G01*
X522Y-3746D02*
G03*
X541Y-3787I53J0D01*
G01*
X583Y-3839D02*
G03*
X543Y-3799I-39J0D01*
G01*
X488Y-3746D02*
G03*
X541Y-3799I53J0D01*
G01*
X456Y-3748D02*
G03*
X509Y-3801I53J0D01*
G01*
X563Y-3854D02*
G03*
X509Y-3801I-53J0D01*
G01*
X488Y-3547D02*
G03*
X449Y-3508I-39J0D01*
G01*
X534Y-3547D02*
G03*
X495Y-3508I-39J0D01*
G01*
Y-4524D02*
G03*
X534Y-4484I0J39D01*
G01*
X449Y-4524D02*
G03*
X488Y-4484I0J39D01*
G01*
X509Y-4230D02*
G03*
X563Y-4177I0J53D01*
G01*
X509Y-4230D02*
G03*
X456Y-4283I0J-53D01*
G01*
X541Y-4232D02*
G03*
X488Y-4285I0J-53D01*
G01*
X543Y-4232D02*
G03*
X583Y-4193I0J39D01*
G01*
X541Y-4245D02*
G03*
X522Y-4285I34J-41D01*
G01*
X563Y-4229D02*
G03*
X582Y-4189I-34J41D01*
G01*
X397Y-4503D02*
G03*
X456Y-4444I0J59D01*
G01*
X-495Y-3508D02*
G03*
X-534Y-3547I0J-39D01*
G01*
X-449Y-3508D02*
G03*
X-488Y-3547I0J-39D01*
G01*
X-509Y-3801D02*
G03*
X-563Y-3854I0J-53D01*
G01*
X-509Y-3801D02*
G03*
X-456Y-3748I0J53D01*
G01*
X-541Y-3799D02*
G03*
X-488Y-3746I0J53D01*
G01*
X-543Y-3799D02*
G03*
X-583Y-3839I0J-39D01*
G01*
X-541Y-3787D02*
G03*
X-522Y-3746I-34J41D01*
G01*
X-563Y-3802D02*
G03*
X-582Y-3843I34J-41D01*
G01*
X-397Y-3528D02*
G03*
X-456Y-3587I0J-59D01*
G01*
Y-4444D02*
G03*
X-397Y-4503I59J0D01*
G01*
X-582Y-4189D02*
G03*
X-563Y-4229I53J0D01*
G01*
X-522Y-4285D02*
G03*
X-541Y-4245I-53J0D01*
G01*
X-583Y-4193D02*
G03*
X-543Y-4232I39J0D01*
G01*
X-488Y-4285D02*
G03*
X-541Y-4232I-53J0D01*
G01*
X-456Y-4283D02*
G03*
X-509Y-4230I-53J0D01*
G01*
X-563Y-4177D02*
G03*
X-509Y-4230I53J0D01*
G01*
X-488Y-4484D02*
G03*
X-449Y-4524I39J0D01*
G01*
X-534Y-4484D02*
G03*
X-495Y-4524I39J0D01*
G01*
X3406Y-1585D02*
Y-1583D01*
X3393Y-1585D02*
X3408Y-1563D01*
X3193Y-1670D02*
X3354D01*
X3154Y-1638D02*
X3352D01*
X3156Y-1604D02*
X3352D01*
X3156D02*
Y-1461D01*
X3348D01*
Y-1604D02*
Y-1461D01*
X3156Y-1498D02*
X3348D01*
Y-1543D02*
X3561Y-1543D01*
X3526D02*
Y-1524D01*
X3683Y-1543D02*
Y-1524D01*
Y-1543D02*
X3896Y-1543D01*
Y-1498D02*
X4089D01*
X3896Y-1604D02*
Y-1461D01*
X4089D01*
Y-1604D02*
Y-1461D01*
X3892Y-1604D02*
X4089D01*
X3892Y-1638D02*
X4091D01*
X3890Y-1670D02*
X4051D01*
X3836Y-1563D02*
X3851Y-1585D01*
X3839Y-1585D02*
Y-1583D01*
X3348Y-2709D02*
X3561Y-2709D01*
X3156Y-2754D02*
X3348D01*
Y-2791D02*
Y-2648D01*
X3156Y-2791D02*
X3348D01*
X3156D02*
Y-2648D01*
X3352D01*
X3154Y-2614D02*
X3352D01*
X3193Y-2582D02*
X3354D01*
X3393Y-2667D02*
X3408Y-2689D01*
X3406Y-2669D02*
Y-2667D01*
X3526Y-2728D02*
Y-2709D01*
X3839Y-2669D02*
Y-2667D01*
X3836Y-2689D02*
X3851Y-2667D01*
X3890Y-2582D02*
X4051D01*
X3892Y-2614D02*
X4091D01*
X3892Y-2648D02*
X4089D01*
Y-2791D02*
Y-2648D01*
X3896Y-2791D02*
X4089D01*
X3896D02*
Y-2648D01*
Y-2754D02*
X4089D01*
X3683Y-2709D02*
X3896Y-2709D01*
X3683Y-2728D02*
Y-2709D01*
X3461Y-1563D02*
X3783D01*
X3526Y-1543D02*
X3683D01*
X3526Y-1524D02*
X3683D01*
X3461Y-2688D02*
X3783D01*
X3526Y-2728D02*
X3683D01*
X3526Y-2709D02*
X3683D01*
X3114Y-2621D02*
Y-1631D01*
X3134Y-2523D02*
Y-1729D01*
X4110Y-2523D02*
Y-1729D01*
X4130Y-2621D02*
Y-1631D01*
X-495Y-3508D02*
X495D01*
X-397Y-3528D02*
X397D01*
X-397Y-4503D02*
X397D01*
X-495Y-4524D02*
X495D01*
X583Y-4112D02*
Y-3955D01*
X602Y-4112D02*
Y-3955D01*
X563Y-4177D02*
Y-3854D01*
X-602Y-4112D02*
Y-3955D01*
X-583Y-4112D02*
Y-3955D01*
X-563Y-4177D02*
Y-3854D01*
X583Y-3955D02*
X602D01*
X583D02*
X583Y-3742D01*
X628D02*
Y-3549D01*
X522Y-3742D02*
X665D01*
Y-3549D01*
X522D02*
X665D01*
X522Y-3746D02*
Y-3549D01*
X488Y-3746D02*
Y-3547D01*
X456Y-3748D02*
Y-3587D01*
X541Y-3787D02*
X563Y-3802D01*
X541Y-3799D02*
X543D01*
X583Y-4112D02*
X602D01*
X541Y-4232D02*
X543D01*
X541Y-4245D02*
X563Y-4229D01*
X456Y-4444D02*
Y-4283D01*
X488Y-4484D02*
Y-4285D01*
X522Y-4482D02*
Y-4285D01*
Y-4482D02*
X665D01*
Y-4289D01*
X522D02*
X665D01*
X628Y-4482D02*
Y-4289D01*
X583Y-4077D02*
X583Y-4289D01*
X-543Y-3799D02*
X-541D01*
X-563Y-3802D02*
X-541Y-3787D01*
X-456Y-3748D02*
Y-3587D01*
X-488Y-3746D02*
Y-3547D01*
X-522Y-3746D02*
Y-3549D01*
X-665D02*
X-522D01*
X-665Y-3742D02*
Y-3549D01*
Y-3742D02*
X-522D01*
X-628D02*
Y-3549D01*
X-583Y-3742D02*
X-583Y-3955D01*
X-602D02*
X-583D01*
X-602Y-4112D02*
X-583D01*
X-583Y-4289D02*
X-583Y-4077D01*
X-628Y-4482D02*
Y-4289D01*
X-665D02*
X-522D01*
X-665Y-4482D02*
Y-4289D01*
Y-4482D02*
X-522D01*
Y-4285D01*
X-488Y-4484D02*
Y-4285D01*
X-456Y-4444D02*
Y-4283D01*
X-563Y-4229D02*
X-541Y-4245D01*
X-543Y-4232D02*
X-541D01*
D145*
X1617Y-6006D02*
X1592Y-5993D01*
X1554Y-6004D01*
X1540Y-6029D01*
X1564Y-6106D01*
X1589Y-6119D01*
X1627Y-6107D01*
X1640Y-6082D01*
X1742Y-6072D02*
X1707Y-5957D01*
X1667Y-6032D01*
X1743Y-6009D01*
X1799Y-6055D02*
X1837Y-6043D01*
X1818Y-6049D01*
X1783Y-5934D01*
X1770Y-5959D01*
X4417Y-3552D02*
X4389Y-3556D01*
X4365Y-3587D01*
X4368Y-3615D01*
X4431Y-3664D01*
X4459Y-3661D01*
X4484Y-3629D01*
X4480Y-3601D01*
X4558Y-3535D02*
X4463Y-3461D01*
X4473Y-3545D01*
X4523Y-3482D01*
X4516Y-3426D02*
X4512Y-3398D01*
X4537Y-3367D01*
X4565Y-3363D01*
X4628Y-3412D01*
X4631Y-3440D01*
X4607Y-3472D01*
X4579Y-3475D01*
X4516Y-3426D01*
X4494Y3620D02*
X4399Y3546D01*
X4448Y3483D01*
X4567Y3525D02*
X4617Y3462D01*
X4601Y3450D01*
X4489Y3464D01*
X4473Y3451D01*
X3896Y3816D02*
X3867Y3816D01*
X3839Y3789D01*
X3838Y3760D01*
X3894Y3703D01*
X3922Y3702D01*
X3951Y3730D01*
X3951Y3758D01*
X3924Y3844D02*
X3925Y3872D01*
X3954Y3900D01*
X3982Y3899D01*
X3996Y3885D01*
X3995Y3857D01*
X3981Y3843D01*
X3995Y3857D01*
X4024Y3856D01*
X4037Y3842D01*
X4037Y3813D01*
X4008Y3786D01*
X3980Y3786D01*
X4080Y3855D02*
X4109Y3883D01*
X4094Y3869D01*
X4011Y3955D01*
X4011Y3927D01*
X3937Y-3744D02*
X3936Y-3716D01*
X3908Y-3688D01*
X3879Y-3689D01*
X3824Y-3746D01*
X3824Y-3775D01*
X3853Y-3802D01*
X3881Y-3802D01*
X3954Y-3900D02*
X3896Y-3844D01*
X4009Y-3842D01*
X4023Y-3828D01*
X4023Y-3799D01*
X3994Y-3772D01*
X3966Y-3772D01*
X4066Y-3841D02*
X4123Y-3897D01*
X4109Y-3911D01*
X3996Y-3913D01*
X3982Y-3927D01*
X4629Y-2847D02*
X4622Y-2819D01*
X4588Y-2798D01*
X4561Y-2805D01*
X4518Y-2872D01*
X4525Y-2900D01*
X4559Y-2921D01*
X4586Y-2915D01*
X4677Y-2995D02*
X4609Y-2953D01*
X4720Y-2927D01*
X4730Y-2911D01*
X4724Y-2883D01*
X4690Y-2862D01*
X4662Y-2868D01*
X4843Y-2957D02*
X4798Y-2953D01*
X4743Y-2966D01*
X4722Y-3000D01*
X4728Y-3027D01*
X4762Y-3048D01*
X4790Y-3042D01*
X4800Y-3025D01*
X4794Y-2997D01*
X4743Y-2966D01*
X4586Y2915D02*
X4559Y2921D01*
X4525Y2900D01*
X4518Y2872D01*
X4561Y2805D01*
X4588Y2798D01*
X4622Y2819D01*
X4629Y2847D01*
X4620Y2936D02*
X4626Y2964D01*
X4660Y2985D01*
X4688Y2978D01*
X4699Y2961D01*
X4692Y2934D01*
X4675Y2923D01*
X4692Y2934D01*
X4720Y2927D01*
X4730Y2911D01*
X4724Y2883D01*
X4690Y2862D01*
X4662Y2868D01*
X4722Y3000D02*
X4728Y3027D01*
X4762Y3048D01*
X4790Y3042D01*
X4832Y2974D01*
X4826Y2947D01*
X4792Y2925D01*
X4764Y2932D01*
X4722Y3000D01*
X-4489Y-2376D02*
X-4509Y-2356D01*
X-4549D01*
X-4569Y-2376D01*
Y-2456D01*
X-4549Y-2476D01*
X-4509D01*
X-4489Y-2456D01*
Y-2416D01*
X-4529D01*
X-4449Y-2476D02*
Y-2356D01*
X-4369Y-2476D01*
Y-2356D01*
X-4329D02*
Y-2476D01*
X-4269D01*
X-4249Y-2456D01*
Y-2376D01*
X-4269Y-2356D01*
X-4329D01*
X-4569Y3156D02*
Y3076D01*
X-4529Y3036D01*
X-4489Y3076D01*
Y3156D01*
X-4449D02*
Y3036D01*
X-4389D01*
X-4369Y3056D01*
Y3136D01*
X-4389Y3156D01*
X-4449D01*
X-4329D02*
Y3036D01*
X-4269D01*
X-4249Y3056D01*
Y3136D01*
X-4269Y3156D01*
X-4329D01*
X-2376Y-4902D02*
Y-4783D01*
X-2316D01*
X-2296Y-4803D01*
Y-4843D01*
X-2316Y-4863D01*
X-2376D01*
X-2176Y-4902D02*
X-2256D01*
X-2176Y-4823D01*
Y-4803D01*
X-2196Y-4783D01*
X-2236D01*
X-2256Y-4803D01*
X-3772Y-3987D02*
X-3852D01*
X-3772Y-3907D01*
Y-3887D01*
X-3792Y-3867D01*
X-3832D01*
X-3852Y-3887D01*
X-3732Y-3987D02*
Y-3967D01*
X-3712D01*
Y-3987D01*
X-3732D01*
X-3632Y-3887D02*
X-3612Y-3867D01*
X-3572D01*
X-3552Y-3887D01*
Y-3967D01*
X-3572Y-3987D01*
X-3612D01*
X-3632Y-3967D01*
Y-3887D01*
X-3512Y-3867D02*
X-3432D01*
Y-3887D01*
X-3512Y-3967D01*
Y-3987D01*
X-3842Y-3210D02*
X-3802D01*
X-3822D01*
Y-3090D01*
X-3842Y-3110D01*
X-3742Y-3210D02*
Y-3190D01*
X-3722D01*
Y-3210D01*
X-3742D01*
X-3642Y-3110D02*
X-3622Y-3090D01*
X-3582D01*
X-3562Y-3110D01*
Y-3190D01*
X-3582Y-3210D01*
X-3622D01*
X-3642Y-3190D01*
Y-3110D01*
X-3442Y-3210D02*
X-3522D01*
X-3442Y-3130D01*
Y-3110D01*
X-3462Y-3090D01*
X-3502D01*
X-3522Y-3110D01*
X-3842Y-2422D02*
X-3802D01*
X-3822D01*
Y-2302D01*
X-3842Y-2322D01*
X-3742Y-2422D02*
Y-2402D01*
X-3722D01*
Y-2422D01*
X-3742D01*
X-3642Y-2322D02*
X-3622Y-2302D01*
X-3582D01*
X-3562Y-2322D01*
Y-2402D01*
X-3582Y-2422D01*
X-3622D01*
X-3642Y-2402D01*
Y-2322D01*
X-3522D02*
X-3502Y-2302D01*
X-3462D01*
X-3442Y-2322D01*
Y-2342D01*
X-3462Y-2362D01*
X-3482D01*
X-3462D01*
X-3442Y-2382D01*
Y-2402D01*
X-3462Y-2422D01*
X-3502D01*
X-3522Y-2402D01*
X-3832Y-1545D02*
X-3812Y-1525D01*
X-3772D01*
X-3752Y-1545D01*
Y-1625D01*
X-3772Y-1645D01*
X-3812D01*
X-3832Y-1625D01*
Y-1545D01*
X-3712Y-1645D02*
Y-1625D01*
X-3692D01*
Y-1645D01*
X-3712D01*
X-3612Y-1545D02*
X-3592Y-1525D01*
X-3552D01*
X-3532Y-1545D01*
Y-1625D01*
X-3552Y-1645D01*
X-3592D01*
X-3612Y-1625D01*
Y-1545D01*
X-3492Y-1645D02*
X-3452D01*
X-3472D01*
Y-1525D01*
X-3492Y-1545D01*
X-3832Y2292D02*
X-3792D01*
X-3812D01*
Y2412D01*
X-3832Y2392D01*
X-3732Y2292D02*
Y2312D01*
X-3712D01*
Y2292D01*
X-3732D01*
X-3632D02*
X-3592D01*
X-3612D01*
Y2412D01*
X-3632Y2392D01*
X-3532D02*
X-3512Y2412D01*
X-3472D01*
X-3452Y2392D01*
Y2372D01*
X-3472Y2352D01*
X-3492D01*
X-3472D01*
X-3452Y2332D01*
Y2312D01*
X-3472Y2292D01*
X-3512D01*
X-3532Y2312D01*
X-3832Y3079D02*
X-3792D01*
X-3812D01*
Y3199D01*
X-3832Y3179D01*
X-3732Y3079D02*
Y3099D01*
X-3712D01*
Y3079D01*
X-3732D01*
X-3632D02*
X-3592D01*
X-3612D01*
Y3199D01*
X-3632Y3179D01*
X-3472Y3079D02*
Y3199D01*
X-3532Y3139D01*
X-3452D01*
X-3832Y1505D02*
X-3792D01*
X-3812D01*
Y1625D01*
X-3832Y1605D01*
X-3732Y1505D02*
Y1525D01*
X-3712D01*
Y1505D01*
X-3732D01*
X-3632D02*
X-3592D01*
X-3612D01*
Y1625D01*
X-3632Y1605D01*
X-3452Y1505D02*
X-3532D01*
X-3452Y1585D01*
Y1605D01*
X-3472Y1625D01*
X-3512D01*
X-3532Y1605D01*
X-3852Y4774D02*
X-3832Y4794D01*
X-3792D01*
X-3772Y4774D01*
Y4694D01*
X-3792Y4674D01*
X-3832D01*
X-3852Y4694D01*
Y4774D01*
X-3732Y4674D02*
Y4694D01*
X-3712D01*
Y4674D01*
X-3732D01*
X-3632Y4774D02*
X-3612Y4794D01*
X-3572D01*
X-3552Y4774D01*
Y4694D01*
X-3572Y4674D01*
X-3612D01*
X-3632Y4694D01*
Y4774D01*
X-3452Y4674D02*
Y4794D01*
X-3512Y4734D01*
X-3432D01*
X-3852Y3987D02*
X-3832Y4007D01*
X-3792D01*
X-3772Y3987D01*
Y3907D01*
X-3792Y3887D01*
X-3832D01*
X-3852Y3907D01*
Y3987D01*
X-3732Y3887D02*
Y3907D01*
X-3712D01*
Y3887D01*
X-3732D01*
X-3632Y3987D02*
X-3612Y4007D01*
X-3572D01*
X-3552Y3987D01*
Y3907D01*
X-3572Y3887D01*
X-3612D01*
X-3632Y3907D01*
Y3987D01*
X-3432Y3887D02*
X-3512D01*
X-3432Y3967D01*
Y3987D01*
X-3452Y4007D01*
X-3492D01*
X-3512Y3987D01*
X-3023Y-2716D02*
X-3043Y-2696D01*
X-3083D01*
X-3103Y-2716D01*
Y-2796D01*
X-3083Y-2816D01*
X-3043D01*
X-3023Y-2796D01*
X-2983Y-2816D02*
X-2943D01*
X-2963D01*
Y-2696D01*
X-2983Y-2716D01*
X-2883Y-2696D02*
X-2803D01*
Y-2716D01*
X-2883Y-2796D01*
Y-2816D01*
X-3023Y-1929D02*
X-3043Y-1909D01*
X-3083D01*
X-3103Y-1929D01*
Y-2008D01*
X-3083Y-2028D01*
X-3043D01*
X-3023Y-2008D01*
X-2983Y-2028D02*
X-2943D01*
X-2963D01*
Y-1909D01*
X-2983Y-1929D01*
X-2883Y-2008D02*
X-2863Y-2028D01*
X-2823D01*
X-2803Y-2008D01*
Y-1929D01*
X-2823Y-1909D01*
X-2863D01*
X-2883Y-1929D01*
Y-1949D01*
X-2863Y-1969D01*
X-2803D01*
X-3772Y-838D02*
X-3852D01*
X-3772Y-758D01*
Y-738D01*
X-3792Y-718D01*
X-3832D01*
X-3852Y-738D01*
X-3732Y-838D02*
Y-818D01*
X-3712D01*
Y-838D01*
X-3732D01*
X-3632Y-738D02*
X-3612Y-718D01*
X-3572D01*
X-3552Y-738D01*
Y-818D01*
X-3572Y-838D01*
X-3612D01*
X-3632Y-818D01*
Y-738D01*
X-3432Y-718D02*
X-3512D01*
Y-778D01*
X-3472Y-758D01*
X-3452D01*
X-3432Y-778D01*
Y-818D01*
X-3452Y-838D01*
X-3492D01*
X-3512Y-818D01*
X-3812Y697D02*
X-3772D01*
X-3792D01*
Y817D01*
X-3812Y797D01*
X-3712Y697D02*
Y717D01*
X-3692D01*
Y697D01*
X-3712D01*
X-3612D02*
X-3572D01*
X-3592D01*
Y817D01*
X-3612Y797D01*
X-3512Y697D02*
X-3472D01*
X-3492D01*
Y817D01*
X-3512Y797D01*
X-3772Y-50D02*
X-3852D01*
X-3772Y30D01*
Y50D01*
X-3792Y70D01*
X-3832D01*
X-3852Y50D01*
X-3732Y-50D02*
Y-30D01*
X-3712D01*
Y-50D01*
X-3732D01*
X-3632Y50D02*
X-3612Y70D01*
X-3572D01*
X-3552Y50D01*
Y-30D01*
X-3572Y-50D01*
X-3612D01*
X-3632Y-30D01*
Y50D01*
X-3432Y70D02*
X-3472Y50D01*
X-3512Y10D01*
Y-30D01*
X-3492Y-50D01*
X-3452D01*
X-3432Y-30D01*
Y-10D01*
X-3452Y10D01*
X-3512D01*
X-1024Y-4726D02*
X-1044Y-4746D01*
Y-4786D01*
X-1024Y-4806D01*
X-944D01*
X-924Y-4786D01*
Y-4746D01*
X-944Y-4726D01*
X-1024Y-4686D02*
X-1044Y-4666D01*
Y-4626D01*
X-1024Y-4606D01*
X-1004D01*
X-984Y-4626D01*
Y-4646D01*
Y-4626D01*
X-964Y-4606D01*
X-944D01*
X-924Y-4626D01*
Y-4666D01*
X-944Y-4686D01*
Y-4566D02*
X-924Y-4546D01*
Y-4506D01*
X-944Y-4486D01*
X-1024D01*
X-1044Y-4506D01*
Y-4546D01*
X-1024Y-4566D01*
X-1004D01*
X-984Y-4546D01*
Y-4486D01*
X1175Y6203D02*
X1162Y6228D01*
X1124Y6240D01*
X1099Y6227D01*
X1076Y6150D01*
X1089Y6125D01*
X1127Y6114D01*
X1152Y6127D01*
X1242Y6079D02*
X1277Y6193D01*
X1202Y6153D01*
X1278Y6130D01*
X1376Y6038D02*
X1299Y6061D01*
X1399Y6114D01*
X1405Y6133D01*
X1392Y6158D01*
X1353Y6170D01*
X1328Y6157D01*
X5304Y60D02*
Y-40D01*
X5324Y-60D01*
X5364D01*
X5384Y-40D01*
Y60D01*
X5504D02*
X5464Y40D01*
X5424Y0D01*
Y-40D01*
X5444Y-60D01*
X5484D01*
X5504Y-40D01*
Y-20D01*
X5484Y0D01*
X5424D01*
D146*
X-1984Y-3162D02*
X-2004Y-3142D01*
X-2044D01*
X-2064Y-3162D01*
Y-3182D01*
X-2044Y-3202D01*
X-2004D01*
X-1984Y-3222D01*
Y-3242D01*
X-2004Y-3262D01*
X-2044D01*
X-2064Y-3242D01*
X-1944Y-3142D02*
Y-3262D01*
X-1884D01*
X-1864Y-3242D01*
Y-3222D01*
X-1884Y-3202D01*
X-1944D01*
X-1884D01*
X-1864Y-3182D01*
Y-3162D01*
X-1884Y-3142D01*
X-1944D01*
X-1824Y-3262D02*
X-1784D01*
X-1804D01*
Y-3142D01*
X-1824Y-3162D01*
X3315Y-2198D02*
X3295Y-2218D01*
Y-2258D01*
X3315Y-2278D01*
X3335D01*
X3355Y-2258D01*
Y-2218D01*
X3375Y-2198D01*
X3395D01*
X3415Y-2218D01*
Y-2258D01*
X3395Y-2278D01*
X3295Y-2158D02*
X3415D01*
X3375Y-2118D01*
X3415Y-2078D01*
X3295D01*
X3315Y-2038D02*
X3295Y-2018D01*
Y-1978D01*
X3315Y-1958D01*
X3335D01*
X3355Y-1978D01*
Y-1998D01*
Y-1978D01*
X3375Y-1958D01*
X3395D01*
X3415Y-1978D01*
Y-2018D01*
X3395Y-2038D01*
X1611Y3768D02*
X1731D01*
Y3848D01*
X1611Y3968D02*
Y3888D01*
X1731D01*
Y3968D01*
X1671Y3888D02*
Y3928D01*
X1611Y4008D02*
X1731D01*
Y4068D01*
X1711Y4088D01*
X1631D01*
X1611Y4068D01*
Y4008D01*
X1731Y4208D02*
Y4128D01*
X1651Y4208D01*
X1631D01*
X1611Y4188D01*
Y4148D01*
X1631Y4128D01*
X-944Y4195D02*
Y4075D01*
X-885D01*
X-865Y4095D01*
Y4115D01*
X-885Y4135D01*
X-944D01*
X-885D01*
X-865Y4155D01*
Y4175D01*
X-885Y4195D01*
X-944D01*
X-825Y4155D02*
X-745D01*
X-825Y4075D01*
X-745D01*
X-705D02*
X-665D01*
X-685D01*
Y4195D01*
X-705Y4175D01*
X3123Y-510D02*
Y-390D01*
X3183D01*
X3203Y-410D01*
Y-450D01*
X3183Y-470D01*
X3123D01*
X3163D02*
X3203Y-510D01*
X3243D02*
X3283D01*
X3263D01*
Y-390D01*
X3243Y-410D01*
X2373Y60D02*
Y-60D01*
X2453D01*
X2573D02*
X2493D01*
X2573Y20D01*
Y40D01*
X2553Y60D01*
X2513D01*
X2493Y40D01*
X3163Y1280D02*
X3283Y1360D01*
X3163D02*
X3283Y1280D01*
Y1480D02*
Y1400D01*
X3203Y1480D01*
X3183D01*
X3163Y1460D01*
Y1420D01*
X3183Y1400D01*
X2443Y440D02*
X2423Y460D01*
X2383D01*
X2363Y440D01*
Y360D01*
X2383Y340D01*
X2423D01*
X2443Y360D01*
X2563Y460D02*
X2483D01*
Y400D01*
X2523Y420D01*
X2543D01*
X2563Y400D01*
Y360D01*
X2543Y340D01*
X2503D01*
X2483Y360D01*
X-311Y1638D02*
X-331Y1618D01*
Y1578D01*
X-311Y1558D01*
X-231D01*
X-211Y1578D01*
Y1618D01*
X-231Y1638D01*
X-311Y1678D02*
X-331Y1698D01*
Y1738D01*
X-311Y1758D01*
X-291D01*
X-271Y1738D01*
Y1718D01*
Y1738D01*
X-251Y1758D01*
X-231D01*
X-211Y1738D01*
Y1698D01*
X-231Y1678D01*
X283Y2040D02*
Y1920D01*
X363D01*
X403D02*
X443D01*
X423D01*
Y2040D01*
X403Y2020D01*
X866Y2150D02*
Y2070D01*
X926D01*
Y2110D01*
Y2070D01*
X986D01*
X866Y2190D02*
X986D01*
Y2250D01*
X966Y2270D01*
X946D01*
X926Y2250D01*
Y2190D01*
Y2250D01*
X906Y2270D01*
X886D01*
X866Y2250D01*
Y2190D01*
X986Y2310D02*
Y2350D01*
Y2330D01*
X866D01*
X886Y2310D01*
X-758Y739D02*
X-638Y819D01*
X-758D02*
X-638Y739D01*
Y859D02*
Y899D01*
Y879D01*
X-758D01*
X-738Y859D01*
X2473Y1350D02*
X2453Y1330D01*
Y1290D01*
X2473Y1270D01*
X2553D01*
X2573Y1290D01*
Y1330D01*
X2553Y1350D01*
X2573Y1450D02*
X2453D01*
X2513Y1390D01*
Y1470D01*
X753Y1670D02*
X733Y1690D01*
X693D01*
X673Y1670D01*
Y1590D01*
X693Y1570D01*
X733D01*
X753Y1590D01*
X793Y1570D02*
X833D01*
X813D01*
Y1690D01*
X793Y1670D01*
X1013Y50D02*
Y-50D01*
X1033Y-70D01*
X1073D01*
X1093Y-50D01*
Y50D01*
X1133Y-70D02*
X1172D01*
X1152D01*
Y50D01*
X1133Y30D01*
X2980Y3561D02*
X2860D01*
Y3621D01*
X2880Y3641D01*
X2920D01*
X2940Y3621D01*
Y3561D01*
Y3601D02*
X2980Y3641D01*
X2860Y3761D02*
Y3681D01*
X2920D01*
X2900Y3721D01*
Y3741D01*
X2920Y3761D01*
X2960D01*
X2980Y3741D01*
Y3701D01*
X2960Y3681D01*
X2854Y-3107D02*
X2834Y-3127D01*
Y-3167D01*
X2854Y-3187D01*
X2934D01*
X2954Y-3167D01*
Y-3127D01*
X2934Y-3107D01*
X2954Y-3067D02*
Y-3027D01*
Y-3047D01*
X2834D01*
X2854Y-3067D01*
X2834Y-2887D02*
X2854Y-2927D01*
X2894Y-2967D01*
X2934D01*
X2954Y-2947D01*
Y-2907D01*
X2934Y-2887D01*
X2914D01*
X2894Y-2907D01*
Y-2967D01*
X1838Y-2635D02*
Y-2735D01*
X1858Y-2755D01*
X1898D01*
X1918Y-2735D01*
Y-2635D01*
X1958Y-2655D02*
X1978Y-2635D01*
X2018D01*
X2038Y-2655D01*
Y-2675D01*
X2018Y-2695D01*
X1998D01*
X2018D01*
X2038Y-2715D01*
Y-2735D01*
X2018Y-2755D01*
X1978D01*
X1958Y-2735D01*
X3168Y2668D02*
Y2568D01*
X3188Y2548D01*
X3228D01*
X3248Y2568D01*
Y2668D01*
X3368D02*
X3288D01*
Y2608D01*
X3328Y2628D01*
X3348D01*
X3368Y2608D01*
Y2568D01*
X3348Y2548D01*
X3308D01*
X3288Y2568D01*
X-1877Y1572D02*
Y1472D01*
X-1857Y1452D01*
X-1817D01*
X-1797Y1472D01*
Y1572D01*
X-1697Y1452D02*
Y1572D01*
X-1757Y1512D01*
X-1677D01*
X-2164Y-1989D02*
X-2184Y-2009D01*
Y-2049D01*
X-2164Y-2069D01*
X-2084D01*
X-2064Y-2049D01*
Y-2009D01*
X-2084Y-1989D01*
X-2164Y-1949D02*
X-2184Y-1929D01*
Y-1889D01*
X-2164Y-1869D01*
X-2144D01*
X-2124Y-1889D01*
Y-1909D01*
Y-1889D01*
X-2104Y-1869D01*
X-2084D01*
X-2064Y-1889D01*
Y-1929D01*
X-2084Y-1949D01*
X-2164Y-1829D02*
X-2184Y-1809D01*
Y-1769D01*
X-2164Y-1749D01*
X-2144D01*
X-2124Y-1769D01*
X-2104Y-1749D01*
X-2084D01*
X-2064Y-1769D01*
Y-1809D01*
X-2084Y-1829D01*
X-2104D01*
X-2124Y-1809D01*
X-2144Y-1829D01*
X-2164D01*
X-2124Y-1809D02*
Y-1769D01*
X5472Y512D02*
X5455Y490D01*
X5459Y450D01*
X5481Y433D01*
X5561Y441D01*
X5578Y463D01*
X5574Y503D01*
X5552Y521D01*
X5559Y642D02*
X5567Y563D01*
X5479Y634D01*
X5459Y631D01*
X5442Y609D01*
X5446Y570D01*
X5468Y552D01*
X5535Y680D02*
X5552Y702D01*
X5548Y742D01*
X5526Y759D01*
X5446Y751D01*
X5429Y729D01*
X5433Y689D01*
X5455Y671D01*
X5475Y673D01*
X5493Y695D01*
X5486Y755D01*
X4541Y2109D02*
Y2228D01*
X4601D01*
X4621Y2208D01*
Y2168D01*
X4601Y2148D01*
X4541D01*
X4581D02*
X4621Y2109D01*
X4661Y2129D02*
X4681Y2109D01*
X4721D01*
X4741Y2129D01*
Y2208D01*
X4721Y2228D01*
X4681D01*
X4661Y2208D01*
Y2188D01*
X4681Y2168D01*
X4741D01*
X-75Y-4242D02*
X-95Y-4222D01*
X-135D01*
X-155Y-4242D01*
Y-4261D01*
X-135Y-4281D01*
X-95D01*
X-75Y-4301D01*
Y-4321D01*
X-95Y-4341D01*
X-135D01*
X-155Y-4321D01*
X-35Y-4222D02*
Y-4341D01*
X5Y-4301D01*
X45Y-4341D01*
Y-4222D01*
X165Y-4341D02*
X85D01*
X165Y-4261D01*
Y-4242D01*
X145Y-4222D01*
X105D01*
X85Y-4242D01*
X-1840Y-875D02*
X-1860Y-855D01*
X-1900D01*
X-1920Y-875D01*
Y-895D01*
X-1900Y-915D01*
X-1860D01*
X-1840Y-935D01*
Y-955D01*
X-1860Y-975D01*
X-1900D01*
X-1920Y-955D01*
X-1800Y-855D02*
Y-975D01*
X-1760Y-935D01*
X-1720Y-975D01*
Y-855D01*
X-1680Y-975D02*
X-1640D01*
X-1660D01*
Y-855D01*
X-1680Y-875D01*
X3209Y4825D02*
X3245Y4897D01*
X3299Y4914D01*
X3316Y4860D01*
X3280Y4789D01*
X3307Y4843D01*
X3236Y4879D01*
X3315Y4771D02*
X3351Y4753D01*
X3333Y4762D01*
X3388Y4869D01*
X3361Y4860D01*
X3245Y-4941D02*
X3209Y-4870D01*
X3226Y-4816D01*
X3280Y-4834D01*
X3316Y-4905D01*
X3289Y-4852D01*
X3218Y-4888D01*
X3423Y-4851D02*
X3352Y-4887D01*
X3387Y-4779D01*
X3378Y-4762D01*
X3351Y-4753D01*
X3315Y-4771D01*
X3307Y-4798D01*
X303Y-3270D02*
X183D01*
Y-3210D01*
X203Y-3190D01*
X243D01*
X263Y-3210D01*
Y-3270D01*
Y-3230D02*
X303Y-3190D01*
Y-3150D02*
Y-3110D01*
Y-3130D01*
X183D01*
X203Y-3150D01*
X283Y-3050D02*
X303Y-3030D01*
Y-2990D01*
X283Y-2970D01*
X203D01*
X183Y-2990D01*
Y-3030D01*
X203Y-3050D01*
X223D01*
X243Y-3030D01*
Y-2970D01*
X2135Y3050D02*
X2255D01*
Y3130D01*
X2135Y3250D02*
X2155Y3210D01*
X2195Y3170D01*
X2235D01*
X2255Y3190D01*
Y3230D01*
X2235Y3250D01*
X2215D01*
X2195Y3230D01*
Y3170D01*
X3353Y-3168D02*
X3433D01*
X3393D01*
Y-3288D01*
X3473D02*
Y-3168D01*
X3533D01*
X3553Y-3188D01*
Y-3228D01*
X3533Y-3248D01*
X3473D01*
X3593Y-3288D02*
X3633D01*
X3613D01*
Y-3168D01*
X3593Y-3188D01*
X3693D02*
X3713Y-3168D01*
X3753D01*
X3773Y-3188D01*
Y-3208D01*
X3753Y-3228D01*
X3733D01*
X3753D01*
X3773Y-3248D01*
Y-3268D01*
X3753Y-3288D01*
X3713D01*
X3693Y-3268D01*
X3313Y-1034D02*
X3233D01*
X3213Y-1054D01*
Y-1094D01*
X3233Y-1114D01*
X3313D01*
X3333Y-1094D01*
Y-1054D01*
X3293Y-1074D02*
X3333Y-1034D01*
Y-1054D02*
X3313Y-1034D01*
X3333Y-914D02*
Y-994D01*
X3253Y-914D01*
X3233D01*
X3213Y-934D01*
Y-974D01*
X3233Y-994D01*
X3414Y737D02*
Y857D01*
X3474D01*
X3494Y837D01*
Y797D01*
X3474Y777D01*
X3414D01*
X3454D02*
X3494Y737D01*
X3594D02*
Y857D01*
X3534Y797D01*
X3614D01*
X125Y1666D02*
X105Y1686D01*
X65D01*
X45Y1666D01*
Y1586D01*
X65Y1566D01*
X105D01*
X125Y1586D01*
X165Y1566D02*
X205D01*
X185D01*
Y1686D01*
X165Y1666D01*
X265D02*
X285Y1686D01*
X325D01*
X345Y1666D01*
Y1586D01*
X325Y1566D01*
X285D01*
X265Y1586D01*
Y1666D01*
X2058Y-1594D02*
X2038Y-1574D01*
X1998D01*
X1978Y-1594D01*
Y-1674D01*
X1998Y-1694D01*
X2038D01*
X2058Y-1674D01*
X2098Y-1594D02*
X2118Y-1574D01*
X2158D01*
X2178Y-1594D01*
Y-1614D01*
X2158Y-1634D01*
X2178Y-1654D01*
Y-1674D01*
X2158Y-1694D01*
X2118D01*
X2098Y-1674D01*
Y-1654D01*
X2118Y-1634D01*
X2098Y-1614D01*
Y-1594D01*
X2118Y-1634D02*
X2158D01*
X-370Y-760D02*
X-390Y-780D01*
Y-820D01*
X-370Y-840D01*
X-290D01*
X-270Y-820D01*
Y-780D01*
X-290Y-760D01*
X-390Y-720D02*
Y-640D01*
X-370D01*
X-290Y-720D01*
X-270D01*
X-2730Y1840D02*
X-2749Y1820D01*
Y1780D01*
X-2730Y1760D01*
X-2650D01*
X-2630Y1780D01*
Y1820D01*
X-2650Y1840D01*
X-2630Y1960D02*
Y1880D01*
X-2710Y1960D01*
X-2730D01*
X-2749Y1940D01*
Y1900D01*
X-2730Y1880D01*
Y2000D02*
X-2749Y2020D01*
Y2060D01*
X-2730Y2080D01*
X-2650D01*
X-2630Y2060D01*
Y2020D01*
X-2650Y2000D01*
X-2730D01*
X-808Y1726D02*
X-828Y1706D01*
Y1666D01*
X-808Y1646D01*
X-728D01*
X-708Y1666D01*
Y1706D01*
X-728Y1726D01*
X-708Y1766D02*
Y1806D01*
Y1786D01*
X-828D01*
X-808Y1766D01*
Y1866D02*
X-828Y1886D01*
Y1926D01*
X-808Y1946D01*
X-788D01*
X-768Y1926D01*
X-748Y1946D01*
X-728D01*
X-708Y1926D01*
Y1886D01*
X-728Y1866D01*
X-748D01*
X-768Y1886D01*
X-788Y1866D01*
X-808D01*
X-768Y1886D02*
Y1926D01*
X2585Y-1377D02*
X2665D01*
X2625D01*
Y-1497D01*
X2705D02*
Y-1377D01*
X2765D01*
X2785Y-1397D01*
Y-1437D01*
X2765Y-1457D01*
X2705D01*
X2825Y-1497D02*
X2865D01*
X2845D01*
Y-1377D01*
X2825Y-1397D01*
X3005Y-1497D02*
X2925D01*
X3005Y-1417D01*
Y-1397D01*
X2985Y-1377D01*
X2945D01*
X2925Y-1397D01*
X3483Y3513D02*
X3463Y3533D01*
X3423D01*
X3403Y3513D01*
Y3433D01*
X3423Y3413D01*
X3463D01*
X3483Y3433D01*
X3603Y3413D02*
X3523D01*
X3603Y3493D01*
Y3513D01*
X3583Y3533D01*
X3543D01*
X3523Y3513D01*
X3723Y3413D02*
X3643D01*
X3723Y3493D01*
Y3513D01*
X3703Y3533D01*
X3663D01*
X3643Y3513D01*
X648Y-1730D02*
Y-1610D01*
X708D01*
X728Y-1630D01*
Y-1670D01*
X708Y-1690D01*
X648D01*
X688D02*
X728Y-1730D01*
X768D02*
X807D01*
X787D01*
Y-1610D01*
X768Y-1630D01*
X867D02*
X887Y-1610D01*
X927D01*
X947Y-1630D01*
Y-1650D01*
X927Y-1670D01*
X907D01*
X927D01*
X947Y-1690D01*
Y-1710D01*
X927Y-1730D01*
X887D01*
X867Y-1710D01*
X1538Y-1597D02*
X1418D01*
Y-1537D01*
X1438Y-1517D01*
X1478D01*
X1498Y-1537D01*
Y-1597D01*
Y-1557D02*
X1538Y-1517D01*
Y-1477D02*
Y-1437D01*
Y-1457D01*
X1418D01*
X1438Y-1477D01*
X1538Y-1297D02*
Y-1377D01*
X1458Y-1297D01*
X1438D01*
X1418Y-1317D01*
Y-1357D01*
X1438Y-1377D01*
X1312Y-1577D02*
X1192D01*
Y-1517D01*
X1212Y-1497D01*
X1252D01*
X1272Y-1517D01*
Y-1577D01*
Y-1537D02*
X1312Y-1497D01*
Y-1457D02*
Y-1417D01*
Y-1437D01*
X1192D01*
X1212Y-1457D01*
X1312Y-1357D02*
Y-1317D01*
Y-1337D01*
X1192D01*
X1212Y-1357D01*
X1294Y1864D02*
X1274Y1844D01*
Y1804D01*
X1294Y1784D01*
X1374D01*
X1394Y1804D01*
Y1844D01*
X1374Y1864D01*
X1394Y1984D02*
Y1904D01*
X1314Y1984D01*
X1294D01*
X1274Y1964D01*
Y1924D01*
X1294Y1904D01*
X3503Y3316D02*
X3483Y3336D01*
X3443D01*
X3423Y3316D01*
Y3236D01*
X3443Y3216D01*
X3483D01*
X3503Y3236D01*
X3623Y3216D02*
X3543D01*
X3623Y3296D01*
Y3316D01*
X3603Y3336D01*
X3563D01*
X3543Y3316D01*
X3663Y3216D02*
X3703D01*
X3683D01*
Y3336D01*
X3663Y3316D01*
X4290Y2725D02*
X4270Y2745D01*
X4230D01*
X4210Y2725D01*
Y2645D01*
X4230Y2625D01*
X4270D01*
X4290Y2645D01*
X4410Y2625D02*
X4330D01*
X4410Y2705D01*
Y2725D01*
X4390Y2745D01*
X4350D01*
X4330Y2725D01*
X4450D02*
X4470Y2745D01*
X4510D01*
X4530Y2725D01*
Y2705D01*
X4510Y2685D01*
X4490D01*
X4510D01*
X4530Y2665D01*
Y2645D01*
X4510Y2625D01*
X4470D01*
X4450Y2645D01*
X4289Y2495D02*
X4269Y2515D01*
X4229D01*
X4209Y2495D01*
Y2415D01*
X4229Y2395D01*
X4269D01*
X4289Y2415D01*
X4409Y2395D02*
X4329D01*
X4409Y2475D01*
Y2495D01*
X4389Y2515D01*
X4349D01*
X4329Y2495D01*
X4509Y2395D02*
Y2515D01*
X4449Y2455D01*
X4529D01*
X1555Y-4170D02*
X1675D01*
Y-4090D01*
X1555Y-3970D02*
Y-4050D01*
X1675D01*
Y-3970D01*
X1615Y-4050D02*
Y-4010D01*
X1555Y-3930D02*
X1675D01*
Y-3870D01*
X1655Y-3850D01*
X1575D01*
X1555Y-3870D01*
Y-3930D01*
X1675Y-3810D02*
Y-3770D01*
Y-3790D01*
X1555D01*
X1575Y-3810D01*
X-2246Y-2516D02*
X-2366D01*
Y-2456D01*
X-2346Y-2436D01*
X-2306D01*
X-2286Y-2456D01*
Y-2516D01*
Y-2476D02*
X-2246Y-2436D01*
Y-2396D02*
Y-2356D01*
Y-2376D01*
X-2366D01*
X-2346Y-2396D01*
X-2366Y-2296D02*
Y-2216D01*
X-2346D01*
X-2266Y-2296D01*
X-2246D01*
X1250Y1500D02*
X1230Y1480D01*
Y1440D01*
X1250Y1420D01*
X1330D01*
X1350Y1440D01*
Y1480D01*
X1330Y1500D01*
X1350Y1540D02*
Y1580D01*
Y1560D01*
X1230D01*
X1250Y1540D01*
X1350Y1720D02*
Y1640D01*
X1270Y1720D01*
X1250D01*
X1230Y1700D01*
Y1660D01*
X1250Y1640D01*
X5450Y-677D02*
X5428Y-695D01*
X5424Y-735D01*
X5441Y-757D01*
X5521Y-766D01*
X5543Y-748D01*
X5547Y-708D01*
X5530Y-686D01*
X5563Y-569D02*
X5554Y-648D01*
X5483Y-560D01*
X5463Y-558D01*
X5441Y-576D01*
X5437Y-616D01*
X5454Y-638D01*
X5456Y-437D02*
X5448Y-516D01*
X5507Y-523D01*
X5492Y-481D01*
X5494Y-461D01*
X5516Y-443D01*
X5556Y-448D01*
X5573Y-470D01*
X5569Y-509D01*
X5547Y-527D01*
X3007Y-197D02*
X2987Y-177D01*
X2947D01*
X2927Y-197D01*
Y-277D01*
X2947Y-297D01*
X2987D01*
X3007Y-277D01*
X3047Y-297D02*
X3087D01*
X3067D01*
Y-177D01*
X3047Y-197D01*
X3147D02*
X3167Y-177D01*
X3207D01*
X3227Y-197D01*
Y-217D01*
X3207Y-237D01*
X3187D01*
X3207D01*
X3227Y-257D01*
Y-277D01*
X3207Y-297D01*
X3167D01*
X3147Y-277D01*
X778Y-2310D02*
X659D01*
Y-2250D01*
X679Y-2230D01*
X719D01*
X738Y-2250D01*
Y-2310D01*
Y-2270D02*
X778Y-2230D01*
X679Y-2190D02*
X659Y-2170D01*
Y-2130D01*
X679Y-2110D01*
X699D01*
X719Y-2130D01*
Y-2150D01*
Y-2130D01*
X738Y-2110D01*
X758D01*
X778Y-2130D01*
Y-2170D01*
X758Y-2190D01*
X2854Y-2477D02*
X2834Y-2497D01*
Y-2537D01*
X2854Y-2557D01*
X2934D01*
X2954Y-2537D01*
Y-2497D01*
X2934Y-2477D01*
X2954Y-2437D02*
Y-2397D01*
Y-2417D01*
X2834D01*
X2854Y-2437D01*
X2834Y-2258D02*
Y-2338D01*
X2894D01*
X2874Y-2298D01*
Y-2278D01*
X2894Y-2258D01*
X2934D01*
X2954Y-2278D01*
Y-2318D01*
X2934Y-2338D01*
X542Y-2310D02*
X422D01*
Y-2250D01*
X442Y-2230D01*
X482D01*
X502Y-2250D01*
Y-2310D01*
Y-2270D02*
X542Y-2230D01*
Y-2110D02*
Y-2190D01*
X462Y-2110D01*
X442D01*
X422Y-2130D01*
Y-2170D01*
X442Y-2190D01*
X2453Y230D02*
X2433Y250D01*
X2393D01*
X2373Y230D01*
Y150D01*
X2393Y130D01*
X2433D01*
X2453Y150D01*
X2573Y250D02*
X2533Y230D01*
X2493Y190D01*
Y150D01*
X2513Y130D01*
X2553D01*
X2573Y150D01*
Y170D01*
X2553Y190D01*
X2493D01*
X3463Y150D02*
X3443Y130D01*
Y90D01*
X3463Y70D01*
X3543D01*
X3563Y90D01*
Y130D01*
X3543Y150D01*
Y190D02*
X3563Y210D01*
Y250D01*
X3543Y270D01*
X3463D01*
X3443Y250D01*
Y210D01*
X3463Y190D01*
X3483D01*
X3503Y210D01*
Y270D01*
X3729Y237D02*
Y117D01*
X3809D01*
X3909D02*
Y237D01*
X3849Y177D01*
X3929D01*
X3077Y237D02*
Y117D01*
X3157D01*
X3197Y217D02*
X3217Y237D01*
X3257D01*
X3277Y217D01*
Y197D01*
X3257Y177D01*
X3237D01*
X3257D01*
X3277Y157D01*
Y137D01*
X3257Y117D01*
X3217D01*
X3197Y137D01*
X4113Y-186D02*
X4093Y-206D01*
Y-246D01*
X4113Y-266D01*
X4193D01*
X4213Y-246D01*
Y-206D01*
X4193Y-186D01*
X4213Y-146D02*
Y-106D01*
Y-126D01*
X4093D01*
X4113Y-146D01*
X4213Y-46D02*
Y-6D01*
Y-26D01*
X4093D01*
X4113Y-46D01*
X1113Y4437D02*
X993D01*
Y4497D01*
X1013Y4517D01*
X1053D01*
X1073Y4497D01*
Y4437D01*
Y4477D02*
X1113Y4517D01*
Y4557D02*
Y4597D01*
Y4577D01*
X993D01*
X1013Y4557D01*
X993Y4737D02*
X1013Y4697D01*
X1053Y4657D01*
X1093D01*
X1113Y4677D01*
Y4717D01*
X1093Y4737D01*
X1073D01*
X1053Y4717D01*
Y4657D01*
X4541Y1872D02*
Y1992D01*
X4601D01*
X4621Y1972D01*
Y1932D01*
X4601Y1912D01*
X4541D01*
X4581D02*
X4621Y1872D01*
X4661Y1972D02*
X4681Y1992D01*
X4721D01*
X4741Y1972D01*
Y1952D01*
X4721Y1932D01*
X4741Y1912D01*
Y1892D01*
X4721Y1872D01*
X4681D01*
X4661Y1892D01*
Y1912D01*
X4681Y1932D01*
X4661Y1952D01*
Y1972D01*
X4681Y1932D02*
X4721D01*
X2074Y3990D02*
Y4110D01*
X2134D01*
X2154Y4090D01*
Y4050D01*
X2134Y4030D01*
X2074D01*
X2114D02*
X2154Y3990D01*
X2194D02*
X2234D01*
X2214D01*
Y4110D01*
X2194Y4090D01*
X2374Y4110D02*
X2294D01*
Y4050D01*
X2334Y4070D01*
X2354D01*
X2374Y4050D01*
Y4010D01*
X2354Y3990D01*
X2314D01*
X2294Y4010D01*
X1113Y3826D02*
X993D01*
Y3886D01*
X1013Y3906D01*
X1053D01*
X1073Y3886D01*
Y3826D01*
Y3866D02*
X1113Y3906D01*
Y3946D02*
Y3986D01*
Y3966D01*
X993D01*
X1013Y3946D01*
X1113Y4106D02*
X993D01*
X1053Y4046D01*
Y4126D01*
X4571Y210D02*
X4551Y230D01*
X4511D01*
X4491Y210D01*
Y130D01*
X4511Y110D01*
X4551D01*
X4571Y130D01*
X4691Y110D02*
X4611D01*
X4691Y190D01*
Y210D01*
X4671Y230D01*
X4631D01*
X4611Y210D01*
X4731D02*
X4751Y230D01*
X4791D01*
X4811Y210D01*
Y190D01*
X4791Y170D01*
X4811Y150D01*
Y130D01*
X4791Y110D01*
X4751D01*
X4731Y130D01*
Y150D01*
X4751Y170D01*
X4731Y190D01*
Y210D01*
X4751Y170D02*
X4791D01*
X1722Y2155D02*
Y2235D01*
X1702Y2255D01*
X1662D01*
X1642Y2235D01*
Y2155D01*
X1662Y2135D01*
X1702D01*
X1682Y2175D02*
X1722Y2135D01*
X1702D02*
X1722Y2155D01*
X1762Y2235D02*
X1782Y2255D01*
X1822D01*
X1842Y2235D01*
Y2215D01*
X1822Y2195D01*
X1802D01*
X1822D01*
X1842Y2175D01*
Y2155D01*
X1822Y2135D01*
X1782D01*
X1762Y2155D01*
M02*
