G04*
G04 #@! TF.GenerationSoftware,Altium Limited,Altium Designer,25.8.1 (18)*
G04*
G04 Layer_Color=32768*
%FSLAX24Y24*%
%MOIN*%
G70*
G04*
G04 #@! TF.SameCoordinates,642ECA59-74B0-4D39-AD16-73E6623B2992*
G04*
G04*
G04 #@! TF.FilePolarity,Positive*
G04*
G01*
G75*
%ADD116C,0.0203*%
G36*
X3553Y2929D02*
Y2852D01*
X3225Y2780D01*
X3553Y2709D01*
Y2631D01*
X3115Y2544D01*
Y2619D01*
X3416Y2673D01*
X3115Y2738D01*
Y2824D01*
X3421Y2888D01*
X3115Y2943D01*
Y3017D01*
X3553Y2929D01*
D02*
G37*
G36*
X3258Y2520D02*
X3262Y2519D01*
X3267Y2519D01*
X3272Y2518D01*
X3278Y2518D01*
X3284Y2517D01*
X3291Y2515D01*
X3304Y2512D01*
X3311Y2510D01*
X3317Y2508D01*
X3324Y2505D01*
X3330Y2502D01*
X3330Y2501D01*
X3331Y2501D01*
X3333Y2500D01*
X3335Y2498D01*
X3338Y2497D01*
X3341Y2495D01*
X3344Y2492D01*
X3347Y2489D01*
X3355Y2483D01*
X3362Y2475D01*
X3369Y2466D01*
X3372Y2462D01*
X3375Y2457D01*
Y2456D01*
X3376Y2455D01*
X3376Y2454D01*
X3377Y2451D01*
X3378Y2449D01*
X3379Y2445D01*
X3380Y2440D01*
X3381Y2435D01*
X3383Y2429D01*
X3384Y2422D01*
X3385Y2415D01*
X3386Y2406D01*
X3387Y2397D01*
X3387Y2387D01*
X3388Y2376D01*
Y2317D01*
X3553D01*
Y2244D01*
X3115D01*
Y2371D01*
X3115Y2377D01*
Y2382D01*
X3115Y2389D01*
Y2396D01*
X3116Y2410D01*
X3117Y2417D01*
X3117Y2424D01*
X3118Y2431D01*
X3119Y2437D01*
X3120Y2442D01*
X3121Y2446D01*
Y2446D01*
X3122Y2447D01*
X3123Y2449D01*
X3123Y2451D01*
X3124Y2454D01*
X3126Y2457D01*
X3128Y2461D01*
X3130Y2465D01*
X3133Y2469D01*
X3136Y2473D01*
X3140Y2477D01*
X3144Y2482D01*
X3148Y2486D01*
X3153Y2491D01*
X3159Y2495D01*
X3165Y2499D01*
X3165Y2499D01*
X3166Y2500D01*
X3168Y2501D01*
X3171Y2502D01*
X3174Y2504D01*
X3178Y2506D01*
X3182Y2507D01*
X3188Y2509D01*
X3194Y2511D01*
X3200Y2513D01*
X3207Y2515D01*
X3215Y2517D01*
X3223Y2518D01*
X3231Y2519D01*
X3240Y2520D01*
X3250Y2520D01*
X3251D01*
X3252D01*
X3255D01*
X3258Y2520D01*
D02*
G37*
G36*
X3420Y2182D02*
X3421D01*
X3423Y2182D01*
X3424Y2181D01*
X3426Y2181D01*
X3431Y2179D01*
X3437Y2178D01*
X3444Y2175D01*
X3452Y2173D01*
X3460Y2170D01*
X3469Y2166D01*
X3478Y2162D01*
X3487Y2158D01*
X3496Y2152D01*
X3504Y2147D01*
X3513Y2141D01*
X3520Y2135D01*
X3527Y2128D01*
X3527Y2127D01*
X3528Y2126D01*
X3530Y2124D01*
X3532Y2121D01*
X3535Y2117D01*
X3538Y2113D01*
X3541Y2108D01*
X3544Y2102D01*
X3547Y2095D01*
X3550Y2088D01*
X3553Y2080D01*
X3555Y2072D01*
X3557Y2063D01*
X3559Y2054D01*
X3560Y2044D01*
X3561Y2034D01*
Y2030D01*
X3560Y2029D01*
Y2027D01*
X3560Y2022D01*
X3559Y2016D01*
X3558Y2009D01*
X3556Y2001D01*
X3554Y1993D01*
X3551Y1984D01*
X3547Y1975D01*
X3543Y1965D01*
X3538Y1956D01*
X3531Y1946D01*
X3524Y1937D01*
X3516Y1928D01*
X3506Y1920D01*
X3506D01*
X3506Y1919D01*
X3505Y1919D01*
X3504Y1918D01*
X3502Y1917D01*
X3500Y1915D01*
X3498Y1914D01*
X3495Y1912D01*
X3492Y1910D01*
X3489Y1908D01*
X3485Y1906D01*
X3481Y1904D01*
X3477Y1902D01*
X3472Y1899D01*
X3462Y1895D01*
X3451Y1890D01*
X3438Y1885D01*
X3424Y1881D01*
X3409Y1877D01*
X3393Y1874D01*
X3376Y1872D01*
X3357Y1870D01*
X3338Y1870D01*
X3338D01*
X3337D01*
X3335D01*
X3333D01*
X3331Y1870D01*
X3327D01*
X3323Y1870D01*
X3320D01*
X3315Y1871D01*
X3310Y1871D01*
X3305Y1872D01*
X3299Y1872D01*
X3287Y1874D01*
X3274Y1876D01*
X3260Y1879D01*
X3246Y1882D01*
X3231Y1886D01*
X3217Y1891D01*
X3202Y1897D01*
X3188Y1904D01*
X3175Y1911D01*
X3162Y1920D01*
X3162Y1921D01*
X3160Y1922D01*
X3157Y1925D01*
X3154Y1928D01*
X3150Y1932D01*
X3145Y1938D01*
X3140Y1944D01*
X3135Y1951D01*
X3130Y1959D01*
X3125Y1968D01*
X3120Y1978D01*
X3116Y1988D01*
X3113Y2000D01*
X3110Y2012D01*
X3108Y2024D01*
X3107Y2038D01*
Y2041D01*
X3108Y2044D01*
X3108Y2048D01*
X3109Y2053D01*
X3110Y2059D01*
X3111Y2066D01*
X3113Y2073D01*
X3115Y2081D01*
X3117Y2089D01*
X3121Y2098D01*
X3125Y2106D01*
X3130Y2115D01*
X3135Y2123D01*
X3141Y2131D01*
X3149Y2139D01*
X3149Y2139D01*
X3150Y2140D01*
X3152Y2142D01*
X3154Y2144D01*
X3157Y2146D01*
X3161Y2149D01*
X3165Y2152D01*
X3171Y2155D01*
X3176Y2159D01*
X3183Y2162D01*
X3190Y2166D01*
X3198Y2170D01*
X3206Y2173D01*
X3215Y2176D01*
X3225Y2179D01*
X3235Y2182D01*
X3256Y2110D01*
X3256D01*
X3255Y2110D01*
X3253Y2110D01*
X3251Y2109D01*
X3248Y2108D01*
X3244Y2107D01*
X3240Y2106D01*
X3236Y2104D01*
X3228Y2100D01*
X3218Y2095D01*
X3210Y2090D01*
X3206Y2086D01*
X3202Y2082D01*
X3202Y2082D01*
X3201Y2081D01*
X3200Y2080D01*
X3199Y2079D01*
X3197Y2077D01*
X3196Y2075D01*
X3194Y2072D01*
X3192Y2069D01*
X3191Y2065D01*
X3189Y2062D01*
X3186Y2054D01*
X3184Y2049D01*
X3184Y2044D01*
X3183Y2039D01*
X3183Y2034D01*
Y2033D01*
X3183Y2030D01*
X3183Y2028D01*
X3184Y2024D01*
X3185Y2020D01*
X3186Y2016D01*
X3187Y2011D01*
X3189Y2006D01*
X3191Y2001D01*
X3194Y1995D01*
X3198Y1990D01*
X3202Y1985D01*
X3206Y1979D01*
X3212Y1974D01*
X3218Y1969D01*
X3218Y1969D01*
X3219Y1968D01*
X3221Y1967D01*
X3225Y1965D01*
X3228Y1963D01*
X3233Y1961D01*
X3239Y1959D01*
X3245Y1957D01*
X3252Y1954D01*
X3261Y1952D01*
X3270Y1950D01*
X3281Y1948D01*
X3292Y1946D01*
X3304Y1945D01*
X3318Y1944D01*
X3332Y1944D01*
X3333D01*
X3333D01*
X3334D01*
X3336D01*
X3338D01*
X3340Y1944D01*
X3343D01*
X3346D01*
X3353Y1945D01*
X3360Y1945D01*
X3369Y1946D01*
X3378Y1947D01*
X3388Y1948D01*
X3397Y1950D01*
X3407Y1952D01*
X3417Y1954D01*
X3426Y1957D01*
X3435Y1960D01*
X3443Y1964D01*
X3450Y1968D01*
X3450Y1969D01*
X3452Y1970D01*
X3453Y1971D01*
X3456Y1973D01*
X3458Y1975D01*
X3461Y1978D01*
X3464Y1982D01*
X3468Y1986D01*
X3471Y1990D01*
X3474Y1995D01*
X3477Y2000D01*
X3480Y2006D01*
X3482Y2012D01*
X3483Y2018D01*
X3485Y2025D01*
X3485Y2032D01*
Y2035D01*
X3485Y2037D01*
X3484Y2040D01*
X3484Y2043D01*
X3483Y2046D01*
X3482Y2049D01*
X3480Y2057D01*
X3478Y2061D01*
X3476Y2065D01*
X3473Y2069D01*
X3470Y2074D01*
X3467Y2078D01*
X3463Y2082D01*
X3463Y2082D01*
X3462Y2083D01*
X3461Y2084D01*
X3459Y2085D01*
X3456Y2087D01*
X3453Y2089D01*
X3450Y2091D01*
X3446Y2093D01*
X3441Y2096D01*
X3436Y2099D01*
X3430Y2101D01*
X3424Y2104D01*
X3417Y2106D01*
X3409Y2108D01*
X3401Y2110D01*
X3392Y2112D01*
X3419Y2183D01*
X3420D01*
X3420Y2182D01*
D02*
G37*
G36*
X3538Y1669D02*
X3542D01*
X3547Y1669D01*
X3552Y1669D01*
X3558Y1668D01*
X3570Y1667D01*
X3583Y1664D01*
X3589Y1663D01*
X3595Y1662D01*
X3600Y1660D01*
X3605Y1658D01*
X3605Y1657D01*
X3606Y1657D01*
X3608Y1656D01*
X3610Y1655D01*
X3612Y1653D01*
X3616Y1651D01*
X3619Y1649D01*
X3622Y1646D01*
X3626Y1643D01*
X3630Y1639D01*
X3634Y1635D01*
X3637Y1631D01*
X3641Y1626D01*
X3645Y1620D01*
X3648Y1615D01*
X3651Y1608D01*
X3616Y1595D01*
Y1595D01*
X3616Y1596D01*
X3615Y1597D01*
X3614Y1598D01*
X3613Y1602D01*
X3610Y1606D01*
X3607Y1611D01*
X3603Y1616D01*
X3599Y1620D01*
X3594Y1624D01*
X3593D01*
X3593Y1625D01*
X3592Y1625D01*
X3591Y1626D01*
X3588Y1627D01*
X3583Y1629D01*
X3577Y1631D01*
X3571Y1632D01*
X3563Y1633D01*
X3553Y1634D01*
Y1601D01*
X3469D01*
Y1670D01*
X3530D01*
X3530D01*
X3532D01*
X3534D01*
X3538Y1669D01*
D02*
G37*
G36*
X3419Y1374D02*
X3419D01*
X3420D01*
X3422D01*
X3425Y1374D01*
X3428Y1375D01*
X3432Y1375D01*
X3436Y1375D01*
X3440Y1376D01*
X3450Y1378D01*
X3460Y1381D01*
X3464Y1383D01*
X3469Y1385D01*
X3473Y1387D01*
X3477Y1390D01*
X3478Y1391D01*
X3478Y1391D01*
X3479Y1392D01*
X3481Y1393D01*
X3482Y1395D01*
X3484Y1397D01*
X3487Y1402D01*
X3491Y1407D01*
X3495Y1414D01*
X3496Y1418D01*
X3497Y1422D01*
X3497Y1426D01*
X3498Y1430D01*
Y1432D01*
X3497Y1433D01*
X3497Y1436D01*
X3496Y1438D01*
X3495Y1441D01*
X3494Y1444D01*
X3492Y1448D01*
X3490Y1452D01*
X3487Y1456D01*
X3483Y1459D01*
X3479Y1463D01*
X3473Y1466D01*
X3467Y1469D01*
X3460Y1472D01*
X3452Y1475D01*
X3466Y1543D01*
X3467D01*
X3468Y1542D01*
X3471Y1541D01*
X3474Y1540D01*
X3478Y1539D01*
X3483Y1537D01*
X3488Y1535D01*
X3493Y1532D01*
X3499Y1530D01*
X3505Y1526D01*
X3511Y1523D01*
X3517Y1519D01*
X3522Y1515D01*
X3528Y1510D01*
X3533Y1505D01*
X3538Y1500D01*
X3538Y1500D01*
X3539Y1499D01*
X3540Y1497D01*
X3541Y1495D01*
X3543Y1492D01*
X3545Y1489D01*
X3547Y1485D01*
X3549Y1480D01*
X3551Y1475D01*
X3553Y1470D01*
X3555Y1464D01*
X3557Y1458D01*
X3558Y1451D01*
X3560Y1444D01*
X3560Y1437D01*
X3561Y1429D01*
Y1427D01*
X3560Y1424D01*
X3560Y1420D01*
X3559Y1415D01*
X3559Y1409D01*
X3557Y1403D01*
X3556Y1397D01*
X3554Y1389D01*
X3551Y1382D01*
X3548Y1375D01*
X3544Y1367D01*
X3540Y1360D01*
X3535Y1353D01*
X3529Y1346D01*
X3522Y1340D01*
X3521Y1340D01*
X3520Y1339D01*
X3518Y1337D01*
X3514Y1334D01*
X3509Y1332D01*
X3504Y1329D01*
X3497Y1325D01*
X3490Y1322D01*
X3481Y1318D01*
X3472Y1315D01*
X3461Y1312D01*
X3450Y1309D01*
X3438Y1307D01*
X3425Y1305D01*
X3411Y1304D01*
X3396Y1303D01*
X3396D01*
X3395D01*
X3394D01*
X3393D01*
X3391D01*
X3389Y1304D01*
X3386D01*
X3383Y1304D01*
X3376Y1305D01*
X3368Y1305D01*
X3360Y1306D01*
X3350Y1308D01*
X3341Y1310D01*
X3330Y1312D01*
X3320Y1315D01*
X3309Y1319D01*
X3298Y1323D01*
X3288Y1328D01*
X3278Y1334D01*
X3269Y1340D01*
X3268Y1341D01*
X3267Y1342D01*
X3265Y1344D01*
X3262Y1346D01*
X3259Y1349D01*
X3256Y1353D01*
X3252Y1358D01*
X3248Y1363D01*
X3245Y1368D01*
X3241Y1375D01*
X3238Y1381D01*
X3234Y1388D01*
X3232Y1396D01*
X3230Y1405D01*
X3228Y1413D01*
X3228Y1422D01*
Y1425D01*
X3228Y1428D01*
X3229Y1432D01*
X3229Y1436D01*
X3230Y1442D01*
X3232Y1448D01*
X3233Y1454D01*
X3236Y1461D01*
X3238Y1468D01*
X3242Y1476D01*
X3246Y1483D01*
X3251Y1490D01*
X3256Y1497D01*
X3262Y1504D01*
X3270Y1510D01*
X3270Y1510D01*
X3272Y1512D01*
X3275Y1513D01*
X3278Y1516D01*
X3284Y1518D01*
X3289Y1521D01*
X3297Y1525D01*
X3305Y1528D01*
X3314Y1531D01*
X3324Y1535D01*
X3336Y1538D01*
X3348Y1541D01*
X3362Y1543D01*
X3377Y1545D01*
X3392Y1546D01*
X3409Y1546D01*
X3419D01*
Y1374D01*
D02*
G37*
G36*
X3447Y1274D02*
X3449Y1274D01*
X3451Y1274D01*
X3453Y1273D01*
X3457Y1272D01*
X3460Y1271D01*
X3464Y1270D01*
X3468Y1269D01*
X3472Y1267D01*
X3482Y1263D01*
X3493Y1258D01*
X3503Y1252D01*
X3514Y1245D01*
X3519Y1240D01*
X3524Y1236D01*
X3529Y1231D01*
X3534Y1226D01*
X3539Y1221D01*
X3543Y1215D01*
X3547Y1209D01*
X3550Y1202D01*
X3553Y1195D01*
X3556Y1188D01*
X3558Y1180D01*
X3559Y1172D01*
X3560Y1163D01*
X3561Y1154D01*
Y1151D01*
X3560Y1148D01*
X3560Y1143D01*
X3559Y1138D01*
X3558Y1132D01*
X3556Y1125D01*
X3554Y1118D01*
X3552Y1111D01*
X3549Y1103D01*
X3545Y1095D01*
X3540Y1087D01*
X3535Y1080D01*
X3528Y1073D01*
X3521Y1066D01*
X3512Y1060D01*
X3512Y1059D01*
X3510Y1058D01*
X3507Y1057D01*
X3504Y1055D01*
X3499Y1052D01*
X3493Y1050D01*
X3487Y1047D01*
X3480Y1044D01*
X3471Y1041D01*
X3462Y1039D01*
X3453Y1036D01*
X3442Y1034D01*
X3432Y1032D01*
X3420Y1030D01*
X3408Y1029D01*
X3395Y1029D01*
X3395D01*
X3394D01*
X3393D01*
X3392D01*
X3390D01*
X3388Y1029D01*
X3385D01*
X3382Y1029D01*
X3375Y1030D01*
X3367Y1031D01*
X3358Y1032D01*
X3349Y1033D01*
X3339Y1035D01*
X3329Y1037D01*
X3319Y1040D01*
X3309Y1043D01*
X3298Y1047D01*
X3288Y1052D01*
X3279Y1057D01*
X3271Y1063D01*
X3270Y1064D01*
X3269Y1065D01*
X3267Y1067D01*
X3264Y1070D01*
X3261Y1073D01*
X3257Y1077D01*
X3253Y1083D01*
X3250Y1088D01*
X3246Y1094D01*
X3242Y1101D01*
X3238Y1109D01*
X3235Y1117D01*
X3232Y1126D01*
X3230Y1135D01*
X3228Y1145D01*
X3228Y1155D01*
Y1160D01*
X3228Y1163D01*
X3229Y1167D01*
X3229Y1171D01*
X3230Y1176D01*
X3231Y1182D01*
X3232Y1188D01*
X3234Y1193D01*
X3236Y1200D01*
X3239Y1206D01*
X3241Y1212D01*
X3244Y1218D01*
X3248Y1224D01*
X3252Y1230D01*
X3253Y1230D01*
X3254Y1231D01*
X3255Y1233D01*
X3257Y1235D01*
X3260Y1237D01*
X3263Y1240D01*
X3267Y1243D01*
X3271Y1246D01*
X3276Y1249D01*
X3282Y1253D01*
X3288Y1256D01*
X3295Y1259D01*
X3303Y1263D01*
X3311Y1266D01*
X3320Y1269D01*
X3329Y1271D01*
X3344Y1204D01*
X3344D01*
X3342Y1203D01*
X3340Y1203D01*
X3336Y1202D01*
X3333Y1201D01*
X3328Y1199D01*
X3324Y1197D01*
X3319Y1195D01*
X3315Y1192D01*
X3310Y1189D01*
X3306Y1185D01*
X3302Y1180D01*
X3299Y1175D01*
X3297Y1170D01*
X3295Y1163D01*
X3294Y1156D01*
Y1154D01*
X3295Y1152D01*
X3295Y1150D01*
X3296Y1147D01*
X3297Y1142D01*
X3299Y1135D01*
X3301Y1132D01*
X3303Y1128D01*
X3306Y1125D01*
X3309Y1121D01*
X3312Y1118D01*
X3316Y1115D01*
X3316Y1115D01*
X3317Y1114D01*
X3318Y1114D01*
X3320Y1113D01*
X3322Y1111D01*
X3325Y1110D01*
X3329Y1109D01*
X3333Y1107D01*
X3338Y1106D01*
X3343Y1104D01*
X3349Y1103D01*
X3356Y1102D01*
X3363Y1101D01*
X3371Y1100D01*
X3379Y1100D01*
X3389Y1099D01*
X3390D01*
X3391D01*
X3394D01*
X3398Y1100D01*
X3403D01*
X3408Y1100D01*
X3414Y1101D01*
X3420Y1101D01*
X3433Y1103D01*
X3447Y1106D01*
X3453Y1108D01*
X3459Y1110D01*
X3464Y1112D01*
X3469Y1115D01*
X3469Y1115D01*
X3470Y1116D01*
X3471Y1117D01*
X3472Y1118D01*
X3474Y1120D01*
X3476Y1121D01*
X3481Y1126D01*
X3485Y1132D01*
X3489Y1139D01*
X3490Y1143D01*
X3491Y1147D01*
X3492Y1152D01*
X3492Y1157D01*
Y1159D01*
X3492Y1160D01*
X3492Y1164D01*
X3491Y1168D01*
X3489Y1173D01*
X3487Y1178D01*
X3483Y1184D01*
X3479Y1189D01*
X3479D01*
X3479Y1190D01*
X3478Y1190D01*
X3477Y1191D01*
X3475Y1192D01*
X3473Y1193D01*
X3471Y1194D01*
X3468Y1196D01*
X3465Y1197D01*
X3462Y1199D01*
X3458Y1201D01*
X3454Y1202D01*
X3449Y1203D01*
X3444Y1205D01*
X3438Y1206D01*
X3432Y1207D01*
X3446Y1275D01*
X3446D01*
X3447Y1274D01*
D02*
G37*
G36*
X3553Y905D02*
X3391D01*
X3390D01*
X3389D01*
X3387D01*
X3383D01*
X3379D01*
X3375Y905D01*
X3370D01*
X3365Y904D01*
X3354Y904D01*
X3343Y903D01*
X3338Y903D01*
X3333Y902D01*
X3329Y901D01*
X3326Y901D01*
X3326D01*
X3325Y900D01*
X3323Y900D01*
X3321Y899D01*
X3317Y898D01*
X3313Y896D01*
X3309Y893D01*
X3305Y890D01*
X3301Y886D01*
X3301Y886D01*
X3300Y884D01*
X3298Y882D01*
X3297Y879D01*
X3295Y876D01*
X3294Y872D01*
X3293Y867D01*
X3292Y862D01*
Y861D01*
X3293Y859D01*
X3293Y856D01*
X3294Y852D01*
X3295Y847D01*
X3297Y842D01*
X3300Y836D01*
X3304Y831D01*
X3304Y830D01*
X3306Y829D01*
X3308Y826D01*
X3312Y823D01*
X3316Y820D01*
X3321Y817D01*
X3328Y814D01*
X3335Y811D01*
X3335D01*
X3336Y811D01*
X3337Y810D01*
X3339Y810D01*
X3341Y810D01*
X3344Y809D01*
X3347Y809D01*
X3352Y808D01*
X3356Y808D01*
X3362Y807D01*
X3368Y807D01*
X3375Y807D01*
X3382Y806D01*
X3390Y806D01*
X3400Y806D01*
X3409D01*
X3553D01*
Y737D01*
X3236D01*
Y800D01*
X3282D01*
X3282Y801D01*
X3281Y801D01*
X3279Y802D01*
X3277Y803D01*
X3275Y805D01*
X3273Y807D01*
X3267Y811D01*
X3260Y817D01*
X3254Y824D01*
X3247Y831D01*
X3242Y839D01*
X3241Y839D01*
X3241Y840D01*
X3240Y841D01*
X3240Y843D01*
X3239Y844D01*
X3238Y847D01*
X3236Y850D01*
X3235Y853D01*
X3232Y860D01*
X3230Y868D01*
X3229Y877D01*
X3228Y886D01*
Y889D01*
X3228Y891D01*
Y894D01*
X3229Y897D01*
X3229Y900D01*
X3230Y904D01*
X3232Y912D01*
X3235Y921D01*
X3237Y925D01*
X3239Y929D01*
X3241Y933D01*
X3244Y937D01*
X3244Y937D01*
X3245Y938D01*
X3246Y939D01*
X3247Y941D01*
X3248Y942D01*
X3250Y944D01*
X3255Y949D01*
X3261Y953D01*
X3268Y958D01*
X3275Y962D01*
X3285Y966D01*
X3285D01*
X3286Y966D01*
X3287Y967D01*
X3289Y967D01*
X3292Y968D01*
X3295Y969D01*
X3298Y969D01*
X3303Y970D01*
X3308Y971D01*
X3313Y971D01*
X3319Y972D01*
X3325Y973D01*
X3332Y973D01*
X3339Y974D01*
X3347Y974D01*
X3356D01*
X3553D01*
Y905D01*
D02*
G37*
G36*
Y616D02*
X3518Y607D01*
X3519Y606D01*
X3519Y606D01*
X3520Y605D01*
X3522Y603D01*
X3524Y602D01*
X3526Y600D01*
X3530Y595D01*
X3535Y589D01*
X3541Y583D01*
X3546Y576D01*
X3550Y569D01*
Y568D01*
X3551Y568D01*
X3551Y567D01*
X3552Y565D01*
X3553Y563D01*
X3553Y561D01*
X3555Y556D01*
X3557Y549D01*
X3559Y542D01*
X3560Y534D01*
X3561Y526D01*
Y524D01*
X3560Y522D01*
Y519D01*
X3560Y516D01*
X3559Y512D01*
X3558Y508D01*
X3557Y504D01*
X3556Y499D01*
X3554Y494D01*
X3552Y489D01*
X3550Y484D01*
X3547Y478D01*
X3543Y473D01*
X3540Y468D01*
X3535Y463D01*
X3535Y463D01*
X3534Y462D01*
X3532Y461D01*
X3530Y460D01*
X3528Y458D01*
X3525Y456D01*
X3521Y454D01*
X3517Y451D01*
X3512Y449D01*
X3507Y447D01*
X3502Y445D01*
X3495Y443D01*
X3489Y442D01*
X3482Y440D01*
X3475Y440D01*
X3467Y439D01*
X3467D01*
X3466D01*
X3464D01*
X3462Y440D01*
X3460D01*
X3457Y440D01*
X3454Y440D01*
X3451Y441D01*
X3444Y442D01*
X3436Y444D01*
X3428Y446D01*
X3420Y449D01*
X3420D01*
X3419Y449D01*
X3418Y450D01*
X3417Y451D01*
X3413Y453D01*
X3408Y456D01*
X3403Y460D01*
X3398Y465D01*
X3393Y471D01*
X3388Y477D01*
Y477D01*
X3387Y478D01*
X3387Y479D01*
X3386Y480D01*
X3385Y482D01*
X3384Y484D01*
X3382Y487D01*
X3381Y491D01*
X3379Y495D01*
X3378Y499D01*
X3376Y504D01*
X3374Y509D01*
X3372Y514D01*
X3370Y520D01*
X3368Y527D01*
X3367Y534D01*
Y535D01*
X3366Y536D01*
X3366Y539D01*
X3365Y542D01*
X3364Y546D01*
X3363Y551D01*
X3361Y555D01*
X3360Y561D01*
X3356Y572D01*
X3353Y583D01*
X3351Y588D01*
X3349Y593D01*
X3348Y597D01*
X3346Y601D01*
X3345D01*
X3344D01*
X3343D01*
X3342D01*
X3339D01*
X3337Y601D01*
X3332D01*
X3326Y600D01*
X3320Y600D01*
X3315Y599D01*
X3313Y598D01*
X3311Y597D01*
X3311Y597D01*
X3310Y597D01*
X3309Y596D01*
X3307Y594D01*
X3304Y592D01*
X3302Y590D01*
X3300Y587D01*
X3298Y583D01*
X3298Y583D01*
X3297Y581D01*
X3296Y579D01*
X3295Y576D01*
X3294Y572D01*
X3293Y567D01*
X3293Y562D01*
X3292Y555D01*
Y552D01*
X3293Y549D01*
X3293Y544D01*
X3294Y540D01*
X3296Y535D01*
X3298Y530D01*
X3301Y526D01*
X3301Y526D01*
X3302Y524D01*
X3305Y522D01*
X3308Y520D01*
X3312Y517D01*
X3318Y515D01*
X3324Y512D01*
X3328Y510D01*
X3332Y509D01*
X3319Y447D01*
X3318D01*
X3316Y447D01*
X3314Y448D01*
X3311Y449D01*
X3307Y450D01*
X3302Y451D01*
X3297Y453D01*
X3292Y456D01*
X3281Y461D01*
X3269Y467D01*
X3264Y471D01*
X3259Y475D01*
X3254Y479D01*
X3250Y484D01*
X3249Y484D01*
X3249Y485D01*
X3248Y487D01*
X3246Y489D01*
X3245Y491D01*
X3243Y495D01*
X3241Y499D01*
X3239Y503D01*
X3237Y508D01*
X3235Y514D01*
X3233Y520D01*
X3231Y527D01*
X3230Y534D01*
X3229Y542D01*
X3228Y550D01*
X3228Y559D01*
Y564D01*
X3228Y566D01*
Y570D01*
X3229Y574D01*
X3229Y579D01*
X3230Y584D01*
X3231Y595D01*
X3233Y606D01*
X3236Y616D01*
X3238Y621D01*
X3240Y626D01*
Y626D01*
X3241Y627D01*
X3242Y628D01*
X3243Y630D01*
X3244Y632D01*
X3245Y634D01*
X3249Y639D01*
X3254Y644D01*
X3260Y649D01*
X3266Y655D01*
X3274Y659D01*
X3274D01*
X3275Y659D01*
X3276Y660D01*
X3278Y660D01*
X3280Y661D01*
X3284Y662D01*
X3287Y663D01*
X3291Y664D01*
X3296Y665D01*
X3302Y666D01*
X3308Y667D01*
X3315Y667D01*
X3323Y668D01*
X3331Y669D01*
X3341Y669D01*
X3351D01*
X3449Y668D01*
X3449D01*
X3451D01*
X3453D01*
X3456D01*
X3459D01*
X3463Y669D01*
X3467D01*
X3472D01*
X3482Y669D01*
X3492Y669D01*
X3502Y670D01*
X3506Y671D01*
X3510Y671D01*
X3511D01*
X3511Y672D01*
X3512D01*
X3514Y672D01*
X3516Y672D01*
X3518Y673D01*
X3523Y674D01*
X3530Y676D01*
X3537Y678D01*
X3545Y680D01*
X3553Y684D01*
Y616D01*
D02*
G37*
G36*
Y326D02*
X3507D01*
X3507Y325D01*
X3508Y325D01*
X3509Y324D01*
X3511Y323D01*
X3514Y322D01*
X3516Y320D01*
X3522Y315D01*
X3529Y310D01*
X3535Y303D01*
X3542Y296D01*
X3547Y288D01*
Y288D01*
X3548Y287D01*
X3549Y286D01*
X3549Y285D01*
X3550Y283D01*
X3552Y280D01*
X3553Y277D01*
X3554Y275D01*
X3556Y268D01*
X3559Y261D01*
X3560Y253D01*
X3561Y244D01*
Y242D01*
X3560Y240D01*
X3560Y237D01*
X3559Y233D01*
X3558Y229D01*
X3557Y224D01*
X3555Y218D01*
X3553Y212D01*
X3550Y206D01*
X3546Y200D01*
X3542Y194D01*
X3537Y187D01*
X3531Y181D01*
X3525Y174D01*
X3517Y168D01*
X3517Y168D01*
X3515Y167D01*
X3513Y165D01*
X3509Y163D01*
X3505Y160D01*
X3499Y158D01*
X3493Y155D01*
X3485Y152D01*
X3477Y149D01*
X3468Y146D01*
X3458Y143D01*
X3446Y141D01*
X3434Y138D01*
X3421Y137D01*
X3407Y136D01*
X3393Y136D01*
X3392D01*
X3392D01*
X3391D01*
X3389D01*
X3387D01*
X3385Y136D01*
X3382D01*
X3379Y136D01*
X3373Y137D01*
X3365Y137D01*
X3356Y138D01*
X3347Y139D01*
X3337Y141D01*
X3327Y143D01*
X3317Y146D01*
X3307Y149D01*
X3297Y152D01*
X3287Y157D01*
X3278Y161D01*
X3270Y167D01*
X3270Y167D01*
X3268Y169D01*
X3266Y170D01*
X3263Y173D01*
X3260Y176D01*
X3257Y180D01*
X3253Y184D01*
X3249Y189D01*
X3245Y194D01*
X3241Y200D01*
X3238Y206D01*
X3235Y213D01*
X3232Y221D01*
X3230Y229D01*
X3228Y237D01*
X3228Y245D01*
Y247D01*
X3228Y249D01*
Y251D01*
X3229Y253D01*
X3229Y258D01*
X3231Y264D01*
X3233Y271D01*
X3236Y278D01*
X3240Y286D01*
Y286D01*
X3240Y287D01*
X3241Y287D01*
X3241Y289D01*
X3244Y292D01*
X3248Y297D01*
X3252Y302D01*
X3258Y308D01*
X3265Y314D01*
X3273Y321D01*
X3115D01*
Y390D01*
X3553D01*
Y326D01*
D02*
G37*
G36*
X3419Y-78D02*
X3419D01*
X3420D01*
X3422D01*
X3425Y-77D01*
X3428Y-77D01*
X3432Y-77D01*
X3436Y-76D01*
X3440Y-75D01*
X3450Y-73D01*
X3460Y-71D01*
X3464Y-69D01*
X3469Y-67D01*
X3473Y-64D01*
X3477Y-61D01*
X3478Y-61D01*
X3478Y-60D01*
X3479Y-60D01*
X3481Y-58D01*
X3482Y-57D01*
X3484Y-55D01*
X3487Y-50D01*
X3491Y-44D01*
X3495Y-37D01*
X3496Y-34D01*
X3497Y-30D01*
X3497Y-26D01*
X3498Y-21D01*
Y-20D01*
X3497Y-18D01*
X3497Y-16D01*
X3496Y-13D01*
X3495Y-10D01*
X3494Y-7D01*
X3492Y-3D01*
X3490Y0D01*
X3487Y4D01*
X3483Y8D01*
X3479Y11D01*
X3473Y15D01*
X3467Y18D01*
X3460Y21D01*
X3452Y23D01*
X3466Y91D01*
X3467D01*
X3468Y91D01*
X3471Y90D01*
X3474Y89D01*
X3478Y87D01*
X3483Y86D01*
X3488Y83D01*
X3493Y81D01*
X3499Y78D01*
X3505Y75D01*
X3511Y71D01*
X3517Y67D01*
X3522Y63D01*
X3528Y59D01*
X3533Y54D01*
X3538Y48D01*
X3538Y48D01*
X3539Y47D01*
X3540Y45D01*
X3541Y43D01*
X3543Y40D01*
X3545Y37D01*
X3547Y33D01*
X3549Y29D01*
X3551Y24D01*
X3553Y19D01*
X3555Y13D01*
X3557Y7D01*
X3558Y-0D01*
X3560Y-7D01*
X3560Y-14D01*
X3561Y-22D01*
Y-25D01*
X3560Y-28D01*
X3560Y-32D01*
X3559Y-37D01*
X3559Y-42D01*
X3557Y-48D01*
X3556Y-55D01*
X3554Y-62D01*
X3551Y-69D01*
X3548Y-77D01*
X3544Y-84D01*
X3540Y-92D01*
X3535Y-98D01*
X3529Y-105D01*
X3522Y-111D01*
X3521Y-112D01*
X3520Y-113D01*
X3518Y-115D01*
X3514Y-117D01*
X3509Y-120D01*
X3504Y-123D01*
X3497Y-126D01*
X3490Y-130D01*
X3481Y-133D01*
X3472Y-137D01*
X3461Y-140D01*
X3450Y-142D01*
X3438Y-145D01*
X3425Y-147D01*
X3411Y-148D01*
X3396Y-148D01*
X3396D01*
X3395D01*
X3394D01*
X3393D01*
X3391D01*
X3389Y-148D01*
X3386D01*
X3383Y-148D01*
X3376Y-147D01*
X3368Y-146D01*
X3360Y-145D01*
X3350Y-144D01*
X3341Y-142D01*
X3330Y-139D01*
X3320Y-136D01*
X3309Y-132D01*
X3298Y-128D01*
X3288Y-123D01*
X3278Y-118D01*
X3269Y-111D01*
X3268Y-111D01*
X3267Y-109D01*
X3265Y-108D01*
X3262Y-105D01*
X3259Y-102D01*
X3256Y-98D01*
X3252Y-94D01*
X3248Y-89D01*
X3245Y-83D01*
X3241Y-77D01*
X3238Y-70D01*
X3234Y-63D01*
X3232Y-55D01*
X3230Y-47D01*
X3228Y-38D01*
X3228Y-29D01*
Y-26D01*
X3228Y-24D01*
X3229Y-20D01*
X3229Y-15D01*
X3230Y-10D01*
X3232Y-4D01*
X3233Y3D01*
X3236Y10D01*
X3238Y17D01*
X3242Y24D01*
X3246Y32D01*
X3251Y39D01*
X3256Y45D01*
X3262Y52D01*
X3270Y58D01*
X3270Y59D01*
X3272Y60D01*
X3275Y62D01*
X3278Y64D01*
X3284Y67D01*
X3289Y70D01*
X3297Y73D01*
X3305Y77D01*
X3314Y80D01*
X3324Y83D01*
X3336Y86D01*
X3348Y89D01*
X3362Y91D01*
X3377Y93D01*
X3392Y94D01*
X3409Y95D01*
X3419D01*
Y-78D01*
D02*
G37*
G36*
X3399Y-184D02*
X3402D01*
X3405Y-184D01*
X3412Y-184D01*
X3420Y-185D01*
X3429Y-186D01*
X3438Y-187D01*
X3448Y-189D01*
X3458Y-191D01*
X3469Y-194D01*
X3479Y-197D01*
X3489Y-201D01*
X3499Y-205D01*
X3509Y-210D01*
X3517Y-216D01*
X3518Y-216D01*
X3519Y-217D01*
X3521Y-219D01*
X3524Y-222D01*
X3527Y-224D01*
X3531Y-228D01*
X3535Y-233D01*
X3539Y-237D01*
X3543Y-243D01*
X3547Y-249D01*
X3551Y-255D01*
X3554Y-262D01*
X3557Y-269D01*
X3559Y-276D01*
X3560Y-284D01*
X3561Y-292D01*
Y-294D01*
X3560Y-296D01*
Y-298D01*
X3560Y-300D01*
X3559Y-305D01*
X3558Y-311D01*
X3556Y-317D01*
X3554Y-324D01*
X3551Y-331D01*
Y-331D01*
X3550Y-332D01*
X3550Y-333D01*
X3549Y-334D01*
X3546Y-338D01*
X3542Y-342D01*
X3540Y-345D01*
X3538Y-348D01*
X3535Y-351D01*
X3531Y-354D01*
X3528Y-358D01*
X3523Y-361D01*
X3519Y-365D01*
X3514Y-368D01*
X3674D01*
Y-437D01*
X3236D01*
Y-373D01*
X3282D01*
X3281Y-373D01*
X3280Y-372D01*
X3278Y-371D01*
X3276Y-370D01*
X3274Y-368D01*
X3268Y-364D01*
X3262Y-360D01*
X3255Y-353D01*
X3249Y-347D01*
X3243Y-339D01*
X3242Y-339D01*
X3242Y-338D01*
X3241Y-337D01*
X3240Y-335D01*
X3240Y-333D01*
X3238Y-331D01*
X3237Y-328D01*
X3235Y-325D01*
X3233Y-318D01*
X3230Y-310D01*
X3229Y-302D01*
X3228Y-297D01*
Y-291D01*
X3228Y-288D01*
X3229Y-285D01*
X3229Y-281D01*
X3230Y-277D01*
X3232Y-272D01*
X3233Y-266D01*
X3236Y-260D01*
X3239Y-254D01*
X3242Y-248D01*
X3246Y-241D01*
X3251Y-235D01*
X3257Y-228D01*
X3263Y-222D01*
X3271Y-216D01*
X3271Y-215D01*
X3273Y-214D01*
X3275Y-213D01*
X3279Y-211D01*
X3283Y-208D01*
X3288Y-205D01*
X3295Y-202D01*
X3302Y-199D01*
X3310Y-197D01*
X3319Y-194D01*
X3329Y-191D01*
X3340Y-188D01*
X3351Y-186D01*
X3364Y-185D01*
X3377Y-184D01*
X3391Y-183D01*
X3392D01*
X3392D01*
X3393D01*
X3395D01*
X3397D01*
X3399Y-184D01*
D02*
G37*
G36*
X3553Y-573D02*
X3371D01*
X3371D01*
X3369D01*
X3367D01*
X3364D01*
X3360Y-573D01*
X3356D01*
X3351Y-574D01*
X3346Y-574D01*
X3335Y-575D01*
X3325Y-577D01*
X3320Y-578D01*
X3315Y-579D01*
X3311Y-580D01*
X3308Y-581D01*
X3308D01*
X3308Y-582D01*
X3306Y-583D01*
X3303Y-585D01*
X3300Y-588D01*
X3297Y-592D01*
X3295Y-597D01*
X3293Y-603D01*
X3293Y-606D01*
X3292Y-610D01*
Y-612D01*
X3293Y-614D01*
X3293Y-615D01*
X3294Y-618D01*
X3295Y-623D01*
X3298Y-629D01*
X3299Y-632D01*
X3302Y-635D01*
X3304Y-638D01*
X3307Y-641D01*
X3310Y-644D01*
X3314Y-647D01*
X3315D01*
X3315Y-648D01*
X3317Y-648D01*
X3319Y-649D01*
X3321Y-650D01*
X3325Y-651D01*
X3329Y-652D01*
X3333Y-654D01*
X3339Y-655D01*
X3345Y-656D01*
X3352Y-658D01*
X3360Y-659D01*
X3369Y-660D01*
X3379Y-660D01*
X3389Y-661D01*
X3401Y-661D01*
X3553D01*
Y-730D01*
X3379D01*
X3379D01*
X3377D01*
X3374D01*
X3371D01*
X3367Y-730D01*
X3362D01*
X3357D01*
X3351Y-731D01*
X3340Y-731D01*
X3334Y-732D01*
X3329Y-732D01*
X3324Y-733D01*
X3319Y-734D01*
X3315Y-735D01*
X3312Y-736D01*
X3312D01*
X3311Y-736D01*
X3310Y-737D01*
X3309Y-737D01*
X3306Y-739D01*
X3302Y-742D01*
X3298Y-746D01*
X3295Y-752D01*
X3294Y-755D01*
X3293Y-758D01*
X3293Y-762D01*
X3292Y-766D01*
Y-768D01*
X3293Y-771D01*
X3294Y-775D01*
X3295Y-779D01*
X3297Y-784D01*
X3299Y-789D01*
X3303Y-794D01*
X3303Y-795D01*
X3305Y-796D01*
X3307Y-798D01*
X3310Y-801D01*
X3314Y-804D01*
X3320Y-807D01*
X3326Y-810D01*
X3333Y-812D01*
X3333D01*
X3333Y-813D01*
X3334Y-813D01*
X3336Y-813D01*
X3338Y-814D01*
X3341Y-814D01*
X3344Y-815D01*
X3348Y-815D01*
X3352Y-816D01*
X3357Y-816D01*
X3363Y-817D01*
X3369Y-817D01*
X3375Y-817D01*
X3383Y-818D01*
X3390Y-818D01*
X3399D01*
X3553D01*
Y-887D01*
X3236D01*
Y-824D01*
X3279D01*
X3279Y-823D01*
X3278Y-823D01*
X3277Y-822D01*
X3275Y-821D01*
X3273Y-819D01*
X3270Y-817D01*
X3265Y-812D01*
X3259Y-807D01*
X3252Y-801D01*
X3246Y-794D01*
X3241Y-786D01*
Y-786D01*
X3240Y-785D01*
X3240Y-784D01*
X3239Y-783D01*
X3238Y-781D01*
X3237Y-778D01*
X3236Y-776D01*
X3235Y-773D01*
X3232Y-766D01*
X3230Y-759D01*
X3229Y-751D01*
X3228Y-743D01*
Y-740D01*
X3228Y-738D01*
Y-736D01*
X3229Y-733D01*
X3230Y-728D01*
X3231Y-721D01*
X3233Y-714D01*
X3237Y-706D01*
X3241Y-699D01*
Y-699D01*
X3241Y-698D01*
X3242Y-697D01*
X3243Y-696D01*
X3246Y-693D01*
X3250Y-688D01*
X3256Y-684D01*
X3262Y-679D01*
X3270Y-674D01*
X3279Y-669D01*
X3278Y-669D01*
X3278Y-668D01*
X3276Y-667D01*
X3275Y-666D01*
X3273Y-664D01*
X3270Y-662D01*
X3264Y-658D01*
X3258Y-652D01*
X3252Y-646D01*
X3246Y-639D01*
X3241Y-632D01*
Y-631D01*
X3240Y-631D01*
X3240Y-630D01*
X3239Y-628D01*
X3238Y-627D01*
X3237Y-624D01*
X3234Y-619D01*
X3232Y-613D01*
X3230Y-605D01*
X3229Y-598D01*
X3228Y-589D01*
Y-587D01*
X3228Y-585D01*
Y-582D01*
X3229Y-580D01*
X3230Y-574D01*
X3231Y-567D01*
X3234Y-559D01*
X3237Y-551D01*
X3241Y-544D01*
Y-543D01*
X3242Y-543D01*
X3242Y-542D01*
X3243Y-540D01*
X3246Y-537D01*
X3251Y-533D01*
X3255Y-528D01*
X3262Y-523D01*
X3269Y-518D01*
X3277Y-514D01*
X3278D01*
X3278Y-514D01*
X3280Y-513D01*
X3282Y-512D01*
X3285Y-512D01*
X3287Y-511D01*
X3291Y-510D01*
X3295Y-509D01*
X3300Y-508D01*
X3306Y-507D01*
X3311Y-506D01*
X3318Y-506D01*
X3325Y-505D01*
X3333Y-504D01*
X3341Y-504D01*
X3350D01*
X3553D01*
Y-573D01*
D02*
G37*
G36*
Y-1021D02*
X3236D01*
Y-952D01*
X3553D01*
Y-1021D01*
D02*
G37*
G36*
X3193D02*
X3115D01*
Y-952D01*
X3193D01*
Y-1021D01*
D02*
G37*
G36*
X3553Y-1299D02*
X3371D01*
X3371D01*
X3369D01*
X3367D01*
X3364D01*
X3360Y-1299D01*
X3356D01*
X3351Y-1299D01*
X3346Y-1300D01*
X3335Y-1301D01*
X3325Y-1302D01*
X3320Y-1303D01*
X3315Y-1304D01*
X3311Y-1306D01*
X3308Y-1307D01*
X3308D01*
X3308Y-1308D01*
X3306Y-1309D01*
X3303Y-1311D01*
X3300Y-1314D01*
X3297Y-1318D01*
X3295Y-1323D01*
X3293Y-1329D01*
X3293Y-1332D01*
X3292Y-1335D01*
Y-1338D01*
X3293Y-1339D01*
X3293Y-1341D01*
X3294Y-1344D01*
X3295Y-1349D01*
X3298Y-1355D01*
X3299Y-1358D01*
X3302Y-1361D01*
X3304Y-1364D01*
X3307Y-1367D01*
X3310Y-1370D01*
X3314Y-1373D01*
X3315D01*
X3315Y-1373D01*
X3317Y-1374D01*
X3319Y-1375D01*
X3321Y-1376D01*
X3325Y-1377D01*
X3329Y-1378D01*
X3333Y-1379D01*
X3339Y-1381D01*
X3345Y-1382D01*
X3352Y-1383D01*
X3360Y-1384D01*
X3369Y-1385D01*
X3379Y-1386D01*
X3389Y-1386D01*
X3401Y-1387D01*
X3553D01*
Y-1456D01*
X3379D01*
X3379D01*
X3377D01*
X3374D01*
X3371D01*
X3367Y-1456D01*
X3362D01*
X3357D01*
X3351Y-1456D01*
X3340Y-1457D01*
X3334Y-1458D01*
X3329Y-1458D01*
X3324Y-1459D01*
X3319Y-1460D01*
X3315Y-1460D01*
X3312Y-1461D01*
X3312D01*
X3311Y-1462D01*
X3310Y-1462D01*
X3309Y-1463D01*
X3306Y-1465D01*
X3302Y-1468D01*
X3298Y-1472D01*
X3295Y-1477D01*
X3294Y-1480D01*
X3293Y-1484D01*
X3293Y-1487D01*
X3292Y-1492D01*
Y-1494D01*
X3293Y-1497D01*
X3294Y-1501D01*
X3295Y-1505D01*
X3297Y-1510D01*
X3299Y-1515D01*
X3303Y-1520D01*
X3303Y-1520D01*
X3305Y-1522D01*
X3307Y-1524D01*
X3310Y-1527D01*
X3314Y-1530D01*
X3320Y-1533D01*
X3326Y-1536D01*
X3333Y-1538D01*
X3333D01*
X3333Y-1539D01*
X3334Y-1539D01*
X3336Y-1539D01*
X3338Y-1540D01*
X3341Y-1540D01*
X3344Y-1541D01*
X3348Y-1541D01*
X3352Y-1541D01*
X3357Y-1542D01*
X3363Y-1542D01*
X3369Y-1543D01*
X3375Y-1543D01*
X3383Y-1543D01*
X3390Y-1544D01*
X3399D01*
X3553D01*
Y-1613D01*
X3236D01*
Y-1549D01*
X3279D01*
X3279Y-1549D01*
X3278Y-1549D01*
X3277Y-1548D01*
X3275Y-1546D01*
X3273Y-1545D01*
X3270Y-1543D01*
X3265Y-1538D01*
X3259Y-1533D01*
X3252Y-1527D01*
X3246Y-1519D01*
X3241Y-1512D01*
Y-1512D01*
X3240Y-1511D01*
X3240Y-1510D01*
X3239Y-1508D01*
X3238Y-1506D01*
X3237Y-1504D01*
X3236Y-1502D01*
X3235Y-1499D01*
X3232Y-1492D01*
X3230Y-1485D01*
X3229Y-1477D01*
X3228Y-1468D01*
Y-1466D01*
X3228Y-1464D01*
Y-1462D01*
X3229Y-1459D01*
X3230Y-1453D01*
X3231Y-1447D01*
X3233Y-1439D01*
X3237Y-1432D01*
X3241Y-1425D01*
Y-1425D01*
X3241Y-1424D01*
X3242Y-1423D01*
X3243Y-1422D01*
X3246Y-1418D01*
X3250Y-1414D01*
X3256Y-1409D01*
X3262Y-1404D01*
X3270Y-1399D01*
X3279Y-1395D01*
X3278Y-1394D01*
X3278Y-1394D01*
X3276Y-1393D01*
X3275Y-1392D01*
X3273Y-1390D01*
X3270Y-1388D01*
X3264Y-1383D01*
X3258Y-1378D01*
X3252Y-1372D01*
X3246Y-1365D01*
X3241Y-1357D01*
Y-1357D01*
X3240Y-1356D01*
X3240Y-1356D01*
X3239Y-1354D01*
X3238Y-1352D01*
X3237Y-1350D01*
X3234Y-1345D01*
X3232Y-1338D01*
X3230Y-1331D01*
X3229Y-1323D01*
X3228Y-1315D01*
Y-1312D01*
X3228Y-1310D01*
Y-1308D01*
X3229Y-1306D01*
X3230Y-1299D01*
X3231Y-1292D01*
X3234Y-1285D01*
X3237Y-1277D01*
X3241Y-1269D01*
Y-1269D01*
X3242Y-1268D01*
X3242Y-1267D01*
X3243Y-1266D01*
X3246Y-1263D01*
X3251Y-1258D01*
X3255Y-1253D01*
X3262Y-1249D01*
X3269Y-1244D01*
X3277Y-1240D01*
X3278D01*
X3278Y-1240D01*
X3280Y-1239D01*
X3282Y-1238D01*
X3285Y-1238D01*
X3287Y-1237D01*
X3291Y-1236D01*
X3295Y-1235D01*
X3300Y-1234D01*
X3306Y-1233D01*
X3311Y-1232D01*
X3318Y-1231D01*
X3325Y-1231D01*
X3333Y-1230D01*
X3341Y-1230D01*
X3350D01*
X3553D01*
Y-1299D01*
D02*
G37*
G36*
Y-1746D02*
X3385D01*
X3385D01*
X3385D01*
X3383D01*
X3380D01*
X3376D01*
X3371Y-1747D01*
X3366D01*
X3360Y-1747D01*
X3354Y-1747D01*
X3342Y-1748D01*
X3336Y-1749D01*
X3330Y-1750D01*
X3324Y-1750D01*
X3320Y-1751D01*
X3315Y-1753D01*
X3312Y-1754D01*
X3312D01*
X3311Y-1754D01*
X3310Y-1755D01*
X3309Y-1756D01*
X3306Y-1759D01*
X3302Y-1762D01*
X3298Y-1767D01*
X3295Y-1773D01*
X3294Y-1777D01*
X3293Y-1781D01*
X3293Y-1785D01*
X3292Y-1789D01*
Y-1792D01*
X3293Y-1794D01*
X3293Y-1796D01*
X3294Y-1798D01*
X3295Y-1805D01*
X3298Y-1811D01*
X3299Y-1815D01*
X3301Y-1818D01*
X3304Y-1821D01*
X3307Y-1825D01*
X3310Y-1828D01*
X3314Y-1831D01*
X3314D01*
X3315Y-1831D01*
X3316Y-1832D01*
X3318Y-1833D01*
X3321Y-1834D01*
X3324Y-1835D01*
X3328Y-1837D01*
X3332Y-1838D01*
X3337Y-1840D01*
X3343Y-1841D01*
X3349Y-1842D01*
X3357Y-1843D01*
X3365Y-1844D01*
X3374Y-1845D01*
X3383Y-1845D01*
X3394Y-1845D01*
X3553D01*
Y-1914D01*
X3115D01*
Y-1845D01*
X3276D01*
X3275Y-1845D01*
X3275Y-1845D01*
X3274Y-1844D01*
X3272Y-1842D01*
X3270Y-1841D01*
X3268Y-1839D01*
X3262Y-1835D01*
X3257Y-1830D01*
X3251Y-1823D01*
X3245Y-1817D01*
X3240Y-1809D01*
Y-1809D01*
X3240Y-1808D01*
X3239Y-1807D01*
X3238Y-1806D01*
X3237Y-1804D01*
X3236Y-1802D01*
X3234Y-1796D01*
X3232Y-1790D01*
X3230Y-1783D01*
X3229Y-1774D01*
X3228Y-1766D01*
Y-1763D01*
X3228Y-1761D01*
X3229Y-1758D01*
X3229Y-1755D01*
X3229Y-1752D01*
X3230Y-1748D01*
X3232Y-1740D01*
X3235Y-1731D01*
X3237Y-1726D01*
X3239Y-1722D01*
X3242Y-1718D01*
X3245Y-1714D01*
X3245Y-1714D01*
X3245Y-1713D01*
X3246Y-1712D01*
X3248Y-1711D01*
X3250Y-1709D01*
X3252Y-1707D01*
X3254Y-1705D01*
X3257Y-1703D01*
X3260Y-1700D01*
X3263Y-1698D01*
X3267Y-1695D01*
X3271Y-1692D01*
X3276Y-1690D01*
X3281Y-1688D01*
X3286Y-1686D01*
X3291Y-1684D01*
X3292D01*
X3292Y-1684D01*
X3294Y-1683D01*
X3296Y-1683D01*
X3298Y-1682D01*
X3301Y-1682D01*
X3305Y-1681D01*
X3309Y-1680D01*
X3314Y-1680D01*
X3320Y-1680D01*
X3326Y-1679D01*
X3333Y-1678D01*
X3340Y-1678D01*
X3348Y-1678D01*
X3357Y-1677D01*
X3367D01*
X3553D01*
Y-1746D01*
D02*
G37*
G36*
X3401Y-1969D02*
X3405Y-1969D01*
X3410Y-1969D01*
X3416Y-1970D01*
X3422Y-1970D01*
X3429Y-1971D01*
X3436Y-1973D01*
X3443Y-1974D01*
X3451Y-1976D01*
X3459Y-1978D01*
X3466Y-1981D01*
X3474Y-1984D01*
X3482Y-1987D01*
X3482Y-1987D01*
X3483Y-1988D01*
X3485Y-1989D01*
X3488Y-1990D01*
X3491Y-1992D01*
X3495Y-1994D01*
X3499Y-1997D01*
X3504Y-2000D01*
X3508Y-2004D01*
X3513Y-2007D01*
X3518Y-2011D01*
X3523Y-2016D01*
X3533Y-2025D01*
X3537Y-2031D01*
X3541Y-2036D01*
X3541Y-2037D01*
X3542Y-2038D01*
X3543Y-2039D01*
X3544Y-2041D01*
X3545Y-2044D01*
X3547Y-2048D01*
X3549Y-2051D01*
X3551Y-2056D01*
X3553Y-2061D01*
X3554Y-2066D01*
X3556Y-2071D01*
X3557Y-2077D01*
X3559Y-2083D01*
X3560Y-2089D01*
X3560Y-2096D01*
X3561Y-2103D01*
Y-2105D01*
X3560Y-2108D01*
X3560Y-2112D01*
X3559Y-2117D01*
X3558Y-2123D01*
X3557Y-2130D01*
X3555Y-2136D01*
X3553Y-2144D01*
X3550Y-2152D01*
X3546Y-2160D01*
X3542Y-2168D01*
X3537Y-2176D01*
X3531Y-2184D01*
X3524Y-2191D01*
X3517Y-2199D01*
X3516Y-2199D01*
X3515Y-2201D01*
X3512Y-2202D01*
X3508Y-2205D01*
X3504Y-2208D01*
X3498Y-2211D01*
X3492Y-2214D01*
X3484Y-2218D01*
X3476Y-2222D01*
X3466Y-2225D01*
X3456Y-2228D01*
X3445Y-2231D01*
X3432Y-2234D01*
X3419Y-2236D01*
X3405Y-2237D01*
X3390Y-2237D01*
X3390D01*
X3388D01*
X3386D01*
X3382Y-2237D01*
X3378Y-2236D01*
X3373Y-2236D01*
X3368Y-2236D01*
X3362Y-2235D01*
X3356Y-2234D01*
X3349Y-2233D01*
X3342Y-2231D01*
X3334Y-2229D01*
X3327Y-2227D01*
X3320Y-2225D01*
X3312Y-2222D01*
X3305Y-2219D01*
X3305Y-2218D01*
X3303Y-2218D01*
X3301Y-2217D01*
X3299Y-2215D01*
X3296Y-2213D01*
X3292Y-2211D01*
X3288Y-2209D01*
X3284Y-2206D01*
X3279Y-2202D01*
X3274Y-2199D01*
X3269Y-2195D01*
X3265Y-2190D01*
X3256Y-2181D01*
X3252Y-2176D01*
X3248Y-2170D01*
X3247Y-2170D01*
X3247Y-2169D01*
X3246Y-2167D01*
X3245Y-2165D01*
X3243Y-2162D01*
X3241Y-2159D01*
X3240Y-2155D01*
X3238Y-2151D01*
X3236Y-2146D01*
X3234Y-2141D01*
X3233Y-2135D01*
X3231Y-2129D01*
X3230Y-2123D01*
X3229Y-2117D01*
X3228Y-2110D01*
X3228Y-2103D01*
Y-2100D01*
X3228Y-2097D01*
X3229Y-2093D01*
X3230Y-2087D01*
X3231Y-2081D01*
X3232Y-2074D01*
X3234Y-2067D01*
X3237Y-2059D01*
X3240Y-2051D01*
X3244Y-2043D01*
X3249Y-2035D01*
X3255Y-2027D01*
X3261Y-2019D01*
X3269Y-2011D01*
X3278Y-2004D01*
X3278Y-2004D01*
X3280Y-2003D01*
X3283Y-2001D01*
X3286Y-1999D01*
X3291Y-1996D01*
X3297Y-1993D01*
X3303Y-1990D01*
X3310Y-1986D01*
X3319Y-1983D01*
X3327Y-1980D01*
X3337Y-1977D01*
X3347Y-1974D01*
X3358Y-1971D01*
X3369Y-1970D01*
X3381Y-1969D01*
X3393Y-1968D01*
X3393D01*
X3395D01*
X3398D01*
X3401Y-1969D01*
D02*
G37*
G36*
X3349Y-2421D02*
X3353D01*
X3357Y-2422D01*
X3362D01*
X3367Y-2422D01*
X3373Y-2422D01*
X3379Y-2423D01*
X3392Y-2424D01*
X3405Y-2425D01*
X3420Y-2427D01*
X3434Y-2429D01*
X3449Y-2432D01*
X3463Y-2435D01*
X3476Y-2439D01*
X3489Y-2443D01*
X3495Y-2445D01*
X3501Y-2448D01*
X3506Y-2451D01*
X3511Y-2454D01*
X3512Y-2454D01*
X3513Y-2455D01*
X3516Y-2457D01*
X3519Y-2459D01*
X3522Y-2463D01*
X3527Y-2467D01*
X3531Y-2471D01*
X3536Y-2476D01*
X3541Y-2482D01*
X3545Y-2489D01*
X3549Y-2495D01*
X3553Y-2503D01*
X3556Y-2511D01*
X3558Y-2520D01*
X3560Y-2529D01*
X3561Y-2538D01*
Y-2540D01*
X3560Y-2543D01*
X3560Y-2547D01*
X3559Y-2551D01*
X3558Y-2556D01*
X3556Y-2562D01*
X3554Y-2568D01*
X3552Y-2575D01*
X3549Y-2582D01*
X3545Y-2589D01*
X3540Y-2596D01*
X3534Y-2603D01*
X3528Y-2610D01*
X3520Y-2617D01*
X3511Y-2623D01*
X3511Y-2623D01*
X3509Y-2624D01*
X3506Y-2626D01*
X3504Y-2627D01*
X3502Y-2628D01*
X3499Y-2629D01*
X3496Y-2630D01*
X3493Y-2631D01*
X3489Y-2633D01*
X3485Y-2634D01*
X3481Y-2636D01*
X3476Y-2637D01*
X3471Y-2639D01*
X3466Y-2640D01*
X3460Y-2642D01*
X3454Y-2643D01*
X3447Y-2645D01*
X3440Y-2646D01*
X3433Y-2647D01*
X3425Y-2649D01*
X3417Y-2650D01*
X3408Y-2651D01*
X3399Y-2652D01*
X3390Y-2652D01*
X3380Y-2653D01*
X3370Y-2654D01*
X3359Y-2654D01*
X3348Y-2655D01*
X3336D01*
X3336D01*
X3335D01*
X3333D01*
X3331D01*
X3328D01*
X3325Y-2654D01*
X3321D01*
X3316Y-2654D01*
X3311D01*
X3306Y-2654D01*
X3301Y-2653D01*
X3295Y-2653D01*
X3282Y-2652D01*
X3268Y-2651D01*
X3254Y-2649D01*
X3240Y-2647D01*
X3225Y-2644D01*
X3211Y-2641D01*
X3198Y-2638D01*
X3185Y-2633D01*
X3179Y-2631D01*
X3173Y-2628D01*
X3168Y-2626D01*
X3163Y-2623D01*
X3162Y-2622D01*
X3161Y-2621D01*
X3159Y-2619D01*
X3155Y-2617D01*
X3151Y-2614D01*
X3147Y-2610D01*
X3143Y-2605D01*
X3138Y-2600D01*
X3134Y-2594D01*
X3129Y-2588D01*
X3125Y-2581D01*
X3121Y-2573D01*
X3118Y-2565D01*
X3115Y-2557D01*
X3114Y-2548D01*
X3113Y-2538D01*
Y-2536D01*
X3113Y-2533D01*
X3114Y-2529D01*
X3115Y-2525D01*
X3116Y-2520D01*
X3117Y-2514D01*
X3119Y-2508D01*
X3122Y-2501D01*
X3125Y-2494D01*
X3129Y-2488D01*
X3134Y-2480D01*
X3140Y-2473D01*
X3147Y-2467D01*
X3154Y-2460D01*
X3163Y-2454D01*
X3164Y-2453D01*
X3165Y-2452D01*
X3169Y-2451D01*
X3171Y-2450D01*
X3173Y-2448D01*
X3175Y-2447D01*
X3178Y-2446D01*
X3182Y-2445D01*
X3185Y-2443D01*
X3189Y-2442D01*
X3194Y-2440D01*
X3198Y-2439D01*
X3204Y-2437D01*
X3209Y-2436D01*
X3215Y-2434D01*
X3221Y-2433D01*
X3228Y-2432D01*
X3234Y-2430D01*
X3242Y-2429D01*
X3249Y-2427D01*
X3257Y-2426D01*
X3266Y-2425D01*
X3275Y-2424D01*
X3284Y-2423D01*
X3294Y-2422D01*
X3304Y-2422D01*
X3315Y-2421D01*
X3326Y-2421D01*
X3337D01*
X3337D01*
X3338D01*
X3340D01*
X3343D01*
X3345D01*
X3349Y-2421D01*
D02*
G37*
G36*
X3412Y-2692D02*
X3416Y-2692D01*
X3421Y-2692D01*
X3427Y-2693D01*
X3434Y-2694D01*
X3441Y-2695D01*
X3449Y-2697D01*
X3458Y-2699D01*
X3466Y-2702D01*
X3475Y-2705D01*
X3484Y-2709D01*
X3494Y-2713D01*
X3503Y-2718D01*
X3512Y-2723D01*
X3513Y-2724D01*
X3514Y-2725D01*
X3517Y-2727D01*
X3520Y-2729D01*
X3524Y-2733D01*
X3528Y-2737D01*
X3532Y-2741D01*
X3536Y-2747D01*
X3541Y-2753D01*
X3545Y-2760D01*
X3549Y-2767D01*
X3553Y-2775D01*
X3556Y-2784D01*
X3559Y-2793D01*
X3560Y-2804D01*
X3561Y-2814D01*
Y-2817D01*
X3560Y-2819D01*
X3560Y-2823D01*
X3560Y-2826D01*
X3559Y-2831D01*
X3558Y-2837D01*
X3557Y-2842D01*
X3555Y-2849D01*
X3553Y-2855D01*
X3551Y-2862D01*
X3547Y-2869D01*
X3544Y-2875D01*
X3540Y-2882D01*
X3535Y-2888D01*
X3530Y-2895D01*
X3529Y-2895D01*
X3528Y-2896D01*
X3526Y-2897D01*
X3524Y-2900D01*
X3520Y-2902D01*
X3517Y-2905D01*
X3512Y-2908D01*
X3507Y-2911D01*
X3501Y-2915D01*
X3494Y-2918D01*
X3487Y-2921D01*
X3479Y-2924D01*
X3470Y-2927D01*
X3461Y-2930D01*
X3451Y-2931D01*
X3440Y-2933D01*
X3431Y-2864D01*
X3432D01*
X3433D01*
X3434Y-2864D01*
X3436Y-2864D01*
X3438Y-2863D01*
X3441Y-2863D01*
X3448Y-2861D01*
X3455Y-2859D01*
X3463Y-2856D01*
X3470Y-2852D01*
X3477Y-2847D01*
X3477Y-2847D01*
X3477Y-2846D01*
X3479Y-2844D01*
X3482Y-2841D01*
X3485Y-2837D01*
X3488Y-2832D01*
X3490Y-2827D01*
X3492Y-2820D01*
X3493Y-2817D01*
X3493Y-2814D01*
Y-2812D01*
X3493Y-2810D01*
X3492Y-2808D01*
X3492Y-2806D01*
X3490Y-2802D01*
X3488Y-2796D01*
X3486Y-2793D01*
X3484Y-2790D01*
X3482Y-2787D01*
X3479Y-2783D01*
X3476Y-2780D01*
X3472Y-2778D01*
X3472Y-2777D01*
X3471Y-2777D01*
X3470Y-2776D01*
X3468Y-2775D01*
X3466Y-2774D01*
X3463Y-2773D01*
X3460Y-2771D01*
X3456Y-2770D01*
X3452Y-2768D01*
X3447Y-2767D01*
X3442Y-2766D01*
X3436Y-2764D01*
X3430Y-2763D01*
X3423Y-2763D01*
X3415Y-2762D01*
X3408Y-2762D01*
X3407D01*
X3406D01*
X3404D01*
X3401Y-2762D01*
X3398D01*
X3394Y-2763D01*
X3389Y-2763D01*
X3385Y-2764D01*
X3375Y-2766D01*
X3365Y-2768D01*
X3355Y-2772D01*
X3351Y-2775D01*
X3347Y-2777D01*
X3346Y-2778D01*
X3346Y-2778D01*
X3345Y-2779D01*
X3344Y-2780D01*
X3341Y-2783D01*
X3337Y-2788D01*
X3333Y-2793D01*
X3330Y-2800D01*
X3329Y-2803D01*
X3328Y-2807D01*
X3327Y-2812D01*
X3327Y-2816D01*
Y-2817D01*
X3327Y-2819D01*
X3328Y-2821D01*
X3328Y-2824D01*
X3329Y-2826D01*
X3330Y-2830D01*
X3331Y-2834D01*
X3333Y-2838D01*
X3335Y-2842D01*
X3337Y-2846D01*
X3341Y-2851D01*
X3344Y-2856D01*
X3348Y-2860D01*
X3354Y-2865D01*
X3359Y-2869D01*
X3349Y-2925D01*
X3121Y-2890D01*
Y-2708D01*
X3200D01*
Y-2837D01*
X3274Y-2849D01*
X3274Y-2848D01*
X3274Y-2848D01*
X3273Y-2846D01*
X3272Y-2845D01*
X3271Y-2842D01*
X3270Y-2840D01*
X3268Y-2837D01*
X3267Y-2834D01*
X3264Y-2827D01*
X3262Y-2819D01*
X3261Y-2810D01*
X3260Y-2806D01*
Y-2799D01*
X3260Y-2797D01*
X3261Y-2794D01*
X3261Y-2791D01*
X3262Y-2786D01*
X3263Y-2781D01*
X3264Y-2776D01*
X3266Y-2771D01*
X3268Y-2765D01*
X3271Y-2759D01*
X3274Y-2753D01*
X3278Y-2747D01*
X3283Y-2741D01*
X3288Y-2735D01*
X3294Y-2729D01*
X3294Y-2729D01*
X3296Y-2727D01*
X3298Y-2725D01*
X3301Y-2723D01*
X3306Y-2720D01*
X3311Y-2717D01*
X3317Y-2714D01*
X3324Y-2710D01*
X3332Y-2707D01*
X3340Y-2703D01*
X3349Y-2700D01*
X3359Y-2697D01*
X3370Y-2695D01*
X3381Y-2693D01*
X3393Y-2692D01*
X3406Y-2691D01*
X3407D01*
X3409D01*
X3412Y-2692D01*
D02*
G37*
%LPC*%
G36*
X3251Y2445D02*
X3251D01*
X3250D01*
X3249D01*
X3248D01*
X3246Y2445D01*
X3243Y2445D01*
X3239Y2444D01*
X3233Y2443D01*
X3227Y2441D01*
X3220Y2439D01*
X3215Y2436D01*
X3214D01*
X3214Y2435D01*
X3212Y2434D01*
X3209Y2432D01*
X3206Y2429D01*
X3203Y2426D01*
X3200Y2421D01*
X3196Y2417D01*
X3194Y2412D01*
X3194Y2411D01*
X3194Y2410D01*
X3193Y2409D01*
X3193Y2407D01*
X3193Y2405D01*
X3192Y2402D01*
X3192Y2399D01*
X3191Y2395D01*
X3191Y2391D01*
X3190Y2386D01*
X3190Y2381D01*
X3189Y2374D01*
Y2368D01*
X3189Y2360D01*
Y2317D01*
X3314D01*
Y2363D01*
X3313Y2367D01*
Y2375D01*
X3313Y2379D01*
X3312Y2388D01*
X3311Y2397D01*
X3311Y2402D01*
X3310Y2405D01*
X3309Y2409D01*
X3308Y2412D01*
Y2412D01*
X3308Y2413D01*
X3307Y2415D01*
X3306Y2417D01*
X3303Y2420D01*
X3301Y2424D01*
X3297Y2428D01*
X3293Y2432D01*
X3288Y2436D01*
X3287D01*
X3287Y2436D01*
X3286Y2437D01*
X3285Y2438D01*
X3282Y2439D01*
X3278Y2441D01*
X3272Y2442D01*
X3266Y2444D01*
X3259Y2445D01*
X3251Y2445D01*
D02*
G37*
G36*
X3367Y1478D02*
X3367D01*
X3366D01*
X3364Y1478D01*
X3361D01*
X3358Y1478D01*
X3355Y1477D01*
X3350Y1477D01*
X3346Y1476D01*
X3337Y1474D01*
X3328Y1471D01*
X3319Y1467D01*
X3315Y1465D01*
X3311Y1462D01*
X3311Y1462D01*
X3310Y1461D01*
X3309Y1460D01*
X3308Y1459D01*
X3305Y1456D01*
X3302Y1452D01*
X3298Y1447D01*
X3295Y1441D01*
X3294Y1437D01*
X3293Y1434D01*
X3293Y1431D01*
X3292Y1427D01*
Y1424D01*
X3293Y1423D01*
X3293Y1421D01*
X3293Y1419D01*
X3295Y1414D01*
X3297Y1408D01*
X3299Y1405D01*
X3301Y1402D01*
X3303Y1399D01*
X3306Y1396D01*
X3309Y1393D01*
X3312Y1390D01*
X3312D01*
X3313Y1389D01*
X3314Y1388D01*
X3316Y1387D01*
X3318Y1386D01*
X3320Y1385D01*
X3323Y1384D01*
X3326Y1382D01*
X3330Y1381D01*
X3334Y1379D01*
X3339Y1378D01*
X3344Y1377D01*
X3349Y1376D01*
X3355Y1375D01*
X3361Y1375D01*
X3367D01*
Y1478D01*
D02*
G37*
G36*
X3424Y601D02*
X3417D01*
X3401D01*
X3401Y600D01*
X3402Y599D01*
X3403Y596D01*
X3403Y593D01*
X3404Y591D01*
X3405Y588D01*
X3406Y585D01*
X3407Y582D01*
X3408Y578D01*
X3409Y574D01*
X3411Y570D01*
X3412Y565D01*
X3413Y560D01*
Y560D01*
X3414Y559D01*
X3414Y557D01*
X3415Y555D01*
X3415Y552D01*
X3416Y549D01*
X3419Y543D01*
X3422Y536D01*
X3425Y529D01*
X3426Y526D01*
X3428Y523D01*
X3430Y520D01*
X3432Y518D01*
X3432Y518D01*
X3434Y517D01*
X3436Y515D01*
X3439Y513D01*
X3443Y512D01*
X3447Y510D01*
X3452Y509D01*
X3458Y508D01*
X3459D01*
X3459D01*
X3460D01*
X3461Y509D01*
X3465Y509D01*
X3469Y510D01*
X3474Y511D01*
X3479Y513D01*
X3484Y516D01*
X3489Y519D01*
X3490Y520D01*
X3491Y521D01*
X3493Y523D01*
X3495Y527D01*
X3497Y531D01*
X3499Y535D01*
X3501Y541D01*
X3501Y547D01*
Y547D01*
X3501Y549D01*
X3501Y552D01*
X3500Y556D01*
X3499Y560D01*
X3497Y565D01*
X3495Y570D01*
X3491Y576D01*
Y576D01*
X3491Y576D01*
X3489Y578D01*
X3487Y580D01*
X3484Y583D01*
X3481Y587D01*
X3477Y590D01*
X3472Y593D01*
X3468Y595D01*
X3467D01*
X3467Y596D01*
X3466Y596D01*
X3465Y596D01*
X3463Y597D01*
X3461Y597D01*
X3459Y598D01*
X3456Y598D01*
X3453Y599D01*
X3449Y599D01*
X3445Y600D01*
X3440Y600D01*
X3436Y600D01*
X3430Y601D01*
X3424Y601D01*
D02*
G37*
G36*
X3396Y321D02*
X3395D01*
X3393D01*
X3390D01*
X3387Y321D01*
X3382Y320D01*
X3377Y320D01*
X3371Y320D01*
X3365Y319D01*
X3352Y317D01*
X3339Y314D01*
X3333Y312D01*
X3327Y310D01*
X3321Y307D01*
X3317Y304D01*
X3316Y304D01*
X3316Y304D01*
X3314Y303D01*
X3313Y301D01*
X3311Y300D01*
X3309Y298D01*
X3304Y293D01*
X3300Y287D01*
X3296Y280D01*
X3295Y276D01*
X3293Y272D01*
X3293Y268D01*
X3292Y263D01*
Y261D01*
X3293Y259D01*
X3293Y257D01*
X3294Y255D01*
X3295Y249D01*
X3297Y246D01*
X3298Y243D01*
X3300Y240D01*
X3302Y236D01*
X3305Y233D01*
X3309Y229D01*
X3312Y226D01*
X3316Y223D01*
X3317Y222D01*
X3317Y222D01*
X3319Y221D01*
X3321Y220D01*
X3323Y219D01*
X3326Y217D01*
X3330Y216D01*
X3334Y215D01*
X3339Y213D01*
X3344Y211D01*
X3350Y210D01*
X3356Y209D01*
X3363Y208D01*
X3371Y207D01*
X3379Y206D01*
X3388Y206D01*
X3388D01*
X3390D01*
X3392D01*
X3395D01*
X3398Y206D01*
X3402D01*
X3407Y207D01*
X3412Y207D01*
X3422Y208D01*
X3433Y209D01*
X3443Y211D01*
X3448Y212D01*
X3452Y213D01*
X3452D01*
X3453Y214D01*
X3454Y214D01*
X3456Y215D01*
X3459Y216D01*
X3464Y219D01*
X3469Y222D01*
X3474Y225D01*
X3479Y229D01*
X3484Y234D01*
X3484Y235D01*
X3485Y236D01*
X3487Y239D01*
X3489Y243D01*
X3491Y248D01*
X3493Y253D01*
X3494Y259D01*
X3494Y265D01*
Y266D01*
X3494Y267D01*
Y269D01*
X3494Y271D01*
X3493Y273D01*
X3491Y278D01*
X3490Y281D01*
X3488Y284D01*
X3486Y287D01*
X3484Y291D01*
X3481Y294D01*
X3478Y298D01*
X3474Y301D01*
X3470Y304D01*
X3470Y304D01*
X3469Y305D01*
X3467Y306D01*
X3465Y307D01*
X3463Y308D01*
X3460Y309D01*
X3456Y311D01*
X3451Y312D01*
X3447Y314D01*
X3441Y316D01*
X3435Y317D01*
X3428Y318D01*
X3421Y319D01*
X3413Y320D01*
X3405Y321D01*
X3396Y321D01*
D02*
G37*
G36*
X3367Y27D02*
X3367D01*
X3366D01*
X3364Y26D01*
X3361D01*
X3358Y26D01*
X3355Y26D01*
X3350Y25D01*
X3346Y24D01*
X3337Y22D01*
X3328Y20D01*
X3319Y16D01*
X3315Y13D01*
X3311Y10D01*
X3311Y10D01*
X3310Y10D01*
X3309Y9D01*
X3308Y8D01*
X3305Y5D01*
X3302Y0D01*
X3298Y-5D01*
X3295Y-11D01*
X3294Y-14D01*
X3293Y-17D01*
X3293Y-21D01*
X3292Y-25D01*
Y-27D01*
X3293Y-28D01*
X3293Y-30D01*
X3293Y-33D01*
X3295Y-38D01*
X3297Y-44D01*
X3299Y-47D01*
X3301Y-50D01*
X3303Y-53D01*
X3306Y-56D01*
X3309Y-59D01*
X3312Y-62D01*
X3312D01*
X3313Y-62D01*
X3314Y-63D01*
X3316Y-64D01*
X3318Y-65D01*
X3320Y-67D01*
X3323Y-68D01*
X3326Y-69D01*
X3330Y-71D01*
X3334Y-72D01*
X3339Y-73D01*
X3344Y-74D01*
X3349Y-75D01*
X3355Y-76D01*
X3361Y-77D01*
X3367D01*
Y27D01*
D02*
G37*
G36*
X3394Y-254D02*
X3393D01*
X3391D01*
X3389D01*
X3385Y-254D01*
X3381Y-255D01*
X3376Y-255D01*
X3371Y-255D01*
X3365Y-256D01*
X3353Y-258D01*
X3341Y-261D01*
X3335Y-263D01*
X3329Y-265D01*
X3324Y-268D01*
X3319Y-271D01*
X3319Y-271D01*
X3318Y-271D01*
X3317Y-272D01*
X3315Y-274D01*
X3313Y-275D01*
X3311Y-277D01*
X3307Y-282D01*
X3302Y-288D01*
X3298Y-295D01*
X3297Y-298D01*
X3296Y-303D01*
X3295Y-307D01*
X3295Y-311D01*
Y-313D01*
X3295Y-315D01*
X3295Y-317D01*
X3296Y-320D01*
X3298Y-326D01*
X3299Y-329D01*
X3300Y-332D01*
X3302Y-336D01*
X3305Y-339D01*
X3307Y-343D01*
X3310Y-346D01*
X3314Y-349D01*
X3318Y-353D01*
X3319Y-353D01*
X3319Y-353D01*
X3321Y-354D01*
X3323Y-355D01*
X3325Y-357D01*
X3328Y-358D01*
X3332Y-360D01*
X3336Y-361D01*
X3341Y-362D01*
X3346Y-364D01*
X3352Y-365D01*
X3358Y-367D01*
X3365Y-368D01*
X3373Y-369D01*
X3380Y-369D01*
X3389Y-369D01*
X3390D01*
X3391D01*
X3394D01*
X3398Y-369D01*
X3402Y-369D01*
X3408Y-368D01*
X3413Y-368D01*
X3419Y-367D01*
X3432Y-365D01*
X3445Y-362D01*
X3452Y-360D01*
X3458Y-358D01*
X3463Y-355D01*
X3469Y-352D01*
X3469Y-352D01*
X3470Y-351D01*
X3471Y-350D01*
X3472Y-349D01*
X3474Y-347D01*
X3477Y-345D01*
X3481Y-340D01*
X3486Y-334D01*
X3490Y-327D01*
X3492Y-323D01*
X3493Y-319D01*
X3494Y-314D01*
X3494Y-310D01*
Y-309D01*
X3494Y-308D01*
Y-306D01*
X3493Y-304D01*
X3493Y-302D01*
X3491Y-296D01*
X3490Y-293D01*
X3488Y-290D01*
X3486Y-287D01*
X3484Y-283D01*
X3481Y-280D01*
X3478Y-277D01*
X3475Y-273D01*
X3471Y-270D01*
X3470Y-270D01*
X3470Y-269D01*
X3468Y-268D01*
X3466Y-268D01*
X3463Y-266D01*
X3460Y-265D01*
X3457Y-264D01*
X3452Y-262D01*
X3447Y-260D01*
X3441Y-259D01*
X3435Y-258D01*
X3428Y-257D01*
X3421Y-256D01*
X3412Y-255D01*
X3403Y-254D01*
X3394Y-254D01*
D02*
G37*
G36*
X3394Y-2039D02*
X3393D01*
X3392D01*
X3390D01*
X3386Y-2039D01*
X3382Y-2039D01*
X3378Y-2040D01*
X3373Y-2040D01*
X3367Y-2041D01*
X3356Y-2043D01*
X3349Y-2045D01*
X3343Y-2047D01*
X3337Y-2049D01*
X3332Y-2051D01*
X3326Y-2055D01*
X3321Y-2058D01*
X3321Y-2058D01*
X3321Y-2059D01*
X3319Y-2060D01*
X3318Y-2061D01*
X3316Y-2063D01*
X3314Y-2065D01*
X3311Y-2068D01*
X3309Y-2071D01*
X3304Y-2077D01*
X3300Y-2085D01*
X3299Y-2089D01*
X3298Y-2094D01*
X3297Y-2098D01*
X3297Y-2103D01*
Y-2106D01*
X3297Y-2108D01*
X3297Y-2110D01*
X3298Y-2112D01*
X3300Y-2119D01*
X3301Y-2122D01*
X3303Y-2125D01*
X3305Y-2129D01*
X3307Y-2133D01*
X3310Y-2137D01*
X3313Y-2141D01*
X3317Y-2144D01*
X3321Y-2148D01*
X3322Y-2148D01*
X3323Y-2149D01*
X3324Y-2150D01*
X3326Y-2151D01*
X3329Y-2152D01*
X3332Y-2154D01*
X3336Y-2155D01*
X3340Y-2157D01*
X3345Y-2159D01*
X3350Y-2161D01*
X3356Y-2162D01*
X3363Y-2164D01*
X3370Y-2165D01*
X3378Y-2166D01*
X3386Y-2166D01*
X3394Y-2166D01*
X3395D01*
X3397D01*
X3399D01*
X3402Y-2166D01*
X3406Y-2166D01*
X3411Y-2166D01*
X3416Y-2165D01*
X3422Y-2164D01*
X3434Y-2162D01*
X3440Y-2160D01*
X3446Y-2158D01*
X3452Y-2156D01*
X3457Y-2154D01*
X3463Y-2151D01*
X3468Y-2148D01*
X3468Y-2147D01*
X3469Y-2147D01*
X3470Y-2146D01*
X3471Y-2144D01*
X3473Y-2143D01*
X3475Y-2140D01*
X3478Y-2138D01*
X3480Y-2135D01*
X3484Y-2128D01*
X3488Y-2120D01*
X3490Y-2116D01*
X3491Y-2112D01*
X3492Y-2107D01*
X3492Y-2102D01*
Y-2101D01*
X3492Y-2100D01*
Y-2098D01*
X3492Y-2096D01*
X3491Y-2093D01*
X3489Y-2087D01*
X3488Y-2084D01*
X3486Y-2080D01*
X3484Y-2076D01*
X3482Y-2073D01*
X3479Y-2069D01*
X3476Y-2065D01*
X3472Y-2061D01*
X3468Y-2058D01*
X3467Y-2057D01*
X3466Y-2057D01*
X3465Y-2056D01*
X3463Y-2055D01*
X3460Y-2053D01*
X3457Y-2052D01*
X3453Y-2050D01*
X3449Y-2048D01*
X3444Y-2047D01*
X3439Y-2045D01*
X3433Y-2043D01*
X3426Y-2042D01*
X3419Y-2040D01*
X3411Y-2039D01*
X3403Y-2039D01*
X3394Y-2039D01*
D02*
G37*
G36*
X3355Y-2493D02*
X3346D01*
X3337D01*
X3337D01*
X3336D01*
X3334D01*
X3333D01*
X3330D01*
X3328D01*
X3324D01*
X3321Y-2493D01*
X3317D01*
X3313D01*
X3304Y-2494D01*
X3294Y-2494D01*
X3284Y-2495D01*
X3262Y-2496D01*
X3252Y-2497D01*
X3241Y-2498D01*
X3232Y-2500D01*
X3223Y-2501D01*
X3219Y-2502D01*
X3216Y-2503D01*
X3213Y-2504D01*
X3210Y-2505D01*
X3210D01*
X3209Y-2506D01*
X3207Y-2507D01*
X3206Y-2508D01*
X3201Y-2510D01*
X3196Y-2514D01*
X3192Y-2519D01*
X3187Y-2524D01*
X3185Y-2527D01*
X3184Y-2531D01*
X3183Y-2534D01*
X3183Y-2538D01*
Y-2539D01*
X3183Y-2540D01*
Y-2541D01*
X3184Y-2545D01*
X3186Y-2550D01*
X3188Y-2552D01*
X3189Y-2555D01*
X3192Y-2558D01*
X3194Y-2560D01*
X3197Y-2563D01*
X3201Y-2566D01*
X3205Y-2569D01*
X3210Y-2571D01*
X3210D01*
X3211Y-2571D01*
X3213Y-2572D01*
X3216Y-2573D01*
X3219Y-2574D01*
X3224Y-2575D01*
X3229Y-2576D01*
X3236Y-2577D01*
X3244Y-2578D01*
X3248Y-2579D01*
X3253Y-2579D01*
X3258Y-2580D01*
X3263Y-2580D01*
X3269Y-2581D01*
X3275Y-2581D01*
X3281Y-2581D01*
X3288Y-2582D01*
X3295Y-2582D01*
X3303D01*
X3311Y-2582D01*
X3319Y-2583D01*
X3328D01*
X3337D01*
X3337D01*
X3338D01*
X3340D01*
X3341D01*
X3344D01*
X3346D01*
X3350D01*
X3353Y-2582D01*
X3357D01*
X3361D01*
X3370Y-2582D01*
X3380Y-2582D01*
X3390Y-2581D01*
X3412Y-2580D01*
X3423Y-2579D01*
X3433Y-2578D01*
X3443Y-2576D01*
X3451Y-2575D01*
X3455Y-2574D01*
X3459Y-2573D01*
X3462Y-2572D01*
X3464Y-2571D01*
X3465D01*
X3465Y-2570D01*
X3467Y-2570D01*
X3469Y-2569D01*
X3473Y-2566D01*
X3478Y-2562D01*
X3483Y-2558D01*
X3487Y-2552D01*
X3488Y-2549D01*
X3490Y-2545D01*
X3491Y-2542D01*
X3491Y-2538D01*
Y-2537D01*
X3491Y-2536D01*
Y-2535D01*
X3490Y-2531D01*
X3488Y-2526D01*
X3486Y-2524D01*
X3484Y-2521D01*
X3482Y-2518D01*
X3480Y-2515D01*
X3476Y-2513D01*
X3473Y-2510D01*
X3469Y-2508D01*
X3464Y-2505D01*
X3464D01*
X3463Y-2505D01*
X3461Y-2504D01*
X3458Y-2503D01*
X3455Y-2502D01*
X3450Y-2501D01*
X3445Y-2501D01*
X3438Y-2499D01*
X3430Y-2498D01*
X3426Y-2498D01*
X3421Y-2497D01*
X3416Y-2496D01*
X3411Y-2496D01*
X3405Y-2495D01*
X3399Y-2495D01*
X3393Y-2495D01*
X3386Y-2494D01*
X3379Y-2494D01*
X3371D01*
X3363Y-2493D01*
X3355Y-2493D01*
D02*
G37*
%LPD*%
D116*
X3677Y-4367D02*
G03*
X4371Y-3672I-3677J4367D01*
G01*
X4618Y-3356D02*
G03*
X5655Y-781I-4618J3356D01*
G01*
X5690Y-461D02*
G03*
X5703Y-250I-5690J461D01*
G01*
Y250D02*
G03*
X5690Y461I-5703J-250D01*
G01*
X5655Y781D02*
G03*
X4618Y3356I-5655J-781D01*
G01*
X4371Y3672D02*
G03*
X3677Y4367I-4371J-3672D01*
G01*
X3991Y0D02*
X4484D01*
X4807D02*
X4961D01*
M02*
