G04*
G04 #@! TF.GenerationSoftware,Altium Limited,Altium Designer,25.8.1 (18)*
G04*
G04 Layer_Color=32896*
%FSLAX24Y24*%
%MOIN*%
G70*
G04*
G04 #@! TF.SameCoordinates,642ECA59-74B0-4D39-AD16-73E6623B2992*
G04*
G04*
G04 #@! TF.FilePolarity,Positive*
G04*
G01*
G75*
%ADD16C,0.0039*%
%ADD142C,0.0050*%
%ADD145C,0.0020*%
D16*
X-3445Y4724D02*
G03*
X-3445Y4724I-197J0D01*
G01*
X-3346D02*
G03*
X-3346Y4724I-295J0D01*
G01*
X-3445Y3937D02*
G03*
X-3445Y3937I-197J0D01*
G01*
X-3346D02*
G03*
X-3346Y3937I-295J0D01*
G01*
X-4232Y2756D02*
G03*
X-4232Y2756I-197J0D01*
G01*
X-4134D02*
G03*
X-4134Y2756I-295J0D01*
G01*
X-3445Y3150D02*
G03*
X-3445Y3150I-197J0D01*
G01*
X-3346D02*
G03*
X-3346Y3150I-295J0D01*
G01*
X-3445Y2362D02*
G03*
X-3445Y2362I-197J0D01*
G01*
X-3346D02*
G03*
X-3346Y2362I-295J0D01*
G01*
X-3445Y1575D02*
G03*
X-3445Y1575I-197J0D01*
G01*
X-3346D02*
G03*
X-3346Y1575I-295J0D01*
G01*
X-3445Y787D02*
G03*
X-3445Y787I-197J0D01*
G01*
X-3346D02*
G03*
X-3346Y787I-295J0D01*
G01*
X-3445Y0D02*
G03*
X-3445Y0I-197J0D01*
G01*
X-3346D02*
G03*
X-3346Y0I-295J0D01*
G01*
X-3445Y-787D02*
G03*
X-3445Y-787I-197J0D01*
G01*
X-3346D02*
G03*
X-3346Y-787I-295J0D01*
G01*
X-3445Y-1575D02*
G03*
X-3445Y-1575I-197J0D01*
G01*
X-3346D02*
G03*
X-3346Y-1575I-295J0D01*
G01*
X-3445Y-2362D02*
G03*
X-3445Y-2362I-197J0D01*
G01*
X-3346D02*
G03*
X-3346Y-2362I-295J0D01*
G01*
X-4232Y-2756D02*
G03*
X-4232Y-2756I-197J0D01*
G01*
X-4134D02*
G03*
X-4134Y-2756I-295J0D01*
G01*
X-3445Y-3150D02*
G03*
X-3445Y-3150I-197J0D01*
G01*
X-3346D02*
G03*
X-3346Y-3150I-295J0D01*
G01*
Y-3937D02*
G03*
X-3346Y-3937I-295J0D01*
G01*
X-3445D02*
G03*
X-3445Y-3937I-197J0D01*
G01*
X-3480Y-4843D02*
G03*
X-3480Y-4843I-295J0D01*
G01*
X-3598D02*
G03*
X-3598Y-4843I-177J0D01*
G01*
X-2598D02*
G03*
X-2598Y-4843I-177J0D01*
G01*
X-2480D02*
G03*
X-2480Y-4843I-295J0D01*
G01*
X-1598D02*
G03*
X-1598Y-4843I-177J0D01*
G01*
X234Y4911D02*
G03*
X234Y4911I-234J0D01*
G01*
X1701Y-2319D02*
G03*
X1697Y-2328I475J-221D01*
G01*
X1705Y-2309D02*
G03*
X1701Y-2319I466J-228D01*
G01*
X1710Y-2300D02*
G03*
X1705Y-2309I456J-235D01*
G01*
X1715Y-2290D02*
G03*
X1710Y-2300I446J-242D01*
G01*
X1722Y-2278D02*
G03*
X1715Y-2290I435J-251D01*
G01*
X1729Y-2266D02*
G03*
X1722Y-2278I423J-261D01*
G01*
X1738Y-2253D02*
G03*
X1729Y-2266I410J-271D01*
G01*
X1748Y-2238D02*
G03*
X1738Y-2253I395J-283D01*
G01*
X1762Y-2220D02*
G03*
X1748Y-2238I377J-298D01*
G01*
X1783Y-2195D02*
G03*
X1762Y-2220I352J-320D01*
G01*
X1888Y-2108D02*
G03*
X1783Y-2195I245J-405D01*
G01*
X1916Y-2092D02*
G03*
X1888Y-2108I221J-428D01*
G01*
X1942Y-2080D02*
G03*
X1916Y-2092I197J-444D01*
G01*
X1969Y-2069D02*
G03*
X1942Y-2080I172J-460D01*
G01*
X1997Y-2060D02*
G03*
X1969Y-2069I146J-474D01*
G01*
X2029Y-2051D02*
G03*
X1997Y-2060I115J-488D01*
G01*
X2074Y-2042D02*
G03*
X2029Y-2051I72J-501D01*
G01*
X2240Y-2046D02*
G03*
X2074Y-2042I-93J-502D01*
G01*
X2271Y-2053D02*
G03*
X2240Y-2046I-123J-486D01*
G01*
X2298Y-2060D02*
G03*
X2271Y-2053I-149J-473D01*
G01*
X2323Y-2069D02*
G03*
X2298Y-2060I-172J-460D01*
G01*
X2347Y-2079D02*
G03*
X2323Y-2069I-195J-445D01*
G01*
X2370Y-2090D02*
G03*
X2347Y-2079I-216J-430D01*
G01*
X2396Y-2103D02*
G03*
X2370Y-2090I-239J-412D01*
G01*
X2424Y-2121D02*
G03*
X2396Y-2103I-265J-389D01*
G01*
X2532Y-2224D02*
G03*
X2424Y-2121I-370J-283D01*
G01*
X2544Y-2240D02*
G03*
X2532Y-2224I-390J-273D01*
G01*
X2553Y-2254D02*
G03*
X2544Y-2240I-403J-262D01*
G01*
X2561Y-2266D02*
G03*
X2553Y-2254I-415J-253D01*
G01*
X2567Y-2277D02*
G03*
X2561Y-2266I-426J-244D01*
G01*
X2573Y-2287D02*
G03*
X2567Y-2277I-436J-237D01*
G01*
X2579Y-2297D02*
G03*
X2573Y-2287I-446J-229D01*
G01*
X2583Y-2306D02*
G03*
X2579Y-2297I-456J-222D01*
G01*
X2588Y-2316D02*
G03*
X2583Y-2306I-465J-215D01*
G01*
X2592Y-2325D02*
G03*
X2588Y-2316I-475J-208D01*
G01*
X2581Y2403D02*
G03*
X2586Y2412I-465J233D01*
G01*
X2576Y2394D02*
G03*
X2581Y2403I-456J240D01*
G01*
X2571Y2384D02*
G03*
X2576Y2394I-445J247D01*
G01*
X2565Y2374D02*
G03*
X2571Y2384I-435J255D01*
G01*
X2559Y2363D02*
G03*
X2565Y2374I-424J263D01*
G01*
X2551Y2351D02*
G03*
X2559Y2363I-411J272D01*
G01*
X2542Y2338D02*
G03*
X2551Y2351I-398J282D01*
G01*
X2531Y2323D02*
G03*
X2542Y2338I-383J294D01*
G01*
X2518Y2306D02*
G03*
X2531Y2323I-366J308D01*
G01*
X2496Y2282D02*
G03*
X2518Y2306I-340J329D01*
G01*
X2383Y2196D02*
G03*
X2496Y2282I-224J413D01*
G01*
X2352Y2181D02*
G03*
X2383Y2196I-199J435D01*
G01*
X2324Y2169D02*
G03*
X2352Y2181I-172J452D01*
G01*
X2295Y2159D02*
G03*
X2324Y2169I-145J467D01*
G01*
X2263Y2150D02*
G03*
X2295Y2159I-114J480D01*
G01*
X2224Y2143D02*
G03*
X2263Y2150I-76J493D01*
G01*
X2148Y2137D02*
G03*
X2224Y2143I-2J504D01*
G01*
X2040Y2148D02*
G03*
X2148Y2137I106J494D01*
G01*
X2000Y2158D02*
G03*
X2040Y2148I145J477D01*
G01*
X1966Y2170D02*
G03*
X2000Y2158I177J461D01*
G01*
X1934Y2184D02*
G03*
X1966Y2170I208J442D01*
G01*
X1901Y2201D02*
G03*
X1934Y2184I239J420D01*
G01*
X1856Y2230D02*
G03*
X1901Y2201I282J387D01*
G01*
X1776Y2304D02*
G03*
X1856Y2230I360J312D01*
G01*
X1760Y2323D02*
G03*
X1776Y2304I382J297D01*
G01*
X1748Y2338D02*
G03*
X1760Y2323I397J285D01*
G01*
X1738Y2352D02*
G03*
X1748Y2338I411J274D01*
G01*
X1731Y2364D02*
G03*
X1738Y2352I423J265D01*
G01*
X1724Y2375D02*
G03*
X1731Y2364I434J256D01*
G01*
X1718Y2387D02*
G03*
X1724Y2375I445J248D01*
G01*
X1712Y2397D02*
G03*
X1718Y2387I456J240D01*
G01*
X1707Y2407D02*
G03*
X1712Y2397I466J232D01*
G01*
X1702Y2417D02*
G03*
X1707Y2407I476J226D01*
G01*
X1698Y2426D02*
G03*
X1702Y2417I486J219D01*
G01*
X-2587Y-2312D02*
G03*
X-2591Y-2321I484J-238D01*
G01*
X-2582Y-2302D02*
G03*
X-2587Y-2312I474J-245D01*
G01*
X-2577Y-2293D02*
G03*
X-2582Y-2302I464J-251D01*
G01*
X-2572Y-2283D02*
G03*
X-2577Y-2293I454J-259D01*
G01*
X-2566Y-2273D02*
G03*
X-2572Y-2283I443J-266D01*
G01*
X-2559Y-2262D02*
G03*
X-2566Y-2273I431J-274D01*
G01*
X-2551Y-2250D02*
G03*
X-2559Y-2262I419J-283D01*
G01*
X-2542Y-2237D02*
G03*
X-2551Y-2250I405J-293D01*
G01*
X-2532Y-2224D02*
G03*
X-2542Y-2237I391J-304D01*
G01*
X-2520Y-2209D02*
G03*
X-2532Y-2224I375J-316D01*
G01*
X-2503Y-2189D02*
G03*
X-2520Y-2209I354J-332D01*
G01*
X-2472Y-2159D02*
G03*
X-2503Y-2189I319J-359D01*
G01*
X-2362Y-2086D02*
G03*
X-2472Y-2159I208J-430D01*
G01*
X-2323Y-2069D02*
G03*
X-2362Y-2086I173J-453D01*
G01*
X-2284Y-2056D02*
G03*
X-2323Y-2069I135J-471D01*
G01*
X-2237Y-2045D02*
G03*
X-2284Y-2056I89J-487D01*
G01*
X-2008Y-2056D02*
G03*
X-2237Y-2045I-139J-481D01*
G01*
X-1969Y-2070D02*
G03*
X-2008Y-2056I-176J-458D01*
G01*
X-1929Y-2087D02*
G03*
X-1969Y-2070I-213J-436D01*
G01*
X-1879Y-2115D02*
G03*
X-1929Y-2087I-261J-403D01*
G01*
X-1790Y-2189D02*
G03*
X-1879Y-2115I-349J-327D01*
G01*
X-1773Y-2209D02*
G03*
X-1790Y-2189I-371J-313D01*
G01*
X-1760Y-2225D02*
G03*
X-1773Y-2209I-388J-300D01*
G01*
X-1750Y-2238D02*
G03*
X-1760Y-2225I-402J-289D01*
G01*
X-1741Y-2251D02*
G03*
X-1750Y-2238I-416J-280D01*
G01*
X-1733Y-2263D02*
G03*
X-1741Y-2251I-428J-271D01*
G01*
X-1726Y-2274D02*
G03*
X-1733Y-2263I-439J-263D01*
G01*
X-1721Y-2284D02*
G03*
X-1726Y-2274I-450J-255D01*
G01*
X-1715Y-2295D02*
G03*
X-1721Y-2284I-461J-248D01*
G01*
X-1710Y-2304D02*
G03*
X-1715Y-2295I-470J-242D01*
G01*
X-1705Y-2313D02*
G03*
X-1710Y-2304I-480J-235D01*
G01*
X-1701Y-2322D02*
G03*
X-1705Y-2313I-490J-228D01*
G01*
X-1713Y2399D02*
G03*
X-1708Y2408I-483J257D01*
G01*
X-1718Y2390D02*
G03*
X-1713Y2399I-473J263D01*
G01*
X-1723Y2381D02*
G03*
X-1718Y2390I-463J269D01*
G01*
X-1729Y2371D02*
G03*
X-1723Y2381I-452J276D01*
G01*
X-1735Y2362D02*
G03*
X-1729Y2371I-441J283D01*
G01*
X-1742Y2351D02*
G03*
X-1735Y2362I-429J291D01*
G01*
X-1750Y2339D02*
G03*
X-1742Y2351I-417J299D01*
G01*
X-1760Y2327D02*
G03*
X-1750Y2339I-403J309D01*
G01*
X-1770Y2314D02*
G03*
X-1760Y2327I-388J318D01*
G01*
X-1783Y2299D02*
G03*
X-1770Y2314I-372J330D01*
G01*
X-1798Y2282D02*
G03*
X-1783Y2299I-352J343D01*
G01*
X-1821Y2260D02*
G03*
X-1798Y2282I-326J361D01*
G01*
X-2032Y2149D02*
G03*
X-1821Y2260I-112J469D01*
G01*
X-2313Y2165D02*
G03*
X-2032Y2149I167J463D01*
G01*
X-2384Y2197D02*
G03*
X-2313Y2165I235J421D01*
G01*
X-2476Y2264D02*
G03*
X-2384Y2197I326J353D01*
G01*
X-2497Y2285D02*
G03*
X-2476Y2264I351J337D01*
G01*
X-2512Y2301D02*
G03*
X-2497Y2285I370J325D01*
G01*
X-2524Y2314D02*
G03*
X-2512Y2301I385J314D01*
G01*
X-2534Y2328D02*
G03*
X-2524Y2314I400J305D01*
G01*
X-2543Y2340D02*
G03*
X-2534Y2328I413J295D01*
G01*
X-2551Y2352D02*
G03*
X-2543Y2340I426J287D01*
G01*
X-2558Y2362D02*
G03*
X-2551Y2352I438J280D01*
G01*
X-2565Y2372D02*
G03*
X-2558Y2362I449J273D01*
G01*
X-2570Y2382D02*
G03*
X-2565Y2372I460J266D01*
G01*
X-2576Y2391D02*
G03*
X-2570Y2382I470J260D01*
G01*
X-2580Y2400D02*
G03*
X-2576Y2391I480J253D01*
G01*
X-2585Y2410D02*
G03*
X-2580Y2400I490J247D01*
G01*
X2838Y1415D02*
G03*
X2470Y2000I-2746J-1320D01*
G01*
X2947Y1160D02*
G03*
X2838Y1415I-2891J-1083D01*
G01*
X3030Y905D02*
G03*
X2947Y1160I-3004J-839D01*
G01*
X3098Y608D02*
G03*
X3030Y905I-3103J-551D01*
G01*
X2981Y-963D02*
G03*
X3098Y608I-3021J1014D01*
G01*
X2876Y-1233D02*
G03*
X2981Y-963I-2851J1266D01*
G01*
X2720Y-1538D02*
G03*
X2876Y-1233I-2665J1558D01*
G01*
X2470Y-1902D02*
G03*
X2720Y-1538I-2394J1909D01*
G01*
X1563Y3857D02*
G03*
X1556Y3866I-343J-280D01*
G01*
X1587Y3825D02*
G03*
X1563Y3857I-369J-250D01*
G01*
X-1584Y3829D02*
G03*
X-1588Y3823I355J-247D01*
G01*
X-1578Y3837D02*
G03*
X-1584Y3829I353J-258D01*
G01*
X-1543Y3880D02*
G03*
X-1578Y3837I322J-303D01*
G01*
X-1438Y-3861D02*
G03*
X-1432Y-3864I151J303D01*
G01*
X-1444Y-3858D02*
G03*
X-1438Y-3861I158J303D01*
G01*
X-1450Y-3855D02*
G03*
X-1444Y-3858I165J303D01*
G01*
X-1456Y-3851D02*
G03*
X-1450Y-3855I173J303D01*
G01*
X-1462Y-3848D02*
G03*
X-1456Y-3851I181J303D01*
G01*
X-1468Y-3845D02*
G03*
X-1462Y-3848I189J303D01*
G01*
X-1474Y-3841D02*
G03*
X-1468Y-3845I197J302D01*
G01*
X-1480Y-3837D02*
G03*
X-1474Y-3841I205J301D01*
G01*
X-1486Y-3832D02*
G03*
X-1480Y-3837I213J300D01*
G01*
X-1492Y-3828D02*
G03*
X-1486Y-3832I222J299D01*
G01*
X-1499Y-3823D02*
G03*
X-1492Y-3828I231J297D01*
G01*
X-1506Y-3817D02*
G03*
X-1499Y-3823I240J294D01*
G01*
X-1512Y-3812D02*
G03*
X-1506Y-3817I249J292D01*
G01*
X-1520Y-3805D02*
G03*
X-1512Y-3812I259J288D01*
G01*
X-1528Y-3797D02*
G03*
X-1520Y-3805I270J283D01*
G01*
X-1538Y-3788D02*
G03*
X-1528Y-3797I282J277D01*
G01*
X-1549Y-3776D02*
G03*
X-1538Y-3788I296J268D01*
G01*
X-1567Y-3755D02*
G03*
X-1549Y-3776I317J250D01*
G01*
X-1600Y-3705D02*
G03*
X-1567Y-3755I352J201D01*
G01*
X-1608Y-3691D02*
G03*
X-1600Y-3705I355J184D01*
G01*
X-1614Y-3680D02*
G03*
X-1608Y-3691I357J171D01*
G01*
X-1618Y-3670D02*
G03*
X-1614Y-3680I358J159D01*
G01*
X-1622Y-3661D02*
G03*
X-1618Y-3670I358J148D01*
G01*
X-1625Y-3652D02*
G03*
X-1622Y-3661I358J138D01*
G01*
X-1628Y-3644D02*
G03*
X-1625Y-3652I357J129D01*
G01*
X-1631Y-3637D02*
G03*
X-1628Y-3644I356J120D01*
G01*
X-1633Y-3629D02*
G03*
X-1631Y-3637I355J112D01*
G01*
X-1636Y-3622D02*
G03*
X-1633Y-3629I354J103D01*
G01*
X-1638Y-3615D02*
G03*
X-1636Y-3622I352J95D01*
G01*
X-1639Y-3609D02*
G03*
X-1638Y-3615I350J88D01*
G01*
X-1641Y-3602D02*
G03*
X-1639Y-3609I348J80D01*
G01*
X-1642Y-3595D02*
G03*
X-1641Y-3602I346J73D01*
G01*
X-1644Y-3589D02*
G03*
X-1642Y-3595I344J66D01*
G01*
X1614Y-3679D02*
G03*
X1617Y-3672I-358J171D01*
G01*
X1610Y-3686D02*
G03*
X1614Y-3679I-358J180D01*
G01*
X1606Y-3695D02*
G03*
X1610Y-3686I-357J190D01*
G01*
X1600Y-3706D02*
G03*
X1606Y-3695I-355J203D01*
G01*
X1561Y-3762D02*
G03*
X1600Y-3706I-320J262D01*
G01*
X1555Y-3769D02*
G03*
X1561Y-3762I-307J264D01*
G01*
X1550Y-3775D02*
G03*
X1555Y-3769I-299J267D01*
G01*
X1545Y-3781D02*
G03*
X1550Y-3775I-291J270D01*
G01*
X697Y-2047D02*
G03*
X704Y-2032I-743J346D01*
G01*
X690Y-2062D02*
G03*
X697Y-2047I-727J357D01*
G01*
X682Y-2076D02*
G03*
X690Y-2062I-712J368D01*
G01*
X674Y-2093D02*
G03*
X682Y-2076I-696J380D01*
G01*
X663Y-2111D02*
G03*
X674Y-2093I-678J394D01*
G01*
X653Y-2129D02*
G03*
X663Y-2111I-661J408D01*
G01*
X639Y-2150D02*
G03*
X653Y-2129I-640J425D01*
G01*
X624Y-2172D02*
G03*
X639Y-2150I-618J443D01*
G01*
X603Y-2200D02*
G03*
X624Y-2172I-591J466D01*
G01*
X568Y-2241D02*
G03*
X603Y-2200I-550J502D01*
G01*
X412Y-2371D02*
G03*
X568Y-2241I-390J629D01*
G01*
X368Y-2396D02*
G03*
X412Y-2371I-353J665D01*
G01*
X329Y-2415D02*
G03*
X368Y-2396I-318J691D01*
G01*
X289Y-2432D02*
G03*
X329Y-2415I-281J715D01*
G01*
X248Y-2447D02*
G03*
X289Y-2432I-243J738D01*
G01*
X202Y-2461D02*
G03*
X248Y-2447I-200J759D01*
G01*
X146Y-2473D02*
G03*
X202Y-2461I-146J779D01*
G01*
X50Y-2485D02*
G03*
X146Y-2473I-51J800D01*
G01*
X-131Y-2477D02*
G03*
X50Y-2485I129J794D01*
G01*
X-185Y-2466D02*
G03*
X-131Y-2477I182J772D01*
G01*
X-229Y-2454D02*
G03*
X-185Y-2466I224J752D01*
G01*
X-268Y-2441D02*
G03*
X-229Y-2454I261J732D01*
G01*
X-305Y-2427D02*
G03*
X-268Y-2441I295J711D01*
G01*
X-341Y-2411D02*
G03*
X-305Y-2427I328J687D01*
G01*
X-378Y-2392D02*
G03*
X-341Y-2411I362J662D01*
G01*
X-419Y-2368D02*
G03*
X-378Y-2392I400J630D01*
G01*
X-473Y-2330D02*
G03*
X-419Y-2368I449J587D01*
G01*
X-602Y-2204D02*
G03*
X-473Y-2330I575J456D01*
G01*
X-623Y-2176D02*
G03*
X-602Y-2204I606J436D01*
G01*
X-640Y-2152D02*
G03*
X-623Y-2176I629J417D01*
G01*
X-653Y-2131D02*
G03*
X-640Y-2152I649J400D01*
G01*
X-664Y-2113D02*
G03*
X-653Y-2131I667J387D01*
G01*
X-674Y-2095D02*
G03*
X-664Y-2113I684J373D01*
G01*
X-682Y-2079D02*
G03*
X-674Y-2095I700J361D01*
G01*
X-690Y-2064D02*
G03*
X-682Y-2079I715J350D01*
G01*
X-697Y-2049D02*
G03*
X-690Y-2064I730J339D01*
G01*
X-704Y-2034D02*
G03*
X-697Y-2049I745J328D01*
G01*
X-709Y-2021D02*
G03*
X-704Y-2034I759J318D01*
G01*
X-164Y3312D02*
G03*
X-166Y3309I172J-93D01*
G01*
X-162Y3316D02*
G03*
X-164Y3312I168J-95D01*
G01*
X-160Y3319D02*
G03*
X-162Y3316I165J-98D01*
G01*
X-158Y3323D02*
G03*
X-160Y3319I160J-101D01*
G01*
X-156Y3327D02*
G03*
X-158Y3323I156J-103D01*
G01*
X-153Y3331D02*
G03*
X-156Y3327I152J-106D01*
G01*
X-150Y3335D02*
G03*
X-153Y3331I147J-110D01*
G01*
X-146Y3340D02*
G03*
X-150Y3335I142J-114D01*
G01*
X-141Y3346D02*
G03*
X-146Y3340I135J-118D01*
G01*
X-133Y3355D02*
G03*
X-141Y3346I126J-126D01*
G01*
X-96Y3383D02*
G03*
X-133Y3355I88J-153D01*
G01*
X-87Y3388D02*
G03*
X-96Y3383I81J-161D01*
G01*
X-79Y3392D02*
G03*
X-87Y3388I73J-166D01*
G01*
X-71Y3395D02*
G03*
X-79Y3392I66J-171D01*
G01*
X-63Y3398D02*
G03*
X-71Y3395I59J-176D01*
G01*
X-55Y3400D02*
G03*
X-63Y3398I52J-180D01*
G01*
X-46Y3403D02*
G03*
X-55Y3400I44J-184D01*
G01*
X-37Y3405D02*
G03*
X-46Y3403I35J-188D01*
G01*
X-26Y3406D02*
G03*
X-37Y3405I25J-192D01*
G01*
X-12Y3408D02*
G03*
X-26Y3406I11J-195D01*
G01*
X48Y3402D02*
G03*
X-12Y3408I-50J-191D01*
G01*
X58Y3399D02*
G03*
X48Y3402I-59J-184D01*
G01*
X66Y3396D02*
G03*
X58Y3399I-66J-180D01*
G01*
X74Y3393D02*
G03*
X66Y3396I-73J-175D01*
G01*
X80Y3390D02*
G03*
X74Y3393I-79J-170D01*
G01*
X87Y3387D02*
G03*
X80Y3390I-84J-165D01*
G01*
X93Y3384D02*
G03*
X87Y3387I-90J-160D01*
G01*
X99Y3380D02*
G03*
X93Y3384I-95J-155D01*
G01*
X104Y3377D02*
G03*
X99Y3380I-99J-150D01*
G01*
X110Y3372D02*
G03*
X104Y3377I-104J-144D01*
G01*
X117Y3368D02*
G03*
X110Y3372I-110J-138D01*
G01*
X123Y3362D02*
G03*
X117Y3368I-115J-131D01*
G01*
X131Y3355D02*
G03*
X123Y3362I-121J-123D01*
G01*
X162Y3314D02*
G03*
X131Y3355I-151J-80D01*
G01*
X165Y3307D02*
G03*
X162Y3314I-157J-75D01*
G01*
X167Y3302D02*
G03*
X165Y3307I-162J-71D01*
G01*
X169Y3298D02*
G03*
X167Y3302I-165J-67D01*
G01*
X171Y3294D02*
G03*
X169Y3298I-168J-64D01*
G01*
X172Y3289D02*
G03*
X171Y3294I-172J-61D01*
G01*
X173Y3286D02*
G03*
X172Y3289I-175J-58D01*
G01*
X175Y3282D02*
G03*
X173Y3286I-178J-54D01*
G01*
X176Y3279D02*
G03*
X175Y3282I-181J-52D01*
G01*
X176Y3276D02*
G03*
X176Y3279I-184J-49D01*
G01*
X177Y3272D02*
G03*
X176Y3276I-187J-46D01*
G01*
X178Y3269D02*
G03*
X177Y3272I-190J-44D01*
G01*
X-265Y2004D02*
G03*
X-263Y2009I-248J117D01*
G01*
X-267Y1999D02*
G03*
X-265Y2004I-243J121D01*
G01*
X-270Y1995D02*
G03*
X-267Y1999I-238J124D01*
G01*
X-272Y1990D02*
G03*
X-270Y1995I-233J128D01*
G01*
X-275Y1985D02*
G03*
X-272Y1990I-227J131D01*
G01*
X-278Y1979D02*
G03*
X-275Y1985I-222J136D01*
G01*
X-282Y1973D02*
G03*
X-278Y1979I-216J140D01*
G01*
X-286Y1967D02*
G03*
X-282Y1973I-209J145D01*
G01*
X-292Y1960D02*
G03*
X-286Y1967I-202J151D01*
G01*
X-298Y1952D02*
G03*
X-292Y1960I-193J157D01*
G01*
X-307Y1941D02*
G03*
X-298Y1952I-182J166D01*
G01*
X-374Y1890D02*
G03*
X-307Y1941I-114J216D01*
G01*
X-388Y1883D02*
G03*
X-374Y1890I-102J227D01*
G01*
X-401Y1877D02*
G03*
X-388Y1883I-89J235D01*
G01*
X-416Y1872D02*
G03*
X-401Y1877I-76J243D01*
G01*
X-431Y1868D02*
G03*
X-416Y1872I-62J250D01*
G01*
X-449Y1864D02*
G03*
X-431Y1868I-44J256D01*
G01*
X-476Y1861D02*
G03*
X-449Y1864I-18J262D01*
G01*
X-553Y1867D02*
G03*
X-476Y1861I59J257D01*
G01*
X-572Y1872D02*
G03*
X-553Y1867I77J248D01*
G01*
X-587Y1877D02*
G03*
X-572Y1872I92J240D01*
G01*
X-601Y1883D02*
G03*
X-587Y1877I105J232D01*
G01*
X-616Y1890D02*
G03*
X-601Y1883I118J222D01*
G01*
X-631Y1899D02*
G03*
X-616Y1890I132J212D01*
G01*
X-651Y1913D02*
G03*
X-631Y1899I151J195D01*
G01*
X-692Y1954D02*
G03*
X-651Y1913I191J154D01*
G01*
X-700Y1963D02*
G03*
X-692Y1954I202J146D01*
G01*
X-705Y1971D02*
G03*
X-700Y1963I210J140D01*
G01*
X-710Y1978D02*
G03*
X-705Y1971I216J134D01*
G01*
X-714Y1985D02*
G03*
X-710Y1978I223J129D01*
G01*
X-717Y1991D02*
G03*
X-714Y1985I228J125D01*
G01*
X-720Y1997D02*
G03*
X-717Y1991I234J120D01*
G01*
X-723Y2002D02*
G03*
X-720Y1997I239J116D01*
G01*
X-725Y2007D02*
G03*
X-723Y2002I244J112D01*
G01*
X-727Y2012D02*
G03*
X-725Y2007I249J109D01*
G01*
X-729Y2017D02*
G03*
X-727Y2012I254J105D01*
G01*
X-731Y2021D02*
G03*
X-729Y2017I259J102D01*
G01*
X-543Y1999D02*
G03*
X-541Y1998I57J72D01*
G01*
X-544Y2000D02*
G03*
X-543Y1999I58J70D01*
G01*
X-545Y2001D02*
G03*
X-544Y2000I59J68D01*
G01*
X-547Y2002D02*
G03*
X-545Y2001I59J67D01*
G01*
X-548Y2003D02*
G03*
X-547Y2002I60J65D01*
G01*
X-549Y2005D02*
G03*
X-548Y2003I61J63D01*
G01*
X-550Y2006D02*
G03*
X-549Y2005I61J61D01*
G01*
X-552Y2007D02*
G03*
X-550Y2006I62J59D01*
G01*
X-553Y2008D02*
G03*
X-552Y2007I62J57D01*
G01*
X-554Y2010D02*
G03*
X-553Y2008I63J55D01*
G01*
X-555Y2011D02*
G03*
X-554Y2010I64J53D01*
G01*
X-557Y2013D02*
G03*
X-555Y2011I64J51D01*
G01*
X-558Y2014D02*
G03*
X-557Y2013I65J49D01*
G01*
X-559Y2016D02*
G03*
X-558Y2014I65J47D01*
G01*
X-560Y2017D02*
G03*
X-559Y2016I66J45D01*
G01*
X-561Y2019D02*
G03*
X-560Y2017I66J43D01*
G01*
X-562Y2021D02*
G03*
X-561Y2019I67J41D01*
G01*
X-563Y2023D02*
G03*
X-562Y2021I67J38D01*
G01*
X-565Y2025D02*
G03*
X-563Y2023I67J36D01*
G01*
X-566Y2027D02*
G03*
X-564Y2025I68J34D01*
G01*
X-567Y2029D02*
G03*
X-566Y2027I68J31D01*
G01*
X-568Y2031D02*
G03*
X-567Y2029I69J28D01*
G01*
X-569Y2034D02*
G03*
X-568Y2031I69J25D01*
G01*
X-570Y2037D02*
G03*
X-569Y2034I69J22D01*
G01*
X-571Y2041D02*
G03*
X-570Y2037I70J18D01*
G01*
X-572Y2046D02*
G03*
X-571Y2041I70J13D01*
G01*
X-573Y2068D02*
G03*
X-572Y2046I70J-9D01*
G01*
X-572Y2071D02*
G03*
X-573Y2068I71J-12D01*
G01*
X-572Y2074D02*
G03*
X-572Y2071I71J-15D01*
G01*
X-571Y2076D02*
G03*
X-572Y2074I71J-18D01*
G01*
X-570Y2078D02*
G03*
X-571Y2076I71J-20D01*
G01*
X-570Y2080D02*
G03*
X-570Y2078I72J-22D01*
G01*
X-569Y2082D02*
G03*
X-570Y2080I72J-24D01*
G01*
X-569Y2084D02*
G03*
X-569Y2082I72J-26D01*
G01*
X-568Y2085D02*
G03*
X-569Y2084I72J-28D01*
G01*
X-567Y2087D02*
G03*
X-568Y2085I72J-30D01*
G01*
X-567Y2088D02*
G03*
X-567Y2087I72J-32D01*
G01*
X-566Y2089D02*
G03*
X-567Y2088I73J-34D01*
G01*
X714Y1994D02*
G03*
X716Y1998I-249J133D01*
G01*
X711Y1989D02*
G03*
X714Y1994I-244J136D01*
G01*
X709Y1985D02*
G03*
X711Y1989I-239J139D01*
G01*
X706Y1980D02*
G03*
X709Y1985I-233J142D01*
G01*
X703Y1975D02*
G03*
X706Y1980I-228J145D01*
G01*
X700Y1971D02*
G03*
X703Y1975I-222J149D01*
G01*
X697Y1965D02*
G03*
X700Y1971I-216J152D01*
G01*
X692Y1960D02*
G03*
X697Y1965I-210J156D01*
G01*
X688Y1954D02*
G03*
X692Y1960I-203J160D01*
G01*
X683Y1948D02*
G03*
X688Y1954I-196J165D01*
G01*
X677Y1941D02*
G03*
X683Y1948I-188J170D01*
G01*
X670Y1933D02*
G03*
X677Y1941I-179J176D01*
G01*
X660Y1924D02*
G03*
X670Y1933I-168J183D01*
G01*
X645Y1912D02*
G03*
X660Y1924I-151J194D01*
G01*
X565Y1870D02*
G03*
X645Y1912I-69J234D01*
G01*
X539Y1864D02*
G03*
X565Y1870I-45J244D01*
G01*
X508Y1860D02*
G03*
X539Y1864I-14J251D01*
G01*
X371Y1891D02*
G03*
X508Y1860I123J223D01*
G01*
X339Y1912D02*
G03*
X371Y1891I155J203D01*
G01*
X325Y1924D02*
G03*
X339Y1912I171J194D01*
G01*
X315Y1934D02*
G03*
X325Y1924I183J186D01*
G01*
X307Y1942D02*
G03*
X315Y1934I193J180D01*
G01*
X300Y1949D02*
G03*
X307Y1942I202J175D01*
G01*
X294Y1956D02*
G03*
X300Y1949I210J170D01*
G01*
X290Y1962D02*
G03*
X294Y1956I216J166D01*
G01*
X285Y1968D02*
G03*
X290Y1962I223J161D01*
G01*
X281Y1974D02*
G03*
X285Y1968I230J157D01*
G01*
X277Y1979D02*
G03*
X281Y1974I236J153D01*
G01*
X274Y1985D02*
G03*
X277Y1979I242J150D01*
G01*
X271Y1989D02*
G03*
X274Y1985I248J146D01*
G01*
X268Y1995D02*
G03*
X271Y1989I253J143D01*
G01*
X266Y1999D02*
G03*
X268Y1995I258J140D01*
G01*
X-1363Y-4417D02*
G03*
X-1364Y-4405I-443J-12D01*
G01*
X-1364Y-4405D02*
G03*
X-1365Y-4392I-438J-24D01*
G01*
X-1365D02*
G03*
X-1366Y-4380I-432J-36D01*
G01*
D02*
G03*
X-1368Y-4367I-427J-49D01*
G01*
D02*
G03*
X-1370Y-4354I-421J-60D01*
G01*
X-1370Y-4354D02*
G03*
X-1372Y-4342I-414J-73D01*
G01*
D02*
G03*
X-1375Y-4329I-408J-84D01*
G01*
D02*
G03*
X-1378Y-4316I-401J-96D01*
G01*
X-1378D02*
G03*
X-1382Y-4302I-393J-108D01*
G01*
D02*
G03*
X-1387Y-4288I-385J-121D01*
G01*
X-1387Y-4288D02*
G03*
X-1393Y-4273I-377J-134D01*
G01*
Y-4273D02*
G03*
X-1399Y-4257I-367J-147D01*
G01*
D02*
G03*
X-1407Y-4240I-357J-161D01*
G01*
D02*
G03*
X-1418Y-4221I-345J-176D01*
G01*
D02*
G03*
X-1485Y-4137I-329J-192D01*
G01*
X-1485Y-4137D02*
G03*
X-1505Y-4119I-264J-278D01*
G01*
Y-4119D02*
G03*
X-1519Y-4108I-247J-299D01*
G01*
D02*
G03*
X-1531Y-4099I-235J-313D01*
G01*
D02*
G03*
X-1542Y-4092I-225J-325D01*
G01*
X2084Y3933D02*
G03*
X2016Y3969I-1982J-3691D01*
G01*
Y3969D02*
G03*
X1941Y4006I-1894J-3689D01*
G01*
D02*
G03*
X1856Y4047I-1801J-3689D01*
G01*
X-2958Y-3221D02*
G03*
X-2821Y-3338I3373J3818D01*
G01*
D02*
G03*
X-2732Y-3409I3221J3916D01*
G01*
X1864Y-3945D02*
G03*
X1946Y-3906I-1725J3728D01*
G01*
D02*
G03*
X2019Y-3869I-1825J3726D01*
G01*
X2019D02*
G03*
X2086Y-3834I-1918J3727D01*
G01*
X-2708Y3525D02*
G03*
X-2958Y3318I3118J-4019D01*
G01*
X234Y-4911D02*
G03*
X234Y-4911I-234J0D01*
G01*
X1575Y1181D02*
G03*
X1181Y1575I-394J0D01*
G01*
Y-1575D02*
G03*
X1575Y-1181I0J394D01*
G01*
X-1575D02*
G03*
X-1181Y-1575I394J0D01*
G01*
Y1575D02*
G03*
X-1575Y1181I0J-394D01*
G01*
X-4744Y3150D02*
G03*
X-4744Y3150I-374J0D01*
G01*
X-4823D02*
G03*
X-4823Y3150I-295J0D01*
G01*
X-1673Y-5512D02*
G03*
X-1673Y-5512I-295J0D01*
G01*
X-1594D02*
G03*
X-1594Y-5512I-374J0D01*
G01*
X4508Y3740D02*
G03*
X4508Y3740I-374J0D01*
G01*
X4429D02*
G03*
X4429Y3740I-295J0D01*
G01*
X-5138Y-1969D02*
G03*
X-5138Y-1969I-374J0D01*
G01*
X-5217D02*
G03*
X-5217Y-1969I-295J0D01*
G01*
X-5138Y1969D02*
G03*
X-5138Y1969I-374J0D01*
G01*
X-5217D02*
G03*
X-5217Y1969I-295J0D01*
G01*
X-3957Y-1969D02*
G03*
X-3957Y-1969I-374J0D01*
G01*
X-4035D02*
G03*
X-4035Y-1969I-295J0D01*
G01*
X-3957Y1969D02*
G03*
X-3957Y1969I-374J0D01*
G01*
X-4035D02*
G03*
X-4035Y1969I-295J0D01*
G01*
X3469Y860D02*
Y1108D01*
X3598Y860D02*
Y1108D01*
X3469Y1108D02*
X3598Y1108D01*
X3469Y860D02*
X3598D01*
X3705Y860D02*
Y1108D01*
X3835Y860D02*
Y1108D01*
X3705D02*
X3835D01*
X3705Y860D02*
X3835D01*
X-2071Y-5138D02*
Y-4547D01*
Y-5138D02*
X-1480D01*
X-2071Y-4547D02*
X-1480D01*
Y-5138D02*
Y-4547D01*
X-1363Y3986D02*
Y5678D01*
X1363Y3986D02*
Y5678D01*
X-3150Y2403D02*
X-2991Y2602D01*
X-2820Y2789D01*
X-2641Y2964D01*
Y-2867D02*
Y-2529D01*
X2637Y-2867D02*
Y-2529D01*
X1652Y-4039D02*
Y-2529D01*
X-1656D02*
X-1656Y-4039D01*
X1660Y-2444D02*
X1662Y-2436D01*
X1663Y-2429D01*
X1665Y-2423D01*
X1667Y-2415D01*
X1669Y-2407D01*
X1671Y-2399D01*
X1673Y-2392D01*
X1676Y-2384D01*
X1678Y-2377D01*
X1680Y-2369D01*
X1683Y-2362D01*
X1686Y-2353D01*
X1690Y-2345D01*
X1693Y-2336D01*
X1697Y-2328D01*
X2592Y-2325D02*
X2595Y-2333D01*
X2599Y-2342D01*
X2602Y-2350D01*
X2605Y-2359D01*
X2608Y-2366D01*
X2610Y-2374D01*
X2613Y-2381D01*
X2615Y-2389D01*
X2617Y-2396D01*
X2619Y-2404D01*
X2621Y-2412D01*
X2623Y-2418D01*
X2625Y-2424D01*
X2626Y-2431D01*
X2627Y-2437D01*
X2629Y-2444D01*
X1652Y-2529D02*
X1660Y-2444D01*
X2629D02*
X2637Y-2529D01*
X2627Y2533D02*
X2629Y2541D01*
X2625Y2527D02*
X2627Y2533D01*
X2624Y2520D02*
X2625Y2527D01*
X2622Y2514D02*
X2624Y2520D01*
X2620Y2506D02*
X2622Y2514D01*
X2618Y2499D02*
X2620Y2506D01*
X2616Y2491D02*
X2618Y2499D01*
X2614Y2483D02*
X2616Y2491D01*
X2611Y2476D02*
X2614Y2483D01*
X2609Y2469D02*
X2611Y2476D01*
X2606Y2461D02*
X2609Y2469D01*
X2603Y2454D02*
X2606Y2461D01*
X2600Y2445D02*
X2603Y2454D01*
X2597Y2437D02*
X2600Y2445D01*
X2593Y2429D02*
X2597Y2437D01*
X2589Y2420D02*
X2593Y2429D01*
X2586Y2412D02*
X2589Y2420D01*
X1694Y2435D02*
X1698Y2426D01*
X1691Y2443D02*
X1694Y2435D01*
X1687Y2451D02*
X1691Y2443D01*
X1684Y2460D02*
X1687Y2451D01*
X1681Y2469D02*
X1684Y2460D01*
X1678Y2476D02*
X1681Y2469D01*
X1676Y2484D02*
X1678Y2476D01*
X1673Y2491D02*
X1676Y2484D01*
X1671Y2499D02*
X1673Y2491D01*
X1669Y2506D02*
X1671Y2499D01*
X1667Y2514D02*
X1669Y2506D01*
X1665Y2522D02*
X1667Y2514D01*
X1663Y2530D02*
X1665Y2522D01*
X1661Y2536D02*
X1663Y2530D01*
X1660Y2541D02*
X1661Y2536D01*
X2629Y2541D02*
X2637Y2627D01*
X1652D02*
X1660Y2541D01*
X-2633Y-2444D02*
X-2631Y-2435D01*
X-2629Y-2429D01*
X-2628Y-2423D01*
X-2626Y-2415D01*
X-2623Y-2407D01*
X-2621Y-2399D01*
X-2619Y-2392D01*
X-2616Y-2384D01*
X-2614Y-2377D01*
X-2611Y-2369D01*
X-2609Y-2362D01*
X-2606Y-2355D01*
X-2602Y-2346D01*
X-2599Y-2338D01*
X-2595Y-2329D01*
X-2591Y-2321D01*
X-1701Y-2322D02*
X-1697Y-2331D01*
X-1693Y-2339D01*
X-1690Y-2348D01*
X-1687Y-2356D01*
X-1684Y-2363D01*
X-1681Y-2371D01*
X-1679Y-2378D01*
X-1676Y-2386D01*
X-1674Y-2393D01*
X-1671Y-2401D01*
X-1669Y-2409D01*
X-1667Y-2416D01*
X-1665Y-2424D01*
X-1663Y-2432D01*
X-1661Y-2439D01*
X-1660Y-2444D01*
X-2641Y-2529D02*
X-2633Y-2444D01*
X-1660D02*
X-1656Y-2529D01*
X-1662Y2533D02*
X-1660Y2541D01*
X-1664Y2527D02*
X-1662Y2533D01*
X-1666Y2519D02*
X-1664Y2527D01*
X-1668Y2511D02*
X-1666Y2519D01*
X-1670Y2503D02*
X-1668Y2511D01*
X-1673Y2495D02*
X-1670Y2503D01*
X-1675Y2488D02*
X-1673Y2495D01*
X-1678Y2480D02*
X-1675Y2488D01*
X-1681Y2473D02*
X-1678Y2480D01*
X-1683Y2466D02*
X-1681Y2473D01*
X-1686Y2458D02*
X-1683Y2466D01*
X-1689Y2450D02*
X-1686Y2458D01*
X-1693Y2441D02*
X-1689Y2450D01*
X-1697Y2433D02*
X-1693Y2441D01*
X-1700Y2425D02*
X-1697Y2433D01*
X-1704Y2416D02*
X-1700Y2425D01*
X-1708Y2408D02*
X-1704Y2416D01*
X-2589Y2418D02*
X-2585Y2410D01*
X-2593Y2426D02*
X-2589Y2418D01*
X-2597Y2434D02*
X-2593Y2426D01*
X-2600Y2442D02*
X-2597Y2434D01*
X-2604Y2451D02*
X-2600Y2442D01*
X-2607Y2458D02*
X-2604Y2451D01*
X-2610Y2465D02*
X-2607Y2458D01*
X-2612Y2473D02*
X-2610Y2465D01*
X-2615Y2480D02*
X-2612Y2473D01*
X-2618Y2488D02*
X-2615Y2480D01*
X-2620Y2495D02*
X-2618Y2488D01*
X-2622Y2503D02*
X-2620Y2495D01*
X-2625Y2511D02*
X-2622Y2503D01*
X-2627Y2519D02*
X-2625Y2511D01*
X-2629Y2527D02*
X-2627Y2519D01*
X-2631Y2533D02*
X-2629Y2527D01*
X-2632Y2539D02*
X-2631Y2533D01*
X-2633Y2541D02*
X-2632Y2539D01*
X-1660Y2541D02*
X-1656Y2627D01*
X-2641D02*
X-2633Y2541D01*
X-1656Y2627D02*
Y4136D01*
X-2641Y2964D02*
X-2641Y2627D01*
X2637D02*
Y2964D01*
X1652Y2627D02*
Y4136D01*
X-1868Y-3237D02*
X-1656Y-3351D01*
X-2075Y-3111D02*
X-1868Y-3237D01*
X-2271Y-2973D02*
X-2075Y-3111D01*
X-2462Y-2818D02*
X-2271Y-2973D01*
X-2641Y-2655D02*
X-2462Y-2818D01*
X-2820Y-2688D02*
X-2641Y-2867D01*
X-2991Y-2501D02*
X-2820Y-2688D01*
X-3150Y-2305D02*
X-2991Y-2501D01*
X1652Y3449D02*
X1868Y3335D01*
X2071Y3208D01*
X2271Y3070D01*
X2458Y2920D01*
X2637Y2757D01*
Y2964D02*
X2820Y2789D01*
X2991Y2602D01*
X3149Y2403D01*
X2458Y-2818D02*
X2637Y-2655D01*
X2271Y-2973D02*
X2458Y-2818D01*
X2071Y-3111D02*
X2271Y-2973D01*
X1868Y-3237D02*
X2071Y-3111D01*
X1652Y-3351D02*
X1868Y-3237D01*
X-2641Y2757D02*
X-2462Y2920D01*
X-2271Y3070D01*
X-2075Y3208D01*
X-1868Y3335D01*
X-1656Y3449D01*
X2328Y2171D02*
X2470Y2000D01*
X2328Y-2073D02*
X2470Y-1902D01*
X1445Y-2749D02*
X1652Y-2631D01*
X1229Y-2851D02*
X1445Y-2749D01*
X1005Y-2936D02*
X1229Y-2851D01*
X773Y-3005D02*
X1005Y-2936D01*
X-2462Y-1915D02*
X-2328Y-2073D01*
X-2584Y-1752D02*
X-2462Y-1915D01*
X-2698Y-1577D02*
X-2584Y-1752D01*
X-2800Y-1398D02*
X-2698Y-1577D01*
X-2800Y1495D02*
X-2698Y1678D01*
X-2584Y1849D01*
X-2462Y2016D01*
X-2328Y2171D01*
X-1656Y2728D02*
X-1445Y2850D01*
X-1225Y2952D01*
X-1001Y3038D01*
Y1369D02*
X1001D01*
X-773Y-2863D02*
X773D01*
X1001Y1369D02*
Y5678D01*
X-1001Y1369D02*
Y5678D01*
X773Y3986D02*
Y4177D01*
X-773Y3986D02*
Y4177D01*
X773Y5564D02*
Y5678D01*
X-773Y5564D02*
Y5678D01*
X773Y5601D02*
X1001D01*
X773Y4063D02*
X1001Y4063D01*
X-1001Y5601D02*
X-773D01*
X773Y3986D02*
X1001D01*
X-1001D02*
X-773D01*
X-1001Y4063D02*
X-773Y4063D01*
X1001Y3986D02*
X1363D01*
X-1363D02*
X-1001D01*
X1428Y3961D02*
X1430Y3961D01*
X1431Y3960D01*
X1432Y3960D01*
X1433Y3959D01*
X1435Y3959D01*
X1436Y3958D01*
X1437Y3958D01*
X1438Y3957D01*
X1439Y3957D01*
X1441Y3956D01*
X1442Y3956D01*
X1443Y3955D01*
X1444Y3954D01*
X1446Y3954D01*
X1447Y3953D01*
X1449Y3952D01*
X1450Y3952D01*
X1452Y3951D01*
X1453Y3950D01*
X1455Y3949D01*
X1456Y3948D01*
X1458Y3948D01*
X1459Y3947D01*
X1461Y3946D01*
X1462Y3945D01*
X1464Y3944D01*
X1465Y3943D01*
X1467Y3942D01*
X1468Y3942D01*
X1470Y3941D01*
X1471Y3940D01*
X1473Y3939D01*
X1474Y3938D01*
X1476Y3937D01*
X1477Y3936D01*
X1478Y3935D01*
X1480Y3934D01*
X1481Y3933D01*
X1483Y3932D01*
X1485Y3931D01*
X1486Y3930D01*
X1488Y3928D01*
X1490Y3927D01*
X1492Y3926D01*
X1493Y3924D01*
X1495Y3923D01*
X1497Y3922D01*
X1498Y3920D01*
X1500Y3919D01*
X1502Y3918D01*
X1504Y3916D01*
X1506Y3915D01*
X1508Y3913D01*
X1510Y3911D01*
X1512Y3910D01*
X1514Y3908D01*
X1516Y3906D01*
X1518Y3904D01*
X1520Y3902D01*
X1523Y3900D01*
X1525Y3897D01*
X1528Y3895D01*
X1530Y3892D01*
X1533Y3890D01*
X1536Y3887D01*
X1539Y3884D01*
X1543Y3880D01*
X1546Y3876D01*
X1551Y3871D01*
X1556Y3866D01*
X1587Y3825D02*
X1591Y3819D01*
X1594Y3814D01*
X1597Y3809D01*
X1600Y3805D01*
X1602Y3801D01*
X1604Y3797D01*
X1606Y3794D01*
X1608Y3791D01*
X1609Y3788D01*
X1611Y3785D01*
X1612Y3782D01*
X1613Y3780D01*
X1615Y3777D01*
X1616Y3774D01*
X1617Y3772D01*
X1618Y3770D01*
X1619Y3767D01*
X1620Y3765D01*
X1621Y3763D01*
X1622Y3761D01*
X1623Y3759D01*
X1624Y3757D01*
X1625Y3755D01*
X1626Y3753D01*
X1627Y3751D01*
X1627Y3749D01*
X1628Y3747D01*
X1629Y3745D01*
X1630Y3743D01*
X1630Y3741D01*
X1631Y3740D01*
X1631Y3738D01*
X1632Y3736D01*
X1633Y3735D01*
X1633Y3733D01*
X1634Y3731D01*
X1634Y3730D01*
X1635Y3728D01*
X1635Y3726D01*
X1636Y3725D01*
X1636Y3723D01*
X1637Y3721D01*
X1637Y3720D01*
X1638Y3718D01*
X1638Y3716D01*
X1639Y3715D01*
X1639Y3713D01*
X1639Y3712D01*
X1640Y3710D01*
X1640Y3709D01*
X1640Y3707D01*
X1641Y3706D01*
X1641Y3705D01*
X1641Y3703D01*
X1642Y3702D01*
X1642Y3701D01*
X1642Y3700D01*
X1642Y3698D01*
X1643Y3697D01*
X1643Y3696D01*
X1643Y3694D01*
X1643Y3693D01*
X1643Y3692D01*
X1644Y3691D01*
X1644Y3689D01*
X1644Y3689D01*
X1363Y3986D02*
X1428Y3961D01*
X1644Y3689D02*
X1652Y3615D01*
X-1644Y3689D02*
X-1644Y3691D01*
X-1643Y3692D01*
X-1643Y3694D01*
X-1643Y3695D01*
X-1642Y3697D01*
X-1642Y3699D01*
X-1642Y3701D01*
X-1641Y3703D01*
X-1641Y3705D01*
X-1640Y3707D01*
X-1640Y3709D01*
X-1639Y3711D01*
X-1639Y3713D01*
X-1638Y3715D01*
X-1638Y3717D01*
X-1637Y3719D01*
X-1637Y3721D01*
X-1636Y3723D01*
X-1636Y3725D01*
X-1635Y3727D01*
X-1634Y3729D01*
X-1634Y3731D01*
X-1633Y3733D01*
X-1632Y3735D01*
X-1632Y3737D01*
X-1631Y3739D01*
X-1630Y3741D01*
X-1629Y3744D01*
X-1628Y3746D01*
X-1628Y3748D01*
X-1627Y3750D01*
X-1626Y3753D01*
X-1625Y3755D01*
X-1624Y3757D01*
X-1623Y3760D01*
X-1622Y3762D01*
X-1621Y3765D01*
X-1620Y3767D01*
X-1618Y3770D01*
X-1617Y3772D01*
X-1616Y3775D01*
X-1614Y3778D01*
X-1613Y3781D01*
X-1611Y3784D01*
X-1610Y3787D01*
X-1608Y3790D01*
X-1606Y3793D01*
X-1604Y3797D01*
X-1602Y3800D01*
X-1600Y3804D01*
X-1597Y3808D01*
X-1595Y3813D01*
X-1592Y3817D01*
X-1588Y3823D01*
X-1543Y3880D02*
X-1538Y3885D01*
X-1534Y3889D01*
X-1530Y3893D01*
X-1526Y3897D01*
X-1522Y3900D01*
X-1519Y3903D01*
X-1516Y3906D01*
X-1513Y3908D01*
X-1510Y3911D01*
X-1508Y3913D01*
X-1505Y3915D01*
X-1503Y3917D01*
X-1500Y3919D01*
X-1498Y3921D01*
X-1496Y3923D01*
X-1493Y3925D01*
X-1491Y3926D01*
X-1489Y3928D01*
X-1487Y3929D01*
X-1485Y3931D01*
X-1483Y3932D01*
X-1481Y3934D01*
X-1479Y3935D01*
X-1477Y3936D01*
X-1475Y3938D01*
X-1473Y3939D01*
X-1471Y3940D01*
X-1469Y3941D01*
X-1468Y3942D01*
X-1466Y3943D01*
X-1464Y3945D01*
X-1462Y3946D01*
X-1461Y3947D01*
X-1459Y3948D01*
X-1457Y3949D01*
X-1455Y3950D01*
X-1453Y3951D01*
X-1452Y3952D01*
X-1450Y3953D01*
X-1448Y3954D01*
X-1447Y3954D01*
X-1445Y3955D01*
X-1444Y3956D01*
X-1442Y3957D01*
X-1441Y3957D01*
X-1439Y3958D01*
X-1438Y3959D01*
X-1436Y3959D01*
X-1435Y3960D01*
X-1433Y3961D01*
X-1432Y3961D01*
X-1656Y3615D02*
X-1644Y3689D01*
X-1432Y3961D02*
X-1363Y3986D01*
X1001Y3038D02*
X1225Y2952D01*
X1445Y2850D01*
X1652Y2728D01*
X1363Y-5581D02*
Y-3888D01*
X-1363Y-5581D02*
Y-3888D01*
X-1644Y-3587D02*
X-1644Y-3589D01*
X-1432Y-3864D02*
X-1363Y-3888D01*
X-1656Y-3518D02*
X-1644Y-3587D01*
X1643Y-3590D02*
X1644Y-3587D01*
X1643Y-3594D02*
X1643Y-3590D01*
X1642Y-3597D02*
X1643Y-3594D01*
X1641Y-3600D02*
X1642Y-3597D01*
X1641Y-3603D02*
X1641Y-3600D01*
X1640Y-3606D02*
X1641Y-3603D01*
X1639Y-3609D02*
X1640Y-3606D01*
X1638Y-3613D02*
X1639Y-3609D01*
X1637Y-3616D02*
X1638Y-3613D01*
X1636Y-3620D02*
X1637Y-3616D01*
X1635Y-3623D02*
X1636Y-3620D01*
X1634Y-3627D02*
X1635Y-3623D01*
X1633Y-3631D02*
X1634Y-3627D01*
X1632Y-3634D02*
X1633Y-3631D01*
X1630Y-3639D02*
X1632Y-3634D01*
X1629Y-3643D02*
X1630Y-3639D01*
X1627Y-3647D02*
X1629Y-3643D01*
X1626Y-3651D02*
X1627Y-3647D01*
X1624Y-3656D02*
X1626Y-3651D01*
X1622Y-3661D02*
X1624Y-3656D01*
X1619Y-3667D02*
X1622Y-3661D01*
X1617Y-3672D02*
X1619Y-3667D01*
X1540Y-3786D02*
X1545Y-3781D01*
X1536Y-3790D02*
X1540Y-3786D01*
X1532Y-3794D02*
X1536Y-3790D01*
X1528Y-3798D02*
X1532Y-3794D01*
X1524Y-3801D02*
X1528Y-3798D01*
X1521Y-3804D02*
X1524Y-3801D01*
X1517Y-3808D02*
X1521Y-3804D01*
X1514Y-3810D02*
X1517Y-3808D01*
X1511Y-3813D02*
X1514Y-3810D01*
X1507Y-3816D02*
X1511Y-3813D01*
X1504Y-3819D02*
X1507Y-3816D01*
X1501Y-3821D02*
X1504Y-3819D01*
X1498Y-3823D02*
X1501Y-3821D01*
X1494Y-3826D02*
X1498Y-3823D01*
X1491Y-3828D02*
X1494Y-3826D01*
X1488Y-3830D02*
X1491Y-3828D01*
X1485Y-3832D02*
X1488Y-3830D01*
X1482Y-3835D02*
X1485Y-3832D01*
X1479Y-3837D02*
X1482Y-3835D01*
X1476Y-3838D02*
X1479Y-3837D01*
X1473Y-3840D02*
X1476Y-3838D01*
X1470Y-3842D02*
X1473Y-3840D01*
X1467Y-3844D02*
X1470Y-3842D01*
X1464Y-3846D02*
X1467Y-3844D01*
X1461Y-3848D02*
X1464Y-3846D01*
X1459Y-3849D02*
X1461Y-3848D01*
X1456Y-3851D02*
X1459Y-3849D01*
X1453Y-3852D02*
X1456Y-3851D01*
X1450Y-3854D02*
X1453Y-3852D01*
X1447Y-3855D02*
X1450Y-3854D01*
X1444Y-3857D02*
X1447Y-3855D01*
X1441Y-3858D02*
X1444Y-3857D01*
X1439Y-3859D02*
X1441Y-3858D01*
X1436Y-3861D02*
X1439Y-3859D01*
X1433Y-3862D02*
X1436Y-3861D01*
X1430Y-3863D02*
X1433Y-3862D01*
X1428Y-3864D02*
X1430Y-3863D01*
X1644Y-3587D02*
X1652Y-3518D01*
X1363Y-3888D02*
X1428Y-3864D01*
X-1363Y-3888D02*
X-1001Y-3888D01*
X1001Y-3888D02*
X1363D01*
X-1001Y-3965D02*
X-773Y-3965D01*
X773D02*
X1001D01*
X-773Y-3856D02*
Y-2863D01*
X773Y-3856D02*
Y-2863D01*
X-1001Y-3888D02*
X-891Y-3888D01*
X891D02*
X1001D01*
X773Y-5679D02*
Y-5463D01*
X-1001Y-5504D02*
X-773Y-5504D01*
X773D02*
X1001D01*
X-773Y-5679D02*
Y-5463D01*
X1001Y-5679D02*
Y-3888D01*
X-1001Y-5679D02*
Y-3888D01*
X-1005Y-2936D02*
X-773Y-3005D01*
X-1229Y-2851D02*
X-1005Y-2936D01*
X-1445Y-2749D02*
X-1229Y-2851D01*
X-1656Y-2631D02*
X-1445Y-2749D01*
X2991Y-2501D02*
X3149Y-2305D01*
X2820Y-2688D02*
X2991Y-2501D01*
X2637Y-2867D02*
X2820Y-2688D01*
X763Y-1842D02*
X765Y-1829D01*
X760Y-1853D02*
X763Y-1842D01*
X758Y-1863D02*
X760Y-1853D01*
X756Y-1873D02*
X758Y-1863D01*
X754Y-1883D02*
X756Y-1873D01*
X751Y-1893D02*
X754Y-1883D01*
X748Y-1906D02*
X751Y-1893D01*
X744Y-1918D02*
X748Y-1906D01*
X741Y-1930D02*
X744Y-1918D01*
X737Y-1942D02*
X741Y-1930D01*
X733Y-1954D02*
X737Y-1942D01*
X729Y-1966D02*
X733Y-1954D01*
X725Y-1978D02*
X729Y-1966D01*
X720Y-1991D02*
X725Y-1978D01*
X715Y-2005D02*
X720Y-1991D01*
X709Y-2018D02*
X715Y-2005D01*
X704Y-2032D02*
X709Y-2018D01*
X-715Y-2007D02*
X-709Y-2021D01*
X-720Y-1994D02*
X-715Y-2007D01*
X-725Y-1980D02*
X-720Y-1994D01*
X-729Y-1968D02*
X-725Y-1980D01*
X-733Y-1957D02*
X-729Y-1968D01*
X-737Y-1945D02*
X-733Y-1957D01*
X-741Y-1933D02*
X-737Y-1945D01*
X-744Y-1920D02*
X-741Y-1933D01*
X-748Y-1908D02*
X-744Y-1920D01*
X-751Y-1896D02*
X-748Y-1908D01*
X-753Y-1886D02*
X-751Y-1896D01*
X-756Y-1876D02*
X-753Y-1886D01*
X-758Y-1865D02*
X-756Y-1876D01*
X-760Y-1855D02*
X-758Y-1865D01*
X-762Y-1845D02*
X-760Y-1855D01*
X-764Y-1834D02*
X-762Y-1845D01*
X-765Y-1829D02*
X-764Y-1834D01*
X-773Y-1719D02*
X773D01*
X765Y-1829D02*
X773Y-1719D01*
X-773D02*
X-765Y-1829D01*
X240Y-2134D02*
Y-2053D01*
X53Y-2134D02*
X240D01*
X53Y-2326D02*
Y-2134D01*
X-29Y-2326D02*
X53D01*
X-29D02*
Y-2134D01*
X-220D02*
X-29D01*
X-220D02*
Y-2053D01*
X-29D01*
Y-1862D01*
X53D01*
Y-2053D02*
Y-1862D01*
X749Y3632D02*
X1001D01*
X-1001D02*
X-749D01*
Y-6248D02*
X749D01*
Y-5463D01*
X-749Y-6248D02*
Y-5463D01*
X-964D02*
Y-4315D01*
X964Y-5463D02*
Y-4315D01*
X-964Y-5463D02*
X964D01*
X-964Y-4315D02*
X964Y-4315D01*
X-399Y-4079D02*
X399D01*
X-179Y3278D02*
X-178Y3281D01*
X-177Y3283D01*
X-176Y3286D01*
X-175Y3289D01*
X-174Y3292D01*
X-173Y3295D01*
X-172Y3297D01*
X-170Y3300D01*
X-169Y3303D01*
X-167Y3306D01*
X-166Y3309D01*
X178Y3269D02*
X179Y3266D01*
X179Y3263D01*
X180Y3260D01*
X180Y3258D01*
X181Y3255D01*
X181Y3252D01*
X182Y3249D01*
X182Y3247D01*
X182Y3245D01*
X182Y3242D01*
X183Y3240D01*
X183Y3237D01*
X183Y3235D01*
X183Y3233D01*
X-187D02*
X-179Y3278D01*
X183Y3233D02*
X236Y2114D01*
X-240D02*
X-187Y3233D01*
X749Y2114D02*
Y4177D01*
X-749Y2114D02*
Y4177D01*
X-250Y2044D02*
X-248Y2049D01*
X-251Y2040D02*
X-250Y2044D01*
X-252Y2037D02*
X-251Y2040D01*
X-253Y2033D02*
X-252Y2037D01*
X-254Y2030D02*
X-253Y2033D01*
X-256Y2025D02*
X-254Y2030D01*
X-258Y2021D02*
X-256Y2025D01*
X-259Y2017D02*
X-258Y2021D01*
X-261Y2013D02*
X-259Y2017D01*
X-263Y2009D02*
X-261Y2013D01*
X-733Y2026D02*
X-731Y2021D01*
X-735Y2030D02*
X-733Y2026D01*
X-736Y2034D02*
X-735Y2030D01*
X-737Y2038D02*
X-736Y2034D01*
X-739Y2043D02*
X-737Y2038D01*
X-740Y2046D02*
X-739Y2043D01*
X-741Y2049D02*
X-740Y2046D01*
X-248Y2049D02*
X-240Y2114D01*
X-749D02*
X-741Y2049D01*
X-526Y1988D02*
X-525Y1988D01*
X-528Y1989D02*
X-526Y1988D01*
X-529Y1990D02*
X-528Y1989D01*
X-531Y1991D02*
X-529Y1990D01*
X-532Y1992D02*
X-531Y1991D01*
X-533Y1992D02*
X-532Y1992D01*
X-535Y1993D02*
X-533Y1992D01*
X-536Y1994D02*
X-535Y1993D01*
X-538Y1995D02*
X-536Y1994D01*
X-539Y1996D02*
X-538Y1995D01*
X-540Y1997D02*
X-539Y1996D01*
X-541Y1998D02*
X-540Y1997D01*
X-566Y2089D02*
X-566Y2091D01*
X-565Y2092D01*
X-564Y2093D01*
X-564Y2094D01*
X-563Y2096D01*
X-562Y2097D01*
X-562Y2098D01*
X-561Y2099D01*
X-560Y2100D01*
X-560Y2101D01*
X-559Y2102D01*
X-559Y2103D01*
X-558Y2104D01*
X-557Y2105D01*
X-556Y2106D01*
X-556Y2106D01*
X-555Y2107D01*
X-554Y2108D01*
X-554Y2109D01*
X-553Y2110D01*
X-552Y2111D01*
X-552Y2111D01*
X-551Y2112D01*
X-550Y2113D01*
X-549Y2114D01*
X-549Y2114D01*
X-492Y2138D02*
X-464Y2130D01*
X-439Y2114D01*
X-419Y2089D01*
X-415Y2061D01*
X-419Y2028D02*
X-415Y2061D01*
X-439Y2004D02*
X-419Y2028D01*
X-464Y1988D02*
X-439Y2004D01*
X-492Y1980D02*
X-464Y1988D01*
X-525D02*
X-492Y1980D01*
X-549Y2114D02*
X-525Y2130D01*
X-492Y2138D01*
X735Y2044D02*
X736Y2049D01*
X734Y2041D02*
X735Y2044D01*
X733Y2037D02*
X734Y2041D01*
X731Y2033D02*
X733Y2037D01*
X730Y2030D02*
X731Y2033D01*
X729Y2026D02*
X730Y2030D01*
X727Y2022D02*
X729Y2026D01*
X726Y2018D02*
X727Y2022D01*
X724Y2014D02*
X726Y2018D01*
X722Y2010D02*
X724Y2014D01*
X720Y2006D02*
X722Y2010D01*
X718Y2002D02*
X720Y2006D01*
X716Y1998D02*
X718Y2002D01*
X263Y2004D02*
X266Y1999D01*
X261Y2008D02*
X263Y2004D01*
X259Y2013D02*
X261Y2008D01*
X257Y2017D02*
X259Y2013D01*
X255Y2021D02*
X257Y2017D01*
X253Y2025D02*
X255Y2021D01*
X251Y2030D02*
X253Y2025D01*
X249Y2034D02*
X251Y2030D01*
X248Y2038D02*
X249Y2034D01*
X246Y2043D02*
X248Y2038D01*
X245Y2046D02*
X246Y2043D01*
X244Y2049D02*
X245Y2046D01*
X736Y2049D02*
X749Y2114D01*
X236D02*
X244Y2049D01*
X492Y2138D02*
X521Y2130D01*
X549Y2114D01*
X566Y2089D01*
X570Y2061D01*
X566Y2028D02*
X570Y2061D01*
X549Y2004D02*
X566Y2028D01*
X521Y1988D02*
X549Y2004D01*
X492Y1980D02*
X521Y1988D01*
X464D02*
X492Y1980D01*
X435Y2004D02*
X464Y1988D01*
X419Y2028D02*
X435Y2004D01*
X415Y2061D02*
X419Y2028D01*
X415Y2061D02*
X419Y2089D01*
X435Y2114D01*
X464Y2130D01*
X492Y2138D01*
X964Y4177D02*
Y5564D01*
X-964Y4177D02*
Y5564D01*
X-749Y6350D02*
X749D01*
X-749Y5564D02*
Y6350D01*
X749Y5564D02*
Y6350D01*
X-964Y5564D02*
X964D01*
X-964Y4177D02*
X964D01*
X-399Y-4315D02*
Y-4185D01*
X399Y-4315D02*
Y-4185D01*
Y-4079D02*
X1599Y-3359D01*
X399Y-4185D02*
X1644Y-3436D01*
X1599Y-3359D02*
X1644Y-3436D01*
X-1599Y-3359D02*
X-399Y-4079D01*
X-1644Y-3436D02*
X-399Y-4185D01*
X-1644Y-3436D02*
X-1599Y-3359D01*
X-1363Y-5679D02*
X-773D01*
X773D02*
X1363D01*
X-3150Y-1752D02*
X-2352Y-950D01*
X-3150Y1849D02*
X-2352Y1048D01*
X3149Y-3038D02*
Y3135D01*
X-2352Y-950D02*
Y1048D01*
X-3150Y-3038D02*
Y-1752D01*
Y1849D02*
Y3135D01*
X-1363Y-5679D02*
Y-4421D01*
X-1611Y-4055D02*
X-1542Y-4092D01*
X-1363Y-4417D02*
X-1363Y-4421D01*
X1363Y-5679D02*
Y-4421D01*
X1542Y-4092D02*
X1611Y-4055D01*
X1481Y-4140D02*
X1542Y-4092D01*
X1432Y-4197D02*
X1481Y-4140D01*
X1392Y-4267D02*
X1432Y-4197D01*
X1371Y-4344D02*
X1392Y-4267D01*
X1363Y-4421D02*
X1371Y-4344D01*
X1363Y4519D02*
X1371Y4441D01*
X1392Y4368D01*
X1432Y4299D01*
X1481Y4238D01*
X1542Y4189D01*
X1611Y4152D01*
X-1611D02*
X-1542Y4189D01*
X-1481Y4238D01*
X-1432Y4299D01*
X-1396Y4368D01*
X-1371Y4441D01*
X-1363Y4519D01*
Y5678D02*
X-773D01*
X1363Y4519D02*
Y5678D01*
X-1363Y4519D02*
Y5678D01*
X2958Y3318D02*
X3149Y3135D01*
X1611Y4152D02*
X1855Y4047D01*
X2929Y3344D02*
X2958Y3318D01*
X2894Y3374D02*
X2929Y3344D01*
X2859Y3404D02*
X2894Y3374D01*
X2823Y3434D02*
X2859Y3404D01*
X2786Y3464D02*
X2823Y3434D01*
X2749Y3494D02*
X2786Y3464D01*
X2710Y3524D02*
X2749Y3494D01*
X2671Y3554D02*
X2710Y3524D01*
X2631Y3585D02*
X2671Y3554D01*
X2589Y3615D02*
X2631Y3585D01*
X2547Y3645D02*
X2589Y3615D01*
X2504Y3676D02*
X2547Y3645D01*
X2459Y3706D02*
X2504Y3676D01*
X2413Y3737D02*
X2459Y3706D01*
X2365Y3768D02*
X2413Y3737D01*
X2314Y3800D02*
X2365Y3768D01*
X2261Y3832D02*
X2314Y3800D01*
X2205Y3865D02*
X2261Y3832D01*
X2147Y3899D02*
X2205Y3865D01*
X2084Y3933D02*
X2147Y3899D01*
X-3150Y-3038D02*
X-2958Y-3221D01*
X-1856Y-3949D02*
X-1611Y-4055D01*
X-2732Y-3409D02*
X-2680Y-3450D01*
X-2637Y-3482D01*
X-2601Y-3509D01*
X-2568Y-3533D01*
X-2538Y-3554D01*
X-2509Y-3575D01*
X-2483Y-3593D01*
X-2457Y-3610D01*
X-2433Y-3627D01*
X-2409Y-3642D01*
X-2387Y-3657D01*
X-2365Y-3671D01*
X-2344Y-3685D01*
X-2323Y-3698D01*
X-2303Y-3710D01*
X-2283Y-3722D01*
X-2264Y-3734D01*
X-2246Y-3745D01*
X-2227Y-3756D01*
X-2209Y-3767D01*
X-2192Y-3777D01*
X-2174Y-3787D01*
X-2157Y-3797D01*
X-2141Y-3806D01*
X-2124Y-3815D01*
X-2108Y-3824D01*
X-2092Y-3833D01*
X-2075Y-3841D01*
X-2060Y-3849D01*
X-2045Y-3857D01*
X-2030Y-3865D01*
X-2015Y-3873D01*
X-1999Y-3881D01*
X-1984Y-3888D01*
X-1970Y-3895D01*
X-1956Y-3902D01*
X-1942Y-3909D01*
X-1928Y-3916D01*
X-1913Y-3923D01*
X-1899Y-3929D01*
X-1885Y-3936D01*
X-1871Y-3942D01*
X-1856Y-3949D01*
X773Y5678D02*
X1363D01*
X1611Y-4055D02*
X1856Y-3949D01*
X2958Y-3221D02*
X3149Y-3038D01*
X1856Y-3949D02*
X1864Y-3945D01*
X2086Y-3834D02*
X2148Y-3800D01*
X2207Y-3767D01*
X2261Y-3735D01*
X2313Y-3703D01*
X2364Y-3671D01*
X2412Y-3640D01*
X2458Y-3609D01*
X2503Y-3579D01*
X2546Y-3548D01*
X2588Y-3518D01*
X2629Y-3489D01*
X2668Y-3459D01*
X2707Y-3429D01*
X2744Y-3400D01*
X2782Y-3370D01*
X2818Y-3341D01*
X2853Y-3311D01*
X2889Y-3281D01*
X2923Y-3252D01*
X2958Y-3221D01*
X-1856Y4047D02*
X-1611Y4152D01*
X-3150Y3135D02*
X-2958Y3318D01*
X-1859Y4045D02*
X-1856Y4047D01*
X-1872Y4039D02*
X-1859Y4045D01*
X-1886Y4033D02*
X-1872Y4039D01*
X-1900Y4026D02*
X-1886Y4033D01*
X-1915Y4020D02*
X-1900Y4026D01*
X-1929Y4013D02*
X-1915Y4020D01*
X-1943Y4006D02*
X-1929Y4013D01*
X-1957Y3999D02*
X-1943Y4006D01*
X-1971Y3992D02*
X-1957Y3999D01*
X-1985Y3985D02*
X-1971Y3992D01*
X-1999Y3978D02*
X-1985Y3985D01*
X-2015Y3971D02*
X-1999Y3978D01*
X-2030Y3963D02*
X-2015Y3971D01*
X-2045Y3955D02*
X-2030Y3963D01*
X-2060Y3947D02*
X-2045Y3955D01*
X-2075Y3939D02*
X-2060Y3947D01*
X-2091Y3931D02*
X-2075Y3939D01*
X-2107Y3922D02*
X-2091Y3931D01*
X-2123Y3913D02*
X-2107Y3922D01*
X-2140Y3904D02*
X-2123Y3913D01*
X-2156Y3895D02*
X-2140Y3904D01*
X-2173Y3885D02*
X-2156Y3895D01*
X-2190Y3875D02*
X-2173Y3885D01*
X-2208Y3865D02*
X-2190Y3875D01*
X-2225Y3855D02*
X-2208Y3865D01*
X-2243Y3844D02*
X-2225Y3855D01*
X-2262Y3833D02*
X-2243Y3844D01*
X-2280Y3822D02*
X-2262Y3833D01*
X-2299Y3810D02*
X-2280Y3822D01*
X-2319Y3798D02*
X-2299Y3810D01*
X-2339Y3785D02*
X-2319Y3798D01*
X-2360Y3772D02*
X-2339Y3785D01*
X-2381Y3758D02*
X-2360Y3772D01*
X-2403Y3744D02*
X-2381Y3758D01*
X-2426Y3729D02*
X-2403Y3744D01*
X-2449Y3713D02*
X-2426Y3729D01*
X-2474Y3696D02*
X-2449Y3713D01*
X-2499Y3679D02*
X-2474Y3696D01*
X-2527Y3660D02*
X-2499Y3679D01*
X-2556Y3639D02*
X-2527Y3660D01*
X-2588Y3616D02*
X-2556Y3639D01*
X-2622Y3591D02*
X-2588Y3616D01*
X-2662Y3561D02*
X-2622Y3591D01*
X-2708Y3525D02*
X-2662Y3561D01*
X-1575Y-1181D02*
Y1181D01*
X-1181Y1575D02*
X1181D01*
X-1181Y-1575D02*
X1181D01*
X1575Y-1181D02*
Y1181D01*
X-6535Y-1329D02*
X-6535Y1329D01*
X-6535Y-1329D02*
X-4843D01*
X-6535Y1329D02*
X-4843D01*
X-4843Y-1098D02*
X-4264D01*
X-4843Y-902D02*
X-4264D01*
Y-1098D02*
Y-902D01*
X-4843Y-598D02*
X-4264D01*
X-4843Y-402D02*
X-4264D01*
Y-598D02*
Y-402D01*
X-4843Y902D02*
X-4264D01*
X-4843Y1098D02*
X-4264D01*
Y902D02*
Y1098D01*
X-4843Y402D02*
X-4264D01*
X-4843Y598D02*
X-4264D01*
Y402D02*
Y598D01*
X-4843Y-98D02*
X-4264D01*
X-4843Y98D02*
X-4264D01*
Y-98D02*
Y98D01*
X-4843Y-1329D02*
X-4843Y1329D01*
D142*
X666Y125D02*
Y-125D01*
X500D01*
X417D02*
Y42D01*
X333Y125D01*
X250Y42D01*
Y-125D01*
Y-0D01*
X417D01*
X167Y125D02*
Y-125D01*
X42D01*
X0Y-83D01*
Y-42D01*
X42Y-0D01*
X167D01*
X42D01*
X0Y42D01*
Y83D01*
X42Y125D01*
X167D01*
X-250D02*
X-83D01*
Y-125D01*
X-250D01*
X-83Y-0D02*
X-167D01*
X-333Y125D02*
Y-125D01*
X-500D01*
X-583D02*
X-666D01*
X-625D01*
Y125D01*
X-583Y83D01*
D145*
X3473Y739D02*
Y819D01*
X3533D01*
Y779D01*
Y819D01*
X3593D01*
X3473Y699D02*
X3593D01*
Y639D01*
X3573Y619D01*
X3553D01*
X3533Y639D01*
Y699D01*
Y639D01*
X3513Y619D01*
X3493D01*
X3473Y639D01*
Y699D01*
X3593Y499D02*
Y579D01*
X3513Y499D01*
X3493D01*
X3473Y519D01*
Y559D01*
X3493Y579D01*
X3830Y818D02*
X3710D01*
Y758D01*
X3730Y738D01*
X3770D01*
X3790Y758D01*
Y818D01*
Y778D02*
X3830Y738D01*
X3710Y619D02*
X3730Y659D01*
X3770Y699D01*
X3810D01*
X3830Y679D01*
Y639D01*
X3810Y619D01*
X3790D01*
X3770Y639D01*
Y699D01*
X180Y-294D02*
Y-414D01*
X120D01*
X100Y-394D01*
Y-374D01*
X120Y-354D01*
X180D01*
X120D01*
X100Y-334D01*
Y-314D01*
X120Y-294D01*
X180D01*
X40Y-334D02*
X0D01*
X-20Y-354D01*
Y-414D01*
X40D01*
X60Y-394D01*
X40Y-374D01*
X-20D01*
X-80Y-314D02*
Y-334D01*
X-60D01*
X-100D01*
X-80D01*
Y-394D01*
X-100Y-414D01*
X-160D02*
X-200D01*
X-180D01*
Y-294D01*
X-160Y-314D01*
X-5749Y-80D02*
X-5629D01*
Y-20D01*
X-5649Y0D01*
X-5689D01*
X-5709Y-20D01*
Y-80D01*
X-5749Y40D02*
Y80D01*
Y60D01*
X-5629D01*
X-5649Y40D01*
X-5178Y3290D02*
Y3210D01*
Y3250D01*
X-5058D01*
Y3170D02*
X-5178D01*
Y3110D01*
X-5158Y3090D01*
X-5118D01*
X-5098Y3110D01*
Y3170D01*
X-5058Y3050D02*
Y3010D01*
Y3030D01*
X-5178D01*
X-5158Y3050D01*
X-1809Y-5452D02*
X-1889D01*
X-1849D01*
Y-5572D01*
X-1929D02*
Y-5452D01*
X-1989D01*
X-2008Y-5472D01*
Y-5512D01*
X-1989Y-5532D01*
X-1929D01*
X-2128Y-5452D02*
X-2088Y-5472D01*
X-2048Y-5512D01*
Y-5552D01*
X-2068Y-5572D01*
X-2108D01*
X-2128Y-5552D01*
Y-5532D01*
X-2108Y-5512D01*
X-2048D01*
X4294Y3800D02*
X4214D01*
X4254D01*
Y3680D01*
X4174D02*
Y3800D01*
X4114D01*
X4094Y3780D01*
Y3740D01*
X4114Y3720D01*
X4174D01*
X4054Y3800D02*
X3974D01*
Y3780D01*
X4054Y3700D01*
Y3680D01*
X-5352Y-1909D02*
X-5432D01*
X-5392D01*
Y-2028D01*
X-5472D02*
Y-1909D01*
X-5532D01*
X-5552Y-1929D01*
Y-1969D01*
X-5532Y-1989D01*
X-5472D01*
X-5592Y-1929D02*
X-5612Y-1909D01*
X-5652D01*
X-5672Y-1929D01*
Y-1949D01*
X-5652Y-1969D01*
X-5632D01*
X-5652D01*
X-5672Y-1989D01*
Y-2008D01*
X-5652Y-2028D01*
X-5612D01*
X-5592Y-2008D01*
X-5352Y2028D02*
X-5432D01*
X-5392D01*
Y1909D01*
X-5472D02*
Y2028D01*
X-5532D01*
X-5552Y2008D01*
Y1969D01*
X-5532Y1949D01*
X-5472D01*
X-5672Y1909D02*
X-5592D01*
X-5672Y1989D01*
Y2008D01*
X-5652Y2028D01*
X-5612D01*
X-5592Y2008D01*
X-4171Y-1909D02*
X-4251D01*
X-4211D01*
Y-2028D01*
X-4291D02*
Y-1909D01*
X-4351D01*
X-4371Y-1929D01*
Y-1969D01*
X-4351Y-1989D01*
X-4291D01*
X-4471Y-2028D02*
Y-1909D01*
X-4411Y-1969D01*
X-4491D01*
X-4171Y2028D02*
X-4251D01*
X-4211D01*
Y1909D01*
X-4291D02*
Y2028D01*
X-4351D01*
X-4371Y2008D01*
Y1969D01*
X-4351Y1949D01*
X-4291D01*
X-4491Y2028D02*
X-4411D01*
Y1969D01*
X-4451Y1989D01*
X-4471D01*
X-4491Y1969D01*
Y1929D01*
X-4471Y1909D01*
X-4431D01*
X-4411Y1929D01*
M02*
