G04*
G04 #@! TF.GenerationSoftware,Altium Limited,Altium Designer,25.8.1 (18)*
G04*
G04 Layer_Color=15790320*
%FSLAX24Y24*%
%MOIN*%
G70*
G04*
G04 #@! TF.SameCoordinates,642ECA59-74B0-4D39-AD16-73E6623B2992*
G04*
G04*
G04 #@! TF.FilePolarity,Positive*
G04*
G01*
G75*
%ADD10C,0.0060*%
%ADD11C,0.0098*%
%ADD12C,0.0059*%
%ADD13C,0.0049*%
%ADD14C,0.0079*%
%ADD15C,0.0100*%
%ADD16C,0.0039*%
G04:AMPARAMS|DCode=17|XSize=19.7mil|YSize=19.7mil|CornerRadius=0mil|HoleSize=0mil|Usage=FLASHONLY|Rotation=153.000|XOffset=0mil|YOffset=0mil|HoleType=Round|Shape=Rectangle|*
%AMROTATEDRECTD17*
4,1,4,0.0132,0.0043,0.0043,-0.0132,-0.0132,-0.0043,-0.0043,0.0132,0.0132,0.0043,0.0*
%
%ADD17ROTATEDRECTD17*%

G04:AMPARAMS|DCode=18|XSize=19.7mil|YSize=19.7mil|CornerRadius=0mil|HoleSize=0mil|Usage=FLASHONLY|Rotation=207.000|XOffset=0mil|YOffset=0mil|HoleType=Round|Shape=Rectangle|*
%AMROTATEDRECTD18*
4,1,4,0.0043,0.0132,0.0132,-0.0043,-0.0043,-0.0132,-0.0132,0.0043,0.0043,0.0132,0.0*
%
%ADD18ROTATEDRECTD18*%

G36*
X-1204Y3104D02*
X-1218Y3102D01*
X-1246Y3100D01*
X-1273Y3099D01*
X-1301Y3099D01*
X-1329Y3099D01*
X-1357Y3100D01*
X-1384Y3102D01*
X-1412Y3104D01*
X-1439Y3108D01*
X-1467Y3112D01*
X-1494Y3117D01*
X-1521Y3123D01*
X-1548Y3129D01*
X-1575Y3136D01*
X-1602Y3144D01*
X-1628Y3153D01*
X-1654Y3162D01*
X-1680Y3172D01*
X-1705Y3183D01*
X-1731Y3195D01*
X-1756Y3207D01*
X-1780Y3220D01*
X-1804Y3233D01*
X-1828Y3248D01*
X-1851Y3263D01*
X-1874Y3278D01*
X-1897Y3294D01*
X-1919Y3311D01*
X-1941Y3329D01*
X-1962Y3347D01*
X-1982Y3365D01*
X-2002Y3384D01*
X-2022Y3404D01*
X-2041Y3424D01*
X-2059Y3445D01*
X-2077Y3467D01*
X-2094Y3488D01*
X-2111Y3511D01*
X-2127Y3533D01*
X-2142Y3556D01*
X-2156Y3580D01*
X-2170Y3604D01*
X-2184Y3628D01*
X-2196Y3653D01*
X-2208Y3678D01*
X-2220Y3703D01*
X-2230Y3729D01*
X-2240Y3755D01*
X-2249Y3781D01*
X-2257Y3807D01*
X-2265Y3834D01*
X-2272Y3861D01*
X-2278Y3888D01*
X-2283Y3915D01*
X-2288Y3943D01*
X-2292Y3970D01*
X-2295Y3998D01*
X-2297Y4025D01*
X-2299Y4053D01*
X-2300Y4081D01*
Y4108D01*
X-2299Y4136D01*
X-2297Y4164D01*
X-2295Y4191D01*
X-2292Y4219D01*
X-2288Y4246D01*
X-2283Y4274D01*
X-2278Y4301D01*
X-2272Y4328D01*
X-2265Y4355D01*
X-2257Y4382D01*
X-2249Y4408D01*
X-2240Y4434D01*
X-2230Y4460D01*
X-2220Y4486D01*
X-2208Y4511D01*
X-2196Y4536D01*
X-2184Y4561D01*
X-2170Y4585D01*
X-2156Y4609D01*
X-2142Y4633D01*
X-2127Y4656D01*
X-2111Y4678D01*
X-2094Y4701D01*
X-2077Y4722D01*
X-2059Y4744D01*
X-2041Y4765D01*
X-2022Y4785D01*
X-2002Y4805D01*
X-1982Y4824D01*
X-1962Y4842D01*
X-1941Y4860D01*
X-1919Y4878D01*
X-1897Y4895D01*
X-1874Y4911D01*
X-1851Y4926D01*
X-1828Y4941D01*
X-1804Y4956D01*
X-1780Y4969D01*
X-1756Y4982D01*
X-1731Y4994D01*
X-1705Y5006D01*
X-1680Y5017D01*
X-1654Y5027D01*
X-1628Y5036D01*
X-1602Y5045D01*
X-1575Y5053D01*
X-1548Y5060D01*
X-1521Y5066D01*
X-1494Y5072D01*
X-1467Y5077D01*
X-1439Y5081D01*
X-1412Y5084D01*
X-1384Y5087D01*
X-1357Y5089D01*
X-1329Y5090D01*
X-1301Y5090D01*
X-1273Y5090D01*
X-1246Y5089D01*
X-1218Y5087D01*
X-1204Y5085D01*
X-1204Y5085D01*
X-1204Y4787D01*
X-1216Y4788D01*
X-1239Y4791D01*
X-1262Y4792D01*
X-1285Y4793D01*
X-1308Y4794D01*
X-1331Y4793D01*
X-1354Y4792D01*
X-1377Y4790D01*
X-1400Y4787D01*
X-1422Y4784D01*
X-1445Y4779D01*
X-1467Y4774D01*
X-1490Y4769D01*
X-1512Y4762D01*
X-1534Y4755D01*
X-1555Y4747D01*
X-1577Y4738D01*
X-1598Y4729D01*
X-1619Y4719D01*
X-1639Y4708D01*
X-1659Y4697D01*
X-1679Y4685D01*
X-1698Y4672D01*
X-1717Y4659D01*
X-1735Y4645D01*
X-1753Y4630D01*
X-1770Y4615D01*
X-1787Y4600D01*
X-1804Y4583D01*
X-1820Y4567D01*
X-1835Y4549D01*
X-1849Y4532D01*
X-1864Y4514D01*
X-1877Y4495D01*
X-1890Y4476D01*
X-1902Y4456D01*
X-1914Y4436D01*
X-1925Y4416D01*
X-1935Y4395D01*
X-1945Y4374D01*
X-1953Y4353D01*
X-1962Y4332D01*
X-1969Y4310D01*
X-1976Y4288D01*
X-1982Y4266D01*
X-1987Y4243D01*
X-1992Y4221D01*
X-1995Y4198D01*
X-1998Y4175D01*
X-2001Y4152D01*
X-2002Y4129D01*
X-2003Y4106D01*
Y4083D01*
X-2002Y4060D01*
X-2001Y4037D01*
X-1998Y4014D01*
X-1995Y3991D01*
X-1992Y3968D01*
X-1987Y3946D01*
X-1982Y3923D01*
X-1976Y3901D01*
X-1969Y3879D01*
X-1962Y3857D01*
X-1953Y3836D01*
X-1945Y3815D01*
X-1935Y3794D01*
X-1925Y3773D01*
X-1914Y3753D01*
X-1902Y3733D01*
X-1890Y3713D01*
X-1877Y3694D01*
X-1864Y3675D01*
X-1849Y3657D01*
X-1835Y3640D01*
X-1820Y3622D01*
X-1804Y3606D01*
X-1787Y3589D01*
X-1770Y3574D01*
X-1753Y3559D01*
X-1735Y3544D01*
X-1717Y3530D01*
X-1698Y3517D01*
X-1679Y3504D01*
X-1659Y3492D01*
X-1639Y3481D01*
X-1619Y3470D01*
X-1598Y3460D01*
X-1577Y3451D01*
X-1555Y3442D01*
X-1534Y3434D01*
X-1512Y3427D01*
X-1490Y3420D01*
X-1467Y3415D01*
X-1445Y3410D01*
X-1422Y3405D01*
X-1400Y3402D01*
X-1377Y3399D01*
X-1354Y3397D01*
X-1331Y3396D01*
X-1308Y3395D01*
X-1285Y3396D01*
X-1262Y3397D01*
X-1239Y3398D01*
X-1216Y3401D01*
X-1204Y3402D01*
X-1204Y3402D01*
X-1204Y3104D01*
D02*
G37*
G36*
X-294Y3945D02*
X-292Y3934D01*
X-286Y3913D01*
X-280Y3892D01*
X-274Y3872D01*
X-266Y3851D01*
X-259Y3831D01*
X-250Y3811D01*
X-241Y3791D01*
X-231Y3771D01*
X-221Y3752D01*
X-210Y3733D01*
X-198Y3715D01*
X-186Y3697D01*
X-173Y3679D01*
X-160Y3661D01*
X-146Y3645D01*
X-132Y3628D01*
X-117Y3612D01*
X-102Y3596D01*
X-86Y3581D01*
X-70Y3567D01*
X-53Y3553D01*
X-36Y3539D01*
X-18Y3526D01*
X-0Y3514D01*
X18Y3502D01*
X37Y3491D01*
X56Y3480D01*
X75Y3470D01*
X95Y3460D01*
X114Y3451D01*
X135Y3443D01*
X155Y3436D01*
X176Y3429D01*
X197Y3422D01*
X218Y3417D01*
X239Y3412D01*
X260Y3407D01*
X282Y3404D01*
X304Y3401D01*
X325Y3398D01*
X347Y3397D01*
X369Y3396D01*
X391Y3395D01*
X412Y3396D01*
X434Y3397D01*
X456Y3399D01*
X478Y3401D01*
X488Y3402D01*
X488Y3402D01*
Y3104D01*
X475Y3102D01*
X447Y3100D01*
X419Y3099D01*
X392Y3099D01*
X364Y3099D01*
X336Y3100D01*
X308Y3102D01*
X281Y3104D01*
X253Y3108D01*
X226Y3112D01*
X199Y3117D01*
X171Y3123D01*
X145Y3129D01*
X118Y3136D01*
X91Y3144D01*
X65Y3153D01*
X39Y3162D01*
X13Y3172D01*
X-13Y3183D01*
X-38Y3195D01*
X-63Y3207D01*
X-87Y3220D01*
X-111Y3233D01*
X-135Y3248D01*
X-159Y3263D01*
X-182Y3278D01*
X-204Y3294D01*
X-226Y3311D01*
X-248Y3329D01*
X-269Y3347D01*
X-289Y3365D01*
X-309Y3384D01*
X-329Y3404D01*
X-348Y3424D01*
X-366Y3445D01*
X-384Y3467D01*
X-401Y3488D01*
X-418Y3511D01*
X-434Y3533D01*
X-449Y3556D01*
X-464Y3580D01*
X-478Y3604D01*
X-491Y3628D01*
X-504Y3653D01*
X-516Y3678D01*
X-527Y3703D01*
X-537Y3729D01*
X-547Y3755D01*
X-556Y3781D01*
X-565Y3807D01*
X-572Y3834D01*
X-579Y3861D01*
X-585Y3888D01*
X-591Y3915D01*
X-595Y3943D01*
X-599Y3970D01*
X-602Y3998D01*
X-605Y4025D01*
X-606Y4053D01*
X-607Y4081D01*
Y4108D01*
X-606Y4136D01*
X-605Y4164D01*
X-602Y4191D01*
X-599Y4219D01*
X-595Y4246D01*
X-591Y4274D01*
X-585Y4301D01*
X-579Y4328D01*
X-572Y4355D01*
X-565Y4382D01*
X-556Y4408D01*
X-547Y4434D01*
X-537Y4460D01*
X-527Y4486D01*
X-516Y4511D01*
X-504Y4536D01*
X-491Y4561D01*
X-478Y4585D01*
X-464Y4609D01*
X-449Y4633D01*
X-434Y4656D01*
X-418Y4678D01*
X-401Y4701D01*
X-384Y4722D01*
X-366Y4744D01*
X-348Y4765D01*
X-329Y4785D01*
X-309Y4805D01*
X-289Y4824D01*
X-269Y4842D01*
X-248Y4860D01*
X-226Y4878D01*
X-204Y4895D01*
X-182Y4911D01*
X-159Y4926D01*
X-135Y4941D01*
X-111Y4956D01*
X-87Y4969D01*
X-63Y4982D01*
X-38Y4994D01*
X-13Y5006D01*
X13Y5017D01*
X39Y5027D01*
X65Y5036D01*
X91Y5045D01*
X118Y5053D01*
X145Y5060D01*
X171Y5066D01*
X199Y5072D01*
X226Y5077D01*
X253Y5081D01*
X281Y5084D01*
X308Y5087D01*
X336Y5089D01*
X364Y5090D01*
X392Y5090D01*
X419Y5090D01*
X447Y5089D01*
X475Y5087D01*
X488Y5085D01*
Y5085D01*
X488Y4787D01*
X478Y4788D01*
X456Y4790D01*
X434Y4792D01*
X412Y4793D01*
X391Y4794D01*
X369Y4793D01*
X347Y4792D01*
X325Y4791D01*
X304Y4788D01*
X282Y4785D01*
X260Y4782D01*
X239Y4777D01*
X218Y4772D01*
X197Y4767D01*
X176Y4760D01*
X155Y4753D01*
X135Y4746D01*
X114Y4738D01*
X95Y4729D01*
X75Y4719D01*
X56Y4709D01*
X37Y4698D01*
X18Y4687D01*
X-0Y4675D01*
X-18Y4663D01*
X-36Y4650D01*
X-53Y4636D01*
X-70Y4622D01*
X-86Y4608D01*
X-102Y4593D01*
X-117Y4577D01*
X-132Y4561D01*
X-146Y4544D01*
X-160Y4528D01*
X-173Y4510D01*
X-186Y4492D01*
X-198Y4474D01*
X-210Y4456D01*
X-221Y4437D01*
X-231Y4418D01*
X-241Y4398D01*
X-250Y4378D01*
X-259Y4358D01*
X-266Y4338D01*
X-274Y4317D01*
X-280Y4297D01*
X-286Y4276D01*
X-292Y4254D01*
X-294Y4244D01*
X-294D01*
X389D01*
X389Y3945D01*
X-294Y3945D01*
D02*
G37*
G36*
X3703Y-4128D02*
X2475Y-4753D01*
X2242Y-4297D01*
X3470Y-3672D01*
X3703Y-4128D01*
D02*
G37*
G36*
X-2847Y2521D02*
X-2844D01*
X-2840Y2521D01*
X-2836Y2520D01*
X-2831Y2520D01*
X-2826Y2519D01*
X-2820Y2518D01*
X-2814Y2516D01*
X-2809Y2515D01*
X-2803Y2513D01*
X-2797Y2510D01*
X-2791Y2508D01*
X-2786Y2504D01*
X-2781Y2501D01*
X-2781Y2501D01*
X-2780Y2500D01*
X-2779Y2499D01*
X-2777Y2497D01*
X-2775Y2495D01*
X-2773Y2492D01*
X-2771Y2489D01*
X-2768Y2486D01*
X-2766Y2482D01*
X-2763Y2478D01*
X-2761Y2473D01*
X-2759Y2468D01*
X-2758Y2463D01*
X-2757Y2457D01*
X-2756Y2451D01*
X-2755Y2444D01*
Y2444D01*
Y2443D01*
Y2442D01*
X-2756Y2440D01*
X-2756Y2438D01*
X-2756Y2435D01*
X-2757Y2432D01*
X-2757Y2429D01*
X-2759Y2422D01*
X-2760Y2418D01*
X-2761Y2415D01*
X-2763Y2411D01*
X-2765Y2407D01*
X-2767Y2404D01*
X-2769Y2400D01*
X-2770Y2400D01*
X-2770Y2400D01*
X-2771Y2399D01*
X-2772Y2397D01*
X-2773Y2396D01*
X-2775Y2394D01*
X-2777Y2393D01*
X-2779Y2391D01*
X-2782Y2389D01*
X-2785Y2387D01*
X-2788Y2385D01*
X-2792Y2383D01*
X-2795Y2381D01*
X-2799Y2379D01*
X-2804Y2378D01*
X-2808Y2377D01*
Y2376D01*
X-2808D01*
X-2807Y2376D01*
X-2805Y2375D01*
X-2803Y2375D01*
X-2800Y2374D01*
X-2798Y2374D01*
X-2794Y2373D01*
X-2791Y2371D01*
X-2787Y2370D01*
X-2783Y2369D01*
X-2779Y2367D01*
X-2776Y2365D01*
X-2772Y2362D01*
X-2768Y2359D01*
X-2765Y2356D01*
X-2762Y2353D01*
X-2761Y2353D01*
X-2761Y2352D01*
X-2760Y2351D01*
X-2759Y2349D01*
X-2758Y2347D01*
X-2756Y2345D01*
X-2755Y2342D01*
X-2753Y2339D01*
X-2752Y2336D01*
X-2750Y2332D01*
X-2749Y2328D01*
X-2748Y2323D01*
X-2747Y2318D01*
X-2746Y2313D01*
X-2745Y2307D01*
X-2745Y2302D01*
Y2301D01*
Y2300D01*
X-2745Y2298D01*
X-2746Y2295D01*
X-2746Y2291D01*
X-2747Y2287D01*
X-2748Y2282D01*
X-2749Y2278D01*
X-2750Y2272D01*
X-2752Y2267D01*
X-2754Y2261D01*
X-2757Y2256D01*
X-2760Y2251D01*
X-2764Y2245D01*
X-2768Y2240D01*
X-2773Y2236D01*
X-2773Y2235D01*
X-2774Y2235D01*
X-2776Y2234D01*
X-2778Y2232D01*
X-2781Y2230D01*
X-2784Y2228D01*
X-2788Y2226D01*
X-2793Y2224D01*
X-2798Y2222D01*
X-2804Y2219D01*
X-2810Y2217D01*
X-2817Y2216D01*
X-2824Y2214D01*
X-2832Y2213D01*
X-2840Y2212D01*
X-2849Y2212D01*
X-2852D01*
X-2854Y2212D01*
X-2857Y2212D01*
X-2861Y2213D01*
X-2866Y2213D01*
X-2872Y2214D01*
X-2877Y2215D01*
X-2884Y2216D01*
X-2890Y2218D01*
X-2896Y2220D01*
X-2903Y2222D01*
X-2909Y2225D01*
X-2915Y2228D01*
X-2921Y2231D01*
X-2927Y2236D01*
X-2927Y2236D01*
X-2928Y2237D01*
X-2929Y2238D01*
X-2931Y2240D01*
X-2933Y2243D01*
X-2935Y2246D01*
X-2938Y2249D01*
X-2940Y2253D01*
X-2943Y2258D01*
X-2946Y2263D01*
X-2948Y2268D01*
X-2950Y2274D01*
X-2952Y2281D01*
X-2953Y2288D01*
X-2954Y2295D01*
X-2955Y2303D01*
X-2899D01*
Y2303D01*
Y2302D01*
X-2899Y2301D01*
X-2899Y2300D01*
X-2898Y2298D01*
X-2898Y2296D01*
X-2897Y2292D01*
X-2895Y2287D01*
X-2893Y2282D01*
X-2891Y2279D01*
X-2889Y2277D01*
X-2887Y2274D01*
X-2885Y2272D01*
X-2885D01*
X-2884Y2272D01*
X-2883Y2271D01*
X-2882Y2271D01*
X-2881Y2270D01*
X-2879Y2269D01*
X-2877Y2268D01*
X-2875Y2267D01*
X-2873Y2266D01*
X-2870Y2265D01*
X-2867Y2264D01*
X-2864Y2263D01*
X-2860Y2263D01*
X-2857Y2262D01*
X-2853Y2262D01*
X-2849Y2262D01*
X-2847D01*
X-2845Y2262D01*
X-2843D01*
X-2841Y2262D01*
X-2838Y2263D01*
X-2836Y2263D01*
X-2830Y2265D01*
X-2824Y2266D01*
X-2819Y2269D01*
X-2816Y2271D01*
X-2814Y2273D01*
X-2814Y2273D01*
X-2813Y2273D01*
X-2813Y2274D01*
X-2812Y2275D01*
X-2811Y2276D01*
X-2810Y2278D01*
X-2809Y2280D01*
X-2808Y2282D01*
X-2807Y2284D01*
X-2806Y2286D01*
X-2805Y2289D01*
X-2804Y2292D01*
X-2803Y2295D01*
X-2802Y2299D01*
X-2802Y2303D01*
X-2802Y2307D01*
Y2307D01*
Y2307D01*
Y2309D01*
X-2802Y2310D01*
X-2802Y2312D01*
X-2803Y2315D01*
X-2804Y2320D01*
X-2806Y2325D01*
X-2807Y2328D01*
X-2808Y2331D01*
X-2810Y2333D01*
X-2812Y2336D01*
X-2814Y2338D01*
X-2817Y2340D01*
X-2817Y2341D01*
X-2818Y2341D01*
X-2819Y2341D01*
X-2820Y2342D01*
X-2822Y2343D01*
X-2824Y2344D01*
X-2826Y2344D01*
X-2829Y2345D01*
X-2832Y2346D01*
X-2836Y2347D01*
X-2840Y2348D01*
X-2844Y2349D01*
X-2849Y2349D01*
X-2855Y2350D01*
X-2860Y2350D01*
X-2879D01*
Y2394D01*
X-2864D01*
X-2862Y2394D01*
X-2858Y2395D01*
X-2854Y2395D01*
X-2850Y2396D01*
X-2845Y2397D01*
X-2840Y2399D01*
X-2835Y2401D01*
X-2830Y2404D01*
X-2826Y2407D01*
X-2821Y2411D01*
X-2818Y2416D01*
X-2815Y2421D01*
X-2814Y2424D01*
X-2814Y2427D01*
X-2813Y2431D01*
X-2813Y2434D01*
Y2435D01*
Y2435D01*
Y2436D01*
X-2813Y2437D01*
Y2439D01*
X-2813Y2441D01*
X-2814Y2444D01*
X-2816Y2449D01*
X-2817Y2453D01*
X-2820Y2458D01*
X-2822Y2460D01*
X-2824Y2462D01*
X-2824Y2462D01*
X-2825Y2463D01*
X-2826Y2463D01*
X-2828Y2465D01*
X-2831Y2467D01*
X-2835Y2468D01*
X-2841Y2470D01*
X-2847Y2471D01*
X-2853Y2471D01*
X-2855D01*
X-2857Y2471D01*
X-2858D01*
X-2860Y2471D01*
X-2865Y2470D01*
X-2870Y2469D01*
X-2875Y2467D01*
X-2880Y2465D01*
X-2885Y2462D01*
X-2885Y2461D01*
X-2886Y2460D01*
X-2888Y2458D01*
X-2890Y2455D01*
X-2892Y2451D01*
X-2894Y2446D01*
X-2895Y2441D01*
X-2896Y2438D01*
X-2896Y2435D01*
X-2951D01*
Y2435D01*
Y2436D01*
Y2437D01*
X-2951Y2439D01*
X-2951Y2442D01*
X-2950Y2445D01*
X-2949Y2449D01*
X-2949Y2454D01*
X-2948Y2458D01*
X-2946Y2463D01*
X-2944Y2468D01*
X-2942Y2474D01*
X-2939Y2479D01*
X-2936Y2484D01*
X-2933Y2489D01*
X-2929Y2494D01*
X-2924Y2498D01*
X-2924Y2499D01*
X-2923Y2499D01*
X-2921Y2501D01*
X-2919Y2502D01*
X-2916Y2504D01*
X-2913Y2506D01*
X-2909Y2508D01*
X-2905Y2510D01*
X-2900Y2512D01*
X-2895Y2514D01*
X-2889Y2516D01*
X-2882Y2518D01*
X-2875Y2519D01*
X-2868Y2520D01*
X-2860Y2521D01*
X-2852Y2521D01*
X-2850D01*
X-2847Y2521D01*
D02*
G37*
G36*
X-3008Y2218D02*
X-3063D01*
Y2462D01*
X-3080D01*
Y2515D01*
X-3008D01*
Y2218D01*
D02*
G37*
G36*
X-3129D02*
X-3190D01*
Y2279D01*
X-3129D01*
Y2218D01*
D02*
G37*
G36*
X-3255D02*
X-3309D01*
Y2462D01*
X-3327D01*
Y2515D01*
X-3255D01*
Y2218D01*
D02*
G37*
G36*
X-2516Y4678D02*
X-2487D01*
Y4629D01*
X-2516D01*
Y4578D01*
X-2568D01*
Y4629D01*
X-2713D01*
Y4672D01*
X-2570Y4875D01*
X-2516D01*
Y4678D01*
D02*
G37*
G36*
X-3002Y4578D02*
X-3063D01*
Y4639D01*
X-3002D01*
Y4578D01*
D02*
G37*
G36*
X-2847Y4881D02*
X-2845D01*
X-2842Y4881D01*
X-2837Y4880D01*
X-2832Y4879D01*
X-2826Y4878D01*
X-2820Y4876D01*
X-2813Y4874D01*
X-2806Y4872D01*
X-2799Y4868D01*
X-2792Y4864D01*
X-2785Y4860D01*
X-2779Y4854D01*
X-2773Y4848D01*
X-2767Y4841D01*
X-2767Y4841D01*
X-2766Y4839D01*
X-2764Y4837D01*
X-2763Y4834D01*
X-2760Y4830D01*
X-2758Y4825D01*
X-2755Y4819D01*
X-2752Y4812D01*
X-2750Y4804D01*
X-2747Y4796D01*
X-2745Y4786D01*
X-2742Y4776D01*
X-2740Y4765D01*
X-2739Y4753D01*
X-2738Y4740D01*
X-2738Y4727D01*
Y4726D01*
Y4726D01*
Y4725D01*
Y4723D01*
Y4722D01*
X-2738Y4720D01*
Y4717D01*
X-2738Y4714D01*
X-2738Y4711D01*
X-2739Y4708D01*
X-2739Y4705D01*
X-2739Y4701D01*
X-2740Y4693D01*
X-2741Y4684D01*
X-2743Y4675D01*
X-2745Y4666D01*
X-2747Y4657D01*
X-2750Y4647D01*
X-2754Y4638D01*
X-2758Y4629D01*
X-2762Y4620D01*
X-2767Y4612D01*
X-2767Y4612D01*
X-2769Y4610D01*
X-2770Y4608D01*
X-2773Y4606D01*
X-2776Y4603D01*
X-2779Y4599D01*
X-2784Y4596D01*
X-2789Y4592D01*
X-2794Y4588D01*
X-2800Y4585D01*
X-2807Y4581D01*
X-2815Y4578D01*
X-2823Y4576D01*
X-2831Y4574D01*
X-2841Y4572D01*
X-2851Y4572D01*
X-2853D01*
X-2854Y4572D01*
X-2856D01*
X-2859Y4573D01*
X-2864Y4573D01*
X-2869Y4574D01*
X-2875Y4575D01*
X-2881Y4577D01*
X-2888Y4579D01*
X-2895Y4582D01*
X-2902Y4585D01*
X-2909Y4589D01*
X-2916Y4593D01*
X-2922Y4599D01*
X-2929Y4605D01*
X-2934Y4612D01*
X-2935Y4612D01*
X-2935Y4614D01*
X-2937Y4616D01*
X-2939Y4619D01*
X-2941Y4623D01*
X-2944Y4629D01*
X-2946Y4634D01*
X-2949Y4641D01*
X-2952Y4649D01*
X-2954Y4658D01*
X-2957Y4667D01*
X-2959Y4677D01*
X-2961Y4688D01*
X-2962Y4700D01*
X-2963Y4713D01*
X-2964Y4727D01*
Y4727D01*
Y4728D01*
Y4729D01*
Y4730D01*
X-2963Y4732D01*
Y4734D01*
Y4736D01*
X-2963Y4739D01*
X-2963Y4742D01*
X-2963Y4745D01*
X-2962Y4749D01*
X-2962Y4752D01*
X-2961Y4760D01*
X-2960Y4769D01*
X-2958Y4778D01*
X-2956Y4787D01*
X-2954Y4797D01*
X-2951Y4806D01*
X-2948Y4816D01*
X-2944Y4825D01*
X-2939Y4833D01*
X-2934Y4841D01*
X-2934Y4842D01*
X-2933Y4843D01*
X-2931Y4845D01*
X-2929Y4848D01*
X-2926Y4850D01*
X-2922Y4854D01*
X-2918Y4857D01*
X-2913Y4861D01*
X-2907Y4865D01*
X-2901Y4869D01*
X-2894Y4872D01*
X-2887Y4875D01*
X-2879Y4878D01*
X-2870Y4880D01*
X-2860Y4881D01*
X-2851Y4881D01*
X-2848D01*
X-2847Y4881D01*
D02*
G37*
G36*
X-3210D02*
X-3209D01*
X-3205Y4881D01*
X-3201Y4880D01*
X-3195Y4879D01*
X-3189Y4878D01*
X-3183Y4876D01*
X-3176Y4874D01*
X-3170Y4872D01*
X-3163Y4868D01*
X-3156Y4864D01*
X-3149Y4860D01*
X-3142Y4854D01*
X-3136Y4848D01*
X-3130Y4841D01*
X-3130Y4841D01*
X-3129Y4839D01*
X-3128Y4837D01*
X-3126Y4834D01*
X-3124Y4830D01*
X-3121Y4825D01*
X-3119Y4819D01*
X-3116Y4812D01*
X-3113Y4804D01*
X-3110Y4796D01*
X-3108Y4786D01*
X-3106Y4776D01*
X-3104Y4765D01*
X-3102Y4753D01*
X-3101Y4740D01*
X-3101Y4727D01*
Y4726D01*
Y4726D01*
Y4725D01*
Y4723D01*
Y4722D01*
X-3101Y4720D01*
Y4717D01*
X-3102Y4714D01*
X-3102Y4711D01*
X-3102Y4708D01*
X-3102Y4705D01*
X-3103Y4701D01*
X-3104Y4693D01*
X-3105Y4684D01*
X-3106Y4675D01*
X-3108Y4666D01*
X-3111Y4657D01*
X-3114Y4647D01*
X-3117Y4638D01*
X-3121Y4629D01*
X-3125Y4620D01*
X-3131Y4612D01*
X-3131Y4612D01*
X-3132Y4610D01*
X-3134Y4608D01*
X-3136Y4606D01*
X-3139Y4603D01*
X-3143Y4599D01*
X-3147Y4596D01*
X-3152Y4592D01*
X-3158Y4588D01*
X-3164Y4585D01*
X-3171Y4581D01*
X-3178Y4578D01*
X-3186Y4576D01*
X-3195Y4574D01*
X-3204Y4572D01*
X-3214Y4572D01*
X-3216D01*
X-3218Y4572D01*
X-3219D01*
X-3223Y4573D01*
X-3227Y4573D01*
X-3233Y4574D01*
X-3239Y4575D01*
X-3245Y4577D01*
X-3251Y4579D01*
X-3258Y4582D01*
X-3265Y4585D01*
X-3272Y4589D01*
X-3279Y4593D01*
X-3286Y4599D01*
X-3292Y4605D01*
X-3298Y4612D01*
X-3298Y4612D01*
X-3299Y4614D01*
X-3300Y4616D01*
X-3302Y4619D01*
X-3305Y4623D01*
X-3307Y4629D01*
X-3310Y4634D01*
X-3312Y4641D01*
X-3315Y4649D01*
X-3318Y4658D01*
X-3320Y4667D01*
X-3323Y4677D01*
X-3324Y4688D01*
X-3326Y4700D01*
X-3327Y4713D01*
X-3327Y4727D01*
Y4727D01*
Y4728D01*
Y4729D01*
Y4730D01*
X-3327Y4732D01*
Y4734D01*
Y4736D01*
X-3327Y4739D01*
X-3326Y4742D01*
X-3326Y4745D01*
X-3326Y4749D01*
X-3325Y4752D01*
X-3325Y4760D01*
X-3323Y4769D01*
X-3322Y4778D01*
X-3320Y4787D01*
X-3318Y4797D01*
X-3315Y4806D01*
X-3311Y4816D01*
X-3307Y4825D01*
X-3303Y4833D01*
X-3298Y4841D01*
X-3298Y4842D01*
X-3296Y4843D01*
X-3295Y4845D01*
X-3292Y4848D01*
X-3289Y4850D01*
X-3286Y4854D01*
X-3281Y4857D01*
X-3276Y4861D01*
X-3271Y4865D01*
X-3264Y4869D01*
X-3258Y4872D01*
X-3250Y4875D01*
X-3242Y4878D01*
X-3233Y4880D01*
X-3224Y4881D01*
X-3214Y4881D01*
X-3212D01*
X-3210Y4881D01*
D02*
G37*
G36*
X-2602Y4091D02*
X-2599D01*
X-2595Y4091D01*
X-2591Y4090D01*
X-2586Y4089D01*
X-2581Y4088D01*
X-2575Y4087D01*
X-2569Y4086D01*
X-2564Y4084D01*
X-2558Y4082D01*
X-2552Y4079D01*
X-2546Y4076D01*
X-2541Y4073D01*
X-2536Y4069D01*
X-2536Y4068D01*
X-2535Y4068D01*
X-2534Y4066D01*
X-2532Y4065D01*
X-2530Y4062D01*
X-2528Y4059D01*
X-2526Y4056D01*
X-2523Y4053D01*
X-2521Y4048D01*
X-2519Y4044D01*
X-2517Y4038D01*
X-2515Y4033D01*
X-2513Y4027D01*
X-2512Y4021D01*
X-2511Y4014D01*
X-2511Y4007D01*
Y4006D01*
Y4005D01*
Y4004D01*
X-2511Y4002D01*
Y4000D01*
X-2512Y3998D01*
X-2512Y3995D01*
X-2512Y3991D01*
X-2513Y3988D01*
X-2514Y3984D01*
X-2516Y3977D01*
X-2517Y3973D01*
X-2519Y3968D01*
X-2520Y3964D01*
X-2522Y3960D01*
X-2523Y3960D01*
X-2523Y3959D01*
X-2524Y3958D01*
X-2525Y3956D01*
X-2526Y3954D01*
X-2527Y3952D01*
X-2529Y3949D01*
X-2531Y3946D01*
X-2534Y3942D01*
X-2537Y3939D01*
X-2540Y3934D01*
X-2543Y3930D01*
X-2548Y3926D01*
X-2552Y3921D01*
X-2556Y3916D01*
X-2561Y3911D01*
X-2632Y3837D01*
X-2510Y3838D01*
Y3788D01*
X-2706D01*
Y3830D01*
X-2605Y3938D01*
X-2605Y3938D01*
X-2604Y3939D01*
X-2603Y3940D01*
X-2602Y3941D01*
X-2600Y3943D01*
X-2598Y3945D01*
X-2596Y3948D01*
X-2593Y3950D01*
X-2589Y3956D01*
X-2584Y3962D01*
X-2579Y3969D01*
X-2577Y3971D01*
X-2575Y3974D01*
Y3974D01*
X-2575Y3975D01*
X-2575Y3976D01*
X-2574Y3977D01*
X-2573Y3978D01*
X-2573Y3980D01*
X-2571Y3983D01*
X-2569Y3988D01*
X-2568Y3993D01*
X-2567Y3998D01*
X-2567Y4003D01*
Y4003D01*
Y4004D01*
Y4005D01*
X-2567Y4006D01*
Y4008D01*
X-2567Y4009D01*
X-2568Y4013D01*
X-2569Y4018D01*
X-2572Y4022D01*
X-2574Y4027D01*
X-2576Y4029D01*
X-2578Y4031D01*
X-2578Y4031D01*
X-2578Y4032D01*
X-2579Y4032D01*
X-2580Y4033D01*
X-2581Y4033D01*
X-2582Y4034D01*
X-2586Y4036D01*
X-2590Y4038D01*
X-2595Y4040D01*
X-2601Y4041D01*
X-2604Y4041D01*
X-2610D01*
X-2611Y4041D01*
X-2613D01*
X-2615Y4041D01*
X-2619Y4040D01*
X-2625Y4038D01*
X-2630Y4036D01*
X-2633Y4035D01*
X-2635Y4033D01*
X-2638Y4032D01*
X-2640Y4029D01*
X-2640Y4029D01*
X-2641Y4029D01*
X-2641Y4028D01*
X-2642Y4027D01*
X-2643Y4026D01*
X-2644Y4025D01*
X-2645Y4023D01*
X-2646Y4021D01*
X-2647Y4019D01*
X-2649Y4016D01*
X-2649Y4014D01*
X-2650Y4011D01*
X-2652Y4004D01*
X-2652Y4001D01*
X-2653Y3997D01*
X-2707D01*
Y3997D01*
Y3997D01*
Y3998D01*
Y3999D01*
X-2707Y4001D01*
X-2707Y4004D01*
X-2706Y4008D01*
X-2705Y4012D01*
X-2704Y4017D01*
X-2703Y4022D01*
X-2702Y4028D01*
X-2700Y4033D01*
X-2698Y4039D01*
X-2695Y4045D01*
X-2692Y4051D01*
X-2688Y4056D01*
X-2684Y4061D01*
X-2679Y4066D01*
X-2679Y4067D01*
X-2678Y4067D01*
X-2677Y4069D01*
X-2674Y4070D01*
X-2672Y4072D01*
X-2669Y4074D01*
X-2665Y4076D01*
X-2660Y4079D01*
X-2655Y4081D01*
X-2650Y4083D01*
X-2644Y4085D01*
X-2637Y4087D01*
X-2630Y4089D01*
X-2623Y4090D01*
X-2615Y4091D01*
X-2606Y4091D01*
X-2604D01*
X-2602Y4091D01*
D02*
G37*
G36*
X-3002Y3788D02*
X-3063D01*
Y3849D01*
X-3002D01*
Y3788D01*
D02*
G37*
G36*
X-2847Y4091D02*
X-2845D01*
X-2842Y4091D01*
X-2837Y4090D01*
X-2832Y4089D01*
X-2826Y4088D01*
X-2820Y4086D01*
X-2813Y4084D01*
X-2806Y4082D01*
X-2799Y4078D01*
X-2792Y4074D01*
X-2785Y4070D01*
X-2779Y4064D01*
X-2773Y4058D01*
X-2767Y4051D01*
X-2767Y4051D01*
X-2766Y4049D01*
X-2764Y4047D01*
X-2763Y4044D01*
X-2760Y4040D01*
X-2758Y4035D01*
X-2755Y4029D01*
X-2752Y4022D01*
X-2750Y4014D01*
X-2747Y4006D01*
X-2745Y3996D01*
X-2742Y3986D01*
X-2740Y3975D01*
X-2739Y3963D01*
X-2738Y3950D01*
X-2738Y3937D01*
Y3936D01*
Y3936D01*
Y3935D01*
Y3933D01*
Y3932D01*
X-2738Y3930D01*
Y3927D01*
X-2738Y3924D01*
X-2738Y3921D01*
X-2739Y3918D01*
X-2739Y3915D01*
X-2739Y3911D01*
X-2740Y3903D01*
X-2741Y3894D01*
X-2743Y3885D01*
X-2745Y3876D01*
X-2747Y3867D01*
X-2750Y3857D01*
X-2754Y3848D01*
X-2758Y3839D01*
X-2762Y3830D01*
X-2767Y3822D01*
X-2767Y3822D01*
X-2769Y3820D01*
X-2770Y3818D01*
X-2773Y3816D01*
X-2776Y3813D01*
X-2779Y3809D01*
X-2784Y3806D01*
X-2789Y3802D01*
X-2794Y3798D01*
X-2800Y3795D01*
X-2807Y3791D01*
X-2815Y3788D01*
X-2823Y3786D01*
X-2831Y3784D01*
X-2841Y3782D01*
X-2851Y3782D01*
X-2853D01*
X-2854Y3782D01*
X-2856D01*
X-2859Y3783D01*
X-2864Y3783D01*
X-2869Y3784D01*
X-2875Y3785D01*
X-2881Y3787D01*
X-2888Y3789D01*
X-2895Y3792D01*
X-2902Y3795D01*
X-2909Y3799D01*
X-2916Y3803D01*
X-2922Y3809D01*
X-2929Y3815D01*
X-2934Y3822D01*
X-2935Y3822D01*
X-2935Y3824D01*
X-2937Y3826D01*
X-2939Y3829D01*
X-2941Y3833D01*
X-2944Y3839D01*
X-2946Y3844D01*
X-2949Y3851D01*
X-2952Y3859D01*
X-2954Y3868D01*
X-2957Y3877D01*
X-2959Y3887D01*
X-2961Y3898D01*
X-2962Y3910D01*
X-2963Y3923D01*
X-2964Y3937D01*
Y3937D01*
Y3938D01*
Y3939D01*
Y3940D01*
X-2963Y3942D01*
Y3944D01*
Y3946D01*
X-2963Y3949D01*
X-2963Y3952D01*
X-2963Y3955D01*
X-2962Y3959D01*
X-2962Y3962D01*
X-2961Y3970D01*
X-2960Y3979D01*
X-2958Y3988D01*
X-2956Y3997D01*
X-2954Y4007D01*
X-2951Y4016D01*
X-2948Y4026D01*
X-2944Y4035D01*
X-2939Y4043D01*
X-2934Y4051D01*
X-2934Y4052D01*
X-2933Y4053D01*
X-2931Y4055D01*
X-2929Y4058D01*
X-2926Y4060D01*
X-2922Y4064D01*
X-2918Y4067D01*
X-2913Y4071D01*
X-2907Y4075D01*
X-2901Y4079D01*
X-2894Y4082D01*
X-2887Y4085D01*
X-2879Y4088D01*
X-2870Y4090D01*
X-2860Y4091D01*
X-2851Y4091D01*
X-2848D01*
X-2847Y4091D01*
D02*
G37*
G36*
X-3210D02*
X-3209D01*
X-3205Y4091D01*
X-3201Y4090D01*
X-3195Y4089D01*
X-3189Y4088D01*
X-3183Y4086D01*
X-3176Y4084D01*
X-3170Y4082D01*
X-3163Y4078D01*
X-3156Y4074D01*
X-3149Y4070D01*
X-3142Y4064D01*
X-3136Y4058D01*
X-3130Y4051D01*
X-3130Y4051D01*
X-3129Y4049D01*
X-3128Y4047D01*
X-3126Y4044D01*
X-3124Y4040D01*
X-3121Y4035D01*
X-3119Y4029D01*
X-3116Y4022D01*
X-3113Y4014D01*
X-3110Y4006D01*
X-3108Y3996D01*
X-3106Y3986D01*
X-3104Y3975D01*
X-3102Y3963D01*
X-3101Y3950D01*
X-3101Y3937D01*
Y3936D01*
Y3936D01*
Y3935D01*
Y3933D01*
Y3932D01*
X-3101Y3930D01*
Y3927D01*
X-3102Y3924D01*
X-3102Y3921D01*
X-3102Y3918D01*
X-3102Y3915D01*
X-3103Y3911D01*
X-3104Y3903D01*
X-3105Y3894D01*
X-3106Y3885D01*
X-3108Y3876D01*
X-3111Y3867D01*
X-3114Y3857D01*
X-3117Y3848D01*
X-3121Y3839D01*
X-3125Y3830D01*
X-3131Y3822D01*
X-3131Y3822D01*
X-3132Y3820D01*
X-3134Y3818D01*
X-3136Y3816D01*
X-3139Y3813D01*
X-3143Y3809D01*
X-3147Y3806D01*
X-3152Y3802D01*
X-3158Y3798D01*
X-3164Y3795D01*
X-3171Y3791D01*
X-3178Y3788D01*
X-3186Y3786D01*
X-3195Y3784D01*
X-3204Y3782D01*
X-3214Y3782D01*
X-3216D01*
X-3218Y3782D01*
X-3219D01*
X-3223Y3783D01*
X-3227Y3783D01*
X-3233Y3784D01*
X-3239Y3785D01*
X-3245Y3787D01*
X-3251Y3789D01*
X-3258Y3792D01*
X-3265Y3795D01*
X-3272Y3799D01*
X-3279Y3803D01*
X-3286Y3809D01*
X-3292Y3815D01*
X-3298Y3822D01*
X-3298Y3822D01*
X-3299Y3824D01*
X-3300Y3826D01*
X-3302Y3829D01*
X-3305Y3833D01*
X-3307Y3839D01*
X-3310Y3844D01*
X-3312Y3851D01*
X-3315Y3859D01*
X-3318Y3868D01*
X-3320Y3877D01*
X-3323Y3887D01*
X-3324Y3898D01*
X-3326Y3910D01*
X-3327Y3923D01*
X-3327Y3937D01*
Y3937D01*
Y3938D01*
Y3939D01*
Y3940D01*
X-3327Y3942D01*
Y3944D01*
Y3946D01*
X-3327Y3949D01*
X-3326Y3952D01*
X-3326Y3955D01*
X-3326Y3959D01*
X-3325Y3962D01*
X-3325Y3970D01*
X-3323Y3979D01*
X-3322Y3988D01*
X-3320Y3997D01*
X-3318Y4007D01*
X-3315Y4016D01*
X-3311Y4026D01*
X-3307Y4035D01*
X-3303Y4043D01*
X-3298Y4051D01*
X-3298Y4052D01*
X-3296Y4053D01*
X-3295Y4055D01*
X-3292Y4058D01*
X-3289Y4060D01*
X-3286Y4064D01*
X-3281Y4067D01*
X-3276Y4071D01*
X-3271Y4075D01*
X-3264Y4079D01*
X-3258Y4082D01*
X-3250Y4085D01*
X-3242Y4088D01*
X-3233Y4090D01*
X-3224Y4091D01*
X-3214Y4091D01*
X-3212D01*
X-3210Y4091D01*
D02*
G37*
G36*
X3703Y4128D02*
X3470Y3672D01*
X2242Y4297D01*
X2475Y4753D01*
X3703Y4128D01*
D02*
G37*
G36*
X1594Y-5807D02*
X1083D01*
Y-4429D01*
X1594D01*
Y-5807D01*
D02*
G37*
G36*
X4665Y-2638D02*
X4154D01*
Y-1614D01*
X4665D01*
Y-2638D01*
D02*
G37*
G36*
X-2760Y3102D02*
X-2730D01*
Y3053D01*
X-2760D01*
Y3002D01*
X-2811D01*
Y3053D01*
X-2956D01*
Y3096D01*
X-2814Y3298D01*
X-2760D01*
Y3102D01*
D02*
G37*
G36*
X-3008Y3002D02*
X-3063D01*
Y3246D01*
X-3080D01*
Y3298D01*
X-3008D01*
Y3002D01*
D02*
G37*
G36*
X-3129D02*
X-3190D01*
Y3063D01*
X-3129D01*
Y3002D01*
D02*
G37*
G36*
X-3255D02*
X-3309D01*
Y3246D01*
X-3327D01*
Y3298D01*
X-3255D01*
Y3002D01*
D02*
G37*
G36*
X689Y-5059D02*
X-689D01*
Y-4547D01*
X689D01*
Y-5059D01*
D02*
G37*
G36*
X-630Y-925D02*
X-1142D01*
Y335D01*
X-630D01*
Y-925D01*
D02*
G37*
G36*
X1673Y4390D02*
X1161D01*
Y5768D01*
X1673D01*
Y4390D01*
D02*
G37*
G36*
X-2395Y-5049D02*
X-2449Y-5307D01*
X-2448Y-5308D01*
X-2252Y-5132D01*
X-2190Y-5167D01*
X-2463Y-5394D01*
X-2516Y-5363D01*
X-2456Y-5014D01*
X-2395Y-5049D01*
D02*
G37*
G36*
X-2066Y-5239D02*
X-2063Y-5241D01*
X-2059Y-5244D01*
X-2055Y-5247D01*
X-2050Y-5250D01*
X-2045Y-5254D01*
X-2040Y-5258D01*
X-2034Y-5263D01*
X-2029Y-5268D01*
X-2023Y-5274D01*
X-2017Y-5279D01*
X-2012Y-5286D01*
X-2007Y-5292D01*
X-2002Y-5299D01*
X-2002Y-5299D01*
X-2001Y-5301D01*
X-2000Y-5303D01*
X-1999Y-5305D01*
X-1997Y-5309D01*
X-1995Y-5313D01*
X-1993Y-5318D01*
X-1990Y-5323D01*
X-1988Y-5329D01*
X-1986Y-5335D01*
X-1984Y-5342D01*
X-1982Y-5349D01*
X-1981Y-5356D01*
X-1979Y-5364D01*
X-1979Y-5372D01*
X-1978Y-5380D01*
X-1978Y-5380D01*
X-1978Y-5382D01*
X-1978Y-5384D01*
X-1979Y-5387D01*
X-1979Y-5391D01*
X-1979Y-5396D01*
X-1980Y-5401D01*
X-1981Y-5407D01*
X-1983Y-5413D01*
X-1984Y-5420D01*
X-1986Y-5428D01*
X-1989Y-5435D01*
X-1991Y-5443D01*
X-1995Y-5451D01*
X-1999Y-5459D01*
X-2003Y-5467D01*
X-2003Y-5467D01*
X-2004Y-5468D01*
X-2004Y-5468D01*
X-2004Y-5469D01*
X-2006Y-5471D01*
X-2008Y-5474D01*
X-2010Y-5478D01*
X-2013Y-5482D01*
X-2017Y-5487D01*
X-2021Y-5492D01*
X-2025Y-5497D01*
X-2030Y-5502D01*
X-2035Y-5508D01*
X-2041Y-5513D01*
X-2047Y-5518D01*
X-2053Y-5524D01*
X-2060Y-5528D01*
X-2067Y-5532D01*
X-2067Y-5533D01*
X-2068Y-5533D01*
X-2070Y-5534D01*
X-2073Y-5536D01*
X-2077Y-5537D01*
X-2081Y-5539D01*
X-2086Y-5541D01*
X-2091Y-5543D01*
X-2097Y-5545D01*
X-2103Y-5547D01*
X-2110Y-5548D01*
X-2117Y-5550D01*
X-2125Y-5551D01*
X-2132Y-5552D01*
X-2140Y-5552D01*
X-2148Y-5552D01*
X-2149Y-5552D01*
X-2150Y-5552D01*
X-2153Y-5551D01*
X-2156Y-5551D01*
X-2160Y-5551D01*
X-2165Y-5550D01*
X-2170Y-5549D01*
X-2176Y-5548D01*
X-2182Y-5546D01*
X-2189Y-5544D01*
X-2196Y-5542D01*
X-2204Y-5539D01*
X-2212Y-5536D01*
X-2220Y-5533D01*
X-2228Y-5529D01*
X-2236Y-5524D01*
X-2328Y-5471D01*
X-2162Y-5184D01*
X-2066Y-5239D01*
D02*
G37*
G36*
X-1785Y-5401D02*
X-1782Y-5403D01*
X-1778Y-5406D01*
X-1774Y-5409D01*
X-1769Y-5412D01*
X-1764Y-5416D01*
X-1759Y-5420D01*
X-1753Y-5425D01*
X-1748Y-5430D01*
X-1742Y-5436D01*
X-1736Y-5442D01*
X-1731Y-5448D01*
X-1726Y-5454D01*
X-1721Y-5461D01*
X-1721Y-5462D01*
X-1720Y-5463D01*
X-1719Y-5465D01*
X-1718Y-5468D01*
X-1716Y-5471D01*
X-1714Y-5475D01*
X-1712Y-5480D01*
X-1709Y-5485D01*
X-1707Y-5491D01*
X-1705Y-5497D01*
X-1703Y-5504D01*
X-1701Y-5511D01*
X-1700Y-5518D01*
X-1699Y-5526D01*
X-1698Y-5534D01*
X-1697Y-5542D01*
X-1697Y-5542D01*
X-1697Y-5544D01*
X-1698Y-5546D01*
X-1698Y-5549D01*
X-1698Y-5553D01*
X-1699Y-5558D01*
X-1699Y-5563D01*
X-1700Y-5569D01*
X-1702Y-5576D01*
X-1703Y-5582D01*
X-1705Y-5590D01*
X-1708Y-5597D01*
X-1711Y-5605D01*
X-1714Y-5613D01*
X-1718Y-5621D01*
X-1722Y-5629D01*
X-1722Y-5630D01*
X-1723Y-5630D01*
X-1723Y-5630D01*
X-1723Y-5631D01*
X-1725Y-5633D01*
X-1727Y-5637D01*
X-1729Y-5640D01*
X-1733Y-5644D01*
X-1736Y-5649D01*
X-1740Y-5654D01*
X-1744Y-5659D01*
X-1749Y-5665D01*
X-1754Y-5670D01*
X-1760Y-5675D01*
X-1766Y-5681D01*
X-1772Y-5686D01*
X-1779Y-5690D01*
X-1786Y-5695D01*
X-1786Y-5695D01*
X-1787Y-5695D01*
X-1789Y-5697D01*
X-1792Y-5698D01*
X-1796Y-5699D01*
X-1800Y-5701D01*
X-1805Y-5703D01*
X-1810Y-5705D01*
X-1816Y-5707D01*
X-1822Y-5709D01*
X-1829Y-5711D01*
X-1836Y-5712D01*
X-1844Y-5713D01*
X-1851Y-5714D01*
X-1859Y-5714D01*
X-1867Y-5714D01*
X-1868Y-5714D01*
X-1869Y-5714D01*
X-1872Y-5714D01*
X-1875Y-5713D01*
X-1879Y-5713D01*
X-1884Y-5712D01*
X-1889Y-5711D01*
X-1895Y-5710D01*
X-1901Y-5708D01*
X-1908Y-5706D01*
X-1915Y-5704D01*
X-1923Y-5702D01*
X-1931Y-5699D01*
X-1939Y-5695D01*
X-1947Y-5691D01*
X-1955Y-5687D01*
X-2047Y-5633D01*
X-1881Y-5346D01*
X-1785Y-5401D01*
D02*
G37*
G36*
X-1395Y-5049D02*
X-1449Y-5307D01*
X-1448Y-5308D01*
X-1252Y-5132D01*
X-1190Y-5167D01*
X-1463Y-5394D01*
X-1516Y-5363D01*
X-1456Y-5014D01*
X-1395Y-5049D01*
D02*
G37*
G36*
X-1046Y-5250D02*
X-1044Y-5252D01*
X-1042Y-5253D01*
X-1039Y-5256D01*
X-1035Y-5258D01*
X-1031Y-5261D01*
X-1027Y-5265D01*
X-1023Y-5268D01*
X-1018Y-5273D01*
X-1014Y-5277D01*
X-1010Y-5282D01*
X-1006Y-5287D01*
X-1002Y-5293D01*
X-999Y-5298D01*
X-996Y-5304D01*
X-996Y-5305D01*
X-996Y-5306D01*
X-995Y-5308D01*
X-994Y-5310D01*
X-994Y-5313D01*
X-993Y-5316D01*
X-993Y-5321D01*
X-992Y-5325D01*
X-992Y-5330D01*
X-992Y-5335D01*
X-993Y-5341D01*
X-994Y-5346D01*
X-995Y-5352D01*
X-997Y-5359D01*
X-1000Y-5365D01*
X-1003Y-5372D01*
X-1004Y-5372D01*
X-1004Y-5373D01*
X-1005Y-5374D01*
X-1006Y-5375D01*
X-1007Y-5377D01*
X-1009Y-5379D01*
X-1011Y-5382D01*
X-1013Y-5385D01*
X-1018Y-5390D01*
X-1023Y-5395D01*
X-1027Y-5398D01*
X-1030Y-5400D01*
X-1034Y-5403D01*
X-1038Y-5405D01*
X-1038Y-5405D01*
X-1038Y-5405D01*
X-1040Y-5406D01*
X-1041Y-5406D01*
X-1043Y-5407D01*
X-1045Y-5407D01*
X-1048Y-5408D01*
X-1051Y-5409D01*
X-1054Y-5409D01*
X-1058Y-5410D01*
X-1062Y-5410D01*
X-1065Y-5410D01*
X-1069Y-5410D01*
X-1074Y-5410D01*
X-1078Y-5409D01*
X-1083Y-5408D01*
X-1084Y-5409D01*
X-1084Y-5409D01*
X-1083Y-5410D01*
X-1081Y-5411D01*
X-1080Y-5413D01*
X-1078Y-5415D01*
X-1076Y-5417D01*
X-1073Y-5419D01*
X-1071Y-5422D01*
X-1068Y-5425D01*
X-1066Y-5429D01*
X-1063Y-5433D01*
X-1061Y-5437D01*
X-1059Y-5441D01*
X-1057Y-5446D01*
X-1055Y-5451D01*
X-1054Y-5456D01*
X-1054Y-5456D01*
X-1054Y-5457D01*
X-1053Y-5458D01*
X-1053Y-5460D01*
X-1053Y-5463D01*
X-1053Y-5466D01*
X-1053Y-5469D01*
X-1053Y-5473D01*
X-1054Y-5477D01*
X-1055Y-5482D01*
X-1056Y-5486D01*
X-1057Y-5492D01*
X-1059Y-5497D01*
X-1061Y-5503D01*
X-1063Y-5508D01*
X-1066Y-5514D01*
X-1067Y-5514D01*
X-1068Y-5516D01*
X-1069Y-5518D01*
X-1071Y-5520D01*
X-1073Y-5523D01*
X-1076Y-5527D01*
X-1079Y-5531D01*
X-1083Y-5535D01*
X-1087Y-5538D01*
X-1092Y-5543D01*
X-1097Y-5546D01*
X-1102Y-5550D01*
X-1108Y-5553D01*
X-1114Y-5556D01*
X-1121Y-5558D01*
X-1128Y-5559D01*
X-1128Y-5559D01*
X-1129Y-5560D01*
X-1132Y-5560D01*
X-1134Y-5560D01*
X-1138Y-5560D01*
X-1142Y-5560D01*
X-1147Y-5560D01*
X-1152Y-5559D01*
X-1158Y-5559D01*
X-1164Y-5557D01*
X-1170Y-5556D01*
X-1177Y-5554D01*
X-1184Y-5552D01*
X-1191Y-5549D01*
X-1199Y-5546D01*
X-1206Y-5542D01*
X-1328Y-5471D01*
X-1162Y-5184D01*
X-1046Y-5250D01*
D02*
G37*
G36*
X-434Y-5604D02*
X-463Y-5653D01*
X-542Y-5608D01*
X-679Y-5846D01*
X-732Y-5816D01*
X-594Y-5577D01*
X-673Y-5532D01*
X-644Y-5482D01*
X-434Y-5604D01*
D02*
G37*
G36*
X-764Y-5413D02*
X-815Y-5768D01*
X-873Y-5734D01*
X-860Y-5655D01*
X-978Y-5586D01*
X-1040Y-5637D01*
X-1099Y-5604D01*
X-817Y-5383D01*
X-764Y-5413D01*
D02*
G37*
G36*
X-3390Y-5069D02*
X-3389Y-5069D01*
X-3386Y-5069D01*
X-3383Y-5069D01*
X-3379Y-5070D01*
X-3374Y-5071D01*
X-3368Y-5071D01*
X-3362Y-5073D01*
X-3355Y-5074D01*
X-3348Y-5076D01*
X-3340Y-5078D01*
X-3332Y-5081D01*
X-3324Y-5084D01*
X-3316Y-5088D01*
X-3307Y-5092D01*
X-3298Y-5097D01*
X-3295Y-5098D01*
X-3294Y-5100D01*
X-3292Y-5101D01*
X-3290Y-5102D01*
X-3288Y-5104D01*
X-3285Y-5105D01*
X-3283Y-5107D01*
X-3279Y-5110D01*
X-3276Y-5112D01*
X-3270Y-5117D01*
X-3263Y-5124D01*
X-3256Y-5131D01*
X-3248Y-5138D01*
X-3240Y-5147D01*
X-3233Y-5156D01*
X-3226Y-5166D01*
X-3220Y-5176D01*
X-3214Y-5188D01*
X-3211Y-5193D01*
X-3209Y-5199D01*
X-3269Y-5224D01*
X-3269Y-5223D01*
X-3270Y-5222D01*
X-3271Y-5220D01*
X-3273Y-5216D01*
X-3275Y-5212D01*
X-3277Y-5207D01*
X-3280Y-5202D01*
X-3284Y-5196D01*
X-3288Y-5191D01*
X-3293Y-5184D01*
X-3298Y-5178D01*
X-3303Y-5172D01*
X-3309Y-5166D01*
X-3316Y-5160D01*
X-3323Y-5154D01*
X-3332Y-5149D01*
X-3334Y-5148D01*
X-3337Y-5147D01*
X-3339Y-5146D01*
X-3342Y-5144D01*
X-3346Y-5143D01*
X-3349Y-5141D01*
X-3354Y-5139D01*
X-3358Y-5138D01*
X-3363Y-5137D01*
X-3368Y-5135D01*
X-3373Y-5134D01*
X-3378Y-5134D01*
X-3384Y-5133D01*
X-3389Y-5133D01*
X-3390Y-5133D01*
X-3390Y-5133D01*
X-3392Y-5133D01*
X-3394Y-5133D01*
X-3396Y-5133D01*
X-3400Y-5134D01*
X-3403Y-5134D01*
X-3407Y-5135D01*
X-3410Y-5136D01*
X-3415Y-5137D01*
X-3419Y-5138D01*
X-3424Y-5139D01*
X-3428Y-5141D01*
X-3433Y-5143D01*
X-3438Y-5146D01*
X-3442Y-5148D01*
X-3443Y-5148D01*
X-3443Y-5149D01*
X-3445Y-5150D01*
X-3446Y-5151D01*
X-3448Y-5153D01*
X-3451Y-5155D01*
X-3453Y-5157D01*
X-3456Y-5159D01*
X-3459Y-5162D01*
X-3462Y-5165D01*
X-3466Y-5169D01*
X-3469Y-5172D01*
X-3472Y-5177D01*
X-3476Y-5181D01*
X-3479Y-5186D01*
X-3482Y-5191D01*
X-3482Y-5191D01*
X-3483Y-5192D01*
X-3484Y-5193D01*
X-3485Y-5196D01*
X-3486Y-5198D01*
X-3487Y-5201D01*
X-3489Y-5205D01*
X-3490Y-5208D01*
X-3492Y-5212D01*
X-3493Y-5217D01*
X-3496Y-5226D01*
X-3497Y-5231D01*
X-3498Y-5237D01*
X-3498Y-5242D01*
X-3499Y-5247D01*
X-3499Y-5248D01*
X-3499Y-5249D01*
X-3499Y-5250D01*
X-3499Y-5252D01*
X-3498Y-5255D01*
X-3498Y-5258D01*
X-3498Y-5261D01*
X-3497Y-5265D01*
X-3497Y-5269D01*
X-3496Y-5273D01*
X-3494Y-5278D01*
X-3493Y-5282D01*
X-3492Y-5287D01*
X-3490Y-5292D01*
X-3487Y-5296D01*
X-3485Y-5301D01*
X-3485Y-5302D01*
X-3484Y-5302D01*
X-3483Y-5304D01*
X-3482Y-5305D01*
X-3481Y-5307D01*
X-3478Y-5310D01*
X-3476Y-5313D01*
X-3474Y-5316D01*
X-3471Y-5319D01*
X-3467Y-5322D01*
X-3464Y-5326D01*
X-3460Y-5330D01*
X-3456Y-5333D01*
X-3451Y-5337D01*
X-3446Y-5340D01*
X-3440Y-5343D01*
X-3438Y-5345D01*
X-3436Y-5346D01*
X-3434Y-5347D01*
X-3431Y-5348D01*
X-3428Y-5349D01*
X-3424Y-5351D01*
X-3417Y-5354D01*
X-3408Y-5356D01*
X-3399Y-5358D01*
X-3395Y-5359D01*
X-3390Y-5359D01*
X-3390Y-5359D01*
X-3389Y-5359D01*
X-3388Y-5359D01*
X-3386Y-5359D01*
X-3384Y-5359D01*
X-3382Y-5359D01*
X-3376Y-5358D01*
X-3369Y-5358D01*
X-3362Y-5356D01*
X-3355Y-5354D01*
X-3348Y-5351D01*
X-3347Y-5350D01*
X-3347Y-5350D01*
X-3346Y-5349D01*
X-3345Y-5349D01*
X-3343Y-5348D01*
X-3341Y-5347D01*
X-3339Y-5345D01*
X-3337Y-5344D01*
X-3332Y-5340D01*
X-3327Y-5336D01*
X-3322Y-5331D01*
X-3318Y-5325D01*
X-3400Y-5277D01*
X-3372Y-5229D01*
X-3234Y-5309D01*
X-3234Y-5309D01*
X-3234Y-5310D01*
X-3235Y-5311D01*
X-3236Y-5313D01*
X-3237Y-5316D01*
X-3239Y-5319D01*
X-3241Y-5322D01*
X-3243Y-5326D01*
X-3243Y-5326D01*
X-3243Y-5326D01*
X-3244Y-5327D01*
X-3244Y-5327D01*
X-3245Y-5330D01*
X-3247Y-5333D01*
X-3250Y-5336D01*
X-3253Y-5340D01*
X-3256Y-5345D01*
X-3260Y-5350D01*
X-3264Y-5355D01*
X-3269Y-5361D01*
X-3274Y-5366D01*
X-3279Y-5372D01*
X-3285Y-5378D01*
X-3291Y-5383D01*
X-3297Y-5388D01*
X-3304Y-5393D01*
X-3304Y-5393D01*
X-3305Y-5394D01*
X-3307Y-5395D01*
X-3310Y-5397D01*
X-3313Y-5399D01*
X-3317Y-5401D01*
X-3322Y-5404D01*
X-3327Y-5406D01*
X-3332Y-5409D01*
X-3339Y-5411D01*
X-3345Y-5413D01*
X-3352Y-5415D01*
X-3359Y-5417D01*
X-3367Y-5419D01*
X-3375Y-5420D01*
X-3383Y-5420D01*
X-3384Y-5420D01*
X-3385Y-5420D01*
X-3388Y-5420D01*
X-3391Y-5420D01*
X-3395Y-5420D01*
X-3399Y-5420D01*
X-3405Y-5419D01*
X-3411Y-5418D01*
X-3418Y-5417D01*
X-3425Y-5415D01*
X-3432Y-5413D01*
X-3440Y-5411D01*
X-3448Y-5407D01*
X-3456Y-5404D01*
X-3465Y-5400D01*
X-3474Y-5395D01*
X-3476Y-5394D01*
X-3478Y-5393D01*
X-3481Y-5391D01*
X-3485Y-5388D01*
X-3489Y-5385D01*
X-3494Y-5382D01*
X-3499Y-5378D01*
X-3504Y-5373D01*
X-3510Y-5369D01*
X-3516Y-5363D01*
X-3521Y-5358D01*
X-3527Y-5351D01*
X-3532Y-5345D01*
X-3537Y-5339D01*
X-3542Y-5331D01*
X-3542Y-5331D01*
X-3543Y-5330D01*
X-3544Y-5328D01*
X-3546Y-5325D01*
X-3548Y-5321D01*
X-3550Y-5317D01*
X-3552Y-5312D01*
X-3554Y-5307D01*
X-3556Y-5301D01*
X-3558Y-5294D01*
X-3560Y-5288D01*
X-3562Y-5280D01*
X-3564Y-5273D01*
X-3565Y-5265D01*
X-3566Y-5257D01*
X-3566Y-5248D01*
X-3566Y-5248D01*
X-3566Y-5246D01*
X-3566Y-5244D01*
X-3565Y-5240D01*
X-3565Y-5236D01*
X-3564Y-5231D01*
X-3564Y-5226D01*
X-3562Y-5220D01*
X-3561Y-5213D01*
X-3559Y-5206D01*
X-3557Y-5199D01*
X-3555Y-5191D01*
X-3552Y-5183D01*
X-3548Y-5175D01*
X-3544Y-5166D01*
X-3539Y-5158D01*
X-3539Y-5157D01*
X-3539Y-5157D01*
X-3539Y-5157D01*
X-3538Y-5156D01*
X-3537Y-5154D01*
X-3535Y-5150D01*
X-3532Y-5147D01*
X-3529Y-5143D01*
X-3526Y-5138D01*
X-3522Y-5133D01*
X-3518Y-5127D01*
X-3513Y-5122D01*
X-3507Y-5116D01*
X-3502Y-5111D01*
X-3496Y-5105D01*
X-3489Y-5100D01*
X-3482Y-5095D01*
X-3475Y-5090D01*
X-3475Y-5090D01*
X-3474Y-5089D01*
X-3471Y-5088D01*
X-3469Y-5087D01*
X-3465Y-5085D01*
X-3461Y-5083D01*
X-3456Y-5081D01*
X-3450Y-5079D01*
X-3444Y-5077D01*
X-3438Y-5075D01*
X-3431Y-5073D01*
X-3423Y-5071D01*
X-3415Y-5070D01*
X-3408Y-5069D01*
X-3399Y-5069D01*
X-3391Y-5069D01*
X-3390Y-5069D01*
D02*
G37*
G36*
X-3077Y-5233D02*
X-3051Y-5511D01*
X-3051Y-5512D01*
X-2937Y-5314D01*
X-2884Y-5344D01*
X-3050Y-5632D01*
X-3099Y-5604D01*
X-3125Y-5326D01*
X-3125Y-5325D01*
X-3239Y-5523D01*
X-3292Y-5492D01*
X-3126Y-5204D01*
X-3077Y-5233D01*
D02*
G37*
G36*
X-2734Y-5431D02*
X-2731Y-5433D01*
X-2727Y-5436D01*
X-2723Y-5439D01*
X-2718Y-5442D01*
X-2713Y-5446D01*
X-2708Y-5450D01*
X-2702Y-5455D01*
X-2696Y-5460D01*
X-2691Y-5465D01*
X-2685Y-5471D01*
X-2680Y-5478D01*
X-2675Y-5484D01*
X-2670Y-5491D01*
X-2670Y-5491D01*
X-2669Y-5493D01*
X-2668Y-5494D01*
X-2667Y-5497D01*
X-2665Y-5501D01*
X-2663Y-5505D01*
X-2660Y-5509D01*
X-2658Y-5515D01*
X-2656Y-5521D01*
X-2654Y-5527D01*
X-2652Y-5533D01*
X-2650Y-5540D01*
X-2648Y-5548D01*
X-2647Y-5556D01*
X-2647Y-5563D01*
X-2646Y-5572D01*
X-2646Y-5572D01*
X-2646Y-5574D01*
X-2646Y-5576D01*
X-2646Y-5579D01*
X-2647Y-5583D01*
X-2647Y-5588D01*
X-2648Y-5593D01*
X-2649Y-5599D01*
X-2650Y-5605D01*
X-2652Y-5612D01*
X-2654Y-5619D01*
X-2657Y-5627D01*
X-2659Y-5635D01*
X-2663Y-5643D01*
X-2667Y-5651D01*
X-2671Y-5659D01*
X-2671Y-5659D01*
X-2671Y-5659D01*
X-2672Y-5660D01*
X-2672Y-5661D01*
X-2674Y-5663D01*
X-2676Y-5666D01*
X-2678Y-5670D01*
X-2681Y-5674D01*
X-2685Y-5679D01*
X-2689Y-5684D01*
X-2693Y-5689D01*
X-2698Y-5694D01*
X-2703Y-5700D01*
X-2709Y-5705D01*
X-2715Y-5710D01*
X-2721Y-5715D01*
X-2728Y-5720D01*
X-2734Y-5724D01*
X-2735Y-5725D01*
X-2736Y-5725D01*
X-2738Y-5726D01*
X-2741Y-5728D01*
X-2745Y-5729D01*
X-2749Y-5731D01*
X-2754Y-5733D01*
X-2759Y-5735D01*
X-2765Y-5737D01*
X-2771Y-5739D01*
X-2778Y-5740D01*
X-2785Y-5742D01*
X-2792Y-5743D01*
X-2800Y-5744D01*
X-2808Y-5744D01*
X-2816Y-5744D01*
X-2817Y-5744D01*
X-2818Y-5743D01*
X-2821Y-5743D01*
X-2824Y-5743D01*
X-2828Y-5742D01*
X-2833Y-5742D01*
X-2838Y-5741D01*
X-2844Y-5739D01*
X-2850Y-5738D01*
X-2857Y-5736D01*
X-2864Y-5734D01*
X-2872Y-5731D01*
X-2880Y-5728D01*
X-2888Y-5725D01*
X-2896Y-5721D01*
X-2904Y-5716D01*
X-2996Y-5663D01*
X-2830Y-5375D01*
X-2734Y-5431D01*
D02*
G37*
G36*
X5642Y-3069D02*
X5589Y-3137D01*
X5288Y-2901D01*
X5271Y-2923D01*
X5206Y-2872D01*
X5276Y-2783D01*
X5642Y-3069D01*
D02*
G37*
G36*
X5178Y-2972D02*
X5185Y-2972D01*
X5192Y-2973D01*
X5199Y-2974D01*
X5207Y-2976D01*
X5215Y-2978D01*
X5224Y-2981D01*
X5233Y-2985D01*
X5242Y-2990D01*
X5251Y-2995D01*
X5260Y-3002D01*
X5261Y-3002D01*
X5262Y-3003D01*
X5263Y-3004D01*
X5265Y-3006D01*
X5268Y-3008D01*
X5271Y-3011D01*
X5274Y-3014D01*
X5278Y-3018D01*
X5281Y-3022D01*
X5285Y-3027D01*
X5293Y-3037D01*
X5296Y-3042D01*
X5300Y-3048D01*
X5304Y-3054D01*
X5307Y-3061D01*
X5307Y-3062D01*
X5307Y-3063D01*
X5308Y-3065D01*
X5309Y-3067D01*
X5311Y-3071D01*
X5312Y-3075D01*
X5314Y-3080D01*
X5316Y-3086D01*
X5317Y-3092D01*
X5319Y-3100D01*
X5321Y-3108D01*
X5323Y-3116D01*
X5325Y-3125D01*
X5327Y-3135D01*
X5329Y-3145D01*
X5330Y-3156D01*
X5353Y-3314D01*
X5469Y-3164D01*
X5531Y-3212D01*
X5342Y-3454D01*
X5291Y-3414D01*
X5255Y-3185D01*
X5255Y-3184D01*
X5254Y-3183D01*
X5254Y-3180D01*
X5253Y-3177D01*
X5253Y-3173D01*
X5252Y-3168D01*
X5251Y-3163D01*
X5250Y-3158D01*
X5248Y-3146D01*
X5245Y-3134D01*
X5242Y-3123D01*
X5240Y-3117D01*
X5238Y-3113D01*
X5238Y-3112D01*
X5238Y-3111D01*
X5237Y-3110D01*
X5236Y-3108D01*
X5235Y-3107D01*
X5234Y-3104D01*
X5231Y-3099D01*
X5227Y-3092D01*
X5222Y-3086D01*
X5217Y-3080D01*
X5211Y-3074D01*
X5211Y-3074D01*
X5210Y-3074D01*
X5209Y-3073D01*
X5207Y-3072D01*
X5205Y-3070D01*
X5203Y-3069D01*
X5197Y-3066D01*
X5190Y-3063D01*
X5182Y-3062D01*
X5174Y-3060D01*
X5170Y-3060D01*
X5165Y-3061D01*
X5165Y-3061D01*
X5164Y-3061D01*
X5163Y-3062D01*
X5162Y-3062D01*
X5160Y-3063D01*
X5157Y-3063D01*
X5151Y-3066D01*
X5145Y-3069D01*
X5138Y-3074D01*
X5131Y-3080D01*
X5128Y-3084D01*
X5122Y-3090D01*
X5121Y-3092D01*
X5119Y-3095D01*
X5118Y-3097D01*
X5115Y-3104D01*
X5111Y-3112D01*
X5109Y-3120D01*
X5108Y-3125D01*
X5107Y-3130D01*
X5107Y-3135D01*
X5107Y-3140D01*
X5107Y-3140D01*
X5107Y-3141D01*
X5108Y-3142D01*
X5108Y-3144D01*
X5109Y-3146D01*
X5110Y-3149D01*
X5111Y-3152D01*
X5112Y-3155D01*
X5114Y-3159D01*
X5115Y-3162D01*
X5118Y-3166D01*
X5121Y-3170D01*
X5127Y-3178D01*
X5131Y-3182D01*
X5136Y-3186D01*
X5083Y-3253D01*
X5083Y-3253D01*
X5082Y-3253D01*
X5082Y-3252D01*
X5081Y-3252D01*
X5078Y-3249D01*
X5074Y-3246D01*
X5070Y-3242D01*
X5066Y-3237D01*
X5061Y-3231D01*
X5056Y-3224D01*
X5050Y-3217D01*
X5045Y-3210D01*
X5040Y-3201D01*
X5036Y-3192D01*
X5031Y-3183D01*
X5028Y-3173D01*
X5026Y-3163D01*
X5024Y-3152D01*
X5024Y-3152D01*
X5024Y-3150D01*
X5024Y-3147D01*
X5024Y-3142D01*
X5024Y-3137D01*
X5025Y-3131D01*
X5026Y-3124D01*
X5027Y-3116D01*
X5029Y-3108D01*
X5032Y-3099D01*
X5035Y-3090D01*
X5039Y-3080D01*
X5044Y-3070D01*
X5049Y-3059D01*
X5056Y-3048D01*
X5064Y-3038D01*
X5066Y-3035D01*
X5068Y-3033D01*
X5071Y-3029D01*
X5076Y-3025D01*
X5080Y-3020D01*
X5086Y-3014D01*
X5092Y-3009D01*
X5099Y-3003D01*
X5106Y-2998D01*
X5114Y-2992D01*
X5122Y-2987D01*
X5131Y-2982D01*
X5140Y-2978D01*
X5150Y-2975D01*
X5159Y-2973D01*
X5160Y-2973D01*
X5162Y-2973D01*
X5165Y-2973D01*
X5168Y-2972D01*
X5173Y-2972D01*
X5178Y-2972D01*
D02*
G37*
G36*
X4981Y-3254D02*
X4989Y-3255D01*
X4997Y-3256D01*
X4998Y-3256D01*
X4999Y-3257D01*
X5002Y-3257D01*
X5005Y-3258D01*
X5009Y-3259D01*
X5014Y-3260D01*
X5019Y-3262D01*
X5025Y-3264D01*
X5031Y-3266D01*
X5038Y-3269D01*
X5045Y-3273D01*
X5052Y-3277D01*
X5060Y-3281D01*
X5068Y-3285D01*
X5076Y-3291D01*
X5084Y-3297D01*
X5084Y-3297D01*
X5085Y-3298D01*
X5088Y-3300D01*
X5090Y-3302D01*
X5094Y-3306D01*
X5098Y-3309D01*
X5102Y-3314D01*
X5107Y-3319D01*
X5112Y-3324D01*
X5118Y-3330D01*
X5123Y-3337D01*
X5129Y-3344D01*
X5134Y-3351D01*
X5140Y-3359D01*
X5145Y-3368D01*
X5150Y-3377D01*
X5150Y-3377D01*
X5151Y-3379D01*
X5152Y-3381D01*
X5154Y-3385D01*
X5156Y-3390D01*
X5159Y-3396D01*
X5161Y-3402D01*
X5164Y-3409D01*
X5167Y-3418D01*
X5171Y-3427D01*
X5174Y-3437D01*
X5177Y-3448D01*
X5181Y-3459D01*
X5184Y-3472D01*
X5187Y-3485D01*
X5190Y-3498D01*
X5214Y-3617D01*
X5152Y-3697D01*
X5104Y-3453D01*
X5102Y-3453D01*
X5102Y-3454D01*
X5102Y-3455D01*
X5102Y-3458D01*
X5102Y-3461D01*
X5102Y-3465D01*
X5101Y-3470D01*
X5101Y-3476D01*
X5100Y-3482D01*
X5098Y-3488D01*
X5097Y-3495D01*
X5094Y-3502D01*
X5092Y-3510D01*
X5089Y-3517D01*
X5085Y-3524D01*
X5080Y-3532D01*
X5075Y-3539D01*
X5073Y-3542D01*
X5071Y-3544D01*
X5068Y-3547D01*
X5065Y-3550D01*
X5062Y-3553D01*
X5058Y-3557D01*
X5054Y-3560D01*
X5049Y-3564D01*
X5038Y-3572D01*
X5033Y-3575D01*
X5026Y-3579D01*
X5020Y-3582D01*
X5013Y-3584D01*
X5013Y-3585D01*
X5011Y-3585D01*
X5009Y-3586D01*
X5007Y-3587D01*
X5004Y-3587D01*
X5000Y-3588D01*
X4995Y-3589D01*
X4990Y-3590D01*
X4985Y-3591D01*
X4978Y-3592D01*
X4972Y-3592D01*
X4966Y-3593D01*
X4959Y-3593D01*
X4952Y-3593D01*
X4937Y-3591D01*
X4937Y-3591D01*
X4936Y-3591D01*
X4933Y-3590D01*
X4930Y-3590D01*
X4927Y-3589D01*
X4923Y-3587D01*
X4918Y-3586D01*
X4913Y-3584D01*
X4907Y-3582D01*
X4902Y-3580D01*
X4895Y-3577D01*
X4889Y-3574D01*
X4876Y-3567D01*
X4870Y-3562D01*
X4863Y-3558D01*
X4863Y-3557D01*
X4861Y-3556D01*
X4859Y-3555D01*
X4857Y-3553D01*
X4854Y-3550D01*
X4850Y-3546D01*
X4847Y-3542D01*
X4842Y-3538D01*
X4838Y-3533D01*
X4834Y-3528D01*
X4830Y-3523D01*
X4825Y-3516D01*
X4821Y-3510D01*
X4817Y-3503D01*
X4813Y-3496D01*
X4810Y-3489D01*
X4810Y-3489D01*
X4810Y-3487D01*
X4809Y-3485D01*
X4808Y-3482D01*
X4807Y-3479D01*
X4805Y-3474D01*
X4805Y-3469D01*
X4803Y-3464D01*
X4802Y-3458D01*
X4801Y-3451D01*
X4800Y-3445D01*
X4800Y-3437D01*
X4800Y-3430D01*
X4800Y-3422D01*
X4801Y-3414D01*
X4802Y-3406D01*
X4802Y-3406D01*
X4803Y-3404D01*
X4803Y-3402D01*
X4804Y-3398D01*
X4805Y-3395D01*
X4806Y-3390D01*
X4808Y-3385D01*
X4810Y-3379D01*
X4813Y-3373D01*
X4815Y-3367D01*
X4818Y-3360D01*
X4822Y-3353D01*
X4826Y-3345D01*
X4830Y-3338D01*
X4835Y-3331D01*
X4841Y-3323D01*
X4844Y-3319D01*
X4846Y-3317D01*
X4849Y-3314D01*
X4853Y-3310D01*
X4857Y-3306D01*
X4862Y-3301D01*
X4867Y-3296D01*
X4872Y-3292D01*
X4878Y-3287D01*
X4884Y-3282D01*
X4891Y-3277D01*
X4898Y-3273D01*
X4906Y-3269D01*
X4913Y-3266D01*
X4913Y-3266D01*
X4915Y-3265D01*
X4917Y-3264D01*
X4920Y-3263D01*
X4924Y-3262D01*
X4928Y-3261D01*
X4933Y-3259D01*
X4939Y-3258D01*
X4945Y-3257D01*
X4951Y-3256D01*
X4959Y-3255D01*
X4966Y-3254D01*
X4973Y-3254D01*
X4981Y-3254D01*
D02*
G37*
G36*
X4733Y-3565D02*
X4736Y-3565D01*
X4740Y-3565D01*
X4746Y-3566D01*
X4753Y-3567D01*
X4761Y-3569D01*
X4771Y-3571D01*
X4782Y-3575D01*
X4795Y-3579D01*
X4808Y-3584D01*
X4822Y-3590D01*
X4837Y-3597D01*
X4852Y-3605D01*
X4868Y-3615D01*
X4885Y-3626D01*
X4902Y-3639D01*
X4902Y-3639D01*
X4903Y-3640D01*
X4904Y-3641D01*
X4906Y-3642D01*
X4908Y-3644D01*
X4910Y-3646D01*
X4913Y-3648D01*
X4917Y-3651D01*
X4920Y-3654D01*
X4924Y-3658D01*
X4928Y-3661D01*
X4932Y-3666D01*
X4941Y-3674D01*
X4950Y-3684D01*
X4960Y-3695D01*
X4970Y-3706D01*
X4979Y-3718D01*
X4988Y-3731D01*
X4997Y-3744D01*
X5004Y-3758D01*
X5010Y-3772D01*
X5015Y-3786D01*
X5015Y-3787D01*
X5016Y-3789D01*
X5017Y-3793D01*
X5018Y-3799D01*
X5018Y-3805D01*
X5019Y-3813D01*
X5019Y-3822D01*
X5019Y-3832D01*
X5019Y-3842D01*
X5017Y-3853D01*
X5015Y-3865D01*
X5011Y-3877D01*
X5006Y-3889D01*
X5001Y-3902D01*
X4993Y-3915D01*
X4984Y-3928D01*
X4982Y-3930D01*
X4980Y-3932D01*
X4979Y-3934D01*
X4975Y-3938D01*
X4970Y-3943D01*
X4963Y-3949D01*
X4956Y-3955D01*
X4948Y-3961D01*
X4939Y-3967D01*
X4929Y-3973D01*
X4919Y-3979D01*
X4907Y-3983D01*
X4895Y-3987D01*
X4882Y-3990D01*
X4868Y-3992D01*
X4854Y-3993D01*
X4853Y-3992D01*
X4851Y-3992D01*
X4846Y-3992D01*
X4840Y-3991D01*
X4833Y-3990D01*
X4825Y-3988D01*
X4815Y-3985D01*
X4804Y-3982D01*
X4791Y-3978D01*
X4778Y-3973D01*
X4764Y-3967D01*
X4749Y-3960D01*
X4734Y-3952D01*
X4718Y-3942D01*
X4701Y-3931D01*
X4684Y-3918D01*
X4684Y-3918D01*
X4683Y-3917D01*
X4682Y-3916D01*
X4680Y-3915D01*
X4678Y-3913D01*
X4675Y-3911D01*
X4672Y-3908D01*
X4669Y-3905D01*
X4666Y-3902D01*
X4662Y-3899D01*
X4658Y-3895D01*
X4654Y-3891D01*
X4645Y-3882D01*
X4635Y-3872D01*
X4626Y-3862D01*
X4616Y-3850D01*
X4606Y-3838D01*
X4597Y-3826D01*
X4589Y-3812D01*
X4582Y-3799D01*
X4575Y-3785D01*
X4571Y-3771D01*
X4570Y-3770D01*
X4570Y-3768D01*
X4569Y-3764D01*
X4568Y-3758D01*
X4568Y-3752D01*
X4567Y-3744D01*
X4567Y-3735D01*
X4567Y-3725D01*
X4567Y-3715D01*
X4569Y-3704D01*
X4571Y-3692D01*
X4575Y-3680D01*
X4580Y-3667D01*
X4585Y-3654D01*
X4593Y-3642D01*
X4602Y-3629D01*
X4604Y-3626D01*
X4606Y-3624D01*
X4607Y-3623D01*
X4612Y-3618D01*
X4616Y-3613D01*
X4623Y-3608D01*
X4630Y-3602D01*
X4638Y-3595D01*
X4647Y-3589D01*
X4657Y-3583D01*
X4667Y-3578D01*
X4679Y-3573D01*
X4691Y-3569D01*
X4704Y-3566D01*
X4718Y-3565D01*
X4732Y-3564D01*
X4733Y-3565D01*
D02*
G37*
G36*
X4482Y-3886D02*
X4485Y-3886D01*
X4489Y-3887D01*
X4495Y-3887D01*
X4502Y-3888D01*
X4510Y-3890D01*
X4520Y-3893D01*
X4531Y-3896D01*
X4544Y-3900D01*
X4557Y-3905D01*
X4571Y-3911D01*
X4586Y-3918D01*
X4601Y-3926D01*
X4617Y-3936D01*
X4634Y-3947D01*
X4651Y-3960D01*
X4651Y-3960D01*
X4652Y-3961D01*
X4653Y-3962D01*
X4655Y-3963D01*
X4657Y-3965D01*
X4659Y-3967D01*
X4662Y-3969D01*
X4666Y-3972D01*
X4669Y-3976D01*
X4673Y-3979D01*
X4677Y-3983D01*
X4681Y-3987D01*
X4690Y-3995D01*
X4699Y-4005D01*
X4709Y-4016D01*
X4719Y-4027D01*
X4728Y-4040D01*
X4737Y-4052D01*
X4746Y-4066D01*
X4753Y-4079D01*
X4759Y-4093D01*
X4764Y-4107D01*
X4764Y-4108D01*
X4765Y-4111D01*
X4766Y-4115D01*
X4767Y-4120D01*
X4767Y-4127D01*
X4768Y-4134D01*
X4768Y-4143D01*
X4768Y-4153D01*
X4768Y-4163D01*
X4766Y-4175D01*
X4764Y-4187D01*
X4760Y-4198D01*
X4755Y-4211D01*
X4750Y-4224D01*
X4742Y-4236D01*
X4733Y-4249D01*
X4731Y-4252D01*
X4729Y-4253D01*
X4728Y-4255D01*
X4724Y-4259D01*
X4719Y-4264D01*
X4712Y-4270D01*
X4705Y-4276D01*
X4697Y-4282D01*
X4688Y-4288D01*
X4678Y-4294D01*
X4667Y-4300D01*
X4656Y-4305D01*
X4644Y-4309D01*
X4631Y-4312D01*
X4617Y-4314D01*
X4603Y-4314D01*
X4602Y-4314D01*
X4600Y-4313D01*
X4595Y-4313D01*
X4589Y-4312D01*
X4582Y-4311D01*
X4573Y-4309D01*
X4564Y-4307D01*
X4552Y-4303D01*
X4540Y-4300D01*
X4527Y-4294D01*
X4513Y-4288D01*
X4498Y-4281D01*
X4483Y-4273D01*
X4467Y-4263D01*
X4450Y-4252D01*
X4433Y-4239D01*
X4433Y-4239D01*
X4432Y-4238D01*
X4430Y-4237D01*
X4429Y-4236D01*
X4427Y-4234D01*
X4424Y-4232D01*
X4421Y-4230D01*
X4418Y-4227D01*
X4415Y-4223D01*
X4411Y-4220D01*
X4407Y-4216D01*
X4403Y-4212D01*
X4394Y-4204D01*
X4384Y-4194D01*
X4375Y-4183D01*
X4365Y-4172D01*
X4355Y-4160D01*
X4346Y-4147D01*
X4338Y-4134D01*
X4331Y-4120D01*
X4324Y-4106D01*
X4320Y-4092D01*
X4319Y-4092D01*
X4319Y-4089D01*
X4318Y-4085D01*
X4317Y-4080D01*
X4316Y-4073D01*
X4316Y-4065D01*
X4315Y-4056D01*
X4316Y-4047D01*
X4316Y-4036D01*
X4318Y-4025D01*
X4320Y-4013D01*
X4324Y-4001D01*
X4329Y-3989D01*
X4334Y-3976D01*
X4342Y-3963D01*
X4351Y-3950D01*
X4353Y-3947D01*
X4355Y-3946D01*
X4356Y-3944D01*
X4360Y-3940D01*
X4365Y-3935D01*
X4372Y-3929D01*
X4379Y-3923D01*
X4387Y-3917D01*
X4396Y-3911D01*
X4406Y-3905D01*
X4416Y-3899D01*
X4428Y-3895D01*
X4440Y-3890D01*
X4453Y-3888D01*
X4467Y-3886D01*
X4481Y-3886D01*
X4482Y-3886D01*
D02*
G37*
G36*
X4436Y-4358D02*
X4465Y-4322D01*
X4526Y-4369D01*
X4497Y-4406D01*
X4560Y-4455D01*
X4510Y-4518D01*
X4447Y-4469D01*
X4308Y-4648D01*
X4254Y-4607D01*
X4141Y-4235D01*
X4194Y-4169D01*
X4436Y-4358D01*
D02*
G37*
G36*
X4401Y4595D02*
X4348Y4428D01*
X4363Y4409D01*
X4477Y4498D01*
X4517Y4446D01*
X4233Y4224D01*
X4149Y4331D01*
X4147Y4334D01*
X4146Y4336D01*
X4144Y4339D01*
X4142Y4342D01*
X4139Y4346D01*
X4137Y4350D01*
X4135Y4355D01*
X4130Y4364D01*
X4128Y4370D01*
X4126Y4375D01*
X4125Y4380D01*
X4124Y4386D01*
X4124Y4386D01*
X4124Y4387D01*
X4123Y4389D01*
X4123Y4391D01*
X4123Y4393D01*
X4123Y4396D01*
X4122Y4400D01*
X4122Y4404D01*
X4123Y4408D01*
X4123Y4412D01*
X4123Y4417D01*
X4124Y4421D01*
X4125Y4426D01*
X4126Y4431D01*
X4127Y4436D01*
X4129Y4441D01*
X4129Y4442D01*
X4130Y4442D01*
X4130Y4444D01*
X4131Y4446D01*
X4132Y4448D01*
X4134Y4451D01*
X4136Y4454D01*
X4138Y4457D01*
X4140Y4461D01*
X4143Y4464D01*
X4146Y4468D01*
X4149Y4472D01*
X4153Y4476D01*
X4157Y4480D01*
X4161Y4484D01*
X4165Y4488D01*
X4166Y4488D01*
X4167Y4489D01*
X4169Y4490D01*
X4171Y4492D01*
X4174Y4494D01*
X4177Y4496D01*
X4181Y4498D01*
X4186Y4500D01*
X4190Y4502D01*
X4196Y4505D01*
X4201Y4507D01*
X4207Y4509D01*
X4213Y4510D01*
X4220Y4511D01*
X4226Y4512D01*
X4233Y4512D01*
X4233Y4512D01*
X4235Y4512D01*
X4236Y4512D01*
X4239Y4512D01*
X4242Y4511D01*
X4246Y4511D01*
X4250Y4510D01*
X4255Y4509D01*
X4260Y4507D01*
X4265Y4506D01*
X4271Y4503D01*
X4276Y4501D01*
X4282Y4498D01*
X4288Y4494D01*
X4294Y4490D01*
X4300Y4485D01*
X4350Y4660D01*
X4401Y4595D01*
D02*
G37*
G36*
X4541Y4365D02*
X4549Y4364D01*
X4549Y4364D01*
X4550Y4363D01*
X4553Y4363D01*
X4555Y4362D01*
X4559Y4360D01*
X4563Y4358D01*
X4568Y4356D01*
X4573Y4354D01*
X4578Y4351D01*
X4584Y4347D01*
X4590Y4343D01*
X4596Y4338D01*
X4602Y4333D01*
X4608Y4327D01*
X4615Y4321D01*
X4620Y4314D01*
X4715Y4193D01*
X4430Y3971D01*
X4341Y4086D01*
X4339Y4088D01*
X4337Y4090D01*
X4335Y4094D01*
X4332Y4098D01*
X4330Y4103D01*
X4327Y4108D01*
X4324Y4113D01*
X4322Y4120D01*
X4319Y4126D01*
X4317Y4133D01*
X4315Y4139D01*
X4313Y4146D01*
X4313Y4153D01*
X4312Y4160D01*
X4312Y4161D01*
X4312Y4162D01*
X4312Y4164D01*
X4313Y4167D01*
X4313Y4170D01*
X4314Y4174D01*
X4315Y4178D01*
X4317Y4183D01*
X4319Y4188D01*
X4321Y4193D01*
X4324Y4198D01*
X4327Y4204D01*
X4331Y4209D01*
X4336Y4214D01*
X4341Y4220D01*
X4347Y4225D01*
X4347Y4225D01*
X4348Y4226D01*
X4349Y4227D01*
X4351Y4228D01*
X4353Y4229D01*
X4356Y4231D01*
X4358Y4233D01*
X4362Y4234D01*
X4369Y4238D01*
X4377Y4241D01*
X4381Y4242D01*
X4386Y4243D01*
X4390Y4244D01*
X4395Y4245D01*
X4395Y4244D01*
X4396Y4245D01*
X4397Y4245D01*
X4399Y4245D01*
X4401Y4244D01*
X4404Y4244D01*
X4407Y4244D01*
X4410Y4243D01*
X4413Y4242D01*
X4417Y4241D01*
X4421Y4240D01*
X4425Y4239D01*
X4429Y4237D01*
X4434Y4235D01*
X4438Y4233D01*
X4442Y4230D01*
X4443Y4230D01*
X4443Y4231D01*
X4443Y4232D01*
X4442Y4233D01*
X4441Y4235D01*
X4440Y4238D01*
X4438Y4241D01*
X4437Y4245D01*
X4436Y4249D01*
X4434Y4253D01*
X4433Y4258D01*
X4432Y4262D01*
X4431Y4267D01*
X4431Y4273D01*
X4431Y4278D01*
X4431Y4284D01*
X4432Y4289D01*
X4432Y4289D01*
X4432Y4290D01*
X4433Y4292D01*
X4433Y4294D01*
X4434Y4297D01*
X4435Y4300D01*
X4437Y4303D01*
X4439Y4307D01*
X4441Y4311D01*
X4443Y4315D01*
X4446Y4320D01*
X4450Y4324D01*
X4454Y4329D01*
X4458Y4334D01*
X4463Y4338D01*
X4468Y4343D01*
X4469Y4343D01*
X4470Y4344D01*
X4472Y4346D01*
X4475Y4348D01*
X4479Y4350D01*
X4483Y4352D01*
X4488Y4354D01*
X4493Y4357D01*
X4499Y4359D01*
X4505Y4361D01*
X4512Y4363D01*
X4519Y4364D01*
X4526Y4365D01*
X4533Y4365D01*
X4541Y4365D01*
D02*
G37*
G36*
X4738Y4092D02*
X4743Y4092D01*
X4749Y4091D01*
X4755Y4091D01*
X4761Y4090D01*
X4768Y4089D01*
X4774Y4087D01*
X4781Y4085D01*
X4787Y4082D01*
X4788Y4082D01*
X4789Y4082D01*
X4791Y4081D01*
X4793Y4079D01*
X4796Y4078D01*
X4800Y4076D01*
X4804Y4073D01*
X4808Y4070D01*
X4813Y4067D01*
X4818Y4063D01*
X4823Y4059D01*
X4829Y4054D01*
X4834Y4049D01*
X4840Y4043D01*
X4845Y4037D01*
X4851Y4031D01*
X4853Y4028D01*
X4853Y4027D01*
X4855Y4025D01*
X4856Y4023D01*
X4858Y4021D01*
X4861Y4016D01*
X4864Y4010D01*
X4868Y4003D01*
X4872Y3996D01*
X4875Y3988D01*
X4879Y3979D01*
X4882Y3970D01*
X4884Y3960D01*
X4886Y3950D01*
X4887Y3940D01*
X4888Y3930D01*
X4887Y3919D01*
X4887Y3918D01*
X4886Y3917D01*
X4886Y3914D01*
X4885Y3910D01*
X4884Y3905D01*
X4882Y3899D01*
X4879Y3893D01*
X4876Y3886D01*
X4873Y3879D01*
X4868Y3871D01*
X4863Y3863D01*
X4858Y3855D01*
X4851Y3846D01*
X4843Y3838D01*
X4834Y3829D01*
X4825Y3821D01*
X4652Y3687D01*
X4610Y3741D01*
X4779Y3874D01*
X4779Y3874D01*
X4780Y3875D01*
X4782Y3876D01*
X4784Y3878D01*
X4786Y3880D01*
X4789Y3883D01*
X4792Y3886D01*
X4795Y3890D01*
X4798Y3893D01*
X4801Y3898D01*
X4804Y3902D01*
X4807Y3907D01*
X4809Y3912D01*
X4812Y3917D01*
X4814Y3923D01*
X4815Y3929D01*
X4815Y3929D01*
X4815Y3930D01*
X4815Y3932D01*
X4815Y3934D01*
X4815Y3937D01*
X4815Y3941D01*
X4815Y3944D01*
X4814Y3948D01*
X4814Y3953D01*
X4813Y3957D01*
X4811Y3962D01*
X4809Y3967D01*
X4807Y3973D01*
X4804Y3978D01*
X4801Y3983D01*
X4797Y3989D01*
X4796Y3990D01*
X4795Y3992D01*
X4793Y3994D01*
X4791Y3996D01*
X4789Y3998D01*
X4786Y4001D01*
X4782Y4003D01*
X4779Y4006D01*
X4774Y4009D01*
X4770Y4012D01*
X4765Y4014D01*
X4760Y4016D01*
X4755Y4018D01*
X4750Y4019D01*
X4744Y4020D01*
X4743Y4020D01*
X4742Y4020D01*
X4741Y4020D01*
X4738Y4020D01*
X4735Y4020D01*
X4732Y4019D01*
X4728Y4019D01*
X4724Y4018D01*
X4719Y4017D01*
X4715Y4016D01*
X4709Y4014D01*
X4704Y4012D01*
X4698Y4009D01*
X4693Y4006D01*
X4687Y4003D01*
X4681Y3998D01*
X4512Y3866D01*
X4469Y3921D01*
X4642Y4056D01*
X4642Y4056D01*
X4643Y4057D01*
X4645Y4058D01*
X4648Y4060D01*
X4651Y4062D01*
X4655Y4065D01*
X4659Y4068D01*
X4664Y4071D01*
X4669Y4073D01*
X4675Y4076D01*
X4681Y4079D01*
X4688Y4082D01*
X4694Y4085D01*
X4701Y4087D01*
X4708Y4089D01*
X4715Y4090D01*
X4715Y4090D01*
X4716Y4091D01*
X4719Y4091D01*
X4721Y4091D01*
X4724Y4092D01*
X4728Y4092D01*
X4733Y4092D01*
X4738Y4092D01*
D02*
G37*
G36*
X5008Y3818D02*
X4956Y3651D01*
X4970Y3632D01*
X5084Y3721D01*
X5124Y3669D01*
X4840Y3446D01*
X4756Y3554D01*
X4754Y3556D01*
X4753Y3559D01*
X4751Y3562D01*
X4749Y3565D01*
X4746Y3569D01*
X4744Y3573D01*
X4742Y3578D01*
X4737Y3587D01*
X4735Y3593D01*
X4734Y3598D01*
X4732Y3603D01*
X4731Y3609D01*
X4731Y3609D01*
X4731Y3610D01*
X4730Y3611D01*
X4730Y3614D01*
X4730Y3616D01*
X4730Y3619D01*
X4729Y3623D01*
X4730Y3627D01*
X4730Y3631D01*
X4730Y3635D01*
X4730Y3640D01*
X4731Y3644D01*
X4732Y3649D01*
X4733Y3654D01*
X4735Y3659D01*
X4736Y3664D01*
X4736Y3665D01*
X4737Y3665D01*
X4737Y3667D01*
X4738Y3669D01*
X4740Y3671D01*
X4741Y3674D01*
X4743Y3677D01*
X4745Y3680D01*
X4747Y3684D01*
X4750Y3687D01*
X4753Y3691D01*
X4756Y3695D01*
X4760Y3699D01*
X4764Y3703D01*
X4768Y3707D01*
X4772Y3711D01*
X4773Y3711D01*
X4774Y3712D01*
X4776Y3713D01*
X4778Y3715D01*
X4781Y3717D01*
X4784Y3719D01*
X4788Y3721D01*
X4793Y3723D01*
X4798Y3725D01*
X4803Y3728D01*
X4808Y3730D01*
X4814Y3731D01*
X4820Y3733D01*
X4827Y3734D01*
X4833Y3735D01*
X4840Y3735D01*
X4841Y3735D01*
X4842Y3735D01*
X4844Y3735D01*
X4846Y3735D01*
X4849Y3734D01*
X4853Y3734D01*
X4857Y3733D01*
X4862Y3732D01*
X4867Y3730D01*
X4872Y3728D01*
X4878Y3726D01*
X4884Y3724D01*
X4890Y3721D01*
X4895Y3717D01*
X4901Y3713D01*
X4907Y3708D01*
X4957Y3883D01*
X5008Y3818D01*
D02*
G37*
G36*
X5233Y3405D02*
X5243Y3404D01*
X5334Y3401D01*
X5381Y3341D01*
X5195Y3350D01*
X5195Y3349D01*
X5195Y3349D01*
X5196Y3348D01*
X5198Y3348D01*
X5200Y3347D01*
X5203Y3346D01*
X5207Y3345D01*
X5211Y3344D01*
X5215Y3342D01*
X5219Y3340D01*
X5224Y3337D01*
X5229Y3334D01*
X5234Y3331D01*
X5238Y3327D01*
X5243Y3323D01*
X5248Y3319D01*
X5252Y3314D01*
X5254Y3311D01*
X5255Y3309D01*
X5256Y3307D01*
X5258Y3305D01*
X5260Y3302D01*
X5262Y3298D01*
X5264Y3294D01*
X5265Y3290D01*
X5269Y3281D01*
X5271Y3276D01*
X5272Y3271D01*
X5273Y3266D01*
X5274Y3261D01*
X5274Y3260D01*
X5274Y3259D01*
X5274Y3258D01*
X5274Y3256D01*
X5274Y3253D01*
X5274Y3250D01*
X5274Y3246D01*
X5274Y3243D01*
X5274Y3239D01*
X5273Y3234D01*
X5272Y3229D01*
X5271Y3225D01*
X5270Y3219D01*
X5269Y3214D01*
X5265Y3204D01*
X5265Y3204D01*
X5264Y3203D01*
X5264Y3201D01*
X5263Y3199D01*
X5261Y3197D01*
X5260Y3194D01*
X5258Y3191D01*
X5256Y3188D01*
X5253Y3184D01*
X5251Y3180D01*
X5247Y3176D01*
X5244Y3172D01*
X5236Y3164D01*
X5232Y3160D01*
X5227Y3156D01*
X5227Y3156D01*
X5226Y3155D01*
X5224Y3154D01*
X5222Y3153D01*
X5220Y3151D01*
X5217Y3149D01*
X5213Y3147D01*
X5209Y3145D01*
X5205Y3143D01*
X5200Y3140D01*
X5196Y3138D01*
X5190Y3136D01*
X5185Y3134D01*
X5179Y3133D01*
X5174Y3131D01*
X5168Y3130D01*
X5168Y3130D01*
X5167Y3130D01*
X5165Y3130D01*
X5162Y3130D01*
X5160Y3130D01*
X5156Y3130D01*
X5152Y3130D01*
X5148Y3130D01*
X5144Y3130D01*
X5139Y3131D01*
X5134Y3131D01*
X5128Y3132D01*
X5123Y3134D01*
X5117Y3135D01*
X5112Y3137D01*
X5106Y3140D01*
X5106Y3140D01*
X5105Y3140D01*
X5103Y3141D01*
X5101Y3142D01*
X5098Y3144D01*
X5095Y3146D01*
X5092Y3148D01*
X5088Y3150D01*
X5084Y3153D01*
X5080Y3156D01*
X5075Y3160D01*
X5071Y3164D01*
X5066Y3168D01*
X5062Y3172D01*
X5057Y3177D01*
X5053Y3183D01*
X5051Y3186D01*
X5049Y3188D01*
X5047Y3191D01*
X5045Y3194D01*
X5043Y3198D01*
X5040Y3202D01*
X5038Y3206D01*
X5036Y3211D01*
X5033Y3217D01*
X5031Y3222D01*
X5029Y3228D01*
X5027Y3234D01*
X5025Y3239D01*
X5024Y3245D01*
X5024Y3246D01*
X5024Y3247D01*
X5024Y3249D01*
X5024Y3251D01*
X5023Y3254D01*
X5023Y3257D01*
X5023Y3261D01*
X5023Y3266D01*
X5023Y3270D01*
X5024Y3275D01*
X5025Y3281D01*
X5025Y3286D01*
X5027Y3291D01*
X5028Y3297D01*
X5030Y3303D01*
X5033Y3309D01*
X5033Y3309D01*
X5033Y3310D01*
X5034Y3312D01*
X5035Y3314D01*
X5037Y3316D01*
X5038Y3320D01*
X5041Y3323D01*
X5043Y3327D01*
X5046Y3331D01*
X5049Y3336D01*
X5053Y3340D01*
X5057Y3345D01*
X5062Y3350D01*
X5067Y3355D01*
X5072Y3359D01*
X5078Y3364D01*
X5078Y3364D01*
X5079Y3365D01*
X5081Y3366D01*
X5083Y3368D01*
X5086Y3370D01*
X5089Y3372D01*
X5093Y3374D01*
X5098Y3377D01*
X5103Y3380D01*
X5108Y3383D01*
X5114Y3385D01*
X5120Y3388D01*
X5126Y3391D01*
X5133Y3393D01*
X5140Y3396D01*
X5148Y3397D01*
X5148Y3397D01*
X5149Y3398D01*
X5151Y3398D01*
X5155Y3399D01*
X5158Y3399D01*
X5163Y3400D01*
X5168Y3401D01*
X5174Y3402D01*
X5181Y3403D01*
X5188Y3403D01*
X5196Y3404D01*
X5204Y3405D01*
X5213Y3405D01*
X5223Y3405D01*
X5233Y3405D01*
D02*
G37*
G36*
X5217Y3551D02*
X4991Y3375D01*
X5004Y3358D01*
X4955Y3320D01*
X4903Y3387D01*
X5177Y3601D01*
X5217Y3551D01*
D02*
G37*
G36*
X5485Y3207D02*
X5438Y3170D01*
X5543Y3036D01*
X5503Y3005D01*
X5213Y2990D01*
X5174Y3040D01*
X5355Y3182D01*
X5334Y3210D01*
X5380Y3245D01*
X5401Y3218D01*
X5448Y3255D01*
X5485Y3207D01*
D02*
G37*
G36*
X5601Y2998D02*
X5604Y2998D01*
X5608Y2998D01*
X5613Y2997D01*
X5619Y2996D01*
X5625Y2995D01*
X5632Y2993D01*
X5640Y2991D01*
X5647Y2987D01*
X5656Y2983D01*
X5664Y2979D01*
X5672Y2973D01*
X5680Y2967D01*
X5688Y2959D01*
X5695Y2950D01*
X5697Y2948D01*
X5698Y2946D01*
X5699Y2945D01*
X5701Y2941D01*
X5704Y2937D01*
X5707Y2931D01*
X5710Y2925D01*
X5713Y2918D01*
X5716Y2910D01*
X5718Y2902D01*
X5721Y2893D01*
X5722Y2884D01*
X5723Y2874D01*
X5723Y2864D01*
X5721Y2854D01*
X5719Y2844D01*
X5719Y2843D01*
X5718Y2841D01*
X5717Y2838D01*
X5715Y2834D01*
X5713Y2829D01*
X5710Y2823D01*
X5707Y2817D01*
X5702Y2809D01*
X5697Y2801D01*
X5691Y2792D01*
X5684Y2783D01*
X5676Y2774D01*
X5668Y2764D01*
X5657Y2754D01*
X5646Y2744D01*
X5634Y2734D01*
X5634Y2734D01*
X5633Y2733D01*
X5632Y2732D01*
X5631Y2731D01*
X5629Y2730D01*
X5627Y2729D01*
X5625Y2727D01*
X5622Y2725D01*
X5619Y2723D01*
X5616Y2721D01*
X5613Y2719D01*
X5609Y2717D01*
X5601Y2712D01*
X5592Y2707D01*
X5583Y2701D01*
X5573Y2696D01*
X5562Y2692D01*
X5551Y2687D01*
X5540Y2684D01*
X5529Y2681D01*
X5518Y2679D01*
X5507Y2678D01*
X5506Y2678D01*
X5504Y2678D01*
X5501Y2678D01*
X5497Y2678D01*
X5492Y2679D01*
X5486Y2680D01*
X5480Y2682D01*
X5473Y2683D01*
X5465Y2686D01*
X5457Y2689D01*
X5449Y2693D01*
X5441Y2698D01*
X5433Y2703D01*
X5425Y2710D01*
X5417Y2718D01*
X5409Y2727D01*
X5407Y2729D01*
X5407Y2730D01*
X5406Y2732D01*
X5403Y2735D01*
X5401Y2740D01*
X5398Y2746D01*
X5395Y2752D01*
X5391Y2759D01*
X5389Y2766D01*
X5386Y2775D01*
X5384Y2783D01*
X5383Y2793D01*
X5382Y2802D01*
X5382Y2812D01*
X5383Y2822D01*
X5386Y2833D01*
X5386Y2833D01*
X5387Y2835D01*
X5388Y2838D01*
X5389Y2842D01*
X5392Y2848D01*
X5395Y2853D01*
X5398Y2860D01*
X5402Y2867D01*
X5408Y2876D01*
X5414Y2884D01*
X5421Y2893D01*
X5428Y2903D01*
X5437Y2913D01*
X5447Y2923D01*
X5458Y2933D01*
X5471Y2943D01*
X5471Y2943D01*
X5472Y2943D01*
X5472Y2944D01*
X5474Y2945D01*
X5475Y2946D01*
X5477Y2947D01*
X5480Y2949D01*
X5482Y2951D01*
X5485Y2953D01*
X5488Y2955D01*
X5492Y2957D01*
X5496Y2960D01*
X5503Y2965D01*
X5512Y2970D01*
X5522Y2975D01*
X5532Y2980D01*
X5542Y2984D01*
X5553Y2989D01*
X5565Y2992D01*
X5576Y2995D01*
X5587Y2997D01*
X5598Y2998D01*
X5599Y2998D01*
X5601Y2998D01*
D02*
G37*
G36*
X-5622Y-2588D02*
X-5620D01*
X-5618Y-2588D01*
X-5615Y-2588D01*
X-5612Y-2589D01*
X-5608Y-2589D01*
X-5605Y-2589D01*
X-5601Y-2590D01*
X-5592Y-2591D01*
X-5583Y-2593D01*
X-5574Y-2596D01*
X-5563Y-2598D01*
X-5552Y-2602D01*
X-5541Y-2606D01*
X-5530Y-2611D01*
X-5519Y-2617D01*
X-5509Y-2624D01*
X-5503Y-2628D01*
X-5498Y-2632D01*
X-5539Y-2683D01*
X-5539Y-2683D01*
X-5540Y-2682D01*
X-5543Y-2680D01*
X-5546Y-2678D01*
X-5550Y-2676D01*
X-5554Y-2673D01*
X-5559Y-2670D01*
X-5565Y-2667D01*
X-5571Y-2664D01*
X-5579Y-2661D01*
X-5586Y-2658D01*
X-5594Y-2655D01*
X-5603Y-2653D01*
X-5611Y-2651D01*
X-5620Y-2650D01*
X-5630Y-2650D01*
X-5633D01*
X-5635Y-2650D01*
X-5638Y-2650D01*
X-5642Y-2651D01*
X-5645Y-2651D01*
X-5649Y-2652D01*
X-5654Y-2652D01*
X-5659Y-2653D01*
X-5664Y-2654D01*
X-5668Y-2656D01*
X-5673Y-2658D01*
X-5678Y-2660D01*
X-5683Y-2662D01*
X-5688Y-2664D01*
X-5688Y-2665D01*
X-5689Y-2665D01*
X-5690Y-2666D01*
X-5692Y-2667D01*
X-5694Y-2668D01*
X-5697Y-2670D01*
X-5699Y-2672D01*
X-5702Y-2675D01*
X-5705Y-2677D01*
X-5708Y-2680D01*
X-5711Y-2684D01*
X-5715Y-2687D01*
X-5718Y-2691D01*
X-5721Y-2695D01*
X-5724Y-2700D01*
X-5726Y-2704D01*
X-5727Y-2704D01*
X-5727Y-2705D01*
X-5728Y-2707D01*
X-5728Y-2708D01*
X-5729Y-2711D01*
X-5730Y-2714D01*
X-5732Y-2717D01*
X-5733Y-2721D01*
X-5734Y-2725D01*
X-5735Y-2729D01*
X-5736Y-2734D01*
X-5737Y-2739D01*
X-5738Y-2744D01*
X-5739Y-2749D01*
X-5739Y-2755D01*
X-5740Y-2761D01*
Y-2761D01*
Y-2763D01*
Y-2764D01*
X-5739Y-2766D01*
X-5739Y-2769D01*
X-5739Y-2772D01*
X-5738Y-2776D01*
X-5738Y-2780D01*
X-5737Y-2784D01*
X-5736Y-2789D01*
X-5734Y-2799D01*
X-5732Y-2804D01*
X-5730Y-2809D01*
X-5728Y-2814D01*
X-5726Y-2818D01*
X-5725Y-2819D01*
X-5725Y-2819D01*
X-5724Y-2821D01*
X-5723Y-2822D01*
X-5722Y-2825D01*
X-5720Y-2827D01*
X-5718Y-2830D01*
X-5716Y-2833D01*
X-5713Y-2836D01*
X-5710Y-2839D01*
X-5707Y-2842D01*
X-5704Y-2846D01*
X-5700Y-2849D01*
X-5696Y-2852D01*
X-5691Y-2855D01*
X-5687Y-2858D01*
X-5686Y-2858D01*
X-5685Y-2858D01*
X-5684Y-2859D01*
X-5682Y-2860D01*
X-5680Y-2861D01*
X-5677Y-2862D01*
X-5673Y-2864D01*
X-5670Y-2865D01*
X-5666Y-2866D01*
X-5661Y-2868D01*
X-5656Y-2869D01*
X-5651Y-2870D01*
X-5645Y-2871D01*
X-5640Y-2872D01*
X-5634Y-2872D01*
X-5627Y-2872D01*
X-5624D01*
X-5622Y-2872D01*
X-5620D01*
X-5617Y-2872D01*
X-5613Y-2871D01*
X-5609Y-2871D01*
X-5601Y-2869D01*
X-5593Y-2867D01*
X-5584Y-2865D01*
X-5580Y-2863D01*
X-5576Y-2861D01*
X-5576Y-2861D01*
X-5575Y-2860D01*
X-5574Y-2860D01*
X-5572Y-2859D01*
X-5570Y-2858D01*
X-5568Y-2856D01*
X-5564Y-2853D01*
X-5558Y-2849D01*
X-5553Y-2844D01*
X-5548Y-2839D01*
X-5543Y-2832D01*
X-5543Y-2832D01*
X-5543Y-2831D01*
X-5542Y-2830D01*
X-5542Y-2829D01*
X-5541Y-2828D01*
X-5540Y-2826D01*
X-5539Y-2823D01*
X-5538Y-2821D01*
X-5535Y-2815D01*
X-5533Y-2809D01*
X-5531Y-2802D01*
X-5530Y-2795D01*
X-5626D01*
Y-2739D01*
X-5465D01*
Y-2739D01*
Y-2740D01*
Y-2742D01*
X-5465Y-2744D01*
Y-2747D01*
Y-2750D01*
Y-2754D01*
Y-2758D01*
Y-2758D01*
Y-2759D01*
Y-2759D01*
Y-2760D01*
Y-2763D01*
X-5465Y-2766D01*
X-5466Y-2771D01*
X-5466Y-2776D01*
X-5467Y-2781D01*
X-5467Y-2788D01*
X-5468Y-2794D01*
X-5470Y-2801D01*
X-5471Y-2809D01*
X-5473Y-2816D01*
X-5475Y-2824D01*
X-5478Y-2832D01*
X-5480Y-2839D01*
X-5484Y-2847D01*
X-5484Y-2847D01*
X-5485Y-2849D01*
X-5486Y-2851D01*
X-5487Y-2854D01*
X-5489Y-2857D01*
X-5491Y-2861D01*
X-5494Y-2865D01*
X-5498Y-2870D01*
X-5501Y-2875D01*
X-5505Y-2880D01*
X-5510Y-2885D01*
X-5515Y-2891D01*
X-5520Y-2896D01*
X-5526Y-2901D01*
X-5532Y-2906D01*
X-5539Y-2910D01*
X-5540Y-2911D01*
X-5541Y-2911D01*
X-5543Y-2912D01*
X-5546Y-2914D01*
X-5549Y-2916D01*
X-5554Y-2918D01*
X-5559Y-2920D01*
X-5564Y-2922D01*
X-5571Y-2924D01*
X-5578Y-2927D01*
X-5585Y-2929D01*
X-5593Y-2930D01*
X-5602Y-2932D01*
X-5611Y-2933D01*
X-5620Y-2934D01*
X-5630Y-2934D01*
X-5633D01*
X-5635Y-2934D01*
X-5639D01*
X-5643Y-2933D01*
X-5648Y-2933D01*
X-5654Y-2932D01*
X-5661Y-2931D01*
X-5668Y-2930D01*
X-5675Y-2929D01*
X-5682Y-2927D01*
X-5690Y-2925D01*
X-5698Y-2922D01*
X-5706Y-2920D01*
X-5713Y-2917D01*
X-5721Y-2913D01*
X-5722Y-2912D01*
X-5723Y-2912D01*
X-5725Y-2910D01*
X-5728Y-2909D01*
X-5731Y-2907D01*
X-5735Y-2904D01*
X-5739Y-2901D01*
X-5744Y-2897D01*
X-5749Y-2893D01*
X-5754Y-2889D01*
X-5759Y-2884D01*
X-5764Y-2878D01*
X-5769Y-2873D01*
X-5774Y-2866D01*
X-5779Y-2860D01*
X-5783Y-2853D01*
X-5784Y-2852D01*
X-5784Y-2851D01*
X-5785Y-2848D01*
X-5787Y-2846D01*
X-5788Y-2842D01*
X-5791Y-2837D01*
X-5793Y-2832D01*
X-5795Y-2826D01*
X-5797Y-2820D01*
X-5799Y-2813D01*
X-5801Y-2805D01*
X-5802Y-2797D01*
X-5804Y-2789D01*
X-5805Y-2780D01*
X-5806Y-2771D01*
X-5806Y-2761D01*
Y-2761D01*
Y-2760D01*
Y-2760D01*
Y-2759D01*
X-5806Y-2756D01*
Y-2752D01*
X-5805Y-2748D01*
X-5805Y-2743D01*
X-5804Y-2737D01*
X-5803Y-2731D01*
X-5802Y-2724D01*
X-5800Y-2717D01*
X-5799Y-2709D01*
X-5797Y-2702D01*
X-5794Y-2694D01*
X-5791Y-2686D01*
X-5788Y-2678D01*
X-5784Y-2671D01*
X-5784Y-2670D01*
X-5783Y-2669D01*
X-5782Y-2667D01*
X-5780Y-2664D01*
X-5778Y-2661D01*
X-5775Y-2657D01*
X-5771Y-2653D01*
X-5768Y-2648D01*
X-5763Y-2643D01*
X-5759Y-2638D01*
X-5754Y-2633D01*
X-5748Y-2628D01*
X-5742Y-2623D01*
X-5736Y-2618D01*
X-5729Y-2614D01*
X-5721Y-2610D01*
X-5721Y-2609D01*
X-5720Y-2609D01*
X-5717Y-2607D01*
X-5714Y-2606D01*
X-5710Y-2604D01*
X-5706Y-2603D01*
X-5700Y-2601D01*
X-5695Y-2599D01*
X-5688Y-2597D01*
X-5681Y-2594D01*
X-5673Y-2593D01*
X-5665Y-2591D01*
X-5656Y-2590D01*
X-5647Y-2589D01*
X-5637Y-2588D01*
X-5627Y-2588D01*
X-5624D01*
X-5622Y-2588D01*
D02*
G37*
G36*
X-5145Y-2927D02*
X-5201D01*
X-5363Y-2699D01*
X-5363D01*
Y-2927D01*
X-5424D01*
Y-2595D01*
X-5368D01*
X-5206Y-2823D01*
X-5206D01*
Y-2595D01*
X-5145D01*
Y-2927D01*
D02*
G37*
G36*
X-4968Y-2595D02*
X-4963Y-2595D01*
X-4958Y-2596D01*
X-4952Y-2597D01*
X-4946Y-2597D01*
X-4939Y-2598D01*
X-4932Y-2600D01*
X-4925Y-2601D01*
X-4917Y-2603D01*
X-4909Y-2605D01*
X-4902Y-2608D01*
X-4894Y-2611D01*
X-4887Y-2615D01*
X-4886Y-2615D01*
X-4885Y-2616D01*
X-4883Y-2617D01*
X-4880Y-2619D01*
X-4877Y-2621D01*
X-4873Y-2623D01*
X-4869Y-2626D01*
X-4864Y-2630D01*
X-4859Y-2634D01*
X-4854Y-2638D01*
X-4849Y-2643D01*
X-4844Y-2648D01*
X-4839Y-2653D01*
X-4834Y-2660D01*
X-4830Y-2666D01*
X-4825Y-2673D01*
X-4825Y-2673D01*
X-4824Y-2675D01*
X-4823Y-2677D01*
X-4822Y-2679D01*
X-4820Y-2683D01*
X-4818Y-2687D01*
X-4816Y-2692D01*
X-4814Y-2698D01*
X-4812Y-2704D01*
X-4810Y-2711D01*
X-4808Y-2718D01*
X-4807Y-2726D01*
X-4805Y-2734D01*
X-4804Y-2743D01*
X-4803Y-2752D01*
X-4803Y-2761D01*
Y-2761D01*
Y-2762D01*
Y-2762D01*
Y-2763D01*
X-4803Y-2766D01*
Y-2769D01*
X-4804Y-2774D01*
X-4804Y-2779D01*
X-4805Y-2785D01*
X-4806Y-2791D01*
X-4807Y-2798D01*
X-4809Y-2805D01*
X-4810Y-2812D01*
X-4813Y-2820D01*
X-4815Y-2827D01*
X-4818Y-2835D01*
X-4822Y-2842D01*
X-4825Y-2849D01*
X-4826Y-2850D01*
X-4826Y-2851D01*
X-4828Y-2853D01*
X-4829Y-2855D01*
X-4832Y-2858D01*
X-4834Y-2862D01*
X-4838Y-2866D01*
X-4841Y-2870D01*
X-4845Y-2875D01*
X-4850Y-2880D01*
X-4855Y-2885D01*
X-4860Y-2889D01*
X-4866Y-2894D01*
X-4873Y-2899D01*
X-4879Y-2903D01*
X-4887Y-2907D01*
X-4887Y-2907D01*
X-4888Y-2908D01*
X-4890Y-2909D01*
X-4893Y-2910D01*
X-4897Y-2911D01*
X-4902Y-2913D01*
X-4907Y-2915D01*
X-4912Y-2917D01*
X-4919Y-2919D01*
X-4926Y-2921D01*
X-4933Y-2922D01*
X-4941Y-2924D01*
X-4949Y-2925D01*
X-4958Y-2926D01*
X-4967Y-2927D01*
X-4976Y-2927D01*
X-5082D01*
Y-2595D01*
X-4971D01*
X-4968Y-2595D01*
D02*
G37*
G36*
X-2552Y-3841D02*
X-2669Y-4090D01*
X-2726D01*
X-2609Y-3844D01*
X-2742D01*
Y-3793D01*
X-2552D01*
Y-3841D01*
D02*
G37*
G36*
X-3032Y-4090D02*
X-3093D01*
Y-4029D01*
X-3032D01*
Y-4090D01*
D02*
G37*
G36*
X-3222Y-3787D02*
X-3218D01*
X-3215Y-3787D01*
X-3210Y-3788D01*
X-3205Y-3788D01*
X-3200Y-3789D01*
X-3195Y-3791D01*
X-3189Y-3792D01*
X-3183Y-3794D01*
X-3177Y-3796D01*
X-3172Y-3799D01*
X-3166Y-3802D01*
X-3161Y-3805D01*
X-3156Y-3809D01*
X-3156Y-3809D01*
X-3155Y-3810D01*
X-3154Y-3812D01*
X-3152Y-3813D01*
X-3150Y-3816D01*
X-3148Y-3818D01*
X-3146Y-3822D01*
X-3143Y-3825D01*
X-3141Y-3830D01*
X-3139Y-3834D01*
X-3137Y-3839D01*
X-3135Y-3845D01*
X-3133Y-3851D01*
X-3132Y-3857D01*
X-3131Y-3864D01*
X-3131Y-3871D01*
Y-3871D01*
Y-3872D01*
Y-3874D01*
X-3131Y-3876D01*
Y-3878D01*
X-3131Y-3880D01*
X-3132Y-3883D01*
X-3132Y-3886D01*
X-3133Y-3890D01*
X-3133Y-3893D01*
X-3136Y-3901D01*
X-3137Y-3905D01*
X-3138Y-3909D01*
X-3140Y-3914D01*
X-3142Y-3918D01*
X-3142Y-3918D01*
X-3143Y-3919D01*
X-3143Y-3920D01*
X-3144Y-3922D01*
X-3146Y-3924D01*
X-3147Y-3926D01*
X-3149Y-3929D01*
X-3151Y-3932D01*
X-3154Y-3935D01*
X-3157Y-3939D01*
X-3160Y-3943D01*
X-3163Y-3948D01*
X-3167Y-3952D01*
X-3171Y-3957D01*
X-3176Y-3962D01*
X-3181Y-3967D01*
X-3251Y-4040D01*
X-3130Y-4040D01*
Y-4090D01*
X-3326D01*
Y-4048D01*
X-3225Y-3940D01*
X-3225Y-3940D01*
X-3224Y-3939D01*
X-3223Y-3938D01*
X-3221Y-3936D01*
X-3220Y-3935D01*
X-3218Y-3932D01*
X-3215Y-3930D01*
X-3213Y-3927D01*
X-3208Y-3922D01*
X-3203Y-3915D01*
X-3199Y-3909D01*
X-3197Y-3906D01*
X-3195Y-3904D01*
Y-3903D01*
X-3195Y-3903D01*
X-3194Y-3902D01*
X-3194Y-3901D01*
X-3193Y-3900D01*
X-3192Y-3898D01*
X-3191Y-3894D01*
X-3189Y-3890D01*
X-3188Y-3885D01*
X-3187Y-3880D01*
X-3187Y-3875D01*
Y-3875D01*
Y-3874D01*
Y-3873D01*
X-3187Y-3872D01*
Y-3870D01*
X-3187Y-3869D01*
X-3188Y-3865D01*
X-3189Y-3860D01*
X-3191Y-3855D01*
X-3194Y-3851D01*
X-3196Y-3849D01*
X-3198Y-3847D01*
X-3198Y-3846D01*
X-3198Y-3846D01*
X-3199Y-3846D01*
X-3200Y-3845D01*
X-3201Y-3844D01*
X-3202Y-3843D01*
X-3205Y-3842D01*
X-3210Y-3840D01*
X-3215Y-3838D01*
X-3221Y-3837D01*
X-3224Y-3837D01*
X-3229D01*
X-3231Y-3837D01*
X-3233D01*
X-3234Y-3837D01*
X-3239Y-3838D01*
X-3244Y-3839D01*
X-3250Y-3842D01*
X-3252Y-3843D01*
X-3255Y-3844D01*
X-3258Y-3846D01*
X-3260Y-3848D01*
X-3260Y-3849D01*
X-3260Y-3849D01*
X-3261Y-3850D01*
X-3262Y-3850D01*
X-3263Y-3852D01*
X-3264Y-3853D01*
X-3265Y-3855D01*
X-3266Y-3857D01*
X-3267Y-3859D01*
X-3268Y-3861D01*
X-3269Y-3864D01*
X-3270Y-3867D01*
X-3272Y-3873D01*
X-3272Y-3877D01*
X-3272Y-3881D01*
X-3327D01*
Y-3881D01*
Y-3880D01*
Y-3880D01*
Y-3879D01*
X-3327Y-3877D01*
X-3326Y-3874D01*
X-3326Y-3870D01*
X-3325Y-3866D01*
X-3324Y-3861D01*
X-3323Y-3856D01*
X-3321Y-3850D01*
X-3320Y-3845D01*
X-3317Y-3839D01*
X-3315Y-3833D01*
X-3312Y-3827D01*
X-3308Y-3822D01*
X-3304Y-3817D01*
X-3299Y-3812D01*
X-3299Y-3811D01*
X-3298Y-3810D01*
X-3296Y-3809D01*
X-3294Y-3808D01*
X-3292Y-3806D01*
X-3288Y-3804D01*
X-3284Y-3801D01*
X-3280Y-3799D01*
X-3275Y-3797D01*
X-3269Y-3795D01*
X-3263Y-3792D01*
X-3257Y-3791D01*
X-3250Y-3789D01*
X-3242Y-3788D01*
X-3234Y-3787D01*
X-3226Y-3787D01*
X-3224D01*
X-3222Y-3787D01*
D02*
G37*
G36*
X-2877D02*
X-2875D01*
X-2872Y-3787D01*
X-2867Y-3788D01*
X-2862Y-3789D01*
X-2856Y-3790D01*
X-2850Y-3792D01*
X-2843Y-3794D01*
X-2836Y-3796D01*
X-2829Y-3800D01*
X-2822Y-3804D01*
X-2815Y-3808D01*
X-2809Y-3813D01*
X-2803Y-3820D01*
X-2797Y-3827D01*
X-2797Y-3827D01*
X-2796Y-3829D01*
X-2794Y-3831D01*
X-2792Y-3834D01*
X-2790Y-3838D01*
X-2788Y-3843D01*
X-2785Y-3849D01*
X-2782Y-3856D01*
X-2779Y-3864D01*
X-2777Y-3872D01*
X-2775Y-3882D01*
X-2772Y-3892D01*
X-2770Y-3903D01*
X-2769Y-3915D01*
X-2768Y-3928D01*
X-2768Y-3941D01*
Y-3941D01*
Y-3942D01*
Y-3943D01*
Y-3944D01*
Y-3946D01*
X-2768Y-3948D01*
Y-3951D01*
X-2768Y-3953D01*
X-2768Y-3956D01*
X-2769Y-3960D01*
X-2769Y-3963D01*
X-2769Y-3967D01*
X-2770Y-3975D01*
X-2771Y-3983D01*
X-2773Y-3992D01*
X-2775Y-4002D01*
X-2777Y-4011D01*
X-2780Y-4021D01*
X-2783Y-4030D01*
X-2788Y-4039D01*
X-2792Y-4048D01*
X-2797Y-4056D01*
X-2797Y-4056D01*
X-2799Y-4057D01*
X-2800Y-4060D01*
X-2803Y-4062D01*
X-2806Y-4065D01*
X-2809Y-4069D01*
X-2814Y-4072D01*
X-2819Y-4076D01*
X-2824Y-4080D01*
X-2830Y-4083D01*
X-2837Y-4087D01*
X-2845Y-4090D01*
X-2853Y-4092D01*
X-2861Y-4094D01*
X-2871Y-4095D01*
X-2880Y-4096D01*
X-2883D01*
X-2884Y-4096D01*
X-2886D01*
X-2889Y-4095D01*
X-2894Y-4095D01*
X-2899Y-4094D01*
X-2905Y-4093D01*
X-2911Y-4091D01*
X-2918Y-4089D01*
X-2925Y-4086D01*
X-2932Y-4083D01*
X-2939Y-4079D01*
X-2946Y-4074D01*
X-2952Y-4069D01*
X-2959Y-4063D01*
X-2964Y-4056D01*
X-2965Y-4056D01*
X-2965Y-4054D01*
X-2967Y-4052D01*
X-2969Y-4049D01*
X-2971Y-4044D01*
X-2973Y-4039D01*
X-2976Y-4033D01*
X-2979Y-4027D01*
X-2982Y-4019D01*
X-2984Y-4010D01*
X-2987Y-4001D01*
X-2989Y-3991D01*
X-2991Y-3980D01*
X-2992Y-3968D01*
X-2993Y-3955D01*
X-2994Y-3941D01*
Y-3941D01*
Y-3940D01*
Y-3939D01*
Y-3938D01*
X-2993Y-3936D01*
Y-3934D01*
Y-3932D01*
X-2993Y-3929D01*
X-2993Y-3926D01*
X-2993Y-3923D01*
X-2992Y-3919D01*
X-2992Y-3915D01*
X-2991Y-3908D01*
X-2990Y-3899D01*
X-2988Y-3890D01*
X-2986Y-3880D01*
X-2984Y-3871D01*
X-2981Y-3861D01*
X-2978Y-3852D01*
X-2974Y-3843D01*
X-2969Y-3834D01*
X-2964Y-3827D01*
X-2964Y-3826D01*
X-2963Y-3825D01*
X-2961Y-3823D01*
X-2959Y-3820D01*
X-2956Y-3817D01*
X-2952Y-3814D01*
X-2948Y-3810D01*
X-2943Y-3807D01*
X-2937Y-3803D01*
X-2931Y-3799D01*
X-2924Y-3796D01*
X-2917Y-3793D01*
X-2909Y-3790D01*
X-2900Y-3788D01*
X-2890Y-3787D01*
X-2880Y-3787D01*
X-2878D01*
X-2877Y-3787D01*
D02*
G37*
G36*
X-5562Y2586D02*
X-5624D01*
X-5747Y2918D01*
X-5676D01*
X-5594Y2667D01*
X-5592D01*
X-5511Y2918D01*
X-5439D01*
X-5562Y2586D01*
D02*
G37*
G36*
X-4968Y2918D02*
X-4963Y2917D01*
X-4958Y2917D01*
X-4952Y2916D01*
X-4946Y2915D01*
X-4939Y2914D01*
X-4932Y2913D01*
X-4925Y2911D01*
X-4917Y2909D01*
X-4909Y2907D01*
X-4902Y2904D01*
X-4894Y2901D01*
X-4887Y2898D01*
X-4886Y2897D01*
X-4885Y2897D01*
X-4883Y2896D01*
X-4880Y2894D01*
X-4877Y2892D01*
X-4873Y2889D01*
X-4869Y2886D01*
X-4864Y2883D01*
X-4859Y2879D01*
X-4854Y2875D01*
X-4849Y2870D01*
X-4844Y2865D01*
X-4839Y2859D01*
X-4834Y2853D01*
X-4830Y2847D01*
X-4825Y2840D01*
X-4825Y2839D01*
X-4824Y2838D01*
X-4823Y2836D01*
X-4822Y2833D01*
X-4820Y2830D01*
X-4818Y2825D01*
X-4816Y2820D01*
X-4814Y2815D01*
X-4812Y2808D01*
X-4810Y2802D01*
X-4808Y2794D01*
X-4807Y2787D01*
X-4805Y2779D01*
X-4804Y2770D01*
X-4803Y2761D01*
X-4803Y2752D01*
Y2751D01*
Y2751D01*
Y2750D01*
Y2749D01*
X-4803Y2747D01*
Y2743D01*
X-4804Y2739D01*
X-4804Y2733D01*
X-4805Y2728D01*
X-4806Y2722D01*
X-4807Y2715D01*
X-4809Y2708D01*
X-4810Y2700D01*
X-4813Y2693D01*
X-4815Y2686D01*
X-4818Y2678D01*
X-4822Y2670D01*
X-4825Y2663D01*
X-4826Y2663D01*
X-4826Y2662D01*
X-4828Y2660D01*
X-4829Y2657D01*
X-4832Y2654D01*
X-4834Y2650D01*
X-4838Y2647D01*
X-4841Y2642D01*
X-4845Y2638D01*
X-4850Y2633D01*
X-4855Y2628D01*
X-4860Y2623D01*
X-4866Y2618D01*
X-4873Y2614D01*
X-4879Y2610D01*
X-4887Y2606D01*
X-4887Y2605D01*
X-4888Y2605D01*
X-4890Y2604D01*
X-4893Y2603D01*
X-4897Y2601D01*
X-4902Y2599D01*
X-4907Y2598D01*
X-4912Y2596D01*
X-4919Y2594D01*
X-4926Y2592D01*
X-4933Y2590D01*
X-4941Y2589D01*
X-4949Y2587D01*
X-4958Y2586D01*
X-4967Y2586D01*
X-4976Y2586D01*
X-5082D01*
Y2918D01*
X-4971D01*
X-4968Y2918D01*
D02*
G37*
G36*
X-5292D02*
X-5287Y2917D01*
X-5282Y2917D01*
X-5277Y2916D01*
X-5270Y2915D01*
X-5263Y2914D01*
X-5256Y2913D01*
X-5249Y2911D01*
X-5241Y2909D01*
X-5234Y2907D01*
X-5226Y2904D01*
X-5218Y2901D01*
X-5211Y2898D01*
X-5210Y2897D01*
X-5209Y2897D01*
X-5207Y2896D01*
X-5205Y2894D01*
X-5201Y2892D01*
X-5197Y2889D01*
X-5193Y2886D01*
X-5188Y2883D01*
X-5184Y2879D01*
X-5179Y2875D01*
X-5174Y2870D01*
X-5169Y2865D01*
X-5163Y2859D01*
X-5159Y2853D01*
X-5154Y2847D01*
X-5150Y2840D01*
X-5149Y2839D01*
X-5149Y2838D01*
X-5148Y2836D01*
X-5146Y2833D01*
X-5145Y2830D01*
X-5143Y2825D01*
X-5141Y2820D01*
X-5138Y2815D01*
X-5136Y2808D01*
X-5134Y2802D01*
X-5133Y2794D01*
X-5131Y2787D01*
X-5130Y2779D01*
X-5129Y2770D01*
X-5128Y2761D01*
X-5128Y2752D01*
Y2751D01*
Y2751D01*
Y2750D01*
Y2749D01*
X-5128Y2747D01*
Y2743D01*
X-5128Y2739D01*
X-5129Y2733D01*
X-5129Y2728D01*
X-5130Y2722D01*
X-5131Y2715D01*
X-5133Y2708D01*
X-5135Y2700D01*
X-5137Y2693D01*
X-5139Y2686D01*
X-5142Y2678D01*
X-5146Y2670D01*
X-5150Y2663D01*
X-5150Y2663D01*
X-5151Y2662D01*
X-5152Y2660D01*
X-5154Y2657D01*
X-5156Y2654D01*
X-5159Y2650D01*
X-5162Y2647D01*
X-5166Y2642D01*
X-5170Y2638D01*
X-5174Y2633D01*
X-5179Y2628D01*
X-5185Y2623D01*
X-5191Y2618D01*
X-5197Y2614D01*
X-5204Y2610D01*
X-5211Y2606D01*
X-5211Y2605D01*
X-5213Y2605D01*
X-5215Y2604D01*
X-5218Y2603D01*
X-5221Y2601D01*
X-5226Y2599D01*
X-5231Y2598D01*
X-5237Y2596D01*
X-5243Y2594D01*
X-5250Y2592D01*
X-5257Y2590D01*
X-5265Y2589D01*
X-5273Y2587D01*
X-5282Y2586D01*
X-5291Y2586D01*
X-5300Y2586D01*
X-5407D01*
Y2918D01*
X-5296D01*
X-5292Y2918D01*
D02*
G37*
G36*
X-2865Y644D02*
X-2919D01*
Y888D01*
X-2937D01*
Y940D01*
X-2865D01*
Y644D01*
D02*
G37*
G36*
X-3008D02*
X-3063D01*
Y888D01*
X-3080D01*
Y940D01*
X-3008D01*
Y644D01*
D02*
G37*
G36*
X-3129D02*
X-3190D01*
Y705D01*
X-3129D01*
Y644D01*
D02*
G37*
G36*
X-3255D02*
X-3309D01*
Y888D01*
X-3327D01*
Y940D01*
X-3255D01*
Y644D01*
D02*
G37*
G36*
X-2845Y1723D02*
X-2842D01*
X-2838Y1723D01*
X-2834Y1722D01*
X-2829Y1722D01*
X-2824Y1721D01*
X-2819Y1719D01*
X-2813Y1718D01*
X-2807Y1716D01*
X-2801Y1714D01*
X-2796Y1711D01*
X-2790Y1708D01*
X-2785Y1705D01*
X-2780Y1701D01*
X-2779Y1701D01*
X-2779Y1700D01*
X-2777Y1698D01*
X-2776Y1697D01*
X-2774Y1694D01*
X-2772Y1692D01*
X-2769Y1688D01*
X-2767Y1685D01*
X-2765Y1681D01*
X-2763Y1676D01*
X-2760Y1671D01*
X-2758Y1665D01*
X-2757Y1659D01*
X-2756Y1653D01*
X-2755Y1646D01*
X-2754Y1639D01*
Y1638D01*
Y1638D01*
Y1636D01*
X-2755Y1634D01*
Y1632D01*
X-2755Y1630D01*
X-2755Y1627D01*
X-2756Y1624D01*
X-2757Y1620D01*
X-2757Y1617D01*
X-2759Y1609D01*
X-2761Y1605D01*
X-2762Y1601D01*
X-2764Y1596D01*
X-2766Y1592D01*
X-2766Y1592D01*
X-2767Y1591D01*
X-2767Y1590D01*
X-2768Y1588D01*
X-2770Y1586D01*
X-2771Y1584D01*
X-2773Y1581D01*
X-2775Y1578D01*
X-2778Y1575D01*
X-2780Y1571D01*
X-2784Y1567D01*
X-2787Y1562D01*
X-2791Y1558D01*
X-2795Y1553D01*
X-2800Y1548D01*
X-2805Y1543D01*
X-2875Y1470D01*
X-2754Y1470D01*
Y1420D01*
X-2950D01*
Y1462D01*
X-2849Y1570D01*
X-2848Y1570D01*
X-2848Y1571D01*
X-2847Y1572D01*
X-2845Y1574D01*
X-2843Y1575D01*
X-2842Y1578D01*
X-2839Y1580D01*
X-2837Y1583D01*
X-2832Y1588D01*
X-2827Y1595D01*
X-2823Y1601D01*
X-2821Y1604D01*
X-2819Y1606D01*
Y1607D01*
X-2818Y1607D01*
X-2818Y1608D01*
X-2817Y1609D01*
X-2817Y1610D01*
X-2816Y1612D01*
X-2815Y1616D01*
X-2813Y1620D01*
X-2812Y1625D01*
X-2811Y1630D01*
X-2810Y1635D01*
Y1635D01*
Y1636D01*
Y1637D01*
X-2811Y1638D01*
Y1640D01*
X-2811Y1641D01*
X-2812Y1645D01*
X-2813Y1650D01*
X-2815Y1655D01*
X-2818Y1659D01*
X-2820Y1661D01*
X-2822Y1663D01*
X-2822Y1664D01*
X-2822Y1664D01*
X-2823Y1664D01*
X-2823Y1665D01*
X-2825Y1666D01*
X-2826Y1667D01*
X-2829Y1668D01*
X-2834Y1670D01*
X-2839Y1672D01*
X-2845Y1673D01*
X-2848Y1673D01*
X-2853D01*
X-2855Y1673D01*
X-2856D01*
X-2858Y1673D01*
X-2863Y1672D01*
X-2868Y1671D01*
X-2874Y1668D01*
X-2876Y1667D01*
X-2879Y1666D01*
X-2881Y1664D01*
X-2884Y1662D01*
X-2884Y1661D01*
X-2884Y1661D01*
X-2885Y1660D01*
X-2886Y1660D01*
X-2887Y1658D01*
X-2888Y1657D01*
X-2889Y1655D01*
X-2890Y1653D01*
X-2891Y1651D01*
X-2892Y1649D01*
X-2893Y1646D01*
X-2894Y1643D01*
X-2895Y1637D01*
X-2896Y1633D01*
X-2896Y1629D01*
X-2951D01*
Y1629D01*
Y1630D01*
Y1630D01*
Y1631D01*
X-2950Y1633D01*
X-2950Y1636D01*
X-2950Y1640D01*
X-2949Y1644D01*
X-2948Y1649D01*
X-2947Y1654D01*
X-2945Y1660D01*
X-2944Y1665D01*
X-2941Y1671D01*
X-2939Y1677D01*
X-2935Y1683D01*
X-2932Y1688D01*
X-2928Y1693D01*
X-2923Y1698D01*
X-2923Y1699D01*
X-2922Y1700D01*
X-2920Y1701D01*
X-2918Y1702D01*
X-2915Y1704D01*
X-2912Y1706D01*
X-2908Y1709D01*
X-2904Y1711D01*
X-2899Y1713D01*
X-2893Y1715D01*
X-2887Y1718D01*
X-2881Y1719D01*
X-2874Y1721D01*
X-2866Y1722D01*
X-2858Y1723D01*
X-2850Y1723D01*
X-2848D01*
X-2845Y1723D01*
D02*
G37*
G36*
X-3008Y1420D02*
X-3063D01*
Y1664D01*
X-3080D01*
Y1717D01*
X-3008D01*
Y1420D01*
D02*
G37*
G36*
X-3129D02*
X-3190D01*
Y1481D01*
X-3129D01*
Y1420D01*
D02*
G37*
G36*
X-3255D02*
X-3309D01*
Y1664D01*
X-3327D01*
Y1717D01*
X-3255D01*
Y1420D01*
D02*
G37*
G36*
X-3032Y-150D02*
X-3093D01*
Y-89D01*
X-3032D01*
Y-150D01*
D02*
G37*
G36*
X-3222Y153D02*
X-3218D01*
X-3215Y153D01*
X-3210Y152D01*
X-3205Y152D01*
X-3200Y151D01*
X-3195Y149D01*
X-3189Y148D01*
X-3183Y146D01*
X-3177Y144D01*
X-3172Y141D01*
X-3166Y138D01*
X-3161Y135D01*
X-3156Y131D01*
X-3156Y131D01*
X-3155Y130D01*
X-3154Y128D01*
X-3152Y127D01*
X-3150Y124D01*
X-3148Y122D01*
X-3146Y118D01*
X-3143Y115D01*
X-3141Y110D01*
X-3139Y106D01*
X-3137Y101D01*
X-3135Y95D01*
X-3133Y89D01*
X-3132Y83D01*
X-3131Y76D01*
X-3131Y69D01*
Y69D01*
Y68D01*
Y66D01*
X-3131Y64D01*
Y62D01*
X-3131Y60D01*
X-3132Y57D01*
X-3132Y54D01*
X-3133Y50D01*
X-3133Y47D01*
X-3136Y39D01*
X-3137Y35D01*
X-3138Y30D01*
X-3140Y26D01*
X-3142Y22D01*
X-3142Y22D01*
X-3143Y21D01*
X-3143Y20D01*
X-3144Y18D01*
X-3146Y16D01*
X-3147Y14D01*
X-3149Y11D01*
X-3151Y8D01*
X-3154Y5D01*
X-3157Y1D01*
X-3160Y-3D01*
X-3163Y-8D01*
X-3167Y-12D01*
X-3171Y-17D01*
X-3176Y-22D01*
X-3181Y-27D01*
X-3251Y-100D01*
X-3130Y-100D01*
Y-150D01*
X-3326D01*
Y-108D01*
X-3225Y-0D01*
X-3225Y0D01*
X-3224Y1D01*
X-3223Y2D01*
X-3221Y4D01*
X-3220Y5D01*
X-3218Y8D01*
X-3215Y10D01*
X-3213Y13D01*
X-3208Y18D01*
X-3203Y25D01*
X-3199Y31D01*
X-3197Y34D01*
X-3195Y36D01*
Y37D01*
X-3195Y37D01*
X-3194Y38D01*
X-3194Y39D01*
X-3193Y40D01*
X-3192Y42D01*
X-3191Y46D01*
X-3189Y50D01*
X-3188Y55D01*
X-3187Y60D01*
X-3187Y65D01*
Y65D01*
Y66D01*
Y67D01*
X-3187Y68D01*
Y70D01*
X-3187Y71D01*
X-3188Y75D01*
X-3189Y80D01*
X-3191Y85D01*
X-3194Y89D01*
X-3196Y91D01*
X-3198Y93D01*
X-3198Y94D01*
X-3198Y94D01*
X-3199Y94D01*
X-3200Y95D01*
X-3201Y96D01*
X-3202Y97D01*
X-3205Y98D01*
X-3210Y100D01*
X-3215Y102D01*
X-3221Y103D01*
X-3224Y103D01*
X-3229D01*
X-3231Y103D01*
X-3233D01*
X-3234Y103D01*
X-3239Y102D01*
X-3244Y101D01*
X-3250Y98D01*
X-3252Y97D01*
X-3255Y96D01*
X-3258Y94D01*
X-3260Y92D01*
X-3260Y91D01*
X-3260Y91D01*
X-3261Y90D01*
X-3262Y89D01*
X-3263Y88D01*
X-3264Y87D01*
X-3265Y85D01*
X-3266Y83D01*
X-3267Y81D01*
X-3268Y79D01*
X-3269Y76D01*
X-3270Y73D01*
X-3272Y67D01*
X-3272Y63D01*
X-3272Y59D01*
X-3327D01*
Y59D01*
Y60D01*
Y60D01*
Y61D01*
X-3327Y63D01*
X-3326Y66D01*
X-3326Y70D01*
X-3325Y74D01*
X-3324Y79D01*
X-3323Y84D01*
X-3321Y90D01*
X-3320Y95D01*
X-3317Y101D01*
X-3315Y107D01*
X-3312Y113D01*
X-3308Y118D01*
X-3304Y123D01*
X-3299Y128D01*
X-3299Y129D01*
X-3298Y130D01*
X-3296Y131D01*
X-3294Y132D01*
X-3292Y134D01*
X-3288Y136D01*
X-3284Y139D01*
X-3280Y141D01*
X-3275Y143D01*
X-3269Y145D01*
X-3263Y148D01*
X-3257Y149D01*
X-3250Y151D01*
X-3242Y152D01*
X-3234Y153D01*
X-3226Y153D01*
X-3224D01*
X-3222Y153D01*
D02*
G37*
G36*
X-2669Y26D02*
X-2668Y25D01*
X-2667Y26D01*
X-2667Y26D01*
X-2666Y26D01*
X-2666Y27D01*
X-2663Y30D01*
X-2660Y32D01*
X-2656Y35D01*
X-2652Y38D01*
X-2647Y41D01*
X-2642Y43D01*
X-2642D01*
X-2642Y44D01*
X-2641Y44D01*
X-2640Y44D01*
X-2639Y45D01*
X-2637Y45D01*
X-2634Y46D01*
X-2629Y47D01*
X-2624Y48D01*
X-2619Y49D01*
X-2613Y49D01*
X-2610D01*
X-2608Y49D01*
X-2606Y48D01*
X-2603Y48D01*
X-2600Y48D01*
X-2597Y47D01*
X-2593Y47D01*
X-2589Y46D01*
X-2581Y44D01*
X-2576Y42D01*
X-2572Y41D01*
X-2568Y39D01*
X-2564Y36D01*
X-2564Y36D01*
X-2563Y36D01*
X-2562Y35D01*
X-2560Y34D01*
X-2558Y33D01*
X-2556Y31D01*
X-2554Y29D01*
X-2552Y27D01*
X-2549Y25D01*
X-2546Y22D01*
X-2543Y19D01*
X-2541Y16D01*
X-2538Y13D01*
X-2535Y9D01*
X-2533Y5D01*
X-2531Y1D01*
X-2530Y1D01*
X-2530Y0D01*
X-2529Y-1D01*
X-2529Y-3D01*
X-2528Y-5D01*
X-2527Y-8D01*
X-2526Y-11D01*
X-2524Y-14D01*
X-2523Y-18D01*
X-2522Y-22D01*
X-2521Y-26D01*
X-2520Y-31D01*
X-2520Y-36D01*
X-2519Y-41D01*
X-2519Y-46D01*
X-2518Y-51D01*
Y-51D01*
Y-53D01*
Y-54D01*
X-2519Y-56D01*
X-2519Y-59D01*
X-2519Y-62D01*
X-2520Y-66D01*
X-2520Y-70D01*
X-2521Y-74D01*
X-2522Y-78D01*
X-2523Y-83D01*
X-2524Y-87D01*
X-2526Y-92D01*
X-2528Y-97D01*
X-2530Y-101D01*
X-2532Y-106D01*
X-2533Y-106D01*
X-2533Y-107D01*
X-2534Y-108D01*
X-2535Y-110D01*
X-2536Y-112D01*
X-2538Y-114D01*
X-2540Y-117D01*
X-2543Y-119D01*
X-2545Y-122D01*
X-2548Y-125D01*
X-2551Y-128D01*
X-2555Y-131D01*
X-2558Y-134D01*
X-2562Y-137D01*
X-2567Y-140D01*
X-2571Y-143D01*
X-2571Y-143D01*
X-2572Y-143D01*
X-2574Y-144D01*
X-2575Y-145D01*
X-2578Y-146D01*
X-2581Y-147D01*
X-2584Y-148D01*
X-2587Y-149D01*
X-2591Y-151D01*
X-2596Y-152D01*
X-2600Y-153D01*
X-2605Y-154D01*
X-2611Y-155D01*
X-2616Y-155D01*
X-2622Y-156D01*
X-2627Y-156D01*
X-2631D01*
X-2633Y-156D01*
X-2636Y-155D01*
X-2640Y-155D01*
X-2643Y-155D01*
X-2648Y-154D01*
X-2652Y-154D01*
X-2657Y-153D01*
X-2662Y-151D01*
X-2667Y-150D01*
X-2672Y-149D01*
X-2677Y-147D01*
X-2682Y-145D01*
X-2687Y-142D01*
X-2687Y-142D01*
X-2688Y-142D01*
X-2689Y-141D01*
X-2691Y-140D01*
X-2693Y-139D01*
X-2695Y-137D01*
X-2698Y-135D01*
X-2701Y-133D01*
X-2704Y-130D01*
X-2707Y-127D01*
X-2711Y-124D01*
X-2714Y-121D01*
X-2717Y-117D01*
X-2720Y-113D01*
X-2723Y-109D01*
X-2726Y-104D01*
X-2726Y-104D01*
X-2726Y-103D01*
X-2727Y-102D01*
X-2728Y-100D01*
X-2729Y-97D01*
X-2730Y-95D01*
X-2731Y-91D01*
X-2732Y-88D01*
X-2734Y-83D01*
X-2735Y-79D01*
X-2736Y-74D01*
X-2737Y-69D01*
X-2738Y-64D01*
X-2739Y-58D01*
X-2739Y-52D01*
X-2739Y-46D01*
Y-45D01*
Y-45D01*
Y-43D01*
X-2739Y-40D01*
X-2739Y-37D01*
X-2738Y-34D01*
X-2738Y-30D01*
X-2737Y-25D01*
X-2737Y-20D01*
X-2736Y-16D01*
X-2735Y-10D01*
X-2733Y-5D01*
X-2732Y1D01*
X-2730Y7D01*
X-2728Y13D01*
X-2726Y18D01*
X-2726Y19D01*
X-2725Y20D01*
X-2725Y21D01*
X-2723Y24D01*
X-2722Y26D01*
X-2720Y30D01*
X-2718Y34D01*
X-2716Y38D01*
X-2713Y43D01*
X-2710Y48D01*
X-2706Y53D01*
X-2702Y59D01*
X-2698Y65D01*
X-2694Y71D01*
X-2689Y77D01*
X-2683Y84D01*
X-2628Y149D01*
X-2563D01*
X-2669Y26D01*
D02*
G37*
G36*
X-2877Y153D02*
X-2875D01*
X-2872Y153D01*
X-2867Y152D01*
X-2862Y151D01*
X-2856Y150D01*
X-2850Y148D01*
X-2843Y146D01*
X-2836Y144D01*
X-2829Y140D01*
X-2822Y136D01*
X-2815Y132D01*
X-2809Y127D01*
X-2803Y120D01*
X-2797Y113D01*
X-2797Y113D01*
X-2796Y111D01*
X-2794Y109D01*
X-2792Y106D01*
X-2790Y102D01*
X-2788Y97D01*
X-2785Y91D01*
X-2782Y84D01*
X-2779Y76D01*
X-2777Y68D01*
X-2775Y58D01*
X-2772Y48D01*
X-2770Y37D01*
X-2769Y25D01*
X-2768Y12D01*
X-2768Y-1D01*
Y-1D01*
Y-2D01*
Y-3D01*
Y-4D01*
Y-6D01*
X-2768Y-8D01*
Y-11D01*
X-2768Y-13D01*
X-2768Y-16D01*
X-2769Y-20D01*
X-2769Y-23D01*
X-2769Y-27D01*
X-2770Y-35D01*
X-2771Y-43D01*
X-2773Y-52D01*
X-2775Y-62D01*
X-2777Y-71D01*
X-2780Y-81D01*
X-2783Y-90D01*
X-2788Y-99D01*
X-2792Y-108D01*
X-2797Y-116D01*
X-2797Y-116D01*
X-2799Y-117D01*
X-2800Y-120D01*
X-2803Y-122D01*
X-2806Y-125D01*
X-2809Y-129D01*
X-2814Y-132D01*
X-2819Y-136D01*
X-2824Y-140D01*
X-2830Y-143D01*
X-2837Y-147D01*
X-2845Y-150D01*
X-2853Y-152D01*
X-2861Y-154D01*
X-2871Y-155D01*
X-2880Y-156D01*
X-2883D01*
X-2884Y-156D01*
X-2886D01*
X-2889Y-155D01*
X-2894Y-155D01*
X-2899Y-154D01*
X-2905Y-153D01*
X-2911Y-151D01*
X-2918Y-149D01*
X-2925Y-146D01*
X-2932Y-143D01*
X-2939Y-139D01*
X-2946Y-134D01*
X-2952Y-129D01*
X-2959Y-123D01*
X-2964Y-116D01*
X-2965Y-116D01*
X-2965Y-114D01*
X-2967Y-112D01*
X-2969Y-109D01*
X-2971Y-104D01*
X-2973Y-99D01*
X-2976Y-93D01*
X-2979Y-87D01*
X-2982Y-79D01*
X-2984Y-70D01*
X-2987Y-61D01*
X-2989Y-51D01*
X-2991Y-40D01*
X-2992Y-28D01*
X-2993Y-15D01*
X-2994Y-1D01*
Y-1D01*
Y-0D01*
Y1D01*
Y2D01*
X-2993Y4D01*
Y6D01*
Y8D01*
X-2993Y11D01*
X-2993Y14D01*
X-2993Y17D01*
X-2992Y21D01*
X-2992Y25D01*
X-2991Y32D01*
X-2990Y41D01*
X-2988Y50D01*
X-2986Y60D01*
X-2984Y69D01*
X-2981Y79D01*
X-2978Y88D01*
X-2974Y97D01*
X-2969Y106D01*
X-2964Y113D01*
X-2964Y114D01*
X-2963Y115D01*
X-2961Y117D01*
X-2959Y120D01*
X-2956Y123D01*
X-2952Y126D01*
X-2948Y130D01*
X-2943Y133D01*
X-2937Y137D01*
X-2931Y141D01*
X-2924Y144D01*
X-2917Y147D01*
X-2909Y150D01*
X-2900Y152D01*
X-2890Y153D01*
X-2880Y153D01*
X-2878D01*
X-2877Y153D01*
D02*
G37*
G36*
X-2731Y-2207D02*
X-2727D01*
X-2724Y-2207D01*
X-2719Y-2208D01*
X-2714Y-2208D01*
X-2709Y-2209D01*
X-2703Y-2210D01*
X-2698Y-2211D01*
X-2692Y-2213D01*
X-2686Y-2215D01*
X-2680Y-2218D01*
X-2674Y-2220D01*
X-2669Y-2224D01*
X-2664Y-2227D01*
X-2664Y-2227D01*
X-2663Y-2228D01*
X-2662Y-2229D01*
X-2660Y-2231D01*
X-2658Y-2233D01*
X-2656Y-2235D01*
X-2654Y-2238D01*
X-2651Y-2242D01*
X-2649Y-2245D01*
X-2647Y-2250D01*
X-2645Y-2254D01*
X-2643Y-2259D01*
X-2641Y-2265D01*
X-2640Y-2271D01*
X-2639Y-2277D01*
X-2639Y-2284D01*
Y-2284D01*
Y-2285D01*
Y-2286D01*
X-2639Y-2288D01*
X-2639Y-2290D01*
X-2639Y-2293D01*
X-2640Y-2296D01*
X-2640Y-2299D01*
X-2642Y-2306D01*
X-2643Y-2309D01*
X-2645Y-2313D01*
X-2646Y-2317D01*
X-2648Y-2321D01*
X-2650Y-2324D01*
X-2653Y-2328D01*
X-2653Y-2328D01*
X-2653Y-2328D01*
X-2654Y-2329D01*
X-2655Y-2330D01*
X-2657Y-2332D01*
X-2658Y-2334D01*
X-2660Y-2335D01*
X-2662Y-2337D01*
X-2665Y-2339D01*
X-2668Y-2341D01*
X-2671Y-2343D01*
X-2675Y-2345D01*
X-2678Y-2347D01*
X-2682Y-2348D01*
X-2687Y-2350D01*
X-2691Y-2351D01*
Y-2352D01*
X-2691D01*
X-2690Y-2352D01*
X-2688Y-2352D01*
X-2686Y-2353D01*
X-2684Y-2353D01*
X-2681Y-2354D01*
X-2678Y-2355D01*
X-2674Y-2356D01*
X-2670Y-2358D01*
X-2667Y-2359D01*
X-2663Y-2361D01*
X-2659Y-2363D01*
X-2655Y-2366D01*
X-2651Y-2369D01*
X-2648Y-2372D01*
X-2645Y-2375D01*
X-2645Y-2375D01*
X-2644Y-2376D01*
X-2643Y-2377D01*
X-2642Y-2379D01*
X-2641Y-2380D01*
X-2640Y-2383D01*
X-2638Y-2385D01*
X-2636Y-2388D01*
X-2635Y-2392D01*
X-2634Y-2396D01*
X-2632Y-2400D01*
X-2631Y-2405D01*
X-2630Y-2410D01*
X-2629Y-2415D01*
X-2629Y-2420D01*
X-2628Y-2426D01*
Y-2427D01*
Y-2428D01*
X-2629Y-2430D01*
X-2629Y-2433D01*
X-2629Y-2437D01*
X-2630Y-2441D01*
X-2631Y-2445D01*
X-2632Y-2450D01*
X-2633Y-2456D01*
X-2635Y-2461D01*
X-2637Y-2466D01*
X-2640Y-2472D01*
X-2643Y-2477D01*
X-2647Y-2482D01*
X-2651Y-2487D01*
X-2656Y-2492D01*
X-2656Y-2492D01*
X-2657Y-2493D01*
X-2659Y-2494D01*
X-2661Y-2496D01*
X-2664Y-2498D01*
X-2667Y-2500D01*
X-2671Y-2502D01*
X-2676Y-2504D01*
X-2681Y-2506D01*
X-2687Y-2508D01*
X-2693Y-2511D01*
X-2700Y-2512D01*
X-2707Y-2514D01*
X-2715Y-2515D01*
X-2723Y-2516D01*
X-2732Y-2516D01*
X-2736D01*
X-2737Y-2516D01*
X-2741Y-2515D01*
X-2745Y-2515D01*
X-2750Y-2515D01*
X-2755Y-2514D01*
X-2761Y-2513D01*
X-2767Y-2512D01*
X-2773Y-2510D01*
X-2779Y-2508D01*
X-2786Y-2506D01*
X-2792Y-2503D01*
X-2798Y-2500D01*
X-2804Y-2496D01*
X-2810Y-2492D01*
X-2810Y-2492D01*
X-2811Y-2491D01*
X-2812Y-2490D01*
X-2814Y-2488D01*
X-2816Y-2485D01*
X-2818Y-2482D01*
X-2821Y-2479D01*
X-2824Y-2475D01*
X-2826Y-2470D01*
X-2829Y-2465D01*
X-2831Y-2460D01*
X-2833Y-2454D01*
X-2835Y-2447D01*
X-2837Y-2440D01*
X-2838Y-2433D01*
X-2838Y-2425D01*
X-2782D01*
Y-2425D01*
Y-2426D01*
X-2782Y-2427D01*
X-2782Y-2428D01*
X-2782Y-2430D01*
X-2781Y-2432D01*
X-2780Y-2436D01*
X-2778Y-2441D01*
X-2776Y-2446D01*
X-2774Y-2449D01*
X-2772Y-2451D01*
X-2770Y-2453D01*
X-2768Y-2456D01*
X-2768D01*
X-2767Y-2456D01*
X-2767Y-2456D01*
X-2766Y-2457D01*
X-2764Y-2458D01*
X-2763Y-2459D01*
X-2761Y-2460D01*
X-2758Y-2461D01*
X-2756Y-2462D01*
X-2753Y-2463D01*
X-2750Y-2464D01*
X-2747Y-2464D01*
X-2744Y-2465D01*
X-2740Y-2466D01*
X-2736Y-2466D01*
X-2732Y-2466D01*
X-2730D01*
X-2728Y-2466D01*
X-2726D01*
X-2724Y-2465D01*
X-2721Y-2465D01*
X-2719Y-2465D01*
X-2713Y-2463D01*
X-2708Y-2461D01*
X-2702Y-2459D01*
X-2699Y-2457D01*
X-2697Y-2455D01*
X-2697Y-2455D01*
X-2697Y-2454D01*
X-2696Y-2454D01*
X-2695Y-2453D01*
X-2694Y-2452D01*
X-2693Y-2450D01*
X-2692Y-2448D01*
X-2691Y-2446D01*
X-2690Y-2444D01*
X-2689Y-2442D01*
X-2688Y-2439D01*
X-2687Y-2436D01*
X-2686Y-2433D01*
X-2686Y-2429D01*
X-2685Y-2425D01*
X-2685Y-2421D01*
Y-2421D01*
Y-2420D01*
Y-2419D01*
X-2685Y-2418D01*
X-2686Y-2415D01*
X-2686Y-2413D01*
X-2687Y-2408D01*
X-2689Y-2403D01*
X-2690Y-2400D01*
X-2691Y-2397D01*
X-2693Y-2394D01*
X-2695Y-2392D01*
X-2698Y-2390D01*
X-2700Y-2388D01*
X-2700Y-2387D01*
X-2701Y-2387D01*
X-2702Y-2387D01*
X-2703Y-2386D01*
X-2705Y-2385D01*
X-2707Y-2384D01*
X-2709Y-2384D01*
X-2712Y-2383D01*
X-2715Y-2382D01*
X-2719Y-2381D01*
X-2723Y-2380D01*
X-2727Y-2379D01*
X-2732Y-2379D01*
X-2738Y-2378D01*
X-2743Y-2378D01*
X-2762D01*
Y-2334D01*
X-2747D01*
X-2745Y-2334D01*
X-2741Y-2333D01*
X-2737Y-2333D01*
X-2733Y-2332D01*
X-2728Y-2331D01*
X-2723Y-2329D01*
X-2718Y-2327D01*
X-2713Y-2324D01*
X-2709Y-2321D01*
X-2704Y-2317D01*
X-2701Y-2312D01*
X-2699Y-2307D01*
X-2698Y-2304D01*
X-2697Y-2300D01*
X-2696Y-2297D01*
X-2696Y-2293D01*
Y-2293D01*
Y-2293D01*
Y-2292D01*
X-2696Y-2291D01*
Y-2289D01*
X-2697Y-2287D01*
X-2698Y-2283D01*
X-2699Y-2279D01*
X-2701Y-2275D01*
X-2703Y-2270D01*
X-2705Y-2268D01*
X-2707Y-2266D01*
X-2707Y-2266D01*
X-2708Y-2265D01*
X-2709Y-2265D01*
X-2711Y-2263D01*
X-2714Y-2261D01*
X-2719Y-2260D01*
X-2724Y-2258D01*
X-2730Y-2257D01*
X-2737Y-2257D01*
X-2738D01*
X-2740Y-2257D01*
X-2741D01*
X-2743Y-2257D01*
X-2748Y-2258D01*
X-2753Y-2259D01*
X-2758Y-2261D01*
X-2763Y-2263D01*
X-2768Y-2266D01*
X-2768Y-2266D01*
X-2769Y-2268D01*
X-2771Y-2270D01*
X-2773Y-2273D01*
X-2775Y-2277D01*
X-2777Y-2281D01*
X-2779Y-2287D01*
X-2779Y-2290D01*
X-2779Y-2293D01*
X-2834D01*
Y-2292D01*
Y-2292D01*
Y-2291D01*
X-2834Y-2289D01*
X-2834Y-2286D01*
X-2833Y-2283D01*
X-2833Y-2279D01*
X-2832Y-2274D01*
X-2831Y-2270D01*
X-2829Y-2265D01*
X-2827Y-2259D01*
X-2825Y-2254D01*
X-2823Y-2249D01*
X-2820Y-2244D01*
X-2816Y-2239D01*
X-2812Y-2234D01*
X-2807Y-2229D01*
X-2807Y-2229D01*
X-2806Y-2228D01*
X-2804Y-2227D01*
X-2802Y-2226D01*
X-2800Y-2224D01*
X-2796Y-2222D01*
X-2792Y-2220D01*
X-2788Y-2218D01*
X-2783Y-2216D01*
X-2778Y-2214D01*
X-2772Y-2212D01*
X-2765Y-2210D01*
X-2758Y-2209D01*
X-2751Y-2207D01*
X-2743Y-2207D01*
X-2735Y-2207D01*
X-2733D01*
X-2731Y-2207D01*
D02*
G37*
G36*
X-3129Y-2510D02*
X-3190D01*
Y-2449D01*
X-3129D01*
Y-2510D01*
D02*
G37*
G36*
X-3255D02*
X-3309D01*
Y-2266D01*
X-3327D01*
Y-2213D01*
X-3255D01*
Y-2510D01*
D02*
G37*
G36*
X-2973Y-2207D02*
X-2972D01*
X-2968Y-2207D01*
X-2964Y-2208D01*
X-2958Y-2209D01*
X-2953Y-2210D01*
X-2946Y-2211D01*
X-2940Y-2214D01*
X-2933Y-2216D01*
X-2926Y-2220D01*
X-2919Y-2224D01*
X-2912Y-2228D01*
X-2906Y-2233D01*
X-2899Y-2240D01*
X-2894Y-2247D01*
X-2893Y-2247D01*
X-2893Y-2249D01*
X-2891Y-2251D01*
X-2889Y-2254D01*
X-2887Y-2258D01*
X-2885Y-2263D01*
X-2882Y-2269D01*
X-2879Y-2276D01*
X-2876Y-2284D01*
X-2874Y-2292D01*
X-2871Y-2302D01*
X-2869Y-2312D01*
X-2867Y-2323D01*
X-2866Y-2335D01*
X-2865Y-2348D01*
X-2864Y-2361D01*
Y-2361D01*
Y-2362D01*
Y-2363D01*
Y-2364D01*
Y-2366D01*
X-2865Y-2368D01*
Y-2371D01*
X-2865Y-2373D01*
X-2865Y-2376D01*
X-2865Y-2380D01*
X-2866Y-2383D01*
X-2866Y-2387D01*
X-2867Y-2395D01*
X-2868Y-2403D01*
X-2870Y-2412D01*
X-2872Y-2422D01*
X-2874Y-2431D01*
X-2877Y-2441D01*
X-2880Y-2450D01*
X-2884Y-2459D01*
X-2889Y-2468D01*
X-2894Y-2476D01*
X-2894Y-2476D01*
X-2895Y-2477D01*
X-2897Y-2480D01*
X-2899Y-2482D01*
X-2902Y-2485D01*
X-2906Y-2489D01*
X-2910Y-2492D01*
X-2915Y-2496D01*
X-2921Y-2500D01*
X-2927Y-2503D01*
X-2934Y-2507D01*
X-2941Y-2510D01*
X-2949Y-2512D01*
X-2958Y-2514D01*
X-2967Y-2515D01*
X-2977Y-2516D01*
X-2980D01*
X-2981Y-2516D01*
X-2982D01*
X-2986Y-2515D01*
X-2991Y-2515D01*
X-2996Y-2514D01*
X-3002Y-2513D01*
X-3008Y-2511D01*
X-3015Y-2509D01*
X-3022Y-2506D01*
X-3029Y-2503D01*
X-3036Y-2499D01*
X-3042Y-2494D01*
X-3049Y-2489D01*
X-3055Y-2483D01*
X-3061Y-2476D01*
X-3061Y-2476D01*
X-3062Y-2474D01*
X-3064Y-2472D01*
X-3066Y-2468D01*
X-3068Y-2464D01*
X-3070Y-2459D01*
X-3073Y-2453D01*
X-3076Y-2447D01*
X-3079Y-2439D01*
X-3081Y-2430D01*
X-3083Y-2421D01*
X-3086Y-2411D01*
X-3088Y-2400D01*
X-3089Y-2388D01*
X-3090Y-2375D01*
X-3090Y-2361D01*
Y-2361D01*
Y-2360D01*
Y-2359D01*
Y-2358D01*
X-3090Y-2356D01*
Y-2354D01*
Y-2352D01*
X-3090Y-2349D01*
X-3090Y-2346D01*
X-3089Y-2343D01*
X-3089Y-2339D01*
X-3089Y-2335D01*
X-3088Y-2328D01*
X-3087Y-2319D01*
X-3085Y-2310D01*
X-3083Y-2300D01*
X-3081Y-2291D01*
X-3078Y-2281D01*
X-3074Y-2272D01*
X-3071Y-2263D01*
X-3066Y-2254D01*
X-3061Y-2247D01*
X-3061Y-2246D01*
X-3060Y-2245D01*
X-3058Y-2243D01*
X-3056Y-2240D01*
X-3053Y-2237D01*
X-3049Y-2234D01*
X-3045Y-2230D01*
X-3040Y-2227D01*
X-3034Y-2223D01*
X-3028Y-2219D01*
X-3021Y-2216D01*
X-3013Y-2213D01*
X-3005Y-2210D01*
X-2997Y-2208D01*
X-2987Y-2207D01*
X-2977Y-2207D01*
X-2975D01*
X-2973Y-2207D01*
D02*
G37*
G36*
X-2729Y-2997D02*
X-2725D01*
X-2722Y-2997D01*
X-2717Y-2998D01*
X-2712Y-2998D01*
X-2707Y-2999D01*
X-2702Y-3001D01*
X-2696Y-3002D01*
X-2690Y-3004D01*
X-2684Y-3006D01*
X-2679Y-3009D01*
X-2673Y-3012D01*
X-2668Y-3015D01*
X-2663Y-3019D01*
X-2663Y-3019D01*
X-2662Y-3020D01*
X-2661Y-3022D01*
X-2659Y-3023D01*
X-2657Y-3026D01*
X-2655Y-3028D01*
X-2653Y-3032D01*
X-2650Y-3035D01*
X-2648Y-3040D01*
X-2646Y-3044D01*
X-2644Y-3049D01*
X-2642Y-3055D01*
X-2640Y-3061D01*
X-2639Y-3067D01*
X-2638Y-3074D01*
X-2638Y-3081D01*
Y-3081D01*
Y-3082D01*
Y-3084D01*
X-2638Y-3086D01*
Y-3088D01*
X-2638Y-3090D01*
X-2639Y-3093D01*
X-2639Y-3096D01*
X-2640Y-3100D01*
X-2640Y-3103D01*
X-2643Y-3111D01*
X-2644Y-3115D01*
X-2645Y-3119D01*
X-2647Y-3124D01*
X-2649Y-3128D01*
X-2649Y-3128D01*
X-2650Y-3129D01*
X-2650Y-3130D01*
X-2651Y-3132D01*
X-2653Y-3134D01*
X-2654Y-3136D01*
X-2656Y-3139D01*
X-2658Y-3142D01*
X-2661Y-3145D01*
X-2664Y-3149D01*
X-2667Y-3153D01*
X-2670Y-3158D01*
X-2674Y-3162D01*
X-2678Y-3167D01*
X-2683Y-3172D01*
X-2688Y-3177D01*
X-2758Y-3250D01*
X-2637Y-3250D01*
Y-3300D01*
X-2833D01*
Y-3258D01*
X-2732Y-3150D01*
X-2732Y-3150D01*
X-2731Y-3149D01*
X-2730Y-3148D01*
X-2728Y-3146D01*
X-2727Y-3145D01*
X-2725Y-3142D01*
X-2722Y-3140D01*
X-2720Y-3137D01*
X-2715Y-3132D01*
X-2710Y-3125D01*
X-2706Y-3119D01*
X-2704Y-3116D01*
X-2702Y-3114D01*
Y-3113D01*
X-2702Y-3113D01*
X-2701Y-3112D01*
X-2701Y-3111D01*
X-2700Y-3110D01*
X-2699Y-3108D01*
X-2698Y-3104D01*
X-2696Y-3100D01*
X-2695Y-3095D01*
X-2694Y-3090D01*
X-2694Y-3085D01*
Y-3085D01*
Y-3084D01*
Y-3083D01*
X-2694Y-3082D01*
Y-3080D01*
X-2694Y-3079D01*
X-2695Y-3075D01*
X-2696Y-3070D01*
X-2698Y-3065D01*
X-2701Y-3061D01*
X-2703Y-3059D01*
X-2705Y-3057D01*
X-2705Y-3056D01*
X-2705Y-3056D01*
X-2706Y-3056D01*
X-2707Y-3055D01*
X-2708Y-3054D01*
X-2709Y-3053D01*
X-2712Y-3052D01*
X-2717Y-3050D01*
X-2722Y-3048D01*
X-2728Y-3047D01*
X-2731Y-3047D01*
X-2736D01*
X-2738Y-3047D01*
X-2740D01*
X-2741Y-3047D01*
X-2746Y-3048D01*
X-2751Y-3049D01*
X-2757Y-3052D01*
X-2759Y-3053D01*
X-2762Y-3054D01*
X-2765Y-3056D01*
X-2767Y-3058D01*
X-2767Y-3059D01*
X-2767Y-3059D01*
X-2768Y-3060D01*
X-2769Y-3061D01*
X-2770Y-3062D01*
X-2771Y-3063D01*
X-2772Y-3065D01*
X-2773Y-3067D01*
X-2774Y-3069D01*
X-2775Y-3071D01*
X-2776Y-3074D01*
X-2777Y-3077D01*
X-2779Y-3083D01*
X-2779Y-3087D01*
X-2779Y-3091D01*
X-2834D01*
Y-3091D01*
Y-3090D01*
Y-3090D01*
Y-3089D01*
X-2834Y-3087D01*
X-2833Y-3084D01*
X-2833Y-3080D01*
X-2832Y-3076D01*
X-2831Y-3071D01*
X-2830Y-3066D01*
X-2828Y-3060D01*
X-2827Y-3055D01*
X-2824Y-3049D01*
X-2822Y-3043D01*
X-2819Y-3037D01*
X-2815Y-3032D01*
X-2811Y-3027D01*
X-2806Y-3022D01*
X-2806Y-3021D01*
X-2805Y-3020D01*
X-2803Y-3019D01*
X-2801Y-3018D01*
X-2799Y-3016D01*
X-2795Y-3014D01*
X-2791Y-3011D01*
X-2787Y-3009D01*
X-2782Y-3007D01*
X-2776Y-3005D01*
X-2770Y-3002D01*
X-2764Y-3001D01*
X-2757Y-2999D01*
X-2749Y-2998D01*
X-2741Y-2997D01*
X-2733Y-2997D01*
X-2731D01*
X-2729Y-2997D01*
D02*
G37*
G36*
X-3129Y-3300D02*
X-3190D01*
Y-3239D01*
X-3129D01*
Y-3300D01*
D02*
G37*
G36*
X-3255D02*
X-3309D01*
Y-3056D01*
X-3327D01*
Y-3003D01*
X-3255D01*
Y-3300D01*
D02*
G37*
G36*
X-2973Y-2997D02*
X-2972D01*
X-2968Y-2997D01*
X-2964Y-2998D01*
X-2958Y-2999D01*
X-2953Y-3000D01*
X-2946Y-3002D01*
X-2940Y-3004D01*
X-2933Y-3006D01*
X-2926Y-3010D01*
X-2919Y-3014D01*
X-2912Y-3018D01*
X-2906Y-3023D01*
X-2899Y-3030D01*
X-2894Y-3037D01*
X-2893Y-3037D01*
X-2893Y-3039D01*
X-2891Y-3041D01*
X-2889Y-3044D01*
X-2887Y-3048D01*
X-2885Y-3053D01*
X-2882Y-3059D01*
X-2879Y-3066D01*
X-2876Y-3074D01*
X-2874Y-3082D01*
X-2871Y-3092D01*
X-2869Y-3102D01*
X-2867Y-3113D01*
X-2866Y-3125D01*
X-2865Y-3138D01*
X-2864Y-3151D01*
Y-3151D01*
Y-3152D01*
Y-3153D01*
Y-3154D01*
Y-3156D01*
X-2865Y-3158D01*
Y-3161D01*
X-2865Y-3163D01*
X-2865Y-3166D01*
X-2865Y-3170D01*
X-2866Y-3173D01*
X-2866Y-3177D01*
X-2867Y-3185D01*
X-2868Y-3193D01*
X-2870Y-3202D01*
X-2872Y-3212D01*
X-2874Y-3221D01*
X-2877Y-3231D01*
X-2880Y-3240D01*
X-2884Y-3249D01*
X-2889Y-3258D01*
X-2894Y-3266D01*
X-2894Y-3266D01*
X-2895Y-3267D01*
X-2897Y-3270D01*
X-2899Y-3272D01*
X-2902Y-3275D01*
X-2906Y-3279D01*
X-2910Y-3282D01*
X-2915Y-3286D01*
X-2921Y-3290D01*
X-2927Y-3293D01*
X-2934Y-3297D01*
X-2941Y-3300D01*
X-2949Y-3302D01*
X-2958Y-3304D01*
X-2967Y-3305D01*
X-2977Y-3306D01*
X-2980D01*
X-2981Y-3306D01*
X-2982D01*
X-2986Y-3305D01*
X-2991Y-3305D01*
X-2996Y-3304D01*
X-3002Y-3303D01*
X-3008Y-3301D01*
X-3015Y-3299D01*
X-3022Y-3296D01*
X-3029Y-3293D01*
X-3036Y-3289D01*
X-3042Y-3284D01*
X-3049Y-3279D01*
X-3055Y-3273D01*
X-3061Y-3266D01*
X-3061Y-3266D01*
X-3062Y-3264D01*
X-3064Y-3262D01*
X-3066Y-3259D01*
X-3068Y-3254D01*
X-3070Y-3249D01*
X-3073Y-3243D01*
X-3076Y-3237D01*
X-3079Y-3229D01*
X-3081Y-3220D01*
X-3083Y-3211D01*
X-3086Y-3201D01*
X-3088Y-3190D01*
X-3089Y-3178D01*
X-3090Y-3165D01*
X-3090Y-3151D01*
Y-3151D01*
Y-3150D01*
Y-3149D01*
Y-3148D01*
X-3090Y-3146D01*
Y-3144D01*
Y-3142D01*
X-3090Y-3139D01*
X-3090Y-3136D01*
X-3089Y-3133D01*
X-3089Y-3129D01*
X-3089Y-3125D01*
X-3088Y-3118D01*
X-3087Y-3109D01*
X-3085Y-3100D01*
X-3083Y-3090D01*
X-3081Y-3081D01*
X-3078Y-3071D01*
X-3074Y-3062D01*
X-3071Y-3053D01*
X-3066Y-3044D01*
X-3061Y-3037D01*
X-3061Y-3036D01*
X-3060Y-3035D01*
X-3058Y-3033D01*
X-3056Y-3030D01*
X-3053Y-3027D01*
X-3049Y-3024D01*
X-3045Y-3020D01*
X-3040Y-3017D01*
X-3034Y-3013D01*
X-3028Y-3009D01*
X-3021Y-3006D01*
X-3013Y-3003D01*
X-3005Y-3000D01*
X-2997Y-2998D01*
X-2987Y-2997D01*
X-2977Y-2997D01*
X-2975D01*
X-2973Y-2997D01*
D02*
G37*
G36*
X-2553Y-693D02*
X-2668D01*
X-2674Y-761D01*
X-2674D01*
X-2673Y-761D01*
X-2672Y-760D01*
X-2670Y-759D01*
X-2667Y-757D01*
X-2664Y-755D01*
X-2660Y-752D01*
X-2655Y-750D01*
X-2650Y-749D01*
X-2650D01*
X-2649Y-748D01*
X-2649Y-748D01*
X-2648Y-748D01*
X-2646Y-748D01*
X-2645Y-747D01*
X-2641Y-746D01*
X-2637Y-746D01*
X-2632Y-745D01*
X-2626Y-744D01*
X-2620Y-744D01*
X-2617D01*
X-2615Y-744D01*
X-2613D01*
X-2610Y-745D01*
X-2607Y-745D01*
X-2603Y-746D01*
X-2600Y-746D01*
X-2596Y-747D01*
X-2587Y-749D01*
X-2583Y-751D01*
X-2579Y-752D01*
X-2575Y-754D01*
X-2571Y-756D01*
X-2571Y-756D01*
X-2570Y-756D01*
X-2569Y-757D01*
X-2567Y-758D01*
X-2566Y-759D01*
X-2564Y-761D01*
X-2561Y-763D01*
X-2559Y-765D01*
X-2556Y-767D01*
X-2554Y-769D01*
X-2551Y-772D01*
X-2548Y-775D01*
X-2546Y-779D01*
X-2543Y-782D01*
X-2541Y-786D01*
X-2538Y-790D01*
X-2538Y-790D01*
X-2538Y-791D01*
X-2537Y-792D01*
X-2536Y-794D01*
X-2535Y-796D01*
X-2535Y-798D01*
X-2534Y-801D01*
X-2532Y-805D01*
X-2531Y-808D01*
X-2530Y-812D01*
X-2529Y-816D01*
X-2528Y-821D01*
X-2528Y-825D01*
X-2527Y-830D01*
X-2527Y-835D01*
X-2526Y-841D01*
Y-841D01*
Y-841D01*
Y-842D01*
Y-843D01*
Y-844D01*
X-2527Y-846D01*
X-2527Y-849D01*
X-2527Y-853D01*
X-2528Y-858D01*
X-2529Y-863D01*
X-2530Y-869D01*
X-2532Y-875D01*
X-2534Y-881D01*
X-2536Y-888D01*
X-2539Y-894D01*
X-2542Y-901D01*
X-2546Y-907D01*
X-2551Y-913D01*
X-2556Y-918D01*
X-2556Y-918D01*
X-2557Y-919D01*
X-2559Y-921D01*
X-2561Y-922D01*
X-2564Y-924D01*
X-2568Y-927D01*
X-2572Y-929D01*
X-2577Y-932D01*
X-2582Y-935D01*
X-2589Y-937D01*
X-2595Y-940D01*
X-2602Y-942D01*
X-2610Y-943D01*
X-2619Y-945D01*
X-2627Y-946D01*
X-2637Y-946D01*
X-2640D01*
X-2642Y-946D01*
X-2645Y-945D01*
X-2649Y-945D01*
X-2653Y-945D01*
X-2657Y-944D01*
X-2661Y-944D01*
X-2666Y-943D01*
X-2676Y-941D01*
X-2681Y-939D01*
X-2687Y-937D01*
X-2692Y-936D01*
X-2697Y-933D01*
X-2697Y-933D01*
X-2698Y-933D01*
X-2699Y-932D01*
X-2701Y-931D01*
X-2703Y-930D01*
X-2706Y-928D01*
X-2709Y-926D01*
X-2712Y-924D01*
X-2716Y-921D01*
X-2719Y-919D01*
X-2723Y-916D01*
X-2726Y-912D01*
X-2730Y-909D01*
X-2733Y-905D01*
X-2737Y-901D01*
X-2740Y-896D01*
X-2703Y-859D01*
X-2703Y-860D01*
X-2702Y-861D01*
X-2700Y-863D01*
X-2698Y-865D01*
X-2696Y-868D01*
X-2693Y-871D01*
X-2689Y-874D01*
X-2685Y-878D01*
X-2681Y-881D01*
X-2676Y-885D01*
X-2670Y-888D01*
X-2664Y-890D01*
X-2658Y-893D01*
X-2651Y-894D01*
X-2644Y-896D01*
X-2637Y-896D01*
X-2634D01*
X-2632Y-896D01*
X-2631Y-896D01*
X-2628Y-895D01*
X-2625Y-895D01*
X-2622Y-894D01*
X-2616Y-893D01*
X-2613Y-891D01*
X-2610Y-890D01*
X-2606Y-888D01*
X-2603Y-886D01*
X-2600Y-884D01*
X-2597Y-881D01*
X-2597Y-881D01*
X-2597Y-881D01*
X-2596Y-880D01*
X-2595Y-878D01*
X-2594Y-877D01*
X-2593Y-875D01*
X-2591Y-873D01*
X-2590Y-871D01*
X-2589Y-868D01*
X-2587Y-865D01*
X-2586Y-861D01*
X-2585Y-858D01*
X-2584Y-854D01*
X-2583Y-850D01*
X-2583Y-845D01*
X-2583Y-840D01*
Y-840D01*
Y-839D01*
Y-838D01*
X-2583Y-836D01*
X-2583Y-834D01*
X-2583Y-832D01*
X-2584Y-829D01*
X-2584Y-827D01*
X-2586Y-820D01*
X-2587Y-817D01*
X-2588Y-814D01*
X-2590Y-811D01*
X-2592Y-808D01*
X-2594Y-805D01*
X-2596Y-802D01*
X-2596Y-802D01*
X-2597Y-801D01*
X-2598Y-801D01*
X-2598Y-800D01*
X-2600Y-799D01*
X-2602Y-798D01*
X-2603Y-796D01*
X-2606Y-795D01*
X-2608Y-793D01*
X-2611Y-792D01*
X-2614Y-791D01*
X-2617Y-790D01*
X-2621Y-789D01*
X-2624Y-788D01*
X-2628Y-788D01*
X-2633Y-788D01*
X-2635D01*
X-2636Y-788D01*
X-2638D01*
X-2641Y-788D01*
X-2646Y-789D01*
X-2650Y-790D01*
X-2655Y-792D01*
X-2659Y-794D01*
X-2660D01*
X-2660Y-794D01*
X-2661Y-795D01*
X-2664Y-796D01*
X-2666Y-798D01*
X-2669Y-801D01*
X-2673Y-804D01*
X-2676Y-807D01*
X-2678Y-811D01*
X-2723D01*
X-2708Y-643D01*
X-2553D01*
Y-693D01*
D02*
G37*
G36*
X-3032Y-940D02*
X-3093D01*
Y-879D01*
X-3032D01*
Y-940D01*
D02*
G37*
G36*
X-3222Y-637D02*
X-3218D01*
X-3215Y-637D01*
X-3210Y-638D01*
X-3205Y-638D01*
X-3200Y-639D01*
X-3195Y-641D01*
X-3189Y-642D01*
X-3183Y-644D01*
X-3177Y-646D01*
X-3172Y-649D01*
X-3166Y-652D01*
X-3161Y-655D01*
X-3156Y-659D01*
X-3156Y-659D01*
X-3155Y-660D01*
X-3154Y-662D01*
X-3152Y-663D01*
X-3150Y-666D01*
X-3148Y-668D01*
X-3146Y-672D01*
X-3143Y-675D01*
X-3141Y-680D01*
X-3139Y-684D01*
X-3137Y-689D01*
X-3135Y-695D01*
X-3133Y-701D01*
X-3132Y-707D01*
X-3131Y-714D01*
X-3131Y-721D01*
Y-721D01*
Y-722D01*
Y-724D01*
X-3131Y-726D01*
Y-728D01*
X-3131Y-730D01*
X-3132Y-733D01*
X-3132Y-736D01*
X-3133Y-740D01*
X-3133Y-743D01*
X-3136Y-751D01*
X-3137Y-755D01*
X-3138Y-759D01*
X-3140Y-764D01*
X-3142Y-768D01*
X-3142Y-768D01*
X-3143Y-769D01*
X-3143Y-770D01*
X-3144Y-772D01*
X-3146Y-774D01*
X-3147Y-776D01*
X-3149Y-779D01*
X-3151Y-782D01*
X-3154Y-785D01*
X-3157Y-789D01*
X-3160Y-793D01*
X-3163Y-798D01*
X-3167Y-802D01*
X-3171Y-807D01*
X-3176Y-812D01*
X-3181Y-817D01*
X-3251Y-890D01*
X-3130Y-890D01*
Y-940D01*
X-3326D01*
Y-898D01*
X-3225Y-790D01*
X-3225Y-790D01*
X-3224Y-789D01*
X-3223Y-788D01*
X-3221Y-786D01*
X-3220Y-785D01*
X-3218Y-782D01*
X-3215Y-780D01*
X-3213Y-777D01*
X-3208Y-772D01*
X-3203Y-765D01*
X-3199Y-759D01*
X-3197Y-756D01*
X-3195Y-754D01*
Y-753D01*
X-3195Y-753D01*
X-3194Y-752D01*
X-3194Y-751D01*
X-3193Y-750D01*
X-3192Y-748D01*
X-3191Y-744D01*
X-3189Y-740D01*
X-3188Y-735D01*
X-3187Y-730D01*
X-3187Y-725D01*
Y-725D01*
Y-724D01*
Y-723D01*
X-3187Y-722D01*
Y-720D01*
X-3187Y-719D01*
X-3188Y-715D01*
X-3189Y-710D01*
X-3191Y-705D01*
X-3194Y-701D01*
X-3196Y-699D01*
X-3198Y-697D01*
X-3198Y-696D01*
X-3198Y-696D01*
X-3199Y-696D01*
X-3200Y-695D01*
X-3201Y-694D01*
X-3202Y-693D01*
X-3205Y-692D01*
X-3210Y-690D01*
X-3215Y-688D01*
X-3221Y-687D01*
X-3224Y-687D01*
X-3229D01*
X-3231Y-687D01*
X-3233D01*
X-3234Y-687D01*
X-3239Y-688D01*
X-3244Y-689D01*
X-3250Y-692D01*
X-3252Y-693D01*
X-3255Y-694D01*
X-3258Y-696D01*
X-3260Y-698D01*
X-3260Y-699D01*
X-3260Y-699D01*
X-3261Y-700D01*
X-3262Y-701D01*
X-3263Y-702D01*
X-3264Y-703D01*
X-3265Y-705D01*
X-3266Y-707D01*
X-3267Y-709D01*
X-3268Y-711D01*
X-3269Y-714D01*
X-3270Y-717D01*
X-3272Y-723D01*
X-3272Y-727D01*
X-3272Y-731D01*
X-3327D01*
Y-731D01*
Y-730D01*
Y-730D01*
Y-729D01*
X-3327Y-727D01*
X-3326Y-724D01*
X-3326Y-720D01*
X-3325Y-716D01*
X-3324Y-711D01*
X-3323Y-706D01*
X-3321Y-700D01*
X-3320Y-695D01*
X-3317Y-689D01*
X-3315Y-683D01*
X-3312Y-677D01*
X-3308Y-672D01*
X-3304Y-667D01*
X-3299Y-662D01*
X-3299Y-661D01*
X-3298Y-660D01*
X-3296Y-659D01*
X-3294Y-658D01*
X-3292Y-656D01*
X-3288Y-654D01*
X-3284Y-651D01*
X-3280Y-649D01*
X-3275Y-647D01*
X-3269Y-645D01*
X-3263Y-642D01*
X-3257Y-641D01*
X-3250Y-639D01*
X-3242Y-638D01*
X-3234Y-637D01*
X-3226Y-637D01*
X-3224D01*
X-3222Y-637D01*
D02*
G37*
G36*
X-2877D02*
X-2875D01*
X-2872Y-637D01*
X-2867Y-638D01*
X-2862Y-639D01*
X-2856Y-640D01*
X-2850Y-641D01*
X-2843Y-644D01*
X-2836Y-646D01*
X-2829Y-650D01*
X-2822Y-654D01*
X-2815Y-658D01*
X-2809Y-663D01*
X-2803Y-670D01*
X-2797Y-677D01*
X-2797Y-677D01*
X-2796Y-679D01*
X-2794Y-681D01*
X-2792Y-684D01*
X-2790Y-688D01*
X-2788Y-693D01*
X-2785Y-699D01*
X-2782Y-706D01*
X-2779Y-714D01*
X-2777Y-722D01*
X-2775Y-732D01*
X-2772Y-742D01*
X-2770Y-753D01*
X-2769Y-765D01*
X-2768Y-778D01*
X-2768Y-791D01*
Y-791D01*
Y-792D01*
Y-793D01*
Y-794D01*
Y-796D01*
X-2768Y-798D01*
Y-801D01*
X-2768Y-803D01*
X-2768Y-806D01*
X-2769Y-810D01*
X-2769Y-813D01*
X-2769Y-817D01*
X-2770Y-825D01*
X-2771Y-833D01*
X-2773Y-842D01*
X-2775Y-852D01*
X-2777Y-861D01*
X-2780Y-871D01*
X-2783Y-880D01*
X-2788Y-889D01*
X-2792Y-898D01*
X-2797Y-906D01*
X-2797Y-906D01*
X-2799Y-907D01*
X-2800Y-910D01*
X-2803Y-912D01*
X-2806Y-915D01*
X-2809Y-919D01*
X-2814Y-922D01*
X-2819Y-926D01*
X-2824Y-930D01*
X-2830Y-933D01*
X-2837Y-937D01*
X-2845Y-940D01*
X-2853Y-942D01*
X-2861Y-944D01*
X-2871Y-945D01*
X-2880Y-946D01*
X-2883D01*
X-2884Y-946D01*
X-2886D01*
X-2889Y-945D01*
X-2894Y-945D01*
X-2899Y-944D01*
X-2905Y-943D01*
X-2911Y-941D01*
X-2918Y-939D01*
X-2925Y-936D01*
X-2932Y-933D01*
X-2939Y-929D01*
X-2946Y-924D01*
X-2952Y-919D01*
X-2959Y-913D01*
X-2964Y-906D01*
X-2965Y-906D01*
X-2965Y-904D01*
X-2967Y-902D01*
X-2969Y-899D01*
X-2971Y-894D01*
X-2973Y-889D01*
X-2976Y-883D01*
X-2979Y-877D01*
X-2982Y-869D01*
X-2984Y-860D01*
X-2987Y-851D01*
X-2989Y-841D01*
X-2991Y-830D01*
X-2992Y-818D01*
X-2993Y-805D01*
X-2994Y-791D01*
Y-791D01*
Y-790D01*
Y-789D01*
Y-788D01*
X-2993Y-786D01*
Y-784D01*
Y-782D01*
X-2993Y-779D01*
X-2993Y-776D01*
X-2993Y-773D01*
X-2992Y-769D01*
X-2992Y-765D01*
X-2991Y-758D01*
X-2990Y-749D01*
X-2988Y-740D01*
X-2986Y-730D01*
X-2984Y-721D01*
X-2981Y-711D01*
X-2978Y-702D01*
X-2974Y-693D01*
X-2969Y-684D01*
X-2964Y-677D01*
X-2964Y-676D01*
X-2963Y-675D01*
X-2961Y-673D01*
X-2959Y-670D01*
X-2956Y-667D01*
X-2952Y-664D01*
X-2948Y-660D01*
X-2943Y-657D01*
X-2937Y-653D01*
X-2931Y-649D01*
X-2924Y-646D01*
X-2917Y-643D01*
X-2909Y-640D01*
X-2900Y-638D01*
X-2890Y-637D01*
X-2880Y-637D01*
X-2878D01*
X-2877Y-637D01*
D02*
G37*
G36*
X-2621Y-1720D02*
X-2676D01*
Y-1476D01*
X-2693D01*
Y-1423D01*
X-2621D01*
Y-1720D01*
D02*
G37*
G36*
X-3002D02*
X-3063D01*
Y-1659D01*
X-3002D01*
Y-1720D01*
D02*
G37*
G36*
X-2847Y-1417D02*
X-2845D01*
X-2841Y-1417D01*
X-2837Y-1418D01*
X-2831Y-1419D01*
X-2826Y-1420D01*
X-2819Y-1421D01*
X-2813Y-1424D01*
X-2806Y-1426D01*
X-2799Y-1430D01*
X-2792Y-1434D01*
X-2785Y-1438D01*
X-2779Y-1443D01*
X-2772Y-1450D01*
X-2767Y-1457D01*
X-2767Y-1457D01*
X-2766Y-1459D01*
X-2764Y-1461D01*
X-2762Y-1464D01*
X-2760Y-1468D01*
X-2758Y-1473D01*
X-2755Y-1479D01*
X-2752Y-1486D01*
X-2749Y-1494D01*
X-2747Y-1502D01*
X-2744Y-1512D01*
X-2742Y-1522D01*
X-2740Y-1533D01*
X-2739Y-1545D01*
X-2738Y-1558D01*
X-2737Y-1571D01*
Y-1571D01*
Y-1572D01*
Y-1573D01*
Y-1574D01*
Y-1576D01*
X-2738Y-1578D01*
Y-1581D01*
X-2738Y-1583D01*
X-2738Y-1586D01*
X-2738Y-1590D01*
X-2739Y-1593D01*
X-2739Y-1597D01*
X-2740Y-1605D01*
X-2741Y-1613D01*
X-2743Y-1622D01*
X-2745Y-1632D01*
X-2747Y-1641D01*
X-2750Y-1651D01*
X-2753Y-1660D01*
X-2757Y-1669D01*
X-2762Y-1678D01*
X-2767Y-1686D01*
X-2767Y-1686D01*
X-2768Y-1687D01*
X-2770Y-1690D01*
X-2772Y-1692D01*
X-2775Y-1695D01*
X-2779Y-1699D01*
X-2783Y-1702D01*
X-2788Y-1706D01*
X-2794Y-1710D01*
X-2800Y-1713D01*
X-2807Y-1717D01*
X-2814Y-1720D01*
X-2822Y-1722D01*
X-2831Y-1724D01*
X-2840Y-1725D01*
X-2850Y-1726D01*
X-2853D01*
X-2854Y-1726D01*
X-2855D01*
X-2859Y-1725D01*
X-2864Y-1725D01*
X-2869Y-1724D01*
X-2875Y-1723D01*
X-2881Y-1721D01*
X-2888Y-1719D01*
X-2895Y-1716D01*
X-2902Y-1713D01*
X-2909Y-1709D01*
X-2915Y-1704D01*
X-2922Y-1699D01*
X-2928Y-1693D01*
X-2934Y-1686D01*
X-2934Y-1686D01*
X-2935Y-1684D01*
X-2937Y-1682D01*
X-2939Y-1679D01*
X-2941Y-1674D01*
X-2943Y-1669D01*
X-2946Y-1663D01*
X-2949Y-1657D01*
X-2952Y-1649D01*
X-2954Y-1640D01*
X-2956Y-1631D01*
X-2959Y-1621D01*
X-2961Y-1610D01*
X-2962Y-1598D01*
X-2963Y-1585D01*
X-2963Y-1571D01*
Y-1571D01*
Y-1570D01*
Y-1569D01*
Y-1568D01*
X-2963Y-1566D01*
Y-1564D01*
Y-1562D01*
X-2963Y-1559D01*
X-2963Y-1556D01*
X-2962Y-1553D01*
X-2962Y-1549D01*
X-2962Y-1545D01*
X-2961Y-1538D01*
X-2960Y-1529D01*
X-2958Y-1520D01*
X-2956Y-1510D01*
X-2954Y-1501D01*
X-2951Y-1491D01*
X-2948Y-1482D01*
X-2944Y-1473D01*
X-2939Y-1464D01*
X-2934Y-1457D01*
X-2934Y-1456D01*
X-2933Y-1455D01*
X-2931Y-1453D01*
X-2929Y-1450D01*
X-2926Y-1447D01*
X-2922Y-1444D01*
X-2918Y-1440D01*
X-2913Y-1437D01*
X-2907Y-1433D01*
X-2901Y-1429D01*
X-2894Y-1426D01*
X-2886Y-1423D01*
X-2878Y-1420D01*
X-2870Y-1418D01*
X-2860Y-1417D01*
X-2850Y-1417D01*
X-2848D01*
X-2847Y-1417D01*
D02*
G37*
G36*
X-3210D02*
X-3209D01*
X-3205Y-1417D01*
X-3200Y-1418D01*
X-3195Y-1419D01*
X-3189Y-1420D01*
X-3183Y-1421D01*
X-3176Y-1424D01*
X-3169Y-1426D01*
X-3163Y-1430D01*
X-3155Y-1434D01*
X-3149Y-1438D01*
X-3142Y-1443D01*
X-3136Y-1450D01*
X-3130Y-1457D01*
X-3130Y-1457D01*
X-3129Y-1459D01*
X-3128Y-1461D01*
X-3126Y-1464D01*
X-3123Y-1468D01*
X-3121Y-1473D01*
X-3118Y-1479D01*
X-3116Y-1486D01*
X-3113Y-1494D01*
X-3110Y-1502D01*
X-3108Y-1512D01*
X-3105Y-1522D01*
X-3104Y-1533D01*
X-3102Y-1545D01*
X-3101Y-1558D01*
X-3101Y-1571D01*
Y-1571D01*
Y-1572D01*
Y-1573D01*
Y-1574D01*
Y-1576D01*
X-3101Y-1578D01*
Y-1581D01*
X-3101Y-1583D01*
X-3102Y-1586D01*
X-3102Y-1590D01*
X-3102Y-1593D01*
X-3103Y-1597D01*
X-3103Y-1605D01*
X-3105Y-1613D01*
X-3106Y-1622D01*
X-3108Y-1632D01*
X-3111Y-1641D01*
X-3113Y-1651D01*
X-3117Y-1660D01*
X-3121Y-1669D01*
X-3125Y-1678D01*
X-3130Y-1686D01*
X-3131Y-1686D01*
X-3132Y-1687D01*
X-3133Y-1690D01*
X-3136Y-1692D01*
X-3139Y-1695D01*
X-3142Y-1699D01*
X-3147Y-1702D01*
X-3152Y-1706D01*
X-3157Y-1710D01*
X-3164Y-1713D01*
X-3171Y-1717D01*
X-3178Y-1720D01*
X-3186Y-1722D01*
X-3195Y-1724D01*
X-3204Y-1725D01*
X-3214Y-1726D01*
X-3216D01*
X-3217Y-1726D01*
X-3219D01*
X-3223Y-1725D01*
X-3227Y-1725D01*
X-3233Y-1724D01*
X-3238Y-1723D01*
X-3245Y-1721D01*
X-3251Y-1719D01*
X-3258Y-1716D01*
X-3265Y-1713D01*
X-3272Y-1709D01*
X-3279Y-1704D01*
X-3285Y-1699D01*
X-3292Y-1693D01*
X-3298Y-1686D01*
X-3298Y-1686D01*
X-3299Y-1684D01*
X-3300Y-1682D01*
X-3302Y-1679D01*
X-3304Y-1674D01*
X-3307Y-1669D01*
X-3309Y-1663D01*
X-3312Y-1657D01*
X-3315Y-1649D01*
X-3318Y-1640D01*
X-3320Y-1631D01*
X-3322Y-1621D01*
X-3324Y-1610D01*
X-3326Y-1598D01*
X-3327Y-1585D01*
X-3327Y-1571D01*
Y-1571D01*
Y-1570D01*
Y-1569D01*
Y-1568D01*
X-3327Y-1566D01*
Y-1564D01*
Y-1562D01*
X-3326Y-1559D01*
X-3326Y-1556D01*
X-3326Y-1553D01*
X-3326Y-1549D01*
X-3325Y-1545D01*
X-3324Y-1538D01*
X-3323Y-1529D01*
X-3322Y-1520D01*
X-3320Y-1510D01*
X-3317Y-1501D01*
X-3314Y-1491D01*
X-3311Y-1482D01*
X-3307Y-1473D01*
X-3303Y-1464D01*
X-3298Y-1457D01*
X-3297Y-1456D01*
X-3296Y-1455D01*
X-3294Y-1453D01*
X-3292Y-1450D01*
X-3289Y-1447D01*
X-3285Y-1444D01*
X-3281Y-1440D01*
X-3276Y-1437D01*
X-3270Y-1433D01*
X-3264Y-1429D01*
X-3257Y-1426D01*
X-3250Y-1423D01*
X-3242Y-1420D01*
X-3233Y-1418D01*
X-3224Y-1417D01*
X-3214Y-1417D01*
X-3211D01*
X-3210Y-1417D01*
D02*
G37*
%LPC*%
G36*
X3405Y-3814D02*
X3398Y-3814D01*
X3390Y-3815D01*
X3383Y-3817D01*
X3377Y-3818D01*
X3370Y-3820D01*
X3365Y-3821D01*
X3359Y-3823D01*
X3355Y-3825D01*
X3350Y-3827D01*
X3347Y-3828D01*
X3345Y-3829D01*
X3343Y-3830D01*
X3334Y-3835D01*
X3326Y-3840D01*
X3319Y-3845D01*
X3313Y-3851D01*
X3307Y-3856D01*
X3302Y-3861D01*
X3297Y-3866D01*
X3294Y-3871D01*
X3290Y-3876D01*
X3287Y-3880D01*
X3285Y-3884D01*
X3283Y-3888D01*
X3282Y-3891D01*
X3281Y-3893D01*
X3280Y-3894D01*
X3280Y-3894D01*
X3278Y-3902D01*
X3277Y-3910D01*
X3275Y-3917D01*
X3275Y-3925D01*
X3276Y-3932D01*
X3276Y-3939D01*
X3278Y-3946D01*
X3279Y-3952D01*
X3280Y-3958D01*
X3282Y-3964D01*
X3283Y-3969D01*
X3285Y-3973D01*
X3286Y-3976D01*
X3287Y-3979D01*
X3288Y-3980D01*
X3344Y-3952D01*
X3343Y-3948D01*
X3341Y-3944D01*
X3339Y-3936D01*
X3339Y-3933D01*
X3338Y-3930D01*
X3338Y-3927D01*
X3338Y-3924D01*
X3338Y-3921D01*
X3339Y-3919D01*
X3339Y-3917D01*
X3339Y-3915D01*
X3339Y-3914D01*
X3340Y-3913D01*
X3340Y-3912D01*
X3340Y-3912D01*
X3341Y-3908D01*
X3343Y-3905D01*
X3345Y-3902D01*
X3347Y-3899D01*
X3351Y-3894D01*
X3356Y-3890D01*
X3360Y-3887D01*
X3362Y-3886D01*
X3364Y-3885D01*
X3365Y-3884D01*
X3371Y-3881D01*
X3374Y-3880D01*
X3381Y-3878D01*
X3387Y-3877D01*
X3393Y-3876D01*
X3397Y-3876D01*
X3399Y-3877D01*
X3400Y-3877D01*
X3402Y-3877D01*
X3403Y-3877D01*
X3403Y-3877D01*
X3403Y-3877D01*
X3406Y-3878D01*
X3409Y-3880D01*
X3414Y-3883D01*
X3419Y-3887D01*
X3423Y-3891D01*
X3426Y-3894D01*
X3427Y-3896D01*
X3428Y-3898D01*
X3429Y-3899D01*
X3429Y-3900D01*
X3429Y-3900D01*
X3429Y-3901D01*
X3432Y-3906D01*
X3433Y-3912D01*
X3435Y-3918D01*
X3435Y-3923D01*
X3436Y-3928D01*
X3436Y-3930D01*
X3436Y-3931D01*
X3436Y-3933D01*
X3436Y-3934D01*
X3436Y-3934D01*
X3436Y-3935D01*
X3436Y-3938D01*
X3435Y-3942D01*
X3433Y-3951D01*
X3432Y-3960D01*
X3430Y-3969D01*
X3429Y-3973D01*
X3428Y-3976D01*
X3427Y-3980D01*
X3426Y-3982D01*
X3425Y-3985D01*
X3425Y-3987D01*
X3424Y-3988D01*
X3424Y-3988D01*
X3377Y-4152D01*
X3399Y-4195D01*
X3600Y-4092D01*
X3574Y-4041D01*
X3450Y-4105D01*
X3484Y-3993D01*
X3486Y-3985D01*
X3488Y-3977D01*
X3490Y-3970D01*
X3492Y-3963D01*
X3493Y-3957D01*
X3494Y-3951D01*
X3495Y-3946D01*
X3496Y-3941D01*
X3497Y-3937D01*
X3497Y-3933D01*
X3497Y-3929D01*
X3498Y-3927D01*
X3498Y-3924D01*
X3498Y-3923D01*
X3498Y-3922D01*
X3498Y-3922D01*
X3498Y-3916D01*
X3497Y-3911D01*
X3497Y-3906D01*
X3496Y-3901D01*
X3494Y-3892D01*
X3493Y-3888D01*
X3492Y-3884D01*
X3490Y-3880D01*
X3489Y-3877D01*
X3488Y-3874D01*
X3487Y-3872D01*
X3486Y-3870D01*
X3486Y-3869D01*
X3485Y-3868D01*
X3485Y-3868D01*
X3481Y-3860D01*
X3477Y-3854D01*
X3472Y-3848D01*
X3467Y-3842D01*
X3462Y-3838D01*
X3458Y-3834D01*
X3453Y-3830D01*
X3448Y-3827D01*
X3444Y-3824D01*
X3440Y-3822D01*
X3436Y-3820D01*
X3433Y-3819D01*
X3430Y-3818D01*
X3428Y-3817D01*
X3427Y-3817D01*
X3427Y-3817D01*
X3419Y-3815D01*
X3412Y-3814D01*
X3405Y-3814D01*
D02*
G37*
G36*
X2954Y-4022D02*
X2896Y-4052D01*
X3007Y-4270D01*
X3007Y-4270D01*
X2742Y-4131D01*
X2688Y-4158D01*
X2849Y-4475D01*
X2907Y-4445D01*
X2797Y-4228D01*
X2797Y-4228D01*
X3062Y-4367D01*
X3116Y-4339D01*
X2954Y-4022D01*
D02*
G37*
G36*
X3219Y-3887D02*
X2988Y-4005D01*
X3015Y-4060D01*
X3102Y-4016D01*
X3236Y-4278D01*
X3294Y-4249D01*
X3160Y-3986D01*
X3247Y-3942D01*
X3219Y-3887D01*
D02*
G37*
G36*
X2529Y-4239D02*
X2471Y-4268D01*
X2506Y-4650D01*
X2570Y-4617D01*
X2560Y-4532D01*
X2690Y-4465D01*
X2754Y-4524D01*
X2818Y-4491D01*
X2529Y-4239D01*
D02*
G37*
%LPD*%
G36*
X2644Y-4422D02*
X2552Y-4469D01*
X2535Y-4321D01*
X2644Y-4422D01*
D02*
G37*
%LPC*%
G36*
X-2568Y4802D02*
X-2569D01*
X-2657Y4678D01*
X-2568D01*
Y4802D01*
D02*
G37*
G36*
X-2851Y4830D02*
X-2852D01*
X-2853Y4830D01*
X-2855Y4830D01*
X-2857Y4829D01*
X-2860Y4829D01*
X-2863Y4828D01*
X-2866Y4827D01*
X-2869Y4825D01*
X-2873Y4824D01*
X-2876Y4821D01*
X-2880Y4819D01*
X-2883Y4816D01*
X-2887Y4812D01*
X-2890Y4808D01*
X-2893Y4803D01*
X-2893Y4803D01*
X-2893Y4802D01*
X-2894Y4800D01*
X-2895Y4798D01*
X-2896Y4795D01*
X-2897Y4792D01*
X-2899Y4788D01*
X-2900Y4783D01*
X-2901Y4778D01*
X-2903Y4772D01*
X-2904Y4766D01*
X-2905Y4759D01*
X-2906Y4752D01*
X-2907Y4744D01*
X-2907Y4736D01*
X-2908Y4727D01*
Y4726D01*
Y4726D01*
Y4726D01*
Y4725D01*
Y4723D01*
Y4722D01*
X-2907Y4719D01*
X-2907Y4714D01*
X-2907Y4710D01*
X-2906Y4704D01*
X-2906Y4699D01*
X-2905Y4692D01*
X-2904Y4686D01*
X-2903Y4680D01*
X-2901Y4674D01*
X-2900Y4667D01*
X-2897Y4661D01*
X-2895Y4655D01*
X-2893Y4650D01*
X-2892Y4650D01*
X-2892Y4649D01*
X-2891Y4647D01*
X-2890Y4646D01*
X-2888Y4644D01*
X-2886Y4641D01*
X-2884Y4639D01*
X-2882Y4636D01*
X-2879Y4634D01*
X-2876Y4631D01*
X-2872Y4629D01*
X-2868Y4627D01*
X-2864Y4625D01*
X-2860Y4624D01*
X-2855Y4623D01*
X-2851Y4623D01*
X-2849D01*
X-2848Y4623D01*
X-2846Y4623D01*
X-2844Y4624D01*
X-2841Y4624D01*
X-2838Y4625D01*
X-2835Y4626D01*
X-2832Y4628D01*
X-2829Y4629D01*
X-2825Y4632D01*
X-2822Y4634D01*
X-2818Y4637D01*
X-2815Y4641D01*
X-2812Y4645D01*
X-2809Y4650D01*
X-2809Y4650D01*
X-2808Y4651D01*
X-2808Y4653D01*
X-2807Y4655D01*
X-2805Y4658D01*
X-2804Y4661D01*
X-2803Y4665D01*
X-2801Y4670D01*
X-2800Y4675D01*
X-2799Y4681D01*
X-2797Y4687D01*
X-2796Y4694D01*
X-2795Y4701D01*
X-2795Y4709D01*
X-2794Y4718D01*
X-2794Y4727D01*
Y4727D01*
Y4727D01*
Y4728D01*
Y4729D01*
Y4731D01*
X-2794Y4735D01*
X-2794Y4739D01*
X-2795Y4744D01*
X-2795Y4749D01*
X-2796Y4755D01*
X-2796Y4761D01*
X-2798Y4767D01*
X-2799Y4773D01*
X-2800Y4780D01*
X-2802Y4786D01*
X-2804Y4792D01*
X-2806Y4798D01*
X-2809Y4803D01*
X-2809Y4803D01*
X-2810Y4804D01*
X-2811Y4806D01*
X-2812Y4807D01*
X-2813Y4809D01*
X-2815Y4812D01*
X-2817Y4814D01*
X-2820Y4817D01*
X-2822Y4819D01*
X-2826Y4822D01*
X-2829Y4824D01*
X-2833Y4826D01*
X-2837Y4828D01*
X-2841Y4829D01*
X-2846Y4830D01*
X-2851Y4830D01*
D02*
G37*
G36*
X-3214D02*
X-3215D01*
X-3217Y4830D01*
X-3218Y4830D01*
X-3221Y4829D01*
X-3223Y4829D01*
X-3226Y4828D01*
X-3230Y4827D01*
X-3233Y4825D01*
X-3236Y4824D01*
X-3240Y4821D01*
X-3243Y4819D01*
X-3247Y4816D01*
X-3250Y4812D01*
X-3253Y4808D01*
X-3256Y4803D01*
X-3256Y4803D01*
X-3257Y4802D01*
X-3258Y4800D01*
X-3259Y4798D01*
X-3260Y4795D01*
X-3261Y4792D01*
X-3262Y4788D01*
X-3264Y4783D01*
X-3265Y4778D01*
X-3266Y4772D01*
X-3268Y4766D01*
X-3269Y4759D01*
X-3270Y4752D01*
X-3270Y4744D01*
X-3271Y4736D01*
X-3271Y4727D01*
Y4726D01*
Y4726D01*
Y4726D01*
Y4725D01*
Y4723D01*
Y4722D01*
X-3271Y4719D01*
X-3271Y4714D01*
X-3270Y4710D01*
X-3270Y4704D01*
X-3269Y4699D01*
X-3268Y4692D01*
X-3267Y4686D01*
X-3266Y4680D01*
X-3265Y4674D01*
X-3263Y4667D01*
X-3261Y4661D01*
X-3259Y4655D01*
X-3256Y4650D01*
X-3256Y4650D01*
X-3255Y4649D01*
X-3254Y4647D01*
X-3253Y4646D01*
X-3252Y4644D01*
X-3250Y4641D01*
X-3247Y4639D01*
X-3245Y4636D01*
X-3242Y4634D01*
X-3239Y4631D01*
X-3236Y4629D01*
X-3232Y4627D01*
X-3228Y4625D01*
X-3223Y4624D01*
X-3219Y4623D01*
X-3214Y4623D01*
X-3213D01*
X-3211Y4623D01*
X-3209Y4623D01*
X-3207Y4624D01*
X-3205Y4624D01*
X-3202Y4625D01*
X-3199Y4626D01*
X-3196Y4628D01*
X-3192Y4629D01*
X-3189Y4632D01*
X-3185Y4634D01*
X-3182Y4637D01*
X-3179Y4641D01*
X-3175Y4645D01*
X-3172Y4650D01*
X-3172Y4650D01*
X-3172Y4651D01*
X-3171Y4653D01*
X-3170Y4655D01*
X-3169Y4658D01*
X-3168Y4661D01*
X-3166Y4665D01*
X-3165Y4670D01*
X-3163Y4675D01*
X-3162Y4681D01*
X-3161Y4687D01*
X-3160Y4694D01*
X-3159Y4701D01*
X-3158Y4709D01*
X-3158Y4718D01*
X-3157Y4727D01*
Y4727D01*
Y4727D01*
Y4728D01*
Y4729D01*
Y4731D01*
X-3158Y4735D01*
X-3158Y4739D01*
X-3158Y4744D01*
X-3158Y4749D01*
X-3159Y4755D01*
X-3160Y4761D01*
X-3161Y4767D01*
X-3162Y4773D01*
X-3164Y4780D01*
X-3165Y4786D01*
X-3167Y4792D01*
X-3170Y4798D01*
X-3172Y4803D01*
X-3173Y4803D01*
X-3173Y4804D01*
X-3174Y4806D01*
X-3175Y4807D01*
X-3177Y4809D01*
X-3179Y4812D01*
X-3181Y4814D01*
X-3183Y4817D01*
X-3186Y4819D01*
X-3189Y4822D01*
X-3192Y4824D01*
X-3196Y4826D01*
X-3200Y4828D01*
X-3205Y4829D01*
X-3209Y4830D01*
X-3214Y4830D01*
D02*
G37*
G36*
X-2851Y4040D02*
X-2852D01*
X-2853Y4040D01*
X-2855Y4040D01*
X-2857Y4039D01*
X-2860Y4039D01*
X-2863Y4038D01*
X-2866Y4037D01*
X-2869Y4035D01*
X-2873Y4034D01*
X-2876Y4031D01*
X-2880Y4029D01*
X-2883Y4026D01*
X-2887Y4022D01*
X-2890Y4018D01*
X-2893Y4013D01*
X-2893Y4013D01*
X-2893Y4012D01*
X-2894Y4010D01*
X-2895Y4008D01*
X-2896Y4005D01*
X-2897Y4002D01*
X-2899Y3998D01*
X-2900Y3993D01*
X-2901Y3988D01*
X-2903Y3982D01*
X-2904Y3976D01*
X-2905Y3969D01*
X-2906Y3962D01*
X-2907Y3954D01*
X-2907Y3946D01*
X-2908Y3937D01*
Y3936D01*
Y3936D01*
Y3936D01*
Y3935D01*
Y3933D01*
Y3932D01*
X-2907Y3929D01*
X-2907Y3924D01*
X-2907Y3920D01*
X-2906Y3914D01*
X-2906Y3909D01*
X-2905Y3902D01*
X-2904Y3896D01*
X-2903Y3890D01*
X-2901Y3884D01*
X-2900Y3877D01*
X-2897Y3871D01*
X-2895Y3865D01*
X-2893Y3860D01*
X-2892Y3860D01*
X-2892Y3859D01*
X-2891Y3857D01*
X-2890Y3856D01*
X-2888Y3854D01*
X-2886Y3851D01*
X-2884Y3849D01*
X-2882Y3846D01*
X-2879Y3844D01*
X-2876Y3841D01*
X-2872Y3839D01*
X-2868Y3837D01*
X-2864Y3835D01*
X-2860Y3834D01*
X-2855Y3833D01*
X-2851Y3833D01*
X-2849D01*
X-2848Y3833D01*
X-2846Y3833D01*
X-2844Y3834D01*
X-2841Y3834D01*
X-2838Y3835D01*
X-2835Y3836D01*
X-2832Y3838D01*
X-2829Y3839D01*
X-2825Y3842D01*
X-2822Y3844D01*
X-2818Y3847D01*
X-2815Y3851D01*
X-2812Y3855D01*
X-2809Y3860D01*
X-2809Y3860D01*
X-2808Y3861D01*
X-2808Y3863D01*
X-2807Y3865D01*
X-2805Y3868D01*
X-2804Y3871D01*
X-2803Y3875D01*
X-2801Y3880D01*
X-2800Y3885D01*
X-2799Y3891D01*
X-2797Y3897D01*
X-2796Y3904D01*
X-2795Y3911D01*
X-2795Y3919D01*
X-2794Y3928D01*
X-2794Y3937D01*
Y3937D01*
Y3937D01*
Y3938D01*
Y3939D01*
Y3941D01*
X-2794Y3945D01*
X-2794Y3949D01*
X-2795Y3954D01*
X-2795Y3959D01*
X-2796Y3965D01*
X-2796Y3971D01*
X-2798Y3977D01*
X-2799Y3983D01*
X-2800Y3990D01*
X-2802Y3996D01*
X-2804Y4002D01*
X-2806Y4008D01*
X-2809Y4013D01*
X-2809Y4013D01*
X-2810Y4014D01*
X-2811Y4016D01*
X-2812Y4017D01*
X-2813Y4019D01*
X-2815Y4022D01*
X-2817Y4024D01*
X-2820Y4027D01*
X-2822Y4029D01*
X-2826Y4032D01*
X-2829Y4034D01*
X-2833Y4036D01*
X-2837Y4038D01*
X-2841Y4039D01*
X-2846Y4040D01*
X-2851Y4040D01*
D02*
G37*
G36*
X-3214D02*
X-3215D01*
X-3217Y4040D01*
X-3218Y4040D01*
X-3221Y4039D01*
X-3223Y4039D01*
X-3226Y4038D01*
X-3230Y4037D01*
X-3233Y4035D01*
X-3236Y4034D01*
X-3240Y4031D01*
X-3243Y4029D01*
X-3247Y4026D01*
X-3250Y4022D01*
X-3253Y4018D01*
X-3256Y4013D01*
X-3256Y4013D01*
X-3257Y4012D01*
X-3258Y4010D01*
X-3259Y4008D01*
X-3260Y4005D01*
X-3261Y4002D01*
X-3262Y3998D01*
X-3264Y3993D01*
X-3265Y3988D01*
X-3266Y3982D01*
X-3268Y3976D01*
X-3269Y3969D01*
X-3270Y3962D01*
X-3270Y3954D01*
X-3271Y3946D01*
X-3271Y3937D01*
Y3936D01*
Y3936D01*
Y3936D01*
Y3935D01*
Y3933D01*
Y3932D01*
X-3271Y3929D01*
X-3271Y3924D01*
X-3270Y3920D01*
X-3270Y3914D01*
X-3269Y3909D01*
X-3268Y3902D01*
X-3267Y3896D01*
X-3266Y3890D01*
X-3265Y3884D01*
X-3263Y3877D01*
X-3261Y3871D01*
X-3259Y3865D01*
X-3256Y3860D01*
X-3256Y3860D01*
X-3255Y3859D01*
X-3254Y3857D01*
X-3253Y3856D01*
X-3252Y3854D01*
X-3250Y3851D01*
X-3247Y3849D01*
X-3245Y3846D01*
X-3242Y3844D01*
X-3239Y3841D01*
X-3236Y3839D01*
X-3232Y3837D01*
X-3228Y3835D01*
X-3223Y3834D01*
X-3219Y3833D01*
X-3214Y3833D01*
X-3213D01*
X-3211Y3833D01*
X-3209Y3833D01*
X-3207Y3834D01*
X-3205Y3834D01*
X-3202Y3835D01*
X-3199Y3836D01*
X-3196Y3838D01*
X-3192Y3839D01*
X-3189Y3842D01*
X-3185Y3844D01*
X-3182Y3847D01*
X-3179Y3851D01*
X-3175Y3855D01*
X-3172Y3860D01*
X-3172Y3860D01*
X-3172Y3861D01*
X-3171Y3863D01*
X-3170Y3865D01*
X-3169Y3868D01*
X-3168Y3871D01*
X-3166Y3875D01*
X-3165Y3880D01*
X-3163Y3885D01*
X-3162Y3891D01*
X-3161Y3897D01*
X-3160Y3904D01*
X-3159Y3911D01*
X-3158Y3919D01*
X-3158Y3928D01*
X-3157Y3937D01*
Y3937D01*
Y3937D01*
Y3938D01*
Y3939D01*
Y3941D01*
X-3158Y3945D01*
X-3158Y3949D01*
X-3158Y3954D01*
X-3158Y3959D01*
X-3159Y3965D01*
X-3160Y3971D01*
X-3161Y3977D01*
X-3162Y3983D01*
X-3164Y3990D01*
X-3165Y3996D01*
X-3167Y4002D01*
X-3170Y4008D01*
X-3172Y4013D01*
X-3173Y4013D01*
X-3173Y4014D01*
X-3174Y4016D01*
X-3175Y4017D01*
X-3177Y4019D01*
X-3179Y4022D01*
X-3181Y4024D01*
X-3183Y4027D01*
X-3186Y4029D01*
X-3189Y4032D01*
X-3192Y4034D01*
X-3196Y4036D01*
X-3200Y4038D01*
X-3205Y4039D01*
X-3209Y4040D01*
X-3214Y4040D01*
D02*
G37*
G36*
X2563Y4621D02*
X2408Y4315D01*
X2482Y4277D01*
X2509Y4332D01*
X2491Y4341D01*
X2619Y4592D01*
X2563Y4621D01*
D02*
G37*
G36*
X2756Y4523D02*
X2622Y4260D01*
X2535Y4304D01*
X2507Y4250D01*
X2739Y4132D01*
X2766Y4187D01*
X2680Y4231D01*
X2813Y4493D01*
X2756Y4523D01*
D02*
G37*
G36*
X2934Y4432D02*
X2772Y4115D01*
X2830Y4086D01*
X2941Y4303D01*
X2942Y4303D01*
X2984Y4007D01*
X3038Y3979D01*
X3200Y4296D01*
X3142Y4326D01*
X3031Y4109D01*
X3031Y4109D01*
X2987Y4405D01*
X2934Y4432D01*
D02*
G37*
G36*
X3231Y4280D02*
X3197Y3899D01*
X3255Y3869D01*
X3544Y4121D01*
X3479Y4154D01*
X3416Y4096D01*
X3285Y4162D01*
X3296Y4248D01*
X3231Y4280D01*
D02*
G37*
%LPD*%
G36*
X3370Y4053D02*
X3261Y3952D01*
X3278Y4100D01*
X3370Y4053D01*
D02*
G37*
%LPC*%
G36*
X1516Y-4646D02*
X1174D01*
Y-4729D01*
X1516D01*
Y-4646D01*
D02*
G37*
G36*
X1341Y-4776D02*
X1339D01*
X1329Y-4776D01*
X1319Y-4777D01*
X1310Y-4778D01*
X1301Y-4780D01*
X1293Y-4781D01*
X1285Y-4783D01*
X1278Y-4785D01*
X1271Y-4788D01*
X1265Y-4790D01*
X1260Y-4792D01*
X1255Y-4794D01*
X1251Y-4796D01*
X1248Y-4797D01*
X1246Y-4799D01*
X1245Y-4799D01*
X1244Y-4800D01*
X1237Y-4804D01*
X1230Y-4809D01*
X1224Y-4814D01*
X1218Y-4820D01*
X1212Y-4825D01*
X1207Y-4831D01*
X1202Y-4836D01*
X1198Y-4841D01*
X1194Y-4846D01*
X1191Y-4851D01*
X1189Y-4855D01*
X1186Y-4858D01*
X1184Y-4861D01*
X1183Y-4863D01*
X1183Y-4865D01*
X1182Y-4865D01*
X1178Y-4873D01*
X1175Y-4881D01*
X1172Y-4889D01*
X1170Y-4898D01*
X1168Y-4906D01*
X1166Y-4914D01*
X1165Y-4921D01*
X1163Y-4929D01*
X1163Y-4936D01*
X1162Y-4942D01*
X1161Y-4947D01*
X1161Y-4952D01*
X1161Y-4956D01*
Y-4952D01*
Y-5075D01*
X1516D01*
Y-4958D01*
Y-4961D01*
X1516Y-4951D01*
X1516Y-4941D01*
X1515Y-4932D01*
X1513Y-4923D01*
X1512Y-4915D01*
X1510Y-4907D01*
X1508Y-4900D01*
X1506Y-4893D01*
X1504Y-4887D01*
X1502Y-4881D01*
X1500Y-4876D01*
X1498Y-4873D01*
X1497Y-4869D01*
X1496Y-4867D01*
X1495Y-4866D01*
X1495Y-4865D01*
X1491Y-4858D01*
X1486Y-4850D01*
X1481Y-4844D01*
X1476Y-4837D01*
X1471Y-4831D01*
X1466Y-4826D01*
X1461Y-4821D01*
X1456Y-4817D01*
X1451Y-4813D01*
X1447Y-4809D01*
X1443Y-4806D01*
X1440Y-4804D01*
X1437Y-4802D01*
X1435Y-4801D01*
X1434Y-4800D01*
X1433Y-4800D01*
X1426Y-4796D01*
X1418Y-4792D01*
X1409Y-4789D01*
X1402Y-4786D01*
X1394Y-4784D01*
X1386Y-4782D01*
X1378Y-4780D01*
X1371Y-4779D01*
X1364Y-4778D01*
X1358Y-4777D01*
X1353Y-4777D01*
X1348Y-4776D01*
X1344D01*
X1341Y-4776D01*
D02*
G37*
G36*
X1516Y-5128D02*
X1456D01*
Y-5277D01*
X1353D01*
Y-5143D01*
X1293D01*
Y-5277D01*
X1222D01*
Y-5131D01*
X1161D01*
Y-5342D01*
X1516D01*
Y-5128D01*
D02*
G37*
G36*
Y-5377D02*
X1455D01*
Y-5525D01*
X1161D01*
Y-5377D01*
Y-5591D01*
X1516D01*
Y-5377D01*
D02*
G37*
%LPD*%
G36*
Y-4729D02*
X1234D01*
Y-4709D01*
X1516D01*
Y-4729D01*
D02*
G37*
G36*
X1346Y-4846D02*
X1352Y-4847D01*
X1359Y-4847D01*
X1365Y-4848D01*
X1370Y-4849D01*
X1376Y-4851D01*
X1380Y-4852D01*
X1385Y-4853D01*
X1389Y-4855D01*
X1392Y-4856D01*
X1396Y-4857D01*
X1398Y-4858D01*
X1400Y-4859D01*
X1402Y-4860D01*
X1403Y-4860D01*
X1403Y-4861D01*
X1408Y-4863D01*
X1412Y-4866D01*
X1416Y-4870D01*
X1420Y-4873D01*
X1424Y-4876D01*
X1427Y-4879D01*
X1430Y-4883D01*
X1433Y-4886D01*
X1435Y-4889D01*
X1437Y-4891D01*
X1439Y-4894D01*
X1440Y-4896D01*
X1442Y-4898D01*
X1442Y-4899D01*
X1443Y-4900D01*
X1443Y-4900D01*
X1445Y-4905D01*
X1447Y-4910D01*
X1449Y-4915D01*
X1451Y-4920D01*
X1453Y-4929D01*
X1454Y-4934D01*
X1455Y-4938D01*
X1456Y-4942D01*
X1456Y-4946D01*
X1456Y-4950D01*
X1456Y-4952D01*
X1457Y-4954D01*
Y-5010D01*
X1221D01*
Y-4958D01*
X1221Y-4952D01*
X1221Y-4946D01*
X1222Y-4940D01*
X1223Y-4935D01*
X1224Y-4930D01*
X1225Y-4925D01*
X1226Y-4921D01*
X1228Y-4917D01*
X1229Y-4913D01*
X1230Y-4910D01*
X1231Y-4907D01*
X1232Y-4904D01*
X1233Y-4903D01*
X1234Y-4901D01*
X1234Y-4900D01*
X1234Y-4900D01*
X1237Y-4895D01*
X1240Y-4891D01*
X1246Y-4883D01*
X1250Y-4880D01*
X1253Y-4877D01*
X1257Y-4874D01*
X1260Y-4871D01*
X1263Y-4868D01*
X1266Y-4867D01*
X1268Y-4865D01*
X1270Y-4863D01*
X1272Y-4862D01*
X1273Y-4861D01*
X1274Y-4861D01*
X1275Y-4861D01*
X1280Y-4858D01*
X1285Y-4856D01*
X1290Y-4854D01*
X1296Y-4852D01*
X1307Y-4850D01*
X1312Y-4849D01*
X1317Y-4848D01*
X1321Y-4847D01*
X1325Y-4847D01*
X1329Y-4847D01*
X1332Y-4846D01*
X1335Y-4846D01*
X1337D01*
X1338D01*
X1339D01*
X1346Y-4846D01*
D02*
G37*
%LPC*%
G36*
X4587Y-1727D02*
Y-1824D01*
X4293D01*
Y-1727D01*
X4232D01*
Y-1986D01*
X4587D01*
Y-1727D01*
D02*
G37*
G36*
X4495Y-2005D02*
X4492D01*
X4486Y-2005D01*
X4481Y-2005D01*
X4475Y-2006D01*
X4470Y-2007D01*
X4465Y-2008D01*
X4460Y-2009D01*
X4456Y-2011D01*
X4453Y-2012D01*
X4449Y-2014D01*
X4446Y-2015D01*
X4443Y-2016D01*
X4441Y-2017D01*
X4439Y-2018D01*
X4438Y-2019D01*
X4437Y-2019D01*
X4437Y-2020D01*
X4433Y-2023D01*
X4429Y-2026D01*
X4420Y-2033D01*
X4413Y-2041D01*
X4406Y-2048D01*
X4403Y-2052D01*
X4400Y-2055D01*
X4398Y-2058D01*
X4396Y-2061D01*
X4394Y-2063D01*
X4393Y-2065D01*
X4393Y-2066D01*
X4392Y-2066D01*
X4349Y-2127D01*
X4345Y-2133D01*
X4342Y-2137D01*
X4338Y-2141D01*
X4336Y-2144D01*
X4334Y-2146D01*
X4332Y-2148D01*
X4331Y-2149D01*
X4331Y-2149D01*
X4328Y-2151D01*
X4324Y-2152D01*
X4321Y-2154D01*
X4319Y-2154D01*
X4316Y-2155D01*
X4314Y-2155D01*
X4313D01*
X4313D01*
X4308Y-2154D01*
X4304Y-2153D01*
X4301Y-2151D01*
X4298Y-2149D01*
X4295Y-2146D01*
X4293Y-2143D01*
X4291Y-2140D01*
X4290Y-2136D01*
X4289Y-2133D01*
X4288Y-2130D01*
X4287Y-2127D01*
X4287Y-2124D01*
Y-2121D01*
X4287Y-2119D01*
Y-2118D01*
X4287Y-2112D01*
X4287Y-2105D01*
X4289Y-2098D01*
X4290Y-2092D01*
X4293Y-2079D01*
X4296Y-2073D01*
X4298Y-2068D01*
X4299Y-2062D01*
X4302Y-2057D01*
X4303Y-2053D01*
X4305Y-2049D01*
X4307Y-2046D01*
X4308Y-2044D01*
X4308Y-2042D01*
X4308Y-2042D01*
X4249Y-2014D01*
X4245Y-2024D01*
X4241Y-2034D01*
X4237Y-2044D01*
X4234Y-2053D01*
X4232Y-2062D01*
X4230Y-2071D01*
X4228Y-2079D01*
X4227Y-2086D01*
X4226Y-2093D01*
X4225Y-2099D01*
X4225Y-2105D01*
X4224Y-2110D01*
Y-2113D01*
X4224Y-2116D01*
Y-2118D01*
X4224Y-2128D01*
X4225Y-2136D01*
X4226Y-2144D01*
X4228Y-2152D01*
X4230Y-2159D01*
X4232Y-2165D01*
X4234Y-2171D01*
X4236Y-2176D01*
X4239Y-2181D01*
X4241Y-2185D01*
X4243Y-2188D01*
X4245Y-2191D01*
X4246Y-2193D01*
X4247Y-2195D01*
X4248Y-2196D01*
X4248Y-2196D01*
X4253Y-2201D01*
X4258Y-2205D01*
X4263Y-2209D01*
X4269Y-2212D01*
X4274Y-2215D01*
X4280Y-2217D01*
X4285Y-2219D01*
X4290Y-2220D01*
X4296Y-2222D01*
X4300Y-2223D01*
X4304Y-2223D01*
X4308Y-2223D01*
X4311Y-2224D01*
X4313Y-2224D01*
X4314D01*
X4315D01*
X4320Y-2224D01*
X4325Y-2223D01*
X4335Y-2222D01*
X4339Y-2221D01*
X4343Y-2220D01*
X4347Y-2218D01*
X4351Y-2217D01*
X4354Y-2216D01*
X4357Y-2214D01*
X4360Y-2213D01*
X4362Y-2212D01*
X4364Y-2211D01*
X4365Y-2211D01*
X4365Y-2210D01*
X4366Y-2210D01*
X4370Y-2207D01*
X4374Y-2204D01*
X4382Y-2198D01*
X4389Y-2190D01*
X4396Y-2184D01*
X4398Y-2180D01*
X4401Y-2177D01*
X4403Y-2175D01*
X4405Y-2172D01*
X4406Y-2170D01*
X4407Y-2169D01*
X4408Y-2168D01*
X4408Y-2167D01*
X4449Y-2110D01*
X4454Y-2104D01*
X4459Y-2098D01*
X4463Y-2093D01*
X4467Y-2089D01*
X4469Y-2086D01*
X4471Y-2084D01*
X4473Y-2083D01*
X4473Y-2083D01*
X4477Y-2080D01*
X4481Y-2078D01*
X4485Y-2076D01*
X4488Y-2075D01*
X4491Y-2075D01*
X4494Y-2074D01*
X4495D01*
X4496D01*
X4496D01*
X4499Y-2074D01*
X4502Y-2075D01*
X4507Y-2076D01*
X4512Y-2078D01*
X4515Y-2081D01*
X4518Y-2083D01*
X4521Y-2085D01*
X4522Y-2087D01*
X4522Y-2087D01*
Y-2087D01*
X4526Y-2092D01*
X4528Y-2098D01*
X4530Y-2105D01*
X4531Y-2111D01*
X4532Y-2116D01*
X4532Y-2118D01*
Y-2120D01*
X4532Y-2122D01*
Y-2124D01*
X4532Y-2133D01*
X4531Y-2141D01*
X4529Y-2149D01*
X4527Y-2158D01*
X4525Y-2166D01*
X4522Y-2174D01*
X4520Y-2181D01*
X4517Y-2188D01*
X4514Y-2195D01*
X4511Y-2201D01*
X4508Y-2207D01*
X4506Y-2211D01*
X4504Y-2215D01*
X4503Y-2218D01*
X4502Y-2219D01*
X4501Y-2220D01*
X4501Y-2220D01*
Y-2220D01*
X4561Y-2249D01*
X4224D01*
X4595D01*
Y-2124D01*
Y-2126D01*
X4595Y-2116D01*
X4594Y-2106D01*
X4592Y-2097D01*
X4591Y-2088D01*
X4589Y-2080D01*
X4587Y-2073D01*
X4584Y-2066D01*
X4582Y-2060D01*
X4579Y-2055D01*
X4577Y-2050D01*
X4575Y-2047D01*
X4573Y-2043D01*
X4571Y-2041D01*
X4570Y-2039D01*
X4569Y-2038D01*
X4569Y-2037D01*
X4563Y-2032D01*
X4558Y-2027D01*
X4552Y-2022D01*
X4546Y-2018D01*
X4539Y-2015D01*
X4533Y-2013D01*
X4527Y-2010D01*
X4521Y-2009D01*
X4515Y-2007D01*
X4510Y-2006D01*
X4505Y-2006D01*
X4501Y-2005D01*
X4497Y-2005D01*
X4495Y-2005D01*
D02*
G37*
G36*
X4587Y-2258D02*
D01*
X4443Y-2363D01*
X4441Y-2356D01*
X4439Y-2349D01*
X4436Y-2343D01*
X4434Y-2337D01*
X4431Y-2331D01*
X4428Y-2326D01*
X4425Y-2322D01*
X4422Y-2317D01*
X4419Y-2314D01*
X4416Y-2311D01*
X4414Y-2308D01*
X4411Y-2306D01*
X4409Y-2304D01*
X4408Y-2303D01*
X4407Y-2302D01*
X4407Y-2302D01*
X4402Y-2298D01*
X4396Y-2294D01*
X4390Y-2291D01*
X4385Y-2289D01*
X4379Y-2287D01*
X4373Y-2285D01*
X4368Y-2283D01*
X4363Y-2282D01*
X4358Y-2281D01*
X4353Y-2280D01*
X4350Y-2280D01*
X4346Y-2280D01*
X4343D01*
X4341Y-2279D01*
X4340D01*
X4340D01*
X4334Y-2280D01*
X4328Y-2280D01*
X4323Y-2281D01*
X4317Y-2282D01*
X4312Y-2283D01*
X4308Y-2284D01*
X4304Y-2285D01*
X4299Y-2287D01*
X4296Y-2288D01*
X4293Y-2289D01*
X4290Y-2290D01*
X4288Y-2291D01*
X4286Y-2292D01*
X4284Y-2293D01*
X4284Y-2293D01*
X4283Y-2294D01*
X4279Y-2296D01*
X4275Y-2299D01*
X4271Y-2302D01*
X4267Y-2306D01*
X4264Y-2309D01*
X4260Y-2312D01*
X4258Y-2316D01*
X4255Y-2319D01*
X4253Y-2322D01*
X4251Y-2324D01*
X4249Y-2327D01*
X4248Y-2329D01*
X4247Y-2331D01*
X4246Y-2332D01*
X4246Y-2333D01*
X4245Y-2333D01*
X4243Y-2338D01*
X4241Y-2344D01*
X4239Y-2349D01*
X4237Y-2354D01*
X4235Y-2364D01*
X4234Y-2369D01*
X4233Y-2374D01*
X4233Y-2378D01*
X4233Y-2382D01*
X4232Y-2385D01*
Y-2388D01*
X4232Y-2391D01*
Y-2526D01*
X4587D01*
Y-2258D01*
D02*
G37*
%LPD*%
G36*
Y-1986D02*
X4293D01*
Y-1889D01*
X4587D01*
Y-1986D01*
D02*
G37*
G36*
X4595Y-2249D02*
X4561D01*
D01*
D01*
D01*
X4566Y-2240D01*
X4571Y-2229D01*
X4576Y-2220D01*
X4578Y-2215D01*
X4579Y-2211D01*
X4581Y-2207D01*
X4582Y-2203D01*
X4583Y-2200D01*
X4584Y-2197D01*
X4585Y-2195D01*
X4585Y-2193D01*
X4586Y-2192D01*
Y-2192D01*
X4589Y-2180D01*
X4591Y-2168D01*
X4593Y-2157D01*
X4593Y-2152D01*
X4594Y-2147D01*
X4594Y-2143D01*
X4594Y-2139D01*
X4595Y-2135D01*
Y-2132D01*
X4595Y-2130D01*
Y-2249D01*
D02*
G37*
G36*
X4587Y-2460D02*
X4446D01*
Y-2437D01*
X4587Y-2339D01*
Y-2460D01*
D02*
G37*
G36*
X4345Y-2349D02*
X4349Y-2350D01*
X4356Y-2351D01*
X4362Y-2353D01*
X4367Y-2356D01*
X4371Y-2359D01*
X4372Y-2360D01*
X4373Y-2361D01*
X4374Y-2362D01*
X4375Y-2363D01*
X4376Y-2363D01*
X4376Y-2363D01*
X4378Y-2366D01*
X4380Y-2369D01*
X4383Y-2376D01*
X4385Y-2382D01*
X4387Y-2389D01*
X4387Y-2392D01*
X4388Y-2395D01*
X4388Y-2398D01*
Y-2400D01*
X4388Y-2402D01*
Y-2460D01*
X4292D01*
Y-2404D01*
X4292Y-2400D01*
X4292Y-2395D01*
X4293Y-2391D01*
X4294Y-2386D01*
X4295Y-2383D01*
X4296Y-2379D01*
X4297Y-2376D01*
X4298Y-2374D01*
X4300Y-2371D01*
X4301Y-2369D01*
X4302Y-2367D01*
X4303Y-2366D01*
X4304Y-2365D01*
X4305Y-2364D01*
X4305Y-2363D01*
X4305Y-2363D01*
X4308Y-2361D01*
X4310Y-2359D01*
X4313Y-2357D01*
X4316Y-2355D01*
X4322Y-2353D01*
X4328Y-2351D01*
X4333Y-2350D01*
X4335Y-2350D01*
X4337Y-2349D01*
X4338Y-2349D01*
X4340D01*
X4340D01*
X4341D01*
X4345Y-2349D01*
D02*
G37*
%LPC*%
G36*
X-2811Y3226D02*
X-2813D01*
X-2900Y3102D01*
X-2811D01*
Y3226D01*
D02*
G37*
G36*
X302Y-4625D02*
X237D01*
Y-4870D01*
X237D01*
X64Y-4625D01*
X3D01*
Y-4981D01*
X69D01*
Y-4737D01*
X69D01*
X242Y-4981D01*
X302D01*
Y-4625D01*
D02*
G37*
G36*
X471Y-4630D02*
X468D01*
X459Y-4631D01*
X449Y-4632D01*
X441Y-4633D01*
X432Y-4635D01*
X425Y-4637D01*
X418Y-4640D01*
X412Y-4642D01*
X406Y-4645D01*
X401Y-4648D01*
X396Y-4650D01*
X392Y-4653D01*
X389Y-4655D01*
X387Y-4657D01*
X385Y-4658D01*
X384Y-4659D01*
X384Y-4659D01*
X378Y-4665D01*
X373Y-4671D01*
X369Y-4677D01*
X366Y-4684D01*
X363Y-4691D01*
X360Y-4698D01*
X358Y-4704D01*
X356Y-4710D01*
X355Y-4716D01*
X354Y-4722D01*
X353Y-4727D01*
X352Y-4731D01*
X352Y-4735D01*
X352Y-4737D01*
Y-4740D01*
X415D01*
X415Y-4735D01*
X416Y-4731D01*
X417Y-4724D01*
X418Y-4720D01*
X419Y-4717D01*
X421Y-4714D01*
X422Y-4712D01*
X423Y-4709D01*
X425Y-4707D01*
X426Y-4706D01*
X427Y-4704D01*
X428Y-4703D01*
X428Y-4703D01*
X429Y-4702D01*
X429Y-4702D01*
X432Y-4700D01*
X435Y-4697D01*
X438Y-4696D01*
X441Y-4694D01*
X447Y-4692D01*
X453Y-4690D01*
X458Y-4689D01*
X461Y-4689D01*
X463D01*
X464Y-4688D01*
X471D01*
X474Y-4689D01*
X481Y-4690D01*
X487Y-4692D01*
X492Y-4694D01*
X496Y-4696D01*
X497Y-4697D01*
X499Y-4698D01*
X500Y-4699D01*
X500Y-4700D01*
X501Y-4700D01*
X501Y-4700D01*
X503Y-4702D01*
X505Y-4705D01*
X508Y-4710D01*
X511Y-4716D01*
X512Y-4721D01*
X513Y-4725D01*
X514Y-4727D01*
Y-4729D01*
X514Y-4731D01*
Y-4732D01*
Y-4732D01*
Y-4733D01*
X513Y-4739D01*
X512Y-4745D01*
X511Y-4750D01*
X509Y-4755D01*
X507Y-4760D01*
X506Y-4762D01*
X506Y-4763D01*
X505Y-4764D01*
X505Y-4765D01*
X504Y-4766D01*
Y-4766D01*
X502Y-4769D01*
X500Y-4772D01*
X494Y-4780D01*
X489Y-4787D01*
X483Y-4793D01*
X480Y-4796D01*
X478Y-4799D01*
X476Y-4802D01*
X474Y-4804D01*
X472Y-4806D01*
X471Y-4807D01*
X470Y-4808D01*
X470Y-4808D01*
X353Y-4933D01*
Y-4981D01*
X579D01*
Y-4924D01*
X439Y-4924D01*
X520Y-4839D01*
X526Y-4833D01*
X531Y-4828D01*
X536Y-4822D01*
X541Y-4817D01*
X545Y-4812D01*
X548Y-4807D01*
X552Y-4803D01*
X555Y-4799D01*
X557Y-4795D01*
X559Y-4792D01*
X561Y-4789D01*
X563Y-4787D01*
X564Y-4785D01*
X565Y-4783D01*
X565Y-4783D01*
X565Y-4782D01*
X568Y-4777D01*
X569Y-4773D01*
X571Y-4768D01*
X573Y-4763D01*
X575Y-4754D01*
X576Y-4750D01*
X577Y-4746D01*
X577Y-4742D01*
X578Y-4739D01*
X578Y-4736D01*
Y-4733D01*
X578Y-4731D01*
Y-4730D01*
Y-4729D01*
Y-4728D01*
X578Y-4720D01*
X577Y-4712D01*
X576Y-4705D01*
X574Y-4698D01*
X572Y-4692D01*
X569Y-4686D01*
X567Y-4680D01*
X564Y-4675D01*
X561Y-4671D01*
X559Y-4667D01*
X556Y-4664D01*
X554Y-4661D01*
X552Y-4659D01*
X551Y-4658D01*
X550Y-4657D01*
X549Y-4657D01*
X544Y-4652D01*
X538Y-4648D01*
X531Y-4644D01*
X524Y-4641D01*
X518Y-4639D01*
X511Y-4637D01*
X504Y-4635D01*
X498Y-4634D01*
X492Y-4633D01*
X486Y-4632D01*
X481Y-4631D01*
X477Y-4631D01*
X473D01*
X471Y-4630D01*
D02*
G37*
G36*
X-34Y-4625D02*
X-293D01*
Y-4686D01*
X-196D01*
Y-4981D01*
X-131D01*
Y-4686D01*
X-34D01*
Y-4625D01*
D02*
G37*
G36*
X-437D02*
X-580D01*
Y-4981D01*
X-429D01*
X-420Y-4981D01*
X-411Y-4980D01*
X-403Y-4979D01*
X-395Y-4977D01*
X-388Y-4975D01*
X-381Y-4973D01*
X-375Y-4971D01*
X-369Y-4968D01*
X-364Y-4966D01*
X-360Y-4964D01*
X-356Y-4961D01*
X-352Y-4959D01*
X-350Y-4958D01*
X-348Y-4956D01*
X-347Y-4956D01*
X-347Y-4955D01*
X-341Y-4950D01*
X-336Y-4945D01*
X-332Y-4939D01*
X-328Y-4933D01*
X-325Y-4927D01*
X-322Y-4920D01*
X-320Y-4914D01*
X-318Y-4908D01*
X-317Y-4903D01*
X-316Y-4897D01*
X-315Y-4893D01*
X-315Y-4889D01*
X-314Y-4885D01*
X-314Y-4883D01*
Y-4881D01*
X-314Y-4873D01*
X-315Y-4867D01*
X-316Y-4861D01*
X-317Y-4855D01*
X-319Y-4849D01*
X-320Y-4844D01*
X-322Y-4840D01*
X-324Y-4836D01*
X-326Y-4832D01*
X-328Y-4829D01*
X-329Y-4826D01*
X-331Y-4824D01*
X-332Y-4822D01*
X-333Y-4821D01*
X-334Y-4820D01*
X-334Y-4820D01*
X-338Y-4816D01*
X-342Y-4812D01*
X-346Y-4809D01*
X-350Y-4806D01*
X-355Y-4804D01*
X-359Y-4801D01*
X-363Y-4799D01*
X-367Y-4798D01*
X-371Y-4796D01*
X-375Y-4795D01*
X-378Y-4795D01*
X-381Y-4794D01*
X-383Y-4793D01*
X-385Y-4793D01*
X-386Y-4793D01*
X-386D01*
Y-4792D01*
X-381Y-4790D01*
X-377Y-4788D01*
X-373Y-4786D01*
X-369Y-4784D01*
X-365Y-4781D01*
X-362Y-4779D01*
X-359Y-4777D01*
X-356Y-4775D01*
X-354Y-4772D01*
X-352Y-4770D01*
X-350Y-4769D01*
X-348Y-4767D01*
X-347Y-4766D01*
X-346Y-4765D01*
X-346Y-4764D01*
X-346Y-4764D01*
X-343Y-4760D01*
X-341Y-4756D01*
X-339Y-4752D01*
X-338Y-4748D01*
X-335Y-4739D01*
X-334Y-4732D01*
X-333Y-4728D01*
X-333Y-4725D01*
X-333Y-4722D01*
X-332Y-4720D01*
X-332Y-4718D01*
Y-4716D01*
Y-4715D01*
Y-4715D01*
X-332Y-4707D01*
X-333Y-4700D01*
X-335Y-4693D01*
X-337Y-4686D01*
X-339Y-4680D01*
X-341Y-4675D01*
X-344Y-4670D01*
X-346Y-4665D01*
X-349Y-4662D01*
X-352Y-4658D01*
X-354Y-4655D01*
X-357Y-4653D01*
X-358Y-4651D01*
X-360Y-4650D01*
X-361Y-4649D01*
X-361Y-4648D01*
X-367Y-4644D01*
X-373Y-4641D01*
X-379Y-4638D01*
X-385Y-4635D01*
X-392Y-4633D01*
X-399Y-4631D01*
X-405Y-4629D01*
X-411Y-4628D01*
X-417Y-4627D01*
X-422Y-4626D01*
X-427Y-4626D01*
X-431Y-4626D01*
X-434D01*
X-437Y-4625D01*
D02*
G37*
%LPD*%
G36*
X-441Y-4686D02*
X-434Y-4687D01*
X-428Y-4689D01*
X-423Y-4691D01*
X-420Y-4692D01*
X-419Y-4693D01*
X-417Y-4694D01*
X-416Y-4695D01*
X-415Y-4695D01*
X-414Y-4696D01*
X-414Y-4696D01*
X-413D01*
X-411Y-4698D01*
X-409Y-4701D01*
X-407Y-4703D01*
X-406Y-4706D01*
X-403Y-4711D01*
X-402Y-4716D01*
X-401Y-4720D01*
X-400Y-4722D01*
Y-4724D01*
X-400Y-4725D01*
Y-4727D01*
Y-4727D01*
Y-4727D01*
X-400Y-4731D01*
X-400Y-4735D01*
X-402Y-4741D01*
X-404Y-4747D01*
X-406Y-4751D01*
X-409Y-4755D01*
X-411Y-4757D01*
X-413Y-4759D01*
X-413Y-4759D01*
X-413Y-4760D01*
X-416Y-4762D01*
X-419Y-4763D01*
X-425Y-4766D01*
X-431Y-4768D01*
X-437Y-4769D01*
X-443Y-4770D01*
X-445Y-4771D01*
X-447D01*
X-449Y-4771D01*
X-514D01*
Y-4685D01*
X-449D01*
X-441Y-4686D01*
D02*
G37*
G36*
X-433Y-4827D02*
X-428Y-4828D01*
X-424Y-4828D01*
X-420Y-4829D01*
X-416Y-4831D01*
X-413Y-4832D01*
X-410Y-4833D01*
X-407Y-4834D01*
X-405Y-4835D01*
X-403Y-4836D01*
X-401Y-4837D01*
X-400Y-4838D01*
X-399Y-4839D01*
X-399Y-4839D01*
X-399Y-4839D01*
X-396Y-4841D01*
X-393Y-4844D01*
X-391Y-4847D01*
X-390Y-4850D01*
X-387Y-4856D01*
X-385Y-4861D01*
X-384Y-4866D01*
X-384Y-4869D01*
X-384Y-4870D01*
X-383Y-4872D01*
Y-4873D01*
Y-4874D01*
Y-4874D01*
X-384Y-4878D01*
X-384Y-4882D01*
X-386Y-4889D01*
X-388Y-4895D01*
X-391Y-4900D01*
X-394Y-4904D01*
X-395Y-4905D01*
X-396Y-4906D01*
X-397Y-4908D01*
X-398Y-4908D01*
X-398Y-4909D01*
X-399Y-4909D01*
X-402Y-4911D01*
X-405Y-4913D01*
X-411Y-4916D01*
X-419Y-4918D01*
X-425Y-4920D01*
X-428Y-4920D01*
X-431Y-4921D01*
X-434Y-4921D01*
X-436D01*
X-438Y-4921D01*
X-514D01*
Y-4826D01*
X-438D01*
X-433Y-4827D01*
D02*
G37*
%LPC*%
G36*
X-708Y220D02*
X-1051D01*
Y136D01*
X-708D01*
Y220D01*
D02*
G37*
G36*
Y71D02*
X-1064D01*
Y6D01*
X-819D01*
Y6D01*
X-1064Y-167D01*
Y-228D01*
X-708D01*
Y71D01*
D02*
G37*
G36*
Y-265D02*
Y-362D01*
X-1003D01*
Y-265D01*
X-1064D01*
Y-525D01*
X-708D01*
Y-265D01*
D02*
G37*
G36*
X-806Y-545D02*
X-808D01*
X-816Y-546D01*
X-822Y-546D01*
X-828Y-547D01*
X-834Y-548D01*
X-840Y-550D01*
X-845Y-552D01*
X-849Y-553D01*
X-853Y-555D01*
X-857Y-557D01*
X-860Y-559D01*
X-863Y-560D01*
X-865Y-562D01*
X-867Y-563D01*
X-868Y-564D01*
X-869Y-565D01*
X-869Y-565D01*
X-873Y-569D01*
X-877Y-573D01*
X-880Y-577D01*
X-883Y-581D01*
X-885Y-586D01*
X-888Y-590D01*
X-890Y-594D01*
X-891Y-599D01*
X-893Y-602D01*
X-894Y-606D01*
X-894Y-609D01*
X-895Y-612D01*
X-896Y-614D01*
X-896Y-616D01*
X-896Y-617D01*
Y-617D01*
X-897D01*
X-899Y-613D01*
X-901Y-608D01*
X-903Y-604D01*
X-905Y-600D01*
X-908Y-596D01*
X-910Y-593D01*
X-912Y-590D01*
X-914Y-587D01*
X-917Y-585D01*
X-919Y-583D01*
X-920Y-581D01*
X-922Y-579D01*
X-923Y-578D01*
X-924Y-578D01*
X-925Y-577D01*
X-925Y-577D01*
X-929Y-575D01*
X-933Y-572D01*
X-937Y-570D01*
X-941Y-569D01*
X-950Y-566D01*
X-957Y-565D01*
X-961Y-564D01*
X-964Y-564D01*
X-967Y-564D01*
X-969Y-563D01*
X-971Y-563D01*
X-973D01*
X-974D01*
X-974D01*
X-982Y-563D01*
X-989Y-564D01*
X-996Y-566D01*
X-1003Y-568D01*
X-1009Y-570D01*
X-1014Y-572D01*
X-1019Y-575D01*
X-1024Y-578D01*
X-1027Y-580D01*
X-1031Y-583D01*
X-1034Y-585D01*
X-1036Y-588D01*
X-1038Y-590D01*
X-1039Y-591D01*
X-1040Y-592D01*
X-1040Y-592D01*
X-1045Y-598D01*
X-1048Y-604D01*
X-1051Y-610D01*
X-1054Y-617D01*
X-1056Y-623D01*
X-1058Y-630D01*
X-1060Y-636D01*
X-1061Y-642D01*
X-1062Y-648D01*
X-1063Y-653D01*
X-1063Y-658D01*
X-1063Y-662D01*
Y-665D01*
X-1064Y-668D01*
Y-667D01*
Y-811D01*
X-708D01*
Y-660D01*
X-708Y-651D01*
X-709Y-642D01*
X-710Y-634D01*
X-712Y-626D01*
X-714Y-619D01*
X-716Y-612D01*
X-718Y-606D01*
X-721Y-600D01*
X-723Y-595D01*
X-725Y-591D01*
X-728Y-587D01*
X-730Y-584D01*
X-731Y-581D01*
X-733Y-579D01*
X-733Y-578D01*
X-734Y-578D01*
X-739Y-572D01*
X-744Y-567D01*
X-750Y-563D01*
X-756Y-559D01*
X-762Y-556D01*
X-769Y-553D01*
X-775Y-551D01*
X-781Y-549D01*
X-786Y-548D01*
X-791Y-547D01*
X-796Y-546D01*
X-800Y-546D01*
X-804Y-546D01*
X-806Y-545D01*
D02*
G37*
%LPD*%
G36*
X-708Y136D02*
X-990D01*
Y157D01*
X-708D01*
Y136D01*
D02*
G37*
G36*
Y-163D02*
X-952D01*
Y-162D01*
X-708Y11D01*
Y-163D01*
D02*
G37*
G36*
Y-525D02*
X-1003D01*
Y-427D01*
X-708D01*
Y-525D01*
D02*
G37*
G36*
X-811Y-615D02*
X-807Y-615D01*
X-800Y-617D01*
X-794Y-619D01*
X-789Y-622D01*
X-785Y-625D01*
X-784Y-626D01*
X-782Y-627D01*
X-781Y-628D01*
X-781Y-629D01*
X-780Y-629D01*
X-780Y-630D01*
X-778Y-633D01*
X-776Y-636D01*
X-773Y-643D01*
X-771Y-650D01*
X-769Y-656D01*
X-769Y-659D01*
X-768Y-662D01*
X-768Y-665D01*
Y-667D01*
X-768Y-669D01*
Y-745D01*
X-862D01*
Y-669D01*
X-862Y-664D01*
X-861Y-659D01*
X-861Y-655D01*
X-859Y-651D01*
X-858Y-647D01*
X-857Y-644D01*
X-856Y-641D01*
X-855Y-638D01*
X-854Y-636D01*
X-853Y-634D01*
X-852Y-632D01*
X-851Y-631D01*
X-850Y-631D01*
X-850Y-630D01*
X-850Y-630D01*
X-847Y-627D01*
X-845Y-625D01*
X-842Y-623D01*
X-839Y-621D01*
X-833Y-618D01*
X-828Y-616D01*
X-823Y-615D01*
X-820Y-615D01*
X-819Y-615D01*
X-817Y-614D01*
X-816D01*
X-815D01*
X-815D01*
X-811Y-615D01*
D02*
G37*
G36*
X-958Y-631D02*
X-954Y-632D01*
X-948Y-633D01*
X-942Y-635D01*
X-938Y-638D01*
X-934Y-640D01*
X-932Y-642D01*
X-930Y-644D01*
X-930Y-644D01*
X-929Y-644D01*
X-927Y-647D01*
X-926Y-650D01*
X-923Y-656D01*
X-921Y-662D01*
X-920Y-668D01*
X-919Y-674D01*
X-918Y-676D01*
Y-678D01*
X-918Y-680D01*
Y-745D01*
X-1004D01*
Y-680D01*
X-1003Y-672D01*
X-1002Y-665D01*
X-1000Y-659D01*
X-998Y-654D01*
X-997Y-652D01*
X-996Y-650D01*
X-995Y-648D01*
X-994Y-647D01*
X-994Y-646D01*
X-993Y-645D01*
X-993Y-645D01*
Y-644D01*
X-991Y-642D01*
X-988Y-640D01*
X-986Y-638D01*
X-983Y-637D01*
X-978Y-634D01*
X-973Y-633D01*
X-969Y-632D01*
X-966Y-631D01*
X-965D01*
X-963Y-631D01*
X-962D01*
X-962D01*
X-962D01*
X-958Y-631D01*
D02*
G37*
%LPC*%
G36*
X1595Y5615D02*
X1538D01*
X1538Y5475D01*
X1453Y5556D01*
X1447Y5562D01*
X1442Y5567D01*
X1436Y5572D01*
X1431Y5577D01*
X1426Y5580D01*
X1421Y5584D01*
X1417Y5587D01*
X1413Y5590D01*
X1409Y5593D01*
X1406Y5595D01*
X1403Y5597D01*
X1401Y5598D01*
X1399Y5599D01*
X1398Y5600D01*
X1397Y5601D01*
X1396Y5601D01*
X1392Y5603D01*
X1387Y5605D01*
X1382Y5607D01*
X1377Y5609D01*
X1368Y5611D01*
X1364Y5612D01*
X1360Y5613D01*
X1356Y5613D01*
X1353Y5613D01*
X1350Y5614D01*
X1348D01*
X1345Y5614D01*
X1344D01*
X1343D01*
X1343D01*
X1334Y5614D01*
X1326Y5613D01*
X1319Y5612D01*
X1312Y5610D01*
X1306Y5607D01*
X1300Y5605D01*
X1294Y5602D01*
X1289Y5600D01*
X1285Y5597D01*
X1282Y5594D01*
X1278Y5592D01*
X1276Y5590D01*
X1274Y5588D01*
X1272Y5586D01*
X1271Y5585D01*
X1271Y5585D01*
X1266Y5579D01*
X1262Y5573D01*
X1259Y5567D01*
X1256Y5560D01*
X1253Y5553D01*
X1251Y5547D01*
X1249Y5540D01*
X1248Y5534D01*
X1247Y5528D01*
X1246Y5522D01*
X1245Y5517D01*
X1245Y5513D01*
Y5509D01*
X1245Y5506D01*
Y5510D01*
Y5387D01*
Y5504D01*
X1245Y5494D01*
X1246Y5485D01*
X1247Y5476D01*
X1249Y5468D01*
X1251Y5461D01*
X1254Y5454D01*
X1256Y5447D01*
X1259Y5442D01*
X1262Y5437D01*
X1264Y5432D01*
X1267Y5428D01*
X1269Y5425D01*
X1271Y5423D01*
X1272Y5421D01*
X1273Y5420D01*
X1274Y5419D01*
X1279Y5414D01*
X1285Y5409D01*
X1292Y5405D01*
X1298Y5401D01*
X1305Y5398D01*
X1312Y5396D01*
X1318Y5394D01*
X1325Y5392D01*
X1331Y5390D01*
X1336Y5389D01*
X1341Y5388D01*
X1345Y5388D01*
X1349Y5388D01*
X1352Y5387D01*
X1354D01*
Y5450D01*
X1349Y5451D01*
X1345Y5451D01*
X1338Y5453D01*
X1334Y5454D01*
X1331Y5455D01*
X1328Y5456D01*
X1326Y5458D01*
X1324Y5459D01*
X1322Y5460D01*
X1320Y5461D01*
X1319Y5462D01*
X1318Y5463D01*
X1317Y5464D01*
X1316Y5464D01*
X1316Y5465D01*
X1314Y5467D01*
X1312Y5470D01*
X1310Y5473D01*
X1308Y5476D01*
X1306Y5483D01*
X1304Y5489D01*
X1303Y5494D01*
X1303Y5496D01*
Y5498D01*
X1303Y5500D01*
Y5506D01*
X1303Y5510D01*
X1304Y5517D01*
X1306Y5523D01*
X1308Y5528D01*
X1310Y5532D01*
X1312Y5533D01*
X1312Y5535D01*
X1313Y5535D01*
X1314Y5536D01*
X1314Y5536D01*
X1314Y5537D01*
X1316Y5539D01*
X1319Y5541D01*
X1324Y5544D01*
X1330Y5547D01*
X1335Y5548D01*
X1340Y5549D01*
X1342Y5549D01*
X1343D01*
X1345Y5550D01*
X1346D01*
X1346D01*
X1347D01*
X1353Y5549D01*
X1359Y5548D01*
X1364Y5547D01*
X1369Y5545D01*
X1374Y5543D01*
X1376Y5542D01*
X1377Y5541D01*
X1378Y5541D01*
X1379Y5540D01*
X1380Y5540D01*
X1380D01*
X1383Y5538D01*
X1387Y5535D01*
X1394Y5530D01*
X1401Y5524D01*
X1408Y5519D01*
X1411Y5516D01*
X1413Y5513D01*
X1416Y5511D01*
X1418Y5509D01*
X1420Y5508D01*
X1421Y5506D01*
X1422Y5506D01*
X1422Y5505D01*
X1547Y5388D01*
X1595D01*
Y5615D01*
D02*
G37*
G36*
Y5357D02*
X1239D01*
D01*
X1417D01*
X1407Y5357D01*
X1398Y5356D01*
X1389Y5355D01*
X1380Y5353D01*
X1372Y5351D01*
X1364Y5349D01*
X1357Y5347D01*
X1350Y5345D01*
X1344Y5343D01*
X1339Y5341D01*
X1334Y5339D01*
X1330Y5337D01*
X1327Y5335D01*
X1325Y5334D01*
X1324Y5333D01*
X1323Y5333D01*
X1316Y5328D01*
X1309Y5323D01*
X1302Y5318D01*
X1296Y5313D01*
X1291Y5307D01*
X1286Y5302D01*
X1281Y5297D01*
X1277Y5292D01*
X1273Y5287D01*
X1270Y5282D01*
X1267Y5278D01*
X1265Y5274D01*
X1263Y5272D01*
X1262Y5269D01*
X1261Y5268D01*
X1261Y5268D01*
X1257Y5260D01*
X1254Y5251D01*
X1251Y5243D01*
X1248Y5235D01*
X1247Y5227D01*
X1245Y5219D01*
X1243Y5211D01*
X1242Y5204D01*
X1241Y5197D01*
X1241Y5191D01*
X1240Y5186D01*
X1240Y5181D01*
X1239Y5177D01*
Y5181D01*
Y5058D01*
X1595D01*
Y5175D01*
Y5172D01*
X1595Y5182D01*
X1594Y5191D01*
X1593Y5201D01*
X1592Y5209D01*
X1590Y5218D01*
X1588Y5226D01*
X1586Y5233D01*
X1584Y5240D01*
X1582Y5246D01*
X1580Y5251D01*
X1579Y5256D01*
X1577Y5260D01*
X1576Y5263D01*
X1574Y5266D01*
X1574Y5267D01*
X1574Y5268D01*
X1569Y5275D01*
X1565Y5283D01*
X1560Y5289D01*
X1555Y5296D01*
X1550Y5301D01*
X1545Y5307D01*
X1539Y5312D01*
X1535Y5316D01*
X1530Y5320D01*
X1526Y5323D01*
X1522Y5326D01*
X1518Y5329D01*
X1516Y5331D01*
X1514Y5332D01*
X1512Y5333D01*
X1512Y5333D01*
X1504Y5337D01*
X1496Y5341D01*
X1488Y5344D01*
X1480Y5347D01*
X1472Y5349D01*
X1464Y5351D01*
X1457Y5353D01*
X1450Y5354D01*
X1443Y5355D01*
X1437Y5355D01*
X1431Y5356D01*
X1426Y5357D01*
X1423D01*
X1420Y5357D01*
X1595D01*
D02*
G37*
G36*
Y5004D02*
X1239D01*
D01*
X1534D01*
Y4856D01*
X1432D01*
Y4989D01*
X1372D01*
Y4856D01*
X1301D01*
Y5002D01*
X1239D01*
Y4791D01*
X1595D01*
Y5004D01*
D02*
G37*
G36*
Y4756D02*
X1239D01*
Y4542D01*
X1595D01*
Y4756D01*
D02*
G37*
%LPD*%
G36*
X1424Y5286D02*
X1431Y5286D01*
X1437Y5285D01*
X1443Y5284D01*
X1449Y5283D01*
X1454Y5282D01*
X1459Y5281D01*
X1464Y5280D01*
X1468Y5278D01*
X1471Y5277D01*
X1474Y5275D01*
X1477Y5274D01*
X1479Y5274D01*
X1481Y5273D01*
X1481Y5272D01*
X1482Y5272D01*
X1486Y5269D01*
X1491Y5266D01*
X1495Y5263D01*
X1499Y5260D01*
X1503Y5257D01*
X1506Y5253D01*
X1509Y5250D01*
X1511Y5247D01*
X1514Y5244D01*
X1516Y5241D01*
X1518Y5239D01*
X1519Y5237D01*
X1520Y5235D01*
X1521Y5234D01*
X1521Y5233D01*
X1522Y5233D01*
X1524Y5228D01*
X1526Y5223D01*
X1528Y5218D01*
X1530Y5213D01*
X1532Y5203D01*
X1533Y5199D01*
X1534Y5194D01*
X1534Y5190D01*
X1535Y5187D01*
X1535Y5183D01*
X1535Y5180D01*
X1535Y5178D01*
Y5123D01*
X1300D01*
Y5175D01*
X1300Y5181D01*
X1300Y5187D01*
X1301Y5192D01*
X1302Y5198D01*
X1303Y5203D01*
X1304Y5207D01*
X1305Y5212D01*
X1306Y5216D01*
X1308Y5220D01*
X1309Y5223D01*
X1310Y5226D01*
X1311Y5228D01*
X1312Y5230D01*
X1313Y5231D01*
X1313Y5232D01*
X1313Y5233D01*
X1316Y5237D01*
X1319Y5242D01*
X1325Y5250D01*
X1328Y5253D01*
X1332Y5256D01*
X1335Y5259D01*
X1338Y5262D01*
X1341Y5264D01*
X1344Y5266D01*
X1347Y5268D01*
X1349Y5269D01*
X1351Y5271D01*
X1352Y5272D01*
X1353Y5272D01*
X1353Y5272D01*
X1358Y5275D01*
X1364Y5277D01*
X1369Y5279D01*
X1375Y5281D01*
X1385Y5283D01*
X1390Y5284D01*
X1395Y5285D01*
X1400Y5286D01*
X1404Y5286D01*
X1408Y5286D01*
X1411Y5286D01*
X1414Y5287D01*
X1416D01*
X1417D01*
X1417D01*
X1424Y5286D01*
D02*
G37*
G36*
X1534Y4607D02*
X1239D01*
Y4756D01*
X1534D01*
Y4607D01*
D02*
G37*
%LPC*%
G36*
X-2137Y-5263D02*
X-2247Y-5453D01*
X-2203Y-5479D01*
X-2201Y-5480D01*
X-2199Y-5481D01*
X-2196Y-5482D01*
X-2193Y-5484D01*
X-2189Y-5485D01*
X-2185Y-5487D01*
X-2181Y-5488D01*
X-2172Y-5491D01*
X-2167Y-5492D01*
X-2162Y-5493D01*
X-2157Y-5493D01*
X-2152Y-5494D01*
X-2152Y-5493D01*
X-2151Y-5494D01*
X-2150Y-5494D01*
X-2148Y-5493D01*
X-2145Y-5493D01*
X-2143Y-5493D01*
X-2139Y-5492D01*
X-2136Y-5492D01*
X-2132Y-5491D01*
X-2128Y-5490D01*
X-2124Y-5489D01*
X-2120Y-5488D01*
X-2115Y-5486D01*
X-2111Y-5484D01*
X-2106Y-5482D01*
X-2102Y-5480D01*
X-2101Y-5479D01*
X-2101Y-5479D01*
X-2099Y-5478D01*
X-2098Y-5477D01*
X-2096Y-5475D01*
X-2093Y-5473D01*
X-2090Y-5471D01*
X-2087Y-5468D01*
X-2084Y-5465D01*
X-2081Y-5462D01*
X-2077Y-5458D01*
X-2074Y-5454D01*
X-2070Y-5450D01*
X-2067Y-5445D01*
X-2063Y-5440D01*
X-2060Y-5434D01*
X-2060Y-5434D01*
X-2059Y-5433D01*
X-2058Y-5432D01*
X-2057Y-5429D01*
X-2056Y-5426D01*
X-2054Y-5423D01*
X-2053Y-5420D01*
X-2051Y-5416D01*
X-2049Y-5411D01*
X-2048Y-5407D01*
X-2045Y-5397D01*
X-2044Y-5392D01*
X-2043Y-5386D01*
X-2042Y-5381D01*
X-2042Y-5376D01*
X-2042Y-5375D01*
X-2042Y-5375D01*
X-2042Y-5373D01*
X-2042Y-5371D01*
X-2042Y-5369D01*
X-2042Y-5366D01*
X-2043Y-5362D01*
X-2043Y-5359D01*
X-2044Y-5355D01*
X-2045Y-5351D01*
X-2046Y-5347D01*
X-2047Y-5342D01*
X-2050Y-5334D01*
X-2053Y-5329D01*
X-2055Y-5325D01*
X-2055Y-5324D01*
X-2056Y-5324D01*
X-2056Y-5323D01*
X-2058Y-5321D01*
X-2059Y-5319D01*
X-2061Y-5317D01*
X-2063Y-5314D01*
X-2065Y-5311D01*
X-2068Y-5308D01*
X-2071Y-5306D01*
X-2074Y-5303D01*
X-2078Y-5299D01*
X-2082Y-5296D01*
X-2086Y-5293D01*
X-2091Y-5290D01*
X-2095Y-5287D01*
X-2137Y-5263D01*
D02*
G37*
G36*
X-1856Y-5425D02*
X-1966Y-5616D01*
X-1922Y-5641D01*
X-1920Y-5642D01*
X-1918Y-5643D01*
X-1915Y-5645D01*
X-1912Y-5646D01*
X-1908Y-5648D01*
X-1904Y-5649D01*
X-1900Y-5650D01*
X-1891Y-5653D01*
X-1886Y-5654D01*
X-1881Y-5655D01*
X-1876Y-5656D01*
X-1872Y-5656D01*
X-1871Y-5656D01*
X-1870Y-5656D01*
X-1869Y-5656D01*
X-1867Y-5655D01*
X-1865Y-5655D01*
X-1862Y-5655D01*
X-1859Y-5655D01*
X-1855Y-5654D01*
X-1851Y-5653D01*
X-1847Y-5653D01*
X-1843Y-5651D01*
X-1839Y-5650D01*
X-1834Y-5648D01*
X-1830Y-5647D01*
X-1825Y-5644D01*
X-1821Y-5642D01*
X-1820Y-5642D01*
X-1820Y-5641D01*
X-1818Y-5640D01*
X-1817Y-5639D01*
X-1815Y-5637D01*
X-1812Y-5635D01*
X-1809Y-5633D01*
X-1806Y-5631D01*
X-1803Y-5628D01*
X-1800Y-5624D01*
X-1797Y-5621D01*
X-1793Y-5617D01*
X-1790Y-5612D01*
X-1786Y-5607D01*
X-1782Y-5602D01*
X-1779Y-5597D01*
X-1779Y-5596D01*
X-1778Y-5595D01*
X-1777Y-5594D01*
X-1776Y-5591D01*
X-1775Y-5589D01*
X-1774Y-5585D01*
X-1772Y-5582D01*
X-1770Y-5578D01*
X-1768Y-5574D01*
X-1767Y-5569D01*
X-1764Y-5559D01*
X-1763Y-5554D01*
X-1762Y-5549D01*
X-1761Y-5543D01*
X-1761Y-5538D01*
X-1761Y-5538D01*
X-1761Y-5537D01*
X-1761Y-5535D01*
X-1761Y-5533D01*
X-1761Y-5531D01*
X-1761Y-5528D01*
X-1762Y-5525D01*
X-1762Y-5521D01*
X-1763Y-5517D01*
X-1764Y-5513D01*
X-1765Y-5509D01*
X-1766Y-5505D01*
X-1770Y-5496D01*
X-1772Y-5491D01*
X-1774Y-5487D01*
X-1774Y-5487D01*
X-1775Y-5486D01*
X-1775Y-5485D01*
X-1777Y-5483D01*
X-1778Y-5481D01*
X-1780Y-5479D01*
X-1782Y-5477D01*
X-1784Y-5474D01*
X-1787Y-5471D01*
X-1790Y-5468D01*
X-1793Y-5465D01*
X-1797Y-5461D01*
X-1801Y-5458D01*
X-1805Y-5455D01*
X-1810Y-5452D01*
X-1814Y-5449D01*
X-1856Y-5425D01*
D02*
G37*
G36*
X-1137Y-5263D02*
X-1177Y-5332D01*
X-1124Y-5362D01*
X-1123Y-5363D01*
X-1121Y-5364D01*
X-1119Y-5365D01*
X-1114Y-5367D01*
X-1108Y-5368D01*
X-1103Y-5370D01*
X-1096Y-5370D01*
X-1093Y-5370D01*
X-1090Y-5370D01*
X-1090Y-5370D01*
X-1089Y-5370D01*
X-1087Y-5369D01*
X-1084Y-5368D01*
X-1081Y-5366D01*
X-1077Y-5364D01*
X-1073Y-5360D01*
X-1068Y-5356D01*
X-1066Y-5353D01*
X-1064Y-5350D01*
X-1064Y-5350D01*
X-1064Y-5349D01*
X-1063Y-5349D01*
X-1063Y-5347D01*
X-1062Y-5346D01*
X-1062Y-5344D01*
X-1060Y-5340D01*
X-1059Y-5335D01*
X-1059Y-5330D01*
X-1059Y-5327D01*
X-1059Y-5324D01*
X-1060Y-5322D01*
X-1061Y-5319D01*
X-1061Y-5318D01*
X-1061Y-5318D01*
X-1061Y-5317D01*
X-1062Y-5316D01*
X-1063Y-5315D01*
X-1063Y-5313D01*
X-1064Y-5312D01*
X-1066Y-5310D01*
X-1069Y-5306D01*
X-1073Y-5302D01*
X-1078Y-5297D01*
X-1084Y-5293D01*
X-1137Y-5263D01*
D02*
G37*
G36*
X-1203Y-5377D02*
X-1247Y-5453D01*
X-1185Y-5489D01*
X-1184Y-5490D01*
X-1182Y-5491D01*
X-1180Y-5492D01*
X-1177Y-5493D01*
X-1174Y-5494D01*
X-1168Y-5496D01*
X-1162Y-5497D01*
X-1155Y-5498D01*
X-1151Y-5498D01*
X-1148Y-5498D01*
X-1148Y-5497D01*
X-1147Y-5497D01*
X-1146Y-5497D01*
X-1145Y-5497D01*
X-1143Y-5496D01*
X-1142Y-5496D01*
X-1138Y-5494D01*
X-1133Y-5491D01*
X-1128Y-5487D01*
X-1123Y-5483D01*
X-1121Y-5480D01*
X-1119Y-5476D01*
X-1119Y-5476D01*
X-1119Y-5476D01*
X-1118Y-5475D01*
X-1118Y-5473D01*
X-1117Y-5472D01*
X-1116Y-5470D01*
X-1115Y-5465D01*
X-1114Y-5460D01*
X-1113Y-5454D01*
X-1113Y-5451D01*
X-1114Y-5448D01*
X-1114Y-5444D01*
X-1115Y-5441D01*
X-1115Y-5441D01*
X-1116Y-5440D01*
X-1116Y-5439D01*
X-1117Y-5438D01*
X-1117Y-5437D01*
X-1119Y-5435D01*
X-1120Y-5433D01*
X-1121Y-5431D01*
X-1123Y-5428D01*
X-1126Y-5426D01*
X-1128Y-5423D01*
X-1131Y-5421D01*
X-1134Y-5418D01*
X-1137Y-5415D01*
X-1141Y-5413D01*
X-1203Y-5377D01*
D02*
G37*
G36*
X-826Y-5459D02*
X-933Y-5548D01*
X-850Y-5597D01*
X-826Y-5459D01*
D02*
G37*
G36*
X-2805Y-5454D02*
X-2915Y-5645D01*
X-2871Y-5671D01*
X-2869Y-5672D01*
X-2866Y-5673D01*
X-2863Y-5674D01*
X-2860Y-5676D01*
X-2857Y-5677D01*
X-2853Y-5679D01*
X-2849Y-5680D01*
X-2840Y-5683D01*
X-2835Y-5684D01*
X-2830Y-5684D01*
X-2825Y-5685D01*
X-2820Y-5685D01*
X-2820Y-5685D01*
X-2819Y-5685D01*
X-2818Y-5685D01*
X-2816Y-5685D01*
X-2813Y-5685D01*
X-2811Y-5685D01*
X-2807Y-5684D01*
X-2804Y-5684D01*
X-2800Y-5683D01*
X-2796Y-5682D01*
X-2792Y-5681D01*
X-2788Y-5680D01*
X-2783Y-5678D01*
X-2779Y-5676D01*
X-2774Y-5674D01*
X-2770Y-5671D01*
X-2769Y-5671D01*
X-2769Y-5671D01*
X-2767Y-5670D01*
X-2766Y-5669D01*
X-2763Y-5667D01*
X-2761Y-5665D01*
X-2758Y-5663D01*
X-2755Y-5660D01*
X-2752Y-5657D01*
X-2749Y-5654D01*
X-2745Y-5650D01*
X-2742Y-5646D01*
X-2738Y-5642D01*
X-2735Y-5637D01*
X-2731Y-5632D01*
X-2728Y-5626D01*
X-2728Y-5626D01*
X-2727Y-5625D01*
X-2726Y-5623D01*
X-2725Y-5621D01*
X-2724Y-5618D01*
X-2722Y-5615D01*
X-2721Y-5612D01*
X-2719Y-5607D01*
X-2717Y-5603D01*
X-2716Y-5599D01*
X-2713Y-5589D01*
X-2712Y-5584D01*
X-2711Y-5578D01*
X-2710Y-5573D01*
X-2710Y-5568D01*
X-2710Y-5567D01*
X-2710Y-5566D01*
X-2710Y-5565D01*
X-2710Y-5563D01*
X-2710Y-5560D01*
X-2710Y-5558D01*
X-2710Y-5554D01*
X-2711Y-5551D01*
X-2712Y-5547D01*
X-2713Y-5543D01*
X-2714Y-5538D01*
X-2715Y-5534D01*
X-2718Y-5526D01*
X-2720Y-5521D01*
X-2723Y-5517D01*
X-2723Y-5516D01*
X-2724Y-5516D01*
X-2724Y-5514D01*
X-2725Y-5513D01*
X-2727Y-5511D01*
X-2729Y-5509D01*
X-2731Y-5506D01*
X-2733Y-5503D01*
X-2736Y-5500D01*
X-2739Y-5497D01*
X-2742Y-5494D01*
X-2746Y-5491D01*
X-2750Y-5488D01*
X-2754Y-5485D01*
X-2758Y-5482D01*
X-2763Y-5479D01*
X-2805Y-5454D01*
D02*
G37*
G36*
X4964Y-3339D02*
X4958Y-3339D01*
X4958Y-3339D01*
X4957Y-3339D01*
X4955Y-3340D01*
X4953Y-3340D01*
X4950Y-3341D01*
X4947Y-3342D01*
X4943Y-3343D01*
X4939Y-3344D01*
X4935Y-3347D01*
X4931Y-3349D01*
X4926Y-3352D01*
X4922Y-3355D01*
X4917Y-3358D01*
X4912Y-3362D01*
X4908Y-3367D01*
X4903Y-3372D01*
X4901Y-3375D01*
X4900Y-3377D01*
X4898Y-3380D01*
X4896Y-3383D01*
X4894Y-3387D01*
X4892Y-3391D01*
X4888Y-3400D01*
X4887Y-3405D01*
X4885Y-3411D01*
X4884Y-3416D01*
X4884Y-3422D01*
X4883Y-3428D01*
X4884Y-3434D01*
X4884Y-3435D01*
X4884Y-3436D01*
X4884Y-3437D01*
X4885Y-3439D01*
X4886Y-3442D01*
X4887Y-3446D01*
X4888Y-3449D01*
X4889Y-3453D01*
X4891Y-3457D01*
X4894Y-3462D01*
X4896Y-3466D01*
X4899Y-3471D01*
X4903Y-3475D01*
X4907Y-3480D01*
X4912Y-3485D01*
X4917Y-3489D01*
X4918Y-3489D01*
X4918Y-3490D01*
X4920Y-3492D01*
X4922Y-3493D01*
X4925Y-3494D01*
X4928Y-3496D01*
X4932Y-3498D01*
X4936Y-3500D01*
X4945Y-3504D01*
X4950Y-3505D01*
X4955Y-3507D01*
X4961Y-3508D01*
X4967Y-3508D01*
X4973Y-3509D01*
X4979Y-3508D01*
X4979Y-3508D01*
X4980Y-3508D01*
X4982Y-3507D01*
X4984Y-3507D01*
X4987Y-3506D01*
X4990Y-3505D01*
X4994Y-3504D01*
X4998Y-3502D01*
X5002Y-3500D01*
X5006Y-3498D01*
X5011Y-3495D01*
X5016Y-3492D01*
X5020Y-3488D01*
X5025Y-3484D01*
X5030Y-3479D01*
X5034Y-3474D01*
X5037Y-3471D01*
X5038Y-3469D01*
X5040Y-3466D01*
X5041Y-3463D01*
X5043Y-3460D01*
X5045Y-3455D01*
X5049Y-3446D01*
X5050Y-3442D01*
X5052Y-3436D01*
X5053Y-3431D01*
X5053Y-3425D01*
X5054Y-3419D01*
X5053Y-3413D01*
X5053Y-3413D01*
X5053Y-3412D01*
X5053Y-3410D01*
X5052Y-3408D01*
X5052Y-3405D01*
X5050Y-3402D01*
X5049Y-3398D01*
X5048Y-3394D01*
X5046Y-3390D01*
X5043Y-3385D01*
X5041Y-3381D01*
X5038Y-3376D01*
X5034Y-3372D01*
X5030Y-3367D01*
X5025Y-3362D01*
X5020Y-3358D01*
X5020Y-3358D01*
X5019Y-3357D01*
X5017Y-3355D01*
X5015Y-3354D01*
X5012Y-3353D01*
X5009Y-3351D01*
X5005Y-3349D01*
X5001Y-3347D01*
X4992Y-3343D01*
X4987Y-3341D01*
X4981Y-3340D01*
X4976Y-3339D01*
X4970Y-3339D01*
X4964Y-3339D01*
D02*
G37*
G36*
X4727Y-3652D02*
X4722Y-3652D01*
X4717Y-3653D01*
X4711Y-3653D01*
X4706Y-3654D01*
X4700Y-3656D01*
X4694Y-3658D01*
X4687Y-3660D01*
X4681Y-3664D01*
X4676Y-3668D01*
X4670Y-3672D01*
X4665Y-3678D01*
X4664Y-3680D01*
X4663Y-3682D01*
X4661Y-3684D01*
X4660Y-3687D01*
X4658Y-3691D01*
X4656Y-3696D01*
X4654Y-3701D01*
X4653Y-3706D01*
X4651Y-3712D01*
X4651Y-3719D01*
X4651Y-3725D01*
X4651Y-3733D01*
X4653Y-3740D01*
X4655Y-3749D01*
X4658Y-3757D01*
X4658Y-3757D01*
X4659Y-3759D01*
X4660Y-3761D01*
X4662Y-3764D01*
X4664Y-3769D01*
X4667Y-3773D01*
X4671Y-3779D01*
X4675Y-3785D01*
X4680Y-3791D01*
X4686Y-3799D01*
X4693Y-3806D01*
X4700Y-3814D01*
X4708Y-3823D01*
X4717Y-3831D01*
X4727Y-3840D01*
X4738Y-3849D01*
X4738Y-3849D01*
X4738Y-3849D01*
X4739Y-3850D01*
X4740Y-3851D01*
X4742Y-3852D01*
X4744Y-3853D01*
X4748Y-3856D01*
X4753Y-3860D01*
X4760Y-3864D01*
X4767Y-3869D01*
X4774Y-3873D01*
X4783Y-3878D01*
X4791Y-3883D01*
X4800Y-3888D01*
X4810Y-3892D01*
X4819Y-3896D01*
X4829Y-3899D01*
X4838Y-3902D01*
X4847Y-3904D01*
X4848Y-3904D01*
X4849Y-3904D01*
X4852Y-3904D01*
X4855Y-3905D01*
X4859Y-3905D01*
X4864Y-3905D01*
X4869Y-3904D01*
X4875Y-3904D01*
X4881Y-3903D01*
X4887Y-3901D01*
X4893Y-3899D01*
X4899Y-3897D01*
X4905Y-3893D01*
X4911Y-3889D01*
X4916Y-3884D01*
X4922Y-3879D01*
X4923Y-3877D01*
X4924Y-3875D01*
X4925Y-3873D01*
X4927Y-3869D01*
X4929Y-3866D01*
X4930Y-3861D01*
X4932Y-3856D01*
X4933Y-3851D01*
X4935Y-3845D01*
X4935Y-3839D01*
X4935Y-3832D01*
X4934Y-3825D01*
X4933Y-3817D01*
X4931Y-3809D01*
X4928Y-3801D01*
X4928Y-3800D01*
X4927Y-3799D01*
X4926Y-3796D01*
X4924Y-3793D01*
X4922Y-3789D01*
X4918Y-3784D01*
X4915Y-3778D01*
X4911Y-3772D01*
X4906Y-3766D01*
X4900Y-3758D01*
X4893Y-3751D01*
X4886Y-3743D01*
X4878Y-3734D01*
X4869Y-3726D01*
X4858Y-3717D01*
X4848Y-3708D01*
X4847Y-3708D01*
X4847Y-3708D01*
X4846Y-3707D01*
X4845Y-3706D01*
X4842Y-3704D01*
X4837Y-3701D01*
X4832Y-3697D01*
X4826Y-3693D01*
X4819Y-3688D01*
X4811Y-3684D01*
X4803Y-3679D01*
X4794Y-3674D01*
X4785Y-3669D01*
X4776Y-3665D01*
X4767Y-3661D01*
X4757Y-3658D01*
X4748Y-3655D01*
X4739Y-3653D01*
X4738Y-3653D01*
X4737Y-3653D01*
X4734Y-3653D01*
X4731Y-3653D01*
X4727Y-3652D01*
D02*
G37*
G36*
X4476Y-3974D02*
X4471Y-3974D01*
X4466Y-3974D01*
X4460Y-3975D01*
X4455Y-3975D01*
X4449Y-3977D01*
X4443Y-3979D01*
X4436Y-3982D01*
X4430Y-3985D01*
X4424Y-3989D01*
X4419Y-3993D01*
X4414Y-3999D01*
X4413Y-4001D01*
X4412Y-4003D01*
X4410Y-4005D01*
X4408Y-4009D01*
X4407Y-4012D01*
X4405Y-4017D01*
X4403Y-4022D01*
X4402Y-4027D01*
X4400Y-4033D01*
X4400Y-4040D01*
X4400Y-4047D01*
X4400Y-4054D01*
X4402Y-4062D01*
X4404Y-4070D01*
X4407Y-4078D01*
X4407Y-4079D01*
X4408Y-4080D01*
X4409Y-4082D01*
X4411Y-4086D01*
X4413Y-4090D01*
X4416Y-4095D01*
X4420Y-4100D01*
X4424Y-4106D01*
X4429Y-4113D01*
X4435Y-4120D01*
X4442Y-4128D01*
X4449Y-4136D01*
X4457Y-4144D01*
X4466Y-4152D01*
X4476Y-4161D01*
X4487Y-4170D01*
X4487Y-4170D01*
X4487Y-4170D01*
X4488Y-4171D01*
X4489Y-4172D01*
X4491Y-4173D01*
X4493Y-4175D01*
X4497Y-4177D01*
X4502Y-4181D01*
X4508Y-4185D01*
X4516Y-4190D01*
X4523Y-4195D01*
X4532Y-4200D01*
X4540Y-4204D01*
X4549Y-4209D01*
X4559Y-4213D01*
X4568Y-4217D01*
X4578Y-4221D01*
X4587Y-4223D01*
X4596Y-4225D01*
X4597Y-4225D01*
X4598Y-4226D01*
X4601Y-4226D01*
X4604Y-4226D01*
X4608Y-4226D01*
X4613Y-4226D01*
X4618Y-4226D01*
X4624Y-4225D01*
X4629Y-4224D01*
X4636Y-4222D01*
X4642Y-4221D01*
X4648Y-4218D01*
X4654Y-4215D01*
X4660Y-4210D01*
X4665Y-4206D01*
X4671Y-4200D01*
X4672Y-4198D01*
X4673Y-4196D01*
X4674Y-4194D01*
X4676Y-4191D01*
X4678Y-4187D01*
X4679Y-4183D01*
X4681Y-4178D01*
X4682Y-4172D01*
X4684Y-4166D01*
X4684Y-4160D01*
X4684Y-4153D01*
X4683Y-4146D01*
X4682Y-4138D01*
X4680Y-4130D01*
X4677Y-4122D01*
X4677Y-4122D01*
X4676Y-4120D01*
X4675Y-4118D01*
X4673Y-4114D01*
X4671Y-4110D01*
X4667Y-4105D01*
X4664Y-4100D01*
X4660Y-4094D01*
X4655Y-4087D01*
X4649Y-4080D01*
X4642Y-4072D01*
X4635Y-4064D01*
X4627Y-4056D01*
X4618Y-4047D01*
X4607Y-4038D01*
X4597Y-4029D01*
X4596Y-4029D01*
X4596Y-4029D01*
X4595Y-4028D01*
X4594Y-4027D01*
X4591Y-4025D01*
X4586Y-4022D01*
X4581Y-4018D01*
X4575Y-4014D01*
X4568Y-4009D01*
X4560Y-4005D01*
X4552Y-4000D01*
X4543Y-3995D01*
X4534Y-3991D01*
X4525Y-3986D01*
X4516Y-3982D01*
X4506Y-3979D01*
X4497Y-3977D01*
X4488Y-3975D01*
X4487Y-3975D01*
X4486Y-3974D01*
X4483Y-3974D01*
X4480Y-3974D01*
X4476Y-3974D01*
D02*
G37*
G36*
X4233Y-4302D02*
X4232Y-4304D01*
X4301Y-4531D01*
X4386Y-4422D01*
X4233Y-4302D01*
D02*
G37*
G36*
X4242Y4444D02*
X4240Y4444D01*
X4235Y4444D01*
X4229Y4442D01*
X4223Y4440D01*
X4216Y4437D01*
X4213Y4435D01*
X4210Y4433D01*
X4209Y4433D01*
X4209Y4432D01*
X4208Y4431D01*
X4207Y4430D01*
X4205Y4429D01*
X4204Y4427D01*
X4200Y4423D01*
X4197Y4418D01*
X4194Y4413D01*
X4193Y4410D01*
X4191Y4406D01*
X4191Y4403D01*
X4190Y4399D01*
X4190Y4399D01*
X4190Y4399D01*
X4190Y4397D01*
X4190Y4396D01*
X4190Y4394D01*
X4190Y4392D01*
X4191Y4390D01*
X4191Y4387D01*
X4192Y4384D01*
X4193Y4381D01*
X4194Y4377D01*
X4196Y4374D01*
X4197Y4370D01*
X4200Y4366D01*
X4202Y4362D01*
X4205Y4358D01*
X4240Y4313D01*
X4317Y4374D01*
X4281Y4421D01*
X4280Y4422D01*
X4278Y4424D01*
X4276Y4425D01*
X4274Y4427D01*
X4272Y4430D01*
X4266Y4434D01*
X4260Y4438D01*
X4254Y4441D01*
X4250Y4443D01*
X4247Y4443D01*
X4246Y4444D01*
X4246Y4444D01*
X4245Y4444D01*
X4243Y4444D01*
X4242Y4444D01*
D02*
G37*
G36*
X4537Y4294D02*
X4532Y4294D01*
X4526Y4293D01*
X4520Y4291D01*
X4513Y4288D01*
X4510Y4286D01*
X4506Y4284D01*
X4506Y4283D01*
X4505Y4283D01*
X4505Y4282D01*
X4503Y4281D01*
X4502Y4280D01*
X4501Y4278D01*
X4497Y4274D01*
X4494Y4269D01*
X4491Y4263D01*
X4490Y4260D01*
X4489Y4257D01*
X4488Y4253D01*
X4488Y4249D01*
X4488Y4249D01*
X4488Y4248D01*
X4488Y4247D01*
X4488Y4246D01*
X4488Y4244D01*
X4489Y4242D01*
X4489Y4239D01*
X4490Y4237D01*
X4491Y4234D01*
X4492Y4230D01*
X4493Y4227D01*
X4495Y4223D01*
X4497Y4219D01*
X4500Y4215D01*
X4502Y4210D01*
X4550Y4149D01*
X4626Y4208D01*
X4578Y4270D01*
X4577Y4271D01*
X4575Y4273D01*
X4573Y4274D01*
X4571Y4277D01*
X4569Y4279D01*
X4564Y4283D01*
X4557Y4287D01*
X4551Y4291D01*
X4547Y4292D01*
X4544Y4293D01*
X4543Y4293D01*
X4543Y4293D01*
X4542Y4293D01*
X4540Y4294D01*
X4539Y4294D01*
X4537Y4294D01*
D02*
G37*
G36*
X4427Y4189D02*
X4423Y4188D01*
X4418Y4187D01*
X4412Y4186D01*
X4406Y4183D01*
X4403Y4181D01*
X4399Y4179D01*
X4399Y4178D01*
X4399Y4178D01*
X4398Y4177D01*
X4397Y4176D01*
X4396Y4175D01*
X4394Y4174D01*
X4391Y4170D01*
X4388Y4166D01*
X4386Y4161D01*
X4385Y4158D01*
X4384Y4155D01*
X4383Y4152D01*
X4383Y4148D01*
X4383Y4148D01*
X4383Y4148D01*
X4383Y4147D01*
X4383Y4146D01*
X4383Y4144D01*
X4383Y4142D01*
X4384Y4140D01*
X4384Y4138D01*
X4386Y4132D01*
X4388Y4126D01*
X4392Y4120D01*
X4396Y4113D01*
X4437Y4061D01*
X4506Y4114D01*
X4465Y4167D01*
X4463Y4168D01*
X4462Y4170D01*
X4461Y4171D01*
X4456Y4175D01*
X4451Y4179D01*
X4446Y4183D01*
X4440Y4186D01*
X4437Y4187D01*
X4434Y4188D01*
X4433Y4188D01*
X4433Y4188D01*
X4430Y4188D01*
X4427Y4189D01*
D02*
G37*
G36*
X4849Y3667D02*
X4847Y3667D01*
X4842Y3666D01*
X4836Y3665D01*
X4830Y3663D01*
X4823Y3660D01*
X4820Y3658D01*
X4817Y3656D01*
X4817Y3656D01*
X4816Y3655D01*
X4815Y3654D01*
X4814Y3653D01*
X4813Y3652D01*
X4811Y3650D01*
X4808Y3646D01*
X4804Y3641D01*
X4801Y3636D01*
X4800Y3633D01*
X4799Y3629D01*
X4798Y3626D01*
X4797Y3622D01*
X4797Y3622D01*
X4797Y3621D01*
X4797Y3620D01*
X4797Y3619D01*
X4797Y3617D01*
X4797Y3615D01*
X4798Y3612D01*
X4798Y3610D01*
X4799Y3607D01*
X4800Y3604D01*
X4801Y3600D01*
X4803Y3597D01*
X4805Y3593D01*
X4807Y3589D01*
X4809Y3585D01*
X4812Y3581D01*
X4847Y3536D01*
X4925Y3597D01*
X4888Y3643D01*
X4887Y3645D01*
X4885Y3647D01*
X4883Y3648D01*
X4881Y3650D01*
X4879Y3652D01*
X4873Y3657D01*
X4867Y3661D01*
X4861Y3664D01*
X4857Y3666D01*
X4854Y3666D01*
X4853Y3666D01*
X4853Y3666D01*
X4852Y3667D01*
X4851Y3667D01*
X4849Y3667D01*
D02*
G37*
G36*
X5150Y3321D02*
X5148Y3321D01*
X5145Y3320D01*
X5142Y3320D01*
X5138Y3319D01*
X5135Y3319D01*
X5131Y3317D01*
X5127Y3316D01*
X5123Y3314D01*
X5119Y3312D01*
X5114Y3309D01*
X5110Y3307D01*
X5110Y3306D01*
X5110Y3306D01*
X5108Y3305D01*
X5107Y3303D01*
X5105Y3302D01*
X5103Y3300D01*
X5101Y3298D01*
X5099Y3295D01*
X5095Y3289D01*
X5093Y3286D01*
X5091Y3282D01*
X5089Y3278D01*
X5088Y3274D01*
X5087Y3270D01*
X5086Y3265D01*
X5086Y3265D01*
X5086Y3264D01*
X5085Y3263D01*
X5085Y3261D01*
X5085Y3259D01*
X5086Y3256D01*
X5086Y3253D01*
X5086Y3250D01*
X5087Y3247D01*
X5088Y3243D01*
X5089Y3239D01*
X5090Y3236D01*
X5092Y3231D01*
X5094Y3227D01*
X5097Y3223D01*
X5100Y3219D01*
X5101Y3217D01*
X5103Y3215D01*
X5104Y3214D01*
X5106Y3212D01*
X5109Y3210D01*
X5111Y3208D01*
X5117Y3203D01*
X5121Y3201D01*
X5124Y3199D01*
X5128Y3197D01*
X5133Y3196D01*
X5137Y3195D01*
X5141Y3194D01*
X5142Y3194D01*
X5142Y3194D01*
X5143Y3194D01*
X5145Y3194D01*
X5147Y3194D01*
X5150Y3194D01*
X5153Y3194D01*
X5156Y3194D01*
X5159Y3195D01*
X5163Y3196D01*
X5167Y3197D01*
X5171Y3198D01*
X5175Y3200D01*
X5179Y3203D01*
X5183Y3205D01*
X5187Y3208D01*
X5188Y3208D01*
X5188Y3209D01*
X5189Y3210D01*
X5191Y3211D01*
X5192Y3213D01*
X5194Y3215D01*
X5196Y3217D01*
X5198Y3220D01*
X5203Y3225D01*
X5205Y3229D01*
X5207Y3233D01*
X5209Y3236D01*
X5210Y3241D01*
X5211Y3245D01*
X5212Y3249D01*
X5212Y3250D01*
X5212Y3250D01*
X5212Y3252D01*
X5212Y3253D01*
X5212Y3256D01*
X5212Y3258D01*
X5212Y3261D01*
X5211Y3264D01*
X5211Y3268D01*
X5210Y3271D01*
X5209Y3275D01*
X5207Y3279D01*
X5205Y3283D01*
X5203Y3287D01*
X5200Y3292D01*
X5197Y3296D01*
X5196Y3298D01*
X5194Y3299D01*
X5193Y3301D01*
X5191Y3303D01*
X5189Y3305D01*
X5186Y3307D01*
X5180Y3311D01*
X5177Y3313D01*
X5173Y3315D01*
X5169Y3317D01*
X5165Y3319D01*
X5161Y3320D01*
X5157Y3321D01*
X5156Y3321D01*
X5156Y3321D01*
X5154Y3321D01*
X5153Y3321D01*
X5150Y3321D01*
D02*
G37*
G36*
X5393Y3135D02*
X5278Y3045D01*
X5279Y3044D01*
X5457Y3053D01*
X5393Y3135D01*
D02*
G37*
G36*
X5606Y2933D02*
X5600Y2933D01*
X5593Y2932D01*
X5593Y2932D01*
X5591Y2932D01*
X5589Y2931D01*
X5587Y2931D01*
X5583Y2930D01*
X5579Y2928D01*
X5574Y2927D01*
X5569Y2925D01*
X5563Y2922D01*
X5557Y2920D01*
X5550Y2916D01*
X5543Y2912D01*
X5536Y2908D01*
X5528Y2903D01*
X5520Y2897D01*
X5511Y2891D01*
X5511Y2890D01*
X5511Y2890D01*
X5510Y2890D01*
X5509Y2889D01*
X5507Y2887D01*
X5504Y2885D01*
X5500Y2881D01*
X5496Y2878D01*
X5492Y2874D01*
X5487Y2869D01*
X5482Y2864D01*
X5477Y2858D01*
X5472Y2852D01*
X5467Y2847D01*
X5462Y2840D01*
X5458Y2834D01*
X5455Y2828D01*
X5452Y2822D01*
X5452Y2821D01*
X5451Y2820D01*
X5450Y2818D01*
X5450Y2816D01*
X5449Y2813D01*
X5448Y2810D01*
X5447Y2806D01*
X5447Y2802D01*
X5446Y2797D01*
X5447Y2793D01*
X5447Y2788D01*
X5447Y2783D01*
X5449Y2778D01*
X5451Y2773D01*
X5453Y2768D01*
X5456Y2763D01*
X5457Y2762D01*
X5458Y2761D01*
X5460Y2760D01*
X5462Y2758D01*
X5464Y2756D01*
X5467Y2754D01*
X5471Y2751D01*
X5475Y2750D01*
X5479Y2747D01*
X5483Y2746D01*
X5488Y2745D01*
X5494Y2744D01*
X5499Y2743D01*
X5506Y2743D01*
X5512Y2744D01*
X5513Y2744D01*
X5514Y2744D01*
X5516Y2745D01*
X5518Y2745D01*
X5522Y2746D01*
X5526Y2748D01*
X5531Y2749D01*
X5536Y2751D01*
X5541Y2754D01*
X5548Y2757D01*
X5554Y2760D01*
X5562Y2764D01*
X5569Y2768D01*
X5577Y2773D01*
X5585Y2779D01*
X5593Y2785D01*
X5594Y2786D01*
X5594Y2786D01*
X5595Y2786D01*
X5595Y2787D01*
X5596Y2788D01*
X5598Y2789D01*
X5601Y2791D01*
X5604Y2795D01*
X5609Y2798D01*
X5613Y2803D01*
X5618Y2807D01*
X5623Y2813D01*
X5628Y2818D01*
X5633Y2824D01*
X5638Y2830D01*
X5643Y2836D01*
X5647Y2842D01*
X5650Y2849D01*
X5653Y2855D01*
X5654Y2855D01*
X5654Y2856D01*
X5655Y2858D01*
X5655Y2861D01*
X5656Y2863D01*
X5657Y2867D01*
X5658Y2871D01*
X5658Y2875D01*
X5659Y2879D01*
X5658Y2884D01*
X5658Y2889D01*
X5657Y2894D01*
X5656Y2899D01*
X5654Y2904D01*
X5652Y2909D01*
X5648Y2913D01*
X5648Y2915D01*
X5646Y2916D01*
X5645Y2917D01*
X5643Y2919D01*
X5640Y2921D01*
X5638Y2923D01*
X5634Y2925D01*
X5631Y2927D01*
X5626Y2929D01*
X5622Y2930D01*
X5617Y2932D01*
X5612Y2933D01*
X5606Y2933D01*
D02*
G37*
G36*
X-4973Y-2651D02*
X-5021D01*
Y-2871D01*
X-4970D01*
X-4968Y-2871D01*
X-4965Y-2871D01*
X-4962Y-2870D01*
X-4959Y-2870D01*
X-4955Y-2870D01*
X-4951Y-2869D01*
X-4946Y-2868D01*
X-4938Y-2866D01*
X-4933Y-2864D01*
X-4928Y-2862D01*
X-4924Y-2861D01*
X-4919Y-2858D01*
X-4919Y-2858D01*
X-4918Y-2858D01*
X-4917Y-2857D01*
X-4915Y-2856D01*
X-4913Y-2855D01*
X-4911Y-2853D01*
X-4908Y-2851D01*
X-4906Y-2849D01*
X-4903Y-2846D01*
X-4900Y-2844D01*
X-4897Y-2841D01*
X-4894Y-2837D01*
X-4891Y-2833D01*
X-4888Y-2830D01*
X-4885Y-2825D01*
X-4882Y-2821D01*
X-4882Y-2821D01*
X-4882Y-2820D01*
X-4881Y-2818D01*
X-4880Y-2817D01*
X-4879Y-2814D01*
X-4878Y-2811D01*
X-4877Y-2808D01*
X-4875Y-2804D01*
X-4874Y-2800D01*
X-4873Y-2795D01*
X-4872Y-2791D01*
X-4871Y-2785D01*
X-4870Y-2780D01*
X-4869Y-2774D01*
X-4869Y-2767D01*
X-4869Y-2761D01*
Y-2760D01*
Y-2759D01*
Y-2758D01*
X-4869Y-2755D01*
X-4869Y-2752D01*
X-4869Y-2749D01*
X-4870Y-2745D01*
X-4870Y-2740D01*
X-4871Y-2736D01*
X-4872Y-2731D01*
X-4874Y-2721D01*
X-4876Y-2716D01*
X-4878Y-2711D01*
X-4880Y-2706D01*
X-4882Y-2701D01*
X-4882Y-2701D01*
X-4883Y-2700D01*
X-4883Y-2699D01*
X-4885Y-2697D01*
X-4886Y-2695D01*
X-4888Y-2693D01*
X-4890Y-2690D01*
X-4892Y-2687D01*
X-4894Y-2684D01*
X-4897Y-2681D01*
X-4900Y-2678D01*
X-4903Y-2675D01*
X-4911Y-2669D01*
X-4915Y-2666D01*
X-4919Y-2664D01*
X-4919Y-2663D01*
X-4920Y-2663D01*
X-4921Y-2662D01*
X-4923Y-2662D01*
X-4926Y-2661D01*
X-4928Y-2660D01*
X-4931Y-2658D01*
X-4935Y-2657D01*
X-4939Y-2656D01*
X-4943Y-2655D01*
X-4947Y-2654D01*
X-4952Y-2653D01*
X-4957Y-2652D01*
X-4962Y-2651D01*
X-4967Y-2651D01*
X-4973Y-2651D01*
D02*
G37*
G36*
X-2880Y-3838D02*
X-2882D01*
X-2883Y-3838D01*
X-2885Y-3838D01*
X-2887Y-3838D01*
X-2890Y-3839D01*
X-2893Y-3840D01*
X-2896Y-3841D01*
X-2899Y-3842D01*
X-2903Y-3844D01*
X-2906Y-3846D01*
X-2910Y-3849D01*
X-2913Y-3852D01*
X-2917Y-3856D01*
X-2920Y-3860D01*
X-2923Y-3865D01*
X-2923Y-3865D01*
X-2923Y-3866D01*
X-2924Y-3868D01*
X-2925Y-3870D01*
X-2926Y-3873D01*
X-2927Y-3876D01*
X-2929Y-3880D01*
X-2930Y-3884D01*
X-2931Y-3890D01*
X-2933Y-3895D01*
X-2934Y-3902D01*
X-2935Y-3909D01*
X-2936Y-3916D01*
X-2937Y-3924D01*
X-2937Y-3932D01*
X-2938Y-3941D01*
Y-3941D01*
Y-3942D01*
Y-3942D01*
Y-3943D01*
Y-3944D01*
Y-3946D01*
X-2937Y-3949D01*
X-2937Y-3953D01*
X-2937Y-3958D01*
X-2936Y-3964D01*
X-2936Y-3969D01*
X-2935Y-3975D01*
X-2934Y-3981D01*
X-2933Y-3988D01*
X-2931Y-3994D01*
X-2930Y-4001D01*
X-2927Y-4007D01*
X-2925Y-4012D01*
X-2923Y-4018D01*
X-2922Y-4018D01*
X-2922Y-4019D01*
X-2921Y-4020D01*
X-2920Y-4022D01*
X-2918Y-4024D01*
X-2916Y-4027D01*
X-2914Y-4029D01*
X-2912Y-4032D01*
X-2909Y-4034D01*
X-2906Y-4036D01*
X-2902Y-4039D01*
X-2898Y-4041D01*
X-2894Y-4043D01*
X-2890Y-4044D01*
X-2885Y-4045D01*
X-2880Y-4045D01*
X-2879D01*
X-2878Y-4045D01*
X-2876Y-4045D01*
X-2874Y-4044D01*
X-2871Y-4044D01*
X-2868Y-4043D01*
X-2865Y-4042D01*
X-2862Y-4040D01*
X-2859Y-4039D01*
X-2855Y-4036D01*
X-2852Y-4034D01*
X-2848Y-4031D01*
X-2845Y-4027D01*
X-2842Y-4023D01*
X-2839Y-4018D01*
X-2839Y-4018D01*
X-2838Y-4017D01*
X-2838Y-4015D01*
X-2837Y-4013D01*
X-2835Y-4010D01*
X-2834Y-4006D01*
X-2833Y-4002D01*
X-2831Y-3998D01*
X-2830Y-3993D01*
X-2829Y-3987D01*
X-2827Y-3981D01*
X-2826Y-3974D01*
X-2825Y-3967D01*
X-2825Y-3959D01*
X-2824Y-3950D01*
X-2824Y-3941D01*
Y-3941D01*
Y-3941D01*
Y-3940D01*
Y-3939D01*
Y-3936D01*
X-2824Y-3933D01*
X-2824Y-3929D01*
X-2825Y-3924D01*
X-2825Y-3919D01*
X-2826Y-3913D01*
X-2826Y-3907D01*
X-2828Y-3901D01*
X-2829Y-3895D01*
X-2830Y-3888D01*
X-2832Y-3882D01*
X-2834Y-3876D01*
X-2836Y-3870D01*
X-2839Y-3865D01*
X-2839Y-3865D01*
X-2840Y-3864D01*
X-2841Y-3862D01*
X-2842Y-3861D01*
X-2843Y-3859D01*
X-2845Y-3856D01*
X-2847Y-3854D01*
X-2850Y-3851D01*
X-2852Y-3849D01*
X-2856Y-3846D01*
X-2859Y-3844D01*
X-2863Y-3842D01*
X-2867Y-3840D01*
X-2871Y-3839D01*
X-2876Y-3838D01*
X-2880Y-3838D01*
D02*
G37*
G36*
X-4973Y2862D02*
X-5021D01*
Y2641D01*
X-4970D01*
X-4968Y2642D01*
X-4965Y2642D01*
X-4962Y2642D01*
X-4959Y2642D01*
X-4955Y2643D01*
X-4951Y2644D01*
X-4946Y2645D01*
X-4938Y2647D01*
X-4933Y2648D01*
X-4928Y2650D01*
X-4924Y2652D01*
X-4919Y2654D01*
X-4919Y2654D01*
X-4918Y2655D01*
X-4917Y2655D01*
X-4915Y2657D01*
X-4913Y2658D01*
X-4911Y2660D01*
X-4908Y2662D01*
X-4906Y2664D01*
X-4903Y2666D01*
X-4900Y2669D01*
X-4897Y2672D01*
X-4894Y2676D01*
X-4891Y2679D01*
X-4888Y2683D01*
X-4885Y2687D01*
X-4882Y2692D01*
X-4882Y2692D01*
X-4882Y2693D01*
X-4881Y2694D01*
X-4880Y2696D01*
X-4879Y2699D01*
X-4878Y2701D01*
X-4877Y2705D01*
X-4875Y2709D01*
X-4874Y2713D01*
X-4873Y2717D01*
X-4872Y2722D01*
X-4871Y2727D01*
X-4870Y2733D01*
X-4869Y2739D01*
X-4869Y2745D01*
X-4869Y2752D01*
Y2752D01*
Y2753D01*
Y2755D01*
X-4869Y2757D01*
X-4869Y2761D01*
X-4869Y2764D01*
X-4870Y2768D01*
X-4870Y2772D01*
X-4871Y2777D01*
X-4872Y2782D01*
X-4874Y2792D01*
X-4876Y2797D01*
X-4878Y2802D01*
X-4880Y2807D01*
X-4882Y2812D01*
X-4882Y2812D01*
X-4883Y2813D01*
X-4883Y2814D01*
X-4885Y2816D01*
X-4886Y2818D01*
X-4888Y2820D01*
X-4890Y2823D01*
X-4892Y2826D01*
X-4894Y2828D01*
X-4897Y2832D01*
X-4900Y2835D01*
X-4903Y2838D01*
X-4911Y2844D01*
X-4915Y2846D01*
X-4919Y2849D01*
X-4919Y2849D01*
X-4920Y2850D01*
X-4921Y2850D01*
X-4923Y2851D01*
X-4926Y2852D01*
X-4928Y2853D01*
X-4931Y2854D01*
X-4935Y2855D01*
X-4939Y2857D01*
X-4943Y2858D01*
X-4947Y2859D01*
X-4952Y2860D01*
X-4957Y2860D01*
X-4962Y2861D01*
X-4967Y2862D01*
X-4973Y2862D01*
D02*
G37*
G36*
X-5297D02*
X-5346D01*
Y2641D01*
X-5294D01*
X-5292Y2642D01*
X-5290Y2642D01*
X-5286Y2642D01*
X-5283Y2642D01*
X-5279Y2643D01*
X-5275Y2644D01*
X-5271Y2645D01*
X-5262Y2647D01*
X-5257Y2648D01*
X-5252Y2650D01*
X-5248Y2652D01*
X-5244Y2654D01*
X-5243Y2654D01*
X-5243Y2655D01*
X-5241Y2655D01*
X-5240Y2657D01*
X-5238Y2658D01*
X-5235Y2660D01*
X-5233Y2662D01*
X-5230Y2664D01*
X-5227Y2666D01*
X-5224Y2669D01*
X-5221Y2672D01*
X-5218Y2676D01*
X-5215Y2679D01*
X-5212Y2683D01*
X-5209Y2687D01*
X-5207Y2692D01*
X-5206Y2692D01*
X-5206Y2693D01*
X-5205Y2694D01*
X-5205Y2696D01*
X-5203Y2699D01*
X-5202Y2701D01*
X-5201Y2705D01*
X-5200Y2709D01*
X-5199Y2713D01*
X-5197Y2717D01*
X-5196Y2722D01*
X-5195Y2727D01*
X-5194Y2733D01*
X-5194Y2739D01*
X-5193Y2745D01*
X-5193Y2752D01*
Y2752D01*
Y2753D01*
Y2755D01*
X-5193Y2757D01*
X-5194Y2761D01*
X-5194Y2764D01*
X-5194Y2768D01*
X-5195Y2772D01*
X-5195Y2777D01*
X-5196Y2782D01*
X-5199Y2792D01*
X-5200Y2797D01*
X-5202Y2802D01*
X-5204Y2807D01*
X-5207Y2812D01*
X-5207Y2812D01*
X-5207Y2813D01*
X-5208Y2814D01*
X-5209Y2816D01*
X-5210Y2818D01*
X-5212Y2820D01*
X-5214Y2823D01*
X-5216Y2826D01*
X-5219Y2828D01*
X-5222Y2832D01*
X-5225Y2835D01*
X-5228Y2838D01*
X-5235Y2844D01*
X-5239Y2846D01*
X-5244Y2849D01*
X-5244Y2849D01*
X-5245Y2850D01*
X-5246Y2850D01*
X-5248Y2851D01*
X-5250Y2852D01*
X-5252Y2853D01*
X-5256Y2854D01*
X-5259Y2855D01*
X-5263Y2857D01*
X-5267Y2858D01*
X-5271Y2859D01*
X-5276Y2860D01*
X-5281Y2860D01*
X-5286Y2861D01*
X-5292Y2862D01*
X-5297Y2862D01*
D02*
G37*
G36*
X-2629Y3D02*
X-2632D01*
X-2633Y3D01*
X-2636Y2D01*
X-2638Y2D01*
X-2640Y2D01*
X-2643Y1D01*
X-2649Y-1D01*
X-2653Y-2D01*
X-2656Y-3D01*
X-2659Y-5D01*
X-2662Y-7D01*
X-2666Y-10D01*
X-2669Y-12D01*
X-2669Y-12D01*
X-2669Y-13D01*
X-2670Y-14D01*
X-2671Y-15D01*
X-2672Y-16D01*
X-2673Y-18D01*
X-2675Y-20D01*
X-2676Y-23D01*
X-2677Y-25D01*
X-2679Y-28D01*
X-2680Y-32D01*
X-2681Y-35D01*
X-2682Y-39D01*
X-2683Y-43D01*
X-2683Y-47D01*
X-2683Y-52D01*
Y-52D01*
Y-53D01*
Y-54D01*
X-2683Y-56D01*
X-2683Y-58D01*
X-2683Y-60D01*
X-2682Y-63D01*
X-2682Y-66D01*
X-2680Y-72D01*
X-2678Y-75D01*
X-2677Y-79D01*
X-2675Y-82D01*
X-2674Y-85D01*
X-2671Y-88D01*
X-2669Y-91D01*
X-2668Y-92D01*
X-2668Y-92D01*
X-2667Y-93D01*
X-2666Y-94D01*
X-2664Y-95D01*
X-2662Y-96D01*
X-2660Y-97D01*
X-2658Y-99D01*
X-2655Y-100D01*
X-2652Y-101D01*
X-2649Y-103D01*
X-2645Y-104D01*
X-2642Y-105D01*
X-2638Y-105D01*
X-2633Y-106D01*
X-2629Y-106D01*
X-2627D01*
X-2625Y-106D01*
X-2623Y-106D01*
X-2620Y-105D01*
X-2618Y-105D01*
X-2615Y-104D01*
X-2609Y-103D01*
X-2605Y-101D01*
X-2602Y-100D01*
X-2599Y-98D01*
X-2596Y-96D01*
X-2593Y-94D01*
X-2590Y-91D01*
X-2590Y-91D01*
X-2589Y-91D01*
X-2588Y-90D01*
X-2587Y-88D01*
X-2586Y-87D01*
X-2585Y-85D01*
X-2584Y-83D01*
X-2582Y-81D01*
X-2581Y-78D01*
X-2580Y-75D01*
X-2578Y-72D01*
X-2577Y-68D01*
X-2576Y-64D01*
X-2576Y-60D01*
X-2575Y-56D01*
X-2575Y-52D01*
Y-51D01*
Y-50D01*
Y-49D01*
X-2575Y-48D01*
X-2575Y-45D01*
X-2576Y-43D01*
X-2576Y-40D01*
X-2577Y-37D01*
X-2578Y-31D01*
X-2580Y-28D01*
X-2581Y-25D01*
X-2583Y-21D01*
X-2585Y-18D01*
X-2587Y-15D01*
X-2590Y-12D01*
X-2590Y-12D01*
X-2590Y-12D01*
X-2591Y-11D01*
X-2592Y-10D01*
X-2594Y-9D01*
X-2596Y-8D01*
X-2598Y-6D01*
X-2600Y-5D01*
X-2603Y-3D01*
X-2606Y-2D01*
X-2609Y-1D01*
X-2613Y1D01*
X-2616Y1D01*
X-2621Y2D01*
X-2625Y3D01*
X-2629Y3D01*
D02*
G37*
G36*
X-2880Y102D02*
X-2882D01*
X-2883Y102D01*
X-2885Y102D01*
X-2887Y102D01*
X-2890Y101D01*
X-2893Y100D01*
X-2896Y99D01*
X-2899Y98D01*
X-2903Y96D01*
X-2906Y94D01*
X-2910Y91D01*
X-2913Y88D01*
X-2917Y84D01*
X-2920Y80D01*
X-2923Y75D01*
X-2923Y75D01*
X-2923Y74D01*
X-2924Y72D01*
X-2925Y70D01*
X-2926Y67D01*
X-2927Y64D01*
X-2929Y60D01*
X-2930Y56D01*
X-2931Y50D01*
X-2933Y45D01*
X-2934Y38D01*
X-2935Y31D01*
X-2936Y24D01*
X-2937Y16D01*
X-2937Y8D01*
X-2938Y-1D01*
Y-1D01*
Y-2D01*
Y-2D01*
Y-3D01*
Y-4D01*
Y-6D01*
X-2937Y-9D01*
X-2937Y-13D01*
X-2937Y-18D01*
X-2936Y-24D01*
X-2936Y-29D01*
X-2935Y-35D01*
X-2934Y-41D01*
X-2933Y-48D01*
X-2931Y-54D01*
X-2930Y-61D01*
X-2927Y-67D01*
X-2925Y-72D01*
X-2923Y-78D01*
X-2922Y-78D01*
X-2922Y-79D01*
X-2921Y-80D01*
X-2920Y-82D01*
X-2918Y-84D01*
X-2916Y-87D01*
X-2914Y-89D01*
X-2912Y-92D01*
X-2909Y-94D01*
X-2906Y-96D01*
X-2902Y-99D01*
X-2898Y-101D01*
X-2894Y-103D01*
X-2890Y-104D01*
X-2885Y-105D01*
X-2880Y-105D01*
X-2879D01*
X-2878Y-105D01*
X-2876Y-105D01*
X-2874Y-104D01*
X-2871Y-104D01*
X-2868Y-103D01*
X-2865Y-102D01*
X-2862Y-100D01*
X-2859Y-99D01*
X-2855Y-96D01*
X-2852Y-94D01*
X-2848Y-91D01*
X-2845Y-87D01*
X-2842Y-83D01*
X-2839Y-78D01*
X-2839Y-78D01*
X-2838Y-77D01*
X-2838Y-75D01*
X-2837Y-73D01*
X-2835Y-70D01*
X-2834Y-66D01*
X-2833Y-62D01*
X-2831Y-58D01*
X-2830Y-53D01*
X-2829Y-47D01*
X-2827Y-41D01*
X-2826Y-34D01*
X-2825Y-27D01*
X-2825Y-19D01*
X-2824Y-10D01*
X-2824Y-1D01*
Y-1D01*
Y-1D01*
Y0D01*
Y1D01*
Y4D01*
X-2824Y7D01*
X-2824Y11D01*
X-2825Y16D01*
X-2825Y21D01*
X-2826Y27D01*
X-2826Y33D01*
X-2828Y39D01*
X-2829Y45D01*
X-2830Y52D01*
X-2832Y58D01*
X-2834Y64D01*
X-2836Y70D01*
X-2839Y75D01*
X-2839Y75D01*
X-2840Y76D01*
X-2841Y78D01*
X-2842Y79D01*
X-2843Y81D01*
X-2845Y84D01*
X-2847Y86D01*
X-2850Y89D01*
X-2852Y91D01*
X-2856Y94D01*
X-2859Y96D01*
X-2863Y98D01*
X-2867Y100D01*
X-2871Y101D01*
X-2876Y102D01*
X-2880Y102D01*
D02*
G37*
G36*
X-2977Y-2258D02*
X-2978D01*
X-2980Y-2258D01*
X-2982Y-2258D01*
X-2984Y-2258D01*
X-2987Y-2259D01*
X-2990Y-2260D01*
X-2993Y-2261D01*
X-2996Y-2262D01*
X-3000Y-2264D01*
X-3003Y-2266D01*
X-3007Y-2269D01*
X-3010Y-2272D01*
X-3013Y-2276D01*
X-3017Y-2280D01*
X-3020Y-2285D01*
X-3020Y-2285D01*
X-3020Y-2286D01*
X-3021Y-2288D01*
X-3022Y-2290D01*
X-3023Y-2293D01*
X-3024Y-2296D01*
X-3026Y-2300D01*
X-3027Y-2304D01*
X-3028Y-2310D01*
X-3030Y-2315D01*
X-3031Y-2322D01*
X-3032Y-2329D01*
X-3033Y-2336D01*
X-3034Y-2344D01*
X-3034Y-2352D01*
X-3034Y-2361D01*
Y-2361D01*
Y-2362D01*
Y-2362D01*
Y-2363D01*
Y-2364D01*
Y-2366D01*
X-3034Y-2369D01*
X-3034Y-2373D01*
X-3034Y-2378D01*
X-3033Y-2384D01*
X-3032Y-2389D01*
X-3032Y-2395D01*
X-3031Y-2401D01*
X-3029Y-2408D01*
X-3028Y-2414D01*
X-3026Y-2421D01*
X-3024Y-2427D01*
X-3022Y-2432D01*
X-3019Y-2438D01*
X-3019Y-2438D01*
X-3019Y-2439D01*
X-3018Y-2440D01*
X-3016Y-2442D01*
X-3015Y-2444D01*
X-3013Y-2447D01*
X-3011Y-2449D01*
X-3008Y-2452D01*
X-3006Y-2454D01*
X-3002Y-2456D01*
X-2999Y-2459D01*
X-2995Y-2461D01*
X-2991Y-2463D01*
X-2987Y-2464D01*
X-2982Y-2465D01*
X-2977Y-2465D01*
X-2976D01*
X-2975Y-2465D01*
X-2973Y-2465D01*
X-2971Y-2464D01*
X-2968Y-2464D01*
X-2965Y-2463D01*
X-2962Y-2462D01*
X-2959Y-2460D01*
X-2955Y-2459D01*
X-2952Y-2456D01*
X-2948Y-2454D01*
X-2945Y-2451D01*
X-2942Y-2447D01*
X-2939Y-2443D01*
X-2936Y-2438D01*
X-2935Y-2438D01*
X-2935Y-2437D01*
X-2934Y-2435D01*
X-2933Y-2433D01*
X-2932Y-2430D01*
X-2931Y-2427D01*
X-2930Y-2422D01*
X-2928Y-2418D01*
X-2927Y-2413D01*
X-2925Y-2407D01*
X-2924Y-2401D01*
X-2923Y-2394D01*
X-2922Y-2387D01*
X-2921Y-2379D01*
X-2921Y-2370D01*
X-2921Y-2361D01*
Y-2361D01*
Y-2361D01*
Y-2360D01*
Y-2359D01*
Y-2356D01*
X-2921Y-2353D01*
X-2921Y-2349D01*
X-2921Y-2344D01*
X-2922Y-2339D01*
X-2923Y-2333D01*
X-2923Y-2327D01*
X-2924Y-2321D01*
X-2926Y-2315D01*
X-2927Y-2308D01*
X-2929Y-2302D01*
X-2931Y-2296D01*
X-2933Y-2290D01*
X-2936Y-2285D01*
X-2936Y-2285D01*
X-2936Y-2284D01*
X-2937Y-2282D01*
X-2939Y-2281D01*
X-2940Y-2279D01*
X-2942Y-2276D01*
X-2944Y-2274D01*
X-2947Y-2271D01*
X-2949Y-2269D01*
X-2952Y-2266D01*
X-2956Y-2264D01*
X-2960Y-2262D01*
X-2964Y-2260D01*
X-2968Y-2259D01*
X-2972Y-2258D01*
X-2977Y-2258D01*
D02*
G37*
G36*
Y-3048D02*
X-2978D01*
X-2980Y-3048D01*
X-2982Y-3048D01*
X-2984Y-3048D01*
X-2987Y-3049D01*
X-2990Y-3050D01*
X-2993Y-3051D01*
X-2996Y-3052D01*
X-3000Y-3054D01*
X-3003Y-3056D01*
X-3007Y-3059D01*
X-3010Y-3062D01*
X-3013Y-3066D01*
X-3017Y-3070D01*
X-3020Y-3075D01*
X-3020Y-3075D01*
X-3020Y-3076D01*
X-3021Y-3078D01*
X-3022Y-3080D01*
X-3023Y-3083D01*
X-3024Y-3086D01*
X-3026Y-3090D01*
X-3027Y-3094D01*
X-3028Y-3100D01*
X-3030Y-3105D01*
X-3031Y-3112D01*
X-3032Y-3119D01*
X-3033Y-3126D01*
X-3034Y-3134D01*
X-3034Y-3142D01*
X-3034Y-3151D01*
Y-3151D01*
Y-3152D01*
Y-3152D01*
Y-3153D01*
Y-3154D01*
Y-3156D01*
X-3034Y-3159D01*
X-3034Y-3163D01*
X-3034Y-3168D01*
X-3033Y-3174D01*
X-3032Y-3179D01*
X-3032Y-3185D01*
X-3031Y-3191D01*
X-3029Y-3198D01*
X-3028Y-3204D01*
X-3026Y-3211D01*
X-3024Y-3217D01*
X-3022Y-3222D01*
X-3019Y-3228D01*
X-3019Y-3228D01*
X-3019Y-3229D01*
X-3018Y-3230D01*
X-3016Y-3232D01*
X-3015Y-3234D01*
X-3013Y-3237D01*
X-3011Y-3239D01*
X-3008Y-3242D01*
X-3006Y-3244D01*
X-3002Y-3246D01*
X-2999Y-3249D01*
X-2995Y-3251D01*
X-2991Y-3253D01*
X-2987Y-3254D01*
X-2982Y-3255D01*
X-2977Y-3255D01*
X-2976D01*
X-2975Y-3255D01*
X-2973Y-3255D01*
X-2971Y-3254D01*
X-2968Y-3254D01*
X-2965Y-3253D01*
X-2962Y-3252D01*
X-2959Y-3250D01*
X-2955Y-3249D01*
X-2952Y-3246D01*
X-2948Y-3244D01*
X-2945Y-3241D01*
X-2942Y-3237D01*
X-2939Y-3233D01*
X-2936Y-3228D01*
X-2935Y-3228D01*
X-2935Y-3227D01*
X-2934Y-3225D01*
X-2933Y-3223D01*
X-2932Y-3220D01*
X-2931Y-3216D01*
X-2930Y-3212D01*
X-2928Y-3208D01*
X-2927Y-3203D01*
X-2925Y-3197D01*
X-2924Y-3191D01*
X-2923Y-3184D01*
X-2922Y-3177D01*
X-2921Y-3169D01*
X-2921Y-3160D01*
X-2921Y-3151D01*
Y-3151D01*
Y-3151D01*
Y-3150D01*
Y-3149D01*
Y-3146D01*
X-2921Y-3143D01*
X-2921Y-3139D01*
X-2921Y-3134D01*
X-2922Y-3129D01*
X-2923Y-3123D01*
X-2923Y-3117D01*
X-2924Y-3111D01*
X-2926Y-3105D01*
X-2927Y-3098D01*
X-2929Y-3092D01*
X-2931Y-3086D01*
X-2933Y-3080D01*
X-2936Y-3075D01*
X-2936Y-3075D01*
X-2936Y-3074D01*
X-2937Y-3072D01*
X-2939Y-3071D01*
X-2940Y-3069D01*
X-2942Y-3066D01*
X-2944Y-3064D01*
X-2947Y-3061D01*
X-2949Y-3059D01*
X-2952Y-3056D01*
X-2956Y-3054D01*
X-2960Y-3052D01*
X-2964Y-3050D01*
X-2968Y-3049D01*
X-2972Y-3048D01*
X-2977Y-3048D01*
D02*
G37*
G36*
X-2880Y-688D02*
X-2882D01*
X-2883Y-688D01*
X-2885Y-688D01*
X-2887Y-688D01*
X-2890Y-689D01*
X-2893Y-690D01*
X-2896Y-691D01*
X-2899Y-692D01*
X-2903Y-694D01*
X-2906Y-696D01*
X-2910Y-699D01*
X-2913Y-702D01*
X-2917Y-706D01*
X-2920Y-710D01*
X-2923Y-715D01*
X-2923Y-715D01*
X-2923Y-716D01*
X-2924Y-718D01*
X-2925Y-720D01*
X-2926Y-723D01*
X-2927Y-726D01*
X-2929Y-730D01*
X-2930Y-734D01*
X-2931Y-740D01*
X-2933Y-745D01*
X-2934Y-752D01*
X-2935Y-759D01*
X-2936Y-766D01*
X-2937Y-774D01*
X-2937Y-782D01*
X-2938Y-791D01*
Y-791D01*
Y-792D01*
Y-792D01*
Y-793D01*
Y-794D01*
Y-796D01*
X-2937Y-799D01*
X-2937Y-803D01*
X-2937Y-808D01*
X-2936Y-814D01*
X-2936Y-819D01*
X-2935Y-825D01*
X-2934Y-831D01*
X-2933Y-838D01*
X-2931Y-844D01*
X-2930Y-851D01*
X-2927Y-857D01*
X-2925Y-862D01*
X-2923Y-868D01*
X-2922Y-868D01*
X-2922Y-869D01*
X-2921Y-870D01*
X-2920Y-872D01*
X-2918Y-874D01*
X-2916Y-877D01*
X-2914Y-879D01*
X-2912Y-882D01*
X-2909Y-884D01*
X-2906Y-886D01*
X-2902Y-889D01*
X-2898Y-891D01*
X-2894Y-893D01*
X-2890Y-894D01*
X-2885Y-895D01*
X-2880Y-895D01*
X-2879D01*
X-2878Y-895D01*
X-2876Y-895D01*
X-2874Y-894D01*
X-2871Y-894D01*
X-2868Y-893D01*
X-2865Y-892D01*
X-2862Y-890D01*
X-2859Y-889D01*
X-2855Y-886D01*
X-2852Y-884D01*
X-2848Y-881D01*
X-2845Y-877D01*
X-2842Y-873D01*
X-2839Y-868D01*
X-2839Y-868D01*
X-2838Y-867D01*
X-2838Y-865D01*
X-2837Y-863D01*
X-2835Y-860D01*
X-2834Y-856D01*
X-2833Y-852D01*
X-2831Y-848D01*
X-2830Y-843D01*
X-2829Y-837D01*
X-2827Y-831D01*
X-2826Y-824D01*
X-2825Y-817D01*
X-2825Y-809D01*
X-2824Y-800D01*
X-2824Y-791D01*
Y-791D01*
Y-791D01*
Y-790D01*
Y-789D01*
Y-786D01*
X-2824Y-783D01*
X-2824Y-779D01*
X-2825Y-774D01*
X-2825Y-769D01*
X-2826Y-763D01*
X-2826Y-757D01*
X-2828Y-751D01*
X-2829Y-745D01*
X-2830Y-738D01*
X-2832Y-732D01*
X-2834Y-726D01*
X-2836Y-720D01*
X-2839Y-715D01*
X-2839Y-715D01*
X-2840Y-714D01*
X-2841Y-712D01*
X-2842Y-711D01*
X-2843Y-709D01*
X-2845Y-706D01*
X-2847Y-704D01*
X-2850Y-701D01*
X-2852Y-699D01*
X-2856Y-696D01*
X-2859Y-694D01*
X-2863Y-692D01*
X-2867Y-690D01*
X-2871Y-689D01*
X-2876Y-688D01*
X-2880Y-688D01*
D02*
G37*
G36*
X-2850Y-1468D02*
X-2851D01*
X-2853Y-1468D01*
X-2855Y-1468D01*
X-2857Y-1468D01*
X-2860Y-1469D01*
X-2863Y-1470D01*
X-2866Y-1471D01*
X-2869Y-1472D01*
X-2873Y-1474D01*
X-2876Y-1476D01*
X-2880Y-1479D01*
X-2883Y-1482D01*
X-2886Y-1486D01*
X-2890Y-1490D01*
X-2893Y-1495D01*
X-2893Y-1495D01*
X-2893Y-1496D01*
X-2894Y-1498D01*
X-2895Y-1500D01*
X-2896Y-1503D01*
X-2897Y-1506D01*
X-2899Y-1510D01*
X-2900Y-1514D01*
X-2901Y-1520D01*
X-2903Y-1525D01*
X-2904Y-1532D01*
X-2905Y-1539D01*
X-2906Y-1546D01*
X-2907Y-1554D01*
X-2907Y-1562D01*
X-2907Y-1571D01*
Y-1571D01*
Y-1572D01*
Y-1572D01*
Y-1573D01*
Y-1574D01*
Y-1576D01*
X-2907Y-1579D01*
X-2907Y-1583D01*
X-2907Y-1588D01*
X-2906Y-1594D01*
X-2906Y-1599D01*
X-2905Y-1605D01*
X-2904Y-1611D01*
X-2902Y-1618D01*
X-2901Y-1624D01*
X-2899Y-1631D01*
X-2897Y-1637D01*
X-2895Y-1642D01*
X-2892Y-1648D01*
X-2892Y-1648D01*
X-2892Y-1649D01*
X-2891Y-1650D01*
X-2889Y-1652D01*
X-2888Y-1654D01*
X-2886Y-1657D01*
X-2884Y-1659D01*
X-2881Y-1662D01*
X-2879Y-1664D01*
X-2875Y-1666D01*
X-2872Y-1669D01*
X-2868Y-1671D01*
X-2864Y-1673D01*
X-2860Y-1674D01*
X-2855Y-1675D01*
X-2850Y-1675D01*
X-2849D01*
X-2848Y-1675D01*
X-2846Y-1675D01*
X-2844Y-1674D01*
X-2841Y-1674D01*
X-2838Y-1673D01*
X-2835Y-1672D01*
X-2832Y-1670D01*
X-2828Y-1669D01*
X-2825Y-1666D01*
X-2821Y-1664D01*
X-2818Y-1661D01*
X-2815Y-1657D01*
X-2812Y-1653D01*
X-2809Y-1648D01*
X-2809Y-1648D01*
X-2808Y-1647D01*
X-2807Y-1645D01*
X-2806Y-1643D01*
X-2805Y-1640D01*
X-2804Y-1637D01*
X-2803Y-1632D01*
X-2801Y-1628D01*
X-2800Y-1623D01*
X-2798Y-1617D01*
X-2797Y-1611D01*
X-2796Y-1604D01*
X-2795Y-1597D01*
X-2794Y-1589D01*
X-2794Y-1580D01*
X-2794Y-1571D01*
Y-1571D01*
Y-1571D01*
Y-1570D01*
Y-1569D01*
Y-1566D01*
X-2794Y-1563D01*
X-2794Y-1559D01*
X-2794Y-1554D01*
X-2795Y-1549D01*
X-2796Y-1543D01*
X-2796Y-1537D01*
X-2797Y-1531D01*
X-2799Y-1525D01*
X-2800Y-1518D01*
X-2802Y-1512D01*
X-2804Y-1506D01*
X-2806Y-1500D01*
X-2809Y-1495D01*
X-2809Y-1495D01*
X-2809Y-1494D01*
X-2810Y-1492D01*
X-2812Y-1491D01*
X-2813Y-1489D01*
X-2815Y-1486D01*
X-2817Y-1484D01*
X-2820Y-1481D01*
X-2822Y-1479D01*
X-2826Y-1476D01*
X-2829Y-1474D01*
X-2833Y-1472D01*
X-2837Y-1470D01*
X-2841Y-1469D01*
X-2845Y-1468D01*
X-2850Y-1468D01*
D02*
G37*
G36*
X-3214D02*
X-3215D01*
X-3216Y-1468D01*
X-3218Y-1468D01*
X-3221Y-1468D01*
X-3223Y-1469D01*
X-3226Y-1470D01*
X-3229Y-1471D01*
X-3233Y-1472D01*
X-3236Y-1474D01*
X-3240Y-1476D01*
X-3243Y-1479D01*
X-3247Y-1482D01*
X-3250Y-1486D01*
X-3253Y-1490D01*
X-3256Y-1495D01*
X-3256Y-1495D01*
X-3257Y-1496D01*
X-3257Y-1498D01*
X-3258Y-1500D01*
X-3260Y-1503D01*
X-3261Y-1506D01*
X-3262Y-1510D01*
X-3263Y-1514D01*
X-3265Y-1520D01*
X-3266Y-1525D01*
X-3267Y-1532D01*
X-3268Y-1539D01*
X-3269Y-1546D01*
X-3270Y-1554D01*
X-3271Y-1562D01*
X-3271Y-1571D01*
Y-1571D01*
Y-1572D01*
Y-1572D01*
Y-1573D01*
Y-1574D01*
Y-1576D01*
X-3271Y-1579D01*
X-3270Y-1583D01*
X-3270Y-1588D01*
X-3270Y-1594D01*
X-3269Y-1599D01*
X-3268Y-1605D01*
X-3267Y-1611D01*
X-3266Y-1618D01*
X-3264Y-1624D01*
X-3263Y-1631D01*
X-3261Y-1637D01*
X-3258Y-1642D01*
X-3256Y-1648D01*
X-3255Y-1648D01*
X-3255Y-1649D01*
X-3254Y-1650D01*
X-3253Y-1652D01*
X-3251Y-1654D01*
X-3250Y-1657D01*
X-3247Y-1659D01*
X-3245Y-1662D01*
X-3242Y-1664D01*
X-3239Y-1666D01*
X-3235Y-1669D01*
X-3232Y-1671D01*
X-3228Y-1673D01*
X-3223Y-1674D01*
X-3219Y-1675D01*
X-3214Y-1675D01*
X-3213D01*
X-3211Y-1675D01*
X-3209Y-1675D01*
X-3207Y-1674D01*
X-3205Y-1674D01*
X-3202Y-1673D01*
X-3199Y-1672D01*
X-3195Y-1670D01*
X-3192Y-1669D01*
X-3188Y-1666D01*
X-3185Y-1664D01*
X-3182Y-1661D01*
X-3178Y-1657D01*
X-3175Y-1653D01*
X-3172Y-1648D01*
X-3172Y-1648D01*
X-3171Y-1647D01*
X-3171Y-1645D01*
X-3170Y-1643D01*
X-3169Y-1640D01*
X-3167Y-1637D01*
X-3166Y-1632D01*
X-3165Y-1628D01*
X-3163Y-1623D01*
X-3162Y-1617D01*
X-3161Y-1611D01*
X-3159Y-1604D01*
X-3158Y-1597D01*
X-3158Y-1589D01*
X-3157Y-1580D01*
X-3157Y-1571D01*
Y-1571D01*
Y-1571D01*
Y-1570D01*
Y-1569D01*
Y-1566D01*
X-3157Y-1563D01*
X-3158Y-1559D01*
X-3158Y-1554D01*
X-3158Y-1549D01*
X-3159Y-1543D01*
X-3160Y-1537D01*
X-3161Y-1531D01*
X-3162Y-1525D01*
X-3163Y-1518D01*
X-3165Y-1512D01*
X-3167Y-1506D01*
X-3170Y-1500D01*
X-3172Y-1495D01*
X-3172Y-1495D01*
X-3173Y-1494D01*
X-3174Y-1492D01*
X-3175Y-1491D01*
X-3176Y-1489D01*
X-3178Y-1486D01*
X-3180Y-1484D01*
X-3183Y-1481D01*
X-3186Y-1479D01*
X-3189Y-1476D01*
X-3192Y-1474D01*
X-3196Y-1472D01*
X-3200Y-1470D01*
X-3204Y-1469D01*
X-3209Y-1468D01*
X-3214Y-1468D01*
D02*
G37*
%LPD*%
D10*
X3760Y-2126D02*
G03*
X3760Y-2126I-138J0D01*
G01*
X138Y-4016D02*
G03*
X138Y-4016I-138J0D01*
G01*
X3516Y-2717D02*
X3728D01*
X4134Y-2449D02*
Y-1803D01*
X3110Y-2449D02*
Y-1803D01*
X3516Y-1535D02*
X3728D01*
X-591Y-4122D02*
Y-3910D01*
X-323Y-4528D02*
X323D01*
X-323Y-3504D02*
X323D01*
X591Y-4122D02*
Y-3910D01*
D11*
X-187Y1024D02*
G03*
X-273Y1056I-49J0D01*
G01*
Y991D02*
G03*
X-187Y1024I37J32D01*
G01*
X1229Y-3356D02*
G03*
X1250Y-3378I2J-20D01*
G01*
D12*
X2193Y-2306D02*
G03*
X2193Y-2576I-28J-135D01*
G01*
X914Y2715D02*
G03*
X914Y2659I-8J-28D01*
G01*
X5030Y394D02*
G03*
X5030Y394I-20J0D01*
G01*
X1665Y-2057D02*
X2193D01*
X1665Y-3297D02*
X2193D01*
X-1918Y610D02*
X-1626D01*
X-1142Y-559D02*
Y126D01*
X-2402Y-559D02*
Y126D01*
X-1918Y-1043D02*
X-1626Y-1043D01*
X2710Y5058D02*
X2782Y5199D01*
X3152Y5275D02*
X3685Y5003D01*
X2866Y4714D02*
X3399Y4442D01*
X3152Y-5275D02*
X3685Y-5003D01*
X2710Y-5058D02*
X2782Y-5199D01*
X2866Y-4714D02*
X3399Y-4442D01*
X1860Y4321D02*
X1703D01*
X1782Y4242D02*
Y4400D01*
X1781Y-3671D02*
X1624D01*
X1703Y-3750D02*
Y-3593D01*
D13*
X-1098Y939D02*
G03*
X-1110Y892I-4J-24D01*
G01*
X4574Y3189D02*
X4791Y3359D01*
X4664Y3522D02*
X4791Y3359D01*
X4447Y3352D02*
X4574Y3189D01*
X4198Y3670D02*
X4415Y3840D01*
X4198Y3670D02*
X4325Y3507D01*
X4415Y3840D02*
X4543Y3677D01*
X1575Y3943D02*
Y4009D01*
X1260Y3943D02*
Y4009D01*
X-261Y-1690D02*
Y-1373D01*
Y-2682D02*
Y-2365D01*
X-1964Y-1690D02*
Y-1373D01*
Y-2682D02*
Y-2365D01*
X-438Y-1373D02*
X-261D01*
X-1964D02*
X-1786D01*
X-438Y-2682D02*
X-261D01*
X-1964D02*
X-1786D01*
X965Y3258D02*
X1097D01*
X965Y2982D02*
Y3258D01*
X1634Y3089D02*
Y3210D01*
X1501Y3258D02*
X1633D01*
X5108Y325D02*
X5699D01*
X5108Y-325D02*
X5699D01*
X1181Y-4049D02*
Y-3983D01*
X1496Y-4049D02*
Y-3983D01*
X-2920Y-4468D02*
Y-4272D01*
X-2822D01*
X-2789Y-4304D01*
Y-4370D01*
X-2822Y-4403D01*
X-2920D01*
X-2592Y-4468D02*
X-2723D01*
X-2592Y-4337D01*
Y-4304D01*
X-2625Y-4272D01*
X-2690D01*
X-2723Y-4304D01*
X-2418Y-1904D02*
X-2451Y-1871D01*
X-2516D01*
X-2549Y-1904D01*
Y-2035D01*
X-2516Y-2068D01*
X-2451D01*
X-2418Y-2035D01*
X-2352Y-2068D02*
X-2287D01*
X-2320D01*
Y-1871D01*
X-2352Y-1904D01*
X-2188Y-2035D02*
X-2156Y-2068D01*
X-2090D01*
X-2057Y-2035D01*
Y-1904D01*
X-2090Y-1871D01*
X-2156D01*
X-2188Y-1904D01*
Y-1937D01*
X-2156Y-1970D01*
X-2057D01*
X-2418Y-2694D02*
X-2451Y-2661D01*
X-2516D01*
X-2549Y-2694D01*
Y-2825D01*
X-2516Y-2858D01*
X-2451D01*
X-2418Y-2825D01*
X-2352Y-2858D02*
X-2287D01*
X-2320D01*
Y-2661D01*
X-2352Y-2694D01*
X-2188Y-2661D02*
X-2057D01*
Y-2694D01*
X-2188Y-2825D01*
Y-2858D01*
X-1437Y-3438D02*
X-1470Y-3406D01*
X-1535D01*
X-1568Y-3438D01*
Y-3471D01*
X-1535Y-3504D01*
X-1470D01*
X-1437Y-3537D01*
Y-3570D01*
X-1470Y-3602D01*
X-1535D01*
X-1568Y-3570D01*
X-1371Y-3406D02*
Y-3602D01*
X-1273D01*
X-1240Y-3570D01*
Y-3537D01*
X-1273Y-3504D01*
X-1371D01*
X-1273D01*
X-1240Y-3471D01*
Y-3438D01*
X-1273Y-3406D01*
X-1371D01*
X-1175Y-3602D02*
X-1109D01*
X-1142D01*
Y-3406D01*
X-1175Y-3438D01*
D14*
X-1944Y-2825D02*
G03*
X-1944Y-2825I-20J0D01*
G01*
X-79Y-1260D02*
Y-1124D01*
Y-1260D02*
X57D01*
X2593Y3110D02*
Y3189D01*
X1797Y3110D02*
Y3189D01*
D15*
X-2302Y5866D02*
X-1725D01*
D16*
X-2331Y1978D02*
X-2137D01*
X-1406D02*
X-1181D01*
X-2362Y994D02*
X-2137D01*
X-1406D02*
X-1181D01*
D17*
X3605Y4691D02*
D03*
D18*
X3605Y-4691D02*
D03*
M02*
