<svg width="108" height="159" viewBox="0 0 108 159" fill="none" xmlns="http://www.w3.org/2000/svg">
<path d="M90.9001 80.2999C93.4001 82.1999 94.3001 84.7999 94.4001 87.7999C94.7001 97.5999 95.0001 107.3 95.4001 117.1C95.6001 124.7 95.8001 132.3 96.1001 139.9C96.1001 141.5 96.4001 143.3 94.5001 144.2C92.7001 145 91.6001 143.5 90.5001 142.6C86.1001 139 82.0001 135.2 78.4001 130.8C77.1001 129.2 76.5001 127.5 76.5001 125.4C76.6001 117.1 76.5001 108.8 76.5001 99.7999C70.2001 101.5 64.8001 102.9 59.5001 104.4C53.3001 106.2 47.1001 108 40.5001 106.6C34.7001 105.4 32.5001 103.2 33.7001 97.5C36.9001 82.9 36.4001 68.2999 35.1001 53.5999C34.7001 49.5999 35.6001 45.8 37.7001 42.4C40.7001 37.7 45.3001 36.2999 50.9001 38.2999C57.8001 40.7999 61.1001 46.2 62.7001 53C63.3001 55.6 63.5001 58.3 64.1001 60.9C64.9001 64.6 62.3001 67.3 61.4001 70.5C61.1001 71.7 58.7001 72.2 57.3001 71.9C56.1001 71.7 56.8001 70 56.8001 69C57.1001 64 57.5001 58.9 57.8001 53.9C58.0001 49.8 55.9001 46.5 52.5001 45.4C49.2001 44.3 45.5001 45.4999 43.5001 48.2999C42.5001 49.7999 42.1001 51.5 42.0001 53.2C41.4001 62.8 40.8001 72.4999 40.2001 82.0999C40.1001 83.6999 40.3001 85.1999 41.0001 86.5999C41.9001 88.4999 42.9001 89.4 45.5001 88.5C51.5001 86.4 57.7001 84.9999 63.8001 83.2999C64.7001 82.9999 65.2001 83.1 66.0001 83.7C75.3001 91.4 83.1001 90.2999 90.9001 80.2999Z" fill="#593A2D"/>
<path d="M30.2 155.1C21.2 155.1 12.3 155 3.40004 155.2C1.30004 155.2 0.600029 154.7 0.700029 152.5C0.800029 147.5 0.700029 147.5 5.70003 147.5C12 147.5 18.3 147.4 24.5 147.5C26.2 147.5 26.8 147.1 26.8 145.3C26.7 138 26.7 130.7 26.8 123.4C26.8 121.3 26 121 24.3 121.1C20 121.2 15.7 121 11.3 121.2C8.60001 121.3 7.5 120.1 7.3 117.8C7.20001 116.7 7.10003 115.5 7.20003 114.4C7.40003 111.7 8.39999 110.3 11.6 110.3C24 110.5 36.5 110.4 48.9 110.4C52.8 110.4 53.5 111 53.8 114.9C54.2 119.9 53.1 121.2 48.2 121.2C44.3 121.2 40.4 121.3 36.5 121.2C34.8 121.2 34.2 121.6 34.2 123.4C34.3 130.8 34.3 138.2 34.2 145.6C34.2 147.3 34.8 147.6 36.3 147.6C43.4 147.5 50.5 147.6 57.6 147.5C59.5 147.5 60.3 147.8 60.2 149.9C60.1 155.2 60.2 155.2 54.9 155.2C46.7 155.1 38.4 155.1 30.2 155.1Z" fill="#593A2D"/>
<path d="M72.5 17.4999C72.5 26.9999 64.8 34.7999 55.3 34.7999C45.8 34.7999 38.1 26.8999 38.1 17.4999C38.2 8.09988 45.8 0.499901 55.2 0.399901C64.8 0.299901 72.5 7.89988 72.5 17.4999Z" fill="#593A2D"/>
<path d="M54.4 74.8C56.9 74.1 58.9 73.5 61.1 72.8C61.4 75.5 61.8 78.1 63.1 80.5C63.8 81.6 63 81.8 62.1 82C56.1 83.7 50 85.3 44 87.1C43 87.4 42.7 86.9 42.3 86.3C41.5 84.9 41.5 83.4 41.6 81.8C42.2 72.3 42.8 62.7 43.4 53.2C43.7 49.3 46.4 46.6 49.9 46.8C53.4 47 55.9 49.9 55.7 53.8C55.4 60.6 54.9 67.5 54.4 74.8Z" fill="#593A2D"/>
<path d="M87.6 158.5C81.5 158.5 75.5001 158.4 69.4001 158.5C67.8001 158.5 67 158.2 67.1 156.4C67.3 153.9 67.3 151.5 67.1 149C66.9 147 67.8 146.7 69.5 146.7C81.4 146.8 93.3 146.8 105.2 146.7C107 146.7 107.8 147 107.6 149C107.4 152 108.6 156.1 107.1 157.9C105.5 159.8 101.3 158.4 98.3 158.5C94.8 158.5 91.2 158.5 87.6 158.5Z" fill="#593A2D"/>
<path d="M76.7 86.2999C69.3 86.2999 63.4 80.3 63.5 72.9C63.6 65.6 69.6001 59.6 76.9001 59.7C84.2001 59.8 90.2 65.7999 90.1 73.0999C90 80.4999 84.1 86.2999 76.7 86.2999Z" fill="#593A2D"/>
<path d="M101.3 78.1999C100.1 78.5999 99.2 78.9999 97.8 79.4999C99.6 75.8999 101.2 72.6999 103.1 69.0999C104.8 72.4999 106.4 75.4999 108 78.4999C106.8 79.3999 106 77.7999 104.9 78.4999C104.4 84.7999 103.9 91.0999 103.4 97.3999C103.2 97.3999 103.1 97.3999 102.9 97.3999C102.4 91.0999 101.9 84.7999 101.3 78.1999Z" fill="#593A2D"/>
<path d="M3.99995 158.5C3.29995 158.2 1.99997 159.1 1.89997 157.5C1.79997 155.8 3.09995 156.1 3.99995 156.2C4.89995 156.2 6.29994 155.7 6.29994 157.4C6.29994 159.2 4.79995 158.2 3.99995 158.5Z" fill="#593A2D"/>
<path d="M56.9 158.6C56 158.2 54.5 159.2 54.6 157.4C54.6 155.7 55.9 156.2 56.8 156.2C57.7 156.2 59 155.7 59 157.4C59 159.3 57.4 158 56.9 158.6Z" fill="#593A2D"/>
<path d="M82.5 73.0998C82.5 76.2998 79.9 78.6998 76.8 78.6998C73.7 78.6998 71.2 76.1998 71.1 72.9998C71.1 69.6998 73.7 67.0998 76.9 67.1998C80.1 67.3998 82.5 69.8998 82.5 73.0998Z" fill="#75422E"/>
<path d="M78.7999 73.1C78.7999 74.3 78.1999 75.1 76.7999 75.1C75.5999 75.1 74.8999 74.4 74.7999 73.2C74.6999 71.8 75.4999 71 76.7999 71C77.8999 71 78.6999 71.7 78.7999 73.1Z" fill="#593A2D"/>
</svg>
