<svg width="120" height="176" viewBox="0 0 120 176" fill="none" xmlns="http://www.w3.org/2000/svg">
<path d="M65.4 73.5001C63.2 82.2001 59.1999 85.4 50.5999 85.1C43.2999 84.9 36 84.6 28.7 84.1C26.6 84 25.7 84.5001 24.9 86.4001C21.6 94.7001 18.2 102.9 14.8 111C13.2 114.7 9.99995 116.5 6.29995 115.8C3.09995 115.2 0.699976 112.6 0.199976 109.2C-2.38419e-05 107.7 0.399964 106.3 0.999964 104.9C5.19996 94.6001 9.49998 84.3001 13.7 73.9001C14.5 72.1001 15.5 70.5001 17.3 69.5001C20.1 67.9001 21 68.3001 21 71.5001C21 73.9001 22.5 73.3001 23.7 73.3001C37.1 73.3001 50.4 73.3001 63.8 73.3001C64.2 73.4001 64.7 73.4001 65.4 73.5001Z" fill="#593A2D"/>
<path d="M29.8999 13.5998C29.8999 6.09984 35.8999 0.0998449 43.2999 0.0998449C50.8999 -0.000155099 56.9999 6.09992 56.8999 13.7999C56.8999 21.2999 50.8999 27.2999 43.4999 27.3999C35.9999 27.3999 29.8999 21.1998 29.8999 13.5998Z" fill="#593A2D"/>
<path d="M41.1 64.6997C36.3 64.6997 31.5 64.6997 26.7 64.6997C23.2 64.6997 21.1999 62.8997 21.0999 60.0997C20.9999 57.1997 23.2 55.0997 26.8 55.0997C34.1 54.9997 41.4 54.9997 48.7 55.0997C50.8 55.0997 51.5 54.6997 51.4 52.4997C51.2 48.3997 51.3 44.2997 51.4 40.1997C51.5 36.6997 53.5 34.3997 56.4 34.4997C59.2 34.5997 61 36.6997 61 40.0997C61 46.4997 61.1 52.8998 61 59.2998C61 62.9998 59.3 64.6997 55.5 64.6997C50.7 64.6997 45.9 64.6997 41.1 64.6997Z" fill="#593A2D"/>
<path d="M60.7999 64.3C62.5999 62 62.2999 59.6999 62.2999 57.3999C62.2999 51.4999 62.2999 45.4999 62.2999 39.5999C62.2999 35.7999 59.8 33.0999 56.4 32.9999C52.9 32.8999 50.0999 35.5999 49.9999 39.4999C49.8999 43.3999 49.9999 47.2999 49.9999 51.0999C49.9999 52.2999 50.3999 53.5999 48.2999 53.5999C46.2999 53.5999 46.3999 52.6 46.4999 51.3C46.7999 47 46.0999 42.5999 47.0999 38.3999C47.9999 34.5999 49.8 31.1999 53.9 30.1999C58.1 29.1999 61.4999 30.9999 64.2999 33.9999C66.3999 36.1999 67.6999 38.8999 68.0999 41.8999C69.1999 48.6999 69.4 55.5 68.4 62.3C68.2 63.9 67.5 64.4999 65.9 64.3999C64.4 64.1999 62.8999 64.3 60.7999 64.3Z" fill="#593A2D"/>
<path d="M90.4 88.6998C90.4 107.2 90.4999 125.7 90.2999 144.2C90.2999 146.6 90.8999 147.6 93.2999 147.9C95.7999 148.2 98.2 148.8 100.7 149.4C105.6 150.7 108.7 154.5 108.9 159.5C108.9 160 108.9 160.4 108.9 160.9C109 163.6 108.1 167 109.4 168.9C110.7 170.7 114.3 169.5 116.9 169.4C120 169.4 118.7 171.6 119 173C119.3 174.8 118.7 175.6 116.7 175.6C107.8 175.5 98.8999 175.6 89.9999 175.6C72.9999 175.6 56 175.6 38.9 175.6C36.7 175.6 35.4999 175.6 35.4999 172.6C35.4999 169.7 36.5999 169.4 38.9999 169.4C53.1999 169.5 67.2999 169.4 81.4999 169.5C83.8999 169.5 84.4999 168.9 84.4999 166.5C84.3999 137.9 84.4 109.4 84.4 80.7999C84.4 76.7999 79.3999 71.8999 75.4999 71.8999C58.7999 71.8999 42.0999 71.8999 25.4999 71.8999C24.3999 71.8999 22.6999 72.8999 22.4999 70.3999C22.2999 67.8999 23.8999 68.3999 25.2999 68.2999C25.7999 68.2999 26.5999 68.4999 26.7999 67.7999C27.5999 64.3999 29.3 65.7999 30.9 67.0999C31.1 67.1999 31.1999 67.7999 31.4999 67.2999C33.1999 64.8999 35.6999 66.0999 37.7999 66.0999C48.7999 65.8999 59.6999 65.7998 70.6999 65.6998C72.4999 65.6998 74.3999 65.3999 75.2999 67.5999C75.6999 68.4999 83.3999 68.7999 84.0999 67.9999C84.7999 67.0999 84.4999 65.9999 84.4999 64.9999C84.4999 54.0999 84.5999 43.2999 84.4999 32.3999C84.4999 29.8999 85.2999 29.3999 87.5999 29.3999C89.8999 29.3999 90.7 29.8999 90.7 32.3999C90.2999 51.2999 90.4 69.9998 90.4 88.6998ZM90.2999 167.7C90.2999 169 90.6999 169.5 92.0999 169.5C95.4999 169.4 98.8999 169.5 102.3 169.5C103.3 169.5 104 169.4 104 168.1C103.9 165 104.1 161.9 103.9 158.9C103.7 156.4 102.1 154.8 99.5999 154.2C96.5999 153.5 93.5999 152.9 90.2999 152.2C90.3999 157.5 90.3999 162.6 90.2999 167.7ZM89.0999 127.6C89.0999 126.5 88.4 125.9 87.4 126C86.3 126.1 85.4999 126.7 85.6999 128C85.8999 129 86.5999 129.5 87.7999 129.6C88.3999 129.2 89.0999 128.7 89.0999 127.6ZM85.5999 72.9999C85.5999 74.0999 86.3999 74.8998 87.5999 74.6998C88.6999 74.5998 89.0999 73.7999 88.9999 72.7999C88.8999 71.7999 88.2999 71.1998 86.9999 71.1998C86.1999 71.3998 85.5999 72.0999 85.5999 72.9999ZM85.5999 139.2C85.5999 140.4 86.3999 141.1 87.4999 141C88.4999 141 89.0999 140.2 89.0999 139.2C89.0999 138.1 88.3999 137.6 87.2999 137.5C86.3999 137.7 85.5999 138.1 85.5999 139.2Z" fill="#593A2D"/>
</svg>
