<svg width="104" height="165" viewBox="0 0 104 165" fill="none" xmlns="http://www.w3.org/2000/svg">
<path d="M62 148C61.4 131 61.4 114.7 59.4 98.4999C59.3 97.8999 59.2 97.2998 58.9 96.6998C56.4 92.2998 58.1 88.4999 60.5 84.7999C62.2 81.9999 63.2 78.8999 64.2 75.7999C65.8 70.6999 67.9 65.6999 70.5 60.9999C72 58.2999 72.7 55.1999 74.4 52.4999C75.4 50.9999 74.9 49.1998 73.3 48.1998C68.3 45.2998 63.2 43.1999 57.1 44.3999C54.2 44.9999 50.2 48.4999 49.8 51.2999C48.5 62.3999 45.7 73.1999 43.1 83.9999C42.8 85.3999 42.6 86.1999 44.4 86.3999C45.6 86.4999 46.5 87.4998 47.1 88.6998C49.3 92.6998 51.6 96.5998 53.9 100.6C54.9 102.3 55 103.8 54 105.4C51.6 109.4 49.3 113.5 47 117.5C46 119.2 44.7 119.9 42.7 119.8C38.2 119.7 33.7 119.7 29.3 119.8C27.2 119.8 25.9 119 24.9 117.2C22.7 113.3 20.5 109.4 18.2 105.6C17.1 103.9 17.1 102.3 18.1 100.5C20.5 96.5999 22.7 92.5998 24.9 88.6998C26 86.7998 27.6 86.1998 29.7 86.1998C37.2 86.1998 37.2 86.0998 37.7 78.5998C38.1 71.8998 39.4 65.2998 40 58.6998C40.7 49.4998 42.3 39.8999 37.5 30.9999C35.9 27.9999 34.1 25.7999 30.6 25.3999C29.3 25.2999 27.9 25.1999 26.7 24.7999C24.2 23.9999 23.3 24.7999 23.2 27.3999C23 30.7999 21.4 31.1998 18.1 30.6998C16 30.3998 14.6 27.5999 12.1 28.9999C11.8 29.1999 11.1 28.1998 11.2 27.5998C11.6 24.0998 8.89997 23.3999 6.59997 22.4999C1.59997 20.4999 0.0999631 17.7998 1.19996 12.5998C1.99996 8.79984 3.99997 5.69987 6.79997 2.99987C9.79997 0.0998666 13.5 0.0998179 17.1 0.699818C24.4 1.99982 30.5 5.59987 34.4 11.9999C36.4 15.2999 39.3 15.7998 42.3 15.5998C49 15.0998 54.9 17.0999 60.3 20.8999C66.7 25.3999 73.6 28.0999 81.6 26.7999C95.6 24.6999 104.7 39.8998 103.8 49.0998C103.5 51.7998 102.2 53.8998 100.3 55.6998C94.3 61.4998 90 68.4999 84.8 74.7999C80.1 80.5999 76.3 87.1999 70.3 91.8999C69.6 92.3999 69.9 93.1999 70 93.8999C70.5 96.2999 70.8 98.6999 71.6 101C73.8 107.7 72.9 114.5 71.8 121.2C70.5 130.1 69.5 138.9 69.7 147.9C69.7 148.7 69.7 149.6 70.4 150.1C73.3 152.5 73.8 156.2 75.1 159.4C76.1 161.9 74.9 163 72.6 163.3C72.5 163.3 72.4 163.3 72.3 163.3C65 162.7 57.7 164.6 50.4 164C49.7 163.9 48.9 164 48.3 163.7C47.1 163 44.3 163.7 44.8 161.8C45.2 160 45.9 157.2 49.3 157.6C53.2 158 54.6 154.9 56.3 152.2C56.9 151.2 57.3 150 57.6 148.8C58.3 147.3 59.3 146.2 62 148Z" fill="#593A2D"/>
</svg>
