<svg width="125" height="162" viewBox="0 0 125 162" fill="none" xmlns="http://www.w3.org/2000/svg">
<path d="M32.9 21.7C37.3 21.7 41.6 21.7 46 21.7C47.6 21.7 48.7 22.1999 49.8 23.4999C53 27.4999 57.2 29.6999 62.3 29.9999C64.4 30.0999 65.4 31.0999 66 32.7999C67.1 35.8999 66.8 38.9 65.6 41.9C62.5 49.7 59.6 57.5 56.4 65.2C55.5 67.2999 56 68.3999 57.8 69.5999C61.9 72.1999 65.8 75.1 69.8 77.7C72.5 79.5 73.8 81.8999 73.7 84.9999C73.6 92.9999 73.3 101.1 73.1 109.1C73.1 110.4 72.7 111.7 72.3 113C71.3 116.1 69.1 117.5 65.9 117.2C63.2 117 61 115 60.7 112C60.1 105.7 59.6 99.3999 59.3 93.0999C59.2 90.4999 58.4 88.8999 56 87.5999C49.9 84.3999 43.9 81.1 37.6 78.4C36.4 77.9 35.2 77.2999 34 76.5999C28.5 73.4999 26.6 69.3999 28.2 63.2999C30.3 55.0999 32.4 46.9999 34.6 38.7999C35.4 35.7999 35.4 35.6999 32.2 35.5999C29.6 35.4999 27 35.3999 24.5 35.0999C22.3 34.8999 20.9 35.6 19.6 37.4C16.6 41.7 13.5 45.8999 10.3 50.0999C7.90002 53.2999 4.50002 53.8999 2.00002 51.7999C0.100017 50.0999 -0.59998 47.6 0.80002 45.2C4.80002 38.6 8.80002 31.9999 13 25.4999C14.5 23.0999 17 22.0999 19.8 21.9999C24.2 21.9999 28.5 21.9999 32.9 21.9999C32.9 21.9999 32.9 21.8 32.9 21.7Z" fill="#593A2D"/>
<path d="M45.2 152C41.5 152 37.9 152.1 34.2 152C32 151.9 30.8001 152.6 31.0001 155C31.1001 155.8 30.9 156.7 30.7 157.5C30.1 159.9 28.4001 161.2 26.0001 161.3C23.6001 161.3 21.6 160 21.2 157.7C20.5 153.7 20.5 149.6 21.2 145.6C21.6 143.3 23.6001 142.1 26.3001 142.1C33.6001 142 41.0001 142.1 48.3001 142.1C51.9001 142.1 52.0001 142 52.0001 138.4C52.0001 136.1 52.0001 133.9 52.0001 131.6C52.1001 127.1 53.8 125.3 58.3 125.3C64.9 125.3 71.6001 125.3 78.2001 125.3C83.5001 125.3 83.0001 125.7 83.1001 120.5C83.1001 118.3 83.1001 116.1 83.1001 113.9C83.2001 110.7 85.1 108.8 88.3 108.7C98.6 108.6 108.9 108.6 119.2 108.7C122.2 108.7 124.3 111 124.3 113.7C124.2 116.4 122 118.5 119 118.6C111.7 118.7 104.5 118.6 97.2001 118.6C93.2001 118.6 93.2001 118.6 93.2001 122.7C93.2001 124.7 93.2001 126.8 93.1001 128.8C92.9001 133.8 91.3 135.4 86.3 135.4C79.5 135.4 72.7 135.4 65.9 135.4C61.9 135.4 61.9 135.4 61.9 139.4C61.9 141.7 61.9 143.9 61.9 146.2C61.8 150 60.1 151.8 56.3 151.9C52.7 152 49 151.9 45.2 152Z" fill="#593A2D"/>
<path d="M46.9 91.5C47.4 98.9 45 105.2 40 110.5C36.2 114.6 32.8 119.1 29.1 123.4C26.8 126.1 23.5 126.3 20.9 124.4C18.3 122.5 17.7 119.4 19.4 116.3C19.8 115.6 20.3 114.8 20.8 114.1C24.3 109 27.7 103.9 31.2 98.9C32.2 97.5 32.6 96 32.6 94.3C32.5 90.4 32.5 86.5 32.4 82.6C32.4 80.8 33 80.4 34.6 81.2C37.3 82.5 40.1 83.9 42.9 85C46.1 86.2 48.1 88 46.9 91.5Z" fill="#593A2D"/>
<path d="M75.7 13C75.7 20.1 70.1 25.5999 63.1 25.5999C56.1 25.5999 50.4 20 50.4 13C50.4 5.99997 56.3 0.0999833 63.3 0.199983C70.3 0.299983 75.8 5.89997 75.7 13Z" fill="#593A2D"/>
<path d="M84.2 64.3001C80.7 64.3001 77.2 64.3001 73.7 64.3001C69.5 64.3001 64.9 60.7001 63.7 56.7001C63.5 56.0001 63.7 55.3001 64 54.7001C65.5 50.8001 67.1 46.9001 68.6 42.9001C68.8 42.4001 68.9 41.7001 69.5 41.6001C70.3 41.4001 70.5 42.3001 70.8 42.8001C72.3 45.3001 73.8 47.8001 75.1 50.3001C75.8 51.6001 76.7 52.2001 78.2 52.2001C83.7 52.4001 89.3 52.8001 94.8 53.1001C99.1 53.3001 101.7 56.3001 100.8 59.8001C100.2 62.2001 98.4 63.7001 95.7 63.8001C91.9 63.9001 88.1 63.8001 84.2 63.8001C84.2 64.0001 84.2 64.1001 84.2 64.3001Z" fill="#593A2D"/>
</svg>
