<?xml version="1.0" encoding="iso-8859-1"?>
<!-- Generator: Adobe Illustrator 19.1.0, SVG Export Plug-In . SVG Version: 6.00 Build 0)  -->
<svg version="1.1" id="Capa_1" xmlns="http://www.w3.org/2000/svg" xmlns:xlink="http://www.w3.org/1999/xlink" x="0px" y="0px"
	 viewBox="0 0 30.609 30.609" style="enable-background:new 0 0 30.609 30.609;" xml:space="preserve">
<g>
	<g>
		<path style="fill:#010002;" d="M15.306,30.609C6.866,30.609,0,23.743,0,15.305C0,6.866,6.866,0,15.306,0
			c8.438,0,15.303,6.866,15.303,15.305C30.609,23.743,23.744,30.609,15.306,30.609z M15.306,1.75C7.83,1.75,1.75,7.83,1.75,15.305
			c0,7.474,6.08,13.554,13.556,13.554c7.473,0,13.553-6.08,13.553-13.554C28.859,7.83,22.779,1.75,15.306,1.75z"/>
	</g>
	<g>
		<path style="fill:#010002;" d="M25.216,26.665c-0.482,0-0.874-0.392-0.874-0.875V14.46h-9.036c-0.483,0-0.875-0.392-0.875-0.875
			V0.875C14.431,0.392,14.823,0,15.306,0c0.482,0,0.875,0.392,0.875,0.875V12.71h9.035c0.483,0,0.875,0.392,0.875,0.875V25.79
			C26.091,26.274,25.7,26.665,25.216,26.665z"/>
	</g>
	<g>
		<path style="fill:#010002;" d="M22.26,28.824c-0.257,0-0.51-0.111-0.683-0.326l-6.137-7.626h-3.43
			c-0.483,0-0.875-0.392-0.875-0.875v-4.63L3.574,6.618C3.26,6.254,3.299,5.701,3.665,5.385C4.03,5.071,4.582,5.111,4.898,5.476
			l7.774,8.994c0.137,0.159,0.213,0.361,0.213,0.572v4.08h2.973c0.265,0,0.516,0.121,0.682,0.326l6.4,7.953
			c0.302,0.376,0.243,0.927-0.133,1.229C22.645,28.761,22.452,28.824,22.26,28.824z"/>
	</g>
</g>
<g>
</g>
<g>
</g>
<g>
</g>
<g>
</g>
<g>
</g>
<g>
</g>
<g>
</g>
<g>
</g>
<g>
</g>
<g>
</g>
<g>
</g>
<g>
</g>
<g>
</g>
<g>
</g>
<g>
</g>
</svg>
