<?xml version="1.0" encoding="iso-8859-1"?>
<!-- Generator: Adobe Illustrator 19.1.0, SVG Export Plug-In . SVG Version: 6.00 Build 0)  -->
<svg version="1.1" id="Capa_1" xmlns="http://www.w3.org/2000/svg" xmlns:xlink="http://www.w3.org/1999/xlink" x="0px" y="0px"
	 viewBox="0 0 31.008 31.008" style="enable-background:new 0 0 31.008 31.008;" xml:space="preserve">
<g>
	<path style="fill:#010002;" d="M15.504,30.179c-0.146,0-0.292-0.037-0.424-0.111c-0.19-0.108-4.713-2.686-8.986-7.19
		C3.01,19.627,0,16.035,0,11.01C0,1.563,5.687,0.829,7.429,0.829c4.388,0,6.9,3.562,8.075,5.893
		c1.175-2.332,3.688-5.893,8.075-5.893c1.742,0,7.429,0.734,7.429,10.182c0,5.024-3.01,8.617-6.094,11.867
		c-4.273,4.505-8.796,7.083-8.986,7.19C15.796,30.142,15.65,30.179,15.504,30.179z M7.429,2.551c-1.715,0-5.704,0.824-5.704,8.459
		c0,4.39,2.775,7.684,5.619,10.682c3.36,3.541,6.951,5.88,8.16,6.621c1.209-0.742,4.807-3.088,8.16-6.621
		c2.844-2.998,5.62-6.292,5.62-10.682c0-7.635-3.99-8.459-5.705-8.459c-5.11,0-7.231,6.584-7.252,6.65
		c-0.113,0.36-0.446,0.606-0.823,0.606h-0.001c-0.377,0-0.71-0.246-0.822-0.606C14.66,9.135,12.539,2.551,7.429,2.551z"/>
</g>
<g>
</g>
<g>
</g>
<g>
</g>
<g>
</g>
<g>
</g>
<g>
</g>
<g>
</g>
<g>
</g>
<g>
</g>
<g>
</g>
<g>
</g>
<g>
</g>
<g>
</g>
<g>
</g>
<g>
</g>
</svg>
