<?xml version="1.0" encoding="iso-8859-1"?>
<!-- Generator: Adobe Illustrator 19.1.0, SVG Export Plug-In . SVG Version: 6.00 Build 0)  -->
<svg version="1.1" id="Capa_1" xmlns="http://www.w3.org/2000/svg" xmlns:xlink="http://www.w3.org/1999/xlink" x="0px" y="0px"
	 viewBox="0 0 30.631 30.631" style="enable-background:new 0 0 30.631 30.631;" xml:space="preserve">
<g>
	<g>
		<g>
			<path style="fill:#010002;" d="M27.001,30.62H3.629c-0.483,0-0.875-0.392-0.875-0.875V18.197c0-0.242,0.101-0.473,0.275-0.638
				c0.176-0.165,0.418-0.248,0.652-0.235c0.004,0,0.008,0,0.012,0c1.186,0,2.082-0.901,2.082-2.008c0-0.483,0.392-0.875,0.875-0.875
				s0.875,0.392,0.875,0.875c0,1.11,0.902,2.013,2.014,2.013c1.111,0,2.014-0.902,2.014-2.013c0-0.483,0.392-0.875,0.875-0.875
				c0.483,0,0.875,0.392,0.875,0.875c0,1.11,0.902,2.013,2.013,2.013c1.11,0,2.013-0.902,2.013-2.013
				c0-0.483,0.393-0.875,0.875-0.875c0.483,0,0.875,0.392,0.875,0.875c0,1.11,0.902,2.013,2.014,2.013
				c1.111,0,2.014-0.902,2.014-2.013c0-0.483,0.392-0.875,0.875-0.875c0.483,0,0.875,0.392,0.875,0.875
				c0,1.11,0.902,2.013,2.014,2.013c0.231-0.014,0.516,0.067,0.692,0.233c0.176,0.165,0.314,0.393,0.314,0.635v11.548
				C27.876,30.228,27.484,30.62,27.001,30.62z M4.503,28.87h21.624v-9.864c-0.857-0.172-1.608-0.635-2.147-1.281
				c-0.69,0.827-1.729,1.354-2.889,1.354c-1.159,0-2.198-0.527-2.889-1.354c-0.69,0.827-1.729,1.354-2.888,1.354
				c-1.159,0-2.197-0.527-2.888-1.354c-0.69,0.827-1.729,1.354-2.889,1.354s-2.198-0.527-2.889-1.354
				c-0.539,0.646-1.291,1.109-2.148,1.281V28.87z"/>
		</g>
		<g>
			<path style="fill:#010002;" d="M26.869,19.079c-1.159,0-2.198-0.527-2.889-1.354c-0.69,0.827-1.729,1.354-2.889,1.354
				c-1.159,0-2.198-0.527-2.889-1.354c-0.69,0.827-1.729,1.354-2.888,1.354c-1.159,0-2.197-0.527-2.888-1.354
				c-0.69,0.827-1.729,1.354-2.889,1.354s-2.198-0.527-2.889-1.354c-0.69,0.827-1.73,1.354-2.889,1.354
				c-0.02,0-0.137-0.005-0.158-0.007C1.576,18.978,0,17.329,0,15.316c0-0.507,0.101-1,0.299-1.466L3.168,0.7
				c0.087-0.401,0.443-0.688,0.855-0.688h22.586c0.411,0,0.768,0.287,0.855,0.688l2.868,13.15c0.198,0.469,0.299,0.961,0.299,1.466
				c0,2.013-1.577,3.662-3.59,3.755C26.976,19.075,26.922,19.079,26.869,19.079z M4.727,1.761L1.989,14.308
				c-0.014,0.061-0.033,0.119-0.059,0.176c-0.12,0.265-0.181,0.544-0.181,0.832c0,1.076,0.842,1.958,1.918,2.007l0.068,0.881
				l0.03-0.874c1.106-0.001,2.009-0.903,2.009-2.014c0-0.483,0.392-0.875,0.875-0.875s0.875,0.392,0.875,0.875
				c0,1.11,0.902,2.013,2.014,2.013c1.111,0,2.014-0.902,2.014-2.013c0-0.483,0.392-0.875,0.875-0.875
				c0.483,0,0.875,0.392,0.875,0.875c0,1.11,0.902,2.013,2.013,2.013c1.11,0,2.013-0.902,2.013-2.013
				c0-0.483,0.393-0.875,0.875-0.875c0.483,0,0.875,0.392,0.875,0.875c0,1.11,0.902,2.013,2.014,2.013
				c1.111,0,2.014-0.902,2.014-2.013c0-0.483,0.392-0.875,0.875-0.875c0.483,0,0.875,0.392,0.875,0.875
				c0,1.11,0.902,2.013,2.014,2.013v0.031l0.132,0.837l-0.039-0.874c1.077-0.049,1.92-0.931,1.92-2.007
				c0-0.286-0.062-0.566-0.182-0.833c-0.025-0.057-0.046-0.115-0.059-0.175L25.904,1.761H4.727z"/>
		</g>
	</g>
	<g>
		<path style="fill:#010002;" d="M6.651,16.19c-0.029,0-0.059-0.001-0.088-0.004c-0.48-0.049-0.831-0.477-0.783-0.958l1.45-14.43
			C7.278,0.317,7.72-0.027,8.189,0.016c0.48,0.049,0.83,0.478,0.782,0.958l-1.45,14.429C7.476,15.854,7.095,16.19,6.651,16.19z"/>
	</g>
	<g>
		<path style="fill:#010002;" d="M12.428,16.19c-0.007,0-0.014,0-0.021,0c-0.483-0.012-0.864-0.412-0.853-0.896l0.351-14.43
			c0.013-0.481,0.384-0.846,0.896-0.853c0.483,0.011,0.865,0.412,0.853,0.896l-0.351,14.429C13.29,15.812,12.901,16.19,12.428,16.19
			z"/>
	</g>
	<g>
		<path style="fill:#010002;" d="M23.979,16.19c-0.443,0-0.824-0.336-0.869-0.787L21.659,0.974c-0.048-0.48,0.302-0.909,0.782-0.958
			c0.472-0.044,0.91,0.301,0.958,0.782l1.451,14.43c0.048,0.481-0.303,0.909-0.783,0.958C24.038,16.189,24.009,16.19,23.979,16.19z"
			/>
	</g>
	<g>
		<path style="fill:#010002;" d="M18.203,16.19c-0.474,0-0.862-0.378-0.874-0.854L16.979,0.908
			c-0.013-0.483,0.369-0.885,0.853-0.896c0.007,0,0.015-0.001,0.021-0.001c0.474,0,0.862,0.378,0.874,0.854l0.351,14.43
			c0.013,0.483-0.369,0.884-0.853,0.896C18.217,16.19,18.21,16.19,18.203,16.19z"/>
	</g>
	<g>
		<path style="fill:#010002;" d="M22.807,30.62H16.86c-0.483,0-0.875-0.392-0.875-0.875v-8.162c0-0.482,0.392-0.875,0.875-0.875
			h5.946c0.483,0,0.875,0.393,0.875,0.875v8.162C23.682,30.228,23.29,30.62,22.807,30.62z M17.735,28.87h4.196v-6.412h-4.196V28.87z
			"/>
	</g>
	<g>
		<path style="fill:#010002;" d="M13.713,27.705H6.65c-0.483,0-0.875-0.392-0.875-0.875v-5.247c0-0.482,0.392-0.875,0.875-0.875
			h7.062c0.482,0,0.875,0.393,0.875,0.875v5.247C14.588,27.313,14.195,27.705,13.713,27.705z M7.525,25.955h5.312v-3.497H7.525
			V25.955z"/>
	</g>
</g>
<g>
</g>
<g>
</g>
<g>
</g>
<g>
</g>
<g>
</g>
<g>
</g>
<g>
</g>
<g>
</g>
<g>
</g>
<g>
</g>
<g>
</g>
<g>
</g>
<g>
</g>
<g>
</g>
<g>
</g>
</svg>
