M48
; DRILL file {KiCad 9.0.4} date 2026-03-19T16:20:16+0900
; FORMAT={-:-/ absolute / metric / decimal}
; #@! TF.CreationDate,2026-03-19T16:20:16+09:00
; #@! TF.GenerationSoftware,Kicad,Pcbnew,9.0.4
; #@! TF.FileFunction,Plated,1,2,PTH
FMAT,2
METRIC
; #@! TA.AperFunction,Plated,PTH,ComponentDrill
T1C0.900
; #@! TA.AperFunction,Plated,PTH,ViaDrill
T2C1.000
; #@! TA.AperFunction,Plated,PTH,ComponentDrill
T3C1.000
; #@! TA.AperFunction,Plated,PTH,ComponentDrill
T4C1.300
; #@! TA.AperFunction,Plated,PTH,ComponentDrill
T5C1.753
; #@! TA.AperFunction,Plated,PTH,ComponentDrill
T6C2.500
; #@! TA.AperFunction,Plated,PTH,ViaDrill
T7C3.000
%
G90
G05
T1
X123.73Y-48.5
X123.75Y-84.3
X126.27Y-48.5
X126.29Y-84.3
X192.71Y-84.3
X192.73Y-48.55
X195.25Y-84.3
X195.27Y-48.55
T2
X133.5Y-47.0
X138.0Y-51.0
X141.25Y-91.5
X150.0Y-75.0
X154.0Y-92.0
X158.27Y-54.98
X190.0Y-55.75
T3
X132.22Y-54.36
X132.22Y-95.0
X150.0Y-54.36
X150.0Y-95.0
X167.0Y-47.38
X167.0Y-49.92
X167.0Y-52.46
X167.0Y-55.0
X167.0Y-57.54
X167.0Y-60.08
X167.0Y-62.62
X171.5Y-76.65
X171.5Y-79.19
X171.5Y-81.73
X171.5Y-84.27
X171.5Y-86.81
X171.5Y-89.35
X171.525Y-76.675
X171.525Y-79.215
X171.525Y-81.755
X171.525Y-84.295
X171.525Y-86.835
X171.525Y-89.375
X183.0Y-47.3
X183.0Y-49.84
X183.0Y-52.38
X183.0Y-54.92
X183.0Y-57.46
X183.0Y-60.0
X183.0Y-62.54
X185.47Y-81.2
X185.47Y-84.7
X195.5Y-59.96
X195.5Y-62.5
T4
X199.933Y-47.0
X199.933Y-59.2
X205.933Y-61.2
X211.933Y-47.0
X211.933Y-59.2
T5
X119.344Y-70.685
X119.344Y-74.645
X119.344Y-78.605
X119.344Y-82.565
X119.344Y-86.525
X202.656Y-70.475
X202.656Y-74.435
X202.656Y-78.395
X202.656Y-82.355
X202.656Y-86.315
T6
X171.5Y-72.84
X171.5Y-93.16
X186.74Y-72.84
X186.74Y-93.16
T7
X122.5Y-93.0
X159.5Y-48.5
X198.5Y-93.0
T3
G00X159.05Y-83.5
M15
G01X161.65Y-83.5
M16
G05
G00X159.25Y-89.8
M15
G01X161.45Y-89.8
M16
G05
G00X165.15Y-85.3
M15
G01X165.15Y-87.5
M16
G05
M30
