%TF.GenerationSoftware,KiCad,Pcbnew,9.0.4*%
%TF.CreationDate,2026-03-19T16:20:11+09:00*%
%TF.ProjectId,meshlite,6d657368-6c69-4746-952e-6b696361645f,rev?*%
%TF.SameCoordinates,Original*%
%TF.FileFunction,Copper,L2,Bot*%
%TF.FilePolarity,Positive*%
%FSLAX46Y46*%
G04 Gerber Fmt 4.6, Leading zero omitted, Abs format (unit mm)*
G04 Created by KiCad (PCBNEW 9.0.4) date 2026-03-19 16:20:11*
%MOMM*%
%LPD*%
G01*
G04 APERTURE LIST*
G04 Aperture macros list*
%AMRoundRect*
0 Rectangle with rounded corners*
0 $1 Rounding radius*
0 $2 $3 $4 $5 $6 $7 $8 $9 X,Y pos of 4 corners*
0 Add a 4 corners polygon primitive as box body*
4,1,4,$2,$3,$4,$5,$6,$7,$8,$9,$2,$3,0*
0 Add four circle primitives for the rounded corners*
1,1,$1+$1,$2,$3*
1,1,$1+$1,$4,$5*
1,1,$1+$1,$6,$7*
1,1,$1+$1,$8,$9*
0 Add four rect primitives between the rounded corners*
20,1,$1+$1,$2,$3,$4,$5,0*
20,1,$1+$1,$4,$5,$6,$7,0*
20,1,$1+$1,$6,$7,$8,$9,0*
20,1,$1+$1,$8,$9,$2,$3,0*%
G04 Aperture macros list end*
%TA.AperFunction,ComponentPad*%
%ADD10O,4.400000X2.200000*%
%TD*%
%TA.AperFunction,ComponentPad*%
%ADD11O,4.000000X2.000000*%
%TD*%
%TA.AperFunction,ComponentPad*%
%ADD12O,2.000000X4.000000*%
%TD*%
%TA.AperFunction,ComponentPad*%
%ADD13R,1.700000X1.700000*%
%TD*%
%TA.AperFunction,ComponentPad*%
%ADD14C,1.700000*%
%TD*%
%TA.AperFunction,ComponentPad*%
%ADD15R,1.800000X1.800000*%
%TD*%
%TA.AperFunction,ComponentPad*%
%ADD16C,1.800000*%
%TD*%
%TA.AperFunction,ComponentPad*%
%ADD17R,2.540000X2.540000*%
%TD*%
%TA.AperFunction,ComponentPad*%
%ADD18C,2.540000*%
%TD*%
%TA.AperFunction,ComponentPad*%
%ADD19R,1.778000X1.778000*%
%TD*%
%TA.AperFunction,ComponentPad*%
%ADD20C,1.778000*%
%TD*%
%TA.AperFunction,ComponentPad*%
%ADD21C,3.200000*%
%TD*%
%TA.AperFunction,ComponentPad*%
%ADD22C,2.184400*%
%TD*%
%TA.AperFunction,ComponentPad*%
%ADD23C,2.260600*%
%TD*%
%TA.AperFunction,ComponentPad*%
%ADD24C,2.400000*%
%TD*%
%TA.AperFunction,ComponentPad*%
%ADD25RoundRect,0.250000X1.000000X1.000000X-1.000000X1.000000X-1.000000X-1.000000X1.000000X-1.000000X0*%
%TD*%
%TA.AperFunction,ViaPad*%
%ADD26C,2.500000*%
%TD*%
%TA.AperFunction,ViaPad*%
%ADD27C,5.000000*%
%TD*%
%TA.AperFunction,Conductor*%
%ADD28C,1.000000*%
%TD*%
%TA.AperFunction,Conductor*%
%ADD29C,1.500000*%
%TD*%
%TA.AperFunction,Conductor*%
%ADD30C,0.800000*%
%TD*%
%TA.AperFunction,Conductor*%
%ADD31C,2.500000*%
%TD*%
G04 APERTURE END LIST*
D10*
%TO.P,J1,1*%
%TO.N,Net-(J6-Pin_6)*%
X160350000Y-83500000D03*
D11*
%TO.P,J1,2*%
%TO.N,GND*%
X160350000Y-89800000D03*
D12*
%TO.P,J1,3*%
X165150000Y-86400000D03*
%TD*%
D13*
%TO.P,J6,1,Pin_1*%
%TO.N,+5V*%
X171525000Y-76675000D03*
D14*
%TO.P,J6,2,Pin_2*%
%TO.N,GND*%
X171525000Y-79215000D03*
%TO.P,J6,3,Pin_3*%
%TO.N,Net-(J4-Pin_6)*%
X171525000Y-81755000D03*
%TO.P,J6,4,Pin_4*%
%TO.N,Net-(J4-Pin_5)*%
X171525000Y-84295000D03*
%TO.P,J6,5,Pin_5*%
%TO.N,Net-(J6-Pin_5)*%
X171525000Y-86835000D03*
%TO.P,J6,6,Pin_6*%
%TO.N,Net-(J6-Pin_6)*%
X171525000Y-89375000D03*
%TD*%
D13*
%TO.P,J5,1,Pin_1*%
%TO.N,unconnected-(J5-Pin_1-Pad1)*%
X183000000Y-62540000D03*
D14*
%TO.P,J5,2,Pin_2*%
%TO.N,unconnected-(J5-Pin_2-Pad2)*%
X183000000Y-60000000D03*
%TO.P,J5,3,Pin_3*%
%TO.N,/RELAY_ON*%
X183000000Y-57460000D03*
%TO.P,J5,4,Pin_4*%
%TO.N,unconnected-(J5-Pin_4-Pad4)*%
X183000000Y-54920000D03*
%TO.P,J5,5,Pin_5*%
%TO.N,unconnected-(J5-Pin_5-Pad5)*%
X183000000Y-52380000D03*
%TO.P,J5,6,Pin_6*%
%TO.N,GND*%
X183000000Y-49840000D03*
%TO.P,J5,7,Pin_7*%
%TO.N,+5V*%
X183000000Y-47300000D03*
%TD*%
D15*
%TO.P,D1,1,K*%
%TO.N,GND*%
X123730000Y-48500000D03*
D16*
%TO.P,D1,2,A*%
%TO.N,Net-(D1-A)*%
X126270000Y-48500000D03*
%TD*%
D13*
%TO.P,J4,1,Pin_1*%
%TO.N,A0*%
X167000000Y-47380000D03*
D14*
%TO.P,J4,2,Pin_2*%
%TO.N,Net-(J4-Pin_2)*%
X167000000Y-49920000D03*
%TO.P,J4,3,Pin_3*%
%TO.N,Net-(J4-Pin_3)*%
X167000000Y-52460000D03*
%TO.P,J4,4,Pin_4*%
%TO.N,Net-(J4-Pin_4)*%
X167000000Y-55000000D03*
%TO.P,J4,5,Pin_5*%
%TO.N,Net-(J4-Pin_5)*%
X167000000Y-57540000D03*
%TO.P,J4,6,Pin_6*%
%TO.N,Net-(J4-Pin_6)*%
X167000000Y-60080000D03*
%TO.P,J4,7,Pin_7*%
%TO.N,unconnected-(J4-Pin_7-Pad7)*%
X167000000Y-62620000D03*
%TD*%
D15*
%TO.P,D2,1,K*%
%TO.N,/LED-C-LMP1*%
X195270000Y-48550000D03*
D16*
%TO.P,D2,2,A*%
%TO.N,/LED-A-LMP1*%
X192730000Y-48550000D03*
%TD*%
D13*
%TO.P,J7,1,Pin_1*%
%TO.N,Net-(J6-Pin_5)*%
X195500000Y-59960000D03*
D14*
%TO.P,J7,2,Pin_2*%
%TO.N,/24VDC-IN*%
X195500000Y-62500000D03*
%TD*%
D17*
%TO.P,U3,1,Vin*%
%TO.N,Net-(J6-Pin_6)*%
X150000000Y-54360000D03*
D18*
%TO.P,U3,2,GND*%
%TO.N,GND*%
X132220000Y-54360000D03*
%TO.P,U3,3,GND*%
X132220000Y-95000000D03*
%TO.P,U3,4,Vout*%
%TO.N,+5V*%
X150000000Y-95000000D03*
%TD*%
D19*
%TO.P,U2,1,VCC*%
%TO.N,+5V*%
X171500000Y-76650000D03*
D20*
%TO.P,U2,2,GND*%
%TO.N,GND*%
X171500000Y-79190000D03*
%TO.P,U2,3,SCL*%
%TO.N,Net-(J4-Pin_6)*%
X171500000Y-81730000D03*
%TO.P,U2,4,SDA*%
%TO.N,Net-(J4-Pin_5)*%
X171500000Y-84270000D03*
%TO.P,U2,5,VIN-*%
%TO.N,Net-(J6-Pin_5)*%
X171500000Y-86810000D03*
%TO.P,U2,6,VIN+*%
%TO.N,Net-(J6-Pin_6)*%
X171500000Y-89350000D03*
D21*
%TO.P,U2,SH1,SHIELD*%
%TO.N,Net-(U2-SHIELD-PadSH1)*%
X186740000Y-72840000D03*
%TO.P,U2,SH2,SHIELD*%
X186740000Y-93160000D03*
%TO.P,U2,SH3,SHIELD*%
X171500000Y-72840000D03*
%TO.P,U2,SH4,SHIELD*%
X171500000Y-93160000D03*
D22*
%TO.P,U2,VIN+,VIN+*%
%TO.N,Net-(J6-Pin_6)*%
X185470000Y-84700000D03*
%TO.P,U2,VIN-,VIN-*%
%TO.N,Net-(J6-Pin_5)*%
X185470000Y-81200000D03*
%TD*%
D23*
%TO.P,J3,1,1*%
%TO.N,/24VDC-IN*%
X119344401Y-70684900D03*
%TO.P,J3,2,2*%
%TO.N,GND*%
X119344401Y-74644900D03*
%TO.P,J3,3,3*%
%TO.N,/PGND*%
X119344401Y-78604900D03*
%TO.P,J3,4,4*%
%TO.N,/LED-C-LMP1*%
X119344401Y-82564899D03*
%TO.P,J3,5,5*%
%TO.N,/LED-A-LMP1*%
X119344401Y-86524899D03*
%TD*%
%TO.P,J2,1,1*%
%TO.N,/24VDC-IN*%
X202655600Y-86315100D03*
%TO.P,J2,2,2*%
%TO.N,GND*%
X202655600Y-82355100D03*
%TO.P,J2,3,3*%
%TO.N,/PGND*%
X202655600Y-78395100D03*
%TO.P,J2,4,4*%
%TO.N,/LED-C-LMP2*%
X202655600Y-74435101D03*
%TO.P,J2,5,5*%
%TO.N,/LED-A-LMP2*%
X202655600Y-70475101D03*
%TD*%
D15*
%TO.P,D4,1,K*%
%TO.N,/LED-C-LMP2*%
X195250000Y-84300000D03*
D16*
%TO.P,D4,2,A*%
%TO.N,/LED-A-LMP2*%
X192710000Y-84300000D03*
%TD*%
D24*
%TO.P,K2,11*%
%TO.N,/24VDC-IN*%
X205932500Y-61200000D03*
%TO.P,K2,12*%
%TO.N,unconnected-(K2-Pad12)*%
X199932500Y-47000000D03*
%TO.P,K2,14*%
%TO.N,Net-(J6-Pin_5)*%
X211932500Y-47000000D03*
D25*
%TO.P,K2,A1*%
%TO.N,+5V*%
X211932500Y-59200000D03*
D24*
%TO.P,K2,A2*%
%TO.N,Net-(D6-A)*%
X199932500Y-59200000D03*
%TD*%
D15*
%TO.P,D3,1,K*%
%TO.N,GND*%
X123750000Y-84300000D03*
D16*
%TO.P,D3,2,A*%
%TO.N,Net-(D3-A)*%
X126290000Y-84300000D03*
%TD*%
D26*
%TO.N,Net-(D3-A)*%
X158270000Y-54980000D03*
D27*
%TO.N,/PGND*%
X159500000Y-48500000D03*
D26*
X154000000Y-92000000D03*
D27*
X198500000Y-93000000D03*
D26*
X133500000Y-47000000D03*
X141250000Y-91500000D03*
D27*
X122500000Y-93000000D03*
D26*
%TO.N,/24VDC-IN*%
X138000000Y-51000000D03*
%TO.N,Net-(J6-Pin_5)*%
X190000000Y-55750000D03*
%TO.N,+5V*%
X150000000Y-75000000D03*
%TD*%
D28*
%TO.N,GND*%
X131750000Y-87500000D02*
X132220000Y-87030000D01*
D29*
X165250000Y-79215000D02*
X140035000Y-79215000D01*
D28*
X123750000Y-86250000D02*
X125000000Y-87500000D01*
D29*
X140035000Y-79215000D02*
X132220000Y-87030000D01*
D28*
X123750000Y-84300000D02*
X123750000Y-86250000D01*
D29*
X165150000Y-79315000D02*
X165250000Y-79215000D01*
X122855100Y-74644900D02*
X119344401Y-74644900D01*
X161750000Y-89800000D02*
X165150000Y-86400000D01*
X165150000Y-86400000D02*
X165150000Y-79315000D01*
X132220000Y-65280000D02*
X122855100Y-74644900D01*
X132220000Y-87030000D02*
X132220000Y-95000000D01*
X132220000Y-54360000D02*
X132220000Y-65280000D01*
X171525000Y-79215000D02*
X165250000Y-79215000D01*
X160350000Y-89800000D02*
X161750000Y-89800000D01*
D28*
X125000000Y-87500000D02*
X131750000Y-87500000D01*
D30*
%TO.N,Net-(D3-A)*%
X126290000Y-84300000D02*
X135500000Y-75090000D01*
X153250000Y-49750000D02*
X158270000Y-54770000D01*
X135500000Y-75090000D02*
X135500000Y-61750000D01*
X135500000Y-61750000D02*
X147500000Y-49750000D01*
X147500000Y-49750000D02*
X153250000Y-49750000D01*
X158270000Y-54770000D02*
X158270000Y-54980000D01*
%TO.N,Net-(J4-Pin_6)*%
X174420000Y-60080000D02*
X175500000Y-61160000D01*
X175500000Y-80500000D02*
X175500000Y-61160000D01*
X174245000Y-81755000D02*
X175500000Y-80500000D01*
X171525000Y-81755000D02*
X174245000Y-81755000D01*
X174420000Y-60080000D02*
X167000000Y-60080000D01*
%TO.N,Net-(J4-Pin_5)*%
X178000000Y-60000000D02*
X175540000Y-57540000D01*
X175205000Y-84295000D02*
X178000000Y-81500000D01*
X171525000Y-84295000D02*
X175205000Y-84295000D01*
X178000000Y-81500000D02*
X178000000Y-60000000D01*
X175540000Y-57540000D02*
X167000000Y-57540000D01*
D31*
%TO.N,/PGND*%
X109000000Y-46250000D02*
X111750000Y-43500000D01*
X111250000Y-93000000D02*
X109000000Y-90750000D01*
X111750000Y-43500000D02*
X130000000Y-43500000D01*
D29*
X153500000Y-91500000D02*
X154000000Y-92000000D01*
D31*
X109395100Y-78604900D02*
X119344401Y-78604900D01*
D29*
X141250000Y-91500000D02*
X153500000Y-91500000D01*
D31*
X122500000Y-93000000D02*
X111250000Y-93000000D01*
X130000000Y-43500000D02*
X133500000Y-47000000D01*
X109000000Y-79000000D02*
X109395100Y-78604900D01*
X109000000Y-90750000D02*
X109000000Y-79000000D01*
X109000000Y-79000000D02*
X109000000Y-46250000D01*
D29*
%TO.N,/24VDC-IN*%
X205932500Y-85067500D02*
X204684900Y-86315100D01*
X138000000Y-51000000D02*
X146750000Y-42250000D01*
X204684900Y-86315100D02*
X202655600Y-86315100D01*
X203500000Y-42250000D02*
X205932500Y-44682500D01*
X195500000Y-62500000D02*
X204632500Y-62500000D01*
X205932500Y-44682500D02*
X205932500Y-61200000D01*
X138000000Y-51000000D02*
X142250000Y-46750000D01*
X146750000Y-42250000D02*
X203500000Y-42250000D01*
X205932500Y-61200000D02*
X205932500Y-85067500D01*
X204632500Y-62500000D02*
X205932500Y-61200000D01*
%TO.N,Net-(J6-Pin_5)*%
X182500000Y-69000000D02*
X190000000Y-61500000D01*
X182500000Y-78230000D02*
X182500000Y-69000000D01*
X190000000Y-61500000D02*
X190000000Y-55750000D01*
X185470000Y-81200000D02*
X182500000Y-78230000D01*
%TO.N,+5V*%
X151650000Y-76650000D02*
X171500000Y-76650000D01*
D30*
X210500000Y-68500000D02*
X212000000Y-67000000D01*
D29*
X150000000Y-75000000D02*
X151650000Y-76650000D01*
D30*
X209000000Y-96500000D02*
X210500000Y-95000000D01*
X212000000Y-67000000D02*
X212000000Y-59267500D01*
D29*
X165750000Y-95000000D02*
X167250000Y-96500000D01*
D30*
X212000000Y-59267500D02*
X211932500Y-59200000D01*
D29*
X150000000Y-95000000D02*
X165750000Y-95000000D01*
X167250000Y-96500000D02*
X191750000Y-96500000D01*
D30*
X191750000Y-96500000D02*
X209000000Y-96500000D01*
X210500000Y-95000000D02*
X210500000Y-68500000D01*
%TD*%
M02*
