%TF.GenerationSoftware,KiCad,Pcbnew,10.0.1*%
%TF.CreationDate,2026-05-06T11:04:47+09:00*%
%TF.ProjectId,meshlite,6d657368-6c69-4746-952e-6b696361645f,rev?*%
%TF.SameCoordinates,Original*%
%TF.FileFunction,Legend,Top*%
%TF.FilePolarity,Positive*%
%FSLAX46Y46*%
G04 Gerber Fmt 4.6, Leading zero omitted, Abs format (unit mm)*
G04 Created by KiCad (PCBNEW 10.0.1) date 2026-05-06 11:04:47*
%MOMM*%
%LPD*%
G01*
G04 APERTURE LIST*
%ADD10C,0.150000*%
%ADD11C,0.300000*%
%ADD12C,0.200000*%
%ADD13C,0.100000*%
%ADD14C,0.120000*%
%ADD15C,0.127000*%
%ADD16C,0.152400*%
%ADD17C,0.508000*%
G04 APERTURE END LIST*
D10*
G36*
X152270985Y-52237025D02*
G01*
X143613638Y-52237025D01*
X143613638Y-52050993D01*
X146390827Y-52050993D01*
X146396566Y-52079687D01*
X146412849Y-52104002D01*
X146437198Y-52120235D01*
X146465906Y-52125914D01*
X146494600Y-52120175D01*
X146518915Y-52103892D01*
X146528231Y-52092516D01*
X146724450Y-51798187D01*
X147487506Y-51798187D01*
X147487506Y-51827451D01*
X147498705Y-51854487D01*
X147519397Y-51875179D01*
X147546433Y-51886378D01*
X147561065Y-51887819D01*
X148180112Y-51887819D01*
X148194744Y-51886378D01*
X148221780Y-51875179D01*
X148242472Y-51854487D01*
X148253671Y-51827451D01*
X148253671Y-51798187D01*
X148242472Y-51771151D01*
X148221780Y-51750459D01*
X148194744Y-51739260D01*
X148180112Y-51737819D01*
X147742131Y-51737819D01*
X148009844Y-51470105D01*
X148486654Y-51470105D01*
X148487506Y-51482090D01*
X148487506Y-51494117D01*
X148488538Y-51496608D01*
X148488729Y-51499295D01*
X148494103Y-51510044D01*
X148498705Y-51521153D01*
X148500610Y-51523058D01*
X148501815Y-51525468D01*
X148510897Y-51533345D01*
X148519397Y-51541845D01*
X148521885Y-51542875D01*
X148523922Y-51544642D01*
X148535325Y-51548443D01*
X148546433Y-51553044D01*
X148550259Y-51553420D01*
X148551685Y-51553896D01*
X148553659Y-51553755D01*
X148561065Y-51554485D01*
X148962255Y-51554485D01*
X148962255Y-51812819D01*
X148963696Y-51827451D01*
X148974895Y-51854487D01*
X148995587Y-51875179D01*
X149022623Y-51886378D01*
X149051887Y-51886378D01*
X149078923Y-51875179D01*
X149099615Y-51854487D01*
X149110814Y-51827451D01*
X149112255Y-51812819D01*
X149112255Y-51554485D01*
X149180112Y-51554485D01*
X149194744Y-51553044D01*
X149221780Y-51541845D01*
X149242472Y-51521153D01*
X149253671Y-51494117D01*
X149253671Y-51464853D01*
X149242472Y-51437817D01*
X149221780Y-51417125D01*
X149194744Y-51405926D01*
X149180112Y-51404485D01*
X149112255Y-51404485D01*
X149112255Y-51146152D01*
X149110814Y-51131520D01*
X149099615Y-51104484D01*
X149078923Y-51083792D01*
X149051887Y-51072593D01*
X149022623Y-51072593D01*
X148995587Y-51083792D01*
X148974895Y-51104484D01*
X148963696Y-51131520D01*
X148962255Y-51146152D01*
X148962255Y-51404485D01*
X148665122Y-51404485D01*
X148859217Y-50822199D01*
X149343797Y-50822199D01*
X149347057Y-50836536D01*
X149680390Y-51836536D01*
X149686384Y-51849961D01*
X149689894Y-51854008D01*
X149692291Y-51858802D01*
X149699399Y-51864967D01*
X149705558Y-51872068D01*
X149710347Y-51874462D01*
X149714398Y-51877976D01*
X149723323Y-51880950D01*
X149731731Y-51885155D01*
X149737075Y-51885534D01*
X149742161Y-51887230D01*
X149751541Y-51886563D01*
X149760921Y-51887230D01*
X149766006Y-51885534D01*
X149771351Y-51885155D01*
X149779761Y-51880949D01*
X149788683Y-51877976D01*
X149792730Y-51874465D01*
X149797524Y-51872069D01*
X149803687Y-51864963D01*
X149810791Y-51858802D01*
X149813186Y-51854010D01*
X149816698Y-51849962D01*
X149822692Y-51836536D01*
X150052820Y-51146152D01*
X151105113Y-51146152D01*
X151105113Y-51812819D01*
X151106554Y-51827451D01*
X151117753Y-51854487D01*
X151138445Y-51875179D01*
X151165481Y-51886378D01*
X151194745Y-51886378D01*
X151221781Y-51875179D01*
X151242473Y-51854487D01*
X151253672Y-51827451D01*
X151255113Y-51812819D01*
X151255113Y-51146152D01*
X151581303Y-51146152D01*
X151581303Y-51812819D01*
X151582744Y-51827451D01*
X151593943Y-51854487D01*
X151614635Y-51875179D01*
X151641671Y-51886378D01*
X151670935Y-51886378D01*
X151697971Y-51875179D01*
X151718663Y-51854487D01*
X151729862Y-51827451D01*
X151731303Y-51812819D01*
X151731303Y-51272456D01*
X151748349Y-51255410D01*
X151816865Y-51221152D01*
X151924312Y-51221152D01*
X151981353Y-51249672D01*
X152009874Y-51306714D01*
X152009874Y-51812819D01*
X152011315Y-51827451D01*
X152022514Y-51854487D01*
X152043206Y-51875179D01*
X152070242Y-51886378D01*
X152099506Y-51886378D01*
X152126542Y-51875179D01*
X152147234Y-51854487D01*
X152158433Y-51827451D01*
X152159874Y-51812819D01*
X152159874Y-51289009D01*
X152158433Y-51274377D01*
X152157402Y-51271888D01*
X152157211Y-51269199D01*
X152151956Y-51255468D01*
X152104337Y-51160230D01*
X152102796Y-51157782D01*
X152102412Y-51156629D01*
X152101166Y-51155192D01*
X152096505Y-51147787D01*
X152089400Y-51141625D01*
X152083239Y-51134521D01*
X152075833Y-51129859D01*
X152074397Y-51128614D01*
X152073243Y-51128229D01*
X152070796Y-51126689D01*
X151975558Y-51079070D01*
X151961826Y-51073815D01*
X151959138Y-51073624D01*
X151956649Y-51072593D01*
X151942017Y-51071152D01*
X151799160Y-51071152D01*
X151784528Y-51072593D01*
X151782039Y-51073623D01*
X151779350Y-51073815D01*
X151765619Y-51079070D01*
X151717372Y-51103193D01*
X151697971Y-51083792D01*
X151670935Y-51072593D01*
X151641671Y-51072593D01*
X151614635Y-51083792D01*
X151593943Y-51104484D01*
X151582744Y-51131520D01*
X151581303Y-51146152D01*
X151255113Y-51146152D01*
X151253672Y-51131520D01*
X151242473Y-51104484D01*
X151221781Y-51083792D01*
X151194745Y-51072593D01*
X151165481Y-51072593D01*
X151138445Y-51083792D01*
X151117753Y-51104484D01*
X151106554Y-51131520D01*
X151105113Y-51146152D01*
X150052820Y-51146152D01*
X150152935Y-50845807D01*
X151058935Y-50845807D01*
X151058935Y-50875069D01*
X151070134Y-50902106D01*
X151079461Y-50913471D01*
X151127080Y-50961090D01*
X151138445Y-50970417D01*
X151165481Y-50981616D01*
X151165482Y-50981616D01*
X151194744Y-50981616D01*
X151194745Y-50981616D01*
X151221781Y-50970417D01*
X151233146Y-50961090D01*
X151280765Y-50913471D01*
X151290092Y-50902106D01*
X151301291Y-50875070D01*
X151301291Y-50845807D01*
X151293688Y-50827451D01*
X151290092Y-50818770D01*
X151280765Y-50807405D01*
X151233146Y-50759786D01*
X151221781Y-50750459D01*
X151194745Y-50739260D01*
X151194744Y-50739260D01*
X151165481Y-50739260D01*
X151138445Y-50750459D01*
X151127080Y-50759786D01*
X151079461Y-50807405D01*
X151070134Y-50818770D01*
X151058935Y-50845807D01*
X150152935Y-50845807D01*
X150156025Y-50836536D01*
X150159285Y-50822200D01*
X150157210Y-50793010D01*
X150144124Y-50766836D01*
X150122016Y-50747662D01*
X150094254Y-50738408D01*
X150065064Y-50740483D01*
X150038891Y-50753570D01*
X150019717Y-50775677D01*
X150013723Y-50789102D01*
X149751541Y-51575648D01*
X149489359Y-50789102D01*
X149483365Y-50775676D01*
X149464191Y-50753569D01*
X149438018Y-50740483D01*
X149408828Y-50738408D01*
X149381065Y-50747662D01*
X149358958Y-50766836D01*
X149345872Y-50793009D01*
X149343797Y-50822199D01*
X148859217Y-50822199D01*
X148870311Y-50788918D01*
X148873571Y-50774581D01*
X148871496Y-50745391D01*
X148858410Y-50719217D01*
X148836302Y-50700043D01*
X148808540Y-50690789D01*
X148779350Y-50692864D01*
X148753177Y-50705951D01*
X148734003Y-50728058D01*
X148728009Y-50741483D01*
X148489914Y-51455768D01*
X148488264Y-51463021D01*
X148487506Y-51464853D01*
X148487506Y-51466358D01*
X148486654Y-51470105D01*
X148009844Y-51470105D01*
X148185526Y-51294423D01*
X148194854Y-51283058D01*
X148195885Y-51280567D01*
X148197650Y-51278533D01*
X148203644Y-51265107D01*
X148251263Y-51122251D01*
X148252912Y-51114995D01*
X148253671Y-51113165D01*
X148253932Y-51110511D01*
X148254523Y-51107914D01*
X148254382Y-51105939D01*
X148255112Y-51098533D01*
X148255112Y-51003295D01*
X148253671Y-50988663D01*
X148252640Y-50986174D01*
X148252449Y-50983485D01*
X148247194Y-50969754D01*
X148199575Y-50874516D01*
X148195610Y-50868216D01*
X148194853Y-50866389D01*
X148193164Y-50864332D01*
X148191743Y-50862073D01*
X148190244Y-50860773D01*
X148185526Y-50855024D01*
X148137907Y-50807405D01*
X148132157Y-50802686D01*
X148130858Y-50801188D01*
X148128598Y-50799766D01*
X148126542Y-50798078D01*
X148124714Y-50797320D01*
X148118415Y-50793356D01*
X148023177Y-50745737D01*
X148009445Y-50740482D01*
X148006757Y-50740291D01*
X148004268Y-50739260D01*
X147989636Y-50737819D01*
X147751541Y-50737819D01*
X147736909Y-50739260D01*
X147734420Y-50740290D01*
X147731731Y-50740482D01*
X147718000Y-50745737D01*
X147622762Y-50793356D01*
X147616462Y-50797320D01*
X147614635Y-50798078D01*
X147612578Y-50799766D01*
X147610319Y-50801188D01*
X147609019Y-50802686D01*
X147603270Y-50807405D01*
X147555651Y-50855024D01*
X147546324Y-50866389D01*
X147535125Y-50893426D01*
X147535125Y-50922688D01*
X147546324Y-50949725D01*
X147567016Y-50970417D01*
X147594053Y-50981616D01*
X147623315Y-50981616D01*
X147650352Y-50970417D01*
X147661717Y-50961090D01*
X147700730Y-50922077D01*
X147769246Y-50887819D01*
X147971931Y-50887819D01*
X148040447Y-50922077D01*
X148070854Y-50952484D01*
X148105112Y-51021000D01*
X148105112Y-51086363D01*
X148066940Y-51200876D01*
X147508032Y-51759786D01*
X147498705Y-51771151D01*
X147487506Y-51798187D01*
X146724450Y-51798187D01*
X147385373Y-50806802D01*
X147392290Y-50793828D01*
X147397969Y-50765121D01*
X147392230Y-50736426D01*
X147375947Y-50712111D01*
X147351598Y-50695878D01*
X147322890Y-50690200D01*
X147294196Y-50695939D01*
X147269881Y-50712222D01*
X147260565Y-50723597D01*
X146403423Y-52009312D01*
X146396506Y-52022285D01*
X146390827Y-52050993D01*
X143613638Y-52050993D01*
X143613638Y-51089152D01*
X143724749Y-51089152D01*
X143726823Y-51118342D01*
X143739910Y-51144517D01*
X143762018Y-51163690D01*
X143789779Y-51172944D01*
X143818969Y-51170870D01*
X143832701Y-51165615D01*
X143927939Y-51117996D01*
X143934238Y-51114031D01*
X143936066Y-51113274D01*
X143938122Y-51111585D01*
X143940382Y-51110164D01*
X143941681Y-51108665D01*
X143947431Y-51103947D01*
X144009874Y-51041504D01*
X144009874Y-51737819D01*
X143799160Y-51737819D01*
X143784528Y-51739260D01*
X143757492Y-51750459D01*
X143736800Y-51771151D01*
X143725601Y-51798187D01*
X143725601Y-51827451D01*
X143736800Y-51854487D01*
X143757492Y-51875179D01*
X143784528Y-51886378D01*
X143799160Y-51887819D01*
X144370588Y-51887819D01*
X144385220Y-51886378D01*
X144412256Y-51875179D01*
X144432948Y-51854487D01*
X144444147Y-51827451D01*
X144444147Y-51798187D01*
X144630363Y-51798187D01*
X144630363Y-51827451D01*
X144641562Y-51854487D01*
X144662254Y-51875179D01*
X144689290Y-51886378D01*
X144703922Y-51887819D01*
X145322969Y-51887819D01*
X145337601Y-51886378D01*
X145364637Y-51875179D01*
X145385329Y-51854487D01*
X145396528Y-51827451D01*
X145396528Y-51798187D01*
X145385329Y-51771151D01*
X145364637Y-51750459D01*
X145337601Y-51739260D01*
X145322969Y-51737819D01*
X144884988Y-51737819D01*
X145328383Y-51294423D01*
X145337711Y-51283058D01*
X145338742Y-51280567D01*
X145340507Y-51278533D01*
X145346501Y-51265107D01*
X145394120Y-51122251D01*
X145395769Y-51114995D01*
X145396528Y-51113165D01*
X145396789Y-51110511D01*
X145397380Y-51107914D01*
X145397239Y-51105939D01*
X145397969Y-51098533D01*
X145397969Y-51003295D01*
X145396528Y-50988663D01*
X145395497Y-50986174D01*
X145395306Y-50983485D01*
X145390051Y-50969754D01*
X145342432Y-50874516D01*
X145338467Y-50868216D01*
X145337710Y-50866389D01*
X145336021Y-50864332D01*
X145334600Y-50862073D01*
X145333101Y-50860773D01*
X145328383Y-50855024D01*
X145295558Y-50822199D01*
X145534273Y-50822199D01*
X145537533Y-50836536D01*
X145870866Y-51836536D01*
X145876860Y-51849961D01*
X145880370Y-51854008D01*
X145882767Y-51858802D01*
X145889875Y-51864967D01*
X145896034Y-51872068D01*
X145900823Y-51874462D01*
X145904874Y-51877976D01*
X145913799Y-51880950D01*
X145922207Y-51885155D01*
X145927551Y-51885534D01*
X145932637Y-51887230D01*
X145942017Y-51886563D01*
X145951397Y-51887230D01*
X145956482Y-51885534D01*
X145961827Y-51885155D01*
X145970237Y-51880949D01*
X145979159Y-51877976D01*
X145983206Y-51874465D01*
X145988000Y-51872069D01*
X145994163Y-51864963D01*
X146001267Y-51858802D01*
X146003662Y-51854010D01*
X146007174Y-51849962D01*
X146013168Y-51836536D01*
X146346501Y-50836536D01*
X146349761Y-50822200D01*
X146347686Y-50793010D01*
X146334600Y-50766836D01*
X146312492Y-50747662D01*
X146284730Y-50738408D01*
X146255540Y-50740483D01*
X146229367Y-50753570D01*
X146210193Y-50775677D01*
X146204199Y-50789102D01*
X145942017Y-51575648D01*
X145679835Y-50789102D01*
X145673841Y-50775676D01*
X145654667Y-50753569D01*
X145628494Y-50740483D01*
X145599304Y-50738408D01*
X145571541Y-50747662D01*
X145549434Y-50766836D01*
X145536348Y-50793009D01*
X145534273Y-50822199D01*
X145295558Y-50822199D01*
X145280764Y-50807405D01*
X145275014Y-50802686D01*
X145273715Y-50801188D01*
X145271455Y-50799766D01*
X145269399Y-50798078D01*
X145267571Y-50797320D01*
X145261272Y-50793356D01*
X145166034Y-50745737D01*
X145152302Y-50740482D01*
X145149614Y-50740291D01*
X145147125Y-50739260D01*
X145132493Y-50737819D01*
X144894398Y-50737819D01*
X144879766Y-50739260D01*
X144877277Y-50740290D01*
X144874588Y-50740482D01*
X144860857Y-50745737D01*
X144765619Y-50793356D01*
X144759319Y-50797320D01*
X144757492Y-50798078D01*
X144755435Y-50799766D01*
X144753176Y-50801188D01*
X144751876Y-50802686D01*
X144746127Y-50807405D01*
X144698508Y-50855024D01*
X144689181Y-50866389D01*
X144677982Y-50893426D01*
X144677982Y-50922688D01*
X144689181Y-50949725D01*
X144709873Y-50970417D01*
X144736910Y-50981616D01*
X144766172Y-50981616D01*
X144793209Y-50970417D01*
X144804574Y-50961090D01*
X144843587Y-50922077D01*
X144912103Y-50887819D01*
X145114788Y-50887819D01*
X145183304Y-50922077D01*
X145213711Y-50952484D01*
X145247969Y-51021000D01*
X145247969Y-51086363D01*
X145209797Y-51200876D01*
X144650889Y-51759786D01*
X144641562Y-51771151D01*
X144630363Y-51798187D01*
X144444147Y-51798187D01*
X144432948Y-51771151D01*
X144412256Y-51750459D01*
X144385220Y-51739260D01*
X144370588Y-51737819D01*
X144159874Y-51737819D01*
X144159874Y-50812819D01*
X144159868Y-50812766D01*
X144159874Y-50812740D01*
X144159858Y-50812663D01*
X144158433Y-50798187D01*
X144155591Y-50791326D01*
X144154135Y-50784045D01*
X144150045Y-50777938D01*
X144147234Y-50771151D01*
X144141985Y-50765902D01*
X144137852Y-50759730D01*
X144131735Y-50755652D01*
X144126542Y-50750459D01*
X144119682Y-50747617D01*
X144113503Y-50743498D01*
X144106294Y-50742072D01*
X144099506Y-50739260D01*
X144092079Y-50739260D01*
X144084795Y-50737819D01*
X144077590Y-50739260D01*
X144070242Y-50739260D01*
X144063381Y-50742101D01*
X144056101Y-50743558D01*
X144049995Y-50747646D01*
X144043206Y-50750459D01*
X144037955Y-50755709D01*
X144031786Y-50759841D01*
X144022565Y-50771099D01*
X144022514Y-50771151D01*
X144022504Y-50771173D01*
X144022470Y-50771216D01*
X143931350Y-50907896D01*
X143849971Y-50989275D01*
X143765619Y-51031451D01*
X143753176Y-51039283D01*
X143734003Y-51061391D01*
X143724749Y-51089152D01*
X143613638Y-51089152D01*
X143613638Y-50579089D01*
X152270985Y-50579089D01*
X152270985Y-52237025D01*
G37*
G36*
X153890491Y-95559930D02*
G01*
X151995399Y-95559930D01*
X151995399Y-94857249D01*
X152106510Y-94857249D01*
X152107601Y-94860864D01*
X152107601Y-94864640D01*
X152111795Y-94874765D01*
X152114963Y-94885265D01*
X152117354Y-94888188D01*
X152118800Y-94891677D01*
X152126553Y-94899430D01*
X152133494Y-94907913D01*
X152136820Y-94909697D01*
X152139492Y-94912369D01*
X152149619Y-94916564D01*
X152159281Y-94921747D01*
X152163040Y-94922122D01*
X152166529Y-94923568D01*
X152177490Y-94923568D01*
X152188400Y-94924659D01*
X152192016Y-94923568D01*
X152195791Y-94923568D01*
X152205916Y-94919373D01*
X152216416Y-94916206D01*
X152219339Y-94913814D01*
X152222828Y-94912369D01*
X152234193Y-94903042D01*
X152273206Y-94864029D01*
X152341722Y-94829771D01*
X152544407Y-94829771D01*
X152612923Y-94864029D01*
X152643330Y-94894436D01*
X152677588Y-94962952D01*
X152677588Y-95165637D01*
X152643329Y-95234153D01*
X152612922Y-95264561D01*
X152544407Y-95298819D01*
X152341722Y-95298819D01*
X152273206Y-95264561D01*
X152234194Y-95225548D01*
X152222828Y-95216220D01*
X152195792Y-95205021D01*
X152166529Y-95205021D01*
X152139493Y-95216219D01*
X152118800Y-95236912D01*
X152107601Y-95263948D01*
X152107601Y-95293211D01*
X152118799Y-95320247D01*
X152128126Y-95331612D01*
X152175745Y-95379232D01*
X152181494Y-95383950D01*
X152182795Y-95385450D01*
X152185054Y-95386872D01*
X152187111Y-95388560D01*
X152188938Y-95389317D01*
X152195238Y-95393282D01*
X152290476Y-95440901D01*
X152304207Y-95446156D01*
X152306896Y-95446347D01*
X152309385Y-95447378D01*
X152324017Y-95448819D01*
X152562112Y-95448819D01*
X152576744Y-95447378D01*
X152579233Y-95446346D01*
X152581921Y-95446156D01*
X152595653Y-95440901D01*
X152690891Y-95393282D01*
X152697190Y-95389317D01*
X152699018Y-95388560D01*
X152701074Y-95386872D01*
X152703334Y-95385450D01*
X152704634Y-95383950D01*
X152710384Y-95379232D01*
X152758002Y-95331613D01*
X152762720Y-95325863D01*
X152764219Y-95324564D01*
X152765640Y-95322305D01*
X152767330Y-95320247D01*
X152768087Y-95318417D01*
X152772051Y-95312121D01*
X152819670Y-95216883D01*
X152824925Y-95203152D01*
X152825116Y-95200462D01*
X152826147Y-95197974D01*
X152827588Y-95183342D01*
X152827588Y-94945247D01*
X152826147Y-94930615D01*
X152825116Y-94928126D01*
X152824925Y-94925437D01*
X152819670Y-94911706D01*
X152772051Y-94816468D01*
X152768086Y-94810168D01*
X152767329Y-94808341D01*
X152765640Y-94806284D01*
X152764219Y-94804025D01*
X152762720Y-94802725D01*
X152758002Y-94796976D01*
X152710383Y-94749357D01*
X152704633Y-94744638D01*
X152703334Y-94743140D01*
X152701074Y-94741718D01*
X152699018Y-94740030D01*
X152697190Y-94739272D01*
X152690891Y-94735308D01*
X152595653Y-94687689D01*
X152581921Y-94682434D01*
X152579233Y-94682243D01*
X152576744Y-94681212D01*
X152562112Y-94679771D01*
X152324017Y-94679771D01*
X152309385Y-94681212D01*
X152306896Y-94682242D01*
X152304207Y-94682434D01*
X152290476Y-94687689D01*
X152271834Y-94697009D01*
X152296653Y-94448819D01*
X152704969Y-94448819D01*
X152719601Y-94447378D01*
X152746637Y-94436179D01*
X152767329Y-94415487D01*
X152778528Y-94388451D01*
X152778528Y-94383199D01*
X152963892Y-94383199D01*
X152967152Y-94397536D01*
X153300485Y-95397536D01*
X153306479Y-95410961D01*
X153309989Y-95415008D01*
X153312386Y-95419802D01*
X153319494Y-95425967D01*
X153325653Y-95433068D01*
X153330442Y-95435462D01*
X153334493Y-95438976D01*
X153343418Y-95441950D01*
X153351826Y-95446155D01*
X153357170Y-95446534D01*
X153362256Y-95448230D01*
X153371636Y-95447563D01*
X153381016Y-95448230D01*
X153386101Y-95446534D01*
X153391446Y-95446155D01*
X153399856Y-95441949D01*
X153408778Y-95438976D01*
X153412825Y-95435465D01*
X153417619Y-95433069D01*
X153423782Y-95425963D01*
X153430886Y-95419802D01*
X153433281Y-95415010D01*
X153436793Y-95410962D01*
X153442787Y-95397536D01*
X153776120Y-94397536D01*
X153779380Y-94383200D01*
X153777305Y-94354010D01*
X153764219Y-94327836D01*
X153742111Y-94308662D01*
X153714349Y-94299408D01*
X153685159Y-94301483D01*
X153658986Y-94314570D01*
X153639812Y-94336677D01*
X153633818Y-94350102D01*
X153371636Y-95136648D01*
X153109454Y-94350102D01*
X153103460Y-94336676D01*
X153084286Y-94314569D01*
X153058113Y-94301483D01*
X153028923Y-94299408D01*
X153001160Y-94308662D01*
X152979053Y-94327836D01*
X152965967Y-94354009D01*
X152963892Y-94383199D01*
X152778528Y-94383199D01*
X152778528Y-94359187D01*
X152767329Y-94332151D01*
X152746637Y-94311459D01*
X152719601Y-94300260D01*
X152704969Y-94298819D01*
X152228779Y-94298819D01*
X152223367Y-94299351D01*
X152221539Y-94299169D01*
X152219752Y-94299707D01*
X152214147Y-94300260D01*
X152204020Y-94304454D01*
X152193523Y-94307622D01*
X152190599Y-94310013D01*
X152187111Y-94311459D01*
X152179357Y-94319212D01*
X152170875Y-94326153D01*
X152169090Y-94329479D01*
X152166419Y-94332151D01*
X152162223Y-94342280D01*
X152157041Y-94351940D01*
X152155933Y-94357464D01*
X152155220Y-94359187D01*
X152155220Y-94361023D01*
X152154151Y-94366356D01*
X152106532Y-94842546D01*
X152106510Y-94857249D01*
X151995399Y-94857249D01*
X151995399Y-94187708D01*
X153890491Y-94187708D01*
X153890491Y-95559930D01*
G37*
G36*
X168332836Y-78738990D02*
G01*
X168406949Y-78813103D01*
X168445442Y-78890090D01*
X168488826Y-79063624D01*
X168488826Y-79188013D01*
X168445442Y-79361547D01*
X168406948Y-79438534D01*
X168332836Y-79512647D01*
X168218323Y-79550819D01*
X168067398Y-79550819D01*
X168067398Y-78700819D01*
X168218323Y-78700819D01*
X168332836Y-78738990D01*
G37*
G36*
X168749937Y-79811930D02*
G01*
X165711049Y-79811930D01*
X165711049Y-79054390D01*
X165822160Y-79054390D01*
X165822160Y-79197247D01*
X165822411Y-79199800D01*
X165822249Y-79200893D01*
X165823058Y-79206366D01*
X165823601Y-79211879D01*
X165824023Y-79212900D01*
X165824399Y-79215437D01*
X165872018Y-79405913D01*
X165872403Y-79406992D01*
X165872442Y-79407532D01*
X165874769Y-79413613D01*
X165876965Y-79419759D01*
X165877287Y-79420194D01*
X165877697Y-79421264D01*
X165925316Y-79516502D01*
X165929279Y-79522798D01*
X165930037Y-79524628D01*
X165931726Y-79526686D01*
X165933148Y-79528945D01*
X165934646Y-79530244D01*
X165939365Y-79535994D01*
X166034603Y-79631233D01*
X166045968Y-79640561D01*
X166048458Y-79641592D01*
X166050493Y-79643357D01*
X166063919Y-79649351D01*
X166206775Y-79696970D01*
X166214030Y-79698619D01*
X166215861Y-79699378D01*
X166218514Y-79699639D01*
X166221112Y-79700230D01*
X166223086Y-79700089D01*
X166230493Y-79700819D01*
X166325731Y-79700819D01*
X166333136Y-79700089D01*
X166335111Y-79700230D01*
X166337708Y-79699639D01*
X166340363Y-79699378D01*
X166342194Y-79698619D01*
X166349448Y-79696970D01*
X166492305Y-79649351D01*
X166505730Y-79643357D01*
X166507765Y-79641591D01*
X166510256Y-79640560D01*
X166521622Y-79631232D01*
X166569240Y-79583613D01*
X166578568Y-79572247D01*
X166585849Y-79554668D01*
X166589766Y-79545212D01*
X166591207Y-79530580D01*
X166591207Y-79197247D01*
X166589766Y-79182615D01*
X166578567Y-79155579D01*
X166557875Y-79134887D01*
X166530839Y-79123688D01*
X166516207Y-79122247D01*
X166325731Y-79122247D01*
X166311099Y-79123688D01*
X166284063Y-79134887D01*
X166263371Y-79155579D01*
X166252172Y-79182615D01*
X166252172Y-79211879D01*
X166263371Y-79238915D01*
X166284063Y-79259607D01*
X166311099Y-79270806D01*
X166325731Y-79272247D01*
X166441207Y-79272247D01*
X166441207Y-79499514D01*
X166428074Y-79512647D01*
X166313561Y-79550819D01*
X166242663Y-79550819D01*
X166128150Y-79512648D01*
X166054037Y-79438534D01*
X166015543Y-79361547D01*
X165972160Y-79188013D01*
X165972160Y-79063624D01*
X166015543Y-78890090D01*
X166054037Y-78813103D01*
X166128150Y-78738990D01*
X166242663Y-78700819D01*
X166355645Y-78700819D01*
X166435047Y-78740520D01*
X166448778Y-78745775D01*
X166477968Y-78747849D01*
X166505730Y-78738595D01*
X166527837Y-78719422D01*
X166540925Y-78693247D01*
X166542999Y-78664057D01*
X166533745Y-78636296D01*
X166524659Y-78625819D01*
X166869779Y-78625819D01*
X166869779Y-79625819D01*
X166871220Y-79640451D01*
X166882419Y-79667487D01*
X166903111Y-79688179D01*
X166930147Y-79699378D01*
X166959411Y-79699378D01*
X166986447Y-79688179D01*
X167007139Y-79667487D01*
X167018338Y-79640451D01*
X167019779Y-79625819D01*
X167019779Y-78908235D01*
X167451089Y-79663030D01*
X167453278Y-79666114D01*
X167453847Y-79667487D01*
X167455244Y-79668884D01*
X167459599Y-79675019D01*
X167467487Y-79681127D01*
X167474539Y-79688179D01*
X167478957Y-79690009D01*
X167482737Y-79692936D01*
X167492358Y-79695560D01*
X167501575Y-79699378D01*
X167506356Y-79699378D01*
X167510968Y-79700636D01*
X167520865Y-79699378D01*
X167530839Y-79699378D01*
X167535254Y-79697548D01*
X167539998Y-79696946D01*
X167548662Y-79691995D01*
X167557875Y-79688179D01*
X167561253Y-79684800D01*
X167565407Y-79682427D01*
X167571516Y-79674537D01*
X167578567Y-79667487D01*
X167580396Y-79663070D01*
X167583324Y-79659290D01*
X167585948Y-79649666D01*
X167589766Y-79640451D01*
X167590502Y-79632968D01*
X167591024Y-79631058D01*
X167590836Y-79629582D01*
X167591207Y-79625819D01*
X167591207Y-78625819D01*
X167917398Y-78625819D01*
X167917398Y-79625819D01*
X167918839Y-79640451D01*
X167930038Y-79667487D01*
X167950730Y-79688179D01*
X167977766Y-79699378D01*
X167992398Y-79700819D01*
X168230493Y-79700819D01*
X168237898Y-79700089D01*
X168239873Y-79700230D01*
X168242470Y-79699639D01*
X168245125Y-79699378D01*
X168246956Y-79698619D01*
X168254210Y-79696970D01*
X168397067Y-79649351D01*
X168410492Y-79643357D01*
X168412527Y-79641591D01*
X168415018Y-79640560D01*
X168426383Y-79631233D01*
X168521622Y-79535993D01*
X168526339Y-79530244D01*
X168527838Y-79528945D01*
X168529259Y-79526686D01*
X168530949Y-79524628D01*
X168531706Y-79522798D01*
X168535670Y-79516502D01*
X168583289Y-79421264D01*
X168583698Y-79420194D01*
X168584021Y-79419759D01*
X168586213Y-79413622D01*
X168588544Y-79407533D01*
X168588582Y-79406992D01*
X168588968Y-79405913D01*
X168636587Y-79215437D01*
X168636962Y-79212900D01*
X168637385Y-79211879D01*
X168637927Y-79206366D01*
X168638737Y-79200893D01*
X168638574Y-79199800D01*
X168638826Y-79197247D01*
X168638826Y-79054390D01*
X168638574Y-79051836D01*
X168638737Y-79050744D01*
X168637927Y-79045270D01*
X168637385Y-79039758D01*
X168636962Y-79038736D01*
X168636587Y-79036200D01*
X168588968Y-78845724D01*
X168588582Y-78844644D01*
X168588544Y-78844104D01*
X168586213Y-78838014D01*
X168584021Y-78831878D01*
X168583698Y-78831442D01*
X168583289Y-78830373D01*
X168535670Y-78735135D01*
X168531707Y-78728840D01*
X168530949Y-78727008D01*
X168529257Y-78724946D01*
X168527838Y-78722692D01*
X168526341Y-78721393D01*
X168521621Y-78715643D01*
X168426383Y-78620405D01*
X168415018Y-78611078D01*
X168412527Y-78610046D01*
X168410492Y-78608281D01*
X168397067Y-78602287D01*
X168254210Y-78554668D01*
X168246956Y-78553018D01*
X168245125Y-78552260D01*
X168242470Y-78551998D01*
X168239873Y-78551408D01*
X168237898Y-78551548D01*
X168230493Y-78550819D01*
X167992398Y-78550819D01*
X167977766Y-78552260D01*
X167950730Y-78563459D01*
X167930038Y-78584151D01*
X167918839Y-78611187D01*
X167917398Y-78625819D01*
X167591207Y-78625819D01*
X167589766Y-78611187D01*
X167578567Y-78584151D01*
X167557875Y-78563459D01*
X167530839Y-78552260D01*
X167501575Y-78552260D01*
X167474539Y-78563459D01*
X167453847Y-78584151D01*
X167442648Y-78611187D01*
X167441207Y-78625819D01*
X167441207Y-79343402D01*
X167009897Y-78588609D01*
X167007708Y-78585525D01*
X167007139Y-78584151D01*
X167005739Y-78582751D01*
X167001387Y-78576619D01*
X166993497Y-78570509D01*
X166986447Y-78563459D01*
X166982030Y-78561629D01*
X166978250Y-78558702D01*
X166968626Y-78556077D01*
X166959411Y-78552260D01*
X166954630Y-78552260D01*
X166950018Y-78551002D01*
X166940121Y-78552260D01*
X166930147Y-78552260D01*
X166925731Y-78554089D01*
X166920988Y-78554692D01*
X166912323Y-78559642D01*
X166903111Y-78563459D01*
X166899732Y-78566837D01*
X166895579Y-78569211D01*
X166889469Y-78577100D01*
X166882419Y-78584151D01*
X166880589Y-78588567D01*
X166877662Y-78592348D01*
X166875037Y-78601971D01*
X166871220Y-78611187D01*
X166870483Y-78618669D01*
X166869962Y-78620580D01*
X166870149Y-78622055D01*
X166869779Y-78625819D01*
X166524659Y-78625819D01*
X166514572Y-78614188D01*
X166502129Y-78606356D01*
X166406891Y-78558737D01*
X166393159Y-78553482D01*
X166390471Y-78553291D01*
X166387982Y-78552260D01*
X166373350Y-78550819D01*
X166230493Y-78550819D01*
X166223086Y-78551548D01*
X166221112Y-78551408D01*
X166218514Y-78551998D01*
X166215861Y-78552260D01*
X166214030Y-78553018D01*
X166206775Y-78554668D01*
X166063919Y-78602287D01*
X166050493Y-78608281D01*
X166048458Y-78610045D01*
X166045968Y-78611077D01*
X166034603Y-78620405D01*
X165939365Y-78715643D01*
X165934646Y-78721392D01*
X165933148Y-78722692D01*
X165931726Y-78724951D01*
X165930038Y-78727008D01*
X165929280Y-78728835D01*
X165925316Y-78735135D01*
X165877697Y-78830373D01*
X165877287Y-78831442D01*
X165876965Y-78831878D01*
X165874769Y-78838023D01*
X165872442Y-78844105D01*
X165872403Y-78844644D01*
X165872018Y-78845724D01*
X165824399Y-79036200D01*
X165824023Y-79038736D01*
X165823601Y-79039758D01*
X165823058Y-79045270D01*
X165822249Y-79050744D01*
X165822411Y-79051836D01*
X165822160Y-79054390D01*
X165711049Y-79054390D01*
X165711049Y-78439708D01*
X168749937Y-78439708D01*
X168749937Y-79811930D01*
G37*
G36*
X168558020Y-82351930D02*
G01*
X165711049Y-82351930D01*
X165711049Y-81356295D01*
X165822160Y-81356295D01*
X165822160Y-81451533D01*
X165823601Y-81466165D01*
X165824632Y-81468654D01*
X165824823Y-81471342D01*
X165830078Y-81485074D01*
X165877697Y-81580312D01*
X165881661Y-81586611D01*
X165882419Y-81588439D01*
X165884107Y-81590495D01*
X165885529Y-81592755D01*
X165887027Y-81594054D01*
X165891746Y-81599804D01*
X165939365Y-81647423D01*
X165945114Y-81652141D01*
X165946414Y-81653640D01*
X165948673Y-81655061D01*
X165950730Y-81656750D01*
X165952557Y-81657507D01*
X165958857Y-81661472D01*
X166054095Y-81709091D01*
X166055164Y-81709500D01*
X166055600Y-81709823D01*
X166061736Y-81712015D01*
X166067826Y-81714346D01*
X166068366Y-81714384D01*
X166069446Y-81714770D01*
X166251936Y-81760392D01*
X166328923Y-81798886D01*
X166359330Y-81829293D01*
X166393588Y-81897809D01*
X166393588Y-81957637D01*
X166359329Y-82026153D01*
X166328922Y-82056561D01*
X166260407Y-82090819D01*
X166052187Y-82090819D01*
X165920877Y-82047049D01*
X165906540Y-82043789D01*
X165877350Y-82045864D01*
X165851177Y-82058950D01*
X165832003Y-82081057D01*
X165822749Y-82108820D01*
X165824824Y-82138010D01*
X165837910Y-82164183D01*
X165860017Y-82183357D01*
X165873443Y-82189351D01*
X166016299Y-82236970D01*
X166023554Y-82238619D01*
X166025385Y-82239378D01*
X166028038Y-82239639D01*
X166030636Y-82240230D01*
X166032610Y-82240089D01*
X166040017Y-82240819D01*
X166278112Y-82240819D01*
X166292744Y-82239378D01*
X166295233Y-82238346D01*
X166297921Y-82238156D01*
X166311653Y-82232901D01*
X166406891Y-82185282D01*
X166413190Y-82181317D01*
X166415018Y-82180560D01*
X166417074Y-82178872D01*
X166419334Y-82177450D01*
X166420634Y-82175950D01*
X166426384Y-82171232D01*
X166474002Y-82123613D01*
X166478720Y-82117863D01*
X166480219Y-82116564D01*
X166481640Y-82114305D01*
X166483330Y-82112247D01*
X166484087Y-82110417D01*
X166488051Y-82104121D01*
X166535670Y-82008883D01*
X166540925Y-81995152D01*
X166541116Y-81992462D01*
X166542147Y-81989974D01*
X166543588Y-81975342D01*
X166543588Y-81880104D01*
X166542147Y-81865472D01*
X166541116Y-81862983D01*
X166540925Y-81860294D01*
X166535670Y-81846563D01*
X166488051Y-81751325D01*
X166484086Y-81745025D01*
X166483329Y-81743198D01*
X166481640Y-81741141D01*
X166480219Y-81738882D01*
X166478720Y-81737582D01*
X166474002Y-81731833D01*
X166426383Y-81684214D01*
X166420633Y-81679495D01*
X166419334Y-81677997D01*
X166417074Y-81676575D01*
X166415018Y-81674887D01*
X166413190Y-81674129D01*
X166406891Y-81670165D01*
X166311653Y-81622546D01*
X166310583Y-81622136D01*
X166310148Y-81621814D01*
X166304002Y-81619618D01*
X166297921Y-81617291D01*
X166297381Y-81617252D01*
X166296302Y-81616867D01*
X166206395Y-81594390D01*
X166774541Y-81594390D01*
X166774541Y-81737247D01*
X166774792Y-81739800D01*
X166774630Y-81740893D01*
X166775439Y-81746366D01*
X166775982Y-81751879D01*
X166776404Y-81752900D01*
X166776780Y-81755437D01*
X166824399Y-81945913D01*
X166824784Y-81946992D01*
X166824823Y-81947532D01*
X166827150Y-81953613D01*
X166829346Y-81959759D01*
X166829668Y-81960194D01*
X166830078Y-81961264D01*
X166877697Y-82056502D01*
X166881660Y-82062798D01*
X166882418Y-82064628D01*
X166884107Y-82066686D01*
X166885529Y-82068945D01*
X166887027Y-82070244D01*
X166891746Y-82075994D01*
X166986984Y-82171233D01*
X166998349Y-82180561D01*
X167000839Y-82181592D01*
X167002874Y-82183357D01*
X167016300Y-82189351D01*
X167159156Y-82236970D01*
X167166411Y-82238619D01*
X167168242Y-82239378D01*
X167170895Y-82239639D01*
X167173493Y-82240230D01*
X167175467Y-82240089D01*
X167182874Y-82240819D01*
X167278112Y-82240819D01*
X167285517Y-82240089D01*
X167287492Y-82240230D01*
X167290089Y-82239639D01*
X167292744Y-82239378D01*
X167294575Y-82238619D01*
X167301829Y-82236970D01*
X167444686Y-82189351D01*
X167458111Y-82183357D01*
X167460146Y-82181591D01*
X167462637Y-82180560D01*
X167474003Y-82171232D01*
X167521621Y-82123613D01*
X167530949Y-82112247D01*
X167542147Y-82085211D01*
X167542147Y-82055948D01*
X167530948Y-82028912D01*
X167510255Y-82008219D01*
X167483219Y-81997021D01*
X167453956Y-81997021D01*
X167426920Y-82008220D01*
X167415554Y-82017548D01*
X167380455Y-82052647D01*
X167265942Y-82090819D01*
X167195044Y-82090819D01*
X167080531Y-82052648D01*
X167006418Y-81978534D01*
X166967924Y-81901547D01*
X166924541Y-81728013D01*
X166924541Y-81603624D01*
X166967924Y-81430090D01*
X167006418Y-81353103D01*
X167080531Y-81278990D01*
X167195044Y-81240819D01*
X167265942Y-81240819D01*
X167380455Y-81278990D01*
X167415555Y-81314090D01*
X167426920Y-81323417D01*
X167453956Y-81334616D01*
X167483219Y-81334616D01*
X167510255Y-81323417D01*
X167530948Y-81302724D01*
X167542147Y-81275688D01*
X167542147Y-81246425D01*
X167530948Y-81219389D01*
X167521621Y-81208024D01*
X167479416Y-81165819D01*
X167822160Y-81165819D01*
X167822160Y-82165819D01*
X167823601Y-82180451D01*
X167834800Y-82207487D01*
X167855492Y-82228179D01*
X167882528Y-82239378D01*
X167897160Y-82240819D01*
X168373350Y-82240819D01*
X168387982Y-82239378D01*
X168415018Y-82228179D01*
X168435710Y-82207487D01*
X168446909Y-82180451D01*
X168446909Y-82151187D01*
X168435710Y-82124151D01*
X168415018Y-82103459D01*
X168387982Y-82092260D01*
X168373350Y-82090819D01*
X167972160Y-82090819D01*
X167972160Y-81165819D01*
X167970719Y-81151187D01*
X167959520Y-81124151D01*
X167938828Y-81103459D01*
X167911792Y-81092260D01*
X167882528Y-81092260D01*
X167855492Y-81103459D01*
X167834800Y-81124151D01*
X167823601Y-81151187D01*
X167822160Y-81165819D01*
X167479416Y-81165819D01*
X167474002Y-81160405D01*
X167462637Y-81151078D01*
X167460146Y-81150046D01*
X167458111Y-81148281D01*
X167444686Y-81142287D01*
X167301829Y-81094668D01*
X167294575Y-81093018D01*
X167292744Y-81092260D01*
X167290089Y-81091998D01*
X167287492Y-81091408D01*
X167285517Y-81091548D01*
X167278112Y-81090819D01*
X167182874Y-81090819D01*
X167175467Y-81091548D01*
X167173493Y-81091408D01*
X167170895Y-81091998D01*
X167168242Y-81092260D01*
X167166411Y-81093018D01*
X167159156Y-81094668D01*
X167016300Y-81142287D01*
X167002874Y-81148281D01*
X167000839Y-81150045D01*
X166998349Y-81151077D01*
X166986984Y-81160405D01*
X166891746Y-81255643D01*
X166887027Y-81261392D01*
X166885529Y-81262692D01*
X166884107Y-81264951D01*
X166882419Y-81267008D01*
X166881661Y-81268835D01*
X166877697Y-81275135D01*
X166830078Y-81370373D01*
X166829668Y-81371442D01*
X166829346Y-81371878D01*
X166827150Y-81378023D01*
X166824823Y-81384105D01*
X166824784Y-81384644D01*
X166824399Y-81385724D01*
X166776780Y-81576200D01*
X166776404Y-81578736D01*
X166775982Y-81579758D01*
X166775439Y-81585270D01*
X166774630Y-81590744D01*
X166774792Y-81591836D01*
X166774541Y-81594390D01*
X166206395Y-81594390D01*
X166113812Y-81571244D01*
X166036825Y-81532751D01*
X166006418Y-81502344D01*
X165972160Y-81433828D01*
X165972160Y-81374000D01*
X166006418Y-81305484D01*
X166036825Y-81275077D01*
X166105341Y-81240819D01*
X166313561Y-81240819D01*
X166444870Y-81284589D01*
X166459207Y-81287849D01*
X166488397Y-81285774D01*
X166514571Y-81272688D01*
X166533745Y-81250580D01*
X166542999Y-81222818D01*
X166540924Y-81193628D01*
X166527837Y-81167455D01*
X166505730Y-81148281D01*
X166492305Y-81142287D01*
X166349448Y-81094668D01*
X166342194Y-81093018D01*
X166340363Y-81092260D01*
X166337708Y-81091998D01*
X166335111Y-81091408D01*
X166333136Y-81091548D01*
X166325731Y-81090819D01*
X166087636Y-81090819D01*
X166073004Y-81092260D01*
X166070515Y-81093290D01*
X166067826Y-81093482D01*
X166054095Y-81098737D01*
X165958857Y-81146356D01*
X165952557Y-81150320D01*
X165950730Y-81151078D01*
X165948673Y-81152766D01*
X165946414Y-81154188D01*
X165945114Y-81155686D01*
X165939365Y-81160405D01*
X165891746Y-81208024D01*
X165887027Y-81213773D01*
X165885529Y-81215073D01*
X165884107Y-81217332D01*
X165882419Y-81219389D01*
X165881661Y-81221216D01*
X165877697Y-81227516D01*
X165830078Y-81322754D01*
X165824823Y-81336486D01*
X165824632Y-81339173D01*
X165823601Y-81341663D01*
X165822160Y-81356295D01*
X165711049Y-81356295D01*
X165711049Y-80979708D01*
X168558020Y-80979708D01*
X168558020Y-82351930D01*
G37*
G36*
X170161306Y-89971747D02*
G01*
X166505400Y-89971747D01*
X166505400Y-88795199D01*
X166616511Y-88795199D01*
X166619771Y-88809536D01*
X166953104Y-89809536D01*
X166959098Y-89822961D01*
X166962608Y-89827008D01*
X166965005Y-89831802D01*
X166972113Y-89837967D01*
X166978272Y-89845068D01*
X166983061Y-89847462D01*
X166987112Y-89850976D01*
X166996037Y-89853950D01*
X167004445Y-89858155D01*
X167009789Y-89858534D01*
X167014875Y-89860230D01*
X167024255Y-89859563D01*
X167033635Y-89860230D01*
X167038720Y-89858534D01*
X167044065Y-89858155D01*
X167052475Y-89853949D01*
X167061397Y-89850976D01*
X167065444Y-89847465D01*
X167070238Y-89845069D01*
X167076401Y-89837963D01*
X167083505Y-89831802D01*
X167085900Y-89827010D01*
X167089412Y-89822962D01*
X167095406Y-89809536D01*
X167428739Y-88809536D01*
X167431999Y-88795200D01*
X167431332Y-88785819D01*
X167615922Y-88785819D01*
X167615922Y-89785819D01*
X167617363Y-89800451D01*
X167628562Y-89827487D01*
X167649254Y-89848179D01*
X167676290Y-89859378D01*
X167705554Y-89859378D01*
X167732590Y-89848179D01*
X167753282Y-89827487D01*
X167764481Y-89800451D01*
X167765922Y-89785819D01*
X167765922Y-88785819D01*
X168092112Y-88785819D01*
X168092112Y-89785819D01*
X168093553Y-89800451D01*
X168104752Y-89827487D01*
X168125444Y-89848179D01*
X168152480Y-89859378D01*
X168181744Y-89859378D01*
X168208780Y-89848179D01*
X168229472Y-89827487D01*
X168240671Y-89800451D01*
X168242112Y-89785819D01*
X168242112Y-89068235D01*
X168673422Y-89823030D01*
X168675611Y-89826114D01*
X168676180Y-89827487D01*
X168677577Y-89828884D01*
X168681932Y-89835019D01*
X168689820Y-89841127D01*
X168696872Y-89848179D01*
X168701290Y-89850009D01*
X168705070Y-89852936D01*
X168714691Y-89855560D01*
X168723908Y-89859378D01*
X168728689Y-89859378D01*
X168733301Y-89860636D01*
X168743198Y-89859378D01*
X168753172Y-89859378D01*
X168757587Y-89857548D01*
X168762331Y-89856946D01*
X168770995Y-89851995D01*
X168780208Y-89848179D01*
X168783586Y-89844800D01*
X168787740Y-89842427D01*
X168793849Y-89834537D01*
X168800900Y-89827487D01*
X168802729Y-89823070D01*
X168805657Y-89819290D01*
X168808281Y-89809666D01*
X168812099Y-89800451D01*
X168812835Y-89792968D01*
X168813357Y-89791058D01*
X168813169Y-89789582D01*
X168813540Y-89785819D01*
X168813540Y-89390234D01*
X169141172Y-89390234D01*
X169141172Y-89419498D01*
X169152371Y-89446534D01*
X169173063Y-89467226D01*
X169200099Y-89478425D01*
X169214731Y-89479866D01*
X169520683Y-89479866D01*
X169520683Y-89785819D01*
X169522124Y-89800451D01*
X169533323Y-89827487D01*
X169554015Y-89848179D01*
X169581051Y-89859378D01*
X169610315Y-89859378D01*
X169637351Y-89848179D01*
X169658043Y-89827487D01*
X169669242Y-89800451D01*
X169670683Y-89785819D01*
X169670683Y-89479866D01*
X169976636Y-89479866D01*
X169991268Y-89478425D01*
X170018304Y-89467226D01*
X170038996Y-89446534D01*
X170050195Y-89419498D01*
X170050195Y-89390234D01*
X170038996Y-89363198D01*
X170018304Y-89342506D01*
X169991268Y-89331307D01*
X169976636Y-89329866D01*
X169670683Y-89329866D01*
X169670683Y-89023914D01*
X169669242Y-89009282D01*
X169658043Y-88982246D01*
X169637351Y-88961554D01*
X169610315Y-88950355D01*
X169581051Y-88950355D01*
X169554015Y-88961554D01*
X169533323Y-88982246D01*
X169522124Y-89009282D01*
X169520683Y-89023914D01*
X169520683Y-89329866D01*
X169214731Y-89329866D01*
X169200099Y-89331307D01*
X169173063Y-89342506D01*
X169152371Y-89363198D01*
X169141172Y-89390234D01*
X168813540Y-89390234D01*
X168813540Y-88785819D01*
X168812099Y-88771187D01*
X168800900Y-88744151D01*
X168780208Y-88723459D01*
X168753172Y-88712260D01*
X168723908Y-88712260D01*
X168696872Y-88723459D01*
X168676180Y-88744151D01*
X168664981Y-88771187D01*
X168663540Y-88785819D01*
X168663540Y-89503402D01*
X168232230Y-88748609D01*
X168230041Y-88745525D01*
X168229472Y-88744151D01*
X168228072Y-88742751D01*
X168223720Y-88736619D01*
X168215830Y-88730509D01*
X168208780Y-88723459D01*
X168204363Y-88721629D01*
X168200583Y-88718702D01*
X168190959Y-88716077D01*
X168181744Y-88712260D01*
X168176963Y-88712260D01*
X168172351Y-88711002D01*
X168162454Y-88712260D01*
X168152480Y-88712260D01*
X168148064Y-88714089D01*
X168143321Y-88714692D01*
X168134656Y-88719642D01*
X168125444Y-88723459D01*
X168122065Y-88726837D01*
X168117912Y-88729211D01*
X168111802Y-88737100D01*
X168104752Y-88744151D01*
X168102922Y-88748567D01*
X168099995Y-88752348D01*
X168097370Y-88761971D01*
X168093553Y-88771187D01*
X168092816Y-88778669D01*
X168092295Y-88780580D01*
X168092482Y-88782055D01*
X168092112Y-88785819D01*
X167765922Y-88785819D01*
X167764481Y-88771187D01*
X167753282Y-88744151D01*
X167732590Y-88723459D01*
X167705554Y-88712260D01*
X167676290Y-88712260D01*
X167649254Y-88723459D01*
X167628562Y-88744151D01*
X167617363Y-88771187D01*
X167615922Y-88785819D01*
X167431332Y-88785819D01*
X167429924Y-88766010D01*
X167416838Y-88739836D01*
X167394730Y-88720662D01*
X167366968Y-88711408D01*
X167337778Y-88713483D01*
X167311605Y-88726570D01*
X167292431Y-88748677D01*
X167286437Y-88762102D01*
X167024255Y-89548648D01*
X166762073Y-88762102D01*
X166756079Y-88748676D01*
X166736905Y-88726569D01*
X166710732Y-88713483D01*
X166681542Y-88711408D01*
X166653779Y-88720662D01*
X166631672Y-88739836D01*
X166618586Y-88766009D01*
X166616511Y-88795199D01*
X166505400Y-88795199D01*
X166505400Y-88599891D01*
X170161306Y-88599891D01*
X170161306Y-89971747D01*
G37*
G36*
X170288306Y-87558747D02*
G01*
X166632400Y-87558747D01*
X166632400Y-86382199D01*
X166743511Y-86382199D01*
X166746771Y-86396536D01*
X167080104Y-87396536D01*
X167086098Y-87409961D01*
X167089608Y-87414008D01*
X167092005Y-87418802D01*
X167099113Y-87424967D01*
X167105272Y-87432068D01*
X167110061Y-87434462D01*
X167114112Y-87437976D01*
X167123037Y-87440950D01*
X167131445Y-87445155D01*
X167136789Y-87445534D01*
X167141875Y-87447230D01*
X167151255Y-87446563D01*
X167160635Y-87447230D01*
X167165720Y-87445534D01*
X167171065Y-87445155D01*
X167179475Y-87440949D01*
X167188397Y-87437976D01*
X167192444Y-87434465D01*
X167197238Y-87432069D01*
X167203401Y-87424963D01*
X167210505Y-87418802D01*
X167212900Y-87414010D01*
X167216412Y-87409962D01*
X167222406Y-87396536D01*
X167555739Y-86396536D01*
X167558999Y-86382200D01*
X167558332Y-86372819D01*
X167742922Y-86372819D01*
X167742922Y-87372819D01*
X167744363Y-87387451D01*
X167755562Y-87414487D01*
X167776254Y-87435179D01*
X167803290Y-87446378D01*
X167832554Y-87446378D01*
X167859590Y-87435179D01*
X167880282Y-87414487D01*
X167891481Y-87387451D01*
X167892922Y-87372819D01*
X167892922Y-86372819D01*
X168219112Y-86372819D01*
X168219112Y-87372819D01*
X168220553Y-87387451D01*
X168231752Y-87414487D01*
X168252444Y-87435179D01*
X168279480Y-87446378D01*
X168308744Y-87446378D01*
X168335780Y-87435179D01*
X168356472Y-87414487D01*
X168367671Y-87387451D01*
X168369112Y-87372819D01*
X168369112Y-86655235D01*
X168800422Y-87410030D01*
X168802611Y-87413114D01*
X168803180Y-87414487D01*
X168804577Y-87415884D01*
X168808932Y-87422019D01*
X168816820Y-87428127D01*
X168823872Y-87435179D01*
X168828290Y-87437009D01*
X168832070Y-87439936D01*
X168841691Y-87442560D01*
X168850908Y-87446378D01*
X168855689Y-87446378D01*
X168860301Y-87447636D01*
X168870198Y-87446378D01*
X168880172Y-87446378D01*
X168884587Y-87444548D01*
X168889331Y-87443946D01*
X168897995Y-87438995D01*
X168907208Y-87435179D01*
X168910586Y-87431800D01*
X168914740Y-87429427D01*
X168920849Y-87421537D01*
X168927900Y-87414487D01*
X168929729Y-87410070D01*
X168932657Y-87406290D01*
X168935281Y-87396666D01*
X168939099Y-87387451D01*
X168939835Y-87379968D01*
X168940357Y-87378058D01*
X168940169Y-87376582D01*
X168940540Y-87372819D01*
X168940540Y-86977234D01*
X169268172Y-86977234D01*
X169268172Y-87006498D01*
X169279371Y-87033534D01*
X169300063Y-87054226D01*
X169327099Y-87065425D01*
X169341731Y-87066866D01*
X170103636Y-87066866D01*
X170118268Y-87065425D01*
X170145304Y-87054226D01*
X170165996Y-87033534D01*
X170177195Y-87006498D01*
X170177195Y-86977234D01*
X170165996Y-86950198D01*
X170145304Y-86929506D01*
X170118268Y-86918307D01*
X170103636Y-86916866D01*
X169341731Y-86916866D01*
X169327099Y-86918307D01*
X169300063Y-86929506D01*
X169279371Y-86950198D01*
X169268172Y-86977234D01*
X168940540Y-86977234D01*
X168940540Y-86372819D01*
X168939099Y-86358187D01*
X168927900Y-86331151D01*
X168907208Y-86310459D01*
X168880172Y-86299260D01*
X168850908Y-86299260D01*
X168823872Y-86310459D01*
X168803180Y-86331151D01*
X168791981Y-86358187D01*
X168790540Y-86372819D01*
X168790540Y-87090402D01*
X168359230Y-86335609D01*
X168357041Y-86332525D01*
X168356472Y-86331151D01*
X168355072Y-86329751D01*
X168350720Y-86323619D01*
X168342830Y-86317509D01*
X168335780Y-86310459D01*
X168331363Y-86308629D01*
X168327583Y-86305702D01*
X168317959Y-86303077D01*
X168308744Y-86299260D01*
X168303963Y-86299260D01*
X168299351Y-86298002D01*
X168289454Y-86299260D01*
X168279480Y-86299260D01*
X168275064Y-86301089D01*
X168270321Y-86301692D01*
X168261656Y-86306642D01*
X168252444Y-86310459D01*
X168249065Y-86313837D01*
X168244912Y-86316211D01*
X168238802Y-86324100D01*
X168231752Y-86331151D01*
X168229922Y-86335567D01*
X168226995Y-86339348D01*
X168224370Y-86348971D01*
X168220553Y-86358187D01*
X168219816Y-86365669D01*
X168219295Y-86367580D01*
X168219482Y-86369055D01*
X168219112Y-86372819D01*
X167892922Y-86372819D01*
X167891481Y-86358187D01*
X167880282Y-86331151D01*
X167859590Y-86310459D01*
X167832554Y-86299260D01*
X167803290Y-86299260D01*
X167776254Y-86310459D01*
X167755562Y-86331151D01*
X167744363Y-86358187D01*
X167742922Y-86372819D01*
X167558332Y-86372819D01*
X167556924Y-86353010D01*
X167543838Y-86326836D01*
X167521730Y-86307662D01*
X167493968Y-86298408D01*
X167464778Y-86300483D01*
X167438605Y-86313570D01*
X167419431Y-86335677D01*
X167413437Y-86349102D01*
X167151255Y-87135648D01*
X166889073Y-86349102D01*
X166883079Y-86335676D01*
X166863905Y-86313569D01*
X166837732Y-86300483D01*
X166808542Y-86298408D01*
X166780779Y-86307662D01*
X166758672Y-86326836D01*
X166745586Y-86353009D01*
X166743511Y-86382199D01*
X166632400Y-86382199D01*
X166632400Y-86186891D01*
X170288306Y-86186891D01*
X170288306Y-87558747D01*
G37*
G36*
X168749491Y-77255930D02*
G01*
X166854399Y-77255930D01*
X166854399Y-76553249D01*
X166965510Y-76553249D01*
X166966601Y-76556864D01*
X166966601Y-76560640D01*
X166970795Y-76570765D01*
X166973963Y-76581265D01*
X166976354Y-76584188D01*
X166977800Y-76587677D01*
X166985553Y-76595430D01*
X166992494Y-76603913D01*
X166995820Y-76605697D01*
X166998492Y-76608369D01*
X167008619Y-76612564D01*
X167018281Y-76617747D01*
X167022040Y-76618122D01*
X167025529Y-76619568D01*
X167036490Y-76619568D01*
X167047400Y-76620659D01*
X167051016Y-76619568D01*
X167054791Y-76619568D01*
X167064916Y-76615373D01*
X167075416Y-76612206D01*
X167078339Y-76609814D01*
X167081828Y-76608369D01*
X167093193Y-76599042D01*
X167132206Y-76560029D01*
X167200722Y-76525771D01*
X167403407Y-76525771D01*
X167471923Y-76560029D01*
X167502330Y-76590436D01*
X167536588Y-76658952D01*
X167536588Y-76861637D01*
X167502329Y-76930153D01*
X167471922Y-76960561D01*
X167403407Y-76994819D01*
X167200722Y-76994819D01*
X167132206Y-76960561D01*
X167093194Y-76921548D01*
X167081828Y-76912220D01*
X167054792Y-76901021D01*
X167025529Y-76901021D01*
X166998493Y-76912219D01*
X166977800Y-76932912D01*
X166966601Y-76959948D01*
X166966601Y-76989211D01*
X166977799Y-77016247D01*
X166987126Y-77027612D01*
X167034745Y-77075232D01*
X167040494Y-77079950D01*
X167041795Y-77081450D01*
X167044054Y-77082872D01*
X167046111Y-77084560D01*
X167047938Y-77085317D01*
X167054238Y-77089282D01*
X167149476Y-77136901D01*
X167163207Y-77142156D01*
X167165896Y-77142347D01*
X167168385Y-77143378D01*
X167183017Y-77144819D01*
X167421112Y-77144819D01*
X167435744Y-77143378D01*
X167438233Y-77142346D01*
X167440921Y-77142156D01*
X167454653Y-77136901D01*
X167549891Y-77089282D01*
X167556190Y-77085317D01*
X167558018Y-77084560D01*
X167560074Y-77082872D01*
X167562334Y-77081450D01*
X167563634Y-77079950D01*
X167569384Y-77075232D01*
X167617002Y-77027613D01*
X167621720Y-77021863D01*
X167623219Y-77020564D01*
X167624640Y-77018305D01*
X167626330Y-77016247D01*
X167627087Y-77014417D01*
X167631051Y-77008121D01*
X167678670Y-76912883D01*
X167683925Y-76899152D01*
X167684116Y-76896462D01*
X167685147Y-76893974D01*
X167686588Y-76879342D01*
X167686588Y-76641247D01*
X167685147Y-76626615D01*
X167684116Y-76624126D01*
X167683925Y-76621437D01*
X167678670Y-76607706D01*
X167631051Y-76512468D01*
X167627086Y-76506168D01*
X167626329Y-76504341D01*
X167624640Y-76502284D01*
X167623219Y-76500025D01*
X167621720Y-76498725D01*
X167617002Y-76492976D01*
X167569383Y-76445357D01*
X167563633Y-76440638D01*
X167562334Y-76439140D01*
X167560074Y-76437718D01*
X167558018Y-76436030D01*
X167556190Y-76435272D01*
X167549891Y-76431308D01*
X167454653Y-76383689D01*
X167440921Y-76378434D01*
X167438233Y-76378243D01*
X167435744Y-76377212D01*
X167421112Y-76375771D01*
X167183017Y-76375771D01*
X167168385Y-76377212D01*
X167165896Y-76378242D01*
X167163207Y-76378434D01*
X167149476Y-76383689D01*
X167130834Y-76393009D01*
X167155653Y-76144819D01*
X167563969Y-76144819D01*
X167578601Y-76143378D01*
X167605637Y-76132179D01*
X167626329Y-76111487D01*
X167637528Y-76084451D01*
X167637528Y-76079199D01*
X167822892Y-76079199D01*
X167826152Y-76093536D01*
X168159485Y-77093536D01*
X168165479Y-77106961D01*
X168168989Y-77111008D01*
X168171386Y-77115802D01*
X168178494Y-77121967D01*
X168184653Y-77129068D01*
X168189442Y-77131462D01*
X168193493Y-77134976D01*
X168202418Y-77137950D01*
X168210826Y-77142155D01*
X168216170Y-77142534D01*
X168221256Y-77144230D01*
X168230636Y-77143563D01*
X168240016Y-77144230D01*
X168245101Y-77142534D01*
X168250446Y-77142155D01*
X168258856Y-77137949D01*
X168267778Y-77134976D01*
X168271825Y-77131465D01*
X168276619Y-77129069D01*
X168282782Y-77121963D01*
X168289886Y-77115802D01*
X168292281Y-77111010D01*
X168295793Y-77106962D01*
X168301787Y-77093536D01*
X168635120Y-76093536D01*
X168638380Y-76079200D01*
X168636305Y-76050010D01*
X168623219Y-76023836D01*
X168601111Y-76004662D01*
X168573349Y-75995408D01*
X168544159Y-75997483D01*
X168517986Y-76010570D01*
X168498812Y-76032677D01*
X168492818Y-76046102D01*
X168230636Y-76832648D01*
X167968454Y-76046102D01*
X167962460Y-76032676D01*
X167943286Y-76010569D01*
X167917113Y-75997483D01*
X167887923Y-75995408D01*
X167860160Y-76004662D01*
X167838053Y-76023836D01*
X167824967Y-76050009D01*
X167822892Y-76079199D01*
X167637528Y-76079199D01*
X167637528Y-76055187D01*
X167626329Y-76028151D01*
X167605637Y-76007459D01*
X167578601Y-75996260D01*
X167563969Y-75994819D01*
X167087779Y-75994819D01*
X167082367Y-75995351D01*
X167080539Y-75995169D01*
X167078752Y-75995707D01*
X167073147Y-75996260D01*
X167063020Y-76000454D01*
X167052523Y-76003622D01*
X167049599Y-76006013D01*
X167046111Y-76007459D01*
X167038357Y-76015212D01*
X167029875Y-76022153D01*
X167028090Y-76025479D01*
X167025419Y-76028151D01*
X167021223Y-76038280D01*
X167016041Y-76047940D01*
X167014933Y-76053464D01*
X167014220Y-76055187D01*
X167014220Y-76057023D01*
X167013151Y-76062356D01*
X166965532Y-76538546D01*
X166965510Y-76553249D01*
X166854399Y-76553249D01*
X166854399Y-75883708D01*
X168749491Y-75883708D01*
X168749491Y-77255930D01*
G37*
G36*
X168380598Y-83945990D02*
G01*
X168454711Y-84020103D01*
X168493204Y-84097090D01*
X168536588Y-84270624D01*
X168536588Y-84395013D01*
X168493204Y-84568547D01*
X168454710Y-84645534D01*
X168380598Y-84719647D01*
X168266085Y-84757819D01*
X168115160Y-84757819D01*
X168115160Y-83907819D01*
X168266085Y-83907819D01*
X168380598Y-83945990D01*
G37*
G36*
X169364674Y-84472104D02*
G01*
X169096598Y-84472104D01*
X169230636Y-84069989D01*
X169364674Y-84472104D01*
G37*
G36*
X169749491Y-85018930D02*
G01*
X166854049Y-85018930D01*
X166854049Y-84023295D01*
X166965160Y-84023295D01*
X166965160Y-84118533D01*
X166966601Y-84133165D01*
X166967632Y-84135654D01*
X166967823Y-84138342D01*
X166973078Y-84152074D01*
X167020697Y-84247312D01*
X167024661Y-84253611D01*
X167025419Y-84255439D01*
X167027107Y-84257495D01*
X167028529Y-84259755D01*
X167030027Y-84261054D01*
X167034746Y-84266804D01*
X167082365Y-84314423D01*
X167088114Y-84319141D01*
X167089414Y-84320640D01*
X167091673Y-84322061D01*
X167093730Y-84323750D01*
X167095557Y-84324507D01*
X167101857Y-84328472D01*
X167197095Y-84376091D01*
X167198164Y-84376500D01*
X167198600Y-84376823D01*
X167204736Y-84379015D01*
X167210826Y-84381346D01*
X167211366Y-84381384D01*
X167212446Y-84381770D01*
X167394936Y-84427392D01*
X167471923Y-84465886D01*
X167502330Y-84496293D01*
X167536588Y-84564809D01*
X167536588Y-84624637D01*
X167502329Y-84693153D01*
X167471922Y-84723561D01*
X167403407Y-84757819D01*
X167195187Y-84757819D01*
X167063877Y-84714049D01*
X167049540Y-84710789D01*
X167020350Y-84712864D01*
X166994177Y-84725950D01*
X166975003Y-84748057D01*
X166965749Y-84775820D01*
X166967824Y-84805010D01*
X166980910Y-84831183D01*
X167003017Y-84850357D01*
X167016443Y-84856351D01*
X167159299Y-84903970D01*
X167166554Y-84905619D01*
X167168385Y-84906378D01*
X167171038Y-84906639D01*
X167173636Y-84907230D01*
X167175610Y-84907089D01*
X167183017Y-84907819D01*
X167421112Y-84907819D01*
X167435744Y-84906378D01*
X167438233Y-84905346D01*
X167440921Y-84905156D01*
X167454653Y-84899901D01*
X167549891Y-84852282D01*
X167556190Y-84848317D01*
X167558018Y-84847560D01*
X167560074Y-84845872D01*
X167562334Y-84844450D01*
X167563634Y-84842950D01*
X167569384Y-84838232D01*
X167617002Y-84790613D01*
X167621720Y-84784863D01*
X167623219Y-84783564D01*
X167624640Y-84781305D01*
X167626330Y-84779247D01*
X167627087Y-84777417D01*
X167631051Y-84771121D01*
X167678670Y-84675883D01*
X167683925Y-84662152D01*
X167684116Y-84659462D01*
X167685147Y-84656974D01*
X167686588Y-84642342D01*
X167686588Y-84547104D01*
X167685147Y-84532472D01*
X167684116Y-84529983D01*
X167683925Y-84527294D01*
X167678670Y-84513563D01*
X167631051Y-84418325D01*
X167627086Y-84412025D01*
X167626329Y-84410198D01*
X167624640Y-84408141D01*
X167623219Y-84405882D01*
X167621720Y-84404582D01*
X167617002Y-84398833D01*
X167569383Y-84351214D01*
X167563633Y-84346495D01*
X167562334Y-84344997D01*
X167560074Y-84343575D01*
X167558018Y-84341887D01*
X167556190Y-84341129D01*
X167549891Y-84337165D01*
X167454653Y-84289546D01*
X167453583Y-84289136D01*
X167453148Y-84288814D01*
X167447002Y-84286618D01*
X167440921Y-84284291D01*
X167440381Y-84284252D01*
X167439302Y-84283867D01*
X167256812Y-84238244D01*
X167179825Y-84199751D01*
X167149418Y-84169344D01*
X167115160Y-84100828D01*
X167115160Y-84041000D01*
X167149418Y-83972484D01*
X167179825Y-83942077D01*
X167248341Y-83907819D01*
X167456561Y-83907819D01*
X167587870Y-83951589D01*
X167602207Y-83954849D01*
X167631397Y-83952774D01*
X167657571Y-83939688D01*
X167676745Y-83917580D01*
X167685999Y-83889818D01*
X167683924Y-83860628D01*
X167670837Y-83834455D01*
X167668951Y-83832819D01*
X167965160Y-83832819D01*
X167965160Y-84832819D01*
X167966601Y-84847451D01*
X167977800Y-84874487D01*
X167998492Y-84895179D01*
X168025528Y-84906378D01*
X168040160Y-84907819D01*
X168278255Y-84907819D01*
X168285660Y-84907089D01*
X168287635Y-84907230D01*
X168290232Y-84906639D01*
X168292887Y-84906378D01*
X168294718Y-84905619D01*
X168301972Y-84903970D01*
X168444829Y-84856351D01*
X168458254Y-84850357D01*
X168460289Y-84848591D01*
X168462780Y-84847560D01*
X168474145Y-84838233D01*
X168488939Y-84823439D01*
X168822892Y-84823439D01*
X168824967Y-84852629D01*
X168838053Y-84878802D01*
X168860160Y-84897976D01*
X168887923Y-84907230D01*
X168917113Y-84905155D01*
X168943286Y-84892069D01*
X168962460Y-84869962D01*
X168968454Y-84856536D01*
X169046598Y-84622104D01*
X169414674Y-84622104D01*
X169492818Y-84856536D01*
X169498812Y-84869961D01*
X169517986Y-84892068D01*
X169544159Y-84905155D01*
X169573349Y-84907230D01*
X169601111Y-84897976D01*
X169623219Y-84878802D01*
X169636305Y-84852628D01*
X169638380Y-84823438D01*
X169635120Y-84809102D01*
X169301787Y-83809102D01*
X169295793Y-83795676D01*
X169292281Y-83791627D01*
X169289886Y-83786836D01*
X169282782Y-83780674D01*
X169276619Y-83773569D01*
X169271825Y-83771172D01*
X169267778Y-83767662D01*
X169258856Y-83764688D01*
X169250446Y-83760483D01*
X169245101Y-83760103D01*
X169240016Y-83758408D01*
X169230636Y-83759074D01*
X169221256Y-83758408D01*
X169216170Y-83760103D01*
X169210826Y-83760483D01*
X169202418Y-83764687D01*
X169193493Y-83767662D01*
X169189442Y-83771175D01*
X169184653Y-83773570D01*
X169178494Y-83780670D01*
X169171386Y-83786836D01*
X169168989Y-83791629D01*
X169165479Y-83795677D01*
X169159485Y-83809102D01*
X168826152Y-84809102D01*
X168822892Y-84823439D01*
X168488939Y-84823439D01*
X168569384Y-84742993D01*
X168574101Y-84737244D01*
X168575600Y-84735945D01*
X168577021Y-84733686D01*
X168578711Y-84731628D01*
X168579468Y-84729798D01*
X168583432Y-84723502D01*
X168631051Y-84628264D01*
X168631460Y-84627194D01*
X168631783Y-84626759D01*
X168633975Y-84620622D01*
X168636306Y-84614533D01*
X168636344Y-84613992D01*
X168636730Y-84612913D01*
X168684349Y-84422437D01*
X168684724Y-84419900D01*
X168685147Y-84418879D01*
X168685689Y-84413366D01*
X168686499Y-84407893D01*
X168686336Y-84406800D01*
X168686588Y-84404247D01*
X168686588Y-84261390D01*
X168686336Y-84258836D01*
X168686499Y-84257744D01*
X168685689Y-84252270D01*
X168685147Y-84246758D01*
X168684724Y-84245736D01*
X168684349Y-84243200D01*
X168636730Y-84052724D01*
X168636344Y-84051644D01*
X168636306Y-84051104D01*
X168633975Y-84045014D01*
X168631783Y-84038878D01*
X168631460Y-84038442D01*
X168631051Y-84037373D01*
X168583432Y-83942135D01*
X168579469Y-83935840D01*
X168578711Y-83934008D01*
X168577019Y-83931946D01*
X168575600Y-83929692D01*
X168574103Y-83928393D01*
X168569383Y-83922643D01*
X168474145Y-83827405D01*
X168462780Y-83818078D01*
X168460289Y-83817046D01*
X168458254Y-83815281D01*
X168444829Y-83809287D01*
X168301972Y-83761668D01*
X168294718Y-83760018D01*
X168292887Y-83759260D01*
X168290232Y-83758998D01*
X168287635Y-83758408D01*
X168285660Y-83758548D01*
X168278255Y-83757819D01*
X168040160Y-83757819D01*
X168025528Y-83759260D01*
X167998492Y-83770459D01*
X167977800Y-83791151D01*
X167966601Y-83818187D01*
X167965160Y-83832819D01*
X167668951Y-83832819D01*
X167648730Y-83815281D01*
X167635305Y-83809287D01*
X167492448Y-83761668D01*
X167485194Y-83760018D01*
X167483363Y-83759260D01*
X167480708Y-83758998D01*
X167478111Y-83758408D01*
X167476136Y-83758548D01*
X167468731Y-83757819D01*
X167230636Y-83757819D01*
X167216004Y-83759260D01*
X167213515Y-83760290D01*
X167210826Y-83760482D01*
X167197095Y-83765737D01*
X167101857Y-83813356D01*
X167095557Y-83817320D01*
X167093730Y-83818078D01*
X167091673Y-83819766D01*
X167089414Y-83821188D01*
X167088114Y-83822686D01*
X167082365Y-83827405D01*
X167034746Y-83875024D01*
X167030027Y-83880773D01*
X167028529Y-83882073D01*
X167027107Y-83884332D01*
X167025419Y-83886389D01*
X167024661Y-83888216D01*
X167020697Y-83894516D01*
X166973078Y-83989754D01*
X166967823Y-84003486D01*
X166967632Y-84006173D01*
X166966601Y-84008663D01*
X166965160Y-84023295D01*
X166854049Y-84023295D01*
X166854049Y-83646708D01*
X169749491Y-83646708D01*
X169749491Y-85018930D01*
G37*
G36*
X186275491Y-47934930D02*
G01*
X184380399Y-47934930D01*
X184380399Y-47232249D01*
X184491510Y-47232249D01*
X184492601Y-47235864D01*
X184492601Y-47239640D01*
X184496795Y-47249765D01*
X184499963Y-47260265D01*
X184502354Y-47263188D01*
X184503800Y-47266677D01*
X184511553Y-47274430D01*
X184518494Y-47282913D01*
X184521820Y-47284697D01*
X184524492Y-47287369D01*
X184534619Y-47291564D01*
X184544281Y-47296747D01*
X184548040Y-47297122D01*
X184551529Y-47298568D01*
X184562490Y-47298568D01*
X184573400Y-47299659D01*
X184577016Y-47298568D01*
X184580791Y-47298568D01*
X184590916Y-47294373D01*
X184601416Y-47291206D01*
X184604339Y-47288814D01*
X184607828Y-47287369D01*
X184619193Y-47278042D01*
X184658206Y-47239029D01*
X184726722Y-47204771D01*
X184929407Y-47204771D01*
X184997923Y-47239029D01*
X185028330Y-47269436D01*
X185062588Y-47337952D01*
X185062588Y-47540637D01*
X185028329Y-47609153D01*
X184997922Y-47639561D01*
X184929407Y-47673819D01*
X184726722Y-47673819D01*
X184658206Y-47639561D01*
X184619194Y-47600548D01*
X184607828Y-47591220D01*
X184580792Y-47580021D01*
X184551529Y-47580021D01*
X184524493Y-47591219D01*
X184503800Y-47611912D01*
X184492601Y-47638948D01*
X184492601Y-47668211D01*
X184503799Y-47695247D01*
X184513126Y-47706612D01*
X184560745Y-47754232D01*
X184566494Y-47758950D01*
X184567795Y-47760450D01*
X184570054Y-47761872D01*
X184572111Y-47763560D01*
X184573938Y-47764317D01*
X184580238Y-47768282D01*
X184675476Y-47815901D01*
X184689207Y-47821156D01*
X184691896Y-47821347D01*
X184694385Y-47822378D01*
X184709017Y-47823819D01*
X184947112Y-47823819D01*
X184961744Y-47822378D01*
X184964233Y-47821346D01*
X184966921Y-47821156D01*
X184980653Y-47815901D01*
X185075891Y-47768282D01*
X185082190Y-47764317D01*
X185084018Y-47763560D01*
X185086074Y-47761872D01*
X185088334Y-47760450D01*
X185089634Y-47758950D01*
X185095384Y-47754232D01*
X185143002Y-47706613D01*
X185147720Y-47700863D01*
X185149219Y-47699564D01*
X185150640Y-47697305D01*
X185152330Y-47695247D01*
X185153087Y-47693417D01*
X185157051Y-47687121D01*
X185204670Y-47591883D01*
X185209925Y-47578152D01*
X185210116Y-47575462D01*
X185211147Y-47572974D01*
X185212588Y-47558342D01*
X185212588Y-47320247D01*
X185211147Y-47305615D01*
X185210116Y-47303126D01*
X185209925Y-47300437D01*
X185204670Y-47286706D01*
X185157051Y-47191468D01*
X185153086Y-47185168D01*
X185152329Y-47183341D01*
X185150640Y-47181284D01*
X185149219Y-47179025D01*
X185147720Y-47177725D01*
X185143002Y-47171976D01*
X185095383Y-47124357D01*
X185089633Y-47119638D01*
X185088334Y-47118140D01*
X185086074Y-47116718D01*
X185084018Y-47115030D01*
X185082190Y-47114272D01*
X185075891Y-47110308D01*
X184980653Y-47062689D01*
X184966921Y-47057434D01*
X184964233Y-47057243D01*
X184961744Y-47056212D01*
X184947112Y-47054771D01*
X184709017Y-47054771D01*
X184694385Y-47056212D01*
X184691896Y-47057242D01*
X184689207Y-47057434D01*
X184675476Y-47062689D01*
X184656834Y-47072009D01*
X184681653Y-46823819D01*
X185089969Y-46823819D01*
X185104601Y-46822378D01*
X185131637Y-46811179D01*
X185152329Y-46790487D01*
X185163528Y-46763451D01*
X185163528Y-46758199D01*
X185348892Y-46758199D01*
X185352152Y-46772536D01*
X185685485Y-47772536D01*
X185691479Y-47785961D01*
X185694989Y-47790008D01*
X185697386Y-47794802D01*
X185704494Y-47800967D01*
X185710653Y-47808068D01*
X185715442Y-47810462D01*
X185719493Y-47813976D01*
X185728418Y-47816950D01*
X185736826Y-47821155D01*
X185742170Y-47821534D01*
X185747256Y-47823230D01*
X185756636Y-47822563D01*
X185766016Y-47823230D01*
X185771101Y-47821534D01*
X185776446Y-47821155D01*
X185784856Y-47816949D01*
X185793778Y-47813976D01*
X185797825Y-47810465D01*
X185802619Y-47808069D01*
X185808782Y-47800963D01*
X185815886Y-47794802D01*
X185818281Y-47790010D01*
X185821793Y-47785962D01*
X185827787Y-47772536D01*
X186161120Y-46772536D01*
X186164380Y-46758200D01*
X186162305Y-46729010D01*
X186149219Y-46702836D01*
X186127111Y-46683662D01*
X186099349Y-46674408D01*
X186070159Y-46676483D01*
X186043986Y-46689570D01*
X186024812Y-46711677D01*
X186018818Y-46725102D01*
X185756636Y-47511648D01*
X185494454Y-46725102D01*
X185488460Y-46711676D01*
X185469286Y-46689569D01*
X185443113Y-46676483D01*
X185413923Y-46674408D01*
X185386160Y-46683662D01*
X185364053Y-46702836D01*
X185350967Y-46729009D01*
X185348892Y-46758199D01*
X185163528Y-46758199D01*
X185163528Y-46734187D01*
X185152329Y-46707151D01*
X185131637Y-46686459D01*
X185104601Y-46675260D01*
X185089969Y-46673819D01*
X184613779Y-46673819D01*
X184608367Y-46674351D01*
X184606539Y-46674169D01*
X184604752Y-46674707D01*
X184599147Y-46675260D01*
X184589020Y-46679454D01*
X184578523Y-46682622D01*
X184575599Y-46685013D01*
X184572111Y-46686459D01*
X184564357Y-46694212D01*
X184555875Y-46701153D01*
X184554090Y-46704479D01*
X184551419Y-46707151D01*
X184547223Y-46717280D01*
X184542041Y-46726940D01*
X184540933Y-46732464D01*
X184540220Y-46734187D01*
X184540220Y-46736023D01*
X184539151Y-46741356D01*
X184491532Y-47217546D01*
X184491510Y-47232249D01*
X184380399Y-47232249D01*
X184380399Y-46562708D01*
X186275491Y-46562708D01*
X186275491Y-47934930D01*
G37*
G36*
X187001836Y-49401990D02*
G01*
X187075949Y-49476103D01*
X187114442Y-49553090D01*
X187157826Y-49726624D01*
X187157826Y-49851013D01*
X187114442Y-50024547D01*
X187075948Y-50101534D01*
X187001836Y-50175647D01*
X186887323Y-50213819D01*
X186736398Y-50213819D01*
X186736398Y-49363819D01*
X186887323Y-49363819D01*
X187001836Y-49401990D01*
G37*
G36*
X187418937Y-50474930D02*
G01*
X184380049Y-50474930D01*
X184380049Y-49717390D01*
X184491160Y-49717390D01*
X184491160Y-49860247D01*
X184491411Y-49862800D01*
X184491249Y-49863893D01*
X184492058Y-49869366D01*
X184492601Y-49874879D01*
X184493023Y-49875900D01*
X184493399Y-49878437D01*
X184541018Y-50068913D01*
X184541403Y-50069992D01*
X184541442Y-50070532D01*
X184543769Y-50076613D01*
X184545965Y-50082759D01*
X184546287Y-50083194D01*
X184546697Y-50084264D01*
X184594316Y-50179502D01*
X184598279Y-50185798D01*
X184599037Y-50187628D01*
X184600726Y-50189686D01*
X184602148Y-50191945D01*
X184603646Y-50193244D01*
X184608365Y-50198994D01*
X184703603Y-50294233D01*
X184714968Y-50303561D01*
X184717458Y-50304592D01*
X184719493Y-50306357D01*
X184732919Y-50312351D01*
X184875775Y-50359970D01*
X184883030Y-50361619D01*
X184884861Y-50362378D01*
X184887514Y-50362639D01*
X184890112Y-50363230D01*
X184892086Y-50363089D01*
X184899493Y-50363819D01*
X184994731Y-50363819D01*
X185002136Y-50363089D01*
X185004111Y-50363230D01*
X185006708Y-50362639D01*
X185009363Y-50362378D01*
X185011194Y-50361619D01*
X185018448Y-50359970D01*
X185161305Y-50312351D01*
X185174730Y-50306357D01*
X185176765Y-50304591D01*
X185179256Y-50303560D01*
X185190622Y-50294232D01*
X185238240Y-50246613D01*
X185247568Y-50235247D01*
X185254849Y-50217668D01*
X185258766Y-50208212D01*
X185260207Y-50193580D01*
X185260207Y-49860247D01*
X185258766Y-49845615D01*
X185247567Y-49818579D01*
X185226875Y-49797887D01*
X185199839Y-49786688D01*
X185185207Y-49785247D01*
X184994731Y-49785247D01*
X184980099Y-49786688D01*
X184953063Y-49797887D01*
X184932371Y-49818579D01*
X184921172Y-49845615D01*
X184921172Y-49874879D01*
X184932371Y-49901915D01*
X184953063Y-49922607D01*
X184980099Y-49933806D01*
X184994731Y-49935247D01*
X185110207Y-49935247D01*
X185110207Y-50162514D01*
X185097074Y-50175647D01*
X184982561Y-50213819D01*
X184911663Y-50213819D01*
X184797150Y-50175648D01*
X184723037Y-50101534D01*
X184684543Y-50024547D01*
X184641160Y-49851013D01*
X184641160Y-49726624D01*
X184684543Y-49553090D01*
X184723037Y-49476103D01*
X184797150Y-49401990D01*
X184911663Y-49363819D01*
X185024645Y-49363819D01*
X185104047Y-49403520D01*
X185117778Y-49408775D01*
X185146968Y-49410849D01*
X185174730Y-49401595D01*
X185196837Y-49382422D01*
X185209925Y-49356247D01*
X185211999Y-49327057D01*
X185202745Y-49299296D01*
X185193659Y-49288819D01*
X185538779Y-49288819D01*
X185538779Y-50288819D01*
X185540220Y-50303451D01*
X185551419Y-50330487D01*
X185572111Y-50351179D01*
X185599147Y-50362378D01*
X185628411Y-50362378D01*
X185655447Y-50351179D01*
X185676139Y-50330487D01*
X185687338Y-50303451D01*
X185688779Y-50288819D01*
X185688779Y-49571235D01*
X186120089Y-50326030D01*
X186122278Y-50329114D01*
X186122847Y-50330487D01*
X186124244Y-50331884D01*
X186128599Y-50338019D01*
X186136487Y-50344127D01*
X186143539Y-50351179D01*
X186147957Y-50353009D01*
X186151737Y-50355936D01*
X186161358Y-50358560D01*
X186170575Y-50362378D01*
X186175356Y-50362378D01*
X186179968Y-50363636D01*
X186189865Y-50362378D01*
X186199839Y-50362378D01*
X186204254Y-50360548D01*
X186208998Y-50359946D01*
X186217662Y-50354995D01*
X186226875Y-50351179D01*
X186230253Y-50347800D01*
X186234407Y-50345427D01*
X186240516Y-50337537D01*
X186247567Y-50330487D01*
X186249396Y-50326070D01*
X186252324Y-50322290D01*
X186254948Y-50312666D01*
X186258766Y-50303451D01*
X186259502Y-50295968D01*
X186260024Y-50294058D01*
X186259836Y-50292582D01*
X186260207Y-50288819D01*
X186260207Y-49288819D01*
X186586398Y-49288819D01*
X186586398Y-50288819D01*
X186587839Y-50303451D01*
X186599038Y-50330487D01*
X186619730Y-50351179D01*
X186646766Y-50362378D01*
X186661398Y-50363819D01*
X186899493Y-50363819D01*
X186906898Y-50363089D01*
X186908873Y-50363230D01*
X186911470Y-50362639D01*
X186914125Y-50362378D01*
X186915956Y-50361619D01*
X186923210Y-50359970D01*
X187066067Y-50312351D01*
X187079492Y-50306357D01*
X187081527Y-50304591D01*
X187084018Y-50303560D01*
X187095383Y-50294233D01*
X187190622Y-50198993D01*
X187195339Y-50193244D01*
X187196838Y-50191945D01*
X187198259Y-50189686D01*
X187199949Y-50187628D01*
X187200706Y-50185798D01*
X187204670Y-50179502D01*
X187252289Y-50084264D01*
X187252698Y-50083194D01*
X187253021Y-50082759D01*
X187255213Y-50076622D01*
X187257544Y-50070533D01*
X187257582Y-50069992D01*
X187257968Y-50068913D01*
X187305587Y-49878437D01*
X187305962Y-49875900D01*
X187306385Y-49874879D01*
X187306927Y-49869366D01*
X187307737Y-49863893D01*
X187307574Y-49862800D01*
X187307826Y-49860247D01*
X187307826Y-49717390D01*
X187307574Y-49714836D01*
X187307737Y-49713744D01*
X187306927Y-49708270D01*
X187306385Y-49702758D01*
X187305962Y-49701736D01*
X187305587Y-49699200D01*
X187257968Y-49508724D01*
X187257582Y-49507644D01*
X187257544Y-49507104D01*
X187255213Y-49501014D01*
X187253021Y-49494878D01*
X187252698Y-49494442D01*
X187252289Y-49493373D01*
X187204670Y-49398135D01*
X187200707Y-49391840D01*
X187199949Y-49390008D01*
X187198257Y-49387946D01*
X187196838Y-49385692D01*
X187195341Y-49384393D01*
X187190621Y-49378643D01*
X187095383Y-49283405D01*
X187084018Y-49274078D01*
X187081527Y-49273046D01*
X187079492Y-49271281D01*
X187066067Y-49265287D01*
X186923210Y-49217668D01*
X186915956Y-49216018D01*
X186914125Y-49215260D01*
X186911470Y-49214998D01*
X186908873Y-49214408D01*
X186906898Y-49214548D01*
X186899493Y-49213819D01*
X186661398Y-49213819D01*
X186646766Y-49215260D01*
X186619730Y-49226459D01*
X186599038Y-49247151D01*
X186587839Y-49274187D01*
X186586398Y-49288819D01*
X186260207Y-49288819D01*
X186258766Y-49274187D01*
X186247567Y-49247151D01*
X186226875Y-49226459D01*
X186199839Y-49215260D01*
X186170575Y-49215260D01*
X186143539Y-49226459D01*
X186122847Y-49247151D01*
X186111648Y-49274187D01*
X186110207Y-49288819D01*
X186110207Y-50006402D01*
X185678897Y-49251609D01*
X185676708Y-49248525D01*
X185676139Y-49247151D01*
X185674739Y-49245751D01*
X185670387Y-49239619D01*
X185662497Y-49233509D01*
X185655447Y-49226459D01*
X185651030Y-49224629D01*
X185647250Y-49221702D01*
X185637626Y-49219077D01*
X185628411Y-49215260D01*
X185623630Y-49215260D01*
X185619018Y-49214002D01*
X185609121Y-49215260D01*
X185599147Y-49215260D01*
X185594731Y-49217089D01*
X185589988Y-49217692D01*
X185581323Y-49222642D01*
X185572111Y-49226459D01*
X185568732Y-49229837D01*
X185564579Y-49232211D01*
X185558469Y-49240100D01*
X185551419Y-49247151D01*
X185549589Y-49251567D01*
X185546662Y-49255348D01*
X185544037Y-49264971D01*
X185540220Y-49274187D01*
X185539483Y-49281669D01*
X185538962Y-49283580D01*
X185539149Y-49285055D01*
X185538779Y-49288819D01*
X185193659Y-49288819D01*
X185183572Y-49277188D01*
X185171129Y-49269356D01*
X185075891Y-49221737D01*
X185062159Y-49216482D01*
X185059471Y-49216291D01*
X185056982Y-49215260D01*
X185042350Y-49213819D01*
X184899493Y-49213819D01*
X184892086Y-49214548D01*
X184890112Y-49214408D01*
X184887514Y-49214998D01*
X184884861Y-49215260D01*
X184883030Y-49216018D01*
X184875775Y-49217668D01*
X184732919Y-49265287D01*
X184719493Y-49271281D01*
X184717458Y-49273045D01*
X184714968Y-49274077D01*
X184703603Y-49283405D01*
X184608365Y-49378643D01*
X184603646Y-49384392D01*
X184602148Y-49385692D01*
X184600726Y-49387951D01*
X184599038Y-49390008D01*
X184598280Y-49391835D01*
X184594316Y-49398135D01*
X184546697Y-49493373D01*
X184546287Y-49494442D01*
X184545965Y-49494878D01*
X184543769Y-49501023D01*
X184541442Y-49507105D01*
X184541403Y-49507644D01*
X184541018Y-49508724D01*
X184493399Y-49699200D01*
X184493023Y-49701736D01*
X184492601Y-49702758D01*
X184492058Y-49708270D01*
X184491249Y-49713744D01*
X184491411Y-49714836D01*
X184491160Y-49717390D01*
X184380049Y-49717390D01*
X184380049Y-49102708D01*
X187418937Y-49102708D01*
X187418937Y-50474930D01*
G37*
G36*
X187133223Y-52887930D02*
G01*
X184333871Y-52887930D01*
X184333871Y-51687187D01*
X184444982Y-51687187D01*
X184444982Y-51716451D01*
X184456181Y-51743487D01*
X184476873Y-51764179D01*
X184503909Y-51775378D01*
X184518541Y-51776819D01*
X184972306Y-51776819D01*
X184747812Y-52033383D01*
X184743290Y-52039707D01*
X184741895Y-52041103D01*
X184741346Y-52042426D01*
X184739261Y-52045344D01*
X184735359Y-52056881D01*
X184730696Y-52068139D01*
X184730696Y-52070669D01*
X184729886Y-52073065D01*
X184730696Y-52085218D01*
X184730696Y-52097403D01*
X184731663Y-52099739D01*
X184731832Y-52102263D01*
X184737234Y-52113188D01*
X184741895Y-52124439D01*
X184743681Y-52126225D01*
X184744804Y-52128495D01*
X184753976Y-52136520D01*
X184762587Y-52145131D01*
X184764923Y-52146099D01*
X184766828Y-52147765D01*
X184778365Y-52151666D01*
X184789623Y-52156330D01*
X184793193Y-52156681D01*
X184794549Y-52157140D01*
X184796516Y-52157008D01*
X184804255Y-52157771D01*
X184929407Y-52157771D01*
X184997923Y-52192029D01*
X185028330Y-52222436D01*
X185062588Y-52290952D01*
X185062588Y-52493637D01*
X185028329Y-52562153D01*
X184997922Y-52592561D01*
X184929407Y-52626819D01*
X184679103Y-52626819D01*
X184610587Y-52592561D01*
X184571575Y-52553548D01*
X184560209Y-52544220D01*
X184533173Y-52533021D01*
X184503910Y-52533021D01*
X184476874Y-52544219D01*
X184456181Y-52564912D01*
X184444982Y-52591948D01*
X184444982Y-52621211D01*
X184456180Y-52648247D01*
X184465507Y-52659612D01*
X184513126Y-52707232D01*
X184518875Y-52711950D01*
X184520176Y-52713450D01*
X184522435Y-52714872D01*
X184524492Y-52716560D01*
X184526319Y-52717317D01*
X184532619Y-52721282D01*
X184627857Y-52768901D01*
X184641588Y-52774156D01*
X184644277Y-52774347D01*
X184646766Y-52775378D01*
X184661398Y-52776819D01*
X184947112Y-52776819D01*
X184961744Y-52775378D01*
X184964233Y-52774346D01*
X184966921Y-52774156D01*
X184980653Y-52768901D01*
X185075891Y-52721282D01*
X185082190Y-52717317D01*
X185084018Y-52716560D01*
X185086074Y-52714872D01*
X185088334Y-52713450D01*
X185089634Y-52711950D01*
X185095384Y-52707232D01*
X185143002Y-52659613D01*
X185147720Y-52653863D01*
X185149219Y-52652564D01*
X185150640Y-52650305D01*
X185152330Y-52648247D01*
X185153087Y-52646417D01*
X185157051Y-52640121D01*
X185204670Y-52544883D01*
X185209925Y-52531152D01*
X185210116Y-52528462D01*
X185211147Y-52525974D01*
X185212588Y-52511342D01*
X185212588Y-52273247D01*
X185211147Y-52258615D01*
X185210116Y-52256126D01*
X185209925Y-52253437D01*
X185204670Y-52239706D01*
X185157051Y-52144468D01*
X185153086Y-52138168D01*
X185152329Y-52136341D01*
X185150640Y-52134284D01*
X185149219Y-52132025D01*
X185147720Y-52130725D01*
X185143002Y-52124976D01*
X185095383Y-52077357D01*
X185089633Y-52072638D01*
X185088334Y-52071140D01*
X185086074Y-52069718D01*
X185084018Y-52068030D01*
X185082190Y-52067272D01*
X185075891Y-52063308D01*
X184980653Y-52015689D01*
X184967135Y-52010516D01*
X185194031Y-51751207D01*
X185198552Y-51744882D01*
X185199948Y-51743487D01*
X185200496Y-51742163D01*
X185202582Y-51739246D01*
X185206483Y-51727708D01*
X185211147Y-51716451D01*
X185211147Y-51713920D01*
X185211957Y-51711525D01*
X185211935Y-51711199D01*
X185348892Y-51711199D01*
X185352152Y-51725536D01*
X185685485Y-52725536D01*
X185691479Y-52738961D01*
X185694989Y-52743008D01*
X185697386Y-52747802D01*
X185704494Y-52753967D01*
X185710653Y-52761068D01*
X185715442Y-52763462D01*
X185719493Y-52766976D01*
X185728418Y-52769950D01*
X185736826Y-52774155D01*
X185742170Y-52774534D01*
X185747256Y-52776230D01*
X185756636Y-52775563D01*
X185766016Y-52776230D01*
X185771101Y-52774534D01*
X185776446Y-52774155D01*
X185784856Y-52769949D01*
X185793778Y-52766976D01*
X185797825Y-52763465D01*
X185802619Y-52761069D01*
X185808782Y-52753963D01*
X185815886Y-52747802D01*
X185818281Y-52743010D01*
X185821793Y-52738962D01*
X185827787Y-52725536D01*
X186161120Y-51725536D01*
X186164380Y-51711200D01*
X186162673Y-51687187D01*
X186254506Y-51687187D01*
X186254506Y-51716451D01*
X186265705Y-51743487D01*
X186286397Y-51764179D01*
X186313433Y-51775378D01*
X186328065Y-51776819D01*
X186781830Y-51776819D01*
X186557336Y-52033383D01*
X186552814Y-52039707D01*
X186551419Y-52041103D01*
X186550870Y-52042426D01*
X186548785Y-52045344D01*
X186544883Y-52056881D01*
X186540220Y-52068139D01*
X186540220Y-52070669D01*
X186539410Y-52073065D01*
X186540220Y-52085218D01*
X186540220Y-52097403D01*
X186541187Y-52099739D01*
X186541356Y-52102263D01*
X186546758Y-52113188D01*
X186551419Y-52124439D01*
X186553205Y-52126225D01*
X186554328Y-52128495D01*
X186563500Y-52136520D01*
X186572111Y-52145131D01*
X186574447Y-52146099D01*
X186576352Y-52147765D01*
X186587889Y-52151666D01*
X186599147Y-52156330D01*
X186602717Y-52156681D01*
X186604073Y-52157140D01*
X186606040Y-52157008D01*
X186613779Y-52157771D01*
X186738931Y-52157771D01*
X186807447Y-52192029D01*
X186837854Y-52222436D01*
X186872112Y-52290952D01*
X186872112Y-52493637D01*
X186837853Y-52562153D01*
X186807446Y-52592561D01*
X186738931Y-52626819D01*
X186488627Y-52626819D01*
X186420111Y-52592561D01*
X186381099Y-52553548D01*
X186369733Y-52544220D01*
X186342697Y-52533021D01*
X186313434Y-52533021D01*
X186286398Y-52544219D01*
X186265705Y-52564912D01*
X186254506Y-52591948D01*
X186254506Y-52621211D01*
X186265704Y-52648247D01*
X186275031Y-52659612D01*
X186322650Y-52707232D01*
X186328399Y-52711950D01*
X186329700Y-52713450D01*
X186331959Y-52714872D01*
X186334016Y-52716560D01*
X186335843Y-52717317D01*
X186342143Y-52721282D01*
X186437381Y-52768901D01*
X186451112Y-52774156D01*
X186453801Y-52774347D01*
X186456290Y-52775378D01*
X186470922Y-52776819D01*
X186756636Y-52776819D01*
X186771268Y-52775378D01*
X186773757Y-52774346D01*
X186776445Y-52774156D01*
X186790177Y-52768901D01*
X186885415Y-52721282D01*
X186891714Y-52717317D01*
X186893542Y-52716560D01*
X186895598Y-52714872D01*
X186897858Y-52713450D01*
X186899158Y-52711950D01*
X186904908Y-52707232D01*
X186952526Y-52659613D01*
X186957244Y-52653863D01*
X186958743Y-52652564D01*
X186960164Y-52650305D01*
X186961854Y-52648247D01*
X186962611Y-52646417D01*
X186966575Y-52640121D01*
X187014194Y-52544883D01*
X187019449Y-52531152D01*
X187019640Y-52528462D01*
X187020671Y-52525974D01*
X187022112Y-52511342D01*
X187022112Y-52273247D01*
X187020671Y-52258615D01*
X187019640Y-52256126D01*
X187019449Y-52253437D01*
X187014194Y-52239706D01*
X186966575Y-52144468D01*
X186962610Y-52138168D01*
X186961853Y-52136341D01*
X186960164Y-52134284D01*
X186958743Y-52132025D01*
X186957244Y-52130725D01*
X186952526Y-52124976D01*
X186904907Y-52077357D01*
X186899157Y-52072638D01*
X186897858Y-52071140D01*
X186895598Y-52069718D01*
X186893542Y-52068030D01*
X186891714Y-52067272D01*
X186885415Y-52063308D01*
X186790177Y-52015689D01*
X186776659Y-52010516D01*
X187003555Y-51751207D01*
X187008076Y-51744882D01*
X187009472Y-51743487D01*
X187010020Y-51742163D01*
X187012106Y-51739246D01*
X187016007Y-51727708D01*
X187020671Y-51716451D01*
X187020671Y-51713920D01*
X187021481Y-51711525D01*
X187020671Y-51699371D01*
X187020671Y-51687187D01*
X187019703Y-51684850D01*
X187019535Y-51682327D01*
X187014132Y-51671401D01*
X187009472Y-51660151D01*
X187007685Y-51658364D01*
X187006563Y-51656095D01*
X186997390Y-51648069D01*
X186988780Y-51639459D01*
X186986443Y-51638490D01*
X186984539Y-51636825D01*
X186973001Y-51632923D01*
X186961744Y-51628260D01*
X186958173Y-51627908D01*
X186956818Y-51627450D01*
X186954850Y-51627581D01*
X186947112Y-51626819D01*
X186328065Y-51626819D01*
X186313433Y-51628260D01*
X186286397Y-51639459D01*
X186265705Y-51660151D01*
X186254506Y-51687187D01*
X186162673Y-51687187D01*
X186162305Y-51682010D01*
X186149219Y-51655836D01*
X186127111Y-51636662D01*
X186099349Y-51627408D01*
X186070159Y-51629483D01*
X186043986Y-51642570D01*
X186024812Y-51664677D01*
X186018818Y-51678102D01*
X185756636Y-52464648D01*
X185494454Y-51678102D01*
X185488460Y-51664676D01*
X185469286Y-51642569D01*
X185443113Y-51629483D01*
X185413923Y-51627408D01*
X185386160Y-51636662D01*
X185364053Y-51655836D01*
X185350967Y-51682009D01*
X185348892Y-51711199D01*
X185211935Y-51711199D01*
X185211147Y-51699371D01*
X185211147Y-51687187D01*
X185210179Y-51684850D01*
X185210011Y-51682327D01*
X185204608Y-51671401D01*
X185199948Y-51660151D01*
X185198161Y-51658364D01*
X185197039Y-51656095D01*
X185187866Y-51648069D01*
X185179256Y-51639459D01*
X185176919Y-51638490D01*
X185175015Y-51636825D01*
X185163477Y-51632923D01*
X185152220Y-51628260D01*
X185148649Y-51627908D01*
X185147294Y-51627450D01*
X185145326Y-51627581D01*
X185137588Y-51626819D01*
X184518541Y-51626819D01*
X184503909Y-51628260D01*
X184476873Y-51639459D01*
X184456181Y-51660151D01*
X184444982Y-51687187D01*
X184333871Y-51687187D01*
X184333871Y-51515708D01*
X187133223Y-51515708D01*
X187133223Y-52887930D01*
G37*
G36*
X108981963Y-58256050D02*
G01*
X109012370Y-58286457D01*
X109046628Y-58354973D01*
X109046628Y-58643220D01*
X108672819Y-58643220D01*
X108672819Y-58354973D01*
X108707077Y-58286457D01*
X108737484Y-58256050D01*
X108806000Y-58221792D01*
X108913447Y-58221792D01*
X108981963Y-58256050D01*
G37*
G36*
X109172999Y-57690839D02*
G01*
X109091714Y-57690839D01*
X109034672Y-57662318D01*
X109006152Y-57605277D01*
X109006152Y-57450211D01*
X109034672Y-57393169D01*
X109091714Y-57364649D01*
X109107761Y-57364649D01*
X109172999Y-57690839D01*
G37*
G36*
X108981963Y-55446526D02*
G01*
X109012370Y-55476933D01*
X109046628Y-55545449D01*
X109046628Y-55833696D01*
X108672819Y-55833696D01*
X108672819Y-55545449D01*
X108707077Y-55476933D01*
X108737484Y-55446526D01*
X108806000Y-55412268D01*
X108913447Y-55412268D01*
X108981963Y-55446526D01*
G37*
G36*
X108981963Y-54446526D02*
G01*
X109012370Y-54476933D01*
X109046628Y-54545449D01*
X109046628Y-54833696D01*
X108672819Y-54833696D01*
X108672819Y-54545449D01*
X108707077Y-54476933D01*
X108737484Y-54446526D01*
X108806000Y-54412268D01*
X108913447Y-54412268D01*
X108981963Y-54446526D01*
G37*
G36*
X108981963Y-52684621D02*
G01*
X109012370Y-52715028D01*
X109046628Y-52783544D01*
X109046628Y-53071791D01*
X108672819Y-53071791D01*
X108672819Y-52783544D01*
X108707077Y-52715028D01*
X108737484Y-52684621D01*
X108806000Y-52650363D01*
X108913447Y-52650363D01*
X108981963Y-52684621D01*
G37*
G36*
X109381166Y-49217555D02*
G01*
X109458153Y-49256049D01*
X109488561Y-49286456D01*
X109522819Y-49354972D01*
X109522819Y-49414800D01*
X109488561Y-49483315D01*
X109458153Y-49513722D01*
X109381166Y-49552216D01*
X109207632Y-49595600D01*
X108988005Y-49595600D01*
X108814471Y-49552216D01*
X108737484Y-49513723D01*
X108707077Y-49483316D01*
X108672819Y-49414800D01*
X108672819Y-49354972D01*
X108707077Y-49286456D01*
X108737484Y-49256049D01*
X108814471Y-49217555D01*
X108988005Y-49174172D01*
X109207632Y-49174172D01*
X109381166Y-49217555D01*
G37*
G36*
X109783930Y-58904331D02*
G01*
X108411708Y-58904331D01*
X108411708Y-58337268D01*
X108522819Y-58337268D01*
X108522819Y-58718220D01*
X108524260Y-58732852D01*
X108535459Y-58759888D01*
X108556151Y-58780580D01*
X108583187Y-58791779D01*
X108597819Y-58793220D01*
X109597819Y-58793220D01*
X109612451Y-58791779D01*
X109639487Y-58780580D01*
X109660179Y-58759888D01*
X109671378Y-58732852D01*
X109671378Y-58703588D01*
X109660179Y-58676552D01*
X109639487Y-58655860D01*
X109612451Y-58644661D01*
X109597819Y-58643220D01*
X109196628Y-58643220D01*
X109196628Y-58519174D01*
X109640829Y-58208234D01*
X109651989Y-58198663D01*
X109667716Y-58173984D01*
X109672802Y-58145167D01*
X109666472Y-58116596D01*
X109649690Y-58092622D01*
X109625012Y-58076895D01*
X109596194Y-58071810D01*
X109567623Y-58078139D01*
X109554810Y-58085349D01*
X109196518Y-58336152D01*
X109195187Y-58322636D01*
X109194156Y-58320147D01*
X109193965Y-58317458D01*
X109188710Y-58303727D01*
X109141091Y-58208489D01*
X109137126Y-58202189D01*
X109136369Y-58200362D01*
X109134680Y-58198305D01*
X109133259Y-58196046D01*
X109131760Y-58194746D01*
X109127042Y-58188997D01*
X109079423Y-58141378D01*
X109073673Y-58136659D01*
X109072374Y-58135161D01*
X109070114Y-58133739D01*
X109068058Y-58132051D01*
X109066230Y-58131293D01*
X109059931Y-58127329D01*
X108964693Y-58079710D01*
X108950961Y-58074455D01*
X108948273Y-58074264D01*
X108945784Y-58073233D01*
X108931152Y-58071792D01*
X108788295Y-58071792D01*
X108773663Y-58073233D01*
X108771174Y-58074263D01*
X108768485Y-58074455D01*
X108754754Y-58079710D01*
X108659516Y-58127329D01*
X108653216Y-58131293D01*
X108651389Y-58132051D01*
X108649332Y-58133739D01*
X108647073Y-58135161D01*
X108645773Y-58136659D01*
X108640024Y-58141378D01*
X108592405Y-58188997D01*
X108587686Y-58194746D01*
X108586188Y-58196046D01*
X108584766Y-58198305D01*
X108583078Y-58200362D01*
X108582320Y-58202189D01*
X108578356Y-58208489D01*
X108530737Y-58303727D01*
X108525482Y-58317459D01*
X108525291Y-58320146D01*
X108524260Y-58322636D01*
X108522819Y-58337268D01*
X108411708Y-58337268D01*
X108411708Y-57432506D01*
X108856152Y-57432506D01*
X108856152Y-57622982D01*
X108857593Y-57637614D01*
X108858624Y-57640103D01*
X108858815Y-57642791D01*
X108864070Y-57656523D01*
X108911689Y-57751761D01*
X108913229Y-57754208D01*
X108913614Y-57755362D01*
X108914859Y-57756798D01*
X108919521Y-57764204D01*
X108926625Y-57770365D01*
X108932787Y-57777470D01*
X108940192Y-57782131D01*
X108941629Y-57783377D01*
X108942782Y-57783761D01*
X108945230Y-57785302D01*
X109040468Y-57832921D01*
X109054199Y-57838176D01*
X109056888Y-57838367D01*
X109059377Y-57839398D01*
X109074009Y-57840839D01*
X109264563Y-57840839D01*
X109454961Y-57840839D01*
X109469593Y-57839398D01*
X109472082Y-57838366D01*
X109474770Y-57838176D01*
X109488502Y-57832921D01*
X109583741Y-57785302D01*
X109586187Y-57783761D01*
X109587342Y-57783377D01*
X109588779Y-57782130D01*
X109596183Y-57777470D01*
X109602342Y-57770367D01*
X109609450Y-57764204D01*
X109614111Y-57756798D01*
X109615357Y-57755362D01*
X109615741Y-57754208D01*
X109617282Y-57751761D01*
X109664901Y-57656523D01*
X109670156Y-57642792D01*
X109670347Y-57640102D01*
X109671378Y-57637614D01*
X109672819Y-57622982D01*
X109672819Y-57432506D01*
X109671378Y-57417874D01*
X109670347Y-57415385D01*
X109670156Y-57412696D01*
X109664901Y-57398965D01*
X109617282Y-57303727D01*
X109609450Y-57291284D01*
X109587342Y-57272111D01*
X109559581Y-57262857D01*
X109530391Y-57264931D01*
X109504216Y-57278018D01*
X109485043Y-57300126D01*
X109475789Y-57327887D01*
X109477863Y-57357077D01*
X109483118Y-57370809D01*
X109522819Y-57450211D01*
X109522819Y-57605277D01*
X109494298Y-57662318D01*
X109437256Y-57690839D01*
X109325970Y-57690839D01*
X109242791Y-57274940D01*
X109238508Y-57260875D01*
X109234418Y-57254769D01*
X109231607Y-57247981D01*
X109226356Y-57242730D01*
X109222224Y-57236560D01*
X109216110Y-57232484D01*
X109210915Y-57227289D01*
X109204055Y-57224447D01*
X109197876Y-57220328D01*
X109190667Y-57218901D01*
X109183879Y-57216090D01*
X109169247Y-57214649D01*
X109074009Y-57214649D01*
X109059377Y-57216090D01*
X109056888Y-57217120D01*
X109054199Y-57217312D01*
X109040468Y-57222567D01*
X108945230Y-57270186D01*
X108942782Y-57271726D01*
X108941629Y-57272111D01*
X108940192Y-57273356D01*
X108932787Y-57278018D01*
X108926625Y-57285122D01*
X108919521Y-57291284D01*
X108914859Y-57298689D01*
X108913614Y-57300126D01*
X108913229Y-57301279D01*
X108911689Y-57303727D01*
X108864070Y-57398965D01*
X108858815Y-57412697D01*
X108858624Y-57415384D01*
X108857593Y-57417874D01*
X108856152Y-57432506D01*
X108411708Y-57432506D01*
X108411708Y-56480125D01*
X108522819Y-56480125D01*
X108522819Y-56718220D01*
X108524260Y-56732852D01*
X108525291Y-56735341D01*
X108525482Y-56738029D01*
X108530737Y-56751761D01*
X108578356Y-56846999D01*
X108582320Y-56853298D01*
X108583078Y-56855126D01*
X108584766Y-56857182D01*
X108586188Y-56859442D01*
X108587686Y-56860741D01*
X108592405Y-56866491D01*
X108640024Y-56914110D01*
X108645773Y-56918828D01*
X108647073Y-56920327D01*
X108649332Y-56921748D01*
X108651389Y-56923437D01*
X108653216Y-56924194D01*
X108659516Y-56928159D01*
X108754754Y-56975778D01*
X108768485Y-56981033D01*
X108771174Y-56981224D01*
X108773663Y-56982255D01*
X108788295Y-56983696D01*
X108883533Y-56983696D01*
X108898165Y-56982255D01*
X108900654Y-56981223D01*
X108903342Y-56981033D01*
X108917074Y-56975778D01*
X109012312Y-56928159D01*
X109018611Y-56924194D01*
X109020439Y-56923437D01*
X109022495Y-56921748D01*
X109024755Y-56920327D01*
X109026054Y-56918828D01*
X109031804Y-56914110D01*
X109079423Y-56866491D01*
X109084141Y-56860741D01*
X109085640Y-56859442D01*
X109087061Y-56857182D01*
X109088750Y-56855126D01*
X109089507Y-56853298D01*
X109093472Y-56846999D01*
X109141091Y-56751761D01*
X109141500Y-56750691D01*
X109141823Y-56750256D01*
X109144015Y-56744119D01*
X109146346Y-56738030D01*
X109146384Y-56737489D01*
X109146770Y-56736410D01*
X109192392Y-56553920D01*
X109230886Y-56476933D01*
X109261293Y-56446526D01*
X109329809Y-56412268D01*
X109389637Y-56412268D01*
X109458153Y-56446526D01*
X109488561Y-56476933D01*
X109522819Y-56545449D01*
X109522819Y-56753669D01*
X109479049Y-56884979D01*
X109475789Y-56899316D01*
X109477864Y-56928506D01*
X109490950Y-56954679D01*
X109513057Y-56973853D01*
X109540820Y-56983107D01*
X109570010Y-56981032D01*
X109596183Y-56967946D01*
X109615357Y-56945839D01*
X109621351Y-56932413D01*
X109668970Y-56789557D01*
X109670619Y-56782301D01*
X109671378Y-56780471D01*
X109671639Y-56777817D01*
X109672230Y-56775220D01*
X109672089Y-56773245D01*
X109672819Y-56765839D01*
X109672819Y-56527744D01*
X109671378Y-56513112D01*
X109670347Y-56510623D01*
X109670156Y-56507934D01*
X109664901Y-56494203D01*
X109617282Y-56398965D01*
X109613317Y-56392665D01*
X109612560Y-56390838D01*
X109610872Y-56388781D01*
X109609450Y-56386522D01*
X109607950Y-56385221D01*
X109603232Y-56379472D01*
X109555612Y-56331853D01*
X109549863Y-56327135D01*
X109548564Y-56325637D01*
X109546305Y-56324215D01*
X109544247Y-56322526D01*
X109542417Y-56321768D01*
X109536121Y-56317805D01*
X109440883Y-56270186D01*
X109427151Y-56264931D01*
X109424463Y-56264740D01*
X109421974Y-56263709D01*
X109407342Y-56262268D01*
X109312104Y-56262268D01*
X109297472Y-56263709D01*
X109294983Y-56264739D01*
X109292294Y-56264931D01*
X109278563Y-56270186D01*
X109183325Y-56317805D01*
X109177025Y-56321769D01*
X109175198Y-56322527D01*
X109173141Y-56324215D01*
X109170882Y-56325637D01*
X109169582Y-56327135D01*
X109163833Y-56331854D01*
X109116214Y-56379473D01*
X109111495Y-56385222D01*
X109109997Y-56386522D01*
X109108575Y-56388781D01*
X109106887Y-56390838D01*
X109106129Y-56392665D01*
X109102165Y-56398965D01*
X109054546Y-56494203D01*
X109054136Y-56495272D01*
X109053814Y-56495708D01*
X109051618Y-56501853D01*
X109049291Y-56507935D01*
X109049252Y-56508474D01*
X109048867Y-56509554D01*
X109003244Y-56692044D01*
X108964751Y-56769031D01*
X108934344Y-56799438D01*
X108865828Y-56833696D01*
X108806000Y-56833696D01*
X108737484Y-56799438D01*
X108707077Y-56769031D01*
X108672819Y-56700515D01*
X108672819Y-56492295D01*
X108716589Y-56360986D01*
X108719849Y-56346649D01*
X108717774Y-56317459D01*
X108704688Y-56291285D01*
X108682580Y-56272111D01*
X108654818Y-56262857D01*
X108625628Y-56264932D01*
X108599455Y-56278019D01*
X108580281Y-56300126D01*
X108574287Y-56313551D01*
X108526668Y-56456408D01*
X108525018Y-56463661D01*
X108524260Y-56465493D01*
X108523998Y-56468147D01*
X108523408Y-56470745D01*
X108523548Y-56472719D01*
X108522819Y-56480125D01*
X108411708Y-56480125D01*
X108411708Y-55527744D01*
X108522819Y-55527744D01*
X108522819Y-55908696D01*
X108524260Y-55923328D01*
X108535459Y-55950364D01*
X108556151Y-55971056D01*
X108583187Y-55982255D01*
X108597819Y-55983696D01*
X109597819Y-55983696D01*
X109612451Y-55982255D01*
X109639487Y-55971056D01*
X109660179Y-55950364D01*
X109671378Y-55923328D01*
X109671378Y-55894064D01*
X109660179Y-55867028D01*
X109639487Y-55846336D01*
X109612451Y-55835137D01*
X109597819Y-55833696D01*
X109196628Y-55833696D01*
X109196628Y-55527744D01*
X109195187Y-55513112D01*
X109194156Y-55510623D01*
X109193965Y-55507934D01*
X109188710Y-55494203D01*
X109141091Y-55398965D01*
X109137126Y-55392665D01*
X109136369Y-55390838D01*
X109134680Y-55388781D01*
X109133259Y-55386522D01*
X109131760Y-55385222D01*
X109127042Y-55379473D01*
X109079423Y-55331854D01*
X109073673Y-55327135D01*
X109072374Y-55325637D01*
X109070114Y-55324215D01*
X109068058Y-55322527D01*
X109066230Y-55321769D01*
X109059931Y-55317805D01*
X108964693Y-55270186D01*
X108950961Y-55264931D01*
X108948273Y-55264740D01*
X108945784Y-55263709D01*
X108931152Y-55262268D01*
X108788295Y-55262268D01*
X108773663Y-55263709D01*
X108771174Y-55264739D01*
X108768485Y-55264931D01*
X108754754Y-55270186D01*
X108659516Y-55317805D01*
X108653216Y-55321769D01*
X108651389Y-55322527D01*
X108649332Y-55324215D01*
X108647073Y-55325637D01*
X108645773Y-55327135D01*
X108640024Y-55331854D01*
X108592405Y-55379473D01*
X108587686Y-55385222D01*
X108586188Y-55386522D01*
X108584766Y-55388781D01*
X108583078Y-55390838D01*
X108582320Y-55392665D01*
X108578356Y-55398965D01*
X108530737Y-55494203D01*
X108525482Y-55507935D01*
X108525291Y-55510622D01*
X108524260Y-55513112D01*
X108522819Y-55527744D01*
X108411708Y-55527744D01*
X108411708Y-54527744D01*
X108522819Y-54527744D01*
X108522819Y-54908696D01*
X108524260Y-54923328D01*
X108535459Y-54950364D01*
X108556151Y-54971056D01*
X108583187Y-54982255D01*
X108597819Y-54983696D01*
X109597819Y-54983696D01*
X109612451Y-54982255D01*
X109639487Y-54971056D01*
X109660179Y-54950364D01*
X109671378Y-54923328D01*
X109671378Y-54894064D01*
X109660179Y-54867028D01*
X109639487Y-54846336D01*
X109612451Y-54835137D01*
X109597819Y-54833696D01*
X109196628Y-54833696D01*
X109196628Y-54709650D01*
X109640829Y-54398710D01*
X109651989Y-54389139D01*
X109667716Y-54364460D01*
X109672802Y-54335643D01*
X109666472Y-54307072D01*
X109649690Y-54283098D01*
X109625012Y-54267371D01*
X109596194Y-54262286D01*
X109567623Y-54268615D01*
X109554810Y-54275825D01*
X109196518Y-54526628D01*
X109195187Y-54513112D01*
X109194156Y-54510623D01*
X109193965Y-54507934D01*
X109188710Y-54494203D01*
X109141091Y-54398965D01*
X109137126Y-54392665D01*
X109136369Y-54390838D01*
X109134680Y-54388781D01*
X109133259Y-54386522D01*
X109131760Y-54385222D01*
X109127042Y-54379473D01*
X109079423Y-54331854D01*
X109073673Y-54327135D01*
X109072374Y-54325637D01*
X109070114Y-54324215D01*
X109068058Y-54322527D01*
X109066230Y-54321769D01*
X109059931Y-54317805D01*
X108964693Y-54270186D01*
X108950961Y-54264931D01*
X108948273Y-54264740D01*
X108945784Y-54263709D01*
X108931152Y-54262268D01*
X108788295Y-54262268D01*
X108773663Y-54263709D01*
X108771174Y-54264739D01*
X108768485Y-54264931D01*
X108754754Y-54270186D01*
X108659516Y-54317805D01*
X108653216Y-54321769D01*
X108651389Y-54322527D01*
X108649332Y-54324215D01*
X108647073Y-54325637D01*
X108645773Y-54327135D01*
X108640024Y-54331854D01*
X108592405Y-54379473D01*
X108587686Y-54385222D01*
X108586188Y-54386522D01*
X108584766Y-54388781D01*
X108583078Y-54390838D01*
X108582320Y-54392665D01*
X108578356Y-54398965D01*
X108530737Y-54494203D01*
X108525482Y-54507935D01*
X108525291Y-54510622D01*
X108524260Y-54513112D01*
X108522819Y-54527744D01*
X108411708Y-54527744D01*
X108411708Y-52765839D01*
X108522819Y-52765839D01*
X108522819Y-53146791D01*
X108524260Y-53161423D01*
X108535459Y-53188459D01*
X108556151Y-53209151D01*
X108583187Y-53220350D01*
X108597819Y-53221791D01*
X109597819Y-53221791D01*
X109612451Y-53220350D01*
X109639487Y-53209151D01*
X109660179Y-53188459D01*
X109671378Y-53161423D01*
X109671378Y-53132159D01*
X109660179Y-53105123D01*
X109639487Y-53084431D01*
X109612451Y-53073232D01*
X109597819Y-53071791D01*
X109196628Y-53071791D01*
X109196628Y-52947745D01*
X109640829Y-52636805D01*
X109651989Y-52627234D01*
X109667716Y-52602555D01*
X109672802Y-52573738D01*
X109666472Y-52545167D01*
X109649690Y-52521193D01*
X109625012Y-52505466D01*
X109596194Y-52500381D01*
X109567623Y-52506710D01*
X109554810Y-52513920D01*
X109196518Y-52764723D01*
X109195187Y-52751207D01*
X109194156Y-52748718D01*
X109193965Y-52746029D01*
X109188710Y-52732298D01*
X109141091Y-52637060D01*
X109137126Y-52630760D01*
X109136369Y-52628933D01*
X109134680Y-52626876D01*
X109133259Y-52624617D01*
X109131760Y-52623317D01*
X109127042Y-52617568D01*
X109079423Y-52569949D01*
X109073673Y-52565230D01*
X109072374Y-52563732D01*
X109070114Y-52562310D01*
X109068058Y-52560622D01*
X109066230Y-52559864D01*
X109059931Y-52555900D01*
X108964693Y-52508281D01*
X108950961Y-52503026D01*
X108948273Y-52502835D01*
X108945784Y-52501804D01*
X108931152Y-52500363D01*
X108788295Y-52500363D01*
X108773663Y-52501804D01*
X108771174Y-52502834D01*
X108768485Y-52503026D01*
X108754754Y-52508281D01*
X108659516Y-52555900D01*
X108653216Y-52559864D01*
X108651389Y-52560622D01*
X108649332Y-52562310D01*
X108647073Y-52563732D01*
X108645773Y-52565230D01*
X108640024Y-52569949D01*
X108592405Y-52617568D01*
X108587686Y-52623317D01*
X108586188Y-52624617D01*
X108584766Y-52626876D01*
X108583078Y-52628933D01*
X108582320Y-52630760D01*
X108578356Y-52637060D01*
X108530737Y-52732298D01*
X108525482Y-52746030D01*
X108525291Y-52748717D01*
X108524260Y-52751207D01*
X108522819Y-52765839D01*
X108411708Y-52765839D01*
X108411708Y-51670601D01*
X108522819Y-51670601D01*
X108522819Y-52146791D01*
X108524260Y-52161423D01*
X108535459Y-52188459D01*
X108556151Y-52209151D01*
X108583187Y-52220350D01*
X108597819Y-52221791D01*
X109597819Y-52221791D01*
X109612451Y-52220350D01*
X109639487Y-52209151D01*
X109660179Y-52188459D01*
X109671378Y-52161423D01*
X109672819Y-52146791D01*
X109672819Y-51670601D01*
X109671378Y-51655969D01*
X109660179Y-51628933D01*
X109639487Y-51608241D01*
X109612451Y-51597042D01*
X109583187Y-51597042D01*
X109556151Y-51608241D01*
X109535459Y-51628933D01*
X109524260Y-51655969D01*
X109522819Y-51670601D01*
X109522819Y-52071791D01*
X109149009Y-52071791D01*
X109149009Y-51813458D01*
X109147568Y-51798826D01*
X109136369Y-51771790D01*
X109115677Y-51751098D01*
X109088641Y-51739899D01*
X109059377Y-51739899D01*
X109032341Y-51751098D01*
X109011649Y-51771790D01*
X109000450Y-51798826D01*
X108999009Y-51813458D01*
X108999009Y-52071791D01*
X108672819Y-52071791D01*
X108672819Y-51670601D01*
X108671378Y-51655969D01*
X108660179Y-51628933D01*
X108639487Y-51608241D01*
X108612451Y-51597042D01*
X108583187Y-51597042D01*
X108556151Y-51608241D01*
X108535459Y-51628933D01*
X108524260Y-51655969D01*
X108522819Y-51670601D01*
X108411708Y-51670601D01*
X108411708Y-50708840D01*
X108523408Y-50708840D01*
X108525483Y-50738030D01*
X108538569Y-50764203D01*
X108560676Y-50783377D01*
X108574102Y-50789371D01*
X109360648Y-51051553D01*
X108574102Y-51313735D01*
X108560676Y-51319729D01*
X108538569Y-51338903D01*
X108525483Y-51365076D01*
X108523408Y-51394266D01*
X108532662Y-51422029D01*
X108551836Y-51444136D01*
X108578009Y-51457222D01*
X108607199Y-51459297D01*
X108621536Y-51456037D01*
X109621536Y-51122704D01*
X109634961Y-51116710D01*
X109639008Y-51113199D01*
X109643802Y-51110803D01*
X109649966Y-51103695D01*
X109657068Y-51097536D01*
X109659463Y-51092744D01*
X109662976Y-51088695D01*
X109665950Y-51079772D01*
X109670155Y-51071363D01*
X109670534Y-51066018D01*
X109672230Y-51060933D01*
X109671563Y-51051553D01*
X109672230Y-51042173D01*
X109670534Y-51037087D01*
X109670155Y-51031743D01*
X109665950Y-51023333D01*
X109662976Y-51014411D01*
X109659463Y-51010361D01*
X109657068Y-51005570D01*
X109649966Y-50999410D01*
X109643802Y-50992303D01*
X109639008Y-50989906D01*
X109634961Y-50986396D01*
X109621536Y-50980402D01*
X108621536Y-50647069D01*
X108607199Y-50643809D01*
X108578009Y-50645884D01*
X108551836Y-50658970D01*
X108532662Y-50681077D01*
X108523408Y-50708840D01*
X108411708Y-50708840D01*
X108411708Y-49337267D01*
X108522819Y-49337267D01*
X108522819Y-49432505D01*
X108524260Y-49447137D01*
X108525291Y-49449626D01*
X108525482Y-49452314D01*
X108530737Y-49466046D01*
X108578356Y-49561284D01*
X108582320Y-49567583D01*
X108583078Y-49569411D01*
X108584766Y-49571467D01*
X108586188Y-49573727D01*
X108587686Y-49575026D01*
X108592405Y-49580776D01*
X108640024Y-49628395D01*
X108645773Y-49633113D01*
X108647073Y-49634612D01*
X108649332Y-49636033D01*
X108651389Y-49637722D01*
X108653216Y-49638479D01*
X108659516Y-49642444D01*
X108754754Y-49690063D01*
X108755823Y-49690472D01*
X108756259Y-49690795D01*
X108762395Y-49692987D01*
X108768485Y-49695318D01*
X108769025Y-49695356D01*
X108770105Y-49695742D01*
X108960581Y-49743361D01*
X108963117Y-49743736D01*
X108964139Y-49744159D01*
X108969651Y-49744701D01*
X108975125Y-49745511D01*
X108976217Y-49745348D01*
X108978771Y-49745600D01*
X109216866Y-49745600D01*
X109219419Y-49745348D01*
X109220512Y-49745511D01*
X109225985Y-49744701D01*
X109231498Y-49744159D01*
X109232519Y-49743736D01*
X109235056Y-49743361D01*
X109425532Y-49695742D01*
X109426611Y-49695356D01*
X109427151Y-49695318D01*
X109433232Y-49692990D01*
X109439378Y-49690795D01*
X109439813Y-49690472D01*
X109440883Y-49690063D01*
X109536121Y-49642444D01*
X109542417Y-49638480D01*
X109544247Y-49637723D01*
X109546305Y-49636033D01*
X109548564Y-49634612D01*
X109549863Y-49633113D01*
X109555612Y-49628396D01*
X109603232Y-49580777D01*
X109607950Y-49575027D01*
X109609450Y-49573727D01*
X109610872Y-49571467D01*
X109612560Y-49569411D01*
X109613317Y-49567583D01*
X109617282Y-49561284D01*
X109664901Y-49466046D01*
X109670156Y-49452315D01*
X109670347Y-49449625D01*
X109671378Y-49447137D01*
X109672819Y-49432505D01*
X109672819Y-49337267D01*
X109671378Y-49322635D01*
X109670347Y-49320146D01*
X109670156Y-49317457D01*
X109664901Y-49303726D01*
X109617282Y-49208488D01*
X109613317Y-49202188D01*
X109612560Y-49200361D01*
X109610872Y-49198304D01*
X109609450Y-49196045D01*
X109607950Y-49194744D01*
X109603232Y-49188995D01*
X109555612Y-49141376D01*
X109549863Y-49136658D01*
X109548564Y-49135160D01*
X109546305Y-49133738D01*
X109544247Y-49132049D01*
X109542417Y-49131291D01*
X109536121Y-49127328D01*
X109440883Y-49079709D01*
X109439813Y-49079299D01*
X109439378Y-49078977D01*
X109433232Y-49076781D01*
X109427151Y-49074454D01*
X109426611Y-49074415D01*
X109425532Y-49074030D01*
X109235056Y-49026411D01*
X109232519Y-49026035D01*
X109231498Y-49025613D01*
X109225985Y-49025070D01*
X109220512Y-49024261D01*
X109219419Y-49024423D01*
X109216866Y-49024172D01*
X108978771Y-49024172D01*
X108976217Y-49024423D01*
X108975125Y-49024261D01*
X108969651Y-49025070D01*
X108964139Y-49025613D01*
X108963117Y-49026035D01*
X108960581Y-49026411D01*
X108770105Y-49074030D01*
X108769025Y-49074415D01*
X108768485Y-49074454D01*
X108762395Y-49076784D01*
X108756259Y-49078977D01*
X108755823Y-49079299D01*
X108754754Y-49079709D01*
X108659516Y-49127328D01*
X108653216Y-49131292D01*
X108651389Y-49132050D01*
X108649332Y-49133738D01*
X108647073Y-49135160D01*
X108645773Y-49136658D01*
X108640024Y-49141377D01*
X108592405Y-49188996D01*
X108587686Y-49194745D01*
X108586188Y-49196045D01*
X108584766Y-49198304D01*
X108583078Y-49200361D01*
X108582320Y-49202188D01*
X108578356Y-49208488D01*
X108530737Y-49303726D01*
X108525482Y-49317458D01*
X108525291Y-49320145D01*
X108524260Y-49322635D01*
X108522819Y-49337267D01*
X108411708Y-49337267D01*
X108411708Y-48655968D01*
X109429021Y-48655968D01*
X109429021Y-48685231D01*
X109440219Y-48712267D01*
X109440220Y-48712268D01*
X109449548Y-48723634D01*
X109497167Y-48771252D01*
X109508533Y-48780580D01*
X109535569Y-48791778D01*
X109564832Y-48791778D01*
X109591868Y-48780579D01*
X109603233Y-48771252D01*
X109650852Y-48723633D01*
X109660179Y-48712268D01*
X109671378Y-48685232D01*
X109671378Y-48655969D01*
X109663775Y-48637613D01*
X109660179Y-48628932D01*
X109650852Y-48617567D01*
X109603233Y-48569948D01*
X109591868Y-48560621D01*
X109591866Y-48560620D01*
X109564832Y-48549422D01*
X109535569Y-48549422D01*
X109508533Y-48560620D01*
X109497167Y-48569948D01*
X109449548Y-48617566D01*
X109440220Y-48628932D01*
X109440219Y-48628933D01*
X109436624Y-48637613D01*
X109429021Y-48655968D01*
X108411708Y-48655968D01*
X108411708Y-47670601D01*
X108522819Y-47670601D01*
X108522819Y-48289648D01*
X108524260Y-48304280D01*
X108535459Y-48331316D01*
X108556151Y-48352008D01*
X108583187Y-48363207D01*
X108612451Y-48363207D01*
X108639487Y-48352008D01*
X108660179Y-48331316D01*
X108671378Y-48304280D01*
X108672819Y-48289648D01*
X108672819Y-47835883D01*
X108929383Y-48060377D01*
X108935707Y-48064898D01*
X108937103Y-48066294D01*
X108938426Y-48066842D01*
X108941344Y-48068928D01*
X108952881Y-48072829D01*
X108964139Y-48077493D01*
X108966670Y-48077493D01*
X108969065Y-48078303D01*
X108981218Y-48077493D01*
X108993403Y-48077493D01*
X108995739Y-48076525D01*
X108998263Y-48076357D01*
X109009188Y-48070954D01*
X109020439Y-48066294D01*
X109022225Y-48064507D01*
X109024495Y-48063385D01*
X109032520Y-48054212D01*
X109041131Y-48045602D01*
X109042099Y-48043265D01*
X109043765Y-48041361D01*
X109047666Y-48029823D01*
X109052330Y-48018566D01*
X109052681Y-48014995D01*
X109053140Y-48013640D01*
X109053008Y-48011672D01*
X109053771Y-48003934D01*
X109053771Y-47878782D01*
X109088029Y-47810266D01*
X109118436Y-47779859D01*
X109186952Y-47745601D01*
X109389637Y-47745601D01*
X109458153Y-47779859D01*
X109488561Y-47810266D01*
X109522819Y-47878782D01*
X109522819Y-48129086D01*
X109488561Y-48197601D01*
X109449548Y-48236614D01*
X109440220Y-48247980D01*
X109429021Y-48275016D01*
X109429021Y-48304279D01*
X109440219Y-48331315D01*
X109460912Y-48352008D01*
X109487948Y-48363207D01*
X109517211Y-48363207D01*
X109544247Y-48352009D01*
X109555612Y-48342682D01*
X109603232Y-48295063D01*
X109607950Y-48289313D01*
X109609450Y-48288013D01*
X109610872Y-48285753D01*
X109612560Y-48283697D01*
X109613317Y-48281869D01*
X109617282Y-48275570D01*
X109664901Y-48180332D01*
X109670156Y-48166601D01*
X109670347Y-48163911D01*
X109671378Y-48161423D01*
X109672819Y-48146791D01*
X109672819Y-47861077D01*
X109671378Y-47846445D01*
X109670347Y-47843956D01*
X109670156Y-47841267D01*
X109664901Y-47827536D01*
X109617282Y-47732298D01*
X109613317Y-47725998D01*
X109612560Y-47724171D01*
X109610872Y-47722114D01*
X109609450Y-47719855D01*
X109607950Y-47718554D01*
X109603232Y-47712805D01*
X109555612Y-47665186D01*
X109549863Y-47660468D01*
X109548564Y-47658970D01*
X109546305Y-47657548D01*
X109544247Y-47655859D01*
X109542417Y-47655101D01*
X109536121Y-47651138D01*
X109440883Y-47603519D01*
X109427151Y-47598264D01*
X109424463Y-47598073D01*
X109421974Y-47597042D01*
X109407342Y-47595601D01*
X109169247Y-47595601D01*
X109154615Y-47597042D01*
X109152126Y-47598072D01*
X109149437Y-47598264D01*
X109135706Y-47603519D01*
X109040468Y-47651138D01*
X109034168Y-47655102D01*
X109032341Y-47655860D01*
X109030284Y-47657548D01*
X109028025Y-47658970D01*
X109026725Y-47660468D01*
X109020976Y-47665187D01*
X108973357Y-47712806D01*
X108968638Y-47718555D01*
X108967140Y-47719855D01*
X108965718Y-47722114D01*
X108964030Y-47724171D01*
X108963272Y-47725998D01*
X108959308Y-47732298D01*
X108911689Y-47827536D01*
X108906516Y-47841053D01*
X108647207Y-47614158D01*
X108640882Y-47609636D01*
X108639487Y-47608241D01*
X108638163Y-47607692D01*
X108635246Y-47605607D01*
X108623708Y-47601705D01*
X108612451Y-47597042D01*
X108609920Y-47597042D01*
X108607525Y-47596232D01*
X108595372Y-47597042D01*
X108583187Y-47597042D01*
X108580850Y-47598009D01*
X108578327Y-47598178D01*
X108567401Y-47603580D01*
X108556151Y-47608241D01*
X108554364Y-47610027D01*
X108552095Y-47611150D01*
X108544069Y-47620322D01*
X108535459Y-47628933D01*
X108534490Y-47631269D01*
X108532825Y-47633174D01*
X108528923Y-47644711D01*
X108524260Y-47655969D01*
X108523908Y-47659539D01*
X108523450Y-47660895D01*
X108523581Y-47662862D01*
X108522819Y-47670601D01*
X108411708Y-47670601D01*
X108411708Y-47484490D01*
X109783930Y-47484490D01*
X109783930Y-58904331D01*
G37*
G36*
X192627344Y-68844669D02*
G01*
X192657751Y-68875076D01*
X192692009Y-68943592D01*
X192692009Y-69184220D01*
X192365819Y-69184220D01*
X192365819Y-68943592D01*
X192400077Y-68875076D01*
X192430484Y-68844669D01*
X192499000Y-68810411D01*
X192558828Y-68810411D01*
X192627344Y-68844669D01*
G37*
G36*
X193151153Y-68797050D02*
G01*
X193181561Y-68827457D01*
X193215819Y-68895973D01*
X193215819Y-69184220D01*
X192842009Y-69184220D01*
X192842009Y-68938057D01*
X192880180Y-68823543D01*
X192906674Y-68797050D01*
X192975190Y-68762792D01*
X193082637Y-68762792D01*
X193151153Y-68797050D01*
G37*
G36*
X192674963Y-66939907D02*
G01*
X192705370Y-66970314D01*
X192739628Y-67038830D01*
X192739628Y-67327077D01*
X192365819Y-67327077D01*
X192365819Y-67038830D01*
X192400077Y-66970314D01*
X192430484Y-66939907D01*
X192499000Y-66905649D01*
X192606447Y-66905649D01*
X192674963Y-66939907D01*
G37*
G36*
X192930104Y-66345639D02*
G01*
X192527989Y-66211601D01*
X192930104Y-66077562D01*
X192930104Y-66345639D01*
G37*
G36*
X192674963Y-59463716D02*
G01*
X192705370Y-59494123D01*
X192739628Y-59562639D01*
X192739628Y-59850886D01*
X192365819Y-59850886D01*
X192365819Y-59562639D01*
X192400077Y-59494123D01*
X192430484Y-59463716D01*
X192499000Y-59429458D01*
X192606447Y-59429458D01*
X192674963Y-59463716D01*
G37*
G36*
X192674963Y-57558954D02*
G01*
X192705370Y-57589361D01*
X192739628Y-57657877D01*
X192739628Y-57946124D01*
X192365819Y-57946124D01*
X192365819Y-57657877D01*
X192400077Y-57589361D01*
X192430484Y-57558954D01*
X192499000Y-57524696D01*
X192606447Y-57524696D01*
X192674963Y-57558954D01*
G37*
G36*
X193476930Y-69445331D02*
G01*
X192104708Y-69445331D01*
X192104708Y-68925887D01*
X192215819Y-68925887D01*
X192215819Y-69259220D01*
X192217260Y-69273852D01*
X192228459Y-69300888D01*
X192249151Y-69321580D01*
X192276187Y-69332779D01*
X192290819Y-69334220D01*
X193290819Y-69334220D01*
X193305451Y-69332779D01*
X193332487Y-69321580D01*
X193353179Y-69300888D01*
X193364378Y-69273852D01*
X193365819Y-69259220D01*
X193365819Y-68878268D01*
X193364378Y-68863636D01*
X193363347Y-68861147D01*
X193363156Y-68858458D01*
X193357901Y-68844727D01*
X193310282Y-68749489D01*
X193306317Y-68743189D01*
X193305560Y-68741362D01*
X193303872Y-68739305D01*
X193302450Y-68737046D01*
X193300950Y-68735745D01*
X193296232Y-68729996D01*
X193248612Y-68682377D01*
X193242863Y-68677659D01*
X193241564Y-68676161D01*
X193239305Y-68674739D01*
X193237247Y-68673050D01*
X193235417Y-68672292D01*
X193229121Y-68668329D01*
X193133883Y-68620710D01*
X193120151Y-68615455D01*
X193117463Y-68615264D01*
X193114974Y-68614233D01*
X193100342Y-68612792D01*
X192957485Y-68612792D01*
X192942853Y-68614233D01*
X192940364Y-68615263D01*
X192937675Y-68615455D01*
X192923944Y-68620710D01*
X192828706Y-68668329D01*
X192822406Y-68672293D01*
X192820579Y-68673051D01*
X192818522Y-68674739D01*
X192816263Y-68676161D01*
X192814963Y-68677659D01*
X192809214Y-68682378D01*
X192761595Y-68729997D01*
X192752268Y-68741362D01*
X192751236Y-68743852D01*
X192749471Y-68745888D01*
X192746762Y-68751955D01*
X192724804Y-68729997D01*
X192719054Y-68725278D01*
X192717755Y-68723780D01*
X192715495Y-68722358D01*
X192713439Y-68720670D01*
X192711611Y-68719912D01*
X192705312Y-68715948D01*
X192610074Y-68668329D01*
X192596342Y-68663074D01*
X192593654Y-68662883D01*
X192591165Y-68661852D01*
X192576533Y-68660411D01*
X192481295Y-68660411D01*
X192466663Y-68661852D01*
X192464174Y-68662882D01*
X192461485Y-68663074D01*
X192447754Y-68668329D01*
X192352516Y-68715948D01*
X192346216Y-68719912D01*
X192344389Y-68720670D01*
X192342332Y-68722358D01*
X192340073Y-68723780D01*
X192338773Y-68725278D01*
X192333024Y-68729997D01*
X192285405Y-68777616D01*
X192280686Y-68783365D01*
X192279188Y-68784665D01*
X192277766Y-68786924D01*
X192276078Y-68788981D01*
X192275320Y-68790808D01*
X192271356Y-68797108D01*
X192223737Y-68892346D01*
X192218482Y-68906078D01*
X192218291Y-68908765D01*
X192217260Y-68911255D01*
X192215819Y-68925887D01*
X192104708Y-68925887D01*
X192104708Y-67737085D01*
X192215838Y-67737085D01*
X192222186Y-67765651D01*
X192238983Y-67789614D01*
X192250553Y-67798686D01*
X192674930Y-68068744D01*
X192250553Y-68338802D01*
X192238983Y-68347874D01*
X192222186Y-68371837D01*
X192215838Y-68400403D01*
X192220905Y-68429225D01*
X192236616Y-68453913D01*
X192260579Y-68470710D01*
X192289145Y-68477058D01*
X192317967Y-68471991D01*
X192331085Y-68465352D01*
X192836469Y-68143744D01*
X193290819Y-68143744D01*
X193305451Y-68142303D01*
X193332487Y-68131104D01*
X193353179Y-68110412D01*
X193364378Y-68083376D01*
X193364378Y-68054112D01*
X193353179Y-68027076D01*
X193332487Y-68006384D01*
X193305451Y-67995185D01*
X193290819Y-67993744D01*
X192836469Y-67993744D01*
X192331085Y-67672136D01*
X192317967Y-67665497D01*
X192289145Y-67660430D01*
X192260579Y-67666778D01*
X192236616Y-67683575D01*
X192220905Y-67708263D01*
X192215838Y-67737085D01*
X192104708Y-67737085D01*
X192104708Y-67021125D01*
X192215819Y-67021125D01*
X192215819Y-67402077D01*
X192217260Y-67416709D01*
X192228459Y-67443745D01*
X192249151Y-67464437D01*
X192276187Y-67475636D01*
X192290819Y-67477077D01*
X193290819Y-67477077D01*
X193305451Y-67475636D01*
X193332487Y-67464437D01*
X193353179Y-67443745D01*
X193364378Y-67416709D01*
X193364378Y-67387445D01*
X193353179Y-67360409D01*
X193332487Y-67339717D01*
X193305451Y-67328518D01*
X193290819Y-67327077D01*
X192889628Y-67327077D01*
X192889628Y-67021125D01*
X192888187Y-67006493D01*
X192887156Y-67004004D01*
X192886965Y-67001315D01*
X192881710Y-66987584D01*
X192834091Y-66892346D01*
X192830126Y-66886046D01*
X192829369Y-66884219D01*
X192827680Y-66882162D01*
X192826259Y-66879903D01*
X192824760Y-66878603D01*
X192820042Y-66872854D01*
X192772423Y-66825235D01*
X192766673Y-66820516D01*
X192765374Y-66819018D01*
X192763114Y-66817596D01*
X192761058Y-66815908D01*
X192759230Y-66815150D01*
X192752931Y-66811186D01*
X192657693Y-66763567D01*
X192643961Y-66758312D01*
X192641273Y-66758121D01*
X192638784Y-66757090D01*
X192624152Y-66755649D01*
X192481295Y-66755649D01*
X192466663Y-66757090D01*
X192464174Y-66758120D01*
X192461485Y-66758312D01*
X192447754Y-66763567D01*
X192352516Y-66811186D01*
X192346216Y-66815150D01*
X192344389Y-66815908D01*
X192342332Y-66817596D01*
X192340073Y-66819018D01*
X192338773Y-66820516D01*
X192333024Y-66825235D01*
X192285405Y-66872854D01*
X192280686Y-66878603D01*
X192279188Y-66879903D01*
X192277766Y-66882162D01*
X192276078Y-66884219D01*
X192275320Y-66886046D01*
X192271356Y-66892346D01*
X192223737Y-66987584D01*
X192218482Y-67001316D01*
X192218291Y-67004003D01*
X192217260Y-67006493D01*
X192215819Y-67021125D01*
X192104708Y-67021125D01*
X192104708Y-66202221D01*
X192216408Y-66202221D01*
X192217074Y-66211601D01*
X192216408Y-66220981D01*
X192218103Y-66226066D01*
X192218483Y-66231411D01*
X192222687Y-66239820D01*
X192225662Y-66248744D01*
X192229173Y-66252792D01*
X192231569Y-66257584D01*
X192238673Y-66263746D01*
X192244836Y-66270851D01*
X192249627Y-66273246D01*
X192253676Y-66276758D01*
X192267102Y-66282752D01*
X193267102Y-66616085D01*
X193281438Y-66619345D01*
X193310628Y-66617270D01*
X193336802Y-66604184D01*
X193355976Y-66582076D01*
X193365230Y-66554314D01*
X193363155Y-66525124D01*
X193350068Y-66498951D01*
X193327961Y-66479777D01*
X193314536Y-66473783D01*
X193080104Y-66395639D01*
X193080104Y-66027562D01*
X193314536Y-65949419D01*
X193327961Y-65943425D01*
X193350068Y-65924251D01*
X193363155Y-65898078D01*
X193365230Y-65868888D01*
X193355976Y-65841126D01*
X193336802Y-65819018D01*
X193310628Y-65805932D01*
X193281438Y-65803857D01*
X193267102Y-65807117D01*
X192267102Y-66140450D01*
X192253676Y-66146444D01*
X192249627Y-66149955D01*
X192244836Y-66152351D01*
X192238673Y-66159455D01*
X192231569Y-66165618D01*
X192229173Y-66170409D01*
X192225662Y-66174458D01*
X192222687Y-66183381D01*
X192218483Y-66191791D01*
X192218103Y-66197135D01*
X192216408Y-66202221D01*
X192104708Y-66202221D01*
X192104708Y-65163982D01*
X192215819Y-65163982D01*
X192215819Y-65402077D01*
X192217260Y-65416709D01*
X192218291Y-65419198D01*
X192218482Y-65421886D01*
X192223737Y-65435618D01*
X192271356Y-65530856D01*
X192275320Y-65537155D01*
X192276078Y-65538983D01*
X192277766Y-65541039D01*
X192279188Y-65543299D01*
X192280686Y-65544598D01*
X192285405Y-65550348D01*
X192333024Y-65597967D01*
X192338773Y-65602685D01*
X192340073Y-65604184D01*
X192342332Y-65605605D01*
X192344389Y-65607294D01*
X192346216Y-65608051D01*
X192352516Y-65612016D01*
X192447754Y-65659635D01*
X192461485Y-65664890D01*
X192464174Y-65665081D01*
X192466663Y-65666112D01*
X192481295Y-65667553D01*
X192576533Y-65667553D01*
X192591165Y-65666112D01*
X192593654Y-65665080D01*
X192596342Y-65664890D01*
X192610074Y-65659635D01*
X192705312Y-65612016D01*
X192711611Y-65608051D01*
X192713439Y-65607294D01*
X192715495Y-65605605D01*
X192717755Y-65604184D01*
X192719054Y-65602685D01*
X192724804Y-65597967D01*
X192772423Y-65550348D01*
X192777141Y-65544598D01*
X192778640Y-65543299D01*
X192780061Y-65541039D01*
X192781750Y-65538983D01*
X192782507Y-65537155D01*
X192786472Y-65530856D01*
X192834091Y-65435618D01*
X192834500Y-65434548D01*
X192834823Y-65434113D01*
X192837015Y-65427976D01*
X192839346Y-65421887D01*
X192839384Y-65421346D01*
X192839770Y-65420267D01*
X192885392Y-65237777D01*
X192923886Y-65160790D01*
X192954293Y-65130383D01*
X193022809Y-65096125D01*
X193082637Y-65096125D01*
X193151153Y-65130383D01*
X193181561Y-65160790D01*
X193215819Y-65229306D01*
X193215819Y-65437526D01*
X193172049Y-65568836D01*
X193168789Y-65583173D01*
X193170864Y-65612363D01*
X193183950Y-65638536D01*
X193206057Y-65657710D01*
X193233820Y-65666964D01*
X193263010Y-65664889D01*
X193289183Y-65651803D01*
X193308357Y-65629696D01*
X193314351Y-65616270D01*
X193361970Y-65473414D01*
X193363619Y-65466158D01*
X193364378Y-65464328D01*
X193364639Y-65461674D01*
X193365230Y-65459077D01*
X193365089Y-65457102D01*
X193365819Y-65449696D01*
X193365819Y-65211601D01*
X193364378Y-65196969D01*
X193363347Y-65194480D01*
X193363156Y-65191791D01*
X193357901Y-65178060D01*
X193310282Y-65082822D01*
X193306317Y-65076522D01*
X193305560Y-65074695D01*
X193303872Y-65072638D01*
X193302450Y-65070379D01*
X193300950Y-65069078D01*
X193296232Y-65063329D01*
X193248612Y-65015710D01*
X193242863Y-65010992D01*
X193241564Y-65009494D01*
X193239305Y-65008072D01*
X193237247Y-65006383D01*
X193235417Y-65005625D01*
X193229121Y-65001662D01*
X193133883Y-64954043D01*
X193120151Y-64948788D01*
X193117463Y-64948597D01*
X193114974Y-64947566D01*
X193100342Y-64946125D01*
X193005104Y-64946125D01*
X192990472Y-64947566D01*
X192987983Y-64948596D01*
X192985294Y-64948788D01*
X192971563Y-64954043D01*
X192876325Y-65001662D01*
X192870025Y-65005626D01*
X192868198Y-65006384D01*
X192866141Y-65008072D01*
X192863882Y-65009494D01*
X192862582Y-65010992D01*
X192856833Y-65015711D01*
X192809214Y-65063330D01*
X192804495Y-65069079D01*
X192802997Y-65070379D01*
X192801575Y-65072638D01*
X192799887Y-65074695D01*
X192799129Y-65076522D01*
X192795165Y-65082822D01*
X192747546Y-65178060D01*
X192747136Y-65179129D01*
X192746814Y-65179565D01*
X192744618Y-65185710D01*
X192742291Y-65191792D01*
X192742252Y-65192331D01*
X192741867Y-65193411D01*
X192696244Y-65375901D01*
X192657751Y-65452888D01*
X192627344Y-65483295D01*
X192558828Y-65517553D01*
X192499000Y-65517553D01*
X192430484Y-65483295D01*
X192400077Y-65452888D01*
X192365819Y-65384372D01*
X192365819Y-65176152D01*
X192409589Y-65044843D01*
X192412849Y-65030506D01*
X192410774Y-65001316D01*
X192397688Y-64975142D01*
X192375580Y-64955968D01*
X192347818Y-64946714D01*
X192318628Y-64948789D01*
X192292455Y-64961876D01*
X192273281Y-64983983D01*
X192267287Y-64997408D01*
X192219668Y-65140265D01*
X192218018Y-65147518D01*
X192217260Y-65149350D01*
X192216998Y-65152004D01*
X192216408Y-65154602D01*
X192216548Y-65156576D01*
X192215819Y-65163982D01*
X192104708Y-65163982D01*
X192104708Y-64211601D01*
X192215819Y-64211601D01*
X192215819Y-64449696D01*
X192217260Y-64464328D01*
X192218291Y-64466817D01*
X192218482Y-64469505D01*
X192223737Y-64483237D01*
X192271356Y-64578475D01*
X192275320Y-64584774D01*
X192276078Y-64586602D01*
X192277766Y-64588658D01*
X192279188Y-64590918D01*
X192280686Y-64592217D01*
X192285405Y-64597967D01*
X192333024Y-64645586D01*
X192338773Y-64650304D01*
X192340073Y-64651803D01*
X192342332Y-64653224D01*
X192344389Y-64654913D01*
X192346216Y-64655670D01*
X192352516Y-64659635D01*
X192447754Y-64707254D01*
X192461485Y-64712509D01*
X192464174Y-64712700D01*
X192466663Y-64713731D01*
X192481295Y-64715172D01*
X192576533Y-64715172D01*
X192591165Y-64713731D01*
X192593654Y-64712699D01*
X192596342Y-64712509D01*
X192610074Y-64707254D01*
X192705312Y-64659635D01*
X192711611Y-64655670D01*
X192713439Y-64654913D01*
X192715495Y-64653224D01*
X192717755Y-64651803D01*
X192719054Y-64650304D01*
X192724804Y-64645586D01*
X192772423Y-64597967D01*
X192777141Y-64592217D01*
X192778640Y-64590918D01*
X192780061Y-64588658D01*
X192781750Y-64586602D01*
X192782507Y-64584774D01*
X192786472Y-64578475D01*
X192834091Y-64483237D01*
X192834500Y-64482167D01*
X192834823Y-64481732D01*
X192837015Y-64475595D01*
X192839346Y-64469506D01*
X192839384Y-64468965D01*
X192839770Y-64467886D01*
X192885392Y-64285396D01*
X192923886Y-64208409D01*
X192954293Y-64178002D01*
X193022809Y-64143744D01*
X193082637Y-64143744D01*
X193151153Y-64178002D01*
X193181561Y-64208409D01*
X193215819Y-64276925D01*
X193215819Y-64485145D01*
X193172049Y-64616455D01*
X193168789Y-64630792D01*
X193170864Y-64659982D01*
X193183950Y-64686155D01*
X193206057Y-64705329D01*
X193233820Y-64714583D01*
X193263010Y-64712508D01*
X193289183Y-64699422D01*
X193308357Y-64677315D01*
X193314351Y-64663889D01*
X193361970Y-64521033D01*
X193363619Y-64513777D01*
X193364378Y-64511947D01*
X193364639Y-64509293D01*
X193365230Y-64506696D01*
X193365089Y-64504721D01*
X193365819Y-64497315D01*
X193365819Y-64259220D01*
X193364378Y-64244588D01*
X193363347Y-64242099D01*
X193363156Y-64239410D01*
X193357901Y-64225679D01*
X193310282Y-64130441D01*
X193306317Y-64124141D01*
X193305560Y-64122314D01*
X193303872Y-64120257D01*
X193302450Y-64117998D01*
X193300950Y-64116697D01*
X193296232Y-64110948D01*
X193248612Y-64063329D01*
X193242863Y-64058611D01*
X193241564Y-64057113D01*
X193239305Y-64055691D01*
X193237247Y-64054002D01*
X193235417Y-64053244D01*
X193229121Y-64049281D01*
X193133883Y-64001662D01*
X193120151Y-63996407D01*
X193117463Y-63996216D01*
X193114974Y-63995185D01*
X193100342Y-63993744D01*
X193005104Y-63993744D01*
X192990472Y-63995185D01*
X192987983Y-63996215D01*
X192985294Y-63996407D01*
X192971563Y-64001662D01*
X192876325Y-64049281D01*
X192870025Y-64053245D01*
X192868198Y-64054003D01*
X192866141Y-64055691D01*
X192863882Y-64057113D01*
X192862582Y-64058611D01*
X192856833Y-64063330D01*
X192809214Y-64110949D01*
X192804495Y-64116698D01*
X192802997Y-64117998D01*
X192801575Y-64120257D01*
X192799887Y-64122314D01*
X192799129Y-64124141D01*
X192795165Y-64130441D01*
X192747546Y-64225679D01*
X192747136Y-64226748D01*
X192746814Y-64227184D01*
X192744618Y-64233329D01*
X192742291Y-64239411D01*
X192742252Y-64239950D01*
X192741867Y-64241030D01*
X192696244Y-64423520D01*
X192657751Y-64500507D01*
X192627344Y-64530914D01*
X192558828Y-64565172D01*
X192499000Y-64565172D01*
X192430484Y-64530914D01*
X192400077Y-64500507D01*
X192365819Y-64431991D01*
X192365819Y-64223771D01*
X192409589Y-64092462D01*
X192412849Y-64078125D01*
X192410774Y-64048935D01*
X192397688Y-64022761D01*
X192375580Y-64003587D01*
X192347818Y-63994333D01*
X192318628Y-63996408D01*
X192292455Y-64009495D01*
X192273281Y-64031602D01*
X192267287Y-64045027D01*
X192219668Y-64187884D01*
X192218018Y-64195137D01*
X192217260Y-64196969D01*
X192216998Y-64199623D01*
X192216408Y-64202221D01*
X192216548Y-64204195D01*
X192215819Y-64211601D01*
X192104708Y-64211601D01*
X192104708Y-62577921D01*
X192217260Y-62577921D01*
X192217260Y-62607185D01*
X192228459Y-62634221D01*
X192249151Y-62654913D01*
X192276187Y-62666112D01*
X192290819Y-62667553D01*
X192992934Y-62667553D01*
X193107447Y-62705724D01*
X193177648Y-62775924D01*
X193215819Y-62890437D01*
X193215819Y-62973505D01*
X193217260Y-62988137D01*
X193228459Y-63015173D01*
X193249151Y-63035865D01*
X193276187Y-63047064D01*
X193305451Y-63047064D01*
X193332487Y-63035865D01*
X193353179Y-63015173D01*
X193364378Y-62988137D01*
X193365819Y-62973505D01*
X193365819Y-62878267D01*
X193365089Y-62870860D01*
X193365230Y-62868886D01*
X193364639Y-62866288D01*
X193364378Y-62863635D01*
X193363619Y-62861804D01*
X193361970Y-62854549D01*
X193314351Y-62711693D01*
X193308357Y-62698267D01*
X193306592Y-62696232D01*
X193305561Y-62693742D01*
X193296233Y-62682377D01*
X193200994Y-62587139D01*
X193189628Y-62577811D01*
X193187137Y-62576779D01*
X193185103Y-62575015D01*
X193171678Y-62569021D01*
X193028821Y-62521402D01*
X193021567Y-62519752D01*
X193019736Y-62518994D01*
X193017081Y-62518732D01*
X193014484Y-62518142D01*
X193012509Y-62518282D01*
X193005104Y-62517553D01*
X192290819Y-62517553D01*
X192276187Y-62518994D01*
X192249151Y-62530193D01*
X192228459Y-62550885D01*
X192217260Y-62577921D01*
X192104708Y-62577921D01*
X192104708Y-61530302D01*
X192217260Y-61530302D01*
X192217260Y-61559566D01*
X192228459Y-61586602D01*
X192249151Y-61607294D01*
X192276187Y-61618493D01*
X192290819Y-61619934D01*
X193082637Y-61619934D01*
X193151153Y-61654192D01*
X193181561Y-61684599D01*
X193215819Y-61753115D01*
X193215819Y-61908181D01*
X193181561Y-61976696D01*
X193151153Y-62007103D01*
X193082637Y-62041362D01*
X192290819Y-62041362D01*
X192276187Y-62042803D01*
X192249151Y-62054002D01*
X192228459Y-62074694D01*
X192217260Y-62101730D01*
X192217260Y-62130994D01*
X192228459Y-62158030D01*
X192249151Y-62178722D01*
X192276187Y-62189921D01*
X192290819Y-62191362D01*
X193100342Y-62191362D01*
X193114974Y-62189921D01*
X193117463Y-62188889D01*
X193120151Y-62188699D01*
X193133883Y-62183444D01*
X193229121Y-62135825D01*
X193235417Y-62131861D01*
X193237247Y-62131104D01*
X193239305Y-62129414D01*
X193241564Y-62127993D01*
X193242863Y-62126494D01*
X193248612Y-62121777D01*
X193296232Y-62074158D01*
X193300950Y-62068408D01*
X193302450Y-62067108D01*
X193303872Y-62064848D01*
X193305560Y-62062792D01*
X193306317Y-62060964D01*
X193310282Y-62054665D01*
X193357901Y-61959427D01*
X193363156Y-61945696D01*
X193363347Y-61943006D01*
X193364378Y-61940518D01*
X193365819Y-61925886D01*
X193365819Y-61735410D01*
X193364378Y-61720778D01*
X193363347Y-61718289D01*
X193363156Y-61715600D01*
X193357901Y-61701869D01*
X193310282Y-61606631D01*
X193306317Y-61600331D01*
X193305560Y-61598504D01*
X193303872Y-61596447D01*
X193302450Y-61594188D01*
X193300950Y-61592887D01*
X193296232Y-61587138D01*
X193248612Y-61539519D01*
X193242863Y-61534801D01*
X193241564Y-61533303D01*
X193239305Y-61531881D01*
X193237247Y-61530192D01*
X193235417Y-61529434D01*
X193229121Y-61525471D01*
X193133883Y-61477852D01*
X193120151Y-61472597D01*
X193117463Y-61472406D01*
X193114974Y-61471375D01*
X193100342Y-61469934D01*
X192290819Y-61469934D01*
X192276187Y-61471375D01*
X192249151Y-61482574D01*
X192228459Y-61503266D01*
X192217260Y-61530302D01*
X192104708Y-61530302D01*
X192104708Y-60413465D01*
X192216689Y-60413465D01*
X192217260Y-60415035D01*
X192217260Y-60416709D01*
X192222241Y-60428735D01*
X192226689Y-60440966D01*
X192227818Y-60442199D01*
X192228459Y-60443745D01*
X192237664Y-60452950D01*
X192246453Y-60462547D01*
X192248435Y-60463721D01*
X192249151Y-60464437D01*
X192250787Y-60465115D01*
X192259103Y-60470041D01*
X192827750Y-60735410D01*
X192259103Y-61000779D01*
X192250787Y-61005704D01*
X192249151Y-61006383D01*
X192248435Y-61007098D01*
X192246453Y-61008273D01*
X192237664Y-61017869D01*
X192228459Y-61027075D01*
X192227818Y-61028620D01*
X192226689Y-61029854D01*
X192222241Y-61042084D01*
X192217260Y-61054111D01*
X192217260Y-61055784D01*
X192216689Y-61057355D01*
X192217260Y-61070356D01*
X192217260Y-61083375D01*
X192217899Y-61084919D01*
X192217973Y-61086591D01*
X192223479Y-61098389D01*
X192228459Y-61110411D01*
X192229641Y-61111593D01*
X192230349Y-61113109D01*
X192239945Y-61121897D01*
X192249151Y-61131103D01*
X192250696Y-61131743D01*
X192251930Y-61132873D01*
X192264160Y-61137320D01*
X192276187Y-61142302D01*
X192278482Y-61142528D01*
X192279431Y-61142873D01*
X192281197Y-61142795D01*
X192290819Y-61143743D01*
X193290819Y-61143743D01*
X193305451Y-61142302D01*
X193332487Y-61131103D01*
X193353179Y-61110411D01*
X193364378Y-61083375D01*
X193364378Y-61054111D01*
X193353179Y-61027075D01*
X193332487Y-61006383D01*
X193305451Y-60995184D01*
X193290819Y-60993743D01*
X192628887Y-60993743D01*
X193036821Y-60803374D01*
X193042180Y-60800199D01*
X193043993Y-60799540D01*
X193045275Y-60798365D01*
X193049471Y-60795880D01*
X193057168Y-60787474D01*
X193065575Y-60779776D01*
X193066984Y-60776755D01*
X193069234Y-60774299D01*
X193073128Y-60763589D01*
X193077950Y-60753258D01*
X193078096Y-60749929D01*
X193079235Y-60746798D01*
X193078734Y-60735410D01*
X193079235Y-60724022D01*
X193078096Y-60720890D01*
X193077950Y-60717562D01*
X193073128Y-60707230D01*
X193069234Y-60696521D01*
X193066984Y-60694064D01*
X193065575Y-60691044D01*
X193057168Y-60683345D01*
X193049471Y-60674940D01*
X193045275Y-60672454D01*
X193043993Y-60671280D01*
X193042180Y-60670620D01*
X193036821Y-60667446D01*
X192628887Y-60477077D01*
X193290819Y-60477077D01*
X193305451Y-60475636D01*
X193332487Y-60464437D01*
X193353179Y-60443745D01*
X193364378Y-60416709D01*
X193364378Y-60387445D01*
X193353179Y-60360409D01*
X193332487Y-60339717D01*
X193305451Y-60328518D01*
X193290819Y-60327077D01*
X192290819Y-60327077D01*
X192281197Y-60328024D01*
X192279431Y-60327947D01*
X192278482Y-60328291D01*
X192276187Y-60328518D01*
X192264160Y-60333499D01*
X192251930Y-60337947D01*
X192250696Y-60339076D01*
X192249151Y-60339717D01*
X192239945Y-60348922D01*
X192230349Y-60357711D01*
X192229641Y-60359226D01*
X192228459Y-60360409D01*
X192223479Y-60372430D01*
X192217973Y-60384229D01*
X192217899Y-60385900D01*
X192217260Y-60387445D01*
X192217260Y-60400463D01*
X192216689Y-60413465D01*
X192104708Y-60413465D01*
X192104708Y-59544934D01*
X192215819Y-59544934D01*
X192215819Y-59925886D01*
X192217260Y-59940518D01*
X192228459Y-59967554D01*
X192249151Y-59988246D01*
X192276187Y-59999445D01*
X192290819Y-60000886D01*
X193290819Y-60000886D01*
X193305451Y-59999445D01*
X193332487Y-59988246D01*
X193353179Y-59967554D01*
X193364378Y-59940518D01*
X193364378Y-59911254D01*
X193353179Y-59884218D01*
X193332487Y-59863526D01*
X193305451Y-59852327D01*
X193290819Y-59850886D01*
X192889628Y-59850886D01*
X192889628Y-59544934D01*
X192888187Y-59530302D01*
X192887156Y-59527813D01*
X192886965Y-59525124D01*
X192881710Y-59511393D01*
X192834091Y-59416155D01*
X192830126Y-59409855D01*
X192829369Y-59408028D01*
X192827680Y-59405971D01*
X192826259Y-59403712D01*
X192824760Y-59402412D01*
X192820042Y-59396663D01*
X192772423Y-59349044D01*
X192766673Y-59344325D01*
X192765374Y-59342827D01*
X192763114Y-59341405D01*
X192761058Y-59339717D01*
X192759230Y-59338959D01*
X192752931Y-59334995D01*
X192657693Y-59287376D01*
X192643961Y-59282121D01*
X192641273Y-59281930D01*
X192638784Y-59280899D01*
X192624152Y-59279458D01*
X192481295Y-59279458D01*
X192466663Y-59280899D01*
X192464174Y-59281929D01*
X192461485Y-59282121D01*
X192447754Y-59287376D01*
X192352516Y-59334995D01*
X192346216Y-59338959D01*
X192344389Y-59339717D01*
X192342332Y-59341405D01*
X192340073Y-59342827D01*
X192338773Y-59344325D01*
X192333024Y-59349044D01*
X192285405Y-59396663D01*
X192280686Y-59402412D01*
X192279188Y-59403712D01*
X192277766Y-59405971D01*
X192276078Y-59408028D01*
X192275320Y-59409855D01*
X192271356Y-59416155D01*
X192223737Y-59511393D01*
X192218482Y-59525125D01*
X192218291Y-59527812D01*
X192217260Y-59530302D01*
X192215819Y-59544934D01*
X192104708Y-59544934D01*
X192104708Y-58449696D01*
X192215819Y-58449696D01*
X192215819Y-58925886D01*
X192217260Y-58940518D01*
X192228459Y-58967554D01*
X192249151Y-58988246D01*
X192276187Y-58999445D01*
X192290819Y-59000886D01*
X193290819Y-59000886D01*
X193305451Y-58999445D01*
X193332487Y-58988246D01*
X193353179Y-58967554D01*
X193364378Y-58940518D01*
X193365819Y-58925886D01*
X193365819Y-58449696D01*
X193364378Y-58435064D01*
X193353179Y-58408028D01*
X193332487Y-58387336D01*
X193305451Y-58376137D01*
X193276187Y-58376137D01*
X193249151Y-58387336D01*
X193228459Y-58408028D01*
X193217260Y-58435064D01*
X193215819Y-58449696D01*
X193215819Y-58850886D01*
X192842009Y-58850886D01*
X192842009Y-58592553D01*
X192840568Y-58577921D01*
X192829369Y-58550885D01*
X192808677Y-58530193D01*
X192781641Y-58518994D01*
X192752377Y-58518994D01*
X192725341Y-58530193D01*
X192704649Y-58550885D01*
X192693450Y-58577921D01*
X192692009Y-58592553D01*
X192692009Y-58850886D01*
X192365819Y-58850886D01*
X192365819Y-58449696D01*
X192364378Y-58435064D01*
X192353179Y-58408028D01*
X192332487Y-58387336D01*
X192305451Y-58376137D01*
X192276187Y-58376137D01*
X192249151Y-58387336D01*
X192228459Y-58408028D01*
X192217260Y-58435064D01*
X192215819Y-58449696D01*
X192104708Y-58449696D01*
X192104708Y-57640172D01*
X192215819Y-57640172D01*
X192215819Y-58021124D01*
X192217260Y-58035756D01*
X192228459Y-58062792D01*
X192249151Y-58083484D01*
X192276187Y-58094683D01*
X192290819Y-58096124D01*
X193290819Y-58096124D01*
X193305451Y-58094683D01*
X193332487Y-58083484D01*
X193353179Y-58062792D01*
X193364378Y-58035756D01*
X193364378Y-58006492D01*
X193353179Y-57979456D01*
X193332487Y-57958764D01*
X193305451Y-57947565D01*
X193290819Y-57946124D01*
X192889628Y-57946124D01*
X192889628Y-57822078D01*
X193333829Y-57511138D01*
X193344989Y-57501567D01*
X193360716Y-57476888D01*
X193365802Y-57448071D01*
X193359472Y-57419500D01*
X193342690Y-57395526D01*
X193318012Y-57379799D01*
X193289194Y-57374714D01*
X193260623Y-57381043D01*
X193247810Y-57388253D01*
X192889518Y-57639056D01*
X192888187Y-57625540D01*
X192887156Y-57623051D01*
X192886965Y-57620362D01*
X192881710Y-57606631D01*
X192834091Y-57511393D01*
X192830126Y-57505093D01*
X192829369Y-57503266D01*
X192827680Y-57501209D01*
X192826259Y-57498950D01*
X192824760Y-57497650D01*
X192820042Y-57491901D01*
X192772423Y-57444282D01*
X192766673Y-57439563D01*
X192765374Y-57438065D01*
X192763114Y-57436643D01*
X192761058Y-57434955D01*
X192759230Y-57434197D01*
X192752931Y-57430233D01*
X192657693Y-57382614D01*
X192643961Y-57377359D01*
X192641273Y-57377168D01*
X192638784Y-57376137D01*
X192624152Y-57374696D01*
X192481295Y-57374696D01*
X192466663Y-57376137D01*
X192464174Y-57377167D01*
X192461485Y-57377359D01*
X192447754Y-57382614D01*
X192352516Y-57430233D01*
X192346216Y-57434197D01*
X192344389Y-57434955D01*
X192342332Y-57436643D01*
X192340073Y-57438065D01*
X192338773Y-57439563D01*
X192333024Y-57444282D01*
X192285405Y-57491901D01*
X192280686Y-57497650D01*
X192279188Y-57498950D01*
X192277766Y-57501209D01*
X192276078Y-57503266D01*
X192275320Y-57505093D01*
X192271356Y-57511393D01*
X192223737Y-57606631D01*
X192218482Y-57620363D01*
X192218291Y-57623050D01*
X192217260Y-57625540D01*
X192215819Y-57640172D01*
X192104708Y-57640172D01*
X192104708Y-57263585D01*
X193476930Y-57263585D01*
X193476930Y-69445331D01*
G37*
D11*
X181445489Y-71199171D02*
X181445489Y-72699171D01*
X180731203Y-71199171D02*
X180731203Y-72699171D01*
X180731203Y-72699171D02*
X179874060Y-71199171D01*
X179874060Y-71199171D02*
X179874060Y-72699171D01*
X179231202Y-71627742D02*
X178516917Y-71627742D01*
X179374059Y-71199171D02*
X178874059Y-72699171D01*
X178874059Y-72699171D02*
X178374059Y-71199171D01*
X177945488Y-72556314D02*
X177874060Y-72627742D01*
X177874060Y-72627742D02*
X177731203Y-72699171D01*
X177731203Y-72699171D02*
X177374060Y-72699171D01*
X177374060Y-72699171D02*
X177231203Y-72627742D01*
X177231203Y-72627742D02*
X177159774Y-72556314D01*
X177159774Y-72556314D02*
X177088345Y-72413457D01*
X177088345Y-72413457D02*
X177088345Y-72270600D01*
X177088345Y-72270600D02*
X177159774Y-72056314D01*
X177159774Y-72056314D02*
X178016917Y-71199171D01*
X178016917Y-71199171D02*
X177088345Y-71199171D01*
X175659774Y-71199171D02*
X176516917Y-71199171D01*
X176088346Y-71199171D02*
X176088346Y-72699171D01*
X176088346Y-72699171D02*
X176231203Y-72484885D01*
X176231203Y-72484885D02*
X176374060Y-72342028D01*
X176374060Y-72342028D02*
X176516917Y-72270600D01*
X174945489Y-71199171D02*
X174659775Y-71199171D01*
X174659775Y-71199171D02*
X174516918Y-71270600D01*
X174516918Y-71270600D02*
X174445489Y-71342028D01*
X174445489Y-71342028D02*
X174302632Y-71556314D01*
X174302632Y-71556314D02*
X174231203Y-71842028D01*
X174231203Y-71842028D02*
X174231203Y-72413457D01*
X174231203Y-72413457D02*
X174302632Y-72556314D01*
X174302632Y-72556314D02*
X174374061Y-72627742D01*
X174374061Y-72627742D02*
X174516918Y-72699171D01*
X174516918Y-72699171D02*
X174802632Y-72699171D01*
X174802632Y-72699171D02*
X174945489Y-72627742D01*
X174945489Y-72627742D02*
X175016918Y-72556314D01*
X175016918Y-72556314D02*
X175088346Y-72413457D01*
X175088346Y-72413457D02*
X175088346Y-72056314D01*
X175088346Y-72056314D02*
X175016918Y-71913457D01*
X175016918Y-71913457D02*
X174945489Y-71842028D01*
X174945489Y-71842028D02*
X174802632Y-71770600D01*
X174802632Y-71770600D02*
X174516918Y-71770600D01*
X174516918Y-71770600D02*
X174374061Y-71842028D01*
X174374061Y-71842028D02*
X174302632Y-71913457D01*
X174302632Y-71913457D02*
X174231203Y-72056314D01*
D12*
X119880952Y-44244838D02*
X119880952Y-42244838D01*
X119880952Y-42244838D02*
X120642857Y-42244838D01*
X120642857Y-42244838D02*
X120833333Y-42340076D01*
X120833333Y-42340076D02*
X120928571Y-42435314D01*
X120928571Y-42435314D02*
X121023809Y-42625790D01*
X121023809Y-42625790D02*
X121023809Y-42911504D01*
X121023809Y-42911504D02*
X120928571Y-43101980D01*
X120928571Y-43101980D02*
X120833333Y-43197219D01*
X120833333Y-43197219D02*
X120642857Y-43292457D01*
X120642857Y-43292457D02*
X119880952Y-43292457D01*
X122261904Y-42244838D02*
X122642857Y-42244838D01*
X122642857Y-42244838D02*
X122833333Y-42340076D01*
X122833333Y-42340076D02*
X123023809Y-42530552D01*
X123023809Y-42530552D02*
X123119047Y-42911504D01*
X123119047Y-42911504D02*
X123119047Y-43578171D01*
X123119047Y-43578171D02*
X123023809Y-43959123D01*
X123023809Y-43959123D02*
X122833333Y-44149600D01*
X122833333Y-44149600D02*
X122642857Y-44244838D01*
X122642857Y-44244838D02*
X122261904Y-44244838D01*
X122261904Y-44244838D02*
X122071428Y-44149600D01*
X122071428Y-44149600D02*
X121880952Y-43959123D01*
X121880952Y-43959123D02*
X121785714Y-43578171D01*
X121785714Y-43578171D02*
X121785714Y-42911504D01*
X121785714Y-42911504D02*
X121880952Y-42530552D01*
X121880952Y-42530552D02*
X122071428Y-42340076D01*
X122071428Y-42340076D02*
X122261904Y-42244838D01*
X123785714Y-42244838D02*
X124261904Y-44244838D01*
X124261904Y-44244838D02*
X124642857Y-42816266D01*
X124642857Y-42816266D02*
X125023809Y-44244838D01*
X125023809Y-44244838D02*
X125500000Y-42244838D01*
X126261904Y-43197219D02*
X126928571Y-43197219D01*
X127214285Y-44244838D02*
X126261904Y-44244838D01*
X126261904Y-44244838D02*
X126261904Y-42244838D01*
X126261904Y-42244838D02*
X127214285Y-42244838D01*
X129214285Y-44244838D02*
X128547618Y-43292457D01*
X128071428Y-44244838D02*
X128071428Y-42244838D01*
X128071428Y-42244838D02*
X128833333Y-42244838D01*
X128833333Y-42244838D02*
X129023809Y-42340076D01*
X129023809Y-42340076D02*
X129119047Y-42435314D01*
X129119047Y-42435314D02*
X129214285Y-42625790D01*
X129214285Y-42625790D02*
X129214285Y-42911504D01*
X129214285Y-42911504D02*
X129119047Y-43101980D01*
X129119047Y-43101980D02*
X129023809Y-43197219D01*
X129023809Y-43197219D02*
X128833333Y-43292457D01*
X128833333Y-43292457D02*
X128071428Y-43292457D01*
X189666666Y-44744838D02*
X188714285Y-44744838D01*
X188714285Y-44744838D02*
X188714285Y-42744838D01*
X190238095Y-44173409D02*
X191190476Y-44173409D01*
X190047619Y-44744838D02*
X190714285Y-42744838D01*
X190714285Y-42744838D02*
X191380952Y-44744838D01*
X192047619Y-44744838D02*
X192047619Y-42744838D01*
X192047619Y-42744838D02*
X192714286Y-44173409D01*
X192714286Y-44173409D02*
X193380952Y-42744838D01*
X193380952Y-42744838D02*
X193380952Y-44744838D01*
X194333333Y-44744838D02*
X194333333Y-42744838D01*
X194333333Y-42744838D02*
X195095238Y-42744838D01*
X195095238Y-42744838D02*
X195285714Y-42840076D01*
X195285714Y-42840076D02*
X195380952Y-42935314D01*
X195380952Y-42935314D02*
X195476190Y-43125790D01*
X195476190Y-43125790D02*
X195476190Y-43411504D01*
X195476190Y-43411504D02*
X195380952Y-43601980D01*
X195380952Y-43601980D02*
X195285714Y-43697219D01*
X195285714Y-43697219D02*
X195095238Y-43792457D01*
X195095238Y-43792457D02*
X194333333Y-43792457D01*
X197380952Y-44744838D02*
X196238095Y-44744838D01*
X196809523Y-44744838D02*
X196809523Y-42744838D01*
X196809523Y-42744838D02*
X196619047Y-43030552D01*
X196619047Y-43030552D02*
X196428571Y-43221028D01*
X196428571Y-43221028D02*
X196238095Y-43316266D01*
X191166666Y-81744838D02*
X190214285Y-81744838D01*
X190214285Y-81744838D02*
X190214285Y-79744838D01*
X191738095Y-81173409D02*
X192690476Y-81173409D01*
X191547619Y-81744838D02*
X192214285Y-79744838D01*
X192214285Y-79744838D02*
X192880952Y-81744838D01*
X193547619Y-81744838D02*
X193547619Y-79744838D01*
X193547619Y-79744838D02*
X194214286Y-81173409D01*
X194214286Y-81173409D02*
X194880952Y-79744838D01*
X194880952Y-79744838D02*
X194880952Y-81744838D01*
X195833333Y-81744838D02*
X195833333Y-79744838D01*
X195833333Y-79744838D02*
X196595238Y-79744838D01*
X196595238Y-79744838D02*
X196785714Y-79840076D01*
X196785714Y-79840076D02*
X196880952Y-79935314D01*
X196880952Y-79935314D02*
X196976190Y-80125790D01*
X196976190Y-80125790D02*
X196976190Y-80411504D01*
X196976190Y-80411504D02*
X196880952Y-80601980D01*
X196880952Y-80601980D02*
X196785714Y-80697219D01*
X196785714Y-80697219D02*
X196595238Y-80792457D01*
X196595238Y-80792457D02*
X195833333Y-80792457D01*
X197738095Y-79935314D02*
X197833333Y-79840076D01*
X197833333Y-79840076D02*
X198023809Y-79744838D01*
X198023809Y-79744838D02*
X198500000Y-79744838D01*
X198500000Y-79744838D02*
X198690476Y-79840076D01*
X198690476Y-79840076D02*
X198785714Y-79935314D01*
X198785714Y-79935314D02*
X198880952Y-80125790D01*
X198880952Y-80125790D02*
X198880952Y-80316266D01*
X198880952Y-80316266D02*
X198785714Y-80601980D01*
X198785714Y-80601980D02*
X197642857Y-81744838D01*
X197642857Y-81744838D02*
X198880952Y-81744838D01*
D10*
X167179666Y-91529819D02*
X167179666Y-92244104D01*
X167179666Y-92244104D02*
X167132047Y-92386961D01*
X167132047Y-92386961D02*
X167036809Y-92482200D01*
X167036809Y-92482200D02*
X166893952Y-92529819D01*
X166893952Y-92529819D02*
X166798714Y-92529819D01*
X168179666Y-92529819D02*
X167608238Y-92529819D01*
X167893952Y-92529819D02*
X167893952Y-91529819D01*
X167893952Y-91529819D02*
X167798714Y-91672676D01*
X167798714Y-91672676D02*
X167703476Y-91767914D01*
X167703476Y-91767914D02*
X167608238Y-91815533D01*
D13*
X197231095Y-83721800D02*
X197373952Y-83769419D01*
X197373952Y-83769419D02*
X197612047Y-83769419D01*
X197612047Y-83769419D02*
X197707285Y-83721800D01*
X197707285Y-83721800D02*
X197754904Y-83674180D01*
X197754904Y-83674180D02*
X197802523Y-83578942D01*
X197802523Y-83578942D02*
X197802523Y-83483704D01*
X197802523Y-83483704D02*
X197754904Y-83388466D01*
X197754904Y-83388466D02*
X197707285Y-83340847D01*
X197707285Y-83340847D02*
X197612047Y-83293228D01*
X197612047Y-83293228D02*
X197421571Y-83245609D01*
X197421571Y-83245609D02*
X197326333Y-83197990D01*
X197326333Y-83197990D02*
X197278714Y-83150371D01*
X197278714Y-83150371D02*
X197231095Y-83055133D01*
X197231095Y-83055133D02*
X197231095Y-82959895D01*
X197231095Y-82959895D02*
X197278714Y-82864657D01*
X197278714Y-82864657D02*
X197326333Y-82817038D01*
X197326333Y-82817038D02*
X197421571Y-82769419D01*
X197421571Y-82769419D02*
X197659666Y-82769419D01*
X197659666Y-82769419D02*
X197802523Y-82817038D01*
X198659666Y-83102752D02*
X198659666Y-83769419D01*
X198421571Y-82721800D02*
X198183476Y-83436085D01*
X198183476Y-83436085D02*
X198802523Y-83436085D01*
D10*
X171191666Y-73359819D02*
X171191666Y-74074104D01*
X171191666Y-74074104D02*
X171144047Y-74216961D01*
X171144047Y-74216961D02*
X171048809Y-74312200D01*
X171048809Y-74312200D02*
X170905952Y-74359819D01*
X170905952Y-74359819D02*
X170810714Y-74359819D01*
X172096428Y-73359819D02*
X171905952Y-73359819D01*
X171905952Y-73359819D02*
X171810714Y-73407438D01*
X171810714Y-73407438D02*
X171763095Y-73455057D01*
X171763095Y-73455057D02*
X171667857Y-73597914D01*
X171667857Y-73597914D02*
X171620238Y-73788390D01*
X171620238Y-73788390D02*
X171620238Y-74169342D01*
X171620238Y-74169342D02*
X171667857Y-74264580D01*
X171667857Y-74264580D02*
X171715476Y-74312200D01*
X171715476Y-74312200D02*
X171810714Y-74359819D01*
X171810714Y-74359819D02*
X172001190Y-74359819D01*
X172001190Y-74359819D02*
X172096428Y-74312200D01*
X172096428Y-74312200D02*
X172144047Y-74264580D01*
X172144047Y-74264580D02*
X172191666Y-74169342D01*
X172191666Y-74169342D02*
X172191666Y-73931247D01*
X172191666Y-73931247D02*
X172144047Y-73836009D01*
X172144047Y-73836009D02*
X172096428Y-73788390D01*
X172096428Y-73788390D02*
X172001190Y-73740771D01*
X172001190Y-73740771D02*
X171810714Y-73740771D01*
X171810714Y-73740771D02*
X171715476Y-73788390D01*
X171715476Y-73788390D02*
X171667857Y-73836009D01*
X171667857Y-73836009D02*
X171620238Y-73931247D01*
X182666666Y-64764819D02*
X182666666Y-65479104D01*
X182666666Y-65479104D02*
X182619047Y-65621961D01*
X182619047Y-65621961D02*
X182523809Y-65717200D01*
X182523809Y-65717200D02*
X182380952Y-65764819D01*
X182380952Y-65764819D02*
X182285714Y-65764819D01*
X183619047Y-64764819D02*
X183142857Y-64764819D01*
X183142857Y-64764819D02*
X183095238Y-65241009D01*
X183095238Y-65241009D02*
X183142857Y-65193390D01*
X183142857Y-65193390D02*
X183238095Y-65145771D01*
X183238095Y-65145771D02*
X183476190Y-65145771D01*
X183476190Y-65145771D02*
X183571428Y-65193390D01*
X183571428Y-65193390D02*
X183619047Y-65241009D01*
X183619047Y-65241009D02*
X183666666Y-65336247D01*
X183666666Y-65336247D02*
X183666666Y-65574342D01*
X183666666Y-65574342D02*
X183619047Y-65669580D01*
X183619047Y-65669580D02*
X183571428Y-65717200D01*
X183571428Y-65717200D02*
X183476190Y-65764819D01*
X183476190Y-65764819D02*
X183238095Y-65764819D01*
X183238095Y-65764819D02*
X183142857Y-65717200D01*
X183142857Y-65717200D02*
X183095238Y-65669580D01*
X123511905Y-48333819D02*
X123511905Y-47333819D01*
X123511905Y-47333819D02*
X123750000Y-47333819D01*
X123750000Y-47333819D02*
X123892857Y-47381438D01*
X123892857Y-47381438D02*
X123988095Y-47476676D01*
X123988095Y-47476676D02*
X124035714Y-47571914D01*
X124035714Y-47571914D02*
X124083333Y-47762390D01*
X124083333Y-47762390D02*
X124083333Y-47905247D01*
X124083333Y-47905247D02*
X124035714Y-48095723D01*
X124035714Y-48095723D02*
X123988095Y-48190961D01*
X123988095Y-48190961D02*
X123892857Y-48286200D01*
X123892857Y-48286200D02*
X123750000Y-48333819D01*
X123750000Y-48333819D02*
X123511905Y-48333819D01*
X125035714Y-48333819D02*
X124464286Y-48333819D01*
X124750000Y-48333819D02*
X124750000Y-47333819D01*
X124750000Y-47333819D02*
X124654762Y-47476676D01*
X124654762Y-47476676D02*
X124559524Y-47571914D01*
X124559524Y-47571914D02*
X124464286Y-47619533D01*
X166666666Y-44064819D02*
X166666666Y-44779104D01*
X166666666Y-44779104D02*
X166619047Y-44921961D01*
X166619047Y-44921961D02*
X166523809Y-45017200D01*
X166523809Y-45017200D02*
X166380952Y-45064819D01*
X166380952Y-45064819D02*
X166285714Y-45064819D01*
X167571428Y-44398152D02*
X167571428Y-45064819D01*
X167333333Y-44017200D02*
X167095238Y-44731485D01*
X167095238Y-44731485D02*
X167714285Y-44731485D01*
X173833333Y-50454819D02*
X173500000Y-49978628D01*
X173261905Y-50454819D02*
X173261905Y-49454819D01*
X173261905Y-49454819D02*
X173642857Y-49454819D01*
X173642857Y-49454819D02*
X173738095Y-49502438D01*
X173738095Y-49502438D02*
X173785714Y-49550057D01*
X173785714Y-49550057D02*
X173833333Y-49645295D01*
X173833333Y-49645295D02*
X173833333Y-49788152D01*
X173833333Y-49788152D02*
X173785714Y-49883390D01*
X173785714Y-49883390D02*
X173738095Y-49931009D01*
X173738095Y-49931009D02*
X173642857Y-49978628D01*
X173642857Y-49978628D02*
X173261905Y-49978628D01*
X174166667Y-49454819D02*
X174785714Y-49454819D01*
X174785714Y-49454819D02*
X174452381Y-49835771D01*
X174452381Y-49835771D02*
X174595238Y-49835771D01*
X174595238Y-49835771D02*
X174690476Y-49883390D01*
X174690476Y-49883390D02*
X174738095Y-49931009D01*
X174738095Y-49931009D02*
X174785714Y-50026247D01*
X174785714Y-50026247D02*
X174785714Y-50264342D01*
X174785714Y-50264342D02*
X174738095Y-50359580D01*
X174738095Y-50359580D02*
X174690476Y-50407200D01*
X174690476Y-50407200D02*
X174595238Y-50454819D01*
X174595238Y-50454819D02*
X174309524Y-50454819D01*
X174309524Y-50454819D02*
X174214286Y-50407200D01*
X174214286Y-50407200D02*
X174166667Y-50359580D01*
X193444905Y-55953819D02*
X193444905Y-54953819D01*
X193444905Y-54953819D02*
X193683000Y-54953819D01*
X193683000Y-54953819D02*
X193825857Y-55001438D01*
X193825857Y-55001438D02*
X193921095Y-55096676D01*
X193921095Y-55096676D02*
X193968714Y-55191914D01*
X193968714Y-55191914D02*
X194016333Y-55382390D01*
X194016333Y-55382390D02*
X194016333Y-55525247D01*
X194016333Y-55525247D02*
X193968714Y-55715723D01*
X193968714Y-55715723D02*
X193921095Y-55810961D01*
X193921095Y-55810961D02*
X193825857Y-55906200D01*
X193825857Y-55906200D02*
X193683000Y-55953819D01*
X193683000Y-55953819D02*
X193444905Y-55953819D01*
X194397286Y-55049057D02*
X194444905Y-55001438D01*
X194444905Y-55001438D02*
X194540143Y-54953819D01*
X194540143Y-54953819D02*
X194778238Y-54953819D01*
X194778238Y-54953819D02*
X194873476Y-55001438D01*
X194873476Y-55001438D02*
X194921095Y-55049057D01*
X194921095Y-55049057D02*
X194968714Y-55144295D01*
X194968714Y-55144295D02*
X194968714Y-55239533D01*
X194968714Y-55239533D02*
X194921095Y-55382390D01*
X194921095Y-55382390D02*
X194349667Y-55953819D01*
X194349667Y-55953819D02*
X194968714Y-55953819D01*
X195166666Y-57034819D02*
X195166666Y-57749104D01*
X195166666Y-57749104D02*
X195119047Y-57891961D01*
X195119047Y-57891961D02*
X195023809Y-57987200D01*
X195023809Y-57987200D02*
X194880952Y-58034819D01*
X194880952Y-58034819D02*
X194785714Y-58034819D01*
X195547619Y-57034819D02*
X196214285Y-57034819D01*
X196214285Y-57034819D02*
X195785714Y-58034819D01*
X153264819Y-76711904D02*
X154074342Y-76711904D01*
X154074342Y-76711904D02*
X154169580Y-76664285D01*
X154169580Y-76664285D02*
X154217200Y-76616666D01*
X154217200Y-76616666D02*
X154264819Y-76521428D01*
X154264819Y-76521428D02*
X154264819Y-76330952D01*
X154264819Y-76330952D02*
X154217200Y-76235714D01*
X154217200Y-76235714D02*
X154169580Y-76188095D01*
X154169580Y-76188095D02*
X154074342Y-76140476D01*
X154074342Y-76140476D02*
X153264819Y-76140476D01*
X153264819Y-75759523D02*
X153264819Y-75140476D01*
X153264819Y-75140476D02*
X153645771Y-75473809D01*
X153645771Y-75473809D02*
X153645771Y-75330952D01*
X153645771Y-75330952D02*
X153693390Y-75235714D01*
X153693390Y-75235714D02*
X153741009Y-75188095D01*
X153741009Y-75188095D02*
X153836247Y-75140476D01*
X153836247Y-75140476D02*
X154074342Y-75140476D01*
X154074342Y-75140476D02*
X154169580Y-75188095D01*
X154169580Y-75188095D02*
X154217200Y-75235714D01*
X154217200Y-75235714D02*
X154264819Y-75330952D01*
X154264819Y-75330952D02*
X154264819Y-75616666D01*
X154264819Y-75616666D02*
X154217200Y-75711904D01*
X154217200Y-75711904D02*
X154169580Y-75759523D01*
X125333333Y-56724819D02*
X125000000Y-56248628D01*
X124761905Y-56724819D02*
X124761905Y-55724819D01*
X124761905Y-55724819D02*
X125142857Y-55724819D01*
X125142857Y-55724819D02*
X125238095Y-55772438D01*
X125238095Y-55772438D02*
X125285714Y-55820057D01*
X125285714Y-55820057D02*
X125333333Y-55915295D01*
X125333333Y-55915295D02*
X125333333Y-56058152D01*
X125333333Y-56058152D02*
X125285714Y-56153390D01*
X125285714Y-56153390D02*
X125238095Y-56201009D01*
X125238095Y-56201009D02*
X125142857Y-56248628D01*
X125142857Y-56248628D02*
X124761905Y-56248628D01*
X125714286Y-55820057D02*
X125761905Y-55772438D01*
X125761905Y-55772438D02*
X125857143Y-55724819D01*
X125857143Y-55724819D02*
X126095238Y-55724819D01*
X126095238Y-55724819D02*
X126190476Y-55772438D01*
X126190476Y-55772438D02*
X126238095Y-55820057D01*
X126238095Y-55820057D02*
X126285714Y-55915295D01*
X126285714Y-55915295D02*
X126285714Y-56010533D01*
X126285714Y-56010533D02*
X126238095Y-56153390D01*
X126238095Y-56153390D02*
X125666667Y-56724819D01*
X125666667Y-56724819D02*
X126285714Y-56724819D01*
X199889405Y-64954819D02*
X199889405Y-63954819D01*
X199889405Y-63954819D02*
X200127500Y-63954819D01*
X200127500Y-63954819D02*
X200270357Y-64002438D01*
X200270357Y-64002438D02*
X200365595Y-64097676D01*
X200365595Y-64097676D02*
X200413214Y-64192914D01*
X200413214Y-64192914D02*
X200460833Y-64383390D01*
X200460833Y-64383390D02*
X200460833Y-64526247D01*
X200460833Y-64526247D02*
X200413214Y-64716723D01*
X200413214Y-64716723D02*
X200365595Y-64811961D01*
X200365595Y-64811961D02*
X200270357Y-64907200D01*
X200270357Y-64907200D02*
X200127500Y-64954819D01*
X200127500Y-64954819D02*
X199889405Y-64954819D01*
X201317976Y-63954819D02*
X201127500Y-63954819D01*
X201127500Y-63954819D02*
X201032262Y-64002438D01*
X201032262Y-64002438D02*
X200984643Y-64050057D01*
X200984643Y-64050057D02*
X200889405Y-64192914D01*
X200889405Y-64192914D02*
X200841786Y-64383390D01*
X200841786Y-64383390D02*
X200841786Y-64764342D01*
X200841786Y-64764342D02*
X200889405Y-64859580D01*
X200889405Y-64859580D02*
X200937024Y-64907200D01*
X200937024Y-64907200D02*
X201032262Y-64954819D01*
X201032262Y-64954819D02*
X201222738Y-64954819D01*
X201222738Y-64954819D02*
X201317976Y-64907200D01*
X201317976Y-64907200D02*
X201365595Y-64859580D01*
X201365595Y-64859580D02*
X201413214Y-64764342D01*
X201413214Y-64764342D02*
X201413214Y-64526247D01*
X201413214Y-64526247D02*
X201365595Y-64431009D01*
X201365595Y-64431009D02*
X201317976Y-64383390D01*
X201317976Y-64383390D02*
X201222738Y-64335771D01*
X201222738Y-64335771D02*
X201032262Y-64335771D01*
X201032262Y-64335771D02*
X200937024Y-64383390D01*
X200937024Y-64383390D02*
X200889405Y-64431009D01*
X200889405Y-64431009D02*
X200841786Y-64526247D01*
X174333333Y-57954819D02*
X174000000Y-57478628D01*
X173761905Y-57954819D02*
X173761905Y-56954819D01*
X173761905Y-56954819D02*
X174142857Y-56954819D01*
X174142857Y-56954819D02*
X174238095Y-57002438D01*
X174238095Y-57002438D02*
X174285714Y-57050057D01*
X174285714Y-57050057D02*
X174333333Y-57145295D01*
X174333333Y-57145295D02*
X174333333Y-57288152D01*
X174333333Y-57288152D02*
X174285714Y-57383390D01*
X174285714Y-57383390D02*
X174238095Y-57431009D01*
X174238095Y-57431009D02*
X174142857Y-57478628D01*
X174142857Y-57478628D02*
X173761905Y-57478628D01*
X174904762Y-57383390D02*
X174809524Y-57335771D01*
X174809524Y-57335771D02*
X174761905Y-57288152D01*
X174761905Y-57288152D02*
X174714286Y-57192914D01*
X174714286Y-57192914D02*
X174714286Y-57145295D01*
X174714286Y-57145295D02*
X174761905Y-57050057D01*
X174761905Y-57050057D02*
X174809524Y-57002438D01*
X174809524Y-57002438D02*
X174904762Y-56954819D01*
X174904762Y-56954819D02*
X175095238Y-56954819D01*
X175095238Y-56954819D02*
X175190476Y-57002438D01*
X175190476Y-57002438D02*
X175238095Y-57050057D01*
X175238095Y-57050057D02*
X175285714Y-57145295D01*
X175285714Y-57145295D02*
X175285714Y-57192914D01*
X175285714Y-57192914D02*
X175238095Y-57288152D01*
X175238095Y-57288152D02*
X175190476Y-57335771D01*
X175190476Y-57335771D02*
X175095238Y-57383390D01*
X175095238Y-57383390D02*
X174904762Y-57383390D01*
X174904762Y-57383390D02*
X174809524Y-57431009D01*
X174809524Y-57431009D02*
X174761905Y-57478628D01*
X174761905Y-57478628D02*
X174714286Y-57573866D01*
X174714286Y-57573866D02*
X174714286Y-57764342D01*
X174714286Y-57764342D02*
X174761905Y-57859580D01*
X174761905Y-57859580D02*
X174809524Y-57907200D01*
X174809524Y-57907200D02*
X174904762Y-57954819D01*
X174904762Y-57954819D02*
X175095238Y-57954819D01*
X175095238Y-57954819D02*
X175190476Y-57907200D01*
X175190476Y-57907200D02*
X175238095Y-57859580D01*
X175238095Y-57859580D02*
X175285714Y-57764342D01*
X175285714Y-57764342D02*
X175285714Y-57573866D01*
X175285714Y-57573866D02*
X175238095Y-57478628D01*
X175238095Y-57478628D02*
X175190476Y-57431009D01*
X175190476Y-57431009D02*
X175095238Y-57383390D01*
D13*
X121158095Y-88801800D02*
X121300952Y-88849419D01*
X121300952Y-88849419D02*
X121539047Y-88849419D01*
X121539047Y-88849419D02*
X121634285Y-88801800D01*
X121634285Y-88801800D02*
X121681904Y-88754180D01*
X121681904Y-88754180D02*
X121729523Y-88658942D01*
X121729523Y-88658942D02*
X121729523Y-88563704D01*
X121729523Y-88563704D02*
X121681904Y-88468466D01*
X121681904Y-88468466D02*
X121634285Y-88420847D01*
X121634285Y-88420847D02*
X121539047Y-88373228D01*
X121539047Y-88373228D02*
X121348571Y-88325609D01*
X121348571Y-88325609D02*
X121253333Y-88277990D01*
X121253333Y-88277990D02*
X121205714Y-88230371D01*
X121205714Y-88230371D02*
X121158095Y-88135133D01*
X121158095Y-88135133D02*
X121158095Y-88039895D01*
X121158095Y-88039895D02*
X121205714Y-87944657D01*
X121205714Y-87944657D02*
X121253333Y-87897038D01*
X121253333Y-87897038D02*
X121348571Y-87849419D01*
X121348571Y-87849419D02*
X121586666Y-87849419D01*
X121586666Y-87849419D02*
X121729523Y-87897038D01*
X122062857Y-87849419D02*
X122681904Y-87849419D01*
X122681904Y-87849419D02*
X122348571Y-88230371D01*
X122348571Y-88230371D02*
X122491428Y-88230371D01*
X122491428Y-88230371D02*
X122586666Y-88277990D01*
X122586666Y-88277990D02*
X122634285Y-88325609D01*
X122634285Y-88325609D02*
X122681904Y-88420847D01*
X122681904Y-88420847D02*
X122681904Y-88658942D01*
X122681904Y-88658942D02*
X122634285Y-88754180D01*
X122634285Y-88754180D02*
X122586666Y-88801800D01*
X122586666Y-88801800D02*
X122491428Y-88849419D01*
X122491428Y-88849419D02*
X122205714Y-88849419D01*
X122205714Y-88849419D02*
X122110476Y-88801800D01*
X122110476Y-88801800D02*
X122062857Y-88754180D01*
D10*
X178454819Y-83921904D02*
X179264342Y-83921904D01*
X179264342Y-83921904D02*
X179359580Y-83874285D01*
X179359580Y-83874285D02*
X179407200Y-83826666D01*
X179407200Y-83826666D02*
X179454819Y-83731428D01*
X179454819Y-83731428D02*
X179454819Y-83540952D01*
X179454819Y-83540952D02*
X179407200Y-83445714D01*
X179407200Y-83445714D02*
X179359580Y-83398095D01*
X179359580Y-83398095D02*
X179264342Y-83350476D01*
X179264342Y-83350476D02*
X178454819Y-83350476D01*
X178550057Y-82921904D02*
X178502438Y-82874285D01*
X178502438Y-82874285D02*
X178454819Y-82779047D01*
X178454819Y-82779047D02*
X178454819Y-82540952D01*
X178454819Y-82540952D02*
X178502438Y-82445714D01*
X178502438Y-82445714D02*
X178550057Y-82398095D01*
X178550057Y-82398095D02*
X178645295Y-82350476D01*
X178645295Y-82350476D02*
X178740533Y-82350476D01*
X178740533Y-82350476D02*
X178883390Y-82398095D01*
X178883390Y-82398095D02*
X179454819Y-82969523D01*
X179454819Y-82969523D02*
X179454819Y-82350476D01*
X119889581Y-78271566D02*
X119175296Y-78271566D01*
X119175296Y-78271566D02*
X119032439Y-78223947D01*
X119032439Y-78223947D02*
X118937201Y-78128709D01*
X118937201Y-78128709D02*
X118889581Y-77985852D01*
X118889581Y-77985852D02*
X118889581Y-77890614D01*
X119889581Y-78652519D02*
X119889581Y-79271566D01*
X119889581Y-79271566D02*
X119508629Y-78938233D01*
X119508629Y-78938233D02*
X119508629Y-79081090D01*
X119508629Y-79081090D02*
X119461010Y-79176328D01*
X119461010Y-79176328D02*
X119413391Y-79223947D01*
X119413391Y-79223947D02*
X119318153Y-79271566D01*
X119318153Y-79271566D02*
X119080058Y-79271566D01*
X119080058Y-79271566D02*
X118984820Y-79223947D01*
X118984820Y-79223947D02*
X118937201Y-79176328D01*
X118937201Y-79176328D02*
X118889581Y-79081090D01*
X118889581Y-79081090D02*
X118889581Y-78795376D01*
X118889581Y-78795376D02*
X118937201Y-78700138D01*
X118937201Y-78700138D02*
X118984820Y-78652519D01*
D13*
X119634095Y-50574800D02*
X119776952Y-50622419D01*
X119776952Y-50622419D02*
X120015047Y-50622419D01*
X120015047Y-50622419D02*
X120110285Y-50574800D01*
X120110285Y-50574800D02*
X120157904Y-50527180D01*
X120157904Y-50527180D02*
X120205523Y-50431942D01*
X120205523Y-50431942D02*
X120205523Y-50336704D01*
X120205523Y-50336704D02*
X120157904Y-50241466D01*
X120157904Y-50241466D02*
X120110285Y-50193847D01*
X120110285Y-50193847D02*
X120015047Y-50146228D01*
X120015047Y-50146228D02*
X119824571Y-50098609D01*
X119824571Y-50098609D02*
X119729333Y-50050990D01*
X119729333Y-50050990D02*
X119681714Y-50003371D01*
X119681714Y-50003371D02*
X119634095Y-49908133D01*
X119634095Y-49908133D02*
X119634095Y-49812895D01*
X119634095Y-49812895D02*
X119681714Y-49717657D01*
X119681714Y-49717657D02*
X119729333Y-49670038D01*
X119729333Y-49670038D02*
X119824571Y-49622419D01*
X119824571Y-49622419D02*
X120062666Y-49622419D01*
X120062666Y-49622419D02*
X120205523Y-49670038D01*
X121157904Y-50622419D02*
X120586476Y-50622419D01*
X120872190Y-50622419D02*
X120872190Y-49622419D01*
X120872190Y-49622419D02*
X120776952Y-49765276D01*
X120776952Y-49765276D02*
X120681714Y-49860514D01*
X120681714Y-49860514D02*
X120586476Y-49908133D01*
D10*
X202110419Y-78728433D02*
X202824704Y-78728433D01*
X202824704Y-78728433D02*
X202967561Y-78776052D01*
X202967561Y-78776052D02*
X203062800Y-78871290D01*
X203062800Y-78871290D02*
X203110419Y-79014147D01*
X203110419Y-79014147D02*
X203110419Y-79109385D01*
X202205657Y-78299861D02*
X202158038Y-78252242D01*
X202158038Y-78252242D02*
X202110419Y-78157004D01*
X202110419Y-78157004D02*
X202110419Y-77918909D01*
X202110419Y-77918909D02*
X202158038Y-77823671D01*
X202158038Y-77823671D02*
X202205657Y-77776052D01*
X202205657Y-77776052D02*
X202300895Y-77728433D01*
X202300895Y-77728433D02*
X202396133Y-77728433D01*
X202396133Y-77728433D02*
X202538990Y-77776052D01*
X202538990Y-77776052D02*
X203110419Y-78347480D01*
X203110419Y-78347480D02*
X203110419Y-77728433D01*
X192204819Y-74666666D02*
X191728628Y-74999999D01*
X192204819Y-75238094D02*
X191204819Y-75238094D01*
X191204819Y-75238094D02*
X191204819Y-74857142D01*
X191204819Y-74857142D02*
X191252438Y-74761904D01*
X191252438Y-74761904D02*
X191300057Y-74714285D01*
X191300057Y-74714285D02*
X191395295Y-74666666D01*
X191395295Y-74666666D02*
X191538152Y-74666666D01*
X191538152Y-74666666D02*
X191633390Y-74714285D01*
X191633390Y-74714285D02*
X191681009Y-74761904D01*
X191681009Y-74761904D02*
X191728628Y-74857142D01*
X191728628Y-74857142D02*
X191728628Y-75238094D01*
X191204819Y-73809523D02*
X191204819Y-73999999D01*
X191204819Y-73999999D02*
X191252438Y-74095237D01*
X191252438Y-74095237D02*
X191300057Y-74142856D01*
X191300057Y-74142856D02*
X191442914Y-74238094D01*
X191442914Y-74238094D02*
X191633390Y-74285713D01*
X191633390Y-74285713D02*
X192014342Y-74285713D01*
X192014342Y-74285713D02*
X192109580Y-74238094D01*
X192109580Y-74238094D02*
X192157200Y-74190475D01*
X192157200Y-74190475D02*
X192204819Y-74095237D01*
X192204819Y-74095237D02*
X192204819Y-73904761D01*
X192204819Y-73904761D02*
X192157200Y-73809523D01*
X192157200Y-73809523D02*
X192109580Y-73761904D01*
X192109580Y-73761904D02*
X192014342Y-73714285D01*
X192014342Y-73714285D02*
X191776247Y-73714285D01*
X191776247Y-73714285D02*
X191681009Y-73761904D01*
X191681009Y-73761904D02*
X191633390Y-73809523D01*
X191633390Y-73809523D02*
X191585771Y-73904761D01*
X191585771Y-73904761D02*
X191585771Y-74095237D01*
X191585771Y-74095237D02*
X191633390Y-74190475D01*
X191633390Y-74190475D02*
X191681009Y-74238094D01*
X191681009Y-74238094D02*
X191776247Y-74285713D01*
X194714905Y-89227819D02*
X194714905Y-88227819D01*
X194714905Y-88227819D02*
X194953000Y-88227819D01*
X194953000Y-88227819D02*
X195095857Y-88275438D01*
X195095857Y-88275438D02*
X195191095Y-88370676D01*
X195191095Y-88370676D02*
X195238714Y-88465914D01*
X195238714Y-88465914D02*
X195286333Y-88656390D01*
X195286333Y-88656390D02*
X195286333Y-88799247D01*
X195286333Y-88799247D02*
X195238714Y-88989723D01*
X195238714Y-88989723D02*
X195191095Y-89084961D01*
X195191095Y-89084961D02*
X195095857Y-89180200D01*
X195095857Y-89180200D02*
X194953000Y-89227819D01*
X194953000Y-89227819D02*
X194714905Y-89227819D01*
X196143476Y-88561152D02*
X196143476Y-89227819D01*
X195905381Y-88180200D02*
X195667286Y-88894485D01*
X195667286Y-88894485D02*
X196286333Y-88894485D01*
X197704819Y-55988094D02*
X196704819Y-55988094D01*
X197704819Y-55416666D02*
X197133390Y-55845237D01*
X196704819Y-55416666D02*
X197276247Y-55988094D01*
X196800057Y-55035713D02*
X196752438Y-54988094D01*
X196752438Y-54988094D02*
X196704819Y-54892856D01*
X196704819Y-54892856D02*
X196704819Y-54654761D01*
X196704819Y-54654761D02*
X196752438Y-54559523D01*
X196752438Y-54559523D02*
X196800057Y-54511904D01*
X196800057Y-54511904D02*
X196895295Y-54464285D01*
X196895295Y-54464285D02*
X196990533Y-54464285D01*
X196990533Y-54464285D02*
X197133390Y-54511904D01*
X197133390Y-54511904D02*
X197704819Y-55083332D01*
X197704819Y-55083332D02*
X197704819Y-54464285D01*
D13*
X190119095Y-49558800D02*
X190261952Y-49606419D01*
X190261952Y-49606419D02*
X190500047Y-49606419D01*
X190500047Y-49606419D02*
X190595285Y-49558800D01*
X190595285Y-49558800D02*
X190642904Y-49511180D01*
X190642904Y-49511180D02*
X190690523Y-49415942D01*
X190690523Y-49415942D02*
X190690523Y-49320704D01*
X190690523Y-49320704D02*
X190642904Y-49225466D01*
X190642904Y-49225466D02*
X190595285Y-49177847D01*
X190595285Y-49177847D02*
X190500047Y-49130228D01*
X190500047Y-49130228D02*
X190309571Y-49082609D01*
X190309571Y-49082609D02*
X190214333Y-49034990D01*
X190214333Y-49034990D02*
X190166714Y-48987371D01*
X190166714Y-48987371D02*
X190119095Y-48892133D01*
X190119095Y-48892133D02*
X190119095Y-48796895D01*
X190119095Y-48796895D02*
X190166714Y-48701657D01*
X190166714Y-48701657D02*
X190214333Y-48654038D01*
X190214333Y-48654038D02*
X190309571Y-48606419D01*
X190309571Y-48606419D02*
X190547666Y-48606419D01*
X190547666Y-48606419D02*
X190690523Y-48654038D01*
X191071476Y-48701657D02*
X191119095Y-48654038D01*
X191119095Y-48654038D02*
X191214333Y-48606419D01*
X191214333Y-48606419D02*
X191452428Y-48606419D01*
X191452428Y-48606419D02*
X191547666Y-48654038D01*
X191547666Y-48654038D02*
X191595285Y-48701657D01*
X191595285Y-48701657D02*
X191642904Y-48796895D01*
X191642904Y-48796895D02*
X191642904Y-48892133D01*
X191642904Y-48892133D02*
X191595285Y-49034990D01*
X191595285Y-49034990D02*
X191023857Y-49606419D01*
X191023857Y-49606419D02*
X191642904Y-49606419D01*
D10*
X123467905Y-81607819D02*
X123467905Y-80607819D01*
X123467905Y-80607819D02*
X123706000Y-80607819D01*
X123706000Y-80607819D02*
X123848857Y-80655438D01*
X123848857Y-80655438D02*
X123944095Y-80750676D01*
X123944095Y-80750676D02*
X123991714Y-80845914D01*
X123991714Y-80845914D02*
X124039333Y-81036390D01*
X124039333Y-81036390D02*
X124039333Y-81179247D01*
X124039333Y-81179247D02*
X123991714Y-81369723D01*
X123991714Y-81369723D02*
X123944095Y-81464961D01*
X123944095Y-81464961D02*
X123848857Y-81560200D01*
X123848857Y-81560200D02*
X123706000Y-81607819D01*
X123706000Y-81607819D02*
X123467905Y-81607819D01*
X124372667Y-80607819D02*
X124991714Y-80607819D01*
X124991714Y-80607819D02*
X124658381Y-80988771D01*
X124658381Y-80988771D02*
X124801238Y-80988771D01*
X124801238Y-80988771D02*
X124896476Y-81036390D01*
X124896476Y-81036390D02*
X124944095Y-81084009D01*
X124944095Y-81084009D02*
X124991714Y-81179247D01*
X124991714Y-81179247D02*
X124991714Y-81417342D01*
X124991714Y-81417342D02*
X124944095Y-81512580D01*
X124944095Y-81512580D02*
X124896476Y-81560200D01*
X124896476Y-81560200D02*
X124801238Y-81607819D01*
X124801238Y-81607819D02*
X124515524Y-81607819D01*
X124515524Y-81607819D02*
X124420286Y-81560200D01*
X124420286Y-81560200D02*
X124372667Y-81512580D01*
X173575533Y-52947369D02*
X173242200Y-52471178D01*
X173004105Y-52947369D02*
X173004105Y-51947369D01*
X173004105Y-51947369D02*
X173385057Y-51947369D01*
X173385057Y-51947369D02*
X173480295Y-51994988D01*
X173480295Y-51994988D02*
X173527914Y-52042607D01*
X173527914Y-52042607D02*
X173575533Y-52137845D01*
X173575533Y-52137845D02*
X173575533Y-52280702D01*
X173575533Y-52280702D02*
X173527914Y-52375940D01*
X173527914Y-52375940D02*
X173480295Y-52423559D01*
X173480295Y-52423559D02*
X173385057Y-52471178D01*
X173385057Y-52471178D02*
X173004105Y-52471178D01*
X174432676Y-52280702D02*
X174432676Y-52947369D01*
X174194581Y-51899750D02*
X173956486Y-52614035D01*
X173956486Y-52614035D02*
X174575533Y-52614035D01*
X174333333Y-60454819D02*
X174000000Y-59978628D01*
X173761905Y-60454819D02*
X173761905Y-59454819D01*
X173761905Y-59454819D02*
X174142857Y-59454819D01*
X174142857Y-59454819D02*
X174238095Y-59502438D01*
X174238095Y-59502438D02*
X174285714Y-59550057D01*
X174285714Y-59550057D02*
X174333333Y-59645295D01*
X174333333Y-59645295D02*
X174333333Y-59788152D01*
X174333333Y-59788152D02*
X174285714Y-59883390D01*
X174285714Y-59883390D02*
X174238095Y-59931009D01*
X174238095Y-59931009D02*
X174142857Y-59978628D01*
X174142857Y-59978628D02*
X173761905Y-59978628D01*
X174666667Y-59454819D02*
X175333333Y-59454819D01*
X175333333Y-59454819D02*
X174904762Y-60454819D01*
X196342261Y-72700057D02*
X196247023Y-72652438D01*
X196247023Y-72652438D02*
X196151785Y-72557200D01*
X196151785Y-72557200D02*
X196008928Y-72414342D01*
X196008928Y-72414342D02*
X195913690Y-72366723D01*
X195913690Y-72366723D02*
X195818452Y-72366723D01*
X195866071Y-72604819D02*
X195770833Y-72557200D01*
X195770833Y-72557200D02*
X195675595Y-72461961D01*
X195675595Y-72461961D02*
X195627976Y-72271485D01*
X195627976Y-72271485D02*
X195627976Y-71938152D01*
X195627976Y-71938152D02*
X195675595Y-71747676D01*
X195675595Y-71747676D02*
X195770833Y-71652438D01*
X195770833Y-71652438D02*
X195866071Y-71604819D01*
X195866071Y-71604819D02*
X196056547Y-71604819D01*
X196056547Y-71604819D02*
X196151785Y-71652438D01*
X196151785Y-71652438D02*
X196247023Y-71747676D01*
X196247023Y-71747676D02*
X196294642Y-71938152D01*
X196294642Y-71938152D02*
X196294642Y-72271485D01*
X196294642Y-72271485D02*
X196247023Y-72461961D01*
X196247023Y-72461961D02*
X196151785Y-72557200D01*
X196151785Y-72557200D02*
X196056547Y-72604819D01*
X196056547Y-72604819D02*
X195866071Y-72604819D01*
X197247023Y-72604819D02*
X196675595Y-72604819D01*
X196961309Y-72604819D02*
X196961309Y-71604819D01*
X196961309Y-71604819D02*
X196866071Y-71747676D01*
X196866071Y-71747676D02*
X196770833Y-71842914D01*
X196770833Y-71842914D02*
X196675595Y-71890533D01*
X199844819Y-77906047D02*
X198844819Y-77906047D01*
X198844819Y-77906047D02*
X199559104Y-77572714D01*
X199559104Y-77572714D02*
X198844819Y-77239381D01*
X198844819Y-77239381D02*
X199844819Y-77239381D01*
X199844819Y-76763190D02*
X198844819Y-76763190D01*
X198844819Y-76763190D02*
X199559104Y-76429857D01*
X199559104Y-76429857D02*
X198844819Y-76096524D01*
X198844819Y-76096524D02*
X199844819Y-76096524D01*
X199321009Y-75287000D02*
X199368628Y-75144143D01*
X199368628Y-75144143D02*
X199416247Y-75096524D01*
X199416247Y-75096524D02*
X199511485Y-75048905D01*
X199511485Y-75048905D02*
X199654342Y-75048905D01*
X199654342Y-75048905D02*
X199749580Y-75096524D01*
X199749580Y-75096524D02*
X199797200Y-75144143D01*
X199797200Y-75144143D02*
X199844819Y-75239381D01*
X199844819Y-75239381D02*
X199844819Y-75620333D01*
X199844819Y-75620333D02*
X198844819Y-75620333D01*
X198844819Y-75620333D02*
X198844819Y-75287000D01*
X198844819Y-75287000D02*
X198892438Y-75191762D01*
X198892438Y-75191762D02*
X198940057Y-75144143D01*
X198940057Y-75144143D02*
X199035295Y-75096524D01*
X199035295Y-75096524D02*
X199130533Y-75096524D01*
X199130533Y-75096524D02*
X199225771Y-75144143D01*
X199225771Y-75144143D02*
X199273390Y-75191762D01*
X199273390Y-75191762D02*
X199321009Y-75287000D01*
X199321009Y-75287000D02*
X199321009Y-75620333D01*
X198844819Y-74763190D02*
X198844819Y-74191762D01*
X199844819Y-74477476D02*
X198844819Y-74477476D01*
X198940057Y-73906047D02*
X198892438Y-73858428D01*
X198892438Y-73858428D02*
X198844819Y-73763190D01*
X198844819Y-73763190D02*
X198844819Y-73525095D01*
X198844819Y-73525095D02*
X198892438Y-73429857D01*
X198892438Y-73429857D02*
X198940057Y-73382238D01*
X198940057Y-73382238D02*
X199035295Y-73334619D01*
X199035295Y-73334619D02*
X199130533Y-73334619D01*
X199130533Y-73334619D02*
X199273390Y-73382238D01*
X199273390Y-73382238D02*
X199844819Y-73953666D01*
X199844819Y-73953666D02*
X199844819Y-73334619D01*
X198940057Y-72953666D02*
X198892438Y-72906047D01*
X198892438Y-72906047D02*
X198844819Y-72810809D01*
X198844819Y-72810809D02*
X198844819Y-72572714D01*
X198844819Y-72572714D02*
X198892438Y-72477476D01*
X198892438Y-72477476D02*
X198940057Y-72429857D01*
X198940057Y-72429857D02*
X199035295Y-72382238D01*
X199035295Y-72382238D02*
X199130533Y-72382238D01*
X199130533Y-72382238D02*
X199273390Y-72429857D01*
X199273390Y-72429857D02*
X199844819Y-73001285D01*
X199844819Y-73001285D02*
X199844819Y-72382238D01*
X198940057Y-72001285D02*
X198892438Y-71953666D01*
X198892438Y-71953666D02*
X198844819Y-71858428D01*
X198844819Y-71858428D02*
X198844819Y-71620333D01*
X198844819Y-71620333D02*
X198892438Y-71525095D01*
X198892438Y-71525095D02*
X198940057Y-71477476D01*
X198940057Y-71477476D02*
X199035295Y-71429857D01*
X199035295Y-71429857D02*
X199130533Y-71429857D01*
X199130533Y-71429857D02*
X199273390Y-71477476D01*
X199273390Y-71477476D02*
X199844819Y-72048904D01*
X199844819Y-72048904D02*
X199844819Y-71429857D01*
X198940057Y-71048904D02*
X198892438Y-71001285D01*
X198892438Y-71001285D02*
X198844819Y-70906047D01*
X198844819Y-70906047D02*
X198844819Y-70667952D01*
X198844819Y-70667952D02*
X198892438Y-70572714D01*
X198892438Y-70572714D02*
X198940057Y-70525095D01*
X198940057Y-70525095D02*
X199035295Y-70477476D01*
X199035295Y-70477476D02*
X199130533Y-70477476D01*
X199130533Y-70477476D02*
X199273390Y-70525095D01*
X199273390Y-70525095D02*
X199844819Y-71096523D01*
X199844819Y-71096523D02*
X199844819Y-70477476D01*
X199559104Y-70096523D02*
X199559104Y-69620333D01*
X199844819Y-70191761D02*
X198844819Y-69858428D01*
X198844819Y-69858428D02*
X199844819Y-69525095D01*
X159594133Y-55536419D02*
X159260800Y-55060228D01*
X159022705Y-55536419D02*
X159022705Y-54536419D01*
X159022705Y-54536419D02*
X159403657Y-54536419D01*
X159403657Y-54536419D02*
X159498895Y-54584038D01*
X159498895Y-54584038D02*
X159546514Y-54631657D01*
X159546514Y-54631657D02*
X159594133Y-54726895D01*
X159594133Y-54726895D02*
X159594133Y-54869752D01*
X159594133Y-54869752D02*
X159546514Y-54964990D01*
X159546514Y-54964990D02*
X159498895Y-55012609D01*
X159498895Y-55012609D02*
X159403657Y-55060228D01*
X159403657Y-55060228D02*
X159022705Y-55060228D01*
X160498895Y-54536419D02*
X160022705Y-54536419D01*
X160022705Y-54536419D02*
X159975086Y-55012609D01*
X159975086Y-55012609D02*
X160022705Y-54964990D01*
X160022705Y-54964990D02*
X160117943Y-54917371D01*
X160117943Y-54917371D02*
X160356038Y-54917371D01*
X160356038Y-54917371D02*
X160451276Y-54964990D01*
X160451276Y-54964990D02*
X160498895Y-55012609D01*
X160498895Y-55012609D02*
X160546514Y-55107847D01*
X160546514Y-55107847D02*
X160546514Y-55345942D01*
X160546514Y-55345942D02*
X160498895Y-55441180D01*
X160498895Y-55441180D02*
X160451276Y-55488800D01*
X160451276Y-55488800D02*
X160356038Y-55536419D01*
X160356038Y-55536419D02*
X160117943Y-55536419D01*
X160117943Y-55536419D02*
X160022705Y-55488800D01*
X160022705Y-55488800D02*
X159975086Y-55441180D01*
%TO.C,J1*%
D12*
X155850000Y-97200000D02*
X155850000Y-82900000D01*
X155850000Y-97200000D02*
X164850000Y-97200000D01*
X157900000Y-82900000D02*
X155850000Y-82900000D01*
X162800000Y-82900000D02*
X164850000Y-82900000D01*
X164850000Y-82900000D02*
X164850000Y-84150000D01*
X164850000Y-97200000D02*
X164850000Y-88650000D01*
X160450000Y-81400000D02*
G75*
G02*
X160250000Y-81400000I-100000J0D01*
G01*
X160250000Y-81400000D02*
G75*
G02*
X160450000Y-81400000I100000J0D01*
G01*
%TO.C,S4*%
D11*
X196895476Y-85000000D02*
G75*
G02*
X191064524Y-85000000I-2915476J0D01*
G01*
X191064524Y-85000000D02*
G75*
G02*
X196895476Y-85000000I2915476J0D01*
G01*
%TO.C,J6*%
D14*
X170195000Y-77945000D02*
X170195000Y-90705000D01*
X170195000Y-77945000D02*
X172855000Y-77945000D01*
X170195000Y-90705000D02*
X172855000Y-90705000D01*
X171525000Y-75345000D02*
X172855000Y-75345000D01*
X172855000Y-75345000D02*
X172855000Y-76675000D01*
X172855000Y-77945000D02*
X172855000Y-90705000D01*
%TO.C,J5*%
X181670000Y-61270000D02*
X181670000Y-45970000D01*
X181670000Y-63870000D02*
X181670000Y-62540000D01*
X183000000Y-63870000D02*
X181670000Y-63870000D01*
X184330000Y-45970000D02*
X181670000Y-45970000D01*
X184330000Y-61270000D02*
X181670000Y-61270000D01*
X184330000Y-61270000D02*
X184330000Y-45970000D01*
%TO.C,D1*%
X122690000Y-50464000D02*
X122690000Y-50620000D01*
X122690000Y-52780000D02*
X122690000Y-52936000D01*
X122690000Y-50464484D02*
G75*
G02*
X125921437Y-50620000I1560000J-1235516D01*
G01*
X123209039Y-50620000D02*
G75*
G02*
X125290961Y-50620000I1040961J-1080000D01*
G01*
X125290961Y-52780000D02*
G75*
G02*
X123209039Y-52780000I-1040961J1080000D01*
G01*
X125921437Y-52780000D02*
G75*
G02*
X122690000Y-52935516I-1671437J1080000D01*
G01*
%TO.C,J4*%
X165670000Y-48650000D02*
X165670000Y-63950000D01*
X165670000Y-48650000D02*
X168330000Y-48650000D01*
X165670000Y-63950000D02*
X168330000Y-63950000D01*
X167000000Y-46050000D02*
X168330000Y-46050000D01*
X168330000Y-46050000D02*
X168330000Y-47380000D01*
X168330000Y-48650000D02*
X168330000Y-63950000D01*
%TO.C,R3*%
X171487258Y-49477500D02*
X171012742Y-49477500D01*
X171487258Y-50522500D02*
X171012742Y-50522500D01*
%TO.C,D2*%
X195560000Y-50620000D02*
X195560000Y-50464000D01*
X195560000Y-52936000D02*
X195560000Y-52780000D01*
X192328563Y-50620000D02*
G75*
G02*
X195560000Y-50464484I1671437J-1080000D01*
G01*
X192959039Y-50620000D02*
G75*
G02*
X195040961Y-50620000I1040961J-1080000D01*
G01*
X195040961Y-52780000D02*
G75*
G02*
X192959039Y-52780000I-1040961J1080000D01*
G01*
X195560000Y-52935516D02*
G75*
G02*
X192328563Y-52780000I-1560000J1235516D01*
G01*
%TO.C,J7*%
X194120000Y-58580000D02*
X195500000Y-58580000D01*
X194120000Y-59960000D02*
X194120000Y-58580000D01*
X194120000Y-61230000D02*
X194120000Y-63880000D01*
X194120000Y-61230000D02*
X196880000Y-61230000D01*
X194120000Y-63880000D02*
X196880000Y-63880000D01*
X196880000Y-61230000D02*
X196880000Y-63880000D01*
%TO.C,U3*%
X130385000Y-52805000D02*
X130385000Y-96555000D01*
X130385000Y-96555000D02*
X151835000Y-96555000D01*
X130640000Y-52810000D02*
X130640000Y-55940000D01*
X130640000Y-93420000D02*
X130640000Y-96535000D01*
X130640000Y-93420000D02*
X133800000Y-93420000D01*
X131214204Y-76327397D02*
X131214204Y-86027397D01*
X131316783Y-67541636D02*
X131316783Y-63941636D01*
X131416783Y-63841636D02*
X133716783Y-63841636D01*
X131691783Y-63391636D02*
X133441783Y-63391636D01*
X131691783Y-63841636D02*
X131691783Y-63391636D01*
X131691783Y-68091636D02*
X131691783Y-67641636D01*
X132714204Y-87527397D02*
X142414204Y-87527397D01*
X133205304Y-67642636D02*
X133299856Y-67642636D01*
X133441783Y-63391636D02*
X133441783Y-63841636D01*
X133441783Y-67641636D02*
X133441783Y-68091636D01*
X133441783Y-68091636D02*
X131691783Y-68091636D01*
X133716783Y-66771358D02*
X131416783Y-66771358D01*
X133716783Y-67641636D02*
X131416783Y-67641636D01*
X133800000Y-52810000D02*
X133800000Y-55940000D01*
X133800000Y-55940000D02*
X130640000Y-55940000D01*
X133800000Y-93420000D02*
X133800000Y-96535000D01*
X133816783Y-63941636D02*
X133816783Y-67541636D01*
X136303330Y-64370233D02*
X136303330Y-65210233D01*
X136303330Y-64370233D02*
X140933330Y-64370233D01*
X136303330Y-65210233D02*
X140933330Y-65210233D01*
X136303330Y-66070233D02*
X136303330Y-66910233D01*
X136303330Y-66070233D02*
X140933330Y-66070233D01*
X136303330Y-66910233D02*
X140933330Y-66910233D01*
X136303330Y-67770233D02*
X136303330Y-68610233D01*
X136303330Y-67770233D02*
X140933330Y-67770233D01*
X136303330Y-68610233D02*
X140933330Y-68610233D01*
X136303330Y-69470233D02*
X136303330Y-70310233D01*
X136303330Y-69470233D02*
X140933330Y-69470233D01*
X136303330Y-70310233D02*
X140933330Y-70310233D01*
X136303330Y-71170233D02*
X136303330Y-72010233D01*
X136303330Y-71170233D02*
X140933330Y-71170233D01*
X136303330Y-72010233D02*
X140933330Y-72010233D01*
X140933330Y-63187797D02*
X140933330Y-73192670D01*
X140933330Y-73192670D02*
X141010894Y-73270233D01*
X141010894Y-63110233D02*
X140933330Y-63187797D01*
X141010894Y-63110233D02*
X150362390Y-63110233D01*
X141010894Y-73270233D02*
X150362390Y-73270233D01*
X142414204Y-74827397D02*
X132714204Y-74827397D01*
X143914204Y-86027397D02*
X143914204Y-76327397D01*
X146367706Y-87609783D02*
X146367706Y-77709783D01*
X146417706Y-77659783D02*
X151317705Y-77659783D01*
X148420000Y-93420000D02*
X148420000Y-96580000D01*
X148420000Y-93420000D02*
X151580000Y-93420000D01*
X148425000Y-52810000D02*
X148420000Y-55940000D01*
X148730000Y-55940000D02*
X148420000Y-55940000D01*
X148995851Y-63109233D02*
X148834313Y-63109233D01*
X149019705Y-91008681D02*
X150619704Y-91008681D01*
X149019705Y-91808681D02*
X149019705Y-91008681D01*
X149339705Y-91808681D02*
X149339705Y-91008681D01*
X149517706Y-78720553D02*
X149517706Y-80799014D01*
X149573330Y-73270233D02*
X149573330Y-63110233D01*
X149992706Y-78708594D02*
X149997938Y-78684147D01*
X149992706Y-78708594D02*
X150017705Y-78720553D01*
X149992706Y-78708594D02*
X150023925Y-78715764D01*
X150017705Y-80799014D02*
X150017705Y-78720553D01*
X150049100Y-78696385D02*
X150017705Y-78720553D01*
X150299704Y-91008681D02*
X150299704Y-91808681D01*
X150362390Y-63110233D02*
X150653329Y-64760233D01*
X150619704Y-91808681D02*
X149019705Y-91808681D01*
X150619704Y-91808681D02*
X150619704Y-91008681D01*
X150653329Y-64760233D02*
X150653329Y-71620233D01*
X150653329Y-71620233D02*
X150362390Y-73270233D01*
X151317705Y-87659783D02*
X146417706Y-87659783D01*
X151367705Y-77709783D02*
X151367705Y-87609783D01*
X151368705Y-86218978D02*
X151368705Y-86174106D01*
X151368705Y-86302312D02*
X151368705Y-86268357D01*
X151580000Y-52810000D02*
X151580000Y-54110000D01*
X151580000Y-93420000D02*
X151580000Y-96535000D01*
X151835000Y-52805000D02*
X130385000Y-52805000D01*
X151835000Y-96555000D02*
X151835000Y-52805000D01*
X131214204Y-76327397D02*
G75*
G02*
X132714204Y-74827404I1499996J-3D01*
G01*
X131316783Y-63941636D02*
G75*
G02*
X131416783Y-63841583I100017J36D01*
G01*
X131416783Y-67641636D02*
G75*
G02*
X131316764Y-67541636I17J100036D01*
G01*
X132527938Y-78207611D02*
G75*
G02*
X132562053Y-78341799I-52938J-84889D01*
G01*
X132527938Y-78207611D02*
G75*
G02*
X134594410Y-76141137I793662J1272811D01*
G01*
X132562024Y-84013011D02*
G75*
G02*
X132527925Y-84147162I-87024J-49289D01*
G01*
X132562024Y-84013011D02*
G75*
G02*
X132562024Y-78341783I5002180J2835614D01*
G01*
X132714204Y-87527397D02*
G75*
G02*
X131214203Y-86027397I-4J1499997D01*
G01*
X133716783Y-63841636D02*
G75*
G02*
X133816764Y-63941636I17J-99964D01*
G01*
X133816783Y-67541636D02*
G75*
G02*
X133716783Y-67641583I-99983J36D01*
G01*
X134594417Y-86213663D02*
G75*
G02*
X134728602Y-86179555I84883J-52937D01*
G01*
X134594418Y-86213662D02*
G75*
G02*
X132527938Y-84147182I-1272858J793622D01*
G01*
X134728590Y-76175218D02*
G75*
G02*
X140399815Y-76175221I2835610J-5002182D01*
G01*
X134728591Y-76175217D02*
G75*
G02*
X134594440Y-76141118I-49291J87017D01*
G01*
X140399816Y-86179577D02*
G75*
G02*
X140533961Y-86213680I49284J-87023D01*
G01*
X140399817Y-86179576D02*
G75*
G02*
X134728588Y-86179579I-2835617J5002176D01*
G01*
X140533989Y-76141132D02*
G75*
G02*
X142600469Y-78207611I1272851J-793628D01*
G01*
X140533990Y-76141131D02*
G75*
G02*
X140399800Y-76175249I-84890J52931D01*
G01*
X142414204Y-74827397D02*
G75*
G02*
X143914203Y-76327397I-4J-1500003D01*
G01*
X142566383Y-78341783D02*
G75*
G02*
X142600488Y-78207641I87017J49283D01*
G01*
X142566383Y-78341784D02*
G75*
G02*
X142566383Y-84013011I-5002178J-2835614D01*
G01*
X142600469Y-84147183D02*
G75*
G02*
X140533982Y-86213667I-793669J-1272817D01*
G01*
X142600469Y-84147183D02*
G75*
G02*
X142566359Y-84012998I52931J84883D01*
G01*
X143914204Y-86027397D02*
G75*
G02*
X142414204Y-87527404I-1500004J-3D01*
G01*
X146367706Y-77709783D02*
G75*
G02*
X146417706Y-77659806I49994J-17D01*
G01*
X146417706Y-87659783D02*
G75*
G02*
X146367717Y-87609783I-6J49983D01*
G01*
X149537473Y-78684148D02*
G75*
G02*
X149486310Y-78696385I230227J-1075652D01*
G01*
X151317705Y-77659783D02*
G75*
G02*
X151367717Y-77709783I-5J-50017D01*
G01*
X151367705Y-87609783D02*
G75*
G02*
X151317705Y-87659805I-50005J-17D01*
G01*
X134454000Y-89920000D02*
G75*
G02*
X131256000Y-89920000I-1599000J0D01*
G01*
X131256000Y-89920000D02*
G75*
G02*
X134454000Y-89920000I1599000J0D01*
G01*
X142814204Y-81177397D02*
G75*
G02*
X132314204Y-81177397I-5250000J0D01*
G01*
X132314204Y-81177397D02*
G75*
G02*
X142814204Y-81177397I5250000J0D01*
G01*
X144544794Y-92389307D02*
G75*
G02*
X136544794Y-92389307I-4000000J0D01*
G01*
X136544794Y-92389307D02*
G75*
G02*
X144544794Y-92389307I4000000J0D01*
G01*
X145042582Y-57006666D02*
G75*
G02*
X137042582Y-57006666I-4000000J0D01*
G01*
X137042582Y-57006666D02*
G75*
G02*
X145042582Y-57006666I4000000J0D01*
G01*
X142220406Y-64033179D02*
G75*
G02*
X141470406Y-64033179I-375000J0D01*
G01*
X141470406Y-64033179D02*
G75*
G02*
X142220406Y-64033179I375000J0D01*
G01*
X150963999Y-59440000D02*
G75*
G02*
X147766001Y-59440000I-1598999J0D01*
G01*
X147766001Y-59440000D02*
G75*
G02*
X150963999Y-59440000I1598999J0D01*
G01*
%TO.C,R2*%
X125262742Y-57177500D02*
X125737258Y-57177500D01*
X125262742Y-58222500D02*
X125737258Y-58222500D01*
%TO.C,D6*%
X209510000Y-63350000D02*
X204000000Y-63350000D01*
X209510000Y-66650000D02*
X204000000Y-66650000D01*
X209510000Y-66650000D02*
X209510000Y-63350000D01*
%TO.C,R8*%
X171762742Y-56977500D02*
X172237258Y-56977500D01*
X171762742Y-58022500D02*
X172237258Y-58022500D01*
%TO.C,S3*%
D11*
X127165476Y-85000000D02*
G75*
G02*
X121334524Y-85000000I-2915476J0D01*
G01*
X121334524Y-85000000D02*
G75*
G02*
X127165476Y-85000000I2915476J0D01*
G01*
%TO.C,U2*%
D15*
X168960000Y-72840000D02*
X168960000Y-93160000D01*
X171500000Y-95700000D02*
X186740000Y-95700000D01*
X186740000Y-70300000D02*
X171500000Y-70300000D01*
X189280000Y-93160000D02*
X189280000Y-72840000D01*
X168960000Y-72840000D02*
G75*
G02*
X171500000Y-70300000I2540001J-1D01*
G01*
X171500000Y-95700000D02*
G75*
G02*
X168960000Y-93160000I0J2540000D01*
G01*
X186740000Y-70300000D02*
G75*
G02*
X189280000Y-72840000I-1J-2540001D01*
G01*
X189280000Y-93160000D02*
G75*
G02*
X186740000Y-95700000I-2540000J0D01*
G01*
D12*
X168380000Y-77200000D02*
G75*
G02*
X168180000Y-77200000I-100000J0D01*
G01*
X168180000Y-77200000D02*
G75*
G02*
X168380000Y-77200000I100000J0D01*
G01*
%TO.C,J3*%
D16*
X104318800Y-68610000D02*
X104318800Y-88599800D01*
X104318800Y-88599800D02*
X120041401Y-88599800D01*
X120041401Y-68610000D02*
X104318800Y-68610000D01*
X120041401Y-69398558D02*
X120041401Y-68610000D01*
X120041401Y-73358557D02*
X120041401Y-71971243D01*
X120041401Y-77318557D02*
X120041401Y-75931242D01*
X120041401Y-81278557D02*
X120041401Y-79891242D01*
X120041401Y-85238556D02*
X120041401Y-83851242D01*
X120041401Y-88599800D02*
X120041401Y-87811241D01*
D17*
X119725401Y-66832000D02*
G75*
G02*
X118963401Y-66832000I-381000J0D01*
G01*
X118963401Y-66832000D02*
G75*
G02*
X119725401Y-66832000I381000J0D01*
G01*
%TO.C,S1*%
D11*
X127165476Y-51700000D02*
G75*
G02*
X121334524Y-51700000I-2915476J0D01*
G01*
X121334524Y-51700000D02*
G75*
G02*
X127165476Y-51700000I2915476J0D01*
G01*
%TO.C,J2*%
D16*
X201958600Y-68400200D02*
X201958600Y-69188759D01*
X201958600Y-71761444D02*
X201958600Y-73148758D01*
X201958600Y-75721443D02*
X201958600Y-77108758D01*
X201958600Y-79681443D02*
X201958600Y-81068758D01*
X201958600Y-83641443D02*
X201958600Y-85028757D01*
X201958600Y-87601442D02*
X201958600Y-88390000D01*
X201958600Y-88390000D02*
X217681201Y-88390000D01*
X217681201Y-68400200D02*
X201958600Y-68400200D01*
X217681201Y-88390000D02*
X217681201Y-68400200D01*
D17*
X203036600Y-90168000D02*
G75*
G02*
X202274600Y-90168000I-381000J0D01*
G01*
X202274600Y-90168000D02*
G75*
G02*
X203036600Y-90168000I381000J0D01*
G01*
%TO.C,R6*%
D14*
X192727500Y-74262742D02*
X192727500Y-74737258D01*
X193772500Y-74262742D02*
X193772500Y-74737258D01*
%TO.C,D4*%
X195540000Y-83920000D02*
X195540000Y-83764000D01*
X195540000Y-86236000D02*
X195540000Y-86080000D01*
X192308563Y-83920000D02*
G75*
G02*
X195540000Y-83764484I1671437J-1080000D01*
G01*
X192939039Y-83920000D02*
G75*
G02*
X195020961Y-83920000I1040961J-1080000D01*
G01*
X195020961Y-86080000D02*
G75*
G02*
X192939039Y-86080000I-1040961J1080000D01*
G01*
X195540000Y-86235516D02*
G75*
G02*
X192308563Y-86080000I-1560000J1235516D01*
G01*
%TO.C,K2*%
X198222500Y-43490000D02*
X213642500Y-43490000D01*
X198222500Y-62510000D02*
X198222500Y-43490000D01*
X198222500Y-62510000D02*
X204732500Y-62510000D01*
X199932500Y-55200000D02*
X199932500Y-57500000D01*
X199932500Y-55200000D02*
X204432500Y-55200000D01*
X201632500Y-47000000D02*
X203932500Y-47000000D01*
X204432500Y-52700000D02*
X207432500Y-52700000D01*
X204432500Y-57700000D02*
X204432500Y-52700000D01*
X205932500Y-50200000D02*
X203232500Y-45700000D01*
X205932500Y-51700000D02*
X205932500Y-50200000D01*
X205932500Y-51700000D02*
X209632500Y-51700000D01*
X205932500Y-58600000D02*
X205932500Y-59500000D01*
X205932500Y-58600000D02*
X209632500Y-58600000D01*
X207132500Y-62510000D02*
X213642500Y-62510000D01*
X207432500Y-52700000D02*
X204432500Y-57700000D01*
X207432500Y-52700000D02*
X207432500Y-57700000D01*
X207432500Y-55200000D02*
X211932500Y-55200000D01*
X207432500Y-57700000D02*
X204432500Y-57700000D01*
X209632500Y-51700000D02*
X209632500Y-58600000D01*
X210232500Y-47000000D02*
X207932500Y-47000000D01*
X211932500Y-57500000D02*
X211932500Y-55200000D01*
X213642500Y-43500000D02*
X213642500Y-62510000D01*
X213882500Y-60350000D02*
X213882500Y-58050000D01*
%TO.C,S2*%
D11*
X196915476Y-51700000D02*
G75*
G02*
X191084524Y-51700000I-2915476J0D01*
G01*
X191084524Y-51700000D02*
G75*
G02*
X196915476Y-51700000I2915476J0D01*
G01*
%TO.C,D3*%
D14*
X122690000Y-83764000D02*
X122690000Y-83920000D01*
X122690000Y-86080000D02*
X122690000Y-86236000D01*
X122690000Y-83764484D02*
G75*
G02*
X125921437Y-83920000I1560000J-1235516D01*
G01*
X123209039Y-83920000D02*
G75*
G02*
X125290961Y-83920000I1040961J-1080000D01*
G01*
X125290961Y-86080000D02*
G75*
G02*
X123209039Y-86080000I-1040961J1080000D01*
G01*
X125921437Y-86080000D02*
G75*
G02*
X122690000Y-86235516I-1671437J1080000D01*
G01*
%TO.C,R4*%
X171487258Y-51977500D02*
X171012742Y-51977500D01*
X171487258Y-53022500D02*
X171012742Y-53022500D01*
%TO.C,R7*%
X171762742Y-59487500D02*
X172237258Y-59487500D01*
X171762742Y-60532500D02*
X172237258Y-60532500D01*
%TO.C,Q1*%
X196437500Y-72990000D02*
X195787500Y-72990000D01*
X196437500Y-72990000D02*
X197087500Y-72990000D01*
X196437500Y-76110000D02*
X195787500Y-76110000D01*
X196437500Y-76110000D02*
X197087500Y-76110000D01*
X195275000Y-73040000D02*
X195035000Y-72710000D01*
X195515000Y-72710000D01*
X195275000Y-73040000D01*
G36*
X195275000Y-73040000D02*
G01*
X195035000Y-72710000D01*
X195515000Y-72710000D01*
X195275000Y-73040000D01*
G37*
%TO.C,R5*%
X162012742Y-54457500D02*
X162487258Y-54457500D01*
X162012742Y-55502500D02*
X162487258Y-55502500D01*
%TD*%
M02*
