<svg width="286" height="116" viewBox="0 0 286 116" fill="none" xmlns="http://www.w3.org/2000/svg">
<path d="M119.473 92.1591C119.573 78.2591 129.343 68.159 142.602 68.259C155.762 68.359 166.13 78.759 166.13 91.759C166.031 104.659 155.363 115.159 142.303 114.959C129.143 114.959 119.373 105.159 119.473 92.1591Z" fill="#593A2D"/>
<path d="M131.935 115.059C124.757 115.059 117.579 115.059 110.401 115.059C104.718 115.059 98.9357 115.059 93.253 115.059C80.0932 114.959 70.7219 103.059 73.8124 90.259C74.0118 89.359 74.2112 88.6589 75.4075 88.3589C90.5612 84.7589 105.815 81.059 120.968 77.459C121.068 77.459 121.267 77.459 121.766 77.459C117.778 84.059 116.382 91.0589 118.476 98.3589C120.47 105.859 125.056 111.259 131.935 115.059Z" fill="#593A2D"/>
<path d="M153.369 115.059C165.333 109.059 173.109 92.759 163.738 77.259C167.925 78.259 171.913 79.2591 176 80.1591C187.266 82.8591 198.432 85.559 209.697 88.259C210.993 88.559 211.392 89.159 211.691 90.259C214.682 103.059 205.311 114.959 192.151 115.059C179.589 115.059 167.028 115.059 154.466 115.059C154.067 115.059 153.768 115.059 153.369 115.059Z" fill="#593A2D"/>
<path d="M74.61 86.559C77.9996 70.959 81.2896 55.659 84.6792 40.459C84.9783 39.059 84.5795 38.259 83.782 37.259C78.6975 31.059 79.4951 22.5589 85.4768 17.3589C91.1594 12.4589 100.032 13.059 105.017 18.559C110.5 24.559 109.603 34.4589 103.023 39.3589C101.627 40.4589 100.93 41.5589 100.63 43.3589C98.9356 55.5589 97.0414 67.6589 95.1472 79.8589C94.9478 81.0589 94.5491 81.7589 93.1533 82.059C87.0719 83.459 80.9905 85.059 74.61 86.559Z" fill="#593A2D"/>
<path d="M210.694 86.5589C204.413 85.0589 198.332 83.4589 192.251 82.1589C190.755 81.8589 190.356 81.1589 190.157 79.7589C188.362 67.6589 186.468 55.6589 184.773 43.5589C184.574 42.2589 184.175 41.4589 182.979 40.7589C177.097 37.0589 174.704 30.2589 176.997 23.8589C179.091 17.8589 185.172 13.9589 191.453 14.6589C198.432 15.3589 203.516 20.4589 204.314 27.4589C204.712 31.1589 203.616 34.4589 201.422 37.3589C200.625 38.3589 200.525 39.1589 200.725 40.4589C204.015 55.5589 207.305 70.6589 210.594 85.6589C210.694 85.8589 210.694 86.0589 210.694 86.5589Z" fill="#593A2D"/>
<path d="M248.18 32.8589C248.18 24.0589 248.08 15.2589 248.18 6.35895C248.18 1.35895 252.766 -1.44103 256.853 0.75897C259.246 2.05897 259.944 4.25895 259.944 6.85895C259.944 17.4589 259.944 27.959 259.944 38.559C259.944 45.459 259.944 52.4589 259.944 59.3589C259.944 63.0589 257.85 65.5589 254.76 65.8589C250.971 66.2589 248.279 63.659 248.18 59.559C248.08 52.059 248.18 44.659 248.18 37.159C248.18 35.759 248.18 34.2589 248.18 32.8589Z" fill="#593A2D"/>
<path d="M246.186 33.1591C246.186 41.8591 246.186 50.4591 246.186 59.1591C246.186 63.2591 243.893 65.859 240.204 65.859C236.715 65.859 234.422 63.2591 234.422 59.1591C234.422 42.3591 234.422 25.559 234.422 8.75904C234.422 7.65904 234.422 6.45901 234.521 5.35901C234.92 1.95901 237.413 -0.140975 240.603 0.0590254C243.793 0.259025 246.086 2.65903 246.086 6.05903C246.186 15.059 246.186 24.1591 246.186 33.1591Z" fill="#593A2D"/>
<path d="M37.2242 33.1589C37.2242 41.8589 37.2242 50.6589 37.2242 59.3589C37.2242 63.2589 34.9312 65.7589 31.5416 65.8589C28.5507 65.9589 26.158 63.9589 25.6596 61.0589C25.5599 60.2589 25.4602 59.4589 25.4602 58.5589C25.4602 41.5589 25.4602 24.4589 25.4602 7.45891C25.4602 6.35891 25.4602 5.15889 25.7593 4.05889C26.4571 1.45889 29.3483 -0.241113 32.0401 0.0588872C34.8315 0.358887 37.0248 2.6589 37.1245 5.7589C37.2242 11.1589 37.1245 16.6589 37.1245 22.0589C37.2242 25.7589 37.2242 29.4589 37.2242 33.1589Z" fill="#593A2D"/>
<path d="M39.2181 32.859C39.2181 23.859 39.2181 14.959 39.2181 5.959C39.2181 3.259 40.7136 1.359 43.1063 0.459004C45.3992 -0.340996 47.7919 0.25898 49.4868 2.05898C50.0849 2.75898 50.5834 3.459 50.6831 4.459C50.7828 6.159 51.0819 7.95902 51.0819 9.65902C51.0819 26.259 51.0819 42.859 51.0819 59.459C51.0819 63.359 48.6892 65.959 45.1999 65.959C41.7105 65.959 39.4175 63.359 39.4175 59.359C39.2181 50.459 39.2181 41.659 39.2181 32.859Z" fill="#593A2D"/>
<path d="M175.103 34.3589C153.17 34.3589 131.337 34.3589 109.503 34.3589C109.802 33.1589 110.102 31.9589 110.301 30.8589C110.5 29.5589 111.497 29.9589 112.195 29.9589C120.27 29.9589 128.346 29.9589 136.321 29.9589C147.986 29.9589 159.65 30.0589 171.314 29.8589C173.508 29.8589 174.604 30.3589 174.704 32.5589C174.804 33.1589 175.003 33.7589 175.103 34.3589Z" fill="#593A2D"/>
<path d="M261.938 32.8589C261.938 28.5589 261.938 24.259 261.938 19.959C261.938 17.559 263.533 15.959 265.626 15.959C267.62 16.059 269.116 17.659 269.116 19.959C269.116 28.659 269.116 37.259 269.116 45.959C269.116 48.459 267.62 49.8589 265.427 49.8589C263.234 49.7589 262.037 48.359 261.938 45.959C261.838 41.559 261.838 37.2589 261.938 32.8589Z" fill="#593A2D"/>
<path d="M23.566 33.0589C23.566 37.3589 23.566 41.6589 23.566 45.9589C23.566 48.4589 22.1702 49.9589 19.9769 49.9589C17.7836 49.9589 16.3879 48.4589 16.3879 45.9589C16.3879 37.4589 16.3879 28.9589 16.3879 20.4589C16.3879 17.8589 17.8833 16.1589 20.0766 16.1589C22.1702 16.1589 23.566 17.6589 23.566 20.2589C23.566 24.4589 23.566 28.7589 23.566 33.0589Z" fill="#593A2D"/>
<path d="M205.51 34.459C206.308 29.859 206.308 29.859 210.594 29.859C217.274 29.859 223.954 29.959 230.633 29.759C232.727 29.759 232.527 30.759 232.527 32.059C232.527 33.359 232.827 34.459 230.733 34.459C222.359 34.359 213.984 34.459 205.51 34.459Z" fill="#593A2D"/>
<path d="M79.5948 34.4589C74.4106 34.4589 69.3261 34.4589 64.2417 34.4589C60.9517 34.4589 57.6618 34.3589 54.3718 34.4589C52.2782 34.5589 52.9761 33.1589 52.9761 32.1589C52.9761 31.2589 52.1785 29.8589 54.2721 29.8589C61.9487 29.9589 69.6252 29.8589 77.2021 29.8589C78.199 29.8589 78.6975 30.1589 78.7972 31.1589C78.8969 32.2589 79.2957 33.2589 79.5948 34.4589Z" fill="#593A2D"/>
<path d="M7.4153 29.859C8.91073 29.859 10.4062 29.859 11.9016 29.859C14.1946 29.859 15.2912 31.759 14.394 33.859C14.0949 34.559 13.5964 34.359 13.0979 34.359C9.20981 34.359 5.3217 34.359 1.43358 34.359C-0.859417 34.359 0.336924 32.659 0.137533 31.759C-0.0618574 30.759 -0.261239 29.659 1.53328 29.759C3.52718 30.059 5.42139 29.859 7.4153 29.859Z" fill="#593A2D"/>
<path d="M278.188 34.4591C276.593 34.4591 274.998 34.4591 273.502 34.4591C271.209 34.4591 270.113 32.5591 271.01 30.4591C271.309 29.7591 271.807 29.9591 272.306 29.9591C276.194 29.9591 280.082 29.9591 283.97 29.9591C286.263 29.9591 285.067 31.559 285.266 32.559C285.466 33.559 285.665 34.759 283.871 34.559C281.976 34.359 280.082 34.4591 278.188 34.4591Z" fill="#593A2D"/>
</svg>
