<svg width="150" height="173" viewBox="0 0 150 173" fill="none" xmlns="http://www.w3.org/2000/svg">
<path d="M8.52661 159.4C8.82542 155.5 9.92107 151.9 10.8175 148.2C14.6024 131.5 18.3873 114.8 22.2719 98.1C22.4711 97.4 22.3715 96.8 22.0727 96.2C15.7977 80.7 9.52265 65.2 3.34724 49.7C1.25557 44.5 0.359133 39.0001 0.55834 33.3001C0.657944 30.1001 2.45081 28.0001 5.33931 26.8001C8.42701 25.5001 11.6143 24.9001 14.9012 24.8001C20.6782 24.5001 26.4552 23.7001 32.033 22.3001C33.3279 22.0001 33.5271 22.4 33.7263 23.6C35.6187 35.4 37.6108 47.2 39.6029 59C39.7025 59.7 40.2005 60.5 38.9057 60.7C37.7104 60.9 37.4116 60.6 37.2124 59.5C37.0132 58 36.7144 56.5 36.4156 55C35.818 52 33.4275 50.1 30.3398 50.5C27.8497 50.8 25.3596 51.3001 22.9691 51.8001C20.0806 52.5001 18.3873 55.1 18.8854 58C20.1802 65.7 21.5747 73.4 22.9691 81.1C23.4671 83.9 25.8576 85.8 28.6465 85.5C31.3358 85.2 34.0251 84.7 36.7144 84.1C39.3041 83.4 40.8977 80.9 40.4993 78.2C40.3001 76.4 39.9017 74.6 39.6029 72.7C39.5033 72.2 39.6029 72.0001 40.1009 71.8001C40.5989 71.6001 40.7981 71.8 40.9973 72.2C43.6866 79.2 46.8739 86 49.1648 93.2C50.2604 96.7 48.866 100.2 48.0692 103.6C43.6866 123.1 39.2045 142.6 34.7223 162C33.2283 168.4 27.9493 172.7 21.6743 172.7C15.3993 172.7 10.0207 168.3 8.72582 161.9C8.62621 161.1 8.62622 160.2 8.52661 159.4Z" fill="#593A2D"/>
<path d="M125.561 2.39999C138.908 2.49999 149.366 13.1999 149.266 26.5999C149.167 39.7999 138.41 50.3999 125.262 50.1999C112.015 50.0999 101.656 39.1999 101.756 25.6999C101.756 12.8999 112.712 2.29999 125.561 2.39999Z" fill="#593A2D"/>
<path d="M53.9458 26.8001C54.7426 31.7001 55.5394 36.5001 56.3362 41.3001C57.5315 48.2001 58.7267 55.2 59.8223 62.1C60.6192 67 57.5315 71.4 52.8501 72.1C47.9695 72.8 43.8858 69.8 43.089 64.7C40.3997 48.9 37.81 33.1001 35.2203 17.3001C34.1247 10.8001 39.304 5.80008 45.6787 7.30008C56.2366 9.80008 66.7946 12.4 77.253 15C81.7351 16.1 84.4244 20.6 83.3288 25.1C82.2331 29.7 77.9502 32.5 73.3684 31.5C67.4918 30.2 61.7148 28.7001 55.8382 27.3001C55.3402 27.0001 54.7426 26.9001 53.9458 26.8001Z" fill="#593A2D"/>
<path d="M43.7861 4.40007C45.1806 1.90007 48.4675 0.200066 51.4556 0.900066C63.0096 3.60007 74.5636 6.00004 85.9184 9.50004C91.9942 11.4 95.0819 16.1 95.2811 22.5C95.5799 32.5 90.799 39.7 82.7311 45.1C81.9342 45.7 81.0378 46.1 80.1414 46.6C78.2489 42.8 76.6553 42 72.4719 42.7C70.6791 43 68.8862 43.3 67.0933 43.7C63.8064 44.4 62.1132 47.2 62.7108 50.5C63.0096 52 63.2088 53.5001 63.6072 54.9001C63.906 56.1001 63.2088 56.1001 62.412 56.3001C61.3163 56.6001 61.4159 56.0001 61.2167 55.3001C59.8223 46.9001 58.4278 38.6001 56.9338 29.9001C59.2247 30.4001 61.3163 30.9 63.408 31.5C66.4957 32.3 69.683 33.1001 72.7707 33.8001C78.6473 35.1001 84.2251 31.6 85.6196 25.7C87.014 19.9 83.6275 14.1 77.8505 12.6C72.4719 11.2 67.0933 9.90002 61.6151 8.60002C56.2366 7.30002 50.9576 5.99999 45.579 4.69999C45.081 4.59999 44.3838 4.50007 43.7861 4.40007Z" fill="#593A2D"/>
<path d="M62.4121 63.5999C62.2129 62.4999 62.1133 61.4 61.9141 60.3C61.7149 59.4 61.8145 58.8999 62.9101 58.6999C64.1054 58.4999 65.7986 58.8 66.2966 57.8C66.695 56.9 66.0974 55.3999 65.8982 54.1999C65.699 52.7999 65.4002 51.3 65.1014 49.9C64.8026 47.9 65.699 46.4999 67.5915 46.0999C69.7827 45.5999 71.974 45.2 74.1653 44.9C76.0578 44.6 77.4522 45.8 77.8506 47.9C78.5479 51.7 79.2451 55.5 79.9423 59.3C80.5399 62.8 81.2372 66.3 81.8348 69.9C82.2332 72.1 81.2371 73.6 79.0459 74C77.1534 74.4 75.3606 74.7 73.4681 75C70.6792 75.4 69.5836 74.6 68.9859 71.8C68.5875 69.7 68.1891 67.6 67.8903 65.5C67.7907 64.5 67.3923 64.2 66.3962 64.5C65.5994 64.7 64.703 64.7 63.9062 64.9C62.6113 65.4 61.9141 65.1999 62.4121 63.5999Z" fill="#593A2D"/>
<path d="M41.7943 68.9999C40.4994 69.1999 39.3042 69.4999 38.0093 69.6999C36.9137 69.7999 36.6149 70.2 36.8141 71.3C37.3121 73.3 37.6109 75.4 38.0093 77.4C38.5074 80.3 37.6109 81.5999 34.7224 82.0999C33.0291 82.3999 31.3359 82.6999 29.6427 82.9999C27.1526 83.4999 25.7581 82.4999 25.3597 80.0999C24.0648 72.8999 22.77 65.6999 21.4752 58.4999C20.9771 55.6999 21.9732 54.4 24.6625 53.9C26.3557 53.6 28.049 53.2999 29.7422 52.9999C32.3319 52.4999 33.6268 53.3999 34.1248 55.9999C34.5232 58.1999 35.0212 60.5 35.32 62.8C35.4196 63.7 35.8181 63.7999 36.5153 63.5999C37.7105 63.3999 39.105 62.5999 40.0014 63.1999C40.8978 63.6999 40.4994 65.3999 40.7982 66.4999C41.1966 67.1999 41.4954 67.9999 41.7943 68.9999Z" fill="#593A2D"/>
<path d="M84.4243 70.7C83.6275 66.5 82.9303 62.2 82.1334 58C81.8346 56.1 81.5358 54.3001 81.1374 52.4001C80.9382 51.5001 81.237 51.3 82.0338 51.2C83.8267 50.9 85.52 50.5001 87.3128 50.3001C89.7033 49.9001 90.9981 50.8 91.4961 53.2C92.791 60.4 94.1855 67.6001 95.3807 74.8001C95.8787 77.6001 94.9823 78.9001 92.1934 79.4001C90.4005 79.7001 88.7073 80.0001 86.9144 80.4001C85.3208 80.7001 83.8267 80.4001 83.2291 78.9001C82.6315 77.5001 81.6354 75.9001 83.2291 74.3001C84.1255 73.3001 84.4243 72 84.4243 70.7Z" fill="#593A2D"/>
<path d="M51.9536 74.8C50.1607 74.7 50.2603 75.7 50.5592 76.9C50.9576 79 51.356 81.1 51.7544 83.1C51.854 83.8 51.9536 84.5 51.5552 85.2C51.1568 86 50.6587 86.8 49.7623 86.8C49.0651 86.8 49.0651 85.8 48.8659 85.2C46.9734 80.6 45.1806 76 43.4873 71.3C45.8778 73.5 48.6667 74.7 51.9536 74.8Z" fill="#593A2D"/>
<path d="M55.6392 74.1999C58.0296 72.6999 60.0217 71 61.3166 68.4C61.5158 67.9 65.1015 67.1 65.4999 67.3C65.8983 67.5 65.7987 67.7999 65.8983 68.1999C66.7948 72.1999 66.7948 72.2 62.8106 72.9C60.4201 73.4 58.0296 73.7999 55.6392 74.1999Z" fill="#593A2D"/>
</svg>
