<svg width="161" height="146" viewBox="0 0 161 146" fill="none" xmlns="http://www.w3.org/2000/svg">
<path d="M5.17908 1.02995C2.40755 1.53995 0.0746599 2.03996 0.0048731 2.03996C-0.0549441 2.09996 0.443538 5.26999 1.08159 9.12C3.35464 22.53 4.11234 29.61 3.16524 29.61C1.46044 29.61 0.583126 32.27 1.02179 36C1.46044 39.92 2.46735 41.63 4.24193 41.63C5.24885 41.63 5.43829 42.58 5.87695 49.66C6.69445 61.3 6.50503 93.49 5.62771 104.24C4.74042 114.49 2.78639 130.49 1.47041 137.89C1.03175 140.61 0.772537 142.95 0.961958 143.14C1.15138 143.33 3.80328 143.46 6.82405 143.46H12.3073L13.0052 139.16C13.384 136.82 13.8925 133.47 14.2015 131.76L14.6402 128.6L36.2641 128.41L57.8282 128.28V135.87V143.46H63.5009H69.1735V122.91C69.1735 102.8 69.1735 102.36 70.4297 102.36C71.626 102.36 71.6858 101.92 71.6858 96.67V90.98H44.8877H18.0896L18.0298 74.35C18.0298 65.24 17.7806 54.49 17.4615 50.51C17.2123 46.53 17.0229 43.17 17.0827 43.11C17.2123 42.92 35.3668 46.78 35.6859 47.03C35.8155 47.16 34.8683 48.67 33.6022 50.45C28.119 57.98 27.0423 64.87 30.3222 71.64C32.2763 75.62 39.2749 83.53 42.1162 85.05C43.5618 85.75 48.0481 85.94 66.0132 85.94C83.2306 85.94 88.0857 86.13 88.0857 86.7C88.0857 87.14 85.9423 97.01 83.3602 108.65C80.7781 120.29 78.6346 131.1 78.6346 132.75C78.6346 139.58 84.3073 145.15 91.1863 145.02C93.1403 145.02 95.6028 144.51 96.6695 143.94C99.0622 142.68 102.093 139.32 103.04 136.79C104.366 133.5 117.097 75.3799 117.097 72.9099C117.037 67.5299 113.129 62.54 107.955 61.15C105.373 60.45 105.303 60.39 105.871 58.62C106.878 55.77 105.931 52.8 103.1 49.58C100.707 46.86 100.578 46.54 101.654 45.98C106.828 43.01 111.614 35.29 111.684 29.66C111.813 21.37 103.239 14.04 93.0805 13.66C87.338 13.47 64.5776 14.55 62.1849 15.1799C60.9886 15.5 59.2837 16.44 58.4064 17.39L56.8911 18.97L62.2547 18.59C65.2156 18.34 72.8523 18.1499 79.2827 18.0799C90.6978 17.95 91.0068 18.02 93.0905 19.47C95.4233 21.18 97.5668 25.23 97.5668 28.07C97.5668 30.92 95.4233 34.96 93.1503 36.61C91.8243 37.56 89.8703 38.1899 87.667 38.38C85.8426 38.5099 84.3272 38.89 84.3272 39.0799C84.3272 39.3299 88.1057 43.13 92.7714 47.49C97.3773 51.92 101.664 56.47 102.233 57.67C104.316 62.16 103.12 67.98 99.5208 70.83L97.5069 72.4099L98.135 76.52C98.9525 81.58 99.0223 96.7 98.2646 96.7C97.9456 96.7 97.5069 96.13 97.2577 95.5C96.5 93.03 95.1741 92.5899 93.1004 94.1099L91.2062 95.5L91.6449 87.02C91.8941 82.4 91.8941 77.28 91.6449 75.7C91.266 73.11 91.0168 72.7899 89.2522 72.4099C87.8664 72.1599 84.6463 69.3699 77.7772 62.6099L68.2563 53.12L59.9916 50.91C38.9359 45.15 13.2644 39.78 7.15305 39.78C4.1921 39.78 3.74345 39.59 3.37458 38.3299C2.86614 36.4999 2.86614 32.2 3.37458 32.2C3.62382 32.2 16.6141 35.49 32.3162 39.47C48.0182 43.45 61.0683 46.74 61.3873 46.74C61.7064 46.74 59.1143 43.8899 55.6449 40.4799L49.3441 34.16L47.7689 35.6799L46.1339 37.2L31.698 34.7299C23.6925 33.34 16.8135 32.07 16.4347 31.88C15.996 31.75 15.6172 30.68 15.6172 29.54C15.6172 27.26 12.9055 8.60995 11.7689 3.22995C11.3901 1.45995 10.9514 -3.05176e-05 10.6922 -3.05176e-05C10.4031 0.0199738 7.95061 0.459946 5.17908 1.02995ZM57.8282 112.16V121.96H36.6429H15.3979L15.7767 118.92C16.0259 117.28 16.3449 113.8 16.5344 111.2C16.7238 108.61 17.0428 105.51 17.2322 104.37L17.5513 102.35H37.6499H57.8282V112.16Z" fill="#593A2D"/>
<path d="M131.344 16.0799C125.481 17.9799 120.557 22.2099 117.536 28.0299C115.771 31.5099 115.582 32.3299 115.522 37.8299C115.522 43.3999 115.711 44.22 117.536 48.01C119.998 53.01 123.966 56.86 128.951 59.2C131.982 60.65 133.427 60.9099 138.223 60.9099C143.018 60.9099 144.463 60.66 147.494 59.2C152.479 56.86 156.447 53 158.909 48.01C160.734 44.28 160.923 43.3299 160.923 38.1399C160.923 33.2699 160.674 31.9399 159.218 28.8399C155.37 20.5499 148.062 15.6199 139.17 15.2399C136.069 15.1399 133.357 15.4499 131.344 16.0799Z" fill="#593A2D"/>
<path d="M64.757 20.6999C60.4103 20.9499 56.3128 21.3999 55.6149 21.8399C51.6471 24.1199 49.8725 28.9899 51.7069 32.5299C52.8434 34.7399 86.1317 67.8199 88.973 69.5299C93.2001 72.1199 98.4939 70.2299 100.318 65.5499C102.143 60.9999 101.644 60.1099 89.5313 47.8999L78.495 36.77L83.7889 36.4499C86.6302 36.2599 89.7806 35.75 90.7875 35.31C93.25 34.11 95.0146 30.95 95.0146 27.72C95.0146 25.44 94.6357 24.6799 92.5521 22.5999L90.0896 20.1299L81.3862 20.26C76.551 20.32 69.1137 20.5099 64.757 20.6999Z" fill="#593A2D"/>
</svg>
