<svg width="114" height="174" viewBox="0 0 114 174" fill="none" xmlns="http://www.w3.org/2000/svg">
<path d="M76.4998 57.9C76.0998 65.2 75.7998 72.1999 75.4998 79.1999C75.2998 83.7999 75.1997 88.4 74.7997 93C74.6997 94.7 75.1997 95.2999 76.7997 95.6999C79.1997 96.1999 79.1998 96.2999 78.1998 98.5999C76.3998 102.3 74.1998 105.7 71.6998 109C70.9998 109.9 70.2998 110 69.1998 109.9C66.7998 109.6 64.2997 109.7 61.7997 109.7C57.3997 109.8 52.9998 109.3 48.5998 110C47.8998 110.1 47.5997 109.6 47.2997 109.2C44.4997 105.6 42.1997 101.7 40.2997 97.5C39.7997 96.4 40.1998 95.9 41.1998 95.8C43.1998 95.7 43.4997 94.4999 43.3997 92.6999C42.7997 81.5999 42.2997 70.5 41.7997 59.4C41.7997 59.2 41.6998 58.9 41.6998 58.3C37.5998 64.6 35.1998 70.9999 34.4998 78.0999C33.4998 88.9999 36.9998 98.5999 42.9998 107.6C45.1998 110.9 47.6997 113.9 50.3997 116.9C51.8997 118.6 52.4998 121 54.6998 122C54.7998 122.1 54.9998 122.3 54.9998 122.5C54.9998 125.3 55.0998 128.1 55.0998 130.9C55.0998 131.6 54.3997 131.6 53.8997 131.7C52.0997 132 50.5998 131.6 49.1998 130.4C39.2998 121.1 30.7998 110.8 26.5998 97.5999C21.6998 82.2999 23.7998 67.9 31.9998 54.3C35.7998 47.9 40.3997 42.3 47.2997 38.9C57.6997 33.8 69.3998 35.2 78.0998 43.8C92.7998 58.2 98.6998 75.6 92.9998 95.9C90.1998 106 84.3997 114.5 77.3997 122.2C74.8997 125 72.1997 127.6 69.3997 130.1C68.6997 130.7 67.9998 131.3 67.0998 131.6C64.2998 132.5 63.2998 131.8 63.1998 128.9C62.9998 122.1 62.9998 122.2 67.6998 117.3C74.2998 110.4 79.9997 102.8 82.8997 93.5C86.7997 80.9 84.3998 69.2999 77.1998 58.5999C77.0998 58.3999 76.8998 58.3 76.4998 57.9Z" fill="#593A2D"/>
<path d="M5.1001 149.1C5.1001 142.4 4.90009 134.3 6.70009 126.3C9.10009 115.9 15.0001 108.1 24.2001 102.7C25.1001 102.2 25.5001 102.1 25.9001 103.2C27.6001 107.3 29.7001 111.1 32.2001 114.8C32.7001 115.6 32.6001 115.9 31.9001 116.3C24.6001 120.6 21.7001 127.4 21.0001 135.5C20.5001 141.1 20.5001 146.7 20.7001 152.3C20.9001 156.7 20.7001 161.1 20.5001 165.5C20.3001 170.2 16.8001 173.4 12.2001 173.1C8.00009 172.9 4.8001 169.3 5.0001 164.8C5.2001 160.1 5.2001 155.3 5.1001 149.1Z" fill="#593A2D"/>
<path d="M113.1 152.6C112.9 155.4 113.1 160.2 113.3 165C113.4 169.5 110.3 173 106 173.2C101.4 173.4 97.8001 170.1 97.7001 165.5C97.6001 156.9 97.6001 148.2 97.5001 139.6C97.5001 135.9 97.0001 132.1 95.9001 128.5C94.4001 123.5 91.4001 119.6 87.0001 116.8C86.1001 116.2 85.6001 115.8 86.5001 114.7C89.0001 111.3 91.1001 107.6 92.8001 103.8C93.3001 102.6 93.7001 102.6 94.8001 103.2C105.3 109.7 110.9 119.3 112.5 131.4C113.3 137.8 113.3 144.2 113.1 152.6Z" fill="#593A2D"/>
<path d="M59.1002 0C67.6002 0 73.9002 6.20005 73.9002 14.8C73.9002 22.9 67.3002 29.6 59.1002 29.6C50.5002 29.6 44.2002 23.5 44.2002 14.9C44.3002 6.50002 50.8002 0 59.1002 0Z" fill="#593A2D"/>
<path d="M59.2002 112.9C59.9002 113 60.8002 113.1 61.6002 113.4C63.0002 113.9 64.2002 114.7 64.3002 116.3C64.5002 117.9 63.5002 118.8 62.2002 119.4C60.9002 120 60.5002 120.9 60.6002 122.3C60.7002 125.4 60.7002 128.6 60.7002 131.7C60.7002 132.6 60.8002 133.3 61.9002 133.6C63.4002 134 64.6002 135 64.5002 136.7C64.4002 138.4 63.1002 139.3 61.5002 139.8C59.7002 140.4 57.9002 140.3 56.2002 139.6C54.9002 139.1 53.9002 138.2 53.8002 136.7C53.8002 135.2 54.7002 134.2 55.9002 133.8C57.2002 133.3 57.5002 132.6 57.5002 131.3C57.4002 128.1 57.4002 124.9 57.4002 121.7C57.4002 120.9 57.4002 120.1 56.4002 119.8C54.7002 119.2 53.3002 118.3 53.7002 116.2C54.1002 114.2 55.7002 113.6 57.5002 113.2C58.1002 113 58.5002 113 59.2002 112.9Z" fill="#593A2D"/>
<path d="M0 113.8C0.2 110.1 1.8 107 5.3 105.2C5.8 105 6.4 104.4 6.8 105.3C7.1 106.1 6.4 106.2 6 106.4C2.4 108.6 0.800006 111.6 1.60001 115.8C1.70001 116.3 2 116.9 1.2 117.1C0.399997 117.3 0.500003 116.6 0.300003 116.1C0.200003 115.9 0.100006 115.6 0.100006 115.3C0.100006 114.9 0.1 114.5 0 113.8Z" fill="#593A2D"/>
<path d="M103.3 98.4001C107.5 98.7001 111.4 102.4 111.9 106.4C112 106.9 112.3 107.7 111.3 107.8C110.5 107.9 110.6 107.2 110.5 106.7C109.7 102.7 107.2 100.4 103.2 99.7C102.7 99.6 101.9 99.9001 101.9 98.9001C102 98.4001 102.2 98.3001 103.3 98.4001Z" fill="#593A2D"/>
<path d="M2.8999 113.9C2.9999 111.5 4.09991 109.4 6.29991 108C6.69991 107.7 7.29991 107.1 7.79991 107.9C8.39991 108.7 7.59991 108.9 7.09991 109.2C5.09991 110.5 4.2999 112.3 4.3999 114.6C4.3999 115.2 4.9999 116.1 3.8999 116.2C2.7999 116.3 3.0999 115.2 2.8999 114.6C2.8999 114.5 2.8999 114.2 2.8999 113.9Z" fill="#593A2D"/>
<path d="M103.2 101.3C106.1 101.5 108.9 104.2 109.1 107C109.1 107.4 109.3 107.8 108.8 108C108.3 108.2 107.9 107.9 107.8 107.4C107.2 104.7 105.5 103.1 102.8 102.7C102.2 102.6 102 102.3 102.1 101.8C102.2 101 102.8 101.4 103.2 101.3Z" fill="#593A2D"/>
</svg>
