<svg width="255" height="187" viewBox="0 0 255 187" fill="none" xmlns="http://www.w3.org/2000/svg">
<path d="M127.565 107.6C121.887 107.6 116.11 107.6 110.433 107.6C109.038 107.6 108.54 107.2 108.54 105.8C108.042 91.2 107.544 76.4999 110.831 62.0999C110.931 61.4999 111.628 60.6 110.333 60.4C109.238 60.2 109.337 60.9999 109.238 61.5999C107.843 66.8999 107.246 72.4 106.847 77.8C106.05 87.9 106.449 98.0999 106.947 108.2C107.046 109.4 107.146 110.7 106.748 111.9C105.851 114.6 103.062 116.4 100.174 116.1C97.3849 115.8 94.8948 113.6 94.6956 110.6C93.7991 93.1999 93.2015 75.9 97.1857 58.8C98.1817 54.6 99.6758 50.5 102.066 46.9C105.154 42.2 109.238 39.5999 115.114 39.6999C123.68 39.8999 132.346 39.8999 140.912 39.6999C146.589 39.5999 150.573 42.0999 153.561 46.5999C157.047 51.8999 158.641 57.8999 159.737 64.0999C162.326 79.3999 162.027 94.6999 161.231 110.1C161.031 113.8 158.243 116.3 154.756 116.2C151.27 116.1 148.681 113.4 148.78 109.6C148.979 101.5 149.577 93.2999 149.179 85.1999C148.88 77.7999 148.481 70.3999 146.788 63.1999C146.689 62.7999 146.689 62.4 146.489 62C146.191 61.4 146.489 60.1 145.095 60.5C143.8 60.9 144.597 61.7 144.796 62.3C145.892 67.2 146.589 72.0999 146.888 77.0999C147.585 86.3999 147.286 95.7 147.087 105C147.087 107.3 146.191 107.7 144.198 107.6C138.521 107.6 133.043 107.6 127.565 107.6Z" fill="#593A2D"/>
<path d="M153.86 155.6C154.258 163.3 154.557 169.6 154.856 175.9C155.055 180.4 152.565 184.2 148.581 185.6C144.696 187 140.413 185.8 137.824 182.6C136.33 180.8 135.732 178.7 135.633 176.4C135.135 164.3 134.836 152.1 133.939 140C133.342 131.6 132.047 123.3 131.051 115C130.951 114.2 130.652 113.8 129.656 113.7C124.875 113.2 124.676 113.3 123.979 118C121.588 133 120.792 148.2 120.194 163.4C119.995 167.8 119.895 172.2 119.596 176.6C119.298 182.8 115.015 186.4 108.64 186.1C103.859 185.8 100.174 181.2 100.373 175.7C100.971 162.8 101.469 149.8 102.265 136.9C102.664 130.7 103.759 124.5 104.556 118.4C104.656 117.9 104.457 117.2 105.054 116.8C107.246 115.2 108.441 113 108.64 110.3C108.74 109.2 109.437 109.4 110.034 109.4C121.688 109.4 133.342 109.4 145.095 109.4C146.191 109.4 146.489 109.7 146.589 110.8C146.788 113 147.685 115 149.577 116.3C150.872 117.2 150.673 118.5 150.872 119.6C152.665 132 153.661 144.5 153.86 155.6Z" fill="#593A2D"/>
<path d="M43.4 82.6999C44.4956 80.8999 45.9897 80.4 47.7825 81C49.675 81.6 50.0734 83.2 50.0734 85C50.0734 92.3 50.173 99.6 49.9738 106.9C49.9738 109 50.5714 109.3 52.4639 109.3C64.7151 109.2 76.9663 109.3 89.2175 109.2C91.5084 109.2 93.1021 109.4 92.9029 112.2C92.9029 112.6 93.1021 113 93.3013 113.4C92.4049 113.9 91.5084 113.7 90.7116 113.7C77.8627 113.7 65.0139 113.7 52.165 113.7C50.4718 113.7 49.9738 114 49.9738 115.8C50.0734 123.2 49.9738 130.6 50.0734 138C50.0734 139.8 49.7746 141.4 47.8821 142C46.0892 142.5 44.4956 142.2 43.4996 140.4C41.0095 142.8 40.4119 142.9 37.3242 140.9C36.4277 140.3 36.3281 141 36.0293 141.3C34.7345 142.4 33.34 142.5 31.846 141.8C30.4515 141.2 30.1527 139.9 30.1527 138.5C30.1527 133.8 30.0531 129 30.1527 124.3C30.2523 122.5 29.5551 122.1 27.9614 122.2C24.7741 122.3 24.7741 122.2 24.7741 118.9C24.7741 113.8 24.7741 113.8 19.6943 113.8C14.017 113.8 8.23994 113.7 2.56254 113.9C0.570476 114 0.769695 112.9 0.769695 111.6C0.769695 110.2 0.769719 109.3 2.66218 109.4C9.33561 109.5 16.1086 109.4 22.782 109.5C24.3757 109.5 25.1725 109.2 24.8737 107.5C24.7741 106.9 24.8737 106.3 24.8737 105.8C24.8737 104.4 24.4753 102.7 25.073 101.6C25.7702 100.3 27.6626 101.1 28.9575 101.1C30.4515 101 30.2523 100.2 30.2523 99.3C30.2523 94.6 30.2523 89.7999 30.2523 85.0999C30.2523 83.4999 30.4515 82.1 32.1448 81.4C33.6388 80.8 35.1329 80.9999 36.2285 82.1999C36.7265 82.7999 36.9258 82.7 37.5234 82.3C39.8143 80.2 40.9099 80.3999 43.4 82.6999Z" fill="#593A2D"/>
<path d="M161.928 113.8C163.024 109.4 163.024 109.4 167.406 109.4C179.06 109.4 190.714 109.3 202.467 109.5C204.957 109.5 205.355 108.8 205.355 106.5C205.156 99.4 205.355 92.1999 205.256 85.0999C205.256 83.2999 205.754 81.6999 207.646 81.1999C209.439 80.6999 210.933 81.2 211.929 82.9C214.618 80.5 215.316 80.4 218.105 82.3C218.901 82.9 219.001 82.4 219.399 82C220.595 80.9 221.989 80.7 223.483 81.4C224.977 82.1 225.276 83.4 225.276 84.9C225.276 89.6 225.376 94.2 225.276 98.9C225.276 100.7 225.774 101.4 227.467 101.1C229.957 100.7 230.854 101.5 230.754 104.2C230.555 109.5 230.655 109.5 236.133 109.5C241.711 109.5 247.189 109.6 252.767 109.5C254.759 109.4 254.759 110.4 254.858 111.9C254.858 113.4 254.659 114.1 252.866 114C246.193 113.9 239.42 114 232.746 113.9C231.053 113.9 230.555 114.4 230.754 116C230.854 116.7 230.754 117.3 230.754 118C230.754 119.4 231.153 121.1 230.455 122.1C229.758 123.1 227.965 122.4 226.67 122.4C225.176 122.4 225.376 123.3 225.376 124.2C225.376 128.8 225.376 133.3 225.376 137.9C225.376 139.5 225.475 141.2 223.782 142C222.188 142.8 220.595 142.7 219.3 141.2C218.802 140.6 218.503 140.7 218.204 141.2C218.105 141.3 218.005 141.5 217.905 141.6C215.714 143.1 213.921 142.5 212.228 140.7C210.734 142.4 208.941 143.1 206.949 141.9C205.555 141.1 205.555 139.6 205.555 138.1C205.555 130.9 205.455 123.6 205.654 116.4C205.654 114.2 205.056 113.9 203.064 113.9C190.415 114 177.765 113.9 165.016 113.9C163.821 113.8 162.924 113.8 161.928 113.8Z" fill="#593A2D"/>
<path d="M145.195 17.7C145.195 27.4 137.326 35.3 127.764 35.3C118.003 35.3 110.134 27.4 110.134 17.6C110.134 7.89998 118.003 0 127.565 0C137.326 0 145.195 7.89995 145.195 17.7Z" fill="#593A2D"/>
</svg>
