<svg width="176" height="170" viewBox="0 0 176 170" fill="none" xmlns="http://www.w3.org/2000/svg">
<path d="M104.404 57.601C104.404 58.001 104.404 58.3011 104.404 58.7011C104.404 67.5011 104.504 76.201 104.404 85.001C104.404 87.201 105.102 89.2011 105.601 91.2011C110.984 113.201 116.368 135.301 121.751 157.301C123.147 163.101 119.658 168.601 113.975 169.601C109.09 170.501 104.005 167.301 102.809 162.401C97.625 141.501 92.5405 120.501 87.456 99.601C87.456 99.401 87.3564 99.201 87.3564 99.001C87.3564 98.901 87.2567 98.8011 87.157 98.7011C86.9576 98.7011 86.9576 98.801 86.8579 98.901C86.7582 99.101 86.7582 99.301 86.6585 99.601C81.574 120.501 76.3899 141.401 71.3054 162.301C70.0094 167.401 64.9249 170.501 59.6411 169.501C54.6563 168.501 51.0673 163.301 52.1639 158.201C53.3603 152.701 54.756 147.201 56.1517 141.701C60.4386 124.201 64.6258 106.701 69.1121 89.3011C69.81 86.7011 69.9097 84.201 69.9097 81.501C69.9097 74.001 69.9097 66.601 69.9097 59.101C69.9097 58.801 69.9097 58.501 69.9097 58.101C69.4112 58.001 69.2118 58.401 68.9127 58.501C64.4264 61.501 59.9401 64.601 55.4538 67.601C51.6654 70.101 48.0764 69.5011 45.4843 65.7011C43.291 62.6011 41.0977 59.501 38.9044 56.401C34.9166 50.801 31.0285 45.101 27.0407 39.501C26.6419 38.901 26.4425 38.8011 25.8443 39.3011C24.7477 40.2011 23.4516 41.0011 22.2553 41.8011C21.7568 42.1011 21.7568 42.301 22.1556 42.701C23.3519 44.301 24.2492 46.001 24.2492 48.101C24.3489 53.301 19.5635 56.7011 14.7781 54.8011C14.3794 54.7011 14.18 54.5011 13.7812 54.8011C11.4882 56.8011 7.89915 56.201 6.10463 53.601C4.31012 51.101 2.61532 48.701 1.02019 46.101C-0.774324 43.301 -0.176176 40.201 2.61529 38.401C3.11377 38.101 3.0141 37.7011 3.0141 37.3011C3.0141 33.5011 5.70586 30.601 9.2949 30.401C12.1861 30.201 14.3793 31.401 16.0742 33.701C16.4729 34.301 16.772 35.2011 17.3702 35.3011C17.9684 35.3011 18.5665 34.601 19.1647 34.201C19.6632 33.801 20.1617 33.4011 20.7599 33.1011C22.1556 32.2011 23.2522 31.201 23.7507 29.401C24.7477 26.201 27.8382 24.701 31.1281 25.401C31.5269 25.501 31.826 25.501 32.1251 25.201C33.8199 24.001 35.4151 22.9011 37.1099 21.8011C37.6083 21.5011 37.6084 21.3011 37.2096 20.8011C35.9136 19.1011 35.116 17.3011 35.116 15.1011C35.2157 10.1011 39.8017 6.90103 44.3877 8.70103C44.9859 8.90103 45.3846 8.90102 45.8831 8.50102C48.0764 6.90102 51.3663 7.40103 53.0611 9.70103C54.9553 12.301 56.8496 15.001 58.5444 17.701C60.1395 20.301 59.3419 23.4011 56.7499 25.1011C56.4508 25.3011 56.3511 25.501 56.3511 25.901C56.3511 28.801 55.2545 31.301 52.463 32.401C49.4721 33.601 46.6806 33.101 44.2879 30.901C43.8892 30.501 43.4904 30.001 43.0916 29.501C42.0946 28.101 42.0946 28.1011 40.5992 29.1011C39.8016 29.7011 38.9044 30.3011 38.0072 30.8011C37.409 31.2011 37.3093 31.401 37.8078 32.001C42.1943 38.201 46.581 44.5011 50.9676 50.7011C51.466 51.4011 51.9645 52.0011 52.3633 52.8011C52.6624 53.4011 52.9614 53.401 53.5596 53.001C58.2453 49.801 63.0307 46.601 67.7164 43.401C69.5109 42.201 71.2057 41.001 73.0002 39.901C75.8914 38.101 78.982 36.801 82.571 36.901C85.9606 37.101 89.3503 36.901 92.6402 36.901C94.7338 36.901 96.7277 37.401 98.6219 38.401C98.7216 38.501 98.921 38.6011 99.0207 38.6011C101.015 38.7011 102.41 40.001 104.006 41.001C109.888 44.901 115.67 48.901 121.552 52.901C122.25 53.301 122.449 53.201 122.848 52.601C127.633 45.701 132.419 38.901 137.304 32.001C137.702 31.401 137.802 31.101 137.104 30.701C135.908 30.001 134.712 29.1011 133.615 28.3011C133.216 28.0011 133.017 28.001 132.718 28.501C132.518 28.901 132.219 29.201 132.02 29.501C130.026 32.301 127.434 33.301 124.144 32.701C121.153 32.201 118.96 29.501 118.86 26.401C118.86 25.601 118.661 25.1011 117.963 24.6011C115.77 23.2011 115.171 20.0011 116.667 17.6011C118.362 14.8011 120.256 12.101 122.25 9.50102C124.144 7.00102 127.633 6.70106 129.727 8.60106C130.026 8.90106 130.225 8.80103 130.624 8.70103C133.715 7.60103 136.506 8.10107 138.5 10.3011C140.494 12.4011 140.893 15.8011 139.497 18.6011C139.298 19.0011 139.098 19.301 138.899 19.701C137.902 21.301 137.802 21.301 139.397 22.401C140.095 22.901 140.893 23.401 141.491 23.901C142.687 24.801 143.884 25.401 145.578 25.201C148.669 24.801 151.461 27.201 152.059 30.401C152.158 31.001 152.457 31.4011 152.956 31.8011C154.451 32.8011 155.947 33.801 157.442 34.901C158.04 35.301 158.24 35.201 158.639 34.701C159.835 32.701 161.43 31.2011 163.723 30.6011C168.209 29.4011 172.297 32.501 172.396 37.201C172.396 37.901 172.596 38.2011 173.194 38.6011C175.487 40.0011 176.185 43.3011 174.59 45.8011C172.895 48.5011 171.001 51.2011 169.107 53.8011C167.412 56.1011 163.922 56.8011 161.629 54.7011C161.33 54.4011 161.131 54.501 160.732 54.601C157.542 55.801 154.651 55.101 152.757 52.901C150.862 50.601 150.563 47.201 152.059 44.401C152.158 44.201 152.358 44.001 152.457 43.701C152.757 43.201 153.454 42.6011 153.454 42.1011C153.355 41.5011 152.457 41.301 151.959 40.901C151.161 40.301 150.264 39.801 149.467 39.201C148.968 38.801 148.669 38.901 148.27 39.401C143.186 46.701 138.101 54.0011 132.917 61.3011C131.821 62.9011 130.724 64.401 129.627 66.001C127.733 68.501 124.742 69.701 122.25 68.901C121.552 68.701 121.053 68.401 120.455 68.001C115.47 64.701 110.585 61.301 105.601 58.001C105.202 57.901 104.903 57.601 104.404 57.601Z" fill="#593A2D"/>
<path d="M70.2087 17.301C70.2087 7.701 77.985 -0.0990491 87.6554 0.000950914C97.2262 0.000950914 104.903 7.80098 104.903 17.401C104.903 27.001 97.1265 34.801 87.5558 34.801C77.8853 34.801 70.2087 27.001 70.2087 17.301Z" fill="#593A2D"/>
</svg>
