<svg width="167" height="159" viewBox="0 0 167 159" fill="none" xmlns="http://www.w3.org/2000/svg">
<path d="M46.0113 128.4C47.6064 128.4 48.8028 128.4 49.8994 128.4C75.7205 128.4 101.641 128.4 127.462 128.4C136.335 128.4 140.223 132.4 140.223 141.3C140.223 143.4 140.223 145.4 140.223 147.5C140.223 149.4 139.525 151.9 143.015 151.3C143.812 151.2 143.912 151.9 144.012 152.6C144.809 157.4 144.211 158.1 139.426 158.1C136.734 158.1 134.042 158 131.351 158.1C129.955 158.1 129.257 157.7 129.556 156.3C129.855 154.1 128.061 150.7 132.647 151C133.644 151.1 133.245 149.8 133.245 149.1C133.245 146 133.245 142.8 133.245 139.7C133.245 136.8 131.849 135.3 128.858 135.4C126.266 135.4 123.674 135.4 121.082 135.4C85.69 135.4 50.3979 135.4 15.006 135.3C12.3143 135.3 11.417 135.9 11.6164 138.6C11.9155 142 11.7161 145.5 11.6164 149C11.6164 150.4 11.8158 151.1 13.5106 151.2C17.299 151.5 14.8066 154.5 15.3051 156.2C15.9033 158.2 14.4079 158.1 13.0121 158.1C10.5197 158.1 8.02736 158.1 5.53497 158.1C0.550205 158.1 0.251083 157.7 0.94895 152.6C1.04865 151.8 1.14835 151 2.14531 151.2C5.13617 151.7 4.73742 149.8 4.73742 147.9C4.73742 100.1 4.73742 52.3 4.73742 4.50005C4.73742 3.40005 4.03956 1.60006 5.2359 1.20006C7.03042 0.700058 9.12401 0.900058 11.0182 1.20006C12.0152 1.40006 11.5167 2.70005 11.5167 3.50005C11.5167 8.90005 11.5167 14.3001 11.5167 19.7001C11.5167 21.0001 11.2176 22.4001 13.3112 22.4001C14.6072 22.4001 14.3082 23.6001 14.3082 24.4001C14.3082 26.9001 14.4078 29.4001 14.3082 31.9001C14.2085 33.3001 14.7069 33.9001 16.1027 33.7001C18.3957 33.4001 21.0874 34.8001 22.7823 31.9001C23.181 31.3001 23.6795 31.6 24.178 32C24.6765 32.4 25.474 32.8 24.8758 33.5C23.8789 34.7 23.3804 36.5001 21.3865 36.4001C20.888 36.4001 20.2899 36.4001 19.7914 36.4001C17.0996 36.6001 13.71 35.2 12.0152 37C10.42 38.6 11.6164 42 11.5167 44.5C11.5167 71.3 11.5167 98.1001 11.417 124.9C11.417 127.9 12.2146 128.5 15.006 128.4C21.6856 128.2 28.3652 128.3 35.0448 128.4C36.939 128.4 38.1353 128 39.0326 126.1C42.3225 119.5 45.7122 113 49.2015 106.6C50.1985 104.8 49.9991 103.9 48.2046 102.8C40.2289 97.9 32.353 92.8 24.3774 87.8C23.9786 87.6 23.6795 87.4 23.2807 87.1C19.9908 85 18.9939 82.1 20.6887 79.6C22.3835 77.1 25.0752 76.8 28.3652 78.8C34.2472 82.5 40.229 86.3 46.111 90C51.4945 93.4 56.878 96.8001 62.2616 100.2C64.8537 101.8 67.6452 103.2 68.8415 106.5C69.6391 108.6 71.9321 109.9 74.1254 109.6C77.1162 109.2 79.0105 110.7 81.104 112C82.2007 112.7 83.2973 113.4 84.394 114.1C88.5812 116.7 88.3818 121.2 84.0949 123.8C82.5995 124.7 81.7022 123.9 80.6056 123.2C73.1284 118.5 65.6512 113.8 58.2738 109C56.7784 108 56.1802 107.9 55.2829 109.7C52.4915 116 49.3012 121.9 46.0113 128.4Z" fill="#593A2D"/>
<path d="M79.6086 108.3C81.8019 106.1 82.101 103.2 82.101 100.1C82.0013 95.1 82.101 90.2 82.101 84.5C83.6962 85.9 84.8925 86.9 86.0888 88C91.273 92.6 96.7563 96.7 103.436 99C104.732 99.5 106.028 99.8 107.523 99.9C118.889 100.4 130.354 101 141.719 101.5C146.006 101.7 148.797 103.6 150.392 107.5C155.577 120.1 160.86 132.8 165.945 145.4C167.939 150.3 166.045 155.2 161.658 157.1C157.072 159.1 152.187 157 150.093 152C145.707 141.5 141.42 130.9 137.033 120.3C135.039 115.5 133.344 114.4 128.26 114.4C117.991 114.4 107.723 113.9 97.5538 114.6C90.4754 115.1 84.7928 112.9 79.6086 108.3Z" fill="#593A2D"/>
<path d="M98.4511 55.2001C98.5508 68.2001 88.1825 78.8001 75.3218 78.9001C61.9626 79.0001 51.3949 68.5 51.3949 55.3C51.3949 42.4 61.8629 31.8001 74.7236 31.7001C87.7837 31.5001 98.4511 42.1 98.4511 55.2001Z" fill="#593A2D"/>
<path d="M41.1263 52.9001C42.4223 52.8001 43.9177 53.2 45.3134 53.6C47.9055 54.3 49.5007 55.6 49.6004 58.6C49.7998 63.1 51.694 67.2001 54.4854 70.7001C55.4824 72.0001 55.5821 73.1 54.9839 74.5C52.3918 80 48.0052 83.1 42.0235 83.8C40.7275 84 39.7305 83.4001 38.7336 82.7001C35.2442 80.5001 31.8546 78.3001 28.3652 76.2001C26.9695 75.4001 26.471 74.1 26.0722 72.8C22.9817 63 30.4589 52.9001 41.1263 52.9001Z" fill="#593A2D"/>
<path d="M111.212 126.2C105.43 126.2 99.6474 126.2 93.7654 126.2C90.6748 126.2 89.8773 125.1 89.8773 121.3C89.8773 117.5 90.6748 116.5 93.7654 116.5C105.529 116.5 117.194 116.5 128.958 116.5C132.547 116.5 134.64 118.2 134.74 121.1C134.84 124.2 132.647 126.1 128.958 126.2C123.076 126.2 117.194 126.2 111.212 126.2Z" fill="#593A2D"/>
<path d="M69.4397 92.3001C69.4397 89.1001 69.5394 86.2001 69.4397 83.3001C69.34 81.4001 69.6391 80.2002 72.0318 80.7002C73.4275 81.0002 75.1224 81.1001 76.5181 80.8001C80.2068 79.9001 80.6056 81.6001 80.5059 84.8001C80.3065 90.5001 80.4062 96.2002 80.4062 101.9C80.4062 104.9 79.3095 107.2 76.219 108C73.3278 108.8 71.0348 107.4 69.6391 104.2C67.2464 98.8001 64.9534 93.3002 62.7601 87.9002C61.4641 84.7002 62.5607 81.7001 65.2525 80.5001C66.9473 79.7001 68.1437 79.6001 67.9443 82.1001C67.7449 84.2001 67.9443 86.4001 67.9443 88.6001C67.8446 89.9001 67.9443 91.2001 69.4397 92.3001Z" fill="#593A2D"/>
<path d="M64.4549 78.9001C59.7692 82.2001 60.0683 86.2 62.1619 90.6C63.458 93.4 64.6543 96.3001 65.8507 99.2001C55.9808 95.3001 52.5912 90.5001 55.0836 80.7001C56.3796 75.6001 58.1741 75.1001 62.5607 77.7001C63.1589 78.1001 63.6574 78.4001 64.4549 78.9001Z" fill="#593A2D"/>
<path d="M63.9565 55.3002C63.9565 49.1002 68.8416 44.2002 75.0227 44.2002C81.2038 44.2002 86.0889 49.1002 86.0889 55.3002C86.0889 61.4002 81.1041 66.4002 75.0227 66.4002C68.9413 66.5002 63.9565 61.4002 63.9565 55.3002Z" fill="#593A2D"/>
<path d="M80.6056 55.2001C80.6056 58.2001 78.2129 60.7001 75.222 60.8001C72.0318 60.9001 69.34 58.4001 69.34 55.3001C69.34 52.3001 71.7327 49.7001 74.7235 49.6001C77.9138 49.6001 80.6056 52.1001 80.6056 55.2001Z" fill="#593A2D"/>
</svg>
