<svg width="319" height="470" viewBox="0 0 319 470" fill="none" xmlns="http://www.w3.org/2000/svg">
<path d="M204.7 84.8L203.3 114.3L181.9 112.2L185.3 84.8H204.7Z" fill="#F0C899"/>
<g opacity="0.35">
<path d="M203.8 104.6L204.8 84.8H185.4L183.6 99.1001C189.6 100.9 203 104.4 203.8 104.6Z" fill="#E8A255"/>
</g>
<path d="M166.5 17.4999C166.5 17.4999 135.2 -21.1 112.7 25.7C112.7 25.7 102.3 47.1999 130.1 69.9999C130.1 69.9999 145.1 84.2999 131.3 96.9999C129.3 98.7999 122.3 106 115.4 100.9C113.6 99.5999 110.2 92.6999 116.4 90.5999C119.7 89.4999 120.5 92.9999 120.5 92.9999C120.5 92.9999 123.5 84.0999 113.2 84.8999C102.9 85.6999 97.8001 107.5 118.6 119.2C139.3 130.9 171.2 126.1 169.7 96.3999C168.2 66.5999 138.9 58.7999 138.1 41.4999C137.3 24.1999 144.5 13.8999 163.6 20.3999L166.5 17.4999Z" fill="#B46317"/>
<path d="M175.1 17.2001L164.9 9.6001L158 23.2001L168.7 28.6001L175.1 17.2001Z" fill="#CC6F1A"/>
<path d="M224.1 154.4L239.9 197.7C240.3 198.7 241.4 199.3 242.4 198.9L306.8 175.3L309.3 187C309.3 187 245.2 224.6 232.9 223.7C220.7 222.9 210.1 164.6 210.1 164.6L224.1 154.4Z" fill="#EDBA7F"/>
<path d="M165.9 292.4L150.3 341.3C150.3 341.3 84.1001 335.4 30.0001 349.3L26.6001 335.4C26.6001 335.4 77.7001 322.7 90.7001 314.7C103.8 306.7 121.5 310.5 125.3 320.8L136.6 276.9L165.9 292.4Z" fill="#EDBA7F"/>
<path d="M211.7 266.4L249.4 317.3C249.4 317.3 243 379.3 269.6 436.2C269.6 436.2 267.2 443.4 255.3 438.4C255.3 438.4 232.9 388.6 225.8 379.3C218.6 370 198 342.2 218.6 326.1L178.5 280.1L211.7 266.4Z" fill="#F0C899"/>
<path d="M244 26.5999C242.9 33.1999 239.7 56.4999 249.1 72.6999C249.8 73.8999 249.4 75.2999 248.2 75.8999C246.2 76.8999 243.1 78.3999 240.9 79.2999C239.2 79.9999 236.6 87.3999 237.9 95.7999C237.9 95.7999 239 106.4 219.5 100.6C203.2 95.6999 189.5 90.6999 186 87.3999C183.8 85.2999 180.1 80.3999 180.1 80.3999L182.5 29.9999C182.5 29.9999 179.2 -0.900059 242.5 24.0999C243.6 24.3999 244.2 25.4999 244 26.5999Z" fill="#F0C899"/>
<path d="M202.3 51.7001C202.3 51.7001 193.4 36.0001 186.7 47.6001C180.4 58.6001 193.6 61.7001 193.6 61.7001C193.6 61.7001 195 79.4001 182 82.7001C182 82.7001 133.7 43.9 175 12.7C218.3 -20.1 258.4 19.1 252.4 42.5L211.4 28.6001C211.4 28.6001 212.4 42.0001 202.3 51.7001Z" fill="#B46317"/>
<path d="M161.9 137.1L182.5 107.6L203.4 110.1C203.4 110.1 224.9 137.5 230.8 143C236.7 148.5 246.4 159 220.2 174.7L206 228.2L166.5 216.4C166.5 216.4 168.5 168.3 161.9 137.1Z" fill="#CC6F1A"/>
<path d="M309.8 198.7C310.7 198.3 311.7 196.4 312.3 195.7C313.3 194.4 314.4 193.1 315.4 191.7C322.2 182.5 307.7 170.1 307.7 170.1L301.1 174L304.4 178.8C303.1 180 293.6 184.5 294.7 185.9C294.7 185.9 302.7 195.7 303.4 196.6C303.9 197.2 304.7 198.6 305.3 198.9C305.5 199 305.8 199 306.1 199C307 199 307.9 199 308.8 199C309.2 198.9 309.5 198.9 309.8 198.7Z" fill="#F0C899"/>
<path d="M307.7 170C307.8 170.1 307.9 170.1 308 170.2C308.7 170.7 309.2 171.6 309.7 172.3C305.9 175.2 303.5 177 299.6 179.8C298 179.8 297 178.8 296.3 177.2C295.8 176.2 296.2 175 297.2 174.4C298.5 173.6 303 170.9 303.9 170.4C305 169.8 306.7 169.4 307.7 170Z" fill="#F0C899"/>
<path d="M176.6 283L166.2 297.2C166.2 297.2 143.8 286.8 129.2 280L141.9 252.2L176.6 283Z" fill="#9B5714"/>
<path d="M210.2 223.6C210.2 223.6 190.6 245.8 218.1 269L176.6 294.8C176.6 294.8 93.4003 250 166.5 216.4L210.2 223.6Z" fill="#E4892F"/>
<path d="M34.2003 329.1V353.1C34.2003 353.1 29.7003 386.5 13.1003 390.2L3.80029 386L13.1003 326.1L34.2003 329.1Z" fill="#F1CB9E"/>
<path d="M13.1002 326.1V390.2H6.40017C4.10017 390.2 2.20018 388.3 2.10018 386L0.500177 330.5C0.400177 328.1 2.40016 326.1 4.80016 326.1H13.1002Z" fill="#CE701A"/>
<path d="M252.7 437.2L276.3 432.5C276.3 432.5 309 430.9 316.8 446L314.5 455.9L254.1 459.2L252.7 437.2Z" fill="#F1CB9E"/>
<path d="M253.9 458.4L316.8 446L318.1 452.5C318.6 454.8 317.1 457 314.8 457.5L260.6 469.8C258.2 470.3 255.9 468.8 255.4 466.4L253.9 458.4Z" fill="#CE701A"/>
<path d="M233 244.5C236.7 239.2 244.8 227.6 245.3 226.9C246.9 224.5 241.9 221.2 240.9 223.7C240.2 224.4 240 225.2 238.9 225.5C238 225.7 237 225.6 236.1 225.3C234.8 224.9 233.6 224.4 232.5 223.7C234.8 224 237.1 224.4 239.3 224.6C240 224.8 240.7 222.1 238.7 220.7C237.7 219.9 236.3 219.4 235.1 218.9C218.6 212.3 216.4 221.2 216.4 221.2L144.7 186.9C144 186.5 143.8 185.6 144.4 185C147.1 182.5 154.3 175.7 173.1 157.9C207.7 125 187 105.6 173.1 114.4C159.2 123.3 121.2 188 121.2 188C114.1 199.8 213 233.6 213 233.6C215.1 234.8 227.6 244.2 228.2 244.4C230.2 245.4 231.5 245.6 233 244.5Z" fill="#F0C899"/>
<path d="M278.3 420.5C276.7 421.4 275.7 423.5 275.3 426.7C275 429.4 275.2 432.3 275.4 434.1C272.8 433.7 268.4 433.4 266.1 435C264.6 436.1 264.1 437.8 264.8 440C265.5 442.2 266.8 442.9 267.8 443.1C271 443.7 275.1 439.7 277 437.5C278.5 440.7 280.4 443 280.5 443.2L281.9 442.1C281.9 442.1 279.8 439.4 278.4 436.1C278.7 435.9 278.9 435.7 279.3 435.4C280.7 435.5 282.5 435.9 284 437.6L285.3 436.4C284 434.9 282.4 434.2 281 433.8C283.4 431.6 286.1 428.6 286.4 425.8C286.6 424.3 286.1 422.1 283 420.7C281.1 419.8 279.6 419.8 278.3 420.5ZM268.2 440.9C268 440.9 267.4 440.8 267 439.4C266.8 438.9 266.8 438.4 266.8 438.1C266.9 437.6 267.1 437.3 267.4 437C268.8 436 272.2 436.1 274.9 436.4C272.7 438.7 269.8 441.1 268.2 440.9ZM282 422.8C284 423.7 284.1 424.8 284.1 425.6C283.8 428.2 280.2 431.7 277.7 433.7C277.5 432 277.4 429.4 277.6 427.1C277.9 424.7 278.5 423.1 279.4 422.6C280 422.2 280.9 422.2 282 422.8Z" fill="#B46317"/>
<path d="M44.8 361.3C44.2 359.5 42.3 358.2 39.2 357.3C36.6 356.6 33.7 356.2 31.9 356.1C32.7 353.6 33.8 349.4 32.6 346.8C31.8 345.1 30.2 344.4 27.9 344.7C25.6 345 24.7 346.2 24.3 347.1C23.1 350.1 26.4 354.9 28.2 357.2C24.8 358.1 22.2 359.6 22 359.6L22.9 361.1C22.9 361.1 25.9 359.5 29.4 358.7C29.5 359 29.7 359.3 29.9 359.7C29.6 361.1 28.8 362.8 26.9 364L27.8 365.5C29.5 364.4 30.5 363 31.1 361.7C32.8 364.4 35.3 367.6 38.1 368.4C39.6 368.8 41.8 368.8 43.7 366C45 364.3 45.3 362.7 44.8 361.3ZM26.5 347.9C26.6 347.7 26.8 347.2 28.2 347C28.7 346.9 29.2 346.9 29.5 347.1C29.9 347.2 30.2 347.5 30.4 347.9C31.2 349.5 30.5 352.8 29.7 355.4C27.8 352.7 25.9 349.3 26.5 347.9ZM41.9 364.6C40.6 366.4 39.5 366.4 38.8 366.1C36.3 365.4 33.5 361.2 31.9 358.4C33.6 358.5 36.2 358.8 38.4 359.5C40.7 360.2 42.1 361.1 42.5 362.1C42.9 362.7 42.6 363.6 41.9 364.6Z" fill="#B46317"/>
<path d="M237.5 232.4L229.8 227.9L230.5 226.6L237.8 230.8L243.2 229.8L242.3 231.2L237.5 232.4Z" fill="#EAAB66"/>
<path d="M235.7 237.6L227.2 232.5L228 231.2L236 236L239.3 235.5L238.1 237.2L235.7 237.6Z" fill="#EAAB66"/>
<path d="M234.3 242.6H231.4L224.9 237.4L225.8 236.2L232 241L235.5 240.9L234.3 242.6Z" fill="#EAAB66"/>
<path d="M300.5 188.4L307 183.7L306.2 182.6L300.1 187L295.1 186.6L296.1 187.7L300.5 188.4Z" fill="#EAAB66"/>
<path d="M302.6 192.9L309.7 187.6L308.8 186.5L302.1 191.4L299.1 191.3L300.4 192.7L302.6 192.9Z" fill="#EAAB66"/>
<path d="M304.2 197.2L306.8 197L312.2 191.7L311.2 190.7L306.2 195.6L303 195.8L304.2 197.2Z" fill="#EAAB66"/>
</svg>
