<svg width="172" height="180" viewBox="0 0 172 180" fill="none" xmlns="http://www.w3.org/2000/svg">
<path d="M127 47.5C138.9 47.5 150.7 47.5 162.6 47.5C167.9 47.5 171.6 50.9 171.8 55.9C172 60.6 168.5 64.6 163.4 64.9C149.7 65.7 136 66.3 122.4 67C117.5 67.2 112.5 67.4999 107.6 67.6999C106.2 67.6999 105.6 68.2 105.1 69.6C101.6 80.3 97.9997 90.9 94.3997 101.5C93.5997 103.9 95.3997 103.5 96.4997 103.8C105.6 105.6 114.7 107.3 123.9 109.1C130.2 110.3 133.9 114.8 133.8 121.2C133.5 136.8 133.2 152.3 132.8 167.9C132.6 176.4 125.9 181.5 118.3 179.2C113.6 177.8 110.8 173.7 110.7 168.3C110.4 156.9 110 145.6 109.8 134.2C109.8 132.4 109.2 131.6 107.5 131.4C96.9997 130 86.5997 128.6 76.0997 127.1C72.5997 126.6 68.9997 126.2 65.4997 125.2C55.4997 122.5 50.7997 113.4 54.0997 102C56.4997 93.8 59.5997 85.9 62.4997 77.9C64.2997 72.8 65.9997 67.5999 68.1997 62.6999C72.4997 52.5999 80.4997 47.7 91.2997 47.6C103.1 47.4 115.1 47.5 127 47.5Z" fill="#593A2D"/>
<path d="M49.6999 117.2C53.9999 127.4 62.4999 130.5 72.9999 131.4C68.5999 135.2 64.4999 138.6 60.4999 142C46.9999 153.4 33.4999 164.8 20.0999 176.3C13.1999 182.2 3.89994 180.1 1.39994 171.8C0.0999431 167.5 1.29992 163.8 4.49992 160.7C13.5999 151.9 22.6999 143.2 31.7999 134.4C37.6999 128.7 43.5999 123 49.6999 117.2Z" fill="#593A2D"/>
<path d="M85.7002 21.3001C85.7002 9.70008 95.0002 0.20001 106.6 0.10001C118 9.5155e-06 127.7 9.70008 127.6 21.3001C127.6 32.9001 118.1 42.3001 106.5 42.3001C95.1002 42.3001 85.7002 32.8001 85.7002 21.3001Z" fill="#593A2D"/>
</svg>
