<svg width="182" height="178" viewBox="0 0 182 178" fill="none" xmlns="http://www.w3.org/2000/svg">
<path d="M46.0997 55.5C38.2311 55.7 30.3624 55.8 22.5933 56.3C21.7965 56.3 21.1989 56.6 20.7009 57.3C19.2068 59.1 17.3144 59.9 15.0235 59.3C13.8282 59 13.4298 59.5 13.0314 60.4C11.1389 64.8 10.5413 69.4 10.2425 74.1C9.9437 80 10.1429 85.9 10.9397 91.8C11.0393 92.6 11.4377 93.6 10.6409 94.1C9.74448 94.7 9.04727 93.8 8.25044 93.3C7.35401 92.7 6.65678 91.2 5.66074 91.4C4.96352 91.5 4.46552 93 3.8679 93.9C3.46948 94.5 2.97146 95.3 2.07503 95.1C0.979393 94.8 0.87978 93.7 0.680573 92.8C0.0829528 88.9 0.182568 85 0.381775 81.1C0.580982 74.7 1.4774 68.4 4.16669 62.4C4.4655 61.7 4.86392 61 5.16273 60.3C6.35797 58 8.44964 56.2 9.64488 54C10.8401 51.9 11.3381 49.3 12.5334 47.1C13.5294 45.2 15.2227 44.2 17.2147 44C26.9759 43 36.8366 42 46.5978 41.1C55.4625 40.2 64.3272 39.1 73.1919 38.9C88.1324 38.5 103.172 38.2 118.113 39.5C132.356 40.7 146.699 42.2 160.942 43.6C162.138 43.7 163.333 43.8 164.429 44C166.719 44.3 168.413 45.4 169.409 47.5C170.305 49.4 171.6 51.2 171.6 53.4C171.6 53.8 171.899 54 172.198 54.3C177.377 59.5 179.668 66.1 180.764 73.2C181.66 79.4 181.859 85.7 181.262 92C181.262 92.2 181.262 92.5 181.162 92.7C180.863 93.6 180.963 94.7 179.768 95C178.572 95.3 178.174 94.2 177.676 93.4C176.182 91.1 176.182 91.1 174.09 92.9C173.692 93.2 173.393 93.5 172.994 93.8C172.496 94.2 171.899 94.4 171.401 94.1C170.704 93.7 170.903 93.1 171.002 92.5C171.799 86.4 172.098 80.3 171.799 74.2C171.5 69.5 170.903 64.9 169.11 60.5C168.612 59.4 168.214 58.9 166.919 59.3C164.827 59.8 162.935 59 161.54 57.4C160.942 56.7 160.345 56.3 159.349 56.3C145.006 55.6 130.663 55.7 116.32 55.6C114.627 55.6 112.436 55 111.539 55.8C110.444 56.8 111.24 59 111.24 60.7C111.24 71 110.942 81.2 111.44 91.5C112.037 104 113.432 116.4 114.428 128.9C115.324 139.7 116.121 150.5 117.017 161.3C117.217 163.4 117.316 165.6 117.515 167.7C117.914 172.6 114.328 177.3 109.746 177.7C104.069 178.2 99.6864 174.6 99.1884 169.2C97.5947 149.5 96.0011 129.8 94.3078 110C94.1086 107.5 93.9094 105 93.8098 102.6C93.7102 101.6 93.511 101.2 92.3157 101.2C88.4312 101.2 88.5308 101.2 88.232 105C87.1363 118.8 85.9411 132.6 84.8455 146.5C84.2478 154.1 83.6502 161.7 82.953 169.4C82.5546 174.7 78.2717 178.1 72.6939 177.8C68.2117 177.5 64.3272 172.9 64.7256 168.1C65.7216 155.1 66.8173 142.1 67.8133 129.1C68.8093 116.3 70.2038 103.5 70.8014 90.7C71.2994 79.4 70.901 68.1 71.0006 56.7C71.0006 55.5 70.403 55.6 69.6062 55.6C61.7375 55.5 53.9684 55.5 46.0997 55.5Z" fill="#593A2D"/>
<path d="M91.021 34.4C81.7579 34.4 74.2876 27 74.2876 17.6C74.2876 8.39998 81.7579 0.900024 90.9214 0.900024C100.184 0.900024 107.655 8.40001 107.655 17.7C107.655 26.9 100.284 34.4 91.021 34.4Z" fill="#593A2D"/>
<path d="M159.747 54.5C113.93 53.7 68.2116 53.7 22.2944 54.5C22.5932 53.1 23.1909 52.4 24.9837 52.3C45.8008 52 66.618 51.4 87.5347 51.4C109.746 51.4 131.958 52 154.07 52.4C155.066 52.4 156.062 52.5 157.058 52.4C158.751 52.2 159.448 53.1 159.747 54.5Z" fill="#593A2D"/>
<path d="M2.0752 92.9C1.47757 79.8 1.07916 66.7 10.3423 55.6C10.9399 56.4 11.5375 57.1 12.0355 57.8C12.3343 58.2 12.3343 58.5 12.1351 58.9C8.54941 66.2 8.54941 74.1 8.64901 82C8.74862 85.4 9.04744 88.7 9.54545 92.4C8.44981 91.4 7.65299 90.7 6.85616 90C5.86013 89 5.0633 89.3 4.36608 90.3C3.76846 91.2 3.17082 92.1 2.67281 93.1C2.4736 93 2.2744 92.9 2.0752 92.9Z" fill="#593A2D"/>
<path d="M179.469 93.1C178.971 92.2 178.373 91.3 177.875 90.5C177.078 89.3 176.281 89 175.186 90.1C174.488 90.8 173.592 91.5 172.596 92.4C173.293 86.1 173.692 80.1 173.293 74.1C172.994 68.9 172.397 63.7 169.907 59C169.608 58.5 169.707 58.2 170.106 57.8C170.703 57.2 171.102 56.5 171.7 55.8C175.982 60.3 178.074 65.8 179.269 71.8C180.564 78.5 180.564 85.3 180.066 92.2C179.967 92.3 179.967 92.7 179.469 93.1Z" fill="#593A2D"/>
</svg>
