<svg width="249" height="139" viewBox="0 0 249 139" fill="none" xmlns="http://www.w3.org/2000/svg">
<path d="M211.712 71.6999C192.289 71.1999 176.651 54.8999 177.149 35.6999C177.647 16.1999 193.783 0.500005 212.907 0.800005C232.429 1.10001 248.465 17.8999 247.768 37.1999C247.071 56.8999 231.035 72.1999 211.712 71.6999Z" fill="#593A2D"/>
<path d="M124.26 138.2C84.9163 138.2 45.6726 138.1 6.32921 138.3C2.04626 138.3 -0.0454077 137.6 0.651816 132.9C1.05023 130.4 1.14983 127.6 0.651816 125.1C-1.93787 111.6 3.24151 103.6 16.19 98.7C27.2459 94.5 37.7043 88.4 47.7642 82.1C75.6532 64.7 107.626 58.5 138.204 48.6C145.176 46.3 152.348 44.7 159.22 42.2C163.105 40.8 164.3 41.4 164.898 45.6C168.683 72 172.866 98.4001 176.551 124.8C177.149 128.9 178.544 129.6 182.129 129.5C202.15 129.4 222.269 129.5 242.29 129.4C245.776 129.4 248.166 129.3 248.166 134.2C248.166 139.4 244.979 138.2 242.29 138.2C202.847 138.2 163.503 138.2 124.26 138.2ZM96.9683 129.4C117.785 129.4 138.603 129.4 159.42 129.4C162.607 129.4 164.101 129.2 163.005 125.2C159.021 110.2 155.336 95.2 151.75 80.1C151.053 77.3 150.356 76 147.069 76.9C142.686 78.1 138.105 78.7 133.722 79.6C117.188 82.9 100.056 84.5 84.4183 90.1C61.3103 98.3 39.2979 109.4 16.7876 119.2C12.5046 121 14.0983 124.5 14.1979 127.4C14.2975 130.6 17.0864 129.4 18.8792 129.4C36.7083 129.5 54.6369 129.4 72.4659 129.5C74.6572 129.5 76.6492 129.5 78.5417 127.8C85.5139 121.6 92.5858 115.5 99.8568 109.6C102.447 107.5 101.55 106.3 99.6576 104.5C96.2711 101.3 92.9842 98.0001 89.5977 94.8001C100.454 88.9001 109.618 88.6 116.69 99.5C117.785 101.1 119.279 102.5 120.873 103.7C124.06 106.2 123.961 107.8 120.574 110.3C112.407 116.1 104.439 122.3 96.4703 128.4C96.5699 128.7 96.7691 129 96.9683 129.4Z" fill="#593A2D"/>
<path d="M132.826 105.9C132.328 103.4 134.22 102.4 137.706 102.6C139.4 102.7 141.89 103.7 142.189 100.4C142.288 99.2 143.185 99.6 143.882 100.1C144.579 100.8 145.276 101.5 145.973 102.2C150.655 106.8 149.758 111.7 143.683 114.4C143.384 114.6 142.985 114.7 142.687 114.8C141.491 109 135.615 113.8 133.423 110.7C132.726 109.9 133.025 108.4 132.826 105.9Z" fill="#593A2D"/>
</svg>
