<svg width="103" height="190" viewBox="0 0 103 190" fill="none" xmlns="http://www.w3.org/2000/svg">
<path d="M25.7949 88.9C32.8668 92.4 39.7394 95.7 46.612 99.1C50.7954 101.2 52.1898 104 50.5961 107.2C49.0025 110.4 46.0144 111 41.7315 108.9C33.564 104.9 25.4961 100.9 17.3286 96.9C12.4481 94.5 11.6512 92.1001 14.2409 87.3001C20.3167 75.9001 26.2929 64.4 32.5679 53C40.4366 38.7 55.4767 38.4 63.7438 52.5C73.9034 70 78.3855 88.9 76.9911 109.2C76.8915 110.7 77.2899 111.9 77.8875 113.1C80.3776 118.6 82.8677 124.2 85.4573 129.6C86.2542 131.4 86.7522 132.5 84.0629 132.9C80.278 133.5 76.493 134.4 72.8077 135.5C70.716 136.1 69.8196 135.5 69.1224 133.7C68.226 131.3 66.9311 129 65.9351 126.5C64.7399 123.4 63.5446 124.1 62.2498 126.4C60.0585 130.2 57.7676 134 55.5763 137.8C54.7795 139.3 53.8831 139.9 52.4886 138.5C52.1898 138.2 51.7914 138 51.4926 137.8C48.0065 135.4 42.6279 133.6 41.5323 130.4C40.6358 127.8 44.8191 123.3 47.11 119.9C48.8033 117.3 48.9029 115.3 46.4128 113C47.608 112.5 48.5045 112.3 49.4009 111.8C52.2894 110.3 53.9827 107.9 54.0823 104.5C54.1819 101 52.4886 98.1 49.3013 97C45.118 95.5 43.6239 92.8 43.0263 88.6C42.0303 82.2 39.7394 76.1 36.1536 69.9C32.3687 76.6 29.1814 82.6 25.7949 88.9Z" fill="#593A2D"/>
<path d="M102.888 180.8C102.988 185.2 100.199 188.7 96.3142 189.5C92.2304 190.3 88.3459 188.1 86.9514 183.9C83.7641 174.1 80.6764 164.2 77.6883 154.4C76.2939 149.9 74.3018 145.7 72.3097 141.5C71.3137 139.4 71.7121 138.6 74.003 138.3C75.8954 138 77.7879 137.5 79.5808 137.1C87.6487 135.2 88.1467 135 90.836 142.7C95.1189 154.7 98.7047 167 102.49 179.2C102.788 179.7 102.788 180.4 102.888 180.8Z" fill="#593A2D"/>
<path d="M27.7871 187.8C21.7112 187.7 17.4282 182.3 19.5199 177.1C25.2969 163.1 29.6795 148.5 37.6478 135.5C38.7434 133.7 39.5402 133.4 41.3331 134.7C44.4208 137 47.6081 139.1 50.895 141.2C52.0902 142 52.7875 142.6 51.7915 144.1C44.4208 155.9 40.7355 169.3 35.1577 181.9C33.6636 185.5 31.1736 187.6 27.7871 187.8Z" fill="#593A2D"/>
<path d="M16.3327 54.4999C7.5676 54.4999 0.694911 47.7 0.595307 38.9C0.495704 30.1 7.36834 23.0999 16.0338 22.9999C24.8985 22.8999 32.07 30 32.07 38.9C32.07 47.5 25.0978 54.4999 16.3327 54.4999Z" fill="#593A2D"/>
<path d="M62.1505 45.9C58.5648 42.4 54.979 40.5 50.7957 40C49.6004 39.8 48.9032 39.2 48.3056 38.1C41.4329 24.6 29.9785 16.8001 16.2333 11.8001C15.3368 11.5001 14.4404 11.2 13.6436 10.7C11.2531 9.19997 10.3567 7.00006 11.2531 4.30006C12.1495 1.70006 14.1416 0.299991 17.0301 0.599991C35.1579 1.99999 60.1584 26.9 62.1505 45.9Z" fill="#593A2D"/>
<path d="M0.794434 92.9001C0.794434 92.3001 0.794446 91.6001 0.993653 91.0001C1.59127 89.3001 1.39208 86.2 3.68296 86.7C6.57146 87.3 3.98174 89.6 3.78254 91.1C3.28452 95.5 4.57938 98.9 7.96589 101.6C8.86232 102.3 11.0536 102.8 9.65916 104.5C8.46392 106 7.16908 104.5 6.17304 103.7C2.58732 101 0.794434 97.5001 0.794434 92.9001Z" fill="#593A2D"/>
<path d="M5.17725 92.6C5.37645 91.8 5.57567 90.7 5.87448 89.7C6.17329 88.7 6.67131 87.8 7.86655 88.2C9.06179 88.6 8.86254 89.5 8.56373 90.6C7.56769 93.7 8.36452 96.3 11.0538 98.2C11.8506 98.8 12.8467 99.4001 11.9503 100.5C11.0538 101.6 9.95817 101 9.06174 100.3C6.57166 98.5001 5.47606 95.9 5.17725 92.6Z" fill="#593A2D"/>
</svg>
