<svg width="196" height="163" viewBox="0 0 196 163" fill="none" xmlns="http://www.w3.org/2000/svg">
<path d="M141.485 65.8C141.485 58.8 141.585 51.8 141.485 44.8C141.386 37 133.816 32.1 127.143 35.5C123.358 37.4 121.664 40.6 121.565 44.8C121.565 49.7 121.565 54.6 121.565 59.5C121.565 64.8 121.565 70.1001 121.565 75.4001C121.565 76.5 121.266 77.3 120.569 78.1C105.23 96.7 89.9904 115.3 74.7511 133.9C72.5598 136.6 69.9702 138.6 66.6833 140C50.4479 147 34.2125 154.2 17.9772 161.2C10.3077 164.5 2.53866 160.4 0.945008 152.4C-0.15063 146.9 2.93709 141.5 8.61448 139C17.0808 135.3 25.5471 131.6 34.0134 127.9C40.9856 124.8 48.0574 121.8 55.0297 118.7C56.0257 118.3 56.7229 117.7 57.4202 116.9C65.3884 107.2 73.2571 97.5 81.2253 87.9C82.0222 86.9 82.321 86.2001 81.823 84.9001C80.0301 79.6001 81.2254 74.4 83.6158 69.6C92.2813 52.6 104.433 38.6 120.369 28.2C127.939 23.2 136.107 22.1 144.474 26.6C149.653 29.5 151.844 33.9001 151.346 39.9001C150.35 51.0001 149.653 62.1 148.756 73.2C148.657 74.5 149.354 74.7 150.151 75C155.43 76.9 160.111 79.7 163.697 84.2C165.789 86.8 167.083 89.9 167.681 93.2C168.378 97.2 165.888 101 161.904 102C157.92 103 153.737 100.8 152.84 96.8C152.043 93.5 149.952 91.8 147.262 90.5C146.366 90.1 145.47 89.8 144.673 89.4C141.485 88.3 141.485 88.3 141.485 85C141.485 78.7 141.485 72.3 141.485 65.8Z" fill="#593A2D"/>
<path d="M123.855 85.9C123.855 72.3 123.855 58.7 123.855 45C123.855 41 125.947 38 129.334 37C134.314 35.5 139.194 39.1 139.294 44.5C139.394 48.5 139.294 52.5 139.294 56.5C139.294 80 139.294 103.5 139.294 127C139.294 131.2 137.302 134.2 133.816 135.2C128.636 136.8 123.855 133 123.855 127.2C123.855 117 123.855 106.7 123.855 96.5C123.855 92.9 123.855 89.4 123.855 85.9Z" fill="#593A2D"/>
<path d="M173.857 43.6C161.904 43.6 152.243 33.8 152.243 21.9C152.243 9.90004 162.103 -5.84871e-06 173.956 0.0999942C185.909 0.0999942 195.67 9.99999 195.57 22.1C195.57 34 185.909 43.6 173.857 43.6Z" fill="#593A2D"/>
<path d="M141.485 90.9C143.677 91.5 145.469 92.1 147.262 93C149.055 93.9 150.25 95.2 150.649 97.2C151.346 100.2 153.239 102.2 156.027 103.5C156.824 103.9 157.123 104.2 157.223 105.1C157.521 120 158.019 134.9 158.318 149.8C158.418 156 154.434 160.9 148.557 162.1C146.067 162.6 143.577 162.2 140.888 160.9C142.979 158.6 144.573 156.1 145.171 153C145.569 150.9 145.669 148.8 144.971 146.8C144.473 145.3 144.772 144.2 145.37 142.9C148.159 137 147.362 130.2 142.183 126.8C141.784 126.5 141.685 126.2 141.685 125.7C141.485 114.3 141.485 102.7 141.485 90.9Z" fill="#593A2D"/>
<path d="M121.664 128.9C121.764 129.2 121.764 129.4 121.864 129.5C122.461 131.4 123.158 133.2 121.963 135.2C121.465 136 121.764 137.2 121.963 138.2C122.262 139.2 122.461 140.6 123.158 141.1C124.055 141.8 124.752 140.4 125.549 140C129.931 137.9 134.115 138 138.099 140.8C139.195 141.6 139.493 141.3 139.892 140.3C140.689 138.2 141.286 136.2 140.191 134C139.991 133.5 139.991 133.1 140.191 132.6C140.589 131.6 140.987 130.6 141.485 129.5C144.175 131.8 144.872 134.7 144.474 138C144.175 140.1 143.478 142.1 142.382 143.8C141.884 144.5 141.884 145.1 142.183 145.9C143.976 150.7 143.278 155.1 139.792 158.8C136.406 162.4 132.222 163.4 127.641 162C122.76 160.5 120.071 157 119.274 151.9C118.975 149.9 119.274 147.9 120.071 146.1C120.569 145.1 120.369 144.4 119.871 143.5C118.178 140.7 117.381 137.7 117.979 134.4C118.377 132.1 119.573 130.3 121.664 128.9Z" fill="#593A2D"/>
<path d="M121.665 80.4C121.665 88.9 121.665 96.8 121.665 104.7C121.665 105.3 121.864 106 120.669 105.6C115.788 103.7 110.808 101.9 105.628 99.9C110.907 93.4 116.087 87.1 121.665 80.4Z" fill="#593A2D"/>
<path d="M138.398 135.1C138.497 136.2 138.896 137.3 138.199 137.7C137.402 138.2 136.705 137 135.41 137.1C136.605 136.4 137.402 135.8 138.398 135.1Z" fill="#593A2D"/>
</svg>
