<svg width="122" height="181" viewBox="0 0 122 181" fill="none" xmlns="http://www.w3.org/2000/svg">
<path d="M41.6998 180.3C41.3998 179.7 40.7998 179.9 40.2998 179.7C32.7998 177.1 29.0998 168.9 32.4998 161.7C36.7998 152.5 41.0998 143.2 45.4998 134C45.7998 133.4 45.9998 132.7 46.3998 131.9C45.5998 131.9 44.9998 131.9 44.3998 131.9C36.9998 131.9 29.5998 131.9 22.0998 131.9C8.99981 131.9 -0.500203 121.8 0.399797 108.7C0.599797 106.4 1.2998 104.1 2.1998 102C8.3998 87.4 14.5998 72.8 20.7998 58.2C23.3998 52.1 27.9998 49 34.6998 49C59.7998 49 84.9998 49 110.1 49C115.6 49 119.9 52.1 121.1 57C122.7 63.4 117.7 69.6 110.7 69.7C106.2 69.8 101.7 69.7 97.1998 69.7C84.4998 69.7 71.6998 69.7 58.9998 69.7C57.9998 69.7 57.3998 69.8 56.9998 70.9C52.4998 81.8 47.8998 92.7 43.2998 103.6C43.2998 103.7 43.2998 103.8 43.1998 104.2C43.7998 104.2 44.3998 104.2 44.9998 104.2C51.4998 104.2 58.0998 104.2 64.5998 104.2C75.2998 104.2 81.8998 114.2 77.4998 123.9C70.3998 140 63.0998 156 55.8998 172.1C53.8998 176.5 50.4998 179.1 45.8998 180.2C44.4998 180.3 43.0998 180.3 41.6998 180.3Z" fill="#593A2D"/>
<path d="M54.7 0.599976C58.5 1.39998 62 2.59998 65.1 5.09998C72.3 10.8 74.9 20.7 71.4 29.3C67.9 37.7 59 43 50 42C40.7 41 33.2 33.9 31.8 24.8C30 13.3 37.4 3 48.8 1C49 1 49.2 0.800012 49.4 0.700012C51.1 0.600012 52.9 0.599976 54.7 0.599976Z" fill="#593A2D"/>
</svg>
