<svg width="244" height="150" viewBox="0 0 244 150" fill="none" xmlns="http://www.w3.org/2000/svg">
<path d="M149.9 59.7C153.4 65.6 155.8 71.7 156.5 78.4C156.8 80.9 156.7 83.4 156.4 85.9C156.3 86.9 155.8 87.5 155 87.9C133.3 101.4 109.8 101.1 88.4998 87.9C87.5998 87.3 87.2998 86.7 87.0998 85.6C85.9998 77.6 88.0998 70.3 91.7998 63.3C92.3998 62.1 93.0998 61 93.6998 59.7C90.4998 61.8 87.9999 64.6 85.3999 67.4C84.5999 68.3 83.8998 69.2 83.1998 70.1C81.1998 72.5 78.4999 73.5 75.8999 72.6C72.9999 71.6 71.3998 69.4 71.2998 66.4C71.0998 62.4 70.8998 58.4 70.7998 54.3C70.6998 50.9 70.7998 47.5 70.7998 44C75.1998 47.2 79.4998 47 83.4998 42.7C83.5998 43.8 83.6998 44.7 83.7998 45.6C84.6998 45.9 85.0998 45.1 85.5998 44.8C90.8998 40.9 96.6998 38.4 103.1 36.9C104.9 36.5 106 36.7 107 38.7C109.9 44.7 115.1 47.9 121.8 48C128.5 48 133.7 44.9 136.6 38.9C137.7 36.6 138.9 36.6 140.9 37C147.8 38.5 154 41.5 159.5 45.9C160.4 45.1 159.6 43.9 160.3 43C164.2 47 168.4 47.3 173.1 43.7C172.8 51.7 172.6 59.3 172.2 66.9C172 69.8 170.2 71.9 167.3 72.6C164.6 73.3 162.2 72.5 160.4 70.2C157.7 66.8 154.8 63.6 151.5 60.8C151 60.5 150.4 60.1 149.9 59.7Z" fill="#593A2D"/>
<path d="M174.8 41.2C175.4 37 175.4 37 179.2 37C184.1 37 189 36.9 193.9 37C195.6 37 196 36.5 196 34.9C195.9 28 196 21.2 196 14.3C196 12.7 195.9 11 197.7 10.2C199.3 9.50004 200.8 9.7 201.9 11.1C202.3 11.6 202.6 11.6 202.9 11C202.9 10.9 203 10.9 203.1 10.8C205.1 9.20001 206.8 9.50001 208.4 11.3C210 10.2 211.6 9.00005 213.7 10.4C214.9 11.2 215 12.4 215 13.8C215 18.1 215.1 22.5 215 26.8C215 28.4 215.2 29 217 28.9C220.1 28.8 220.1 28.9 220.1 32C220.1 36.9 220.1 36.9 225 36.9C230.4 36.9 235.9 37 241.3 36.8C243.2 36.7 243.1 37.7 243.1 38.9C243.1 40.1 243.3 41.1 241.4 41C235 40.8 228.6 41 222.2 40.9C220.6 40.9 219.8 41.2001 220.1 42.9001C220.2 43.4001 220.1 44 220.1 44.6C220.1 45.9 220.5 47.5 219.9 48.5C219.2 49.7 217.5 48.9 216.2 49C215 49 215 49.7 215 50.5C215 55 215 59.5 215 64C215 65.6 214.8 67.1 213.2 67.8C211.8 68.4 210.2 68.3 209.1 67C208.7 66.5 208.4 66.5 208.1 67C208 67.1 207.9 67.3001 207.8 67.4001C205.8 68.8001 204 68.6 202.5 66.6C201 68 199.3 68.9 197.3 67.7C196 66.9 196 65.6 196 64.3C196 57.3 195.9 50.3 196 43.2C196 41.4 195.5 41 193.8 41C187.5 41.3 181.2 41.2 174.8 41.2Z" fill="#593A2D"/>
<path d="M68.9 41.2C62.6 41.2 56.5 41.4 50.5 41.1C48 41 47.6 41.8 47.6 44.1C47.8 50.8 47.6 57.5 47.7 64.2C47.7 65.8 47.6 67.3 46 68C44.6 68.6 43 68.5 41.9 67.1C41.4 66.5 41.2 66.7 40.7 67.2C39.1 68.8 37.3 68.8 35.7 67.2C35.1 66.6 34.9 66.6 34.4 67.3C33.3 68.6 31.9 68.5 30.5 68C29.1 67.5 28.7 66.2 28.7 64.7C28.7 60.2 28.6 55.7 28.7 51.2C28.7 49.5 28.2 48.9 26.6 49.2C24.2 49.6 23.4 48.7 23.5 46.2C23.7 41.1 23.6 41.1 18.5 41.1C13.4 41.1 8.29998 41.1 3.09998 41.1C1.59998 41.1 0.5 41.4 0.5 39.1C0.5 37 1.4 36.9 3 36.9C9.1 37 15.1 36.8 21.2 37C23.3 37.1 23.9 36.4 23.6 34.5C23.5 34 23.6 33.4 23.6 32.8C23.6 29.1 23.6 29 27.3 28.9C28.6 28.9 28.7 28.3 28.7 27.3C28.7 22.8 28.7 18.3 28.7 13.8C28.7 12.2 28.9 10.7 30.6 10.1C32.1 9.49996 33.6 9.69999 34.6 11C35.2 11.9 35.4 11.2 35.7 10.9C37.4 9.30001 39.1 9.30001 40.7 10.9C41.4 11.6 41.6 11.4 42.1 10.8C43.2 9.59998 44.6 9.49996 46 10.1C47.6 10.7 47.8 12.1 47.8 13.6C47.8 20.3 47.8 27 47.8 33.7C47.8 36.9 47.8 36.9 50.9 36.9C55.9 36.9 60.8 37 65.8 36.9C67.8 36.8 68.9 37.2 68.7 39.4C68.5 40 68.7 40.5 68.9 41.2Z" fill="#593A2D"/>
<path d="M114.3 117.1C109 116.7 104.4 115.3 99.7 114.4C95.7 113.7 91.7 112.8 87.7 111.9C86.1 111.5 85.5 111.8 85.5 113.6C85.5 122.3 85.4 131.1 85.3 139.8C85.2 144.4 82.4 147.8 78 148.8C74.1 149.7 70 147.8 68.1 144.1C67.3 142.5 67 140.8 67 139.1C67.2 126.3 67.3 113.4 67.4 100.6C67.5 95 71.4 91.3 77 91.1C80.5 91 83.5 91.7 86.4 93.7C92.3 97.8 99.1 100.3 106 102.1C107.3 102.4 108 102.9 108.3 104.2C109.6 108.7 111.7 112.7 114.3 117.1Z" fill="#593A2D"/>
<path d="M129.3 117C132 112.4 134.1 108.1 135.4 103.3C135.6 102.4 136.3 102.4 137 102.2C145.3 100.1 153 96.6 160.1 91.9C166.1 87.9 175.9 92.9 176.1 100.1C176.4 113.3 176.5 126.6 176.5 139.8C176.5 145.1 172.4 149 167.4 149C162.4 149 158.4 145 158.3 139.8C158.1 131.1 158.1 122.5 158.1 113.8C158.1 111.8 157.6 111.5 155.7 111.9C147.9 113.6 140.2 115.1 132.4 116.7C131.5 117 130.6 116.9 129.3 117Z" fill="#593A2D"/>
<path d="M137 31.4C137 39.8 130.3 46.6 121.9 46.7C113.5 46.8 106.7 40 106.7 31.6C106.7 23.2 113.4 16.4 121.8 16.3C130.1 16.2 136.9 23.1 137 31.4Z" fill="#593A2D"/>
<path d="M138.5 29.5C136.1 20.1 129.9 14.7 121.7 14.8C115.6 14.9 107.3 18.5 105.2 29.2C101.7 27.6 99.2999 22.2 100.6 18.7C101 17.8 101.7 17.2 102.6 16.8C105.6 15.5 107.9 13.4 109.8 10.8C110.3 10.1 110.9 9.40003 111.6 8.90003C113.7 7.40003 115.4 6.10001 115.7 3.00001C115.9 0.300008 118.9 0.400008 121.1 0.500008C123.7 0.600008 127.6 -0.499992 128.1 3.00001C128.5 6.30001 130.7 7.20001 132.4 9.00001C134.1 10.7 135.5 12.5 137.2 14.2C137.9 14.9 138.8 15.5 139.7 16C143.5 18.1 144.3 20.4 142.7 24.5C141.8 26.6 140.6 28.3 138.5 29.5Z" fill="#593A2D"/>
<path d="M76.7002 33.1C76.9002 33.1 77.0002 33.1 77.2002 33.1C81.3002 33.2 83.2002 34.1 83.4002 36.4C83.8002 40.8 81.6002 44 77.9002 44.7C74.6002 45.3 71.3002 43.3 70.4002 40.2C68.7002 35 70.4002 33.1 76.7002 33.1Z" fill="#593A2D"/>
<path d="M160.2 37C160 35 161.1 34.1 162.8 33.6C164.7 33 166.7 33 168.7 33.1C173.3 33.4 174.5 35.1 173.5 39.5C172.8 42.5 170.3 44.6 167.3 44.7C164.5 44.8 161.6 42.9 160.8 40.2C160.4 39.3 160.3 38.1 160.2 37Z" fill="#593A2D"/>
<path d="M94.6999 37.1C91.1999 38.4 88.6999 41.9 84.4999 41.2C84.4999 41 84.3999 40.8 84.3999 40.7C85.0999 37.1 85.1999 37.1 88.9999 37.1C90.8999 37.1 92.7999 37.1 94.6999 37.1Z" fill="#593A2D"/>
<path d="M148.4 37.1C151.5 37.1 154.1 37.2 156.6 37.1C158.2 37 158.9 37.5 158.8 39.1C158.8 39.8 159 40.4 159.2 41.1C155.9 41.4 155.9 41.4 148.4 37.1Z" fill="#593A2D"/>
<path d="M121.7 91.9C120.8 91.9 119.6 91.7 119.7 90.5C119.8 89.3 121 89.3 121.9 89.3C122.8 89.3 123.9 89.5 123.9 90.5C123.9 91.7 122.8 91.9 121.7 91.9Z" fill="#593A2D"/>
</svg>
