<svg width="193" height="200" viewBox="0 0 193 200" fill="none" xmlns="http://www.w3.org/2000/svg">
<path d="M60.6206 120.1C54.246 134.8 41.1979 145.5 38.5086 161.8C38.0106 165 35.6202 167.8 34.2257 170.8C30.8392 178 26.357 185 30.4407 193.5C31.7356 196.2 31.138 199.1 27.3531 199.2C19.6836 199.6 12.0141 199.7 4.34469 199.8C3.24905 199.8 1.55574 200.1 1.05772 198.3C0.559706 196.3 1.755 194.8 3.34865 194.4C19.9824 190.2 23.9665 177.6 26.4566 162.4C28.5483 149.7 33.0304 137.3 35.8193 124.6C37.0146 119.3 36.6162 115.5 32.3332 112.3C27.4527 108.6 26.7555 104.8 31.2376 99.9C33.2297 97.7 33.7276 94.3999 33.4288 90.6999C32.2336 78.1999 33.628 65.5999 34.9229 53.1999C35.6201 45.8999 40.2019 44.1999 46.9749 44.6999C55.8396 45.3999 56.9353 43.3999 53.1504 35.0999C50.0627 28.2999 48.6682 21.3999 55.3416 16.0999C59.3257 12.8999 64.7043 13.1 68.29 16.8C72.9714 21.6 72.7722 28.5999 69.8837 33.6999C65.2024 41.8999 65.9992 45.1999 75.6607 46.9999C83.0314 48.3999 85.3223 55.2999 82.3342 61.1999C73.5691 77.9999 77.0552 94.6 80.0433 111.9C81.9358 123.3 84.127 135.5 77.4536 147C75.0631 151.1 80.4417 152.5 83.4298 154.5C95.183 162.7 104.247 173.1 107.036 187.7C107.633 190.6 108.53 194 104.645 195.4C102.155 196.3 99.1671 196.9 96.8762 195.4C93.7885 193.5 95.8802 190.7 96.4779 188.2C97.9719 182.5 95.681 178.7 90.8005 175.7C85.7207 172.6 81.2385 168.2 76.0592 165.4C64.306 159.1 62.015 148.5 61.7162 136.6C61.4174 131.1 60.9194 125.6 60.6206 120.1Z" fill="#593A2D"/>
<path d="M48.469 111.1C48.469 111.1 167.097 48.2 192.496 0C192.496 0 163.411 60.8 48.469 111.1Z" fill="#593A2D"/>
</svg>
