%TF.GenerationSoftware,KiCad,Pcbnew,7.0.9*%
%TF.CreationDate,2024-05-09T16:07:40+09:00*%
%TF.ProjectId,TPIA,54504941-2e6b-4696-9361-645f70636258,rev?*%
%TF.SameCoordinates,Original*%
%TF.FileFunction,Copper,L1,Top*%
%TF.FilePolarity,Positive*%
%FSLAX46Y46*%
G04 Gerber Fmt 4.6, Leading zero omitted, Abs format (unit mm)*
G04 Created by KiCad (PCBNEW 7.0.9) date 2024-05-09 16:07:40*
%MOMM*%
%LPD*%
G01*
G04 APERTURE LIST*
%TA.AperFunction,ComponentPad*%
%ADD10C,1.524000*%
%TD*%
%TA.AperFunction,SMDPad,CuDef*%
%ADD11R,1.700000X3.500000*%
%TD*%
%TA.AperFunction,SMDPad,CuDef*%
%ADD12R,3.500000X1.700000*%
%TD*%
G04 APERTURE END LIST*
D10*
%TO.P,REF\u002A\u002A,47*%
%TO.N,N/C*%
X173278800Y-126873000D03*
%TO.P,REF\u002A\u002A,46*%
X173278800Y-104013000D03*
%TO.P,REF\u002A\u002A,45*%
X173278800Y-149733000D03*
%TO.P,REF\u002A\u002A,44*%
X173278800Y-70993000D03*
D11*
%TO.P,REF\u002A\u002A,43*%
X142798800Y-118653000D03*
%TO.P,REF\u002A\u002A,42*%
X140258800Y-118653000D03*
%TO.P,REF\u002A\u002A,41*%
X137718800Y-118653000D03*
D12*
%TO.P,REF\u002A\u002A,40*%
X150048800Y-69723000D03*
%TO.P,REF\u002A\u002A,39*%
X150048800Y-72263000D03*
%TO.P,REF\u002A\u002A,38*%
X150048800Y-74803000D03*
%TO.P,REF\u002A\u002A,37*%
X150048800Y-77343000D03*
%TO.P,REF\u002A\u002A,36*%
X150048800Y-79883000D03*
%TO.P,REF\u002A\u002A,35*%
X150048800Y-82423000D03*
%TO.P,REF\u002A\u002A,34*%
X150048800Y-84963000D03*
%TO.P,REF\u002A\u002A,33*%
X150048800Y-87503000D03*
%TO.P,REF\u002A\u002A,32*%
X150048800Y-90043000D03*
%TO.P,REF\u002A\u002A,31*%
X150048800Y-92583000D03*
%TO.P,REF\u002A\u002A,30*%
X150048800Y-95123000D03*
%TO.P,REF\u002A\u002A,29*%
X150048800Y-97663000D03*
%TO.P,REF\u002A\u002A,28*%
X150048800Y-100203000D03*
%TO.P,REF\u002A\u002A,27*%
X150048800Y-102743000D03*
%TO.P,REF\u002A\u002A,26*%
X150048800Y-105283000D03*
%TO.P,REF\u002A\u002A,25*%
X150048800Y-107823000D03*
%TO.P,REF\u002A\u002A,24*%
X150048800Y-110363000D03*
%TO.P,REF\u002A\u002A,23*%
X150048800Y-112903000D03*
%TO.P,REF\u002A\u002A,22*%
X150048800Y-115443000D03*
%TO.P,REF\u002A\u002A,21*%
X150048800Y-117983000D03*
%TO.P,REF\u002A\u002A,20*%
X130468800Y-117983000D03*
%TO.P,REF\u002A\u002A,19*%
X130468800Y-115443000D03*
%TO.P,REF\u002A\u002A,18*%
X130468800Y-112903000D03*
%TO.P,REF\u002A\u002A,17*%
X130468800Y-110363000D03*
%TO.P,REF\u002A\u002A,16*%
X130468800Y-107823000D03*
%TO.P,REF\u002A\u002A,15*%
X130468800Y-105283000D03*
%TO.P,REF\u002A\u002A,14*%
X130468800Y-102743000D03*
%TO.P,REF\u002A\u002A,13*%
X130468800Y-100203000D03*
%TO.P,REF\u002A\u002A,12*%
X130468800Y-97663000D03*
%TO.P,REF\u002A\u002A,11*%
X130468800Y-95123000D03*
%TO.P,REF\u002A\u002A,10*%
X130468800Y-92583000D03*
%TO.P,REF\u002A\u002A,9*%
X130468800Y-90043000D03*
%TO.P,REF\u002A\u002A,8*%
X130468800Y-87503000D03*
%TO.P,REF\u002A\u002A,7*%
X130468800Y-84963000D03*
%TO.P,REF\u002A\u002A,6*%
X130468800Y-82423000D03*
%TO.P,REF\u002A\u002A,5*%
X130468800Y-79883000D03*
%TO.P,REF\u002A\u002A,4*%
X130468800Y-77343000D03*
%TO.P,REF\u002A\u002A,3*%
X130468800Y-74803000D03*
%TO.P,REF\u002A\u002A,2*%
X130468800Y-72263000D03*
%TO.P,REF\u002A\u002A,1*%
X130468800Y-69723000D03*
%TD*%
M02*
