%TF.GenerationSoftware,KiCad,Pcbnew,7.0.9*%
%TF.CreationDate,2024-05-09T16:07:40+09:00*%
%TF.ProjectId,TPIA,54504941-2e6b-4696-9361-645f70636258,rev?*%
%TF.SameCoordinates,Original*%
%TF.FileFunction,Soldermask,Top*%
%TF.FilePolarity,Negative*%
%FSLAX46Y46*%
G04 Gerber Fmt 4.6, Leading zero omitted, Abs format (unit mm)*
G04 Created by KiCad (PCBNEW 7.0.9) date 2024-05-09 16:07:40*
%MOMM*%
%LPD*%
G01*
G04 APERTURE LIST*
%ADD10C,1.524000*%
%ADD11R,1.700000X3.500000*%
%ADD12R,3.500000X1.700000*%
%ADD13O,1.500000X1.500000*%
%ADD14O,1.800000X1.800000*%
G04 APERTURE END LIST*
D10*
%TO.C,REF\u002A\u002A*%
X173278800Y-126873000D03*
X173278800Y-104013000D03*
X173278800Y-149733000D03*
X173278800Y-70993000D03*
D11*
X142798800Y-118653000D03*
X140258800Y-118653000D03*
X137718800Y-118653000D03*
D12*
X150048800Y-69723000D03*
X150048800Y-72263000D03*
X150048800Y-74803000D03*
X150048800Y-77343000D03*
X150048800Y-79883000D03*
X150048800Y-82423000D03*
X150048800Y-84963000D03*
X150048800Y-87503000D03*
X150048800Y-90043000D03*
X150048800Y-92583000D03*
X150048800Y-95123000D03*
X150048800Y-97663000D03*
X150048800Y-100203000D03*
X150048800Y-102743000D03*
X150048800Y-105283000D03*
X150048800Y-107823000D03*
X150048800Y-110363000D03*
X150048800Y-112903000D03*
X150048800Y-115443000D03*
X150048800Y-117983000D03*
X130468800Y-117983000D03*
X130468800Y-115443000D03*
X130468800Y-112903000D03*
X130468800Y-110363000D03*
X130468800Y-107823000D03*
X130468800Y-105283000D03*
X130468800Y-102743000D03*
X130468800Y-100203000D03*
X130468800Y-97663000D03*
X130468800Y-95123000D03*
X130468800Y-92583000D03*
X130468800Y-90043000D03*
X130468800Y-87503000D03*
X130468800Y-84963000D03*
X130468800Y-82423000D03*
X130468800Y-79883000D03*
X130468800Y-77343000D03*
X130468800Y-74803000D03*
X130468800Y-72263000D03*
X130468800Y-69723000D03*
D13*
X142683800Y-72883000D03*
X137833800Y-72883000D03*
D14*
X137533800Y-69853000D03*
X142983800Y-69853000D03*
%TD*%
M02*
