M48
; DRILL file {KiCad 7.0.11-7.0.11~ubuntu22.04.1} date  3.02.2025 (пн) 16:18:42
; FORMAT={-:-/ absolute / metric / decimal}
; #@! TF.CreationDate,2025-02-03T16:18:42+02:00
; #@! TF.GenerationSoftware,Kicad,Pcbnew,7.0.11-7.0.11~ubuntu22.04.1
; #@! TF.FileFunction,Plated,1,4,PTH
FMAT,2
METRIC
; #@! TA.AperFunction,Plated,PTH,ViaDrill
T1C0.300
; #@! TA.AperFunction,Plated,PTH,ComponentDrill
T2C0.300
; #@! TA.AperFunction,Plated,PTH,ViaDrill
T3C0.400
; #@! TA.AperFunction,Plated,PTH,ViaDrill
T4C0.600
; #@! TA.AperFunction,Plated,PTH,ComponentDrill
T5C0.600
; #@! TA.AperFunction,Plated,PTH,ComponentDrill
T6C0.800
; #@! TA.AperFunction,Plated,PTH,ComponentDrill
T7C1.000
; #@! TA.AperFunction,Plated,PTH,ComponentDrill
T8C1.200
; #@! TA.AperFunction,Plated,PTH,ComponentDrill
T9C1.600
%
G90
G05
T1
X0.89Y62.183
X0.89Y54.817
X0.89Y42.117
X0.89Y34.497
X0.89Y26.75
X1.017Y6.843
X3.638Y15.955
X4.7Y55.198
X5.716Y49.991
X5.716Y36.148
X5.843Y10.748
X5.97Y34.553
X5.97Y33.735
X5.977Y32.846
X6.224Y32.084
X6.732Y31.449
X6.986Y1.35
X7.367Y37.418
X7.469Y36.275
X7.494Y32.338
X7.494Y31.576
X7.621Y12.399
X7.621Y11.51
X7.748Y49.102
X8.256Y10.875
X8.256Y8.589
X8.383Y27.893
X8.383Y25.099
X8.51Y3.001
X8.891Y9.178
X9.018Y28.274
X9.018Y6.049
X9.018Y5.287
X10.288Y51.515
X10.773Y28.376
X10.898Y37.215
X10.974Y25.836
X11.177Y46.181
X11.177Y41.482
X11.656Y37.215
X11.685Y45.165
X11.685Y34.243
X11.685Y25.763
X11.685Y11.002
X11.939Y44.022
X12.066Y26.75
X12.193Y46.562
X12.193Y10.367
X12.32Y12.653
X12.447Y0.969
X12.5Y26.25
X12.545Y36.791
X12.575Y3.764
X13.082Y34.243
X13.272Y36.593
X13.412Y25.759
X13.463Y45.8
X13.463Y12.653
X13.59Y3.509
X13.844Y56.849
X14.098Y46.435
X14.098Y45.165
X14.225Y41.355
X14.479Y15.193
X14.606Y12.653
X14.62Y23.96
X14.624Y22.958
X14.75Y5.954
X14.758Y37.901
X14.987Y41.355
X15.19Y25.759
X15.241Y4.398
X15.241Y0.969
X15.266Y37.367
X15.495Y18.495
X15.495Y15.193
X15.52Y34.243
X15.876Y5.954
X16.003Y46.562
X16.003Y44.022
X16.765Y46.816
X17.146Y40.847
X17.273Y3.919
X17.4Y44.276
X17.509Y18.456
X17.527Y46.435
X17.527Y0.969
X17.654Y15.447
X17.781Y41.355
X17.781Y4.652
X18.01Y47.883
X18.035Y56.722
X18.543Y15.447
X18.543Y10.621
X18.543Y9.777
X18.797Y52.277
X18.822Y48.035
X19.051Y46.435
X19.051Y18.495
X19.229Y31.22
X19.229Y28.122
X19.229Y27.385
X19.229Y26.648
X19.229Y25.912
X19.305Y10.24
X19.559Y45.419
X19.82Y18.869
X19.991Y41.304
X20.03Y35.73
X20.042Y34.98
X20.194Y37.418
X20.448Y45.546
X20.6Y22.635
X20.639Y56.658
X20.956Y41.609
X21.007Y25.861
X21.034Y24.115
X21.083Y37.672
X21.21Y23.067
X21.21Y22.178
X21.886Y23.956
X21.947Y29.112
X21.972Y23.194
X21.972Y22.178
X22.099Y13.034
X22.099Y12.272
X23.039Y6.608
X23.242Y0.747
X23.369Y32.719
X23.682Y53.674
X23.699Y7.04
X23.75Y52.785
X24.085Y35.005
X24.085Y34.243
X24.131Y33.481
X24.238Y7.579
X25.02Y61.167
X25.274Y21.924
X25.528Y39.323
X25.528Y38.434
X25.528Y25.861
X25.528Y18.038
X25.782Y29.036
X25.8Y24.323
X25.879Y10.379
X26.036Y30.302
X26.036Y26.877
X26.13Y25.353
X26.29Y28.274
X26.401Y15.725
X26.46Y16.577
X26.798Y19.384
X27.179Y34.497
X28.449Y62.564
X28.46Y21.57
X29.084Y59.897
X29.084Y52.277
X29.084Y44.784
T2
X14.903Y50.237
X14.903Y49.237
X15.503Y50.837
X15.503Y48.637
X16.503Y50.837
X16.503Y48.637
X17.103Y50.237
X17.103Y49.237
T3
X6.478Y23.702
X6.58Y36.326
X6.986Y43.26
X9.653Y44.657
X12.383Y41.457
X21.718Y51.642
X22.099Y37.418
X25.268Y22.94
X26.163Y12.0
X26.2Y11.2
X26.5Y8.0
X27.3Y8.037
T4
X3.049Y11.002
X3.684Y62.31
X4.192Y11.002
X4.446Y57.738
X4.446Y8.462
X4.7Y59.77
X4.7Y20.527
X5.589Y8.462
X5.716Y57.738
X6.279Y59.77
X6.478Y48.086
X6.732Y57.738
X6.986Y44.53
X7.621Y52.023
X7.621Y50.88
X7.621Y48.086
X8.226Y22.305
X8.51Y54.944
X8.764Y15.574
X9.25Y65.0
X9.272Y22.305
X9.907Y15.574
X10.796Y18.876
X11.304Y15.574
X11.939Y69.75
X11.939Y67.136
X13.209Y10.113
X14.352Y10.136
X15.0Y68.0
X17.273Y9.977
X17.908Y69.75
X17.908Y67.136
X18.924Y41.355
X19.559Y12.78
X19.813Y52.023
X20.75Y65.0
X21.845Y27.397
X21.999Y24.973
X22.226Y56.468
X23.115Y46.435
X23.369Y58.119
X23.496Y56.595
X24.639Y56.976
X24.639Y55.833
X28.8Y8.1
X28.83Y6.97
T7
X2.3Y61.13
X2.3Y58.59
X2.3Y56.05
X2.3Y53.51
X2.3Y50.97
X2.3Y48.43
X2.3Y45.89
X2.3Y43.35
X2.3Y40.81
X2.3Y38.27
X2.3Y35.73
X2.3Y33.19
X2.3Y30.65
X2.3Y28.11
X2.3Y25.57
X2.3Y23.03
X2.3Y20.49
X2.3Y17.95
X2.3Y15.41
X2.3Y12.87
X9.285Y61.5
X10.555Y58.96
X11.825Y61.5
X12.0Y30.0
X13.095Y58.96
X14.365Y61.5
X15.0Y33.0
X15.0Y27.0
X15.635Y58.96
X16.905Y61.5
X18.0Y30.0
X18.175Y58.96
X19.445Y61.5
X20.715Y58.96
X27.7Y61.13
X27.7Y58.59
X27.7Y56.05
X27.7Y53.51
X27.7Y50.97
X27.7Y48.43
X27.7Y45.89
X27.7Y43.35
X27.7Y40.81
X27.7Y38.27
X27.7Y35.73
X27.7Y33.19
X27.7Y30.65
X27.7Y28.11
X27.7Y25.57
X27.7Y23.03
X27.7Y20.49
X27.7Y17.95
X27.7Y15.41
X27.7Y12.87
T8
X16.003Y49.737
T9
X15.0Y30.0
T5
G00X7.2Y64.4
M15
G01X7.2Y65.8
M16
G05
G00X22.8Y64.4
M15
G01X22.8Y65.8
M16
G05
T6
G00X10.68Y6.48
M15
G01X10.68Y5.58
M16
G05
G00X10.68Y2.15
M15
G01X10.68Y1.55
M16
G05
G00X19.32Y6.48
M15
G01X19.32Y5.58
M16
G05
G00X19.32Y2.15
M15
G01X19.32Y1.55
M16
G05
M30
