%TF.GenerationSoftware,KiCad,Pcbnew,7.0.11-7.0.11~ubuntu22.04.1*%
%TF.CreationDate,2025-02-03T16:18:30+02:00*%
%TF.ProjectId,ESP32-P4-DevKit_Rev_C,45535033-322d-4503-942d-4465764b6974,C*%
%TF.SameCoordinates,PX80befc0PY7459280*%
%TF.FileFunction,Soldermask,Top*%
%TF.FilePolarity,Negative*%
%FSLAX46Y46*%
G04 Gerber Fmt 4.6, Leading zero omitted, Abs format (unit mm)*
G04 Created by KiCad (PCBNEW 7.0.11-7.0.11~ubuntu22.04.1) date 2025-02-03 16:18:30*
%MOMM*%
%LPD*%
G01*
G04 APERTURE LIST*
G04 Aperture macros list*
%AMRoundRect*
0 Rectangle with rounded corners*
0 $1 Rounding radius*
0 $2 $3 $4 $5 $6 $7 $8 $9 X,Y pos of 4 corners*
0 Add a 4 corners polygon primitive as box body*
4,1,4,$2,$3,$4,$5,$6,$7,$8,$9,$2,$3,0*
0 Add four circle primitives for the rounded corners*
1,1,$1+$1,$2,$3*
1,1,$1+$1,$4,$5*
1,1,$1+$1,$6,$7*
1,1,$1+$1,$8,$9*
0 Add four rect primitives between the rounded corners*
20,1,$1+$1,$2,$3,$4,$5,0*
20,1,$1+$1,$4,$5,$6,$7,0*
20,1,$1+$1,$6,$7,$8,$9,0*
20,1,$1+$1,$8,$9,$2,$3,0*%
G04 Aperture macros list end*
%ADD10C,0.701600*%
%ADD11RoundRect,0.050800X-0.550000X-1.100000X0.550000X-1.100000X0.550000X1.100000X-0.550000X1.100000X0*%
%ADD12O,1.301600X2.301600*%
%ADD13RoundRect,0.050800X-0.550000X-1.000000X0.550000X-1.000000X0.550000X1.000000X-0.550000X1.000000X0*%
%ADD14O,1.401600X2.101600*%
%ADD15RoundRect,0.050800X-0.150000X-0.575000X0.150000X-0.575000X0.150000X0.575000X-0.150000X0.575000X0*%
%ADD16RoundRect,0.050800X-0.125000X-0.575000X0.125000X-0.575000X0.125000X0.575000X-0.125000X0.575000X0*%
%ADD17RoundRect,0.050800X-0.300000X-0.825000X0.300000X-0.825000X0.300000X0.825000X-0.300000X0.825000X0*%
%ADD18RoundRect,0.050800X-0.400000X-0.400000X0.400000X-0.400000X0.400000X0.400000X-0.400000X0.400000X0*%
%ADD19RoundRect,0.050800X0.250000X0.275000X-0.250000X0.275000X-0.250000X-0.275000X0.250000X-0.275000X0*%
%ADD20RoundRect,0.050800X-0.250000X-0.275000X0.250000X-0.275000X0.250000X0.275000X-0.250000X0.275000X0*%
%ADD21RoundRect,0.050800X0.400000X0.400000X-0.400000X0.400000X-0.400000X-0.400000X0.400000X-0.400000X0*%
%ADD22C,1.101600*%
%ADD23RoundRect,0.050800X0.275000X-0.250000X0.275000X0.250000X-0.275000X0.250000X-0.275000X-0.250000X0*%
%ADD24RoundRect,0.050800X-0.275000X0.250000X-0.275000X-0.250000X0.275000X-0.250000X0.275000X0.250000X0*%
%ADD25RoundRect,0.050800X0.325000X-0.525000X0.325000X0.525000X-0.325000X0.525000X-0.325000X-0.525000X0*%
%ADD26RoundRect,0.050800X-0.508000X-0.508000X0.508000X-0.508000X0.508000X0.508000X-0.508000X0.508000X0*%
%ADD27C,1.254000*%
%ADD28RoundRect,0.050800X-0.325000X0.525000X-0.325000X-0.525000X0.325000X-0.525000X0.325000X0.525000X0*%
%ADD29C,3.401601*%
%ADD30O,1.701600X3.101599*%
%ADD31C,1.625600*%
%ADD32RoundRect,0.050800X0.600000X1.550000X-0.600000X1.550000X-0.600000X-1.550000X0.600000X-1.550000X0*%
%ADD33RoundRect,0.050800X0.300000X0.775000X-0.300000X0.775000X-0.300000X-0.775000X0.300000X-0.775000X0*%
%ADD34RoundRect,0.050800X-1.000000X-1.750000X1.000000X-1.750000X1.000000X1.750000X-1.000000X1.750000X0*%
%ADD35RoundRect,0.050800X-0.500000X-1.500000X0.500000X-1.500000X0.500000X1.500000X-0.500000X1.500000X0*%
%ADD36RoundRect,0.050800X0.508000X-0.508000X0.508000X0.508000X-0.508000X0.508000X-0.508000X-0.508000X0*%
%ADD37RoundRect,0.050800X1.000000X0.850000X-1.000000X0.850000X-1.000000X-0.850000X1.000000X-0.850000X0*%
%ADD38RoundRect,0.050800X0.889000X-0.889000X0.889000X0.889000X-0.889000X0.889000X-0.889000X-0.889000X0*%
%ADD39C,1.879600*%
%ADD40C,1.701600*%
%ADD41C,2.501600*%
G04 APERTURE END LIST*
D10*
%TO.C,USB-Serial/JTAG1*%
X17890000Y5530000D03*
X12110000Y5530000D03*
D11*
X19927600Y6030000D03*
D12*
X19320000Y6030000D03*
X10680000Y6030000D03*
D11*
X10072400Y6030000D03*
D13*
X19927600Y1850000D03*
D14*
X19320000Y1850000D03*
X10680000Y1850000D03*
D13*
X10072400Y1850000D03*
D15*
X11675000Y6932000D03*
X12475000Y6932000D03*
D16*
X13750000Y6932000D03*
X14750000Y6932000D03*
X15250000Y6932000D03*
X16250000Y6932000D03*
D15*
X17525000Y6932000D03*
X18325000Y6932000D03*
X18075000Y6932000D03*
X17275000Y6932000D03*
D16*
X16750000Y6932000D03*
X15750000Y6932000D03*
X14250000Y6932000D03*
X13250000Y6932000D03*
D15*
X12725000Y6932000D03*
X11925000Y6932000D03*
%TD*%
D17*
%TO.C,MIPI-CSI1*%
X22000000Y42825000D03*
X21000000Y42825000D03*
X20000000Y42825000D03*
X19000000Y42825000D03*
X18000000Y42825000D03*
X17000000Y42825000D03*
X16000000Y42825000D03*
X15000000Y42825000D03*
X14000000Y42825000D03*
X13000000Y42825000D03*
X12000000Y42825000D03*
X11000000Y42825000D03*
X10000000Y42825000D03*
X9000000Y42825000D03*
X8000000Y42825000D03*
X8000000Y39175000D03*
X9000000Y39175000D03*
X10000000Y39175000D03*
X11000000Y39175000D03*
X12000000Y39175000D03*
X13000000Y39175000D03*
X14000000Y39175000D03*
X15000000Y39175000D03*
X16000000Y39175000D03*
X17000000Y39175000D03*
X18000000Y39175000D03*
X19000000Y39175000D03*
X20000000Y39175000D03*
X21000000Y39175000D03*
X22000000Y39175000D03*
%TD*%
D18*
%TO.C,USER_LED1*%
X3262000Y9700000D03*
X1738000Y9700000D03*
%TD*%
D19*
%TO.C,C4*%
X10288000Y27639000D03*
D20*
X11304000Y27639000D03*
%TD*%
D21*
%TO.C,LED_LINK1*%
X1738000Y63500000D03*
X3262000Y63500000D03*
%TD*%
D22*
%TO.C,5V_PoE1*%
X23877000Y50626000D03*
%TD*%
D23*
%TO.C,C33*%
X20067000Y29163000D03*
D24*
X20067000Y28147000D03*
%TD*%
D25*
%TO.C,BOOT1*%
X5925000Y25925000D03*
X5925000Y30075000D03*
X8075000Y25925000D03*
X8075000Y30075000D03*
%TD*%
D24*
%TO.C,C52*%
X20194000Y24337000D03*
D23*
X20194000Y25353000D03*
%TD*%
D20*
%TO.C,R14*%
X7367000Y14431000D03*
D19*
X6351000Y14431000D03*
%TD*%
%TO.C,C3*%
X10288000Y26750000D03*
D20*
X11304000Y26750000D03*
%TD*%
D22*
%TO.C,VO4*%
X24258000Y24464000D03*
%TD*%
D24*
%TO.C,C37*%
X5335000Y22051000D03*
D23*
X5335000Y23067000D03*
%TD*%
%TO.C,C50*%
X20067000Y27258000D03*
D24*
X20067000Y26242000D03*
%TD*%
%TO.C,R22*%
X6097000Y45165000D03*
D23*
X6097000Y46181000D03*
%TD*%
D21*
%TO.C,LED_ACT1*%
X26738000Y63500000D03*
X28262000Y63500000D03*
%TD*%
D19*
%TO.C,C45*%
X12701000Y23956000D03*
D20*
X13717000Y23956000D03*
%TD*%
D19*
%TO.C,C27*%
X8002000Y45419000D03*
D20*
X9018000Y45419000D03*
%TD*%
D26*
%TO.C,C15*%
X15368000Y55833000D03*
X17146000Y55833000D03*
%TD*%
D17*
%TO.C,MIPI-DSI1*%
X22000000Y20825000D03*
X21000000Y20825000D03*
X20000000Y20825000D03*
X19000000Y20825000D03*
X18000000Y20825000D03*
X17000000Y20825000D03*
X16000000Y20825000D03*
X15000000Y20825000D03*
X14000000Y20825000D03*
X13000000Y20825000D03*
X12000000Y20825000D03*
X11000000Y20825000D03*
X10000000Y20825000D03*
X9000000Y20825000D03*
X8000000Y20825000D03*
X8000000Y17175000D03*
X9000000Y17175000D03*
X10000000Y17175000D03*
X11000000Y17175000D03*
X12000000Y17175000D03*
X13000000Y17175000D03*
X14000000Y17175000D03*
X15000000Y17175000D03*
X16000000Y17175000D03*
X17000000Y17175000D03*
X18000000Y17175000D03*
X19000000Y17175000D03*
X20000000Y17175000D03*
X21000000Y17175000D03*
X22000000Y17175000D03*
%TD*%
D23*
%TO.C,R8*%
X24385000Y62183000D03*
D24*
X24385000Y61167000D03*
%TD*%
D19*
%TO.C,C41*%
X12320000Y24972000D03*
D20*
X13336000Y24972000D03*
%TD*%
D19*
%TO.C,C28*%
X8002000Y44530000D03*
D20*
X9018000Y44530000D03*
%TD*%
D22*
%TO.C,CORE1*%
X8256000Y23321000D03*
%TD*%
D27*
%TO.C,FID2*%
X1500000Y70500000D03*
%TD*%
D28*
%TO.C,RST1*%
X24075000Y30075000D03*
X24075000Y25925000D03*
X21925000Y30075000D03*
X21925000Y25925000D03*
%TD*%
D19*
%TO.C,C55*%
X17654000Y28782000D03*
D20*
X18670000Y28782000D03*
%TD*%
D19*
%TO.C,R1*%
X12828000Y33481000D03*
D20*
X13844000Y33481000D03*
%TD*%
D24*
%TO.C,C38*%
X6224000Y22051000D03*
D23*
X6224000Y23067000D03*
%TD*%
D22*
%TO.C,VO2*%
X24004000Y32211000D03*
%TD*%
D18*
%TO.C,PWR_LED1*%
X28262000Y9700000D03*
X26738000Y9700000D03*
%TD*%
D19*
%TO.C,R16*%
X6351000Y13288000D03*
D20*
X7367000Y13288000D03*
%TD*%
D23*
%TO.C,C11*%
X16384000Y34243000D03*
D24*
X16384000Y33227000D03*
%TD*%
D29*
%TO.C,LAN_CON1*%
X20715000Y68150000D03*
X9285000Y68150000D03*
D30*
X22800000Y65100000D03*
X7200000Y65100000D03*
D31*
X20715000Y58960000D03*
X19445000Y61500000D03*
X18175000Y58960000D03*
X16905000Y61500000D03*
X15635000Y58960000D03*
X14365000Y61500000D03*
X13095000Y58960000D03*
X11825000Y61500000D03*
X10555000Y58960000D03*
X9285000Y61500000D03*
%TD*%
D20*
%TO.C,C42*%
X11558000Y24972000D03*
D19*
X10542000Y24972000D03*
%TD*%
D32*
%TO.C,pUEXT1*%
X20800000Y12250000D03*
X9200000Y12250000D03*
D33*
X19500000Y14025000D03*
X18500000Y14025000D03*
X17500000Y14025000D03*
X16500000Y14025000D03*
X15500000Y14025000D03*
X14500000Y14025000D03*
X13500000Y14025000D03*
X12500000Y14025000D03*
X11500000Y14025000D03*
X10500000Y14025000D03*
%TD*%
D23*
%TO.C,R23*%
X5208000Y46181000D03*
D24*
X5208000Y45165000D03*
%TD*%
D29*
%TO.C,MH4*%
X26500000Y3500000D03*
%TD*%
D23*
%TO.C,C46*%
X16003000Y26242000D03*
D24*
X16003000Y25226000D03*
%TD*%
D34*
%TO.C,POE_PWR1*%
X9700000Y49275000D03*
X20300000Y49275000D03*
D35*
X12000000Y52900000D03*
X14000000Y52900000D03*
X16000000Y52900000D03*
X18000000Y52900000D03*
%TD*%
D19*
%TO.C,C29*%
X17654000Y31449000D03*
D20*
X18670000Y31449000D03*
%TD*%
D23*
%TO.C,R7*%
X25655000Y62183000D03*
D24*
X25655000Y61167000D03*
%TD*%
%TO.C,C9*%
X14733000Y34497000D03*
D23*
X14733000Y35513000D03*
%TD*%
D24*
%TO.C,R27*%
X22607000Y51134000D03*
D23*
X22607000Y52150000D03*
%TD*%
D19*
%TO.C,C57*%
X5335000Y24464000D03*
D20*
X6351000Y24464000D03*
%TD*%
D24*
%TO.C,C49*%
X19305000Y24337000D03*
D23*
X19305000Y25353000D03*
%TD*%
D29*
%TO.C,MH2*%
X3500000Y68500000D03*
%TD*%
%TO.C,MH1*%
X3500000Y3500000D03*
%TD*%
D27*
%TO.C,FID3*%
X28500000Y70500000D03*
%TD*%
D23*
%TO.C,C10*%
X17400000Y34243000D03*
D24*
X17400000Y33227000D03*
%TD*%
D23*
%TO.C,R9*%
X5800000Y62008000D03*
D24*
X5800000Y60992000D03*
%TD*%
D23*
%TO.C,R10*%
X4700000Y62008000D03*
D24*
X4700000Y60992000D03*
%TD*%
D36*
%TO.C,C14*%
X24893000Y58246000D03*
X24893000Y60024000D03*
%TD*%
D20*
%TO.C,C40*%
X11939000Y23956000D03*
D19*
X10923000Y23956000D03*
%TD*%
D37*
%TO.C,D1*%
X25234000Y54436000D03*
X20234000Y54436000D03*
%TD*%
D27*
%TO.C,FID1*%
X1500000Y1400000D03*
%TD*%
D24*
%TO.C,C8*%
X13844000Y34497000D03*
D23*
X13844000Y35513000D03*
%TD*%
D19*
%TO.C,R4*%
X4700000Y9859000D03*
D20*
X5716000Y9859000D03*
%TD*%
D22*
%TO.C,VO3*%
X19178000Y32465000D03*
%TD*%
D20*
%TO.C,R6*%
X16384000Y9605000D03*
D19*
X15368000Y9605000D03*
%TD*%
D27*
%TO.C,FID4*%
X28500000Y1400000D03*
%TD*%
D29*
%TO.C,MH3*%
X26500000Y68500000D03*
%TD*%
D19*
%TO.C,R34*%
X27052000Y11002000D03*
D20*
X28068000Y11002000D03*
%TD*%
D22*
%TO.C,VO1*%
X20956000Y31195000D03*
%TD*%
D38*
%TO.C,EXT1*%
X2300000Y12870000D03*
D39*
X2300000Y15410000D03*
X2300000Y17950000D03*
X2300000Y20490000D03*
X2300000Y23030000D03*
X2300000Y25570000D03*
X2300000Y28110000D03*
X2300000Y30650000D03*
X2300000Y33190000D03*
X2300000Y35730000D03*
X2300000Y38270000D03*
X2300000Y40810000D03*
X2300000Y43350000D03*
X2300000Y45890000D03*
X2300000Y48430000D03*
X2300000Y50970000D03*
X2300000Y53510000D03*
X2300000Y56050000D03*
X2300000Y58590000D03*
X2300000Y61130000D03*
%TD*%
D40*
%TO.C,U1*%
X15000000Y27000000D03*
X12000000Y30000000D03*
D41*
X15000000Y30000000D03*
D40*
X18000000Y30000000D03*
X15000000Y33000000D03*
%TD*%
%TO.C,U2*%
X16003000Y49737000D03*
%TD*%
D38*
%TO.C,EXT2*%
X27700000Y12870000D03*
D39*
X27700000Y15410000D03*
X27700000Y17950000D03*
X27700000Y20490000D03*
X27700000Y23030000D03*
X27700000Y25570000D03*
X27700000Y28110000D03*
X27700000Y30650000D03*
X27700000Y33190000D03*
X27700000Y35730000D03*
X27700000Y38270000D03*
X27700000Y40810000D03*
X27700000Y43350000D03*
X27700000Y45890000D03*
X27700000Y48430000D03*
X27700000Y50970000D03*
X27700000Y53510000D03*
X27700000Y56050000D03*
X27700000Y58590000D03*
X27700000Y61130000D03*
%TD*%
G36*
X15943039Y71730315D02*
G01*
X15988794Y71677511D01*
X16000000Y71626000D01*
X16000000Y69124000D01*
X15980315Y69056961D01*
X15927511Y69011206D01*
X15876000Y69000000D01*
X14124000Y69000000D01*
X14056961Y69019685D01*
X14011206Y69072489D01*
X14000000Y69124000D01*
X14000000Y71626000D01*
X14019685Y71693039D01*
X14072489Y71738794D01*
X14124000Y71750000D01*
X15876000Y71750000D01*
X15943039Y71730315D01*
G37*
M02*
