%TF.GenerationSoftware,KiCad,Pcbnew,9.0.4*%
%TF.CreationDate,2026-03-27T17:57:48+09:00*%
%TF.ProjectId,meshlite,6d657368-6c69-4746-952e-6b696361645f,rev?*%
%TF.SameCoordinates,Original*%
%TF.FileFunction,Soldermask,Bot*%
%TF.FilePolarity,Negative*%
%FSLAX46Y46*%
G04 Gerber Fmt 4.6, Leading zero omitted, Abs format (unit mm)*
G04 Created by KiCad (PCBNEW 9.0.4) date 2026-03-27 17:57:48*
%MOMM*%
%LPD*%
G01*
G04 APERTURE LIST*
G04 Aperture macros list*
%AMRoundRect*
0 Rectangle with rounded corners*
0 $1 Rounding radius*
0 $2 $3 $4 $5 $6 $7 $8 $9 X,Y pos of 4 corners*
0 Add a 4 corners polygon primitive as box body*
4,1,4,$2,$3,$4,$5,$6,$7,$8,$9,$2,$3,0*
0 Add four circle primitives for the rounded corners*
1,1,$1+$1,$2,$3*
1,1,$1+$1,$4,$5*
1,1,$1+$1,$6,$7*
1,1,$1+$1,$8,$9*
0 Add four rect primitives between the rounded corners*
20,1,$1+$1,$2,$3,$4,$5,0*
20,1,$1+$1,$4,$5,$6,$7,0*
20,1,$1+$1,$6,$7,$8,$9,0*
20,1,$1+$1,$8,$9,$2,$3,0*%
G04 Aperture macros list end*
%ADD10O,4.604000X2.404000*%
%ADD11O,4.204000X2.204000*%
%ADD12O,2.204000X4.204000*%
%ADD13R,1.700000X1.700000*%
%ADD14C,1.700000*%
%ADD15R,1.800000X1.800000*%
%ADD16C,1.800000*%
%ADD17R,2.540000X2.540000*%
%ADD18C,2.540000*%
%ADD19RoundRect,0.102000X-0.889000X0.889000X-0.889000X-0.889000X0.889000X-0.889000X0.889000X0.889000X0*%
%ADD20C,1.982000*%
%ADD21C,3.404000*%
%ADD22C,2.388400*%
%ADD23C,2.260600*%
%ADD24C,2.400000*%
%ADD25RoundRect,0.250000X1.000000X1.000000X-1.000000X1.000000X-1.000000X-1.000000X1.000000X-1.000000X0*%
G04 APERTURE END LIST*
D10*
%TO.C,J1*%
X160350000Y-83500000D03*
D11*
X160350000Y-89800000D03*
D12*
X165150000Y-86400000D03*
%TD*%
D13*
%TO.C,J6*%
X171525000Y-76675000D03*
D14*
X171525000Y-79215000D03*
X171525000Y-81755000D03*
X171525000Y-84295000D03*
X171525000Y-86835000D03*
X171525000Y-89375000D03*
%TD*%
D13*
%TO.C,J5*%
X183000000Y-62540000D03*
D14*
X183000000Y-60000000D03*
X183000000Y-57460000D03*
X183000000Y-54920000D03*
X183000000Y-52380000D03*
X183000000Y-49840000D03*
X183000000Y-47300000D03*
%TD*%
D15*
%TO.C,D1*%
X123730000Y-48500000D03*
D16*
X126270000Y-48500000D03*
%TD*%
D13*
%TO.C,J4*%
X167000000Y-47380000D03*
D14*
X167000000Y-49920000D03*
X167000000Y-52460000D03*
X167000000Y-55000000D03*
X167000000Y-57540000D03*
X167000000Y-60080000D03*
X167000000Y-62620000D03*
%TD*%
D15*
%TO.C,D2*%
X195270000Y-48550000D03*
D16*
X192730000Y-48550000D03*
%TD*%
D13*
%TO.C,J7*%
X195500000Y-59960000D03*
D14*
X195500000Y-62500000D03*
%TD*%
D17*
%TO.C,U3*%
X150000000Y-54360000D03*
D18*
X132220000Y-54360000D03*
X132220000Y-95000000D03*
X150000000Y-95000000D03*
%TD*%
D19*
%TO.C,U2*%
X171500000Y-76650000D03*
D20*
X171500000Y-79190000D03*
X171500000Y-81730000D03*
X171500000Y-84270000D03*
X171500000Y-86810000D03*
X171500000Y-89350000D03*
D21*
X186740000Y-72840000D03*
X186740000Y-93160000D03*
X171500000Y-72840000D03*
X171500000Y-93160000D03*
D22*
X185470000Y-84700000D03*
X185470000Y-81200000D03*
%TD*%
D23*
%TO.C,J3*%
X119344401Y-70684900D03*
X119344401Y-74644900D03*
X119344401Y-78604900D03*
X119344401Y-82564899D03*
X119344401Y-86524899D03*
%TD*%
%TO.C,J2*%
X202655600Y-86315100D03*
X202655600Y-82355100D03*
X202655600Y-78395100D03*
X202655600Y-74435101D03*
X202655600Y-70475101D03*
%TD*%
D15*
%TO.C,D4*%
X195250000Y-84300000D03*
D16*
X192710000Y-84300000D03*
%TD*%
D24*
%TO.C,K2*%
X205932500Y-61200000D03*
X199932500Y-47000000D03*
X211932500Y-47000000D03*
D25*
X211932500Y-59200000D03*
D24*
X199932500Y-59200000D03*
%TD*%
D15*
%TO.C,D3*%
X123750000Y-84300000D03*
D16*
X126290000Y-84300000D03*
%TD*%
M02*
