%TF.GenerationSoftware,KiCad,Pcbnew,(5.1.6)-1*%
%TF.CreationDate,2021-03-07T00:25:50+06:00*%
%TF.ProjectId,Cabinate,43616269-6e61-4746-952e-6b696361645f,rev?*%
%TF.SameCoordinates,Original*%
%TF.FileFunction,Copper,L1,Top*%
%TF.FilePolarity,Positive*%
%FSLAX46Y46*%
G04 Gerber Fmt 4.6, Leading zero omitted, Abs format (unit mm)*
G04 Created by KiCad (PCBNEW (5.1.6)-1) date 2021-03-07 00:25:50*
%MOMM*%
%LPD*%
G01*
G04 APERTURE LIST*
%TA.AperFunction,NonConductor*%
%ADD10C,0.300000*%
%TD*%
%TA.AperFunction,ComponentPad*%
%ADD11O,1.600000X1.600000*%
%TD*%
%TA.AperFunction,ComponentPad*%
%ADD12R,1.600000X1.600000*%
%TD*%
%TA.AperFunction,ComponentPad*%
%ADD13C,1.600000*%
%TD*%
%TA.AperFunction,ComponentPad*%
%ADD14C,1.800000*%
%TD*%
%TA.AperFunction,ComponentPad*%
%ADD15R,1.800000X1.800000*%
%TD*%
%TA.AperFunction,ComponentPad*%
%ADD16O,3.600000X1.800000*%
%TD*%
%TA.AperFunction,ComponentPad*%
%ADD17C,2.000000*%
%TD*%
%TA.AperFunction,ComponentPad*%
%ADD18R,2.000000X2.000000*%
%TD*%
%TA.AperFunction,ComponentPad*%
%ADD19O,2.000000X1.905000*%
%TD*%
%TA.AperFunction,ComponentPad*%
%ADD20R,2.000000X1.905000*%
%TD*%
%TA.AperFunction,ComponentPad*%
%ADD21O,2.000000X2.000000*%
%TD*%
%TA.AperFunction,ComponentPad*%
%ADD22O,1.950000X1.700000*%
%TD*%
%TA.AperFunction,ComponentPad*%
%ADD23O,2.400000X2.400000*%
%TD*%
%TA.AperFunction,ComponentPad*%
%ADD24R,2.400000X2.400000*%
%TD*%
%TA.AperFunction,ComponentPad*%
%ADD25R,1.879600X1.879600*%
%TD*%
%TA.AperFunction,ComponentPad*%
%ADD26R,1.500000X1.500000*%
%TD*%
%TA.AperFunction,ComponentPad*%
%ADD27R,1.651000X1.651000*%
%TD*%
%TA.AperFunction,ComponentPad*%
%ADD28C,3.810000*%
%TD*%
%TA.AperFunction,ComponentPad*%
%ADD29O,1.905000X2.000000*%
%TD*%
%TA.AperFunction,ComponentPad*%
%ADD30R,1.905000X2.000000*%
%TD*%
%TA.AperFunction,ViaPad*%
%ADD31C,3.500000*%
%TD*%
%TA.AperFunction,ViaPad*%
%ADD32C,2.000000*%
%TD*%
%TA.AperFunction,ViaPad*%
%ADD33C,2.500000*%
%TD*%
%TA.AperFunction,ViaPad*%
%ADD34C,1.500000*%
%TD*%
%TA.AperFunction,Conductor*%
%ADD35C,0.300000*%
%TD*%
%TA.AperFunction,Conductor*%
%ADD36C,0.800000*%
%TD*%
%TA.AperFunction,Conductor*%
%ADD37C,0.500000*%
%TD*%
%TA.AperFunction,Conductor*%
%ADD38C,1.000000*%
%TD*%
%TA.AperFunction,Conductor*%
%ADD39C,1.200000*%
%TD*%
G04 APERTURE END LIST*
D10*
X105200000Y-123614285D02*
X105200000Y-125042857D01*
X103771428Y-124471428D02*
X105200000Y-125042857D01*
X106628571Y-124471428D01*
X104342857Y-126185714D02*
X105200000Y-125042857D01*
X106057142Y-126185714D01*
X82014285Y-137000000D02*
X83442857Y-137000000D01*
X82871428Y-138428571D02*
X83442857Y-137000000D01*
X82871428Y-135571428D01*
X84585714Y-137857142D02*
X83442857Y-137000000D01*
X84585714Y-136142857D01*
D11*
%TO.P,U21,4*%
%TO.N,19*%
X161380000Y-38800000D03*
%TO.P,U21,2*%
%TO.N,Net-(R46-Pad2)*%
X169000000Y-36260000D03*
%TO.P,U21,3*%
%TO.N,GND*%
X161380000Y-36260000D03*
D12*
%TO.P,U21,1*%
%TO.N,+24V*%
X169000000Y-38800000D03*
%TD*%
D11*
%TO.P,R46,2*%
%TO.N,Net-(R46-Pad2)*%
X171580000Y-36200000D03*
D13*
%TO.P,R46,1*%
%TO.N,Net-(D13-Pad2)*%
X179200000Y-36200000D03*
%TD*%
D14*
%TO.P,D13,2*%
%TO.N,Net-(D13-Pad2)*%
X182200000Y-36200000D03*
D15*
%TO.P,D13,1*%
%TO.N,SW6*%
X184740000Y-36200000D03*
%TD*%
D11*
%TO.P,U20,4*%
%TO.N,9*%
X161380000Y-57200000D03*
%TO.P,U20,2*%
%TO.N,Net-(R45-Pad2)*%
X169000000Y-54660000D03*
%TO.P,U20,3*%
%TO.N,GND*%
X161380000Y-54660000D03*
D12*
%TO.P,U20,1*%
%TO.N,+24V*%
X169000000Y-57200000D03*
%TD*%
D11*
%TO.P,U19,4*%
%TO.N,7*%
X161380000Y-51100000D03*
%TO.P,U19,2*%
%TO.N,Net-(R44-Pad2)*%
X169000000Y-48560000D03*
%TO.P,U19,3*%
%TO.N,GND*%
X161380000Y-48560000D03*
D12*
%TO.P,U19,1*%
%TO.N,+24V*%
X169000000Y-51100000D03*
%TD*%
D11*
%TO.P,U18,4*%
%TO.N,18*%
X161380000Y-45000000D03*
%TO.P,U18,2*%
%TO.N,Net-(R43-Pad2)*%
X169000000Y-42460000D03*
%TO.P,U18,3*%
%TO.N,GND*%
X161380000Y-42460000D03*
D12*
%TO.P,U18,1*%
%TO.N,+24V*%
X169000000Y-45000000D03*
%TD*%
D11*
%TO.P,R45,2*%
%TO.N,Net-(R45-Pad2)*%
X171380000Y-54600000D03*
D13*
%TO.P,R45,1*%
%TO.N,Net-(D12-Pad2)*%
X179000000Y-54600000D03*
%TD*%
D11*
%TO.P,R44,2*%
%TO.N,Net-(R44-Pad2)*%
X171480000Y-48500000D03*
D13*
%TO.P,R44,1*%
%TO.N,Net-(D11-Pad2)*%
X179100000Y-48500000D03*
%TD*%
D11*
%TO.P,R43,2*%
%TO.N,Net-(R43-Pad2)*%
X171580000Y-42600000D03*
D13*
%TO.P,R43,1*%
%TO.N,Net-(D10-Pad2)*%
X179200000Y-42600000D03*
%TD*%
D14*
%TO.P,D12,2*%
%TO.N,Net-(D12-Pad2)*%
X182060000Y-54600000D03*
D15*
%TO.P,D12,1*%
%TO.N,SW5*%
X184600000Y-54600000D03*
%TD*%
D14*
%TO.P,D11,2*%
%TO.N,Net-(D11-Pad2)*%
X182060000Y-48500000D03*
D15*
%TO.P,D11,1*%
%TO.N,SW4*%
X184600000Y-48500000D03*
%TD*%
D14*
%TO.P,D10,2*%
%TO.N,Net-(D10-Pad2)*%
X182260000Y-42600000D03*
D15*
%TO.P,D10,1*%
%TO.N,SW3*%
X184800000Y-42600000D03*
%TD*%
D11*
%TO.P,U17,4*%
%TO.N,10*%
X161380000Y-94000000D03*
%TO.P,U17,2*%
%TO.N,Net-(R42-Pad2)*%
X169000000Y-91460000D03*
%TO.P,U17,3*%
%TO.N,GND*%
X161380000Y-91460000D03*
D12*
%TO.P,U17,1*%
%TO.N,+24V*%
X169000000Y-94000000D03*
%TD*%
D11*
%TO.P,R42,2*%
%TO.N,Net-(R42-Pad2)*%
X171580000Y-91400000D03*
D13*
%TO.P,R42,1*%
%TO.N,Net-(D4-Pad2)*%
X179200000Y-91400000D03*
%TD*%
D14*
%TO.P,D4,2*%
%TO.N,Net-(D4-Pad2)*%
X182260000Y-91400000D03*
D15*
%TO.P,D4,1*%
%TO.N,SW2*%
X184800000Y-91400000D03*
%TD*%
D16*
%TO.P,J3,2*%
%TO.N,GND*%
X117600000Y-133520000D03*
%TO.P,J3,1*%
%TO.N,Net-(J1-Pad1)*%
%TA.AperFunction,ComponentPad*%
G36*
G01*
X119150000Y-139500000D02*
X116050000Y-139500000D01*
G75*
G02*
X115800000Y-139250000I0J250000D01*
G01*
X115800000Y-137950000D01*
G75*
G02*
X116050000Y-137700000I250000J0D01*
G01*
X119150000Y-137700000D01*
G75*
G02*
X119400000Y-137950000I0J-250000D01*
G01*
X119400000Y-139250000D01*
G75*
G02*
X119150000Y-139500000I-250000J0D01*
G01*
G37*
%TD.AperFunction*%
%TD*%
D17*
%TO.P,C3,2*%
%TO.N,GND*%
X113500000Y-128000000D03*
D18*
%TO.P,C3,1*%
%TO.N,+12V*%
X113500000Y-124200000D03*
%TD*%
D11*
%TO.P,U16,4*%
%TO.N,Net-(R41-Pad1)*%
X176500000Y-111720000D03*
%TO.P,U16,2*%
%TO.N,GND*%
X173960000Y-104100000D03*
%TO.P,U16,3*%
%TO.N,Net-(Q9-Pad1)*%
X173960000Y-111720000D03*
D12*
%TO.P,U16,1*%
%TO.N,Net-(R40-Pad2)*%
X176500000Y-104100000D03*
%TD*%
D11*
%TO.P,U15,4*%
%TO.N,Net-(R38-Pad1)*%
X162040000Y-111720000D03*
%TO.P,U15,2*%
%TO.N,GND*%
X159500000Y-104100000D03*
%TO.P,U15,3*%
%TO.N,Net-(Q8-Pad1)*%
X159500000Y-111720000D03*
D12*
%TO.P,U15,1*%
%TO.N,Net-(R37-Pad2)*%
X162040000Y-104100000D03*
%TD*%
D11*
%TO.P,U14,4*%
%TO.N,Net-(R35-Pad1)*%
X147700000Y-111720000D03*
%TO.P,U14,2*%
%TO.N,GND*%
X145160000Y-104100000D03*
%TO.P,U14,3*%
%TO.N,Net-(Q7-Pad1)*%
X145160000Y-111720000D03*
D12*
%TO.P,U14,1*%
%TO.N,Net-(R34-Pad2)*%
X147700000Y-104100000D03*
%TD*%
D11*
%TO.P,U2,4*%
%TO.N,Net-(R32-Pad1)*%
X135700000Y-111720000D03*
%TO.P,U2,2*%
%TO.N,GND*%
X133160000Y-104100000D03*
%TO.P,U2,3*%
%TO.N,Net-(Q6-Pad1)*%
X133160000Y-111720000D03*
D12*
%TO.P,U2,1*%
%TO.N,Net-(R31-Pad2)*%
X135700000Y-104100000D03*
%TD*%
D11*
%TO.P,R41,2*%
%TO.N,VCC*%
X180100000Y-104080000D03*
D13*
%TO.P,R41,1*%
%TO.N,Net-(R41-Pad1)*%
X180100000Y-111700000D03*
%TD*%
D11*
%TO.P,R40,2*%
%TO.N,Net-(R40-Pad2)*%
X180420000Y-100400000D03*
D13*
%TO.P,R40,1*%
%TO.N,8*%
X172800000Y-100400000D03*
%TD*%
D11*
%TO.P,R39,2*%
%TO.N,GND1*%
X173800000Y-123020000D03*
D13*
%TO.P,R39,1*%
%TO.N,Net-(Q9-Pad1)*%
X173800000Y-115400000D03*
%TD*%
D11*
%TO.P,R38,2*%
%TO.N,VCC*%
X165500000Y-104080000D03*
D13*
%TO.P,R38,1*%
%TO.N,Net-(R38-Pad1)*%
X165500000Y-111700000D03*
%TD*%
D11*
%TO.P,R37,2*%
%TO.N,Net-(R37-Pad2)*%
X165820000Y-100300000D03*
D13*
%TO.P,R37,1*%
%TO.N,6*%
X158200000Y-100300000D03*
%TD*%
D11*
%TO.P,R36,2*%
%TO.N,GND1*%
X159300000Y-123020000D03*
D13*
%TO.P,R36,1*%
%TO.N,Net-(Q8-Pad1)*%
X159300000Y-115400000D03*
%TD*%
D11*
%TO.P,R35,2*%
%TO.N,VCC*%
X151300000Y-104080000D03*
D13*
%TO.P,R35,1*%
%TO.N,Net-(R35-Pad1)*%
X151300000Y-111700000D03*
%TD*%
D11*
%TO.P,R34,2*%
%TO.N,Net-(R34-Pad2)*%
X151620000Y-100300000D03*
D13*
%TO.P,R34,1*%
%TO.N,4*%
X144000000Y-100300000D03*
%TD*%
D11*
%TO.P,R33,2*%
%TO.N,GND1*%
X145100000Y-123020000D03*
D13*
%TO.P,R33,1*%
%TO.N,Net-(Q7-Pad1)*%
X145100000Y-115400000D03*
%TD*%
D11*
%TO.P,R32,2*%
%TO.N,VCC*%
X139300000Y-104080000D03*
D13*
%TO.P,R32,1*%
%TO.N,Net-(R32-Pad1)*%
X139300000Y-111700000D03*
%TD*%
D11*
%TO.P,R31,2*%
%TO.N,Net-(R31-Pad2)*%
X139720000Y-100300000D03*
D13*
%TO.P,R31,1*%
%TO.N,5*%
X132100000Y-100300000D03*
%TD*%
D11*
%TO.P,R30,2*%
%TO.N,GND1*%
X129700000Y-122920000D03*
D13*
%TO.P,R30,1*%
%TO.N,Net-(Q6-Pad1)*%
X129700000Y-115300000D03*
%TD*%
D19*
%TO.P,Q9,3*%
%TO.N,GND1*%
X177300000Y-121780000D03*
%TO.P,Q9,2*%
%TO.N,SOL5*%
X177300000Y-119240000D03*
D20*
%TO.P,Q9,1*%
%TO.N,Net-(Q9-Pad1)*%
X177300000Y-116700000D03*
%TD*%
D19*
%TO.P,Q8,3*%
%TO.N,GND1*%
X162700000Y-121980000D03*
%TO.P,Q8,2*%
%TO.N,SOL6*%
X162700000Y-119440000D03*
D20*
%TO.P,Q8,1*%
%TO.N,Net-(Q8-Pad1)*%
X162700000Y-116900000D03*
%TD*%
D19*
%TO.P,Q7,3*%
%TO.N,GND1*%
X148600000Y-121880000D03*
%TO.P,Q7,2*%
%TO.N,SOL7*%
X148600000Y-119340000D03*
D20*
%TO.P,Q7,1*%
%TO.N,Net-(Q7-Pad1)*%
X148600000Y-116800000D03*
%TD*%
D19*
%TO.P,Q6,3*%
%TO.N,GND1*%
X133100000Y-121980000D03*
%TO.P,Q6,2*%
%TO.N,SOL8*%
X133100000Y-119440000D03*
D20*
%TO.P,Q6,1*%
%TO.N,Net-(Q6-Pad1)*%
X133100000Y-116900000D03*
%TD*%
D21*
%TO.P,J5,5*%
%TO.N,GND*%
X148400000Y-71000000D03*
%TO.P,J5,4*%
%TO.N,ENC1*%
X148400000Y-68500000D03*
%TO.P,J5,3*%
%TO.N,ENC3*%
X148400000Y-66000000D03*
%TO.P,J5,2*%
%TO.N,ENC2*%
X148400000Y-63500000D03*
%TO.P,J5,1*%
%TO.N,ENC4*%
%TA.AperFunction,ComponentPad*%
G36*
G01*
X147694000Y-60000000D02*
X149106000Y-60000000D01*
G75*
G02*
X149400000Y-60294000I0J-294000D01*
G01*
X149400000Y-61706000D01*
G75*
G02*
X149106000Y-62000000I-294000J0D01*
G01*
X147694000Y-62000000D01*
G75*
G02*
X147400000Y-61706000I0J294000D01*
G01*
X147400000Y-60294000D01*
G75*
G02*
X147694000Y-60000000I294000J0D01*
G01*
G37*
%TD.AperFunction*%
%TD*%
D11*
%TO.P,R29,2*%
%TO.N,GND1*%
X174000000Y-155220000D03*
D13*
%TO.P,R29,1*%
%TO.N,Net-(Q1-Pad1)*%
X174000000Y-147600000D03*
%TD*%
D11*
%TO.P,R28,2*%
%TO.N,GND1*%
X159400000Y-155220000D03*
D13*
%TO.P,R28,1*%
%TO.N,Net-(Q3-Pad1)*%
X159400000Y-147600000D03*
%TD*%
D11*
%TO.P,R27,2*%
%TO.N,GND1*%
X145200000Y-155220000D03*
D13*
%TO.P,R27,1*%
%TO.N,Net-(Q2-Pad1)*%
X145200000Y-147600000D03*
%TD*%
D11*
%TO.P,R26,2*%
%TO.N,GND1*%
X129200000Y-155220000D03*
D13*
%TO.P,R26,1*%
%TO.N,Net-(Q4-Pad1)*%
X129200000Y-147600000D03*
%TD*%
D11*
%TO.P,U13,4*%
%TO.N,Net-(R24-Pad1)*%
X176600000Y-143820000D03*
%TO.P,U13,2*%
%TO.N,GND*%
X174060000Y-136200000D03*
%TO.P,U13,3*%
%TO.N,Net-(Q1-Pad1)*%
X174060000Y-143820000D03*
D12*
%TO.P,U13,1*%
%TO.N,Net-(R23-Pad2)*%
X176600000Y-136200000D03*
%TD*%
D11*
%TO.P,R24,2*%
%TO.N,VCC*%
X180000000Y-136180000D03*
D13*
%TO.P,R24,1*%
%TO.N,Net-(R24-Pad1)*%
X180000000Y-143800000D03*
%TD*%
D11*
%TO.P,R23,2*%
%TO.N,Net-(R23-Pad2)*%
X180520000Y-132000000D03*
D13*
%TO.P,R23,1*%
%TO.N,Q4*%
X172900000Y-132000000D03*
%TD*%
D11*
%TO.P,U12,4*%
%TO.N,Net-(R18-Pad1)*%
X162000000Y-143820000D03*
%TO.P,U12,2*%
%TO.N,GND*%
X159460000Y-136200000D03*
%TO.P,U12,3*%
%TO.N,Net-(Q3-Pad1)*%
X159460000Y-143820000D03*
D12*
%TO.P,U12,1*%
%TO.N,Net-(R17-Pad2)*%
X162000000Y-136200000D03*
%TD*%
D11*
%TO.P,R18,2*%
%TO.N,VCC*%
X165400000Y-136180000D03*
D13*
%TO.P,R18,1*%
%TO.N,Net-(R18-Pad1)*%
X165400000Y-143800000D03*
%TD*%
D11*
%TO.P,R17,2*%
%TO.N,Net-(R17-Pad2)*%
X165820000Y-132000000D03*
D13*
%TO.P,R17,1*%
%TO.N,Q5*%
X158200000Y-132000000D03*
%TD*%
D11*
%TO.P,U11,4*%
%TO.N,Net-(R16-Pad1)*%
X147600000Y-143820000D03*
%TO.P,U11,2*%
%TO.N,GND*%
X145060000Y-136200000D03*
%TO.P,U11,3*%
%TO.N,Net-(Q2-Pad1)*%
X145060000Y-143820000D03*
D12*
%TO.P,U11,1*%
%TO.N,Net-(R15-Pad2)*%
X147600000Y-136200000D03*
%TD*%
D11*
%TO.P,R16,2*%
%TO.N,VCC*%
X151200000Y-136180000D03*
D13*
%TO.P,R16,1*%
%TO.N,Net-(R16-Pad1)*%
X151200000Y-143800000D03*
%TD*%
D11*
%TO.P,R15,2*%
%TO.N,Net-(R15-Pad2)*%
X151720000Y-132000000D03*
D13*
%TO.P,R15,1*%
%TO.N,Q6*%
X144100000Y-132000000D03*
%TD*%
D19*
%TO.P,Q4,3*%
%TO.N,GND1*%
X133000000Y-153880000D03*
%TO.P,Q4,2*%
%TO.N,SOL4*%
X133000000Y-151340000D03*
D20*
%TO.P,Q4,1*%
%TO.N,Net-(Q4-Pad1)*%
X133000000Y-148800000D03*
%TD*%
D11*
%TO.P,R14,2*%
%TO.N,VCC*%
X135600000Y-136180000D03*
D13*
%TO.P,R14,1*%
%TO.N,Net-(R14-Pad1)*%
X135600000Y-143800000D03*
%TD*%
D11*
%TO.P,U10,4*%
%TO.N,Net-(R14-Pad1)*%
X132000000Y-143820000D03*
%TO.P,U10,2*%
%TO.N,GND*%
X129460000Y-136200000D03*
%TO.P,U10,3*%
%TO.N,Net-(Q4-Pad1)*%
X129460000Y-143820000D03*
D12*
%TO.P,U10,1*%
%TO.N,Net-(R10-Pad2)*%
X132000000Y-136200000D03*
%TD*%
D11*
%TO.P,R10,2*%
%TO.N,Net-(R10-Pad2)*%
X136020000Y-132000000D03*
D13*
%TO.P,R10,1*%
%TO.N,Q7*%
X128400000Y-132000000D03*
%TD*%
D19*
%TO.P,Q3,3*%
%TO.N,GND1*%
X162600000Y-153880000D03*
%TO.P,Q3,2*%
%TO.N,SOL2*%
X162600000Y-151340000D03*
D20*
%TO.P,Q3,1*%
%TO.N,Net-(Q3-Pad1)*%
X162600000Y-148800000D03*
%TD*%
D19*
%TO.P,Q2,3*%
%TO.N,GND1*%
X148400000Y-153880000D03*
%TO.P,Q2,2*%
%TO.N,SOL3*%
X148400000Y-151340000D03*
D20*
%TO.P,Q2,1*%
%TO.N,Net-(Q2-Pad1)*%
X148400000Y-148800000D03*
%TD*%
D19*
%TO.P,Q1,3*%
%TO.N,GND1*%
X177200000Y-154080000D03*
%TO.P,Q1,2*%
%TO.N,SOL1*%
X177200000Y-151540000D03*
D20*
%TO.P,Q1,1*%
%TO.N,Net-(Q1-Pad1)*%
X177200000Y-149000000D03*
%TD*%
D11*
%TO.P,U9,4*%
%TO.N,12*%
X161380000Y-87500000D03*
%TO.P,U9,2*%
%TO.N,Net-(R9-Pad2)*%
X169000000Y-84960000D03*
%TO.P,U9,3*%
%TO.N,GND*%
X161380000Y-84960000D03*
D12*
%TO.P,U9,1*%
%TO.N,+24V*%
X169000000Y-87500000D03*
%TD*%
D11*
%TO.P,R9,2*%
%TO.N,Net-(R9-Pad2)*%
X171580000Y-84900000D03*
D13*
%TO.P,R9,1*%
%TO.N,Net-(D9-Pad2)*%
X179200000Y-84900000D03*
%TD*%
D14*
%TO.P,D9,2*%
%TO.N,Net-(D9-Pad2)*%
X182260000Y-84900000D03*
D15*
%TO.P,D9,1*%
%TO.N,SW1*%
X184800000Y-84900000D03*
%TD*%
D22*
%TO.P,J7,5*%
%TO.N,GND*%
X128500000Y-40800000D03*
%TO.P,J7,4*%
%TO.N,Net-(J7-Pad4)*%
X128500000Y-43300000D03*
%TO.P,J7,3*%
%TO.N,Net-(J7-Pad3)*%
X128500000Y-45800000D03*
%TO.P,J7,2*%
%TO.N,Net-(J7-Pad2)*%
X128500000Y-48300000D03*
%TO.P,J7,1*%
%TO.N,Net-(J7-Pad1)*%
%TA.AperFunction,ComponentPad*%
G36*
G01*
X129225000Y-51650000D02*
X127775000Y-51650000D01*
G75*
G02*
X127525000Y-51400000I0J250000D01*
G01*
X127525000Y-50200000D01*
G75*
G02*
X127775000Y-49950000I250000J0D01*
G01*
X129225000Y-49950000D01*
G75*
G02*
X129475000Y-50200000I0J-250000D01*
G01*
X129475000Y-51400000D01*
G75*
G02*
X129225000Y-51650000I-250000J0D01*
G01*
G37*
%TD.AperFunction*%
%TD*%
D23*
%TO.P,D2,2*%
%TO.N,Net-(D2-Pad2)*%
X125040000Y-146300000D03*
D24*
%TO.P,D2,1*%
%TO.N,+48V*%
X109800000Y-146300000D03*
%TD*%
D14*
%TO.P,D8,2*%
%TO.N,Net-(D8-Pad2)*%
X182060000Y-78900000D03*
D15*
%TO.P,D8,1*%
%TO.N,B2*%
X184600000Y-78900000D03*
%TD*%
D14*
%TO.P,D7,2*%
%TO.N,Net-(D7-Pad2)*%
X181860000Y-72700000D03*
D15*
%TO.P,D7,1*%
%TO.N,A2*%
X184400000Y-72700000D03*
%TD*%
D14*
%TO.P,D6,2*%
%TO.N,Net-(D6-Pad2)*%
X182060000Y-66700000D03*
D15*
%TO.P,D6,1*%
%TO.N,B1*%
X184600000Y-66700000D03*
%TD*%
D11*
%TO.P,R8,2*%
%TO.N,Net-(R8-Pad2)*%
X171380000Y-78700000D03*
D13*
%TO.P,R8,1*%
%TO.N,Net-(D8-Pad2)*%
X179000000Y-78700000D03*
%TD*%
D11*
%TO.P,R7,2*%
%TO.N,Net-(R7-Pad2)*%
X171380000Y-72700000D03*
D13*
%TO.P,R7,1*%
%TO.N,Net-(D7-Pad2)*%
X179000000Y-72700000D03*
%TD*%
D11*
%TO.P,R6,2*%
%TO.N,Net-(R6-Pad2)*%
X171380000Y-66700000D03*
D13*
%TO.P,R6,1*%
%TO.N,Net-(D6-Pad2)*%
X179000000Y-66700000D03*
%TD*%
D11*
%TO.P,R5,2*%
%TO.N,Net-(R5-Pad2)*%
X171380000Y-60700000D03*
D13*
%TO.P,R5,1*%
%TO.N,Net-(D5-Pad2)*%
X179000000Y-60700000D03*
%TD*%
D14*
%TO.P,D5,2*%
%TO.N,Net-(D5-Pad2)*%
X182060000Y-60700000D03*
D15*
%TO.P,D5,1*%
%TO.N,A1*%
X184600000Y-60700000D03*
%TD*%
D11*
%TO.P,U8,4*%
%TO.N,ENC1*%
X161380000Y-81300000D03*
%TO.P,U8,2*%
%TO.N,Net-(R8-Pad2)*%
X169000000Y-78760000D03*
%TO.P,U8,3*%
%TO.N,GND*%
X161380000Y-78760000D03*
D12*
%TO.P,U8,1*%
%TO.N,+24V*%
X169000000Y-81300000D03*
%TD*%
D11*
%TO.P,U7,4*%
%TO.N,ENC3*%
X161380000Y-75300000D03*
%TO.P,U7,2*%
%TO.N,Net-(R7-Pad2)*%
X169000000Y-72760000D03*
%TO.P,U7,3*%
%TO.N,GND*%
X161380000Y-72760000D03*
D12*
%TO.P,U7,1*%
%TO.N,+24V*%
X169000000Y-75300000D03*
%TD*%
D11*
%TO.P,U5,4*%
%TO.N,ENC2*%
X161380000Y-69300000D03*
%TO.P,U5,2*%
%TO.N,Net-(R6-Pad2)*%
X169000000Y-66760000D03*
%TO.P,U5,3*%
%TO.N,GND*%
X161380000Y-66760000D03*
D12*
%TO.P,U5,1*%
%TO.N,+24V*%
X169000000Y-69300000D03*
%TD*%
D11*
%TO.P,U4,4*%
%TO.N,ENC4*%
X161380000Y-63300000D03*
%TO.P,U4,2*%
%TO.N,Net-(R5-Pad2)*%
X169000000Y-60760000D03*
%TO.P,U4,3*%
%TO.N,GND*%
X161380000Y-60760000D03*
D12*
%TO.P,U4,1*%
%TO.N,+24V*%
X169000000Y-63300000D03*
%TD*%
D21*
%TO.P,R25,2*%
%TO.N,GND*%
X82200000Y-114840000D03*
D17*
%TO.P,R25,1*%
%TO.N,E*%
X82200000Y-99600000D03*
%TD*%
%TO.P,LCD1,*%
%TO.N,*%
X110299080Y-42901980D03*
X79300920Y-42901980D03*
X110299080Y-117898020D03*
X79300920Y-117898020D03*
%TO.P,LCD1,16*%
%TO.N,LED-*%
X79300920Y-74301460D03*
%TO.P,LCD1,15*%
%TO.N,VCC*%
X79300920Y-76841460D03*
%TO.P,LCD1,14*%
%TO.N,D7*%
X79300920Y-79381460D03*
%TO.P,LCD1,13*%
%TO.N,D6*%
X79300920Y-81918920D03*
%TO.P,LCD1,12*%
%TO.N,D5*%
X79300920Y-84458920D03*
%TO.P,LCD1,11*%
%TO.N,D4*%
X79300920Y-86998920D03*
%TO.P,LCD1,10*%
%TO.N,N/C*%
X79300920Y-89538920D03*
%TO.P,LCD1,9*%
X79300920Y-92078920D03*
%TO.P,LCD1,8*%
X79300920Y-94618920D03*
%TO.P,LCD1,7*%
X79300920Y-97158920D03*
%TO.P,LCD1,6*%
%TO.N,E*%
X79300920Y-99698920D03*
%TO.P,LCD1,5*%
%TO.N,GND*%
X79300920Y-102238920D03*
%TO.P,LCD1,4*%
%TO.N,RS*%
X79300920Y-104778920D03*
%TO.P,LCD1,3*%
%TO.N,Net-(LCD1-Pad3)*%
X79300920Y-107318920D03*
%TO.P,LCD1,2*%
%TO.N,VCC*%
X79300920Y-109858920D03*
D25*
%TO.P,LCD1,1*%
%TO.N,GND*%
X79300920Y-112398920D03*
%TD*%
D21*
%TO.P,J4,7*%
%TO.N,5*%
X133000000Y-83800000D03*
%TO.P,J4,6*%
%TO.N,4*%
X133000000Y-81300000D03*
%TO.P,J4,5*%
%TO.N,6*%
X133000000Y-78800000D03*
%TO.P,J4,4*%
%TO.N,8*%
X133000000Y-76300000D03*
%TO.P,J4,3*%
%TO.N,10*%
X133000000Y-73800000D03*
%TO.P,J4,2*%
%TO.N,12*%
X133000000Y-71300000D03*
%TO.P,J4,1*%
%TO.N,GND*%
%TA.AperFunction,ComponentPad*%
G36*
G01*
X132294000Y-67800000D02*
X133706000Y-67800000D01*
G75*
G02*
X134000000Y-68094000I0J-294000D01*
G01*
X134000000Y-69506000D01*
G75*
G02*
X133706000Y-69800000I-294000J0D01*
G01*
X132294000Y-69800000D01*
G75*
G02*
X132000000Y-69506000I0J294000D01*
G01*
X132000000Y-68094000D01*
G75*
G02*
X132294000Y-67800000I294000J0D01*
G01*
G37*
%TD.AperFunction*%
%TD*%
D18*
%TO.P,R22,2*%
%TO.N,GND*%
X90020000Y-71200000D03*
D17*
%TO.P,R22,1*%
%TO.N,LED-*%
X82400000Y-71200000D03*
%TD*%
%TO.P,R21,2*%
%TO.N,Net-(Q5-Pad3)*%
X79400000Y-63580000D03*
%TO.P,R21,1*%
%TO.N,LED-*%
X79400000Y-71200000D03*
%TD*%
D18*
%TO.P,R20,2*%
%TO.N,BKLED*%
X90020000Y-68000000D03*
D17*
%TO.P,R20,1*%
%TO.N,Net-(Q5-Pad2)*%
X82400000Y-68000000D03*
%TD*%
D18*
%TO.P,Q5,1*%
%TO.N,GND*%
X87400000Y-63600000D03*
D17*
%TO.P,Q5,3*%
%TO.N,Net-(Q5-Pad3)*%
X82320000Y-63600000D03*
%TO.P,Q5,2*%
%TO.N,Net-(Q5-Pad2)*%
X84860000Y-63600000D03*
%TD*%
%TO.P,C7,2*%
%TO.N,GND*%
X92800000Y-38100000D03*
%TO.P,C7,1*%
%TO.N,VCC*%
X97800000Y-38100000D03*
%TD*%
%TO.P,C6,2*%
%TO.N,GND*%
X92400000Y-54400000D03*
%TO.P,C6,1*%
%TO.N,+12V*%
X97400000Y-54400000D03*
%TD*%
D21*
%TO.P,U6,3*%
%TO.N,VCC*%
X95700000Y-44010000D03*
D19*
%TO.P,U6,2*%
%TO.N,GND*%
X95700000Y-46550000D03*
D20*
%TO.P,U6,1*%
%TO.N,+12V*%
X95700000Y-49090000D03*
%TD*%
D21*
%TO.P,R19,2*%
%TO.N,N/C*%
X110200000Y-105620000D03*
%TO.P,R19,1*%
%TO.N,ADC5*%
X110200000Y-98000000D03*
%TD*%
D17*
%TO.P,C5,2*%
%TO.N,GND*%
X94600000Y-107400000D03*
D26*
%TO.P,C5,1*%
%TO.N,ADC5*%
X96600000Y-107400000D03*
%TD*%
D21*
%TO.P,R13,2*%
%TO.N,N/C*%
X107000000Y-105620000D03*
%TO.P,R13,1*%
%TO.N,ADC7*%
X107000000Y-98000000D03*
%TD*%
D17*
%TO.P,C4,2*%
%TO.N,GND*%
X94600000Y-102600000D03*
D26*
%TO.P,C4,1*%
%TO.N,ADC7*%
X96600000Y-102600000D03*
%TD*%
D21*
%TO.P,R12,2*%
%TO.N,N/C*%
X144020000Y-37200000D03*
%TO.P,R12,1*%
%TO.N,Net-(LS1-Pad-)*%
X136400000Y-37200000D03*
%TD*%
D17*
%TO.P,LS1,-*%
%TO.N,Net-(LS1-Pad-)*%
X137151340Y-45000000D03*
%TO.P,LS1,+*%
%TO.N,+12V*%
X143648660Y-45000000D03*
%TD*%
D11*
%TO.P,R11,2*%
%TO.N,GND*%
X75200000Y-100580000D03*
D13*
%TO.P,R11,1*%
%TO.N,Net-(LCD1-Pad3)*%
X75200000Y-108200000D03*
%TD*%
D21*
%TO.P,R4,2*%
%TO.N,Net-(R4-Pad2)*%
X89480000Y-147600000D03*
D17*
%TO.P,R4,1*%
%TO.N,GND*%
X97100000Y-147600000D03*
%TD*%
D21*
%TO.P,RV1,3*%
%TO.N,+12V*%
X81220000Y-153400000D03*
%TO.P,RV1,2*%
%TO.N,Net-(R2-Pad2)*%
X83760000Y-153400000D03*
%TO.P,RV1,1*%
%TO.N,Net-(R4-Pad2)*%
X86300000Y-153400000D03*
%TD*%
%TO.P,D3,2*%
%TO.N,Net-(D3-Pad2)*%
X93280000Y-119300000D03*
D18*
%TO.P,D3,1*%
%TO.N,+12V*%
X100900000Y-119300000D03*
%TD*%
D21*
%TO.P,R3,2*%
%TO.N,+12V*%
X89400000Y-159000000D03*
D17*
%TO.P,R3,1*%
%TO.N,+48V*%
X76700000Y-159000000D03*
%TD*%
D21*
%TO.P,R2,2*%
%TO.N,Net-(R2-Pad2)*%
X89480000Y-151400000D03*
D17*
%TO.P,R2,1*%
%TO.N,+12V*%
X97100000Y-151400000D03*
%TD*%
%TO.P,C2,2*%
%TO.N,GND*%
X102149680Y-151400000D03*
D27*
%TO.P,C2,1*%
%TO.N,+12V*%
X99650320Y-151400000D03*
%TD*%
D21*
%TO.P,R1,2*%
%TO.N,+48V*%
X78340000Y-143200000D03*
D17*
%TO.P,R1,1*%
%TO.N,Net-(C1-Pad2)*%
X88500000Y-143200000D03*
%TD*%
D16*
%TO.P,J2,12*%
%TO.N,SW6*%
X192000000Y-35120000D03*
%TO.P,J2,11*%
%TO.N,SW3*%
X192000000Y-40200000D03*
%TO.P,J2,10*%
%TO.N,SW4*%
X192000000Y-45280000D03*
%TO.P,J2,9*%
%TO.N,SW5*%
X192000000Y-50360000D03*
%TO.P,J2,8*%
%TO.N,A1*%
X192000000Y-55440000D03*
%TO.P,J2,7*%
%TO.N,B1*%
X192000000Y-60520000D03*
%TO.P,J2,6*%
%TO.N,A2*%
X192000000Y-65600000D03*
%TO.P,J2,5*%
%TO.N,B2*%
X192000000Y-70680000D03*
%TO.P,J2,4*%
%TO.N,SW1*%
X192000000Y-75760000D03*
%TO.P,J2,3*%
%TO.N,SW2*%
X192000000Y-80840000D03*
%TO.P,J2,2*%
%TO.N,+24V*%
X192000000Y-85920000D03*
%TO.P,J2,1*%
%TO.N,GND1*%
%TA.AperFunction,ComponentPad*%
G36*
G01*
X193550000Y-91900000D02*
X190450000Y-91900000D01*
G75*
G02*
X190200000Y-91650000I0J250000D01*
G01*
X190200000Y-90350000D01*
G75*
G02*
X190450000Y-90100000I250000J0D01*
G01*
X193550000Y-90100000D01*
G75*
G02*
X193800000Y-90350000I0J-250000D01*
G01*
X193800000Y-91650000D01*
G75*
G02*
X193550000Y-91900000I-250000J0D01*
G01*
G37*
%TD.AperFunction*%
%TD*%
%TO.P,J1,12*%
%TO.N,N/C*%
X192000000Y-100920000D03*
%TO.P,J1,11*%
X192000000Y-106000000D03*
%TO.P,J1,10*%
%TO.N,SOL8*%
X192000000Y-111080000D03*
%TO.P,J1,9*%
%TO.N,SOL7*%
X192000000Y-116160000D03*
%TO.P,J1,8*%
%TO.N,SOL6*%
X192000000Y-121240000D03*
%TO.P,J1,7*%
%TO.N,SOL5*%
X192000000Y-126320000D03*
%TO.P,J1,6*%
%TO.N,SOL4*%
X192000000Y-131400000D03*
%TO.P,J1,5*%
%TO.N,SOL3*%
X192000000Y-136480000D03*
%TO.P,J1,4*%
%TO.N,SOL2*%
X192000000Y-141560000D03*
%TO.P,J1,3*%
%TO.N,SOL1*%
X192000000Y-146640000D03*
%TO.P,J1,2*%
%TO.N,Net-(D2-Pad2)*%
X192000000Y-151720000D03*
%TO.P,J1,1*%
%TO.N,Net-(J1-Pad1)*%
%TA.AperFunction,ComponentPad*%
G36*
G01*
X193550000Y-157700000D02*
X190450000Y-157700000D01*
G75*
G02*
X190200000Y-157450000I0J250000D01*
G01*
X190200000Y-156150000D01*
G75*
G02*
X190450000Y-155900000I250000J0D01*
G01*
X193550000Y-155900000D01*
G75*
G02*
X193800000Y-156150000I0J-250000D01*
G01*
X193800000Y-157450000D01*
G75*
G02*
X193550000Y-157700000I-250000J0D01*
G01*
G37*
%TD.AperFunction*%
%TD*%
D21*
%TO.P,D1,2*%
%TO.N,Net-(D1-Pad2)*%
X102920000Y-143200000D03*
D18*
%TO.P,D1,1*%
%TO.N,Net-(C1-Pad2)*%
X95300000Y-143200000D03*
%TD*%
D17*
%TO.P,C1,2*%
%TO.N,Net-(C1-Pad2)*%
X86500000Y-147600000D03*
%TO.P,C1,1*%
%TO.N,+48V*%
X81500000Y-147600000D03*
%TD*%
D28*
%TO.P,TX1,P$5*%
%TO.N,GND*%
X102920000Y-124250000D03*
%TO.P,TX1,P$4*%
%TO.N,Net-(D1-Pad2)*%
X102920000Y-136950000D03*
%TO.P,TX1,P$8*%
%TO.N,Net-(D3-Pad2)*%
X87680000Y-124250000D03*
%TO.P,TX1,P$1*%
%TO.N,+48V*%
X87680000Y-136950000D03*
%TO.P,TX1,P$6*%
%TO.N,+12V*%
X97840000Y-124250000D03*
%TO.P,TX1,P$3*%
%TO.N,GND*%
X97840000Y-136950000D03*
%TO.P,TX1,P$7*%
%TO.N,+48V*%
X92760000Y-124250000D03*
%TO.P,TX1,P$2*%
%TO.N,+12V*%
X92760000Y-136950000D03*
%TD*%
D29*
%TO.P,U3,4*%
%TO.N,Net-(R2-Pad2)*%
X93280000Y-156000000D03*
%TO.P,U3,3*%
%TO.N,+12V*%
X95820000Y-156000000D03*
%TO.P,U3,2*%
%TO.N,Net-(D1-Pad2)*%
X98360000Y-156000000D03*
D30*
%TO.P,U3,1*%
%TO.N,GND*%
X100900000Y-156000000D03*
%TD*%
D21*
%TO.P,U1,56*%
%TO.N,ADC5*%
X109460000Y-94830000D03*
%TO.P,U1,63*%
%TO.N,GND*%
X119620000Y-92290000D03*
%TO.P,U1,64*%
%TO.N,VCC*%
X119620000Y-94830000D03*
%TO.P,U1,61*%
%TO.N,Q4*%
X117080000Y-92290000D03*
%TO.P,U1,62*%
%TO.N,N/C*%
X117080000Y-94830000D03*
%TO.P,U1,59*%
%TO.N,Q5*%
X114540000Y-92290000D03*
%TO.P,U1,60*%
%TO.N,Q6*%
X114540000Y-94830000D03*
%TO.P,U1,57*%
%TO.N,N/C*%
X112000000Y-92290000D03*
%TO.P,U1,58*%
%TO.N,Q7*%
X112000000Y-94830000D03*
%TO.P,U1,55*%
%TO.N,N/C*%
X109460000Y-92290000D03*
%TO.P,U1,53*%
%TO.N,GND*%
X106920000Y-92290000D03*
%TO.P,U1,54*%
%TO.N,ADC7*%
X106920000Y-94830000D03*
%TO.P,U1,52*%
%TO.N,VCC*%
X104380000Y-94830000D03*
%TO.P,U1,49*%
%TO.N,RS*%
X101840000Y-92290000D03*
%TO.P,U1,50*%
%TO.N,N/C*%
X101840000Y-94830000D03*
%TO.P,U1,51*%
%TO.N,E*%
X104380000Y-92290000D03*
%TO.P,U1,34*%
%TO.N,N/C*%
X94220000Y-66890000D03*
%TO.P,U1,33*%
X96760000Y-66890000D03*
%TO.P,U1,36*%
X94220000Y-69430000D03*
%TO.P,U1,35*%
X96760000Y-69430000D03*
%TO.P,U1,38*%
X94220000Y-71970000D03*
%TO.P,U1,37*%
X96760000Y-71970000D03*
%TO.P,U1,40*%
%TO.N,BKLED*%
X94220000Y-74510000D03*
%TO.P,U1,39*%
%TO.N,N/C*%
X96760000Y-74510000D03*
%TO.P,U1,42*%
X94220000Y-77050000D03*
%TO.P,U1,41*%
X96760000Y-77050000D03*
%TO.P,U1,44*%
%TO.N,D7*%
X94220000Y-79590000D03*
%TO.P,U1,43*%
%TO.N,N/C*%
X96760000Y-79590000D03*
%TO.P,U1,46*%
%TO.N,D5*%
X94220000Y-82130000D03*
%TO.P,U1,45*%
%TO.N,D6*%
X96760000Y-82130000D03*
%TO.P,U1,48*%
%TO.N,N/C*%
X94220000Y-84670000D03*
%TO.P,U1,47*%
%TO.N,D4*%
X96760000Y-84670000D03*
%TO.P,U1,2*%
%TO.N,N/C*%
X127240000Y-84670000D03*
D18*
%TO.P,U1,1*%
X124700000Y-84670000D03*
D21*
%TO.P,U1,4*%
%TO.N,4*%
X127240000Y-82130000D03*
%TO.P,U1,3*%
%TO.N,N/C*%
X124700000Y-82130000D03*
%TO.P,U1,6*%
%TO.N,6*%
X127240000Y-79590000D03*
%TO.P,U1,5*%
%TO.N,5*%
X124700000Y-79590000D03*
%TO.P,U1,8*%
%TO.N,8*%
X127240000Y-77050000D03*
%TO.P,U1,7*%
%TO.N,7*%
X124700000Y-77050000D03*
%TO.P,U1,10*%
%TO.N,10*%
X127240000Y-74510000D03*
%TO.P,U1,9*%
%TO.N,9*%
X124700000Y-74510000D03*
%TO.P,U1,12*%
%TO.N,12*%
X127240000Y-71970000D03*
%TO.P,U1,11*%
%TO.N,N/C*%
X124700000Y-71970000D03*
%TO.P,U1,14*%
%TO.N,ENC1*%
X127240000Y-69430000D03*
%TO.P,U1,13*%
%TO.N,N/C*%
X124700000Y-69430000D03*
%TO.P,U1,16*%
%TO.N,ENC3*%
X127240000Y-66890000D03*
%TO.P,U1,15*%
%TO.N,ENC2*%
X124700000Y-66890000D03*
%TO.P,U1,30*%
%TO.N,Net-(J7-Pad3)*%
X104380000Y-54190000D03*
%TO.P,U1,31*%
%TO.N,N/C*%
X101840000Y-56730000D03*
%TO.P,U1,32*%
%TO.N,Net-(J7-Pad4)*%
X101840000Y-54190000D03*
%TO.P,U1,29*%
%TO.N,N/C*%
X104380000Y-56730000D03*
%TO.P,U1,27*%
X106920000Y-56730000D03*
%TO.P,U1,28*%
%TO.N,Net-(J7-Pad2)*%
X106920000Y-54190000D03*
%TO.P,U1,25*%
%TO.N,N/C*%
X109460000Y-56730000D03*
%TO.P,U1,26*%
%TO.N,Net-(J7-Pad1)*%
X109460000Y-54190000D03*
%TO.P,U1,23*%
%TO.N,N/C*%
X112000000Y-56730000D03*
%TO.P,U1,24*%
X112000000Y-54190000D03*
%TO.P,U1,21*%
%TO.N,VCC*%
X114540000Y-56730000D03*
%TO.P,U1,22*%
%TO.N,GND*%
X114540000Y-54190000D03*
%TO.P,U1,19*%
%TO.N,19*%
X117080000Y-56730000D03*
%TO.P,U1,20*%
%TO.N,N/C*%
X117080000Y-54190000D03*
%TO.P,U1,17*%
%TO.N,ENC4*%
X119620000Y-56730000D03*
%TO.P,U1,18*%
%TO.N,18*%
X119620000Y-54190000D03*
%TD*%
D31*
%TO.N,*%
X203700000Y-28700000D03*
X203600000Y-161600000D03*
X71800000Y-161600000D03*
X71700000Y-28700000D03*
D32*
X122600000Y-65200000D03*
X137800000Y-65200000D03*
D33*
%TO.N,GND*%
X121300000Y-59700000D03*
X111200000Y-59800000D03*
D32*
X116600000Y-85400000D03*
X105800000Y-85400000D03*
X120200000Y-72000000D03*
X114600000Y-72000000D03*
D33*
X100240000Y-132460000D03*
X84300000Y-132600000D03*
D32*
X125400000Y-60800000D03*
X137200000Y-60800000D03*
X121600000Y-51900000D03*
X121600000Y-40800000D03*
D33*
X155400000Y-106000000D03*
X155400000Y-90500000D03*
X92400000Y-58900000D03*
X84600000Y-58900000D03*
%TO.N,VCC*%
X117000000Y-100000000D03*
X100600000Y-99850000D03*
D32*
X121800000Y-97400000D03*
X121800000Y-74400000D03*
D33*
X87600000Y-76800000D03*
X87600000Y-108000000D03*
X125500000Y-105500000D03*
X107800000Y-61800000D03*
X114540000Y-61540000D03*
X119800000Y-99800000D03*
X175000000Y-127500000D03*
X183000000Y-101900000D03*
%TO.N,+48V*%
X108300000Y-129100000D03*
X80800000Y-129100000D03*
%TO.N,D6*%
X83200000Y-90800000D03*
X83200000Y-82000000D03*
D32*
%TO.N,ENC4*%
X121530000Y-56730000D03*
X127930000Y-56730000D03*
D31*
%TO.N,SOL1*%
X182200000Y-151600000D03*
D33*
%TO.N,SOL3*%
X154900000Y-140500000D03*
X187699999Y-140399999D03*
%TO.N,SOL2*%
X169500000Y-142100000D03*
X185000000Y-142100000D03*
%TO.N,SOL4*%
X140600000Y-138700000D03*
X184900000Y-138699999D03*
D32*
%TO.N,Q4*%
X114200000Y-87000000D03*
X119800000Y-87000000D03*
%TO.N,Q5*%
X120200000Y-89600000D03*
X114600000Y-89600000D03*
D33*
%TO.N,SOL8*%
X142300000Y-108200000D03*
X187400000Y-108200000D03*
%TO.N,7*%
X156600000Y-51100000D03*
X119100000Y-79700000D03*
%TO.N,9*%
X156300000Y-57200000D03*
D34*
X122300000Y-71100000D03*
D33*
%TO.N,19*%
X118300000Y-62600000D03*
X155900000Y-38800000D03*
%TO.N,18*%
X123390000Y-54190000D03*
X147390000Y-54190000D03*
%TO.N,GND1*%
X140200000Y-154100000D03*
X140000000Y-122600000D03*
%TD*%
D35*
%TO.N,*%
X122600000Y-65200000D02*
X137800000Y-65200000D01*
D36*
%TO.N,GND*%
X116600000Y-85400000D02*
X105800000Y-85400000D01*
X120200000Y-72000000D02*
X114600000Y-72000000D01*
D37*
X100240000Y-132460000D02*
X84440000Y-132460000D01*
X84440000Y-132460000D02*
X84300000Y-132600000D01*
D36*
X125400000Y-60800000D02*
X137200000Y-60800000D01*
D37*
X121600000Y-51900000D02*
X121600000Y-40800000D01*
X155400000Y-106000000D02*
X155400000Y-90500000D01*
D38*
X92400000Y-58900000D02*
X84600000Y-58900000D01*
D37*
X121200000Y-59800000D02*
X121300000Y-59700000D01*
X111200000Y-59800000D02*
X121200000Y-59800000D01*
D38*
%TO.N,VCC*%
X117000000Y-100000000D02*
X100600000Y-100000000D01*
X100600000Y-100000000D02*
X100600000Y-99850000D01*
D35*
X121800000Y-97400000D02*
X121800000Y-77400000D01*
X121800000Y-77400000D02*
X121800000Y-74400000D01*
D38*
X87600000Y-108000000D02*
X87600000Y-76800000D01*
D37*
X114280000Y-61800000D02*
X114540000Y-61540000D01*
X107800000Y-61800000D02*
X114280000Y-61800000D01*
D39*
X125500000Y-105500000D02*
X119800000Y-99800000D01*
D37*
X175000000Y-127500000D02*
X179100000Y-127500000D01*
X179100000Y-127500000D02*
X188300000Y-118300000D01*
X188300000Y-118300000D02*
X188300000Y-110800000D01*
X188300000Y-110800000D02*
X189900000Y-109200000D01*
X189900000Y-109200000D02*
X189900000Y-107400000D01*
X189900000Y-107400000D02*
X187800000Y-105300000D01*
X187800000Y-105300000D02*
X184700000Y-102200000D01*
X184700000Y-102200000D02*
X184400000Y-101900000D01*
X184400000Y-101900000D02*
X183000000Y-101900000D01*
%TO.N,+48V*%
X108300000Y-129100000D02*
X80800000Y-129100000D01*
D39*
%TO.N,D6*%
X83200000Y-90800000D02*
X83200000Y-82000000D01*
D36*
%TO.N,ENC4*%
X121530000Y-56730000D02*
X127930000Y-56730000D01*
D37*
%TO.N,SOL3*%
X155000001Y-140399999D02*
X187699999Y-140399999D01*
X154900000Y-140500000D02*
X155000001Y-140399999D01*
%TO.N,SOL2*%
X169500000Y-142100000D02*
X185000000Y-142100000D01*
%TO.N,SOL4*%
X140600000Y-138700000D02*
X142367767Y-138699999D01*
X142367767Y-138699999D02*
X184900000Y-138699999D01*
D36*
%TO.N,Q4*%
X114200000Y-87000000D02*
X119800000Y-87000000D01*
%TO.N,Q5*%
X119800000Y-89600000D02*
X114600000Y-89600000D01*
D37*
%TO.N,SOL8*%
X142300000Y-108200000D02*
X186800000Y-108200000D01*
D35*
%TO.N,7*%
X156600000Y-51100000D02*
X156600000Y-43100000D01*
X156600000Y-43100000D02*
X158800000Y-40900000D01*
X158800000Y-40900000D02*
X158800000Y-35600000D01*
X158800000Y-35600000D02*
X157800000Y-34600000D01*
X103298002Y-34600000D02*
X98300000Y-39598002D01*
X157800000Y-34600000D02*
X103298002Y-34600000D01*
X98300000Y-39598002D02*
X98300000Y-50200000D01*
X98300000Y-50200000D02*
X94900000Y-53600000D01*
X94900000Y-53600000D02*
X94900000Y-58600000D01*
X116000000Y-79700000D02*
X119100000Y-79700000D01*
X94900000Y-58600000D02*
X116000000Y-79700000D01*
%TO.N,9*%
X154900000Y-58600000D02*
X156300000Y-57200000D01*
X124100000Y-58600000D02*
X154900000Y-58600000D01*
X119100000Y-67900000D02*
X119100000Y-65500000D01*
X122300000Y-71100000D02*
X119100000Y-67900000D01*
X119100000Y-65500000D02*
X123500000Y-61100000D01*
X123500000Y-59200000D02*
X124100000Y-58600000D01*
X123500000Y-61100000D02*
X123500000Y-59200000D01*
%TO.N,19*%
X118300000Y-62600000D02*
X115400000Y-65500000D01*
X115400000Y-65500000D02*
X104700000Y-65500000D01*
X104700000Y-65500000D02*
X99300000Y-60100000D01*
X99300000Y-60100000D02*
X99300000Y-43300000D01*
X99300000Y-43300000D02*
X106100000Y-36500000D01*
X106100000Y-36500000D02*
X128900000Y-36500000D01*
X128900000Y-36500000D02*
X133600000Y-41200000D01*
X153500000Y-41200000D02*
X155900000Y-38800000D01*
X133600000Y-41200000D02*
X153500000Y-41200000D01*
%TO.N,18*%
X123390000Y-54190000D02*
X147390000Y-54190000D01*
D38*
%TO.N,GND1*%
X140200000Y-154100000D02*
X140200000Y-156600000D01*
X140200000Y-156600000D02*
X137300000Y-159500000D01*
X137300000Y-159500000D02*
X126000000Y-159500000D01*
X126000000Y-159500000D02*
X120300000Y-153800000D01*
X120300000Y-153800000D02*
X120300000Y-143700000D01*
X120300000Y-143700000D02*
X124500000Y-139500000D01*
X124500000Y-139500000D02*
X124500000Y-130100000D01*
X124500000Y-130100000D02*
X128000000Y-126600000D01*
X128000000Y-126600000D02*
X139100000Y-126600000D01*
X139100000Y-126600000D02*
X140000000Y-125700000D01*
X140000000Y-125700000D02*
X140000000Y-122600000D01*
%TD*%
M02*
