<?xml version="1.0" encoding="iso-8859-1"?>
<!-- Generator: Adobe Illustrator 19.1.0, SVG Export Plug-In . SVG Version: 6.00 Build 0)  -->
<svg version="1.1" id="Capa_1" xmlns="http://www.w3.org/2000/svg" xmlns:xlink="http://www.w3.org/1999/xlink" x="0px" y="0px"
	 viewBox="0 0 30.609 30.609" style="enable-background:new 0 0 30.609 30.609;" xml:space="preserve">
<g>
	<g>
		<line style="fill:#010002;" x1="19.997" y1="0.875" x2="19.997" y2="29.734"/>
		<path style="fill:#010002;" d="M19.997,30.609c-0.483,0-0.875-0.392-0.875-0.875V0.875C19.122,0.393,19.514,0,19.997,0
			c0.483,0,0.875,0.393,0.875,0.875v28.859C20.872,30.217,20.48,30.609,19.997,30.609z"/>
	</g>
	<g>
		<line style="fill:#010002;" x1="10.612" y1="0.875" x2="10.612" y2="29.734"/>
		<path style="fill:#010002;" d="M10.612,30.609c-0.482,0-0.875-0.392-0.875-0.875V0.875C9.737,0.393,10.129,0,10.612,0
			c0.483,0,0.875,0.393,0.875,0.875v28.859C11.487,30.217,11.095,30.609,10.612,30.609z"/>
	</g>
</g>
<g>
</g>
<g>
</g>
<g>
</g>
<g>
</g>
<g>
</g>
<g>
</g>
<g>
</g>
<g>
</g>
<g>
</g>
<g>
</g>
<g>
</g>
<g>
</g>
<g>
</g>
<g>
</g>
<g>
</g>
</svg>
