<?xml version="1.0" encoding="iso-8859-1"?>
<!-- Generator: Adobe Illustrator 19.1.0, SVG Export Plug-In . SVG Version: 6.00 Build 0)  -->
<svg version="1.1" id="Capa_1" xmlns="http://www.w3.org/2000/svg" xmlns:xlink="http://www.w3.org/1999/xlink" x="0px" y="0px"
	 viewBox="0 0 31.059 31.059" style="enable-background:new 0 0 31.059 31.059;" xml:space="preserve">
<g>
	<g>
		<path style="fill:#010002;" d="M28.574,31.059H2.485c-0.49,0-0.888-0.397-0.888-0.888V15.529c0-0.49,0.397-0.887,0.888-0.887
			h26.089c0.49,0,0.888,0.396,0.888,0.887v14.642C29.462,30.661,29.064,31.059,28.574,31.059z M3.372,29.284h24.315V16.417H3.372
			V29.284z"/>
	</g>
	<g>
		<path style="fill:#010002;" d="M24.492,8.964h-1.774c0-3.964-3.225-7.188-7.188-7.188c-3.964,0-7.189,3.225-7.189,7.188H6.567
			C6.567,4.022,10.587,0,15.53,0C20.471,0,24.492,4.022,24.492,8.964z"/>
	</g>
	<g>
		<rect x="6.567" y="8.964" style="fill:#010002;" width="1.774" height="6.565"/>
	</g>
	<g>
		<rect x="22.718" y="8.964" style="fill:#010002;" width="1.774" height="6.565"/>
	</g>
</g>
<g>
</g>
<g>
</g>
<g>
</g>
<g>
</g>
<g>
</g>
<g>
</g>
<g>
</g>
<g>
</g>
<g>
</g>
<g>
</g>
<g>
</g>
<g>
</g>
<g>
</g>
<g>
</g>
<g>
</g>
</svg>
