<?xml version="1.0" encoding="iso-8859-1"?>
<!-- Generator: Adobe Illustrator 19.1.0, SVG Export Plug-In . SVG Version: 6.00 Build 0)  -->
<svg version="1.1" id="Capa_1" xmlns="http://www.w3.org/2000/svg" xmlns:xlink="http://www.w3.org/1999/xlink" x="0px" y="0px"
	 viewBox="0 0 30.609 30.609" style="enable-background:new 0 0 30.609 30.609;" xml:space="preserve">
<g>
	<g>
		<path style="fill:#010002;" d="M12.082,23.956c-0.151,0-0.303-0.04-0.438-0.118c-0.271-0.156-0.438-0.444-0.438-0.757v-9.059
			c0-0.312,0.166-0.601,0.438-0.757c0.269-0.156,0.604-0.156,0.874,0l7.846,4.529c0.271,0.156,0.438,0.445,0.438,0.758
			s-0.167,0.601-0.438,0.757l-7.846,4.529C12.384,23.916,12.233,23.956,12.082,23.956z M12.956,15.536v6.03l5.223-3.015
			L12.956,15.536z"/>
	</g>
	<g>
		<g>
			<path style="fill:#010002;" d="M22.795,30.609H7.816C3.507,30.609,0,27.103,0,22.792V0.875C0,0.392,0.393,0,0.875,0h28.86
				c0.482,0,0.874,0.392,0.874,0.875v21.917C30.609,27.103,27.103,30.609,22.795,30.609z M1.75,1.75v21.042
				c0,3.345,2.722,6.066,6.066,6.066h14.978c3.345,0,6.065-2.722,6.065-6.066V1.75H1.75z"/>
		</g>
		<g>
			<path style="fill:#010002;" d="M29.735,8.805H0.875C0.393,8.805,0,8.413,0,7.93s0.393-0.875,0.875-0.875h28.86
				c0.482,0,0.874,0.392,0.874,0.875S30.217,8.805,29.735,8.805z"/>
		</g>
		<g>
			<path style="fill:#010002;" d="M0.874,8.674c-0.141,0-0.284-0.04-0.411-0.125C0.12,8.322,0.028,7.86,0.256,7.518l4.693-7.055
				c0.227-0.342,0.69-0.437,1.032-0.207c0.342,0.228,0.434,0.69,0.207,1.031L1.495,8.342C1.352,8.558,1.115,8.674,0.874,8.674z"/>
		</g>
		<g>
			<path style="fill:#010002;" d="M5.708,8.674c-0.141,0-0.285-0.04-0.411-0.125C4.955,8.322,4.861,7.86,5.09,7.518l4.692-7.055
				c0.226-0.342,0.69-0.437,1.031-0.207c0.343,0.228,0.436,0.69,0.208,1.031L6.328,8.342C6.186,8.558,5.949,8.674,5.708,8.674z"/>
		</g>
		<g>
			<path style="fill:#010002;" d="M10.541,8.674c-0.141,0-0.285-0.04-0.411-0.125C9.788,8.322,9.694,7.86,9.922,7.518l4.694-7.055
				c0.227-0.342,0.69-0.437,1.031-0.207c0.342,0.228,0.436,0.69,0.208,1.031l-4.694,7.055C11.019,8.558,10.781,8.674,10.541,8.674z"
				/>
		</g>
		<g>
			<path style="fill:#010002;" d="M15.375,8.674c-0.142,0-0.285-0.04-0.411-0.125c-0.343-0.227-0.436-0.689-0.208-1.031l4.693-7.055
				c0.228-0.342,0.69-0.437,1.031-0.207c0.342,0.228,0.436,0.69,0.207,1.031l-4.692,7.055C15.852,8.558,15.615,8.674,15.375,8.674z"
				/>
		</g>
		<g>
			<path style="fill:#010002;" d="M20.208,8.674c-0.141,0-0.284-0.04-0.411-0.125c-0.342-0.227-0.435-0.689-0.207-1.031l4.692-7.055
				c0.228-0.342,0.689-0.437,1.032-0.207c0.342,0.228,0.435,0.69,0.207,1.031l-4.692,7.055C20.686,8.558,20.449,8.674,20.208,8.674z
				"/>
		</g>
		<g>
			<path style="fill:#010002;" d="M25.041,8.674c-0.141,0-0.284-0.04-0.411-0.125c-0.342-0.227-0.434-0.689-0.207-1.031l4.692-7.055
				c0.228-0.342,0.69-0.437,1.032-0.207c0.342,0.228,0.435,0.69,0.207,1.031l-4.692,7.055C25.518,8.558,25.282,8.674,25.041,8.674z"
				/>
		</g>
	</g>
</g>
<g>
</g>
<g>
</g>
<g>
</g>
<g>
</g>
<g>
</g>
<g>
</g>
<g>
</g>
<g>
</g>
<g>
</g>
<g>
</g>
<g>
</g>
<g>
</g>
<g>
</g>
<g>
</g>
<g>
</g>
</svg>
