<?xml version="1.0" encoding="iso-8859-1"?>
<!-- Generator: Adobe Illustrator 19.1.0, SVG Export Plug-In . SVG Version: 6.00 Build 0)  -->
<svg version="1.1" id="Capa_1" xmlns="http://www.w3.org/2000/svg" xmlns:xlink="http://www.w3.org/1999/xlink" x="0px" y="0px"
	 viewBox="0 0 31.536 31.536" style="enable-background:new 0 0 31.536 31.536;" xml:space="preserve">
<g>
	<g>
		<path style="fill:#010002;" d="M15.768,31.536c-0.49,0-0.888-0.398-0.888-0.888V1.364c0-0.489,0.397-0.887,0.888-0.887
			c0.49,0,0.887,0.397,0.887,0.887v29.284C16.655,31.138,16.258,31.536,15.768,31.536z"/>
	</g>
	<g>
		<path style="fill:#010002;" d="M30.41,16.893c-0.232,0-0.463-0.09-0.638-0.27L15.768,2.152L1.764,16.624
			c-0.341,0.352-0.903,0.361-1.255,0.02c-0.353-0.34-0.362-0.902-0.021-1.254L15.13,0.259c0.334-0.346,0.94-0.346,1.275,0
			l14.642,15.13c0.341,0.352,0.331,0.914-0.021,1.254C30.854,16.811,30.632,16.893,30.41,16.893z"/>
	</g>
</g>
<g>
</g>
<g>
</g>
<g>
</g>
<g>
</g>
<g>
</g>
<g>
</g>
<g>
</g>
<g>
</g>
<g>
</g>
<g>
</g>
<g>
</g>
<g>
</g>
<g>
</g>
<g>
</g>
<g>
</g>
</svg>
