<?xml version="1.0" encoding="iso-8859-1"?>
<!-- Generator: Adobe Illustrator 19.1.0, SVG Export Plug-In . SVG Version: 6.00 Build 0)  -->
<svg version="1.1" id="Capa_1" xmlns="http://www.w3.org/2000/svg" xmlns:xlink="http://www.w3.org/1999/xlink" x="0px" y="0px"
	 viewBox="0 0 31.059 31.059" style="enable-background:new 0 0 31.059 31.059;" xml:space="preserve">
<g>
	<g>
		<path style="fill:#010002;" d="M30.172,31.059H0.887C0.397,31.059,0,30.661,0,30.171v-8.775c0-0.243,0.099-0.475,0.274-0.643
			c4.128-3.941,9.546-6.111,15.255-6.111c5.71,0,11.127,2.17,15.255,6.111c0.175,0.168,0.274,0.399,0.274,0.643v8.775
			C31.059,30.661,30.662,31.059,30.172,31.059z M1.775,29.283h27.509v-7.503c-3.761-3.462-8.63-5.363-13.755-5.363
			s-9.994,1.9-13.754,5.361V29.283z"/>
	</g>
	<g>
		<path style="fill:#010002;" d="M15.529,11.655c-3.213,0-5.827-2.614-5.827-5.827S12.316,0,15.529,0
			c3.213,0,5.828,2.614,5.828,5.827S18.743,11.655,15.529,11.655z M15.529,1.775c-2.234,0-4.052,1.818-4.052,4.053
			s1.818,4.053,4.052,4.053s4.053-1.818,4.053-4.053S17.764,1.775,15.529,1.775z"/>
	</g>
</g>
<g>
</g>
<g>
</g>
<g>
</g>
<g>
</g>
<g>
</g>
<g>
</g>
<g>
</g>
<g>
</g>
<g>
</g>
<g>
</g>
<g>
</g>
<g>
</g>
<g>
</g>
<g>
</g>
<g>
</g>
</svg>
