%TF.GenerationSoftware,KiCad,Pcbnew,7.0.9-7.0.9~ubuntu22.04.1*%
%TF.CreationDate,2024-11-21T15:58:10+02:00*%
%TF.ProjectId,ESP32-P4-DevKit_Rev_B,45535033-322d-4503-942d-4465764b6974,B*%
%TF.SameCoordinates,PX80befc0PY7459280*%
%TF.FileFunction,Soldermask,Bot*%
%TF.FilePolarity,Negative*%
%FSLAX46Y46*%
G04 Gerber Fmt 4.6, Leading zero omitted, Abs format (unit mm)*
G04 Created by KiCad (PCBNEW 7.0.9-7.0.9~ubuntu22.04.1) date 2024-11-21 15:58:10*
%MOMM*%
%LPD*%
G01*
G04 APERTURE LIST*
G04 Aperture macros list*
%AMRoundRect*
0 Rectangle with rounded corners*
0 $1 Rounding radius*
0 $2 $3 $4 $5 $6 $7 $8 $9 X,Y pos of 4 corners*
0 Add a 4 corners polygon primitive as box body*
4,1,4,$2,$3,$4,$5,$6,$7,$8,$9,$2,$3,0*
0 Add four circle primitives for the rounded corners*
1,1,$1+$1,$2,$3*
1,1,$1+$1,$4,$5*
1,1,$1+$1,$6,$7*
1,1,$1+$1,$8,$9*
0 Add four rect primitives between the rounded corners*
20,1,$1+$1,$2,$3,$4,$5,0*
20,1,$1+$1,$4,$5,$6,$7,0*
20,1,$1+$1,$6,$7,$8,$9,0*
20,1,$1+$1,$8,$9,$2,$3,0*%
G04 Aperture macros list end*
%ADD10C,0.701600*%
%ADD11O,1.301600X2.301600*%
%ADD12O,1.401600X2.101600*%
%ADD13C,3.401601*%
%ADD14O,1.701600X3.101599*%
%ADD15C,1.625600*%
%ADD16RoundRect,0.050800X-0.250000X-0.275000X0.250000X-0.275000X0.250000X0.275000X-0.250000X0.275000X0*%
%ADD17RoundRect,0.050800X0.250000X0.275000X-0.250000X0.275000X-0.250000X-0.275000X0.250000X-0.275000X0*%
%ADD18RoundRect,0.050800X-0.275000X0.250000X-0.275000X-0.250000X0.275000X-0.250000X0.275000X0.250000X0*%
%ADD19RoundRect,0.050800X0.275000X-0.250000X0.275000X0.250000X-0.275000X0.250000X-0.275000X-0.250000X0*%
%ADD20RoundRect,0.050800X0.250000X0.500000X-0.250000X0.500000X-0.250000X-0.500000X0.250000X-0.500000X0*%
%ADD21RoundRect,0.050800X0.750000X0.600000X-0.750000X0.600000X-0.750000X-0.600000X0.750000X-0.600000X0*%
%ADD22RoundRect,0.050800X-0.700000X-0.500000X0.700000X-0.500000X0.700000X0.500000X-0.700000X0.500000X0*%
%ADD23RoundRect,0.050800X0.508000X0.508000X-0.508000X0.508000X-0.508000X-0.508000X0.508000X-0.508000X0*%
%ADD24C,1.101600*%
%ADD25RoundRect,0.050800X-0.800000X-1.500000X0.800000X-1.500000X0.800000X1.500000X-0.800000X1.500000X0*%
%ADD26RoundRect,0.050800X0.889000X-0.889000X0.889000X0.889000X-0.889000X0.889000X-0.889000X-0.889000X0*%
%ADD27C,1.879600*%
%ADD28RoundRect,0.050800X0.762000X0.635000X-0.762000X0.635000X-0.762000X-0.635000X0.762000X-0.635000X0*%
%ADD29RoundRect,0.050800X-0.508000X0.508000X-0.508000X-0.508000X0.508000X-0.508000X0.508000X0.508000X0*%
%ADD30RoundRect,0.050800X-0.600000X0.700000X-0.600000X-0.700000X0.600000X-0.700000X0.600000X0.700000X0*%
%ADD31RoundRect,0.050800X-0.700000X-0.600000X0.700000X-0.600000X0.700000X0.600000X-0.700000X0.600000X0*%
%ADD32RoundRect,0.050800X0.900000X-0.500000X0.900000X0.500000X-0.900000X0.500000X-0.900000X-0.500000X0*%
%ADD33RoundRect,0.050800X-0.425000X-0.087500X0.425000X-0.087500X0.425000X0.087500X-0.425000X0.087500X0*%
%ADD34RoundRect,0.050800X-0.450000X-0.087500X0.450000X-0.087500X0.450000X0.087500X-0.450000X0.087500X0*%
%ADD35RoundRect,0.050800X-0.087500X0.425000X-0.087500X-0.425000X0.087500X-0.425000X0.087500X0.425000X0*%
%ADD36RoundRect,0.050800X-0.087500X0.450000X-0.087500X-0.450000X0.087500X-0.450000X0.087500X0.450000X0*%
%ADD37C,1.701600*%
%ADD38C,2.501600*%
%ADD39RoundRect,0.050800X-3.800000X-3.800000X3.800000X-3.800000X3.800000X3.800000X-3.800000X3.800000X0*%
%ADD40RoundRect,0.050800X-1.500000X0.800000X-1.500000X-0.800000X1.500000X-0.800000X1.500000X0.800000X0*%
%ADD41RoundRect,0.050800X-0.300000X-1.100000X0.300000X-1.100000X0.300000X1.100000X-0.300000X1.100000X0*%
%ADD42C,1.254000*%
%ADD43RoundRect,0.050800X-0.125000X0.350000X-0.125000X-0.350000X0.125000X-0.350000X0.125000X0.350000X0*%
%ADD44RoundRect,0.050800X-0.635000X0.762000X-0.635000X-0.762000X0.635000X-0.762000X0.635000X0.762000X0*%
%ADD45RoundRect,0.050800X0.400000X0.100000X-0.400000X0.100000X-0.400000X-0.100000X0.400000X-0.100000X0*%
%ADD46RoundRect,0.050800X0.100000X-0.400000X0.100000X0.400000X-0.100000X0.400000X-0.100000X-0.400000X0*%
%ADD47RoundRect,0.050800X-0.400000X-0.100000X0.400000X-0.100000X0.400000X0.100000X-0.400000X0.100000X0*%
%ADD48RoundRect,0.050800X-0.100000X0.400000X-0.100000X-0.400000X0.100000X-0.400000X0.100000X0.400000X0*%
%ADD49RoundRect,0.050800X-1.400000X1.400000X-1.400000X-1.400000X1.400000X-1.400000X1.400000X1.400000X0*%
%ADD50RoundRect,0.050800X0.889000X-0.508000X0.889000X0.508000X-0.889000X0.508000X-0.889000X-0.508000X0*%
%ADD51RoundRect,0.050800X0.350000X0.125000X-0.350000X0.125000X-0.350000X-0.125000X0.350000X-0.125000X0*%
%ADD52RoundRect,0.050800X0.312500X0.162500X-0.312500X0.162500X-0.312500X-0.162500X0.312500X-0.162500X0*%
%ADD53RoundRect,0.050800X0.312500X0.125000X-0.312500X0.125000X-0.312500X-0.125000X0.312500X-0.125000X0*%
%ADD54RoundRect,0.050800X-0.312500X-0.125000X0.312500X-0.125000X0.312500X0.125000X-0.312500X0.125000X0*%
%ADD55RoundRect,0.050800X-0.312500X-0.162500X0.312500X-0.162500X0.312500X0.162500X-0.312500X0.162500X0*%
%ADD56RoundRect,0.050800X0.381000X0.508000X-0.381000X0.508000X-0.381000X-0.508000X0.381000X-0.508000X0*%
%ADD57RoundRect,0.050800X0.254000X0.254000X-0.254000X0.254000X-0.254000X-0.254000X0.254000X-0.254000X0*%
%ADD58RoundRect,0.050800X0.600000X0.275000X-0.600000X0.275000X-0.600000X-0.275000X0.600000X-0.275000X0*%
%ADD59RoundRect,0.050800X0.500000X-0.700000X0.500000X0.700000X-0.500000X0.700000X-0.500000X-0.700000X0*%
G04 APERTURE END LIST*
D10*
X17890000Y5530000D03*
X12110000Y5530000D03*
D11*
X19320000Y6030000D03*
X10680000Y6030000D03*
D12*
X19320000Y1850000D03*
X10680000Y1850000D03*
D13*
X20715000Y68150000D03*
X9285000Y68150000D03*
D14*
X22800000Y65100000D03*
X7200000Y65100000D03*
D15*
X20715000Y58960000D03*
X19445000Y61500000D03*
X18175000Y58960000D03*
X16905000Y61500000D03*
X15635000Y58960000D03*
X14365000Y61500000D03*
X13095000Y58960000D03*
X11825000Y61500000D03*
X10555000Y58960000D03*
X9285000Y61500000D03*
D13*
X26500000Y3500000D03*
X3500000Y68500000D03*
X3500000Y3500000D03*
X26500000Y68500000D03*
D16*
X23115000Y52658000D03*
D17*
X22099000Y52658000D03*
X22861000Y24845000D03*
D16*
X23877000Y24845000D03*
D17*
X7367000Y2112000D03*
D16*
X8383000Y2112000D03*
D18*
X18162000Y39450000D03*
D19*
X18162000Y40466000D03*
D20*
X11850000Y7900000D03*
X12950000Y7900000D03*
X14050000Y7900000D03*
X14800000Y7900000D03*
X16250000Y7900000D03*
X17350000Y7900000D03*
X18450000Y7900000D03*
X19550000Y7900000D03*
X15500000Y7900000D03*
D21*
X21000000Y9650000D03*
X21000000Y14100000D03*
X10400000Y9650000D03*
X10400000Y14100000D03*
D18*
X6097000Y36910000D03*
D19*
X6097000Y37926000D03*
D16*
X11304000Y22178000D03*
D17*
X10288000Y22178000D03*
D22*
X24984440Y16904960D03*
X24984440Y15002500D03*
X22774640Y15957540D03*
D23*
X6859000Y56595000D03*
X5081000Y56595000D03*
D18*
X19686000Y46435000D03*
D19*
X19686000Y47451000D03*
D16*
X22353000Y46308000D03*
D17*
X21337000Y46308000D03*
D24*
X23242000Y13669000D03*
D16*
X13590000Y44022000D03*
D17*
X12574000Y44022000D03*
D25*
X7297000Y17606000D03*
X4897000Y17606000D03*
D26*
X2300000Y12870000D03*
D27*
X2300000Y15410000D03*
X2300000Y17950000D03*
X2300000Y20490000D03*
X2300000Y23030000D03*
X2300000Y25570000D03*
X2300000Y28110000D03*
X2300000Y30650000D03*
X2300000Y33190000D03*
X2300000Y35730000D03*
X2300000Y38270000D03*
X2300000Y40810000D03*
X2300000Y43350000D03*
X2300000Y45890000D03*
X2300000Y48430000D03*
X2300000Y50970000D03*
X2300000Y53510000D03*
X2300000Y56050000D03*
X2300000Y58590000D03*
X2300000Y61130000D03*
D28*
X21972000Y3763000D03*
X21972000Y1731000D03*
D29*
X6605000Y51515000D03*
X6605000Y49737000D03*
X8637000Y14685000D03*
X8637000Y12907000D03*
D17*
X10923000Y51642000D03*
D16*
X11939000Y51642000D03*
D29*
X8891000Y51515000D03*
X8891000Y49737000D03*
D30*
X23026000Y49948000D03*
X21426000Y47748000D03*
X21426000Y49948000D03*
X23026000Y47748000D03*
D31*
X12109000Y20558000D03*
X14309000Y18958000D03*
X12109000Y18958000D03*
X14309000Y20558000D03*
D18*
X23750000Y21416000D03*
D19*
X23750000Y22432000D03*
D17*
X5335000Y21416000D03*
D16*
X6351000Y21416000D03*
D18*
X13844000Y53293000D03*
D19*
X13844000Y54309000D03*
D18*
X4954000Y47197000D03*
D19*
X4954000Y48213000D03*
D32*
X5843000Y22579000D03*
X5843000Y25079000D03*
D16*
X20321000Y44530000D03*
D17*
X19305000Y44530000D03*
D33*
X9925000Y25625000D03*
D34*
X9950000Y25975000D03*
X9950000Y26325000D03*
X9950000Y26675000D03*
X9950000Y27025000D03*
X9950000Y27375000D03*
X9950000Y27725000D03*
X9950000Y28075000D03*
X9950000Y28425000D03*
X9950000Y28775000D03*
X9950000Y29125000D03*
X9950000Y29475000D03*
X9950000Y29825000D03*
X9950000Y30175000D03*
X9950000Y30525000D03*
X9950000Y30875000D03*
X9950000Y31225000D03*
X9950000Y31575000D03*
X9950000Y31925000D03*
X9950000Y32275000D03*
X9950000Y32625000D03*
X9950000Y32975000D03*
X9950000Y33325000D03*
X9950000Y33675000D03*
X9950000Y34025000D03*
D33*
X9925000Y34375000D03*
D35*
X10625000Y35075000D03*
D36*
X10975000Y35050000D03*
X11325000Y35050000D03*
X11675000Y35050000D03*
X12025000Y35050000D03*
X12375000Y35050000D03*
X12725000Y35050000D03*
X13075000Y35050000D03*
X13425000Y35050000D03*
X13775000Y35050000D03*
X14125000Y35050000D03*
X14475000Y35050000D03*
X14825000Y35050000D03*
X15175000Y35050000D03*
X15525000Y35050000D03*
X15875000Y35050000D03*
X16225000Y35050000D03*
X16575000Y35050000D03*
X16925000Y35050000D03*
X17275000Y35050000D03*
X17625000Y35050000D03*
X17975000Y35050000D03*
X18325000Y35050000D03*
X18675000Y35050000D03*
X19025000Y35050000D03*
D35*
X19375000Y35075000D03*
D33*
X20075000Y34375000D03*
D34*
X20050000Y34025000D03*
X20050000Y33675000D03*
X20050000Y33325000D03*
X20050000Y32975000D03*
X20050000Y32625000D03*
X20050000Y32275000D03*
X20050000Y31925000D03*
X20050000Y31575000D03*
X20050000Y31225000D03*
X20050000Y30875000D03*
X20050000Y30525000D03*
X20050000Y30175000D03*
X20050000Y29825000D03*
X20050000Y29475000D03*
X20050000Y29125000D03*
X20050000Y28775000D03*
X20050000Y28425000D03*
X20050000Y28075000D03*
X20050000Y27725000D03*
X20050000Y27375000D03*
X20050000Y27025000D03*
X20050000Y26675000D03*
X20050000Y26325000D03*
X20050000Y25975000D03*
D33*
X20075000Y25625000D03*
D35*
X19375000Y24925000D03*
D36*
X19025000Y24950000D03*
X18675000Y24950000D03*
X18325000Y24950000D03*
X17975000Y24950000D03*
X17625000Y24950000D03*
X17275000Y24950000D03*
X16925000Y24950000D03*
X16575000Y24950000D03*
X16225000Y24950000D03*
X15875000Y24950000D03*
X15525000Y24950000D03*
X15175000Y24950000D03*
X14825000Y24950000D03*
X14475000Y24950000D03*
X14125000Y24950000D03*
X13775000Y24950000D03*
X13425000Y24950000D03*
X13075000Y24950000D03*
X12725000Y24950000D03*
X12375000Y24950000D03*
X12025000Y24950000D03*
X11675000Y24950000D03*
X11325000Y24950000D03*
X10975000Y24950000D03*
D35*
X10625000Y24925000D03*
D37*
X15000000Y27000000D03*
X12000000Y30000000D03*
D38*
X15000000Y30000000D03*
D39*
X15000000Y30000000D03*
D37*
X18000000Y30000000D03*
X15000000Y33000000D03*
D16*
X6859000Y10113000D03*
D17*
X5843000Y10113000D03*
D19*
X21083000Y52912000D03*
D18*
X21083000Y51896000D03*
D17*
X6859000Y32973000D03*
D16*
X7875000Y32973000D03*
D23*
X6478000Y58754000D03*
X4700000Y58754000D03*
D18*
X18543000Y53039000D03*
D19*
X18543000Y54055000D03*
D17*
X10923000Y50753000D03*
D16*
X11939000Y50753000D03*
D17*
X7748000Y10113000D03*
D16*
X8764000Y10113000D03*
X12955000Y43006000D03*
D17*
X11939000Y43006000D03*
D16*
X21972000Y35894000D03*
D17*
X20956000Y35894000D03*
D40*
X11304000Y53490000D03*
X11304000Y55890000D03*
D18*
X25274000Y27512000D03*
D19*
X25274000Y28528000D03*
D16*
X5716000Y52785000D03*
D17*
X4700000Y52785000D03*
D19*
X15622000Y45800000D03*
D18*
X15622000Y44784000D03*
D16*
X24385000Y31830000D03*
D17*
X23369000Y31830000D03*
D41*
X6345000Y46235000D03*
X7615000Y46235000D03*
X8885000Y46235000D03*
X10155000Y46235000D03*
X10155000Y39765000D03*
X8885000Y39765000D03*
X7615000Y39765000D03*
X6345000Y39765000D03*
D19*
X15876000Y20273000D03*
D18*
X15876000Y19257000D03*
D42*
X1500000Y70500000D03*
D28*
X23115000Y55250000D03*
X21083000Y55250000D03*
D42*
X28500000Y70500000D03*
D18*
X15876000Y55579000D03*
D19*
X15876000Y56595000D03*
D16*
X5716000Y54563000D03*
D17*
X4700000Y54563000D03*
D16*
X23750000Y27258000D03*
D17*
X22734000Y27258000D03*
D43*
X6359000Y14673000D03*
X6859000Y14673000D03*
X7359000Y14673000D03*
X7359000Y13173000D03*
X6859000Y13173000D03*
X6359000Y13173000D03*
D17*
X22099000Y53674000D03*
D16*
X23115000Y53674000D03*
D28*
X4827000Y14939000D03*
X4827000Y12907000D03*
D17*
X22353000Y51388000D03*
D16*
X23369000Y51388000D03*
X7621000Y35640000D03*
D17*
X6605000Y35640000D03*
D18*
X22861000Y21416000D03*
D19*
X22861000Y22432000D03*
D18*
X19432000Y53039000D03*
D19*
X19432000Y54055000D03*
D42*
X28500000Y1400000D03*
D17*
X5335000Y26242000D03*
D16*
X6351000Y26242000D03*
D17*
X10923000Y48086000D03*
D16*
X11939000Y48086000D03*
D17*
X7367000Y3890000D03*
D16*
X8383000Y3890000D03*
D17*
X21210000Y38307000D03*
D16*
X22226000Y38307000D03*
X11304000Y23067000D03*
D17*
X10288000Y23067000D03*
D44*
X21845000Y7446000D03*
X21845000Y5414000D03*
D45*
X18003000Y51137000D03*
X18003000Y50737000D03*
X18003000Y50337000D03*
X18003000Y49937000D03*
X18003000Y49537000D03*
X18003000Y49137000D03*
X18003000Y48737000D03*
X18003000Y48337000D03*
D46*
X17403000Y47737000D03*
X17003000Y47737000D03*
X16603000Y47737000D03*
X16203000Y47737000D03*
X15803000Y47737000D03*
X15403000Y47737000D03*
X15003000Y47737000D03*
X14603000Y47737000D03*
D47*
X14003000Y48337000D03*
X14003000Y48737000D03*
X14003000Y49137000D03*
X14003000Y49537000D03*
X14003000Y49937000D03*
X14003000Y50337000D03*
X14003000Y50737000D03*
X14003000Y51137000D03*
D48*
X14603000Y51737000D03*
X15003000Y51737000D03*
X15403000Y51737000D03*
X15803000Y51737000D03*
X16203000Y51737000D03*
X16603000Y51737000D03*
X17003000Y51737000D03*
X17403000Y51737000D03*
D10*
X16503000Y50837000D03*
X15503000Y50837000D03*
X17103000Y50237000D03*
X14903000Y50237000D03*
D37*
X16003000Y49737000D03*
D49*
X16003000Y49737000D03*
D10*
X17103000Y49237000D03*
X14903000Y49237000D03*
X16503000Y48637000D03*
X15503000Y48637000D03*
D50*
X23496000Y59262000D03*
X23496000Y62818000D03*
D19*
X16638000Y45800000D03*
D18*
X16638000Y44784000D03*
D42*
X1500000Y1400000D03*
D17*
X10923000Y48975000D03*
D16*
X11939000Y48975000D03*
X6859000Y11383000D03*
D17*
X5843000Y11383000D03*
X20067000Y36783000D03*
D16*
X21083000Y36783000D03*
D26*
X27700000Y12870000D03*
D27*
X27700000Y15410000D03*
X27700000Y17950000D03*
X27700000Y20490000D03*
X27700000Y23030000D03*
X27700000Y25570000D03*
X27700000Y28110000D03*
X27700000Y30650000D03*
X27700000Y33190000D03*
X27700000Y35730000D03*
X27700000Y38270000D03*
X27700000Y40810000D03*
X27700000Y43350000D03*
X27700000Y45890000D03*
X27700000Y48430000D03*
X27700000Y50970000D03*
X27700000Y53510000D03*
X27700000Y56050000D03*
X27700000Y58590000D03*
X27700000Y61130000D03*
D18*
X16765000Y55579000D03*
D19*
X16765000Y56595000D03*
D17*
X12193000Y21924000D03*
D16*
X13209000Y21924000D03*
X8256000Y34751000D03*
D17*
X7240000Y34751000D03*
D51*
X8625000Y54301000D03*
X8625000Y53801000D03*
X8625000Y53301000D03*
X7125000Y53301000D03*
X7125000Y53801000D03*
X7125000Y54301000D03*
D16*
X24131000Y28528000D03*
D17*
X23115000Y28528000D03*
D52*
X8260500Y7220000D03*
X7235500Y7220000D03*
D53*
X8260500Y6680000D03*
X7235500Y6680000D03*
D54*
X8260500Y6180000D03*
X7235500Y6180000D03*
D55*
X8260500Y5640000D03*
X7235500Y5640000D03*
D16*
X24131000Y29417000D03*
D17*
X23115000Y29417000D03*
D16*
X22607000Y25861000D03*
D17*
X21591000Y25861000D03*
D18*
X7621000Y23829000D03*
D19*
X7621000Y24845000D03*
D56*
X4192000Y9732000D03*
D57*
X3811000Y9732000D03*
X3430000Y9732000D03*
D56*
X3049000Y9732000D03*
X1906000Y9732000D03*
D18*
X10542000Y19638000D03*
D19*
X10542000Y20654000D03*
D16*
X25020000Y32719000D03*
D17*
X24004000Y32719000D03*
D24*
X12701000Y49991000D03*
D58*
X14322000Y63011000D03*
X14322000Y63961000D03*
X14322000Y64911000D03*
X16922000Y64911000D03*
X16922000Y63011000D03*
D17*
X10923000Y49864000D03*
D16*
X11939000Y49864000D03*
D19*
X18289000Y44784000D03*
D18*
X18289000Y43768000D03*
D17*
X21210000Y39196000D03*
D16*
X22226000Y39196000D03*
D59*
X23054040Y11347440D03*
X24956500Y11347440D03*
X24001460Y9137640D03*
D19*
X25020000Y25353000D03*
D18*
X25020000Y24337000D03*
D16*
X5716000Y53674000D03*
D17*
X4700000Y53674000D03*
D18*
X19940000Y48848000D03*
D19*
X19940000Y49864000D03*
M02*
