%TF.GenerationSoftware,KiCad,Pcbnew,7.0.9-7.0.9~ubuntu22.04.1*%
%TF.CreationDate,2024-11-21T15:58:09+02:00*%
%TF.ProjectId,ESP32-P4-DevKit_Rev_B,45535033-322d-4503-942d-4465764b6974,B*%
%TF.SameCoordinates,PX80befc0PY7459280*%
%TF.FileFunction,Paste,Top*%
%TF.FilePolarity,Positive*%
%FSLAX46Y46*%
G04 Gerber Fmt 4.6, Leading zero omitted, Abs format (unit mm)*
G04 Created by KiCad (PCBNEW 7.0.9-7.0.9~ubuntu22.04.1) date 2024-11-21 15:58:09*
%MOMM*%
%LPD*%
G01*
G04 APERTURE LIST*
%ADD10R,2.100000X3.200000*%
%ADD11R,2.100000X3.000000*%
%ADD12R,1.100000X2.200000*%
%ADD13R,1.100000X2.000000*%
%ADD14R,0.280000X1.130000*%
%ADD15R,0.230000X1.130000*%
%ADD16R,0.740000X1.750000*%
%ADD17R,0.800000X0.800000*%
%ADD18R,0.500000X0.550000*%
%ADD19R,0.550000X0.500000*%
%ADD20R,1.000000X1.400000*%
%ADD21R,1.016000X1.016000*%
%ADD22C,1.000000*%
%ADD23R,1.200000X3.100000*%
%ADD24R,0.600000X1.550000*%
%ADD25R,2.200000X3.700000*%
%ADD26R,1.400000X3.200000*%
%ADD27R,2.000000X1.700000*%
G04 APERTURE END LIST*
D10*
X19927600Y6030000D03*
X10072400Y6030000D03*
D11*
X19927600Y1850000D03*
X10072400Y1850000D03*
D12*
X19927600Y6030000D03*
X10072400Y6030000D03*
D13*
X19927600Y1850000D03*
X10072400Y1850000D03*
D14*
X11675000Y6932000D03*
X12475000Y6932000D03*
D15*
X13750000Y6932000D03*
X14750000Y6932000D03*
X15250000Y6932000D03*
X16250000Y6932000D03*
D14*
X17525000Y6932000D03*
X18325000Y6932000D03*
X18075000Y6932000D03*
X17275000Y6932000D03*
D15*
X16750000Y6932000D03*
X15750000Y6932000D03*
X14250000Y6932000D03*
X13250000Y6932000D03*
D14*
X12725000Y6932000D03*
X11925000Y6932000D03*
D16*
X8000000Y42825000D03*
X8000000Y39175000D03*
X9000000Y42825000D03*
X9000000Y39175000D03*
X10000000Y42825000D03*
X10000000Y39175000D03*
X11000000Y42825000D03*
X11000000Y39175000D03*
X12000000Y42825000D03*
X12000000Y39175000D03*
X13000000Y42825000D03*
X13000000Y39175000D03*
X14000000Y42825000D03*
X14000000Y39175000D03*
X15000000Y42825000D03*
X15000000Y39175000D03*
X16000000Y42825000D03*
X16000000Y39175000D03*
X17000000Y42825000D03*
X17000000Y39175000D03*
X18000000Y42825000D03*
X18000000Y39175000D03*
X19000000Y42825000D03*
X19000000Y39175000D03*
X20000000Y42825000D03*
X20000000Y39175000D03*
X21000000Y42825000D03*
X21000000Y39175000D03*
X22000000Y42825000D03*
X22000000Y39175000D03*
D17*
X3262000Y9700000D03*
X1738000Y9700000D03*
D18*
X10288000Y27639000D03*
X11304000Y27639000D03*
D17*
X1738000Y63500000D03*
X3262000Y63500000D03*
D19*
X20067000Y29163000D03*
X20067000Y28147000D03*
D20*
X5925000Y25925000D03*
X8075000Y25925000D03*
X5925000Y30075000D03*
X8075000Y30075000D03*
D19*
X20194000Y24337000D03*
X20194000Y25353000D03*
D18*
X7367000Y14431000D03*
X6351000Y14431000D03*
X10288000Y26750000D03*
X11304000Y26750000D03*
D19*
X5335000Y22051000D03*
X5335000Y23067000D03*
X20067000Y27258000D03*
X20067000Y26242000D03*
X6097000Y45165000D03*
X6097000Y46181000D03*
D17*
X26738000Y63500000D03*
X28262000Y63500000D03*
D18*
X12701000Y23956000D03*
X13717000Y23956000D03*
X8002000Y45419000D03*
X9018000Y45419000D03*
D21*
X15368000Y55833000D03*
X17146000Y55833000D03*
D16*
X8000000Y20825000D03*
X8000000Y17175000D03*
X9000000Y20825000D03*
X9000000Y17175000D03*
X10000000Y20825000D03*
X10000000Y17175000D03*
X11000000Y20825000D03*
X11000000Y17175000D03*
X12000000Y20825000D03*
X12000000Y17175000D03*
X13000000Y20825000D03*
X13000000Y17175000D03*
X14000000Y20825000D03*
X14000000Y17175000D03*
X15000000Y20825000D03*
X15000000Y17175000D03*
X16000000Y20825000D03*
X16000000Y17175000D03*
X17000000Y20825000D03*
X17000000Y17175000D03*
X18000000Y20825000D03*
X18000000Y17175000D03*
X19000000Y20825000D03*
X19000000Y17175000D03*
X20000000Y20825000D03*
X20000000Y17175000D03*
X21000000Y20825000D03*
X21000000Y17175000D03*
X22000000Y20825000D03*
X22000000Y17175000D03*
D19*
X24385000Y62183000D03*
X24385000Y61167000D03*
D18*
X12320000Y24972000D03*
X13336000Y24972000D03*
X8002000Y44530000D03*
X9018000Y44530000D03*
D22*
X1500000Y70500000D03*
D20*
X24075000Y30075000D03*
X21925000Y30075000D03*
X24075000Y25925000D03*
X21925000Y25925000D03*
D18*
X17654000Y28782000D03*
X18670000Y28782000D03*
X12828000Y33481000D03*
X13844000Y33481000D03*
D19*
X6224000Y22051000D03*
X6224000Y23067000D03*
D17*
X28262000Y9700000D03*
X26738000Y9700000D03*
D18*
X6351000Y13288000D03*
X7367000Y13288000D03*
D19*
X16384000Y34243000D03*
X16384000Y33227000D03*
D18*
X11558000Y24972000D03*
X10542000Y24972000D03*
D23*
X20800000Y12250000D03*
X9200000Y12250000D03*
D24*
X19500000Y14025000D03*
X18500000Y14025000D03*
X17500000Y14025000D03*
X16500000Y14025000D03*
X15500000Y14025000D03*
X14500000Y14025000D03*
X13500000Y14025000D03*
X12500000Y14025000D03*
X11500000Y14025000D03*
X10500000Y14025000D03*
D19*
X5208000Y46181000D03*
X5208000Y45165000D03*
X16003000Y26242000D03*
X16003000Y25226000D03*
D25*
X9700000Y49275000D03*
D26*
X12000000Y52900000D03*
X14000000Y52900000D03*
X16000000Y52900000D03*
X18000000Y52900000D03*
D25*
X20300000Y49275000D03*
D18*
X17654000Y31449000D03*
X18670000Y31449000D03*
D19*
X25655000Y62183000D03*
X25655000Y61167000D03*
X14733000Y34497000D03*
X14733000Y35513000D03*
X22607000Y51134000D03*
X22607000Y52150000D03*
D18*
X5335000Y24464000D03*
X6351000Y24464000D03*
D19*
X19305000Y24337000D03*
X19305000Y25353000D03*
X17400000Y34243000D03*
X17400000Y33227000D03*
X5800000Y62008000D03*
X5800000Y60992000D03*
X4700000Y62008000D03*
X4700000Y60992000D03*
D21*
X24893000Y58246000D03*
X24893000Y60024000D03*
D18*
X11939000Y23956000D03*
X10923000Y23956000D03*
D27*
X25234000Y54436000D03*
X20234000Y54436000D03*
D19*
X13844000Y34497000D03*
X13844000Y35513000D03*
D18*
X4700000Y9859000D03*
X5716000Y9859000D03*
X16384000Y9605000D03*
X15368000Y9605000D03*
D22*
X28500000Y1400000D03*
D18*
X27052000Y11002000D03*
X28068000Y11002000D03*
M02*
