%TF.GenerationSoftware,KiCad,Pcbnew,7.0.9-7.0.9~ubuntu22.04.1*%
%TF.CreationDate,2024-11-21T15:58:09+02:00*%
%TF.ProjectId,ESP32-P4-DevKit_Rev_B,45535033-322d-4503-942d-4465764b6974,B*%
%TF.SameCoordinates,PX80befc0PY7459280*%
%TF.FileFunction,Copper,L2,Inr*%
%TF.FilePolarity,Positive*%
%FSLAX46Y46*%
G04 Gerber Fmt 4.6, Leading zero omitted, Abs format (unit mm)*
G04 Created by KiCad (PCBNEW 7.0.9-7.0.9~ubuntu22.04.1) date 2024-11-21 15:58:09*
%MOMM*%
%LPD*%
G01*
G04 APERTURE LIST*
%TA.AperFunction,ComponentPad*%
%ADD10O,1.200000X2.200000*%
%TD*%
%TA.AperFunction,ComponentPad*%
%ADD11O,1.300000X2.000000*%
%TD*%
%TA.AperFunction,ComponentPad*%
%ADD12O,1.600000X2.999999*%
%TD*%
%TA.AperFunction,ComponentPad*%
%ADD13C,1.524000*%
%TD*%
%TA.AperFunction,ComponentPad*%
%ADD14R,1.778000X1.778000*%
%TD*%
%TA.AperFunction,ComponentPad*%
%ADD15C,1.778000*%
%TD*%
%TA.AperFunction,ComponentPad*%
%ADD16C,1.600000*%
%TD*%
%TA.AperFunction,ComponentPad*%
%ADD17C,2.400000*%
%TD*%
%TA.AperFunction,ComponentPad*%
%ADD18C,0.600000*%
%TD*%
%TA.AperFunction,ViaPad*%
%ADD19C,0.600000*%
%TD*%
%TA.AperFunction,ViaPad*%
%ADD20C,0.800000*%
%TD*%
%TA.AperFunction,ViaPad*%
%ADD21C,1.000000*%
%TD*%
%TA.AperFunction,Conductor*%
%ADD22C,1.016000*%
%TD*%
G04 APERTURE END LIST*
D10*
X19320000Y6030000D03*
X10680000Y6030000D03*
D11*
X19320000Y1850000D03*
X10680000Y1850000D03*
D12*
X22800000Y65100000D03*
X7200000Y65100000D03*
D13*
X20715000Y58960000D03*
X19445000Y61500000D03*
X18175000Y58960000D03*
X16905000Y61500000D03*
X15635000Y58960000D03*
X14365000Y61500000D03*
X13095000Y58960000D03*
X11825000Y61500000D03*
X10555000Y58960000D03*
X9285000Y61500000D03*
D14*
X2300000Y12870000D03*
D15*
X2300000Y15410000D03*
X2300000Y17950000D03*
X2300000Y20490000D03*
X2300000Y23030000D03*
X2300000Y25570000D03*
X2300000Y28110000D03*
X2300000Y30650000D03*
X2300000Y33190000D03*
X2300000Y35730000D03*
X2300000Y38270000D03*
X2300000Y40810000D03*
X2300000Y43350000D03*
X2300000Y45890000D03*
X2300000Y48430000D03*
X2300000Y50970000D03*
X2300000Y53510000D03*
X2300000Y56050000D03*
X2300000Y58590000D03*
X2300000Y61130000D03*
D16*
X15000000Y27000000D03*
X12000000Y30000000D03*
D17*
X15000000Y30000000D03*
D16*
X18000000Y30000000D03*
X15000000Y33000000D03*
D18*
X16503000Y50837000D03*
X15503000Y50837000D03*
X17103000Y50237000D03*
X14903000Y50237000D03*
D16*
X16003000Y49737000D03*
D18*
X17103000Y49237000D03*
X14903000Y49237000D03*
X16503000Y48637000D03*
X15503000Y48637000D03*
D14*
X27700000Y12870000D03*
D15*
X27700000Y15410000D03*
X27700000Y17950000D03*
X27700000Y20490000D03*
X27700000Y23030000D03*
X27700000Y25570000D03*
X27700000Y28110000D03*
X27700000Y30650000D03*
X27700000Y33190000D03*
X27700000Y35730000D03*
X27700000Y38270000D03*
X27700000Y40810000D03*
X27700000Y43350000D03*
X27700000Y45890000D03*
X27700000Y48430000D03*
X27700000Y50970000D03*
X27700000Y53510000D03*
X27700000Y56050000D03*
X27700000Y58590000D03*
X27700000Y61130000D03*
D19*
X20638500Y56658500D03*
D20*
X22099000Y37418000D03*
D19*
X23242000Y747000D03*
X24131000Y33481000D03*
X12447000Y969000D03*
D21*
X7621000Y48086000D03*
D20*
X21718000Y51642000D03*
X6478000Y23702000D03*
D21*
X8510000Y54944000D03*
D19*
X890000Y42117000D03*
X6224000Y32084000D03*
X5716000Y49991000D03*
X890000Y54817000D03*
D20*
X9653000Y44657000D03*
D19*
X17527000Y969000D03*
D21*
X4446000Y57738000D03*
X18924000Y41355000D03*
D19*
X15495000Y18495000D03*
D21*
X21999500Y24972776D03*
X4700000Y59770000D03*
D19*
X890000Y34497000D03*
X890000Y62183000D03*
X11177000Y46181000D03*
D21*
X17273000Y9977500D03*
D19*
X14606000Y12653000D03*
X29084000Y59897000D03*
X13844000Y56849000D03*
D21*
X12066000Y26750000D03*
X23369000Y58119000D03*
D19*
X16003000Y44022000D03*
X1017000Y6843000D03*
D21*
X6478000Y48086000D03*
D20*
X6579600Y36325800D03*
D19*
X18035000Y56722000D03*
X890000Y26750000D03*
D20*
X6986000Y43260000D03*
D21*
X11304000Y15574000D03*
D19*
X25528000Y25861000D03*
D21*
X28830000Y6970000D03*
X10796000Y18876000D03*
D19*
X29084000Y52277000D03*
X22099000Y12272000D03*
X13463000Y12653000D03*
X8383000Y25099000D03*
D21*
X23115000Y46435000D03*
D19*
X22099000Y13034000D03*
D21*
X3684000Y62310000D03*
D19*
X28449000Y62564000D03*
X8256000Y10875000D03*
X29084000Y44784000D03*
X12320000Y12653000D03*
D20*
X12383500Y41456600D03*
D19*
X6986000Y1350000D03*
X15241000Y969000D03*
X15520400Y34243000D03*
X19228800Y27385000D03*
D21*
X15114000Y69549000D03*
X21464000Y70819000D03*
X11939000Y67136000D03*
X17908000Y70819000D03*
X17908000Y67136000D03*
X8637000Y70819000D03*
X11939000Y70819000D03*
D19*
X21083000Y37672000D03*
X10773498Y28375600D03*
X19228800Y26648400D03*
X11685000Y25762817D03*
D21*
X6279000Y59770000D03*
D19*
X13412200Y25759400D03*
D21*
X6732000Y57738000D03*
X19559000Y12780000D03*
X5716000Y57738000D03*
D19*
X4700000Y55198000D03*
X7494000Y32338000D03*
D21*
X4700000Y20527000D03*
D19*
X11685000Y45165000D03*
X10973800Y25835600D03*
X19228800Y31220400D03*
X19228800Y25911800D03*
D21*
X22226000Y56468000D03*
D19*
X25782000Y29036000D03*
D21*
X6986000Y44530000D03*
D19*
X5843000Y10748000D03*
X7468600Y36275000D03*
D21*
X8226017Y22305000D03*
D19*
X3638500Y15955000D03*
X21006800Y25861000D03*
D21*
X9272000Y22305000D03*
D19*
X15190200Y25759400D03*
X20194000Y37418000D03*
D21*
X19813000Y52023000D03*
D19*
X10288000Y51515000D03*
X25020000Y61167000D03*
X17527000Y46435000D03*
X19051000Y46435000D03*
X26798000Y19384000D03*
X23682286Y53674000D03*
X7621000Y12399000D03*
X21033642Y24115142D03*
X23750000Y52785000D03*
X25528000Y18037800D03*
X27179000Y34497000D03*
D21*
X24639000Y56976000D03*
X7621000Y50880000D03*
X5589000Y8462000D03*
X4446000Y8462000D03*
X23496000Y56595000D03*
X24639000Y55833000D03*
X7621000Y52023000D03*
D19*
X22768517Y7919483D03*
X8510000Y3001000D03*
X23369000Y32719000D03*
D21*
X21845000Y27397500D03*
D19*
X21946600Y29112200D03*
X19228800Y28121600D03*
X11685000Y34243000D03*
X7367000Y37418000D03*
D20*
X26163000Y11764000D03*
X25268500Y22940000D03*
X26163000Y12780000D03*
D19*
X18797000Y52277000D03*
X17509000Y18455721D03*
X6732000Y31449000D03*
X7494000Y31576000D03*
X23699200Y7039600D03*
X5970000Y33735000D03*
X5977193Y32846000D03*
X23038800Y6607800D03*
X5716000Y36148000D03*
X20448000Y45546000D03*
X5970000Y34553006D03*
X24238049Y7578679D03*
X20956000Y41609000D03*
X19990800Y41304200D03*
X17781000Y41355000D03*
X17146000Y40847000D03*
X14987000Y41355000D03*
X14225000Y41355000D03*
X13272500Y36592500D03*
X12544777Y36790970D03*
X11655908Y37214800D03*
X10897600Y37214800D03*
X15266400Y37367200D03*
X14758400Y37900600D03*
X25800000Y24322706D03*
X26163000Y10748000D03*
X20600400Y22635200D03*
X11685000Y11002000D03*
X12193000Y10367000D03*
X21210000Y22178000D03*
X13590000Y3509000D03*
X25274000Y21924000D03*
X21972000Y22178000D03*
X18543000Y10621000D03*
X9018000Y6049000D03*
X17781000Y4652000D03*
X18543000Y9777500D03*
X21972000Y23194000D03*
X17273000Y3918983D03*
X9018000Y5287000D03*
X21210000Y23067000D03*
X19305000Y10240000D03*
X13082000Y34243000D03*
D21*
X13209000Y10113000D03*
X14352000Y10136500D03*
D19*
X16765000Y46816000D03*
X21885750Y23956000D03*
X7621000Y11510000D03*
X24085500Y35005000D03*
X14098000Y45165000D03*
X24085500Y34243000D03*
X13463000Y45800000D03*
X14098000Y46435000D03*
X25528000Y38434000D03*
X12193000Y46562000D03*
X25528000Y39323000D03*
X18822400Y48035200D03*
X28460000Y21570000D03*
X17400000Y44276000D03*
X14620218Y23960016D03*
X14623803Y22958000D03*
X7748000Y49102000D03*
D21*
X4192000Y11002000D03*
X8764000Y15574000D03*
X9907000Y15574000D03*
X3049000Y11002000D03*
D19*
X16003000Y46562000D03*
X26290000Y28274000D03*
X18009600Y47882800D03*
X19559000Y45419000D03*
X26036000Y30301998D03*
X11177000Y41482000D03*
X11939000Y44022000D03*
X9018000Y28274000D03*
X15495000Y15193000D03*
X14479000Y15193000D03*
X8383000Y27893000D03*
X15241000Y4398000D03*
X20030313Y35730313D03*
X14750000Y5954000D03*
X15876000Y5954000D03*
X20041600Y34979600D03*
X12574766Y3763766D03*
X26417000Y15955000D03*
X18543000Y15447000D03*
X26036000Y26877000D03*
X26130500Y25353000D03*
X26925000Y16717000D03*
X17654000Y15447000D03*
X8256000Y8589000D03*
X8891000Y9178500D03*
X19051000Y18495000D03*
X19820400Y18868600D03*
D22*
X11825000Y60900000D02*
X13095000Y59630000D01*
X13095000Y59630000D02*
X13095000Y58960000D01*
X11825000Y61500000D02*
X11825000Y60900000D01*
X19320000Y7431000D02*
X18797000Y7954000D01*
X13095000Y58960000D02*
X13095000Y57090000D01*
X11177000Y7954000D02*
X10680000Y7457000D01*
X19320000Y6030000D02*
X19320000Y7431000D01*
X13095000Y57090000D02*
X13717000Y56468000D01*
X18797000Y7954000D02*
X11177000Y7954000D01*
X10680000Y7457000D02*
X10680000Y6030000D01*
%TA.AperFunction,Conductor*%
G36*
X22803121Y71598498D02*
G01*
X22849614Y71544842D01*
X22861000Y71492500D01*
X22861000Y68356807D01*
X22840998Y68288686D01*
X22787342Y68242193D01*
X22717068Y68232089D01*
X22652488Y68261583D01*
X22614104Y68321309D01*
X22609756Y68343026D01*
X22607306Y68365288D01*
X22592830Y68496853D01*
X22522317Y68766571D01*
X22413283Y69023148D01*
X22268054Y69261115D01*
X22089724Y69475401D01*
X22089720Y69475404D01*
X22089719Y69475406D01*
X21882104Y69661429D01*
X21882094Y69661438D01*
X21649590Y69815261D01*
X21513539Y69879039D01*
X21397167Y69933592D01*
X21317530Y69957552D01*
X21130204Y70013910D01*
X21130199Y70013911D01*
X21130195Y70013912D01*
X20854394Y70054501D01*
X20854391Y70054501D01*
X20645401Y70054501D01*
X20645399Y70054501D01*
X20436962Y70039246D01*
X20164843Y69978628D01*
X20164841Y69978627D01*
X19904457Y69879039D01*
X19904454Y69879037D01*
X19661358Y69742606D01*
X19661349Y69742600D01*
X19440689Y69572212D01*
X19440688Y69572211D01*
X19247196Y69371518D01*
X19247191Y69371512D01*
X19084985Y69144790D01*
X19084978Y69144779D01*
X18957511Y68896853D01*
X18957510Y68896851D01*
X18867499Y68633006D01*
X18867496Y68632994D01*
X18816860Y68358852D01*
X18806679Y68080258D01*
X18837170Y67803147D01*
X18837171Y67803142D01*
X18907683Y67533427D01*
X19016716Y67276853D01*
X19031063Y67253345D01*
X19161946Y67038885D01*
X19340276Y66824599D01*
X19340278Y66824597D01*
X19340280Y66824595D01*
X19448325Y66727787D01*
X19547906Y66638562D01*
X19780410Y66484739D01*
X20032834Y66366408D01*
X20299796Y66286090D01*
X20363657Y66276692D01*
X20575605Y66245499D01*
X20575609Y66245499D01*
X20784601Y66245499D01*
X20888819Y66253127D01*
X20993039Y66260755D01*
X21265153Y66321371D01*
X21400748Y66373233D01*
X21471519Y66378885D01*
X21534112Y66345378D01*
X21568653Y66283351D01*
X21567466Y66222935D01*
X21514859Y66026602D01*
X21500000Y65856761D01*
X21500000Y65350000D01*
X22500000Y65350000D01*
X22500000Y64850000D01*
X21500000Y64850000D01*
X21500000Y64343239D01*
X21514859Y64173399D01*
X21573732Y63953678D01*
X21573734Y63953673D01*
X21669866Y63747518D01*
X21737259Y63651271D01*
X21759947Y63583997D01*
X21742662Y63515137D01*
X21690892Y63466552D01*
X21634046Y63453000D01*
X8365954Y63453000D01*
X8297833Y63473002D01*
X8251340Y63526658D01*
X8241236Y63596932D01*
X8262741Y63651271D01*
X8330133Y63747518D01*
X8426265Y63953673D01*
X8426267Y63953678D01*
X8485140Y64173399D01*
X8500000Y64343239D01*
X8500000Y64850000D01*
X7500000Y64850000D01*
X7500000Y65350000D01*
X8500000Y65350000D01*
X8500000Y65856761D01*
X8485140Y66026602D01*
X8434162Y66216859D01*
X8435852Y66287836D01*
X8475646Y66346631D01*
X8540911Y66374579D01*
X8598344Y66367468D01*
X8598425Y66367735D01*
X8599993Y66367264D01*
X8600891Y66367152D01*
X8602829Y66366411D01*
X8602834Y66366408D01*
X8869796Y66286090D01*
X8933657Y66276692D01*
X9145605Y66245499D01*
X9145609Y66245499D01*
X9354601Y66245499D01*
X9458819Y66253127D01*
X9563039Y66260755D01*
X9835153Y66321371D01*
X10095540Y66420961D01*
X10338653Y66557402D01*
X10559309Y66727787D01*
X10752805Y66928484D01*
X10915017Y67155215D01*
X10925072Y67174771D01*
X11042488Y67403148D01*
X11042489Y67403150D01*
X11132500Y67666995D01*
X11132502Y67667000D01*
X11183139Y67941145D01*
X11193321Y68219742D01*
X11162830Y68496853D01*
X11092317Y68766571D01*
X10983283Y69023148D01*
X10838054Y69261115D01*
X10659724Y69475401D01*
X10659720Y69475404D01*
X10659719Y69475406D01*
X10452104Y69661429D01*
X10452094Y69661438D01*
X10219590Y69815261D01*
X10083539Y69879039D01*
X9967167Y69933592D01*
X9887530Y69957552D01*
X9700204Y70013910D01*
X9700199Y70013911D01*
X9700195Y70013912D01*
X9424394Y70054501D01*
X9424391Y70054501D01*
X9215401Y70054501D01*
X9215399Y70054501D01*
X9006962Y70039246D01*
X8734843Y69978628D01*
X8734841Y69978627D01*
X8474457Y69879039D01*
X8474454Y69879037D01*
X8231358Y69742606D01*
X8231349Y69742600D01*
X8010689Y69572212D01*
X8010688Y69572211D01*
X7817196Y69371518D01*
X7817191Y69371512D01*
X7654985Y69144790D01*
X7654978Y69144779D01*
X7527511Y68896853D01*
X7527510Y68896851D01*
X7485251Y68772977D01*
X7444326Y68714963D01*
X7378532Y68688285D01*
X7308760Y68701412D01*
X7257161Y68750177D01*
X7240000Y68813660D01*
X7240000Y71492500D01*
X7260002Y71560621D01*
X7313658Y71607114D01*
X7366000Y71618500D01*
X22735000Y71618500D01*
X22803121Y71598498D01*
G37*
%TD.AperFunction*%
%TA.AperFunction,Conductor*%
G36*
X22775286Y68026587D02*
G01*
X22833436Y67985855D01*
X22860333Y67920150D01*
X22861000Y67907201D01*
X22861000Y66094552D01*
X22828160Y66103895D01*
X22716479Y66093546D01*
X22616078Y66043552D01*
X22550000Y65971070D01*
X22550000Y67078872D01*
X22549998Y67078873D01*
X22541450Y67076582D01*
X22470474Y67078272D01*
X22411678Y67118067D01*
X22383731Y67183331D01*
X22395505Y67253345D01*
X22396758Y67255854D01*
X22472488Y67403148D01*
X22472489Y67403150D01*
X22472490Y67403152D01*
X22562500Y67666995D01*
X22562502Y67667000D01*
X22611096Y67930089D01*
X22643138Y67993441D01*
X22704346Y68029415D01*
X22775286Y68026587D01*
G37*
%TD.AperFunction*%
%TA.AperFunction,Conductor*%
G36*
X590012Y66546241D02*
G01*
X610604Y66523443D01*
X705262Y66388682D01*
X742772Y66335282D01*
X742777Y66335276D01*
X988482Y66054474D01*
X988484Y66054472D01*
X1208028Y65851800D01*
X1262655Y65801371D01*
X1562171Y65578849D01*
X1562172Y65578847D01*
X1562176Y65578845D01*
X1562177Y65578844D01*
X1883655Y65389415D01*
X2223446Y65235230D01*
X2577702Y65118036D01*
X2942408Y65039161D01*
X2942410Y65039161D01*
X2942414Y65039160D01*
X3313418Y64999500D01*
X3313425Y64999500D01*
X3313431Y64999499D01*
X3313436Y64999499D01*
X3593219Y64999499D01*
X3872596Y65014389D01*
X3872601Y65014390D01*
X3872609Y65014390D01*
X4240995Y65073743D01*
X4600986Y65171916D01*
X4948503Y65307798D01*
X5150904Y65412972D01*
X5220572Y65426632D01*
X5286568Y65400459D01*
X5327936Y65342760D01*
X5335000Y65301165D01*
X5335000Y63325999D01*
X6949095Y61711905D01*
X6983120Y61649593D01*
X6986000Y61622810D01*
X6986000Y60434215D01*
X6965998Y60366094D01*
X6912342Y60319601D01*
X6842068Y60309497D01*
X6777488Y60338991D01*
X6770905Y60345120D01*
X6752402Y60363623D01*
X6752399Y60363625D01*
X6608439Y60454081D01*
X6608437Y60454082D01*
X6447954Y60510237D01*
X6279000Y60529274D01*
X6110046Y60510237D01*
X6110043Y60510237D01*
X6110043Y60510236D01*
X5949562Y60454082D01*
X5949560Y60454081D01*
X5805600Y60363625D01*
X5805597Y60363623D01*
X5685377Y60243403D01*
X5685375Y60243400D01*
X5594919Y60099440D01*
X5594918Y60099438D01*
X5555400Y59986500D01*
X5538763Y59938954D01*
X5519726Y59770000D01*
X5538763Y59601046D01*
X5538764Y59601044D01*
X5594918Y59440563D01*
X5594919Y59440561D01*
X5685375Y59296601D01*
X5685377Y59296598D01*
X5805597Y59176378D01*
X5805600Y59176376D01*
X5949563Y59085918D01*
X6110046Y59029763D01*
X6279000Y59010726D01*
X6447954Y59029763D01*
X6608437Y59085918D01*
X6752400Y59176376D01*
X6757318Y59181294D01*
X6770905Y59194880D01*
X6833217Y59228906D01*
X6904032Y59223841D01*
X6960868Y59181294D01*
X6985679Y59114774D01*
X6986000Y59105785D01*
X6986000Y58609649D01*
X6965998Y58541528D01*
X6912342Y58495035D01*
X6845892Y58484442D01*
X6732000Y58497274D01*
X6563046Y58478237D01*
X6563043Y58478237D01*
X6563043Y58478236D01*
X6402562Y58422082D01*
X6402559Y58422081D01*
X6291036Y58352006D01*
X6222714Y58332700D01*
X6156964Y58352006D01*
X6045440Y58422081D01*
X6045437Y58422082D01*
X5969998Y58448479D01*
X5884954Y58478237D01*
X5716000Y58497274D01*
X5547046Y58478237D01*
X5547043Y58478237D01*
X5547043Y58478236D01*
X5386562Y58422082D01*
X5386560Y58422081D01*
X5242600Y58331625D01*
X5242597Y58331623D01*
X5122377Y58211403D01*
X5122375Y58211400D01*
X5031919Y58067440D01*
X5031918Y58067438D01*
X5031918Y58067437D01*
X4975763Y57906954D01*
X4956726Y57738000D01*
X4975763Y57569046D01*
X4978231Y57561994D01*
X5031918Y57408563D01*
X5031919Y57408561D01*
X5122375Y57264601D01*
X5122377Y57264598D01*
X5242597Y57144378D01*
X5242600Y57144376D01*
X5386563Y57053918D01*
X5547046Y56997763D01*
X5716000Y56978726D01*
X5884954Y56997763D01*
X6045437Y57053918D01*
X6156964Y57123995D01*
X6225285Y57143301D01*
X6291036Y57123995D01*
X6402563Y57053918D01*
X6563046Y56997763D01*
X6732000Y56978726D01*
X6900954Y56997763D01*
X7061437Y57053918D01*
X7108814Y57083688D01*
X7175850Y57103000D01*
X21505936Y57103000D01*
X21574057Y57082998D01*
X21620550Y57029342D01*
X21630654Y56959068D01*
X21612623Y56909964D01*
X21541919Y56797440D01*
X21541918Y56797438D01*
X21541918Y56797437D01*
X21485763Y56636954D01*
X21466726Y56468000D01*
X21485763Y56299046D01*
X21499070Y56261017D01*
X21541918Y56138563D01*
X21541919Y56138561D01*
X21632375Y55994601D01*
X21632377Y55994598D01*
X21752597Y55874378D01*
X21752600Y55874376D01*
X21896563Y55783918D01*
X22057046Y55727763D01*
X22226000Y55708726D01*
X22394954Y55727763D01*
X22555437Y55783918D01*
X22699400Y55874376D01*
X22819624Y55994600D01*
X22819625Y55994603D01*
X22824036Y56000132D01*
X22826326Y55998306D01*
X22869617Y56036640D01*
X22939778Y56047499D01*
X23004672Y56018702D01*
X23012284Y56011691D01*
X23022597Y56001378D01*
X23022600Y56001376D01*
X23166563Y55910918D01*
X23327046Y55854763D01*
X23496000Y55835726D01*
X23664954Y55854763D01*
X23720091Y55874057D01*
X23790991Y55877676D01*
X23852596Y55842387D01*
X23885344Y55779394D01*
X23886910Y55769241D01*
X23898763Y55664046D01*
X23938669Y55550000D01*
X23954918Y55503563D01*
X23954919Y55503561D01*
X24045375Y55359601D01*
X24045377Y55359598D01*
X24165597Y55239378D01*
X24165600Y55239376D01*
X24309563Y55148918D01*
X24470046Y55092763D01*
X24639000Y55073726D01*
X24807954Y55092763D01*
X24968437Y55148918D01*
X25112400Y55239376D01*
X25232624Y55359600D01*
X25323082Y55503563D01*
X25379237Y55664046D01*
X25398274Y55833000D01*
X25379237Y56001954D01*
X25362425Y56050000D01*
X26306240Y56050000D01*
X26325250Y55820588D01*
X26381756Y55597451D01*
X26381759Y55597444D01*
X26474220Y55386654D01*
X26474222Y55386651D01*
X26556760Y55260315D01*
X27216922Y55920477D01*
X27240507Y55840156D01*
X27318239Y55719202D01*
X27426900Y55625048D01*
X27557685Y55565320D01*
X27567466Y55563914D01*
X26909039Y54905487D01*
X26937680Y54883195D01*
X26937687Y54883190D01*
X27140133Y54773633D01*
X27140131Y54773633D01*
X27164336Y54765324D01*
X27222272Y54724288D01*
X27248825Y54658444D01*
X27235565Y54588697D01*
X27189757Y54539023D01*
X27007934Y54426442D01*
X26851324Y54283674D01*
X26723612Y54114556D01*
X26629150Y53924850D01*
X26629147Y53924842D01*
X26571154Y53721017D01*
X26551601Y53510005D01*
X26551601Y53509996D01*
X26571154Y53298984D01*
X26615635Y53142648D01*
X26629150Y53095150D01*
X26723611Y52905446D01*
X26723612Y52905445D01*
X26851324Y52736327D01*
X27007933Y52593559D01*
X27188108Y52481999D01*
X27188110Y52481999D01*
X27188115Y52481995D01*
X27385726Y52405440D01*
X27594039Y52366500D01*
X27594041Y52366500D01*
X27805959Y52366500D01*
X27805961Y52366500D01*
X28014274Y52405440D01*
X28211885Y52481995D01*
X28392065Y52593558D01*
X28548677Y52736329D01*
X28676389Y52905446D01*
X28770850Y53095150D01*
X28828845Y53298982D01*
X28848399Y53510000D01*
X28846615Y53529248D01*
X28828845Y53721017D01*
X28770852Y53924842D01*
X28770850Y53924850D01*
X28676389Y54114554D01*
X28548677Y54283671D01*
X28548675Y54283674D01*
X28392066Y54426442D01*
X28210242Y54539023D01*
X28162855Y54591890D01*
X28151572Y54661984D01*
X28179976Y54727051D01*
X28235665Y54765324D01*
X28259861Y54773630D01*
X28259866Y54773632D01*
X28462313Y54883191D01*
X28462322Y54883197D01*
X28490959Y54905487D01*
X28490959Y54905489D01*
X27832534Y55563914D01*
X27842315Y55565320D01*
X27973100Y55625048D01*
X28081761Y55719202D01*
X28159493Y55840156D01*
X28183076Y55920477D01*
X28843239Y55260315D01*
X28925776Y55386648D01*
X29018240Y55597444D01*
X29018243Y55597451D01*
X29074749Y55820588D01*
X29093759Y56050000D01*
X29074749Y56279413D01*
X29018243Y56502550D01*
X29018240Y56502557D01*
X28925775Y56713356D01*
X28843238Y56839687D01*
X28183076Y56179526D01*
X28159493Y56259844D01*
X28081761Y56380798D01*
X27973100Y56474952D01*
X27842315Y56534680D01*
X27832533Y56536087D01*
X28490960Y57194514D01*
X28462311Y57216811D01*
X28259866Y57326368D01*
X28259864Y57326370D01*
X28235661Y57334678D01*
X28177726Y57375715D01*
X28151174Y57441560D01*
X28164435Y57511307D01*
X28210243Y57560978D01*
X28370299Y57660081D01*
X28392065Y57673558D01*
X28548677Y57816329D01*
X28676389Y57985446D01*
X28770850Y58175150D01*
X28828845Y58378982D01*
X28838042Y58478236D01*
X28848399Y58589996D01*
X28848399Y58590005D01*
X28828845Y58801017D01*
X28770852Y59004842D01*
X28770850Y59004850D01*
X28676389Y59194554D01*
X28548677Y59363671D01*
X28548675Y59363674D01*
X28392066Y59506442D01*
X28211891Y59618002D01*
X28211886Y59618004D01*
X28211885Y59618005D01*
X28014277Y59694559D01*
X28014278Y59694559D01*
X28014275Y59694560D01*
X28014274Y59694560D01*
X27805961Y59733500D01*
X27594039Y59733500D01*
X27385726Y59694560D01*
X27385721Y59694559D01*
X27188119Y59618007D01*
X27188108Y59618002D01*
X27007933Y59506442D01*
X26851324Y59363674D01*
X26723612Y59194556D01*
X26629150Y59004850D01*
X26629147Y59004842D01*
X26571154Y58801017D01*
X26551601Y58590005D01*
X26551601Y58589996D01*
X26571154Y58378984D01*
X26584629Y58331623D01*
X26629150Y58175150D01*
X26723611Y57985446D01*
X26723612Y57985445D01*
X26851324Y57816327D01*
X27007933Y57673559D01*
X27189757Y57560978D01*
X27237144Y57508111D01*
X27248427Y57438017D01*
X27220023Y57372950D01*
X27164339Y57334678D01*
X27140133Y57326368D01*
X26937687Y57216811D01*
X26909039Y57194515D01*
X26909039Y57194513D01*
X27567465Y56536087D01*
X27557685Y56534680D01*
X27426900Y56474952D01*
X27318239Y56380798D01*
X27240507Y56259844D01*
X27216923Y56179525D01*
X26556760Y56839688D01*
X26556759Y56839687D01*
X26474229Y56713365D01*
X26474222Y56713351D01*
X26381759Y56502557D01*
X26381756Y56502550D01*
X26325250Y56279413D01*
X26306240Y56050000D01*
X25362425Y56050000D01*
X25323082Y56162437D01*
X25232624Y56306400D01*
X25223620Y56315404D01*
X25189594Y56377712D01*
X25194657Y56448528D01*
X25223620Y56493597D01*
X25232624Y56502600D01*
X25323082Y56646563D01*
X25379237Y56807046D01*
X25398274Y56976000D01*
X25379237Y57144954D01*
X25323082Y57305437D01*
X25232624Y57449400D01*
X25232622Y57449403D01*
X25112402Y57569623D01*
X25112399Y57569625D01*
X24968439Y57660081D01*
X24968437Y57660082D01*
X24929927Y57673557D01*
X24807954Y57716237D01*
X24639000Y57735274D01*
X24470046Y57716237D01*
X24470043Y57716237D01*
X24470043Y57716236D01*
X24309562Y57660082D01*
X24309560Y57660081D01*
X24165600Y57569625D01*
X24165597Y57569623D01*
X24045378Y57449404D01*
X23971464Y57331771D01*
X23918285Y57284734D01*
X23848118Y57273914D01*
X23823163Y57279878D01*
X23664954Y57335237D01*
X23496000Y57354274D01*
X23327046Y57335237D01*
X23327043Y57335237D01*
X23327043Y57335236D01*
X23159884Y57276745D01*
X23159255Y57278543D01*
X23098596Y57268564D01*
X23033432Y57296744D01*
X22993847Y57355681D01*
X22988000Y57393619D01*
X22988000Y61167000D01*
X24460715Y61167000D01*
X24479771Y61022248D01*
X24535644Y60887359D01*
X24535649Y60887351D01*
X24624525Y60771526D01*
X24740350Y60682650D01*
X24740357Y60682645D01*
X24875246Y60626772D01*
X25020000Y60607715D01*
X25164754Y60626772D01*
X25299643Y60682645D01*
X25415474Y60771526D01*
X25504355Y60887357D01*
X25560228Y61022246D01*
X25574413Y61129996D01*
X26551601Y61129996D01*
X26571154Y60918984D01*
X26613109Y60771526D01*
X26629150Y60715150D01*
X26723611Y60525446D01*
X26735097Y60510236D01*
X26851324Y60356327D01*
X27007933Y60213559D01*
X27188108Y60101999D01*
X27188110Y60101999D01*
X27188115Y60101995D01*
X27385726Y60025440D01*
X27594039Y59986500D01*
X27594041Y59986500D01*
X27805959Y59986500D01*
X27805961Y59986500D01*
X28014274Y60025440D01*
X28211885Y60101995D01*
X28392065Y60213558D01*
X28497305Y60309497D01*
X28548675Y60356327D01*
X28554185Y60363623D01*
X28676389Y60525446D01*
X28770850Y60715150D01*
X28828845Y60918982D01*
X28848399Y61130000D01*
X28844970Y61167000D01*
X28828845Y61341017D01*
X28820937Y61368810D01*
X28770850Y61544850D01*
X28676389Y61734554D01*
X28548677Y61903671D01*
X28548675Y61903674D01*
X28392066Y62046442D01*
X28211891Y62158002D01*
X28211886Y62158004D01*
X28211885Y62158005D01*
X28014277Y62234559D01*
X28014278Y62234559D01*
X28014275Y62234560D01*
X28014274Y62234560D01*
X27805961Y62273500D01*
X27594039Y62273500D01*
X27385726Y62234560D01*
X27385721Y62234559D01*
X27188119Y62158007D01*
X27188108Y62158002D01*
X27007933Y62046442D01*
X26851324Y61903674D01*
X26723612Y61734556D01*
X26629150Y61544850D01*
X26629147Y61544842D01*
X26571154Y61341017D01*
X26551601Y61130005D01*
X26551601Y61129996D01*
X25574413Y61129996D01*
X25579285Y61167000D01*
X25560228Y61311754D01*
X25504355Y61446642D01*
X25415474Y61562474D01*
X25415472Y61562476D01*
X25415471Y61562477D01*
X25299649Y61651351D01*
X25299641Y61651356D01*
X25164752Y61707229D01*
X25020000Y61726285D01*
X24875247Y61707229D01*
X24807802Y61679292D01*
X24740358Y61651355D01*
X24740357Y61651354D01*
X24740356Y61651354D01*
X24624526Y61562474D01*
X24535646Y61446644D01*
X24535645Y61446642D01*
X24525024Y61421000D01*
X24479771Y61311753D01*
X24460715Y61167001D01*
X24460715Y61167000D01*
X22988000Y61167000D01*
X22988000Y61368810D01*
X23008002Y61436931D01*
X23024905Y61457905D01*
X24766000Y63199000D01*
X24766000Y65247264D01*
X24786002Y65315385D01*
X24839658Y65361878D01*
X24909932Y65371982D01*
X24944059Y65362006D01*
X25223446Y65235230D01*
X25577702Y65118036D01*
X25942408Y65039161D01*
X25942410Y65039161D01*
X25942414Y65039160D01*
X26313418Y64999500D01*
X26313425Y64999500D01*
X26313431Y64999499D01*
X26313436Y64999499D01*
X26593219Y64999499D01*
X26872596Y65014389D01*
X26872601Y65014390D01*
X26872609Y65014390D01*
X27240995Y65073743D01*
X27600986Y65171916D01*
X27948503Y65307798D01*
X28279607Y65479849D01*
X28590547Y65686119D01*
X28877801Y65924272D01*
X29138114Y66191609D01*
X29368535Y66485101D01*
X29385685Y66512510D01*
X29438774Y66559649D01*
X29508920Y66570603D01*
X29573853Y66541895D01*
X29612957Y66482638D01*
X29618500Y66445678D01*
X29618500Y5548984D01*
X29598498Y5480863D01*
X29544842Y5434370D01*
X29474568Y5424266D01*
X29409988Y5453760D01*
X29389394Y5476560D01*
X29350988Y5531237D01*
X29257232Y5664713D01*
X29257227Y5664719D01*
X29257222Y5664725D01*
X29011517Y5945527D01*
X29011515Y5945529D01*
X28737344Y6198630D01*
X28562997Y6328159D01*
X28437827Y6421153D01*
X28437827Y6421154D01*
X28247411Y6533355D01*
X28116345Y6610585D01*
X27776554Y6764770D01*
X27422298Y6881964D01*
X27422297Y6881965D01*
X27422288Y6881967D01*
X27057585Y6960841D01*
X26686581Y7000501D01*
X26686569Y7000501D01*
X26406787Y7000501D01*
X26406781Y7000501D01*
X26127403Y6985612D01*
X26127385Y6985610D01*
X25759000Y6926257D01*
X25399012Y6828084D01*
X25399009Y6828083D01*
X25051514Y6692209D01*
X25051507Y6692207D01*
X25051497Y6692202D01*
X25051488Y6692198D01*
X25051485Y6692196D01*
X24720399Y6520155D01*
X24720396Y6520153D01*
X24409452Y6313881D01*
X24409445Y6313876D01*
X24122202Y6075732D01*
X23861883Y5808388D01*
X23631464Y5514900D01*
X23433543Y5198575D01*
X23270370Y4863014D01*
X23270369Y4863013D01*
X23143788Y4512008D01*
X23143786Y4512002D01*
X23055232Y4149532D01*
X23055228Y4149509D01*
X23005706Y3779696D01*
X23005705Y3779687D01*
X22995772Y3406690D01*
X22995772Y3406684D01*
X23025542Y3034741D01*
X23094683Y2668057D01*
X23094686Y2668048D01*
X23202399Y2310820D01*
X23202403Y2310811D01*
X23347484Y1967044D01*
X23347492Y1967027D01*
X23483092Y1722228D01*
X23528293Y1640626D01*
X23679856Y1424852D01*
X23742772Y1335282D01*
X23742777Y1335276D01*
X23988482Y1054474D01*
X23988484Y1054472D01*
X24262655Y801371D01*
X24522068Y608642D01*
X24564821Y551961D01*
X24570143Y481164D01*
X24536344Y418729D01*
X24474156Y384478D01*
X24446926Y381500D01*
X20125310Y381500D01*
X20057189Y401502D01*
X20010696Y455158D01*
X20000592Y525432D01*
X20030086Y590012D01*
X20040424Y600615D01*
X20173499Y721930D01*
X20301939Y892011D01*
X20396936Y1082793D01*
X20396938Y1082798D01*
X20455261Y1287782D01*
X20470000Y1446837D01*
X20470000Y1600000D01*
X19720000Y1600000D01*
X19720000Y2100000D01*
X20470000Y2100000D01*
X20470000Y2253164D01*
X20455261Y2412219D01*
X20396938Y2617203D01*
X20396936Y2617208D01*
X20301939Y2807990D01*
X20173499Y2978071D01*
X20015998Y3121653D01*
X19834795Y3233848D01*
X19834788Y3233851D01*
X19636065Y3310837D01*
X19636066Y3310837D01*
X19570000Y3323187D01*
X19570000Y2465686D01*
X19558045Y2477641D01*
X19445148Y2535165D01*
X19320000Y2554986D01*
X19194852Y2535165D01*
X19081955Y2477641D01*
X19070000Y2465686D01*
X19070000Y3323187D01*
X19003933Y3310837D01*
X18805211Y3233851D01*
X18805204Y3233848D01*
X18624001Y3121653D01*
X18466500Y2978071D01*
X18338060Y2807990D01*
X18243063Y2617208D01*
X18243061Y2617203D01*
X18184738Y2412219D01*
X18170000Y2253164D01*
X18170000Y2100000D01*
X18920000Y2100000D01*
X18920000Y1600000D01*
X18170000Y1600000D01*
X18170000Y1446837D01*
X18184738Y1287782D01*
X18243061Y1082798D01*
X18243063Y1082793D01*
X18338060Y892011D01*
X18466500Y721930D01*
X18599576Y600615D01*
X18636442Y539940D01*
X18634653Y468966D01*
X18594777Y410226D01*
X18529473Y382370D01*
X18514690Y381500D01*
X11485310Y381500D01*
X11417189Y401502D01*
X11370696Y455158D01*
X11360592Y525432D01*
X11390086Y590012D01*
X11400424Y600615D01*
X11533499Y721930D01*
X11661939Y892011D01*
X11756936Y1082793D01*
X11756938Y1082798D01*
X11815261Y1287782D01*
X11830000Y1446837D01*
X11830000Y1600000D01*
X11080000Y1600000D01*
X11080000Y2100000D01*
X11830000Y2100000D01*
X11830000Y2253164D01*
X11815261Y2412219D01*
X11756938Y2617203D01*
X11756936Y2617208D01*
X11661939Y2807990D01*
X11533499Y2978071D01*
X11375998Y3121653D01*
X11194795Y3233848D01*
X11194788Y3233851D01*
X10996065Y3310837D01*
X10996066Y3310837D01*
X10930000Y3323187D01*
X10930000Y2465686D01*
X10918045Y2477641D01*
X10805148Y2535165D01*
X10680000Y2554986D01*
X10554852Y2535165D01*
X10441955Y2477641D01*
X10430000Y2465686D01*
X10430000Y3323187D01*
X10363933Y3310837D01*
X10165211Y3233851D01*
X10165204Y3233848D01*
X9984001Y3121653D01*
X9826500Y2978071D01*
X9698060Y2807990D01*
X9603063Y2617208D01*
X9603061Y2617203D01*
X9544738Y2412219D01*
X9530000Y2253164D01*
X9530000Y2100000D01*
X10280000Y2100000D01*
X10280000Y1600000D01*
X9530000Y1600000D01*
X9530000Y1446837D01*
X9544738Y1287782D01*
X9603061Y1082798D01*
X9603063Y1082793D01*
X9698060Y892011D01*
X9826500Y721930D01*
X9959576Y600615D01*
X9996442Y539940D01*
X9994653Y468966D01*
X9954777Y410226D01*
X9889473Y382370D01*
X9874690Y381500D01*
X5549220Y381500D01*
X5481099Y401502D01*
X5434606Y455158D01*
X5424502Y525432D01*
X5453996Y590012D01*
X5479565Y612497D01*
X5590547Y686119D01*
X5877801Y924272D01*
X6138114Y1191609D01*
X6368535Y1485101D01*
X6566455Y1801422D01*
X6729631Y2136989D01*
X6856213Y2487999D01*
X6944769Y2850476D01*
X6964926Y3001000D01*
X7950715Y3001000D01*
X7969771Y2856248D01*
X8025644Y2721359D01*
X8025649Y2721351D01*
X8114525Y2605526D01*
X8180390Y2554986D01*
X8230357Y2516645D01*
X8365246Y2460772D01*
X8510000Y2441715D01*
X8654754Y2460772D01*
X8789643Y2516645D01*
X8905474Y2605526D01*
X8994355Y2721357D01*
X9050228Y2856246D01*
X9069285Y3001000D01*
X9066171Y3024650D01*
X9050228Y3145753D01*
X9050228Y3145754D01*
X8994355Y3280642D01*
X8905474Y3396474D01*
X8905472Y3396476D01*
X8905471Y3396477D01*
X8789649Y3485351D01*
X8789641Y3485356D01*
X8654752Y3541229D01*
X8510000Y3560285D01*
X8365247Y3541229D01*
X8297802Y3513292D01*
X8230358Y3485355D01*
X8230357Y3485354D01*
X8230356Y3485354D01*
X8114526Y3396474D01*
X8025646Y3280644D01*
X8025645Y3280642D01*
X8006262Y3233848D01*
X7969771Y3145753D01*
X7950715Y3001001D01*
X7950715Y3001000D01*
X6964926Y3001000D01*
X6994294Y3220312D01*
X7002840Y3541229D01*
X7004227Y3593311D01*
X7004227Y3593317D01*
X6990584Y3763766D01*
X12015481Y3763766D01*
X12034537Y3619014D01*
X12090410Y3484125D01*
X12090415Y3484117D01*
X12179291Y3368292D01*
X12295116Y3279416D01*
X12295123Y3279411D01*
X12430012Y3223538D01*
X12574766Y3204481D01*
X12719520Y3223538D01*
X12854409Y3279411D01*
X12899046Y3313664D01*
X12965264Y3339263D01*
X13034813Y3324999D01*
X13085609Y3275398D01*
X13092157Y3261919D01*
X13105642Y3229363D01*
X13105649Y3229351D01*
X13194525Y3113526D01*
X13310350Y3024650D01*
X13310357Y3024645D01*
X13445246Y2968772D01*
X13590000Y2949715D01*
X13734754Y2968772D01*
X13869643Y3024645D01*
X13985474Y3113526D01*
X14074355Y3229357D01*
X14130228Y3364246D01*
X14149285Y3509000D01*
X14130228Y3653754D01*
X14074355Y3788642D01*
X13985474Y3904474D01*
X13985472Y3904476D01*
X13985471Y3904477D01*
X13869649Y3993351D01*
X13869641Y3993356D01*
X13734752Y4049229D01*
X13590000Y4068285D01*
X13445247Y4049229D01*
X13377802Y4021292D01*
X13310358Y3993355D01*
X13310357Y3993354D01*
X13310351Y3993351D01*
X13265719Y3959103D01*
X13199499Y3933503D01*
X13129950Y3947768D01*
X13079154Y3997370D01*
X13072613Y4010836D01*
X13059121Y4043408D01*
X12970240Y4159240D01*
X12970238Y4159242D01*
X12970237Y4159243D01*
X12854415Y4248117D01*
X12854407Y4248122D01*
X12719518Y4303995D01*
X12574766Y4323051D01*
X12430013Y4303995D01*
X12362568Y4276058D01*
X12295124Y4248121D01*
X12295123Y4248120D01*
X12295122Y4248120D01*
X12179292Y4159240D01*
X12090412Y4043410D01*
X12090411Y4043408D01*
X12076924Y4010848D01*
X12034537Y3908519D01*
X12015481Y3763767D01*
X12015481Y3763766D01*
X6990584Y3763766D01*
X6974457Y3965260D01*
X6955889Y4063736D01*
X6905317Y4331941D01*
X6885399Y4398000D01*
X14681715Y4398000D01*
X14700771Y4253248D01*
X14756644Y4118359D01*
X14756649Y4118351D01*
X14845525Y4002526D01*
X14954399Y3918984D01*
X14961357Y3913645D01*
X15096246Y3857772D01*
X15241000Y3838715D01*
X15385754Y3857772D01*
X15520643Y3913645D01*
X15527600Y3918983D01*
X16713715Y3918983D01*
X16732771Y3774231D01*
X16788644Y3639342D01*
X16788649Y3639334D01*
X16877525Y3523509D01*
X16965284Y3456169D01*
X16993357Y3434628D01*
X17128246Y3378755D01*
X17273000Y3359698D01*
X17417754Y3378755D01*
X17552643Y3434628D01*
X17668474Y3523509D01*
X17757355Y3639340D01*
X17813228Y3774229D01*
X17832285Y3918983D01*
X17830373Y3933503D01*
X17825375Y3971471D01*
X17836314Y4041620D01*
X17883443Y4094718D01*
X17918456Y4107096D01*
X17917776Y4109634D01*
X17925749Y4111771D01*
X17925750Y4111772D01*
X17925754Y4111772D01*
X18060643Y4167645D01*
X18176474Y4256526D01*
X18265355Y4372357D01*
X18321228Y4507246D01*
X18340285Y4652000D01*
X18340285Y4652001D01*
X18341363Y4660188D01*
X18343907Y4659854D01*
X18360287Y4715638D01*
X18413943Y4762131D01*
X18484217Y4772235D01*
X18548797Y4742742D01*
X18679036Y4629890D01*
X18679036Y4629889D01*
X18860964Y4524854D01*
X18860966Y4524853D01*
X19059481Y4456146D01*
X19059492Y4456143D01*
X19069999Y4454633D01*
X19070000Y4454633D01*
X19070000Y5264314D01*
X19081955Y5252359D01*
X19194852Y5194835D01*
X19320000Y5175014D01*
X19445148Y5194835D01*
X19558045Y5252359D01*
X19570000Y5264314D01*
X19570000Y4458743D01*
X19681406Y4485770D01*
X19681412Y4485772D01*
X19872502Y4573039D01*
X20043623Y4694894D01*
X20188593Y4846935D01*
X20302169Y5023662D01*
X20380243Y5218682D01*
X20380243Y5218684D01*
X20419998Y5424957D01*
X20420000Y5424968D01*
X20420000Y5780000D01*
X19720000Y5780000D01*
X19720000Y6280000D01*
X20420000Y6280000D01*
X20420000Y6582403D01*
X20419999Y6582424D01*
X20405036Y6739113D01*
X20405033Y6739128D01*
X20345850Y6940687D01*
X20345846Y6940697D01*
X20249591Y7127407D01*
X20249585Y7127416D01*
X20119734Y7292534D01*
X20119723Y7292546D01*
X19960963Y7430111D01*
X19960963Y7430112D01*
X19779035Y7535147D01*
X19779033Y7535148D01*
X19580515Y7603856D01*
X19580511Y7603857D01*
X19570000Y7605369D01*
X19570000Y6795686D01*
X19558045Y6807641D01*
X19445148Y6865165D01*
X19320000Y6884986D01*
X19194852Y6865165D01*
X19081955Y6807641D01*
X19070000Y6795686D01*
X19070000Y7601259D01*
X19069999Y7601260D01*
X18958590Y7574231D01*
X18958586Y7574229D01*
X18767497Y7486962D01*
X18596376Y7365107D01*
X18451406Y7213066D01*
X18337830Y7036339D01*
X18259756Y6841319D01*
X18259756Y6841317D01*
X18220001Y6635044D01*
X18220000Y6635033D01*
X18220000Y6179549D01*
X18199998Y6111428D01*
X18146342Y6064935D01*
X18076068Y6054831D01*
X18060006Y6058221D01*
X17966216Y6084500D01*
X17966214Y6084500D01*
X17852073Y6084500D01*
X17852062Y6084500D01*
X17738998Y6068959D01*
X17738990Y6068957D01*
X17599181Y6008230D01*
X17599178Y6008228D01*
X17480944Y5912036D01*
X17480938Y5912030D01*
X17393039Y5787506D01*
X17393037Y5787501D01*
X17341994Y5643879D01*
X17341993Y5643873D01*
X17335868Y5554323D01*
X17331592Y5491804D01*
X17347319Y5416122D01*
X17362605Y5342561D01*
X17362606Y5342559D01*
X17429981Y5212531D01*
X17443562Y5142846D01*
X17417312Y5076880D01*
X17394816Y5054604D01*
X17385528Y5047478D01*
X17296646Y4931644D01*
X17296645Y4931642D01*
X17276229Y4882354D01*
X17240771Y4796753D01*
X17221715Y4652001D01*
X17221715Y4651998D01*
X17228624Y4599513D01*
X17217684Y4529364D01*
X17170555Y4476266D01*
X17135646Y4463500D01*
X17136223Y4461349D01*
X17128252Y4459214D01*
X17065161Y4433081D01*
X16993358Y4403338D01*
X16993357Y4403337D01*
X16993356Y4403337D01*
X16877526Y4314457D01*
X16788646Y4198627D01*
X16788645Y4198625D01*
X16768300Y4149509D01*
X16732771Y4063736D01*
X16713715Y3918984D01*
X16713715Y3918983D01*
X15527600Y3918983D01*
X15636474Y4002526D01*
X15725355Y4118357D01*
X15781228Y4253246D01*
X15800285Y4398000D01*
X15799582Y4403337D01*
X15785277Y4512001D01*
X15781228Y4542754D01*
X15725355Y4677642D01*
X15636474Y4793474D01*
X15636472Y4793476D01*
X15636471Y4793477D01*
X15520649Y4882351D01*
X15520641Y4882356D01*
X15385752Y4938229D01*
X15241000Y4957285D01*
X15096247Y4938229D01*
X15028802Y4910292D01*
X14961358Y4882355D01*
X14961357Y4882354D01*
X14961356Y4882354D01*
X14845526Y4793474D01*
X14756646Y4677644D01*
X14756645Y4677642D01*
X14749277Y4659854D01*
X14700771Y4542753D01*
X14681715Y4398001D01*
X14681715Y4398000D01*
X6885399Y4398000D01*
X6867083Y4458743D01*
X6797600Y4689181D01*
X6797596Y4689190D01*
X6781337Y4727715D01*
X6652511Y5032967D01*
X6511797Y5287000D01*
X8458715Y5287000D01*
X8477771Y5142248D01*
X8533644Y5007359D01*
X8533649Y5007351D01*
X8622525Y4891526D01*
X8738350Y4802650D01*
X8738357Y4802645D01*
X8873246Y4746772D01*
X9018000Y4727715D01*
X9162754Y4746772D01*
X9297643Y4802645D01*
X9413474Y4891526D01*
X9489837Y4991043D01*
X9506742Y5013074D01*
X9564080Y5054941D01*
X9634951Y5059163D01*
X9696854Y5024399D01*
X9718697Y4994106D01*
X9750408Y4932594D01*
X9750414Y4932585D01*
X9880265Y4767467D01*
X9880276Y4767455D01*
X10039036Y4629890D01*
X10039036Y4629889D01*
X10220964Y4524854D01*
X10220966Y4524853D01*
X10419481Y4456146D01*
X10419492Y4456143D01*
X10429999Y4454633D01*
X10430000Y4454633D01*
X10430000Y5264314D01*
X10441955Y5252359D01*
X10554852Y5194835D01*
X10680000Y5175014D01*
X10805148Y5194835D01*
X10918045Y5252359D01*
X10930000Y5264314D01*
X10930000Y4458743D01*
X11041406Y4485770D01*
X11041412Y4485772D01*
X11232502Y4573039D01*
X11403623Y4694894D01*
X11548593Y4846935D01*
X11655647Y5013514D01*
X11709302Y5060007D01*
X11779576Y5070111D01*
X11827108Y5053052D01*
X11887010Y5016625D01*
X11887012Y5016625D01*
X11887013Y5016624D01*
X11887012Y5016624D01*
X11978316Y4991042D01*
X12033786Y4975500D01*
X12033788Y4975500D01*
X12147927Y4975500D01*
X12147937Y4975501D01*
X12237249Y4987778D01*
X12261009Y4991043D01*
X12400818Y5051770D01*
X12519058Y5147966D01*
X12606961Y5272496D01*
X12658006Y5416123D01*
X12668408Y5568196D01*
X12637396Y5717436D01*
X12637395Y5717438D01*
X12637395Y5717439D01*
X12589823Y5809248D01*
X12567269Y5852775D01*
X12472732Y5954000D01*
X14190715Y5954000D01*
X14209771Y5809248D01*
X14265644Y5674359D01*
X14265649Y5674351D01*
X14354525Y5558526D01*
X14461345Y5476560D01*
X14470357Y5469645D01*
X14605246Y5413772D01*
X14750000Y5394715D01*
X14894754Y5413772D01*
X15029643Y5469645D01*
X15145474Y5558526D01*
X15213038Y5646576D01*
X15270376Y5688443D01*
X15341247Y5692665D01*
X15403150Y5657901D01*
X15412962Y5646576D01*
X15480525Y5558526D01*
X15587345Y5476560D01*
X15596357Y5469645D01*
X15731246Y5413772D01*
X15876000Y5394715D01*
X16020754Y5413772D01*
X16155643Y5469645D01*
X16271474Y5558526D01*
X16360355Y5674357D01*
X16416228Y5809246D01*
X16435285Y5954000D01*
X16416228Y6098754D01*
X16360355Y6233642D01*
X16271474Y6349474D01*
X16271472Y6349476D01*
X16271471Y6349477D01*
X16155649Y6438351D01*
X16155641Y6438356D01*
X16020752Y6494229D01*
X15876000Y6513285D01*
X15731247Y6494229D01*
X15663802Y6466292D01*
X15596358Y6438355D01*
X15596357Y6438354D01*
X15596356Y6438354D01*
X15480523Y6349472D01*
X15412962Y6261424D01*
X15355624Y6219557D01*
X15284753Y6215335D01*
X15222850Y6250099D01*
X15213038Y6261424D01*
X15145474Y6349475D01*
X15029649Y6438351D01*
X15029641Y6438356D01*
X14894752Y6494229D01*
X14750000Y6513285D01*
X14605247Y6494229D01*
X14537802Y6466292D01*
X14470358Y6438355D01*
X14470357Y6438354D01*
X14470356Y6438354D01*
X14354526Y6349474D01*
X14265646Y6233644D01*
X14265645Y6233642D01*
X14244798Y6183313D01*
X14209771Y6098753D01*
X14190715Y5954001D01*
X14190715Y5954000D01*
X12472732Y5954000D01*
X12463228Y5964176D01*
X12463227Y5964177D01*
X12332990Y6043375D01*
X12332987Y6043377D01*
X12186220Y6084499D01*
X12186215Y6084500D01*
X12186214Y6084500D01*
X12072073Y6084500D01*
X12072062Y6084500D01*
X11958998Y6068959D01*
X11958986Y6068956D01*
X11956191Y6067741D01*
X11953419Y6067396D01*
X11950696Y6066632D01*
X11950581Y6067042D01*
X11885741Y6058952D01*
X11821722Y6089647D01*
X11784462Y6150080D01*
X11780000Y6183313D01*
X11780000Y6582403D01*
X11779999Y6582424D01*
X11765036Y6739113D01*
X11765033Y6739128D01*
X11705850Y6940687D01*
X11705846Y6940697D01*
X11609591Y7127407D01*
X11609585Y7127416D01*
X11479734Y7292534D01*
X11479723Y7292546D01*
X11320963Y7430111D01*
X11320963Y7430112D01*
X11139035Y7535147D01*
X11139033Y7535148D01*
X10940515Y7603856D01*
X10940511Y7603857D01*
X10930000Y7605369D01*
X10930000Y6795686D01*
X10918045Y6807641D01*
X10805148Y6865165D01*
X10680000Y6884986D01*
X10554852Y6865165D01*
X10441955Y6807641D01*
X10430000Y6795686D01*
X10430000Y7601259D01*
X10429999Y7601260D01*
X10318590Y7574231D01*
X10318586Y7574229D01*
X10127497Y7486962D01*
X9956376Y7365107D01*
X9811406Y7213066D01*
X9697830Y7036339D01*
X9619756Y6841319D01*
X9619756Y6841317D01*
X9580001Y6635044D01*
X9580000Y6635033D01*
X9580000Y6572198D01*
X9559998Y6504077D01*
X9506342Y6457584D01*
X9436068Y6447480D01*
X9377296Y6472235D01*
X9326150Y6511481D01*
X9297643Y6533355D01*
X9179181Y6582424D01*
X9162752Y6589229D01*
X9018000Y6608285D01*
X8873247Y6589229D01*
X8832132Y6572198D01*
X8738358Y6533355D01*
X8738357Y6533354D01*
X8738356Y6533354D01*
X8622526Y6444474D01*
X8533646Y6328644D01*
X8533645Y6328642D01*
X8533442Y6328151D01*
X8477771Y6193753D01*
X8458715Y6049001D01*
X8458715Y6049000D01*
X8477771Y5904248D01*
X8533644Y5769359D01*
X8533649Y5769351D01*
X8552562Y5744703D01*
X8578162Y5678483D01*
X8563897Y5608934D01*
X8552563Y5591298D01*
X8533649Y5566648D01*
X8533646Y5566645D01*
X8533645Y5566642D01*
X8505708Y5499198D01*
X8477771Y5431753D01*
X8458715Y5287001D01*
X8458715Y5287000D01*
X6511797Y5287000D01*
X6471707Y5359374D01*
X6257232Y5664713D01*
X6257227Y5664719D01*
X6257222Y5664725D01*
X6011517Y5945527D01*
X6011515Y5945529D01*
X5737344Y6198630D01*
X5562997Y6328159D01*
X5437827Y6421153D01*
X5437827Y6421154D01*
X5247411Y6533355D01*
X5116345Y6610585D01*
X4776554Y6764770D01*
X4422298Y6881964D01*
X4422297Y6881965D01*
X4422288Y6881967D01*
X4057585Y6960841D01*
X3686581Y7000501D01*
X3686569Y7000501D01*
X3406787Y7000501D01*
X3406781Y7000501D01*
X3127403Y6985612D01*
X3127385Y6985610D01*
X2759000Y6926257D01*
X2399012Y6828084D01*
X2399009Y6828083D01*
X2051514Y6692209D01*
X2051507Y6692207D01*
X2051497Y6692202D01*
X2051488Y6692198D01*
X2051485Y6692196D01*
X1720399Y6520155D01*
X1720396Y6520153D01*
X1409452Y6313881D01*
X1409445Y6313876D01*
X1122202Y6075732D01*
X861883Y5808388D01*
X631464Y5514899D01*
X631461Y5514895D01*
X614314Y5487489D01*
X561225Y5440351D01*
X491078Y5429398D01*
X426145Y5458108D01*
X387042Y5517365D01*
X381500Y5554323D01*
X381500Y8462000D01*
X3686726Y8462000D01*
X3705763Y8293046D01*
X3738627Y8199126D01*
X3761918Y8132563D01*
X3761919Y8132561D01*
X3852375Y7988601D01*
X3852377Y7988598D01*
X3972597Y7868378D01*
X3972600Y7868376D01*
X4116563Y7777918D01*
X4277046Y7721763D01*
X4446000Y7702726D01*
X4614954Y7721763D01*
X4775437Y7777918D01*
X4919400Y7868376D01*
X4928403Y7877380D01*
X4990712Y7911406D01*
X5061528Y7906343D01*
X5106596Y7877380D01*
X5115600Y7868376D01*
X5259563Y7777918D01*
X5420046Y7721763D01*
X5589000Y7702726D01*
X5757954Y7721763D01*
X5918437Y7777918D01*
X6062400Y7868376D01*
X6113507Y7919483D01*
X22209232Y7919483D01*
X22228288Y7774731D01*
X22284161Y7639842D01*
X22284166Y7639834D01*
X22373042Y7524009D01*
X22488867Y7435133D01*
X22488874Y7435128D01*
X22623763Y7379255D01*
X22768517Y7360198D01*
X22772826Y7360198D01*
X22776328Y7359170D01*
X22776705Y7359120D01*
X22776697Y7359062D01*
X22840947Y7340196D01*
X22887440Y7286540D01*
X22897544Y7216266D01*
X22868050Y7151686D01*
X22821047Y7117791D01*
X22759158Y7092155D01*
X22759157Y7092154D01*
X22759156Y7092154D01*
X22643326Y7003274D01*
X22554446Y6887444D01*
X22554445Y6887442D01*
X22526508Y6819998D01*
X22498571Y6752553D01*
X22479515Y6607801D01*
X22479515Y6607800D01*
X22498571Y6463048D01*
X22554444Y6328159D01*
X22554449Y6328151D01*
X22643325Y6212326D01*
X22759150Y6123450D01*
X22759157Y6123445D01*
X22894046Y6067572D01*
X23038800Y6048515D01*
X23183554Y6067572D01*
X23318443Y6123445D01*
X23434274Y6212326D01*
X23523155Y6328157D01*
X23555027Y6405105D01*
X23599572Y6460382D01*
X23666935Y6482804D01*
X23687881Y6481806D01*
X23699200Y6480315D01*
X23843954Y6499372D01*
X23978843Y6555245D01*
X24094674Y6644126D01*
X24183555Y6759957D01*
X24239428Y6894846D01*
X24243518Y6925919D01*
X24272239Y6990845D01*
X24331503Y7029938D01*
X24351991Y7034395D01*
X24382803Y7038451D01*
X24517692Y7094324D01*
X24633523Y7183205D01*
X24722404Y7299036D01*
X24778277Y7433925D01*
X24797334Y7578679D01*
X24794019Y7603856D01*
X24778497Y7721763D01*
X24778277Y7723433D01*
X24722404Y7858321D01*
X24633523Y7974153D01*
X24633521Y7974155D01*
X24633520Y7974156D01*
X24517698Y8063030D01*
X24517690Y8063035D01*
X24382801Y8118908D01*
X24238049Y8137964D01*
X24093296Y8118908D01*
X24025851Y8090971D01*
X23958407Y8063034D01*
X23958406Y8063033D01*
X23958405Y8063033D01*
X23842575Y7974153D01*
X23753695Y7858323D01*
X23753694Y7858321D01*
X23720390Y7777918D01*
X23697821Y7723432D01*
X23693729Y7692357D01*
X23665004Y7627431D01*
X23605738Y7588341D01*
X23585257Y7583885D01*
X23554445Y7579828D01*
X23441442Y7533020D01*
X23370852Y7525431D01*
X23307365Y7557210D01*
X23271138Y7618268D01*
X23273672Y7689220D01*
X23276807Y7697626D01*
X23308745Y7774729D01*
X23327802Y7919483D01*
X23308745Y8064237D01*
X23252872Y8199125D01*
X23163991Y8314957D01*
X23163989Y8314959D01*
X23163988Y8314960D01*
X23048166Y8403834D01*
X23048158Y8403839D01*
X22913269Y8459712D01*
X22768517Y8478768D01*
X22623764Y8459712D01*
X22556319Y8431775D01*
X22488875Y8403838D01*
X22488874Y8403837D01*
X22488873Y8403837D01*
X22373043Y8314957D01*
X22284163Y8199127D01*
X22284162Y8199125D01*
X22281843Y8193526D01*
X22228288Y8064236D01*
X22209232Y7919484D01*
X22209232Y7919483D01*
X6113507Y7919483D01*
X6182624Y7988600D01*
X6273082Y8132563D01*
X6329237Y8293046D01*
X6348274Y8462000D01*
X6333964Y8589000D01*
X7696715Y8589000D01*
X7715771Y8444248D01*
X7771644Y8309359D01*
X7771649Y8309351D01*
X7860525Y8193526D01*
X7976350Y8104650D01*
X7976357Y8104645D01*
X8111246Y8048772D01*
X8256000Y8029715D01*
X8400754Y8048772D01*
X8535643Y8104645D01*
X8651474Y8193526D01*
X8740355Y8309357D01*
X8796228Y8444246D01*
X8805378Y8513750D01*
X8834098Y8578674D01*
X8893363Y8617767D01*
X8913848Y8622224D01*
X9035754Y8638272D01*
X9170643Y8694145D01*
X9286474Y8783026D01*
X9375355Y8898857D01*
X9431228Y9033746D01*
X9450285Y9178500D01*
X9445056Y9218215D01*
X9431228Y9323253D01*
X9431228Y9323254D01*
X9375355Y9458142D01*
X9286474Y9573974D01*
X9286472Y9573976D01*
X9286471Y9573977D01*
X9170649Y9662851D01*
X9170641Y9662856D01*
X9035752Y9718729D01*
X8891000Y9737785D01*
X8746247Y9718729D01*
X8687272Y9694300D01*
X8611358Y9662855D01*
X8611357Y9662854D01*
X8611356Y9662854D01*
X8495526Y9573974D01*
X8406646Y9458144D01*
X8406645Y9458142D01*
X8363394Y9353726D01*
X8350772Y9323253D01*
X8341621Y9253751D01*
X8312897Y9188824D01*
X8253632Y9149733D01*
X8233146Y9145277D01*
X8111247Y9129229D01*
X8043802Y9101292D01*
X7976358Y9073355D01*
X7976357Y9073354D01*
X7976356Y9073354D01*
X7860526Y8984474D01*
X7771646Y8868644D01*
X7771645Y8868642D01*
X7743708Y8801198D01*
X7715771Y8733753D01*
X7696715Y8589001D01*
X7696715Y8589000D01*
X6333964Y8589000D01*
X6329237Y8630954D01*
X6273082Y8791437D01*
X6182624Y8935400D01*
X6182622Y8935403D01*
X6062402Y9055623D01*
X6062399Y9055625D01*
X5918439Y9146081D01*
X5918437Y9146082D01*
X5908003Y9149733D01*
X5757954Y9202237D01*
X5589000Y9221274D01*
X5420046Y9202237D01*
X5420043Y9202237D01*
X5420043Y9202236D01*
X5259562Y9146082D01*
X5259560Y9146081D01*
X5115600Y9055625D01*
X5115597Y9055623D01*
X5106595Y9046620D01*
X5044283Y9012594D01*
X4973468Y9017659D01*
X4928405Y9046620D01*
X4919402Y9055623D01*
X4919399Y9055625D01*
X4775439Y9146081D01*
X4775437Y9146082D01*
X4765003Y9149733D01*
X4614954Y9202237D01*
X4446000Y9221274D01*
X4277046Y9202237D01*
X4277043Y9202237D01*
X4277043Y9202236D01*
X4116562Y9146082D01*
X4116560Y9146081D01*
X3972600Y9055625D01*
X3972597Y9055623D01*
X3852377Y8935403D01*
X3852375Y8935400D01*
X3761919Y8791440D01*
X3761918Y8791438D01*
X3727876Y8694150D01*
X3705763Y8630954D01*
X3686726Y8462000D01*
X381500Y8462000D01*
X381500Y15410000D01*
X906240Y15410000D01*
X925250Y15180588D01*
X981756Y14957451D01*
X981759Y14957444D01*
X1074220Y14746654D01*
X1074222Y14746651D01*
X1156760Y14620315D01*
X1816922Y15280477D01*
X1840507Y15200156D01*
X1918239Y15079202D01*
X2026900Y14985048D01*
X2157685Y14925320D01*
X2167466Y14923914D01*
X1509039Y14265487D01*
X1541798Y14239990D01*
X1540555Y14238394D01*
X1581015Y14191017D01*
X1590613Y14120672D01*
X1560656Y14056305D01*
X1500656Y14018352D01*
X1466029Y14013500D01*
X1385937Y14013500D01*
X1385926Y14013499D01*
X1311699Y13998735D01*
X1227515Y13942484D01*
X1171266Y13858303D01*
X1156500Y13784070D01*
X1156500Y11955937D01*
X1156501Y11955927D01*
X1171265Y11881700D01*
X1227516Y11797516D01*
X1311697Y11741267D01*
X1311699Y11741266D01*
X1385933Y11726500D01*
X2402286Y11726501D01*
X2470406Y11706499D01*
X2516899Y11652843D01*
X2527003Y11582569D01*
X2497510Y11517989D01*
X2491382Y11511407D01*
X2455375Y11475400D01*
X2364919Y11331440D01*
X2364918Y11331438D01*
X2329549Y11230357D01*
X2308763Y11170954D01*
X2289726Y11002000D01*
X2308763Y10833046D01*
X2362173Y10680409D01*
X2364918Y10672563D01*
X2364919Y10672561D01*
X2455375Y10528601D01*
X2455377Y10528598D01*
X2575597Y10408378D01*
X2575600Y10408376D01*
X2719563Y10317918D01*
X2880046Y10261763D01*
X3049000Y10242726D01*
X3217954Y10261763D01*
X3378437Y10317918D01*
X3522400Y10408376D01*
X3531403Y10417380D01*
X3593712Y10451406D01*
X3664528Y10446343D01*
X3709596Y10417380D01*
X3718600Y10408376D01*
X3862563Y10317918D01*
X4023046Y10261763D01*
X4192000Y10242726D01*
X4360954Y10261763D01*
X4521437Y10317918D01*
X4665400Y10408376D01*
X4785624Y10528600D01*
X4876082Y10672563D01*
X4902478Y10748000D01*
X5283715Y10748000D01*
X5302771Y10603248D01*
X5358644Y10468359D01*
X5358649Y10468351D01*
X5447525Y10352526D01*
X5563350Y10263650D01*
X5563357Y10263645D01*
X5698246Y10207772D01*
X5843000Y10188715D01*
X5987754Y10207772D01*
X6122643Y10263645D01*
X6238474Y10352526D01*
X6327355Y10468357D01*
X6383228Y10603246D01*
X6402285Y10748000D01*
X6400379Y10762474D01*
X6383228Y10892753D01*
X6379961Y10900641D01*
X6327355Y11027642D01*
X6238474Y11143474D01*
X6238472Y11143476D01*
X6238471Y11143477D01*
X6122649Y11232351D01*
X6122641Y11232356D01*
X5987752Y11288229D01*
X5843000Y11307285D01*
X5698247Y11288229D01*
X5630802Y11260292D01*
X5563358Y11232355D01*
X5563357Y11232354D01*
X5563356Y11232354D01*
X5447526Y11143474D01*
X5358646Y11027644D01*
X5358645Y11027642D01*
X5350818Y11008746D01*
X5302771Y10892753D01*
X5283715Y10748001D01*
X5283715Y10748000D01*
X4902478Y10748000D01*
X4932237Y10833046D01*
X4951274Y11002000D01*
X4932237Y11170954D01*
X4876082Y11331437D01*
X4785624Y11475400D01*
X4785622Y11475403D01*
X4751025Y11510000D01*
X7061715Y11510000D01*
X7080771Y11365248D01*
X7136644Y11230359D01*
X7136649Y11230351D01*
X7225525Y11114526D01*
X7338753Y11027643D01*
X7341357Y11025645D01*
X7476246Y10969772D01*
X7621000Y10950715D01*
X7765754Y10969772D01*
X7843559Y11002000D01*
X11125715Y11002000D01*
X11144771Y10857248D01*
X11200644Y10722359D01*
X11200649Y10722351D01*
X11289525Y10606526D01*
X11402753Y10519643D01*
X11405357Y10517645D01*
X11540246Y10461772D01*
X11540254Y10461771D01*
X11542873Y10461069D01*
X11544843Y10459869D01*
X11547876Y10458612D01*
X11547680Y10458140D01*
X11603497Y10424120D01*
X11634521Y10360260D01*
X11635188Y10355808D01*
X11652771Y10222248D01*
X11708644Y10087359D01*
X11708649Y10087351D01*
X11797525Y9971526D01*
X11913350Y9882650D01*
X11913357Y9882645D01*
X12048246Y9826772D01*
X12193000Y9807715D01*
X12337754Y9826772D01*
X12366422Y9838648D01*
X12437011Y9846237D01*
X12500499Y9814459D01*
X12521328Y9789275D01*
X12615375Y9639601D01*
X12615377Y9639598D01*
X12735597Y9519378D01*
X12735600Y9519376D01*
X12879563Y9428918D01*
X13040046Y9372763D01*
X13209000Y9353726D01*
X13377954Y9372763D01*
X13538437Y9428918D01*
X13682400Y9519376D01*
X13703154Y9540131D01*
X13765461Y9574155D01*
X13836277Y9569093D01*
X13872097Y9546073D01*
X13873067Y9547288D01*
X13878600Y9542876D01*
X14022563Y9452418D01*
X14183046Y9396263D01*
X14352000Y9377226D01*
X14520954Y9396263D01*
X14681437Y9452418D01*
X14825400Y9542876D01*
X14945624Y9663100D01*
X15017506Y9777500D01*
X17983715Y9777500D01*
X18002771Y9632748D01*
X18058644Y9497859D01*
X18058649Y9497851D01*
X18147525Y9382026D01*
X18263350Y9293150D01*
X18263357Y9293145D01*
X18398246Y9237272D01*
X18543000Y9218215D01*
X18687754Y9237272D01*
X18822643Y9293145D01*
X18938474Y9382026D01*
X19027355Y9497857D01*
X19076540Y9616602D01*
X19121086Y9671879D01*
X19188449Y9694300D01*
X19209390Y9693303D01*
X19305000Y9680715D01*
X19449754Y9699772D01*
X19584643Y9755645D01*
X19700474Y9844526D01*
X19789355Y9960357D01*
X19845228Y10095246D01*
X19864285Y10240000D01*
X19861171Y10263650D01*
X19845228Y10384753D01*
X19845228Y10384754D01*
X19789355Y10519642D01*
X19700474Y10635474D01*
X19700472Y10635476D01*
X19700471Y10635477D01*
X19584649Y10724351D01*
X19584641Y10724356D01*
X19449752Y10780229D01*
X19305000Y10799285D01*
X19177380Y10782484D01*
X19107231Y10793424D01*
X19054133Y10840552D01*
X19044529Y10859179D01*
X19027355Y10900642D01*
X18938474Y11016474D01*
X18938472Y11016476D01*
X18938471Y11016477D01*
X18822649Y11105351D01*
X18822641Y11105356D01*
X18687752Y11161229D01*
X18543000Y11180285D01*
X18398247Y11161229D01*
X18355384Y11143474D01*
X18263358Y11105355D01*
X18263357Y11105354D01*
X18263356Y11105354D01*
X18147526Y11016474D01*
X18058646Y10900644D01*
X18058645Y10900642D01*
X18038229Y10851354D01*
X18002771Y10765753D01*
X17983715Y10621001D01*
X17983715Y10621000D01*
X18002771Y10476248D01*
X18058644Y10341359D01*
X18058646Y10341356D01*
X18108831Y10275954D01*
X18134431Y10209734D01*
X18120166Y10140185D01*
X18108831Y10122547D01*
X18058649Y10057149D01*
X18058646Y10057144D01*
X18058645Y10057142D01*
X18030708Y9989698D01*
X18002771Y9922253D01*
X17983715Y9777501D01*
X17983715Y9777500D01*
X15017506Y9777500D01*
X15036082Y9807063D01*
X15092237Y9967546D01*
X15111274Y10136500D01*
X15092237Y10305454D01*
X15036082Y10465937D01*
X14945624Y10609900D01*
X14945622Y10609903D01*
X14825402Y10730123D01*
X14825399Y10730125D01*
X14681439Y10820581D01*
X14681437Y10820582D01*
X14645822Y10833044D01*
X14520954Y10876737D01*
X14352000Y10895774D01*
X14183046Y10876737D01*
X14183043Y10876737D01*
X14183043Y10876736D01*
X14022562Y10820582D01*
X14022560Y10820581D01*
X13878600Y10730125D01*
X13878597Y10730123D01*
X13857845Y10709370D01*
X13795533Y10675344D01*
X13724718Y10680409D01*
X13688902Y10703428D01*
X13687933Y10702212D01*
X13682399Y10706625D01*
X13538439Y10797081D01*
X13538437Y10797082D01*
X13471277Y10820582D01*
X13377954Y10853237D01*
X13209000Y10872274D01*
X13040046Y10853237D01*
X13040043Y10853237D01*
X13040043Y10853236D01*
X12879562Y10797082D01*
X12762397Y10723463D01*
X12694076Y10704158D01*
X12626163Y10724854D01*
X12595401Y10753446D01*
X12588474Y10762474D01*
X12588470Y10762477D01*
X12588469Y10762479D01*
X12472649Y10851351D01*
X12472646Y10851353D01*
X12472643Y10851355D01*
X12337754Y10907228D01*
X12337747Y10907231D01*
X12335121Y10907934D01*
X12333154Y10909133D01*
X12330124Y10910388D01*
X12330319Y10910861D01*
X12274499Y10944885D01*
X12243477Y11008746D01*
X12242811Y11013194D01*
X12225228Y11146753D01*
X12224862Y11147637D01*
X12169355Y11281642D01*
X12080474Y11397474D01*
X12080472Y11397476D01*
X12080471Y11397477D01*
X11964649Y11486351D01*
X11964641Y11486356D01*
X11829752Y11542229D01*
X11685000Y11561285D01*
X11540247Y11542229D01*
X11481728Y11517989D01*
X11405358Y11486355D01*
X11405357Y11486354D01*
X11405356Y11486354D01*
X11289526Y11397474D01*
X11200646Y11281644D01*
X11200645Y11281642D01*
X11180229Y11232354D01*
X11144771Y11146753D01*
X11125715Y11002001D01*
X11125715Y11002000D01*
X7843559Y11002000D01*
X7900643Y11025645D01*
X8016474Y11114526D01*
X8105355Y11230357D01*
X8161228Y11365246D01*
X8180285Y11510000D01*
X8174677Y11552594D01*
X8169013Y11595623D01*
X8161228Y11654754D01*
X8115978Y11763997D01*
X25503693Y11763997D01*
X25522849Y11606221D01*
X25568309Y11486356D01*
X25579213Y11457605D01*
X25669502Y11326799D01*
X25723711Y11278774D01*
X25761436Y11218629D01*
X25760656Y11147637D01*
X25740120Y11107759D01*
X25678649Y11027648D01*
X25678646Y11027645D01*
X25678645Y11027642D01*
X25670818Y11008746D01*
X25622771Y10892753D01*
X25603715Y10748001D01*
X25603715Y10748000D01*
X25622771Y10603248D01*
X25678644Y10468359D01*
X25678649Y10468351D01*
X25767525Y10352526D01*
X25883350Y10263650D01*
X25883357Y10263645D01*
X26018246Y10207772D01*
X26163000Y10188715D01*
X26307754Y10207772D01*
X26442643Y10263645D01*
X26558474Y10352526D01*
X26647355Y10468357D01*
X26703228Y10603246D01*
X26722285Y10748000D01*
X26720379Y10762474D01*
X26703228Y10892753D01*
X26699961Y10900641D01*
X26647355Y11027642D01*
X26647350Y11027648D01*
X26647350Y11027649D01*
X26585880Y11107758D01*
X26560279Y11173978D01*
X26574544Y11243527D01*
X26602289Y11278774D01*
X26656498Y11326799D01*
X26746787Y11457605D01*
X26803149Y11606218D01*
X26804298Y11615687D01*
X26832363Y11680899D01*
X26891231Y11720587D01*
X26929380Y11726501D01*
X28614064Y11726501D01*
X28614066Y11726501D01*
X28614069Y11726502D01*
X28614072Y11726502D01*
X28650663Y11733781D01*
X28688301Y11741266D01*
X28772484Y11797516D01*
X28828734Y11881699D01*
X28843500Y11955933D01*
X28843499Y13784066D01*
X28843498Y13784070D01*
X28843498Y13784074D01*
X28828734Y13858301D01*
X28772483Y13942485D01*
X28688302Y13998734D01*
X28614069Y14013500D01*
X28533972Y14013500D01*
X28465851Y14033502D01*
X28419358Y14087158D01*
X28409254Y14157432D01*
X28438748Y14222012D01*
X28458662Y14239397D01*
X28458201Y14239989D01*
X28490959Y14265487D01*
X28490959Y14265489D01*
X27832534Y14923914D01*
X27842315Y14925320D01*
X27973100Y14985048D01*
X28081761Y15079202D01*
X28159493Y15200156D01*
X28183076Y15280477D01*
X28843239Y14620315D01*
X28925776Y14746648D01*
X29018240Y14957444D01*
X29018243Y14957451D01*
X29074749Y15180588D01*
X29093759Y15410000D01*
X29074749Y15639413D01*
X29018243Y15862550D01*
X29018240Y15862557D01*
X28925775Y16073356D01*
X28843238Y16199687D01*
X28183076Y15539526D01*
X28159493Y15619844D01*
X28081761Y15740798D01*
X27973100Y15834952D01*
X27842315Y15894680D01*
X27832532Y15896087D01*
X28490960Y16554514D01*
X28462311Y16576811D01*
X28259866Y16686368D01*
X28259864Y16686370D01*
X28235661Y16694678D01*
X28177726Y16735715D01*
X28151174Y16801560D01*
X28164435Y16871307D01*
X28210243Y16920978D01*
X28392063Y17033557D01*
X28392062Y17033557D01*
X28392065Y17033558D01*
X28548677Y17176329D01*
X28676389Y17345446D01*
X28770850Y17535150D01*
X28828845Y17738982D01*
X28835363Y17809322D01*
X28848399Y17949996D01*
X28848399Y17950005D01*
X28828845Y18161017D01*
X28824561Y18176072D01*
X28770850Y18364850D01*
X28676389Y18554554D01*
X28548677Y18723671D01*
X28548675Y18723674D01*
X28392066Y18866442D01*
X28211891Y18978002D01*
X28211886Y18978004D01*
X28211885Y18978005D01*
X28152688Y19000938D01*
X28014277Y19054559D01*
X28014278Y19054559D01*
X28014275Y19054560D01*
X28014274Y19054560D01*
X27805961Y19093500D01*
X27594039Y19093500D01*
X27518428Y19079367D01*
X27479851Y19072155D01*
X27409214Y19079300D01*
X27353654Y19123499D01*
X27330810Y19190720D01*
X27337915Y19230782D01*
X27336091Y19231270D01*
X27338226Y19239238D01*
X27338226Y19239243D01*
X27338228Y19239246D01*
X27340796Y19258753D01*
X27369515Y19323676D01*
X27428779Y19362769D01*
X27488866Y19366160D01*
X27594039Y19346500D01*
X27594041Y19346500D01*
X27805959Y19346500D01*
X27805961Y19346500D01*
X28014274Y19385440D01*
X28211885Y19461995D01*
X28392065Y19573558D01*
X28490883Y19663643D01*
X28548675Y19716327D01*
X28587490Y19767726D01*
X28676389Y19885446D01*
X28770850Y20075150D01*
X28828845Y20278982D01*
X28848399Y20490000D01*
X28844970Y20527000D01*
X28828845Y20701017D01*
X28784624Y20856437D01*
X28770850Y20904850D01*
X28743357Y20960063D01*
X28730898Y21029955D01*
X28758205Y21095490D01*
X28779437Y21116181D01*
X28855474Y21174526D01*
X28944355Y21290357D01*
X29000228Y21425246D01*
X29019285Y21570000D01*
X29012581Y21620919D01*
X29000228Y21714753D01*
X29000228Y21714754D01*
X28944355Y21849642D01*
X28855474Y21965474D01*
X28855472Y21965476D01*
X28855471Y21965477D01*
X28739649Y22054351D01*
X28739641Y22054356D01*
X28704881Y22068754D01*
X28628497Y22100393D01*
X28573218Y22144940D01*
X28550797Y22212304D01*
X28568355Y22281095D01*
X28576160Y22292723D01*
X28676389Y22425446D01*
X28770850Y22615150D01*
X28828845Y22818982D01*
X28841727Y22958001D01*
X28848399Y23029996D01*
X28848399Y23030005D01*
X28828845Y23241017D01*
X28827315Y23246393D01*
X28770850Y23444850D01*
X28676389Y23634554D01*
X28548677Y23803671D01*
X28548675Y23803674D01*
X28392066Y23946442D01*
X28211891Y24058002D01*
X28211886Y24058004D01*
X28211885Y24058005D01*
X28101540Y24100753D01*
X28014277Y24134559D01*
X28014278Y24134559D01*
X28014275Y24134560D01*
X28014274Y24134560D01*
X27805961Y24173500D01*
X27594039Y24173500D01*
X27385726Y24134560D01*
X27385721Y24134559D01*
X27188119Y24058007D01*
X27188108Y24058002D01*
X27007933Y23946442D01*
X26851324Y23803674D01*
X26723612Y23634556D01*
X26629150Y23444850D01*
X26629147Y23444842D01*
X26571154Y23241017D01*
X26551601Y23030005D01*
X26551601Y23029996D01*
X26571154Y22818984D01*
X26627058Y22622500D01*
X26629150Y22615150D01*
X26723611Y22425446D01*
X26765017Y22370616D01*
X26851324Y22256327D01*
X27007933Y22113559D01*
X27188108Y22001999D01*
X27188110Y22001999D01*
X27188115Y22001995D01*
X27385726Y21925440D01*
X27594039Y21886500D01*
X27594041Y21886500D01*
X27802339Y21886500D01*
X27870460Y21866498D01*
X27916953Y21812842D01*
X27927057Y21742568D01*
X27918757Y21712303D01*
X27918343Y21711303D01*
X27873805Y21656014D01*
X27806445Y21633581D01*
X27801925Y21633500D01*
X27594039Y21633500D01*
X27385726Y21594560D01*
X27385721Y21594559D01*
X27188119Y21518007D01*
X27188108Y21518002D01*
X27007933Y21406442D01*
X26851324Y21263674D01*
X26723612Y21094556D01*
X26629150Y20904850D01*
X26629147Y20904842D01*
X26571154Y20701017D01*
X26551601Y20490005D01*
X26551601Y20489996D01*
X26571154Y20278984D01*
X26594320Y20197563D01*
X26629150Y20075150D01*
X26629153Y20075144D01*
X26635376Y20062645D01*
X26647832Y19992749D01*
X26620522Y19927216D01*
X26570803Y19890079D01*
X26518361Y19868357D01*
X26518356Y19868354D01*
X26402526Y19779474D01*
X26313646Y19663644D01*
X26313645Y19663642D01*
X26285708Y19596198D01*
X26257771Y19528753D01*
X26238715Y19384001D01*
X26238715Y19384000D01*
X26257771Y19239248D01*
X26313644Y19104359D01*
X26313649Y19104351D01*
X26402525Y18988526D01*
X26518350Y18899650D01*
X26518357Y18899645D01*
X26653246Y18843772D01*
X26701445Y18837427D01*
X26766371Y18808705D01*
X26805463Y18749440D01*
X26806308Y18678449D01*
X26785549Y18636574D01*
X26723611Y18554556D01*
X26629150Y18364850D01*
X26629147Y18364842D01*
X26571154Y18161017D01*
X26551601Y17950005D01*
X26551601Y17949996D01*
X26571154Y17738984D01*
X26629147Y17535159D01*
X26629150Y17535151D01*
X26709515Y17373755D01*
X26721973Y17303860D01*
X26694666Y17238325D01*
X26651963Y17206425D01*
X26652508Y17205482D01*
X26645356Y17201354D01*
X26529526Y17112474D01*
X26440646Y16996644D01*
X26440645Y16996642D01*
X26412708Y16929198D01*
X26384771Y16861753D01*
X26365715Y16717001D01*
X26365715Y16716999D01*
X26376375Y16636023D01*
X26365435Y16565875D01*
X26318307Y16512776D01*
X26279802Y16498933D01*
X26280222Y16497365D01*
X26272248Y16495229D01*
X26272246Y16495228D01*
X26137358Y16439355D01*
X26137357Y16439354D01*
X26137356Y16439354D01*
X26021526Y16350474D01*
X25932646Y16234644D01*
X25932645Y16234642D01*
X25918166Y16199687D01*
X25876771Y16099753D01*
X25857715Y15955001D01*
X25857715Y15955000D01*
X25876771Y15810248D01*
X25932644Y15675359D01*
X25932649Y15675351D01*
X26021525Y15559526D01*
X26134753Y15472643D01*
X26137357Y15470645D01*
X26236035Y15429771D01*
X26291314Y15385225D01*
X26313385Y15323770D01*
X26325250Y15180588D01*
X26381756Y14957451D01*
X26381759Y14957444D01*
X26474220Y14746654D01*
X26474222Y14746651D01*
X26556760Y14620314D01*
X27216922Y15280477D01*
X27240507Y15200156D01*
X27318239Y15079202D01*
X27426900Y14985048D01*
X27557685Y14925320D01*
X27567466Y14923914D01*
X26909039Y14265487D01*
X26941798Y14239990D01*
X26940555Y14238394D01*
X26981015Y14191017D01*
X26990613Y14120672D01*
X26960656Y14056305D01*
X26900656Y14018352D01*
X26866029Y14013500D01*
X26785937Y14013500D01*
X26785926Y14013499D01*
X26711699Y13998735D01*
X26627515Y13942484D01*
X26571266Y13858303D01*
X26556500Y13784070D01*
X26556500Y13517927D01*
X26536498Y13449806D01*
X26482842Y13403313D01*
X26412568Y13393209D01*
X26400347Y13395588D01*
X26242474Y13434500D01*
X26242471Y13434500D01*
X26083529Y13434500D01*
X26083527Y13434500D01*
X25929209Y13396464D01*
X25929202Y13396461D01*
X25788474Y13322602D01*
X25788469Y13322598D01*
X25669501Y13217200D01*
X25579215Y13086399D01*
X25579212Y13086393D01*
X25522849Y12937780D01*
X25503693Y12780004D01*
X25503693Y12779997D01*
X25522849Y12622221D01*
X25579212Y12473608D01*
X25579215Y12473602D01*
X25668965Y12343576D01*
X25691201Y12276151D01*
X25673454Y12207408D01*
X25668965Y12200424D01*
X25579215Y12070399D01*
X25579212Y12070393D01*
X25522849Y11921780D01*
X25503693Y11764004D01*
X25503693Y11763997D01*
X8115978Y11763997D01*
X8105355Y11789642D01*
X8099312Y11797517D01*
X8037712Y11877796D01*
X8012111Y11944016D01*
X8026376Y12013565D01*
X8037706Y12031197D01*
X8105355Y12119357D01*
X8161228Y12254246D01*
X8180285Y12399000D01*
X8161228Y12543754D01*
X8105355Y12678642D01*
X8027580Y12780000D01*
X18799726Y12780000D01*
X18818763Y12611046D01*
X18818764Y12611044D01*
X18874918Y12450563D01*
X18874919Y12450561D01*
X18965375Y12306601D01*
X18965377Y12306598D01*
X19085597Y12186378D01*
X19085600Y12186376D01*
X19229563Y12095918D01*
X19390046Y12039763D01*
X19559000Y12020726D01*
X19727954Y12039763D01*
X19888437Y12095918D01*
X20032400Y12186376D01*
X20152624Y12306600D01*
X20243082Y12450563D01*
X20299237Y12611046D01*
X20318274Y12780000D01*
X20299237Y12948954D01*
X20243082Y13109437D01*
X20152624Y13253400D01*
X20152622Y13253403D01*
X20032402Y13373623D01*
X20032399Y13373625D01*
X19888439Y13464081D01*
X19888437Y13464082D01*
X19727954Y13520237D01*
X19559000Y13539274D01*
X19390046Y13520237D01*
X19390043Y13520237D01*
X19390043Y13520236D01*
X19229562Y13464082D01*
X19229560Y13464081D01*
X19085600Y13373625D01*
X19085597Y13373623D01*
X18965377Y13253403D01*
X18965375Y13253400D01*
X18874919Y13109440D01*
X18874918Y13109438D01*
X18822028Y12958285D01*
X18818763Y12948954D01*
X18799726Y12780000D01*
X8027580Y12780000D01*
X8016474Y12794474D01*
X8016472Y12794476D01*
X8016471Y12794477D01*
X7900649Y12883351D01*
X7900641Y12883356D01*
X7765752Y12939229D01*
X7621000Y12958285D01*
X7476247Y12939229D01*
X7408802Y12911292D01*
X7341358Y12883355D01*
X7341357Y12883354D01*
X7341356Y12883354D01*
X7225526Y12794474D01*
X7136646Y12678644D01*
X7136645Y12678642D01*
X7113273Y12622218D01*
X7080771Y12543753D01*
X7061715Y12399001D01*
X7061715Y12399000D01*
X7080771Y12254248D01*
X7136644Y12119359D01*
X7136649Y12119351D01*
X7204287Y12031204D01*
X7229888Y11964984D01*
X7215623Y11895435D01*
X7204288Y11877796D01*
X7136646Y11789644D01*
X7136645Y11789642D01*
X7108708Y11722198D01*
X7080771Y11654753D01*
X7061715Y11510001D01*
X7061715Y11510000D01*
X4751025Y11510000D01*
X4665402Y11595623D01*
X4665399Y11595625D01*
X4521439Y11686081D01*
X4521437Y11686082D01*
X4360954Y11742237D01*
X4192000Y11761274D01*
X4023046Y11742237D01*
X4023043Y11742237D01*
X4023043Y11742236D01*
X3862562Y11686082D01*
X3862560Y11686081D01*
X3718600Y11595625D01*
X3718597Y11595623D01*
X3709595Y11586620D01*
X3647283Y11552594D01*
X3576468Y11557659D01*
X3531405Y11586620D01*
X3522403Y11595622D01*
X3431525Y11652725D01*
X3384488Y11705904D01*
X3373668Y11776071D01*
X3393796Y11829412D01*
X3428734Y11881699D01*
X3443500Y11955933D01*
X3443499Y13784066D01*
X3443498Y13784070D01*
X3443498Y13784074D01*
X3428734Y13858301D01*
X3372483Y13942485D01*
X3288302Y13998734D01*
X3214069Y14013500D01*
X3133972Y14013500D01*
X3065851Y14033502D01*
X3019358Y14087158D01*
X3009254Y14157432D01*
X3038748Y14222012D01*
X3058662Y14239397D01*
X3058201Y14239989D01*
X3090959Y14265487D01*
X3090959Y14265489D01*
X2432534Y14923914D01*
X2442315Y14925320D01*
X2573100Y14985048D01*
X2681761Y15079202D01*
X2759493Y15200156D01*
X2783076Y15280477D01*
X3443238Y14620315D01*
X3525776Y14746648D01*
X3618240Y14957444D01*
X3618243Y14957451D01*
X3674748Y15180583D01*
X3674750Y15180592D01*
X3684810Y15302001D01*
X3710369Y15368237D01*
X3767681Y15410140D01*
X3777770Y15413303D01*
X3783244Y15414771D01*
X3783254Y15414772D01*
X3918143Y15470645D01*
X4033974Y15559526D01*
X4045080Y15574000D01*
X8004726Y15574000D01*
X8023763Y15405046D01*
X8059733Y15302248D01*
X8079918Y15244563D01*
X8079919Y15244561D01*
X8170375Y15100601D01*
X8170377Y15100598D01*
X8290597Y14980378D01*
X8290600Y14980376D01*
X8434563Y14889918D01*
X8595046Y14833763D01*
X8764000Y14814726D01*
X8932954Y14833763D01*
X9093437Y14889918D01*
X9237400Y14980376D01*
X9246403Y14989380D01*
X9308712Y15023406D01*
X9379528Y15018343D01*
X9424596Y14989380D01*
X9433600Y14980376D01*
X9577563Y14889918D01*
X9738046Y14833763D01*
X9907000Y14814726D01*
X10075954Y14833763D01*
X10236437Y14889918D01*
X10380400Y14980376D01*
X10500624Y15100600D01*
X10558683Y15193000D01*
X13919715Y15193000D01*
X13938771Y15048248D01*
X13994644Y14913359D01*
X13994649Y14913351D01*
X14083525Y14797526D01*
X14199350Y14708650D01*
X14199357Y14708645D01*
X14334246Y14652772D01*
X14479000Y14633715D01*
X14623754Y14652772D01*
X14758643Y14708645D01*
X14874474Y14797526D01*
X14887038Y14813899D01*
X14944376Y14855766D01*
X15015247Y14859988D01*
X15077149Y14825224D01*
X15086962Y14813899D01*
X15099525Y14797526D01*
X15215350Y14708650D01*
X15215357Y14708645D01*
X15350246Y14652772D01*
X15495000Y14633715D01*
X15639754Y14652772D01*
X15774643Y14708645D01*
X15890474Y14797526D01*
X15979355Y14913357D01*
X16035228Y15048246D01*
X16054285Y15193000D01*
X16035228Y15337754D01*
X15989976Y15447000D01*
X17094715Y15447000D01*
X17113771Y15302248D01*
X17169644Y15167359D01*
X17169649Y15167351D01*
X17258525Y15051526D01*
X17364197Y14970441D01*
X17374357Y14962645D01*
X17509246Y14906772D01*
X17654000Y14887715D01*
X17798754Y14906772D01*
X17933643Y14962645D01*
X18021797Y15030290D01*
X18088015Y15055889D01*
X18157564Y15041625D01*
X18175196Y15030294D01*
X18263357Y14962645D01*
X18398246Y14906772D01*
X18543000Y14887715D01*
X18687754Y14906772D01*
X18822643Y14962645D01*
X18938474Y15051526D01*
X19027355Y15167357D01*
X19083228Y15302246D01*
X19102285Y15447000D01*
X19099171Y15470650D01*
X19083228Y15591753D01*
X19083228Y15591754D01*
X19027355Y15726642D01*
X18938474Y15842474D01*
X18938472Y15842476D01*
X18938471Y15842477D01*
X18822649Y15931351D01*
X18822641Y15931356D01*
X18687752Y15987229D01*
X18543000Y16006285D01*
X18398247Y15987229D01*
X18330802Y15959292D01*
X18263358Y15931355D01*
X18263357Y15931354D01*
X18263356Y15931354D01*
X18175204Y15863712D01*
X18108983Y15838112D01*
X18039435Y15852377D01*
X18021796Y15863713D01*
X17933649Y15931351D01*
X17933641Y15931356D01*
X17798752Y15987229D01*
X17654000Y16006285D01*
X17509247Y15987229D01*
X17441802Y15959292D01*
X17374358Y15931355D01*
X17374357Y15931354D01*
X17374356Y15931354D01*
X17258526Y15842474D01*
X17169646Y15726644D01*
X17169645Y15726642D01*
X17149229Y15677354D01*
X17113771Y15591753D01*
X17094715Y15447001D01*
X17094715Y15447000D01*
X15989976Y15447000D01*
X15979355Y15472642D01*
X15890474Y15588474D01*
X15890472Y15588476D01*
X15890471Y15588477D01*
X15774649Y15677351D01*
X15774641Y15677356D01*
X15639752Y15733229D01*
X15495000Y15752285D01*
X15350247Y15733229D01*
X15282802Y15705292D01*
X15215358Y15677355D01*
X15215357Y15677354D01*
X15215356Y15677354D01*
X15099523Y15588472D01*
X15086962Y15572101D01*
X15029624Y15530234D01*
X14958753Y15526012D01*
X14896851Y15560776D01*
X14887038Y15572101D01*
X14874474Y15588475D01*
X14758649Y15677351D01*
X14758641Y15677356D01*
X14623752Y15733229D01*
X14479000Y15752285D01*
X14334247Y15733229D01*
X14266802Y15705292D01*
X14199358Y15677355D01*
X14199357Y15677354D01*
X14199356Y15677354D01*
X14083526Y15588474D01*
X13994646Y15472644D01*
X13994645Y15472642D01*
X13993820Y15470650D01*
X13938771Y15337753D01*
X13919715Y15193001D01*
X13919715Y15193000D01*
X10558683Y15193000D01*
X10591082Y15244563D01*
X10647237Y15405046D01*
X10666274Y15574000D01*
X10647237Y15742954D01*
X10591082Y15903437D01*
X10500624Y16047400D01*
X10500622Y16047403D01*
X10380402Y16167623D01*
X10380399Y16167625D01*
X10236439Y16258081D01*
X10236437Y16258082D01*
X10075954Y16314237D01*
X9907000Y16333274D01*
X9738046Y16314237D01*
X9738043Y16314237D01*
X9738043Y16314236D01*
X9577562Y16258082D01*
X9577560Y16258081D01*
X9433600Y16167625D01*
X9433597Y16167623D01*
X9424595Y16158620D01*
X9362283Y16124594D01*
X9291468Y16129659D01*
X9246405Y16158620D01*
X9237402Y16167623D01*
X9237399Y16167625D01*
X9093439Y16258081D01*
X9093437Y16258082D01*
X8932954Y16314237D01*
X8764000Y16333274D01*
X8595046Y16314237D01*
X8595043Y16314237D01*
X8595043Y16314236D01*
X8434562Y16258082D01*
X8434560Y16258081D01*
X8290600Y16167625D01*
X8290597Y16167623D01*
X8170377Y16047403D01*
X8170375Y16047400D01*
X8079919Y15903440D01*
X8079918Y15903438D01*
X8065611Y15862550D01*
X8023763Y15742954D01*
X8004726Y15574000D01*
X4045080Y15574000D01*
X4122855Y15675357D01*
X4178728Y15810246D01*
X4197785Y15955000D01*
X4178728Y16099754D01*
X4122855Y16234642D01*
X4033974Y16350474D01*
X4033972Y16350476D01*
X4033971Y16350477D01*
X3918149Y16439351D01*
X3918141Y16439356D01*
X3783252Y16495229D01*
X3638500Y16514285D01*
X3493747Y16495229D01*
X3438779Y16472460D01*
X3358858Y16439355D01*
X3358855Y16439354D01*
X3351229Y16436194D01*
X3350158Y16438778D01*
X3294425Y16425271D01*
X3227339Y16448509D01*
X3223061Y16451695D01*
X3062314Y16576809D01*
X3062313Y16576810D01*
X2859866Y16686369D01*
X2859864Y16686370D01*
X2835661Y16694678D01*
X2777726Y16735715D01*
X2751174Y16801560D01*
X2764435Y16871307D01*
X2810243Y16920978D01*
X2992063Y17033557D01*
X2992062Y17033557D01*
X2992065Y17033558D01*
X3148677Y17176329D01*
X3276389Y17345446D01*
X3370850Y17535150D01*
X3428845Y17738982D01*
X3435363Y17809322D01*
X3448399Y17949996D01*
X3448399Y17950005D01*
X3428845Y18161017D01*
X3424561Y18176072D01*
X3370850Y18364850D01*
X3325602Y18455721D01*
X16949715Y18455721D01*
X16968771Y18310969D01*
X17024644Y18176080D01*
X17024649Y18176072D01*
X17113525Y18060247D01*
X17229350Y17971371D01*
X17229357Y17971366D01*
X17364246Y17915493D01*
X17509000Y17896436D01*
X17653754Y17915493D01*
X17788643Y17971366D01*
X17904474Y18060247D01*
X17993355Y18176078D01*
X18049228Y18310967D01*
X18068285Y18455721D01*
X18063114Y18495000D01*
X18491715Y18495000D01*
X18510771Y18350248D01*
X18566644Y18215359D01*
X18566649Y18215351D01*
X18655525Y18099526D01*
X18735968Y18037800D01*
X18771357Y18010645D01*
X18906246Y17954772D01*
X19051000Y17935715D01*
X19195754Y17954772D01*
X19330643Y18010645D01*
X19366032Y18037800D01*
X24968715Y18037800D01*
X24987771Y17893048D01*
X25043644Y17758159D01*
X25043649Y17758151D01*
X25132525Y17642326D01*
X25248350Y17553450D01*
X25248357Y17553445D01*
X25383246Y17497572D01*
X25528000Y17478515D01*
X25672754Y17497572D01*
X25807643Y17553445D01*
X25923474Y17642326D01*
X26012355Y17758157D01*
X26068228Y17893046D01*
X26087285Y18037800D01*
X26068228Y18182554D01*
X26012355Y18317442D01*
X25923474Y18433274D01*
X25923472Y18433276D01*
X25923471Y18433277D01*
X25807649Y18522151D01*
X25807641Y18522156D01*
X25672752Y18578029D01*
X25528000Y18597085D01*
X25383247Y18578029D01*
X25326580Y18554556D01*
X25248358Y18522155D01*
X25248357Y18522154D01*
X25248356Y18522154D01*
X25132526Y18433274D01*
X25043646Y18317444D01*
X25043645Y18317442D01*
X25016006Y18250717D01*
X24987771Y18182553D01*
X24968715Y18037801D01*
X24968715Y18037800D01*
X19366032Y18037800D01*
X19446474Y18099526D01*
X19535355Y18215357D01*
X19550003Y18250722D01*
X19594548Y18305999D01*
X19661911Y18328421D01*
X19682853Y18327424D01*
X19820400Y18309315D01*
X19965154Y18328372D01*
X20100043Y18384245D01*
X20215874Y18473126D01*
X20304755Y18588957D01*
X20360628Y18723846D01*
X20379685Y18868600D01*
X20360628Y19013354D01*
X20304755Y19148242D01*
X20215874Y19264074D01*
X20215872Y19264076D01*
X20215871Y19264077D01*
X20100049Y19352951D01*
X20100041Y19352956D01*
X19965152Y19408829D01*
X19820400Y19427885D01*
X19675647Y19408829D01*
X19608202Y19380892D01*
X19540758Y19352955D01*
X19540757Y19352954D01*
X19540756Y19352954D01*
X19424926Y19264074D01*
X19336046Y19148244D01*
X19336043Y19148239D01*
X19321397Y19112880D01*
X19276848Y19057600D01*
X19209484Y19035180D01*
X19188543Y19036178D01*
X19051001Y19054285D01*
X19051000Y19054285D01*
X18906247Y19035229D01*
X18838802Y19007292D01*
X18771358Y18979355D01*
X18771357Y18979354D01*
X18771356Y18979354D01*
X18655526Y18890474D01*
X18566646Y18774644D01*
X18566645Y18774642D01*
X18545533Y18723674D01*
X18510771Y18639753D01*
X18491715Y18495001D01*
X18491715Y18495000D01*
X18063114Y18495000D01*
X18049228Y18600475D01*
X17993355Y18735363D01*
X17904474Y18851195D01*
X17904472Y18851197D01*
X17904471Y18851198D01*
X17788649Y18940072D01*
X17788641Y18940077D01*
X17653752Y18995950D01*
X17509000Y19015006D01*
X17364247Y18995950D01*
X17296802Y18968013D01*
X17229358Y18940076D01*
X17229357Y18940075D01*
X17229356Y18940075D01*
X17113526Y18851195D01*
X17024646Y18735365D01*
X17024645Y18735363D01*
X17019802Y18723671D01*
X16968771Y18600474D01*
X16949715Y18455722D01*
X16949715Y18455721D01*
X3325602Y18455721D01*
X3276389Y18554554D01*
X3148677Y18723671D01*
X3148675Y18723674D01*
X2992066Y18866442D01*
X2811891Y18978002D01*
X2811886Y18978004D01*
X2811885Y18978005D01*
X2752688Y19000938D01*
X2614277Y19054559D01*
X2614278Y19054559D01*
X2614275Y19054560D01*
X2614274Y19054560D01*
X2405961Y19093500D01*
X2194039Y19093500D01*
X2001989Y19057600D01*
X1985721Y19054559D01*
X1788119Y18978007D01*
X1788108Y18978002D01*
X1607933Y18866442D01*
X1451324Y18723674D01*
X1323612Y18554556D01*
X1229150Y18364850D01*
X1229147Y18364842D01*
X1171154Y18161017D01*
X1151601Y17950005D01*
X1151601Y17949996D01*
X1171154Y17738984D01*
X1223944Y17553445D01*
X1229150Y17535150D01*
X1323611Y17345446D01*
X1365017Y17290616D01*
X1451324Y17176327D01*
X1607933Y17033559D01*
X1789757Y16920978D01*
X1837144Y16868111D01*
X1848427Y16798017D01*
X1820023Y16732950D01*
X1764339Y16694678D01*
X1740133Y16686368D01*
X1537687Y16576811D01*
X1509039Y16554515D01*
X1509039Y16554514D01*
X2167466Y15896087D01*
X2157685Y15894680D01*
X2026900Y15834952D01*
X1918239Y15740798D01*
X1840507Y15619844D01*
X1816923Y15539525D01*
X1156760Y16199688D01*
X1156759Y16199687D01*
X1074229Y16073365D01*
X1074222Y16073351D01*
X981759Y15862557D01*
X981756Y15862550D01*
X925250Y15639413D01*
X906240Y15410000D01*
X381500Y15410000D01*
X381500Y20489996D01*
X1151601Y20489996D01*
X1171154Y20278984D01*
X1194320Y20197563D01*
X1229150Y20075150D01*
X1323611Y19885446D01*
X1355725Y19842920D01*
X1451324Y19716327D01*
X1607933Y19573559D01*
X1788108Y19461999D01*
X1788110Y19461999D01*
X1788115Y19461995D01*
X1985726Y19385440D01*
X2194039Y19346500D01*
X2194041Y19346500D01*
X2405959Y19346500D01*
X2405961Y19346500D01*
X2614274Y19385440D01*
X2811885Y19461995D01*
X2992065Y19573558D01*
X3090883Y19663643D01*
X3148675Y19716327D01*
X3187490Y19767726D01*
X3276389Y19885446D01*
X3370850Y20075150D01*
X3428845Y20278982D01*
X3448399Y20490000D01*
X3444970Y20527000D01*
X3940726Y20527000D01*
X3959763Y20358046D01*
X4015918Y20197563D01*
X4015919Y20197561D01*
X4106375Y20053601D01*
X4106377Y20053598D01*
X4226597Y19933378D01*
X4226600Y19933376D01*
X4370563Y19842918D01*
X4531046Y19786763D01*
X4700000Y19767726D01*
X4868954Y19786763D01*
X5029437Y19842918D01*
X5173400Y19933376D01*
X5293624Y20053600D01*
X5384082Y20197563D01*
X5440237Y20358046D01*
X5459274Y20527000D01*
X5440237Y20695954D01*
X5384082Y20856437D01*
X5293624Y21000400D01*
X5293622Y21000403D01*
X5173402Y21120623D01*
X5173399Y21120625D01*
X5029439Y21211081D01*
X5029437Y21211082D01*
X4868954Y21267237D01*
X4700000Y21286274D01*
X4531046Y21267237D01*
X4531043Y21267237D01*
X4531043Y21267236D01*
X4370562Y21211082D01*
X4370560Y21211081D01*
X4226600Y21120625D01*
X4226597Y21120623D01*
X4106377Y21000403D01*
X4106375Y21000400D01*
X4015919Y20856440D01*
X4015918Y20856438D01*
X4015918Y20856437D01*
X3959763Y20695954D01*
X3940726Y20527000D01*
X3444970Y20527000D01*
X3428845Y20701017D01*
X3384624Y20856437D01*
X3370850Y20904850D01*
X3276389Y21094554D01*
X3148677Y21263671D01*
X3148675Y21263674D01*
X2992066Y21406442D01*
X2811891Y21518002D01*
X2811886Y21518004D01*
X2811885Y21518005D01*
X2740329Y21545726D01*
X2614277Y21594559D01*
X2614278Y21594559D01*
X2614275Y21594560D01*
X2614274Y21594560D01*
X2405961Y21633500D01*
X2194039Y21633500D01*
X1985726Y21594560D01*
X1985721Y21594559D01*
X1788119Y21518007D01*
X1788108Y21518002D01*
X1607933Y21406442D01*
X1451324Y21263674D01*
X1323612Y21094556D01*
X1229150Y20904850D01*
X1229147Y20904842D01*
X1171154Y20701017D01*
X1151601Y20490005D01*
X1151601Y20489996D01*
X381500Y20489996D01*
X381500Y23029996D01*
X1151601Y23029996D01*
X1171154Y22818984D01*
X1227058Y22622500D01*
X1229150Y22615150D01*
X1323611Y22425446D01*
X1365017Y22370616D01*
X1451324Y22256327D01*
X1607933Y22113559D01*
X1788108Y22001999D01*
X1788110Y22001999D01*
X1788115Y22001995D01*
X1985726Y21925440D01*
X2194039Y21886500D01*
X2194041Y21886500D01*
X2405959Y21886500D01*
X2405961Y21886500D01*
X2614274Y21925440D01*
X2811885Y22001995D01*
X2992065Y22113558D01*
X3100384Y22212304D01*
X3148675Y22256327D01*
X3148677Y22256329D01*
X3185432Y22305000D01*
X7466743Y22305000D01*
X7485780Y22136046D01*
X7532856Y22001509D01*
X7541935Y21975563D01*
X7541936Y21975561D01*
X7632392Y21831601D01*
X7632394Y21831598D01*
X7752614Y21711378D01*
X7752617Y21711376D01*
X7896580Y21620918D01*
X8057063Y21564763D01*
X8226017Y21545726D01*
X8394971Y21564763D01*
X8555454Y21620918D01*
X8681974Y21700416D01*
X8750292Y21719721D01*
X8816044Y21700415D01*
X8886708Y21656014D01*
X8942563Y21620918D01*
X9103046Y21564763D01*
X9272000Y21545726D01*
X9440954Y21564763D01*
X9601437Y21620918D01*
X9745400Y21711376D01*
X9865624Y21831600D01*
X9956082Y21975563D01*
X10012237Y22136046D01*
X10031274Y22305000D01*
X10012237Y22473954D01*
X9956082Y22634437D01*
X9865624Y22778400D01*
X9865622Y22778403D01*
X9745402Y22898623D01*
X9745399Y22898625D01*
X9601439Y22989081D01*
X9601437Y22989082D01*
X9440954Y23045237D01*
X9272000Y23064274D01*
X9103046Y23045237D01*
X9103043Y23045237D01*
X9103043Y23045236D01*
X8942562Y22989082D01*
X8942559Y22989081D01*
X8816044Y22909586D01*
X8747722Y22890280D01*
X8681972Y22909586D01*
X8555456Y22989081D01*
X8555454Y22989082D01*
X8394971Y23045237D01*
X8226017Y23064274D01*
X8057063Y23045237D01*
X8057060Y23045237D01*
X8057060Y23045236D01*
X7896579Y22989082D01*
X7896577Y22989081D01*
X7752617Y22898625D01*
X7752614Y22898623D01*
X7632394Y22778403D01*
X7632392Y22778400D01*
X7541936Y22634440D01*
X7541935Y22634438D01*
X7491551Y22490448D01*
X7485780Y22473954D01*
X7466743Y22305000D01*
X3185432Y22305000D01*
X3276389Y22425446D01*
X3370850Y22615150D01*
X3428845Y22818982D01*
X3441727Y22958001D01*
X3448399Y23029996D01*
X3448399Y23030005D01*
X3428845Y23241017D01*
X3427315Y23246393D01*
X3370850Y23444850D01*
X3276389Y23634554D01*
X3148677Y23803671D01*
X3148675Y23803674D01*
X2992066Y23946442D01*
X2970143Y23960016D01*
X14060933Y23960016D01*
X14079989Y23815264D01*
X14135862Y23680375D01*
X14135867Y23680367D01*
X14224743Y23564543D01*
X14233796Y23557596D01*
X14275664Y23500258D01*
X14279886Y23429387D01*
X14245122Y23367484D01*
X14233801Y23357673D01*
X14228329Y23353475D01*
X14139449Y23237644D01*
X14139448Y23237642D01*
X14117975Y23185802D01*
X14083574Y23102753D01*
X14064518Y22958001D01*
X14064518Y22958000D01*
X14083574Y22813248D01*
X14139447Y22678359D01*
X14139452Y22678351D01*
X14228328Y22562526D01*
X14343753Y22473957D01*
X14344160Y22473645D01*
X14479049Y22417772D01*
X14623803Y22398715D01*
X14768557Y22417772D01*
X14903446Y22473645D01*
X15019277Y22562526D01*
X15075042Y22635200D01*
X20041115Y22635200D01*
X20060171Y22490448D01*
X20116044Y22355559D01*
X20116049Y22355551D01*
X20204925Y22239726D01*
X20285368Y22178000D01*
X20320757Y22150845D01*
X20455646Y22094972D01*
X20582956Y22078212D01*
X20647882Y22049490D01*
X20682917Y22001509D01*
X20725642Y21898363D01*
X20725649Y21898351D01*
X20814525Y21782526D01*
X20921534Y21700415D01*
X20930357Y21693645D01*
X21065246Y21637772D01*
X21210000Y21618715D01*
X21354754Y21637772D01*
X21489643Y21693645D01*
X21514293Y21712561D01*
X21580513Y21738163D01*
X21650062Y21723900D01*
X21667707Y21712560D01*
X21692353Y21693647D01*
X21692356Y21693646D01*
X21692357Y21693645D01*
X21827246Y21637772D01*
X21972000Y21618715D01*
X22116754Y21637772D01*
X22251643Y21693645D01*
X22367474Y21782526D01*
X22456355Y21898357D01*
X22512228Y22033246D01*
X22531285Y22178000D01*
X22527908Y22203648D01*
X22512228Y22322753D01*
X22512228Y22322754D01*
X22456355Y22457642D01*
X22367474Y22573474D01*
X22367472Y22573476D01*
X22367471Y22573477D01*
X22351101Y22586038D01*
X22309234Y22643376D01*
X22305012Y22714247D01*
X22339776Y22776149D01*
X22351101Y22785962D01*
X22367474Y22798526D01*
X22437880Y22890280D01*
X22456355Y22914357D01*
X22466975Y22939997D01*
X24609193Y22939997D01*
X24628349Y22782221D01*
X24667743Y22678351D01*
X24684397Y22634437D01*
X24684712Y22633608D01*
X24684715Y22633602D01*
X24775001Y22502800D01*
X24775004Y22502797D01*
X24832485Y22451872D01*
X24870210Y22391728D01*
X24869430Y22320736D01*
X24848894Y22280858D01*
X24789649Y22203648D01*
X24789646Y22203645D01*
X24789645Y22203642D01*
X24779024Y22178001D01*
X24733771Y22068753D01*
X24714715Y21924001D01*
X24714715Y21924000D01*
X24733771Y21779248D01*
X24789644Y21644359D01*
X24789649Y21644351D01*
X24878525Y21528526D01*
X24994350Y21439650D01*
X24994357Y21439645D01*
X25129246Y21383772D01*
X25274000Y21364715D01*
X25418754Y21383772D01*
X25553643Y21439645D01*
X25669474Y21528526D01*
X25758355Y21644357D01*
X25814228Y21779246D01*
X25833285Y21924000D01*
X25833095Y21925440D01*
X25816124Y22054355D01*
X25814228Y22068754D01*
X25758355Y22203642D01*
X25758350Y22203648D01*
X25758350Y22203649D01*
X25694654Y22286659D01*
X25669053Y22352879D01*
X25683318Y22422428D01*
X25711058Y22457671D01*
X25761998Y22502799D01*
X25852287Y22633605D01*
X25908649Y22782218D01*
X25908649Y22782219D01*
X25908650Y22782221D01*
X25927807Y22939997D01*
X25927807Y22940004D01*
X25908650Y23097780D01*
X25872158Y23194000D01*
X25852287Y23246395D01*
X25761998Y23377201D01*
X25643029Y23482599D01*
X25643028Y23482600D01*
X25643025Y23482602D01*
X25502297Y23556461D01*
X25502295Y23556462D01*
X25502293Y23556463D01*
X25502291Y23556464D01*
X25502290Y23556464D01*
X25347972Y23594500D01*
X25347971Y23594500D01*
X25189029Y23594500D01*
X25189027Y23594500D01*
X25034709Y23556464D01*
X25034702Y23556461D01*
X24893974Y23482602D01*
X24893969Y23482598D01*
X24775001Y23377200D01*
X24684715Y23246399D01*
X24684712Y23246393D01*
X24628349Y23097780D01*
X24609193Y22940004D01*
X24609193Y22939997D01*
X22466975Y22939997D01*
X22512228Y23049246D01*
X22531285Y23194000D01*
X22525539Y23237642D01*
X22512228Y23338753D01*
X22512228Y23338754D01*
X22456355Y23473642D01*
X22390094Y23559995D01*
X22364495Y23626213D01*
X22373648Y23684912D01*
X22425978Y23811246D01*
X22445035Y23956000D01*
X22425978Y24100754D01*
X22370105Y24235642D01*
X22303298Y24322706D01*
X25240715Y24322706D01*
X25259771Y24177954D01*
X25315644Y24043065D01*
X25315649Y24043057D01*
X25404525Y23927232D01*
X25520350Y23838356D01*
X25520357Y23838351D01*
X25655246Y23782478D01*
X25800000Y23763421D01*
X25944754Y23782478D01*
X26079643Y23838351D01*
X26195474Y23927232D01*
X26284355Y24043063D01*
X26340228Y24177952D01*
X26359285Y24322706D01*
X26340228Y24467460D01*
X26284355Y24602348D01*
X26259598Y24634611D01*
X26233999Y24700828D01*
X26248263Y24770377D01*
X26297864Y24821173D01*
X26311330Y24827716D01*
X26410143Y24868645D01*
X26525974Y24957526D01*
X26527831Y24959947D01*
X26529922Y24961474D01*
X26531814Y24963365D01*
X26532108Y24963071D01*
X26585164Y25001814D01*
X26656035Y25006040D01*
X26717940Y24971279D01*
X26728345Y24959177D01*
X26851324Y24796327D01*
X27007933Y24653559D01*
X27188108Y24541999D01*
X27188110Y24541999D01*
X27188115Y24541995D01*
X27385726Y24465440D01*
X27594039Y24426500D01*
X27594041Y24426500D01*
X27805959Y24426500D01*
X27805961Y24426500D01*
X28014274Y24465440D01*
X28211885Y24541995D01*
X28392065Y24653558D01*
X28548677Y24796329D01*
X28676389Y24965446D01*
X28770850Y25155150D01*
X28828845Y25358982D01*
X28840353Y25483174D01*
X28848399Y25569996D01*
X28848399Y25570005D01*
X28830532Y25762817D01*
X28828845Y25781018D01*
X28770850Y25984850D01*
X28676389Y26174554D01*
X28566590Y26319951D01*
X28548675Y26343674D01*
X28392066Y26486442D01*
X28211891Y26598002D01*
X28211886Y26598004D01*
X28211885Y26598005D01*
X28058923Y26657263D01*
X28014277Y26674559D01*
X28014278Y26674559D01*
X28014275Y26674560D01*
X28014274Y26674560D01*
X27805961Y26713500D01*
X27594039Y26713500D01*
X27385726Y26674560D01*
X27385721Y26674559D01*
X27188119Y26598007D01*
X27188108Y26598002D01*
X27007933Y26486442D01*
X26851324Y26343674D01*
X26723612Y26174556D01*
X26629150Y25984850D01*
X26629148Y25984845D01*
X26606213Y25904235D01*
X26568332Y25844189D01*
X26504001Y25814154D01*
X26433645Y25823668D01*
X26417375Y25833360D01*
X26417297Y25833224D01*
X26410141Y25837356D01*
X26275252Y25893229D01*
X26130500Y25912285D01*
X25985747Y25893229D01*
X25918302Y25865292D01*
X25850858Y25837355D01*
X25850857Y25837354D01*
X25850856Y25837354D01*
X25735026Y25748474D01*
X25646146Y25632644D01*
X25646145Y25632642D01*
X25638692Y25614648D01*
X25590271Y25497753D01*
X25571215Y25353001D01*
X25571215Y25353000D01*
X25590271Y25208248D01*
X25646144Y25073359D01*
X25646149Y25073351D01*
X25670898Y25041098D01*
X25696499Y24974878D01*
X25682235Y24905329D01*
X25632634Y24854533D01*
X25619156Y24847986D01*
X25520361Y24807063D01*
X25520356Y24807060D01*
X25404526Y24718180D01*
X25315646Y24602350D01*
X25315645Y24602348D01*
X25290647Y24541999D01*
X25259771Y24467459D01*
X25240715Y24322707D01*
X25240715Y24322706D01*
X22303298Y24322706D01*
X22281224Y24351474D01*
X22281222Y24351476D01*
X22281221Y24351477D01*
X22165399Y24440351D01*
X22165391Y24440356D01*
X22030502Y24496229D01*
X21885750Y24515285D01*
X21740996Y24496229D01*
X21740995Y24496228D01*
X21602037Y24438669D01*
X21531447Y24431080D01*
X21467960Y24462859D01*
X21453857Y24478374D01*
X21429116Y24510617D01*
X21313291Y24599493D01*
X21313283Y24599498D01*
X21178394Y24655371D01*
X21033642Y24674427D01*
X20888889Y24655371D01*
X20821444Y24627434D01*
X20754000Y24599497D01*
X20753999Y24599496D01*
X20753998Y24599496D01*
X20638168Y24510616D01*
X20549288Y24394786D01*
X20549287Y24394784D01*
X20531347Y24351474D01*
X20493413Y24259895D01*
X20474357Y24115143D01*
X20474357Y24115142D01*
X20493413Y23970390D01*
X20549286Y23835501D01*
X20549291Y23835493D01*
X20638167Y23719668D01*
X20753997Y23630788D01*
X20761014Y23626737D01*
X20810009Y23575356D01*
X20823448Y23505643D01*
X20797981Y23440912D01*
X20725646Y23346644D01*
X20725643Y23346639D01*
X20694045Y23270356D01*
X20649496Y23215076D01*
X20594084Y23193654D01*
X20455647Y23175429D01*
X20388202Y23147492D01*
X20320758Y23119555D01*
X20320757Y23119554D01*
X20320756Y23119554D01*
X20204926Y23030674D01*
X20116046Y22914844D01*
X20116045Y22914842D01*
X20109327Y22898623D01*
X20060171Y22779953D01*
X20041115Y22635201D01*
X20041115Y22635200D01*
X15075042Y22635200D01*
X15108158Y22678357D01*
X15164031Y22813246D01*
X15183088Y22958000D01*
X15164031Y23102754D01*
X15108158Y23237642D01*
X15019277Y23353474D01*
X15019275Y23353476D01*
X15019274Y23353477D01*
X15010223Y23360422D01*
X14968356Y23417760D01*
X14964134Y23488631D01*
X14998898Y23550534D01*
X15010210Y23560337D01*
X15015692Y23564542D01*
X15104573Y23680373D01*
X15160446Y23815262D01*
X15179503Y23960016D01*
X15160446Y24104770D01*
X15104573Y24239658D01*
X15015692Y24355490D01*
X15015690Y24355492D01*
X15015689Y24355493D01*
X14899867Y24444367D01*
X14899859Y24444372D01*
X14764970Y24500245D01*
X14620218Y24519301D01*
X14475465Y24500245D01*
X14408020Y24472308D01*
X14340576Y24444371D01*
X14340575Y24444370D01*
X14340574Y24444370D01*
X14224744Y24355490D01*
X14135864Y24239660D01*
X14135863Y24239658D01*
X14134200Y24235643D01*
X14079989Y24104769D01*
X14060933Y23960017D01*
X14060933Y23960016D01*
X2970143Y23960016D01*
X2811891Y24058002D01*
X2811886Y24058004D01*
X2811885Y24058005D01*
X2701540Y24100753D01*
X2614277Y24134559D01*
X2614278Y24134559D01*
X2614275Y24134560D01*
X2614274Y24134560D01*
X2405961Y24173500D01*
X2194039Y24173500D01*
X1985726Y24134560D01*
X1985721Y24134559D01*
X1788119Y24058007D01*
X1788108Y24058002D01*
X1607933Y23946442D01*
X1451324Y23803674D01*
X1323612Y23634556D01*
X1229150Y23444850D01*
X1229147Y23444842D01*
X1171154Y23241017D01*
X1151601Y23030005D01*
X1151601Y23029996D01*
X381500Y23029996D01*
X381500Y25569996D01*
X1151601Y25569996D01*
X1171154Y25358984D01*
X1195035Y25275050D01*
X1229150Y25155150D01*
X1323611Y24965446D01*
X1323612Y24965445D01*
X1451324Y24796327D01*
X1607933Y24653559D01*
X1788108Y24541999D01*
X1788110Y24541999D01*
X1788115Y24541995D01*
X1985726Y24465440D01*
X2194039Y24426500D01*
X2194041Y24426500D01*
X2405959Y24426500D01*
X2405961Y24426500D01*
X2614274Y24465440D01*
X2811885Y24541995D01*
X2992065Y24653558D01*
X3148677Y24796329D01*
X3276389Y24965446D01*
X3370850Y25155150D01*
X3428845Y25358982D01*
X3440353Y25483174D01*
X3448399Y25569996D01*
X3448399Y25570005D01*
X3430532Y25762817D01*
X3428845Y25781018D01*
X3413315Y25835600D01*
X10414515Y25835600D01*
X10433571Y25690848D01*
X10489444Y25555959D01*
X10489449Y25555951D01*
X10578325Y25440126D01*
X10694150Y25351250D01*
X10694157Y25351245D01*
X10829046Y25295372D01*
X10973800Y25276315D01*
X11118554Y25295372D01*
X11223295Y25338758D01*
X11293881Y25346346D01*
X11348211Y25322312D01*
X11405357Y25278462D01*
X11540246Y25222589D01*
X11685000Y25203532D01*
X11829754Y25222589D01*
X11964643Y25278462D01*
X12080474Y25367343D01*
X12169355Y25483174D01*
X12225228Y25618063D01*
X12243835Y25759400D01*
X12852915Y25759400D01*
X12871971Y25614648D01*
X12927844Y25479759D01*
X12927849Y25479751D01*
X13016725Y25363926D01*
X13132550Y25275050D01*
X13132557Y25275045D01*
X13267446Y25219172D01*
X13412200Y25200115D01*
X13556954Y25219172D01*
X13691843Y25275045D01*
X13807674Y25363926D01*
X13896555Y25479757D01*
X13952428Y25614646D01*
X13971485Y25759400D01*
X14630915Y25759400D01*
X14649971Y25614648D01*
X14705844Y25479759D01*
X14705849Y25479751D01*
X14794725Y25363926D01*
X14910550Y25275050D01*
X14910557Y25275045D01*
X15045446Y25219172D01*
X15190200Y25200115D01*
X15334954Y25219172D01*
X15469843Y25275045D01*
X15585674Y25363926D01*
X15674555Y25479757D01*
X15730428Y25614646D01*
X15749485Y25759400D01*
X15748478Y25767046D01*
X15730428Y25904153D01*
X15729013Y25907570D01*
X15727261Y25911800D01*
X18669515Y25911800D01*
X18688571Y25767048D01*
X18744444Y25632159D01*
X18744449Y25632151D01*
X18833325Y25516326D01*
X18949150Y25427450D01*
X18949157Y25427445D01*
X19084046Y25371572D01*
X19228800Y25352515D01*
X19373554Y25371572D01*
X19508443Y25427445D01*
X19624274Y25516326D01*
X19713155Y25632157D01*
X19769028Y25767046D01*
X19781397Y25861000D01*
X20447515Y25861000D01*
X20466571Y25716248D01*
X20522444Y25581359D01*
X20522449Y25581351D01*
X20611325Y25465526D01*
X20727150Y25376650D01*
X20727157Y25376645D01*
X20862046Y25320772D01*
X21006800Y25301715D01*
X21151554Y25320772D01*
X21286443Y25376645D01*
X21402274Y25465526D01*
X21491155Y25581357D01*
X21547028Y25716246D01*
X21566085Y25861000D01*
X21547028Y26005754D01*
X21491155Y26140642D01*
X21402274Y26256474D01*
X21402272Y26256476D01*
X21402271Y26256477D01*
X21286449Y26345351D01*
X21286441Y26345356D01*
X21151552Y26401229D01*
X21006800Y26420285D01*
X20862047Y26401229D01*
X20794602Y26373292D01*
X20727158Y26345355D01*
X20727157Y26345354D01*
X20727156Y26345354D01*
X20611326Y26256474D01*
X20522446Y26140644D01*
X20522445Y26140642D01*
X20511924Y26115242D01*
X20466571Y26005753D01*
X20447515Y25861001D01*
X20447515Y25861000D01*
X19781397Y25861000D01*
X19788085Y25911800D01*
X19769028Y26056554D01*
X19713155Y26191442D01*
X19703982Y26203397D01*
X19678382Y26269617D01*
X19692647Y26339166D01*
X19703981Y26356803D01*
X19713155Y26368757D01*
X19769028Y26503646D01*
X19788085Y26648400D01*
X19769028Y26793154D01*
X19713155Y26928042D01*
X19703982Y26939997D01*
X19678382Y27006217D01*
X19692647Y27075766D01*
X19703981Y27093403D01*
X19713155Y27105357D01*
X19769028Y27240246D01*
X19788085Y27385000D01*
X19786439Y27397500D01*
X21085726Y27397500D01*
X21104763Y27228546D01*
X21129923Y27156643D01*
X21160918Y27068063D01*
X21160919Y27068061D01*
X21251375Y26924101D01*
X21251377Y26924098D01*
X21371597Y26803878D01*
X21371600Y26803876D01*
X21515563Y26713418D01*
X21676046Y26657263D01*
X21845000Y26638226D01*
X22013954Y26657263D01*
X22174437Y26713418D01*
X22318400Y26803876D01*
X22391524Y26877000D01*
X25476715Y26877000D01*
X25495771Y26732248D01*
X25551644Y26597359D01*
X25551649Y26597351D01*
X25640525Y26481526D01*
X25756350Y26392650D01*
X25756357Y26392645D01*
X25891246Y26336772D01*
X26036000Y26317715D01*
X26180754Y26336772D01*
X26315643Y26392645D01*
X26431474Y26481526D01*
X26520355Y26597357D01*
X26576228Y26732246D01*
X26595285Y26877000D01*
X26576228Y27021754D01*
X26520355Y27156642D01*
X26431474Y27272474D01*
X26431472Y27272476D01*
X26431471Y27272477D01*
X26315649Y27361351D01*
X26315641Y27361356D01*
X26180752Y27417229D01*
X26036000Y27436285D01*
X25891247Y27417229D01*
X25823802Y27389292D01*
X25756358Y27361355D01*
X25756357Y27361354D01*
X25756356Y27361354D01*
X25640526Y27272474D01*
X25551646Y27156644D01*
X25551645Y27156642D01*
X25525453Y27093409D01*
X25495771Y27021753D01*
X25476715Y26877001D01*
X25476715Y26877000D01*
X22391524Y26877000D01*
X22438624Y26924100D01*
X22529082Y27068063D01*
X22585237Y27228546D01*
X22604274Y27397500D01*
X22585237Y27566454D01*
X22529082Y27726937D01*
X22438624Y27870900D01*
X22438622Y27870903D01*
X22318402Y27991123D01*
X22318399Y27991125D01*
X22174439Y28081581D01*
X22174437Y28081582D01*
X22133355Y28095957D01*
X22013954Y28137737D01*
X21845000Y28156774D01*
X21676046Y28137737D01*
X21676043Y28137737D01*
X21676043Y28137736D01*
X21515562Y28081582D01*
X21515560Y28081581D01*
X21371600Y27991125D01*
X21371597Y27991123D01*
X21251377Y27870903D01*
X21251375Y27870900D01*
X21160919Y27726940D01*
X21160918Y27726938D01*
X21139120Y27664642D01*
X21104763Y27566454D01*
X21085726Y27397500D01*
X19786439Y27397500D01*
X19784971Y27408650D01*
X19769028Y27529753D01*
X19769028Y27529754D01*
X19713155Y27664642D01*
X19703982Y27676597D01*
X19678382Y27742817D01*
X19692647Y27812366D01*
X19703981Y27830003D01*
X19713155Y27841957D01*
X19769028Y27976846D01*
X19788085Y28121600D01*
X19787078Y28129246D01*
X19769028Y28266353D01*
X19769028Y28266354D01*
X19713155Y28401242D01*
X19624274Y28517074D01*
X19624272Y28517076D01*
X19624271Y28517077D01*
X19508449Y28605951D01*
X19508441Y28605956D01*
X19373552Y28661829D01*
X19228800Y28680885D01*
X19084047Y28661829D01*
X19032619Y28640526D01*
X18949158Y28605955D01*
X18949157Y28605954D01*
X18949156Y28605954D01*
X18833326Y28517074D01*
X18744446Y28401244D01*
X18744445Y28401242D01*
X18733824Y28375601D01*
X18688571Y28266353D01*
X18669515Y28121601D01*
X18669515Y28121600D01*
X18688571Y27976848D01*
X18744444Y27841959D01*
X18744446Y27841956D01*
X18753618Y27830003D01*
X18779217Y27763782D01*
X18764952Y27694233D01*
X18753620Y27676600D01*
X18744448Y27664647D01*
X18744446Y27664644D01*
X18744445Y27664642D01*
X18723203Y27613359D01*
X18688571Y27529753D01*
X18669515Y27385001D01*
X18669515Y27385000D01*
X18688571Y27240248D01*
X18744444Y27105359D01*
X18744446Y27105356D01*
X18753618Y27093403D01*
X18779217Y27027182D01*
X18764952Y26957633D01*
X18753620Y26940000D01*
X18744448Y26928047D01*
X18744446Y26928044D01*
X18744445Y26928042D01*
X18716508Y26860598D01*
X18688571Y26793153D01*
X18669515Y26648401D01*
X18669515Y26648400D01*
X18688571Y26503648D01*
X18744444Y26368759D01*
X18744446Y26368756D01*
X18753618Y26356803D01*
X18779217Y26290582D01*
X18764952Y26221033D01*
X18753620Y26203400D01*
X18744448Y26191447D01*
X18744446Y26191444D01*
X18744445Y26191442D01*
X18729299Y26154877D01*
X18688571Y26056553D01*
X18669515Y25911801D01*
X18669515Y25911800D01*
X15727261Y25911800D01*
X15674555Y26039042D01*
X15585674Y26154874D01*
X15585672Y26154876D01*
X15585671Y26154877D01*
X15469849Y26243751D01*
X15469841Y26243756D01*
X15334952Y26299629D01*
X15190200Y26318685D01*
X15045447Y26299629D01*
X14988664Y26276108D01*
X14910558Y26243755D01*
X14910557Y26243754D01*
X14910556Y26243754D01*
X14794726Y26154874D01*
X14705846Y26039044D01*
X14705845Y26039042D01*
X14681535Y25980354D01*
X14649971Y25904153D01*
X14630915Y25759401D01*
X14630915Y25759400D01*
X13971485Y25759400D01*
X13970478Y25767046D01*
X13952428Y25904153D01*
X13951013Y25907570D01*
X13896555Y26039042D01*
X13807674Y26154874D01*
X13807672Y26154876D01*
X13807671Y26154877D01*
X13691849Y26243751D01*
X13691841Y26243756D01*
X13556952Y26299629D01*
X13412200Y26318685D01*
X13267447Y26299629D01*
X13210664Y26276108D01*
X13132558Y26243755D01*
X13132557Y26243754D01*
X13132556Y26243754D01*
X13016726Y26154874D01*
X12927846Y26039044D01*
X12927845Y26039042D01*
X12903535Y25980354D01*
X12871971Y25904153D01*
X12852915Y25759401D01*
X12852915Y25759400D01*
X12243835Y25759400D01*
X12244285Y25762817D01*
X12225228Y25907571D01*
X12169355Y26042459D01*
X12080474Y26158291D01*
X12080472Y26158293D01*
X12080471Y26158294D01*
X11964649Y26247168D01*
X11964641Y26247173D01*
X11829752Y26303046D01*
X11685000Y26322102D01*
X11540246Y26303046D01*
X11540245Y26303045D01*
X11435508Y26259661D01*
X11364918Y26252072D01*
X11310586Y26276108D01*
X11253449Y26319951D01*
X11253441Y26319956D01*
X11118552Y26375829D01*
X10973800Y26394885D01*
X10829047Y26375829D01*
X10783116Y26356803D01*
X10694158Y26319955D01*
X10694157Y26319954D01*
X10694156Y26319954D01*
X10578326Y26231074D01*
X10489446Y26115244D01*
X10489445Y26115242D01*
X10465135Y26056554D01*
X10433571Y25980353D01*
X10414515Y25835601D01*
X10414515Y25835600D01*
X3413315Y25835600D01*
X3370850Y25984850D01*
X3276389Y26174554D01*
X3166590Y26319951D01*
X3148675Y26343674D01*
X2992066Y26486442D01*
X2811891Y26598002D01*
X2811886Y26598004D01*
X2811885Y26598005D01*
X2658923Y26657263D01*
X2614277Y26674559D01*
X2614278Y26674559D01*
X2614275Y26674560D01*
X2614274Y26674560D01*
X2405961Y26713500D01*
X2194039Y26713500D01*
X1985726Y26674560D01*
X1985721Y26674559D01*
X1788119Y26598007D01*
X1788108Y26598002D01*
X1607933Y26486442D01*
X1451324Y26343674D01*
X1323612Y26174556D01*
X1229150Y25984850D01*
X1229147Y25984842D01*
X1171154Y25781017D01*
X1151601Y25570005D01*
X1151601Y25569996D01*
X381500Y25569996D01*
X381500Y28109996D01*
X1151601Y28109996D01*
X1171154Y27898984D01*
X1223029Y27716660D01*
X1229150Y27695150D01*
X1323611Y27505446D01*
X1323612Y27505445D01*
X1451324Y27336327D01*
X1607933Y27193559D01*
X1788108Y27081999D01*
X1788110Y27081999D01*
X1788115Y27081995D01*
X1985726Y27005440D01*
X2194039Y26966500D01*
X2194041Y26966500D01*
X2405959Y26966500D01*
X2405961Y26966500D01*
X2614274Y27005440D01*
X2811885Y27081995D01*
X2992065Y27193558D01*
X3148677Y27336329D01*
X3276389Y27505446D01*
X3370850Y27695150D01*
X3427143Y27893000D01*
X7823715Y27893000D01*
X7842771Y27748248D01*
X7898644Y27613359D01*
X7898649Y27613351D01*
X7987525Y27497526D01*
X8103350Y27408650D01*
X8103357Y27408645D01*
X8238246Y27352772D01*
X8383000Y27333715D01*
X8527754Y27352772D01*
X8662643Y27408645D01*
X8778474Y27497526D01*
X8867355Y27613357D01*
X8877959Y27638960D01*
X8922504Y27694238D01*
X8989867Y27716660D01*
X9010810Y27715662D01*
X9018000Y27714715D01*
X9162754Y27733772D01*
X9297643Y27789645D01*
X9413474Y27878526D01*
X9502355Y27994357D01*
X9558228Y28129246D01*
X9577285Y28274000D01*
X9575379Y28288474D01*
X9563909Y28375600D01*
X10214213Y28375600D01*
X10233269Y28230848D01*
X10289142Y28095959D01*
X10289147Y28095951D01*
X10378023Y27980126D01*
X10493848Y27891250D01*
X10493855Y27891245D01*
X10628744Y27835372D01*
X10773498Y27816315D01*
X10918252Y27835372D01*
X11053141Y27891245D01*
X11168972Y27980126D01*
X11257853Y28095957D01*
X11313726Y28230846D01*
X11332783Y28375600D01*
X11313726Y28520354D01*
X11257853Y28655242D01*
X11168972Y28771074D01*
X11168970Y28771076D01*
X11168969Y28771077D01*
X11053147Y28859951D01*
X11053139Y28859956D01*
X10918250Y28915829D01*
X10773498Y28934885D01*
X10628745Y28915829D01*
X10594513Y28901649D01*
X10493856Y28859955D01*
X10493855Y28859954D01*
X10493854Y28859954D01*
X10378024Y28771074D01*
X10289144Y28655244D01*
X10289143Y28655242D01*
X10268727Y28605954D01*
X10233269Y28520353D01*
X10214213Y28375601D01*
X10214213Y28375600D01*
X9563909Y28375600D01*
X9560533Y28401244D01*
X9558228Y28418754D01*
X9502355Y28553642D01*
X9413474Y28669474D01*
X9413472Y28669476D01*
X9413471Y28669477D01*
X9297649Y28758351D01*
X9297641Y28758356D01*
X9162752Y28814229D01*
X9018000Y28833285D01*
X8873247Y28814229D01*
X8805802Y28786292D01*
X8738358Y28758355D01*
X8738357Y28758354D01*
X8738356Y28758354D01*
X8622526Y28669474D01*
X8533646Y28553644D01*
X8533641Y28553635D01*
X8523039Y28528040D01*
X8478490Y28472760D01*
X8411126Y28450341D01*
X8390186Y28451339D01*
X8383000Y28452285D01*
X8382999Y28452285D01*
X8238247Y28433229D01*
X8178244Y28408374D01*
X8103358Y28377355D01*
X8103357Y28377354D01*
X8103356Y28377354D01*
X7987526Y28288474D01*
X7898646Y28172644D01*
X7898645Y28172642D01*
X7872700Y28110005D01*
X7842771Y28037753D01*
X7823715Y27893001D01*
X7823715Y27893000D01*
X3427143Y27893000D01*
X3428845Y27898982D01*
X3448399Y28110000D01*
X3447324Y28121600D01*
X3428845Y28321017D01*
X3419182Y28354978D01*
X3370850Y28524850D01*
X3276389Y28714554D01*
X3166590Y28859951D01*
X3148675Y28883674D01*
X2992066Y29026442D01*
X2853563Y29112200D01*
X21387315Y29112200D01*
X21406371Y28967448D01*
X21462244Y28832559D01*
X21462249Y28832551D01*
X21551125Y28716726D01*
X21666950Y28627850D01*
X21666957Y28627845D01*
X21801846Y28571972D01*
X21946600Y28552915D01*
X22091354Y28571972D01*
X22226243Y28627845D01*
X22342074Y28716726D01*
X22430955Y28832557D01*
X22486828Y28967446D01*
X22495853Y29036000D01*
X25222715Y29036000D01*
X25241771Y28891248D01*
X25297644Y28756359D01*
X25297649Y28756351D01*
X25386525Y28640526D01*
X25502350Y28551650D01*
X25502357Y28551645D01*
X25637246Y28495772D01*
X25637253Y28495772D01*
X25645223Y28493635D01*
X25644565Y28491181D01*
X25697813Y28467634D01*
X25736913Y28408374D01*
X25741375Y28354978D01*
X25730715Y28274002D01*
X25730715Y28274000D01*
X25749771Y28129248D01*
X25805644Y27994359D01*
X25805649Y27994351D01*
X25894525Y27878526D01*
X25983581Y27810191D01*
X26010357Y27789645D01*
X26145246Y27733772D01*
X26290000Y27714715D01*
X26434754Y27733772D01*
X26471361Y27748936D01*
X26541948Y27756524D01*
X26605435Y27724745D01*
X26632365Y27688693D01*
X26723611Y27505446D01*
X26723612Y27505445D01*
X26851324Y27336327D01*
X27007933Y27193559D01*
X27188108Y27081999D01*
X27188110Y27081999D01*
X27188115Y27081995D01*
X27385726Y27005440D01*
X27594039Y26966500D01*
X27594041Y26966500D01*
X27805959Y26966500D01*
X27805961Y26966500D01*
X28014274Y27005440D01*
X28211885Y27081995D01*
X28392065Y27193558D01*
X28548677Y27336329D01*
X28676389Y27505446D01*
X28770850Y27695150D01*
X28828845Y27898982D01*
X28848399Y28110000D01*
X28847324Y28121600D01*
X28828845Y28321017D01*
X28819182Y28354978D01*
X28770850Y28524850D01*
X28676389Y28714554D01*
X28566590Y28859951D01*
X28548675Y28883674D01*
X28392066Y29026442D01*
X28211891Y29138002D01*
X28211886Y29138004D01*
X28211885Y29138005D01*
X28101540Y29180753D01*
X28014277Y29214559D01*
X28014278Y29214559D01*
X28014275Y29214560D01*
X28014274Y29214560D01*
X27805961Y29253500D01*
X27594039Y29253500D01*
X27385726Y29214560D01*
X27385721Y29214559D01*
X27188119Y29138007D01*
X27188108Y29138002D01*
X27007933Y29026442D01*
X26851327Y28883676D01*
X26851323Y28883672D01*
X26851323Y28883671D01*
X26820143Y28842382D01*
X26764585Y28768812D01*
X26707570Y28726505D01*
X26636734Y28721738D01*
X26587332Y28744782D01*
X26569643Y28758355D01*
X26538929Y28771077D01*
X26434749Y28814230D01*
X26426776Y28816366D01*
X26427432Y28818817D01*
X26374168Y28842382D01*
X26335079Y28901649D01*
X26330624Y28955023D01*
X26341285Y29036000D01*
X26322228Y29180754D01*
X26266355Y29315642D01*
X26177474Y29431474D01*
X26177472Y29431476D01*
X26177471Y29431477D01*
X26055091Y29525383D01*
X26056489Y29527207D01*
X26015717Y29569973D01*
X26002286Y29639688D01*
X26028678Y29705597D01*
X26086513Y29746774D01*
X26111263Y29752622D01*
X26180754Y29761770D01*
X26315643Y29817643D01*
X26431474Y29906524D01*
X26520355Y30022355D01*
X26520358Y30022365D01*
X26520895Y30023292D01*
X26521563Y30023930D01*
X26525383Y30028907D01*
X26526158Y30028312D01*
X26572274Y30072289D01*
X26641987Y30085730D01*
X26707900Y30059348D01*
X26730569Y30036232D01*
X26851324Y29876327D01*
X27007933Y29733559D01*
X27188108Y29621999D01*
X27188110Y29621999D01*
X27188115Y29621995D01*
X27385726Y29545440D01*
X27594039Y29506500D01*
X27594041Y29506500D01*
X27805959Y29506500D01*
X27805961Y29506500D01*
X28014274Y29545440D01*
X28211885Y29621995D01*
X28392065Y29733558D01*
X28548677Y29876329D01*
X28676389Y30045446D01*
X28770850Y30235150D01*
X28828845Y30438982D01*
X28835363Y30509322D01*
X28848399Y30649996D01*
X28848399Y30650005D01*
X28828845Y30861017D01*
X28828769Y30861283D01*
X28770850Y31064850D01*
X28676389Y31254554D01*
X28548677Y31423671D01*
X28548675Y31423674D01*
X28392066Y31566442D01*
X28211891Y31678002D01*
X28211886Y31678004D01*
X28211885Y31678005D01*
X28142838Y31704754D01*
X28014277Y31754559D01*
X28014278Y31754559D01*
X28014275Y31754560D01*
X28014274Y31754560D01*
X27805961Y31793500D01*
X27594039Y31793500D01*
X27385726Y31754560D01*
X27385721Y31754559D01*
X27188119Y31678007D01*
X27188108Y31678002D01*
X27007933Y31566442D01*
X26851324Y31423674D01*
X26723612Y31254556D01*
X26629150Y31064850D01*
X26629147Y31064842D01*
X26571154Y30861018D01*
X26568795Y30835562D01*
X26542591Y30769578D01*
X26484873Y30728236D01*
X26413966Y30724662D01*
X26366629Y30747230D01*
X26315643Y30786353D01*
X26196843Y30835562D01*
X26180752Y30842227D01*
X26036000Y30861283D01*
X25891247Y30842227D01*
X25823802Y30814290D01*
X25756358Y30786353D01*
X25756357Y30786352D01*
X25756356Y30786352D01*
X25640526Y30697472D01*
X25551646Y30581642D01*
X25551645Y30581640D01*
X25523708Y30514196D01*
X25495771Y30446751D01*
X25476715Y30301999D01*
X25476715Y30301998D01*
X25495771Y30157246D01*
X25551644Y30022357D01*
X25551649Y30022349D01*
X25640525Y29906524D01*
X25762909Y29812615D01*
X25761509Y29810791D01*
X25802277Y29768035D01*
X25815713Y29698321D01*
X25789327Y29632410D01*
X25731495Y29591228D01*
X25706731Y29585376D01*
X25637247Y29576229D01*
X25569802Y29548292D01*
X25502358Y29520355D01*
X25502357Y29520354D01*
X25502356Y29520354D01*
X25386526Y29431474D01*
X25297646Y29315644D01*
X25297645Y29315642D01*
X25273335Y29256954D01*
X25241771Y29180753D01*
X25222715Y29036001D01*
X25222715Y29036000D01*
X22495853Y29036000D01*
X22505885Y29112200D01*
X22502487Y29138007D01*
X22486828Y29256953D01*
X22486828Y29256954D01*
X22430955Y29391842D01*
X22342074Y29507674D01*
X22342072Y29507676D01*
X22342071Y29507677D01*
X22226249Y29596551D01*
X22226241Y29596556D01*
X22091352Y29652429D01*
X21946600Y29671485D01*
X21801847Y29652429D01*
X21734402Y29624492D01*
X21666958Y29596555D01*
X21666957Y29596554D01*
X21666956Y29596554D01*
X21551126Y29507674D01*
X21462246Y29391844D01*
X21462245Y29391842D01*
X21434308Y29324398D01*
X21406371Y29256953D01*
X21387315Y29112201D01*
X21387315Y29112200D01*
X2853563Y29112200D01*
X2811891Y29138002D01*
X2811886Y29138004D01*
X2811885Y29138005D01*
X2701540Y29180753D01*
X2614277Y29214559D01*
X2614278Y29214559D01*
X2614275Y29214560D01*
X2614274Y29214560D01*
X2405961Y29253500D01*
X2194039Y29253500D01*
X1985726Y29214560D01*
X1985721Y29214559D01*
X1788119Y29138007D01*
X1788108Y29138002D01*
X1607933Y29026442D01*
X1451324Y28883674D01*
X1323612Y28714556D01*
X1229150Y28524850D01*
X1229147Y28524842D01*
X1171154Y28321017D01*
X1151601Y28110005D01*
X1151601Y28109996D01*
X381500Y28109996D01*
X381500Y30649996D01*
X1151601Y30649996D01*
X1171154Y30438984D01*
X1210129Y30301999D01*
X1229150Y30235150D01*
X1323611Y30045446D01*
X1323612Y30045445D01*
X1451324Y29876327D01*
X1607933Y29733559D01*
X1788108Y29621999D01*
X1788110Y29621999D01*
X1788115Y29621995D01*
X1985726Y29545440D01*
X2194039Y29506500D01*
X2194041Y29506500D01*
X2405959Y29506500D01*
X2405961Y29506500D01*
X2614274Y29545440D01*
X2811885Y29621995D01*
X2992065Y29733558D01*
X3148677Y29876329D01*
X3276389Y30045446D01*
X3370850Y30235150D01*
X3428845Y30438982D01*
X3435363Y30509322D01*
X3448399Y30649996D01*
X3448399Y30650005D01*
X3428845Y30861017D01*
X3428769Y30861283D01*
X3370850Y31064850D01*
X3276389Y31254554D01*
X3148677Y31423671D01*
X3148675Y31423674D01*
X3120894Y31449000D01*
X6172715Y31449000D01*
X6191771Y31304248D01*
X6247644Y31169359D01*
X6247649Y31169351D01*
X6336525Y31053526D01*
X6452350Y30964650D01*
X6452357Y30964645D01*
X6587246Y30908772D01*
X6732000Y30889715D01*
X6876754Y30908772D01*
X7011643Y30964645D01*
X7127474Y31053526D01*
X7127475Y31053528D01*
X7132480Y31057368D01*
X7198701Y31082969D01*
X7257401Y31073816D01*
X7349246Y31035772D01*
X7494000Y31016715D01*
X7638754Y31035772D01*
X7773643Y31091645D01*
X7889474Y31180526D01*
X7920071Y31220400D01*
X18669515Y31220400D01*
X18688571Y31075648D01*
X18744444Y30940759D01*
X18744449Y30940751D01*
X18833325Y30824926D01*
X18949150Y30736050D01*
X18949157Y30736045D01*
X19084046Y30680172D01*
X19228800Y30661115D01*
X19373554Y30680172D01*
X19508443Y30736045D01*
X19624274Y30824926D01*
X19713155Y30940757D01*
X19769028Y31075646D01*
X19788085Y31220400D01*
X19769028Y31365154D01*
X19713155Y31500042D01*
X19624274Y31615874D01*
X19624272Y31615876D01*
X19624271Y31615877D01*
X19508449Y31704751D01*
X19508441Y31704756D01*
X19373552Y31760629D01*
X19228800Y31779685D01*
X19084047Y31760629D01*
X19016602Y31732692D01*
X18949158Y31704755D01*
X18949157Y31704754D01*
X18949156Y31704754D01*
X18833326Y31615874D01*
X18744446Y31500044D01*
X18744445Y31500042D01*
X18716508Y31432598D01*
X18688571Y31365153D01*
X18669515Y31220401D01*
X18669515Y31220400D01*
X7920071Y31220400D01*
X7978355Y31296357D01*
X8034228Y31431246D01*
X8053285Y31576000D01*
X8034228Y31720754D01*
X7978355Y31855642D01*
X7959436Y31880297D01*
X7933837Y31946517D01*
X7948102Y32016066D01*
X7959440Y32033707D01*
X7978353Y32058354D01*
X7978353Y32058355D01*
X7978355Y32058357D01*
X8034228Y32193246D01*
X8053285Y32338000D01*
X8050171Y32361650D01*
X8034228Y32482753D01*
X8034228Y32482754D01*
X7978355Y32617642D01*
X7900580Y32719000D01*
X22809715Y32719000D01*
X22828771Y32574248D01*
X22884644Y32439359D01*
X22884649Y32439351D01*
X22973525Y32323526D01*
X23089350Y32234650D01*
X23089357Y32234645D01*
X23224246Y32178772D01*
X23369000Y32159715D01*
X23513754Y32178772D01*
X23648643Y32234645D01*
X23764474Y32323526D01*
X23853355Y32439357D01*
X23909228Y32574246D01*
X23928285Y32719000D01*
X23926379Y32733474D01*
X23909228Y32863753D01*
X23909228Y32863754D01*
X23853355Y32998642D01*
X23764474Y33114474D01*
X23764472Y33114476D01*
X23764471Y33114477D01*
X23666053Y33189996D01*
X26551601Y33189996D01*
X26571154Y32978984D01*
X26615718Y32822356D01*
X26629150Y32775150D01*
X26723611Y32585446D01*
X26738031Y32566351D01*
X26851324Y32416327D01*
X27007933Y32273559D01*
X27188108Y32161999D01*
X27188110Y32161999D01*
X27188115Y32161995D01*
X27385726Y32085440D01*
X27594039Y32046500D01*
X27594041Y32046500D01*
X27805959Y32046500D01*
X27805961Y32046500D01*
X28014274Y32085440D01*
X28211885Y32161995D01*
X28392065Y32273558D01*
X28548677Y32416329D01*
X28676389Y32585446D01*
X28770850Y32775150D01*
X28828845Y32978982D01*
X28835363Y33049322D01*
X28848399Y33189996D01*
X28848399Y33190005D01*
X28828845Y33401017D01*
X28813384Y33455356D01*
X28770850Y33604850D01*
X28676389Y33794554D01*
X28548677Y33963671D01*
X28548675Y33963674D01*
X28392066Y34106442D01*
X28211891Y34218002D01*
X28211886Y34218004D01*
X28211885Y34218005D01*
X28211880Y34218007D01*
X28014279Y34294559D01*
X28014274Y34294560D01*
X27836252Y34327838D01*
X27772969Y34360016D01*
X27737127Y34421301D01*
X27734485Y34468138D01*
X27736728Y34485178D01*
X27765451Y34550102D01*
X27824717Y34589193D01*
X27838483Y34592580D01*
X28014274Y34625440D01*
X28211885Y34701995D01*
X28392065Y34813558D01*
X28540067Y34948480D01*
X28548675Y34956327D01*
X28565649Y34978804D01*
X28676389Y35125446D01*
X28770850Y35315150D01*
X28828845Y35518982D01*
X28842251Y35663650D01*
X28848399Y35729996D01*
X28848399Y35730005D01*
X28828845Y35941017D01*
X28813383Y35995359D01*
X28770850Y36144850D01*
X28676389Y36334554D01*
X28548677Y36503671D01*
X28548675Y36503674D01*
X28392066Y36646442D01*
X28211891Y36758002D01*
X28211886Y36758004D01*
X28211885Y36758005D01*
X28208390Y36759359D01*
X28014277Y36834559D01*
X28014278Y36834559D01*
X28014275Y36834560D01*
X28014274Y36834560D01*
X27805961Y36873500D01*
X27594039Y36873500D01*
X27385726Y36834560D01*
X27385721Y36834559D01*
X27188119Y36758007D01*
X27188108Y36758002D01*
X27007933Y36646442D01*
X26851324Y36503674D01*
X26723612Y36334556D01*
X26629150Y36144850D01*
X26629147Y36144842D01*
X26571154Y35941017D01*
X26551601Y35730005D01*
X26551601Y35729996D01*
X26571154Y35518984D01*
X26619916Y35347602D01*
X26629150Y35315150D01*
X26723611Y35125446D01*
X26733545Y35112291D01*
X26784196Y35045219D01*
X26809286Y34978804D01*
X26794486Y34909367D01*
X26783609Y34892584D01*
X26694649Y34776649D01*
X26694646Y34776644D01*
X26694645Y34776642D01*
X26674229Y34727354D01*
X26638771Y34641753D01*
X26619715Y34497001D01*
X26619715Y34497000D01*
X26638771Y34352248D01*
X26694644Y34217359D01*
X26694649Y34217351D01*
X26783523Y34101529D01*
X26783524Y34101528D01*
X26783526Y34101526D01*
X26793163Y34094131D01*
X26835031Y34036796D01*
X26839255Y33965925D01*
X26817011Y33918236D01*
X26723612Y33794556D01*
X26629150Y33604850D01*
X26629147Y33604842D01*
X26571154Y33401017D01*
X26551601Y33190005D01*
X26551601Y33189996D01*
X23666053Y33189996D01*
X23648649Y33203351D01*
X23648641Y33203356D01*
X23513752Y33259229D01*
X23369000Y33278285D01*
X23224247Y33259229D01*
X23181384Y33241474D01*
X23089358Y33203355D01*
X23089357Y33203354D01*
X23089356Y33203354D01*
X22973526Y33114474D01*
X22884646Y32998644D01*
X22884645Y32998642D01*
X22856708Y32931198D01*
X22828771Y32863753D01*
X22809715Y32719001D01*
X22809715Y32719000D01*
X7900580Y32719000D01*
X7889474Y32733474D01*
X7889472Y32733476D01*
X7889471Y32733477D01*
X7773649Y32822351D01*
X7773641Y32822356D01*
X7638752Y32878229D01*
X7494000Y32897285D01*
X7349247Y32878229D01*
X7281802Y32850292D01*
X7214358Y32822355D01*
X7214357Y32822354D01*
X7214356Y32822354D01*
X7098526Y32733474D01*
X7009646Y32617644D01*
X7009645Y32617642D01*
X6991670Y32574246D01*
X6953771Y32482753D01*
X6934715Y32338001D01*
X6934715Y32338000D01*
X6953771Y32193248D01*
X6964080Y32168360D01*
X6971668Y32097770D01*
X6939887Y32034284D01*
X6878828Y31998057D01*
X6831224Y31995223D01*
X6732000Y32008285D01*
X6587247Y31989229D01*
X6519802Y31961292D01*
X6452358Y31933355D01*
X6452357Y31933354D01*
X6452356Y31933354D01*
X6336526Y31844474D01*
X6247646Y31728644D01*
X6247645Y31728642D01*
X6237749Y31704751D01*
X6191771Y31593753D01*
X6172715Y31449001D01*
X6172715Y31449000D01*
X3120894Y31449000D01*
X2992066Y31566442D01*
X2811891Y31678002D01*
X2811886Y31678004D01*
X2811885Y31678005D01*
X2742838Y31704754D01*
X2614277Y31754559D01*
X2614278Y31754559D01*
X2614275Y31754560D01*
X2614274Y31754560D01*
X2405961Y31793500D01*
X2194039Y31793500D01*
X1985726Y31754560D01*
X1985721Y31754559D01*
X1788119Y31678007D01*
X1788108Y31678002D01*
X1607933Y31566442D01*
X1451324Y31423674D01*
X1323612Y31254556D01*
X1229150Y31064850D01*
X1229147Y31064842D01*
X1171154Y30861017D01*
X1151601Y30650005D01*
X1151601Y30649996D01*
X381500Y30649996D01*
X381500Y33189996D01*
X1151601Y33189996D01*
X1171154Y32978984D01*
X1215718Y32822356D01*
X1229150Y32775150D01*
X1323611Y32585446D01*
X1338031Y32566351D01*
X1451324Y32416327D01*
X1607933Y32273559D01*
X1788108Y32161999D01*
X1788110Y32161999D01*
X1788115Y32161995D01*
X1985726Y32085440D01*
X2194039Y32046500D01*
X2194041Y32046500D01*
X2405959Y32046500D01*
X2405961Y32046500D01*
X2614274Y32085440D01*
X2811885Y32161995D01*
X2992065Y32273558D01*
X3148677Y32416329D01*
X3276389Y32585446D01*
X3370850Y32775150D01*
X3428845Y32978982D01*
X3435363Y33049322D01*
X3448399Y33189996D01*
X3448399Y33190005D01*
X3428845Y33401017D01*
X3413384Y33455356D01*
X3370850Y33604850D01*
X3306043Y33735000D01*
X5410715Y33735000D01*
X5429771Y33590248D01*
X5485644Y33455359D01*
X5485646Y33455356D01*
X5556884Y33362517D01*
X5582484Y33296297D01*
X5568219Y33226748D01*
X5556884Y33209110D01*
X5492842Y33125649D01*
X5492839Y33125644D01*
X5492838Y33125642D01*
X5464901Y33058198D01*
X5436964Y32990753D01*
X5417908Y32846001D01*
X5417908Y32846000D01*
X5436964Y32701248D01*
X5492837Y32566359D01*
X5492842Y32566351D01*
X5581718Y32450526D01*
X5697543Y32361650D01*
X5697550Y32361645D01*
X5832439Y32305772D01*
X5977193Y32286715D01*
X6121947Y32305772D01*
X6256836Y32361645D01*
X6372667Y32450526D01*
X6461548Y32566357D01*
X6517421Y32701246D01*
X6536478Y32846000D01*
X6517421Y32990754D01*
X6461548Y33125642D01*
X6461543Y33125649D01*
X6390309Y33218483D01*
X6364708Y33284703D01*
X6378973Y33354252D01*
X6390309Y33371891D01*
X6454350Y33455351D01*
X6454355Y33455357D01*
X6510228Y33590246D01*
X6529285Y33735000D01*
X6526171Y33758650D01*
X6510228Y33879753D01*
X6510228Y33879754D01*
X6454355Y34014642D01*
X6413950Y34067299D01*
X6388349Y34133519D01*
X6402613Y34203068D01*
X6413944Y34220700D01*
X6431056Y34243000D01*
X11125715Y34243000D01*
X11144771Y34098248D01*
X11200644Y33963359D01*
X11200649Y33963351D01*
X11289525Y33847526D01*
X11405350Y33758650D01*
X11405357Y33758645D01*
X11540246Y33702772D01*
X11685000Y33683715D01*
X11829754Y33702772D01*
X11964643Y33758645D01*
X12080474Y33847526D01*
X12169355Y33963357D01*
X12225228Y34098246D01*
X12244285Y34243000D01*
X12522715Y34243000D01*
X12541771Y34098248D01*
X12597644Y33963359D01*
X12597649Y33963351D01*
X12686525Y33847526D01*
X12802350Y33758650D01*
X12802357Y33758645D01*
X12937246Y33702772D01*
X13082000Y33683715D01*
X13226754Y33702772D01*
X13361643Y33758645D01*
X13477474Y33847526D01*
X13566355Y33963357D01*
X13622228Y34098246D01*
X13641285Y34243000D01*
X14961115Y34243000D01*
X14980171Y34098248D01*
X15036044Y33963359D01*
X15036049Y33963351D01*
X15124925Y33847526D01*
X15240750Y33758650D01*
X15240757Y33758645D01*
X15375646Y33702772D01*
X15520400Y33683715D01*
X15665154Y33702772D01*
X15800043Y33758645D01*
X15915874Y33847526D01*
X16004755Y33963357D01*
X16060628Y34098246D01*
X16079685Y34243000D01*
X23526215Y34243000D01*
X23545271Y34098248D01*
X23601144Y33963359D01*
X23601149Y33963351D01*
X23690025Y33847526D01*
X23805850Y33758650D01*
X23805857Y33758645D01*
X23940746Y33702772D01*
X24085500Y33683715D01*
X24230254Y33702772D01*
X24365143Y33758645D01*
X24480974Y33847526D01*
X24569855Y33963357D01*
X24625728Y34098246D01*
X24644785Y34243000D01*
X24640788Y34273357D01*
X24625728Y34387753D01*
X24617237Y34408252D01*
X24569855Y34522642D01*
X24550936Y34547298D01*
X24525337Y34613517D01*
X24539602Y34683066D01*
X24550940Y34700707D01*
X24551932Y34701999D01*
X24556847Y34708406D01*
X24569853Y34725354D01*
X24569853Y34725355D01*
X24569855Y34725357D01*
X24625728Y34860246D01*
X24644785Y35005000D01*
X24625728Y35149754D01*
X24569855Y35284642D01*
X24480974Y35400474D01*
X24480972Y35400476D01*
X24480971Y35400477D01*
X24365149Y35489351D01*
X24365141Y35489356D01*
X24230252Y35545229D01*
X24085500Y35564285D01*
X23940747Y35545229D01*
X23877388Y35518984D01*
X23805858Y35489355D01*
X23805857Y35489354D01*
X23805856Y35489354D01*
X23690026Y35400474D01*
X23601146Y35284644D01*
X23601145Y35284642D01*
X23590624Y35259242D01*
X23545271Y35149753D01*
X23526215Y35005001D01*
X23526215Y35005000D01*
X23545271Y34860248D01*
X23601144Y34725359D01*
X23601149Y34725351D01*
X23620062Y34700703D01*
X23645662Y34634483D01*
X23631397Y34564934D01*
X23620063Y34547298D01*
X23601149Y34522648D01*
X23601146Y34522645D01*
X23601145Y34522642D01*
X23590524Y34497001D01*
X23545271Y34387753D01*
X23526215Y34243001D01*
X23526215Y34243000D01*
X16079685Y34243000D01*
X16075688Y34273357D01*
X16060628Y34387753D01*
X16052137Y34408252D01*
X16004755Y34522642D01*
X15915874Y34638474D01*
X15915872Y34638476D01*
X15915871Y34638477D01*
X15800049Y34727351D01*
X15800041Y34727356D01*
X15665152Y34783229D01*
X15520400Y34802285D01*
X15375647Y34783229D01*
X15308202Y34755292D01*
X15240758Y34727355D01*
X15240757Y34727354D01*
X15240756Y34727354D01*
X15124926Y34638474D01*
X15036046Y34522644D01*
X15036045Y34522642D01*
X15025424Y34497001D01*
X14980171Y34387753D01*
X14961115Y34243001D01*
X14961115Y34243000D01*
X13641285Y34243000D01*
X13637288Y34273357D01*
X13622228Y34387753D01*
X13613737Y34408252D01*
X13566355Y34522642D01*
X13477474Y34638474D01*
X13477472Y34638476D01*
X13477471Y34638477D01*
X13361649Y34727351D01*
X13361641Y34727356D01*
X13226752Y34783229D01*
X13082000Y34802285D01*
X12937247Y34783229D01*
X12869802Y34755292D01*
X12802358Y34727355D01*
X12802357Y34727354D01*
X12802356Y34727354D01*
X12686526Y34638474D01*
X12597646Y34522644D01*
X12597645Y34522642D01*
X12587024Y34497001D01*
X12541771Y34387753D01*
X12522715Y34243001D01*
X12522715Y34243000D01*
X12244285Y34243000D01*
X12240288Y34273357D01*
X12225228Y34387753D01*
X12216737Y34408252D01*
X12169355Y34522642D01*
X12080474Y34638474D01*
X12080472Y34638476D01*
X12080471Y34638477D01*
X11964649Y34727351D01*
X11964641Y34727356D01*
X11829752Y34783229D01*
X11685000Y34802285D01*
X11540247Y34783229D01*
X11472802Y34755292D01*
X11405358Y34727355D01*
X11405357Y34727354D01*
X11405356Y34727354D01*
X11289526Y34638474D01*
X11200646Y34522644D01*
X11200645Y34522642D01*
X11190024Y34497001D01*
X11144771Y34387753D01*
X11125715Y34243001D01*
X11125715Y34243000D01*
X6431056Y34243000D01*
X6454355Y34273363D01*
X6510228Y34408252D01*
X6529285Y34553006D01*
X6524875Y34586500D01*
X6510228Y34697759D01*
X6508474Y34701994D01*
X6454355Y34832648D01*
X6365474Y34948480D01*
X6365472Y34948482D01*
X6365471Y34948483D01*
X6249649Y35037357D01*
X6249641Y35037362D01*
X6114752Y35093235D01*
X5970000Y35112291D01*
X5825247Y35093235D01*
X5757802Y35065298D01*
X5690358Y35037361D01*
X5690357Y35037360D01*
X5690356Y35037360D01*
X5574526Y34948480D01*
X5485646Y34832650D01*
X5485645Y34832648D01*
X5462449Y34776649D01*
X5429771Y34697759D01*
X5410715Y34553007D01*
X5410715Y34553006D01*
X5429771Y34408254D01*
X5485644Y34273365D01*
X5485649Y34273357D01*
X5526049Y34220707D01*
X5551650Y34154487D01*
X5537385Y34084938D01*
X5526050Y34067300D01*
X5485649Y34014649D01*
X5485646Y34014644D01*
X5485645Y34014642D01*
X5465466Y33965925D01*
X5429771Y33879753D01*
X5410715Y33735001D01*
X5410715Y33735000D01*
X3306043Y33735000D01*
X3276389Y33794554D01*
X3148677Y33963671D01*
X3148675Y33963674D01*
X2992066Y34106442D01*
X2811891Y34218002D01*
X2811886Y34218004D01*
X2811885Y34218005D01*
X2811880Y34218007D01*
X2614277Y34294559D01*
X2614278Y34294559D01*
X2614275Y34294560D01*
X2614274Y34294560D01*
X2405961Y34333500D01*
X2194039Y34333500D01*
X1985726Y34294560D01*
X1985721Y34294559D01*
X1788119Y34218007D01*
X1788108Y34218002D01*
X1607933Y34106442D01*
X1451324Y33963674D01*
X1323612Y33794556D01*
X1229150Y33604850D01*
X1229147Y33604842D01*
X1171154Y33401017D01*
X1151601Y33190005D01*
X1151601Y33189996D01*
X381500Y33189996D01*
X381500Y35729996D01*
X1151601Y35729996D01*
X1171154Y35518984D01*
X1219916Y35347602D01*
X1229150Y35315150D01*
X1323611Y35125446D01*
X1333545Y35112291D01*
X1451324Y34956327D01*
X1607933Y34813559D01*
X1788108Y34701999D01*
X1788110Y34701999D01*
X1788115Y34701995D01*
X1985726Y34625440D01*
X2194039Y34586500D01*
X2194041Y34586500D01*
X2405959Y34586500D01*
X2405961Y34586500D01*
X2614274Y34625440D01*
X2811885Y34701995D01*
X2992065Y34813558D01*
X3140067Y34948480D01*
X3148675Y34956327D01*
X3165649Y34978804D01*
X3276389Y35125446D01*
X3370850Y35315150D01*
X3428845Y35518982D01*
X3442251Y35663650D01*
X3448399Y35729996D01*
X3448399Y35730005D01*
X3428845Y35941017D01*
X3413383Y35995359D01*
X3370850Y36144850D01*
X3369281Y36148000D01*
X5156715Y36148000D01*
X5175771Y36003248D01*
X5231644Y35868359D01*
X5231649Y35868351D01*
X5320525Y35752526D01*
X5436350Y35663650D01*
X5436357Y35663645D01*
X5571246Y35607772D01*
X5716000Y35588715D01*
X5860754Y35607772D01*
X5995643Y35663645D01*
X6111474Y35752526D01*
X6200355Y35868357D01*
X6256228Y36003246D01*
X6275285Y36148000D01*
X6256228Y36292754D01*
X6200355Y36427642D01*
X6111474Y36543474D01*
X6111472Y36543476D01*
X6111471Y36543477D01*
X5995649Y36632351D01*
X5995641Y36632356D01*
X5860752Y36688229D01*
X5716000Y36707285D01*
X5571247Y36688229D01*
X5528384Y36670474D01*
X5436358Y36632355D01*
X5436357Y36632354D01*
X5436356Y36632354D01*
X5320526Y36543474D01*
X5231646Y36427644D01*
X5231645Y36427642D01*
X5218330Y36395496D01*
X5175771Y36292753D01*
X5156715Y36148001D01*
X5156715Y36148000D01*
X3369281Y36148000D01*
X3276389Y36334554D01*
X3148677Y36503671D01*
X3148675Y36503674D01*
X2992066Y36646442D01*
X2811891Y36758002D01*
X2811886Y36758004D01*
X2811885Y36758005D01*
X2808390Y36759359D01*
X2614277Y36834559D01*
X2614278Y36834559D01*
X2614275Y36834560D01*
X2614274Y36834560D01*
X2405961Y36873500D01*
X2194039Y36873500D01*
X1985726Y36834560D01*
X1985721Y36834559D01*
X1788119Y36758007D01*
X1788108Y36758002D01*
X1607933Y36646442D01*
X1451324Y36503674D01*
X1323612Y36334556D01*
X1229150Y36144850D01*
X1229147Y36144842D01*
X1171154Y35941017D01*
X1151601Y35730005D01*
X1151601Y35729996D01*
X381500Y35729996D01*
X381500Y38269996D01*
X1151601Y38269996D01*
X1171154Y38058984D01*
X1215718Y37902356D01*
X1229150Y37855150D01*
X1323611Y37665446D01*
X1337660Y37646842D01*
X1451324Y37496327D01*
X1607933Y37353559D01*
X1788108Y37241999D01*
X1788110Y37241999D01*
X1788115Y37241995D01*
X1985726Y37165440D01*
X2194039Y37126500D01*
X2194041Y37126500D01*
X2405959Y37126500D01*
X2405961Y37126500D01*
X2614274Y37165440D01*
X2811885Y37241995D01*
X2992065Y37353558D01*
X3062754Y37418000D01*
X6807715Y37418000D01*
X6826771Y37273248D01*
X6882644Y37138359D01*
X6882649Y37138351D01*
X6971525Y37022526D01*
X7085394Y36935151D01*
X7087357Y36933645D01*
X7099227Y36928729D01*
X7154505Y36884181D01*
X7176926Y36816818D01*
X7159368Y36748027D01*
X7127711Y36712359D01*
X7073126Y36670475D01*
X6984246Y36554644D01*
X6984245Y36554642D01*
X6966303Y36511327D01*
X6928371Y36419753D01*
X6909315Y36275001D01*
X6909315Y36275000D01*
X6928371Y36130248D01*
X6984244Y35995359D01*
X6984249Y35995351D01*
X7073125Y35879526D01*
X7188950Y35790650D01*
X7188957Y35790645D01*
X7323846Y35734772D01*
X7468600Y35715715D01*
X7579484Y35730313D01*
X19471028Y35730313D01*
X19490084Y35585561D01*
X19545957Y35450672D01*
X19545962Y35450664D01*
X19566188Y35424305D01*
X19591788Y35358085D01*
X19577523Y35288536D01*
X19566191Y35270903D01*
X19557250Y35259251D01*
X19557246Y35259244D01*
X19557245Y35259242D01*
X19529308Y35191798D01*
X19501371Y35124353D01*
X19482315Y34979601D01*
X19482315Y34979600D01*
X19501371Y34834848D01*
X19557244Y34699959D01*
X19557249Y34699951D01*
X19646125Y34584126D01*
X19761950Y34495250D01*
X19761957Y34495245D01*
X19896846Y34439372D01*
X20041600Y34420315D01*
X20186354Y34439372D01*
X20321243Y34495245D01*
X20437074Y34584126D01*
X20525955Y34699957D01*
X20581828Y34834846D01*
X20600885Y34979600D01*
X20581828Y35124354D01*
X20525955Y35259242D01*
X20525951Y35259247D01*
X20525951Y35259248D01*
X20505723Y35285610D01*
X20480124Y35351830D01*
X20494390Y35421379D01*
X20505723Y35439014D01*
X20514668Y35450670D01*
X20570541Y35585559D01*
X20589598Y35730313D01*
X20570541Y35875067D01*
X20514668Y36009955D01*
X20425787Y36125787D01*
X20425785Y36125789D01*
X20425784Y36125790D01*
X20309962Y36214664D01*
X20309954Y36214669D01*
X20175065Y36270542D01*
X20030313Y36289598D01*
X19885560Y36270542D01*
X19837765Y36250744D01*
X19750671Y36214668D01*
X19750670Y36214667D01*
X19750669Y36214667D01*
X19634839Y36125787D01*
X19545959Y36009957D01*
X19545958Y36009955D01*
X19539909Y35995351D01*
X19490084Y35875066D01*
X19471028Y35730314D01*
X19471028Y35730313D01*
X7579484Y35730313D01*
X7613354Y35734772D01*
X7748243Y35790645D01*
X7864074Y35879526D01*
X7952955Y35995357D01*
X8008828Y36130246D01*
X8027885Y36275000D01*
X8008828Y36419754D01*
X7952955Y36554642D01*
X7864074Y36670474D01*
X7864072Y36670476D01*
X7864071Y36670477D01*
X7748249Y36759351D01*
X7748246Y36759353D01*
X7748243Y36759355D01*
X7748236Y36759358D01*
X7748234Y36759359D01*
X7736372Y36764273D01*
X7681092Y36808822D01*
X7658673Y36876186D01*
X7676233Y36944977D01*
X7707886Y36980640D01*
X7762474Y37022526D01*
X7851355Y37138357D01*
X7883019Y37214800D01*
X10338315Y37214800D01*
X10357371Y37070048D01*
X10413244Y36935159D01*
X10413249Y36935151D01*
X10502125Y36819326D01*
X10617950Y36730450D01*
X10617957Y36730445D01*
X10752846Y36674572D01*
X10897600Y36655515D01*
X11042354Y36674572D01*
X11177243Y36730445D01*
X11200049Y36747946D01*
X11266268Y36773547D01*
X11335817Y36759283D01*
X11353453Y36747949D01*
X11376265Y36730445D01*
X11511154Y36674572D01*
X11655908Y36655515D01*
X11800662Y36674572D01*
X11848255Y36694287D01*
X11918845Y36701876D01*
X11982332Y36670097D01*
X12012881Y36626099D01*
X12060422Y36511327D01*
X12060424Y36511324D01*
X12060426Y36511321D01*
X12149302Y36395496D01*
X12256999Y36312857D01*
X12265134Y36306615D01*
X12400023Y36250742D01*
X12544777Y36231685D01*
X12689531Y36250742D01*
X12704282Y36256853D01*
X12711204Y36259719D01*
X12781794Y36267309D01*
X12845281Y36235530D01*
X12859384Y36220017D01*
X12863489Y36214667D01*
X12877027Y36197025D01*
X12969865Y36125787D01*
X12992857Y36108145D01*
X13127746Y36052272D01*
X13272500Y36033215D01*
X13417254Y36052272D01*
X13552143Y36108145D01*
X13667974Y36197026D01*
X13756855Y36312857D01*
X13812728Y36447746D01*
X13831785Y36592500D01*
X13824683Y36646442D01*
X13818385Y36694286D01*
X13812728Y36737254D01*
X13756855Y36872142D01*
X13667974Y36987974D01*
X13667972Y36987976D01*
X13667971Y36987977D01*
X13552149Y37076851D01*
X13552141Y37076856D01*
X13417252Y37132729D01*
X13272500Y37151785D01*
X13127747Y37132729D01*
X13106069Y37123749D01*
X13035479Y37116161D01*
X12971993Y37147942D01*
X12957897Y37163447D01*
X12940251Y37186444D01*
X12893333Y37222446D01*
X12824426Y37275321D01*
X12824418Y37275326D01*
X12689529Y37331199D01*
X12544777Y37350255D01*
X12400023Y37331199D01*
X12400019Y37331197D01*
X12352427Y37311484D01*
X12281837Y37303895D01*
X12218351Y37335675D01*
X12187803Y37379671D01*
X12140263Y37494442D01*
X12051382Y37610274D01*
X12051380Y37610276D01*
X12051379Y37610277D01*
X11935557Y37699151D01*
X11935549Y37699156D01*
X11800660Y37755029D01*
X11655908Y37774085D01*
X11511155Y37755029D01*
X11443710Y37727092D01*
X11376266Y37699155D01*
X11376265Y37699154D01*
X11376260Y37699152D01*
X11353456Y37681653D01*
X11287236Y37656054D01*
X11217687Y37670320D01*
X11200050Y37681655D01*
X11177249Y37699151D01*
X11177241Y37699156D01*
X11042352Y37755029D01*
X10897600Y37774085D01*
X10752847Y37755029D01*
X10685402Y37727092D01*
X10617958Y37699155D01*
X10617957Y37699154D01*
X10617956Y37699154D01*
X10502126Y37610274D01*
X10413246Y37494444D01*
X10413245Y37494442D01*
X10385308Y37426998D01*
X10357371Y37359553D01*
X10338315Y37214801D01*
X10338315Y37214800D01*
X7883019Y37214800D01*
X7907228Y37273246D01*
X7926285Y37418000D01*
X7907228Y37562754D01*
X7851355Y37697642D01*
X7762474Y37813474D01*
X7762472Y37813476D01*
X7762471Y37813477D01*
X7648931Y37900600D01*
X14199115Y37900600D01*
X14218171Y37755848D01*
X14274044Y37620959D01*
X14274049Y37620951D01*
X14362925Y37505126D01*
X14478750Y37416250D01*
X14478757Y37416245D01*
X14613646Y37360372D01*
X14613812Y37360351D01*
X14613940Y37360294D01*
X14621623Y37358235D01*
X14621302Y37357038D01*
X14678739Y37331636D01*
X14717836Y37272375D01*
X14722297Y37251877D01*
X14726172Y37222446D01*
X14765679Y37127067D01*
X14782044Y37087559D01*
X14782049Y37087551D01*
X14870925Y36971726D01*
X14986750Y36882850D01*
X14986757Y36882845D01*
X15121646Y36826972D01*
X15266400Y36807915D01*
X15411154Y36826972D01*
X15546043Y36882845D01*
X15661874Y36971726D01*
X15750755Y37087557D01*
X15806628Y37222446D01*
X15825685Y37367200D01*
X15818997Y37418000D01*
X19634715Y37418000D01*
X19653771Y37273248D01*
X19709644Y37138359D01*
X19709649Y37138351D01*
X19798525Y37022526D01*
X19912394Y36935151D01*
X19914357Y36933645D01*
X20049246Y36877772D01*
X20194000Y36858715D01*
X20338754Y36877772D01*
X20473643Y36933645D01*
X20589474Y37022526D01*
X20678345Y37138345D01*
X20735683Y37180211D01*
X20806554Y37184433D01*
X20826519Y37178051D01*
X20938246Y37131772D01*
X21083000Y37112715D01*
X21227754Y37131772D01*
X21362643Y37187645D01*
X21478474Y37276526D01*
X21567355Y37392357D01*
X21623228Y37527246D01*
X21642285Y37672000D01*
X21623228Y37816754D01*
X21567355Y37951642D01*
X21478474Y38067474D01*
X21478472Y38067476D01*
X21478471Y38067477D01*
X21362649Y38156351D01*
X21362641Y38156356D01*
X21227752Y38212229D01*
X21083000Y38231285D01*
X20938247Y38212229D01*
X20870802Y38184292D01*
X20803358Y38156355D01*
X20803357Y38156354D01*
X20803356Y38156354D01*
X20687523Y38067472D01*
X20598655Y37951656D01*
X20541317Y37909789D01*
X20470446Y37905567D01*
X20450480Y37911950D01*
X20338754Y37958228D01*
X20338752Y37958229D01*
X20194000Y37977285D01*
X20049247Y37958229D01*
X19996020Y37936181D01*
X19914358Y37902355D01*
X19914357Y37902354D01*
X19914356Y37902354D01*
X19798526Y37813474D01*
X19709646Y37697644D01*
X19709645Y37697642D01*
X19692419Y37656054D01*
X19653771Y37562753D01*
X19634715Y37418001D01*
X19634715Y37418000D01*
X15818997Y37418000D01*
X15806628Y37511954D01*
X15750755Y37646842D01*
X15661874Y37762674D01*
X15661872Y37762676D01*
X15661871Y37762677D01*
X15546049Y37851551D01*
X15546041Y37851556D01*
X15427638Y37900600D01*
X15411154Y37907428D01*
X15411153Y37907429D01*
X15411151Y37907429D01*
X15410966Y37907453D01*
X15410819Y37907518D01*
X15403176Y37909566D01*
X15403495Y37910759D01*
X15346041Y37936181D01*
X15306955Y37995450D01*
X15302501Y38015931D01*
X15299526Y38038526D01*
X15298628Y38045354D01*
X15242755Y38180242D01*
X15153874Y38296074D01*
X15153872Y38296076D01*
X15153871Y38296077D01*
X15038049Y38384951D01*
X15038041Y38384956D01*
X14919639Y38434000D01*
X24968715Y38434000D01*
X24987771Y38289248D01*
X25043644Y38154359D01*
X25043649Y38154351D01*
X25132525Y38038526D01*
X25245753Y37951643D01*
X25248357Y37949645D01*
X25383246Y37893772D01*
X25528000Y37874715D01*
X25672754Y37893772D01*
X25807643Y37949645D01*
X25923474Y38038526D01*
X26012355Y38154357D01*
X26060254Y38269996D01*
X26551601Y38269996D01*
X26571154Y38058984D01*
X26615718Y37902356D01*
X26629150Y37855150D01*
X26723611Y37665446D01*
X26737660Y37646842D01*
X26851324Y37496327D01*
X27007933Y37353559D01*
X27188108Y37241999D01*
X27188110Y37241999D01*
X27188115Y37241995D01*
X27385726Y37165440D01*
X27594039Y37126500D01*
X27594041Y37126500D01*
X27805959Y37126500D01*
X27805961Y37126500D01*
X28014274Y37165440D01*
X28211885Y37241995D01*
X28392065Y37353558D01*
X28548677Y37496329D01*
X28676389Y37665446D01*
X28770850Y37855150D01*
X28828845Y38058982D01*
X28843046Y38212229D01*
X28848399Y38269996D01*
X28848399Y38270005D01*
X28828845Y38481017D01*
X28770852Y38684842D01*
X28770850Y38684850D01*
X28676389Y38874554D01*
X28548677Y39043671D01*
X28548675Y39043674D01*
X28392066Y39186442D01*
X28211891Y39298002D01*
X28211886Y39298004D01*
X28211885Y39298005D01*
X28014277Y39374559D01*
X28014278Y39374559D01*
X28014275Y39374560D01*
X28014274Y39374560D01*
X27805961Y39413500D01*
X27594039Y39413500D01*
X27385726Y39374560D01*
X27385721Y39374559D01*
X27188119Y39298007D01*
X27188108Y39298002D01*
X27007933Y39186442D01*
X26851324Y39043674D01*
X26723612Y38874556D01*
X26629150Y38684850D01*
X26629147Y38684842D01*
X26571154Y38481017D01*
X26551601Y38270005D01*
X26551601Y38269996D01*
X26060254Y38269996D01*
X26068228Y38289246D01*
X26087285Y38434000D01*
X26068228Y38578754D01*
X26012355Y38713642D01*
X25944711Y38801797D01*
X25919111Y38868016D01*
X25933376Y38937565D01*
X25944706Y38955197D01*
X26012355Y39043357D01*
X26068228Y39178246D01*
X26087285Y39323000D01*
X26068228Y39467754D01*
X26012355Y39602642D01*
X25923474Y39718474D01*
X25923472Y39718476D01*
X25923471Y39718477D01*
X25807649Y39807351D01*
X25807641Y39807356D01*
X25672752Y39863229D01*
X25528000Y39882285D01*
X25383247Y39863229D01*
X25315802Y39835292D01*
X25248358Y39807355D01*
X25248357Y39807354D01*
X25248356Y39807354D01*
X25132526Y39718474D01*
X25043646Y39602644D01*
X25043645Y39602642D01*
X25015708Y39535198D01*
X24987771Y39467753D01*
X24968715Y39323001D01*
X24968715Y39323000D01*
X24987771Y39178248D01*
X25043644Y39043359D01*
X25043649Y39043351D01*
X25111287Y38955204D01*
X25136888Y38888984D01*
X25122623Y38819435D01*
X25111288Y38801796D01*
X25043646Y38713644D01*
X25043645Y38713642D01*
X25031719Y38684850D01*
X24987771Y38578753D01*
X24968715Y38434001D01*
X24968715Y38434000D01*
X14919639Y38434000D01*
X14903152Y38440829D01*
X14758400Y38459885D01*
X14613647Y38440829D01*
X14546202Y38412892D01*
X14478758Y38384955D01*
X14478757Y38384954D01*
X14478756Y38384954D01*
X14362926Y38296074D01*
X14274046Y38180244D01*
X14274045Y38180242D01*
X14246108Y38112798D01*
X14218171Y38045353D01*
X14199115Y37900601D01*
X14199115Y37900600D01*
X7648931Y37900600D01*
X7646649Y37902351D01*
X7646641Y37902356D01*
X7511752Y37958229D01*
X7367000Y37977285D01*
X7222247Y37958229D01*
X7169020Y37936181D01*
X7087358Y37902355D01*
X7087357Y37902354D01*
X7087356Y37902354D01*
X6971526Y37813474D01*
X6882646Y37697644D01*
X6882645Y37697642D01*
X6865419Y37656054D01*
X6826771Y37562753D01*
X6807715Y37418001D01*
X6807715Y37418000D01*
X3062754Y37418000D01*
X3148677Y37496329D01*
X3276389Y37665446D01*
X3370850Y37855150D01*
X3428845Y38058982D01*
X3443046Y38212229D01*
X3448399Y38269996D01*
X3448399Y38270005D01*
X3428845Y38481017D01*
X3370852Y38684842D01*
X3370850Y38684850D01*
X3276389Y38874554D01*
X3148677Y39043671D01*
X3148675Y39043674D01*
X2992066Y39186442D01*
X2811891Y39298002D01*
X2811886Y39298004D01*
X2811885Y39298005D01*
X2614277Y39374559D01*
X2614278Y39374559D01*
X2614275Y39374560D01*
X2614274Y39374560D01*
X2405961Y39413500D01*
X2194039Y39413500D01*
X1985726Y39374560D01*
X1985721Y39374559D01*
X1788119Y39298007D01*
X1788108Y39298002D01*
X1607933Y39186442D01*
X1451324Y39043674D01*
X1323612Y38874556D01*
X1229150Y38684850D01*
X1229147Y38684842D01*
X1171154Y38481017D01*
X1151601Y38270005D01*
X1151601Y38269996D01*
X381500Y38269996D01*
X381500Y40809996D01*
X1151601Y40809996D01*
X1171154Y40598984D01*
X1213109Y40451526D01*
X1229150Y40395150D01*
X1323611Y40205446D01*
X1323612Y40205445D01*
X1451324Y40036327D01*
X1607933Y39893559D01*
X1788108Y39781999D01*
X1788110Y39781999D01*
X1788115Y39781995D01*
X1985726Y39705440D01*
X2194039Y39666500D01*
X2194041Y39666500D01*
X2405959Y39666500D01*
X2405961Y39666500D01*
X2614274Y39705440D01*
X2811885Y39781995D01*
X2992065Y39893558D01*
X3148677Y40036329D01*
X3276389Y40205446D01*
X3370850Y40395150D01*
X3428845Y40598982D01*
X3444275Y40765496D01*
X3448399Y40809996D01*
X3448399Y40810005D01*
X3428845Y41021017D01*
X3427839Y41024551D01*
X3370850Y41224850D01*
X3276389Y41414554D01*
X3225456Y41482000D01*
X10617715Y41482000D01*
X10636771Y41337248D01*
X10692644Y41202359D01*
X10692649Y41202351D01*
X10781525Y41086526D01*
X10866898Y41021017D01*
X10897357Y40997645D01*
X11032246Y40941772D01*
X11177000Y40922715D01*
X11321754Y40941772D01*
X11456643Y40997645D01*
X11572474Y41086526D01*
X11661355Y41202357D01*
X11717228Y41337246D01*
X11719565Y41355000D01*
X13665715Y41355000D01*
X13684771Y41210248D01*
X13740644Y41075359D01*
X13740649Y41075351D01*
X13829525Y40959526D01*
X13945350Y40870650D01*
X13945357Y40870645D01*
X14080246Y40814772D01*
X14225000Y40795715D01*
X14369754Y40814772D01*
X14504643Y40870645D01*
X14529293Y40889561D01*
X14595513Y40915163D01*
X14665062Y40900900D01*
X14682707Y40889560D01*
X14707353Y40870647D01*
X14707356Y40870646D01*
X14707357Y40870645D01*
X14842246Y40814772D01*
X14987000Y40795715D01*
X15131754Y40814772D01*
X15209559Y40847000D01*
X16586715Y40847000D01*
X16605771Y40702248D01*
X16661644Y40567359D01*
X16661649Y40567351D01*
X16750525Y40451526D01*
X16866350Y40362650D01*
X16866357Y40362645D01*
X17001246Y40306772D01*
X17146000Y40287715D01*
X17290754Y40306772D01*
X17425643Y40362645D01*
X17541474Y40451526D01*
X17630355Y40567357D01*
X17686228Y40702246D01*
X17686229Y40702259D01*
X17686930Y40704871D01*
X17688131Y40706843D01*
X17689388Y40709876D01*
X17689860Y40709681D01*
X17723878Y40765496D01*
X17787737Y40796521D01*
X17792169Y40797186D01*
X17925754Y40814772D01*
X18060643Y40870645D01*
X18176474Y40959526D01*
X18265355Y41075357D01*
X18321228Y41210246D01*
X18333597Y41304200D01*
X19431515Y41304200D01*
X19450571Y41159448D01*
X19506444Y41024559D01*
X19506449Y41024551D01*
X19595325Y40908726D01*
X19675768Y40847000D01*
X19711157Y40819845D01*
X19846046Y40763972D01*
X19990800Y40744915D01*
X20135554Y40763972D01*
X20246665Y40809996D01*
X26551601Y40809996D01*
X26571154Y40598984D01*
X26613109Y40451526D01*
X26629150Y40395150D01*
X26723611Y40205446D01*
X26723612Y40205445D01*
X26851324Y40036327D01*
X27007933Y39893559D01*
X27188108Y39781999D01*
X27188110Y39781999D01*
X27188115Y39781995D01*
X27385726Y39705440D01*
X27594039Y39666500D01*
X27594041Y39666500D01*
X27805959Y39666500D01*
X27805961Y39666500D01*
X28014274Y39705440D01*
X28211885Y39781995D01*
X28392065Y39893558D01*
X28548677Y40036329D01*
X28676389Y40205446D01*
X28770850Y40395150D01*
X28828845Y40598982D01*
X28844275Y40765496D01*
X28848399Y40809996D01*
X28848399Y40810005D01*
X28828845Y41021017D01*
X28827839Y41024551D01*
X28770850Y41224850D01*
X28676389Y41414554D01*
X28548677Y41583671D01*
X28548675Y41583674D01*
X28392066Y41726442D01*
X28211891Y41838002D01*
X28211886Y41838004D01*
X28211885Y41838005D01*
X28208398Y41839356D01*
X28014277Y41914559D01*
X28014278Y41914559D01*
X28014275Y41914560D01*
X28014274Y41914560D01*
X27805961Y41953500D01*
X27594039Y41953500D01*
X27385726Y41914560D01*
X27385721Y41914559D01*
X27188119Y41838007D01*
X27188108Y41838002D01*
X27007933Y41726442D01*
X26851324Y41583674D01*
X26723612Y41414556D01*
X26629150Y41224850D01*
X26629147Y41224842D01*
X26571154Y41021017D01*
X26551601Y40810005D01*
X26551601Y40809996D01*
X20246665Y40809996D01*
X20270443Y40819845D01*
X20386274Y40908726D01*
X20475155Y41024557D01*
X20492461Y41066339D01*
X20537006Y41121616D01*
X20604369Y41144038D01*
X20671868Y41127237D01*
X20676350Y41124650D01*
X20676357Y41124645D01*
X20811246Y41068772D01*
X20956000Y41049715D01*
X21100754Y41068772D01*
X21235643Y41124645D01*
X21351474Y41213526D01*
X21440355Y41329357D01*
X21496228Y41464246D01*
X21515285Y41609000D01*
X21496228Y41753754D01*
X21440355Y41888642D01*
X21351474Y42004474D01*
X21351472Y42004476D01*
X21351471Y42004477D01*
X21235649Y42093351D01*
X21235641Y42093356D01*
X21100752Y42149229D01*
X20956000Y42168285D01*
X20811247Y42149229D01*
X20743802Y42121292D01*
X20676358Y42093355D01*
X20676357Y42093354D01*
X20676356Y42093354D01*
X20560526Y42004474D01*
X20471646Y41888644D01*
X20471643Y41888639D01*
X20454339Y41846863D01*
X20409790Y41791583D01*
X20342426Y41769163D01*
X20274934Y41785962D01*
X20270444Y41788554D01*
X20270443Y41788555D01*
X20151068Y41838002D01*
X20135552Y41844429D01*
X19990800Y41863485D01*
X19846047Y41844429D01*
X19788127Y41820437D01*
X19711158Y41788555D01*
X19711157Y41788554D01*
X19711156Y41788554D01*
X19595326Y41699674D01*
X19506446Y41583844D01*
X19506445Y41583842D01*
X19478508Y41516398D01*
X19450571Y41448953D01*
X19431515Y41304201D01*
X19431515Y41304200D01*
X18333597Y41304200D01*
X18340285Y41355000D01*
X18321228Y41499754D01*
X18265355Y41634642D01*
X18176474Y41750474D01*
X18176472Y41750476D01*
X18176471Y41750477D01*
X18060649Y41839351D01*
X18060641Y41839356D01*
X17925752Y41895229D01*
X17781000Y41914285D01*
X17636247Y41895229D01*
X17593384Y41877474D01*
X17501358Y41839355D01*
X17501357Y41839354D01*
X17501356Y41839354D01*
X17385526Y41750474D01*
X17296646Y41634644D01*
X17296645Y41634642D01*
X17286024Y41609001D01*
X17240771Y41499752D01*
X17240066Y41497119D01*
X17238864Y41495149D01*
X17237612Y41492124D01*
X17237140Y41492320D01*
X17203113Y41436498D01*
X17139251Y41405478D01*
X17134807Y41404812D01*
X17001247Y41387229D01*
X16933802Y41359292D01*
X16866358Y41331355D01*
X16866357Y41331354D01*
X16866356Y41331354D01*
X16750526Y41242474D01*
X16661646Y41126644D01*
X16661645Y41126642D01*
X16645028Y41086526D01*
X16605771Y40991753D01*
X16586715Y40847001D01*
X16586715Y40847000D01*
X15209559Y40847000D01*
X15266643Y40870645D01*
X15382474Y40959526D01*
X15471355Y41075357D01*
X15527228Y41210246D01*
X15546285Y41355000D01*
X15527228Y41499754D01*
X15471355Y41634642D01*
X15382474Y41750474D01*
X15382472Y41750476D01*
X15382471Y41750477D01*
X15266649Y41839351D01*
X15266641Y41839356D01*
X15131752Y41895229D01*
X14987000Y41914285D01*
X14842247Y41895229D01*
X14799384Y41877474D01*
X14707358Y41839355D01*
X14707357Y41839354D01*
X14707352Y41839351D01*
X14682702Y41820437D01*
X14616481Y41794838D01*
X14546932Y41809104D01*
X14529297Y41820438D01*
X14504649Y41839351D01*
X14504641Y41839356D01*
X14369752Y41895229D01*
X14225000Y41914285D01*
X14080247Y41895229D01*
X14037384Y41877474D01*
X13945358Y41839355D01*
X13945357Y41839354D01*
X13945356Y41839354D01*
X13829526Y41750474D01*
X13740646Y41634644D01*
X13740645Y41634642D01*
X13730024Y41609001D01*
X13684771Y41499753D01*
X13665715Y41355001D01*
X13665715Y41355000D01*
X11719565Y41355000D01*
X11736285Y41482000D01*
X11717228Y41626754D01*
X11661355Y41761642D01*
X11572474Y41877474D01*
X11572472Y41877476D01*
X11572471Y41877477D01*
X11456649Y41966351D01*
X11456641Y41966356D01*
X11321752Y42022229D01*
X11177000Y42041285D01*
X11032247Y42022229D01*
X10989384Y42004474D01*
X10897358Y41966355D01*
X10897357Y41966354D01*
X10897356Y41966354D01*
X10781526Y41877474D01*
X10692646Y41761644D01*
X10692645Y41761642D01*
X10678065Y41726442D01*
X10636771Y41626753D01*
X10617715Y41482001D01*
X10617715Y41482000D01*
X3225456Y41482000D01*
X3148677Y41583671D01*
X3148675Y41583674D01*
X2992066Y41726442D01*
X2811891Y41838002D01*
X2811886Y41838004D01*
X2811885Y41838005D01*
X2808398Y41839356D01*
X2614277Y41914559D01*
X2614278Y41914559D01*
X2614275Y41914560D01*
X2614274Y41914560D01*
X2405961Y41953500D01*
X2194039Y41953500D01*
X1985726Y41914560D01*
X1985721Y41914559D01*
X1788119Y41838007D01*
X1788108Y41838002D01*
X1607933Y41726442D01*
X1451324Y41583674D01*
X1323612Y41414556D01*
X1229150Y41224850D01*
X1229147Y41224842D01*
X1171154Y41021017D01*
X1151601Y40810005D01*
X1151601Y40809996D01*
X381500Y40809996D01*
X381500Y43349996D01*
X1151601Y43349996D01*
X1171154Y43138984D01*
X1171155Y43138982D01*
X1229150Y42935150D01*
X1323611Y42745446D01*
X1323612Y42745445D01*
X1451324Y42576327D01*
X1607933Y42433559D01*
X1788108Y42321999D01*
X1788110Y42321999D01*
X1788115Y42321995D01*
X1985726Y42245440D01*
X2194039Y42206500D01*
X2194041Y42206500D01*
X2405959Y42206500D01*
X2405961Y42206500D01*
X2614274Y42245440D01*
X2811885Y42321995D01*
X2992065Y42433558D01*
X3148677Y42576329D01*
X3276389Y42745446D01*
X3370850Y42935150D01*
X3428845Y43138982D01*
X3448399Y43349996D01*
X26551601Y43349996D01*
X26571154Y43138984D01*
X26571155Y43138982D01*
X26629150Y42935150D01*
X26723611Y42745446D01*
X26723612Y42745445D01*
X26851324Y42576327D01*
X27007933Y42433559D01*
X27188108Y42321999D01*
X27188110Y42321999D01*
X27188115Y42321995D01*
X27385726Y42245440D01*
X27594039Y42206500D01*
X27594041Y42206500D01*
X27805959Y42206500D01*
X27805961Y42206500D01*
X28014274Y42245440D01*
X28211885Y42321995D01*
X28392065Y42433558D01*
X28548677Y42576329D01*
X28676389Y42745446D01*
X28770850Y42935150D01*
X28828845Y43138982D01*
X28848399Y43350000D01*
X28828845Y43561018D01*
X28770850Y43764850D01*
X28676389Y43954554D01*
X28548677Y44123671D01*
X28548675Y44123674D01*
X28392066Y44266442D01*
X28211891Y44378002D01*
X28211886Y44378004D01*
X28211885Y44378005D01*
X28101540Y44420753D01*
X28014277Y44454559D01*
X28014278Y44454559D01*
X28014275Y44454560D01*
X28014274Y44454560D01*
X27805961Y44493500D01*
X27594039Y44493500D01*
X27385726Y44454560D01*
X27385721Y44454559D01*
X27188119Y44378007D01*
X27188108Y44378002D01*
X27007933Y44266442D01*
X26851324Y44123674D01*
X26723612Y43954556D01*
X26629150Y43764850D01*
X26629147Y43764842D01*
X26571154Y43561017D01*
X26551601Y43350005D01*
X26551601Y43349996D01*
X3448399Y43349996D01*
X3448399Y43350000D01*
X3428845Y43561018D01*
X3370850Y43764850D01*
X3276389Y43954554D01*
X3148677Y44123671D01*
X3148675Y44123674D01*
X2992066Y44266442D01*
X2811891Y44378002D01*
X2811886Y44378004D01*
X2811885Y44378005D01*
X2701540Y44420753D01*
X2614277Y44454559D01*
X2614278Y44454559D01*
X2614275Y44454560D01*
X2614274Y44454560D01*
X2405961Y44493500D01*
X2194039Y44493500D01*
X1985726Y44454560D01*
X1985721Y44454559D01*
X1788119Y44378007D01*
X1788108Y44378002D01*
X1607933Y44266442D01*
X1451324Y44123674D01*
X1323612Y43954556D01*
X1229150Y43764850D01*
X1229147Y43764842D01*
X1171154Y43561017D01*
X1151601Y43350005D01*
X1151601Y43349996D01*
X381500Y43349996D01*
X381500Y44530000D01*
X6226726Y44530000D01*
X6245763Y44361046D01*
X6266549Y44301643D01*
X6301918Y44200563D01*
X6301919Y44200561D01*
X6392375Y44056601D01*
X6392377Y44056598D01*
X6512597Y43936378D01*
X6512600Y43936376D01*
X6656563Y43845918D01*
X6817046Y43789763D01*
X6986000Y43770726D01*
X7154954Y43789763D01*
X7315437Y43845918D01*
X7459400Y43936376D01*
X7579624Y44056600D01*
X7670082Y44200563D01*
X7726237Y44361046D01*
X7745274Y44530000D01*
X7726237Y44698954D01*
X7670082Y44859437D01*
X7579624Y45003400D01*
X7579622Y45003403D01*
X7459402Y45123623D01*
X7459399Y45123625D01*
X7393551Y45165000D01*
X11125715Y45165000D01*
X11144771Y45020248D01*
X11200644Y44885359D01*
X11200649Y44885351D01*
X11289525Y44769526D01*
X11381496Y44698954D01*
X11405357Y44680645D01*
X11516198Y44634733D01*
X11571478Y44590186D01*
X11593899Y44522822D01*
X11576341Y44454031D01*
X11549213Y44423466D01*
X11549365Y44423314D01*
X11546818Y44420768D01*
X11544688Y44418367D01*
X11543529Y44417478D01*
X11454646Y44301644D01*
X11454645Y44301642D01*
X11444024Y44276001D01*
X11398771Y44166753D01*
X11379715Y44022001D01*
X11379715Y44022000D01*
X11398771Y43877248D01*
X11454644Y43742359D01*
X11454649Y43742351D01*
X11543525Y43626526D01*
X11628898Y43561017D01*
X11659357Y43537645D01*
X11794246Y43481772D01*
X11939000Y43462715D01*
X12083754Y43481772D01*
X12218643Y43537645D01*
X12334474Y43626526D01*
X12423355Y43742357D01*
X12479228Y43877246D01*
X12498285Y44022000D01*
X12479228Y44166754D01*
X12433976Y44276000D01*
X16840715Y44276000D01*
X16859771Y44131248D01*
X16915644Y43996359D01*
X16915649Y43996351D01*
X17004525Y43880526D01*
X17120350Y43791650D01*
X17120357Y43791645D01*
X17255246Y43735772D01*
X17400000Y43716715D01*
X17544754Y43735772D01*
X17679643Y43791645D01*
X17795474Y43880526D01*
X17884355Y43996357D01*
X17940228Y44131246D01*
X17959285Y44276000D01*
X17940228Y44420754D01*
X17884355Y44555642D01*
X17795474Y44671474D01*
X17795472Y44671476D01*
X17795471Y44671477D01*
X17679649Y44760351D01*
X17679641Y44760356D01*
X17544752Y44816229D01*
X17400000Y44835285D01*
X17255247Y44816229D01*
X17187802Y44788292D01*
X17120358Y44760355D01*
X17120357Y44760354D01*
X17120356Y44760354D01*
X17004526Y44671474D01*
X16915646Y44555644D01*
X16915645Y44555642D01*
X16895229Y44506354D01*
X16859771Y44420753D01*
X16840715Y44276001D01*
X16840715Y44276000D01*
X12433976Y44276000D01*
X12423355Y44301642D01*
X12334474Y44417474D01*
X12334472Y44417476D01*
X12334471Y44417477D01*
X12218649Y44506351D01*
X12218646Y44506353D01*
X12218643Y44506355D01*
X12107800Y44552268D01*
X12052521Y44596816D01*
X12030100Y44664179D01*
X12047659Y44732971D01*
X12074787Y44763534D01*
X12074635Y44763686D01*
X12077199Y44766251D01*
X12079323Y44768643D01*
X12080474Y44769526D01*
X12169355Y44885357D01*
X12225228Y45020246D01*
X12244285Y45165000D01*
X12237596Y45215805D01*
X12225228Y45309753D01*
X12225228Y45309754D01*
X12169355Y45444642D01*
X12080474Y45560474D01*
X12080472Y45560476D01*
X12080471Y45560477D01*
X11964649Y45649351D01*
X11964641Y45649356D01*
X11829752Y45705229D01*
X11685000Y45724285D01*
X11540247Y45705229D01*
X11488010Y45683591D01*
X11405358Y45649355D01*
X11405357Y45649354D01*
X11405356Y45649354D01*
X11289526Y45560474D01*
X11200646Y45444644D01*
X11200645Y45444642D01*
X11182670Y45401246D01*
X11144771Y45309753D01*
X11125715Y45165001D01*
X11125715Y45165000D01*
X7393551Y45165000D01*
X7315439Y45214081D01*
X7315437Y45214082D01*
X7310513Y45215805D01*
X7154954Y45270237D01*
X6986000Y45289274D01*
X6817046Y45270237D01*
X6817043Y45270237D01*
X6817043Y45270236D01*
X6656562Y45214082D01*
X6656560Y45214081D01*
X6512600Y45123625D01*
X6512597Y45123623D01*
X6392377Y45003403D01*
X6392375Y45003400D01*
X6301919Y44859440D01*
X6301918Y44859438D01*
X6262400Y44746500D01*
X6245763Y44698954D01*
X6226726Y44530000D01*
X381500Y44530000D01*
X381500Y45889996D01*
X1151601Y45889996D01*
X1171154Y45678984D01*
X1216287Y45520357D01*
X1229150Y45475150D01*
X1323611Y45285446D01*
X1365017Y45230616D01*
X1451324Y45116327D01*
X1607933Y44973559D01*
X1788108Y44861999D01*
X1788110Y44861999D01*
X1788115Y44861995D01*
X1985726Y44785440D01*
X2194039Y44746500D01*
X2194041Y44746500D01*
X2405959Y44746500D01*
X2405961Y44746500D01*
X2614274Y44785440D01*
X2811885Y44861995D01*
X2992065Y44973558D01*
X3148677Y45116329D01*
X3276389Y45285446D01*
X3370850Y45475150D01*
X3428845Y45678982D01*
X3435363Y45749322D01*
X3440059Y45800000D01*
X12903715Y45800000D01*
X12922771Y45655248D01*
X12978644Y45520359D01*
X12978649Y45520351D01*
X13067525Y45404526D01*
X13183350Y45315650D01*
X13183357Y45315645D01*
X13318246Y45259772D01*
X13434050Y45244527D01*
X13498977Y45215805D01*
X13538069Y45156540D01*
X13542526Y45136051D01*
X13557771Y45020248D01*
X13613644Y44885359D01*
X13613649Y44885351D01*
X13702525Y44769526D01*
X13794496Y44698954D01*
X13818357Y44680645D01*
X13953246Y44624772D01*
X14098000Y44605715D01*
X14242754Y44624772D01*
X14377643Y44680645D01*
X14493474Y44769526D01*
X14582355Y44885357D01*
X14638228Y45020246D01*
X14657285Y45165000D01*
X14650596Y45215805D01*
X14638228Y45309753D01*
X14638228Y45309754D01*
X14582355Y45444642D01*
X14493474Y45560474D01*
X14493472Y45560476D01*
X14493471Y45560477D01*
X14377649Y45649351D01*
X14377641Y45649356D01*
X14356453Y45658132D01*
X14294987Y45683593D01*
X14239708Y45728139D01*
X14217287Y45795503D01*
X14234845Y45864294D01*
X14286807Y45912672D01*
X14294977Y45916404D01*
X14377643Y45950645D01*
X14493474Y46039526D01*
X14582355Y46155357D01*
X14638228Y46290246D01*
X14657285Y46435000D01*
X14640565Y46562000D01*
X15443715Y46562000D01*
X15462771Y46417248D01*
X15518644Y46282359D01*
X15518649Y46282351D01*
X15607525Y46166526D01*
X15720753Y46079643D01*
X15723357Y46077645D01*
X15858246Y46021772D01*
X16003000Y46002715D01*
X16147754Y46021772D01*
X16282643Y46077645D01*
X16398474Y46166526D01*
X16456714Y46242427D01*
X16514051Y46284293D01*
X16584922Y46288515D01*
X16604894Y46282131D01*
X16620246Y46275772D01*
X16765000Y46256715D01*
X16892621Y46273517D01*
X16962767Y46262578D01*
X17015866Y46215450D01*
X17025470Y46196820D01*
X17038019Y46166526D01*
X17042644Y46155359D01*
X17042649Y46155351D01*
X17131525Y46039526D01*
X17247350Y45950650D01*
X17247357Y45950645D01*
X17382246Y45894772D01*
X17527000Y45875715D01*
X17671754Y45894772D01*
X17806643Y45950645D01*
X17922474Y46039526D01*
X18011355Y46155357D01*
X18067228Y46290246D01*
X18086285Y46435000D01*
X18491715Y46435000D01*
X18510771Y46290248D01*
X18566644Y46155359D01*
X18566649Y46155351D01*
X18655525Y46039526D01*
X18771350Y45950650D01*
X18771357Y45950645D01*
X18906246Y45894772D01*
X18981027Y45884927D01*
X19045952Y45856206D01*
X19085045Y45796942D01*
X19085890Y45725950D01*
X19077633Y45706343D01*
X19077806Y45706271D01*
X19074646Y45698645D01*
X19074645Y45698642D01*
X19054229Y45649354D01*
X19018771Y45563753D01*
X18999715Y45419001D01*
X18999715Y45419000D01*
X19018771Y45274248D01*
X19074644Y45139359D01*
X19074649Y45139351D01*
X19163525Y45023526D01*
X19279350Y44934650D01*
X19279357Y44934645D01*
X19414246Y44878772D01*
X19559000Y44859715D01*
X19703754Y44878772D01*
X19838643Y44934645D01*
X19954474Y45023526D01*
X19975443Y45050854D01*
X20032778Y45092720D01*
X20103649Y45096944D01*
X20152107Y45074114D01*
X20168357Y45061645D01*
X20303246Y45005772D01*
X20448000Y44986715D01*
X20592754Y45005772D01*
X20727643Y45061645D01*
X20843474Y45150526D01*
X20932355Y45266357D01*
X20988228Y45401246D01*
X21007285Y45546000D01*
X21005379Y45560474D01*
X20989778Y45678982D01*
X20988228Y45690754D01*
X20932355Y45825642D01*
X20843474Y45941474D01*
X20843472Y45941476D01*
X20843471Y45941477D01*
X20727649Y46030351D01*
X20727641Y46030356D01*
X20592752Y46086229D01*
X20448000Y46105285D01*
X20303247Y46086229D01*
X20235802Y46058292D01*
X20168358Y46030355D01*
X20168357Y46030354D01*
X20168356Y46030354D01*
X20052522Y45941472D01*
X20031555Y45914146D01*
X19974217Y45872279D01*
X19903346Y45868058D01*
X19854891Y45890888D01*
X19838649Y45903351D01*
X19838641Y45903356D01*
X19703752Y45959229D01*
X19628973Y45969073D01*
X19564046Y45997795D01*
X19524954Y46057060D01*
X19524109Y46128052D01*
X19532366Y46147656D01*
X19532194Y46147727D01*
X19535353Y46155356D01*
X19535355Y46155357D01*
X19591228Y46290246D01*
X19610285Y46435000D01*
X19591228Y46579754D01*
X19535355Y46714642D01*
X19446474Y46830474D01*
X19446472Y46830476D01*
X19446471Y46830477D01*
X19330649Y46919351D01*
X19330641Y46919356D01*
X19195752Y46975229D01*
X19051000Y46994285D01*
X18906247Y46975229D01*
X18863384Y46957474D01*
X18771358Y46919355D01*
X18771357Y46919354D01*
X18771356Y46919354D01*
X18655526Y46830474D01*
X18566646Y46714644D01*
X18566645Y46714642D01*
X18545533Y46663674D01*
X18510771Y46579753D01*
X18491715Y46435001D01*
X18491715Y46435000D01*
X18086285Y46435000D01*
X18067228Y46579754D01*
X18011355Y46714642D01*
X17922474Y46830474D01*
X17922472Y46830476D01*
X17922471Y46830477D01*
X17806649Y46919351D01*
X17806641Y46919356D01*
X17671752Y46975229D01*
X17527000Y46994285D01*
X17399380Y46977484D01*
X17329231Y46988424D01*
X17276133Y47035552D01*
X17266529Y47054179D01*
X17249355Y47095642D01*
X17160474Y47211474D01*
X17160472Y47211476D01*
X17160471Y47211477D01*
X17044649Y47300351D01*
X17044641Y47300356D01*
X16909752Y47356229D01*
X16765000Y47375285D01*
X16620247Y47356229D01*
X16552802Y47328292D01*
X16485358Y47300355D01*
X16485357Y47300354D01*
X16485356Y47300354D01*
X16369523Y47211472D01*
X16311285Y47135574D01*
X16253947Y47093707D01*
X16183076Y47089485D01*
X16163109Y47095868D01*
X16147754Y47102228D01*
X16147752Y47102229D01*
X16003000Y47121285D01*
X15858247Y47102229D01*
X15790802Y47074292D01*
X15723358Y47046355D01*
X15723357Y47046354D01*
X15723356Y47046354D01*
X15607526Y46957474D01*
X15518646Y46841644D01*
X15518645Y46841642D01*
X15504065Y46806442D01*
X15462771Y46706753D01*
X15443715Y46562001D01*
X15443715Y46562000D01*
X14640565Y46562000D01*
X14638228Y46579754D01*
X14582355Y46714642D01*
X14493474Y46830474D01*
X14493472Y46830476D01*
X14493471Y46830477D01*
X14377649Y46919351D01*
X14377641Y46919356D01*
X14242752Y46975229D01*
X14098000Y46994285D01*
X13953247Y46975229D01*
X13910384Y46957474D01*
X13818358Y46919355D01*
X13818357Y46919354D01*
X13818356Y46919354D01*
X13702526Y46830474D01*
X13613646Y46714644D01*
X13613645Y46714642D01*
X13592533Y46663674D01*
X13557771Y46579753D01*
X13542526Y46463950D01*
X13513803Y46399022D01*
X13454538Y46359931D01*
X13434050Y46355474D01*
X13318247Y46340229D01*
X13250802Y46312292D01*
X13183358Y46284355D01*
X13183357Y46284354D01*
X13183356Y46284354D01*
X13067526Y46195474D01*
X12978646Y46079644D01*
X12978645Y46079642D01*
X12958229Y46030354D01*
X12922771Y45944753D01*
X12903715Y45800001D01*
X12903715Y45800000D01*
X3440059Y45800000D01*
X3448399Y45889996D01*
X3448399Y45890005D01*
X3430826Y46079644D01*
X3428845Y46101018D01*
X3370850Y46304850D01*
X3276389Y46494554D01*
X3225456Y46562000D01*
X11633715Y46562000D01*
X11652771Y46417248D01*
X11708644Y46282359D01*
X11708649Y46282351D01*
X11797525Y46166526D01*
X11910753Y46079643D01*
X11913357Y46077645D01*
X12048246Y46021772D01*
X12193000Y46002715D01*
X12337754Y46021772D01*
X12472643Y46077645D01*
X12588474Y46166526D01*
X12677355Y46282357D01*
X12733228Y46417246D01*
X12752285Y46562000D01*
X12733228Y46706754D01*
X12677355Y46841642D01*
X12588474Y46957474D01*
X12588472Y46957476D01*
X12588471Y46957477D01*
X12472649Y47046351D01*
X12472641Y47046356D01*
X12337752Y47102229D01*
X12193000Y47121285D01*
X12048247Y47102229D01*
X11980802Y47074292D01*
X11913358Y47046355D01*
X11913357Y47046354D01*
X11913356Y47046354D01*
X11797526Y46957474D01*
X11708646Y46841644D01*
X11708645Y46841642D01*
X11694065Y46806442D01*
X11652771Y46706753D01*
X11633715Y46562001D01*
X11633715Y46562000D01*
X3225456Y46562000D01*
X3148677Y46663671D01*
X3148675Y46663674D01*
X2992066Y46806442D01*
X2811891Y46918002D01*
X2811886Y46918004D01*
X2811885Y46918005D01*
X2709996Y46957477D01*
X2614277Y46994559D01*
X2614278Y46994559D01*
X2614275Y46994560D01*
X2614274Y46994560D01*
X2405961Y47033500D01*
X2194039Y47033500D01*
X1985726Y46994560D01*
X1985721Y46994559D01*
X1788119Y46918007D01*
X1788108Y46918002D01*
X1607933Y46806442D01*
X1451324Y46663674D01*
X1323612Y46494556D01*
X1229150Y46304850D01*
X1229147Y46304842D01*
X1171154Y46101017D01*
X1151601Y45890005D01*
X1151601Y45889996D01*
X381500Y45889996D01*
X381500Y48429996D01*
X1151601Y48429996D01*
X1171154Y48218984D01*
X1225620Y48027554D01*
X1229150Y48015150D01*
X1323611Y47825446D01*
X1323612Y47825445D01*
X1451324Y47656327D01*
X1607933Y47513559D01*
X1788108Y47401999D01*
X1788110Y47401999D01*
X1788115Y47401995D01*
X1985726Y47325440D01*
X2194039Y47286500D01*
X2194041Y47286500D01*
X2405959Y47286500D01*
X2405961Y47286500D01*
X2614274Y47325440D01*
X2811885Y47401995D01*
X2992065Y47513558D01*
X3090352Y47603159D01*
X3148675Y47656327D01*
X3148677Y47656329D01*
X3276389Y47825446D01*
X3304948Y47882800D01*
X17450315Y47882800D01*
X17469371Y47738048D01*
X17525244Y47603159D01*
X17525249Y47603151D01*
X17614125Y47487326D01*
X17729950Y47398450D01*
X17729957Y47398445D01*
X17864846Y47342572D01*
X18009600Y47323515D01*
X18154354Y47342572D01*
X18289243Y47398445D01*
X18405074Y47487326D01*
X18416406Y47502095D01*
X18473739Y47543963D01*
X18544610Y47548189D01*
X18564580Y47541806D01*
X18677646Y47494972D01*
X18822400Y47475915D01*
X18967154Y47494972D01*
X19102043Y47550845D01*
X19217874Y47639726D01*
X19306755Y47755557D01*
X19362628Y47890446D01*
X19381685Y48035200D01*
X19362628Y48179954D01*
X19306755Y48314842D01*
X19218391Y48430000D01*
X26306240Y48430000D01*
X26325250Y48200588D01*
X26381756Y47977451D01*
X26381759Y47977444D01*
X26474220Y47766654D01*
X26474222Y47766651D01*
X26556760Y47640315D01*
X27216922Y48300477D01*
X27240507Y48220156D01*
X27318239Y48099202D01*
X27426900Y48005048D01*
X27557685Y47945320D01*
X27567466Y47943914D01*
X26909039Y47285487D01*
X26937680Y47263195D01*
X26937687Y47263190D01*
X27140133Y47153633D01*
X27140131Y47153633D01*
X27164336Y47145324D01*
X27222272Y47104288D01*
X27248825Y47038444D01*
X27235565Y46968697D01*
X27189757Y46919023D01*
X27007934Y46806442D01*
X26851324Y46663674D01*
X26723612Y46494556D01*
X26629150Y46304850D01*
X26629147Y46304842D01*
X26571154Y46101017D01*
X26551601Y45890005D01*
X26551601Y45889996D01*
X26571154Y45678984D01*
X26616287Y45520357D01*
X26629150Y45475150D01*
X26723611Y45285446D01*
X26765017Y45230616D01*
X26851324Y45116327D01*
X27007933Y44973559D01*
X27188108Y44861999D01*
X27188110Y44861999D01*
X27188115Y44861995D01*
X27385726Y44785440D01*
X27594039Y44746500D01*
X27594041Y44746500D01*
X27805959Y44746500D01*
X27805961Y44746500D01*
X28014274Y44785440D01*
X28211885Y44861995D01*
X28392065Y44973558D01*
X28548677Y45116329D01*
X28676389Y45285446D01*
X28770850Y45475150D01*
X28828845Y45678982D01*
X28835363Y45749322D01*
X28848399Y45889996D01*
X28848399Y45890005D01*
X28830826Y46079644D01*
X28828845Y46101018D01*
X28770850Y46304850D01*
X28676389Y46494554D01*
X28548677Y46663671D01*
X28548675Y46663674D01*
X28392066Y46806442D01*
X28210242Y46919023D01*
X28162855Y46971890D01*
X28151572Y47041984D01*
X28179976Y47107051D01*
X28235665Y47145324D01*
X28259861Y47153630D01*
X28259866Y47153632D01*
X28462313Y47263191D01*
X28462322Y47263197D01*
X28490959Y47285487D01*
X28490959Y47285489D01*
X27832534Y47943914D01*
X27842315Y47945320D01*
X27973100Y48005048D01*
X28081761Y48099202D01*
X28159493Y48220156D01*
X28183076Y48300477D01*
X28843239Y47640315D01*
X28925776Y47766648D01*
X29018240Y47977444D01*
X29018243Y47977451D01*
X29074749Y48200588D01*
X29093759Y48430000D01*
X29074749Y48659413D01*
X29018243Y48882550D01*
X29018240Y48882557D01*
X28925775Y49093356D01*
X28843238Y49219687D01*
X28183076Y48559526D01*
X28159493Y48639844D01*
X28081761Y48760798D01*
X27973100Y48854952D01*
X27842315Y48914680D01*
X27832533Y48916087D01*
X28490960Y49574514D01*
X28462311Y49596811D01*
X28259866Y49706368D01*
X28259864Y49706370D01*
X28235661Y49714678D01*
X28177726Y49755715D01*
X28151174Y49821560D01*
X28164435Y49891307D01*
X28210243Y49940978D01*
X28392063Y50053557D01*
X28392062Y50053557D01*
X28392065Y50053558D01*
X28548227Y50195919D01*
X28548675Y50196327D01*
X28548677Y50196329D01*
X28676389Y50365446D01*
X28770850Y50555150D01*
X28828845Y50758982D01*
X28840059Y50880000D01*
X28848399Y50969996D01*
X28848399Y50970005D01*
X28828845Y51181017D01*
X28813383Y51235359D01*
X28770850Y51384850D01*
X28676389Y51574554D01*
X28548677Y51743671D01*
X28548675Y51743674D01*
X28392066Y51886442D01*
X28211891Y51998002D01*
X28211886Y51998004D01*
X28211885Y51998005D01*
X28014277Y52074559D01*
X28014278Y52074559D01*
X28014275Y52074560D01*
X28014274Y52074560D01*
X27805961Y52113500D01*
X27594039Y52113500D01*
X27385726Y52074560D01*
X27385721Y52074559D01*
X27188119Y51998007D01*
X27188108Y51998002D01*
X27007933Y51886442D01*
X26851324Y51743674D01*
X26723612Y51574556D01*
X26629150Y51384850D01*
X26629147Y51384842D01*
X26571154Y51181017D01*
X26551601Y50970005D01*
X26551601Y50969996D01*
X26571154Y50758984D01*
X26584793Y50711046D01*
X26629150Y50555150D01*
X26723611Y50365446D01*
X26723612Y50365445D01*
X26851324Y50196327D01*
X27007933Y50053559D01*
X27189757Y49940978D01*
X27237144Y49888111D01*
X27248427Y49818017D01*
X27220023Y49752950D01*
X27164339Y49714678D01*
X27140133Y49706368D01*
X26937687Y49596811D01*
X26909039Y49574515D01*
X26909039Y49574513D01*
X27567465Y48916087D01*
X27557685Y48914680D01*
X27426900Y48854952D01*
X27318239Y48760798D01*
X27240507Y48639844D01*
X27216923Y48559525D01*
X26556760Y49219688D01*
X26556759Y49219687D01*
X26474229Y49093365D01*
X26474222Y49093351D01*
X26381759Y48882557D01*
X26381756Y48882550D01*
X26325250Y48659413D01*
X26306240Y48430000D01*
X19218391Y48430000D01*
X19217874Y48430674D01*
X19217872Y48430676D01*
X19217871Y48430677D01*
X19102049Y48519551D01*
X19102041Y48519556D01*
X18967152Y48575429D01*
X18822400Y48594485D01*
X18677647Y48575429D01*
X18610202Y48547492D01*
X18542758Y48519555D01*
X18542757Y48519554D01*
X18542756Y48519554D01*
X18426925Y48430674D01*
X18415588Y48415899D01*
X18358248Y48374034D01*
X18287377Y48369815D01*
X18267415Y48376197D01*
X18154354Y48423028D01*
X18154352Y48423029D01*
X18009600Y48442085D01*
X17864847Y48423029D01*
X17797402Y48395092D01*
X17729958Y48367155D01*
X17729957Y48367154D01*
X17729956Y48367154D01*
X17614126Y48278274D01*
X17525246Y48162444D01*
X17525245Y48162442D01*
X17499050Y48099202D01*
X17469371Y48027553D01*
X17450315Y47882801D01*
X17450315Y47882800D01*
X3304948Y47882800D01*
X3370850Y48015150D01*
X3428845Y48218982D01*
X3438595Y48324199D01*
X3448399Y48429996D01*
X3448399Y48430005D01*
X3428845Y48641017D01*
X3394764Y48760798D01*
X3370850Y48844850D01*
X3276389Y49034554D01*
X3225456Y49102000D01*
X7188715Y49102000D01*
X7207771Y48957248D01*
X7263644Y48822359D01*
X7263649Y48822351D01*
X7352525Y48706526D01*
X7468350Y48617650D01*
X7468357Y48617645D01*
X7603246Y48561772D01*
X7748000Y48542715D01*
X7892754Y48561772D01*
X8027643Y48617645D01*
X8143474Y48706526D01*
X8232355Y48822357D01*
X8288228Y48957246D01*
X8307285Y49102000D01*
X8288228Y49246754D01*
X8232355Y49381642D01*
X8143474Y49497474D01*
X8143472Y49497476D01*
X8143471Y49497477D01*
X8027649Y49586351D01*
X8027641Y49586356D01*
X7892752Y49642229D01*
X7748000Y49661285D01*
X7603247Y49642229D01*
X7535802Y49614292D01*
X7468358Y49586355D01*
X7468357Y49586354D01*
X7468356Y49586354D01*
X7352526Y49497474D01*
X7263646Y49381644D01*
X7263645Y49381642D01*
X7249065Y49346442D01*
X7207771Y49246753D01*
X7188715Y49102001D01*
X7188715Y49102000D01*
X3225456Y49102000D01*
X3148677Y49203671D01*
X3148675Y49203674D01*
X2992066Y49346442D01*
X2811891Y49458002D01*
X2811886Y49458004D01*
X2811885Y49458005D01*
X2614277Y49534559D01*
X2614278Y49534559D01*
X2614275Y49534560D01*
X2614274Y49534560D01*
X2405961Y49573500D01*
X2194039Y49573500D01*
X1985726Y49534560D01*
X1985721Y49534559D01*
X1788119Y49458007D01*
X1788108Y49458002D01*
X1607933Y49346442D01*
X1451324Y49203674D01*
X1323612Y49034556D01*
X1229150Y48844850D01*
X1229147Y48844842D01*
X1171154Y48641017D01*
X1151601Y48430005D01*
X1151601Y48429996D01*
X381500Y48429996D01*
X381500Y50969996D01*
X1151601Y50969996D01*
X1171154Y50758984D01*
X1184793Y50711046D01*
X1229150Y50555150D01*
X1323611Y50365446D01*
X1323612Y50365445D01*
X1451324Y50196327D01*
X1607933Y50053559D01*
X1788108Y49941999D01*
X1788110Y49941999D01*
X1788115Y49941995D01*
X1985726Y49865440D01*
X2194039Y49826500D01*
X2194041Y49826500D01*
X2405959Y49826500D01*
X2405961Y49826500D01*
X2614274Y49865440D01*
X2811885Y49941995D01*
X2992065Y50053558D01*
X3148227Y50195919D01*
X3148675Y50196327D01*
X3148677Y50196329D01*
X3276389Y50365446D01*
X3370850Y50555150D01*
X3428845Y50758982D01*
X3440059Y50880000D01*
X6861726Y50880000D01*
X6880763Y50711046D01*
X6880764Y50711044D01*
X6936918Y50550563D01*
X6936919Y50550561D01*
X7027375Y50406601D01*
X7027377Y50406598D01*
X7147597Y50286378D01*
X7147600Y50286376D01*
X7291563Y50195918D01*
X7452046Y50139763D01*
X7621000Y50120726D01*
X7789954Y50139763D01*
X7950437Y50195918D01*
X8094400Y50286376D01*
X8214624Y50406600D01*
X8305082Y50550563D01*
X8361237Y50711046D01*
X8380274Y50880000D01*
X8361237Y51048954D01*
X8305082Y51209437D01*
X8214624Y51353400D01*
X8205620Y51362404D01*
X8171594Y51424712D01*
X8176657Y51495528D01*
X8189170Y51515000D01*
X9728715Y51515000D01*
X9747771Y51370248D01*
X9803644Y51235359D01*
X9803649Y51235351D01*
X9892525Y51119526D01*
X9984496Y51048954D01*
X10008357Y51030645D01*
X10143246Y50974772D01*
X10288000Y50955715D01*
X10432754Y50974772D01*
X10567643Y51030645D01*
X10683474Y51119526D01*
X10772355Y51235357D01*
X10828228Y51370246D01*
X10847285Y51515000D01*
X10842729Y51549603D01*
X10828228Y51659753D01*
X10828228Y51659754D01*
X10772355Y51794642D01*
X10683474Y51910474D01*
X10683472Y51910476D01*
X10683471Y51910477D01*
X10567649Y51999351D01*
X10567641Y51999356D01*
X10432752Y52055229D01*
X10288000Y52074285D01*
X10143247Y52055229D01*
X10075802Y52027292D01*
X10008358Y51999355D01*
X10008357Y51999354D01*
X10008356Y51999354D01*
X9892526Y51910474D01*
X9803646Y51794644D01*
X9803645Y51794642D01*
X9802820Y51792650D01*
X9747771Y51659753D01*
X9728715Y51515001D01*
X9728715Y51515000D01*
X8189170Y51515000D01*
X8205620Y51540597D01*
X8214624Y51549600D01*
X8305082Y51693563D01*
X8361237Y51854046D01*
X8380274Y52023000D01*
X8361237Y52191954D01*
X8331478Y52277000D01*
X18237715Y52277000D01*
X18256771Y52132248D01*
X18312644Y51997359D01*
X18312649Y51997351D01*
X18401525Y51881526D01*
X18514753Y51794643D01*
X18517357Y51792645D01*
X18652246Y51736772D01*
X18797000Y51717715D01*
X18941754Y51736772D01*
X18970422Y51748648D01*
X19041011Y51756237D01*
X19104499Y51724459D01*
X19125328Y51699275D01*
X19219375Y51549601D01*
X19219377Y51549598D01*
X19339597Y51429378D01*
X19339600Y51429376D01*
X19483563Y51338918D01*
X19644046Y51282763D01*
X19813000Y51263726D01*
X19981954Y51282763D01*
X20142437Y51338918D01*
X20286400Y51429376D01*
X20406624Y51549600D01*
X20497082Y51693563D01*
X20553237Y51854046D01*
X20572274Y52023000D01*
X20553237Y52191954D01*
X20497082Y52352437D01*
X20406624Y52496400D01*
X20406622Y52496403D01*
X20286402Y52616623D01*
X20286399Y52616625D01*
X20142439Y52707081D01*
X20142437Y52707082D01*
X20058853Y52736329D01*
X19981954Y52763237D01*
X19813000Y52782274D01*
X19644046Y52763237D01*
X19644043Y52763237D01*
X19644043Y52763236D01*
X19483562Y52707082D01*
X19366397Y52633463D01*
X19298076Y52614158D01*
X19230163Y52634854D01*
X19199401Y52663446D01*
X19192474Y52672474D01*
X19192470Y52672477D01*
X19192469Y52672479D01*
X19076649Y52761351D01*
X19076641Y52761356D01*
X18941752Y52817229D01*
X18797000Y52836285D01*
X18652247Y52817229D01*
X18584802Y52789292D01*
X18517358Y52761355D01*
X18517357Y52761354D01*
X18517356Y52761354D01*
X18401526Y52672474D01*
X18312646Y52556644D01*
X18312645Y52556642D01*
X18291403Y52505359D01*
X18256771Y52421753D01*
X18237715Y52277001D01*
X18237715Y52277000D01*
X8331478Y52277000D01*
X8305082Y52352437D01*
X8214624Y52496400D01*
X8214622Y52496403D01*
X8094402Y52616623D01*
X8094399Y52616625D01*
X7950439Y52707081D01*
X7950437Y52707082D01*
X7866853Y52736329D01*
X7789954Y52763237D01*
X7621000Y52782274D01*
X7452046Y52763237D01*
X7452043Y52763237D01*
X7452043Y52763236D01*
X7291562Y52707082D01*
X7291560Y52707081D01*
X7147600Y52616625D01*
X7147597Y52616623D01*
X7027377Y52496403D01*
X7027375Y52496400D01*
X6936919Y52352440D01*
X6936918Y52352438D01*
X6899245Y52244772D01*
X6880763Y52191954D01*
X6861726Y52023000D01*
X6880763Y51854046D01*
X6919384Y51743674D01*
X6936918Y51693563D01*
X6936919Y51693561D01*
X7027375Y51549601D01*
X7027377Y51549598D01*
X7036380Y51540595D01*
X7070406Y51478283D01*
X7065341Y51407468D01*
X7036380Y51362405D01*
X7027377Y51353403D01*
X7027375Y51353400D01*
X6936919Y51209440D01*
X6936918Y51209438D01*
X6936918Y51209437D01*
X6880763Y51048954D01*
X6861726Y50880000D01*
X3440059Y50880000D01*
X3448399Y50969996D01*
X3448399Y50970005D01*
X3428845Y51181017D01*
X3413383Y51235359D01*
X3370850Y51384850D01*
X3276389Y51574554D01*
X3148677Y51743671D01*
X3148675Y51743674D01*
X2992066Y51886442D01*
X2811891Y51998002D01*
X2811886Y51998004D01*
X2811885Y51998005D01*
X2614277Y52074559D01*
X2614278Y52074559D01*
X2614275Y52074560D01*
X2614274Y52074560D01*
X2405961Y52113500D01*
X2194039Y52113500D01*
X1985726Y52074560D01*
X1985721Y52074559D01*
X1788119Y51998007D01*
X1788108Y51998002D01*
X1607933Y51886442D01*
X1451324Y51743674D01*
X1323612Y51574556D01*
X1229150Y51384850D01*
X1229147Y51384842D01*
X1171154Y51181017D01*
X1151601Y50970005D01*
X1151601Y50969996D01*
X381500Y50969996D01*
X381500Y53509996D01*
X1151601Y53509996D01*
X1171154Y53298984D01*
X1215635Y53142648D01*
X1229150Y53095150D01*
X1323611Y52905446D01*
X1323612Y52905445D01*
X1451324Y52736327D01*
X1607933Y52593559D01*
X1788108Y52481999D01*
X1788110Y52481999D01*
X1788115Y52481995D01*
X1985726Y52405440D01*
X2194039Y52366500D01*
X2194041Y52366500D01*
X2405959Y52366500D01*
X2405961Y52366500D01*
X2614274Y52405440D01*
X2811885Y52481995D01*
X2992065Y52593558D01*
X3148677Y52736329D01*
X3276389Y52905446D01*
X3370850Y53095150D01*
X3428845Y53298982D01*
X3448399Y53510000D01*
X3446615Y53529248D01*
X3433202Y53674000D01*
X23123001Y53674000D01*
X23142057Y53529248D01*
X23197930Y53394359D01*
X23197935Y53394351D01*
X23286812Y53278525D01*
X23289562Y53275775D01*
X23291140Y53272885D01*
X23291839Y53271974D01*
X23291697Y53271866D01*
X23323588Y53213463D01*
X23318523Y53142648D01*
X23300431Y53109978D01*
X23265649Y53064648D01*
X23265646Y53064645D01*
X23265645Y53064642D01*
X23237708Y52997198D01*
X23209771Y52929753D01*
X23190715Y52785001D01*
X23190715Y52785000D01*
X23209771Y52640248D01*
X23265644Y52505359D01*
X23265649Y52505351D01*
X23354525Y52389526D01*
X23470350Y52300650D01*
X23470357Y52300645D01*
X23605246Y52244772D01*
X23750000Y52225715D01*
X23894754Y52244772D01*
X24029643Y52300645D01*
X24145474Y52389526D01*
X24234355Y52505357D01*
X24290228Y52640246D01*
X24309285Y52785000D01*
X24290228Y52929754D01*
X24234355Y53064642D01*
X24145474Y53180474D01*
X24145472Y53180476D01*
X24145468Y53180481D01*
X24142723Y53183226D01*
X24141146Y53186114D01*
X24140446Y53187026D01*
X24140588Y53187136D01*
X24108697Y53245538D01*
X24113762Y53316353D01*
X24131853Y53349022D01*
X24166641Y53394357D01*
X24222514Y53529246D01*
X24241571Y53674000D01*
X24222514Y53818754D01*
X24166641Y53953642D01*
X24077760Y54069474D01*
X24077758Y54069476D01*
X24077757Y54069477D01*
X23961935Y54158351D01*
X23961927Y54158356D01*
X23827038Y54214229D01*
X23682286Y54233285D01*
X23537533Y54214229D01*
X23470088Y54186292D01*
X23402644Y54158355D01*
X23402643Y54158354D01*
X23402642Y54158354D01*
X23286812Y54069474D01*
X23197932Y53953644D01*
X23197931Y53953642D01*
X23186005Y53924850D01*
X23142057Y53818753D01*
X23123001Y53674001D01*
X23123001Y53674000D01*
X3433202Y53674000D01*
X3428845Y53721017D01*
X3370852Y53924842D01*
X3370850Y53924850D01*
X3276389Y54114554D01*
X3148677Y54283671D01*
X3148675Y54283674D01*
X2992066Y54426442D01*
X2811891Y54538002D01*
X2811886Y54538004D01*
X2811885Y54538005D01*
X2614277Y54614559D01*
X2614278Y54614559D01*
X2614275Y54614560D01*
X2614274Y54614560D01*
X2405961Y54653500D01*
X2194039Y54653500D01*
X1985726Y54614560D01*
X1985721Y54614559D01*
X1788119Y54538007D01*
X1788108Y54538002D01*
X1607933Y54426442D01*
X1451324Y54283674D01*
X1323612Y54114556D01*
X1229150Y53924850D01*
X1229147Y53924842D01*
X1171154Y53721017D01*
X1151601Y53510005D01*
X1151601Y53509996D01*
X381500Y53509996D01*
X381500Y56049996D01*
X1151601Y56049996D01*
X1171154Y55838984D01*
X1215718Y55682356D01*
X1229150Y55635150D01*
X1323611Y55445446D01*
X1323612Y55445445D01*
X1451324Y55276327D01*
X1607933Y55133559D01*
X1788108Y55021999D01*
X1788110Y55021999D01*
X1788115Y55021995D01*
X1985726Y54945440D01*
X2194039Y54906500D01*
X2194041Y54906500D01*
X2405959Y54906500D01*
X2405961Y54906500D01*
X2614274Y54945440D01*
X2811885Y55021995D01*
X2992065Y55133558D01*
X3062754Y55198000D01*
X4140715Y55198000D01*
X4159771Y55053248D01*
X4215644Y54918359D01*
X4215649Y54918351D01*
X4304525Y54802526D01*
X4420350Y54713650D01*
X4420357Y54713645D01*
X4555246Y54657772D01*
X4700000Y54638715D01*
X4844754Y54657772D01*
X4979643Y54713645D01*
X5095474Y54802526D01*
X5184355Y54918357D01*
X5240228Y55053246D01*
X5259285Y55198000D01*
X5240228Y55342754D01*
X5184355Y55477642D01*
X5095474Y55593474D01*
X5095472Y55593476D01*
X5095471Y55593477D01*
X4979649Y55682351D01*
X4979641Y55682356D01*
X4844752Y55738229D01*
X4700000Y55757285D01*
X4555247Y55738229D01*
X4487802Y55710292D01*
X4420358Y55682355D01*
X4420357Y55682354D01*
X4420356Y55682354D01*
X4304526Y55593474D01*
X4215646Y55477644D01*
X4215645Y55477642D01*
X4187708Y55410198D01*
X4159771Y55342753D01*
X4140715Y55198001D01*
X4140715Y55198000D01*
X3062754Y55198000D01*
X3148677Y55276329D01*
X3276389Y55445446D01*
X3370850Y55635150D01*
X3428845Y55838982D01*
X3439463Y55953566D01*
X3448399Y56049996D01*
X3448399Y56050005D01*
X3428845Y56261017D01*
X3418025Y56299044D01*
X3370850Y56464850D01*
X3276389Y56654554D01*
X3168488Y56797437D01*
X3148675Y56823674D01*
X2992066Y56966442D01*
X2811891Y57078002D01*
X2811886Y57078004D01*
X2811885Y57078005D01*
X2747366Y57103000D01*
X2614277Y57154559D01*
X2614278Y57154559D01*
X2614275Y57154560D01*
X2614274Y57154560D01*
X2405961Y57193500D01*
X2194039Y57193500D01*
X1985726Y57154560D01*
X1985721Y57154559D01*
X1788119Y57078007D01*
X1788108Y57078002D01*
X1607933Y56966442D01*
X1451324Y56823674D01*
X1323612Y56654556D01*
X1229150Y56464850D01*
X1229147Y56464842D01*
X1171154Y56261017D01*
X1151601Y56050005D01*
X1151601Y56049996D01*
X381500Y56049996D01*
X381500Y58589996D01*
X1151601Y58589996D01*
X1171154Y58378984D01*
X1184629Y58331623D01*
X1229150Y58175150D01*
X1323611Y57985446D01*
X1323612Y57985445D01*
X1451324Y57816327D01*
X1607933Y57673559D01*
X1788108Y57561999D01*
X1788110Y57561999D01*
X1788115Y57561995D01*
X1985726Y57485440D01*
X2194039Y57446500D01*
X2194041Y57446500D01*
X2405959Y57446500D01*
X2405961Y57446500D01*
X2614274Y57485440D01*
X2811885Y57561995D01*
X2992065Y57673558D01*
X3148677Y57816329D01*
X3276389Y57985446D01*
X3370850Y58175150D01*
X3428845Y58378982D01*
X3438042Y58478236D01*
X3448399Y58589996D01*
X3448399Y58590005D01*
X3428845Y58801017D01*
X3370852Y59004842D01*
X3370850Y59004850D01*
X3276389Y59194554D01*
X3148677Y59363671D01*
X3148675Y59363674D01*
X2992066Y59506442D01*
X2811891Y59618002D01*
X2811886Y59618004D01*
X2811885Y59618005D01*
X2614277Y59694559D01*
X2614278Y59694559D01*
X2614275Y59694560D01*
X2614274Y59694560D01*
X2405961Y59733500D01*
X2194039Y59733500D01*
X1985726Y59694560D01*
X1985721Y59694559D01*
X1788119Y59618007D01*
X1788108Y59618002D01*
X1607933Y59506442D01*
X1451324Y59363674D01*
X1323612Y59194556D01*
X1229150Y59004850D01*
X1229147Y59004842D01*
X1171154Y58801017D01*
X1151601Y58590005D01*
X1151601Y58589996D01*
X381500Y58589996D01*
X381500Y61129996D01*
X1151601Y61129996D01*
X1171154Y60918984D01*
X1213109Y60771526D01*
X1229150Y60715150D01*
X1323611Y60525446D01*
X1335097Y60510236D01*
X1451324Y60356327D01*
X1607933Y60213559D01*
X1788108Y60101999D01*
X1788110Y60101999D01*
X1788115Y60101995D01*
X1985726Y60025440D01*
X2194039Y59986500D01*
X2194041Y59986500D01*
X2405959Y59986500D01*
X2405961Y59986500D01*
X2614274Y60025440D01*
X2811885Y60101995D01*
X2992065Y60213558D01*
X3097305Y60309497D01*
X3148675Y60356327D01*
X3154185Y60363623D01*
X3276389Y60525446D01*
X3370850Y60715150D01*
X3428845Y60918982D01*
X3448399Y61130000D01*
X3444970Y61167000D01*
X3428845Y61341017D01*
X3420937Y61368810D01*
X3370850Y61544850D01*
X3276389Y61734554D01*
X3148677Y61903671D01*
X3148675Y61903674D01*
X2992066Y62046442D01*
X2811891Y62158002D01*
X2811886Y62158004D01*
X2811885Y62158005D01*
X2614277Y62234559D01*
X2614278Y62234559D01*
X2614275Y62234560D01*
X2614274Y62234560D01*
X2405961Y62273500D01*
X2194039Y62273500D01*
X1985726Y62234560D01*
X1985721Y62234559D01*
X1788119Y62158007D01*
X1788108Y62158002D01*
X1607933Y62046442D01*
X1451324Y61903674D01*
X1323612Y61734556D01*
X1229150Y61544850D01*
X1229147Y61544842D01*
X1171154Y61341017D01*
X1151601Y61130005D01*
X1151601Y61129996D01*
X381500Y61129996D01*
X381500Y66451017D01*
X401502Y66519138D01*
X455158Y66565631D01*
X525432Y66575735D01*
X590012Y66546241D01*
G37*
%TD.AperFunction*%
M02*
