%TF.GenerationSoftware,KiCad,Pcbnew,10.0.1*%
%TF.CreationDate,2026-06-07T13:53:24+09:00*%
%TF.ProjectId,reband,72656261-6e64-42e6-9b69-6361645f7063,rev?*%
%TF.SameCoordinates,Original*%
%TF.FileFunction,Copper,L3,Inr*%
%TF.FilePolarity,Positive*%
%FSLAX46Y46*%
G04 Gerber Fmt 4.6, Leading zero omitted, Abs format (unit mm)*
G04 Created by KiCad (PCBNEW 10.0.1) date 2026-06-07 13:53:24*
%MOMM*%
%LPD*%
G01*
G04 APERTURE LIST*
%TA.AperFunction,ComponentPad*%
%ADD10O,1.908000X1.108000*%
%TD*%
%TA.AperFunction,ComponentPad*%
%ADD11O,2.308000X1.108000*%
%TD*%
%TA.AperFunction,ComponentPad*%
%ADD12R,0.850000X0.850000*%
%TD*%
%TA.AperFunction,ComponentPad*%
%ADD13C,0.850000*%
%TD*%
%TA.AperFunction,ComponentPad*%
%ADD14C,1.244600*%
%TD*%
%TA.AperFunction,ViaPad*%
%ADD15C,0.380000*%
%TD*%
%TA.AperFunction,ViaPad*%
%ADD16C,0.600000*%
%TD*%
%TA.AperFunction,Conductor*%
%ADD17C,0.400000*%
%TD*%
%TA.AperFunction,Conductor*%
%ADD18C,0.150000*%
%TD*%
%TA.AperFunction,Conductor*%
%ADD19C,0.500000*%
%TD*%
%TA.AperFunction,Conductor*%
%ADD20C,0.200000*%
%TD*%
G04 APERTURE END LIST*
D10*
%TO.N,GND*%
%TO.C,J2*%
X132818998Y-85221598D03*
D11*
X128818955Y-85221568D03*
X128818955Y-93861632D03*
D10*
X132818998Y-93861602D03*
%TD*%
D12*
%TO.N,/RST*%
%TO.C,J5*%
X138217400Y-103457600D03*
D13*
%TO.N,GND*%
X139217400Y-103457600D03*
%TD*%
D14*
%TO.N,Net-(U2-IN)*%
%TO.C,J1*%
X142063700Y-101283200D03*
%TO.N,GND*%
X142063700Y-99783199D03*
%TD*%
D15*
%TO.N,GND*%
X144780000Y-82905600D03*
X132537200Y-84074000D03*
X144780000Y-80391000D03*
D16*
X147624800Y-80213200D03*
D15*
X145897600Y-84861400D03*
D16*
X131572000Y-83058000D03*
X128371600Y-92557600D03*
D15*
X144678400Y-79756000D03*
D16*
X142163800Y-81483200D03*
X142748000Y-79654400D03*
X145211800Y-89103200D03*
D15*
X144780000Y-81661000D03*
X146304000Y-81026000D03*
D16*
X133616700Y-79984600D03*
X143665000Y-88233000D03*
D15*
X146304000Y-82296000D03*
X144780000Y-84328000D03*
X144145000Y-96139000D03*
X145897600Y-84302600D03*
D16*
X139141200Y-82346800D03*
X144500600Y-89077800D03*
X131064000Y-91389200D03*
D15*
X142951200Y-94691200D03*
D16*
X128574800Y-95758000D03*
D15*
X146304000Y-81661000D03*
X135154000Y-90109000D03*
D16*
X143662400Y-89077800D03*
X130657600Y-89001600D03*
X144500600Y-88239600D03*
X145186400Y-86715600D03*
X143332200Y-97104200D03*
D15*
X133540500Y-78689200D03*
D16*
X130657600Y-87985600D03*
D15*
X144272000Y-79375000D03*
D16*
X148793200Y-79654400D03*
D15*
X146304000Y-80391000D03*
X144780000Y-83531200D03*
X144780000Y-81026000D03*
D16*
X151384000Y-86055200D03*
X128828800Y-83947000D03*
D15*
X144780000Y-82296000D03*
D16*
X145186400Y-88239600D03*
D15*
X135623300Y-78790800D03*
X143891000Y-78994000D03*
D16*
X144500600Y-86715600D03*
X143560800Y-81026000D03*
X149910800Y-91592400D03*
D15*
X135051800Y-87960200D03*
D16*
%TO.N,+5V*%
X139293600Y-83667600D03*
X134950200Y-84861400D03*
X134670800Y-91948000D03*
%TO.N,/USB_D+*%
X132029200Y-90271600D03*
X134823200Y-89306400D03*
%TO.N,/USB_D-*%
X134518400Y-90678000D03*
%TO.N,Net-(C10-Pad1)*%
X147167600Y-98145600D03*
D15*
%TO.N,/GPIO8*%
X148361400Y-91668600D03*
X139639800Y-88925400D03*
%TO.N,+3.3V*%
X141007094Y-91787999D03*
X134670800Y-97256600D03*
X140369800Y-87477600D03*
D16*
X139801600Y-82956400D03*
D15*
X146964400Y-86614000D03*
X137947400Y-88417400D03*
X132791200Y-99305300D03*
X144119600Y-84658200D03*
X140055600Y-80213200D03*
X137160000Y-97383600D03*
D16*
%TO.N,/RST*%
X131622800Y-77724000D03*
X136525000Y-99999800D03*
D15*
X142417800Y-84759800D03*
X139331700Y-77317600D03*
%TO.N,+1V8*%
X138938000Y-95275400D03*
X139560300Y-78384400D03*
D16*
%TO.N,Net-(U2-IN)*%
X130302000Y-82092800D03*
D15*
X132689600Y-78536800D03*
X136067800Y-84328000D03*
%TO.N,Net-(U4-VSS)*%
X137464800Y-86563200D03*
X130810000Y-82829400D03*
%TO.N,/BOOT*%
X139725400Y-90373200D03*
X146888200Y-84201000D03*
%TO.N,/SDA*%
X142163800Y-95097600D03*
X143306800Y-84709000D03*
%TO.N,/SCL*%
X141401800Y-84556600D03*
X140004800Y-93675200D03*
X142290800Y-95707200D03*
%TO.N,/GSR_INT*%
X140766800Y-85623400D03*
X146380200Y-94589600D03*
%TO.N,/PPG_INT*%
X140487400Y-86995000D03*
X139115800Y-93675200D03*
X140360400Y-90551000D03*
%TO.N,/BNO_INT*%
X140436600Y-87985600D03*
X137922000Y-100279200D03*
%TO.N,/1.8V_CTRL*%
X137693400Y-82372200D03*
X139496800Y-88188800D03*
%TO.N,/D-*%
X146989800Y-90119200D03*
%TO.N,/D+*%
X146989800Y-89509600D03*
%TO.N,/Rx0*%
X147015200Y-89027000D03*
X145923000Y-98780600D03*
%TO.N,/Tx0*%
X144437100Y-98209100D03*
X147006200Y-88544400D03*
D16*
%TO.N,Net-(C11-Pad1)*%
X130048000Y-96824800D03*
X135305800Y-94437200D03*
D15*
%TO.N,Net-(U3-EL4)*%
X136601200Y-94386400D03*
X143027400Y-93599000D03*
%TO.N,Net-(U3-EL3A)*%
X137185400Y-93065600D03*
%TO.N,Net-(U3-VREF)*%
X137160000Y-96901000D03*
%TO.N,Net-(U4-ISET)*%
X137541000Y-84099400D03*
X135559800Y-82321400D03*
%TD*%
%TO.N,+5V*%
D17*
X137795000Y-85242400D02*
X137795000Y-85039200D01*
X137160000Y-85877400D02*
X137795000Y-85242400D01*
X134670800Y-91948000D02*
X133654800Y-91948000D01*
X134950200Y-84861400D02*
X135966200Y-85877400D01*
X135966200Y-85877400D02*
X137160000Y-85877400D01*
X137795000Y-85039200D02*
X139166600Y-83667600D01*
X139166600Y-83667600D02*
X139293600Y-83667600D01*
X133654800Y-91948000D02*
X133350000Y-91643200D01*
X133350000Y-91643200D02*
X133350000Y-86461600D01*
X133350000Y-86461600D02*
X134950200Y-84861400D01*
%TO.N,+3.3V*%
D18*
X137947400Y-88417400D02*
X137947400Y-88061800D01*
X138531600Y-87477600D02*
X140369800Y-87477600D01*
X137947400Y-88061800D02*
X138531600Y-87477600D01*
%TO.N,Net-(U2-IN)*%
D19*
X130708400Y-95656400D02*
X136335200Y-101283200D01*
X136335200Y-101283200D02*
X142063700Y-101283200D01*
X128778000Y-87426800D02*
X128371600Y-87833200D01*
X128371600Y-87833200D02*
X128371600Y-91363800D01*
X130810000Y-86487000D02*
X129870200Y-87426800D01*
X129870200Y-87426800D02*
X128778000Y-87426800D01*
X130708400Y-93700600D02*
X130708400Y-95656400D01*
X130835400Y-86487000D02*
X130810000Y-86487000D01*
X130835400Y-84353400D02*
X130835400Y-86487000D01*
X130302000Y-82092800D02*
X129819400Y-82575400D01*
X129819400Y-82575400D02*
X129819400Y-83337400D01*
X129819400Y-83337400D02*
X130835400Y-84353400D01*
X128371600Y-91363800D02*
X130708400Y-93700600D01*
%TO.N,/SDA*%
D20*
X142900400Y-85166200D02*
X143306800Y-84759800D01*
X140741400Y-92760800D02*
X142900400Y-90601800D01*
X142163800Y-95097600D02*
X140741400Y-93675200D01*
X140741400Y-93675200D02*
X140741400Y-92760800D01*
X143306800Y-84759800D02*
X143306800Y-84709000D01*
X142900400Y-90601800D02*
X142900400Y-85166200D01*
%TO.N,/SCL*%
X140004800Y-93675200D02*
X140004800Y-92024200D01*
X141960600Y-90068400D02*
X141960600Y-85115400D01*
X141960600Y-85115400D02*
X141401800Y-84556600D01*
X140004800Y-94132400D02*
X140004800Y-93675200D01*
X142290800Y-95707200D02*
X141579600Y-95707200D01*
X140004800Y-92024200D02*
X141960600Y-90068400D01*
X141579600Y-95707200D02*
X140004800Y-94132400D01*
%TO.N,/BNO_INT*%
D18*
X138303000Y-91084400D02*
X138303000Y-99898200D01*
X140258800Y-88163400D02*
X140258800Y-89128600D01*
X140436600Y-87985600D02*
X140258800Y-88163400D01*
X140258800Y-89128600D02*
X138303000Y-91084400D01*
X138303000Y-99898200D02*
X137922000Y-100279200D01*
%TO.N,/Rx0*%
D20*
X145923000Y-97688400D02*
X145923000Y-98780600D01*
X148056600Y-95554800D02*
X145923000Y-97688400D01*
X148056600Y-92227400D02*
X148056600Y-95554800D01*
X146405600Y-89306400D02*
X146405600Y-90576400D01*
X146685000Y-89027000D02*
X146405600Y-89306400D01*
X147015200Y-89027000D02*
X146685000Y-89027000D01*
X146405600Y-90576400D02*
X148056600Y-92227400D01*
%TO.N,/Tx0*%
X147599400Y-92557600D02*
X145897600Y-90855800D01*
X147599400Y-95046800D02*
X147599400Y-92557600D01*
X145897600Y-89124507D02*
X146477707Y-88544400D01*
X145897600Y-90855800D02*
X145897600Y-89124507D01*
X144437100Y-98209100D02*
X147599400Y-95046800D01*
X146477707Y-88544400D02*
X147006200Y-88544400D01*
%TD*%
M02*
