%TF.GenerationSoftware,KiCad,Pcbnew,10.0.1*%
%TF.CreationDate,2026-06-07T13:53:24+09:00*%
%TF.ProjectId,reband,72656261-6e64-42e6-9b69-6361645f7063,rev?*%
%TF.SameCoordinates,Original*%
%TF.FileFunction,Copper,L1,Top*%
%TF.FilePolarity,Positive*%
%FSLAX46Y46*%
G04 Gerber Fmt 4.6, Leading zero omitted, Abs format (unit mm)*
G04 Created by KiCad (PCBNEW 10.0.1) date 2026-06-07 13:53:24*
%MOMM*%
%LPD*%
G01*
G04 APERTURE LIST*
G04 Aperture macros list*
%AMRoundRect*
0 Rectangle with rounded corners*
0 $1 Rounding radius*
0 $2 $3 $4 $5 $6 $7 $8 $9 X,Y pos of 4 corners*
0 Add a 4 corners polygon primitive as box body*
4,1,4,$2,$3,$4,$5,$6,$7,$8,$9,$2,$3,0*
0 Add four circle primitives for the rounded corners*
1,1,$1+$1,$2,$3*
1,1,$1+$1,$4,$5*
1,1,$1+$1,$6,$7*
1,1,$1+$1,$8,$9*
0 Add four rect primitives between the rounded corners*
20,1,$1+$1,$2,$3,$4,$5,0*
20,1,$1+$1,$4,$5,$6,$7,0*
20,1,$1+$1,$6,$7,$8,$9,0*
20,1,$1+$1,$8,$9,$2,$3,0*%
G04 Aperture macros list end*
%TA.AperFunction,ComponentPad*%
%ADD10O,1.908000X1.108000*%
%TD*%
%TA.AperFunction,ComponentPad*%
%ADD11O,2.308000X1.108000*%
%TD*%
%TA.AperFunction,SMDPad,CuDef*%
%ADD12R,1.150112X0.599948*%
%TD*%
%TA.AperFunction,SMDPad,CuDef*%
%ADD13R,1.150000X0.300000*%
%TD*%
%TA.AperFunction,SMDPad,CuDef*%
%ADD14RoundRect,0.155000X0.155000X-0.212500X0.155000X0.212500X-0.155000X0.212500X-0.155000X-0.212500X0*%
%TD*%
%TA.AperFunction,SMDPad,CuDef*%
%ADD15RoundRect,0.160000X0.197500X0.160000X-0.197500X0.160000X-0.197500X-0.160000X0.197500X-0.160000X0*%
%TD*%
%TA.AperFunction,ComponentPad*%
%ADD16R,0.850000X0.850000*%
%TD*%
%TA.AperFunction,ComponentPad*%
%ADD17C,0.850000*%
%TD*%
%TA.AperFunction,SMDPad,CuDef*%
%ADD18RoundRect,0.155000X-0.155000X0.212500X-0.155000X-0.212500X0.155000X-0.212500X0.155000X0.212500X0*%
%TD*%
%TA.AperFunction,SMDPad,CuDef*%
%ADD19RoundRect,0.155000X-0.212500X-0.155000X0.212500X-0.155000X0.212500X0.155000X-0.212500X0.155000X0*%
%TD*%
%TA.AperFunction,SMDPad,CuDef*%
%ADD20R,1.100000X1.300000*%
%TD*%
%TA.AperFunction,SMDPad,CuDef*%
%ADD21R,1.000000X1.000000*%
%TD*%
%TA.AperFunction,SMDPad,CuDef*%
%ADD22R,0.500000X1.300000*%
%TD*%
%TA.AperFunction,SMDPad,CuDef*%
%ADD23RoundRect,0.160000X-0.160000X0.197500X-0.160000X-0.197500X0.160000X-0.197500X0.160000X0.197500X0*%
%TD*%
%TA.AperFunction,SMDPad,CuDef*%
%ADD24RoundRect,0.160000X-0.197500X-0.160000X0.197500X-0.160000X0.197500X0.160000X-0.197500X0.160000X0*%
%TD*%
%TA.AperFunction,SMDPad,CuDef*%
%ADD25RoundRect,0.033750X-0.101250X0.371250X-0.101250X-0.371250X0.101250X-0.371250X0.101250X0.371250X0*%
%TD*%
%TA.AperFunction,SMDPad,CuDef*%
%ADD26RoundRect,0.033750X-0.371250X0.101250X-0.371250X-0.101250X0.371250X-0.101250X0.371250X0.101250X0*%
%TD*%
%TA.AperFunction,SMDPad,CuDef*%
%ADD27R,3.700000X3.700000*%
%TD*%
%TA.AperFunction,SMDPad,CuDef*%
%ADD28R,0.254000X0.675000*%
%TD*%
%TA.AperFunction,SMDPad,CuDef*%
%ADD29R,0.675000X0.254000*%
%TD*%
%TA.AperFunction,SMDPad,CuDef*%
%ADD30C,0.254000*%
%TD*%
%TA.AperFunction,SMDPad,CuDef*%
%ADD31R,1.000000X0.599999*%
%TD*%
%TA.AperFunction,SMDPad,CuDef*%
%ADD32C,0.250000*%
%TD*%
%TA.AperFunction,SMDPad,CuDef*%
%ADD33R,1.422400X0.558800*%
%TD*%
%TA.AperFunction,SMDPad,CuDef*%
%ADD34RoundRect,0.160000X0.160000X-0.222500X0.160000X0.222500X-0.160000X0.222500X-0.160000X-0.222500X0*%
%TD*%
%TA.AperFunction,SMDPad,CuDef*%
%ADD35RoundRect,0.155000X0.212500X0.155000X-0.212500X0.155000X-0.212500X-0.155000X0.212500X-0.155000X0*%
%TD*%
%TA.AperFunction,ComponentPad*%
%ADD36C,1.244600*%
%TD*%
%TA.AperFunction,SMDPad,CuDef*%
%ADD37R,0.600000X0.540000*%
%TD*%
%TA.AperFunction,ViaPad*%
%ADD38C,0.380000*%
%TD*%
%TA.AperFunction,ViaPad*%
%ADD39C,0.600000*%
%TD*%
%TA.AperFunction,ViaPad*%
%ADD40C,0.254000*%
%TD*%
%TA.AperFunction,Conductor*%
%ADD41C,0.400000*%
%TD*%
%TA.AperFunction,Conductor*%
%ADD42C,0.200000*%
%TD*%
%TA.AperFunction,Conductor*%
%ADD43C,0.150000*%
%TD*%
%TA.AperFunction,Conductor*%
%ADD44C,0.500000*%
%TD*%
G04 APERTURE END LIST*
D10*
%TO.P,J2,13,GND_13*%
%TO.N,GND*%
X132818998Y-85221598D03*
D11*
%TO.P,J2,14,GND_14*%
X128818955Y-85221568D03*
%TO.P,J2,15,GND_15*%
X128818955Y-93861632D03*
D10*
%TO.P,J2,16,GND_16*%
X132818998Y-93861602D03*
D12*
%TO.P,J2,A1/B12,GND_A1/B12*%
X133394003Y-86341599D03*
%TO.P,J2,A4/B9,VBUS_A4/B9*%
%TO.N,+5V*%
X133394003Y-87141600D03*
D13*
%TO.P,J2,A5,CC1_A5*%
%TO.N,Net-(J2-CC1)*%
X133394003Y-88291600D03*
%TO.P,J2,A6,DP1_A6*%
%TO.N,/USB_D+*%
X133394003Y-89291600D03*
%TO.P,J2,A7,DN1_A7*%
%TO.N,/USB_D-*%
X133394003Y-89791600D03*
%TO.P,J2,A8,SBU1_A8*%
%TO.N,unconnected-(J2-SBU1-PadA8)*%
X133394003Y-90791600D03*
D12*
%TO.P,J2,B1/A12,GND_B1/A12*%
%TO.N,GND*%
X133394003Y-92741601D03*
%TO.P,J2,B4/A9,VBUS_B4/A9*%
%TO.N,+5V*%
X133394003Y-91941600D03*
D13*
%TO.P,J2,B5,CC2_B5*%
%TO.N,Net-(J2-CC2)*%
X133394003Y-91291599D03*
%TO.P,J2,B6,DP2_B6*%
%TO.N,/USB_D+*%
X133394003Y-90291601D03*
%TO.P,J2,B7,DN2_B7*%
%TO.N,/USB_D-*%
X133394003Y-88791599D03*
%TO.P,J2,B8,SBU2_B8*%
%TO.N,unconnected-(J2-SBU2-PadB8)*%
X133394003Y-87791601D03*
%TD*%
D14*
%TO.P,C10,1*%
%TO.N,Net-(C10-Pad1)*%
X145618200Y-97358200D03*
%TO.P,C10,2*%
%TO.N,Net-(U3-EL2A)*%
X145618200Y-96223200D03*
%TD*%
D15*
%TO.P,R10,1*%
%TO.N,/GPIO8*%
X138938000Y-89027000D03*
%TO.P,R10,2*%
%TO.N,+3.3V*%
X137743000Y-89027000D03*
%TD*%
D14*
%TO.P,C9,1*%
%TO.N,Net-(C10-Pad1)*%
X146786600Y-97366900D03*
%TO.P,C9,2*%
%TO.N,Net-(U3-EL1)*%
X146786600Y-96231900D03*
%TD*%
D16*
%TO.P,J5,1,Pin_1_1*%
%TO.N,/RST*%
X138217400Y-103457600D03*
D17*
%TO.P,J5,2,Pin_2_2*%
%TO.N,GND*%
X139217400Y-103457600D03*
%TD*%
D18*
%TO.P,C18,1*%
%TO.N,+1V8*%
X140004800Y-96231900D03*
%TO.P,C18,2*%
%TO.N,GND*%
X140004800Y-97366900D03*
%TD*%
D19*
%TO.P,C2,1*%
%TO.N,Net-(U2-IN)*%
X128845500Y-83058000D03*
%TO.P,C2,2*%
%TO.N,Net-(U4-VSS)*%
X129980500Y-83058000D03*
%TD*%
D20*
%TO.P,Y1,1,IN/OUT_1*%
%TO.N,Net-(U1-XTAL_P)*%
X149468000Y-87495000D03*
%TO.P,Y1,2,GND_2*%
%TO.N,GND*%
X149468000Y-89795000D03*
%TO.P,Y1,3,OUT/IN_3*%
%TO.N,Net-(U1-XTAL_N)*%
X151268000Y-89795000D03*
%TO.P,Y1,4,GND__1_4*%
%TO.N,GND*%
X151268000Y-87495000D03*
%TD*%
D21*
%TO.P,E1,1*%
%TO.N,Net-(C8-Pad1)*%
X143764000Y-77343000D03*
D22*
%TO.P,E1,2*%
%TO.N,N/C*%
X142264000Y-77343000D03*
%TD*%
D15*
%TO.P,R5,1*%
%TO.N,Net-(U4-PRE-TERM)*%
X137249500Y-87757000D03*
%TO.P,R5,2*%
%TO.N,GND*%
X136054500Y-87757000D03*
%TD*%
D23*
%TO.P,R7,1*%
%TO.N,+5V*%
X138684000Y-84276000D03*
%TO.P,R7,2*%
%TO.N,Net-(D1-A)*%
X138684000Y-85471000D03*
%TD*%
D19*
%TO.P,C17,1*%
%TO.N,/RST*%
X132414200Y-77343000D03*
%TO.P,C17,2*%
%TO.N,GND*%
X133549200Y-77343000D03*
%TD*%
D15*
%TO.P,R11,1*%
%TO.N,/BOOT*%
X138900500Y-90170000D03*
%TO.P,R11,2*%
%TO.N,+3.3V*%
X137705500Y-90170000D03*
%TD*%
D24*
%TO.P,R3,1*%
%TO.N,Net-(U4-TS)*%
X135800500Y-83058000D03*
%TO.P,R3,2*%
%TO.N,GND*%
X136995500Y-83058000D03*
%TD*%
D25*
%TO.P,U1,1,LNA_IN_1*%
%TO.N,Net-(U1-LNA_IN)*%
X145415000Y-85788000D03*
%TO.P,U1,2,VDD3P3_2*%
%TO.N,+3.3V*%
X144915000Y-85788000D03*
%TO.P,U1,3,VDD3P3_3*%
X144415000Y-85788000D03*
%TO.P,U1,4,GPIO0/XTAL_32K_P_4*%
%TO.N,unconnected-(U1-GPIO0{slash}XTAL_32K_P-Pad4)*%
X143915000Y-85788000D03*
%TO.P,U1,5,GPIO1/XTAL_32K_N_5*%
%TO.N,unconnected-(U1-GPIO1{slash}XTAL_32K_N-Pad5)*%
X143415000Y-85788000D03*
%TO.P,U1,6,GPIO2_6*%
%TO.N,/SDA*%
X142915000Y-85788000D03*
%TO.P,U1,7,CHIP_EN_7*%
%TO.N,/RST*%
X142415000Y-85788000D03*
%TO.P,U1,8,GPIO3_8*%
%TO.N,/SCL*%
X141915000Y-85788000D03*
D26*
%TO.P,U1,9,GPIO4/MTMS_9*%
%TO.N,/GSR_INT*%
X141220000Y-86483000D03*
%TO.P,U1,10,GPIO5/MTDI_10*%
%TO.N,/PPG_INT*%
X141220000Y-86983000D03*
%TO.P,U1,11,VDD3P3_RTC_11*%
%TO.N,+3.3V*%
X141220000Y-87483000D03*
%TO.P,U1,12,GPIO6/MTCK_12*%
%TO.N,/BNO_INT*%
X141220000Y-87983000D03*
%TO.P,U1,13,GPIO7/MTDO_13*%
%TO.N,/1.8V_CTRL*%
X141220000Y-88483000D03*
%TO.P,U1,14,GPIO8_14*%
%TO.N,/GPIO8*%
X141220000Y-88983000D03*
%TO.P,U1,15,GPIO9_15*%
%TO.N,/BOOT*%
X141220000Y-89483000D03*
%TO.P,U1,16,GPIO10_16*%
%TO.N,unconnected-(U1-GPIO10-Pad16)*%
X141220000Y-89983000D03*
D25*
%TO.P,U1,17,VDD3P3_CPU_17*%
%TO.N,+3.3V*%
X141915000Y-90678000D03*
%TO.P,U1,18,VDD_SPI_18*%
%TO.N,Net-(U1-VDD_SPI)*%
X142415000Y-90678000D03*
%TO.P,U1,19,GPIO12/SPIHD_19*%
%TO.N,unconnected-(U1-GPIO12{slash}SPIHD-Pad19)*%
X142915000Y-90678000D03*
%TO.P,U1,20,GPIO13/SPIWP_20*%
%TO.N,unconnected-(U1-GPIO13{slash}SPIWP-Pad20)*%
X143415000Y-90678000D03*
%TO.P,U1,21,GPIO14/SPICS0_21*%
%TO.N,unconnected-(U1-GPIO14{slash}SPICS0-Pad21)*%
X143915000Y-90678000D03*
%TO.P,U1,22,GPIO15/SPICLK_22*%
%TO.N,unconnected-(U1-GPIO15{slash}SPICLK-Pad22)*%
X144415000Y-90678000D03*
%TO.P,U1,23,GPIO16/SPID_23*%
%TO.N,unconnected-(U1-GPIO16{slash}SPID-Pad23)*%
X144915000Y-90678000D03*
%TO.P,U1,24,GPIO17/SPIQ_24*%
%TO.N,unconnected-(U1-GPIO17{slash}SPIQ-Pad24)*%
X145415000Y-90678000D03*
D26*
%TO.P,U1,25,GPIO18/USB_D-_25*%
%TO.N,/D-*%
X146110000Y-89983000D03*
%TO.P,U1,26,GPIO19/USB_D+_26*%
%TO.N,/D+*%
X146110000Y-89483000D03*
%TO.P,U1,27,GPIO20/U0RXD_27*%
%TO.N,/Rx0*%
X146110000Y-88983000D03*
%TO.P,U1,28,GPIO21/U0TXD_28*%
%TO.N,/Tx0*%
X146110000Y-88483000D03*
%TO.P,U1,29,XTAL_N_29*%
%TO.N,Net-(U1-XTAL_N)*%
X146110000Y-87983000D03*
%TO.P,U1,30,XTAL_P_30*%
%TO.N,Net-(U1-XTAL_P)*%
X146110000Y-87483000D03*
%TO.P,U1,31,VDDA_31*%
%TO.N,+3.3V*%
X146110000Y-86983000D03*
%TO.P,U1,32,VDDA_32*%
X146110000Y-86483000D03*
D27*
%TO.P,U1,33,GND_33*%
%TO.N,GND*%
X143665000Y-88233000D03*
%TD*%
D14*
%TO.P,C7,1*%
%TO.N,+3.3V*%
X132791200Y-98399600D03*
%TO.P,C7,2*%
%TO.N,GND*%
X132791200Y-97264600D03*
%TD*%
D19*
%TO.P,C11,1*%
%TO.N,Net-(C11-Pad1)*%
X136025000Y-94996000D03*
%TO.P,C11,2*%
%TO.N,Net-(U3-EL4)*%
X137160000Y-94996000D03*
%TD*%
D15*
%TO.P,R2,1*%
%TO.N,GND*%
X131661500Y-84074000D03*
%TO.P,R2,2*%
%TO.N,Net-(J2-CC1)*%
X130466500Y-84074000D03*
%TD*%
D28*
%TO.P,U5,1,PIN1_1*%
%TO.N,unconnected-(U5-PIN1-Pad1)*%
X134160000Y-98148000D03*
D29*
%TO.P,U5,2,GND_2*%
%TO.N,GND*%
X134022500Y-99060500D03*
%TO.P,U5,3,VDD_3*%
%TO.N,+3.3V*%
X134022500Y-99560500D03*
%TO.P,U5,4,~{BOOT_LOAD_PIN}_4*%
X134022500Y-100060500D03*
%TO.P,U5,5,PS1_5*%
%TO.N,GND*%
X134022500Y-100560500D03*
D28*
%TO.P,U5,6,PS0_6*%
X134160000Y-101473000D03*
%TO.P,U5,7,PIN7_7*%
%TO.N,unconnected-(U5-PIN7-Pad7)*%
X134660000Y-101473000D03*
%TO.P,U5,8,PIN8_8*%
%TO.N,unconnected-(U5-PIN8-Pad8)*%
X135160000Y-101473000D03*
%TO.P,U5,9,CAP_9*%
%TO.N,Net-(U5-CAP)*%
X135660000Y-101473000D03*
%TO.P,U5,10,BL_IND_10*%
%TO.N,unconnected-(U5-BL_IND-Pad10)*%
X136160000Y-101473000D03*
%TO.P,U5,11,~{RESET}_11*%
%TO.N,/RST*%
X136660000Y-101473000D03*
%TO.P,U5,12,PIN12_12*%
%TO.N,unconnected-(U5-PIN12-Pad12)*%
X137160000Y-101473000D03*
%TO.P,U5,13,PIN13_13*%
%TO.N,unconnected-(U5-PIN13-Pad13)*%
X137660000Y-101473000D03*
%TO.P,U5,14,INT_14*%
%TO.N,/BNO_INT*%
X138160000Y-101473000D03*
%TO.P,U5,15,PIN15_15*%
%TO.N,unconnected-(U5-PIN15-Pad15)*%
X138660000Y-101473000D03*
D29*
%TO.P,U5,16,PIN16_16*%
%TO.N,unconnected-(U5-PIN16-Pad16)*%
X138797500Y-100560500D03*
%TO.P,U5,17,COM3_17*%
%TO.N,GND*%
X138797500Y-100060500D03*
%TO.P,U5,18,COM2_18*%
X138797500Y-99560500D03*
%TO.P,U5,19,COM1_19*%
%TO.N,/SCL*%
X138797500Y-99060500D03*
D28*
%TO.P,U5,20,COM0_20*%
%TO.N,/SDA*%
X138660000Y-98148000D03*
%TO.P,U5,21,PIN21_21*%
%TO.N,unconnected-(U5-PIN21-Pad21)*%
X138160000Y-98148000D03*
%TO.P,U5,22,PIN22_22*%
%TO.N,unconnected-(U5-PIN22-Pad22)*%
X137660000Y-98148000D03*
%TO.P,U5,23,PIN23_23*%
%TO.N,unconnected-(U5-PIN23-Pad23)*%
X137160000Y-98148000D03*
%TO.P,U5,24,PIN24_24*%
%TO.N,unconnected-(U5-PIN24-Pad24)*%
X136660000Y-98148000D03*
%TO.P,U5,25,GNDIO_25*%
%TO.N,GND*%
X136160000Y-98148000D03*
%TO.P,U5,26,XOUT32_26*%
%TO.N,unconnected-(U5-XOUT32-Pad26)*%
X135660000Y-98148000D03*
%TO.P,U5,27,XIN32_27*%
%TO.N,unconnected-(U5-XIN32-Pad27)*%
X135160000Y-98148000D03*
%TO.P,U5,28,VDDIO_28*%
%TO.N,+3.3V*%
X134660000Y-98148000D03*
%TD*%
D24*
%TO.P,R12,1*%
%TO.N,+3.3V*%
X137464200Y-77343000D03*
%TO.P,R12,2*%
%TO.N,/RST*%
X138659200Y-77343000D03*
%TD*%
D15*
%TO.P,R1,1*%
%TO.N,GND*%
X131661500Y-95758000D03*
%TO.P,R1,2*%
%TO.N,Net-(J2-CC2)*%
X130466500Y-95758000D03*
%TD*%
D14*
%TO.P,C5,1*%
%TO.N,Net-(U1-XTAL_P)*%
X148071000Y-87892700D03*
%TO.P,C5,2*%
%TO.N,GND*%
X148071000Y-86757700D03*
%TD*%
%TO.P,C15,1*%
%TO.N,+3.3V*%
X143738600Y-83803300D03*
%TO.P,C15,2*%
%TO.N,GND*%
X143738600Y-82668300D03*
%TD*%
D30*
%TO.P,U3,A1,EL1_A1*%
%TO.N,Net-(U3-EL1)*%
X143941800Y-92989400D03*
%TO.P,U3,A2,EL2A_A2*%
%TO.N,Net-(U3-EL2A)*%
X144341800Y-92989400D03*
%TO.P,U3,A3,EL2B_A3*%
%TO.N,unconnected-(U3-EL2B-PadA3)*%
X144741800Y-92989400D03*
%TO.P,U3,A4,CAL1_A4*%
%TO.N,unconnected-(U3-CAL1-PadA4)*%
X145141800Y-92989400D03*
%TO.P,U3,A5,CAL2_A5*%
%TO.N,unconnected-(U3-CAL2-PadA5)*%
X145541800Y-92989400D03*
%TO.P,U3,B1,EL4_B1*%
%TO.N,Net-(U3-EL4)*%
X143941800Y-93389450D03*
%TO.P,U3,B2,EL3A_B2*%
%TO.N,Net-(U3-EL3A)*%
X144341800Y-93389450D03*
%TO.P,U3,B3,EL3B_B3*%
%TO.N,unconnected-(U3-EL3B-PadB3)*%
X144741800Y-93389450D03*
%TO.P,U3,B4,CAL4_B4*%
%TO.N,unconnected-(U3-CAL4-PadB4)*%
X145141800Y-93389450D03*
%TO.P,U3,B5,CAL3_B5*%
%TO.N,unconnected-(U3-CAL3-PadB5)*%
X145541800Y-93389450D03*
%TO.P,U3,C1,AVDD_C1*%
%TO.N,+1V8*%
X143941800Y-93789500D03*
%TO.P,U3,C2,VREF_C2*%
%TO.N,Net-(U3-VREF)*%
X144341800Y-93789500D03*
%TO.P,U3,C3,AGND_C3*%
%TO.N,GND*%
X144741800Y-93789500D03*
%TO.P,U3,C4,DRVSJ_C4*%
%TO.N,unconnected-(U3-DRVSJ-PadC4)*%
X145141800Y-93789500D03*
%TO.P,U3,C5,DRVXR_C5*%
%TO.N,unconnected-(U3-DRVXR-PadC5)*%
X145541800Y-93789500D03*
%TO.P,U3,D1,DVDD_D1*%
%TO.N,+1V8*%
X143941800Y-94189550D03*
%TO.P,U3,D2,CSB/I2C_SEL_D2*%
X144341800Y-94189550D03*
%TO.P,U3,D3,FCLK_D3*%
%TO.N,unconnected-(U3-FCLK-PadD3)*%
X144741800Y-94189550D03*
%TO.P,U3,D4,TRIG_D4*%
%TO.N,unconnected-(U3-TRIG-PadD4)*%
X145141800Y-94189550D03*
%TO.P,U3,D5,DRVXC_D5*%
%TO.N,unconnected-(U3-DRVXC-PadD5)*%
X145541800Y-94189550D03*
%TO.P,U3,E1,DGND_E1*%
%TO.N,GND*%
X143941800Y-94589600D03*
%TO.P,U3,E2,SDO/ADDR_E2*%
X144341800Y-94589600D03*
%TO.P,U3,E3,SDI/SDA_E3*%
%TO.N,/SDA*%
X144741800Y-94589600D03*
%TO.P,U3,E4,SCLK/SCL_E4*%
%TO.N,/SCL*%
X145141800Y-94589600D03*
%TO.P,U3,E5,INT_E5*%
%TO.N,/GSR_INT*%
X145541800Y-94589600D03*
%TD*%
D31*
%TO.P,U2,1,IN_1*%
%TO.N,Net-(U2-IN)*%
X131987699Y-79313999D03*
%TO.P,U2,2,GND_2*%
%TO.N,GND*%
X131987699Y-80264000D03*
%TO.P,U2,3,EN_3*%
%TO.N,Net-(U2-EN)*%
X131987699Y-81213998D03*
%TO.P,U2,4,NC_4*%
%TO.N,unconnected-(U2-NC-Pad4)*%
X134737699Y-81213998D03*
%TO.P,U2,5,OUT_5*%
%TO.N,+3.3V*%
X134737699Y-79313999D03*
%TD*%
D18*
%TO.P,C14,1*%
%TO.N,Net-(U1-VDD_SPI)*%
X142240000Y-92015500D03*
%TO.P,C14,2*%
%TO.N,GND*%
X142240000Y-93150500D03*
%TD*%
%TO.P,C4,1*%
%TO.N,Net-(U1-XTAL_N)*%
X148071000Y-89052400D03*
%TO.P,C4,2*%
%TO.N,GND*%
X148071000Y-90187400D03*
%TD*%
D23*
%TO.P,R8,1*%
%TO.N,+3.3V*%
X142621000Y-82625000D03*
%TO.P,R8,2*%
%TO.N,/SDA*%
X142621000Y-83820000D03*
%TD*%
D19*
%TO.P,C19,1*%
%TO.N,Net-(U1-LNA_IN)*%
X145482500Y-83058000D03*
%TO.P,C19,2*%
%TO.N,GND*%
X146617500Y-83058000D03*
%TD*%
D32*
%TO.P,U4,A1,OUT_A1*%
%TO.N,Net-(U2-IN)*%
X136398000Y-85090000D03*
%TO.P,U4,A2,IN_A2*%
%TO.N,+5V*%
X136798000Y-85090000D03*
%TO.P,U4,B1,TS_B1*%
%TO.N,Net-(U4-TS)*%
X136398000Y-85490000D03*
%TO.P,U4,B2,ISET_B2*%
%TO.N,Net-(U4-ISET)*%
X136798000Y-85490000D03*
%TO.P,U4,C1,PRE-TERM_C1*%
%TO.N,Net-(U4-PRE-TERM)*%
X136398000Y-85890000D03*
%TO.P,U4,C2,VSS_C2*%
%TO.N,Net-(U4-VSS)*%
X136798000Y-85890000D03*
%TD*%
D23*
%TO.P,R6,1*%
%TO.N,Net-(U2-IN)*%
X130419699Y-79764998D03*
%TO.P,R6,2*%
%TO.N,Net-(U2-EN)*%
X130419699Y-80959998D03*
%TD*%
D33*
%TO.P,U7,1,VIN_1*%
%TO.N,+3.3V*%
X136768299Y-79313996D03*
%TO.P,U7,2,GND_2*%
%TO.N,GND*%
X136768299Y-80263997D03*
%TO.P,U7,3,CONTROL_3*%
%TO.N,/1.8V_CTRL*%
X136768299Y-81213998D03*
%TO.P,U7,4,NC_4*%
%TO.N,unconnected-(U7-NC-Pad4)*%
X139057099Y-81213998D03*
%TO.P,U7,5,VOUT_5*%
%TO.N,+1V8*%
X139057099Y-79313996D03*
%TD*%
D19*
%TO.P,C8,1*%
%TO.N,Net-(C8-Pad1)*%
X145482500Y-79502000D03*
%TO.P,C8,2*%
%TO.N,GND*%
X146617500Y-79502000D03*
%TD*%
D34*
%TO.P,D1,1,K_1*%
%TO.N,GND*%
X138684000Y-87694500D03*
%TO.P,D1,2,A_2*%
%TO.N,Net-(D1-A)*%
X138684000Y-86549500D03*
%TD*%
D23*
%TO.P,R9,1*%
%TO.N,+3.3V*%
X141478000Y-82587500D03*
%TO.P,R9,2*%
%TO.N,/SCL*%
X141478000Y-83782500D03*
%TD*%
D35*
%TO.P,C13,1*%
%TO.N,Net-(U3-VREF)*%
X137160000Y-96139000D03*
%TO.P,C13,2*%
%TO.N,GND*%
X136025000Y-96139000D03*
%TD*%
D36*
%TO.P,J1,1,1_1*%
%TO.N,Net-(U2-IN)*%
X142063700Y-101283200D03*
%TO.P,J1,2,2_2*%
%TO.N,GND*%
X142063700Y-99783199D03*
%TD*%
D37*
%TO.P,L1,1*%
%TO.N,Net-(C8-Pad1)*%
X145542000Y-80670000D03*
%TO.P,L1,2*%
%TO.N,Net-(U1-LNA_IN)*%
X145542000Y-81534000D03*
%TD*%
D35*
%TO.P,C1,1*%
%TO.N,+5V*%
X134425500Y-84074000D03*
%TO.P,C1,2*%
%TO.N,GND*%
X133290500Y-84074000D03*
%TD*%
D15*
%TO.P,R4,1*%
%TO.N,Net-(U4-ISET)*%
X134455500Y-82931000D03*
%TO.P,R4,2*%
%TO.N,GND*%
X133260500Y-82931000D03*
%TD*%
D35*
%TO.P,C6,1*%
%TO.N,Net-(U5-CAP)*%
X135695500Y-102743000D03*
%TO.P,C6,2*%
%TO.N,GND*%
X134560500Y-102743000D03*
%TD*%
D19*
%TO.P,C3,1*%
%TO.N,+3.3V*%
X134894700Y-77343000D03*
%TO.P,C3,2*%
%TO.N,GND*%
X136029700Y-77343000D03*
%TD*%
%TO.P,C12,1*%
%TO.N,Net-(C11-Pad1)*%
X136025000Y-93751400D03*
%TO.P,C12,2*%
%TO.N,Net-(U3-EL3A)*%
X137160000Y-93751400D03*
%TD*%
D38*
%TO.N,GND*%
X144780000Y-82905600D03*
X132537200Y-84074000D03*
X144780000Y-80391000D03*
D39*
X147624800Y-80213200D03*
D38*
X145897600Y-84861400D03*
D39*
X131572000Y-83058000D03*
X128371600Y-92557600D03*
D38*
X144678400Y-79756000D03*
D39*
X142163800Y-81483200D03*
X142748000Y-79654400D03*
X145211800Y-89103200D03*
D38*
X144780000Y-81661000D03*
X146304000Y-81026000D03*
D39*
X133616700Y-79984600D03*
X143665000Y-88233000D03*
D38*
X146304000Y-82296000D03*
X144780000Y-84328000D03*
X144145000Y-96139000D03*
X145897600Y-84302600D03*
D39*
X139141200Y-82346800D03*
X144500600Y-89077800D03*
X131064000Y-91389200D03*
D38*
X142951200Y-94691200D03*
D39*
X128574800Y-95758000D03*
D38*
X146304000Y-81661000D03*
X135154000Y-90109000D03*
D39*
X143662400Y-89077800D03*
X130657600Y-89001600D03*
X144500600Y-88239600D03*
X145186400Y-86715600D03*
X143332200Y-97104200D03*
D38*
X133540500Y-78689200D03*
D39*
X130657600Y-87985600D03*
D38*
X144272000Y-79375000D03*
D39*
X148793200Y-79654400D03*
D38*
X146304000Y-80391000D03*
X144780000Y-83531200D03*
X144780000Y-81026000D03*
D39*
X151384000Y-86055200D03*
D40*
X144741898Y-93790912D03*
D39*
X128828800Y-83947000D03*
D38*
X144780000Y-82296000D03*
D39*
X145186400Y-88239600D03*
D38*
X135623300Y-78790800D03*
X143891000Y-78994000D03*
D39*
X144500600Y-86715600D03*
X143560800Y-81026000D03*
X149910800Y-91592400D03*
D38*
X135051800Y-87960200D03*
D39*
%TO.N,+5V*%
X139293600Y-83667600D03*
X134950200Y-84861400D03*
X134670800Y-91948000D03*
%TO.N,/USB_D+*%
X132029200Y-90271600D03*
X134823200Y-89306400D03*
%TO.N,/USB_D-*%
X134518400Y-90678000D03*
%TO.N,Net-(C10-Pad1)*%
X147167600Y-98145600D03*
D38*
%TO.N,/GPIO8*%
X148361400Y-91668600D03*
X139639800Y-88925400D03*
%TO.N,+3.3V*%
X141007094Y-91787999D03*
X134670800Y-97256600D03*
X140369800Y-87477600D03*
D39*
X139801600Y-82956400D03*
D38*
X146964400Y-86614000D03*
X137947400Y-88417400D03*
X132791200Y-99305300D03*
X144119600Y-84658200D03*
X140055600Y-80213200D03*
X137160000Y-97383600D03*
D39*
%TO.N,/RST*%
X131622800Y-77724000D03*
X136525000Y-99999800D03*
D38*
X142417800Y-84759800D03*
X139331700Y-77317600D03*
%TO.N,+1V8*%
X138938000Y-95275400D03*
X139560300Y-78384400D03*
D39*
%TO.N,Net-(U2-IN)*%
X130302000Y-82092800D03*
D38*
X132689600Y-78536800D03*
X136067800Y-84328000D03*
%TO.N,Net-(U4-VSS)*%
X137464800Y-86563200D03*
X130810000Y-82829400D03*
%TO.N,/BOOT*%
X139725400Y-90373200D03*
X146888200Y-84201000D03*
%TO.N,/SDA*%
X142163800Y-95097600D03*
X143306800Y-84709000D03*
%TO.N,/SCL*%
X141401800Y-84556600D03*
X140004800Y-93675200D03*
X142290800Y-95707200D03*
%TO.N,/GSR_INT*%
X140766800Y-85623400D03*
X146380200Y-94589600D03*
%TO.N,/PPG_INT*%
X140487400Y-86995000D03*
X139115800Y-93675200D03*
X140360400Y-90551000D03*
%TO.N,/BNO_INT*%
X140436600Y-87985600D03*
X137922000Y-100279200D03*
%TO.N,/1.8V_CTRL*%
X137693400Y-82372200D03*
X139496800Y-88188800D03*
%TO.N,/D-*%
X146989800Y-90119200D03*
%TO.N,/D+*%
X146989800Y-89509600D03*
%TO.N,/Rx0*%
X147015200Y-89027000D03*
X145923000Y-98780600D03*
%TO.N,/Tx0*%
X144437100Y-98209100D03*
X147006200Y-88544400D03*
D39*
%TO.N,Net-(C11-Pad1)*%
X130048000Y-96824800D03*
X135305800Y-94437200D03*
D38*
%TO.N,Net-(U3-EL4)*%
X136601200Y-94386400D03*
X143027400Y-93599000D03*
%TO.N,Net-(U3-EL3A)*%
X137185400Y-93065600D03*
D40*
X144341800Y-93389450D03*
D38*
%TO.N,Net-(U3-VREF)*%
X137160000Y-96901000D03*
D40*
X144341795Y-93790275D03*
D38*
%TO.N,Net-(U4-ISET)*%
X137541000Y-84099400D03*
X135559800Y-82321400D03*
%TD*%
%TO.N,GND*%
D41*
X133549200Y-77343000D02*
X133549200Y-78680500D01*
X136029700Y-78232000D02*
X136029700Y-77343000D01*
D42*
X132537200Y-84074000D02*
X133290500Y-84074000D01*
X131661500Y-84074000D02*
X132537200Y-84074000D01*
D41*
X135623300Y-78638400D02*
X136029700Y-78232000D01*
D42*
X144341800Y-94589600D02*
X143941800Y-94589600D01*
X143052800Y-94589600D02*
X142951200Y-94691200D01*
X151268000Y-87298500D02*
X151268000Y-87477000D01*
D41*
X133549200Y-78680500D02*
X133540500Y-78689200D01*
X135623300Y-78790800D02*
X135623300Y-78638400D01*
D42*
X143941800Y-94589600D02*
X143052800Y-94589600D01*
X144741800Y-93789500D02*
X144741800Y-93790814D01*
X144741800Y-93790814D02*
X144741898Y-93790912D01*
%TO.N,+5V*%
D41*
X134425500Y-84819300D02*
X134425500Y-84074000D01*
X134874000Y-84861400D02*
X134950200Y-84861400D01*
D42*
X136798000Y-83902600D02*
X137007600Y-83693000D01*
D41*
X134670800Y-85064600D02*
X134874000Y-84861400D01*
X133400403Y-91948000D02*
X133394003Y-91941600D01*
X134448000Y-87141600D02*
X133394003Y-87141600D01*
D42*
X138150600Y-83693000D02*
X138684000Y-84226400D01*
D41*
X134670800Y-85064600D02*
X134425500Y-84819300D01*
D42*
X137007600Y-83693000D02*
X138150600Y-83693000D01*
X138684000Y-84226400D02*
X138684000Y-84276000D01*
X138684000Y-84276000D02*
X138685200Y-84276000D01*
D41*
X134670800Y-85064600D02*
X134670800Y-86918800D01*
D42*
X138685200Y-84276000D02*
X139293600Y-83667600D01*
X136798000Y-85090000D02*
X136798000Y-83902600D01*
D41*
X134670800Y-91948000D02*
X133400403Y-91948000D01*
X134670800Y-86918800D02*
X134448000Y-87141600D01*
%TO.N,Net-(J2-CC1)*%
D43*
X133394003Y-88291600D02*
X132030400Y-88291600D01*
X131318000Y-85471000D02*
X130759200Y-84912200D01*
X132030400Y-88291600D02*
X131318000Y-87579200D01*
D42*
X130759200Y-84912200D02*
X130466500Y-84619500D01*
X130466500Y-84619500D02*
X130466500Y-84074000D01*
D43*
X131318000Y-87579200D02*
X131318000Y-85471000D01*
%TO.N,/USB_D+*%
D42*
X133394003Y-90291601D02*
X132049201Y-90291601D01*
X134823200Y-89306400D02*
X133408803Y-89306400D01*
X132049201Y-90291601D02*
X132029200Y-90271600D01*
X133408803Y-89306400D02*
X133394003Y-89291600D01*
%TO.N,/USB_D-*%
X132384800Y-88950800D02*
X132544001Y-88791599D01*
X132544001Y-88791599D02*
X133394003Y-88791599D01*
X132384800Y-89560400D02*
X132384800Y-88950800D01*
X132616000Y-89791600D02*
X132384800Y-89560400D01*
X134518400Y-90017600D02*
X134518400Y-90678000D01*
X133394003Y-89791600D02*
X134292400Y-89791600D01*
X133394003Y-89791600D02*
X132616000Y-89791600D01*
X134292400Y-89791600D02*
X134518400Y-90017600D01*
%TO.N,Net-(J2-CC2)*%
X131064000Y-94742000D02*
X130466500Y-95339500D01*
X132431601Y-91291599D02*
X131064000Y-92659200D01*
X130466500Y-95339500D02*
X130466500Y-95758000D01*
X131064000Y-92659200D02*
X131064000Y-94742000D01*
X133394003Y-91291599D02*
X132431601Y-91291599D01*
%TO.N,Net-(C10-Pad1)*%
X145618200Y-97358200D02*
X146777900Y-97358200D01*
X146777900Y-97358200D02*
X146786600Y-97366900D01*
X147167600Y-97747900D02*
X146786600Y-97366900D01*
X147167600Y-98145600D02*
X147167600Y-97747900D01*
X146786600Y-97366900D02*
X146973100Y-97366900D01*
%TO.N,Net-(U3-EL2A)*%
X146634200Y-92532200D02*
X144500600Y-92532200D01*
X146837400Y-92735400D02*
X146634200Y-92532200D01*
X144341800Y-92691000D02*
X144341800Y-92989400D01*
X145618200Y-96062800D02*
X146837400Y-94843600D01*
X146837400Y-94843600D02*
X146837400Y-92735400D01*
X144500600Y-92532200D02*
X144341800Y-92691000D01*
X145618200Y-96223200D02*
X145618200Y-96062800D01*
%TO.N,/GPIO8*%
D43*
X141162400Y-88925400D02*
X139039600Y-88925400D01*
X138938000Y-89027000D02*
X139538200Y-89027000D01*
X139538200Y-89027000D02*
X139639800Y-88925400D01*
D42*
X148429000Y-91736200D02*
X148361400Y-91668600D01*
D43*
X141220000Y-88983000D02*
X141162400Y-88925400D01*
X139039600Y-88925400D02*
X138938000Y-89027000D01*
%TO.N,+3.3V*%
D42*
X134660000Y-98148000D02*
X134660000Y-97267400D01*
X134660000Y-97267400D02*
X134670800Y-97256600D01*
X133375400Y-99644200D02*
X133130100Y-99644200D01*
D41*
X134340600Y-95885000D02*
X135846600Y-97391000D01*
D42*
X141478000Y-80848200D02*
X141478000Y-82587500D01*
X140170500Y-82587500D02*
X139801600Y-82956400D01*
X146824000Y-86983000D02*
X146964400Y-86842600D01*
D43*
X137743000Y-89027000D02*
X137743000Y-90132500D01*
X137743000Y-88621800D02*
X137947400Y-88417400D01*
D42*
X133130100Y-99644200D02*
X132791200Y-99305300D01*
X141220000Y-87483000D02*
X140375200Y-87483000D01*
X137416496Y-79313996D02*
X136768299Y-79313996D01*
X143738600Y-84201000D02*
X143738600Y-83803300D01*
X137464200Y-77343000D02*
X137464200Y-78618095D01*
X141915000Y-90678000D02*
X141915000Y-91155400D01*
X133375400Y-99796600D02*
X133375400Y-99974400D01*
X144415000Y-85201000D02*
X143941800Y-84727800D01*
X141915000Y-91155400D02*
X141300200Y-91770200D01*
X134737699Y-79313999D02*
X136768296Y-79313999D01*
X136768296Y-79313999D02*
X136768299Y-79313996D01*
D41*
X135846600Y-97391000D02*
X137160000Y-97391000D01*
D42*
X146110000Y-86483000D02*
X146833400Y-86483000D01*
X144415000Y-85788000D02*
X144415000Y-85201000D01*
X138315700Y-80213200D02*
X137416496Y-79313996D01*
X142621000Y-82685700D02*
X143738600Y-83803300D01*
X133461500Y-100060500D02*
X133375400Y-99974400D01*
X143941800Y-84727800D02*
X143941800Y-84404200D01*
X142621000Y-82625000D02*
X142621000Y-82685700D01*
X140375200Y-87483000D02*
X140369800Y-87477600D01*
X140843000Y-80213200D02*
X141478000Y-80848200D01*
X134894700Y-79156998D02*
X134737699Y-79313999D01*
X144907000Y-85496400D02*
X144542000Y-85496400D01*
X146964400Y-86614000D02*
X146964400Y-86842600D01*
D43*
X137743000Y-90132500D02*
X137705500Y-90170000D01*
D42*
X143941800Y-84404200D02*
X143738600Y-84201000D01*
X133375400Y-99644200D02*
X133375400Y-99796600D01*
X144542000Y-85496400D02*
X144415000Y-85369400D01*
D41*
X136753600Y-92659200D02*
X135813800Y-92659200D01*
D42*
X141478000Y-82587500D02*
X142583500Y-82587500D01*
X133459100Y-99560500D02*
X133375400Y-99644200D01*
X134022500Y-99560500D02*
X133459100Y-99560500D01*
D43*
X137743000Y-89027000D02*
X137743000Y-88621800D01*
D41*
X135813800Y-92659200D02*
X134340600Y-94132400D01*
D42*
X141300200Y-91770200D02*
X141024893Y-91770200D01*
X141478000Y-82587500D02*
X140170500Y-82587500D01*
D41*
X137312400Y-92100400D02*
X136753600Y-92659200D01*
D42*
X141024893Y-91770200D02*
X141007094Y-91787999D01*
X132791200Y-98399600D02*
X132791200Y-99305300D01*
X134894700Y-77343000D02*
X134894700Y-79156998D01*
X142583500Y-82587500D02*
X142621000Y-82625000D01*
X144915000Y-85504400D02*
X144907000Y-85496400D01*
X134022500Y-100060500D02*
X133461500Y-100060500D01*
D41*
X137312400Y-90563100D02*
X137312400Y-92100400D01*
X134340600Y-94132400D02*
X134340600Y-95885000D01*
D42*
X140055600Y-80213200D02*
X140843000Y-80213200D01*
X140055600Y-80213200D02*
X138315700Y-80213200D01*
D41*
X137705500Y-90170000D02*
X137312400Y-90563100D01*
D42*
X137464200Y-78618095D02*
X136768299Y-79313996D01*
X146833400Y-86483000D02*
X146964400Y-86614000D01*
X146110000Y-86983000D02*
X146824000Y-86983000D01*
X144915000Y-85788000D02*
X144915000Y-85504400D01*
%TO.N,Net-(U3-EL1)*%
X147269200Y-95749300D02*
X146786600Y-96231900D01*
X147091400Y-92151200D02*
X147269200Y-92329000D01*
X143941800Y-92481400D02*
X144272000Y-92151200D01*
X143941800Y-92989400D02*
X143941800Y-92481400D01*
X144272000Y-92151200D02*
X147091400Y-92151200D01*
X147269200Y-92329000D02*
X147269200Y-95749300D01*
%TO.N,/RST*%
X131622800Y-77724000D02*
X131771200Y-77575600D01*
X132181600Y-77575600D02*
X132414200Y-77343000D01*
X136660000Y-102497000D02*
X136660000Y-101473000D01*
X137591800Y-103428800D02*
X136660000Y-102497000D01*
X139306300Y-77343000D02*
X139331700Y-77317600D01*
X138039600Y-103428800D02*
X137591800Y-103428800D01*
X131771200Y-77575600D02*
X132181600Y-77575600D01*
X142415000Y-84762600D02*
X142417800Y-84759800D01*
X142415000Y-85788000D02*
X142415000Y-84762600D01*
X136660000Y-100134800D02*
X136525000Y-99999800D01*
X138659200Y-77343000D02*
X139306300Y-77343000D01*
X136660000Y-101473000D02*
X136660000Y-100134800D01*
%TO.N,+1V8*%
X140004800Y-96231900D02*
X140004800Y-95377000D01*
X141979650Y-94189550D02*
X143941800Y-94189550D01*
X139057099Y-79313996D02*
X139057099Y-78887601D01*
X140004800Y-95377000D02*
X140106400Y-95275400D01*
X138938000Y-95275400D02*
X140106400Y-95275400D01*
X144341800Y-94189550D02*
X143941800Y-94189550D01*
X143941800Y-93789500D02*
X143941800Y-94189550D01*
X140893800Y-95275400D02*
X141979650Y-94189550D01*
X139057099Y-78887601D02*
X139560300Y-78384400D01*
X140106400Y-95275400D02*
X140893800Y-95275400D01*
%TO.N,Net-(U2-IN)*%
X136067800Y-84759800D02*
X136067800Y-84328000D01*
D44*
X130302000Y-82092800D02*
X129810700Y-82092800D01*
D42*
X136398000Y-85090000D02*
X136067800Y-84759800D01*
D44*
X129810700Y-82092800D02*
X128845500Y-83058000D01*
X131987699Y-79313999D02*
X130870698Y-79313999D01*
D42*
X132689600Y-78536800D02*
X132664200Y-78536800D01*
X132664200Y-78536800D02*
X131987699Y-79213301D01*
D44*
X130870698Y-79313999D02*
X130419699Y-79764998D01*
D42*
X131987699Y-79213301D02*
X131987699Y-79313999D01*
%TO.N,Net-(U4-VSS)*%
X137464800Y-86556800D02*
X137464800Y-86563200D01*
X130209100Y-82829400D02*
X129980500Y-83058000D01*
X130810000Y-82829400D02*
X130209100Y-82829400D01*
X136798000Y-85890000D02*
X137464800Y-86556800D01*
%TO.N,Net-(U1-XTAL_P)*%
X148039900Y-87892700D02*
X148071000Y-87892700D01*
X146110000Y-87483000D02*
X147630200Y-87483000D01*
X148071000Y-87892700D02*
X149070300Y-87892700D01*
X147630200Y-87483000D02*
X148039900Y-87892700D01*
X149070300Y-87892700D02*
X149468000Y-87495000D01*
%TO.N,Net-(U1-XTAL_N)*%
X148071000Y-88939800D02*
X147114200Y-87983000D01*
X150357000Y-88705500D02*
X148479700Y-88705500D01*
X151268000Y-89616500D02*
X150357000Y-88705500D01*
X147114200Y-87983000D02*
X146110000Y-87983000D01*
X148071000Y-89052400D02*
X148071000Y-88939800D01*
X148132800Y-89052400D02*
X148071000Y-89052400D01*
X148479700Y-88705500D02*
X148132800Y-89052400D01*
%TO.N,Net-(C8-Pad1)*%
X143764000Y-77343000D02*
X143764000Y-78043000D01*
X143764000Y-78043000D02*
X145223000Y-79502000D01*
X145415000Y-80114775D02*
X145415000Y-79629000D01*
X145440000Y-80670000D02*
X145415000Y-80645000D01*
X145542000Y-80670000D02*
X145440000Y-80670000D01*
X145415000Y-80645000D02*
X145415000Y-80114775D01*
X145223000Y-79502000D02*
X145482500Y-79502000D01*
%TO.N,Net-(U4-PRE-TERM)*%
X136398000Y-86487000D02*
X137249500Y-87338500D01*
X136398000Y-85890000D02*
X136398000Y-86487000D01*
X137249500Y-87338500D02*
X137249500Y-87757000D01*
%TO.N,Net-(D1-A)*%
X138684000Y-85471000D02*
X138684000Y-86549500D01*
%TO.N,/BOOT*%
D43*
X140590200Y-89483000D02*
X139903200Y-90170000D01*
X139903200Y-90170000D02*
X138900500Y-90170000D01*
X139725400Y-90373200D02*
X139522200Y-90170000D01*
X139522200Y-90170000D02*
X138900500Y-90170000D01*
X141220000Y-89483000D02*
X140590200Y-89483000D01*
%TO.N,Net-(U4-TS)*%
D42*
X135800500Y-83579300D02*
X135800500Y-83058000D01*
X135610600Y-85344000D02*
X135610600Y-83769200D01*
X135756600Y-85490000D02*
X135610600Y-85344000D01*
X136398000Y-85490000D02*
X135756600Y-85490000D01*
X135610600Y-83769200D02*
X135800500Y-83579300D01*
%TO.N,Net-(U1-LNA_IN)*%
X145415000Y-82367927D02*
X145415000Y-82242752D01*
X145415000Y-82242752D02*
X145415000Y-82072058D01*
X145415000Y-82072058D02*
X145415000Y-81661000D01*
X145415000Y-85788000D02*
X145415000Y-82367927D01*
%TO.N,/SDA*%
X144424400Y-95224600D02*
X142621000Y-95224600D01*
X138660000Y-98148000D02*
X140713600Y-98148000D01*
X144741800Y-94907200D02*
X144424400Y-95224600D01*
X140944600Y-95885000D02*
X141732000Y-95097600D01*
X142214600Y-95148400D02*
X142163800Y-95097600D01*
X143306800Y-84709000D02*
X142915000Y-84709000D01*
X142544800Y-95148400D02*
X142214600Y-95148400D01*
X140944600Y-97917000D02*
X140944600Y-95885000D01*
X142915000Y-84114000D02*
X142621000Y-83820000D01*
X142621000Y-95224600D02*
X142544800Y-95148400D01*
X142915000Y-85788000D02*
X142915000Y-84709000D01*
X141732000Y-95097600D02*
X142163800Y-95097600D01*
X140713600Y-98148000D02*
X140944600Y-97917000D01*
X144741800Y-94589600D02*
X144741800Y-94907200D01*
X142915000Y-84709000D02*
X142915000Y-84114000D01*
%TO.N,/SCL*%
X145141800Y-95218400D02*
X144653000Y-95707200D01*
X144653000Y-95707200D02*
X142290800Y-95707200D01*
X141915000Y-84219500D02*
X141478000Y-83782500D01*
X141757400Y-95758000D02*
X142240000Y-95758000D01*
X138797500Y-99060500D02*
X140436100Y-99060500D01*
X145141800Y-94589600D02*
X145141800Y-95218400D01*
X142240000Y-95758000D02*
X142290800Y-95707200D01*
X141401800Y-84556600D02*
X141915000Y-84556600D01*
X141528800Y-97967800D02*
X141528800Y-95986600D01*
X141915000Y-84556600D02*
X141915000Y-84219500D01*
X141915000Y-85788000D02*
X141915000Y-84556600D01*
X140436100Y-99060500D02*
X141528800Y-97967800D01*
X141528800Y-95986600D02*
X141757400Y-95758000D01*
%TO.N,/GSR_INT*%
X146380200Y-94589600D02*
X145541800Y-94589600D01*
X141220000Y-86076600D02*
X140766800Y-85623400D01*
X141220000Y-86483000D02*
X141220000Y-86076600D01*
%TO.N,/PPG_INT*%
D43*
X140360400Y-91414600D02*
X140360400Y-90551000D01*
X139319000Y-92456000D02*
X140360400Y-91414600D01*
D42*
X140499400Y-86983000D02*
X140487400Y-86995000D01*
D43*
X139115800Y-93675200D02*
X139115800Y-92659200D01*
X139115800Y-92659200D02*
X139319000Y-92456000D01*
D42*
X141220000Y-86983000D02*
X140499400Y-86983000D01*
%TO.N,/BNO_INT*%
D43*
X137922000Y-100279200D02*
X138160000Y-100517200D01*
X138160000Y-100517200D02*
X138160000Y-101473000D01*
X140540800Y-87983000D02*
X141220000Y-87983000D01*
X140436600Y-87985600D02*
X140538200Y-87985600D01*
X140538200Y-87985600D02*
X140540800Y-87983000D01*
%TO.N,/1.8V_CTRL*%
D42*
X136768299Y-81213998D02*
X136768299Y-81447099D01*
X136768299Y-81213998D02*
X137055898Y-81213998D01*
X136768299Y-81447099D02*
X137693400Y-82372200D01*
X141220000Y-88483000D02*
X139791000Y-88483000D01*
X139791000Y-88483000D02*
X139496800Y-88188800D01*
%TO.N,Net-(U1-VDD_SPI)*%
X142415000Y-91840500D02*
X142240000Y-92015500D01*
X142415000Y-90678000D02*
X142415000Y-91840500D01*
%TO.N,/D-*%
D43*
X146989800Y-90119200D02*
X146989800Y-89992200D01*
X146989800Y-89992200D02*
X146980600Y-89983000D01*
X146980600Y-89983000D02*
X146110000Y-89983000D01*
%TO.N,/D+*%
X146963200Y-89483000D02*
X146989800Y-89509600D01*
X146110000Y-89483000D02*
X146963200Y-89483000D01*
%TO.N,/Rx0*%
D42*
X146110000Y-88983000D02*
X146971200Y-88983000D01*
X146971200Y-88983000D02*
X147015200Y-89027000D01*
%TO.N,/Tx0*%
X146944800Y-88483000D02*
X147006200Y-88544400D01*
X146110000Y-88483000D02*
X146944800Y-88483000D01*
%TO.N,Net-(C11-Pad1)*%
X136025000Y-94411800D02*
X136025000Y-94996000D01*
X135331200Y-94411800D02*
X135305800Y-94437200D01*
X136025000Y-94411800D02*
X135331200Y-94411800D01*
X136025000Y-93751400D02*
X136025000Y-94411800D01*
%TO.N,Net-(U3-EL4)*%
X143941800Y-93389450D02*
X143236950Y-93389450D01*
X136601200Y-94386400D02*
X137160000Y-94945200D01*
X143236950Y-93389450D02*
X143027400Y-93599000D01*
X137160000Y-94945200D02*
X137160000Y-94996000D01*
%TO.N,Net-(U5-CAP)*%
X135660000Y-102707500D02*
X135695500Y-102743000D01*
X135660000Y-101473000D02*
X135660000Y-102707500D01*
%TO.N,Net-(U3-EL3A)*%
X137160000Y-93091000D02*
X137185400Y-93065600D01*
X137160000Y-93853000D02*
X137160000Y-93091000D01*
%TO.N,Net-(U3-VREF)*%
X144341800Y-93789500D02*
X144341800Y-93790270D01*
X144341800Y-93790270D02*
X144341795Y-93790275D01*
X137160000Y-96139000D02*
X137160000Y-96901000D01*
%TO.N,Net-(U2-EN)*%
X131987699Y-81213998D02*
X130673699Y-81213998D01*
%TO.N,Net-(U4-ISET)*%
X134455500Y-82892300D02*
X135026400Y-82321400D01*
X137769600Y-85293200D02*
X137769600Y-84328000D01*
X135026400Y-82321400D02*
X135559800Y-82321400D01*
X137769600Y-84328000D02*
X137541000Y-84099400D01*
X136798000Y-85490000D02*
X137572800Y-85490000D01*
X134455500Y-82931000D02*
X134455500Y-82892300D01*
X137572800Y-85490000D02*
X137769600Y-85293200D01*
%TD*%
%TA.AperFunction,Conductor*%
%TO.N,GND*%
G36*
X132006906Y-78556485D02*
G01*
X132052661Y-78609289D01*
X132062605Y-78678447D01*
X132033580Y-78742003D01*
X132027548Y-78748481D01*
X131998849Y-78777180D01*
X131937526Y-78810665D01*
X131911168Y-78813499D01*
X131467946Y-78813499D01*
X131409470Y-78825130D01*
X131393436Y-78835844D01*
X131383323Y-78842601D01*
X131316647Y-78863479D01*
X131314433Y-78863499D01*
X130811389Y-78863499D01*
X130721023Y-78887712D01*
X130721022Y-78887711D01*
X130696814Y-78894198D01*
X130696811Y-78894199D01*
X130594084Y-78953509D01*
X130376913Y-79170680D01*
X130315590Y-79204164D01*
X130289234Y-79206998D01*
X130225485Y-79206998D01*
X130176041Y-79214201D01*
X130155413Y-79217207D01*
X130155411Y-79217207D01*
X130155409Y-79217208D01*
X130155407Y-79217208D01*
X130047326Y-79270046D01*
X130047323Y-79270048D01*
X129962249Y-79355122D01*
X129962247Y-79355125D01*
X129909409Y-79463208D01*
X129909408Y-79463210D01*
X129909408Y-79463212D01*
X129899199Y-79533283D01*
X129899199Y-79533287D01*
X129899199Y-79533288D01*
X129899199Y-79996711D01*
X129905353Y-80038951D01*
X129909408Y-80066784D01*
X129909408Y-80066785D01*
X129909409Y-80066787D01*
X129909409Y-80066789D01*
X129962247Y-80174870D01*
X129962249Y-80174873D01*
X130047324Y-80259948D01*
X130049615Y-80261584D01*
X130051996Y-80264620D01*
X130054589Y-80267213D01*
X130054275Y-80267526D01*
X130092734Y-80316562D01*
X130099286Y-80386123D01*
X130067189Y-80448184D01*
X130049615Y-80463412D01*
X130047324Y-80465047D01*
X129962249Y-80550122D01*
X129962247Y-80550125D01*
X129909409Y-80658208D01*
X129909408Y-80658210D01*
X129909408Y-80658212D01*
X129899199Y-80728283D01*
X129899199Y-80728287D01*
X129899199Y-80728288D01*
X129899199Y-81191711D01*
X129900395Y-81199917D01*
X129909408Y-81261784D01*
X129909408Y-81261785D01*
X129909409Y-81261787D01*
X129909409Y-81261789D01*
X129962247Y-81369870D01*
X129962249Y-81369873D01*
X130022995Y-81430619D01*
X130056480Y-81491942D01*
X130051496Y-81561634D01*
X130009624Y-81617567D01*
X129944160Y-81641984D01*
X129935314Y-81642300D01*
X129751391Y-81642300D01*
X129661025Y-81666513D01*
X129661024Y-81666512D01*
X129636816Y-81672999D01*
X129636813Y-81673000D01*
X129534086Y-81732311D01*
X129534083Y-81732313D01*
X128755216Y-82511181D01*
X128693893Y-82544666D01*
X128667535Y-82547500D01*
X128599258Y-82547500D01*
X128553192Y-82554211D01*
X128530157Y-82557567D01*
X128423569Y-82609676D01*
X128423568Y-82609678D01*
X128339678Y-82693568D01*
X128339676Y-82693569D01*
X128287567Y-82800157D01*
X128287567Y-82800160D01*
X128277500Y-82869258D01*
X128277500Y-83246742D01*
X128283445Y-83287549D01*
X128287567Y-83315842D01*
X128339676Y-83422430D01*
X128423569Y-83506323D01*
X128530157Y-83558432D01*
X128530158Y-83558432D01*
X128530160Y-83558433D01*
X128599258Y-83568500D01*
X128599264Y-83568500D01*
X129091736Y-83568500D01*
X129091742Y-83568500D01*
X129160840Y-83558433D01*
X129267429Y-83506324D01*
X129267430Y-83506323D01*
X129267432Y-83506322D01*
X129325319Y-83448435D01*
X129386642Y-83414950D01*
X129456334Y-83419934D01*
X129500681Y-83448435D01*
X129558569Y-83506323D01*
X129665157Y-83558432D01*
X129665158Y-83558432D01*
X129665160Y-83558433D01*
X129734258Y-83568500D01*
X129837987Y-83568500D01*
X129905026Y-83588185D01*
X129950781Y-83640989D01*
X129960725Y-83710147D01*
X129949387Y-83746961D01*
X129918709Y-83809711D01*
X129918709Y-83809714D01*
X129908500Y-83879785D01*
X129908500Y-83879789D01*
X129908500Y-83879790D01*
X129908500Y-84268213D01*
X129912303Y-84294312D01*
X129918709Y-84338286D01*
X129918709Y-84338287D01*
X129918710Y-84338289D01*
X129918710Y-84338291D01*
X129971548Y-84446372D01*
X129971550Y-84446375D01*
X130056623Y-84531448D01*
X130056624Y-84531448D01*
X130056625Y-84531449D01*
X130096460Y-84550923D01*
X130148042Y-84598051D01*
X130162911Y-84651269D01*
X130164939Y-84651003D01*
X130165999Y-84659059D01*
X130186479Y-84735490D01*
X130186482Y-84735495D01*
X130226035Y-84804004D01*
X130226039Y-84804009D01*
X130226040Y-84804011D01*
X130574689Y-85152660D01*
X130626374Y-85182500D01*
X130644203Y-85192793D01*
X130669885Y-85212500D01*
X131006181Y-85548796D01*
X131039666Y-85610119D01*
X131042500Y-85636477D01*
X131042500Y-87634000D01*
X131059752Y-87675650D01*
X131077034Y-87717370D01*
X131077034Y-87717372D01*
X131084440Y-87735253D01*
X131084442Y-87735256D01*
X131084443Y-87735258D01*
X131084445Y-87735260D01*
X131874342Y-88525158D01*
X131874344Y-88525160D01*
X131940806Y-88552688D01*
X131975600Y-88567100D01*
X132045736Y-88567100D01*
X132112775Y-88586785D01*
X132158530Y-88639589D01*
X132168474Y-88708747D01*
X132147436Y-88758691D01*
X132148403Y-88759250D01*
X132104782Y-88834804D01*
X132104779Y-88834809D01*
X132098384Y-88858677D01*
X132084300Y-88911238D01*
X132084300Y-89599962D01*
X132087985Y-89613716D01*
X132088331Y-89615004D01*
X132086670Y-89684854D01*
X132047509Y-89742717D01*
X131983281Y-89770223D01*
X131968557Y-89771100D01*
X131963308Y-89771100D01*
X131836012Y-89805208D01*
X131721886Y-89871100D01*
X131721883Y-89871102D01*
X131628702Y-89964283D01*
X131628700Y-89964286D01*
X131562808Y-90078412D01*
X131550483Y-90124411D01*
X131528700Y-90205708D01*
X131528700Y-90337492D01*
X131534455Y-90358969D01*
X131562808Y-90464787D01*
X131588739Y-90509700D01*
X131628700Y-90578914D01*
X131721886Y-90672100D01*
X131836014Y-90737992D01*
X131963308Y-90772100D01*
X131963310Y-90772100D01*
X132095090Y-90772100D01*
X132095092Y-90772100D01*
X132222386Y-90737992D01*
X132336514Y-90672100D01*
X132380194Y-90628420D01*
X132407121Y-90613716D01*
X132432940Y-90597124D01*
X132439140Y-90596232D01*
X132441517Y-90594935D01*
X132467875Y-90592101D01*
X132494503Y-90592101D01*
X132561542Y-90611786D01*
X132607297Y-90664590D01*
X132618503Y-90716101D01*
X132618503Y-90867099D01*
X132598818Y-90934138D01*
X132546014Y-90979893D01*
X132494503Y-90991099D01*
X132392039Y-90991099D01*
X132353825Y-91001338D01*
X132315610Y-91011578D01*
X132283472Y-91030134D01*
X132267402Y-91039412D01*
X132267400Y-91039412D01*
X132267400Y-91039413D01*
X132247093Y-91051136D01*
X132247088Y-91051140D01*
X130823541Y-92474687D01*
X130823535Y-92474695D01*
X130783982Y-92543204D01*
X130783979Y-92543209D01*
X130777686Y-92566695D01*
X130765532Y-92612057D01*
X130763500Y-92619639D01*
X130763500Y-94566167D01*
X130743815Y-94633206D01*
X130727181Y-94653848D01*
X130226041Y-95154987D01*
X130226037Y-95154992D01*
X130194498Y-95209621D01*
X130143931Y-95257836D01*
X130141573Y-95259021D01*
X130056623Y-95300551D01*
X129971550Y-95385624D01*
X129971548Y-95385627D01*
X129918710Y-95493710D01*
X129918709Y-95493712D01*
X129918709Y-95493714D01*
X129908500Y-95563785D01*
X129908500Y-95563789D01*
X129908500Y-95563790D01*
X129908500Y-95952213D01*
X129913601Y-95987221D01*
X129918709Y-96022286D01*
X129918709Y-96022287D01*
X129918710Y-96022289D01*
X129918710Y-96022291D01*
X129971548Y-96130372D01*
X129971550Y-96130375D01*
X129974856Y-96133681D01*
X130008341Y-96195004D01*
X130003357Y-96264696D01*
X129961485Y-96320629D01*
X129919270Y-96341136D01*
X129854815Y-96358407D01*
X129854814Y-96358407D01*
X129740686Y-96424300D01*
X129740683Y-96424302D01*
X129647502Y-96517483D01*
X129647500Y-96517486D01*
X129581608Y-96631612D01*
X129547500Y-96758908D01*
X129547500Y-96890692D01*
X129548042Y-96892713D01*
X129581608Y-97017987D01*
X129600990Y-97051557D01*
X129647500Y-97132114D01*
X129740686Y-97225300D01*
X129854814Y-97291192D01*
X129982108Y-97325300D01*
X129982110Y-97325300D01*
X130113890Y-97325300D01*
X130113892Y-97325300D01*
X130241186Y-97291192D01*
X130355314Y-97225300D01*
X130448500Y-97132114D01*
X130514392Y-97017986D01*
X130548500Y-96890692D01*
X130548500Y-96758908D01*
X130514392Y-96631614D01*
X130448500Y-96517486D01*
X130421194Y-96490180D01*
X130387709Y-96428857D01*
X130392693Y-96359165D01*
X130434565Y-96303232D01*
X130500029Y-96278815D01*
X130508863Y-96278499D01*
X130698214Y-96278499D01*
X130768286Y-96268291D01*
X130768290Y-96268289D01*
X130768291Y-96268289D01*
X130876372Y-96215451D01*
X130876375Y-96215449D01*
X130961449Y-96130375D01*
X130961451Y-96130372D01*
X130990553Y-96070842D01*
X131014291Y-96022286D01*
X131024500Y-95952215D01*
X131024499Y-95563786D01*
X131014291Y-95493714D01*
X131014289Y-95493709D01*
X131014289Y-95493708D01*
X130962211Y-95387181D01*
X130950451Y-95318308D01*
X130977795Y-95254011D01*
X130985930Y-95245040D01*
X131093699Y-95137271D01*
X131304460Y-94926511D01*
X131344022Y-94857988D01*
X131364500Y-94781562D01*
X131364500Y-94702438D01*
X131364500Y-92835033D01*
X131384185Y-92767994D01*
X131400819Y-92747352D01*
X132406766Y-91741405D01*
X132468089Y-91707920D01*
X132537781Y-91712904D01*
X132593714Y-91754776D01*
X132618131Y-91820240D01*
X132618447Y-91829086D01*
X132618447Y-92261326D01*
X132630078Y-92319803D01*
X132630079Y-92319804D01*
X132674394Y-92386126D01*
X132740716Y-92430441D01*
X132740717Y-92430442D01*
X132799194Y-92442073D01*
X132799197Y-92442074D01*
X132799199Y-92442074D01*
X133988809Y-92442074D01*
X133988810Y-92442073D01*
X134012144Y-92437432D01*
X134047288Y-92430442D01*
X134047288Y-92430441D01*
X134047290Y-92430441D01*
X134113611Y-92386126D01*
X134113613Y-92386122D01*
X134114913Y-92384823D01*
X134118463Y-92382884D01*
X134123766Y-92379341D01*
X134124082Y-92379815D01*
X134141848Y-92370113D01*
X134167664Y-92353523D01*
X134173859Y-92352632D01*
X134176235Y-92351335D01*
X134202599Y-92348500D01*
X134330260Y-92348500D01*
X134392260Y-92365113D01*
X134416904Y-92379341D01*
X134477614Y-92414392D01*
X134604908Y-92448500D01*
X134604910Y-92448500D01*
X134736690Y-92448500D01*
X134736692Y-92448500D01*
X134863986Y-92414392D01*
X134978114Y-92348500D01*
X135071300Y-92255314D01*
X135137192Y-92141186D01*
X135171300Y-92013892D01*
X135171300Y-91882108D01*
X135137192Y-91754814D01*
X135071300Y-91640686D01*
X134978114Y-91547500D01*
X134921050Y-91514554D01*
X134863987Y-91481608D01*
X134785138Y-91460481D01*
X134736692Y-91447500D01*
X134604908Y-91447500D01*
X134477614Y-91481608D01*
X134477613Y-91481608D01*
X134477611Y-91481609D01*
X134477610Y-91481609D01*
X134392260Y-91530887D01*
X134376771Y-91535037D01*
X134365195Y-91542477D01*
X134330260Y-91547500D01*
X134293503Y-91547500D01*
X134226464Y-91527815D01*
X134180709Y-91475011D01*
X134169503Y-91423500D01*
X134169503Y-91264269D01*
X134189188Y-91197230D01*
X134241992Y-91151475D01*
X134311150Y-91141531D01*
X134325590Y-91144492D01*
X134452508Y-91178500D01*
X134452510Y-91178500D01*
X134584290Y-91178500D01*
X134584292Y-91178500D01*
X134711586Y-91144392D01*
X134825714Y-91078500D01*
X134918900Y-90985314D01*
X134984792Y-90871186D01*
X135018900Y-90743892D01*
X135018900Y-90612108D01*
X134984792Y-90484814D01*
X134983795Y-90483088D01*
X134960362Y-90442500D01*
X134918900Y-90370686D01*
X134855218Y-90307004D01*
X134821734Y-90245680D01*
X134818900Y-90219323D01*
X134818900Y-89978039D01*
X134818900Y-89978038D01*
X134812911Y-89955687D01*
X134814572Y-89885839D01*
X134853733Y-89827976D01*
X134900589Y-89803819D01*
X135016386Y-89772792D01*
X135130514Y-89706900D01*
X135223700Y-89613714D01*
X135289592Y-89499586D01*
X135323700Y-89372292D01*
X135323700Y-89240508D01*
X135289592Y-89113214D01*
X135223700Y-88999086D01*
X135130514Y-88905900D01*
X135048722Y-88858677D01*
X135016387Y-88840008D01*
X134952739Y-88822954D01*
X134889092Y-88805900D01*
X134757308Y-88805900D01*
X134630012Y-88840008D01*
X134515886Y-88905900D01*
X134515883Y-88905902D01*
X134452205Y-88969581D01*
X134425277Y-88984284D01*
X134399459Y-89000877D01*
X134393258Y-89001768D01*
X134390882Y-89003066D01*
X134364524Y-89005900D01*
X134293503Y-89005900D01*
X134226464Y-88986215D01*
X134180709Y-88933411D01*
X134169503Y-88881900D01*
X134169503Y-88621848D01*
X134158352Y-88565791D01*
X134158352Y-88517407D01*
X134160522Y-88506501D01*
X134168019Y-88468810D01*
X134169503Y-88461350D01*
X134169503Y-88121849D01*
X134158352Y-88065792D01*
X134158352Y-88017408D01*
X134158390Y-88017220D01*
X134162528Y-87996415D01*
X134169503Y-87961351D01*
X134169503Y-87666100D01*
X134189188Y-87599061D01*
X134241992Y-87553306D01*
X134293503Y-87542100D01*
X134500725Y-87542100D01*
X134500727Y-87542100D01*
X134602588Y-87514807D01*
X134693913Y-87462080D01*
X134916711Y-87239281D01*
X134916713Y-87239280D01*
X134991280Y-87164713D01*
X135029226Y-87098989D01*
X135044007Y-87073388D01*
X135071300Y-86971527D01*
X135071300Y-86866073D01*
X135071300Y-85440505D01*
X135076927Y-85421340D01*
X135077635Y-85401377D01*
X135086570Y-85388500D01*
X135090985Y-85373466D01*
X135106078Y-85360387D01*
X135117468Y-85343974D01*
X135141456Y-85329732D01*
X135143789Y-85327711D01*
X135147817Y-85325956D01*
X135149332Y-85325328D01*
X135218800Y-85317841D01*
X135281287Y-85349100D01*
X135316589Y-85407781D01*
X135330578Y-85459986D01*
X135330579Y-85459989D01*
X135362415Y-85515131D01*
X135370140Y-85528511D01*
X135516140Y-85674511D01*
X135572089Y-85730460D01*
X135572091Y-85730461D01*
X135572095Y-85730464D01*
X135604345Y-85749083D01*
X135640611Y-85770021D01*
X135717038Y-85790500D01*
X135948500Y-85790500D01*
X136015539Y-85810185D01*
X136061294Y-85862989D01*
X136070200Y-85890727D01*
X136072500Y-85902501D01*
X136072500Y-85932853D01*
X136094381Y-86014515D01*
X136095200Y-86018707D01*
X136094856Y-86022400D01*
X136097500Y-86042480D01*
X136097500Y-86526562D01*
X136103121Y-86547539D01*
X136117979Y-86602991D01*
X136117981Y-86602994D01*
X136146713Y-86652758D01*
X136146714Y-86652759D01*
X136148662Y-86656133D01*
X136157542Y-86671514D01*
X136730069Y-87244041D01*
X136763554Y-87305364D01*
X136758570Y-87375056D01*
X136753789Y-87386182D01*
X136701709Y-87492712D01*
X136701709Y-87492714D01*
X136691500Y-87562785D01*
X136691500Y-87562789D01*
X136691500Y-87562790D01*
X136691500Y-87951213D01*
X136697654Y-87993453D01*
X136701709Y-88021286D01*
X136701709Y-88021287D01*
X136701710Y-88021289D01*
X136701710Y-88021291D01*
X136754548Y-88129372D01*
X136754550Y-88129375D01*
X136839624Y-88214449D01*
X136839627Y-88214451D01*
X136922611Y-88255019D01*
X136947714Y-88267291D01*
X137017785Y-88277500D01*
X137394545Y-88277499D01*
X137461584Y-88297183D01*
X137507339Y-88349987D01*
X137517283Y-88419146D01*
X137488258Y-88482701D01*
X137449006Y-88512899D01*
X137333125Y-88569550D01*
X137333124Y-88569550D01*
X137248050Y-88654624D01*
X137248048Y-88654627D01*
X137195210Y-88762710D01*
X137195209Y-88762712D01*
X137195209Y-88762714D01*
X137185000Y-88832785D01*
X137185000Y-88832789D01*
X137185000Y-88832790D01*
X137185000Y-89221213D01*
X137191154Y-89263453D01*
X137195209Y-89291286D01*
X137195209Y-89291287D01*
X137195210Y-89291289D01*
X137195210Y-89291291D01*
X137248048Y-89399372D01*
X137248050Y-89399375D01*
X137333122Y-89484447D01*
X137338153Y-89488039D01*
X137381276Y-89543014D01*
X137387832Y-89612575D01*
X137355740Y-89674638D01*
X137320564Y-89700357D01*
X137295628Y-89712547D01*
X137295624Y-89712550D01*
X137210550Y-89797624D01*
X137210548Y-89797627D01*
X137157710Y-89905710D01*
X137157709Y-89905712D01*
X137157709Y-89905714D01*
X137147500Y-89975785D01*
X137147500Y-89975790D01*
X137147500Y-90110243D01*
X137127815Y-90177282D01*
X137111182Y-90197924D01*
X136991919Y-90317188D01*
X136991918Y-90317190D01*
X136939192Y-90408513D01*
X136939191Y-90408515D01*
X136932986Y-90431676D01*
X136932986Y-90431678D01*
X136911900Y-90510373D01*
X136911900Y-91883145D01*
X136892215Y-91950184D01*
X136875581Y-91970826D01*
X136624026Y-92222381D01*
X136562703Y-92255866D01*
X136536345Y-92258700D01*
X135761073Y-92258700D01*
X135659213Y-92285993D01*
X135659212Y-92285993D01*
X135659210Y-92285994D01*
X135659209Y-92285994D01*
X135581537Y-92330839D01*
X135581536Y-92330838D01*
X135567892Y-92338716D01*
X135567884Y-92338722D01*
X134020122Y-93886484D01*
X134020120Y-93886487D01*
X133967393Y-93977812D01*
X133947631Y-94051565D01*
X133940100Y-94079673D01*
X133940100Y-95832273D01*
X133940100Y-95937727D01*
X133948208Y-95967987D01*
X133967393Y-96039589D01*
X133985579Y-96071087D01*
X134020120Y-96130913D01*
X134020122Y-96130915D01*
X134574716Y-96685509D01*
X134608201Y-96746832D01*
X134603217Y-96816524D01*
X134561345Y-96872457D01*
X134527323Y-96888985D01*
X134527579Y-96889603D01*
X134520069Y-96892713D01*
X134431030Y-96944119D01*
X134431025Y-96944123D01*
X134358323Y-97016825D01*
X134358319Y-97016830D01*
X134306913Y-97105869D01*
X134306912Y-97105872D01*
X134280300Y-97205190D01*
X134280300Y-97308010D01*
X134305235Y-97401067D01*
X134306912Y-97407327D01*
X134306914Y-97407332D01*
X134316538Y-97424002D01*
X134333009Y-97491902D01*
X134310156Y-97557929D01*
X134255234Y-97601118D01*
X134209150Y-97610000D01*
X134013247Y-97610000D01*
X133954770Y-97621631D01*
X133954769Y-97621632D01*
X133888447Y-97665947D01*
X133844132Y-97732269D01*
X133844131Y-97732270D01*
X133832500Y-97790747D01*
X133832500Y-98505252D01*
X133844131Y-98563729D01*
X133844132Y-98563730D01*
X133888447Y-98630052D01*
X133954769Y-98674367D01*
X133954770Y-98674368D01*
X134013247Y-98685999D01*
X134013250Y-98686000D01*
X134013252Y-98686000D01*
X134306750Y-98686000D01*
X134306751Y-98685999D01*
X134321485Y-98683068D01*
X134377210Y-98671985D01*
X134377583Y-98673862D01*
X134432014Y-98668010D01*
X134451352Y-98673688D01*
X134513247Y-98685999D01*
X134513250Y-98686000D01*
X134513252Y-98686000D01*
X134806750Y-98686000D01*
X134806751Y-98685999D01*
X134821485Y-98683068D01*
X134877210Y-98671985D01*
X134877583Y-98673862D01*
X134932014Y-98668010D01*
X134951352Y-98673688D01*
X135013247Y-98685999D01*
X135013250Y-98686000D01*
X135013252Y-98686000D01*
X135306750Y-98686000D01*
X135306751Y-98685999D01*
X135321485Y-98683068D01*
X135377210Y-98671985D01*
X135377583Y-98673862D01*
X135432014Y-98668010D01*
X135451352Y-98673688D01*
X135513247Y-98685999D01*
X135513250Y-98686000D01*
X135513252Y-98686000D01*
X135806750Y-98686000D01*
X135806751Y-98685999D01*
X135821568Y-98683052D01*
X135865229Y-98674368D01*
X135865229Y-98674367D01*
X135865231Y-98674367D01*
X135931552Y-98630052D01*
X135975867Y-98563731D01*
X135975867Y-98563729D01*
X135975868Y-98563729D01*
X135987499Y-98505252D01*
X135987500Y-98505250D01*
X135987500Y-97915500D01*
X135990050Y-97906814D01*
X135988762Y-97897853D01*
X135999740Y-97873812D01*
X136007185Y-97848461D01*
X136014025Y-97842533D01*
X136017787Y-97834297D01*
X136040021Y-97820007D01*
X136059989Y-97802706D01*
X136070503Y-97800418D01*
X136076565Y-97796523D01*
X136111500Y-97791500D01*
X136208500Y-97791500D01*
X136275539Y-97811185D01*
X136321294Y-97863989D01*
X136332500Y-97915500D01*
X136332500Y-98505252D01*
X136344131Y-98563729D01*
X136344132Y-98563730D01*
X136388447Y-98630052D01*
X136454769Y-98674367D01*
X136454770Y-98674368D01*
X136513247Y-98685999D01*
X136513250Y-98686000D01*
X136513252Y-98686000D01*
X136806750Y-98686000D01*
X136806751Y-98685999D01*
X136821485Y-98683068D01*
X136877210Y-98671985D01*
X136877583Y-98673862D01*
X136932014Y-98668010D01*
X136951352Y-98673688D01*
X137013247Y-98685999D01*
X137013250Y-98686000D01*
X137013252Y-98686000D01*
X137306750Y-98686000D01*
X137306751Y-98685999D01*
X137321485Y-98683068D01*
X137377210Y-98671985D01*
X137377583Y-98673862D01*
X137432014Y-98668010D01*
X137451352Y-98673688D01*
X137513247Y-98685999D01*
X137513250Y-98686000D01*
X137513252Y-98686000D01*
X137806750Y-98686000D01*
X137806751Y-98685999D01*
X137821485Y-98683068D01*
X137877210Y-98671985D01*
X137877439Y-98673139D01*
X137920042Y-98666447D01*
X137946082Y-98668562D01*
X137954769Y-98674367D01*
X138013252Y-98686000D01*
X138160700Y-98686000D01*
X138165709Y-98686407D01*
X138193823Y-98697204D01*
X138222706Y-98705685D01*
X138226096Y-98709598D01*
X138230934Y-98711456D01*
X138248747Y-98735738D01*
X138268461Y-98758489D01*
X138269198Y-98763615D01*
X138272262Y-98767792D01*
X138274119Y-98797844D01*
X138278405Y-98827647D01*
X138276411Y-98834914D01*
X138276573Y-98837529D01*
X138274846Y-98840620D01*
X138271936Y-98851227D01*
X138259500Y-98913747D01*
X138259500Y-99207252D01*
X138271131Y-99265729D01*
X138271132Y-99265730D01*
X138315447Y-99332052D01*
X138381769Y-99376367D01*
X138381770Y-99376368D01*
X138440247Y-99387999D01*
X138440250Y-99388000D01*
X138440252Y-99388000D01*
X139154750Y-99388000D01*
X139154751Y-99387999D01*
X139169568Y-99385052D01*
X139213229Y-99376368D01*
X139224513Y-99371694D01*
X139226008Y-99375304D01*
X139271640Y-99361020D01*
X139273845Y-99361000D01*
X140475660Y-99361000D01*
X140475662Y-99361000D01*
X140552089Y-99340521D01*
X140620611Y-99300960D01*
X140676560Y-99245011D01*
X141192381Y-98729190D01*
X145532500Y-98729190D01*
X145532500Y-98832009D01*
X145559112Y-98931327D01*
X145559113Y-98931330D01*
X145610519Y-99020369D01*
X145610521Y-99020372D01*
X145610522Y-99020373D01*
X145683227Y-99093078D01*
X145772272Y-99144488D01*
X145871590Y-99171100D01*
X145871592Y-99171100D01*
X145974408Y-99171100D01*
X145974410Y-99171100D01*
X146073728Y-99144488D01*
X146162773Y-99093078D01*
X146235478Y-99020373D01*
X146286888Y-98931328D01*
X146313500Y-98832010D01*
X146313500Y-98729190D01*
X146286888Y-98629872D01*
X146261183Y-98585349D01*
X146235480Y-98540830D01*
X146235476Y-98540825D01*
X146162774Y-98468123D01*
X146162769Y-98468119D01*
X146073730Y-98416713D01*
X146073729Y-98416712D01*
X146073728Y-98416712D01*
X145974410Y-98390100D01*
X145871590Y-98390100D01*
X145772272Y-98416712D01*
X145772269Y-98416713D01*
X145683230Y-98468119D01*
X145683225Y-98468123D01*
X145610523Y-98540825D01*
X145610519Y-98540830D01*
X145559113Y-98629869D01*
X145559112Y-98629872D01*
X145532500Y-98729190D01*
X141192381Y-98729190D01*
X141763881Y-98157690D01*
X144046600Y-98157690D01*
X144046600Y-98260510D01*
X144071031Y-98351686D01*
X144073212Y-98359827D01*
X144073213Y-98359830D01*
X144124619Y-98448869D01*
X144124621Y-98448872D01*
X144124622Y-98448873D01*
X144197327Y-98521578D01*
X144197328Y-98521579D01*
X144197330Y-98521580D01*
X144239795Y-98546097D01*
X144286372Y-98572988D01*
X144385690Y-98599600D01*
X144385692Y-98599600D01*
X144488508Y-98599600D01*
X144488510Y-98599600D01*
X144587828Y-98572988D01*
X144676873Y-98521578D01*
X144749578Y-98448873D01*
X144800988Y-98359828D01*
X144827600Y-98260510D01*
X144827600Y-98157690D01*
X144800988Y-98058372D01*
X144771536Y-98007360D01*
X144749580Y-97969330D01*
X144749576Y-97969325D01*
X144676874Y-97896623D01*
X144676869Y-97896619D01*
X144587830Y-97845213D01*
X144587829Y-97845212D01*
X144587828Y-97845212D01*
X144488510Y-97818600D01*
X144385690Y-97818600D01*
X144286372Y-97845212D01*
X144286369Y-97845213D01*
X144197330Y-97896619D01*
X144197325Y-97896623D01*
X144124623Y-97969325D01*
X144124619Y-97969330D01*
X144073213Y-98058369D01*
X144073212Y-98058372D01*
X144046600Y-98157690D01*
X141763881Y-98157690D01*
X141769260Y-98152311D01*
X141777283Y-98138414D01*
X141808821Y-98083789D01*
X141829300Y-98007362D01*
X141829300Y-96182500D01*
X141831850Y-96173814D01*
X141830562Y-96164853D01*
X141841540Y-96140812D01*
X141848985Y-96115461D01*
X141855825Y-96109533D01*
X141859587Y-96101297D01*
X141881821Y-96087007D01*
X141901789Y-96069706D01*
X141912303Y-96067418D01*
X141918365Y-96063523D01*
X141953300Y-96058500D01*
X142085042Y-96058500D01*
X142131370Y-96070842D01*
X142132558Y-96067976D01*
X142140067Y-96071085D01*
X142140072Y-96071088D01*
X142239390Y-96097700D01*
X142239392Y-96097700D01*
X142342208Y-96097700D01*
X142342210Y-96097700D01*
X142441528Y-96071088D01*
X142522545Y-96024313D01*
X142584545Y-96007700D01*
X144692560Y-96007700D01*
X144692562Y-96007700D01*
X144768989Y-95987221D01*
X144837511Y-95947660D01*
X144893460Y-95891711D01*
X144896019Y-95889152D01*
X144957342Y-95855667D01*
X145027034Y-95860651D01*
X145082967Y-95902523D01*
X145107384Y-95967987D01*
X145107700Y-95976833D01*
X145107700Y-95976958D01*
X145107700Y-96469442D01*
X145111262Y-96493890D01*
X145117767Y-96538542D01*
X145169876Y-96645130D01*
X145227765Y-96703019D01*
X145261250Y-96764342D01*
X145256266Y-96834034D01*
X145227765Y-96878381D01*
X145169878Y-96936268D01*
X145169876Y-96936269D01*
X145117767Y-97042857D01*
X145115605Y-97057700D01*
X145107700Y-97111958D01*
X145107700Y-97604442D01*
X145111701Y-97631904D01*
X145117767Y-97673542D01*
X145169876Y-97780130D01*
X145253769Y-97864023D01*
X145360357Y-97916132D01*
X145360358Y-97916132D01*
X145360360Y-97916133D01*
X145429458Y-97926200D01*
X145429464Y-97926200D01*
X145806936Y-97926200D01*
X145806942Y-97926200D01*
X145876040Y-97916133D01*
X145982629Y-97864024D01*
X145982630Y-97864023D01*
X145982632Y-97864022D01*
X146066522Y-97780132D01*
X146066524Y-97780128D01*
X146075263Y-97762254D01*
X146088873Y-97734413D01*
X146136001Y-97682831D01*
X146203535Y-97664917D01*
X146270033Y-97686358D01*
X146311672Y-97734411D01*
X146338276Y-97788829D01*
X146338277Y-97788830D01*
X146338278Y-97788832D01*
X146422169Y-97872723D01*
X146422170Y-97872723D01*
X146422171Y-97872724D01*
X146528760Y-97924833D01*
X146563853Y-97929945D01*
X146627354Y-97959089D01*
X146665018Y-98017938D01*
X146665606Y-98071315D01*
X146668161Y-98071652D01*
X146667100Y-98079710D01*
X146667100Y-98211491D01*
X146701208Y-98338787D01*
X146728420Y-98385919D01*
X146767100Y-98452914D01*
X146860286Y-98546100D01*
X146974414Y-98611992D01*
X147101708Y-98646100D01*
X147101710Y-98646100D01*
X147233490Y-98646100D01*
X147233492Y-98646100D01*
X147360786Y-98611992D01*
X147474914Y-98546100D01*
X147568100Y-98452914D01*
X147633992Y-98338786D01*
X147668100Y-98211492D01*
X147668100Y-98079708D01*
X147633992Y-97952414D01*
X147568100Y-97838286D01*
X147502403Y-97772589D01*
X147471427Y-97715859D01*
X147470203Y-97716188D01*
X147463877Y-97692578D01*
X147447621Y-97631911D01*
X147442375Y-97622825D01*
X147408064Y-97563395D01*
X147408058Y-97563387D01*
X147333419Y-97488748D01*
X147299934Y-97427425D01*
X147297100Y-97401067D01*
X147297100Y-97120663D01*
X147297100Y-97120658D01*
X147287033Y-97051560D01*
X147284520Y-97046420D01*
X147234923Y-96944969D01*
X147177035Y-96887081D01*
X147143550Y-96825758D01*
X147148534Y-96756066D01*
X147177035Y-96711719D01*
X147234922Y-96653832D01*
X147234923Y-96653830D01*
X147234924Y-96653829D01*
X147287033Y-96547240D01*
X147297100Y-96478142D01*
X147297100Y-96197733D01*
X147316785Y-96130694D01*
X147333419Y-96110052D01*
X147421185Y-96022286D01*
X147509660Y-95933811D01*
X147524643Y-95907860D01*
X147549221Y-95865289D01*
X147569700Y-95788862D01*
X147569700Y-92289438D01*
X147549221Y-92213011D01*
X147529295Y-92178498D01*
X147509664Y-92144495D01*
X147509658Y-92144487D01*
X147275912Y-91910741D01*
X147275911Y-91910740D01*
X147256463Y-91899512D01*
X147256463Y-91899510D01*
X147256460Y-91899510D01*
X147207394Y-91871181D01*
X147207391Y-91871179D01*
X147169175Y-91860939D01*
X147130962Y-91850700D01*
X144232438Y-91850700D01*
X144201867Y-91858891D01*
X144156008Y-91871179D01*
X144156007Y-91871180D01*
X144106938Y-91899511D01*
X144106937Y-91899512D01*
X144087490Y-91910739D01*
X144087487Y-91910741D01*
X143701341Y-92296887D01*
X143701335Y-92296895D01*
X143661782Y-92365404D01*
X143661779Y-92365409D01*
X143648655Y-92414390D01*
X143642482Y-92437429D01*
X143641300Y-92441839D01*
X143641300Y-92829196D01*
X143638918Y-92853384D01*
X143637211Y-92861963D01*
X143636619Y-92862990D01*
X143614300Y-92946284D01*
X143614300Y-92977161D01*
X143611918Y-92989138D01*
X143601156Y-93009712D01*
X143594615Y-93031989D01*
X143585267Y-93040088D01*
X143579534Y-93051050D01*
X143559356Y-93062540D01*
X143541811Y-93077744D01*
X143527002Y-93080965D01*
X143518819Y-93085626D01*
X143508195Y-93085056D01*
X143490300Y-93088950D01*
X143197388Y-93088950D01*
X143166817Y-93097141D01*
X143120958Y-93109429D01*
X143120957Y-93109430D01*
X143087208Y-93128915D01*
X143087201Y-93128920D01*
X143079430Y-93133407D01*
X143052439Y-93148990D01*
X143017478Y-93183950D01*
X143011765Y-93188460D01*
X142992415Y-93196245D01*
X142967036Y-93210899D01*
X142876670Y-93235112D01*
X142876669Y-93235113D01*
X142787630Y-93286519D01*
X142787625Y-93286523D01*
X142714923Y-93359225D01*
X142714919Y-93359230D01*
X142663513Y-93448269D01*
X142663512Y-93448272D01*
X142636900Y-93547590D01*
X142636900Y-93650410D01*
X142659018Y-93732959D01*
X142657356Y-93802806D01*
X142618194Y-93860669D01*
X142553965Y-93888173D01*
X142539244Y-93889050D01*
X141940088Y-93889050D01*
X141863660Y-93909528D01*
X141795139Y-93949090D01*
X141795136Y-93949092D01*
X140805648Y-94938581D01*
X140744325Y-94972066D01*
X140717967Y-94974900D01*
X139231745Y-94974900D01*
X139169745Y-94958287D01*
X139088730Y-94911513D01*
X139088729Y-94911512D01*
X139088728Y-94911512D01*
X138989410Y-94884900D01*
X138886590Y-94884900D01*
X138787272Y-94911512D01*
X138787269Y-94911513D01*
X138698230Y-94962919D01*
X138698225Y-94962923D01*
X138625523Y-95035625D01*
X138625519Y-95035630D01*
X138574113Y-95124669D01*
X138574112Y-95124672D01*
X138547500Y-95223990D01*
X138547500Y-95326810D01*
X138569812Y-95410078D01*
X138574112Y-95426127D01*
X138574113Y-95426130D01*
X138625519Y-95515169D01*
X138625521Y-95515172D01*
X138625522Y-95515173D01*
X138698227Y-95587878D01*
X138698228Y-95587879D01*
X138698230Y-95587880D01*
X138740884Y-95612506D01*
X138787272Y-95639288D01*
X138886590Y-95665900D01*
X138886592Y-95665900D01*
X138989408Y-95665900D01*
X138989410Y-95665900D01*
X139088728Y-95639288D01*
X139169745Y-95592513D01*
X139231745Y-95575900D01*
X139491184Y-95575900D01*
X139558223Y-95595585D01*
X139603978Y-95648389D01*
X139613922Y-95717547D01*
X139584897Y-95781103D01*
X139578865Y-95787581D01*
X139556478Y-95809968D01*
X139556476Y-95809969D01*
X139504367Y-95916557D01*
X139504367Y-95916560D01*
X139494300Y-95985658D01*
X139494300Y-96478142D01*
X139497985Y-96503432D01*
X139504367Y-96547242D01*
X139556476Y-96653830D01*
X139640369Y-96737723D01*
X139746957Y-96789832D01*
X139746958Y-96789832D01*
X139746960Y-96789833D01*
X139816058Y-96799900D01*
X139816064Y-96799900D01*
X140193536Y-96799900D01*
X140193542Y-96799900D01*
X140262640Y-96789833D01*
X140369229Y-96737724D01*
X140369230Y-96737723D01*
X140369232Y-96737722D01*
X140432419Y-96674535D01*
X140493742Y-96641050D01*
X140563434Y-96646034D01*
X140619367Y-96687906D01*
X140643784Y-96753370D01*
X140644100Y-96762216D01*
X140644100Y-97723500D01*
X140624415Y-97790539D01*
X140571611Y-97836294D01*
X140520100Y-97847500D01*
X139100552Y-97847500D01*
X139033513Y-97827815D01*
X138987758Y-97775011D01*
X138978934Y-97747690D01*
X138978419Y-97745100D01*
X138975867Y-97732269D01*
X138942833Y-97682831D01*
X138931552Y-97665947D01*
X138865230Y-97621632D01*
X138865229Y-97621631D01*
X138806752Y-97610000D01*
X138806748Y-97610000D01*
X138513252Y-97610000D01*
X138513247Y-97610000D01*
X138442790Y-97624015D01*
X138442416Y-97622137D01*
X138387986Y-97627990D01*
X138368647Y-97622311D01*
X138306752Y-97610000D01*
X138306748Y-97610000D01*
X138013252Y-97610000D01*
X138013247Y-97610000D01*
X137942790Y-97624015D01*
X137942553Y-97622825D01*
X137899392Y-97629505D01*
X137873712Y-97627299D01*
X137865231Y-97621633D01*
X137806748Y-97610000D01*
X137672238Y-97610000D01*
X137666939Y-97609545D01*
X137639133Y-97598720D01*
X137610508Y-97590315D01*
X137606927Y-97586182D01*
X137601829Y-97584198D01*
X137584285Y-97560052D01*
X137564753Y-97537511D01*
X137563974Y-97532098D01*
X137560759Y-97527673D01*
X137559055Y-97497883D01*
X137554809Y-97468353D01*
X137556808Y-97458605D01*
X137556769Y-97457917D01*
X137557052Y-97457415D01*
X137557772Y-97453907D01*
X137558168Y-97452429D01*
X137560500Y-97443727D01*
X137560500Y-97338273D01*
X137533207Y-97236413D01*
X137511028Y-97197999D01*
X137494555Y-97130100D01*
X137511028Y-97074001D01*
X137523888Y-97051728D01*
X137550500Y-96952410D01*
X137550500Y-96849590D01*
X137523888Y-96750272D01*
X137523883Y-96750264D01*
X137522130Y-96746030D01*
X137514661Y-96676561D01*
X137545935Y-96614081D01*
X137573712Y-96593491D01*
X137573570Y-96593292D01*
X137581932Y-96587322D01*
X137665822Y-96503432D01*
X137665823Y-96503430D01*
X137665824Y-96503429D01*
X137717933Y-96396840D01*
X137728000Y-96327742D01*
X137728000Y-95950258D01*
X137717933Y-95881160D01*
X137700469Y-95845438D01*
X137665823Y-95774569D01*
X137581930Y-95690676D01*
X137557841Y-95678900D01*
X137506259Y-95631772D01*
X137488345Y-95564238D01*
X137509786Y-95497739D01*
X137557841Y-95456100D01*
X137581929Y-95444324D01*
X137581930Y-95444323D01*
X137581932Y-95444322D01*
X137665822Y-95360432D01*
X137665823Y-95360430D01*
X137665824Y-95360429D01*
X137717933Y-95253840D01*
X137728000Y-95184742D01*
X137728000Y-94807258D01*
X137717933Y-94738160D01*
X137715758Y-94733712D01*
X137665823Y-94631569D01*
X137581930Y-94547676D01*
X137475339Y-94495566D01*
X137466140Y-94492724D01*
X137467000Y-94489938D01*
X137417589Y-94467264D01*
X137379923Y-94408416D01*
X137380051Y-94338547D01*
X137417933Y-94279838D01*
X137466992Y-94257433D01*
X137466140Y-94254676D01*
X137475338Y-94251833D01*
X137475340Y-94251833D01*
X137581929Y-94199724D01*
X137581930Y-94199723D01*
X137581932Y-94199722D01*
X137665822Y-94115832D01*
X137665823Y-94115830D01*
X137665824Y-94115829D01*
X137717933Y-94009240D01*
X137728000Y-93940142D01*
X137728000Y-93562658D01*
X137717933Y-93493560D01*
X137712496Y-93482439D01*
X137693063Y-93442688D01*
X137665824Y-93386971D01*
X137588474Y-93309621D01*
X137554991Y-93248301D01*
X137556381Y-93189853D01*
X137575900Y-93117010D01*
X137575900Y-93014190D01*
X137549288Y-92914872D01*
X137497878Y-92825827D01*
X137425173Y-92753122D01*
X137425172Y-92753121D01*
X137424687Y-92752749D01*
X137424381Y-92752330D01*
X137419426Y-92747375D01*
X137420198Y-92746602D01*
X137414602Y-92738936D01*
X137400910Y-92728687D01*
X137394425Y-92711302D01*
X137383486Y-92696319D01*
X137382469Y-92679247D01*
X137376493Y-92663223D01*
X137380436Y-92645094D01*
X137379334Y-92626573D01*
X137387785Y-92611312D01*
X137391345Y-92594950D01*
X137412490Y-92566701D01*
X137548106Y-92431084D01*
X137548111Y-92431081D01*
X137558311Y-92420880D01*
X137558313Y-92420880D01*
X137632880Y-92346313D01*
X137685607Y-92254987D01*
X137691847Y-92231700D01*
X137694328Y-92222443D01*
X137706102Y-92178499D01*
X137712901Y-92153127D01*
X137712901Y-92047673D01*
X137712901Y-92040078D01*
X137712900Y-92040060D01*
X137712900Y-90814499D01*
X137732585Y-90747460D01*
X137785389Y-90701705D01*
X137836900Y-90690499D01*
X137937214Y-90690499D01*
X138007286Y-90680291D01*
X138007290Y-90680289D01*
X138007291Y-90680289D01*
X138115372Y-90627451D01*
X138115375Y-90627449D01*
X138200447Y-90542377D01*
X138200449Y-90542375D01*
X138200450Y-90542372D01*
X138202083Y-90540087D01*
X138205120Y-90537704D01*
X138207715Y-90535110D01*
X138208028Y-90535423D01*
X138257058Y-90496966D01*
X138326620Y-90490411D01*
X138388682Y-90522505D01*
X138403917Y-90540087D01*
X138405552Y-90542377D01*
X138490624Y-90627449D01*
X138490627Y-90627451D01*
X138566597Y-90664590D01*
X138598714Y-90680291D01*
X138668785Y-90690500D01*
X139132214Y-90690499D01*
X139202286Y-90680291D01*
X139309437Y-90627907D01*
X139378306Y-90616148D01*
X139442604Y-90643491D01*
X139451576Y-90651627D01*
X139485627Y-90685678D01*
X139485628Y-90685679D01*
X139485630Y-90685680D01*
X139513425Y-90701727D01*
X139574672Y-90737088D01*
X139673990Y-90763700D01*
X139673992Y-90763700D01*
X139776808Y-90763700D01*
X139776810Y-90763700D01*
X139876128Y-90737088D01*
X139876136Y-90737083D01*
X139877731Y-90736423D01*
X139878164Y-90736001D01*
X139879330Y-90735761D01*
X139883638Y-90733977D01*
X139883981Y-90734805D01*
X139910324Y-90729389D01*
X139942223Y-90721647D01*
X139944372Y-90722390D01*
X139946603Y-90721932D01*
X139977243Y-90733762D01*
X140008253Y-90744490D01*
X140010322Y-90746534D01*
X140011783Y-90747098D01*
X140017555Y-90753676D01*
X140036452Y-90772340D01*
X140040392Y-90777732D01*
X140047922Y-90790773D01*
X140055359Y-90798210D01*
X140061013Y-90805946D01*
X140069731Y-90830165D01*
X140082066Y-90852755D01*
X140083856Y-90869406D01*
X140084677Y-90871686D01*
X140084285Y-90873393D01*
X140084900Y-90879113D01*
X140084900Y-91249122D01*
X140065215Y-91316161D01*
X140048581Y-91336803D01*
X139162941Y-92222443D01*
X138959742Y-92425643D01*
X138882244Y-92503140D01*
X138882243Y-92503141D01*
X138882243Y-92503142D01*
X138874712Y-92521323D01*
X138840300Y-92604399D01*
X138840300Y-93347087D01*
X138820615Y-93414126D01*
X138803981Y-93434768D01*
X138803323Y-93435425D01*
X138803319Y-93435430D01*
X138751913Y-93524469D01*
X138751912Y-93524472D01*
X138725300Y-93623790D01*
X138725300Y-93726610D01*
X138751420Y-93824089D01*
X138751912Y-93825927D01*
X138751913Y-93825930D01*
X138803319Y-93914969D01*
X138803321Y-93914972D01*
X138803322Y-93914973D01*
X138876027Y-93987678D01*
X138965072Y-94039088D01*
X139064390Y-94065700D01*
X139064392Y-94065700D01*
X139167208Y-94065700D01*
X139167210Y-94065700D01*
X139266528Y-94039088D01*
X139355573Y-93987678D01*
X139428278Y-93914973D01*
X139443751Y-93888173D01*
X139452913Y-93872305D01*
X139503479Y-93824089D01*
X139572086Y-93810865D01*
X139636951Y-93836833D01*
X139667687Y-93872305D01*
X139692317Y-93914966D01*
X139692321Y-93914971D01*
X139692322Y-93914973D01*
X139765027Y-93987678D01*
X139854072Y-94039088D01*
X139953390Y-94065700D01*
X139953392Y-94065700D01*
X140056208Y-94065700D01*
X140056210Y-94065700D01*
X140155528Y-94039088D01*
X140244573Y-93987678D01*
X140317278Y-93914973D01*
X140368688Y-93825928D01*
X140395300Y-93726610D01*
X140395300Y-93623790D01*
X140368688Y-93524472D01*
X140324694Y-93448272D01*
X140317280Y-93435430D01*
X140317276Y-93435425D01*
X140244574Y-93362723D01*
X140244569Y-93362719D01*
X140155530Y-93311313D01*
X140155529Y-93311312D01*
X140155528Y-93311312D01*
X140056210Y-93284700D01*
X139953390Y-93284700D01*
X139854072Y-93311312D01*
X139854069Y-93311313D01*
X139765030Y-93362719D01*
X139765025Y-93362723D01*
X139692323Y-93435425D01*
X139692319Y-93435430D01*
X139667687Y-93478095D01*
X139665783Y-93479910D01*
X139665059Y-93482439D01*
X139640647Y-93503877D01*
X139617120Y-93526311D01*
X139614535Y-93526809D01*
X139612560Y-93528544D01*
X139580420Y-93533383D01*
X139548513Y-93539533D01*
X139546072Y-93538556D01*
X139543470Y-93538948D01*
X139513803Y-93525637D01*
X139483648Y-93513565D01*
X139481384Y-93511092D01*
X139479722Y-93510346D01*
X139470011Y-93498663D01*
X139456433Y-93483827D01*
X139454589Y-93480999D01*
X139428278Y-93435427D01*
X139418486Y-93425635D01*
X139411433Y-93414819D01*
X139404937Y-93393230D01*
X139394134Y-93373445D01*
X139391436Y-93348355D01*
X139391303Y-93347912D01*
X139391365Y-93347694D01*
X139391300Y-93347087D01*
X139391300Y-92824678D01*
X139410985Y-92757639D01*
X139427619Y-92736996D01*
X139470335Y-92694280D01*
X139552557Y-92612059D01*
X139552557Y-92612058D01*
X139569995Y-92594620D01*
X139569997Y-92594616D01*
X140404914Y-91759700D01*
X140466236Y-91726216D01*
X140535928Y-91731200D01*
X140591861Y-91773072D01*
X140613687Y-91831591D01*
X140615533Y-91831349D01*
X140616594Y-91839408D01*
X140616594Y-91839409D01*
X140642076Y-91934507D01*
X140643206Y-91938726D01*
X140643207Y-91938729D01*
X140694613Y-92027768D01*
X140694615Y-92027771D01*
X140694616Y-92027772D01*
X140767321Y-92100477D01*
X140856366Y-92151887D01*
X140955684Y-92178499D01*
X140955686Y-92178499D01*
X141058502Y-92178499D01*
X141058504Y-92178499D01*
X141157822Y-92151887D01*
X141246867Y-92100477D01*
X141246871Y-92100472D01*
X141252276Y-92096326D01*
X141317444Y-92071130D01*
X141327765Y-92070700D01*
X141339760Y-92070700D01*
X141339762Y-92070700D01*
X141416189Y-92050221D01*
X141484711Y-92010660D01*
X141517819Y-91977552D01*
X141579142Y-91944067D01*
X141648834Y-91949051D01*
X141704767Y-91990923D01*
X141729184Y-92056387D01*
X141729500Y-92065233D01*
X141729500Y-92261742D01*
X141737050Y-92313565D01*
X141739567Y-92330842D01*
X141791676Y-92437430D01*
X141875569Y-92521323D01*
X141982157Y-92573432D01*
X141982158Y-92573432D01*
X141982160Y-92573433D01*
X142051258Y-92583500D01*
X142051264Y-92583500D01*
X142428736Y-92583500D01*
X142428742Y-92583500D01*
X142497840Y-92573433D01*
X142604429Y-92521324D01*
X142604430Y-92521323D01*
X142604432Y-92521322D01*
X142688322Y-92437432D01*
X142688323Y-92437430D01*
X142688324Y-92437429D01*
X142740433Y-92330840D01*
X142750500Y-92261742D01*
X142750500Y-91769258D01*
X142740433Y-91700160D01*
X142728100Y-91674932D01*
X142725303Y-91662844D01*
X142720523Y-91655406D01*
X142715500Y-91620471D01*
X142715500Y-91617190D01*
X147970900Y-91617190D01*
X147970900Y-91720010D01*
X147983034Y-91765293D01*
X147997512Y-91819327D01*
X147997513Y-91819330D01*
X148048919Y-91908369D01*
X148048921Y-91908372D01*
X148048922Y-91908373D01*
X148121627Y-91981078D01*
X148210672Y-92032488D01*
X148309990Y-92059100D01*
X148309992Y-92059100D01*
X148412808Y-92059100D01*
X148412810Y-92059100D01*
X148512128Y-92032488D01*
X148522108Y-92026725D01*
X148537843Y-92020213D01*
X148537478Y-92019332D01*
X148544985Y-92016222D01*
X148544985Y-92016221D01*
X148544988Y-92016221D01*
X148613511Y-91976660D01*
X148669460Y-91920711D01*
X148709021Y-91852188D01*
X148709022Y-91852185D01*
X148712132Y-91844678D01*
X148713013Y-91845043D01*
X148719525Y-91829308D01*
X148725288Y-91819328D01*
X148751900Y-91720010D01*
X148751900Y-91617190D01*
X148725288Y-91517872D01*
X148684659Y-91447500D01*
X148673880Y-91428830D01*
X148673876Y-91428825D01*
X148601174Y-91356123D01*
X148601169Y-91356119D01*
X148512130Y-91304713D01*
X148512129Y-91304712D01*
X148512128Y-91304712D01*
X148412810Y-91278100D01*
X148309990Y-91278100D01*
X148210672Y-91304712D01*
X148210669Y-91304713D01*
X148121630Y-91356119D01*
X148121625Y-91356123D01*
X148048923Y-91428825D01*
X148048919Y-91428830D01*
X147997513Y-91517869D01*
X147997512Y-91517872D01*
X147970900Y-91617190D01*
X142715500Y-91617190D01*
X142715500Y-91407500D01*
X142735185Y-91340461D01*
X142787989Y-91294706D01*
X142839500Y-91283500D01*
X143039322Y-91283500D01*
X143073485Y-91276704D01*
X143107650Y-91269908D01*
X143107653Y-91269905D01*
X143117543Y-91265810D01*
X143187012Y-91258338D01*
X143212457Y-91265810D01*
X143222348Y-91269906D01*
X143222350Y-91269908D01*
X143239432Y-91273306D01*
X143290677Y-91283500D01*
X143290680Y-91283500D01*
X143539322Y-91283500D01*
X143573485Y-91276704D01*
X143607650Y-91269908D01*
X143607653Y-91269905D01*
X143617543Y-91265810D01*
X143687012Y-91258338D01*
X143712457Y-91265810D01*
X143722348Y-91269906D01*
X143722350Y-91269908D01*
X143739432Y-91273306D01*
X143790677Y-91283500D01*
X143790680Y-91283500D01*
X144039322Y-91283500D01*
X144073485Y-91276704D01*
X144107650Y-91269908D01*
X144107653Y-91269905D01*
X144117543Y-91265810D01*
X144187012Y-91258338D01*
X144212457Y-91265810D01*
X144222348Y-91269906D01*
X144222350Y-91269908D01*
X144239432Y-91273306D01*
X144290677Y-91283500D01*
X144290680Y-91283500D01*
X144539322Y-91283500D01*
X144573485Y-91276704D01*
X144607650Y-91269908D01*
X144607653Y-91269905D01*
X144617543Y-91265810D01*
X144687012Y-91258338D01*
X144712457Y-91265810D01*
X144722348Y-91269906D01*
X144722350Y-91269908D01*
X144739432Y-91273306D01*
X144790677Y-91283500D01*
X144790680Y-91283500D01*
X145039322Y-91283500D01*
X145073485Y-91276704D01*
X145107650Y-91269908D01*
X145107653Y-91269905D01*
X145117543Y-91265810D01*
X145187012Y-91258338D01*
X145212457Y-91265810D01*
X145222348Y-91269906D01*
X145222350Y-91269908D01*
X145239432Y-91273306D01*
X145290677Y-91283500D01*
X145290680Y-91283500D01*
X145539322Y-91283500D01*
X145607650Y-91269908D01*
X145616089Y-91264269D01*
X145685135Y-91218135D01*
X145736908Y-91140650D01*
X145750500Y-91072322D01*
X145750500Y-90442500D01*
X145770185Y-90375461D01*
X145822989Y-90329706D01*
X145874500Y-90318500D01*
X146504321Y-90318500D01*
X146524728Y-90314440D01*
X146551841Y-90309047D01*
X146621433Y-90315274D01*
X146674409Y-90355176D01*
X146677320Y-90358970D01*
X146677322Y-90358973D01*
X146750027Y-90431678D01*
X146839072Y-90483088D01*
X146938390Y-90509700D01*
X146938392Y-90509700D01*
X147041208Y-90509700D01*
X147041210Y-90509700D01*
X147140528Y-90483088D01*
X147229573Y-90431678D01*
X147302278Y-90358973D01*
X147353688Y-90269928D01*
X147380300Y-90170610D01*
X147380300Y-90067790D01*
X147353688Y-89968472D01*
X147302278Y-89879427D01*
X147302277Y-89879426D01*
X147300530Y-89876400D01*
X147284057Y-89808500D01*
X147300530Y-89752400D01*
X147304854Y-89744911D01*
X147353688Y-89660328D01*
X147380300Y-89561010D01*
X147380300Y-89514520D01*
X147399985Y-89447481D01*
X147452789Y-89401726D01*
X147521947Y-89391782D01*
X147585503Y-89420807D01*
X147615700Y-89460059D01*
X147622676Y-89474330D01*
X147706569Y-89558223D01*
X147813157Y-89610332D01*
X147813158Y-89610332D01*
X147813160Y-89610333D01*
X147882258Y-89620400D01*
X147882264Y-89620400D01*
X148259736Y-89620400D01*
X148259742Y-89620400D01*
X148328840Y-89610333D01*
X148435429Y-89558224D01*
X148435430Y-89558223D01*
X148435432Y-89558222D01*
X148519322Y-89474332D01*
X148519323Y-89474330D01*
X148519324Y-89474329D01*
X148571433Y-89367740D01*
X148581500Y-89298642D01*
X148581500Y-89130000D01*
X148601185Y-89062961D01*
X148653989Y-89017206D01*
X148705500Y-89006000D01*
X150181167Y-89006000D01*
X150248206Y-89025685D01*
X150268848Y-89042319D01*
X150481181Y-89254652D01*
X150514666Y-89315975D01*
X150517500Y-89342333D01*
X150517500Y-90464752D01*
X150529131Y-90523229D01*
X150529132Y-90523230D01*
X150573447Y-90589552D01*
X150639769Y-90633867D01*
X150639770Y-90633868D01*
X150698247Y-90645499D01*
X150698250Y-90645500D01*
X150698252Y-90645500D01*
X151837750Y-90645500D01*
X151837751Y-90645499D01*
X151852568Y-90642552D01*
X151896229Y-90633868D01*
X151896229Y-90633867D01*
X151896231Y-90633867D01*
X151962552Y-90589552D01*
X152006867Y-90523231D01*
X152006867Y-90523229D01*
X152006868Y-90523229D01*
X152018499Y-90464752D01*
X152018500Y-90464750D01*
X152018500Y-89125249D01*
X152018499Y-89125247D01*
X152006868Y-89066770D01*
X152006867Y-89066769D01*
X151962552Y-89000447D01*
X151896230Y-88956132D01*
X151896229Y-88956131D01*
X151837752Y-88944500D01*
X151837748Y-88944500D01*
X151072333Y-88944500D01*
X151005294Y-88924815D01*
X150984652Y-88908181D01*
X150541512Y-88465041D01*
X150541507Y-88465037D01*
X150516556Y-88450632D01*
X150516556Y-88450631D01*
X150516554Y-88450631D01*
X150472994Y-88425481D01*
X150472993Y-88425480D01*
X150446141Y-88418285D01*
X150396562Y-88405000D01*
X150317155Y-88405000D01*
X150250116Y-88385315D01*
X150204361Y-88332511D01*
X150194417Y-88263353D01*
X150202595Y-88233545D01*
X150206868Y-88223229D01*
X150218499Y-88164752D01*
X150218500Y-88164750D01*
X150218500Y-86825249D01*
X150218499Y-86825247D01*
X150206868Y-86766770D01*
X150206867Y-86766769D01*
X150162552Y-86700447D01*
X150096230Y-86656132D01*
X150096229Y-86656131D01*
X150037752Y-86644500D01*
X150037748Y-86644500D01*
X148898252Y-86644500D01*
X148898247Y-86644500D01*
X148839770Y-86656131D01*
X148839769Y-86656132D01*
X148773447Y-86700447D01*
X148729132Y-86766769D01*
X148729131Y-86766770D01*
X148717500Y-86825247D01*
X148717500Y-87369584D01*
X148697815Y-87436623D01*
X148645011Y-87482378D01*
X148575853Y-87492322D01*
X148512297Y-87463297D01*
X148505819Y-87457265D01*
X148435430Y-87386876D01*
X148328842Y-87334767D01*
X148311565Y-87332250D01*
X148259742Y-87324700D01*
X148259736Y-87324700D01*
X147948233Y-87324700D01*
X147924937Y-87317859D01*
X147900791Y-87315266D01*
X147888783Y-87307243D01*
X147881194Y-87305015D01*
X147870436Y-87297259D01*
X147865258Y-87293087D01*
X147814711Y-87242540D01*
X147780021Y-87222512D01*
X147766365Y-87214627D01*
X147746190Y-87202979D01*
X147746191Y-87202979D01*
X147707975Y-87192739D01*
X147669762Y-87182500D01*
X147669760Y-87182500D01*
X147329921Y-87182500D01*
X147262882Y-87162815D01*
X147217127Y-87110011D01*
X147207183Y-87040853D01*
X147214037Y-87014375D01*
X147217569Y-87005097D01*
X147244422Y-86958588D01*
X147264900Y-86882162D01*
X147264900Y-86880794D01*
X147268386Y-86871639D01*
X147270790Y-86868472D01*
X147276883Y-86853764D01*
X147289763Y-86831455D01*
X147328288Y-86764728D01*
X147354900Y-86665410D01*
X147354900Y-86562590D01*
X147328288Y-86463272D01*
X147276878Y-86374227D01*
X147204173Y-86301522D01*
X147204172Y-86301521D01*
X147204169Y-86301519D01*
X147115130Y-86250113D01*
X147115129Y-86250112D01*
X147115128Y-86250112D01*
X147015810Y-86223500D01*
X147015809Y-86223500D01*
X147007750Y-86222439D01*
X147007969Y-86220770D01*
X146956158Y-86206887D01*
X146949391Y-86202980D01*
X146949390Y-86202979D01*
X146923913Y-86196152D01*
X146872962Y-86182500D01*
X146872960Y-86182500D01*
X146642305Y-86182500D01*
X146584080Y-86165403D01*
X146583931Y-86165765D01*
X146580567Y-86164371D01*
X146575266Y-86162815D01*
X146573418Y-86161604D01*
X146572654Y-86161094D01*
X146572646Y-86161090D01*
X146504322Y-86147500D01*
X146504320Y-86147500D01*
X145874500Y-86147500D01*
X145807461Y-86127815D01*
X145761706Y-86075011D01*
X145750500Y-86023500D01*
X145750500Y-85393677D01*
X145736909Y-85325353D01*
X145736908Y-85325351D01*
X145736908Y-85325350D01*
X145736905Y-85325345D01*
X145736396Y-85324582D01*
X145735796Y-85322666D01*
X145732235Y-85314069D01*
X145733004Y-85313750D01*
X145715520Y-85257904D01*
X145715500Y-85255695D01*
X145715500Y-84149590D01*
X146497700Y-84149590D01*
X146497700Y-84252410D01*
X146522702Y-84345717D01*
X146524312Y-84351727D01*
X146524313Y-84351730D01*
X146575719Y-84440769D01*
X146575721Y-84440772D01*
X146575722Y-84440773D01*
X146648427Y-84513478D01*
X146648428Y-84513479D01*
X146648430Y-84513480D01*
X146667677Y-84524592D01*
X146737472Y-84564888D01*
X146836790Y-84591500D01*
X146836792Y-84591500D01*
X146939608Y-84591500D01*
X146939610Y-84591500D01*
X147038928Y-84564888D01*
X147127973Y-84513478D01*
X147200678Y-84440773D01*
X147252088Y-84351728D01*
X147278700Y-84252410D01*
X147278700Y-84149590D01*
X147252088Y-84050272D01*
X147208885Y-83975442D01*
X147200680Y-83961230D01*
X147200676Y-83961225D01*
X147127974Y-83888523D01*
X147127969Y-83888519D01*
X147038930Y-83837113D01*
X147038929Y-83837112D01*
X147038928Y-83837112D01*
X146939610Y-83810500D01*
X146836790Y-83810500D01*
X146737472Y-83837112D01*
X146737469Y-83837113D01*
X146648430Y-83888519D01*
X146648425Y-83888523D01*
X146575723Y-83961225D01*
X146575719Y-83961230D01*
X146524313Y-84050269D01*
X146524312Y-84050272D01*
X146497700Y-84149590D01*
X145715500Y-84149590D01*
X145715500Y-83675344D01*
X145735185Y-83608305D01*
X145787989Y-83562550D01*
X145794464Y-83560083D01*
X145797838Y-83558433D01*
X145797840Y-83558433D01*
X145904429Y-83506324D01*
X145904430Y-83506323D01*
X145904432Y-83506322D01*
X145988322Y-83422432D01*
X145988323Y-83422430D01*
X145988324Y-83422429D01*
X146040433Y-83315840D01*
X146050500Y-83246742D01*
X146050500Y-82869258D01*
X146040433Y-82800160D01*
X146020443Y-82759271D01*
X145988323Y-82693569D01*
X145904430Y-82609676D01*
X145789188Y-82553337D01*
X145790403Y-82550850D01*
X145744653Y-82520530D01*
X145716526Y-82456572D01*
X145715500Y-82440655D01*
X145715500Y-82128500D01*
X145735185Y-82061461D01*
X145787989Y-82015706D01*
X145839500Y-82004500D01*
X145861750Y-82004500D01*
X145861751Y-82004499D01*
X145876568Y-82001552D01*
X145920229Y-81992868D01*
X145920229Y-81992867D01*
X145920231Y-81992867D01*
X145986552Y-81948552D01*
X146030867Y-81882231D01*
X146030867Y-81882229D01*
X146030868Y-81882229D01*
X146042499Y-81823752D01*
X146042500Y-81823750D01*
X146042500Y-81244249D01*
X146042499Y-81244247D01*
X146030868Y-81185770D01*
X146027608Y-81180892D01*
X146020926Y-81170891D01*
X146000047Y-81104217D01*
X146018530Y-81036837D01*
X146020910Y-81033132D01*
X146030867Y-81018231D01*
X146030867Y-81018230D01*
X146030868Y-81018229D01*
X146042499Y-80959752D01*
X146042500Y-80959750D01*
X146042500Y-80380249D01*
X146042499Y-80380247D01*
X146030868Y-80321770D01*
X146030867Y-80321769D01*
X145986552Y-80255447D01*
X145920230Y-80211132D01*
X145890107Y-80205140D01*
X145828196Y-80172755D01*
X145793622Y-80112039D01*
X145797363Y-80042269D01*
X145838229Y-79985597D01*
X145859839Y-79972123D01*
X145904429Y-79950324D01*
X145904430Y-79950323D01*
X145904432Y-79950322D01*
X145988322Y-79866432D01*
X145988323Y-79866430D01*
X145988324Y-79866429D01*
X146040433Y-79759840D01*
X146050500Y-79690742D01*
X146050500Y-79313258D01*
X146040433Y-79244160D01*
X146040128Y-79243537D01*
X145988323Y-79137569D01*
X145904430Y-79053676D01*
X145797842Y-79001567D01*
X145780565Y-78999050D01*
X145728742Y-78991500D01*
X145236258Y-78991500D01*
X145221409Y-78993663D01*
X145211595Y-78995093D01*
X145142419Y-78985278D01*
X145106040Y-78960069D01*
X144894452Y-78748481D01*
X144860967Y-78687158D01*
X144865951Y-78617466D01*
X144907823Y-78561533D01*
X144973287Y-78537116D01*
X144982133Y-78536800D01*
X149235667Y-78536800D01*
X149236215Y-78536961D01*
X149236765Y-78536805D01*
X149269720Y-78546799D01*
X149302706Y-78556485D01*
X149303262Y-78556971D01*
X149303627Y-78557082D01*
X149330092Y-78580427D01*
X149385565Y-78645603D01*
X149438673Y-78708000D01*
X149440864Y-78710648D01*
X149659951Y-78983002D01*
X149662068Y-78985709D01*
X149873786Y-79264374D01*
X149875825Y-79267137D01*
X150079566Y-79551309D01*
X150081528Y-79554127D01*
X150277366Y-79843895D01*
X150279249Y-79846765D01*
X150465394Y-80139333D01*
X150468065Y-80143731D01*
X150682429Y-80513700D01*
X150816868Y-80745729D01*
X150820037Y-80751197D01*
X150823305Y-80757215D01*
X150965277Y-81036837D01*
X151139656Y-81380286D01*
X151142591Y-81386485D01*
X151423844Y-82025713D01*
X151426430Y-82032063D01*
X151671719Y-82685331D01*
X151673951Y-82691814D01*
X151882603Y-83357158D01*
X151884474Y-83363756D01*
X152055922Y-84039204D01*
X152057424Y-84045893D01*
X152191223Y-84729510D01*
X152192353Y-84736271D01*
X152288162Y-85426164D01*
X152288917Y-85432972D01*
X152346519Y-86127520D01*
X152346896Y-86134352D01*
X152366283Y-86837696D01*
X152366330Y-86841113D01*
X152366330Y-92047744D01*
X152366290Y-92050878D01*
X152349917Y-92698504D01*
X152349699Y-92703358D01*
X152327248Y-93051139D01*
X152326979Y-93054570D01*
X152294762Y-93402932D01*
X152294397Y-93406356D01*
X152252437Y-93754371D01*
X152251978Y-93757784D01*
X152200511Y-94103556D01*
X152199957Y-94106954D01*
X152138782Y-94451889D01*
X152138133Y-94455272D01*
X152067571Y-94797549D01*
X152066829Y-94800910D01*
X151986650Y-95141709D01*
X151985816Y-95145048D01*
X151896368Y-95482889D01*
X151895441Y-95486203D01*
X151796480Y-95822018D01*
X151795462Y-95825304D01*
X151687404Y-96157693D01*
X151686296Y-96160947D01*
X151568902Y-96490668D01*
X151567704Y-96493890D01*
X151441362Y-96819854D01*
X151440076Y-96823041D01*
X151304623Y-97145684D01*
X151303250Y-97148832D01*
X151159011Y-97467382D01*
X151157552Y-97470489D01*
X151004509Y-97785006D01*
X151002985Y-97788033D01*
X150842681Y-98095531D01*
X150840209Y-98100040D01*
X150809534Y-98153363D01*
X150490114Y-98708587D01*
X150486530Y-98714436D01*
X150105100Y-99299956D01*
X150101199Y-99305596D01*
X149688258Y-99868756D01*
X149684052Y-99874172D01*
X149240939Y-100413245D01*
X149236440Y-100418420D01*
X148764538Y-100931812D01*
X148759759Y-100936730D01*
X148260546Y-101422913D01*
X148255504Y-101427559D01*
X147730388Y-101885227D01*
X147725098Y-101889586D01*
X147175502Y-102317535D01*
X147169989Y-102321588D01*
X147042801Y-102409792D01*
X146597323Y-102718726D01*
X146591595Y-102722468D01*
X145996735Y-103088126D01*
X145991066Y-103091408D01*
X145427140Y-103398256D01*
X145422828Y-103400494D01*
X145110398Y-103554951D01*
X145107291Y-103556434D01*
X144789507Y-103702705D01*
X144786360Y-103704101D01*
X144463965Y-103841781D01*
X144460780Y-103843089D01*
X144135585Y-103971410D01*
X144132364Y-103972629D01*
X143803126Y-104092090D01*
X143799873Y-104093220D01*
X143468161Y-104203254D01*
X143464879Y-104204292D01*
X143129607Y-104305267D01*
X143126298Y-104306214D01*
X142788990Y-104397672D01*
X142785656Y-104398526D01*
X142445396Y-104480720D01*
X142442042Y-104481481D01*
X142100126Y-104554101D01*
X142096753Y-104554769D01*
X141752524Y-104617959D01*
X141749135Y-104618533D01*
X141403634Y-104672105D01*
X141400232Y-104672584D01*
X141053115Y-104716597D01*
X141049701Y-104716982D01*
X140701755Y-104751338D01*
X140698334Y-104751628D01*
X140349385Y-104776351D01*
X140345958Y-104776546D01*
X139999588Y-104791465D01*
X139994443Y-104791580D01*
X139292337Y-104792662D01*
X139285480Y-104792483D01*
X138587721Y-104754916D01*
X138580885Y-104754358D01*
X137886688Y-104678319D01*
X137879898Y-104677384D01*
X137191469Y-104563170D01*
X137184745Y-104561862D01*
X136504225Y-104409889D01*
X136497577Y-104408210D01*
X135826896Y-104218964D01*
X135820351Y-104216920D01*
X135161454Y-103990995D01*
X135155034Y-103988594D01*
X134509623Y-103726602D01*
X134503350Y-103723851D01*
X133873078Y-103426472D01*
X133866972Y-103423383D01*
X133252883Y-103091054D01*
X133247207Y-103087785D01*
X132699515Y-102752841D01*
X132695420Y-102750225D01*
X132405426Y-102556871D01*
X132402589Y-102554922D01*
X132117036Y-102352859D01*
X132114254Y-102350832D01*
X131833826Y-102140475D01*
X131831100Y-102138370D01*
X131557403Y-101920926D01*
X131554737Y-101918747D01*
X131286597Y-101693296D01*
X131283992Y-101691043D01*
X131022870Y-101458813D01*
X131020367Y-101456525D01*
X130765239Y-101216616D01*
X130762793Y-101214251D01*
X130746044Y-101197601D01*
X130663701Y-101115747D01*
X134332500Y-101115747D01*
X134332500Y-101830252D01*
X134344131Y-101888729D01*
X134344132Y-101888730D01*
X134388447Y-101955052D01*
X134454769Y-101999367D01*
X134454770Y-101999368D01*
X134513247Y-102010999D01*
X134513250Y-102011000D01*
X134513252Y-102011000D01*
X134806750Y-102011000D01*
X134806751Y-102010999D01*
X134821485Y-102008068D01*
X134877210Y-101996985D01*
X134877583Y-101998862D01*
X134932014Y-101993010D01*
X134951352Y-101998688D01*
X135013247Y-102010999D01*
X135013250Y-102011000D01*
X135235500Y-102011000D01*
X135244185Y-102013550D01*
X135253147Y-102012262D01*
X135277187Y-102023240D01*
X135302539Y-102030685D01*
X135308466Y-102037525D01*
X135316703Y-102041287D01*
X135330992Y-102063521D01*
X135348294Y-102083489D01*
X135350581Y-102094003D01*
X135354477Y-102100065D01*
X135359500Y-102135000D01*
X135359500Y-102175263D01*
X135339815Y-102242302D01*
X135289963Y-102286662D01*
X135273570Y-102294676D01*
X135189678Y-102378568D01*
X135189676Y-102378569D01*
X135137567Y-102485157D01*
X135137567Y-102485160D01*
X135127500Y-102554258D01*
X135127500Y-102931742D01*
X135130797Y-102954369D01*
X135137567Y-103000842D01*
X135189676Y-103107430D01*
X135273569Y-103191323D01*
X135380157Y-103243432D01*
X135380158Y-103243432D01*
X135380160Y-103243433D01*
X135449258Y-103253500D01*
X135449264Y-103253500D01*
X135941736Y-103253500D01*
X135941742Y-103253500D01*
X136010840Y-103243433D01*
X136117429Y-103191324D01*
X136117430Y-103191323D01*
X136117432Y-103191322D01*
X136201322Y-103107432D01*
X136201323Y-103107430D01*
X136201324Y-103107429D01*
X136253433Y-103000840D01*
X136263500Y-102931742D01*
X136263500Y-102824833D01*
X136283185Y-102757794D01*
X136335989Y-102712039D01*
X136405147Y-102702095D01*
X136468703Y-102731120D01*
X136475181Y-102737152D01*
X137351340Y-103613311D01*
X137407289Y-103669260D01*
X137407291Y-103669261D01*
X137407295Y-103669264D01*
X137465218Y-103702705D01*
X137475811Y-103708821D01*
X137499995Y-103715301D01*
X137559653Y-103751665D01*
X137590183Y-103814511D01*
X137591900Y-103835075D01*
X137591900Y-103902352D01*
X137603531Y-103960829D01*
X137603532Y-103960830D01*
X137647847Y-104027152D01*
X137714169Y-104071467D01*
X137714170Y-104071468D01*
X137772647Y-104083099D01*
X137772650Y-104083100D01*
X137772652Y-104083100D01*
X138662150Y-104083100D01*
X138662151Y-104083099D01*
X138676968Y-104080152D01*
X138720629Y-104071468D01*
X138720629Y-104071467D01*
X138720631Y-104071467D01*
X138786952Y-104027152D01*
X138831267Y-103960831D01*
X138831267Y-103960829D01*
X138831268Y-103960829D01*
X138842899Y-103902352D01*
X138842900Y-103902350D01*
X138842900Y-103012849D01*
X138842899Y-103012847D01*
X138831268Y-102954370D01*
X138831267Y-102954369D01*
X138786952Y-102888047D01*
X138720630Y-102843732D01*
X138720629Y-102843731D01*
X138662152Y-102832100D01*
X138662148Y-102832100D01*
X137772652Y-102832100D01*
X137772647Y-102832100D01*
X137714170Y-102843731D01*
X137714169Y-102843732D01*
X137637693Y-102894833D01*
X137636693Y-102893336D01*
X137588291Y-102919766D01*
X137518599Y-102914782D01*
X137474252Y-102886281D01*
X136996819Y-102408848D01*
X136982115Y-102381920D01*
X136965523Y-102356102D01*
X136964631Y-102349901D01*
X136963334Y-102347525D01*
X136960500Y-102321167D01*
X136960500Y-102135000D01*
X136980185Y-102067961D01*
X137032989Y-102022206D01*
X137084500Y-102011000D01*
X137306750Y-102011000D01*
X137306751Y-102010999D01*
X137321485Y-102008068D01*
X137377210Y-101996985D01*
X137377583Y-101998862D01*
X137432014Y-101993010D01*
X137451352Y-101998688D01*
X137513247Y-102010999D01*
X137513250Y-102011000D01*
X137513252Y-102011000D01*
X137806750Y-102011000D01*
X137806751Y-102010999D01*
X137821485Y-102008068D01*
X137877210Y-101996985D01*
X137877583Y-101998862D01*
X137932014Y-101993010D01*
X137951352Y-101998688D01*
X138013247Y-102010999D01*
X138013250Y-102011000D01*
X138013252Y-102011000D01*
X138306750Y-102011000D01*
X138306751Y-102010999D01*
X138321485Y-102008068D01*
X138377210Y-101996985D01*
X138377583Y-101998862D01*
X138432014Y-101993010D01*
X138451352Y-101998688D01*
X138513247Y-102010999D01*
X138513250Y-102011000D01*
X138513252Y-102011000D01*
X138806750Y-102011000D01*
X138806751Y-102010999D01*
X138821568Y-102008052D01*
X138865229Y-101999368D01*
X138865229Y-101999367D01*
X138865231Y-101999367D01*
X138931552Y-101955052D01*
X138975867Y-101888731D01*
X138975867Y-101888729D01*
X138975868Y-101888729D01*
X138987499Y-101830252D01*
X138987500Y-101830250D01*
X138987500Y-101364241D01*
X141240899Y-101364241D01*
X141272518Y-101523196D01*
X141272521Y-101523206D01*
X141334541Y-101672937D01*
X141334542Y-101672939D01*
X141424589Y-101807703D01*
X141424592Y-101807707D01*
X141539192Y-101922307D01*
X141539196Y-101922310D01*
X141673958Y-102012356D01*
X141673959Y-102012356D01*
X141673960Y-102012357D01*
X141673962Y-102012358D01*
X141797482Y-102063521D01*
X141823698Y-102074380D01*
X141823702Y-102074380D01*
X141823703Y-102074381D01*
X141982658Y-102106000D01*
X141982661Y-102106000D01*
X142144741Y-102106000D01*
X142257908Y-102083489D01*
X142303702Y-102074380D01*
X142453442Y-102012356D01*
X142588204Y-101922310D01*
X142702810Y-101807704D01*
X142792856Y-101672942D01*
X142854880Y-101523202D01*
X142881975Y-101386988D01*
X142886500Y-101364241D01*
X142886500Y-101202158D01*
X142854881Y-101043203D01*
X142854880Y-101043202D01*
X142854880Y-101043198D01*
X142840232Y-101007834D01*
X142792858Y-100893462D01*
X142792857Y-100893460D01*
X142781436Y-100876368D01*
X142702810Y-100758696D01*
X142702807Y-100758692D01*
X142588207Y-100644092D01*
X142588203Y-100644089D01*
X142453439Y-100554042D01*
X142453437Y-100554041D01*
X142303706Y-100492021D01*
X142303696Y-100492018D01*
X142144741Y-100460400D01*
X142144739Y-100460400D01*
X141982661Y-100460400D01*
X141982659Y-100460400D01*
X141823703Y-100492018D01*
X141823693Y-100492021D01*
X141673962Y-100554041D01*
X141673960Y-100554042D01*
X141539196Y-100644089D01*
X141539192Y-100644092D01*
X141424592Y-100758692D01*
X141424589Y-100758696D01*
X141334542Y-100893460D01*
X141334541Y-100893462D01*
X141272521Y-101043193D01*
X141272518Y-101043203D01*
X141240900Y-101202158D01*
X141240900Y-101202161D01*
X141240900Y-101364239D01*
X141240900Y-101364241D01*
X141240899Y-101364241D01*
X138987500Y-101364241D01*
X138987500Y-101202838D01*
X138987500Y-101115752D01*
X138975867Y-101057269D01*
X138970704Y-101049543D01*
X138968071Y-101025505D01*
X138971222Y-101007834D01*
X138969303Y-100989984D01*
X138977228Y-100974150D01*
X138980337Y-100956720D01*
X138992543Y-100943555D01*
X139000578Y-100927505D01*
X139015803Y-100918470D01*
X139027843Y-100905487D01*
X139045227Y-100901012D01*
X139060666Y-100891852D01*
X139091333Y-100888000D01*
X139154750Y-100888000D01*
X139154751Y-100887999D01*
X139169568Y-100885052D01*
X139213229Y-100876368D01*
X139213229Y-100876367D01*
X139213231Y-100876367D01*
X139279552Y-100832052D01*
X139323867Y-100765731D01*
X139323867Y-100765729D01*
X139323868Y-100765729D01*
X139334840Y-100710566D01*
X139335500Y-100707248D01*
X139335500Y-100413752D01*
X139335500Y-100413749D01*
X139335499Y-100413747D01*
X139323868Y-100355270D01*
X139323867Y-100355269D01*
X139279552Y-100288947D01*
X139213230Y-100244632D01*
X139213229Y-100244631D01*
X139154752Y-100233000D01*
X139154748Y-100233000D01*
X138440252Y-100233000D01*
X138440245Y-100233000D01*
X138434187Y-100234205D01*
X138364596Y-100227972D01*
X138309422Y-100185105D01*
X138290230Y-100144678D01*
X138285888Y-100128473D01*
X138285886Y-100128469D01*
X138284500Y-100126069D01*
X138249642Y-100065692D01*
X138234480Y-100039430D01*
X138234476Y-100039425D01*
X138161774Y-99966723D01*
X138161769Y-99966719D01*
X138072730Y-99915313D01*
X138072729Y-99915312D01*
X138072728Y-99915312D01*
X137973410Y-99888700D01*
X137870590Y-99888700D01*
X137771272Y-99915312D01*
X137771269Y-99915313D01*
X137682230Y-99966719D01*
X137682225Y-99966723D01*
X137609523Y-100039425D01*
X137609519Y-100039430D01*
X137558113Y-100128469D01*
X137558112Y-100128472D01*
X137531500Y-100227790D01*
X137531500Y-100330610D01*
X137555029Y-100418420D01*
X137558112Y-100429927D01*
X137558113Y-100429930D01*
X137609519Y-100518969D01*
X137609521Y-100518972D01*
X137609522Y-100518973D01*
X137682227Y-100591678D01*
X137771272Y-100643088D01*
X137792592Y-100648800D01*
X137816367Y-100663291D01*
X137841703Y-100674862D01*
X137845793Y-100681226D01*
X137852252Y-100685163D01*
X137864420Y-100710211D01*
X137879477Y-100733640D01*
X137881021Y-100744384D01*
X137882783Y-100748010D01*
X137884500Y-100768575D01*
X137884500Y-100811000D01*
X137864815Y-100878039D01*
X137812011Y-100923794D01*
X137760500Y-100935000D01*
X137513247Y-100935000D01*
X137442790Y-100949015D01*
X137442416Y-100947137D01*
X137387986Y-100952990D01*
X137368647Y-100947311D01*
X137306752Y-100935000D01*
X137306748Y-100935000D01*
X137084500Y-100935000D01*
X137017461Y-100915315D01*
X136971706Y-100862511D01*
X136960500Y-100811000D01*
X136960500Y-100279718D01*
X136977114Y-100217717D01*
X136991389Y-100192991D01*
X136991388Y-100192991D01*
X136991392Y-100192986D01*
X137025500Y-100065692D01*
X137025500Y-99933908D01*
X136991392Y-99806614D01*
X136925500Y-99692486D01*
X136832314Y-99599300D01*
X136775250Y-99566354D01*
X136718187Y-99533408D01*
X136654539Y-99516354D01*
X136590892Y-99499300D01*
X136459108Y-99499300D01*
X136331812Y-99533408D01*
X136217686Y-99599300D01*
X136217683Y-99599302D01*
X136124502Y-99692483D01*
X136124500Y-99692486D01*
X136058608Y-99806612D01*
X136029901Y-99913752D01*
X136024500Y-99933908D01*
X136024500Y-100065692D01*
X136037923Y-100115788D01*
X136058608Y-100192987D01*
X136071996Y-100216175D01*
X136124500Y-100307114D01*
X136217686Y-100400300D01*
X136269007Y-100429930D01*
X136297499Y-100446380D01*
X136345715Y-100496946D01*
X136359500Y-100553767D01*
X136359500Y-100811000D01*
X136339815Y-100878039D01*
X136287011Y-100923794D01*
X136235500Y-100935000D01*
X136013247Y-100935000D01*
X135942790Y-100949015D01*
X135942416Y-100947137D01*
X135887986Y-100952990D01*
X135868647Y-100947311D01*
X135806752Y-100935000D01*
X135806748Y-100935000D01*
X135513252Y-100935000D01*
X135513247Y-100935000D01*
X135442790Y-100949015D01*
X135442416Y-100947137D01*
X135387986Y-100952990D01*
X135368647Y-100947311D01*
X135306752Y-100935000D01*
X135306748Y-100935000D01*
X135013252Y-100935000D01*
X135013247Y-100935000D01*
X134942790Y-100949015D01*
X134942416Y-100947137D01*
X134887986Y-100952990D01*
X134868647Y-100947311D01*
X134806752Y-100935000D01*
X134806748Y-100935000D01*
X134513252Y-100935000D01*
X134513247Y-100935000D01*
X134454770Y-100946631D01*
X134454769Y-100946632D01*
X134388447Y-100990947D01*
X134344132Y-101057269D01*
X134344131Y-101057270D01*
X134332500Y-101115747D01*
X130663701Y-101115747D01*
X130514882Y-100967811D01*
X130512476Y-100965351D01*
X130504262Y-100956720D01*
X130271215Y-100711829D01*
X130268878Y-100709305D01*
X130112256Y-100535303D01*
X130034993Y-100449466D01*
X130032741Y-100446894D01*
X130032304Y-100446380D01*
X129805873Y-100180346D01*
X129803723Y-100177746D01*
X129584573Y-99905313D01*
X129582457Y-99902607D01*
X129370765Y-99623979D01*
X129368725Y-99621215D01*
X129165014Y-99337084D01*
X129163052Y-99334266D01*
X128967165Y-99044427D01*
X128965283Y-99041557D01*
X128779173Y-98749047D01*
X128776500Y-98744648D01*
X128467322Y-98211036D01*
X128467322Y-98211035D01*
X128433903Y-98153358D01*
X132280700Y-98153358D01*
X132280700Y-98645842D01*
X132286551Y-98685999D01*
X132290767Y-98714942D01*
X132342876Y-98821530D01*
X132426769Y-98905423D01*
X132435132Y-98911394D01*
X132433171Y-98914140D01*
X132471597Y-98949239D01*
X132489519Y-99016771D01*
X132472950Y-99075524D01*
X132427312Y-99154571D01*
X132427312Y-99154572D01*
X132400700Y-99253890D01*
X132400700Y-99356710D01*
X132415985Y-99413752D01*
X132427312Y-99456027D01*
X132427313Y-99456030D01*
X132478719Y-99545069D01*
X132478721Y-99545072D01*
X132478722Y-99545073D01*
X132551427Y-99617778D01*
X132551428Y-99617779D01*
X132551430Y-99617780D01*
X132557380Y-99621215D01*
X132640472Y-99669188D01*
X132730836Y-99693400D01*
X132786423Y-99725494D01*
X132889640Y-99828711D01*
X132945589Y-99884660D01*
X132945591Y-99884661D01*
X132945595Y-99884664D01*
X133014155Y-99924247D01*
X133062371Y-99974813D01*
X133069357Y-99991138D01*
X133074900Y-100007180D01*
X133074900Y-100013962D01*
X133095379Y-100090389D01*
X133110043Y-100115788D01*
X133134940Y-100158911D01*
X133276989Y-100300960D01*
X133345512Y-100340522D01*
X133421938Y-100361000D01*
X133546155Y-100361000D01*
X133594086Y-100375074D01*
X133595487Y-100371694D01*
X133606770Y-100376368D01*
X133665247Y-100387999D01*
X133665250Y-100388000D01*
X133665252Y-100388000D01*
X134379750Y-100388000D01*
X134379751Y-100387999D01*
X134394568Y-100385052D01*
X134438229Y-100376368D01*
X134438229Y-100376367D01*
X134438231Y-100376367D01*
X134504552Y-100332052D01*
X134548867Y-100265731D01*
X134548867Y-100265729D01*
X134548868Y-100265729D01*
X134560499Y-100207252D01*
X134560500Y-100207250D01*
X134560500Y-99913749D01*
X134560499Y-99913747D01*
X134546485Y-99843290D01*
X134548362Y-99842916D01*
X134542510Y-99788486D01*
X134548188Y-99769147D01*
X134560499Y-99707252D01*
X134560500Y-99707250D01*
X134560500Y-99413749D01*
X134560499Y-99413747D01*
X134548868Y-99355270D01*
X134548867Y-99355269D01*
X134504552Y-99288947D01*
X134438230Y-99244632D01*
X134438229Y-99244631D01*
X134379752Y-99233000D01*
X134379748Y-99233000D01*
X133665252Y-99233000D01*
X133665247Y-99233000D01*
X133606770Y-99244631D01*
X133595487Y-99249306D01*
X133593991Y-99245695D01*
X133548360Y-99259980D01*
X133546155Y-99260000D01*
X133498662Y-99260000D01*
X133419538Y-99260000D01*
X133343112Y-99280478D01*
X133343111Y-99280478D01*
X133343109Y-99280479D01*
X133335598Y-99283590D01*
X133334319Y-99280503D01*
X133281464Y-99293290D01*
X133215452Y-99270395D01*
X133174488Y-99220589D01*
X133170298Y-99211337D01*
X133155088Y-99154572D01*
X133106398Y-99070239D01*
X133103881Y-99064680D01*
X133099833Y-99035887D01*
X133092977Y-99007625D01*
X133095027Y-99001699D01*
X133094155Y-98995490D01*
X133106317Y-98969078D01*
X133115829Y-98941598D01*
X133120987Y-98937224D01*
X133123381Y-98932027D01*
X133138500Y-98922377D01*
X133148847Y-98913605D01*
X133147268Y-98911394D01*
X133155630Y-98905423D01*
X133239522Y-98821532D01*
X133239523Y-98821530D01*
X133239524Y-98821529D01*
X133291633Y-98714940D01*
X133301700Y-98645842D01*
X133301700Y-98153358D01*
X133291633Y-98084260D01*
X133291403Y-98083790D01*
X133239523Y-97977669D01*
X133155630Y-97893776D01*
X133049042Y-97841667D01*
X133025833Y-97838286D01*
X132979942Y-97831600D01*
X132602458Y-97831600D01*
X132556567Y-97838286D01*
X132533357Y-97841667D01*
X132426769Y-97893776D01*
X132426768Y-97893778D01*
X132342878Y-97977668D01*
X132342876Y-97977669D01*
X132290767Y-98084257D01*
X132288467Y-98100044D01*
X132280700Y-98153358D01*
X128433903Y-98153358D01*
X128424507Y-98137141D01*
X128421233Y-98131112D01*
X128104883Y-97508044D01*
X128101949Y-97501846D01*
X127971423Y-97205190D01*
X127820706Y-96862645D01*
X127818124Y-96856307D01*
X127805633Y-96823041D01*
X127572814Y-96202979D01*
X127570583Y-96196495D01*
X127442750Y-95788860D01*
X127361947Y-95531198D01*
X127360077Y-95524604D01*
X127349909Y-95484547D01*
X127188618Y-94849122D01*
X127187120Y-94842446D01*
X127186191Y-94837700D01*
X127053325Y-94158844D01*
X127052197Y-94152092D01*
X126956380Y-93462157D01*
X126955630Y-93455392D01*
X126898025Y-92760804D01*
X126897651Y-92754011D01*
X126878265Y-92050650D01*
X126878218Y-92047234D01*
X126878218Y-86840600D01*
X126878258Y-86837466D01*
X126881922Y-86692519D01*
X126894630Y-86189808D01*
X126894845Y-86185021D01*
X126917300Y-85837175D01*
X126917567Y-85833772D01*
X126919282Y-85815233D01*
X126949788Y-85485369D01*
X126950144Y-85482032D01*
X126992110Y-85133959D01*
X126992569Y-85130551D01*
X126997191Y-85099500D01*
X127044045Y-84784718D01*
X127044574Y-84781471D01*
X127105765Y-84436452D01*
X127106411Y-84433090D01*
X127176979Y-84090775D01*
X127177714Y-84087445D01*
X127257915Y-83746556D01*
X127258716Y-83743352D01*
X127348187Y-83405422D01*
X127349109Y-83402129D01*
X127351380Y-83394421D01*
X127448073Y-83066297D01*
X127449054Y-83063127D01*
X127557159Y-82730598D01*
X127558256Y-82727380D01*
X127655923Y-82453066D01*
X127675646Y-82397669D01*
X127676843Y-82394451D01*
X127698613Y-82338284D01*
X127803210Y-82068422D01*
X127804443Y-82065366D01*
X127939934Y-81742633D01*
X127941259Y-81739595D01*
X128085569Y-81420884D01*
X128086969Y-81417905D01*
X128240053Y-81103305D01*
X128241552Y-81100329D01*
X128401860Y-80792819D01*
X128404327Y-80788319D01*
X128754445Y-80179733D01*
X128758008Y-80173916D01*
X129139457Y-79588370D01*
X129143353Y-79582738D01*
X129143783Y-79582152D01*
X129556306Y-79019562D01*
X129560493Y-79014173D01*
X129915688Y-78582060D01*
X129973464Y-78542771D01*
X130011479Y-78536800D01*
X131939867Y-78536800D01*
X132006906Y-78556485D01*
G37*
%TD.AperFunction*%
%TA.AperFunction,Conductor*%
G36*
X134946303Y-94785963D02*
G01*
X134952781Y-94791995D01*
X134998486Y-94837700D01*
X135080239Y-94884900D01*
X135109991Y-94902078D01*
X135112614Y-94903592D01*
X135239908Y-94937700D01*
X135239910Y-94937700D01*
X135333000Y-94937700D01*
X135400039Y-94957385D01*
X135445794Y-95010189D01*
X135457000Y-95061700D01*
X135457000Y-95184742D01*
X135462718Y-95223990D01*
X135467067Y-95253842D01*
X135519176Y-95360430D01*
X135603069Y-95444323D01*
X135709657Y-95496432D01*
X135709658Y-95496432D01*
X135709660Y-95496433D01*
X135778758Y-95506500D01*
X135778764Y-95506500D01*
X136271236Y-95506500D01*
X136271242Y-95506500D01*
X136340340Y-95496433D01*
X136446929Y-95444324D01*
X136446930Y-95444323D01*
X136446932Y-95444322D01*
X136504819Y-95386435D01*
X136506995Y-95385246D01*
X136508268Y-95383116D01*
X136537506Y-95368586D01*
X136566142Y-95352950D01*
X136568615Y-95353126D01*
X136570837Y-95352023D01*
X136603275Y-95355605D01*
X136635834Y-95357934D01*
X136638583Y-95359505D01*
X136640285Y-95359693D01*
X136648214Y-95365008D01*
X136670586Y-95377791D01*
X136675613Y-95381866D01*
X136738071Y-95444324D01*
X136774825Y-95462292D01*
X136785783Y-95471175D01*
X136797939Y-95488791D01*
X136813741Y-95503230D01*
X136817387Y-95516976D01*
X136825464Y-95528682D01*
X136826166Y-95550074D01*
X136831654Y-95570764D01*
X136827289Y-95584299D01*
X136827756Y-95598514D01*
X136816780Y-95616889D01*
X136810212Y-95637262D01*
X136798608Y-95647316D01*
X136791929Y-95658500D01*
X136777328Y-95665755D01*
X136762160Y-95678899D01*
X136738070Y-95690676D01*
X136654178Y-95774568D01*
X136654176Y-95774569D01*
X136602067Y-95881157D01*
X136600530Y-95891711D01*
X136592000Y-95950258D01*
X136592000Y-96327742D01*
X136595688Y-96353053D01*
X136602067Y-96396842D01*
X136654176Y-96503430D01*
X136738068Y-96587322D01*
X136746430Y-96593292D01*
X136745653Y-96594379D01*
X136789350Y-96634302D01*
X136807265Y-96701836D01*
X136804280Y-96725813D01*
X136800474Y-96742716D01*
X136796112Y-96750272D01*
X136769500Y-96849590D01*
X136769500Y-96880288D01*
X136766472Y-96893737D01*
X136755929Y-96912715D01*
X136749815Y-96933539D01*
X136739300Y-96942649D01*
X136732543Y-96954815D01*
X136713414Y-96965080D01*
X136697011Y-96979294D01*
X136680055Y-96982982D01*
X136670978Y-96987854D01*
X136661204Y-96987083D01*
X136645500Y-96990500D01*
X136063854Y-96990500D01*
X135996815Y-96970815D01*
X135976173Y-96954181D01*
X134777419Y-95755426D01*
X134743934Y-95694103D01*
X134741100Y-95667745D01*
X134741100Y-94879676D01*
X134760785Y-94812637D01*
X134813589Y-94766882D01*
X134882747Y-94756938D01*
X134946303Y-94785963D01*
G37*
%TD.AperFunction*%
%TA.AperFunction,Conductor*%
G36*
X143813690Y-94494275D02*
G01*
X143815388Y-94494730D01*
X143815390Y-94494731D01*
X143898684Y-94517050D01*
X143898686Y-94517050D01*
X143984914Y-94517050D01*
X143984916Y-94517050D01*
X144068210Y-94494731D01*
X144068211Y-94494730D01*
X144069910Y-94494275D01*
X144102004Y-94490050D01*
X144181596Y-94490050D01*
X144213690Y-94494275D01*
X144215388Y-94494730D01*
X144215390Y-94494731D01*
X144298684Y-94517050D01*
X144298687Y-94517050D01*
X144306508Y-94518080D01*
X144370405Y-94546346D01*
X144408876Y-94604671D01*
X144413262Y-94624831D01*
X144414300Y-94632716D01*
X144433178Y-94703170D01*
X144432892Y-94715169D01*
X144437087Y-94726416D01*
X144432076Y-94749452D01*
X144431515Y-94773020D01*
X144424416Y-94784666D01*
X144422236Y-94794689D01*
X144401085Y-94822944D01*
X144336246Y-94887782D01*
X144274926Y-94921266D01*
X144248567Y-94924100D01*
X142790526Y-94924100D01*
X142728523Y-94907485D01*
X142719158Y-94902078D01*
X142660791Y-94868380D01*
X142660790Y-94868379D01*
X142635313Y-94861552D01*
X142584362Y-94847900D01*
X142584360Y-94847900D01*
X142517713Y-94847900D01*
X142450674Y-94828215D01*
X142450602Y-94828169D01*
X142439428Y-94820977D01*
X142403573Y-94785122D01*
X142314528Y-94733712D01*
X142296227Y-94728808D01*
X142279930Y-94718319D01*
X142269239Y-94705964D01*
X142255288Y-94697461D01*
X142246848Y-94680088D01*
X142234211Y-94665484D01*
X142231896Y-94649310D01*
X142224758Y-94634615D01*
X142227050Y-94615438D01*
X142224315Y-94596319D01*
X142231112Y-94581461D01*
X142233052Y-94565239D01*
X142245348Y-94550345D01*
X142253384Y-94532783D01*
X142267133Y-94523959D01*
X142277536Y-94511361D01*
X142295933Y-94505479D01*
X142312188Y-94495049D01*
X142328525Y-94495060D01*
X142344088Y-94490085D01*
X142347041Y-94490050D01*
X143781596Y-94490050D01*
X143813690Y-94494275D01*
G37*
%TD.AperFunction*%
%TA.AperFunction,Conductor*%
G36*
X145184321Y-86368627D02*
G01*
X145187012Y-86368338D01*
X145212457Y-86375810D01*
X145222348Y-86379906D01*
X145222350Y-86379908D01*
X145239432Y-86383306D01*
X145290677Y-86393500D01*
X145290680Y-86393500D01*
X145380500Y-86393500D01*
X145381586Y-86393818D01*
X145382678Y-86393519D01*
X145415042Y-86403642D01*
X145447539Y-86413185D01*
X145448279Y-86414039D01*
X145449361Y-86414378D01*
X145471119Y-86440398D01*
X145493294Y-86465989D01*
X145493692Y-86467393D01*
X145494182Y-86467978D01*
X145495069Y-86472238D01*
X145503529Y-86502011D01*
X145504500Y-86509723D01*
X145504500Y-86607320D01*
X145518092Y-86675650D01*
X145527083Y-86689106D01*
X145530659Y-86717511D01*
X145527636Y-86736198D01*
X145529659Y-86755019D01*
X145522192Y-86780451D01*
X145518091Y-86790351D01*
X145504500Y-86858677D01*
X145504500Y-86858680D01*
X145504500Y-87107320D01*
X145504500Y-87107322D01*
X145504499Y-87107322D01*
X145518091Y-87175648D01*
X145522192Y-87185549D01*
X145529659Y-87255019D01*
X145522192Y-87280451D01*
X145518091Y-87290351D01*
X145504500Y-87358677D01*
X145504500Y-87358680D01*
X145504500Y-87607320D01*
X145504500Y-87607322D01*
X145504499Y-87607322D01*
X145518091Y-87675648D01*
X145522192Y-87685549D01*
X145529659Y-87755019D01*
X145522192Y-87780451D01*
X145518091Y-87790351D01*
X145504500Y-87858677D01*
X145504500Y-87858680D01*
X145504500Y-88107320D01*
X145504500Y-88107322D01*
X145504499Y-88107322D01*
X145518091Y-88175648D01*
X145522192Y-88185549D01*
X145529659Y-88255019D01*
X145522192Y-88280451D01*
X145518091Y-88290351D01*
X145504500Y-88358677D01*
X145504500Y-88358680D01*
X145504500Y-88607320D01*
X145504500Y-88607322D01*
X145504499Y-88607322D01*
X145518091Y-88675648D01*
X145522192Y-88685549D01*
X145529659Y-88755019D01*
X145522192Y-88780451D01*
X145518091Y-88790351D01*
X145504500Y-88858677D01*
X145504500Y-88858680D01*
X145504500Y-89107320D01*
X145504500Y-89107322D01*
X145504499Y-89107322D01*
X145518091Y-89175648D01*
X145522192Y-89185549D01*
X145529659Y-89255019D01*
X145522192Y-89280451D01*
X145518091Y-89290351D01*
X145504500Y-89358677D01*
X145504500Y-89358680D01*
X145504500Y-89607320D01*
X145504500Y-89607322D01*
X145504499Y-89607322D01*
X145518091Y-89675648D01*
X145522192Y-89685549D01*
X145530659Y-89748489D01*
X145527083Y-89776893D01*
X145518092Y-89790350D01*
X145504500Y-89858680D01*
X145504500Y-89956276D01*
X145503529Y-89963989D01*
X145492554Y-89989181D01*
X145484815Y-90015539D01*
X145478803Y-90020748D01*
X145475625Y-90028044D01*
X145452772Y-90043304D01*
X145432011Y-90061294D01*
X145422846Y-90063287D01*
X145417519Y-90066845D01*
X145405526Y-90067055D01*
X145380500Y-90072500D01*
X145290678Y-90072500D01*
X145222351Y-90086091D01*
X145212451Y-90090192D01*
X145142981Y-90097659D01*
X145117549Y-90090192D01*
X145107648Y-90086091D01*
X145039322Y-90072500D01*
X145039320Y-90072500D01*
X144790680Y-90072500D01*
X144790678Y-90072500D01*
X144722351Y-90086091D01*
X144712451Y-90090192D01*
X144642981Y-90097659D01*
X144617549Y-90090192D01*
X144607648Y-90086091D01*
X144539322Y-90072500D01*
X144539320Y-90072500D01*
X144290680Y-90072500D01*
X144290678Y-90072500D01*
X144222351Y-90086091D01*
X144212451Y-90090192D01*
X144142981Y-90097659D01*
X144117549Y-90090192D01*
X144107648Y-90086091D01*
X144039322Y-90072500D01*
X144039320Y-90072500D01*
X143790680Y-90072500D01*
X143790678Y-90072500D01*
X143722351Y-90086091D01*
X143712451Y-90090192D01*
X143642981Y-90097659D01*
X143617549Y-90090192D01*
X143607648Y-90086091D01*
X143539322Y-90072500D01*
X143539320Y-90072500D01*
X143290680Y-90072500D01*
X143290678Y-90072500D01*
X143222351Y-90086091D01*
X143212451Y-90090192D01*
X143142981Y-90097659D01*
X143117549Y-90090192D01*
X143107648Y-90086091D01*
X143039322Y-90072500D01*
X143039320Y-90072500D01*
X142790680Y-90072500D01*
X142790678Y-90072500D01*
X142722351Y-90086091D01*
X142712451Y-90090192D01*
X142642981Y-90097659D01*
X142617549Y-90090192D01*
X142607648Y-90086091D01*
X142539322Y-90072500D01*
X142539320Y-90072500D01*
X142290680Y-90072500D01*
X142290678Y-90072500D01*
X142222351Y-90086091D01*
X142212451Y-90090192D01*
X142149511Y-90098659D01*
X142121106Y-90095083D01*
X142107650Y-90086092D01*
X142039320Y-90072500D01*
X141941724Y-90072500D01*
X141934011Y-90071529D01*
X141908818Y-90060554D01*
X141882461Y-90052815D01*
X141877251Y-90046803D01*
X141869956Y-90043625D01*
X141854695Y-90020772D01*
X141836706Y-90000011D01*
X141834712Y-89990846D01*
X141831155Y-89985519D01*
X141830944Y-89973526D01*
X141825500Y-89948500D01*
X141825500Y-89858677D01*
X141815200Y-89806900D01*
X141811908Y-89790350D01*
X141811906Y-89790348D01*
X141807810Y-89780457D01*
X141800338Y-89710988D01*
X141807810Y-89685543D01*
X141811905Y-89675653D01*
X141811908Y-89675650D01*
X141824228Y-89613714D01*
X141825500Y-89607322D01*
X141825500Y-89358677D01*
X141812094Y-89291286D01*
X141811908Y-89290350D01*
X141811906Y-89290348D01*
X141807810Y-89280457D01*
X141800338Y-89210988D01*
X141807810Y-89185543D01*
X141811905Y-89175653D01*
X141811908Y-89175650D01*
X141825500Y-89107320D01*
X141825500Y-88858680D01*
X141825500Y-88858677D01*
X141811908Y-88790351D01*
X141807810Y-88780457D01*
X141800338Y-88710988D01*
X141807810Y-88685543D01*
X141811905Y-88675653D01*
X141811908Y-88675650D01*
X141822610Y-88621848D01*
X141825500Y-88607322D01*
X141825500Y-88358677D01*
X141811908Y-88290351D01*
X141807810Y-88280457D01*
X141800338Y-88210988D01*
X141807810Y-88185543D01*
X141811905Y-88175653D01*
X141811908Y-88175650D01*
X141821113Y-88129375D01*
X141825500Y-88107322D01*
X141825500Y-87858677D01*
X141811908Y-87790351D01*
X141807810Y-87780457D01*
X141800338Y-87710988D01*
X141807810Y-87685543D01*
X141811905Y-87675653D01*
X141811908Y-87675650D01*
X141821321Y-87628328D01*
X141825500Y-87607322D01*
X141825500Y-87358677D01*
X141811908Y-87290351D01*
X141807810Y-87280457D01*
X141800338Y-87210988D01*
X141807810Y-87185543D01*
X141811905Y-87175653D01*
X141811908Y-87175650D01*
X141820491Y-87132500D01*
X141825500Y-87107322D01*
X141825500Y-86858677D01*
X141814418Y-86802969D01*
X141811908Y-86790350D01*
X141811906Y-86790348D01*
X141807810Y-86780457D01*
X141799340Y-86717511D01*
X141802915Y-86689107D01*
X141811908Y-86675650D01*
X141825500Y-86607320D01*
X141825500Y-86509723D01*
X141826471Y-86502011D01*
X141837445Y-86476819D01*
X141845185Y-86450461D01*
X141851197Y-86445251D01*
X141854376Y-86437955D01*
X141877228Y-86422695D01*
X141897989Y-86404706D01*
X141907153Y-86402712D01*
X141912481Y-86399155D01*
X141924473Y-86398944D01*
X141949500Y-86393500D01*
X142039322Y-86393500D01*
X142073485Y-86386704D01*
X142107650Y-86379908D01*
X142107653Y-86379905D01*
X142117543Y-86375810D01*
X142187012Y-86368338D01*
X142212457Y-86375810D01*
X142222348Y-86379906D01*
X142222350Y-86379908D01*
X142239432Y-86383306D01*
X142290677Y-86393500D01*
X142290680Y-86393500D01*
X142539322Y-86393500D01*
X142573485Y-86386704D01*
X142607650Y-86379908D01*
X142607653Y-86379905D01*
X142617543Y-86375810D01*
X142687012Y-86368338D01*
X142712457Y-86375810D01*
X142722348Y-86379906D01*
X142722350Y-86379908D01*
X142739432Y-86383306D01*
X142790677Y-86393500D01*
X142790680Y-86393500D01*
X143039322Y-86393500D01*
X143073485Y-86386704D01*
X143107650Y-86379908D01*
X143107653Y-86379905D01*
X143117543Y-86375810D01*
X143187012Y-86368338D01*
X143212457Y-86375810D01*
X143222348Y-86379906D01*
X143222350Y-86379908D01*
X143239432Y-86383306D01*
X143290677Y-86393500D01*
X143290680Y-86393500D01*
X143539322Y-86393500D01*
X143573485Y-86386704D01*
X143607650Y-86379908D01*
X143607653Y-86379905D01*
X143617543Y-86375810D01*
X143687012Y-86368338D01*
X143712457Y-86375810D01*
X143722348Y-86379906D01*
X143722350Y-86379908D01*
X143739432Y-86383306D01*
X143790677Y-86393500D01*
X143790680Y-86393500D01*
X144039322Y-86393500D01*
X144073485Y-86386704D01*
X144107650Y-86379908D01*
X144107653Y-86379905D01*
X144117543Y-86375810D01*
X144187012Y-86368338D01*
X144212457Y-86375810D01*
X144222348Y-86379906D01*
X144222350Y-86379908D01*
X144239432Y-86383306D01*
X144290677Y-86393500D01*
X144290680Y-86393500D01*
X144539322Y-86393500D01*
X144573485Y-86386704D01*
X144607650Y-86379908D01*
X144607653Y-86379905D01*
X144617543Y-86375810D01*
X144687012Y-86368338D01*
X144712457Y-86375810D01*
X144722348Y-86379906D01*
X144722350Y-86379908D01*
X144739432Y-86383306D01*
X144790677Y-86393500D01*
X144790680Y-86393500D01*
X145039322Y-86393500D01*
X145073485Y-86386704D01*
X145107650Y-86379908D01*
X145107653Y-86379905D01*
X145117543Y-86375810D01*
X145148058Y-86372527D01*
X145178260Y-86367080D01*
X145184321Y-86368627D01*
G37*
%TD.AperFunction*%
%TA.AperFunction,Conductor*%
G36*
X140890445Y-82888226D02*
G01*
X140891217Y-82888010D01*
X140923894Y-82898047D01*
X140956715Y-82907685D01*
X140957259Y-82908296D01*
X140958006Y-82908526D01*
X140984391Y-82931968D01*
X140994319Y-82943717D01*
X141020551Y-82997375D01*
X141105625Y-83082449D01*
X141115711Y-83087380D01*
X141130573Y-83104968D01*
X141158806Y-83168879D01*
X141148004Y-83237909D01*
X141112741Y-83280136D01*
X141112890Y-83280285D01*
X141111232Y-83281942D01*
X141107916Y-83285914D01*
X141105625Y-83287549D01*
X141020550Y-83372624D01*
X141020548Y-83372627D01*
X140967710Y-83480710D01*
X140967709Y-83480712D01*
X140967709Y-83480714D01*
X140957500Y-83550785D01*
X140957500Y-83550789D01*
X140957500Y-83550790D01*
X140957500Y-84014213D01*
X140962753Y-84050269D01*
X140967709Y-84084286D01*
X140967709Y-84084287D01*
X140967710Y-84084289D01*
X140967710Y-84084291D01*
X141020548Y-84192372D01*
X141020550Y-84192374D01*
X141020551Y-84192375D01*
X141042422Y-84214246D01*
X141075907Y-84275567D01*
X141070924Y-84345259D01*
X141062129Y-84363925D01*
X141037914Y-84405867D01*
X141037912Y-84405872D01*
X141011300Y-84505190D01*
X141011300Y-84608010D01*
X141032290Y-84686344D01*
X141037912Y-84707327D01*
X141037913Y-84707330D01*
X141089319Y-84796369D01*
X141089321Y-84796372D01*
X141089322Y-84796373D01*
X141162027Y-84869078D01*
X141162028Y-84869079D01*
X141162030Y-84869080D01*
X141189099Y-84884708D01*
X141251072Y-84920488D01*
X141350390Y-84947100D01*
X141350392Y-84947100D01*
X141453207Y-84947100D01*
X141453210Y-84947100D01*
X141458408Y-84945707D01*
X141483401Y-84946302D01*
X141508147Y-84942744D01*
X141517727Y-84947119D01*
X141528256Y-84947370D01*
X141548959Y-84961382D01*
X141571703Y-84971769D01*
X141577397Y-84980629D01*
X141586118Y-84986532D01*
X141595959Y-85009512D01*
X141609477Y-85030547D01*
X141611756Y-85046401D01*
X141613623Y-85050760D01*
X141614500Y-85065482D01*
X141614500Y-85255695D01*
X141597403Y-85313919D01*
X141597765Y-85314069D01*
X141596371Y-85317432D01*
X141594815Y-85322734D01*
X141593604Y-85324582D01*
X141593094Y-85325345D01*
X141593090Y-85325353D01*
X141579500Y-85393677D01*
X141579500Y-85711767D01*
X141559815Y-85778806D01*
X141507011Y-85824561D01*
X141437853Y-85834505D01*
X141374297Y-85805480D01*
X141367819Y-85799448D01*
X141186994Y-85618623D01*
X141154900Y-85563036D01*
X141130688Y-85472672D01*
X141085082Y-85393680D01*
X141079280Y-85383630D01*
X141079276Y-85383625D01*
X141006574Y-85310923D01*
X141006569Y-85310919D01*
X140917530Y-85259513D01*
X140917529Y-85259512D01*
X140917528Y-85259512D01*
X140818210Y-85232900D01*
X140715390Y-85232900D01*
X140616072Y-85259512D01*
X140616069Y-85259513D01*
X140527030Y-85310919D01*
X140527025Y-85310923D01*
X140454323Y-85383625D01*
X140454319Y-85383630D01*
X140402913Y-85472669D01*
X140402912Y-85472672D01*
X140376300Y-85571990D01*
X140376300Y-85674810D01*
X140402553Y-85772786D01*
X140402912Y-85774127D01*
X140402913Y-85774130D01*
X140454319Y-85863169D01*
X140454321Y-85863172D01*
X140454322Y-85863173D01*
X140527027Y-85935878D01*
X140527028Y-85935879D01*
X140527030Y-85935880D01*
X140559136Y-85954416D01*
X140616072Y-85987288D01*
X140638225Y-85993224D01*
X140697885Y-86029587D01*
X140728415Y-86092433D01*
X140720121Y-86161809D01*
X140686636Y-86202364D01*
X140688501Y-86204229D01*
X140679865Y-86212864D01*
X140628091Y-86290349D01*
X140614500Y-86358677D01*
X140614500Y-86480500D01*
X140594815Y-86547539D01*
X140542011Y-86593294D01*
X140490500Y-86604500D01*
X140435990Y-86604500D01*
X140336672Y-86631112D01*
X140336669Y-86631113D01*
X140247630Y-86682519D01*
X140247625Y-86682523D01*
X140174923Y-86755225D01*
X140174919Y-86755230D01*
X140123513Y-86844269D01*
X140123512Y-86844272D01*
X140096900Y-86943590D01*
X140096900Y-87046411D01*
X140110458Y-87097011D01*
X140108795Y-87166861D01*
X140078366Y-87216783D01*
X140057319Y-87237830D01*
X140005913Y-87326869D01*
X140005912Y-87326872D01*
X139979300Y-87426190D01*
X139979300Y-87529010D01*
X140000284Y-87607322D01*
X140005912Y-87628327D01*
X140005913Y-87628330D01*
X140059224Y-87720668D01*
X140060044Y-87721353D01*
X140060548Y-87722961D01*
X140061385Y-87724411D01*
X140061061Y-87724597D01*
X140069333Y-87750984D01*
X140080536Y-87779962D01*
X140080054Y-87785181D01*
X140080945Y-87788023D01*
X140078695Y-87799900D01*
X140076559Y-87823043D01*
X140073865Y-87832873D01*
X140072712Y-87834872D01*
X140046100Y-87934190D01*
X140046100Y-87934222D01*
X140045614Y-87935996D01*
X140027487Y-87965363D01*
X140009431Y-87994986D01*
X140009104Y-87995144D01*
X140008915Y-87995452D01*
X139977760Y-88010370D01*
X139946584Y-88025515D01*
X139946223Y-88025471D01*
X139945898Y-88025628D01*
X139911559Y-88021327D01*
X139877208Y-88017220D01*
X139876929Y-88016990D01*
X139876570Y-88016945D01*
X139850056Y-87994802D01*
X139823330Y-87972735D01*
X139822997Y-87972203D01*
X139822943Y-87972158D01*
X139822917Y-87972075D01*
X139818633Y-87965231D01*
X139809278Y-87949027D01*
X139736574Y-87876323D01*
X139736569Y-87876319D01*
X139647530Y-87824913D01*
X139647529Y-87824912D01*
X139647528Y-87824912D01*
X139548210Y-87798300D01*
X139445390Y-87798300D01*
X139346072Y-87824912D01*
X139346069Y-87824913D01*
X139257030Y-87876319D01*
X139257025Y-87876323D01*
X139184323Y-87949025D01*
X139184319Y-87949030D01*
X139132913Y-88038069D01*
X139132912Y-88038072D01*
X139106300Y-88137390D01*
X139106300Y-88240210D01*
X139126240Y-88314629D01*
X139135016Y-88347379D01*
X139132456Y-88348064D01*
X139138523Y-88404525D01*
X139107244Y-88467002D01*
X139047153Y-88502650D01*
X139016495Y-88506500D01*
X138706286Y-88506500D01*
X138662367Y-88512899D01*
X138636214Y-88516709D01*
X138636212Y-88516709D01*
X138636210Y-88516710D01*
X138636208Y-88516710D01*
X138518893Y-88574063D01*
X138517456Y-88571123D01*
X138467938Y-88588324D01*
X138400020Y-88571927D01*
X138351748Y-88521414D01*
X138337900Y-88464471D01*
X138337900Y-88365992D01*
X138337900Y-88365990D01*
X138311288Y-88266672D01*
X138264452Y-88185549D01*
X138259880Y-88177630D01*
X138259876Y-88177625D01*
X138187174Y-88104923D01*
X138187169Y-88104919D01*
X138098130Y-88053513D01*
X138098129Y-88053512D01*
X138098128Y-88053512D01*
X137998810Y-88026900D01*
X137931500Y-88026900D01*
X137864461Y-88007215D01*
X137818706Y-87954411D01*
X137807500Y-87902900D01*
X137807499Y-87562786D01*
X137804485Y-87542099D01*
X137797291Y-87492714D01*
X137797289Y-87492709D01*
X137797289Y-87492708D01*
X137744451Y-87384627D01*
X137744449Y-87384624D01*
X137659375Y-87299550D01*
X137574428Y-87258022D01*
X137561753Y-87246726D01*
X137547546Y-87240213D01*
X137528447Y-87217046D01*
X137524473Y-87213505D01*
X137522936Y-87211106D01*
X137489960Y-87153989D01*
X137479917Y-87143946D01*
X137472677Y-87132643D01*
X137466495Y-87111471D01*
X137455927Y-87092118D01*
X137456894Y-87078592D01*
X137453093Y-87065574D01*
X137459337Y-87044423D01*
X137460911Y-87022426D01*
X137469037Y-87011569D01*
X137472878Y-86998564D01*
X137489567Y-86984146D01*
X137502783Y-86966493D01*
X137519277Y-86958480D01*
X137525750Y-86952889D01*
X137532873Y-86951875D01*
X137544996Y-86945986D01*
X137615528Y-86927088D01*
X137704573Y-86875678D01*
X137777278Y-86802973D01*
X137828688Y-86713928D01*
X137855300Y-86614610D01*
X137855300Y-86511790D01*
X137828688Y-86412472D01*
X137802481Y-86367080D01*
X137777280Y-86323430D01*
X137777276Y-86323425D01*
X137704574Y-86250723D01*
X137704569Y-86250719D01*
X137615530Y-86199313D01*
X137615529Y-86199312D01*
X137582921Y-86190575D01*
X137533904Y-86177441D01*
X137520018Y-86169423D01*
X137506573Y-86166499D01*
X137478319Y-86145348D01*
X137335152Y-86002181D01*
X137301667Y-85940858D01*
X137306651Y-85871166D01*
X137348523Y-85815233D01*
X137413987Y-85790816D01*
X137422833Y-85790500D01*
X137612360Y-85790500D01*
X137612362Y-85790500D01*
X137688789Y-85770021D01*
X137757311Y-85730460D01*
X137813260Y-85674511D01*
X137951822Y-85535948D01*
X138013141Y-85502466D01*
X138082833Y-85507450D01*
X138138767Y-85549321D01*
X138163184Y-85614785D01*
X138163500Y-85623631D01*
X138163500Y-85702713D01*
X138169654Y-85744953D01*
X138173709Y-85772786D01*
X138173709Y-85772787D01*
X138173710Y-85772789D01*
X138173710Y-85772791D01*
X138226548Y-85880872D01*
X138226550Y-85880875D01*
X138255744Y-85910069D01*
X138289229Y-85971392D01*
X138284245Y-86041084D01*
X138255744Y-86085431D01*
X138226550Y-86114624D01*
X138226548Y-86114627D01*
X138173710Y-86222710D01*
X138173709Y-86222712D01*
X138173709Y-86222714D01*
X138163500Y-86292785D01*
X138163500Y-86292789D01*
X138163500Y-86292790D01*
X138163500Y-86806213D01*
X138167178Y-86831455D01*
X138173709Y-86876286D01*
X138173709Y-86876287D01*
X138173710Y-86876289D01*
X138173710Y-86876291D01*
X138226548Y-86984372D01*
X138226550Y-86984375D01*
X138311624Y-87069449D01*
X138311627Y-87069451D01*
X138415201Y-87120084D01*
X138419714Y-87122291D01*
X138489785Y-87132500D01*
X138878214Y-87132499D01*
X138948286Y-87122291D01*
X138948290Y-87122289D01*
X138948291Y-87122289D01*
X139056372Y-87069451D01*
X139056375Y-87069449D01*
X139141449Y-86984375D01*
X139141451Y-86984372D01*
X139191418Y-86882162D01*
X139194291Y-86876286D01*
X139204500Y-86806215D01*
X139204499Y-86292786D01*
X139194291Y-86222714D01*
X139194289Y-86222709D01*
X139194289Y-86222708D01*
X139141451Y-86114627D01*
X139141449Y-86114624D01*
X139112256Y-86085431D01*
X139078771Y-86024108D01*
X139083755Y-85954416D01*
X139112256Y-85910069D01*
X139141449Y-85880875D01*
X139141451Y-85880872D01*
X139167870Y-85826830D01*
X139194291Y-85772786D01*
X139204500Y-85702715D01*
X139204499Y-85239286D01*
X139194291Y-85169214D01*
X139194289Y-85169209D01*
X139194289Y-85169208D01*
X139141451Y-85061127D01*
X139141449Y-85061124D01*
X139056377Y-84976052D01*
X139054087Y-84974417D01*
X139051704Y-84971379D01*
X139049110Y-84968785D01*
X139049423Y-84968471D01*
X139010966Y-84919442D01*
X139004411Y-84849880D01*
X139036505Y-84787818D01*
X139054087Y-84772583D01*
X139056372Y-84770950D01*
X139056375Y-84770949D01*
X139141449Y-84685875D01*
X139141451Y-84685872D01*
X139179515Y-84608010D01*
X139194291Y-84577786D01*
X139204500Y-84507715D01*
X139204499Y-84292099D01*
X139224183Y-84225061D01*
X139276987Y-84179306D01*
X139328499Y-84168100D01*
X139359490Y-84168100D01*
X139359492Y-84168100D01*
X139486786Y-84133992D01*
X139600914Y-84068100D01*
X139694100Y-83974914D01*
X139759992Y-83860786D01*
X139794100Y-83733492D01*
X139794100Y-83601708D01*
X139794099Y-83601706D01*
X139793039Y-83593652D01*
X139795177Y-83593370D01*
X139796568Y-83534877D01*
X139835729Y-83477013D01*
X139882585Y-83452855D01*
X139994786Y-83422792D01*
X140108914Y-83356900D01*
X140202100Y-83263714D01*
X140267992Y-83149586D01*
X140302100Y-83022292D01*
X140302100Y-83012000D01*
X140321785Y-82944961D01*
X140374589Y-82899206D01*
X140426100Y-82888000D01*
X140889676Y-82888000D01*
X140890445Y-82888226D01*
G37*
%TD.AperFunction*%
%TA.AperFunction,Conductor*%
G36*
X134537239Y-78556485D02*
G01*
X134582994Y-78609289D01*
X134594200Y-78660800D01*
X134594200Y-78689499D01*
X134574515Y-78756538D01*
X134521711Y-78802293D01*
X134470200Y-78813499D01*
X134217946Y-78813499D01*
X134159469Y-78825130D01*
X134159468Y-78825131D01*
X134093146Y-78869446D01*
X134048831Y-78935768D01*
X134048830Y-78935769D01*
X134037199Y-78994246D01*
X134037199Y-79633751D01*
X134048830Y-79692228D01*
X134048831Y-79692229D01*
X134093146Y-79758551D01*
X134159468Y-79802866D01*
X134159469Y-79802867D01*
X134217946Y-79814498D01*
X134217949Y-79814499D01*
X134217951Y-79814499D01*
X135257449Y-79814499D01*
X135257450Y-79814498D01*
X135272267Y-79811551D01*
X135315928Y-79802867D01*
X135315928Y-79802866D01*
X135315930Y-79802866D01*
X135382251Y-79758551D01*
X135426566Y-79692230D01*
X135426567Y-79692227D01*
X135427059Y-79691042D01*
X135428820Y-79688856D01*
X135433351Y-79682076D01*
X135433957Y-79682481D01*
X135439600Y-79675479D01*
X135447905Y-79657296D01*
X135461077Y-79648830D01*
X135470902Y-79636640D01*
X135489867Y-79630328D01*
X135506683Y-79619522D01*
X135534251Y-79615558D01*
X135537197Y-79614578D01*
X135541618Y-79614499D01*
X135763781Y-79614499D01*
X135830820Y-79634184D01*
X135866883Y-79669608D01*
X135912546Y-79737948D01*
X135978868Y-79782263D01*
X135978869Y-79782264D01*
X136037346Y-79793895D01*
X136037349Y-79793896D01*
X136037351Y-79793896D01*
X137420063Y-79793896D01*
X137487102Y-79813581D01*
X137507744Y-79830215D01*
X138075240Y-80397711D01*
X138131189Y-80453660D01*
X138131191Y-80453661D01*
X138131195Y-80453664D01*
X138154731Y-80467252D01*
X138199711Y-80493221D01*
X138258291Y-80508917D01*
X138317950Y-80545283D01*
X138348479Y-80608130D01*
X138340184Y-80677505D01*
X138295698Y-80731383D01*
X138273652Y-80743252D01*
X138267667Y-80745731D01*
X138201346Y-80790045D01*
X138157031Y-80856367D01*
X138157030Y-80856368D01*
X138145399Y-80914845D01*
X138145399Y-81513150D01*
X138157030Y-81571627D01*
X138157031Y-81571628D01*
X138201346Y-81637950D01*
X138267668Y-81682265D01*
X138267669Y-81682266D01*
X138326146Y-81693897D01*
X138326149Y-81693898D01*
X138326151Y-81693898D01*
X139788049Y-81693898D01*
X139788050Y-81693897D01*
X139802867Y-81690950D01*
X139846528Y-81682266D01*
X139846528Y-81682265D01*
X139846530Y-81682265D01*
X139912851Y-81637950D01*
X139957166Y-81571629D01*
X139957166Y-81571627D01*
X139957167Y-81571627D01*
X139968798Y-81513150D01*
X139968799Y-81513148D01*
X139968799Y-80914847D01*
X139968798Y-80914845D01*
X139957167Y-80856368D01*
X139957166Y-80856367D01*
X139917225Y-80796591D01*
X139896347Y-80729914D01*
X139914831Y-80662533D01*
X139966810Y-80615843D01*
X140020327Y-80603700D01*
X140107008Y-80603700D01*
X140107010Y-80603700D01*
X140206328Y-80577088D01*
X140287345Y-80530313D01*
X140349345Y-80513700D01*
X140667167Y-80513700D01*
X140734206Y-80533385D01*
X140754848Y-80550019D01*
X141141181Y-80936352D01*
X141174666Y-80997675D01*
X141177500Y-81024033D01*
X141177500Y-81980008D01*
X141157815Y-82047047D01*
X141145886Y-82062717D01*
X141129724Y-82080769D01*
X141105625Y-82092551D01*
X141020551Y-82177625D01*
X140993527Y-82232902D01*
X140982062Y-82245709D01*
X140966388Y-82255426D01*
X140953949Y-82269042D01*
X140936620Y-82273883D01*
X140922680Y-82282527D01*
X140906615Y-82282266D01*
X140889676Y-82287000D01*
X140130938Y-82287000D01*
X140092724Y-82297239D01*
X140054509Y-82307479D01*
X140054508Y-82307480D01*
X140021168Y-82326728D01*
X140021163Y-82326732D01*
X140010934Y-82332638D01*
X139985989Y-82347040D01*
X139910300Y-82422727D01*
X139906935Y-82425642D01*
X139879037Y-82438370D01*
X139852123Y-82453066D01*
X139845194Y-82453810D01*
X139843369Y-82454644D01*
X139840838Y-82454279D01*
X139825766Y-82455900D01*
X139735708Y-82455900D01*
X139608412Y-82490008D01*
X139494286Y-82555900D01*
X139494283Y-82555902D01*
X139401102Y-82649083D01*
X139401100Y-82649086D01*
X139335208Y-82763212D01*
X139301100Y-82890508D01*
X139301100Y-83022290D01*
X139302161Y-83030348D01*
X139300023Y-83030629D01*
X139298625Y-83089139D01*
X139259457Y-83146997D01*
X139212611Y-83171145D01*
X139179962Y-83179893D01*
X139100414Y-83201208D01*
X139100412Y-83201208D01*
X139100412Y-83201209D01*
X138986286Y-83267100D01*
X138986283Y-83267102D01*
X138893102Y-83360283D01*
X138893100Y-83360286D01*
X138827208Y-83474412D01*
X138793100Y-83601708D01*
X138792039Y-83609768D01*
X138791558Y-83609704D01*
X138791838Y-83611647D01*
X138780859Y-83635687D01*
X138773415Y-83661039D01*
X138766574Y-83666966D01*
X138762813Y-83675203D01*
X138740578Y-83689492D01*
X138720611Y-83706794D01*
X138710096Y-83709081D01*
X138704035Y-83712977D01*
X138669100Y-83718000D01*
X138651933Y-83718000D01*
X138584894Y-83698315D01*
X138564252Y-83681681D01*
X138335114Y-83452542D01*
X138335111Y-83452540D01*
X138333308Y-83451499D01*
X138333308Y-83451498D01*
X138266589Y-83412979D01*
X138266590Y-83412979D01*
X138226097Y-83402129D01*
X138190162Y-83392500D01*
X136968038Y-83392500D01*
X136932103Y-83402129D01*
X136891610Y-83412979D01*
X136824891Y-83451498D01*
X136824892Y-83451499D01*
X136823088Y-83452540D01*
X136823085Y-83452542D01*
X136613489Y-83662140D01*
X136557541Y-83718087D01*
X136557535Y-83718095D01*
X136517982Y-83786604D01*
X136517979Y-83786609D01*
X136511789Y-83809711D01*
X136497533Y-83862917D01*
X136497500Y-83863039D01*
X136497500Y-83910401D01*
X136488203Y-83942061D01*
X136479932Y-83974027D01*
X136478401Y-83975442D01*
X136477815Y-83977440D01*
X136452890Y-83999037D01*
X136428638Y-84021468D01*
X136426584Y-84021831D01*
X136425011Y-84023195D01*
X136392349Y-84027891D01*
X136359838Y-84033646D01*
X136357549Y-84032895D01*
X136355853Y-84033139D01*
X136325669Y-84024805D01*
X136310524Y-84018473D01*
X136307573Y-84015522D01*
X136218528Y-83964112D01*
X136119210Y-83937500D01*
X136116851Y-83937500D01*
X136104954Y-83932526D01*
X136084034Y-83915553D01*
X136061031Y-83901532D01*
X136057309Y-83893870D01*
X136050696Y-83888505D01*
X136042273Y-83862917D01*
X136030502Y-83838685D01*
X136031513Y-83830228D01*
X136028850Y-83822138D01*
X136035598Y-83796055D01*
X136038797Y-83769309D01*
X136045400Y-83756120D01*
X136048005Y-83751609D01*
X136080521Y-83695289D01*
X136101000Y-83618862D01*
X136101000Y-83618858D01*
X136101790Y-83615910D01*
X136138155Y-83556249D01*
X136167106Y-83536602D01*
X136210375Y-83515449D01*
X136295449Y-83430375D01*
X136295451Y-83430372D01*
X136323681Y-83372627D01*
X136348291Y-83322286D01*
X136358500Y-83252215D01*
X136358499Y-82863786D01*
X136348291Y-82793714D01*
X136348289Y-82793709D01*
X136348289Y-82793708D01*
X136295451Y-82685627D01*
X136295449Y-82685624D01*
X136210375Y-82600550D01*
X136210372Y-82600548D01*
X136102289Y-82547710D01*
X136102287Y-82547709D01*
X136102286Y-82547709D01*
X136048892Y-82539929D01*
X135985394Y-82510787D01*
X135947730Y-82451938D01*
X135946998Y-82385133D01*
X135950300Y-82372810D01*
X135950300Y-82269990D01*
X135923688Y-82170672D01*
X135872278Y-82081627D01*
X135799573Y-82008922D01*
X135799572Y-82008921D01*
X135799569Y-82008919D01*
X135710530Y-81957513D01*
X135710529Y-81957512D01*
X135710528Y-81957512D01*
X135611210Y-81930900D01*
X135508390Y-81930900D01*
X135409072Y-81957512D01*
X135409069Y-81957513D01*
X135328055Y-82004287D01*
X135266055Y-82020900D01*
X134986838Y-82020900D01*
X134910410Y-82041378D01*
X134841890Y-82080939D01*
X134548646Y-82374182D01*
X134487323Y-82407666D01*
X134460966Y-82410500D01*
X134223786Y-82410500D01*
X134174342Y-82417703D01*
X134153714Y-82420709D01*
X134153712Y-82420709D01*
X134153710Y-82420710D01*
X134153708Y-82420710D01*
X134045627Y-82473548D01*
X134045624Y-82473550D01*
X133960550Y-82558624D01*
X133960548Y-82558627D01*
X133907710Y-82666710D01*
X133907709Y-82666712D01*
X133907709Y-82666714D01*
X133897500Y-82736785D01*
X133897500Y-82736789D01*
X133897500Y-82736790D01*
X133897500Y-83125213D01*
X133903469Y-83166183D01*
X133907709Y-83195286D01*
X133907709Y-83195287D01*
X133907710Y-83195289D01*
X133907710Y-83195291D01*
X133960548Y-83303372D01*
X133960550Y-83303375D01*
X134045624Y-83388449D01*
X134053988Y-83394421D01*
X134052115Y-83397044D01*
X134090932Y-83432508D01*
X134108848Y-83500042D01*
X134087409Y-83566541D01*
X134039353Y-83608183D01*
X134003568Y-83625677D01*
X134003568Y-83625678D01*
X133919678Y-83709568D01*
X133919676Y-83709569D01*
X133867567Y-83816157D01*
X133867567Y-83816160D01*
X133857500Y-83885258D01*
X133857500Y-84262742D01*
X133864590Y-84311408D01*
X133867567Y-84331842D01*
X133919676Y-84438430D01*
X133988681Y-84507435D01*
X134022166Y-84568758D01*
X134025000Y-84595116D01*
X134025000Y-84766573D01*
X134025000Y-84872027D01*
X134035979Y-84913001D01*
X134052293Y-84973889D01*
X134079769Y-85021478D01*
X134105020Y-85065213D01*
X134179510Y-85139703D01*
X134233981Y-85194173D01*
X134267466Y-85255496D01*
X134270300Y-85281855D01*
X134270300Y-86569781D01*
X134250615Y-86636820D01*
X134197811Y-86682575D01*
X134128653Y-86692519D01*
X134077410Y-86672884D01*
X134047291Y-86652760D01*
X134047290Y-86652759D01*
X134047289Y-86652758D01*
X134047288Y-86652758D01*
X134047288Y-86652757D01*
X133988811Y-86641126D01*
X133988807Y-86641126D01*
X132799199Y-86641126D01*
X132799194Y-86641126D01*
X132740717Y-86652757D01*
X132740716Y-86652758D01*
X132674394Y-86697073D01*
X132630079Y-86763395D01*
X132630078Y-86763396D01*
X132618447Y-86821873D01*
X132618447Y-87461326D01*
X132629628Y-87517537D01*
X132629628Y-87565919D01*
X132618503Y-87621848D01*
X132618503Y-87892100D01*
X132598818Y-87959139D01*
X132546014Y-88004894D01*
X132494503Y-88016100D01*
X132195878Y-88016100D01*
X132128839Y-87996415D01*
X132108197Y-87979781D01*
X131629819Y-87501403D01*
X131596334Y-87440080D01*
X131593500Y-87413722D01*
X131593500Y-85416201D01*
X131593499Y-85416198D01*
X131590597Y-85409192D01*
X131590596Y-85409189D01*
X131551558Y-85314942D01*
X131059499Y-84822884D01*
X131049816Y-84811990D01*
X131040171Y-84799761D01*
X131039221Y-84796212D01*
X130999660Y-84727689D01*
X130922412Y-84650441D01*
X130917894Y-84644712D01*
X130907477Y-84618795D01*
X130894093Y-84594284D01*
X130894626Y-84586823D01*
X130891837Y-84579883D01*
X130897084Y-84552451D01*
X130899077Y-84524592D01*
X130903828Y-84517198D01*
X130904965Y-84511258D01*
X130913239Y-84502555D01*
X130927578Y-84480245D01*
X130961449Y-84446375D01*
X130961449Y-84446374D01*
X130961450Y-84446374D01*
X130961451Y-84446372D01*
X130993138Y-84381555D01*
X131014291Y-84338286D01*
X131024500Y-84268215D01*
X131024499Y-83879786D01*
X131014291Y-83809714D01*
X131014289Y-83809709D01*
X131014289Y-83809708D01*
X130961451Y-83701627D01*
X130961449Y-83701624D01*
X130876375Y-83616550D01*
X130876372Y-83616548D01*
X130768289Y-83563710D01*
X130768287Y-83563709D01*
X130768286Y-83563709D01*
X130698215Y-83553500D01*
X130698209Y-83553500D01*
X130620892Y-83553500D01*
X130590521Y-83544582D01*
X130559704Y-83537352D01*
X130557244Y-83534810D01*
X130553853Y-83533815D01*
X130533132Y-83509902D01*
X130511108Y-83487150D01*
X130510412Y-83483681D01*
X130508098Y-83481011D01*
X130503593Y-83449686D01*
X130497368Y-83418645D01*
X130498529Y-83414466D01*
X130498154Y-83411853D01*
X130505430Y-83384284D01*
X130507272Y-83379577D01*
X130538433Y-83315840D01*
X130542105Y-83290629D01*
X130547295Y-83277379D01*
X130560319Y-83260557D01*
X130569193Y-83241220D01*
X130581283Y-83233481D01*
X130590070Y-83222133D01*
X130610121Y-83215023D01*
X130628041Y-83203554D01*
X130642930Y-83203390D01*
X130655922Y-83198784D01*
X130674096Y-83203048D01*
X130694846Y-83202820D01*
X130758590Y-83219900D01*
X130758593Y-83219900D01*
X130861408Y-83219900D01*
X130861410Y-83219900D01*
X130960728Y-83193288D01*
X131049773Y-83141878D01*
X131122478Y-83069173D01*
X131173888Y-82980128D01*
X131200500Y-82880810D01*
X131200500Y-82777990D01*
X131173888Y-82678672D01*
X131135380Y-82611974D01*
X131122480Y-82589630D01*
X131122476Y-82589625D01*
X131049774Y-82516923D01*
X131049769Y-82516919D01*
X130960730Y-82465513D01*
X130960729Y-82465512D01*
X130960728Y-82465512D01*
X130861410Y-82438900D01*
X130861409Y-82438900D01*
X130856169Y-82437496D01*
X130796508Y-82401131D01*
X130765979Y-82338284D01*
X130768486Y-82285632D01*
X130802500Y-82158692D01*
X130802500Y-82026908D01*
X130768392Y-81899614D01*
X130702500Y-81785486D01*
X130643193Y-81726179D01*
X130609708Y-81664856D01*
X130614692Y-81595164D01*
X130656564Y-81539231D01*
X130722028Y-81514814D01*
X130730874Y-81514498D01*
X131183780Y-81514498D01*
X131250819Y-81534183D01*
X131296574Y-81586987D01*
X131298339Y-81591041D01*
X131298830Y-81592226D01*
X131343146Y-81658550D01*
X131409468Y-81702865D01*
X131409469Y-81702866D01*
X131467946Y-81714497D01*
X131467949Y-81714498D01*
X131467951Y-81714498D01*
X132507449Y-81714498D01*
X132507450Y-81714497D01*
X132522267Y-81711550D01*
X132565928Y-81702866D01*
X132565928Y-81702865D01*
X132565930Y-81702865D01*
X132632251Y-81658550D01*
X132676566Y-81592229D01*
X132676566Y-81592227D01*
X132676567Y-81592227D01*
X132687108Y-81539231D01*
X132688199Y-81533746D01*
X132688199Y-80894250D01*
X132688199Y-80894247D01*
X132688198Y-80894245D01*
X134037199Y-80894245D01*
X134037199Y-81533750D01*
X134048830Y-81592227D01*
X134048831Y-81592228D01*
X134093146Y-81658550D01*
X134159468Y-81702865D01*
X134159469Y-81702866D01*
X134217946Y-81714497D01*
X134217949Y-81714498D01*
X134217951Y-81714498D01*
X135257449Y-81714498D01*
X135257450Y-81714497D01*
X135272267Y-81711550D01*
X135315928Y-81702866D01*
X135315928Y-81702865D01*
X135315930Y-81702865D01*
X135382251Y-81658550D01*
X135426566Y-81592229D01*
X135426566Y-81592227D01*
X135426567Y-81592227D01*
X135437108Y-81539231D01*
X135438199Y-81533746D01*
X135438199Y-80914845D01*
X135856599Y-80914845D01*
X135856599Y-81513150D01*
X135868230Y-81571627D01*
X135868231Y-81571628D01*
X135912546Y-81637950D01*
X135978868Y-81682265D01*
X135978869Y-81682266D01*
X136037346Y-81693897D01*
X136037349Y-81693898D01*
X136037351Y-81693898D01*
X136538765Y-81693898D01*
X136605804Y-81713583D01*
X136626446Y-81730217D01*
X137273205Y-82376976D01*
X137305299Y-82432563D01*
X137329512Y-82522929D01*
X137329513Y-82522930D01*
X137380919Y-82611969D01*
X137380921Y-82611972D01*
X137380922Y-82611973D01*
X137453627Y-82684678D01*
X137453628Y-82684679D01*
X137453630Y-82684680D01*
X137469028Y-82693570D01*
X137542672Y-82736088D01*
X137641990Y-82762700D01*
X137641992Y-82762700D01*
X137744808Y-82762700D01*
X137744810Y-82762700D01*
X137844128Y-82736088D01*
X137933173Y-82684678D01*
X138005878Y-82611973D01*
X138057288Y-82522928D01*
X138083900Y-82423610D01*
X138083900Y-82320790D01*
X138057288Y-82221472D01*
X138005878Y-82132427D01*
X137933173Y-82059722D01*
X137933172Y-82059721D01*
X137933169Y-82059719D01*
X137844130Y-82008313D01*
X137844129Y-82008312D01*
X137753763Y-81984099D01*
X137739875Y-81976080D01*
X137726430Y-81973156D01*
X137698176Y-81952005D01*
X137587063Y-81840892D01*
X137553578Y-81779569D01*
X137558562Y-81709877D01*
X137600434Y-81653944D01*
X137605820Y-81650131D01*
X137624051Y-81637950D01*
X137668366Y-81571629D01*
X137668366Y-81571627D01*
X137668367Y-81571627D01*
X137679998Y-81513150D01*
X137679999Y-81513148D01*
X137679999Y-80914847D01*
X137679998Y-80914845D01*
X137668367Y-80856368D01*
X137668366Y-80856367D01*
X137624051Y-80790045D01*
X137557729Y-80745730D01*
X137557728Y-80745729D01*
X137499251Y-80734098D01*
X137499247Y-80734098D01*
X136037351Y-80734098D01*
X136037346Y-80734098D01*
X135978869Y-80745729D01*
X135978868Y-80745730D01*
X135912546Y-80790045D01*
X135868231Y-80856367D01*
X135868230Y-80856368D01*
X135856599Y-80914845D01*
X135438199Y-80914845D01*
X135438199Y-80894250D01*
X135438199Y-80894247D01*
X135438198Y-80894245D01*
X135426567Y-80835768D01*
X135426566Y-80835767D01*
X135382251Y-80769445D01*
X135315929Y-80725130D01*
X135315928Y-80725129D01*
X135257451Y-80713498D01*
X135257447Y-80713498D01*
X134217951Y-80713498D01*
X134217946Y-80713498D01*
X134159469Y-80725129D01*
X134159468Y-80725130D01*
X134093146Y-80769445D01*
X134048831Y-80835767D01*
X134048830Y-80835768D01*
X134037199Y-80894245D01*
X132688198Y-80894245D01*
X132676567Y-80835768D01*
X132676566Y-80835767D01*
X132632251Y-80769445D01*
X132565929Y-80725130D01*
X132565928Y-80725129D01*
X132507451Y-80713498D01*
X132507447Y-80713498D01*
X131467951Y-80713498D01*
X131467946Y-80713498D01*
X131409469Y-80725129D01*
X131409468Y-80725130D01*
X131343146Y-80769445D01*
X131298830Y-80835769D01*
X131298339Y-80836955D01*
X131296577Y-80839140D01*
X131292047Y-80845921D01*
X131291440Y-80845515D01*
X131285797Y-80852517D01*
X131277493Y-80870701D01*
X131264320Y-80879166D01*
X131254496Y-80891357D01*
X131235530Y-80897668D01*
X131218715Y-80908475D01*
X131191146Y-80912438D01*
X131188201Y-80913419D01*
X131183780Y-80913498D01*
X131064198Y-80913498D01*
X130997159Y-80893813D01*
X130951404Y-80841009D01*
X130940198Y-80789498D01*
X130940198Y-80728284D01*
X130939739Y-80725131D01*
X130929990Y-80658212D01*
X130929988Y-80658207D01*
X130929988Y-80658206D01*
X130877150Y-80550125D01*
X130877148Y-80550122D01*
X130792076Y-80465050D01*
X130789786Y-80463415D01*
X130787403Y-80460377D01*
X130784809Y-80457783D01*
X130785122Y-80457469D01*
X130746665Y-80408440D01*
X130740110Y-80338878D01*
X130772204Y-80276816D01*
X130789786Y-80261581D01*
X130792071Y-80259948D01*
X130792074Y-80259947D01*
X130877148Y-80174873D01*
X130877150Y-80174870D01*
X130925869Y-80075213D01*
X130929990Y-80066784D01*
X130940199Y-79996713D01*
X130940198Y-79932963D01*
X130948842Y-79903522D01*
X130955367Y-79873534D01*
X130959119Y-79868521D01*
X130959882Y-79865925D01*
X130976519Y-79845280D01*
X131020985Y-79800816D01*
X131082309Y-79767332D01*
X131108664Y-79764499D01*
X131314433Y-79764499D01*
X131381472Y-79784184D01*
X131383294Y-79785376D01*
X131409468Y-79802866D01*
X131409470Y-79802866D01*
X131409471Y-79802867D01*
X131409469Y-79802867D01*
X131467946Y-79814498D01*
X131467949Y-79814499D01*
X131467951Y-79814499D01*
X132507449Y-79814499D01*
X132507450Y-79814498D01*
X132522267Y-79811551D01*
X132565928Y-79802867D01*
X132565928Y-79802866D01*
X132565930Y-79802866D01*
X132632251Y-79758551D01*
X132676566Y-79692230D01*
X132676566Y-79692228D01*
X132676567Y-79692228D01*
X132686264Y-79643475D01*
X132688199Y-79633747D01*
X132688199Y-79036598D01*
X132707884Y-78969559D01*
X132760688Y-78923804D01*
X132780095Y-78916827D01*
X132840328Y-78900688D01*
X132929373Y-78849278D01*
X133002078Y-78776573D01*
X133053488Y-78687528D01*
X133069249Y-78628705D01*
X133105614Y-78569046D01*
X133168462Y-78538517D01*
X133189024Y-78536800D01*
X134470200Y-78536800D01*
X134537239Y-78556485D01*
G37*
%TD.AperFunction*%
%TA.AperFunction,Conductor*%
G36*
X143848506Y-78556485D02*
G01*
X143869148Y-78573119D01*
X144878181Y-79582152D01*
X144911666Y-79643475D01*
X144914500Y-79669833D01*
X144914500Y-79690742D01*
X144921378Y-79737948D01*
X144924567Y-79759842D01*
X144976676Y-79866430D01*
X145060564Y-79950318D01*
X145060567Y-79950320D01*
X145060571Y-79950324D01*
X145060575Y-79950326D01*
X145062546Y-79951733D01*
X145064610Y-79954364D01*
X145067075Y-79956829D01*
X145071703Y-79958943D01*
X145087562Y-79983621D01*
X145105672Y-80006705D01*
X145107068Y-80013972D01*
X145109477Y-80017721D01*
X145114500Y-80052656D01*
X145114500Y-80192312D01*
X145094815Y-80259351D01*
X145093602Y-80261203D01*
X145053132Y-80321769D01*
X145053131Y-80321770D01*
X145041500Y-80380247D01*
X145041500Y-80959752D01*
X145053131Y-81018229D01*
X145053132Y-81018230D01*
X145063074Y-81033109D01*
X145083952Y-81099786D01*
X145065468Y-81167166D01*
X145063074Y-81170891D01*
X145053132Y-81185769D01*
X145053131Y-81185770D01*
X145041500Y-81244247D01*
X145041500Y-81823752D01*
X145053131Y-81882228D01*
X145053132Y-81882230D01*
X145053133Y-81882231D01*
X145093602Y-81942797D01*
X145114480Y-82009472D01*
X145114500Y-82011687D01*
X145114500Y-82507343D01*
X145094815Y-82574382D01*
X145062559Y-82608256D01*
X145060575Y-82609672D01*
X144976676Y-82693570D01*
X144924567Y-82800157D01*
X144924567Y-82800160D01*
X144914500Y-82869258D01*
X144914500Y-83246742D01*
X144920445Y-83287549D01*
X144924567Y-83315842D01*
X144976676Y-83422430D01*
X145060564Y-83506318D01*
X145060567Y-83506320D01*
X145060571Y-83506324D01*
X145060575Y-83506326D01*
X145062546Y-83507733D01*
X145064610Y-83510364D01*
X145067836Y-83513590D01*
X145067446Y-83513979D01*
X145105672Y-83562705D01*
X145114500Y-83608656D01*
X145114500Y-85058500D01*
X145111949Y-85067185D01*
X145113238Y-85076147D01*
X145102259Y-85100187D01*
X145094815Y-85125539D01*
X145087974Y-85131466D01*
X145084213Y-85139703D01*
X145061978Y-85153992D01*
X145042011Y-85171294D01*
X145031496Y-85173581D01*
X145025435Y-85177477D01*
X144990500Y-85182500D01*
X144816291Y-85182500D01*
X144749252Y-85162815D01*
X144703497Y-85110011D01*
X144696519Y-85090603D01*
X144695021Y-85085011D01*
X144684729Y-85067185D01*
X144655464Y-85016495D01*
X144655458Y-85016487D01*
X144526589Y-84887618D01*
X144493104Y-84826295D01*
X144494495Y-84767845D01*
X144510100Y-84709610D01*
X144510100Y-84606790D01*
X144483488Y-84507472D01*
X144444980Y-84440774D01*
X144432080Y-84418430D01*
X144432076Y-84418425D01*
X144359374Y-84345723D01*
X144359366Y-84345717D01*
X144279178Y-84299421D01*
X144230962Y-84248855D01*
X144217738Y-84180248D01*
X144229776Y-84137574D01*
X144239033Y-84118640D01*
X144249100Y-84049542D01*
X144249100Y-83557058D01*
X144239033Y-83487960D01*
X144236941Y-83483681D01*
X144186923Y-83381369D01*
X144103030Y-83297476D01*
X143996442Y-83245367D01*
X143979165Y-83242850D01*
X143927342Y-83235300D01*
X143927336Y-83235300D01*
X143646933Y-83235300D01*
X143579894Y-83215615D01*
X143559252Y-83198981D01*
X143177818Y-82817547D01*
X143144333Y-82756224D01*
X143141499Y-82729866D01*
X143141499Y-82393286D01*
X143138516Y-82372810D01*
X143131291Y-82323214D01*
X143131289Y-82323209D01*
X143131289Y-82323208D01*
X143078451Y-82215127D01*
X143078449Y-82215124D01*
X142993375Y-82130050D01*
X142993372Y-82130048D01*
X142885289Y-82077210D01*
X142885287Y-82077209D01*
X142885286Y-82077209D01*
X142815215Y-82067000D01*
X142815209Y-82067000D01*
X142426786Y-82067000D01*
X142377342Y-82074203D01*
X142356714Y-82077209D01*
X142356712Y-82077209D01*
X142356710Y-82077210D01*
X142356708Y-82077210D01*
X142248627Y-82130048D01*
X142248624Y-82130050D01*
X142163548Y-82215126D01*
X142159956Y-82220158D01*
X142104980Y-82263279D01*
X142035418Y-82269831D01*
X141973356Y-82237735D01*
X141968297Y-82232609D01*
X141955734Y-82219119D01*
X141935449Y-82177625D01*
X141850375Y-82092551D01*
X141827409Y-82081323D01*
X141811756Y-82064515D01*
X141805980Y-82052981D01*
X141796456Y-82044279D01*
X141789934Y-82020934D01*
X141780473Y-82002040D01*
X141781634Y-81991226D01*
X141778500Y-81980008D01*
X141778500Y-80808640D01*
X141778499Y-80808636D01*
X141772431Y-80785988D01*
X141758022Y-80732212D01*
X141718460Y-80663689D01*
X141027511Y-79972740D01*
X141027510Y-79972739D01*
X140999952Y-79956829D01*
X140988685Y-79950324D01*
X140988684Y-79950323D01*
X140958994Y-79933181D01*
X140958993Y-79933180D01*
X140949960Y-79930759D01*
X140882562Y-79912700D01*
X140882560Y-79912700D01*
X140349345Y-79912700D01*
X140287345Y-79896087D01*
X140206330Y-79849313D01*
X140206329Y-79849312D01*
X140206328Y-79849312D01*
X140107010Y-79822700D01*
X140078210Y-79822700D01*
X140011171Y-79803015D01*
X139965416Y-79750211D01*
X139955472Y-79681053D01*
X139956593Y-79674508D01*
X139968799Y-79613146D01*
X139968799Y-79014845D01*
X139968798Y-79014843D01*
X139957167Y-78956366D01*
X139957166Y-78956365D01*
X139912851Y-78890044D01*
X139855080Y-78851442D01*
X139845660Y-78840170D01*
X139833043Y-78832649D01*
X139823706Y-78813899D01*
X139810276Y-78797829D01*
X139808445Y-78783255D01*
X139801897Y-78770105D01*
X139804178Y-78749284D01*
X139801569Y-78728504D01*
X139808043Y-78714026D01*
X139809509Y-78700651D01*
X139823098Y-78680358D01*
X139827581Y-78670335D01*
X139831675Y-78665275D01*
X139872778Y-78624173D01*
X139892297Y-78590364D01*
X139898423Y-78582795D01*
X139919475Y-78568241D01*
X139937994Y-78550585D01*
X139948816Y-78547959D01*
X139955897Y-78543065D01*
X139971099Y-78542553D01*
X139994814Y-78536800D01*
X143781467Y-78536800D01*
X143848506Y-78556485D01*
G37*
%TD.AperFunction*%
%TA.AperFunction,Conductor*%
G36*
X136842407Y-78543038D02*
G01*
X136864496Y-78544618D01*
X136875279Y-78552690D01*
X136888201Y-78556485D01*
X136902700Y-78573218D01*
X136920429Y-78586490D01*
X136925136Y-78599110D01*
X136933956Y-78609289D01*
X136937107Y-78631206D01*
X136944846Y-78651954D01*
X136941983Y-78665114D01*
X136943900Y-78678447D01*
X136934700Y-78698590D01*
X136929994Y-78720227D01*
X136916725Y-78737952D01*
X136914875Y-78742003D01*
X136908843Y-78748481D01*
X136859547Y-78797777D01*
X136798224Y-78831262D01*
X136771866Y-78834096D01*
X136037346Y-78834096D01*
X135978869Y-78845727D01*
X135978868Y-78845728D01*
X135912546Y-78890043D01*
X135866879Y-78958390D01*
X135860787Y-78963480D01*
X135857490Y-78970702D01*
X135834362Y-78985565D01*
X135813267Y-79003195D01*
X135803892Y-79005146D01*
X135798712Y-79008476D01*
X135763777Y-79013499D01*
X135541618Y-79013499D01*
X135474579Y-78993814D01*
X135428824Y-78941010D01*
X135427059Y-78936956D01*
X135426567Y-78935770D01*
X135382251Y-78869446D01*
X135315929Y-78825131D01*
X135295006Y-78820969D01*
X135233096Y-78788582D01*
X135198523Y-78727866D01*
X135195200Y-78699352D01*
X135195200Y-78660800D01*
X135214885Y-78593761D01*
X135267689Y-78548006D01*
X135319200Y-78536800D01*
X136821162Y-78536800D01*
X136842407Y-78543038D01*
G37*
%TD.AperFunction*%
%TD*%
M02*
