%TF.GenerationSoftware,KiCad,Pcbnew,10.0.1*%
%TF.CreationDate,2026-06-01T16:41:11+09:00*%
%TF.ProjectId,reband,72656261-6e64-42e6-9b69-6361645f7063,rev?*%
%TF.SameCoordinates,Original*%
%TF.FileFunction,Copper,L1,Top*%
%TF.FilePolarity,Positive*%
%FSLAX46Y46*%
G04 Gerber Fmt 4.6, Leading zero omitted, Abs format (unit mm)*
G04 Created by KiCad (PCBNEW 10.0.1) date 2026-06-01 16:41:11*
%MOMM*%
%LPD*%
G01*
G04 APERTURE LIST*
G04 Aperture macros list*
%AMRoundRect*
0 Rectangle with rounded corners*
0 $1 Rounding radius*
0 $2 $3 $4 $5 $6 $7 $8 $9 X,Y pos of 4 corners*
0 Add a 4 corners polygon primitive as box body*
4,1,4,$2,$3,$4,$5,$6,$7,$8,$9,$2,$3,0*
0 Add four circle primitives for the rounded corners*
1,1,$1+$1,$2,$3*
1,1,$1+$1,$4,$5*
1,1,$1+$1,$6,$7*
1,1,$1+$1,$8,$9*
0 Add four rect primitives between the rounded corners*
20,1,$1+$1,$2,$3,$4,$5,0*
20,1,$1+$1,$4,$5,$6,$7,0*
20,1,$1+$1,$6,$7,$8,$9,0*
20,1,$1+$1,$8,$9,$2,$3,0*%
G04 Aperture macros list end*
%TA.AperFunction,ComponentPad*%
%ADD10R,0.850000X0.850000*%
%TD*%
%TA.AperFunction,ComponentPad*%
%ADD11C,0.850000*%
%TD*%
%TA.AperFunction,ComponentPad*%
%ADD12O,1.908000X1.108000*%
%TD*%
%TA.AperFunction,ComponentPad*%
%ADD13O,2.308000X1.108000*%
%TD*%
%TA.AperFunction,SMDPad,CuDef*%
%ADD14R,1.150112X0.599948*%
%TD*%
%TA.AperFunction,SMDPad,CuDef*%
%ADD15R,1.150000X0.300000*%
%TD*%
%TA.AperFunction,SMDPad,CuDef*%
%ADD16RoundRect,0.155000X0.155000X-0.212500X0.155000X0.212500X-0.155000X0.212500X-0.155000X-0.212500X0*%
%TD*%
%TA.AperFunction,SMDPad,CuDef*%
%ADD17RoundRect,0.160000X0.197500X0.160000X-0.197500X0.160000X-0.197500X-0.160000X0.197500X-0.160000X0*%
%TD*%
%TA.AperFunction,SMDPad,CuDef*%
%ADD18RoundRect,0.155000X-0.155000X0.212500X-0.155000X-0.212500X0.155000X-0.212500X0.155000X0.212500X0*%
%TD*%
%TA.AperFunction,SMDPad,CuDef*%
%ADD19RoundRect,0.155000X-0.212500X-0.155000X0.212500X-0.155000X0.212500X0.155000X-0.212500X0.155000X0*%
%TD*%
%TA.AperFunction,SMDPad,CuDef*%
%ADD20R,1.100000X1.300000*%
%TD*%
%TA.AperFunction,SMDPad,CuDef*%
%ADD21R,1.000000X1.000000*%
%TD*%
%TA.AperFunction,SMDPad,CuDef*%
%ADD22R,0.500000X1.300000*%
%TD*%
%TA.AperFunction,SMDPad,CuDef*%
%ADD23RoundRect,0.160000X-0.160000X0.197500X-0.160000X-0.197500X0.160000X-0.197500X0.160000X0.197500X0*%
%TD*%
%TA.AperFunction,SMDPad,CuDef*%
%ADD24R,1.050000X1.400000*%
%TD*%
%TA.AperFunction,SMDPad,CuDef*%
%ADD25RoundRect,0.160000X-0.197500X-0.160000X0.197500X-0.160000X0.197500X0.160000X-0.197500X0.160000X0*%
%TD*%
%TA.AperFunction,SMDPad,CuDef*%
%ADD26RoundRect,0.033750X-0.101250X0.371250X-0.101250X-0.371250X0.101250X-0.371250X0.101250X0.371250X0*%
%TD*%
%TA.AperFunction,SMDPad,CuDef*%
%ADD27RoundRect,0.033750X-0.371250X0.101250X-0.371250X-0.101250X0.371250X-0.101250X0.371250X0.101250X0*%
%TD*%
%TA.AperFunction,SMDPad,CuDef*%
%ADD28R,3.700000X3.700000*%
%TD*%
%TA.AperFunction,SMDPad,CuDef*%
%ADD29R,0.254000X0.675000*%
%TD*%
%TA.AperFunction,SMDPad,CuDef*%
%ADD30R,0.675000X0.254000*%
%TD*%
%TA.AperFunction,SMDPad,CuDef*%
%ADD31C,0.254000*%
%TD*%
%TA.AperFunction,SMDPad,CuDef*%
%ADD32R,1.000000X0.599999*%
%TD*%
%TA.AperFunction,SMDPad,CuDef*%
%ADD33C,0.250000*%
%TD*%
%TA.AperFunction,SMDPad,CuDef*%
%ADD34R,1.422400X0.558800*%
%TD*%
%TA.AperFunction,SMDPad,CuDef*%
%ADD35RoundRect,0.160000X0.160000X-0.222500X0.160000X0.222500X-0.160000X0.222500X-0.160000X-0.222500X0*%
%TD*%
%TA.AperFunction,SMDPad,CuDef*%
%ADD36RoundRect,0.155000X0.212500X0.155000X-0.212500X0.155000X-0.212500X-0.155000X0.212500X-0.155000X0*%
%TD*%
%TA.AperFunction,ComponentPad*%
%ADD37C,1.244600*%
%TD*%
%TA.AperFunction,ViaPad*%
%ADD38C,0.600000*%
%TD*%
%TA.AperFunction,ViaPad*%
%ADD39C,0.380000*%
%TD*%
%TA.AperFunction,ViaPad*%
%ADD40C,0.254000*%
%TD*%
%TA.AperFunction,Conductor*%
%ADD41C,0.200000*%
%TD*%
%TA.AperFunction,Conductor*%
%ADD42C,0.150000*%
%TD*%
%TA.AperFunction,Conductor*%
%ADD43C,0.400000*%
%TD*%
%TA.AperFunction,Conductor*%
%ADD44C,0.500000*%
%TD*%
G04 APERTURE END LIST*
D10*
%TO.P,J5,1,Pin_1_1*%
%TO.N,/RST*%
X138217400Y-103457600D03*
D11*
%TO.P,J5,2,Pin_2_2*%
%TO.N,GND*%
X139217400Y-103457600D03*
%TD*%
D12*
%TO.P,J2,13,GND_13*%
%TO.N,GND*%
X132818998Y-85595998D03*
D13*
%TO.P,J2,14,GND_14*%
X128818955Y-85595968D03*
%TO.P,J2,15,GND_15*%
X128818955Y-94236032D03*
D12*
%TO.P,J2,16,GND_16*%
X132818998Y-94236002D03*
D14*
%TO.P,J2,A1/B12,GND_A1/B12*%
X133394003Y-86715999D03*
%TO.P,J2,A4/B9,VBUS_A4/B9*%
%TO.N,+5V*%
X133394003Y-87516000D03*
D15*
%TO.P,J2,A5,CC1_A5*%
%TO.N,Net-(J2-CC1)*%
X133394003Y-88666000D03*
%TO.P,J2,A6,DP1_A6*%
%TO.N,/USB_D+*%
X133394003Y-89666000D03*
%TO.P,J2,A7,DN1_A7*%
%TO.N,/USB_D-*%
X133394003Y-90166000D03*
%TO.P,J2,A8,SBU1_A8*%
%TO.N,unconnected-(J2-SBU1-PadA8)*%
X133394003Y-91166000D03*
D14*
%TO.P,J2,B1/A12,GND_B1/A12*%
%TO.N,GND*%
X133394003Y-93116001D03*
%TO.P,J2,B4/A9,VBUS_B4/A9*%
%TO.N,+5V*%
X133394003Y-92316000D03*
D15*
%TO.P,J2,B5,CC2_B5*%
%TO.N,Net-(J2-CC2)*%
X133394003Y-91665999D03*
%TO.P,J2,B6,DP2_B6*%
%TO.N,/USB_D+*%
X133394003Y-90666001D03*
%TO.P,J2,B7,DN2_B7*%
%TO.N,/USB_D-*%
X133394003Y-89165999D03*
%TO.P,J2,B8,SBU2_B8*%
%TO.N,unconnected-(J2-SBU2-PadB8)*%
X133394003Y-88166001D03*
%TD*%
D16*
%TO.P,C10,1*%
%TO.N,Net-(C10-Pad1)*%
X145618200Y-97358200D03*
%TO.P,C10,2*%
%TO.N,Net-(U3-EL2A)*%
X145618200Y-96223200D03*
%TD*%
D17*
%TO.P,R10,1*%
%TO.N,/GPIO8*%
X138938000Y-89027000D03*
%TO.P,R10,2*%
%TO.N,+3.3V*%
X137743000Y-89027000D03*
%TD*%
D16*
%TO.P,C9,1*%
%TO.N,Net-(C10-Pad1)*%
X146786600Y-97366900D03*
%TO.P,C9,2*%
%TO.N,Net-(U3-EL1)*%
X146786600Y-96231900D03*
%TD*%
D18*
%TO.P,C18,1*%
%TO.N,+1V8*%
X140004800Y-96231900D03*
%TO.P,C18,2*%
%TO.N,GND*%
X140004800Y-97366900D03*
%TD*%
D19*
%TO.P,C2,1*%
%TO.N,Net-(U2-IN)*%
X128845500Y-83058000D03*
%TO.P,C2,2*%
%TO.N,Net-(U4-VSS)*%
X129980500Y-83058000D03*
%TD*%
D20*
%TO.P,Y1,1,IN/OUT_1*%
%TO.N,Net-(U1-XTAL_P)*%
X149193000Y-87495000D03*
%TO.P,Y1,2,GND_2*%
%TO.N,GND*%
X149193000Y-89795000D03*
%TO.P,Y1,3,OUT/IN_3*%
%TO.N,Net-(U1-XTAL_N)*%
X150993000Y-89795000D03*
%TO.P,Y1,4,GND__1_4*%
%TO.N,GND*%
X150993000Y-87495000D03*
%TD*%
D21*
%TO.P,E1,1*%
%TO.N,Net-(U1-LNA_IN)*%
X143764000Y-77343000D03*
D22*
%TO.P,E1,2*%
%TO.N,N/C*%
X142264000Y-77343000D03*
%TD*%
D17*
%TO.P,R5,1*%
%TO.N,Net-(U4-PRE-TERM)*%
X137249500Y-87757000D03*
%TO.P,R5,2*%
%TO.N,GND*%
X136054500Y-87757000D03*
%TD*%
D23*
%TO.P,R7,1*%
%TO.N,+5V*%
X138684000Y-84276000D03*
%TO.P,R7,2*%
%TO.N,Net-(D1-A)*%
X138684000Y-85471000D03*
%TD*%
D24*
%TO.P,S2,1_1*%
%TO.N,/GPIO8*%
X148429000Y-96456500D03*
%TO.P,S2,1_2*%
X148429000Y-92856500D03*
%TO.P,S2,2_1*%
%TO.N,GND*%
X149879000Y-96456500D03*
%TO.P,S2,2_2*%
X149879000Y-92856500D03*
%TD*%
D19*
%TO.P,C17,1*%
%TO.N,/RST*%
X132147500Y-77597000D03*
%TO.P,C17,2*%
%TO.N,GND*%
X133282500Y-77597000D03*
%TD*%
D17*
%TO.P,R11,1*%
%TO.N,/BOOT*%
X138900500Y-90170000D03*
%TO.P,R11,2*%
%TO.N,+3.3V*%
X137705500Y-90170000D03*
%TD*%
D25*
%TO.P,R3,1*%
%TO.N,Net-(U4-TS)*%
X135800500Y-83058000D03*
%TO.P,R3,2*%
%TO.N,GND*%
X136995500Y-83058000D03*
%TD*%
D26*
%TO.P,U1,1,LNA_IN_1*%
%TO.N,Net-(U1-LNA_IN)*%
X145415000Y-85788000D03*
%TO.P,U1,2,VDD3P3_2*%
%TO.N,+3.3V*%
X144915000Y-85788000D03*
%TO.P,U1,3,VDD3P3_3*%
X144415000Y-85788000D03*
%TO.P,U1,4,GPIO0/XTAL_32K_P_4*%
%TO.N,unconnected-(U1-GPIO0{slash}XTAL_32K_P-Pad4)*%
X143915000Y-85788000D03*
%TO.P,U1,5,GPIO1/XTAL_32K_N_5*%
%TO.N,unconnected-(U1-GPIO1{slash}XTAL_32K_N-Pad5)*%
X143415000Y-85788000D03*
%TO.P,U1,6,GPIO2_6*%
%TO.N,/SDA*%
X142915000Y-85788000D03*
%TO.P,U1,7,CHIP_EN_7*%
%TO.N,/RST*%
X142415000Y-85788000D03*
%TO.P,U1,8,GPIO3_8*%
%TO.N,/SCL*%
X141915000Y-85788000D03*
D27*
%TO.P,U1,9,GPIO4/MTMS_9*%
%TO.N,/GSR_INT*%
X141220000Y-86483000D03*
%TO.P,U1,10,GPIO5/MTDI_10*%
%TO.N,/PPG_INT*%
X141220000Y-86983000D03*
%TO.P,U1,11,VDD3P3_RTC_11*%
%TO.N,+3.3V*%
X141220000Y-87483000D03*
%TO.P,U1,12,GPIO6/MTCK_12*%
%TO.N,/BNO_INT*%
X141220000Y-87983000D03*
%TO.P,U1,13,GPIO7/MTDO_13*%
%TO.N,/1.8V_CTRL*%
X141220000Y-88483000D03*
%TO.P,U1,14,GPIO8_14*%
%TO.N,/GPIO8*%
X141220000Y-88983000D03*
%TO.P,U1,15,GPIO9_15*%
%TO.N,/BOOT*%
X141220000Y-89483000D03*
%TO.P,U1,16,GPIO10_16*%
%TO.N,unconnected-(U1-GPIO10-Pad16)*%
X141220000Y-89983000D03*
D26*
%TO.P,U1,17,VDD3P3_CPU_17*%
%TO.N,+3.3V*%
X141915000Y-90678000D03*
%TO.P,U1,18,VDD_SPI_18*%
%TO.N,Net-(U1-VDD_SPI)*%
X142415000Y-90678000D03*
%TO.P,U1,19,GPIO12/SPIHD_19*%
%TO.N,unconnected-(U1-GPIO12{slash}SPIHD-Pad19)*%
X142915000Y-90678000D03*
%TO.P,U1,20,GPIO13/SPIWP_20*%
%TO.N,unconnected-(U1-GPIO13{slash}SPIWP-Pad20)*%
X143415000Y-90678000D03*
%TO.P,U1,21,GPIO14/SPICS0_21*%
%TO.N,unconnected-(U1-GPIO14{slash}SPICS0-Pad21)*%
X143915000Y-90678000D03*
%TO.P,U1,22,GPIO15/SPICLK_22*%
%TO.N,unconnected-(U1-GPIO15{slash}SPICLK-Pad22)*%
X144415000Y-90678000D03*
%TO.P,U1,23,GPIO16/SPID_23*%
%TO.N,unconnected-(U1-GPIO16{slash}SPID-Pad23)*%
X144915000Y-90678000D03*
%TO.P,U1,24,GPIO17/SPIQ_24*%
%TO.N,unconnected-(U1-GPIO17{slash}SPIQ-Pad24)*%
X145415000Y-90678000D03*
D27*
%TO.P,U1,25,GPIO18/USB_D-_25*%
%TO.N,/D-*%
X146110000Y-89983000D03*
%TO.P,U1,26,GPIO19/USB_D+_26*%
%TO.N,/D+*%
X146110000Y-89483000D03*
%TO.P,U1,27,GPIO20/U0RXD_27*%
%TO.N,unconnected-(U1-GPIO20{slash}U0RXD-Pad27)*%
X146110000Y-88983000D03*
%TO.P,U1,28,GPIO21/U0TXD_28*%
%TO.N,unconnected-(U1-GPIO21{slash}U0TXD-Pad28)*%
X146110000Y-88483000D03*
%TO.P,U1,29,XTAL_N_29*%
%TO.N,Net-(U1-XTAL_N)*%
X146110000Y-87983000D03*
%TO.P,U1,30,XTAL_P_30*%
%TO.N,Net-(U1-XTAL_P)*%
X146110000Y-87483000D03*
%TO.P,U1,31,VDDA_31*%
%TO.N,+3.3V*%
X146110000Y-86983000D03*
%TO.P,U1,32,VDDA_32*%
X146110000Y-86483000D03*
D28*
%TO.P,U1,33,GND_33*%
%TO.N,GND*%
X143665000Y-88233000D03*
%TD*%
D16*
%TO.P,C7,1*%
%TO.N,+3.3V*%
X132791200Y-98399600D03*
%TO.P,C7,2*%
%TO.N,GND*%
X132791200Y-97264600D03*
%TD*%
D19*
%TO.P,C11,1*%
%TO.N,Net-(C11-Pad1)*%
X136025000Y-94996000D03*
%TO.P,C11,2*%
%TO.N,Net-(U3-EL4)*%
X137160000Y-94996000D03*
%TD*%
D17*
%TO.P,R2,1*%
%TO.N,GND*%
X131661500Y-84074000D03*
%TO.P,R2,2*%
%TO.N,Net-(J2-CC1)*%
X130466500Y-84074000D03*
%TD*%
D29*
%TO.P,U5,1,PIN1_1*%
%TO.N,unconnected-(U5-PIN1-Pad1)*%
X134160000Y-98148000D03*
D30*
%TO.P,U5,2,GND_2*%
%TO.N,GND*%
X134022500Y-99060500D03*
%TO.P,U5,3,VDD_3*%
%TO.N,+3.3V*%
X134022500Y-99560500D03*
%TO.P,U5,4,~{BOOT_LOAD_PIN}_4*%
X134022500Y-100060500D03*
%TO.P,U5,5,PS1_5*%
%TO.N,GND*%
X134022500Y-100560500D03*
D29*
%TO.P,U5,6,PS0_6*%
X134160000Y-101473000D03*
%TO.P,U5,7,PIN7_7*%
%TO.N,unconnected-(U5-PIN7-Pad7)*%
X134660000Y-101473000D03*
%TO.P,U5,8,PIN8_8*%
%TO.N,unconnected-(U5-PIN8-Pad8)*%
X135160000Y-101473000D03*
%TO.P,U5,9,CAP_9*%
%TO.N,Net-(U5-CAP)*%
X135660000Y-101473000D03*
%TO.P,U5,10,BL_IND_10*%
%TO.N,unconnected-(U5-BL_IND-Pad10)*%
X136160000Y-101473000D03*
%TO.P,U5,11,~{RESET}_11*%
%TO.N,/RST*%
X136660000Y-101473000D03*
%TO.P,U5,12,PIN12_12*%
%TO.N,unconnected-(U5-PIN12-Pad12)*%
X137160000Y-101473000D03*
%TO.P,U5,13,PIN13_13*%
%TO.N,unconnected-(U5-PIN13-Pad13)*%
X137660000Y-101473000D03*
%TO.P,U5,14,INT_14*%
%TO.N,/BNO_INT*%
X138160000Y-101473000D03*
%TO.P,U5,15,PIN15_15*%
%TO.N,unconnected-(U5-PIN15-Pad15)*%
X138660000Y-101473000D03*
D30*
%TO.P,U5,16,PIN16_16*%
%TO.N,unconnected-(U5-PIN16-Pad16)*%
X138797500Y-100560500D03*
%TO.P,U5,17,COM3_17*%
%TO.N,GND*%
X138797500Y-100060500D03*
%TO.P,U5,18,COM2_18*%
X138797500Y-99560500D03*
%TO.P,U5,19,COM1_19*%
%TO.N,/SCL*%
X138797500Y-99060500D03*
D29*
%TO.P,U5,20,COM0_20*%
%TO.N,/SDA*%
X138660000Y-98148000D03*
%TO.P,U5,21,PIN21_21*%
%TO.N,unconnected-(U5-PIN21-Pad21)*%
X138160000Y-98148000D03*
%TO.P,U5,22,PIN22_22*%
%TO.N,unconnected-(U5-PIN22-Pad22)*%
X137660000Y-98148000D03*
%TO.P,U5,23,PIN23_23*%
%TO.N,unconnected-(U5-PIN23-Pad23)*%
X137160000Y-98148000D03*
%TO.P,U5,24,PIN24_24*%
%TO.N,unconnected-(U5-PIN24-Pad24)*%
X136660000Y-98148000D03*
%TO.P,U5,25,GNDIO_25*%
%TO.N,GND*%
X136160000Y-98148000D03*
%TO.P,U5,26,XOUT32_26*%
%TO.N,unconnected-(U5-XOUT32-Pad26)*%
X135660000Y-98148000D03*
%TO.P,U5,27,XIN32_27*%
%TO.N,unconnected-(U5-XIN32-Pad27)*%
X135160000Y-98148000D03*
%TO.P,U5,28,VDDIO_28*%
%TO.N,+3.3V*%
X134660000Y-98148000D03*
%TD*%
D25*
%TO.P,R12,1*%
%TO.N,+3.3V*%
X137197500Y-77597000D03*
%TO.P,R12,2*%
%TO.N,/RST*%
X138392500Y-77597000D03*
%TD*%
D17*
%TO.P,R1,1*%
%TO.N,GND*%
X131661500Y-95758000D03*
%TO.P,R1,2*%
%TO.N,Net-(J2-CC2)*%
X130466500Y-95758000D03*
%TD*%
D16*
%TO.P,C5,1*%
%TO.N,Net-(U1-XTAL_P)*%
X147796000Y-88257000D03*
%TO.P,C5,2*%
%TO.N,GND*%
X147796000Y-87122000D03*
%TD*%
D24*
%TO.P,S1,1_1*%
%TO.N,/BOOT*%
X148175000Y-85153500D03*
%TO.P,S1,1_2*%
X148175000Y-81553500D03*
%TO.P,S1,2_1*%
%TO.N,GND*%
X149625000Y-85153500D03*
%TO.P,S1,2_2*%
X149625000Y-81553500D03*
%TD*%
D16*
%TO.P,C15,1*%
%TO.N,+3.3V*%
X143738600Y-83803300D03*
%TO.P,C15,2*%
%TO.N,GND*%
X143738600Y-82668300D03*
%TD*%
D31*
%TO.P,U3,A1,EL1_A1*%
%TO.N,Net-(U3-EL1)*%
X143941800Y-92989400D03*
%TO.P,U3,A2,EL2A_A2*%
%TO.N,Net-(U3-EL2A)*%
X144341800Y-92989400D03*
%TO.P,U3,A3,EL2B_A3*%
%TO.N,unconnected-(U3-EL2B-PadA3)*%
X144741800Y-92989400D03*
%TO.P,U3,A4,CAL1_A4*%
%TO.N,unconnected-(U3-CAL1-PadA4)*%
X145141800Y-92989400D03*
%TO.P,U3,A5,CAL2_A5*%
%TO.N,unconnected-(U3-CAL2-PadA5)*%
X145541800Y-92989400D03*
%TO.P,U3,B1,EL4_B1*%
%TO.N,Net-(U3-EL4)*%
X143941800Y-93389450D03*
%TO.P,U3,B2,EL3A_B2*%
%TO.N,Net-(U3-EL3A)*%
X144341800Y-93389450D03*
%TO.P,U3,B3,EL3B_B3*%
%TO.N,unconnected-(U3-EL3B-PadB3)*%
X144741800Y-93389450D03*
%TO.P,U3,B4,CAL4_B4*%
%TO.N,unconnected-(U3-CAL4-PadB4)*%
X145141800Y-93389450D03*
%TO.P,U3,B5,CAL3_B5*%
%TO.N,unconnected-(U3-CAL3-PadB5)*%
X145541800Y-93389450D03*
%TO.P,U3,C1,AVDD_C1*%
%TO.N,+1V8*%
X143941800Y-93789500D03*
%TO.P,U3,C2,VREF_C2*%
%TO.N,Net-(U3-VREF)*%
X144341800Y-93789500D03*
%TO.P,U3,C3,AGND_C3*%
%TO.N,GND*%
X144741800Y-93789500D03*
%TO.P,U3,C4,DRVSJ_C4*%
%TO.N,unconnected-(U3-DRVSJ-PadC4)*%
X145141800Y-93789500D03*
%TO.P,U3,C5,DRVXR_C5*%
%TO.N,unconnected-(U3-DRVXR-PadC5)*%
X145541800Y-93789500D03*
%TO.P,U3,D1,DVDD_D1*%
%TO.N,+1V8*%
X143941800Y-94189550D03*
%TO.P,U3,D2,CSB/I2C_SEL_D2*%
X144341800Y-94189550D03*
%TO.P,U3,D3,FCLK_D3*%
%TO.N,unconnected-(U3-FCLK-PadD3)*%
X144741800Y-94189550D03*
%TO.P,U3,D4,TRIG_D4*%
%TO.N,unconnected-(U3-TRIG-PadD4)*%
X145141800Y-94189550D03*
%TO.P,U3,D5,DRVXC_D5*%
%TO.N,unconnected-(U3-DRVXC-PadD5)*%
X145541800Y-94189550D03*
%TO.P,U3,E1,DGND_E1*%
%TO.N,GND*%
X143941800Y-94589600D03*
%TO.P,U3,E2,SDO/ADDR_E2*%
X144341800Y-94589600D03*
%TO.P,U3,E3,SDI/SDA_E3*%
%TO.N,/SDA*%
X144741800Y-94589600D03*
%TO.P,U3,E4,SCLK/SCL_E4*%
%TO.N,/SCL*%
X145141800Y-94589600D03*
%TO.P,U3,E5,INT_E5*%
%TO.N,/GSR_INT*%
X145541800Y-94589600D03*
%TD*%
D32*
%TO.P,U2,1,IN_1*%
%TO.N,Net-(U2-IN)*%
X131720999Y-79567999D03*
%TO.P,U2,2,GND_2*%
%TO.N,GND*%
X131720999Y-80518000D03*
%TO.P,U2,3,EN_3*%
%TO.N,Net-(U2-EN)*%
X131720999Y-81467998D03*
%TO.P,U2,4,NC_4*%
%TO.N,unconnected-(U2-NC-Pad4)*%
X134470999Y-81467998D03*
%TO.P,U2,5,OUT_5*%
%TO.N,+3.3V*%
X134470999Y-79567999D03*
%TD*%
D18*
%TO.P,C14,1*%
%TO.N,Net-(U1-VDD_SPI)*%
X142240000Y-92015500D03*
%TO.P,C14,2*%
%TO.N,GND*%
X142240000Y-93150500D03*
%TD*%
%TO.P,C4,1*%
%TO.N,Net-(U1-XTAL_N)*%
X147796000Y-89408000D03*
%TO.P,C4,2*%
%TO.N,GND*%
X147796000Y-90543000D03*
%TD*%
D23*
%TO.P,R8,1*%
%TO.N,+3.3V*%
X142621000Y-82625000D03*
%TO.P,R8,2*%
%TO.N,/SDA*%
X142621000Y-83820000D03*
%TD*%
D33*
%TO.P,U4,A1,OUT_A1*%
%TO.N,Net-(U2-IN)*%
X136398000Y-85090000D03*
%TO.P,U4,A2,IN_A2*%
%TO.N,+5V*%
X136798000Y-85090000D03*
%TO.P,U4,B1,TS_B1*%
%TO.N,Net-(U4-TS)*%
X136398000Y-85490000D03*
%TO.P,U4,B2,ISET_B2*%
%TO.N,Net-(U4-ISET)*%
X136798000Y-85490000D03*
%TO.P,U4,C1,PRE-TERM_C1*%
%TO.N,Net-(U4-PRE-TERM)*%
X136398000Y-85890000D03*
%TO.P,U4,C2,VSS_C2*%
%TO.N,Net-(U4-VSS)*%
X136798000Y-85890000D03*
%TD*%
D23*
%TO.P,R6,1*%
%TO.N,Net-(U2-IN)*%
X130152999Y-80018998D03*
%TO.P,R6,2*%
%TO.N,Net-(U2-EN)*%
X130152999Y-81213998D03*
%TD*%
D34*
%TO.P,U7,1,VIN_1*%
%TO.N,+3.3V*%
X136501599Y-79567996D03*
%TO.P,U7,2,GND_2*%
%TO.N,GND*%
X136501599Y-80517997D03*
%TO.P,U7,3,CONTROL_3*%
%TO.N,/1.8V_CTRL*%
X136501599Y-81467998D03*
%TO.P,U7,4,NC_4*%
%TO.N,unconnected-(U7-NC-Pad4)*%
X138790399Y-81467998D03*
%TO.P,U7,5,VOUT_5*%
%TO.N,+1V8*%
X138790399Y-79567996D03*
%TD*%
D35*
%TO.P,D1,1,K_1*%
%TO.N,GND*%
X138684000Y-87694500D03*
%TO.P,D1,2,A_2*%
%TO.N,Net-(D1-A)*%
X138684000Y-86549500D03*
%TD*%
D23*
%TO.P,R9,1*%
%TO.N,+3.3V*%
X141478000Y-82587500D03*
%TO.P,R9,2*%
%TO.N,/SCL*%
X141478000Y-83782500D03*
%TD*%
D36*
%TO.P,C13,1*%
%TO.N,Net-(U3-VREF)*%
X137160000Y-96139000D03*
%TO.P,C13,2*%
%TO.N,GND*%
X136025000Y-96139000D03*
%TD*%
D37*
%TO.P,J1,1,1_1*%
%TO.N,Net-(U2-IN)*%
X142063700Y-101283200D03*
%TO.P,J1,2,2_2*%
%TO.N,GND*%
X142063700Y-99783199D03*
%TD*%
D36*
%TO.P,C8,1*%
%TO.N,GND*%
X144915700Y-80162400D03*
%TO.P,C8,2*%
%TO.N,Net-(U1-LNA_IN)*%
X143780700Y-80162400D03*
%TD*%
%TO.P,C1,1*%
%TO.N,+5V*%
X134425500Y-84074000D03*
%TO.P,C1,2*%
%TO.N,GND*%
X133290500Y-84074000D03*
%TD*%
D17*
%TO.P,R4,1*%
%TO.N,Net-(U4-ISET)*%
X134455500Y-82931000D03*
%TO.P,R4,2*%
%TO.N,GND*%
X133260500Y-82931000D03*
%TD*%
D36*
%TO.P,C6,1*%
%TO.N,Net-(U5-CAP)*%
X135695500Y-102743000D03*
%TO.P,C6,2*%
%TO.N,GND*%
X134560500Y-102743000D03*
%TD*%
D19*
%TO.P,C3,1*%
%TO.N,+3.3V*%
X134628000Y-77597000D03*
%TO.P,C3,2*%
%TO.N,GND*%
X135763000Y-77597000D03*
%TD*%
%TO.P,C12,1*%
%TO.N,Net-(C11-Pad1)*%
X136025000Y-93751400D03*
%TO.P,C12,2*%
%TO.N,Net-(U3-EL3A)*%
X137160000Y-93751400D03*
%TD*%
D38*
%TO.N,GND*%
X143332200Y-97104200D03*
X133350000Y-80238600D03*
X131622800Y-83337400D03*
X130251200Y-88188800D03*
X131927600Y-87630000D03*
X142163800Y-81483200D03*
X139598400Y-82677000D03*
X144500600Y-86715600D03*
X145186400Y-86715600D03*
X144500600Y-88239600D03*
X145211800Y-89103200D03*
X145186400Y-88239600D03*
X144500600Y-89077800D03*
X143662400Y-89077800D03*
X143665000Y-88233000D03*
X129032000Y-91186000D03*
X127558800Y-92887800D03*
D39*
%TO.N,+3.3V*%
X144119600Y-84658200D03*
%TO.N,GND*%
X144373600Y-79273400D03*
X143179800Y-79324200D03*
X142951200Y-79857600D03*
X142951200Y-80391000D03*
X143383000Y-80924400D03*
X143814800Y-81356200D03*
X144246600Y-81813400D03*
X144653000Y-82346800D03*
X144780000Y-82905600D03*
X144881600Y-83464400D03*
X144907000Y-84302600D03*
X145897600Y-84861400D03*
X145872200Y-84302600D03*
X145872200Y-83464400D03*
X145846800Y-82905600D03*
X145669000Y-82346800D03*
X145389600Y-81838800D03*
X144983200Y-81356200D03*
X144602200Y-80924400D03*
D38*
%TO.N,Net-(C10-Pad1)*%
X147599400Y-97993200D03*
%TO.N,/RST*%
X132994400Y-76682600D03*
X136525000Y-99999800D03*
%TO.N,Net-(C11-Pad1)*%
X135305800Y-94437200D03*
X130048000Y-96824800D03*
D39*
%TO.N,GND*%
X132537200Y-84480400D03*
X144145000Y-96139000D03*
X142951200Y-94691200D03*
X135154000Y-90109000D03*
X133273800Y-78943200D03*
D40*
X144741898Y-93790912D03*
D39*
X135356600Y-79044800D03*
X132029200Y-86715600D03*
X135051800Y-87960200D03*
D38*
%TO.N,+5V*%
X139293600Y-83667600D03*
X134950200Y-84861400D03*
D39*
X134340600Y-92024200D03*
%TO.N,/USB_D+*%
X129839395Y-89456672D03*
%TO.N,/USB_D-*%
X129238353Y-90057714D03*
X130810000Y-89007713D03*
%TO.N,/GPIO8*%
X148361400Y-91668600D03*
X139639800Y-88925400D03*
%TO.N,+3.3V*%
X141007094Y-91787999D03*
X134670800Y-97256600D03*
X140369800Y-87477600D03*
X146964400Y-86614000D03*
X137947400Y-88417400D03*
X132791200Y-99305300D03*
X141452600Y-80822800D03*
X137160000Y-97383600D03*
%TO.N,+1V8*%
X138938000Y-95275400D03*
X139293600Y-78638400D03*
D38*
%TO.N,Net-(U2-IN)*%
X127889000Y-83972400D03*
D39*
X131673600Y-79044800D03*
X136067800Y-84328000D03*
%TO.N,Net-(U4-VSS)*%
X137464800Y-86563200D03*
X130810000Y-82829400D03*
%TO.N,/RST*%
X136598689Y-104031889D03*
X142417800Y-84759800D03*
X139065000Y-77571600D03*
%TO.N,/BOOT*%
X139725400Y-90373200D03*
X146888200Y-84201000D03*
%TO.N,/SDA*%
X142163800Y-95097600D03*
X143306800Y-84709000D03*
%TO.N,/SCL*%
X141401800Y-84556600D03*
X140004800Y-93675200D03*
X142290800Y-95707200D03*
%TO.N,/GSR_INT*%
X140766800Y-85623400D03*
X146380200Y-94589600D03*
%TO.N,/PPG_INT*%
X140487400Y-86995000D03*
X139115800Y-93675200D03*
X140360400Y-90551000D03*
%TO.N,/BNO_INT*%
X140436600Y-87985600D03*
X137922000Y-100279200D03*
%TO.N,/1.8V_CTRL*%
X137693400Y-82372200D03*
X139496800Y-88188800D03*
%TO.N,/D-*%
X146989800Y-90119200D03*
%TO.N,/D+*%
X146989800Y-89509600D03*
%TO.N,Net-(U3-EL4)*%
X137185400Y-94453000D03*
X143027400Y-93599000D03*
%TO.N,Net-(U3-EL3A)*%
X137185400Y-93065600D03*
D40*
X144341800Y-93389450D03*
D39*
%TO.N,Net-(U3-VREF)*%
X137160000Y-96901000D03*
D40*
X144341795Y-93790275D03*
D39*
%TO.N,Net-(U4-ISET)*%
X137541000Y-84099400D03*
X135559800Y-82321400D03*
%TD*%
%TO.N,/RST*%
D41*
X138039600Y-103428800D02*
X136660000Y-103428800D01*
X136660000Y-103428800D02*
X136660000Y-103970578D01*
%TO.N,/PPG_INT*%
D42*
X139319000Y-92456000D02*
X140360400Y-91414600D01*
%TO.N,+3.3V*%
D41*
X144542000Y-85496400D02*
X144415000Y-85369400D01*
X144915000Y-85788000D02*
X144915000Y-85504400D01*
X144915000Y-85504400D02*
X144907000Y-85496400D01*
X144907000Y-85496400D02*
X144542000Y-85496400D01*
X143738600Y-84201000D02*
X143738600Y-83803300D01*
X143941800Y-84404200D02*
X143738600Y-84201000D01*
X144415000Y-85201000D02*
X143941800Y-84727800D01*
X143941800Y-84727800D02*
X143941800Y-84404200D01*
X144415000Y-85788000D02*
X144415000Y-85201000D01*
%TO.N,Net-(C10-Pad1)*%
X146973100Y-97366900D02*
X147599400Y-97993200D01*
X146786600Y-97366900D02*
X146973100Y-97366900D01*
%TO.N,/RST*%
X132147500Y-77529500D02*
X132994400Y-76682600D01*
X132147500Y-77597000D02*
X132147500Y-77529500D01*
X136660000Y-100134800D02*
X136525000Y-99999800D01*
X136660000Y-101473000D02*
X136660000Y-100134800D01*
%TO.N,Net-(C11-Pad1)*%
X135331200Y-94411800D02*
X135305800Y-94437200D01*
X136025000Y-94411800D02*
X135331200Y-94411800D01*
X136025000Y-94411800D02*
X136025000Y-94996000D01*
%TO.N,+3.3V*%
D43*
X134340600Y-94132400D02*
X134340600Y-95885000D01*
X136753600Y-92659200D02*
X135813800Y-92659200D01*
X135813800Y-92659200D02*
X134340600Y-94132400D01*
X137312400Y-92100400D02*
X136753600Y-92659200D01*
X137312400Y-90563100D02*
X137312400Y-92100400D01*
X135846600Y-97391000D02*
X137160000Y-97391000D01*
X137705500Y-90170000D02*
X137312400Y-90563100D01*
X134340600Y-95885000D02*
X135846600Y-97391000D01*
D41*
X133130100Y-99644200D02*
X132791200Y-99305300D01*
X133375400Y-99644200D02*
X133130100Y-99644200D01*
%TO.N,GND*%
D43*
X133394003Y-93116001D02*
X134492601Y-93116001D01*
X133282500Y-77597000D02*
X133282500Y-78934500D01*
X134492601Y-93116001D02*
X134493000Y-93116400D01*
X148445000Y-90543000D02*
X149193000Y-89795000D01*
X147796000Y-87122000D02*
X147796000Y-86722200D01*
X135763000Y-78486000D02*
X135763000Y-77597000D01*
X147796000Y-86722200D02*
X148107400Y-86410800D01*
D41*
X132537200Y-84074000D02*
X133290500Y-84074000D01*
X131661500Y-84074000D02*
X132537200Y-84074000D01*
D43*
X136017000Y-91592400D02*
X136017000Y-88925400D01*
X148107400Y-86410800D02*
X149479000Y-86410800D01*
X135356600Y-78892400D02*
X135763000Y-78486000D01*
D41*
X149879000Y-92856500D02*
X149879000Y-96456500D01*
X144341800Y-94589600D02*
X143941800Y-94589600D01*
X143052800Y-94589600D02*
X142951200Y-94691200D01*
D43*
X149625000Y-86264800D02*
X149625000Y-85153500D01*
D41*
X149625000Y-81553500D02*
X149625000Y-85153500D01*
X150993000Y-87298500D02*
X150993000Y-87477000D01*
D43*
X133282500Y-78934500D02*
X133273800Y-78943200D01*
X132029599Y-86715999D02*
X132029200Y-86715600D01*
X133394003Y-86715999D02*
X132029599Y-86715999D01*
X135356600Y-79044800D02*
X135356600Y-78892400D01*
X134493000Y-93116400D02*
X136017000Y-91592400D01*
X149479000Y-86410800D02*
X149625000Y-86264800D01*
X147796000Y-90543000D02*
X148445000Y-90543000D01*
D41*
X143941800Y-94589600D02*
X143052800Y-94589600D01*
D43*
X136017000Y-88925400D02*
X135051800Y-87960200D01*
D41*
X144741800Y-93789500D02*
X144741800Y-93790814D01*
X144741800Y-93790814D02*
X144741898Y-93790912D01*
X132537200Y-84074000D02*
X132537200Y-84480400D01*
%TO.N,+5V*%
D43*
X134340600Y-92024200D02*
X134340600Y-92202000D01*
X134425500Y-84819300D02*
X134425500Y-84074000D01*
X134874000Y-84861400D02*
X134950200Y-84861400D01*
D41*
X136798000Y-83902600D02*
X137007600Y-83693000D01*
D43*
X134670800Y-85064600D02*
X134874000Y-84861400D01*
X134200600Y-92316000D02*
X133394003Y-92316000D01*
D41*
X138150600Y-83693000D02*
X138684000Y-84226400D01*
D43*
X134670800Y-85064600D02*
X134425500Y-84819300D01*
X134213600Y-92329000D02*
X134200600Y-92316000D01*
D41*
X137007600Y-83693000D02*
X138150600Y-83693000D01*
X138684000Y-84226400D02*
X138684000Y-84276000D01*
X138684000Y-84276000D02*
X138685200Y-84276000D01*
D43*
X134340600Y-92202000D02*
X134213600Y-92329000D01*
D41*
X138685200Y-84276000D02*
X139293600Y-83667600D01*
X136798000Y-85090000D02*
X136798000Y-83902600D01*
D43*
X134670800Y-87198200D02*
X134670800Y-85064600D01*
X134340600Y-87528400D02*
X134670800Y-87198200D01*
X134340600Y-87528400D02*
X134340600Y-92024200D01*
X133406403Y-87528400D02*
X134340600Y-87528400D01*
X133394003Y-87516000D02*
X133406403Y-87528400D01*
%TO.N,Net-(J2-CC1)*%
D41*
X133394003Y-88666000D02*
X131795200Y-88666000D01*
X130759200Y-87630000D02*
X130759200Y-84912200D01*
X130759200Y-84912200D02*
X130466500Y-84619500D01*
X130466500Y-84619500D02*
X130466500Y-84074000D01*
X131795200Y-88666000D02*
X130759200Y-87630000D01*
%TO.N,/USB_D+*%
X133394003Y-90666001D02*
X128766001Y-90666001D01*
X129663723Y-89281000D02*
X129839395Y-89456672D01*
X128766001Y-90666001D02*
X128524000Y-90424000D01*
X128524000Y-89662000D02*
X128905000Y-89281000D01*
X129990436Y-89607713D02*
X131898713Y-89607713D01*
X131957000Y-89666000D02*
X133394003Y-89666000D01*
X129839395Y-89456672D02*
X129990436Y-89607713D01*
X128905000Y-89281000D02*
X129663723Y-89281000D01*
X131898713Y-89607713D02*
X131957000Y-89666000D01*
X128524000Y-90424000D02*
X128524000Y-89662000D01*
%TO.N,/USB_D-*%
X131713714Y-90057714D02*
X131826000Y-90170000D01*
X131830000Y-90166000D02*
X133394003Y-90166000D01*
X130968286Y-89165999D02*
X130810000Y-89007713D01*
X133394003Y-89165999D02*
X130968286Y-89165999D01*
X129238353Y-90057714D02*
X131713714Y-90057714D01*
X131826000Y-90170000D02*
X131830000Y-90166000D01*
%TO.N,Net-(J2-CC2)*%
X131064000Y-92329000D02*
X131727001Y-91665999D01*
X130466500Y-95339500D02*
X131064000Y-94742000D01*
X130466500Y-95758000D02*
X130466500Y-95339500D01*
X131064000Y-94742000D02*
X131064000Y-92329000D01*
X131727001Y-91665999D02*
X133394003Y-91665999D01*
%TO.N,Net-(C10-Pad1)*%
X145618200Y-97358200D02*
X146777900Y-97358200D01*
X146777900Y-97358200D02*
X146786600Y-97366900D01*
%TO.N,Net-(U3-EL2A)*%
X146634200Y-92532200D02*
X144500600Y-92532200D01*
X146837400Y-92735400D02*
X146634200Y-92532200D01*
X144341800Y-92691000D02*
X144341800Y-92989400D01*
X145618200Y-96062800D02*
X146837400Y-94843600D01*
X146837400Y-94843600D02*
X146837400Y-92735400D01*
X144500600Y-92532200D02*
X144341800Y-92691000D01*
X145618200Y-96223200D02*
X145618200Y-96062800D01*
%TO.N,/GPIO8*%
D42*
X141162400Y-88925400D02*
X139039600Y-88925400D01*
X138938000Y-89027000D02*
X139538200Y-89027000D01*
X139538200Y-89027000D02*
X139639800Y-88925400D01*
D41*
X148429000Y-91736200D02*
X148361400Y-91668600D01*
X148429000Y-92856500D02*
X148429000Y-96456500D01*
D42*
X141220000Y-88983000D02*
X141162400Y-88925400D01*
X139039600Y-88925400D02*
X138938000Y-89027000D01*
D41*
X148429000Y-92856500D02*
X148429000Y-91736200D01*
%TO.N,+3.3V*%
X134660000Y-98148000D02*
X134660000Y-97267400D01*
X134660000Y-97267400D02*
X134670800Y-97256600D01*
X146824000Y-86983000D02*
X146964400Y-86842600D01*
D42*
X137743000Y-89027000D02*
X137743000Y-90132500D01*
X137743000Y-88621800D02*
X137947400Y-88417400D01*
D41*
X141220000Y-87483000D02*
X140375200Y-87483000D01*
X137197500Y-77597000D02*
X137197500Y-78872095D01*
X141915000Y-90678000D02*
X141915000Y-91155400D01*
X133375400Y-99796600D02*
X133375400Y-99974400D01*
X141915000Y-91155400D02*
X141300200Y-91770200D01*
X134470999Y-79567999D02*
X136501596Y-79567999D01*
X136501596Y-79567999D02*
X136501599Y-79567996D01*
X146110000Y-86483000D02*
X146833400Y-86483000D01*
X142621000Y-82685700D02*
X143738600Y-83803300D01*
X133461500Y-100060500D02*
X133375400Y-99974400D01*
X142621000Y-82625000D02*
X142621000Y-82685700D01*
X140375200Y-87483000D02*
X140369800Y-87477600D01*
X137149796Y-79567996D02*
X138049000Y-80467200D01*
X134628000Y-79410998D02*
X134470999Y-79567999D01*
X136501599Y-79567996D02*
X137149796Y-79567996D01*
X146964400Y-86614000D02*
X146964400Y-86842600D01*
X141097000Y-80467200D02*
X141452600Y-80822800D01*
D42*
X137743000Y-90132500D02*
X137705500Y-90170000D01*
D41*
X133375400Y-99644200D02*
X133375400Y-99796600D01*
X141478000Y-82587500D02*
X142583500Y-82587500D01*
X133459100Y-99560500D02*
X133375400Y-99644200D01*
X134022500Y-99560500D02*
X133459100Y-99560500D01*
D42*
X137743000Y-89027000D02*
X137743000Y-88621800D01*
D41*
X141478000Y-80848200D02*
X141452600Y-80822800D01*
X141300200Y-91770200D02*
X141024893Y-91770200D01*
X141024893Y-91770200D02*
X141007094Y-91787999D01*
X132791200Y-98399600D02*
X132791200Y-99305300D01*
X134628000Y-77597000D02*
X134628000Y-79410998D01*
X142583500Y-82587500D02*
X142621000Y-82625000D01*
X134022500Y-100060500D02*
X133461500Y-100060500D01*
X141478000Y-82587500D02*
X141478000Y-80848200D01*
X137197500Y-78872095D02*
X136501599Y-79567996D01*
X138049000Y-80467200D02*
X141097000Y-80467200D01*
X146833400Y-86483000D02*
X146964400Y-86614000D01*
X146110000Y-86983000D02*
X146824000Y-86983000D01*
%TO.N,Net-(U3-EL1)*%
X147269200Y-95749300D02*
X146786600Y-96231900D01*
X147091400Y-92151200D02*
X147269200Y-92329000D01*
X143941800Y-92481400D02*
X144272000Y-92151200D01*
X143941800Y-92989400D02*
X143941800Y-92481400D01*
X144272000Y-92151200D02*
X147091400Y-92151200D01*
X147269200Y-92329000D02*
X147269200Y-95749300D01*
%TO.N,+1V8*%
X140004800Y-96231900D02*
X140004800Y-95377000D01*
X141979650Y-94189550D02*
X143941800Y-94189550D01*
X138790399Y-79567996D02*
X138790399Y-79141601D01*
X140004800Y-95377000D02*
X140106400Y-95275400D01*
X138938000Y-95275400D02*
X140106400Y-95275400D01*
X144341800Y-94189550D02*
X143941800Y-94189550D01*
X143941800Y-93789500D02*
X143941800Y-94189550D01*
X140893800Y-95275400D02*
X141979650Y-94189550D01*
X138790399Y-79141601D02*
X139293600Y-78638400D01*
X140106400Y-95275400D02*
X140893800Y-95275400D01*
%TO.N,Net-(U2-IN)*%
X136067800Y-84759800D02*
X136067800Y-84328000D01*
D44*
X128845500Y-83058000D02*
X128803400Y-83058000D01*
D41*
X136398000Y-85090000D02*
X136067800Y-84759800D01*
D44*
X128803400Y-83058000D02*
X127889000Y-83972400D01*
X128845500Y-80780700D02*
X129607202Y-80018998D01*
X131720999Y-79567999D02*
X130603998Y-79567999D01*
D41*
X131720999Y-79092199D02*
X131720999Y-79567999D01*
D44*
X130603998Y-79567999D02*
X130152999Y-80018998D01*
X128845500Y-83058000D02*
X128845500Y-80780700D01*
D41*
X131673600Y-79044800D02*
X131720999Y-79092199D01*
D44*
X129607202Y-80018998D02*
X130152999Y-80018998D01*
%TO.N,Net-(U4-VSS)*%
D41*
X137464800Y-86556800D02*
X137464800Y-86563200D01*
X130209100Y-82829400D02*
X129980500Y-83058000D01*
X130810000Y-82829400D02*
X130209100Y-82829400D01*
X136798000Y-85890000D02*
X137464800Y-86556800D01*
%TO.N,Net-(U1-XTAL_P)*%
X146110000Y-87483000D02*
X146995200Y-87483000D01*
X147769200Y-88257000D02*
X147796000Y-88257000D01*
X146995200Y-87483000D02*
X147769200Y-88257000D01*
X147796000Y-88257000D02*
X148431000Y-88257000D01*
X148431000Y-88257000D02*
X149193000Y-87495000D01*
%TO.N,Net-(U1-XTAL_N)*%
X147796000Y-89272262D02*
X148362762Y-88705500D01*
X150082000Y-88705500D02*
X150993000Y-89616500D01*
X146110000Y-87983000D02*
X146936400Y-87983000D01*
X148362762Y-88705500D02*
X150082000Y-88705500D01*
X147167600Y-88214200D02*
X147167600Y-88779600D01*
X146936400Y-87983000D02*
X147167600Y-88214200D01*
X147167600Y-88779600D02*
X147796000Y-89408000D01*
%TO.N,Net-(U1-LNA_IN)*%
X143780700Y-80162400D02*
X143780700Y-77383317D01*
X144780000Y-81711800D02*
X144169680Y-81101480D01*
X145415000Y-85788000D02*
X145415000Y-83244826D01*
X145415000Y-83244826D02*
G75*
G03*
X144780008Y-81711792I-2168000J26D01*
G01*
X144169680Y-81101480D02*
G75*
G02*
X143780683Y-80162400I939020J939080D01*
G01*
X143780700Y-77383317D02*
G75*
G03*
X143764005Y-77342995I-57000J17D01*
G01*
%TO.N,Net-(U4-PRE-TERM)*%
X136398000Y-86487000D02*
X137249500Y-87338500D01*
X136398000Y-85890000D02*
X136398000Y-86487000D01*
X137249500Y-87338500D02*
X137249500Y-87757000D01*
%TO.N,Net-(D1-A)*%
X138684000Y-85471000D02*
X138684000Y-86549500D01*
%TO.N,/RST*%
X136660000Y-103970578D02*
X136598689Y-104031889D01*
X139039600Y-77597000D02*
X139065000Y-77571600D01*
X136660000Y-101473000D02*
X136660000Y-103428800D01*
X142415000Y-84762600D02*
X142417800Y-84759800D01*
X142415000Y-85788000D02*
X142415000Y-84762600D01*
X138392500Y-77597000D02*
X139039600Y-77597000D01*
%TO.N,/BOOT*%
D42*
X140590200Y-89483000D02*
X139903200Y-90170000D01*
D41*
X148175000Y-84201000D02*
X148175000Y-85153500D01*
D42*
X139903200Y-90170000D02*
X138900500Y-90170000D01*
D41*
X148175000Y-81553500D02*
X148175000Y-84201000D01*
D42*
X139725400Y-90373200D02*
X139522200Y-90170000D01*
X146888200Y-84201000D02*
X148175000Y-84201000D01*
X139522200Y-90170000D02*
X138900500Y-90170000D01*
X141220000Y-89483000D02*
X140590200Y-89483000D01*
%TO.N,Net-(U4-TS)*%
D41*
X135800500Y-83579300D02*
X135800500Y-83058000D01*
X135610600Y-85344000D02*
X135610600Y-83769200D01*
X135756600Y-85490000D02*
X135610600Y-85344000D01*
X136398000Y-85490000D02*
X135756600Y-85490000D01*
X135610600Y-83769200D02*
X135800500Y-83579300D01*
%TO.N,/SDA*%
X138660000Y-98148000D02*
X140713600Y-98148000D01*
X144551400Y-95097600D02*
X142163800Y-95097600D01*
X140944600Y-95885000D02*
X141732000Y-95097600D01*
X144741800Y-94907200D02*
X144551400Y-95097600D01*
X144741800Y-94589600D02*
X144741800Y-94907200D01*
X143306800Y-84709000D02*
X142915000Y-84709000D01*
X140944600Y-97917000D02*
X140944600Y-95885000D01*
X142915000Y-84114000D02*
X142621000Y-83820000D01*
X142915000Y-85788000D02*
X142915000Y-84709000D01*
X141732000Y-95097600D02*
X142163800Y-95097600D01*
X140713600Y-98148000D02*
X140944600Y-97917000D01*
X142915000Y-84709000D02*
X142915000Y-84114000D01*
%TO.N,/SCL*%
X141915000Y-84219500D02*
X141478000Y-83782500D01*
X145141800Y-94589600D02*
X145141800Y-95218400D01*
X144881600Y-95478600D02*
X142519400Y-95478600D01*
X141757400Y-95758000D02*
X142240000Y-95758000D01*
X138797500Y-99060500D02*
X140436100Y-99060500D01*
X142240000Y-95758000D02*
X142290800Y-95707200D01*
X141401800Y-84556600D02*
X141915000Y-84556600D01*
X141528800Y-97967800D02*
X141528800Y-95986600D01*
X141915000Y-84556600D02*
X141915000Y-84219500D01*
X141915000Y-85788000D02*
X141915000Y-84556600D01*
X140436100Y-99060500D02*
X141528800Y-97967800D01*
X145141800Y-95218400D02*
X144881600Y-95478600D01*
X142519400Y-95478600D02*
X142290800Y-95707200D01*
X141528800Y-95986600D02*
X141757400Y-95758000D01*
%TO.N,/GSR_INT*%
X146380200Y-94589600D02*
X145541800Y-94589600D01*
X141220000Y-86076600D02*
X140766800Y-85623400D01*
X141220000Y-86483000D02*
X141220000Y-86076600D01*
%TO.N,/PPG_INT*%
D42*
X140360400Y-91414600D02*
X140360400Y-90551000D01*
D41*
X140499400Y-86983000D02*
X140487400Y-86995000D01*
D42*
X139115800Y-93675200D02*
X139115800Y-92659200D01*
X139115800Y-92659200D02*
X139319000Y-92456000D01*
D41*
X141220000Y-86983000D02*
X140499400Y-86983000D01*
%TO.N,/BNO_INT*%
D42*
X137922000Y-100279200D02*
X138160000Y-100517200D01*
X138160000Y-100517200D02*
X138160000Y-101473000D01*
X140540800Y-87983000D02*
X141220000Y-87983000D01*
X140436600Y-87985600D02*
X140538200Y-87985600D01*
X140538200Y-87985600D02*
X140540800Y-87983000D01*
%TO.N,/1.8V_CTRL*%
D41*
X136501599Y-81467998D02*
X136789198Y-81467998D01*
X136789198Y-81467998D02*
X137693400Y-82372200D01*
X141220000Y-88483000D02*
X139791000Y-88483000D01*
X139791000Y-88483000D02*
X139496800Y-88188800D01*
%TO.N,Net-(U1-VDD_SPI)*%
X142415000Y-91840500D02*
X142240000Y-92015500D01*
X142415000Y-90678000D02*
X142415000Y-91840500D01*
%TO.N,/D-*%
D42*
X146989800Y-90119200D02*
X146989800Y-89992200D01*
X146989800Y-89992200D02*
X146980600Y-89983000D01*
X146980600Y-89983000D02*
X146110000Y-89983000D01*
%TO.N,/D+*%
X146963200Y-89483000D02*
X146989800Y-89509600D01*
X146110000Y-89483000D02*
X146963200Y-89483000D01*
%TO.N,Net-(C11-Pad1)*%
D41*
X136025000Y-93751400D02*
X136025000Y-94411800D01*
%TO.N,Net-(U3-EL4)*%
X143941800Y-93389450D02*
X143236950Y-93389450D01*
X143236950Y-93389450D02*
X143027400Y-93599000D01*
X137185400Y-94970600D02*
X137160000Y-94996000D01*
X137185400Y-94453000D02*
X137185400Y-94970600D01*
%TO.N,Net-(U5-CAP)*%
X135660000Y-102707500D02*
X135695500Y-102743000D01*
X135660000Y-101473000D02*
X135660000Y-102707500D01*
%TO.N,Net-(U3-EL3A)*%
X137160000Y-93091000D02*
X137185400Y-93065600D01*
X137160000Y-93853000D02*
X137160000Y-93091000D01*
%TO.N,Net-(U3-VREF)*%
X144341800Y-93789500D02*
X144341800Y-93790270D01*
X144341800Y-93790270D02*
X144341795Y-93790275D01*
X137160000Y-96139000D02*
X137160000Y-96901000D01*
%TO.N,Net-(U2-EN)*%
X131720999Y-81467998D02*
X130406999Y-81467998D01*
X130406999Y-81467998D02*
X130152999Y-81213998D01*
%TO.N,Net-(U4-ISET)*%
X134455500Y-82892300D02*
X135026400Y-82321400D01*
X137769600Y-85293200D02*
X137769600Y-84328000D01*
X135026400Y-82321400D02*
X135559800Y-82321400D01*
X137769600Y-84328000D02*
X137541000Y-84099400D01*
X136798000Y-85490000D02*
X137572800Y-85490000D01*
X134455500Y-82931000D02*
X134455500Y-82892300D01*
X137572800Y-85490000D02*
X137769600Y-85293200D01*
%TD*%
%TA.AperFunction,Conductor*%
%TO.N,GND*%
G36*
X149256258Y-78810485D02*
G01*
X149283616Y-78834394D01*
X149284524Y-78835460D01*
X149286736Y-78838132D01*
X149362605Y-78932447D01*
X149502396Y-79106226D01*
X149504513Y-79108933D01*
X149712854Y-79383153D01*
X149714893Y-79385916D01*
X149769083Y-79461498D01*
X149911261Y-79659804D01*
X149915405Y-79665583D01*
X149917356Y-79668386D01*
X149955971Y-79725521D01*
X150110118Y-79953601D01*
X150112001Y-79956472D01*
X150294421Y-80243187D01*
X150297092Y-80247584D01*
X150491453Y-80583030D01*
X150637521Y-80835128D01*
X150644204Y-80846661D01*
X150647472Y-80852679D01*
X150742238Y-81039325D01*
X150958829Y-81465915D01*
X150961763Y-81472113D01*
X151238542Y-82101170D01*
X151241130Y-82107521D01*
X151482544Y-82750473D01*
X151484775Y-82756956D01*
X151690116Y-83411742D01*
X151691987Y-83418340D01*
X151860712Y-84083060D01*
X151862214Y-84089750D01*
X151993881Y-84762481D01*
X151995011Y-84769241D01*
X152089304Y-85448204D01*
X152090059Y-85455012D01*
X152146748Y-86138564D01*
X152147125Y-86145397D01*
X152166283Y-86840463D01*
X152166330Y-86843879D01*
X152166330Y-92045208D01*
X152166290Y-92048342D01*
X152150081Y-92689507D01*
X152149863Y-92694361D01*
X152127841Y-93035500D01*
X152127572Y-93038931D01*
X152095866Y-93381760D01*
X152095501Y-93385184D01*
X152054206Y-93727679D01*
X152053747Y-93731092D01*
X152003100Y-94071359D01*
X152002546Y-94074757D01*
X151942337Y-94414238D01*
X151941688Y-94417620D01*
X151872254Y-94754431D01*
X151871513Y-94757791D01*
X151794511Y-95085093D01*
X151792607Y-95093185D01*
X151791772Y-95096526D01*
X151703725Y-95429071D01*
X151702798Y-95432384D01*
X151605432Y-95762790D01*
X151604414Y-95766076D01*
X151498059Y-96093225D01*
X151496951Y-96096479D01*
X151381426Y-96420951D01*
X151380228Y-96424173D01*
X151255876Y-96745003D01*
X151254590Y-96748190D01*
X151121286Y-97065713D01*
X151119913Y-97068861D01*
X150977953Y-97382377D01*
X150976493Y-97385484D01*
X150825889Y-97694991D01*
X150824345Y-97698057D01*
X150667254Y-97999394D01*
X150664781Y-98003907D01*
X150440536Y-98393697D01*
X150326825Y-98591353D01*
X150319516Y-98604057D01*
X150315931Y-98609907D01*
X149940538Y-99186156D01*
X149936638Y-99191796D01*
X149530239Y-99746035D01*
X149526033Y-99751451D01*
X149089938Y-100281986D01*
X149085438Y-100287161D01*
X148621052Y-100792375D01*
X148616274Y-100797293D01*
X148124976Y-101275769D01*
X148119934Y-101280415D01*
X147603150Y-101730822D01*
X147597860Y-101735181D01*
X147056991Y-102156334D01*
X147051472Y-102160392D01*
X146487870Y-102551242D01*
X146482142Y-102554984D01*
X145896521Y-102914964D01*
X145890852Y-102918246D01*
X145335003Y-103220699D01*
X145330691Y-103222937D01*
X145024234Y-103374441D01*
X145021127Y-103375924D01*
X144708408Y-103519864D01*
X144705261Y-103521259D01*
X144387968Y-103656761D01*
X144384783Y-103658070D01*
X144064783Y-103784341D01*
X144061562Y-103785560D01*
X143737545Y-103903127D01*
X143734292Y-103904257D01*
X143407800Y-104012560D01*
X143404518Y-104013598D01*
X143074609Y-104112958D01*
X143071299Y-104113905D01*
X142739331Y-104203913D01*
X142735999Y-104204767D01*
X142401125Y-104285662D01*
X142397770Y-104286423D01*
X142061293Y-104357888D01*
X142057920Y-104358556D01*
X141719146Y-104420745D01*
X141715757Y-104421319D01*
X141375739Y-104474041D01*
X141372337Y-104474520D01*
X141030741Y-104517833D01*
X141027327Y-104518218D01*
X140684831Y-104552036D01*
X140681410Y-104552326D01*
X140338030Y-104576654D01*
X140334603Y-104576849D01*
X139995111Y-104591472D01*
X139989966Y-104591587D01*
X139297580Y-104592654D01*
X139290723Y-104592475D01*
X138603973Y-104555501D01*
X138597137Y-104554943D01*
X137913952Y-104480109D01*
X137907159Y-104479174D01*
X137229686Y-104366777D01*
X137222959Y-104365468D01*
X137189013Y-104357888D01*
X137057271Y-104328467D01*
X136996133Y-104294644D01*
X136962987Y-104233137D01*
X136964521Y-104175358D01*
X136989189Y-104083299D01*
X136989189Y-103980479D01*
X136964725Y-103889177D01*
X136960500Y-103857084D01*
X136960500Y-103853300D01*
X136980185Y-103786261D01*
X137032989Y-103740506D01*
X137084500Y-103729300D01*
X137467900Y-103729300D01*
X137534939Y-103748985D01*
X137580694Y-103801789D01*
X137591900Y-103853300D01*
X137591900Y-103902352D01*
X137603531Y-103960829D01*
X137603532Y-103960830D01*
X137647847Y-104027152D01*
X137714169Y-104071467D01*
X137714170Y-104071468D01*
X137772647Y-104083099D01*
X137772650Y-104083100D01*
X137772652Y-104083100D01*
X138662150Y-104083100D01*
X138662151Y-104083099D01*
X138688567Y-104077845D01*
X138720629Y-104071468D01*
X138720629Y-104071467D01*
X138720631Y-104071467D01*
X138786952Y-104027152D01*
X138831267Y-103960831D01*
X138831267Y-103960829D01*
X138831268Y-103960829D01*
X138842899Y-103902352D01*
X138842900Y-103902350D01*
X138842900Y-103012849D01*
X138842899Y-103012847D01*
X138831268Y-102954370D01*
X138831267Y-102954369D01*
X138786952Y-102888047D01*
X138720630Y-102843732D01*
X138720629Y-102843731D01*
X138662152Y-102832100D01*
X138662148Y-102832100D01*
X137772652Y-102832100D01*
X137772647Y-102832100D01*
X137714170Y-102843731D01*
X137714169Y-102843732D01*
X137647847Y-102888047D01*
X137603532Y-102954369D01*
X137603531Y-102954370D01*
X137591900Y-103012846D01*
X137591545Y-103016455D01*
X137590830Y-103018223D01*
X137590711Y-103018826D01*
X137590596Y-103018803D01*
X137565383Y-103081242D01*
X137508349Y-103121601D01*
X137468142Y-103128300D01*
X137084500Y-103128300D01*
X137017461Y-103108615D01*
X136971706Y-103055811D01*
X136960500Y-103004300D01*
X136960500Y-102135000D01*
X136980185Y-102067961D01*
X137032989Y-102022206D01*
X137084500Y-102011000D01*
X137306750Y-102011000D01*
X137306751Y-102010999D01*
X137321485Y-102008068D01*
X137377210Y-101996985D01*
X137377583Y-101998862D01*
X137432014Y-101993010D01*
X137451352Y-101998688D01*
X137513247Y-102010999D01*
X137513250Y-102011000D01*
X137513252Y-102011000D01*
X137806750Y-102011000D01*
X137806751Y-102010999D01*
X137821485Y-102008068D01*
X137877210Y-101996985D01*
X137877583Y-101998862D01*
X137932014Y-101993010D01*
X137951352Y-101998688D01*
X138013247Y-102010999D01*
X138013250Y-102011000D01*
X138013252Y-102011000D01*
X138306750Y-102011000D01*
X138306751Y-102010999D01*
X138321485Y-102008068D01*
X138377210Y-101996985D01*
X138377583Y-101998862D01*
X138432014Y-101993010D01*
X138451352Y-101998688D01*
X138513247Y-102010999D01*
X138513250Y-102011000D01*
X138513252Y-102011000D01*
X138806750Y-102011000D01*
X138806751Y-102010999D01*
X138821568Y-102008052D01*
X138865229Y-101999368D01*
X138865229Y-101999367D01*
X138865231Y-101999367D01*
X138931552Y-101955052D01*
X138975867Y-101888731D01*
X138975867Y-101888729D01*
X138975868Y-101888729D01*
X138987499Y-101830252D01*
X138987500Y-101830250D01*
X138987500Y-101364241D01*
X141240899Y-101364241D01*
X141272518Y-101523196D01*
X141272521Y-101523206D01*
X141334541Y-101672937D01*
X141334542Y-101672939D01*
X141424589Y-101807703D01*
X141424592Y-101807707D01*
X141539192Y-101922307D01*
X141539196Y-101922310D01*
X141673958Y-102012356D01*
X141673959Y-102012356D01*
X141673960Y-102012357D01*
X141673962Y-102012358D01*
X141797482Y-102063521D01*
X141823698Y-102074380D01*
X141823702Y-102074380D01*
X141823703Y-102074381D01*
X141982658Y-102106000D01*
X141982661Y-102106000D01*
X142144741Y-102106000D01*
X142257908Y-102083489D01*
X142303702Y-102074380D01*
X142453442Y-102012356D01*
X142588204Y-101922310D01*
X142702810Y-101807704D01*
X142792856Y-101672942D01*
X142854880Y-101523202D01*
X142886500Y-101364239D01*
X142886500Y-101202161D01*
X142886500Y-101202158D01*
X142854881Y-101043203D01*
X142854880Y-101043202D01*
X142854880Y-101043198D01*
X142847551Y-101025505D01*
X142792858Y-100893462D01*
X142792857Y-100893460D01*
X142791140Y-100890891D01*
X142702810Y-100758696D01*
X142702807Y-100758692D01*
X142588207Y-100644092D01*
X142588203Y-100644089D01*
X142453439Y-100554042D01*
X142453437Y-100554041D01*
X142303706Y-100492021D01*
X142303696Y-100492018D01*
X142144741Y-100460400D01*
X142144739Y-100460400D01*
X141982661Y-100460400D01*
X141982659Y-100460400D01*
X141823703Y-100492018D01*
X141823693Y-100492021D01*
X141673962Y-100554041D01*
X141673960Y-100554042D01*
X141539196Y-100644089D01*
X141539192Y-100644092D01*
X141424592Y-100758692D01*
X141424589Y-100758696D01*
X141334542Y-100893460D01*
X141334541Y-100893462D01*
X141272521Y-101043193D01*
X141272518Y-101043203D01*
X141240900Y-101202158D01*
X141240900Y-101202161D01*
X141240900Y-101364239D01*
X141240900Y-101364241D01*
X141240899Y-101364241D01*
X138987500Y-101364241D01*
X138987500Y-101202838D01*
X138987500Y-101115752D01*
X138975867Y-101057269D01*
X138970704Y-101049543D01*
X138968071Y-101025505D01*
X138971222Y-101007834D01*
X138969303Y-100989984D01*
X138977228Y-100974150D01*
X138980337Y-100956720D01*
X138992543Y-100943555D01*
X139000578Y-100927505D01*
X139015803Y-100918470D01*
X139027843Y-100905487D01*
X139045227Y-100901012D01*
X139060666Y-100891852D01*
X139091333Y-100888000D01*
X139154750Y-100888000D01*
X139154751Y-100887999D01*
X139169568Y-100885052D01*
X139213229Y-100876368D01*
X139213229Y-100876367D01*
X139213231Y-100876367D01*
X139279552Y-100832052D01*
X139323867Y-100765731D01*
X139323867Y-100765729D01*
X139323868Y-100765729D01*
X139332552Y-100722068D01*
X139335500Y-100707248D01*
X139335500Y-100413752D01*
X139335500Y-100413749D01*
X139335499Y-100413747D01*
X139323868Y-100355270D01*
X139323867Y-100355269D01*
X139279552Y-100288947D01*
X139213230Y-100244632D01*
X139213229Y-100244631D01*
X139154752Y-100233000D01*
X139154748Y-100233000D01*
X138440252Y-100233000D01*
X138440245Y-100233000D01*
X138434187Y-100234205D01*
X138364596Y-100227972D01*
X138309422Y-100185105D01*
X138290230Y-100144678D01*
X138285888Y-100128473D01*
X138285886Y-100128469D01*
X138284500Y-100126069D01*
X138249642Y-100065692D01*
X138234480Y-100039430D01*
X138234476Y-100039425D01*
X138161774Y-99966723D01*
X138161769Y-99966719D01*
X138072730Y-99915313D01*
X138072729Y-99915312D01*
X138072728Y-99915312D01*
X137973410Y-99888700D01*
X137870590Y-99888700D01*
X137771272Y-99915312D01*
X137771269Y-99915313D01*
X137682230Y-99966719D01*
X137682225Y-99966723D01*
X137609523Y-100039425D01*
X137609519Y-100039430D01*
X137558113Y-100128469D01*
X137558112Y-100128472D01*
X137531500Y-100227790D01*
X137531500Y-100330610D01*
X137553777Y-100413747D01*
X137558112Y-100429927D01*
X137558113Y-100429930D01*
X137609519Y-100518969D01*
X137609521Y-100518972D01*
X137609522Y-100518973D01*
X137682227Y-100591678D01*
X137771272Y-100643088D01*
X137792592Y-100648800D01*
X137816367Y-100663291D01*
X137841703Y-100674862D01*
X137845793Y-100681226D01*
X137852252Y-100685163D01*
X137864420Y-100710211D01*
X137879477Y-100733640D01*
X137881021Y-100744384D01*
X137882783Y-100748010D01*
X137884500Y-100768575D01*
X137884500Y-100811000D01*
X137864815Y-100878039D01*
X137812011Y-100923794D01*
X137760500Y-100935000D01*
X137513247Y-100935000D01*
X137442790Y-100949015D01*
X137442416Y-100947137D01*
X137387986Y-100952990D01*
X137368647Y-100947311D01*
X137306752Y-100935000D01*
X137306748Y-100935000D01*
X137084500Y-100935000D01*
X137017461Y-100915315D01*
X136971706Y-100862511D01*
X136960500Y-100811000D01*
X136960500Y-100279718D01*
X136977114Y-100217717D01*
X136991389Y-100192991D01*
X136991388Y-100192991D01*
X136991392Y-100192986D01*
X137025500Y-100065692D01*
X137025500Y-99933908D01*
X136991392Y-99806614D01*
X136925500Y-99692486D01*
X136832314Y-99599300D01*
X136775250Y-99566354D01*
X136718187Y-99533408D01*
X136654539Y-99516354D01*
X136590892Y-99499300D01*
X136459108Y-99499300D01*
X136331812Y-99533408D01*
X136217686Y-99599300D01*
X136217683Y-99599302D01*
X136124502Y-99692483D01*
X136124500Y-99692486D01*
X136058608Y-99806612D01*
X136029901Y-99913752D01*
X136024500Y-99933908D01*
X136024500Y-100065692D01*
X136033257Y-100098374D01*
X136058608Y-100192987D01*
X136066842Y-100207248D01*
X136124500Y-100307114D01*
X136217686Y-100400300D01*
X136269007Y-100429930D01*
X136297499Y-100446380D01*
X136345715Y-100496946D01*
X136359500Y-100553767D01*
X136359500Y-100811000D01*
X136339815Y-100878039D01*
X136287011Y-100923794D01*
X136235500Y-100935000D01*
X136013247Y-100935000D01*
X135942790Y-100949015D01*
X135942416Y-100947137D01*
X135887986Y-100952990D01*
X135868647Y-100947311D01*
X135806752Y-100935000D01*
X135806748Y-100935000D01*
X135513252Y-100935000D01*
X135513247Y-100935000D01*
X135442790Y-100949015D01*
X135442416Y-100947137D01*
X135387986Y-100952990D01*
X135368647Y-100947311D01*
X135306752Y-100935000D01*
X135306748Y-100935000D01*
X135013252Y-100935000D01*
X135013247Y-100935000D01*
X134942790Y-100949015D01*
X134942416Y-100947137D01*
X134887986Y-100952990D01*
X134868647Y-100947311D01*
X134806752Y-100935000D01*
X134806748Y-100935000D01*
X134513252Y-100935000D01*
X134513247Y-100935000D01*
X134454770Y-100946631D01*
X134454769Y-100946632D01*
X134388447Y-100990947D01*
X134344132Y-101057269D01*
X134344131Y-101057270D01*
X134332500Y-101115747D01*
X134332500Y-101830252D01*
X134344131Y-101888729D01*
X134344132Y-101888730D01*
X134388447Y-101955052D01*
X134454769Y-101999367D01*
X134454770Y-101999368D01*
X134513247Y-102010999D01*
X134513250Y-102011000D01*
X134513252Y-102011000D01*
X134806750Y-102011000D01*
X134806751Y-102010999D01*
X134821485Y-102008068D01*
X134877210Y-101996985D01*
X134877583Y-101998862D01*
X134932014Y-101993010D01*
X134951352Y-101998688D01*
X135013247Y-102010999D01*
X135013250Y-102011000D01*
X135235500Y-102011000D01*
X135244185Y-102013550D01*
X135253147Y-102012262D01*
X135277187Y-102023240D01*
X135302539Y-102030685D01*
X135308466Y-102037525D01*
X135316703Y-102041287D01*
X135330992Y-102063521D01*
X135348294Y-102083489D01*
X135350581Y-102094003D01*
X135354477Y-102100065D01*
X135359500Y-102135000D01*
X135359500Y-102175263D01*
X135339815Y-102242302D01*
X135289963Y-102286662D01*
X135273570Y-102294676D01*
X135189678Y-102378568D01*
X135189676Y-102378569D01*
X135137567Y-102485157D01*
X135137567Y-102485160D01*
X135127500Y-102554258D01*
X135127500Y-102931742D01*
X135132381Y-102965241D01*
X135137567Y-103000842D01*
X135189676Y-103107430D01*
X135273569Y-103191323D01*
X135380157Y-103243432D01*
X135380158Y-103243432D01*
X135380160Y-103243433D01*
X135449258Y-103253500D01*
X135449264Y-103253500D01*
X135941736Y-103253500D01*
X135941742Y-103253500D01*
X136010840Y-103243433D01*
X136117429Y-103191324D01*
X136117430Y-103191323D01*
X136117432Y-103191322D01*
X136147819Y-103160935D01*
X136209142Y-103127450D01*
X136278834Y-103132434D01*
X136334767Y-103174306D01*
X136359184Y-103239770D01*
X136359500Y-103248616D01*
X136359500Y-103667464D01*
X136339815Y-103734503D01*
X136323182Y-103755144D01*
X136286212Y-103792114D01*
X136286208Y-103792119D01*
X136234802Y-103881158D01*
X136234801Y-103881159D01*
X136206266Y-103987656D01*
X136201125Y-103996089D01*
X136199824Y-104005877D01*
X136183244Y-104025424D01*
X136169901Y-104047316D01*
X136161016Y-104051631D01*
X136154630Y-104059162D01*
X136130113Y-104066643D01*
X136107054Y-104077845D01*
X136095466Y-104077216D01*
X136087803Y-104079555D01*
X136052817Y-104074902D01*
X135886530Y-104027981D01*
X135879985Y-104025937D01*
X135231553Y-103803600D01*
X135225133Y-103801199D01*
X134589964Y-103543365D01*
X134583691Y-103540614D01*
X133963411Y-103247950D01*
X133957305Y-103244861D01*
X133352722Y-102917676D01*
X133347046Y-102914407D01*
X132807198Y-102584259D01*
X132803103Y-102581643D01*
X132518688Y-102392009D01*
X132515851Y-102390060D01*
X132234817Y-102191195D01*
X132232035Y-102189168D01*
X131956041Y-101982136D01*
X131953315Y-101980031D01*
X131939999Y-101969452D01*
X131683952Y-101766030D01*
X131681362Y-101763913D01*
X131417406Y-101541979D01*
X131414846Y-101539764D01*
X131157851Y-101311205D01*
X131155310Y-101308882D01*
X130904260Y-101072807D01*
X130901786Y-101070415D01*
X130762557Y-100932013D01*
X130657881Y-100827957D01*
X130655483Y-100825507D01*
X130626357Y-100794901D01*
X130482842Y-100644092D01*
X130417961Y-100575913D01*
X130415625Y-100573388D01*
X130185536Y-100317766D01*
X130183272Y-100315180D01*
X129959983Y-100052838D01*
X129957791Y-100050189D01*
X129742156Y-99782125D01*
X129740040Y-99779419D01*
X129531685Y-99505184D01*
X129529645Y-99502420D01*
X129329151Y-99222776D01*
X129327189Y-99219958D01*
X129134414Y-98934721D01*
X129132532Y-98931851D01*
X128950147Y-98645194D01*
X128947475Y-98640796D01*
X128698469Y-98211037D01*
X128698469Y-98211036D01*
X128665050Y-98153358D01*
X132280700Y-98153358D01*
X132280700Y-98645842D01*
X132286551Y-98685999D01*
X132290767Y-98714942D01*
X132342876Y-98821530D01*
X132426769Y-98905423D01*
X132435132Y-98911394D01*
X132433171Y-98914140D01*
X132471597Y-98949239D01*
X132489519Y-99016771D01*
X132472950Y-99075524D01*
X132427312Y-99154571D01*
X132427312Y-99154572D01*
X132400700Y-99253890D01*
X132400700Y-99356710D01*
X132415985Y-99413752D01*
X132427312Y-99456027D01*
X132427313Y-99456030D01*
X132478719Y-99545069D01*
X132478721Y-99545072D01*
X132478722Y-99545073D01*
X132551427Y-99617778D01*
X132640472Y-99669188D01*
X132730836Y-99693400D01*
X132786423Y-99725494D01*
X132889640Y-99828711D01*
X132945589Y-99884660D01*
X132945591Y-99884661D01*
X132945595Y-99884664D01*
X133014155Y-99924247D01*
X133062371Y-99974813D01*
X133069357Y-99991138D01*
X133074900Y-100007180D01*
X133074900Y-100013962D01*
X133095379Y-100090389D01*
X133110043Y-100115788D01*
X133134940Y-100158911D01*
X133276989Y-100300960D01*
X133345512Y-100340522D01*
X133421938Y-100361000D01*
X133546155Y-100361000D01*
X133594086Y-100375074D01*
X133595487Y-100371694D01*
X133606770Y-100376368D01*
X133665247Y-100387999D01*
X133665250Y-100388000D01*
X133665252Y-100388000D01*
X134379750Y-100388000D01*
X134379751Y-100387999D01*
X134394568Y-100385052D01*
X134438229Y-100376368D01*
X134438229Y-100376367D01*
X134438231Y-100376367D01*
X134504552Y-100332052D01*
X134548867Y-100265731D01*
X134548867Y-100265729D01*
X134548868Y-100265729D01*
X134560499Y-100207252D01*
X134560500Y-100207250D01*
X134560500Y-99913749D01*
X134560499Y-99913747D01*
X134546485Y-99843290D01*
X134548362Y-99842916D01*
X134542510Y-99788486D01*
X134548188Y-99769147D01*
X134560499Y-99707252D01*
X134560500Y-99707250D01*
X134560500Y-99413749D01*
X134560499Y-99413747D01*
X134548868Y-99355270D01*
X134548867Y-99355269D01*
X134504552Y-99288947D01*
X134438230Y-99244632D01*
X134438229Y-99244631D01*
X134379752Y-99233000D01*
X134379748Y-99233000D01*
X133665252Y-99233000D01*
X133665247Y-99233000D01*
X133606770Y-99244631D01*
X133595487Y-99249306D01*
X133593991Y-99245695D01*
X133548360Y-99259980D01*
X133546155Y-99260000D01*
X133498662Y-99260000D01*
X133419538Y-99260000D01*
X133343112Y-99280478D01*
X133343111Y-99280478D01*
X133343109Y-99280479D01*
X133335598Y-99283590D01*
X133334319Y-99280503D01*
X133281464Y-99293290D01*
X133215452Y-99270395D01*
X133174488Y-99220589D01*
X133170298Y-99211337D01*
X133155088Y-99154572D01*
X133106398Y-99070239D01*
X133103881Y-99064680D01*
X133099833Y-99035887D01*
X133092977Y-99007625D01*
X133095027Y-99001699D01*
X133094155Y-98995490D01*
X133106317Y-98969078D01*
X133115829Y-98941598D01*
X133120987Y-98937224D01*
X133123381Y-98932027D01*
X133138500Y-98922377D01*
X133148847Y-98913605D01*
X133147268Y-98911394D01*
X133155630Y-98905423D01*
X133239522Y-98821532D01*
X133239523Y-98821530D01*
X133239524Y-98821529D01*
X133291633Y-98714940D01*
X133301700Y-98645842D01*
X133301700Y-98153358D01*
X133291633Y-98084260D01*
X133291404Y-98083792D01*
X133239523Y-97977669D01*
X133155630Y-97893776D01*
X133049042Y-97841667D01*
X133031765Y-97839150D01*
X132979942Y-97831600D01*
X132602458Y-97831600D01*
X132556392Y-97838311D01*
X132533357Y-97841667D01*
X132426769Y-97893776D01*
X132426768Y-97893778D01*
X132342878Y-97977668D01*
X132342876Y-97977669D01*
X132290767Y-98084257D01*
X132286991Y-98110171D01*
X132280700Y-98153358D01*
X128665050Y-98153358D01*
X128600333Y-98041663D01*
X128597071Y-98035657D01*
X128285719Y-97422436D01*
X128282788Y-97416244D01*
X128005998Y-96787159D01*
X128003411Y-96780809D01*
X127761996Y-96137857D01*
X127759765Y-96131374D01*
X127759621Y-96130915D01*
X127554422Y-95476578D01*
X127552569Y-95470044D01*
X127383829Y-94805264D01*
X127382331Y-94798590D01*
X127382039Y-94797100D01*
X127250663Y-94125857D01*
X127249535Y-94119105D01*
X127155240Y-93440123D01*
X127154490Y-93433358D01*
X127097796Y-92749759D01*
X127097422Y-92742967D01*
X127078265Y-92047882D01*
X127078218Y-92044466D01*
X127078218Y-86843136D01*
X127078258Y-86840003D01*
X127082239Y-86682519D01*
X127094466Y-86198808D01*
X127094681Y-86194018D01*
X127116707Y-85852806D01*
X127116974Y-85849404D01*
X127117183Y-85847147D01*
X127148682Y-85506553D01*
X127149040Y-85503200D01*
X127190342Y-85160642D01*
X127190801Y-85157234D01*
X127204458Y-85065482D01*
X127241457Y-84816902D01*
X127241986Y-84813655D01*
X127302213Y-84474077D01*
X127302859Y-84470716D01*
X127307877Y-84446374D01*
X127320783Y-84383768D01*
X127353597Y-84322085D01*
X127414552Y-84287933D01*
X127484294Y-84292158D01*
X127529910Y-84321124D01*
X127581686Y-84372900D01*
X127695814Y-84438792D01*
X127823108Y-84472900D01*
X127823110Y-84472900D01*
X127954890Y-84472900D01*
X127954892Y-84472900D01*
X128082186Y-84438792D01*
X128196314Y-84372900D01*
X128289500Y-84279714D01*
X128355392Y-84165586D01*
X128355393Y-84165580D01*
X128358504Y-84158074D01*
X128359842Y-84158628D01*
X128387111Y-84111390D01*
X128893684Y-83604819D01*
X128955007Y-83571334D01*
X128981365Y-83568500D01*
X129091736Y-83568500D01*
X129091742Y-83568500D01*
X129160840Y-83558433D01*
X129267429Y-83506324D01*
X129267430Y-83506323D01*
X129267432Y-83506322D01*
X129325319Y-83448435D01*
X129386642Y-83414950D01*
X129456334Y-83419934D01*
X129500681Y-83448435D01*
X129558569Y-83506323D01*
X129665157Y-83558432D01*
X129665158Y-83558432D01*
X129665160Y-83558433D01*
X129734258Y-83568500D01*
X129837987Y-83568500D01*
X129905026Y-83588185D01*
X129950781Y-83640989D01*
X129960725Y-83710147D01*
X129949387Y-83746961D01*
X129918709Y-83809711D01*
X129918709Y-83809714D01*
X129908500Y-83879785D01*
X129908500Y-83879789D01*
X129908500Y-83879790D01*
X129908500Y-84268213D01*
X129911989Y-84292158D01*
X129918709Y-84338286D01*
X129918709Y-84338287D01*
X129918710Y-84338289D01*
X129918710Y-84338291D01*
X129971548Y-84446372D01*
X129971550Y-84446375D01*
X130056623Y-84531448D01*
X130056624Y-84531448D01*
X130056625Y-84531449D01*
X130096460Y-84550923D01*
X130148042Y-84598051D01*
X130162911Y-84651269D01*
X130164939Y-84651003D01*
X130165999Y-84659059D01*
X130186479Y-84735490D01*
X130186482Y-84735495D01*
X130226035Y-84804004D01*
X130226041Y-84804012D01*
X130422381Y-85000352D01*
X130455866Y-85061675D01*
X130458700Y-85088033D01*
X130458700Y-87669562D01*
X130462984Y-87685549D01*
X130479179Y-87745990D01*
X130495530Y-87774309D01*
X130495531Y-87774313D01*
X130518735Y-87814504D01*
X130518741Y-87814512D01*
X131214947Y-88510718D01*
X131248432Y-88572041D01*
X131243448Y-88641733D01*
X131201576Y-88697666D01*
X131136112Y-88722083D01*
X131067839Y-88707231D01*
X131051778Y-88696773D01*
X131049774Y-88695235D01*
X130960730Y-88643826D01*
X130960729Y-88643825D01*
X130960728Y-88643825D01*
X130861410Y-88617213D01*
X130758590Y-88617213D01*
X130659272Y-88643825D01*
X130659269Y-88643826D01*
X130570230Y-88695232D01*
X130570225Y-88695236D01*
X130497523Y-88767938D01*
X130497519Y-88767943D01*
X130446113Y-88856982D01*
X130446112Y-88856985D01*
X130419500Y-88956303D01*
X130419500Y-89059123D01*
X130444150Y-89151122D01*
X130443555Y-89176114D01*
X130447114Y-89200860D01*
X130442738Y-89210440D01*
X130442488Y-89220969D01*
X130428475Y-89241673D01*
X130418089Y-89264416D01*
X130409229Y-89270109D01*
X130403326Y-89278832D01*
X130380342Y-89288673D01*
X130359311Y-89302190D01*
X130343455Y-89304469D01*
X130339097Y-89306336D01*
X130324376Y-89307213D01*
X130275607Y-89307213D01*
X130208568Y-89287528D01*
X130168219Y-89245212D01*
X130163604Y-89237219D01*
X130151873Y-89216899D01*
X130079168Y-89144194D01*
X130079167Y-89144193D01*
X130079164Y-89144191D01*
X129990125Y-89092785D01*
X129990124Y-89092784D01*
X129899758Y-89068571D01*
X129865957Y-89053838D01*
X129854083Y-89046389D01*
X129848234Y-89040540D01*
X129806595Y-89016500D01*
X129788409Y-89006000D01*
X129779713Y-89000979D01*
X129779714Y-89000979D01*
X129741498Y-88990739D01*
X129703285Y-88980500D01*
X128865438Y-88980500D01*
X128827224Y-88990739D01*
X128789009Y-89000979D01*
X128765305Y-89014665D01*
X128762128Y-89016500D01*
X128749756Y-89023642D01*
X128720489Y-89040539D01*
X128283541Y-89477487D01*
X128283535Y-89477495D01*
X128243982Y-89546004D01*
X128243979Y-89546009D01*
X128230326Y-89596962D01*
X128223500Y-89622438D01*
X128223500Y-90463562D01*
X128235863Y-90509699D01*
X128243979Y-90539990D01*
X128243980Y-90539991D01*
X128245358Y-90542377D01*
X128272594Y-90589552D01*
X128283540Y-90608511D01*
X128525541Y-90850512D01*
X128581490Y-90906461D01*
X128581492Y-90906462D01*
X128581496Y-90906465D01*
X128650005Y-90946018D01*
X128650012Y-90946022D01*
X128726439Y-90966501D01*
X128805563Y-90966501D01*
X132494503Y-90966501D01*
X132503188Y-90969051D01*
X132512150Y-90967763D01*
X132536190Y-90978741D01*
X132561542Y-90986186D01*
X132567469Y-90993026D01*
X132575706Y-90996788D01*
X132589995Y-91019022D01*
X132607297Y-91038990D01*
X132609584Y-91049504D01*
X132613480Y-91055566D01*
X132618503Y-91090501D01*
X132618503Y-91241499D01*
X132598818Y-91308538D01*
X132546014Y-91354293D01*
X132494503Y-91365499D01*
X131687439Y-91365499D01*
X131636487Y-91379151D01*
X131611011Y-91385978D01*
X131574229Y-91407215D01*
X131574227Y-91407216D01*
X131542491Y-91425538D01*
X131542488Y-91425540D01*
X130823541Y-92144487D01*
X130823535Y-92144495D01*
X130783982Y-92213004D01*
X130783981Y-92213007D01*
X130783979Y-92213011D01*
X130764423Y-92285993D01*
X130763500Y-92289439D01*
X130763500Y-94566167D01*
X130743815Y-94633206D01*
X130727181Y-94653848D01*
X130226041Y-95154987D01*
X130226037Y-95154992D01*
X130194498Y-95209621D01*
X130143931Y-95257836D01*
X130141573Y-95259021D01*
X130056623Y-95300551D01*
X129971550Y-95385624D01*
X129971548Y-95385627D01*
X129918710Y-95493710D01*
X129918709Y-95493712D01*
X129918709Y-95493714D01*
X129908500Y-95563785D01*
X129908500Y-95563789D01*
X129908500Y-95563790D01*
X129908500Y-95952213D01*
X129912106Y-95976961D01*
X129918709Y-96022286D01*
X129918709Y-96022287D01*
X129918710Y-96022289D01*
X129918710Y-96022291D01*
X129971548Y-96130372D01*
X129971550Y-96130375D01*
X129974856Y-96133681D01*
X130008341Y-96195004D01*
X130003357Y-96264696D01*
X129961485Y-96320629D01*
X129919270Y-96341136D01*
X129854815Y-96358407D01*
X129854814Y-96358407D01*
X129740686Y-96424300D01*
X129740683Y-96424302D01*
X129647502Y-96517483D01*
X129647500Y-96517486D01*
X129581608Y-96631612D01*
X129547500Y-96758908D01*
X129547500Y-96890692D01*
X129548042Y-96892713D01*
X129581608Y-97017987D01*
X129609163Y-97065713D01*
X129647500Y-97132114D01*
X129740686Y-97225300D01*
X129854814Y-97291192D01*
X129982108Y-97325300D01*
X129982110Y-97325300D01*
X130113890Y-97325300D01*
X130113892Y-97325300D01*
X130241186Y-97291192D01*
X130355314Y-97225300D01*
X130448500Y-97132114D01*
X130514392Y-97017986D01*
X130548500Y-96890692D01*
X130548500Y-96758908D01*
X130514392Y-96631614D01*
X130448500Y-96517486D01*
X130421194Y-96490180D01*
X130387709Y-96428857D01*
X130392693Y-96359165D01*
X130434565Y-96303232D01*
X130500029Y-96278815D01*
X130508863Y-96278499D01*
X130698214Y-96278499D01*
X130768286Y-96268291D01*
X130768290Y-96268289D01*
X130768291Y-96268289D01*
X130876372Y-96215451D01*
X130876375Y-96215449D01*
X130961449Y-96130375D01*
X130961451Y-96130372D01*
X130990553Y-96070842D01*
X131014291Y-96022286D01*
X131024500Y-95952215D01*
X131024499Y-95563786D01*
X131014291Y-95493714D01*
X131014289Y-95493709D01*
X131014289Y-95493708D01*
X130962211Y-95387181D01*
X130950451Y-95318308D01*
X130977795Y-95254011D01*
X130985930Y-95245040D01*
X131093699Y-95137271D01*
X131304460Y-94926511D01*
X131344022Y-94857988D01*
X131364500Y-94781562D01*
X131364500Y-94702438D01*
X131364500Y-92504833D01*
X131384185Y-92437794D01*
X131400819Y-92417152D01*
X131815153Y-92002818D01*
X131876476Y-91969333D01*
X131902834Y-91966499D01*
X132494447Y-91966499D01*
X132561486Y-91986184D01*
X132607241Y-92038988D01*
X132618447Y-92090499D01*
X132618447Y-92635726D01*
X132630078Y-92694203D01*
X132630079Y-92694204D01*
X132674394Y-92760526D01*
X132740716Y-92804841D01*
X132740717Y-92804842D01*
X132799194Y-92816473D01*
X132799197Y-92816474D01*
X132799199Y-92816474D01*
X133988809Y-92816474D01*
X133988810Y-92816473D01*
X134003627Y-92813526D01*
X134047288Y-92804842D01*
X134047290Y-92804841D01*
X134123765Y-92753741D01*
X134125548Y-92756410D01*
X134169641Y-92732334D01*
X134195999Y-92729500D01*
X134266325Y-92729500D01*
X134266327Y-92729500D01*
X134368188Y-92702207D01*
X134459513Y-92649480D01*
X134661080Y-92447913D01*
X134713807Y-92356588D01*
X134741100Y-92254727D01*
X134741100Y-92149273D01*
X134741100Y-91971473D01*
X134741100Y-87745655D01*
X134760785Y-87678616D01*
X134777419Y-87657974D01*
X134872608Y-87562785D01*
X134991280Y-87444113D01*
X135001628Y-87426190D01*
X135044007Y-87352787D01*
X135071300Y-87250927D01*
X135071300Y-85440505D01*
X135076927Y-85421340D01*
X135077635Y-85401377D01*
X135086570Y-85388500D01*
X135090985Y-85373466D01*
X135106078Y-85360387D01*
X135117468Y-85343974D01*
X135141456Y-85329732D01*
X135143789Y-85327711D01*
X135147817Y-85325956D01*
X135149332Y-85325328D01*
X135218800Y-85317841D01*
X135281287Y-85349100D01*
X135316589Y-85407782D01*
X135330576Y-85459983D01*
X135330578Y-85459987D01*
X135330579Y-85459989D01*
X135335695Y-85468850D01*
X135340811Y-85477712D01*
X135370137Y-85528507D01*
X135370139Y-85528510D01*
X135370140Y-85528511D01*
X135516140Y-85674511D01*
X135572089Y-85730460D01*
X135572091Y-85730461D01*
X135572095Y-85730464D01*
X135640604Y-85770017D01*
X135640611Y-85770021D01*
X135717038Y-85790500D01*
X135948500Y-85790500D01*
X136015539Y-85810185D01*
X136061294Y-85862989D01*
X136070200Y-85890727D01*
X136072500Y-85902501D01*
X136072500Y-85932853D01*
X136094381Y-86014515D01*
X136095200Y-86018707D01*
X136094856Y-86022400D01*
X136097500Y-86042480D01*
X136097500Y-86526562D01*
X136111152Y-86577513D01*
X136117979Y-86602990D01*
X136117980Y-86602991D01*
X136134215Y-86631112D01*
X136147177Y-86653562D01*
X136157540Y-86671511D01*
X136157542Y-86671513D01*
X136730070Y-87244041D01*
X136763555Y-87305364D01*
X136758571Y-87375056D01*
X136753789Y-87386183D01*
X136701709Y-87492711D01*
X136701709Y-87492714D01*
X136691500Y-87562785D01*
X136691500Y-87562789D01*
X136691500Y-87562790D01*
X136691500Y-87951213D01*
X136694636Y-87972735D01*
X136701709Y-88021286D01*
X136701709Y-88021287D01*
X136701710Y-88021289D01*
X136701710Y-88021291D01*
X136754548Y-88129372D01*
X136754550Y-88129375D01*
X136839624Y-88214449D01*
X136839627Y-88214451D01*
X136922611Y-88255019D01*
X136947714Y-88267291D01*
X137017785Y-88277500D01*
X137394545Y-88277499D01*
X137461584Y-88297183D01*
X137507339Y-88349987D01*
X137517283Y-88419146D01*
X137488258Y-88482701D01*
X137449006Y-88512899D01*
X137333125Y-88569550D01*
X137333124Y-88569550D01*
X137248050Y-88654624D01*
X137248048Y-88654627D01*
X137195210Y-88762710D01*
X137195209Y-88762712D01*
X137195209Y-88762714D01*
X137185000Y-88832785D01*
X137185000Y-88832789D01*
X137185000Y-88832790D01*
X137185000Y-89221213D01*
X137191154Y-89263453D01*
X137195209Y-89291286D01*
X137195209Y-89291287D01*
X137195210Y-89291289D01*
X137195210Y-89291291D01*
X137248048Y-89399372D01*
X137248050Y-89399375D01*
X137333122Y-89484447D01*
X137338153Y-89488039D01*
X137381276Y-89543014D01*
X137387832Y-89612575D01*
X137355740Y-89674638D01*
X137320564Y-89700357D01*
X137295628Y-89712547D01*
X137295624Y-89712550D01*
X137210550Y-89797624D01*
X137210548Y-89797627D01*
X137157710Y-89905710D01*
X137157709Y-89905712D01*
X137157709Y-89905714D01*
X137147500Y-89975785D01*
X137147500Y-89975790D01*
X137147500Y-90110243D01*
X137127815Y-90177282D01*
X137111182Y-90197924D01*
X136991920Y-90317187D01*
X136939191Y-90408514D01*
X136922584Y-90470498D01*
X136911900Y-90510371D01*
X136911900Y-91883145D01*
X136892215Y-91950184D01*
X136875581Y-91970826D01*
X136624026Y-92222381D01*
X136562703Y-92255866D01*
X136536345Y-92258700D01*
X135761073Y-92258700D01*
X135659213Y-92285993D01*
X135659212Y-92285993D01*
X135659210Y-92285994D01*
X135659209Y-92285994D01*
X135591382Y-92325155D01*
X135591381Y-92325156D01*
X135567888Y-92338719D01*
X135567885Y-92338721D01*
X134020122Y-93886484D01*
X134020120Y-93886487D01*
X133967393Y-93977811D01*
X133949700Y-94043845D01*
X133940100Y-94079671D01*
X133940100Y-94079673D01*
X133940100Y-95832273D01*
X133940100Y-95937727D01*
X133950696Y-95977271D01*
X133967393Y-96039589D01*
X133985579Y-96071087D01*
X134020120Y-96130913D01*
X134020122Y-96130915D01*
X134574716Y-96685509D01*
X134608201Y-96746832D01*
X134603217Y-96816524D01*
X134561345Y-96872457D01*
X134527323Y-96888985D01*
X134527579Y-96889603D01*
X134520069Y-96892713D01*
X134431030Y-96944119D01*
X134431025Y-96944123D01*
X134358323Y-97016825D01*
X134358319Y-97016830D01*
X134306913Y-97105869D01*
X134306912Y-97105872D01*
X134280300Y-97205190D01*
X134280300Y-97308010D01*
X134306114Y-97404347D01*
X134306912Y-97407327D01*
X134306914Y-97407332D01*
X134316538Y-97424002D01*
X134333009Y-97491902D01*
X134310156Y-97557929D01*
X134255234Y-97601118D01*
X134209150Y-97610000D01*
X134013247Y-97610000D01*
X133954770Y-97621631D01*
X133954769Y-97621632D01*
X133888447Y-97665947D01*
X133844132Y-97732269D01*
X133844131Y-97732270D01*
X133832500Y-97790747D01*
X133832500Y-98505252D01*
X133844131Y-98563729D01*
X133844132Y-98563730D01*
X133888447Y-98630052D01*
X133954769Y-98674367D01*
X133954770Y-98674368D01*
X134013247Y-98685999D01*
X134013250Y-98686000D01*
X134013252Y-98686000D01*
X134306750Y-98686000D01*
X134306751Y-98685999D01*
X134321485Y-98683068D01*
X134377210Y-98671985D01*
X134377583Y-98673862D01*
X134432014Y-98668010D01*
X134451352Y-98673688D01*
X134513247Y-98685999D01*
X134513250Y-98686000D01*
X134513252Y-98686000D01*
X134806750Y-98686000D01*
X134806751Y-98685999D01*
X134821485Y-98683068D01*
X134877210Y-98671985D01*
X134877583Y-98673862D01*
X134932014Y-98668010D01*
X134951352Y-98673688D01*
X135013247Y-98685999D01*
X135013250Y-98686000D01*
X135013252Y-98686000D01*
X135306750Y-98686000D01*
X135306751Y-98685999D01*
X135321485Y-98683068D01*
X135377210Y-98671985D01*
X135377583Y-98673862D01*
X135432014Y-98668010D01*
X135451352Y-98673688D01*
X135513247Y-98685999D01*
X135513250Y-98686000D01*
X135513252Y-98686000D01*
X135806750Y-98686000D01*
X135806751Y-98685999D01*
X135821568Y-98683052D01*
X135865229Y-98674368D01*
X135865229Y-98674367D01*
X135865231Y-98674367D01*
X135931552Y-98630052D01*
X135975867Y-98563731D01*
X135975867Y-98563729D01*
X135975868Y-98563729D01*
X135987499Y-98505252D01*
X135987500Y-98505250D01*
X135987500Y-97915500D01*
X135990050Y-97906814D01*
X135988762Y-97897853D01*
X135999740Y-97873812D01*
X136007185Y-97848461D01*
X136014025Y-97842533D01*
X136017787Y-97834297D01*
X136040021Y-97820007D01*
X136059989Y-97802706D01*
X136070503Y-97800418D01*
X136076565Y-97796523D01*
X136111500Y-97791500D01*
X136208500Y-97791500D01*
X136275539Y-97811185D01*
X136321294Y-97863989D01*
X136332500Y-97915500D01*
X136332500Y-98505252D01*
X136344131Y-98563729D01*
X136344132Y-98563730D01*
X136388447Y-98630052D01*
X136454769Y-98674367D01*
X136454770Y-98674368D01*
X136513247Y-98685999D01*
X136513250Y-98686000D01*
X136513252Y-98686000D01*
X136806750Y-98686000D01*
X136806751Y-98685999D01*
X136821485Y-98683068D01*
X136877210Y-98671985D01*
X136877583Y-98673862D01*
X136932014Y-98668010D01*
X136951352Y-98673688D01*
X137013247Y-98685999D01*
X137013250Y-98686000D01*
X137013252Y-98686000D01*
X137306750Y-98686000D01*
X137306751Y-98685999D01*
X137321485Y-98683068D01*
X137377210Y-98671985D01*
X137377583Y-98673862D01*
X137432014Y-98668010D01*
X137451352Y-98673688D01*
X137513247Y-98685999D01*
X137513250Y-98686000D01*
X137513252Y-98686000D01*
X137806750Y-98686000D01*
X137806751Y-98685999D01*
X137821485Y-98683068D01*
X137877210Y-98671985D01*
X137877439Y-98673139D01*
X137920042Y-98666447D01*
X137946082Y-98668562D01*
X137954769Y-98674367D01*
X138013252Y-98686000D01*
X138160700Y-98686000D01*
X138165709Y-98686407D01*
X138193823Y-98697204D01*
X138222706Y-98705685D01*
X138226096Y-98709598D01*
X138230934Y-98711456D01*
X138248747Y-98735738D01*
X138268461Y-98758489D01*
X138269198Y-98763615D01*
X138272262Y-98767792D01*
X138274119Y-98797844D01*
X138278405Y-98827647D01*
X138276411Y-98834914D01*
X138276573Y-98837529D01*
X138274846Y-98840620D01*
X138271936Y-98851227D01*
X138259500Y-98913747D01*
X138259500Y-99207252D01*
X138271131Y-99265729D01*
X138271132Y-99265730D01*
X138315447Y-99332052D01*
X138381769Y-99376367D01*
X138381770Y-99376368D01*
X138440247Y-99387999D01*
X138440250Y-99388000D01*
X138440252Y-99388000D01*
X139154750Y-99388000D01*
X139154751Y-99387999D01*
X139169568Y-99385052D01*
X139213229Y-99376368D01*
X139224513Y-99371694D01*
X139226008Y-99375304D01*
X139271640Y-99361020D01*
X139273845Y-99361000D01*
X140475660Y-99361000D01*
X140475662Y-99361000D01*
X140552089Y-99340521D01*
X140620611Y-99300960D01*
X140676560Y-99245011D01*
X141769260Y-98152311D01*
X141785624Y-98123967D01*
X141808821Y-98083789D01*
X141829300Y-98007362D01*
X141829300Y-96182500D01*
X141831850Y-96173814D01*
X141830562Y-96164853D01*
X141841540Y-96140812D01*
X141848985Y-96115461D01*
X141855825Y-96109533D01*
X141859587Y-96101297D01*
X141881821Y-96087007D01*
X141901789Y-96069706D01*
X141912303Y-96067418D01*
X141918365Y-96063523D01*
X141953300Y-96058500D01*
X142085042Y-96058500D01*
X142131370Y-96070842D01*
X142132558Y-96067976D01*
X142140067Y-96071085D01*
X142140072Y-96071088D01*
X142239390Y-96097700D01*
X142239392Y-96097700D01*
X142342208Y-96097700D01*
X142342210Y-96097700D01*
X142441528Y-96071088D01*
X142530573Y-96019678D01*
X142603278Y-95946973D01*
X142654688Y-95857928D01*
X142654689Y-95857922D01*
X142655634Y-95855645D01*
X142656946Y-95854016D01*
X142658752Y-95850889D01*
X142659239Y-95851170D01*
X142699476Y-95801242D01*
X142765771Y-95779179D01*
X142770194Y-95779100D01*
X144921161Y-95779100D01*
X144921162Y-95779100D01*
X144963318Y-95767804D01*
X145033166Y-95769465D01*
X145091029Y-95808627D01*
X145118535Y-95872855D01*
X145118117Y-95905453D01*
X145112069Y-95946969D01*
X145107700Y-95976958D01*
X145107700Y-96469442D01*
X145114699Y-96517483D01*
X145117767Y-96538542D01*
X145169876Y-96645130D01*
X145227765Y-96703019D01*
X145261250Y-96764342D01*
X145256266Y-96834034D01*
X145227765Y-96878381D01*
X145169878Y-96936268D01*
X145169876Y-96936269D01*
X145117767Y-97042857D01*
X145114258Y-97066943D01*
X145107700Y-97111958D01*
X145107700Y-97604442D01*
X145114563Y-97651547D01*
X145117767Y-97673542D01*
X145169876Y-97780130D01*
X145253769Y-97864023D01*
X145360357Y-97916132D01*
X145360358Y-97916132D01*
X145360360Y-97916133D01*
X145429458Y-97926200D01*
X145429464Y-97926200D01*
X145806936Y-97926200D01*
X145806942Y-97926200D01*
X145876040Y-97916133D01*
X145982629Y-97864024D01*
X145982630Y-97864023D01*
X145982632Y-97864022D01*
X146066522Y-97780132D01*
X146066524Y-97780128D01*
X146088873Y-97734414D01*
X146136001Y-97682831D01*
X146203535Y-97664917D01*
X146270033Y-97686358D01*
X146311672Y-97734411D01*
X146338276Y-97788829D01*
X146338277Y-97788830D01*
X146338278Y-97788832D01*
X146422169Y-97872723D01*
X146528757Y-97924832D01*
X146528758Y-97924832D01*
X146528760Y-97924833D01*
X146597858Y-97934900D01*
X146597864Y-97934900D01*
X146974900Y-97934900D01*
X147041939Y-97954585D01*
X147087694Y-98007389D01*
X147097206Y-98051115D01*
X147097839Y-98051032D01*
X147098836Y-98058608D01*
X147098900Y-98058900D01*
X147098900Y-98059092D01*
X147105518Y-98083791D01*
X147133008Y-98186387D01*
X147147240Y-98211037D01*
X147198900Y-98300514D01*
X147292086Y-98393700D01*
X147363121Y-98434712D01*
X147403437Y-98457989D01*
X147406214Y-98459592D01*
X147533508Y-98493700D01*
X147533510Y-98493700D01*
X147665290Y-98493700D01*
X147665292Y-98493700D01*
X147792586Y-98459592D01*
X147906714Y-98393700D01*
X147999900Y-98300514D01*
X148065792Y-98186386D01*
X148099900Y-98059092D01*
X148099900Y-97927308D01*
X148065792Y-97800014D01*
X148063776Y-97796523D01*
X148051356Y-97775011D01*
X147999900Y-97685886D01*
X147906714Y-97592700D01*
X147906228Y-97592419D01*
X147899243Y-97588386D01*
X147851028Y-97537819D01*
X147837806Y-97469212D01*
X147863774Y-97404347D01*
X147920689Y-97363819D01*
X147961244Y-97357000D01*
X148973750Y-97357000D01*
X148973751Y-97356999D01*
X148988568Y-97354052D01*
X149032229Y-97345368D01*
X149032229Y-97345367D01*
X149032231Y-97345367D01*
X149098552Y-97301052D01*
X149142867Y-97234731D01*
X149142867Y-97234729D01*
X149142868Y-97234729D01*
X149151552Y-97191068D01*
X149154500Y-97176248D01*
X149154500Y-95736752D01*
X149154500Y-95736749D01*
X149154499Y-95736747D01*
X149142868Y-95678270D01*
X149142867Y-95678269D01*
X149098552Y-95611947D01*
X149032230Y-95567632D01*
X149032229Y-95567631D01*
X148973752Y-95556000D01*
X148973748Y-95556000D01*
X148853500Y-95556000D01*
X148786461Y-95536315D01*
X148740706Y-95483511D01*
X148729500Y-95432000D01*
X148729500Y-93881000D01*
X148749185Y-93813961D01*
X148801989Y-93768206D01*
X148853500Y-93757000D01*
X148973750Y-93757000D01*
X148973751Y-93756999D01*
X148988568Y-93754052D01*
X149032229Y-93745368D01*
X149032229Y-93745367D01*
X149032231Y-93745367D01*
X149098552Y-93701052D01*
X149142867Y-93634731D01*
X149142867Y-93634729D01*
X149142868Y-93634729D01*
X149154499Y-93576252D01*
X149154500Y-93576250D01*
X149154500Y-92136749D01*
X149154499Y-92136747D01*
X149142868Y-92078270D01*
X149142867Y-92078269D01*
X149098552Y-92011947D01*
X149032230Y-91967632D01*
X149032229Y-91967631D01*
X148973752Y-91956000D01*
X148973748Y-91956000D01*
X148853500Y-91956000D01*
X148844814Y-91953449D01*
X148835853Y-91954738D01*
X148811812Y-91943759D01*
X148786461Y-91936315D01*
X148780533Y-91929474D01*
X148772297Y-91925713D01*
X148758007Y-91903478D01*
X148740706Y-91883511D01*
X148738418Y-91872996D01*
X148734523Y-91866935D01*
X148729500Y-91832000D01*
X148729500Y-91819933D01*
X148733725Y-91787840D01*
X148737682Y-91773072D01*
X148751900Y-91720010D01*
X148751900Y-91617190D01*
X148725288Y-91517872D01*
X148684659Y-91447500D01*
X148673880Y-91428830D01*
X148673876Y-91428825D01*
X148601174Y-91356123D01*
X148601169Y-91356119D01*
X148512130Y-91304713D01*
X148512129Y-91304712D01*
X148512128Y-91304712D01*
X148412810Y-91278100D01*
X148309990Y-91278100D01*
X148210672Y-91304712D01*
X148210669Y-91304713D01*
X148121630Y-91356119D01*
X148121625Y-91356123D01*
X148048923Y-91428825D01*
X148048919Y-91428830D01*
X147997513Y-91517869D01*
X147997512Y-91517872D01*
X147970900Y-91617190D01*
X147970900Y-91720010D01*
X147984097Y-91769263D01*
X147992453Y-91800446D01*
X147990790Y-91870296D01*
X147951627Y-91928158D01*
X147890160Y-91954479D01*
X147890226Y-91954811D01*
X147888657Y-91955122D01*
X147887399Y-91955662D01*
X147884845Y-91955941D01*
X147884250Y-91955999D01*
X147825770Y-91967631D01*
X147825769Y-91967632D01*
X147759447Y-92011947D01*
X147715132Y-92078269D01*
X147710458Y-92089554D01*
X147709204Y-92089034D01*
X147682929Y-92139267D01*
X147622213Y-92173841D01*
X147552444Y-92170101D01*
X147506016Y-92140845D01*
X147275912Y-91910741D01*
X147275911Y-91910740D01*
X147256463Y-91899512D01*
X147256463Y-91899510D01*
X147256460Y-91899510D01*
X147207394Y-91871181D01*
X147207391Y-91871179D01*
X147169175Y-91860939D01*
X147130962Y-91850700D01*
X144232438Y-91850700D01*
X144201867Y-91858891D01*
X144156008Y-91871179D01*
X144156007Y-91871180D01*
X144106938Y-91899511D01*
X144106937Y-91899512D01*
X144087490Y-91910739D01*
X144087487Y-91910741D01*
X143701341Y-92296887D01*
X143701335Y-92296895D01*
X143661782Y-92365404D01*
X143661779Y-92365409D01*
X143648126Y-92416362D01*
X143642482Y-92437429D01*
X143641300Y-92441839D01*
X143641300Y-92829196D01*
X143638918Y-92853384D01*
X143637211Y-92861963D01*
X143636619Y-92862990D01*
X143614300Y-92946284D01*
X143614300Y-92977161D01*
X143611918Y-92989138D01*
X143601156Y-93009712D01*
X143594615Y-93031989D01*
X143585267Y-93040088D01*
X143579534Y-93051050D01*
X143559356Y-93062540D01*
X143541811Y-93077744D01*
X143527002Y-93080965D01*
X143518819Y-93085626D01*
X143508195Y-93085056D01*
X143490300Y-93088950D01*
X143197388Y-93088950D01*
X143159174Y-93099189D01*
X143120959Y-93109429D01*
X143120958Y-93109430D01*
X143088814Y-93127988D01*
X143088809Y-93127991D01*
X143081186Y-93132393D01*
X143052439Y-93148990D01*
X143017360Y-93184068D01*
X143011499Y-93188669D01*
X142992182Y-93196380D01*
X142967036Y-93210899D01*
X142876670Y-93235112D01*
X142876669Y-93235113D01*
X142787630Y-93286519D01*
X142787625Y-93286523D01*
X142714923Y-93359225D01*
X142714919Y-93359230D01*
X142663513Y-93448269D01*
X142663512Y-93448272D01*
X142636900Y-93547590D01*
X142636900Y-93650410D01*
X142659018Y-93732959D01*
X142657356Y-93802806D01*
X142618194Y-93860669D01*
X142553965Y-93888173D01*
X142539244Y-93889050D01*
X141940088Y-93889050D01*
X141863660Y-93909528D01*
X141795139Y-93949090D01*
X141795136Y-93949092D01*
X140805648Y-94938581D01*
X140744325Y-94972066D01*
X140717967Y-94974900D01*
X139231745Y-94974900D01*
X139169745Y-94958287D01*
X139088730Y-94911513D01*
X139088729Y-94911512D01*
X139088728Y-94911512D01*
X138989410Y-94884900D01*
X138886590Y-94884900D01*
X138787272Y-94911512D01*
X138787269Y-94911513D01*
X138698230Y-94962919D01*
X138698225Y-94962923D01*
X138625523Y-95035625D01*
X138625519Y-95035630D01*
X138574113Y-95124669D01*
X138574112Y-95124672D01*
X138547500Y-95223990D01*
X138547500Y-95326810D01*
X138569812Y-95410078D01*
X138574112Y-95426127D01*
X138574113Y-95426130D01*
X138625519Y-95515169D01*
X138625521Y-95515172D01*
X138625522Y-95515173D01*
X138698227Y-95587878D01*
X138698228Y-95587879D01*
X138698230Y-95587880D01*
X138739916Y-95611947D01*
X138787272Y-95639288D01*
X138886590Y-95665900D01*
X138886592Y-95665900D01*
X138989408Y-95665900D01*
X138989410Y-95665900D01*
X139088728Y-95639288D01*
X139169745Y-95592513D01*
X139231745Y-95575900D01*
X139491184Y-95575900D01*
X139558223Y-95595585D01*
X139603978Y-95648389D01*
X139613922Y-95717547D01*
X139584897Y-95781103D01*
X139578865Y-95787581D01*
X139556478Y-95809968D01*
X139556476Y-95809969D01*
X139504367Y-95916557D01*
X139501854Y-95933811D01*
X139494300Y-95985658D01*
X139494300Y-96478142D01*
X139497985Y-96503432D01*
X139504367Y-96547242D01*
X139556476Y-96653830D01*
X139640369Y-96737723D01*
X139746957Y-96789832D01*
X139746958Y-96789832D01*
X139746960Y-96789833D01*
X139816058Y-96799900D01*
X139816064Y-96799900D01*
X140193536Y-96799900D01*
X140193542Y-96799900D01*
X140262640Y-96789833D01*
X140369229Y-96737724D01*
X140369230Y-96737723D01*
X140369232Y-96737722D01*
X140432419Y-96674535D01*
X140493742Y-96641050D01*
X140563434Y-96646034D01*
X140619367Y-96687906D01*
X140643784Y-96753370D01*
X140644100Y-96762216D01*
X140644100Y-97723500D01*
X140624415Y-97790539D01*
X140571611Y-97836294D01*
X140520100Y-97847500D01*
X139100552Y-97847500D01*
X139033513Y-97827815D01*
X138987758Y-97775011D01*
X138978934Y-97747690D01*
X138975867Y-97732269D01*
X138945190Y-97686358D01*
X138931552Y-97665947D01*
X138865230Y-97621632D01*
X138865229Y-97621631D01*
X138806752Y-97610000D01*
X138806748Y-97610000D01*
X138513252Y-97610000D01*
X138513247Y-97610000D01*
X138442790Y-97624015D01*
X138442416Y-97622137D01*
X138387986Y-97627990D01*
X138368647Y-97622311D01*
X138306752Y-97610000D01*
X138306748Y-97610000D01*
X138013252Y-97610000D01*
X138013247Y-97610000D01*
X137942790Y-97624015D01*
X137942553Y-97622825D01*
X137899392Y-97629505D01*
X137873712Y-97627299D01*
X137865231Y-97621633D01*
X137806748Y-97610000D01*
X137672238Y-97610000D01*
X137666939Y-97609545D01*
X137639133Y-97598720D01*
X137610508Y-97590315D01*
X137606927Y-97586182D01*
X137601829Y-97584198D01*
X137584285Y-97560052D01*
X137564753Y-97537511D01*
X137563974Y-97532098D01*
X137560759Y-97527673D01*
X137559055Y-97497883D01*
X137554809Y-97468353D01*
X137556808Y-97458605D01*
X137556769Y-97457917D01*
X137557052Y-97457415D01*
X137557772Y-97453907D01*
X137560500Y-97443727D01*
X137560500Y-97338273D01*
X137533207Y-97236413D01*
X137511028Y-97197999D01*
X137494555Y-97130100D01*
X137511028Y-97074001D01*
X137523888Y-97051728D01*
X137550500Y-96952410D01*
X137550500Y-96849590D01*
X137523888Y-96750272D01*
X137523883Y-96750264D01*
X137522130Y-96746030D01*
X137514661Y-96676561D01*
X137545935Y-96614081D01*
X137573712Y-96593491D01*
X137573570Y-96593292D01*
X137581932Y-96587322D01*
X137665822Y-96503432D01*
X137665823Y-96503430D01*
X137665824Y-96503429D01*
X137717933Y-96396840D01*
X137728000Y-96327742D01*
X137728000Y-95950258D01*
X137717933Y-95881160D01*
X137706575Y-95857928D01*
X137665823Y-95774569D01*
X137581930Y-95690676D01*
X137557841Y-95678900D01*
X137506259Y-95631772D01*
X137488345Y-95564238D01*
X137509786Y-95497739D01*
X137557841Y-95456100D01*
X137581929Y-95444324D01*
X137581930Y-95444323D01*
X137581932Y-95444322D01*
X137665822Y-95360432D01*
X137665823Y-95360430D01*
X137665824Y-95360429D01*
X137717933Y-95253840D01*
X137728000Y-95184742D01*
X137728000Y-94807258D01*
X137717933Y-94738160D01*
X137715758Y-94733712D01*
X137665823Y-94631569D01*
X137612219Y-94577965D01*
X137601257Y-94557891D01*
X137586489Y-94540423D01*
X137583190Y-94524802D01*
X137578734Y-94516642D01*
X137576957Y-94506440D01*
X137575900Y-94498396D01*
X137575900Y-94401590D01*
X137550934Y-94308418D01*
X137549875Y-94300353D01*
X137554060Y-94273555D01*
X137554706Y-94246441D01*
X137559531Y-94238523D01*
X137560657Y-94231320D01*
X137571070Y-94219593D01*
X137585135Y-94196517D01*
X137665824Y-94115829D01*
X137717933Y-94009240D01*
X137728000Y-93940142D01*
X137728000Y-93562658D01*
X137717933Y-93493560D01*
X137712496Y-93482439D01*
X137690156Y-93436742D01*
X137665824Y-93386971D01*
X137588474Y-93309621D01*
X137554991Y-93248301D01*
X137556381Y-93189853D01*
X137575900Y-93117010D01*
X137575900Y-93014190D01*
X137549288Y-92914872D01*
X137497878Y-92825827D01*
X137425173Y-92753122D01*
X137425172Y-92753121D01*
X137424687Y-92752749D01*
X137424381Y-92752330D01*
X137419426Y-92747375D01*
X137420198Y-92746602D01*
X137414602Y-92738936D01*
X137400910Y-92728687D01*
X137394425Y-92711302D01*
X137383486Y-92696319D01*
X137382469Y-92679247D01*
X137376493Y-92663223D01*
X137380436Y-92645094D01*
X137379334Y-92626573D01*
X137387785Y-92611312D01*
X137391345Y-92594950D01*
X137412490Y-92566701D01*
X137548106Y-92431084D01*
X137548111Y-92431081D01*
X137558311Y-92420880D01*
X137558313Y-92420880D01*
X137632880Y-92346313D01*
X137685607Y-92254987D01*
X137696854Y-92213012D01*
X137712901Y-92153127D01*
X137712901Y-92047673D01*
X137712900Y-92047669D01*
X137712900Y-90814499D01*
X137732585Y-90747460D01*
X137785389Y-90701705D01*
X137836900Y-90690499D01*
X137937214Y-90690499D01*
X138007286Y-90680291D01*
X138007290Y-90680289D01*
X138007291Y-90680289D01*
X138115372Y-90627451D01*
X138115375Y-90627449D01*
X138200447Y-90542377D01*
X138200449Y-90542375D01*
X138200450Y-90542372D01*
X138202083Y-90540087D01*
X138205120Y-90537704D01*
X138207715Y-90535110D01*
X138208028Y-90535423D01*
X138257058Y-90496966D01*
X138326620Y-90490411D01*
X138388682Y-90522505D01*
X138403917Y-90540087D01*
X138405552Y-90542377D01*
X138490624Y-90627449D01*
X138490627Y-90627451D01*
X138594201Y-90678084D01*
X138598714Y-90680291D01*
X138668785Y-90690500D01*
X139132214Y-90690499D01*
X139202286Y-90680291D01*
X139309437Y-90627907D01*
X139378306Y-90616148D01*
X139442604Y-90643491D01*
X139451576Y-90651627D01*
X139485627Y-90685678D01*
X139485628Y-90685679D01*
X139485630Y-90685680D01*
X139513425Y-90701727D01*
X139574672Y-90737088D01*
X139673990Y-90763700D01*
X139673992Y-90763700D01*
X139776808Y-90763700D01*
X139776810Y-90763700D01*
X139876128Y-90737088D01*
X139876136Y-90737083D01*
X139877731Y-90736423D01*
X139878164Y-90736001D01*
X139879330Y-90735761D01*
X139883638Y-90733977D01*
X139883981Y-90734805D01*
X139910324Y-90729389D01*
X139942223Y-90721647D01*
X139944372Y-90722390D01*
X139946603Y-90721932D01*
X139977243Y-90733762D01*
X140008253Y-90744490D01*
X140010322Y-90746534D01*
X140011783Y-90747098D01*
X140017555Y-90753676D01*
X140036452Y-90772340D01*
X140040392Y-90777732D01*
X140047922Y-90790773D01*
X140055359Y-90798210D01*
X140061013Y-90805946D01*
X140069731Y-90830165D01*
X140082066Y-90852755D01*
X140083856Y-90869406D01*
X140084677Y-90871686D01*
X140084285Y-90873393D01*
X140084900Y-90879113D01*
X140084900Y-91249122D01*
X140065215Y-91316161D01*
X140048581Y-91336803D01*
X139162941Y-92222443D01*
X138959742Y-92425643D01*
X138882244Y-92503140D01*
X138882243Y-92503141D01*
X138882243Y-92503142D01*
X138874712Y-92521323D01*
X138840300Y-92604399D01*
X138840300Y-93347087D01*
X138820615Y-93414126D01*
X138803981Y-93434768D01*
X138803323Y-93435425D01*
X138803319Y-93435430D01*
X138751913Y-93524469D01*
X138751912Y-93524472D01*
X138725300Y-93623790D01*
X138725300Y-93726610D01*
X138751420Y-93824089D01*
X138751912Y-93825927D01*
X138751913Y-93825930D01*
X138803319Y-93914969D01*
X138803321Y-93914972D01*
X138803322Y-93914973D01*
X138876027Y-93987678D01*
X138965072Y-94039088D01*
X139064390Y-94065700D01*
X139064392Y-94065700D01*
X139167208Y-94065700D01*
X139167210Y-94065700D01*
X139266528Y-94039088D01*
X139355573Y-93987678D01*
X139428278Y-93914973D01*
X139443751Y-93888173D01*
X139452913Y-93872305D01*
X139503479Y-93824089D01*
X139572086Y-93810865D01*
X139636951Y-93836833D01*
X139667687Y-93872305D01*
X139692317Y-93914966D01*
X139692321Y-93914971D01*
X139692322Y-93914973D01*
X139765027Y-93987678D01*
X139854072Y-94039088D01*
X139953390Y-94065700D01*
X139953392Y-94065700D01*
X140056208Y-94065700D01*
X140056210Y-94065700D01*
X140155528Y-94039088D01*
X140244573Y-93987678D01*
X140317278Y-93914973D01*
X140368688Y-93825928D01*
X140395300Y-93726610D01*
X140395300Y-93623790D01*
X140368688Y-93524472D01*
X140324694Y-93448272D01*
X140317280Y-93435430D01*
X140317276Y-93435425D01*
X140244574Y-93362723D01*
X140244569Y-93362719D01*
X140155530Y-93311313D01*
X140155529Y-93311312D01*
X140155528Y-93311312D01*
X140056210Y-93284700D01*
X139953390Y-93284700D01*
X139854072Y-93311312D01*
X139854069Y-93311313D01*
X139765030Y-93362719D01*
X139765025Y-93362723D01*
X139692323Y-93435425D01*
X139692319Y-93435430D01*
X139667687Y-93478095D01*
X139665783Y-93479910D01*
X139665059Y-93482439D01*
X139640647Y-93503877D01*
X139617120Y-93526311D01*
X139614535Y-93526809D01*
X139612560Y-93528544D01*
X139580420Y-93533383D01*
X139548513Y-93539533D01*
X139546072Y-93538556D01*
X139543470Y-93538948D01*
X139513803Y-93525637D01*
X139483648Y-93513565D01*
X139481384Y-93511092D01*
X139479722Y-93510346D01*
X139470011Y-93498663D01*
X139456433Y-93483827D01*
X139454589Y-93480999D01*
X139428278Y-93435427D01*
X139418486Y-93425635D01*
X139411433Y-93414819D01*
X139404937Y-93393230D01*
X139394134Y-93373445D01*
X139391436Y-93348355D01*
X139391303Y-93347912D01*
X139391365Y-93347694D01*
X139391300Y-93347087D01*
X139391300Y-92824678D01*
X139410985Y-92757639D01*
X139427619Y-92736996D01*
X139470412Y-92694203D01*
X139552557Y-92612059D01*
X139552557Y-92612058D01*
X139569995Y-92594620D01*
X139569997Y-92594616D01*
X140404914Y-91759700D01*
X140466236Y-91726216D01*
X140535928Y-91731200D01*
X140591861Y-91773072D01*
X140613687Y-91831591D01*
X140615533Y-91831349D01*
X140616594Y-91839408D01*
X140616594Y-91839409D01*
X140642076Y-91934507D01*
X140643206Y-91938726D01*
X140643207Y-91938729D01*
X140694613Y-92027768D01*
X140694615Y-92027771D01*
X140694616Y-92027772D01*
X140767321Y-92100477D01*
X140856366Y-92151887D01*
X140955684Y-92178499D01*
X140955686Y-92178499D01*
X141058502Y-92178499D01*
X141058504Y-92178499D01*
X141157822Y-92151887D01*
X141246867Y-92100477D01*
X141246871Y-92100472D01*
X141252276Y-92096326D01*
X141317444Y-92071130D01*
X141327765Y-92070700D01*
X141339760Y-92070700D01*
X141339762Y-92070700D01*
X141416189Y-92050221D01*
X141484711Y-92010660D01*
X141517819Y-91977552D01*
X141579142Y-91944067D01*
X141648834Y-91949051D01*
X141704767Y-91990923D01*
X141729184Y-92056387D01*
X141729500Y-92065233D01*
X141729500Y-92261742D01*
X141737050Y-92313565D01*
X141739567Y-92330842D01*
X141791676Y-92437430D01*
X141875569Y-92521323D01*
X141982157Y-92573432D01*
X141982158Y-92573432D01*
X141982160Y-92573433D01*
X142051258Y-92583500D01*
X142051264Y-92583500D01*
X142428736Y-92583500D01*
X142428742Y-92583500D01*
X142497840Y-92573433D01*
X142604429Y-92521324D01*
X142604430Y-92521323D01*
X142604432Y-92521322D01*
X142688322Y-92437432D01*
X142688323Y-92437430D01*
X142688324Y-92437429D01*
X142740433Y-92330840D01*
X142750500Y-92261742D01*
X142750500Y-91769258D01*
X142740433Y-91700160D01*
X142728100Y-91674932D01*
X142725303Y-91662844D01*
X142720523Y-91655406D01*
X142715500Y-91620471D01*
X142715500Y-91407500D01*
X142735185Y-91340461D01*
X142787989Y-91294706D01*
X142839500Y-91283500D01*
X143039322Y-91283500D01*
X143073485Y-91276704D01*
X143107650Y-91269908D01*
X143107653Y-91269905D01*
X143117543Y-91265810D01*
X143187012Y-91258338D01*
X143212457Y-91265810D01*
X143222348Y-91269906D01*
X143222350Y-91269908D01*
X143239432Y-91273306D01*
X143290677Y-91283500D01*
X143290680Y-91283500D01*
X143539322Y-91283500D01*
X143573485Y-91276704D01*
X143607650Y-91269908D01*
X143607653Y-91269905D01*
X143617543Y-91265810D01*
X143687012Y-91258338D01*
X143712457Y-91265810D01*
X143722348Y-91269906D01*
X143722350Y-91269908D01*
X143739432Y-91273306D01*
X143790677Y-91283500D01*
X143790680Y-91283500D01*
X144039322Y-91283500D01*
X144073485Y-91276704D01*
X144107650Y-91269908D01*
X144107653Y-91269905D01*
X144117543Y-91265810D01*
X144187012Y-91258338D01*
X144212457Y-91265810D01*
X144222348Y-91269906D01*
X144222350Y-91269908D01*
X144239432Y-91273306D01*
X144290677Y-91283500D01*
X144290680Y-91283500D01*
X144539322Y-91283500D01*
X144573485Y-91276704D01*
X144607650Y-91269908D01*
X144607653Y-91269905D01*
X144617543Y-91265810D01*
X144687012Y-91258338D01*
X144712457Y-91265810D01*
X144722348Y-91269906D01*
X144722350Y-91269908D01*
X144739432Y-91273306D01*
X144790677Y-91283500D01*
X144790680Y-91283500D01*
X145039322Y-91283500D01*
X145073485Y-91276704D01*
X145107650Y-91269908D01*
X145107653Y-91269905D01*
X145117543Y-91265810D01*
X145187012Y-91258338D01*
X145212457Y-91265810D01*
X145222348Y-91269906D01*
X145222350Y-91269908D01*
X145239432Y-91273306D01*
X145290677Y-91283500D01*
X145290680Y-91283500D01*
X145539322Y-91283500D01*
X145607650Y-91269908D01*
X145614500Y-91265331D01*
X145685135Y-91218135D01*
X145736908Y-91140650D01*
X145744547Y-91102247D01*
X145750500Y-91072322D01*
X145750500Y-90442500D01*
X145770185Y-90375461D01*
X145822989Y-90329706D01*
X145874500Y-90318500D01*
X146504321Y-90318500D01*
X146524728Y-90314440D01*
X146551841Y-90309047D01*
X146621433Y-90315274D01*
X146674409Y-90355176D01*
X146677320Y-90358970D01*
X146677322Y-90358973D01*
X146750027Y-90431678D01*
X146839072Y-90483088D01*
X146938390Y-90509700D01*
X146938392Y-90509700D01*
X147041208Y-90509700D01*
X147041210Y-90509700D01*
X147140528Y-90483088D01*
X147229573Y-90431678D01*
X147302278Y-90358973D01*
X147353688Y-90269928D01*
X147380300Y-90170610D01*
X147380300Y-90085255D01*
X147399985Y-90018216D01*
X147452789Y-89972461D01*
X147521947Y-89962517D01*
X147535241Y-89965507D01*
X147538157Y-89965931D01*
X147538160Y-89965933D01*
X147607258Y-89976000D01*
X147607264Y-89976000D01*
X147984736Y-89976000D01*
X147984742Y-89976000D01*
X148053840Y-89965933D01*
X148160429Y-89913824D01*
X148160430Y-89913823D01*
X148160432Y-89913822D01*
X148244322Y-89829932D01*
X148244323Y-89829930D01*
X148244324Y-89829929D01*
X148296433Y-89723340D01*
X148306500Y-89654242D01*
X148306500Y-89238095D01*
X148315144Y-89208654D01*
X148321668Y-89178668D01*
X148325422Y-89173652D01*
X148326185Y-89171056D01*
X148342819Y-89150414D01*
X148450914Y-89042319D01*
X148512237Y-89008834D01*
X148538595Y-89006000D01*
X149906167Y-89006000D01*
X149973206Y-89025685D01*
X149993848Y-89042319D01*
X150206181Y-89254652D01*
X150239666Y-89315975D01*
X150242500Y-89342333D01*
X150242500Y-90464752D01*
X150254131Y-90523229D01*
X150254132Y-90523230D01*
X150298447Y-90589552D01*
X150364769Y-90633867D01*
X150364770Y-90633868D01*
X150423247Y-90645499D01*
X150423250Y-90645500D01*
X150423252Y-90645500D01*
X151562750Y-90645500D01*
X151562751Y-90645499D01*
X151577568Y-90642552D01*
X151621229Y-90633868D01*
X151621229Y-90633867D01*
X151621231Y-90633867D01*
X151687552Y-90589552D01*
X151731867Y-90523231D01*
X151731867Y-90523229D01*
X151731868Y-90523229D01*
X151743499Y-90464752D01*
X151743500Y-90464750D01*
X151743500Y-89125249D01*
X151743499Y-89125247D01*
X151731868Y-89066770D01*
X151731867Y-89066769D01*
X151687552Y-89000447D01*
X151621230Y-88956132D01*
X151621229Y-88956131D01*
X151562752Y-88944500D01*
X151562748Y-88944500D01*
X150797333Y-88944500D01*
X150730294Y-88924815D01*
X150709652Y-88908181D01*
X150266512Y-88465041D01*
X150266507Y-88465037D01*
X150247957Y-88454327D01*
X150247955Y-88454327D01*
X150220020Y-88438198D01*
X150197990Y-88425479D01*
X150171141Y-88418285D01*
X150121562Y-88405000D01*
X150121560Y-88405000D01*
X150042155Y-88405000D01*
X149975116Y-88385315D01*
X149929361Y-88332511D01*
X149919417Y-88263353D01*
X149927595Y-88233545D01*
X149931868Y-88223229D01*
X149943499Y-88164752D01*
X149943500Y-88164750D01*
X149943500Y-86825249D01*
X149943499Y-86825247D01*
X149931868Y-86766770D01*
X149931867Y-86766769D01*
X149887552Y-86700447D01*
X149821230Y-86656132D01*
X149821229Y-86656131D01*
X149762752Y-86644500D01*
X149762748Y-86644500D01*
X148623252Y-86644500D01*
X148623247Y-86644500D01*
X148564770Y-86656131D01*
X148564769Y-86656132D01*
X148498447Y-86700447D01*
X148454132Y-86766769D01*
X148454131Y-86766770D01*
X148442500Y-86825247D01*
X148442500Y-87733884D01*
X148422815Y-87800923D01*
X148370011Y-87846678D01*
X148300853Y-87856622D01*
X148237297Y-87827597D01*
X148230819Y-87821565D01*
X148160430Y-87751176D01*
X148053842Y-87699067D01*
X148036565Y-87696550D01*
X147984742Y-87689000D01*
X147984736Y-87689000D01*
X147677533Y-87689000D01*
X147610494Y-87669315D01*
X147589852Y-87652681D01*
X147173964Y-87236793D01*
X147176006Y-87234750D01*
X147143019Y-87189576D01*
X147138862Y-87119830D01*
X147172025Y-87059945D01*
X147204860Y-87027111D01*
X147244422Y-86958588D01*
X147264496Y-86883666D01*
X147276883Y-86853764D01*
X147283019Y-86843136D01*
X147328288Y-86764728D01*
X147354900Y-86665410D01*
X147354900Y-86562590D01*
X147328288Y-86463272D01*
X147276878Y-86374227D01*
X147204173Y-86301522D01*
X147204172Y-86301521D01*
X147204169Y-86301519D01*
X147115130Y-86250113D01*
X147115129Y-86250112D01*
X147115128Y-86250112D01*
X147015810Y-86223500D01*
X147015809Y-86223500D01*
X147007750Y-86222439D01*
X147007969Y-86220770D01*
X146956158Y-86206887D01*
X146949391Y-86202980D01*
X146949390Y-86202979D01*
X146923913Y-86196152D01*
X146872962Y-86182500D01*
X146872960Y-86182500D01*
X146642305Y-86182500D01*
X146584080Y-86165403D01*
X146583931Y-86165765D01*
X146580567Y-86164371D01*
X146575266Y-86162815D01*
X146573418Y-86161604D01*
X146572654Y-86161094D01*
X146572646Y-86161090D01*
X146504322Y-86147500D01*
X146504320Y-86147500D01*
X145874500Y-86147500D01*
X145807461Y-86127815D01*
X145761706Y-86075011D01*
X145750500Y-86023500D01*
X145750500Y-85393677D01*
X145736909Y-85325353D01*
X145736908Y-85325351D01*
X145736908Y-85325350D01*
X145736905Y-85325345D01*
X145736396Y-85324582D01*
X145735796Y-85322666D01*
X145732235Y-85314069D01*
X145733004Y-85313750D01*
X145715520Y-85257904D01*
X145715500Y-85255695D01*
X145715500Y-84149590D01*
X146497700Y-84149590D01*
X146497700Y-84252410D01*
X146522703Y-84345722D01*
X146524312Y-84351727D01*
X146524313Y-84351730D01*
X146575719Y-84440769D01*
X146575721Y-84440772D01*
X146575722Y-84440773D01*
X146648427Y-84513478D01*
X146648428Y-84513479D01*
X146648430Y-84513480D01*
X146667677Y-84524592D01*
X146737472Y-84564888D01*
X146836790Y-84591500D01*
X146836792Y-84591500D01*
X146939608Y-84591500D01*
X146939610Y-84591500D01*
X147038928Y-84564888D01*
X147127973Y-84513478D01*
X147128632Y-84512819D01*
X147129323Y-84512441D01*
X147134418Y-84508532D01*
X147135027Y-84509326D01*
X147155559Y-84498115D01*
X147181378Y-84481523D01*
X147187578Y-84480631D01*
X147189955Y-84479334D01*
X147216313Y-84476500D01*
X147325500Y-84476500D01*
X147392539Y-84496185D01*
X147438294Y-84548989D01*
X147449500Y-84600500D01*
X147449500Y-85873252D01*
X147461131Y-85931729D01*
X147461132Y-85931730D01*
X147505447Y-85998052D01*
X147571769Y-86042367D01*
X147571770Y-86042368D01*
X147630247Y-86053999D01*
X147630250Y-86054000D01*
X147630252Y-86054000D01*
X148719750Y-86054000D01*
X148719751Y-86053999D01*
X148734568Y-86051052D01*
X148778229Y-86042368D01*
X148778229Y-86042367D01*
X148778231Y-86042367D01*
X148844552Y-85998052D01*
X148888867Y-85931731D01*
X148888867Y-85931729D01*
X148888868Y-85931729D01*
X148900499Y-85873252D01*
X148900500Y-85873250D01*
X148900500Y-84433749D01*
X148900499Y-84433747D01*
X148888868Y-84375270D01*
X148888867Y-84375269D01*
X148844552Y-84308947D01*
X148778230Y-84264632D01*
X148778229Y-84264631D01*
X148719752Y-84253000D01*
X148719748Y-84253000D01*
X148599500Y-84253000D01*
X148532461Y-84233315D01*
X148486706Y-84180511D01*
X148475500Y-84129000D01*
X148475500Y-82578000D01*
X148495185Y-82510961D01*
X148547989Y-82465206D01*
X148599500Y-82454000D01*
X148719750Y-82454000D01*
X148719751Y-82453999D01*
X148734568Y-82451052D01*
X148778229Y-82442368D01*
X148778229Y-82442367D01*
X148778231Y-82442367D01*
X148844552Y-82398052D01*
X148888867Y-82331731D01*
X148888867Y-82331729D01*
X148888868Y-82331729D01*
X148900499Y-82273252D01*
X148900500Y-82273250D01*
X148900500Y-80833749D01*
X148900499Y-80833747D01*
X148888868Y-80775270D01*
X148888867Y-80775269D01*
X148844552Y-80708947D01*
X148778230Y-80664632D01*
X148778229Y-80664631D01*
X148719752Y-80653000D01*
X148719748Y-80653000D01*
X147630252Y-80653000D01*
X147630247Y-80653000D01*
X147571770Y-80664631D01*
X147571769Y-80664632D01*
X147505447Y-80708947D01*
X147461132Y-80775269D01*
X147461131Y-80775270D01*
X147449500Y-80833747D01*
X147449500Y-82273252D01*
X147461131Y-82331729D01*
X147461132Y-82331730D01*
X147505447Y-82398052D01*
X147571769Y-82442367D01*
X147571770Y-82442368D01*
X147630247Y-82453999D01*
X147630250Y-82454000D01*
X147630252Y-82454000D01*
X147750500Y-82454000D01*
X147817539Y-82473685D01*
X147863294Y-82526489D01*
X147874500Y-82578000D01*
X147874500Y-83801500D01*
X147854815Y-83868539D01*
X147802011Y-83914294D01*
X147750500Y-83925500D01*
X147216313Y-83925500D01*
X147149274Y-83905815D01*
X147128632Y-83889181D01*
X147127974Y-83888523D01*
X147127969Y-83888519D01*
X147038930Y-83837113D01*
X147038929Y-83837112D01*
X147038928Y-83837112D01*
X146939610Y-83810500D01*
X146836790Y-83810500D01*
X146737472Y-83837112D01*
X146737469Y-83837113D01*
X146648430Y-83888519D01*
X146648425Y-83888523D01*
X146575723Y-83961225D01*
X146575719Y-83961230D01*
X146524313Y-84050269D01*
X146524312Y-84050272D01*
X146497700Y-84149590D01*
X145715500Y-84149590D01*
X145715500Y-83161380D01*
X145715501Y-83106197D01*
X145691061Y-82889289D01*
X145684458Y-82830687D01*
X145681839Y-82819214D01*
X145622762Y-82560373D01*
X145622150Y-82558625D01*
X145551173Y-82355785D01*
X145531189Y-82298673D01*
X145424537Y-82077209D01*
X145410892Y-82048874D01*
X145406182Y-82041378D01*
X145263380Y-81814110D01*
X145090512Y-81597340D01*
X144992486Y-81499314D01*
X144958831Y-81465660D01*
X144958831Y-81465659D01*
X144958829Y-81465658D01*
X144422888Y-80929717D01*
X144415820Y-80922649D01*
X144415820Y-80922648D01*
X144401485Y-80908313D01*
X144385606Y-80892434D01*
X144385605Y-80892433D01*
X144378997Y-80885285D01*
X144378110Y-80884247D01*
X144329709Y-80827576D01*
X144283782Y-80773802D01*
X144272346Y-80758061D01*
X144240950Y-80706828D01*
X144222705Y-80639383D01*
X144243821Y-80572780D01*
X144258992Y-80554360D01*
X144286524Y-80526829D01*
X144338633Y-80420240D01*
X144348700Y-80351142D01*
X144348700Y-79973658D01*
X144338633Y-79904560D01*
X144337787Y-79902830D01*
X144286523Y-79797969D01*
X144202632Y-79714078D01*
X144202630Y-79714077D01*
X144202629Y-79714076D01*
X144150737Y-79688707D01*
X144099157Y-79641579D01*
X144081200Y-79577308D01*
X144081200Y-78914800D01*
X144100885Y-78847761D01*
X144153689Y-78802006D01*
X144205200Y-78790800D01*
X149189219Y-78790800D01*
X149256258Y-78810485D01*
G37*
%TD.AperFunction*%
%TA.AperFunction,Conductor*%
G36*
X134946303Y-94785963D02*
G01*
X134952781Y-94791995D01*
X134998486Y-94837700D01*
X135080239Y-94884900D01*
X135109991Y-94902078D01*
X135112614Y-94903592D01*
X135239908Y-94937700D01*
X135239910Y-94937700D01*
X135333000Y-94937700D01*
X135400039Y-94957385D01*
X135445794Y-95010189D01*
X135457000Y-95061700D01*
X135457000Y-95184742D01*
X135462718Y-95223990D01*
X135467067Y-95253842D01*
X135519176Y-95360430D01*
X135603069Y-95444323D01*
X135709657Y-95496432D01*
X135709658Y-95496432D01*
X135709660Y-95496433D01*
X135778758Y-95506500D01*
X135778764Y-95506500D01*
X136271236Y-95506500D01*
X136271242Y-95506500D01*
X136340340Y-95496433D01*
X136446929Y-95444324D01*
X136446930Y-95444323D01*
X136446932Y-95444322D01*
X136504819Y-95386435D01*
X136506995Y-95385246D01*
X136508268Y-95383116D01*
X136537506Y-95368586D01*
X136566142Y-95352950D01*
X136568615Y-95353126D01*
X136570837Y-95352023D01*
X136603275Y-95355605D01*
X136635834Y-95357934D01*
X136638583Y-95359505D01*
X136640285Y-95359693D01*
X136648214Y-95365008D01*
X136670586Y-95377791D01*
X136675613Y-95381866D01*
X136738071Y-95444324D01*
X136774825Y-95462292D01*
X136785783Y-95471175D01*
X136797939Y-95488791D01*
X136813741Y-95503230D01*
X136817387Y-95516976D01*
X136825464Y-95528682D01*
X136826166Y-95550074D01*
X136831654Y-95570764D01*
X136827289Y-95584299D01*
X136827756Y-95598514D01*
X136816780Y-95616889D01*
X136810212Y-95637262D01*
X136798608Y-95647316D01*
X136791929Y-95658500D01*
X136777328Y-95665755D01*
X136762160Y-95678899D01*
X136738070Y-95690676D01*
X136654178Y-95774568D01*
X136654176Y-95774569D01*
X136602067Y-95881157D01*
X136602067Y-95881160D01*
X136592000Y-95950258D01*
X136592000Y-96327742D01*
X136595968Y-96354977D01*
X136602067Y-96396842D01*
X136654176Y-96503430D01*
X136738068Y-96587322D01*
X136746430Y-96593292D01*
X136745653Y-96594379D01*
X136789350Y-96634302D01*
X136807265Y-96701836D01*
X136804280Y-96725813D01*
X136800474Y-96742716D01*
X136796112Y-96750272D01*
X136769500Y-96849590D01*
X136769500Y-96880288D01*
X136766472Y-96893737D01*
X136755929Y-96912715D01*
X136749815Y-96933539D01*
X136739300Y-96942649D01*
X136732543Y-96954815D01*
X136713414Y-96965080D01*
X136697011Y-96979294D01*
X136680055Y-96982982D01*
X136670978Y-96987854D01*
X136661204Y-96987083D01*
X136645500Y-96990500D01*
X136063854Y-96990500D01*
X135996815Y-96970815D01*
X135976173Y-96954181D01*
X134777419Y-95755426D01*
X134743934Y-95694103D01*
X134741100Y-95667745D01*
X134741100Y-94879676D01*
X134760785Y-94812637D01*
X134813589Y-94766882D01*
X134882747Y-94756938D01*
X134946303Y-94785963D01*
G37*
%TD.AperFunction*%
%TA.AperFunction,Conductor*%
G36*
X143813690Y-94494275D02*
G01*
X143815388Y-94494730D01*
X143815390Y-94494731D01*
X143898684Y-94517050D01*
X143898686Y-94517050D01*
X143984914Y-94517050D01*
X143984916Y-94517050D01*
X144068210Y-94494731D01*
X144068211Y-94494730D01*
X144069910Y-94494275D01*
X144102004Y-94490050D01*
X144181596Y-94490050D01*
X144213690Y-94494275D01*
X144215388Y-94494730D01*
X144215390Y-94494731D01*
X144298684Y-94517050D01*
X144298687Y-94517050D01*
X144306508Y-94518080D01*
X144370405Y-94546346D01*
X144408876Y-94604671D01*
X144413262Y-94624831D01*
X144414300Y-94632717D01*
X144416521Y-94641004D01*
X144414860Y-94710854D01*
X144375698Y-94768717D01*
X144311470Y-94796223D01*
X144296747Y-94797100D01*
X142457545Y-94797100D01*
X142443536Y-94793591D01*
X142432283Y-94794499D01*
X142403842Y-94783651D01*
X142399104Y-94782465D01*
X142397316Y-94781509D01*
X142314528Y-94733712D01*
X142301172Y-94730133D01*
X142288600Y-94723415D01*
X142273435Y-94708521D01*
X142255288Y-94697461D01*
X142249006Y-94684530D01*
X142238750Y-94674458D01*
X142234044Y-94653731D01*
X142224758Y-94634615D01*
X142226464Y-94620340D01*
X142223282Y-94606322D01*
X142230529Y-94586342D01*
X142233052Y-94565239D01*
X142242205Y-94554152D01*
X142247107Y-94540639D01*
X142264004Y-94527749D01*
X142277536Y-94511361D01*
X142291228Y-94506983D01*
X142302660Y-94498264D01*
X142323844Y-94496556D01*
X142344088Y-94490085D01*
X142347041Y-94490050D01*
X143781596Y-94490050D01*
X143813690Y-94494275D01*
G37*
%TD.AperFunction*%
%TA.AperFunction,Conductor*%
G36*
X145184321Y-86368627D02*
G01*
X145187012Y-86368338D01*
X145212457Y-86375810D01*
X145222348Y-86379906D01*
X145222350Y-86379908D01*
X145239432Y-86383306D01*
X145290677Y-86393500D01*
X145290680Y-86393500D01*
X145380500Y-86393500D01*
X145381586Y-86393818D01*
X145382678Y-86393519D01*
X145415042Y-86403642D01*
X145447539Y-86413185D01*
X145448279Y-86414039D01*
X145449361Y-86414378D01*
X145471119Y-86440398D01*
X145493294Y-86465989D01*
X145493692Y-86467393D01*
X145494182Y-86467978D01*
X145495069Y-86472238D01*
X145503529Y-86502011D01*
X145504500Y-86509723D01*
X145504500Y-86607320D01*
X145518092Y-86675650D01*
X145527083Y-86689106D01*
X145530659Y-86717511D01*
X145527636Y-86736198D01*
X145529659Y-86755019D01*
X145522192Y-86780451D01*
X145518091Y-86790351D01*
X145504500Y-86858677D01*
X145504500Y-86858680D01*
X145504500Y-87107320D01*
X145504500Y-87107322D01*
X145504499Y-87107322D01*
X145518091Y-87175648D01*
X145522192Y-87185549D01*
X145529659Y-87255019D01*
X145522192Y-87280451D01*
X145518091Y-87290351D01*
X145504500Y-87358677D01*
X145504500Y-87358680D01*
X145504500Y-87607320D01*
X145504500Y-87607322D01*
X145504499Y-87607322D01*
X145518091Y-87675648D01*
X145522192Y-87685549D01*
X145529659Y-87755019D01*
X145522192Y-87780451D01*
X145518091Y-87790351D01*
X145504500Y-87858677D01*
X145504500Y-87858680D01*
X145504500Y-88107320D01*
X145504500Y-88107322D01*
X145504499Y-88107322D01*
X145518091Y-88175648D01*
X145522192Y-88185549D01*
X145529659Y-88255019D01*
X145522192Y-88280451D01*
X145518091Y-88290351D01*
X145504500Y-88358677D01*
X145504500Y-88358680D01*
X145504500Y-88607320D01*
X145504500Y-88607322D01*
X145504499Y-88607322D01*
X145518091Y-88675648D01*
X145522192Y-88685549D01*
X145529659Y-88755019D01*
X145522192Y-88780451D01*
X145518091Y-88790351D01*
X145504500Y-88858677D01*
X145504500Y-88858680D01*
X145504500Y-89107320D01*
X145504500Y-89107322D01*
X145504499Y-89107322D01*
X145518091Y-89175648D01*
X145522192Y-89185549D01*
X145529659Y-89255019D01*
X145522192Y-89280451D01*
X145518091Y-89290351D01*
X145504500Y-89358677D01*
X145504500Y-89358680D01*
X145504500Y-89607320D01*
X145504500Y-89607322D01*
X145504499Y-89607322D01*
X145518091Y-89675648D01*
X145522192Y-89685549D01*
X145530659Y-89748489D01*
X145527083Y-89776893D01*
X145518092Y-89790350D01*
X145504500Y-89858680D01*
X145504500Y-89956276D01*
X145503529Y-89963989D01*
X145492554Y-89989181D01*
X145484815Y-90015539D01*
X145478803Y-90020748D01*
X145475625Y-90028044D01*
X145452772Y-90043304D01*
X145432011Y-90061294D01*
X145422846Y-90063287D01*
X145417519Y-90066845D01*
X145405526Y-90067055D01*
X145380500Y-90072500D01*
X145290678Y-90072500D01*
X145222351Y-90086091D01*
X145212451Y-90090192D01*
X145142981Y-90097659D01*
X145117549Y-90090192D01*
X145107648Y-90086091D01*
X145039322Y-90072500D01*
X145039320Y-90072500D01*
X144790680Y-90072500D01*
X144790678Y-90072500D01*
X144722351Y-90086091D01*
X144712451Y-90090192D01*
X144642981Y-90097659D01*
X144617549Y-90090192D01*
X144607648Y-90086091D01*
X144539322Y-90072500D01*
X144539320Y-90072500D01*
X144290680Y-90072500D01*
X144290678Y-90072500D01*
X144222351Y-90086091D01*
X144212451Y-90090192D01*
X144142981Y-90097659D01*
X144117549Y-90090192D01*
X144107648Y-90086091D01*
X144039322Y-90072500D01*
X144039320Y-90072500D01*
X143790680Y-90072500D01*
X143790678Y-90072500D01*
X143722351Y-90086091D01*
X143712451Y-90090192D01*
X143642981Y-90097659D01*
X143617549Y-90090192D01*
X143607648Y-90086091D01*
X143539322Y-90072500D01*
X143539320Y-90072500D01*
X143290680Y-90072500D01*
X143290678Y-90072500D01*
X143222351Y-90086091D01*
X143212451Y-90090192D01*
X143142981Y-90097659D01*
X143117549Y-90090192D01*
X143107648Y-90086091D01*
X143039322Y-90072500D01*
X143039320Y-90072500D01*
X142790680Y-90072500D01*
X142790678Y-90072500D01*
X142722351Y-90086091D01*
X142712451Y-90090192D01*
X142642981Y-90097659D01*
X142617549Y-90090192D01*
X142607648Y-90086091D01*
X142539322Y-90072500D01*
X142539320Y-90072500D01*
X142290680Y-90072500D01*
X142290678Y-90072500D01*
X142222351Y-90086091D01*
X142212451Y-90090192D01*
X142149511Y-90098659D01*
X142121106Y-90095083D01*
X142107650Y-90086092D01*
X142039320Y-90072500D01*
X141941724Y-90072500D01*
X141934011Y-90071529D01*
X141908818Y-90060554D01*
X141882461Y-90052815D01*
X141877251Y-90046803D01*
X141869956Y-90043625D01*
X141854695Y-90020772D01*
X141836706Y-90000011D01*
X141834712Y-89990846D01*
X141831155Y-89985519D01*
X141830944Y-89973526D01*
X141825500Y-89948500D01*
X141825500Y-89858677D01*
X141813811Y-89799916D01*
X141811908Y-89790350D01*
X141811906Y-89790348D01*
X141807810Y-89780457D01*
X141800338Y-89710988D01*
X141807810Y-89685543D01*
X141811905Y-89675653D01*
X141811908Y-89675650D01*
X141825500Y-89607320D01*
X141825500Y-89358680D01*
X141825500Y-89358677D01*
X141815010Y-89305944D01*
X141811908Y-89290350D01*
X141811906Y-89290348D01*
X141807810Y-89280457D01*
X141800338Y-89210988D01*
X141807810Y-89185543D01*
X141811905Y-89175653D01*
X141811908Y-89175650D01*
X141825500Y-89107320D01*
X141825500Y-88858680D01*
X141825500Y-88858677D01*
X141811908Y-88790351D01*
X141807810Y-88780457D01*
X141800338Y-88710988D01*
X141807810Y-88685543D01*
X141811905Y-88675653D01*
X141811908Y-88675650D01*
X141818704Y-88641485D01*
X141825500Y-88607322D01*
X141825500Y-88358677D01*
X141811908Y-88290351D01*
X141807810Y-88280457D01*
X141800338Y-88210988D01*
X141807810Y-88185543D01*
X141811905Y-88175653D01*
X141811908Y-88175650D01*
X141821113Y-88129375D01*
X141825500Y-88107322D01*
X141825500Y-87858677D01*
X141811908Y-87790351D01*
X141807810Y-87780457D01*
X141800338Y-87710988D01*
X141807810Y-87685543D01*
X141811905Y-87675653D01*
X141811908Y-87675650D01*
X141821321Y-87628328D01*
X141825500Y-87607322D01*
X141825500Y-87358677D01*
X141811908Y-87290351D01*
X141807810Y-87280457D01*
X141800338Y-87210988D01*
X141807810Y-87185543D01*
X141811905Y-87175653D01*
X141811908Y-87175650D01*
X141820491Y-87132500D01*
X141825500Y-87107322D01*
X141825500Y-86858677D01*
X141811908Y-86790351D01*
X141807810Y-86780457D01*
X141799340Y-86717511D01*
X141802915Y-86689107D01*
X141811908Y-86675650D01*
X141825500Y-86607320D01*
X141825500Y-86509723D01*
X141826471Y-86502011D01*
X141837445Y-86476819D01*
X141845185Y-86450461D01*
X141851197Y-86445251D01*
X141854376Y-86437955D01*
X141877228Y-86422695D01*
X141897989Y-86404706D01*
X141907153Y-86402712D01*
X141912481Y-86399155D01*
X141924473Y-86398944D01*
X141949500Y-86393500D01*
X142039322Y-86393500D01*
X142073485Y-86386704D01*
X142107650Y-86379908D01*
X142107653Y-86379905D01*
X142117543Y-86375810D01*
X142187012Y-86368338D01*
X142212457Y-86375810D01*
X142222348Y-86379906D01*
X142222350Y-86379908D01*
X142239432Y-86383306D01*
X142290677Y-86393500D01*
X142290680Y-86393500D01*
X142539322Y-86393500D01*
X142573485Y-86386704D01*
X142607650Y-86379908D01*
X142607653Y-86379905D01*
X142617543Y-86375810D01*
X142687012Y-86368338D01*
X142712457Y-86375810D01*
X142722348Y-86379906D01*
X142722350Y-86379908D01*
X142739432Y-86383306D01*
X142790677Y-86393500D01*
X142790680Y-86393500D01*
X143039322Y-86393500D01*
X143073485Y-86386704D01*
X143107650Y-86379908D01*
X143107653Y-86379905D01*
X143117543Y-86375810D01*
X143187012Y-86368338D01*
X143212457Y-86375810D01*
X143222348Y-86379906D01*
X143222350Y-86379908D01*
X143239432Y-86383306D01*
X143290677Y-86393500D01*
X143290680Y-86393500D01*
X143539322Y-86393500D01*
X143573485Y-86386704D01*
X143607650Y-86379908D01*
X143607653Y-86379905D01*
X143617543Y-86375810D01*
X143687012Y-86368338D01*
X143712457Y-86375810D01*
X143722348Y-86379906D01*
X143722350Y-86379908D01*
X143739432Y-86383306D01*
X143790677Y-86393500D01*
X143790680Y-86393500D01*
X144039322Y-86393500D01*
X144073485Y-86386704D01*
X144107650Y-86379908D01*
X144107653Y-86379905D01*
X144117543Y-86375810D01*
X144187012Y-86368338D01*
X144212457Y-86375810D01*
X144222348Y-86379906D01*
X144222350Y-86379908D01*
X144239432Y-86383306D01*
X144290677Y-86393500D01*
X144290680Y-86393500D01*
X144539322Y-86393500D01*
X144573485Y-86386704D01*
X144607650Y-86379908D01*
X144607653Y-86379905D01*
X144617543Y-86375810D01*
X144687012Y-86368338D01*
X144712457Y-86375810D01*
X144722348Y-86379906D01*
X144722350Y-86379908D01*
X144739432Y-86383306D01*
X144790677Y-86393500D01*
X144790680Y-86393500D01*
X145039322Y-86393500D01*
X145073485Y-86386704D01*
X145107650Y-86379908D01*
X145107653Y-86379905D01*
X145117543Y-86375810D01*
X145148058Y-86372527D01*
X145178260Y-86367080D01*
X145184321Y-86368627D01*
G37*
%TD.AperFunction*%
%TA.AperFunction,Conductor*%
G36*
X140988206Y-80787385D02*
G01*
X141008848Y-80804019D01*
X141032405Y-80827576D01*
X141064499Y-80883163D01*
X141088712Y-80973529D01*
X141088713Y-80973530D01*
X141140119Y-81062569D01*
X141140123Y-81062574D01*
X141141181Y-81063632D01*
X141141788Y-81064743D01*
X141145068Y-81069018D01*
X141144401Y-81069529D01*
X141174666Y-81124955D01*
X141177500Y-81151313D01*
X141177500Y-81980008D01*
X141157815Y-82047047D01*
X141113755Y-82086252D01*
X141113988Y-82086579D01*
X141110955Y-82088743D01*
X141107962Y-82091408D01*
X141105623Y-82092551D01*
X141020550Y-82177624D01*
X141020548Y-82177627D01*
X140967710Y-82285710D01*
X140967709Y-82285712D01*
X140967709Y-82285714D01*
X140957500Y-82355785D01*
X140957500Y-82355789D01*
X140957500Y-82355790D01*
X140957500Y-82819213D01*
X140958722Y-82827598D01*
X140967709Y-82889286D01*
X140967709Y-82889287D01*
X140967710Y-82889289D01*
X140967710Y-82889291D01*
X141020548Y-82997372D01*
X141020550Y-82997375D01*
X141105625Y-83082450D01*
X141107916Y-83084086D01*
X141110297Y-83087122D01*
X141112890Y-83089715D01*
X141112576Y-83090028D01*
X141151035Y-83139064D01*
X141157587Y-83208625D01*
X141125490Y-83270686D01*
X141107916Y-83285914D01*
X141105625Y-83287549D01*
X141020550Y-83372624D01*
X141020548Y-83372627D01*
X140967710Y-83480710D01*
X140967709Y-83480712D01*
X140967709Y-83480714D01*
X140957500Y-83550785D01*
X140957500Y-83550789D01*
X140957500Y-83550790D01*
X140957500Y-84014213D01*
X140962753Y-84050269D01*
X140967709Y-84084286D01*
X140967709Y-84084287D01*
X140967710Y-84084289D01*
X140967710Y-84084291D01*
X141020548Y-84192372D01*
X141020550Y-84192374D01*
X141020551Y-84192375D01*
X141042422Y-84214246D01*
X141075907Y-84275567D01*
X141070924Y-84345259D01*
X141062129Y-84363925D01*
X141037914Y-84405867D01*
X141037912Y-84405872D01*
X141011300Y-84505190D01*
X141011300Y-84608010D01*
X141028377Y-84671740D01*
X141037912Y-84707327D01*
X141037913Y-84707330D01*
X141089319Y-84796369D01*
X141089321Y-84796372D01*
X141089322Y-84796373D01*
X141162027Y-84869078D01*
X141162028Y-84869079D01*
X141162030Y-84869080D01*
X141189099Y-84884708D01*
X141251072Y-84920488D01*
X141350390Y-84947100D01*
X141350392Y-84947100D01*
X141453207Y-84947100D01*
X141453210Y-84947100D01*
X141458408Y-84945707D01*
X141483401Y-84946302D01*
X141508147Y-84942744D01*
X141517727Y-84947119D01*
X141528256Y-84947370D01*
X141548959Y-84961382D01*
X141571703Y-84971769D01*
X141577397Y-84980629D01*
X141586118Y-84986532D01*
X141595959Y-85009512D01*
X141609477Y-85030547D01*
X141611756Y-85046401D01*
X141613623Y-85050760D01*
X141614500Y-85065482D01*
X141614500Y-85255695D01*
X141597403Y-85313919D01*
X141597765Y-85314069D01*
X141596371Y-85317432D01*
X141594815Y-85322734D01*
X141593604Y-85324582D01*
X141593094Y-85325345D01*
X141593090Y-85325353D01*
X141579500Y-85393677D01*
X141579500Y-85711767D01*
X141559815Y-85778806D01*
X141507011Y-85824561D01*
X141437853Y-85834505D01*
X141374297Y-85805480D01*
X141367819Y-85799448D01*
X141186994Y-85618623D01*
X141154900Y-85563036D01*
X141130688Y-85472672D01*
X141085082Y-85393680D01*
X141079280Y-85383630D01*
X141079276Y-85383625D01*
X141006574Y-85310923D01*
X141006569Y-85310919D01*
X140917530Y-85259513D01*
X140917529Y-85259512D01*
X140917528Y-85259512D01*
X140818210Y-85232900D01*
X140715390Y-85232900D01*
X140616072Y-85259512D01*
X140616069Y-85259513D01*
X140527030Y-85310919D01*
X140527025Y-85310923D01*
X140454323Y-85383625D01*
X140454319Y-85383630D01*
X140402913Y-85472669D01*
X140402912Y-85472672D01*
X140376300Y-85571990D01*
X140376300Y-85674810D01*
X140402553Y-85772786D01*
X140402912Y-85774127D01*
X140402913Y-85774130D01*
X140454319Y-85863169D01*
X140454321Y-85863172D01*
X140454322Y-85863173D01*
X140527027Y-85935878D01*
X140527028Y-85935879D01*
X140527030Y-85935880D01*
X140559136Y-85954416D01*
X140616072Y-85987288D01*
X140638225Y-85993224D01*
X140697885Y-86029587D01*
X140728415Y-86092433D01*
X140720121Y-86161809D01*
X140686636Y-86202364D01*
X140688501Y-86204229D01*
X140679865Y-86212864D01*
X140628091Y-86290349D01*
X140614500Y-86358677D01*
X140614500Y-86480500D01*
X140594815Y-86547539D01*
X140542011Y-86593294D01*
X140490500Y-86604500D01*
X140435990Y-86604500D01*
X140336672Y-86631112D01*
X140336669Y-86631113D01*
X140247630Y-86682519D01*
X140247625Y-86682523D01*
X140174923Y-86755225D01*
X140174919Y-86755230D01*
X140123513Y-86844269D01*
X140123512Y-86844272D01*
X140096900Y-86943590D01*
X140096900Y-87046411D01*
X140110458Y-87097011D01*
X140108795Y-87166861D01*
X140078366Y-87216783D01*
X140057319Y-87237830D01*
X140005913Y-87326869D01*
X140005912Y-87326872D01*
X139979300Y-87426190D01*
X139979300Y-87529010D01*
X140000284Y-87607322D01*
X140005912Y-87628327D01*
X140005913Y-87628330D01*
X140059224Y-87720668D01*
X140060044Y-87721353D01*
X140060548Y-87722961D01*
X140061385Y-87724411D01*
X140061061Y-87724597D01*
X140069333Y-87750984D01*
X140080536Y-87779962D01*
X140080054Y-87785181D01*
X140080945Y-87788023D01*
X140078695Y-87799900D01*
X140076559Y-87823043D01*
X140073865Y-87832873D01*
X140072712Y-87834872D01*
X140046100Y-87934190D01*
X140046100Y-87934222D01*
X140045614Y-87935996D01*
X140027487Y-87965363D01*
X140009431Y-87994986D01*
X140009104Y-87995144D01*
X140008915Y-87995452D01*
X139977760Y-88010370D01*
X139946584Y-88025515D01*
X139946223Y-88025471D01*
X139945898Y-88025628D01*
X139911559Y-88021327D01*
X139877208Y-88017220D01*
X139876929Y-88016990D01*
X139876570Y-88016945D01*
X139850056Y-87994802D01*
X139823330Y-87972735D01*
X139822997Y-87972203D01*
X139822943Y-87972158D01*
X139822917Y-87972075D01*
X139818633Y-87965231D01*
X139813592Y-87956500D01*
X139809278Y-87949027D01*
X139736573Y-87876322D01*
X139736572Y-87876321D01*
X139736569Y-87876319D01*
X139647530Y-87824913D01*
X139647529Y-87824912D01*
X139647528Y-87824912D01*
X139548210Y-87798300D01*
X139445390Y-87798300D01*
X139346072Y-87824912D01*
X139346069Y-87824913D01*
X139257030Y-87876319D01*
X139257025Y-87876323D01*
X139184323Y-87949025D01*
X139184319Y-87949030D01*
X139132913Y-88038069D01*
X139132912Y-88038072D01*
X139106300Y-88137390D01*
X139106300Y-88240210D01*
X139132682Y-88338671D01*
X139135016Y-88347379D01*
X139132456Y-88348064D01*
X139138523Y-88404525D01*
X139107244Y-88467002D01*
X139047153Y-88502650D01*
X139016495Y-88506500D01*
X138706286Y-88506500D01*
X138662367Y-88512899D01*
X138636214Y-88516709D01*
X138636212Y-88516709D01*
X138636210Y-88516710D01*
X138636208Y-88516710D01*
X138518893Y-88574063D01*
X138517456Y-88571123D01*
X138467938Y-88588324D01*
X138400020Y-88571927D01*
X138351748Y-88521414D01*
X138337900Y-88464471D01*
X138337900Y-88365992D01*
X138337900Y-88365990D01*
X138311288Y-88266672D01*
X138264452Y-88185549D01*
X138259880Y-88177630D01*
X138259876Y-88177625D01*
X138187174Y-88104923D01*
X138187169Y-88104919D01*
X138098130Y-88053513D01*
X138098129Y-88053512D01*
X138098128Y-88053512D01*
X137998810Y-88026900D01*
X137931500Y-88026900D01*
X137864461Y-88007215D01*
X137818706Y-87954411D01*
X137807500Y-87902900D01*
X137807499Y-87562786D01*
X137807499Y-87562785D01*
X137797291Y-87492714D01*
X137797289Y-87492709D01*
X137797289Y-87492708D01*
X137744451Y-87384627D01*
X137744449Y-87384624D01*
X137659375Y-87299550D01*
X137574428Y-87258022D01*
X137561753Y-87246726D01*
X137547546Y-87240213D01*
X137528447Y-87217046D01*
X137524473Y-87213505D01*
X137522936Y-87211106D01*
X137489960Y-87153989D01*
X137479917Y-87143946D01*
X137472677Y-87132643D01*
X137466495Y-87111471D01*
X137455927Y-87092118D01*
X137456894Y-87078592D01*
X137453093Y-87065574D01*
X137459337Y-87044423D01*
X137460911Y-87022426D01*
X137469037Y-87011569D01*
X137472878Y-86998564D01*
X137489567Y-86984146D01*
X137502783Y-86966493D01*
X137519277Y-86958480D01*
X137525750Y-86952889D01*
X137532873Y-86951875D01*
X137544996Y-86945986D01*
X137615528Y-86927088D01*
X137704573Y-86875678D01*
X137777278Y-86802973D01*
X137828688Y-86713928D01*
X137855300Y-86614610D01*
X137855300Y-86511790D01*
X137828688Y-86412472D01*
X137802481Y-86367080D01*
X137777280Y-86323430D01*
X137777276Y-86323425D01*
X137704574Y-86250723D01*
X137704569Y-86250719D01*
X137615530Y-86199313D01*
X137615529Y-86199312D01*
X137582921Y-86190575D01*
X137533904Y-86177441D01*
X137520018Y-86169423D01*
X137506573Y-86166499D01*
X137478319Y-86145348D01*
X137335152Y-86002181D01*
X137301667Y-85940858D01*
X137306651Y-85871166D01*
X137348523Y-85815233D01*
X137413987Y-85790816D01*
X137422833Y-85790500D01*
X137612360Y-85790500D01*
X137612362Y-85790500D01*
X137688789Y-85770021D01*
X137757311Y-85730460D01*
X137813260Y-85674511D01*
X137951822Y-85535948D01*
X138013141Y-85502466D01*
X138082833Y-85507450D01*
X138138767Y-85549321D01*
X138163184Y-85614785D01*
X138163500Y-85623631D01*
X138163500Y-85702713D01*
X138169654Y-85744953D01*
X138173709Y-85772786D01*
X138173709Y-85772787D01*
X138173710Y-85772789D01*
X138173710Y-85772791D01*
X138226548Y-85880872D01*
X138226550Y-85880875D01*
X138255744Y-85910069D01*
X138289229Y-85971392D01*
X138284245Y-86041084D01*
X138255744Y-86085431D01*
X138226550Y-86114624D01*
X138226548Y-86114627D01*
X138173710Y-86222710D01*
X138173709Y-86222712D01*
X138173709Y-86222714D01*
X138163500Y-86292785D01*
X138163500Y-86292789D01*
X138163500Y-86292790D01*
X138163500Y-86806213D01*
X138168423Y-86840003D01*
X138173709Y-86876286D01*
X138173709Y-86876287D01*
X138173710Y-86876289D01*
X138173710Y-86876291D01*
X138226548Y-86984372D01*
X138226550Y-86984375D01*
X138311624Y-87069449D01*
X138311627Y-87069451D01*
X138414680Y-87119830D01*
X138419714Y-87122291D01*
X138489785Y-87132500D01*
X138878214Y-87132499D01*
X138948286Y-87122291D01*
X138948290Y-87122289D01*
X138948291Y-87122289D01*
X139056372Y-87069451D01*
X139056375Y-87069449D01*
X139141449Y-86984375D01*
X139141451Y-86984372D01*
X139188889Y-86887335D01*
X139194291Y-86876286D01*
X139204500Y-86806215D01*
X139204499Y-86292786D01*
X139194291Y-86222714D01*
X139194289Y-86222709D01*
X139194289Y-86222708D01*
X139141451Y-86114627D01*
X139141449Y-86114624D01*
X139112256Y-86085431D01*
X139078771Y-86024108D01*
X139083755Y-85954416D01*
X139112256Y-85910069D01*
X139141449Y-85880875D01*
X139141451Y-85880872D01*
X139167870Y-85826830D01*
X139194291Y-85772786D01*
X139204500Y-85702715D01*
X139204499Y-85239286D01*
X139194291Y-85169214D01*
X139194289Y-85169209D01*
X139194289Y-85169208D01*
X139141451Y-85061127D01*
X139141449Y-85061124D01*
X139056377Y-84976052D01*
X139054087Y-84974417D01*
X139051704Y-84971379D01*
X139049110Y-84968785D01*
X139049423Y-84968471D01*
X139010966Y-84919442D01*
X139004411Y-84849880D01*
X139036505Y-84787818D01*
X139054087Y-84772583D01*
X139056372Y-84770950D01*
X139056375Y-84770949D01*
X139141449Y-84685875D01*
X139141451Y-84685872D01*
X139179515Y-84608010D01*
X139194291Y-84577786D01*
X139204500Y-84507715D01*
X139204499Y-84292099D01*
X139224183Y-84225061D01*
X139276987Y-84179306D01*
X139328499Y-84168100D01*
X139359490Y-84168100D01*
X139359492Y-84168100D01*
X139486786Y-84133992D01*
X139600914Y-84068100D01*
X139694100Y-83974914D01*
X139759992Y-83860786D01*
X139794100Y-83733492D01*
X139794100Y-83601708D01*
X139759992Y-83474414D01*
X139694100Y-83360286D01*
X139600914Y-83267100D01*
X139523029Y-83222133D01*
X139486787Y-83201208D01*
X139380731Y-83172791D01*
X139359492Y-83167100D01*
X139227708Y-83167100D01*
X139100412Y-83201208D01*
X138986286Y-83267100D01*
X138986283Y-83267102D01*
X138893102Y-83360283D01*
X138893100Y-83360286D01*
X138827208Y-83474412D01*
X138793100Y-83601708D01*
X138792039Y-83609768D01*
X138791558Y-83609704D01*
X138791838Y-83611647D01*
X138780859Y-83635687D01*
X138773415Y-83661039D01*
X138766574Y-83666966D01*
X138762813Y-83675203D01*
X138740578Y-83689492D01*
X138720611Y-83706794D01*
X138710096Y-83709081D01*
X138704035Y-83712977D01*
X138669100Y-83718000D01*
X138651933Y-83718000D01*
X138584894Y-83698315D01*
X138564252Y-83681681D01*
X138335110Y-83452539D01*
X138320915Y-83444344D01*
X138315627Y-83441291D01*
X138300414Y-83432508D01*
X138266591Y-83412980D01*
X138266590Y-83412979D01*
X138241113Y-83406152D01*
X138190162Y-83392500D01*
X136968038Y-83392500D01*
X136929824Y-83402739D01*
X136891609Y-83412979D01*
X136891608Y-83412980D01*
X136846375Y-83439096D01*
X136842573Y-83441291D01*
X136837285Y-83444344D01*
X136823089Y-83452539D01*
X136557541Y-83718087D01*
X136557535Y-83718095D01*
X136517982Y-83786604D01*
X136517979Y-83786609D01*
X136511789Y-83809711D01*
X136498104Y-83860786D01*
X136497500Y-83863039D01*
X136497500Y-83910401D01*
X136496287Y-83914529D01*
X136497220Y-83918730D01*
X136486528Y-83947764D01*
X136477815Y-83977440D01*
X136474564Y-83980256D01*
X136473077Y-83984296D01*
X136448379Y-84002945D01*
X136425011Y-84023195D01*
X136420754Y-84023807D01*
X136417319Y-84026401D01*
X136386469Y-84028736D01*
X136355853Y-84033139D01*
X136350722Y-84031443D01*
X136347649Y-84031676D01*
X136324382Y-84022737D01*
X136314529Y-84019481D01*
X136308004Y-84015953D01*
X136307573Y-84015522D01*
X136218528Y-83964112D01*
X136205810Y-83960704D01*
X136120692Y-83937897D01*
X136061032Y-83901531D01*
X136030503Y-83838684D01*
X136038798Y-83769309D01*
X136045394Y-83756130D01*
X136057298Y-83735512D01*
X136080521Y-83695289D01*
X136101000Y-83618862D01*
X136101000Y-83618858D01*
X136101790Y-83615910D01*
X136138155Y-83556249D01*
X136167106Y-83536602D01*
X136210375Y-83515449D01*
X136295449Y-83430375D01*
X136295451Y-83430372D01*
X136323681Y-83372627D01*
X136348291Y-83322286D01*
X136358500Y-83252215D01*
X136358499Y-82863786D01*
X136348291Y-82793714D01*
X136348289Y-82793709D01*
X136348289Y-82793708D01*
X136295451Y-82685627D01*
X136295449Y-82685624D01*
X136210375Y-82600550D01*
X136210372Y-82600548D01*
X136102289Y-82547710D01*
X136102287Y-82547709D01*
X136102286Y-82547709D01*
X136048892Y-82539929D01*
X135985394Y-82510787D01*
X135947730Y-82451938D01*
X135946998Y-82385133D01*
X135950300Y-82372810D01*
X135950300Y-82269990D01*
X135923688Y-82170672D01*
X135902455Y-82133896D01*
X135885984Y-82065997D01*
X135908837Y-81999970D01*
X135963759Y-81956780D01*
X136009844Y-81947898D01*
X136792765Y-81947898D01*
X136859804Y-81967583D01*
X136880446Y-81984217D01*
X137273205Y-82376976D01*
X137305299Y-82432563D01*
X137329512Y-82522929D01*
X137329513Y-82522930D01*
X137380919Y-82611969D01*
X137380921Y-82611972D01*
X137380922Y-82611973D01*
X137453627Y-82684678D01*
X137453628Y-82684679D01*
X137453630Y-82684680D01*
X137469030Y-82693571D01*
X137542672Y-82736088D01*
X137641990Y-82762700D01*
X137641992Y-82762700D01*
X137744808Y-82762700D01*
X137744810Y-82762700D01*
X137844128Y-82736088D01*
X137933173Y-82684678D01*
X138005878Y-82611973D01*
X138057288Y-82522928D01*
X138083900Y-82423610D01*
X138083900Y-82320790D01*
X138057288Y-82221472D01*
X138006727Y-82133897D01*
X137990255Y-82065997D01*
X138013108Y-81999970D01*
X138068030Y-81956780D01*
X138114115Y-81947898D01*
X139521349Y-81947898D01*
X139521350Y-81947897D01*
X139536167Y-81944950D01*
X139579828Y-81936266D01*
X139579828Y-81936265D01*
X139579830Y-81936265D01*
X139646151Y-81891950D01*
X139690466Y-81825629D01*
X139690466Y-81825627D01*
X139690467Y-81825627D01*
X139702098Y-81767150D01*
X139702099Y-81767148D01*
X139702099Y-81168847D01*
X139702098Y-81168845D01*
X139690467Y-81110368D01*
X139690466Y-81110367D01*
X139646151Y-81044045D01*
X139572454Y-80994802D01*
X139527649Y-80941189D01*
X139518942Y-80871864D01*
X139549097Y-80808837D01*
X139608540Y-80772118D01*
X139641345Y-80767700D01*
X140921167Y-80767700D01*
X140988206Y-80787385D01*
G37*
%TD.AperFunction*%
%TA.AperFunction,Conductor*%
G36*
X134270539Y-78810485D02*
G01*
X134316294Y-78863289D01*
X134327500Y-78914800D01*
X134327500Y-78943499D01*
X134307815Y-79010538D01*
X134255011Y-79056293D01*
X134203500Y-79067499D01*
X133951246Y-79067499D01*
X133892769Y-79079130D01*
X133892768Y-79079131D01*
X133826446Y-79123446D01*
X133782131Y-79189768D01*
X133782130Y-79189769D01*
X133770499Y-79248246D01*
X133770499Y-79887751D01*
X133782130Y-79946228D01*
X133782131Y-79946229D01*
X133826446Y-80012551D01*
X133892768Y-80056866D01*
X133892769Y-80056867D01*
X133951246Y-80068498D01*
X133951249Y-80068499D01*
X133951251Y-80068499D01*
X134990749Y-80068499D01*
X134990750Y-80068498D01*
X135005567Y-80065551D01*
X135049228Y-80056867D01*
X135049228Y-80056866D01*
X135049230Y-80056866D01*
X135115551Y-80012551D01*
X135159866Y-79946230D01*
X135159867Y-79946227D01*
X135160359Y-79945042D01*
X135162120Y-79942856D01*
X135166651Y-79936076D01*
X135167257Y-79936481D01*
X135172900Y-79929479D01*
X135181205Y-79911296D01*
X135194377Y-79902830D01*
X135204202Y-79890640D01*
X135223167Y-79884328D01*
X135239983Y-79873522D01*
X135267551Y-79869558D01*
X135270497Y-79868578D01*
X135274918Y-79868499D01*
X135497081Y-79868499D01*
X135564120Y-79888184D01*
X135600183Y-79923608D01*
X135645846Y-79991948D01*
X135712168Y-80036263D01*
X135712169Y-80036264D01*
X135770646Y-80047895D01*
X135770649Y-80047896D01*
X135770651Y-80047896D01*
X137153363Y-80047896D01*
X137220402Y-80067581D01*
X137241044Y-80084215D01*
X137808540Y-80651711D01*
X137864489Y-80707660D01*
X137864491Y-80707661D01*
X137864495Y-80707664D01*
X137922878Y-80741371D01*
X137933011Y-80747221D01*
X137991591Y-80762917D01*
X138051250Y-80799283D01*
X138081779Y-80862130D01*
X138073484Y-80931505D01*
X138028998Y-80985383D01*
X138006952Y-80997252D01*
X138000967Y-80999731D01*
X137934646Y-81044045D01*
X137890331Y-81110367D01*
X137890330Y-81110368D01*
X137878699Y-81168845D01*
X137878699Y-81767150D01*
X137889676Y-81822335D01*
X137883449Y-81891927D01*
X137840586Y-81947104D01*
X137774696Y-81970348D01*
X137706699Y-81954280D01*
X137680378Y-81934207D01*
X137449618Y-81703447D01*
X137416133Y-81642124D01*
X137413299Y-81615766D01*
X137413299Y-81168847D01*
X137413298Y-81168845D01*
X137401667Y-81110368D01*
X137401666Y-81110367D01*
X137357351Y-81044045D01*
X137291029Y-80999730D01*
X137291028Y-80999729D01*
X137232551Y-80988098D01*
X137232547Y-80988098D01*
X135770651Y-80988098D01*
X135770646Y-80988098D01*
X135712169Y-80999729D01*
X135712168Y-80999730D01*
X135645846Y-81044045D01*
X135601531Y-81110367D01*
X135601530Y-81110368D01*
X135589899Y-81168845D01*
X135589899Y-81767150D01*
X135594041Y-81787976D01*
X135591158Y-81820171D01*
X135589688Y-81852473D01*
X135588061Y-81854767D01*
X135587811Y-81857567D01*
X135567972Y-81883103D01*
X135549279Y-81909472D01*
X135546343Y-81910945D01*
X135544947Y-81912743D01*
X135518751Y-81927183D01*
X135509523Y-81930900D01*
X135508390Y-81930900D01*
X135409072Y-81957512D01*
X135329746Y-82003310D01*
X135321634Y-82006578D01*
X135295209Y-82009157D01*
X135269405Y-82015417D01*
X135260974Y-82012499D01*
X135252095Y-82013366D01*
X135228469Y-82001249D01*
X135203378Y-81992565D01*
X135197863Y-81985552D01*
X135189925Y-81981481D01*
X135176600Y-81958513D01*
X135160188Y-81937643D01*
X135159340Y-81928762D01*
X135154863Y-81921045D01*
X135156070Y-81894521D01*
X135153547Y-81868090D01*
X135157940Y-81853451D01*
X135158041Y-81851248D01*
X135159014Y-81849875D01*
X135159391Y-81848617D01*
X135163964Y-81825627D01*
X135171499Y-81787746D01*
X135171499Y-81148250D01*
X135171499Y-81148247D01*
X135171498Y-81148245D01*
X135159867Y-81089768D01*
X135159866Y-81089767D01*
X135115551Y-81023445D01*
X135049229Y-80979130D01*
X135049228Y-80979129D01*
X134990751Y-80967498D01*
X134990747Y-80967498D01*
X133951251Y-80967498D01*
X133951246Y-80967498D01*
X133892769Y-80979129D01*
X133892768Y-80979130D01*
X133826446Y-81023445D01*
X133782131Y-81089767D01*
X133782130Y-81089768D01*
X133770499Y-81148245D01*
X133770499Y-81787750D01*
X133782130Y-81846227D01*
X133782131Y-81846228D01*
X133826446Y-81912550D01*
X133892768Y-81956865D01*
X133892769Y-81956866D01*
X133951246Y-81968497D01*
X133951249Y-81968498D01*
X134654969Y-81968498D01*
X134722008Y-81988183D01*
X134767763Y-82040987D01*
X134777707Y-82110145D01*
X134748682Y-82173701D01*
X134742667Y-82180161D01*
X134591099Y-82331729D01*
X134548646Y-82374182D01*
X134487322Y-82407666D01*
X134460966Y-82410500D01*
X134223786Y-82410500D01*
X134174342Y-82417703D01*
X134153714Y-82420709D01*
X134153712Y-82420709D01*
X134153710Y-82420710D01*
X134153708Y-82420710D01*
X134045627Y-82473548D01*
X134045624Y-82473550D01*
X133960550Y-82558624D01*
X133960548Y-82558627D01*
X133907710Y-82666710D01*
X133907709Y-82666712D01*
X133907709Y-82666714D01*
X133897500Y-82736785D01*
X133897500Y-82736789D01*
X133897500Y-82736790D01*
X133897500Y-83125213D01*
X133903603Y-83167100D01*
X133907709Y-83195286D01*
X133907709Y-83195287D01*
X133907710Y-83195289D01*
X133907710Y-83195291D01*
X133960548Y-83303372D01*
X133960550Y-83303375D01*
X134045624Y-83388449D01*
X134053988Y-83394421D01*
X134052115Y-83397044D01*
X134090932Y-83432508D01*
X134108848Y-83500042D01*
X134087409Y-83566541D01*
X134039353Y-83608183D01*
X134003568Y-83625677D01*
X134003568Y-83625678D01*
X133919678Y-83709568D01*
X133919676Y-83709569D01*
X133867567Y-83816157D01*
X133867567Y-83816160D01*
X133857500Y-83885258D01*
X133857500Y-84262742D01*
X133864590Y-84311408D01*
X133867567Y-84331842D01*
X133919676Y-84438430D01*
X133988681Y-84507435D01*
X134022166Y-84568758D01*
X134025000Y-84595116D01*
X134025000Y-84766573D01*
X134025000Y-84872027D01*
X134035979Y-84913001D01*
X134052293Y-84973889D01*
X134059593Y-84986532D01*
X134105020Y-85065213D01*
X134172660Y-85132853D01*
X134233981Y-85194173D01*
X134267466Y-85255496D01*
X134270300Y-85281855D01*
X134270300Y-86944181D01*
X134250615Y-87011220D01*
X134197811Y-87056975D01*
X134128653Y-87066919D01*
X134077410Y-87047284D01*
X134054994Y-87032307D01*
X134047290Y-87027159D01*
X134047289Y-87027158D01*
X134047288Y-87027158D01*
X134047288Y-87027157D01*
X133988811Y-87015526D01*
X133988807Y-87015526D01*
X132799199Y-87015526D01*
X132799194Y-87015526D01*
X132740717Y-87027157D01*
X132740716Y-87027158D01*
X132674394Y-87071473D01*
X132630079Y-87137795D01*
X132630078Y-87137796D01*
X132618447Y-87196273D01*
X132618447Y-87835726D01*
X132629628Y-87891937D01*
X132629628Y-87940319D01*
X132618503Y-87996248D01*
X132618503Y-88241500D01*
X132598818Y-88308539D01*
X132546014Y-88354294D01*
X132494503Y-88365500D01*
X131971033Y-88365500D01*
X131903994Y-88345815D01*
X131883352Y-88329181D01*
X131096019Y-87541848D01*
X131062534Y-87480525D01*
X131059700Y-87454167D01*
X131059700Y-84872639D01*
X131059536Y-84872026D01*
X131039221Y-84796211D01*
X131034375Y-84787818D01*
X130999664Y-84727695D01*
X130999658Y-84727687D01*
X130927578Y-84655607D01*
X130894093Y-84594284D01*
X130899077Y-84524592D01*
X130927578Y-84480245D01*
X130961449Y-84446375D01*
X130961449Y-84446374D01*
X130961450Y-84446374D01*
X130961451Y-84446372D01*
X130991647Y-84384605D01*
X131014291Y-84338286D01*
X131024500Y-84268215D01*
X131024499Y-83879786D01*
X131014291Y-83809714D01*
X131014289Y-83809709D01*
X131014289Y-83809708D01*
X130961451Y-83701627D01*
X130961449Y-83701624D01*
X130876375Y-83616550D01*
X130876372Y-83616548D01*
X130768289Y-83563710D01*
X130768287Y-83563709D01*
X130768286Y-83563709D01*
X130698215Y-83553500D01*
X130698209Y-83553500D01*
X130620892Y-83553500D01*
X130590521Y-83544582D01*
X130559704Y-83537352D01*
X130557244Y-83534810D01*
X130553853Y-83533815D01*
X130533132Y-83509902D01*
X130511108Y-83487150D01*
X130510412Y-83483681D01*
X130508098Y-83481011D01*
X130503593Y-83449686D01*
X130497368Y-83418645D01*
X130498529Y-83414466D01*
X130498154Y-83411853D01*
X130505430Y-83384284D01*
X130507272Y-83379577D01*
X130538433Y-83315840D01*
X130542105Y-83290629D01*
X130547295Y-83277379D01*
X130560319Y-83260557D01*
X130569193Y-83241220D01*
X130581283Y-83233481D01*
X130590070Y-83222133D01*
X130610121Y-83215023D01*
X130628041Y-83203554D01*
X130642930Y-83203390D01*
X130655922Y-83198784D01*
X130674096Y-83203048D01*
X130694846Y-83202820D01*
X130758590Y-83219900D01*
X130758593Y-83219900D01*
X130861408Y-83219900D01*
X130861410Y-83219900D01*
X130960728Y-83193288D01*
X131049773Y-83141878D01*
X131122478Y-83069173D01*
X131173888Y-82980128D01*
X131200500Y-82880810D01*
X131200500Y-82777990D01*
X131173888Y-82678672D01*
X131135380Y-82611974D01*
X131122480Y-82589630D01*
X131122476Y-82589625D01*
X131049774Y-82516923D01*
X131049769Y-82516919D01*
X130960730Y-82465513D01*
X130960729Y-82465512D01*
X130960728Y-82465512D01*
X130861410Y-82438900D01*
X130758590Y-82438900D01*
X130659272Y-82465512D01*
X130659269Y-82465513D01*
X130578255Y-82512287D01*
X130516255Y-82528900D01*
X130169538Y-82528900D01*
X130115890Y-82543275D01*
X130083797Y-82547500D01*
X129734258Y-82547500D01*
X129688192Y-82554211D01*
X129665157Y-82557567D01*
X129558569Y-82609676D01*
X129558568Y-82609678D01*
X129507681Y-82660565D01*
X129446358Y-82694050D01*
X129376666Y-82689066D01*
X129320733Y-82647194D01*
X129296316Y-82581730D01*
X129296000Y-82572884D01*
X129296000Y-81018665D01*
X129315685Y-80951626D01*
X129332313Y-80930989D01*
X129428177Y-80835125D01*
X129489496Y-80801643D01*
X129559188Y-80806627D01*
X129615122Y-80848498D01*
X129639539Y-80913962D01*
X129638560Y-80940681D01*
X129632499Y-80982283D01*
X129632499Y-80982284D01*
X129632499Y-80982287D01*
X129632499Y-81445711D01*
X129638653Y-81487951D01*
X129642708Y-81515784D01*
X129642708Y-81515785D01*
X129642709Y-81515787D01*
X129642709Y-81515789D01*
X129695547Y-81623870D01*
X129695549Y-81623873D01*
X129780623Y-81708947D01*
X129780626Y-81708949D01*
X129884200Y-81759582D01*
X129888713Y-81761789D01*
X129958784Y-81771998D01*
X130347213Y-81771997D01*
X130362343Y-81769792D01*
X130380218Y-81768498D01*
X130446561Y-81768498D01*
X130917080Y-81768498D01*
X130984119Y-81788183D01*
X131029874Y-81840987D01*
X131031639Y-81845041D01*
X131032130Y-81846226D01*
X131076446Y-81912550D01*
X131142768Y-81956865D01*
X131142769Y-81956866D01*
X131201246Y-81968497D01*
X131201249Y-81968498D01*
X131201251Y-81968498D01*
X132240749Y-81968498D01*
X132240750Y-81968497D01*
X132255567Y-81965550D01*
X132299228Y-81956866D01*
X132299228Y-81956865D01*
X132299230Y-81956865D01*
X132365551Y-81912550D01*
X132409866Y-81846229D01*
X132409866Y-81846227D01*
X132409867Y-81846227D01*
X132421498Y-81787750D01*
X132421499Y-81787748D01*
X132421499Y-81148247D01*
X132421498Y-81148245D01*
X132409867Y-81089768D01*
X132409866Y-81089767D01*
X132365551Y-81023445D01*
X132299229Y-80979130D01*
X132299228Y-80979129D01*
X132240751Y-80967498D01*
X132240747Y-80967498D01*
X131201251Y-80967498D01*
X131201246Y-80967498D01*
X131142769Y-80979129D01*
X131142768Y-80979130D01*
X131076446Y-81023445D01*
X131032130Y-81089769D01*
X131031639Y-81090955D01*
X131029877Y-81093140D01*
X131025347Y-81099921D01*
X131024740Y-81099515D01*
X131019097Y-81106517D01*
X131010793Y-81124701D01*
X130997620Y-81133166D01*
X130987796Y-81145357D01*
X130968830Y-81151668D01*
X130952015Y-81162475D01*
X130924446Y-81166438D01*
X130921501Y-81167419D01*
X130917080Y-81167498D01*
X130797498Y-81167498D01*
X130730459Y-81147813D01*
X130684704Y-81095009D01*
X130673498Y-81043498D01*
X130673498Y-80982284D01*
X130673039Y-80979131D01*
X130663290Y-80912212D01*
X130663288Y-80912207D01*
X130663288Y-80912206D01*
X130610450Y-80804125D01*
X130610448Y-80804122D01*
X130525376Y-80719050D01*
X130523086Y-80717415D01*
X130520703Y-80714377D01*
X130518109Y-80711783D01*
X130518422Y-80711469D01*
X130479965Y-80662440D01*
X130473410Y-80592878D01*
X130505504Y-80530816D01*
X130523086Y-80515581D01*
X130525371Y-80513948D01*
X130525374Y-80513947D01*
X130610448Y-80428873D01*
X130610450Y-80428870D01*
X130648449Y-80351142D01*
X130663290Y-80320784D01*
X130673499Y-80250713D01*
X130673498Y-80186963D01*
X130682142Y-80157522D01*
X130688667Y-80127534D01*
X130692419Y-80122521D01*
X130693182Y-80119925D01*
X130709819Y-80099280D01*
X130754285Y-80054816D01*
X130815609Y-80021332D01*
X130841964Y-80018499D01*
X131047733Y-80018499D01*
X131114772Y-80038184D01*
X131116594Y-80039376D01*
X131142768Y-80056866D01*
X131142770Y-80056866D01*
X131142771Y-80056867D01*
X131142769Y-80056867D01*
X131201246Y-80068498D01*
X131201249Y-80068499D01*
X131201251Y-80068499D01*
X132240749Y-80068499D01*
X132240750Y-80068498D01*
X132255567Y-80065551D01*
X132299228Y-80056867D01*
X132299228Y-80056866D01*
X132299230Y-80056866D01*
X132365551Y-80012551D01*
X132409866Y-79946230D01*
X132409866Y-79946228D01*
X132409867Y-79946228D01*
X132418551Y-79902567D01*
X132421499Y-79887747D01*
X132421499Y-79248251D01*
X132421499Y-79248248D01*
X132421498Y-79248246D01*
X132409867Y-79189769D01*
X132409866Y-79189768D01*
X132365551Y-79123446D01*
X132299229Y-79079131D01*
X132299228Y-79079130D01*
X132240751Y-79067499D01*
X132240747Y-79067499D01*
X132179106Y-79067499D01*
X132152389Y-79059654D01*
X132124925Y-79055036D01*
X132119325Y-79049945D01*
X132112067Y-79047814D01*
X132093834Y-79026772D01*
X132073225Y-79008037D01*
X132068949Y-78998054D01*
X132066312Y-78995010D01*
X132059331Y-78975593D01*
X132051641Y-78946892D01*
X132053304Y-78877044D01*
X132092466Y-78819181D01*
X132156694Y-78791677D01*
X132171416Y-78790800D01*
X134203500Y-78790800D01*
X134270539Y-78810485D01*
G37*
%TD.AperFunction*%
%TA.AperFunction,Conductor*%
G36*
X143423239Y-78810485D02*
G01*
X143468994Y-78863289D01*
X143480200Y-78914800D01*
X143480200Y-79577308D01*
X143460515Y-79644347D01*
X143410662Y-79688707D01*
X143360921Y-79713025D01*
X143358767Y-79714078D01*
X143274878Y-79797968D01*
X143274876Y-79797969D01*
X143222767Y-79904557D01*
X143218991Y-79930471D01*
X143212700Y-79973658D01*
X143212700Y-80351142D01*
X143220198Y-80402605D01*
X143222767Y-80420242D01*
X143274876Y-80526830D01*
X143358769Y-80610723D01*
X143465357Y-80662832D01*
X143465358Y-80662832D01*
X143465360Y-80662833D01*
X143489233Y-80666311D01*
X143552732Y-80695453D01*
X143585915Y-80741560D01*
X143640861Y-80874210D01*
X143645018Y-80884246D01*
X143645019Y-80884247D01*
X143751752Y-81069113D01*
X143751763Y-81069129D01*
X143881714Y-81238486D01*
X143881716Y-81238488D01*
X143881717Y-81238489D01*
X143929220Y-81285991D01*
X143929221Y-81285992D01*
X144533860Y-81890631D01*
X144564648Y-81921420D01*
X144570193Y-81927341D01*
X144597530Y-81958513D01*
X144701625Y-82077210D01*
X144723223Y-82101837D01*
X144733097Y-82114706D01*
X144859783Y-82304306D01*
X144867893Y-82318352D01*
X144968748Y-82522865D01*
X144974955Y-82537851D01*
X145048253Y-82753781D01*
X145052451Y-82769448D01*
X145096936Y-82993087D01*
X145099053Y-83009168D01*
X145114234Y-83240782D01*
X145114500Y-83248892D01*
X145114500Y-85058500D01*
X145094815Y-85125539D01*
X145042011Y-85171294D01*
X144990500Y-85182500D01*
X144816291Y-85182500D01*
X144749252Y-85162815D01*
X144703497Y-85110011D01*
X144696519Y-85090603D01*
X144695021Y-85085011D01*
X144688022Y-85072888D01*
X144655464Y-85016495D01*
X144655458Y-85016487D01*
X144526589Y-84887618D01*
X144493104Y-84826295D01*
X144494495Y-84767845D01*
X144510100Y-84709610D01*
X144510100Y-84606790D01*
X144483488Y-84507472D01*
X144444980Y-84440774D01*
X144432080Y-84418430D01*
X144432076Y-84418425D01*
X144359374Y-84345723D01*
X144359366Y-84345717D01*
X144279178Y-84299421D01*
X144230962Y-84248855D01*
X144217738Y-84180248D01*
X144229776Y-84137574D01*
X144239033Y-84118640D01*
X144249100Y-84049542D01*
X144249100Y-83557058D01*
X144239033Y-83487960D01*
X144236941Y-83483681D01*
X144186923Y-83381369D01*
X144103030Y-83297476D01*
X143996442Y-83245367D01*
X143979165Y-83242850D01*
X143927342Y-83235300D01*
X143927336Y-83235300D01*
X143646933Y-83235300D01*
X143579894Y-83215615D01*
X143559252Y-83198981D01*
X143177818Y-82817547D01*
X143144333Y-82756224D01*
X143141499Y-82729866D01*
X143141499Y-82393286D01*
X143138516Y-82372810D01*
X143131291Y-82323214D01*
X143131289Y-82323209D01*
X143131289Y-82323208D01*
X143078451Y-82215127D01*
X143078449Y-82215124D01*
X142993375Y-82130050D01*
X142993372Y-82130048D01*
X142885289Y-82077210D01*
X142885287Y-82077209D01*
X142885286Y-82077209D01*
X142815215Y-82067000D01*
X142815209Y-82067000D01*
X142426786Y-82067000D01*
X142377342Y-82074203D01*
X142356714Y-82077209D01*
X142356712Y-82077209D01*
X142356710Y-82077210D01*
X142356708Y-82077210D01*
X142248627Y-82130048D01*
X142248624Y-82130050D01*
X142163548Y-82215126D01*
X142159956Y-82220158D01*
X142104980Y-82263279D01*
X142035418Y-82269831D01*
X141973356Y-82237735D01*
X141968297Y-82232609D01*
X141955734Y-82219119D01*
X141935449Y-82177625D01*
X141850375Y-82092551D01*
X141827409Y-82081323D01*
X141811756Y-82064515D01*
X141805980Y-82052981D01*
X141796456Y-82044279D01*
X141789934Y-82020934D01*
X141780473Y-82002040D01*
X141781634Y-81991226D01*
X141778500Y-81980008D01*
X141778500Y-81072550D01*
X141795114Y-81010548D01*
X141801360Y-80999731D01*
X141816488Y-80973528D01*
X141843100Y-80874210D01*
X141843100Y-80771390D01*
X141816488Y-80672072D01*
X141781068Y-80610723D01*
X141765080Y-80583030D01*
X141765076Y-80583025D01*
X141692374Y-80510323D01*
X141692369Y-80510319D01*
X141603330Y-80458913D01*
X141603329Y-80458912D01*
X141512963Y-80434699D01*
X141457376Y-80402605D01*
X141281512Y-80226741D01*
X141281504Y-80226735D01*
X141212995Y-80187182D01*
X141212990Y-80187179D01*
X141187513Y-80180352D01*
X141136562Y-80166700D01*
X141136560Y-80166700D01*
X139761374Y-80166700D01*
X139694335Y-80147015D01*
X139648580Y-80094211D01*
X139638636Y-80025053D01*
X139658272Y-79973809D01*
X139687892Y-79929479D01*
X139690466Y-79925627D01*
X139690466Y-79925625D01*
X139690467Y-79925625D01*
X139702098Y-79867148D01*
X139702099Y-79867146D01*
X139702099Y-79268845D01*
X139702098Y-79268843D01*
X139690467Y-79210366D01*
X139690466Y-79210365D01*
X139646151Y-79144044D01*
X139588380Y-79105442D01*
X139578960Y-79094170D01*
X139566343Y-79086649D01*
X139557006Y-79067899D01*
X139543576Y-79051829D01*
X139541745Y-79037255D01*
X139535197Y-79024105D01*
X139537478Y-79003284D01*
X139534869Y-78982504D01*
X139541343Y-78968026D01*
X139542809Y-78954651D01*
X139556398Y-78934358D01*
X139560881Y-78924335D01*
X139564975Y-78919275D01*
X139606078Y-78878173D01*
X139625597Y-78844364D01*
X139631723Y-78836795D01*
X139652775Y-78822241D01*
X139671294Y-78804585D01*
X139682116Y-78801959D01*
X139689197Y-78797065D01*
X139704399Y-78796553D01*
X139728114Y-78790800D01*
X143356200Y-78790800D01*
X143423239Y-78810485D01*
G37*
%TD.AperFunction*%
%TA.AperFunction,Conductor*%
G36*
X136621501Y-78810485D02*
G01*
X136667256Y-78863289D01*
X136677200Y-78932447D01*
X136648175Y-78996003D01*
X136642143Y-79002481D01*
X136592847Y-79051777D01*
X136531524Y-79085262D01*
X136505166Y-79088096D01*
X135770646Y-79088096D01*
X135712169Y-79099727D01*
X135712168Y-79099728D01*
X135645846Y-79144043D01*
X135600179Y-79212390D01*
X135594087Y-79217480D01*
X135590790Y-79224702D01*
X135567662Y-79239565D01*
X135546567Y-79257195D01*
X135537192Y-79259146D01*
X135532012Y-79262476D01*
X135497077Y-79267499D01*
X135274918Y-79267499D01*
X135207879Y-79247814D01*
X135162124Y-79195010D01*
X135160359Y-79190956D01*
X135159867Y-79189770D01*
X135156539Y-79184790D01*
X135145027Y-79167561D01*
X135115551Y-79123446D01*
X135049229Y-79079131D01*
X135028306Y-79074969D01*
X135000179Y-79060255D01*
X134971297Y-79047065D01*
X134969439Y-79044173D01*
X134966396Y-79042582D01*
X134950689Y-79014999D01*
X134933523Y-78988287D01*
X134932862Y-78983690D01*
X134931823Y-78981866D01*
X134928500Y-78953352D01*
X134928500Y-78914800D01*
X134948185Y-78847761D01*
X135000989Y-78802006D01*
X135052500Y-78790800D01*
X136554462Y-78790800D01*
X136621501Y-78810485D01*
G37*
%TD.AperFunction*%
%TD*%
M02*
