M48
; DRILL file KiCad 10.0.1 date 2026-06-01T16:41:20
; FORMAT={-:-/ absolute / metric / decimal}
; #@! TF.CreationDate,2026-06-01T16:41:20+09:00
; #@! TF.GenerationSoftware,Kicad,Pcbnew,10.0.1
; #@! TF.FileFunction,Plated,1,4,PTH
FMAT,2
METRIC
; #@! TA.AperFunction,Plated,PTH,ViaDrill
T1C0.160
; #@! TA.AperFunction,Plated,PTH,ViaDrill
T2C0.300
; #@! TA.AperFunction,Plated,PTH,ComponentDrill
T3C0.500
; #@! TA.AperFunction,Plated,PTH,ComponentDrill
T4C0.600
; #@! TA.AperFunction,Plated,PTH,ComponentDrill
T5C0.737
%
G90
G05
T1
X129.238Y-90.058
X129.839Y-89.457
X130.81Y-82.829
X130.81Y-89.008
X131.674Y-79.045
X132.029Y-86.716
X132.537Y-84.48
X132.791Y-99.305
X133.274Y-78.943
X134.341Y-92.024
X134.671Y-97.257
X135.052Y-87.96
X135.154Y-90.109
X135.357Y-79.045
X135.56Y-82.321
X136.068Y-84.328
X136.599Y-104.032
X137.16Y-96.901
X137.16Y-97.384
X137.185Y-93.066
X137.185Y-94.453
X137.465Y-86.563
X137.541Y-84.099
X137.693Y-82.372
X137.922Y-100.279
X137.947Y-88.417
X138.938Y-95.275
X139.065Y-77.572
X139.116Y-93.675
X139.294Y-78.638
X139.497Y-88.189
X139.64Y-88.925
X139.725Y-90.373
X140.005Y-93.675
X140.36Y-90.551
X140.37Y-87.478
X140.437Y-87.986
X140.487Y-86.995
X140.767Y-85.623
X141.007Y-91.788
X141.402Y-84.557
X141.453Y-80.823
X142.164Y-95.098
X142.291Y-95.707
X142.418Y-84.76
X142.951Y-79.858
X142.951Y-80.391
X142.951Y-94.691
X143.027Y-93.599
X143.18Y-79.324
X143.307Y-84.709
X143.383Y-80.924
X143.815Y-81.356
X144.12Y-84.658
X144.145Y-96.139
X144.247Y-81.813
X144.374Y-79.273
X144.602Y-80.924
X144.653Y-82.347
X144.78Y-82.906
X144.882Y-83.464
X144.907Y-84.303
X144.983Y-81.356
X145.39Y-81.839
X145.669Y-82.347
X145.847Y-82.906
X145.872Y-83.464
X145.872Y-84.303
X145.898Y-84.861
X146.38Y-94.59
X146.888Y-84.201
X146.964Y-86.614
X146.99Y-89.51
X146.99Y-90.119
X148.361Y-91.669
T2
X127.559Y-92.888
X127.889Y-83.972
X129.032Y-91.186
X130.048Y-96.825
X130.251Y-88.189
X131.623Y-83.337
X131.928Y-87.63
X132.994Y-76.683
X133.35Y-80.239
X134.95Y-84.861
X135.306Y-94.437
X136.525Y-100.0
X139.294Y-83.668
X139.598Y-82.677
X142.164Y-81.483
X143.332Y-97.104
X143.662Y-89.078
X143.665Y-88.233
X144.501Y-86.716
X144.501Y-88.24
X144.501Y-89.078
X145.186Y-86.716
X145.186Y-88.24
X145.212Y-89.103
X147.599Y-97.993
T3
X138.217Y-103.458
X139.217Y-103.458
T5
X142.064Y-99.783
X142.064Y-101.283
T4
G00X128.219Y-85.596
M15
G01X129.419Y-85.596
M16
G05
G00X128.219Y-94.236
M15
G01X129.419Y-94.236
M16
G05
G00X132.419Y-85.596
M15
G01X133.219Y-85.596
M16
G05
G00X132.419Y-94.236
M15
G01X133.219Y-94.236
M16
G05
M30
