%TF.GenerationSoftware,KiCad,Pcbnew,10.0.1*%
%TF.CreationDate,2026-06-01T16:41:11+09:00*%
%TF.ProjectId,reband,72656261-6e64-42e6-9b69-6361645f7063,rev?*%
%TF.SameCoordinates,Original*%
%TF.FileFunction,Copper,L3,Inr*%
%TF.FilePolarity,Positive*%
%FSLAX46Y46*%
G04 Gerber Fmt 4.6, Leading zero omitted, Abs format (unit mm)*
G04 Created by KiCad (PCBNEW 10.0.1) date 2026-06-01 16:41:11*
%MOMM*%
%LPD*%
G01*
G04 APERTURE LIST*
%TA.AperFunction,ComponentPad*%
%ADD10R,0.850000X0.850000*%
%TD*%
%TA.AperFunction,ComponentPad*%
%ADD11C,0.850000*%
%TD*%
%TA.AperFunction,ComponentPad*%
%ADD12O,1.908000X1.108000*%
%TD*%
%TA.AperFunction,ComponentPad*%
%ADD13O,2.308000X1.108000*%
%TD*%
%TA.AperFunction,ComponentPad*%
%ADD14C,1.244600*%
%TD*%
%TA.AperFunction,ViaPad*%
%ADD15C,0.600000*%
%TD*%
%TA.AperFunction,ViaPad*%
%ADD16C,0.380000*%
%TD*%
%TA.AperFunction,Conductor*%
%ADD17C,0.400000*%
%TD*%
%TA.AperFunction,Conductor*%
%ADD18C,0.150000*%
%TD*%
%TA.AperFunction,Conductor*%
%ADD19C,0.500000*%
%TD*%
%TA.AperFunction,Conductor*%
%ADD20C,0.200000*%
%TD*%
G04 APERTURE END LIST*
D10*
%TO.N,/RST*%
%TO.C,J5*%
X138217400Y-103457600D03*
D11*
%TO.N,GND*%
X139217400Y-103457600D03*
%TD*%
D12*
%TO.N,GND*%
%TO.C,J2*%
X132818998Y-85595998D03*
D13*
X128818955Y-85595968D03*
X128818955Y-94236032D03*
D12*
X132818998Y-94236002D03*
%TD*%
D14*
%TO.N,Net-(U2-IN)*%
%TO.C,J1*%
X142063700Y-101283200D03*
%TO.N,GND*%
X142063700Y-99783199D03*
%TD*%
D15*
%TO.N,GND*%
X143332200Y-97104200D03*
X133350000Y-80238600D03*
X131622800Y-83337400D03*
X130251200Y-88188800D03*
X131927600Y-87630000D03*
X142163800Y-81483200D03*
X139598400Y-82677000D03*
X144500600Y-86715600D03*
X145186400Y-86715600D03*
X144500600Y-88239600D03*
X145211800Y-89103200D03*
X145186400Y-88239600D03*
X144500600Y-89077800D03*
X143662400Y-89077800D03*
X143665000Y-88233000D03*
X129032000Y-91186000D03*
X127558800Y-92887800D03*
D16*
%TO.N,+3.3V*%
X144119600Y-84658200D03*
%TO.N,GND*%
X144373600Y-79273400D03*
X143179800Y-79324200D03*
X142951200Y-79857600D03*
X142951200Y-80391000D03*
X143383000Y-80924400D03*
X143814800Y-81356200D03*
X144246600Y-81813400D03*
X144653000Y-82346800D03*
X144780000Y-82905600D03*
X144881600Y-83464400D03*
X144907000Y-84302600D03*
X145897600Y-84861400D03*
X145872200Y-84302600D03*
X145872200Y-83464400D03*
X145846800Y-82905600D03*
X145669000Y-82346800D03*
X145389600Y-81838800D03*
X144983200Y-81356200D03*
X144602200Y-80924400D03*
D15*
%TO.N,Net-(C10-Pad1)*%
X147599400Y-97993200D03*
%TO.N,/RST*%
X132994400Y-76682600D03*
X136525000Y-99999800D03*
%TO.N,Net-(C11-Pad1)*%
X135305800Y-94437200D03*
X130048000Y-96824800D03*
D16*
%TO.N,GND*%
X132537200Y-84480400D03*
X144145000Y-96139000D03*
X142951200Y-94691200D03*
X135154000Y-90109000D03*
X133273800Y-78943200D03*
X135356600Y-79044800D03*
X132029200Y-86715600D03*
X135051800Y-87960200D03*
D15*
%TO.N,+5V*%
X139293600Y-83667600D03*
X134950200Y-84861400D03*
D16*
X134340600Y-92024200D03*
%TO.N,/USB_D+*%
X129839395Y-89456672D03*
%TO.N,/USB_D-*%
X129238353Y-90057714D03*
X130810000Y-89007713D03*
%TO.N,/GPIO8*%
X148361400Y-91668600D03*
X139639800Y-88925400D03*
%TO.N,+3.3V*%
X141007094Y-91787999D03*
X134670800Y-97256600D03*
X140369800Y-87477600D03*
X146964400Y-86614000D03*
X137947400Y-88417400D03*
X132791200Y-99305300D03*
X141452600Y-80822800D03*
X137160000Y-97383600D03*
%TO.N,+1V8*%
X138938000Y-95275400D03*
X139293600Y-78638400D03*
D15*
%TO.N,Net-(U2-IN)*%
X127889000Y-83972400D03*
D16*
X131673600Y-79044800D03*
X136067800Y-84328000D03*
%TO.N,Net-(U4-VSS)*%
X137464800Y-86563200D03*
X130810000Y-82829400D03*
%TO.N,/RST*%
X136598689Y-104031889D03*
X142417800Y-84759800D03*
X139065000Y-77571600D03*
%TO.N,/BOOT*%
X139725400Y-90373200D03*
X146888200Y-84201000D03*
%TO.N,/SDA*%
X142163800Y-95097600D03*
X143306800Y-84709000D03*
%TO.N,/SCL*%
X141401800Y-84556600D03*
X140004800Y-93675200D03*
X142290800Y-95707200D03*
%TO.N,/GSR_INT*%
X140766800Y-85623400D03*
X146380200Y-94589600D03*
%TO.N,/PPG_INT*%
X140487400Y-86995000D03*
X139115800Y-93675200D03*
X140360400Y-90551000D03*
%TO.N,/BNO_INT*%
X140436600Y-87985600D03*
X137922000Y-100279200D03*
%TO.N,/1.8V_CTRL*%
X137693400Y-82372200D03*
X139496800Y-88188800D03*
%TO.N,/D-*%
X146989800Y-90119200D03*
%TO.N,/D+*%
X146989800Y-89509600D03*
%TO.N,Net-(U3-EL4)*%
X137185400Y-94453000D03*
X143027400Y-93599000D03*
%TO.N,Net-(U3-EL3A)*%
X137185400Y-93065600D03*
%TO.N,Net-(U3-VREF)*%
X137160000Y-96901000D03*
%TO.N,Net-(U4-ISET)*%
X137541000Y-84099400D03*
X135559800Y-82321400D03*
%TD*%
%TO.N,+5V*%
D17*
X137795000Y-85242400D02*
X137795000Y-85039200D01*
X137160000Y-85877400D02*
X137795000Y-85242400D01*
X134950200Y-84861400D02*
X135966200Y-85877400D01*
X135966200Y-85877400D02*
X137160000Y-85877400D01*
X137795000Y-85039200D02*
X139166600Y-83667600D01*
X139166600Y-83667600D02*
X139293600Y-83667600D01*
%TO.N,+3.3V*%
D18*
X137947400Y-88417400D02*
X137947400Y-88061800D01*
X138531600Y-87477600D02*
X140369800Y-87477600D01*
X137947400Y-88061800D02*
X138531600Y-87477600D01*
%TO.N,Net-(U2-IN)*%
D19*
X130810000Y-86487000D02*
X130835400Y-86487000D01*
X130835400Y-84353400D02*
X129819400Y-83337400D01*
X127762000Y-88442800D02*
X128778000Y-87426800D01*
X136335200Y-101283200D02*
X130708400Y-95656400D01*
X128778000Y-87426800D02*
X129870200Y-87426800D01*
X129819400Y-83337400D02*
X128524000Y-83337400D01*
X129870200Y-87426800D02*
X130810000Y-86487000D01*
X127762000Y-90754200D02*
X127762000Y-88442800D01*
X130708400Y-93700600D02*
X127762000Y-90754200D01*
X128524000Y-83337400D02*
X127889000Y-83972400D01*
X130835400Y-86487000D02*
X130835400Y-84353400D01*
X130708400Y-95656400D02*
X130708400Y-93700600D01*
X142063700Y-101283200D02*
X136335200Y-101283200D01*
%TO.N,/SDA*%
D20*
X142900400Y-85166200D02*
X143306800Y-84759800D01*
X140741400Y-92760800D02*
X142900400Y-90601800D01*
X142163800Y-95097600D02*
X140741400Y-93675200D01*
X140741400Y-93675200D02*
X140741400Y-92760800D01*
X143306800Y-84759800D02*
X143306800Y-84709000D01*
X142900400Y-90601800D02*
X142900400Y-85166200D01*
%TO.N,/SCL*%
X140004800Y-93675200D02*
X140004800Y-92024200D01*
X141960600Y-90068400D02*
X141960600Y-85115400D01*
X141960600Y-85115400D02*
X141401800Y-84556600D01*
X140004800Y-94132400D02*
X140004800Y-93675200D01*
X142290800Y-95707200D02*
X141579600Y-95707200D01*
X140004800Y-92024200D02*
X141960600Y-90068400D01*
X141579600Y-95707200D02*
X140004800Y-94132400D01*
%TO.N,/BNO_INT*%
D18*
X138303000Y-91084400D02*
X138303000Y-99898200D01*
X140258800Y-88163400D02*
X140258800Y-89128600D01*
X140436600Y-87985600D02*
X140258800Y-88163400D01*
X140258800Y-89128600D02*
X138303000Y-91084400D01*
X138303000Y-99898200D02*
X137922000Y-100279200D01*
%TD*%
M02*
