M48
; DRILL file KiCad 10.0.1 date 2026-06-08T16:40:33
; FORMAT={-:-/ absolute / metric / decimal}
; #@! TF.CreationDate,2026-06-08T16:40:33+09:00
; #@! TF.GenerationSoftware,Kicad,Pcbnew,10.0.1
; #@! TF.FileFunction,Plated,1,4,PTH
FMAT,2
METRIC
; #@! TA.AperFunction,Plated,PTH,ViaDrill
T1C0.160
; #@! TA.AperFunction,Plated,PTH,ViaDrill
T2C0.300
; #@! TA.AperFunction,Plated,PTH,ComponentDrill
T3C0.500
; #@! TA.AperFunction,Plated,PTH,ComponentDrill
T4C0.600
; #@! TA.AperFunction,Plated,PTH,ComponentDrill
T5C0.737
%
G90
G05
T1
X130.81Y-82.829
X132.537Y-84.074
X132.69Y-78.537
X132.791Y-99.305
X133.54Y-78.689
X134.671Y-97.257
X135.052Y-87.96
X135.154Y-90.109
X135.56Y-82.321
X135.623Y-78.791
X136.068Y-84.328
X136.601Y-94.386
X137.16Y-96.901
X137.16Y-97.384
X137.185Y-93.066
X137.465Y-86.563
X137.541Y-84.099
X137.693Y-82.372
X137.922Y-100.279
X137.947Y-88.417
X138.76Y-80.213
X138.938Y-95.275
X139.116Y-93.675
X139.332Y-77.318
X139.497Y-88.189
X139.56Y-78.384
X139.64Y-88.925
X139.725Y-90.373
X140.005Y-93.675
X140.081Y-84.074
X140.36Y-90.551
X140.37Y-87.478
X140.437Y-87.986
X140.487Y-86.995
X140.767Y-85.623
X141.007Y-91.788
X141.402Y-84.557
X142.164Y-95.098
X142.291Y-95.707
X142.418Y-84.76
X142.951Y-94.691
X143.027Y-93.599
X143.307Y-84.709
X144.12Y-84.658
X144.145Y-96.139
X144.437Y-98.209
X144.678Y-79.756
X144.78Y-80.391
X144.78Y-81.026
X144.78Y-81.661
X144.78Y-82.296
X144.78Y-82.906
X144.78Y-83.531
X144.78Y-84.328
X145.898Y-84.303
X145.898Y-84.861
X145.923Y-98.781
X146.304Y-80.391
X146.304Y-81.026
X146.304Y-81.661
X146.304Y-82.296
X146.38Y-94.59
X146.888Y-84.201
X146.964Y-86.614
X146.99Y-89.51
X146.99Y-90.119
X147.006Y-88.544
X147.015Y-89.027
X148.361Y-91.669
T2
X128.372Y-92.558
X128.575Y-95.758
X128.829Y-83.947
X130.048Y-96.825
X130.302Y-82.093
X130.658Y-87.986
X130.658Y-89.002
X131.064Y-91.389
X131.572Y-83.058
X131.623Y-77.724
X132.029Y-90.272
X133.617Y-79.985
X134.518Y-90.678
X134.671Y-91.948
X134.823Y-89.306
X134.95Y-84.861
X135.306Y-94.437
X136.525Y-100.0
X139.141Y-82.347
X139.294Y-83.668
X139.802Y-82.956
X143.332Y-97.104
X143.662Y-89.078
X143.665Y-88.233
X144.501Y-86.716
X144.501Y-88.24
X144.501Y-89.078
X145.186Y-86.716
X145.186Y-88.24
X145.212Y-89.103
X147.168Y-98.146
X147.625Y-80.213
X149.911Y-91.592
X151.384Y-86.055
T3
X138.217Y-103.458
X139.217Y-103.458
T5
X142.064Y-99.783
X142.064Y-101.283
T4
G00X128.219Y-85.222
M15
G01X129.419Y-85.222
M16
G05
G00X128.219Y-93.862
M15
G01X129.419Y-93.862
M16
G05
G00X132.419Y-85.222
M15
G01X133.219Y-85.222
M16
G05
G00X132.419Y-93.862
M15
G01X133.219Y-93.862
M16
G05
M30
