%TF.GenerationSoftware,KiCad,Pcbnew,10.0.1*%
%TF.CreationDate,2026-06-01T16:41:11+09:00*%
%TF.ProjectId,reband,72656261-6e64-42e6-9b69-6361645f7063,rev?*%
%TF.SameCoordinates,Original*%
%TF.FileFunction,Copper,L2,Inr*%
%TF.FilePolarity,Positive*%
%FSLAX46Y46*%
G04 Gerber Fmt 4.6, Leading zero omitted, Abs format (unit mm)*
G04 Created by KiCad (PCBNEW 10.0.1) date 2026-06-01 16:41:11*
%MOMM*%
%LPD*%
G01*
G04 APERTURE LIST*
%TA.AperFunction,ComponentPad*%
%ADD10R,0.850000X0.850000*%
%TD*%
%TA.AperFunction,ComponentPad*%
%ADD11C,0.850000*%
%TD*%
%TA.AperFunction,ComponentPad*%
%ADD12O,1.908000X1.108000*%
%TD*%
%TA.AperFunction,ComponentPad*%
%ADD13O,2.308000X1.108000*%
%TD*%
%TA.AperFunction,ComponentPad*%
%ADD14C,1.244600*%
%TD*%
%TA.AperFunction,ViaPad*%
%ADD15C,0.600000*%
%TD*%
%TA.AperFunction,ViaPad*%
%ADD16C,0.380000*%
%TD*%
%TA.AperFunction,ViaPad*%
%ADD17C,0.254000*%
%TD*%
%TA.AperFunction,Conductor*%
%ADD18C,0.200000*%
%TD*%
%TA.AperFunction,Conductor*%
%ADD19C,0.150000*%
%TD*%
G04 APERTURE END LIST*
D10*
%TO.N,/RST*%
%TO.C,J5*%
X138217400Y-103457600D03*
D11*
%TO.N,GND*%
X139217400Y-103457600D03*
%TD*%
D12*
%TO.N,GND*%
%TO.C,J2*%
X132818998Y-85595998D03*
D13*
X128818955Y-85595968D03*
X128818955Y-94236032D03*
D12*
X132818998Y-94236002D03*
%TD*%
D14*
%TO.N,Net-(U2-IN)*%
%TO.C,J1*%
X142063700Y-101283200D03*
%TO.N,GND*%
X142063700Y-99783199D03*
%TD*%
D15*
%TO.N,GND*%
X143332200Y-97104200D03*
X133350000Y-80238600D03*
X131622800Y-83337400D03*
X130251200Y-88188800D03*
X131927600Y-87630000D03*
X142163800Y-81483200D03*
X139598400Y-82677000D03*
X144500600Y-86715600D03*
X145186400Y-86715600D03*
X144500600Y-88239600D03*
X145211800Y-89103200D03*
X145186400Y-88239600D03*
X144500600Y-89077800D03*
X143662400Y-89077800D03*
X143665000Y-88233000D03*
X129032000Y-91186000D03*
X127558800Y-92887800D03*
D16*
%TO.N,+3.3V*%
X144119600Y-84658200D03*
%TO.N,GND*%
X144373600Y-79273400D03*
X143179800Y-79324200D03*
X142951200Y-79857600D03*
X142951200Y-80391000D03*
X143383000Y-80924400D03*
X143814800Y-81356200D03*
X144246600Y-81813400D03*
X144653000Y-82346800D03*
X144780000Y-82905600D03*
X144881600Y-83464400D03*
X144907000Y-84302600D03*
X145897600Y-84861400D03*
X145872200Y-84302600D03*
X145872200Y-83464400D03*
X145846800Y-82905600D03*
X145669000Y-82346800D03*
X145389600Y-81838800D03*
X144983200Y-81356200D03*
X144602200Y-80924400D03*
D15*
%TO.N,Net-(C10-Pad1)*%
X147599400Y-97993200D03*
%TO.N,/RST*%
X132994400Y-76682600D03*
X136525000Y-99999800D03*
%TO.N,Net-(C11-Pad1)*%
X135305800Y-94437200D03*
X130048000Y-96824800D03*
D16*
%TO.N,GND*%
X132537200Y-84480400D03*
X144145000Y-96139000D03*
X142951200Y-94691200D03*
X135154000Y-90109000D03*
X133273800Y-78943200D03*
D17*
X144741898Y-93790912D03*
D16*
X135356600Y-79044800D03*
X132029200Y-86715600D03*
X135051800Y-87960200D03*
D15*
%TO.N,+5V*%
X139293600Y-83667600D03*
X134950200Y-84861400D03*
D16*
X134340600Y-92024200D03*
%TO.N,/USB_D+*%
X129839395Y-89456672D03*
%TO.N,/USB_D-*%
X129238353Y-90057714D03*
X130810000Y-89007713D03*
%TO.N,/GPIO8*%
X148361400Y-91668600D03*
X139639800Y-88925400D03*
%TO.N,+3.3V*%
X141007094Y-91787999D03*
X134670800Y-97256600D03*
X140369800Y-87477600D03*
X146964400Y-86614000D03*
X137947400Y-88417400D03*
X132791200Y-99305300D03*
X141452600Y-80822800D03*
X137160000Y-97383600D03*
%TO.N,+1V8*%
X138938000Y-95275400D03*
X139293600Y-78638400D03*
D15*
%TO.N,Net-(U2-IN)*%
X127889000Y-83972400D03*
D16*
X131673600Y-79044800D03*
X136067800Y-84328000D03*
%TO.N,Net-(U4-VSS)*%
X137464800Y-86563200D03*
X130810000Y-82829400D03*
%TO.N,/RST*%
X136598689Y-104031889D03*
X142417800Y-84759800D03*
X139065000Y-77571600D03*
%TO.N,/BOOT*%
X139725400Y-90373200D03*
X146888200Y-84201000D03*
%TO.N,/SDA*%
X142163800Y-95097600D03*
X143306800Y-84709000D03*
%TO.N,/SCL*%
X141401800Y-84556600D03*
X140004800Y-93675200D03*
X142290800Y-95707200D03*
%TO.N,/GSR_INT*%
X140766800Y-85623400D03*
X146380200Y-94589600D03*
%TO.N,/PPG_INT*%
X140487400Y-86995000D03*
X139115800Y-93675200D03*
X140360400Y-90551000D03*
%TO.N,/BNO_INT*%
X140436600Y-87985600D03*
X137922000Y-100279200D03*
%TO.N,/1.8V_CTRL*%
X137693400Y-82372200D03*
X139496800Y-88188800D03*
%TO.N,/D-*%
X146989800Y-90119200D03*
%TO.N,/D+*%
X146989800Y-89509600D03*
%TO.N,Net-(U3-EL4)*%
X137185400Y-94453000D03*
X143027400Y-93599000D03*
%TO.N,Net-(U3-EL3A)*%
X137185400Y-93065600D03*
D17*
X144341800Y-93389450D03*
D16*
%TO.N,Net-(U3-VREF)*%
X137160000Y-96901000D03*
D17*
X144341795Y-93790275D03*
D16*
%TO.N,Net-(U4-ISET)*%
X137541000Y-84099400D03*
X135559800Y-82321400D03*
%TD*%
%TO.N,Net-(C11-Pad1)*%
D18*
X132918200Y-96824800D02*
X135305800Y-94437200D01*
X130048000Y-96824800D02*
X132918200Y-96824800D01*
%TO.N,GND*%
X144741898Y-93790912D02*
X144741898Y-95542102D01*
X144741898Y-95542102D02*
X144145000Y-96139000D01*
%TO.N,/GPIO8*%
D19*
X139115800Y-89357200D02*
X139115800Y-90906600D01*
X139547600Y-88925400D02*
X139115800Y-89357200D01*
X139639800Y-88925400D02*
X139547600Y-88925400D01*
X139522200Y-91313000D02*
X148005800Y-91313000D01*
X139115800Y-90906600D02*
X139522200Y-91313000D01*
X148005800Y-91313000D02*
X148361400Y-91668600D01*
%TO.N,/BOOT*%
X139725400Y-89865200D02*
X140004800Y-89585800D01*
X140182600Y-88392000D02*
X140004800Y-88214200D01*
X140182600Y-89052400D02*
X140182600Y-88392000D01*
X140004800Y-89585800D02*
X140004800Y-89230200D01*
X140004800Y-84150200D02*
X140258800Y-83896200D01*
X146583400Y-83896200D02*
X146888200Y-84201000D01*
X140004800Y-88214200D02*
X140004800Y-84150200D01*
X139725400Y-90373200D02*
X139725400Y-89865200D01*
X140004800Y-89230200D02*
X140182600Y-89052400D01*
%TO.N,/PPG_INT*%
X140360400Y-90551000D02*
X140360400Y-89509600D01*
X140360400Y-89509600D02*
X140843000Y-89027000D01*
X140843000Y-87350600D02*
X140487400Y-86995000D01*
X140843000Y-89027000D02*
X140843000Y-87350600D01*
%TO.N,Net-(U3-EL4)*%
D18*
X137185400Y-94437200D02*
X137185400Y-94453000D01*
X143027400Y-93599000D02*
X142189200Y-94437200D01*
X142189200Y-94437200D02*
X137185400Y-94437200D01*
%TO.N,Net-(U3-EL3A)*%
X144341800Y-93389450D02*
X144340527Y-93389450D01*
X144016677Y-93065600D02*
X137185400Y-93065600D01*
X144340527Y-93389450D02*
X144016677Y-93065600D01*
%TO.N,Net-(U3-VREF)*%
X141935200Y-96901000D02*
X137160000Y-96901000D01*
X144341795Y-93790275D02*
X144341795Y-94494405D01*
X144341795Y-94494405D02*
X141935200Y-96901000D01*
%TO.N,/BOOT*%
D19*
X140258800Y-83896200D02*
X146583400Y-83896200D01*
%TD*%
%TA.AperFunction,Conductor*%
%TO.N,+3.3V*%
G36*
X131242823Y-78810485D02*
G01*
X131288578Y-78863289D01*
X131298522Y-78932447D01*
X131295559Y-78946889D01*
X131283100Y-78993390D01*
X131283100Y-79096210D01*
X131303802Y-79173469D01*
X131309712Y-79195527D01*
X131309713Y-79195530D01*
X131361119Y-79284569D01*
X131361121Y-79284572D01*
X131361122Y-79284573D01*
X131433827Y-79357278D01*
X131433828Y-79357279D01*
X131433830Y-79357280D01*
X131465577Y-79375609D01*
X131522872Y-79408688D01*
X131622190Y-79435300D01*
X131622192Y-79435300D01*
X131725008Y-79435300D01*
X131725010Y-79435300D01*
X131824328Y-79408688D01*
X131913373Y-79357278D01*
X131986078Y-79284573D01*
X132037488Y-79195528D01*
X132064100Y-79096210D01*
X132064100Y-78993390D01*
X132051641Y-78946892D01*
X132053304Y-78877043D01*
X132092467Y-78819181D01*
X132156695Y-78791677D01*
X132171416Y-78790800D01*
X132759300Y-78790800D01*
X132826339Y-78810485D01*
X132872094Y-78863289D01*
X132883300Y-78914800D01*
X132883300Y-78994610D01*
X132905310Y-79076751D01*
X132909912Y-79093927D01*
X132909913Y-79093930D01*
X132961319Y-79182969D01*
X132961321Y-79182972D01*
X132961322Y-79182973D01*
X133034027Y-79255678D01*
X133123072Y-79307088D01*
X133222390Y-79333700D01*
X133222392Y-79333700D01*
X133325208Y-79333700D01*
X133325210Y-79333700D01*
X133424528Y-79307088D01*
X133513573Y-79255678D01*
X133586278Y-79182973D01*
X133637688Y-79093928D01*
X133664300Y-78994610D01*
X133664300Y-78914800D01*
X133683985Y-78847761D01*
X133736789Y-78802006D01*
X133788300Y-78790800D01*
X134858784Y-78790800D01*
X134925823Y-78810485D01*
X134971578Y-78863289D01*
X134981522Y-78932447D01*
X134978559Y-78946889D01*
X134966100Y-78993390D01*
X134966100Y-79096210D01*
X134986802Y-79173469D01*
X134992712Y-79195527D01*
X134992713Y-79195530D01*
X135044119Y-79284569D01*
X135044121Y-79284572D01*
X135044122Y-79284573D01*
X135116827Y-79357278D01*
X135116828Y-79357279D01*
X135116830Y-79357280D01*
X135148577Y-79375609D01*
X135205872Y-79408688D01*
X135305190Y-79435300D01*
X135305192Y-79435300D01*
X135408008Y-79435300D01*
X135408010Y-79435300D01*
X135507328Y-79408688D01*
X135596373Y-79357278D01*
X135669078Y-79284573D01*
X135720488Y-79195528D01*
X135747100Y-79096210D01*
X135747100Y-78993390D01*
X135734641Y-78946892D01*
X135736304Y-78877043D01*
X135775467Y-78819181D01*
X135839695Y-78791677D01*
X135854416Y-78790800D01*
X138859086Y-78790800D01*
X138926125Y-78810485D01*
X138966472Y-78852799D01*
X138981122Y-78878173D01*
X139053827Y-78950878D01*
X139053828Y-78950879D01*
X139053830Y-78950880D01*
X139098349Y-78976583D01*
X139142872Y-79002288D01*
X139242190Y-79028900D01*
X139242192Y-79028900D01*
X139345008Y-79028900D01*
X139345010Y-79028900D01*
X139444328Y-79002288D01*
X139533373Y-78950878D01*
X139606078Y-78878173D01*
X139620727Y-78852799D01*
X139671294Y-78804585D01*
X139728114Y-78790800D01*
X142862646Y-78790800D01*
X142929685Y-78810485D01*
X142975440Y-78863289D01*
X142985384Y-78932447D01*
X142956359Y-78996003D01*
X142945751Y-79005997D01*
X142867323Y-79084425D01*
X142867319Y-79084430D01*
X142815913Y-79173469D01*
X142815912Y-79173472D01*
X142789300Y-79272790D01*
X142789300Y-79375610D01*
X142793577Y-79391571D01*
X142791912Y-79461421D01*
X142752748Y-79519283D01*
X142735802Y-79531049D01*
X142711427Y-79545121D01*
X142638723Y-79617825D01*
X142638719Y-79617830D01*
X142587313Y-79706869D01*
X142587312Y-79706872D01*
X142560700Y-79806190D01*
X142560700Y-79909010D01*
X142573418Y-79956472D01*
X142587312Y-80008327D01*
X142587312Y-80008328D01*
X142618473Y-80062301D01*
X142634944Y-80130201D01*
X142618473Y-80186299D01*
X142587312Y-80240271D01*
X142587312Y-80240272D01*
X142560700Y-80339590D01*
X142560700Y-80442410D01*
X142563708Y-80453634D01*
X142587312Y-80541727D01*
X142587313Y-80541730D01*
X142638719Y-80630769D01*
X142638721Y-80630772D01*
X142638722Y-80630773D01*
X142711427Y-80703478D01*
X142711428Y-80703479D01*
X142711430Y-80703480D01*
X142714049Y-80704992D01*
X142800472Y-80754888D01*
X142899790Y-80781500D01*
X142899794Y-80781500D01*
X142900593Y-80781714D01*
X142960253Y-80818078D01*
X142990783Y-80880925D01*
X142992500Y-80901489D01*
X142992500Y-80975810D01*
X143008444Y-81035312D01*
X143019112Y-81075127D01*
X143019113Y-81075130D01*
X143070519Y-81164169D01*
X143070521Y-81164172D01*
X143070522Y-81164173D01*
X143143227Y-81236878D01*
X143232272Y-81288288D01*
X143331590Y-81314900D01*
X143331592Y-81314900D01*
X143335555Y-81315962D01*
X143395216Y-81352327D01*
X143423237Y-81403643D01*
X143450912Y-81506929D01*
X143450913Y-81506930D01*
X143502319Y-81595969D01*
X143502321Y-81595972D01*
X143502322Y-81595973D01*
X143575027Y-81668678D01*
X143575028Y-81668679D01*
X143575030Y-81668680D01*
X143588379Y-81676387D01*
X143664072Y-81720088D01*
X143763390Y-81746700D01*
X143763394Y-81746700D01*
X143764193Y-81746914D01*
X143823853Y-81783278D01*
X143854383Y-81846125D01*
X143855670Y-81861547D01*
X143856100Y-81864809D01*
X143856100Y-81864810D01*
X143880940Y-81957512D01*
X143882712Y-81964127D01*
X143882713Y-81964130D01*
X143934119Y-82053169D01*
X143934121Y-82053172D01*
X143934122Y-82053173D01*
X144006827Y-82125878D01*
X144006828Y-82125879D01*
X144006830Y-82125880D01*
X144037065Y-82143336D01*
X144095872Y-82177288D01*
X144170595Y-82197309D01*
X144230253Y-82233672D01*
X144260783Y-82296519D01*
X144262500Y-82317083D01*
X144262500Y-82398210D01*
X144285438Y-82483814D01*
X144289112Y-82497527D01*
X144289113Y-82497530D01*
X144340519Y-82586569D01*
X144340523Y-82586574D01*
X144385081Y-82631132D01*
X144418566Y-82692455D01*
X144417175Y-82750906D01*
X144416112Y-82754871D01*
X144416112Y-82754872D01*
X144389500Y-82854190D01*
X144389500Y-82957010D01*
X144412870Y-83044226D01*
X144416112Y-83056327D01*
X144416113Y-83056330D01*
X144467519Y-83145369D01*
X144467523Y-83145374D01*
X144493718Y-83171569D01*
X144527203Y-83232892D01*
X144528403Y-83279316D01*
X144524775Y-83301437D01*
X144517712Y-83313672D01*
X144491100Y-83412990D01*
X144491100Y-83506801D01*
X144489466Y-83516766D01*
X144478526Y-83539520D01*
X144471415Y-83563739D01*
X144463646Y-83570470D01*
X144459192Y-83579736D01*
X144437688Y-83592963D01*
X144418611Y-83609494D01*
X144406548Y-83612118D01*
X144399680Y-83616343D01*
X144388171Y-83616115D01*
X144367100Y-83620700D01*
X140203999Y-83620700D01*
X140161769Y-83638192D01*
X140161766Y-83638193D01*
X140146026Y-83644714D01*
X140102741Y-83662643D01*
X140000534Y-83764849D01*
X139994699Y-83769434D01*
X139968867Y-83779759D01*
X139944458Y-83793088D01*
X139936878Y-83792545D01*
X139929821Y-83795367D01*
X139902511Y-83790088D01*
X139874766Y-83788104D01*
X139868681Y-83783549D01*
X139861221Y-83782107D01*
X139841102Y-83762902D01*
X139818833Y-83746232D01*
X139816177Y-83739111D01*
X139810680Y-83733864D01*
X139804137Y-83706832D01*
X139794416Y-83680768D01*
X139794100Y-83671922D01*
X139794100Y-83601710D01*
X139794100Y-83601708D01*
X139759992Y-83474414D01*
X139694100Y-83360286D01*
X139694095Y-83360281D01*
X139689153Y-83353840D01*
X139690609Y-83352722D01*
X139662025Y-83300373D01*
X139667009Y-83230681D01*
X139708881Y-83174748D01*
X139751095Y-83154241D01*
X139791586Y-83143392D01*
X139905714Y-83077500D01*
X139998900Y-82984314D01*
X140064792Y-82870186D01*
X140098900Y-82742892D01*
X140098900Y-82611108D01*
X140064792Y-82483814D01*
X140058044Y-82472127D01*
X140038861Y-82438900D01*
X139998900Y-82369686D01*
X139905714Y-82276500D01*
X139831534Y-82233672D01*
X139791587Y-82210608D01*
X139727939Y-82193554D01*
X139664292Y-82176500D01*
X139532508Y-82176500D01*
X139405212Y-82210608D01*
X139291086Y-82276500D01*
X139291083Y-82276502D01*
X139197902Y-82369683D01*
X139197900Y-82369686D01*
X139132008Y-82483812D01*
X139106066Y-82580632D01*
X139097900Y-82611108D01*
X139097900Y-82742892D01*
X139111893Y-82795116D01*
X139132008Y-82870187D01*
X139143170Y-82889519D01*
X139197900Y-82984314D01*
X139197902Y-82984316D01*
X139202847Y-82990760D01*
X139201389Y-82991878D01*
X139229974Y-83044226D01*
X139224990Y-83113918D01*
X139183118Y-83169851D01*
X139140904Y-83190358D01*
X139100414Y-83201207D01*
X138986286Y-83267100D01*
X138986283Y-83267102D01*
X138893102Y-83360283D01*
X138893100Y-83360286D01*
X138827208Y-83474412D01*
X138809763Y-83539520D01*
X138793100Y-83601708D01*
X138793100Y-83733492D01*
X138805351Y-83779212D01*
X138827208Y-83860787D01*
X138843221Y-83888522D01*
X138893100Y-83974914D01*
X138986286Y-84068100D01*
X139100414Y-84133992D01*
X139227708Y-84168100D01*
X139227710Y-84168100D01*
X139359490Y-84168100D01*
X139359492Y-84168100D01*
X139486786Y-84133992D01*
X139543300Y-84101363D01*
X139611198Y-84084890D01*
X139677226Y-84107742D01*
X139720417Y-84162662D01*
X139729300Y-84208750D01*
X139729300Y-87685223D01*
X139709615Y-87752262D01*
X139656811Y-87798017D01*
X139587653Y-87807961D01*
X139573208Y-87804998D01*
X139548211Y-87798300D01*
X139548210Y-87798300D01*
X139445390Y-87798300D01*
X139346072Y-87824912D01*
X139346069Y-87824913D01*
X139257030Y-87876319D01*
X139257025Y-87876323D01*
X139184323Y-87949025D01*
X139184319Y-87949030D01*
X139132913Y-88038069D01*
X139132912Y-88038072D01*
X139106300Y-88137390D01*
X139106300Y-88240210D01*
X139128775Y-88324086D01*
X139132912Y-88339527D01*
X139132913Y-88339530D01*
X139184319Y-88428569D01*
X139184321Y-88428572D01*
X139184322Y-88428573D01*
X139257027Y-88501278D01*
X139282186Y-88515804D01*
X139286207Y-88520020D01*
X139291721Y-88521905D01*
X139310040Y-88545015D01*
X139330400Y-88566367D01*
X139331503Y-88572090D01*
X139335124Y-88576658D01*
X139338041Y-88606008D01*
X139343625Y-88634974D01*
X139341608Y-88641892D01*
X139342035Y-88646185D01*
X139334183Y-88667361D01*
X139330621Y-88679583D01*
X139327756Y-88685192D01*
X139327322Y-88685627D01*
X139275912Y-88774672D01*
X139269118Y-88800023D01*
X139263166Y-88811681D01*
X139251137Y-88824394D01*
X139240413Y-88842969D01*
X138959742Y-89123643D01*
X138882243Y-89201142D01*
X138840300Y-89302399D01*
X138840300Y-90961402D01*
X138853312Y-90992814D01*
X138877295Y-91050712D01*
X138882243Y-91062658D01*
X138882245Y-91062660D01*
X139366138Y-91546555D01*
X139366139Y-91546555D01*
X139366141Y-91546557D01*
X139395795Y-91558839D01*
X139395797Y-91558841D01*
X139395798Y-91558841D01*
X139416770Y-91567527D01*
X139467400Y-91588500D01*
X147840323Y-91588500D01*
X147869763Y-91597144D01*
X147899750Y-91603668D01*
X147904765Y-91607422D01*
X147907362Y-91608185D01*
X147928004Y-91624819D01*
X147934581Y-91631396D01*
X147968066Y-91692719D01*
X147970900Y-91719077D01*
X147970900Y-91720010D01*
X147988161Y-91784427D01*
X147997512Y-91819327D01*
X147997513Y-91819330D01*
X148048919Y-91908369D01*
X148048921Y-91908372D01*
X148048922Y-91908373D01*
X148121627Y-91981078D01*
X148210672Y-92032488D01*
X148309990Y-92059100D01*
X148309992Y-92059100D01*
X148412808Y-92059100D01*
X148412810Y-92059100D01*
X148512128Y-92032488D01*
X148601173Y-91981078D01*
X148673878Y-91908373D01*
X148725288Y-91819328D01*
X148751900Y-91720010D01*
X148751900Y-91617190D01*
X148725288Y-91517872D01*
X148673878Y-91428827D01*
X148601173Y-91356122D01*
X148601172Y-91356121D01*
X148601169Y-91356119D01*
X148512130Y-91304713D01*
X148512129Y-91304712D01*
X148512128Y-91304712D01*
X148412810Y-91278100D01*
X148412809Y-91278100D01*
X148411877Y-91278100D01*
X148411120Y-91277877D01*
X148404750Y-91277039D01*
X148404880Y-91276045D01*
X148344838Y-91258415D01*
X148324196Y-91241781D01*
X148161859Y-91079444D01*
X148161858Y-91079443D01*
X148060600Y-91037500D01*
X140725513Y-91037500D01*
X140658474Y-91017815D01*
X140612719Y-90965011D01*
X140602775Y-90895853D01*
X140631800Y-90832297D01*
X140637832Y-90825819D01*
X140672878Y-90790773D01*
X140724288Y-90701728D01*
X140750900Y-90602410D01*
X140750900Y-90499590D01*
X140724288Y-90400272D01*
X140672878Y-90311227D01*
X140672219Y-90310568D01*
X140671841Y-90309876D01*
X140667932Y-90304782D01*
X140668726Y-90304172D01*
X140638734Y-90249245D01*
X140635900Y-90222887D01*
X140635900Y-89675077D01*
X140655585Y-89608038D01*
X140672219Y-89587396D01*
X140854353Y-89405262D01*
X141076557Y-89183059D01*
X141101043Y-89123944D01*
X141118500Y-89081800D01*
X141118500Y-89011908D01*
X143161900Y-89011908D01*
X143161900Y-89143692D01*
X143168705Y-89169090D01*
X143196008Y-89270987D01*
X143210673Y-89296387D01*
X143261900Y-89385114D01*
X143355086Y-89478300D01*
X143406672Y-89508083D01*
X143469210Y-89544190D01*
X143469214Y-89544192D01*
X143596508Y-89578300D01*
X143596510Y-89578300D01*
X143728290Y-89578300D01*
X143728292Y-89578300D01*
X143855586Y-89544192D01*
X143969714Y-89478300D01*
X143993819Y-89454195D01*
X144055142Y-89420710D01*
X144124834Y-89425694D01*
X144169181Y-89454195D01*
X144193286Y-89478300D01*
X144244872Y-89508083D01*
X144307410Y-89544190D01*
X144307414Y-89544192D01*
X144434708Y-89578300D01*
X144434710Y-89578300D01*
X144566490Y-89578300D01*
X144566492Y-89578300D01*
X144693786Y-89544192D01*
X144772378Y-89498816D01*
X144840277Y-89482343D01*
X144896247Y-89501714D01*
X144897448Y-89499636D01*
X144904484Y-89503698D01*
X144904486Y-89503700D01*
X144912078Y-89508083D01*
X145003749Y-89561010D01*
X145018614Y-89569592D01*
X145145908Y-89603700D01*
X145145910Y-89603700D01*
X145277690Y-89603700D01*
X145277692Y-89603700D01*
X145404986Y-89569592D01*
X145519114Y-89503700D01*
X145564624Y-89458190D01*
X146599300Y-89458190D01*
X146599300Y-89561010D01*
X146621998Y-89645718D01*
X146625912Y-89660327D01*
X146625912Y-89660328D01*
X146679070Y-89752401D01*
X146695542Y-89820301D01*
X146679070Y-89876399D01*
X146625912Y-89968471D01*
X146625912Y-89968472D01*
X146599300Y-90067790D01*
X146599300Y-90170610D01*
X146623180Y-90259730D01*
X146625912Y-90269927D01*
X146625913Y-90269930D01*
X146677319Y-90358969D01*
X146677321Y-90358972D01*
X146677322Y-90358973D01*
X146750027Y-90431678D01*
X146750028Y-90431679D01*
X146750030Y-90431680D01*
X146778668Y-90448214D01*
X146839072Y-90483088D01*
X146938390Y-90509700D01*
X146938392Y-90509700D01*
X147041208Y-90509700D01*
X147041210Y-90509700D01*
X147140528Y-90483088D01*
X147229573Y-90431678D01*
X147302278Y-90358973D01*
X147353688Y-90269928D01*
X147380300Y-90170610D01*
X147380300Y-90067790D01*
X147353688Y-89968472D01*
X147302278Y-89879427D01*
X147302277Y-89879426D01*
X147300530Y-89876400D01*
X147284057Y-89808500D01*
X147300530Y-89752400D01*
X147304668Y-89745233D01*
X147353688Y-89660328D01*
X147380300Y-89561010D01*
X147380300Y-89458190D01*
X147353688Y-89358872D01*
X147327983Y-89314349D01*
X147302280Y-89269830D01*
X147302276Y-89269825D01*
X147229574Y-89197123D01*
X147229569Y-89197119D01*
X147140530Y-89145713D01*
X147140529Y-89145712D01*
X147140528Y-89145712D01*
X147041210Y-89119100D01*
X146938390Y-89119100D01*
X146839072Y-89145712D01*
X146839069Y-89145713D01*
X146750030Y-89197119D01*
X146750025Y-89197123D01*
X146677323Y-89269825D01*
X146677319Y-89269830D01*
X146625913Y-89358869D01*
X146625912Y-89358872D01*
X146599300Y-89458190D01*
X145564624Y-89458190D01*
X145612300Y-89410514D01*
X145678192Y-89296386D01*
X145712300Y-89169092D01*
X145712300Y-89037308D01*
X145678192Y-88910014D01*
X145612300Y-88795886D01*
X145562795Y-88746381D01*
X145529310Y-88685058D01*
X145534294Y-88615366D01*
X145562795Y-88571019D01*
X145572302Y-88561512D01*
X145586900Y-88546914D01*
X145652792Y-88432786D01*
X145686900Y-88305492D01*
X145686900Y-88173708D01*
X145652792Y-88046414D01*
X145648981Y-88039814D01*
X145632697Y-88011609D01*
X145586900Y-87932286D01*
X145493714Y-87839100D01*
X145423047Y-87798300D01*
X145379587Y-87773208D01*
X145315939Y-87756154D01*
X145252292Y-87739100D01*
X145120508Y-87739100D01*
X144993214Y-87773208D01*
X144993213Y-87773208D01*
X144993211Y-87773209D01*
X144993210Y-87773209D01*
X144905500Y-87823849D01*
X144837600Y-87840322D01*
X144781500Y-87823849D01*
X144693789Y-87773209D01*
X144693786Y-87773208D01*
X144566492Y-87739100D01*
X144434708Y-87739100D01*
X144307412Y-87773208D01*
X144193286Y-87839100D01*
X144193285Y-87839101D01*
X144173777Y-87858608D01*
X144112452Y-87892090D01*
X144042761Y-87887103D01*
X143998418Y-87858604D01*
X143972316Y-87832502D01*
X143972314Y-87832500D01*
X143895758Y-87788300D01*
X143858187Y-87766608D01*
X143794539Y-87749554D01*
X143730892Y-87732500D01*
X143599108Y-87732500D01*
X143471812Y-87766608D01*
X143357686Y-87832500D01*
X143357683Y-87832502D01*
X143264502Y-87925683D01*
X143264500Y-87925686D01*
X143198608Y-88039812D01*
X143176343Y-88122908D01*
X143164500Y-88167108D01*
X143164500Y-88298892D01*
X143171251Y-88324086D01*
X143198608Y-88426187D01*
X143202419Y-88432787D01*
X143264500Y-88540314D01*
X143264502Y-88540316D01*
X143290604Y-88566418D01*
X143324089Y-88627741D01*
X143319105Y-88697433D01*
X143290607Y-88741778D01*
X143261900Y-88770486D01*
X143196008Y-88884612D01*
X143166727Y-88993892D01*
X143161900Y-89011908D01*
X141118500Y-89011908D01*
X141118500Y-87295800D01*
X141076557Y-87194542D01*
X141076557Y-87194541D01*
X140914219Y-87032203D01*
X140880734Y-86970880D01*
X140877900Y-86944522D01*
X140877900Y-86943592D01*
X140877900Y-86943590D01*
X140851288Y-86844272D01*
X140815042Y-86781492D01*
X140799880Y-86755230D01*
X140799876Y-86755225D01*
X140727174Y-86682523D01*
X140727169Y-86682519D01*
X140670338Y-86649708D01*
X144000100Y-86649708D01*
X144000100Y-86781491D01*
X144034208Y-86908787D01*
X144060139Y-86953700D01*
X144100100Y-87022914D01*
X144193286Y-87116100D01*
X144307414Y-87181992D01*
X144434708Y-87216100D01*
X144434710Y-87216100D01*
X144566490Y-87216100D01*
X144566492Y-87216100D01*
X144693786Y-87181992D01*
X144781501Y-87131349D01*
X144849399Y-87114877D01*
X144905498Y-87131349D01*
X144993214Y-87181992D01*
X145120508Y-87216100D01*
X145120510Y-87216100D01*
X145252290Y-87216100D01*
X145252292Y-87216100D01*
X145379586Y-87181992D01*
X145493714Y-87116100D01*
X145586900Y-87022914D01*
X145652792Y-86908786D01*
X145686900Y-86781492D01*
X145686900Y-86649708D01*
X145652792Y-86522414D01*
X145586900Y-86408286D01*
X145493714Y-86315100D01*
X145436650Y-86282154D01*
X145379587Y-86249208D01*
X145315939Y-86232154D01*
X145252292Y-86215100D01*
X145120508Y-86215100D01*
X144993214Y-86249208D01*
X144993213Y-86249208D01*
X144993211Y-86249209D01*
X144993210Y-86249209D01*
X144905500Y-86299849D01*
X144837600Y-86316322D01*
X144781500Y-86299849D01*
X144693789Y-86249209D01*
X144693786Y-86249208D01*
X144566492Y-86215100D01*
X144434708Y-86215100D01*
X144307412Y-86249208D01*
X144193286Y-86315100D01*
X144193283Y-86315102D01*
X144100102Y-86408283D01*
X144100100Y-86408286D01*
X144034208Y-86522412D01*
X144000100Y-86649708D01*
X140670338Y-86649708D01*
X140638130Y-86631113D01*
X140638129Y-86631112D01*
X140638128Y-86631112D01*
X140538810Y-86604500D01*
X140435990Y-86604500D01*
X140435988Y-86604500D01*
X140427934Y-86605561D01*
X140427753Y-86604187D01*
X140366537Y-86602727D01*
X140308677Y-86563562D01*
X140281176Y-86499332D01*
X140280300Y-86484617D01*
X140280300Y-85988513D01*
X140299985Y-85921474D01*
X140352789Y-85875719D01*
X140421947Y-85865775D01*
X140485503Y-85894800D01*
X140491981Y-85900832D01*
X140527027Y-85935878D01*
X140616072Y-85987288D01*
X140715390Y-86013900D01*
X140715392Y-86013900D01*
X140818208Y-86013900D01*
X140818210Y-86013900D01*
X140917528Y-85987288D01*
X141006573Y-85935878D01*
X141079278Y-85863173D01*
X141130688Y-85774128D01*
X141157300Y-85674810D01*
X141157300Y-85571990D01*
X141130688Y-85472672D01*
X141088065Y-85398847D01*
X141079280Y-85383630D01*
X141079276Y-85383625D01*
X141006574Y-85310923D01*
X141006569Y-85310919D01*
X140917530Y-85259513D01*
X140917529Y-85259512D01*
X140917528Y-85259512D01*
X140818210Y-85232900D01*
X140715390Y-85232900D01*
X140616072Y-85259512D01*
X140616069Y-85259513D01*
X140527030Y-85310919D01*
X140527025Y-85310923D01*
X140491981Y-85345968D01*
X140430658Y-85379453D01*
X140360966Y-85374469D01*
X140305033Y-85332597D01*
X140280616Y-85267133D01*
X140280300Y-85258287D01*
X140280300Y-84315678D01*
X140288944Y-84286238D01*
X140295469Y-84256248D01*
X140299223Y-84251233D01*
X140299985Y-84248639D01*
X140316621Y-84227995D01*
X140336600Y-84208017D01*
X140397924Y-84174533D01*
X140424279Y-84171700D01*
X140958337Y-84171700D01*
X141025376Y-84191385D01*
X141071131Y-84244189D01*
X141081075Y-84313347D01*
X141065724Y-84357700D01*
X141037913Y-84405869D01*
X141037912Y-84405872D01*
X141011300Y-84505190D01*
X141011300Y-84608010D01*
X141034100Y-84693099D01*
X141037912Y-84707327D01*
X141037913Y-84707330D01*
X141089319Y-84796369D01*
X141089321Y-84796372D01*
X141089322Y-84796373D01*
X141162027Y-84869078D01*
X141162028Y-84869079D01*
X141162030Y-84869080D01*
X141186641Y-84883289D01*
X141251072Y-84920488D01*
X141350390Y-84947100D01*
X141350392Y-84947100D01*
X141453208Y-84947100D01*
X141453210Y-84947100D01*
X141552528Y-84920488D01*
X141641573Y-84869078D01*
X141714278Y-84796373D01*
X141765688Y-84707328D01*
X141792300Y-84608010D01*
X141792300Y-84505190D01*
X141765688Y-84405872D01*
X141737876Y-84357700D01*
X141721403Y-84289800D01*
X141744256Y-84223773D01*
X141799177Y-84180582D01*
X141845263Y-84171700D01*
X142192644Y-84171700D01*
X142259683Y-84191385D01*
X142305438Y-84244189D01*
X142315382Y-84313347D01*
X142286357Y-84376903D01*
X142254644Y-84403087D01*
X142178030Y-84447319D01*
X142178025Y-84447323D01*
X142105323Y-84520025D01*
X142105319Y-84520030D01*
X142053913Y-84609069D01*
X142053912Y-84609072D01*
X142027300Y-84708390D01*
X142027300Y-84811210D01*
X142051612Y-84901942D01*
X142053912Y-84910527D01*
X142053913Y-84910530D01*
X142105319Y-84999569D01*
X142105321Y-84999572D01*
X142105322Y-84999573D01*
X142178027Y-85072278D01*
X142178028Y-85072279D01*
X142178030Y-85072280D01*
X142197663Y-85083615D01*
X142267072Y-85123688D01*
X142366390Y-85150300D01*
X142366392Y-85150300D01*
X142469208Y-85150300D01*
X142469210Y-85150300D01*
X142568528Y-85123688D01*
X142657573Y-85072278D01*
X142730278Y-84999573D01*
X142769578Y-84931502D01*
X142820143Y-84883289D01*
X142888750Y-84870065D01*
X142953615Y-84896033D01*
X142984350Y-84931503D01*
X142994317Y-84948766D01*
X142994321Y-84948771D01*
X142994322Y-84948773D01*
X143067027Y-85021478D01*
X143067028Y-85021479D01*
X143067030Y-85021480D01*
X143111549Y-85047183D01*
X143156072Y-85072888D01*
X143255390Y-85099500D01*
X143255392Y-85099500D01*
X143358208Y-85099500D01*
X143358210Y-85099500D01*
X143457528Y-85072888D01*
X143546573Y-85021478D01*
X143619278Y-84948773D01*
X143670688Y-84859728D01*
X143697300Y-84760410D01*
X143697300Y-84657590D01*
X143670688Y-84558272D01*
X143624765Y-84478730D01*
X143619280Y-84469230D01*
X143619276Y-84469225D01*
X143546577Y-84396526D01*
X143546573Y-84396522D01*
X143546568Y-84396519D01*
X143543384Y-84394076D01*
X143541373Y-84391322D01*
X143540826Y-84390775D01*
X143540911Y-84390689D01*
X143502182Y-84337648D01*
X143498027Y-84267902D01*
X143532240Y-84206981D01*
X143593957Y-84174229D01*
X143618871Y-84171700D01*
X144392500Y-84171700D01*
X144459539Y-84191385D01*
X144505294Y-84244189D01*
X144516500Y-84295700D01*
X144516500Y-84354010D01*
X144530397Y-84405872D01*
X144543112Y-84453327D01*
X144543113Y-84453330D01*
X144594519Y-84542369D01*
X144594521Y-84542372D01*
X144594522Y-84542373D01*
X144667227Y-84615078D01*
X144756272Y-84666488D01*
X144855590Y-84693100D01*
X144855592Y-84693100D01*
X144958408Y-84693100D01*
X144958410Y-84693100D01*
X145057728Y-84666488D01*
X145146773Y-84615078D01*
X145219478Y-84542373D01*
X145270888Y-84453328D01*
X145270890Y-84453319D01*
X145273997Y-84445821D01*
X145276250Y-84446754D01*
X145306185Y-84397637D01*
X145369030Y-84367104D01*
X145438406Y-84375395D01*
X145492286Y-84419877D01*
X145498458Y-84430007D01*
X145505543Y-84442997D01*
X145508312Y-84453328D01*
X145559722Y-84542373D01*
X145559784Y-84542435D01*
X145560975Y-84544618D01*
X145568074Y-84577324D01*
X145575977Y-84609898D01*
X145575499Y-84611525D01*
X145575797Y-84612897D01*
X145572520Y-84621671D01*
X145559505Y-84665995D01*
X145533714Y-84710667D01*
X145533712Y-84710672D01*
X145507100Y-84809990D01*
X145507100Y-84912810D01*
X145533126Y-85009939D01*
X145533712Y-85012127D01*
X145533713Y-85012130D01*
X145585119Y-85101169D01*
X145585121Y-85101172D01*
X145585122Y-85101173D01*
X145657827Y-85173878D01*
X145746872Y-85225288D01*
X145846190Y-85251900D01*
X145846192Y-85251900D01*
X145949008Y-85251900D01*
X145949010Y-85251900D01*
X146048328Y-85225288D01*
X146137373Y-85173878D01*
X146210078Y-85101173D01*
X146261488Y-85012128D01*
X146288100Y-84912810D01*
X146288100Y-84809990D01*
X146261488Y-84710672D01*
X146261334Y-84710406D01*
X146210295Y-84622001D01*
X146193822Y-84554101D01*
X146210293Y-84498004D01*
X146236088Y-84453328D01*
X146262700Y-84354010D01*
X146262700Y-84317250D01*
X146282385Y-84250211D01*
X146335189Y-84204456D01*
X146404347Y-84194512D01*
X146467903Y-84223537D01*
X146505677Y-84282315D01*
X146506463Y-84285116D01*
X146523505Y-84348717D01*
X146524312Y-84351727D01*
X146524313Y-84351730D01*
X146575719Y-84440769D01*
X146575721Y-84440772D01*
X146575722Y-84440773D01*
X146648427Y-84513478D01*
X146648428Y-84513479D01*
X146648430Y-84513480D01*
X146680177Y-84531809D01*
X146737472Y-84564888D01*
X146836790Y-84591500D01*
X146836792Y-84591500D01*
X146939608Y-84591500D01*
X146939610Y-84591500D01*
X147038928Y-84564888D01*
X147127973Y-84513478D01*
X147200678Y-84440773D01*
X147252088Y-84351728D01*
X147278700Y-84252410D01*
X147278700Y-84149590D01*
X147252088Y-84050272D01*
X147212060Y-83980941D01*
X147200680Y-83961230D01*
X147200676Y-83961225D01*
X147127974Y-83888523D01*
X147127969Y-83888519D01*
X147038930Y-83837113D01*
X147038929Y-83837112D01*
X147038928Y-83837112D01*
X146939610Y-83810500D01*
X146939609Y-83810500D01*
X146938677Y-83810500D01*
X146937920Y-83810277D01*
X146931550Y-83809439D01*
X146931680Y-83808445D01*
X146871638Y-83790815D01*
X146850996Y-83774181D01*
X146739459Y-83662644D01*
X146739458Y-83662643D01*
X146638200Y-83620700D01*
X146386700Y-83620700D01*
X146319661Y-83601015D01*
X146273906Y-83548211D01*
X146262700Y-83496700D01*
X146262700Y-83412992D01*
X146262700Y-83412990D01*
X146236088Y-83313672D01*
X146209200Y-83267100D01*
X146184895Y-83225001D01*
X146168422Y-83157101D01*
X146184893Y-83101004D01*
X146210688Y-83056328D01*
X146237300Y-82957010D01*
X146237300Y-82854190D01*
X146210688Y-82754872D01*
X146170162Y-82684678D01*
X146159280Y-82665830D01*
X146159276Y-82665825D01*
X146086574Y-82593123D01*
X146086527Y-82593087D01*
X146086497Y-82593046D01*
X146080826Y-82587375D01*
X146081710Y-82586490D01*
X146045326Y-82536658D01*
X146041173Y-82466912D01*
X146042230Y-82462659D01*
X146059500Y-82398210D01*
X146059500Y-82295390D01*
X146032888Y-82196072D01*
X145996143Y-82132427D01*
X145981480Y-82107030D01*
X145981476Y-82107025D01*
X145908774Y-82034323D01*
X145908769Y-82034319D01*
X145842100Y-81995828D01*
X145793884Y-81945261D01*
X145780100Y-81888441D01*
X145780100Y-81787392D01*
X145780100Y-81787390D01*
X145753488Y-81688072D01*
X145702078Y-81599027D01*
X145629373Y-81526322D01*
X145629372Y-81526321D01*
X145629369Y-81526319D01*
X145540330Y-81474913D01*
X145540329Y-81474912D01*
X145540328Y-81474912D01*
X145465606Y-81454890D01*
X145405946Y-81418526D01*
X145375417Y-81355679D01*
X145373700Y-81335116D01*
X145373700Y-81304792D01*
X145373700Y-81304790D01*
X145347088Y-81205472D01*
X145295678Y-81116427D01*
X145222973Y-81043722D01*
X145222972Y-81043721D01*
X145222969Y-81043719D01*
X145133930Y-80992313D01*
X145133929Y-80992312D01*
X145133928Y-80992312D01*
X145083847Y-80978893D01*
X145024189Y-80942529D01*
X144993660Y-80879682D01*
X144993003Y-80875298D01*
X144992700Y-80873002D01*
X144992700Y-80872990D01*
X144966088Y-80773672D01*
X144925562Y-80703478D01*
X144914680Y-80684630D01*
X144914676Y-80684625D01*
X144841974Y-80611923D01*
X144841969Y-80611919D01*
X144752930Y-80560513D01*
X144752929Y-80560512D01*
X144752928Y-80560512D01*
X144653610Y-80533900D01*
X144550790Y-80533900D01*
X144451472Y-80560512D01*
X144451469Y-80560513D01*
X144362430Y-80611919D01*
X144362425Y-80611923D01*
X144289723Y-80684625D01*
X144289719Y-80684630D01*
X144238313Y-80773669D01*
X144238312Y-80773672D01*
X144211700Y-80872990D01*
X144211700Y-80919664D01*
X144192015Y-80986703D01*
X144139211Y-81032458D01*
X144070053Y-81042402D01*
X144042962Y-81035312D01*
X144034004Y-81031846D01*
X143965528Y-80992312D01*
X143866210Y-80965700D01*
X143863015Y-80965700D01*
X143849599Y-80960510D01*
X143826960Y-80943130D01*
X143802583Y-80928272D01*
X143798958Y-80921634D01*
X143794177Y-80917964D01*
X143788835Y-80903095D01*
X143774562Y-80876955D01*
X143773499Y-80872987D01*
X143746888Y-80773672D01*
X143706362Y-80703478D01*
X143695480Y-80684630D01*
X143695476Y-80684625D01*
X143622774Y-80611923D01*
X143622769Y-80611919D01*
X143533730Y-80560513D01*
X143533729Y-80560512D01*
X143533728Y-80560512D01*
X143434410Y-80533900D01*
X143434408Y-80533900D01*
X143433606Y-80533685D01*
X143373946Y-80497320D01*
X143343417Y-80434473D01*
X143341700Y-80413910D01*
X143341700Y-80339592D01*
X143341700Y-80339590D01*
X143315088Y-80240272D01*
X143283926Y-80186298D01*
X143267454Y-80118400D01*
X143283927Y-80062300D01*
X143293676Y-80045414D01*
X143315088Y-80008328D01*
X143341700Y-79909010D01*
X143341700Y-79806190D01*
X143337423Y-79790228D01*
X143339086Y-79720381D01*
X143378248Y-79662519D01*
X143395191Y-79650754D01*
X143419573Y-79636678D01*
X143492278Y-79563973D01*
X143543688Y-79474928D01*
X143570300Y-79375610D01*
X143570300Y-79272790D01*
X143543688Y-79173472D01*
X143499081Y-79096210D01*
X143492280Y-79084430D01*
X143492276Y-79084425D01*
X143413826Y-79005975D01*
X143415203Y-79004597D01*
X143380263Y-78956742D01*
X143376111Y-78886996D01*
X143410327Y-78826077D01*
X143472046Y-78793327D01*
X143496954Y-78790800D01*
X144004587Y-78790800D01*
X144071626Y-78810485D01*
X144117381Y-78863289D01*
X144127325Y-78932447D01*
X144098300Y-78996003D01*
X144092268Y-79002481D01*
X144061123Y-79033625D01*
X144061119Y-79033630D01*
X144009713Y-79122669D01*
X144009712Y-79122672D01*
X143983100Y-79221990D01*
X143983100Y-79324810D01*
X144005575Y-79408686D01*
X144009712Y-79424127D01*
X144009713Y-79424130D01*
X144061119Y-79513169D01*
X144061121Y-79513172D01*
X144061122Y-79513173D01*
X144133827Y-79585878D01*
X144222872Y-79637288D01*
X144322190Y-79663900D01*
X144322192Y-79663900D01*
X144425008Y-79663900D01*
X144425010Y-79663900D01*
X144524328Y-79637288D01*
X144613373Y-79585878D01*
X144686078Y-79513173D01*
X144737488Y-79424128D01*
X144764100Y-79324810D01*
X144764100Y-79221990D01*
X144737488Y-79122672D01*
X144686078Y-79033627D01*
X144654932Y-79002481D01*
X144621447Y-78941158D01*
X144626431Y-78871466D01*
X144668303Y-78815533D01*
X144733767Y-78791116D01*
X144742613Y-78790800D01*
X149189219Y-78790800D01*
X149189742Y-78790953D01*
X149190269Y-78790804D01*
X149223286Y-78800803D01*
X149256258Y-78810485D01*
X149256790Y-78810950D01*
X149257140Y-78811056D01*
X149283616Y-78834394D01*
X149284524Y-78835460D01*
X149286736Y-78838132D01*
X149326043Y-78886996D01*
X149502396Y-79106226D01*
X149504513Y-79108933D01*
X149712854Y-79383153D01*
X149714893Y-79385916D01*
X149842551Y-79563969D01*
X149914197Y-79663899D01*
X149915405Y-79665583D01*
X149917356Y-79668386D01*
X149943365Y-79706869D01*
X150110118Y-79953601D01*
X150112001Y-79956472D01*
X150294421Y-80243187D01*
X150297092Y-80247584D01*
X150467524Y-80541730D01*
X150627642Y-80818078D01*
X150644204Y-80846661D01*
X150647472Y-80852679D01*
X150744470Y-81043722D01*
X150958829Y-81465915D01*
X150961763Y-81472113D01*
X151238542Y-82101170D01*
X151241130Y-82107521D01*
X151482544Y-82750473D01*
X151484775Y-82756956D01*
X151690116Y-83411742D01*
X151691987Y-83418340D01*
X151860712Y-84083060D01*
X151862214Y-84089750D01*
X151993881Y-84762481D01*
X151995011Y-84769241D01*
X152089304Y-85448204D01*
X152090059Y-85455012D01*
X152146748Y-86138564D01*
X152147125Y-86145397D01*
X152166283Y-86840463D01*
X152166330Y-86843879D01*
X152166330Y-92045208D01*
X152166290Y-92048342D01*
X152150081Y-92689507D01*
X152149863Y-92694361D01*
X152127841Y-93035500D01*
X152127572Y-93038931D01*
X152095866Y-93381760D01*
X152095501Y-93385184D01*
X152054206Y-93727679D01*
X152053747Y-93731092D01*
X152003100Y-94071359D01*
X152002546Y-94074757D01*
X151942337Y-94414238D01*
X151941688Y-94417620D01*
X151872254Y-94754431D01*
X151871513Y-94757791D01*
X151794511Y-95085093D01*
X151792607Y-95093185D01*
X151791772Y-95096526D01*
X151703725Y-95429071D01*
X151702798Y-95432384D01*
X151605432Y-95762790D01*
X151604414Y-95766076D01*
X151498059Y-96093225D01*
X151496951Y-96096479D01*
X151381426Y-96420951D01*
X151380228Y-96424173D01*
X151255876Y-96745003D01*
X151254590Y-96748190D01*
X151121286Y-97065713D01*
X151119913Y-97068861D01*
X150977953Y-97382377D01*
X150976493Y-97385484D01*
X150825889Y-97694991D01*
X150824345Y-97698057D01*
X150667254Y-97999394D01*
X150664781Y-98003907D01*
X150319516Y-98604057D01*
X150315931Y-98609907D01*
X149940538Y-99186156D01*
X149936638Y-99191796D01*
X149530239Y-99746035D01*
X149526033Y-99751451D01*
X149089938Y-100281986D01*
X149085438Y-100287161D01*
X148621052Y-100792375D01*
X148616274Y-100797293D01*
X148124976Y-101275769D01*
X148119934Y-101280415D01*
X147603150Y-101730822D01*
X147597860Y-101735181D01*
X147056991Y-102156334D01*
X147051472Y-102160392D01*
X146487870Y-102551242D01*
X146482142Y-102554984D01*
X145896521Y-102914964D01*
X145890852Y-102918246D01*
X145335003Y-103220699D01*
X145330691Y-103222937D01*
X145024234Y-103374441D01*
X145021127Y-103375924D01*
X144708408Y-103519864D01*
X144705261Y-103521259D01*
X144387968Y-103656761D01*
X144384783Y-103658070D01*
X144064783Y-103784341D01*
X144061562Y-103785560D01*
X143737545Y-103903127D01*
X143734292Y-103904257D01*
X143407800Y-104012560D01*
X143404518Y-104013598D01*
X143074609Y-104112958D01*
X143071299Y-104113905D01*
X142739331Y-104203913D01*
X142735999Y-104204767D01*
X142401125Y-104285662D01*
X142397770Y-104286423D01*
X142061293Y-104357888D01*
X142057920Y-104358556D01*
X141719146Y-104420745D01*
X141715757Y-104421319D01*
X141375739Y-104474041D01*
X141372337Y-104474520D01*
X141030741Y-104517833D01*
X141027327Y-104518218D01*
X140684831Y-104552036D01*
X140681410Y-104552326D01*
X140338030Y-104576654D01*
X140334603Y-104576849D01*
X139995111Y-104591472D01*
X139989966Y-104591587D01*
X139297580Y-104592654D01*
X139290723Y-104592475D01*
X138603973Y-104555501D01*
X138597137Y-104554943D01*
X137913952Y-104480109D01*
X137907159Y-104479174D01*
X137229686Y-104366777D01*
X137222959Y-104365468D01*
X137189013Y-104357888D01*
X137057271Y-104328467D01*
X136996133Y-104294644D01*
X136962987Y-104233137D01*
X136964521Y-104175358D01*
X136989189Y-104083299D01*
X136989189Y-103980479D01*
X136962577Y-103881161D01*
X136911167Y-103792116D01*
X136838462Y-103719411D01*
X136838461Y-103719410D01*
X136838458Y-103719408D01*
X136749419Y-103668002D01*
X136749418Y-103668001D01*
X136749417Y-103668001D01*
X136650099Y-103641389D01*
X136547279Y-103641389D01*
X136447961Y-103668001D01*
X136447958Y-103668002D01*
X136358919Y-103719408D01*
X136358914Y-103719412D01*
X136286212Y-103792114D01*
X136286208Y-103792119D01*
X136234802Y-103881158D01*
X136234801Y-103881159D01*
X136206266Y-103987656D01*
X136201125Y-103996089D01*
X136199824Y-104005877D01*
X136183244Y-104025424D01*
X136169901Y-104047316D01*
X136161016Y-104051631D01*
X136154630Y-104059162D01*
X136130113Y-104066643D01*
X136107054Y-104077845D01*
X136095466Y-104077216D01*
X136087803Y-104079555D01*
X136052817Y-104074902D01*
X135886530Y-104027981D01*
X135879985Y-104025937D01*
X135231553Y-103803600D01*
X135225133Y-103801199D01*
X134589964Y-103543365D01*
X134583691Y-103540614D01*
X133963411Y-103247950D01*
X133957305Y-103244861D01*
X133718850Y-103115815D01*
X133528582Y-103012847D01*
X137591900Y-103012847D01*
X137591900Y-103902352D01*
X137603531Y-103960829D01*
X137603532Y-103960830D01*
X137647847Y-104027152D01*
X137714169Y-104071467D01*
X137714170Y-104071468D01*
X137772647Y-104083099D01*
X137772650Y-104083100D01*
X137772652Y-104083100D01*
X138662150Y-104083100D01*
X138662151Y-104083099D01*
X138688567Y-104077845D01*
X138720629Y-104071468D01*
X138720629Y-104071467D01*
X138720631Y-104071467D01*
X138765724Y-104041335D01*
X138797107Y-104020367D01*
X138799584Y-104024074D01*
X138839686Y-104002081D01*
X138909387Y-104006936D01*
X138915450Y-104009665D01*
X138915486Y-104009580D01*
X138941528Y-104020367D01*
X139034948Y-104059063D01*
X139137972Y-104079555D01*
X139155789Y-104083099D01*
X139155793Y-104083100D01*
X139155794Y-104083100D01*
X139279007Y-104083100D01*
X139279008Y-104083099D01*
X139399852Y-104059063D01*
X139513686Y-104011911D01*
X139616133Y-103943458D01*
X139703258Y-103856333D01*
X139771711Y-103753886D01*
X139818863Y-103640052D01*
X139842900Y-103519206D01*
X139842900Y-103395994D01*
X139818863Y-103275148D01*
X139771711Y-103161314D01*
X139771710Y-103161313D01*
X139771707Y-103161307D01*
X139703258Y-103058867D01*
X139703255Y-103058863D01*
X139616136Y-102971744D01*
X139616132Y-102971741D01*
X139513692Y-102903292D01*
X139513683Y-102903287D01*
X139399854Y-102856138D01*
X139399855Y-102856138D01*
X139399852Y-102856137D01*
X139399848Y-102856136D01*
X139399844Y-102856135D01*
X139279010Y-102832100D01*
X139279006Y-102832100D01*
X139155794Y-102832100D01*
X139155789Y-102832100D01*
X139034955Y-102856135D01*
X139034945Y-102856138D01*
X138915486Y-102905620D01*
X138914600Y-102903482D01*
X138856241Y-102915595D01*
X138798138Y-102893289D01*
X138797107Y-102894833D01*
X138720630Y-102843732D01*
X138720629Y-102843731D01*
X138662152Y-102832100D01*
X138662148Y-102832100D01*
X137772652Y-102832100D01*
X137772647Y-102832100D01*
X137714170Y-102843731D01*
X137714169Y-102843732D01*
X137647847Y-102888047D01*
X137603532Y-102954369D01*
X137603531Y-102954370D01*
X137591900Y-103012847D01*
X133528582Y-103012847D01*
X133352722Y-102917676D01*
X133347046Y-102914407D01*
X132807198Y-102584259D01*
X132803103Y-102581643D01*
X132518688Y-102392009D01*
X132515851Y-102390060D01*
X132234817Y-102191195D01*
X132232035Y-102189168D01*
X131956041Y-101982136D01*
X131953315Y-101980031D01*
X131683952Y-101766030D01*
X131681362Y-101763913D01*
X131417406Y-101541979D01*
X131414846Y-101539764D01*
X131157851Y-101311205D01*
X131155310Y-101308882D01*
X130904260Y-101072807D01*
X130901786Y-101070415D01*
X130657890Y-100827967D01*
X130655483Y-100825507D01*
X130626357Y-100794901D01*
X130482842Y-100644092D01*
X130417961Y-100575913D01*
X130415625Y-100573388D01*
X130185536Y-100317766D01*
X130183272Y-100315180D01*
X129959983Y-100052838D01*
X129957791Y-100050189D01*
X129920236Y-100003503D01*
X129864253Y-99933908D01*
X136024500Y-99933908D01*
X136024500Y-100065691D01*
X136058608Y-100192987D01*
X136058609Y-100192988D01*
X136124500Y-100307114D01*
X136217686Y-100400300D01*
X136331814Y-100466192D01*
X136459108Y-100500300D01*
X136459110Y-100500300D01*
X136590890Y-100500300D01*
X136590892Y-100500300D01*
X136718186Y-100466192D01*
X136832314Y-100400300D01*
X136925500Y-100307114D01*
X136971298Y-100227790D01*
X137531500Y-100227790D01*
X137531500Y-100330610D01*
X137556071Y-100422308D01*
X137558112Y-100429927D01*
X137558113Y-100429930D01*
X137609519Y-100518969D01*
X137609521Y-100518972D01*
X137609522Y-100518973D01*
X137682227Y-100591678D01*
X137771272Y-100643088D01*
X137870590Y-100669700D01*
X137870592Y-100669700D01*
X137973408Y-100669700D01*
X137973410Y-100669700D01*
X138072728Y-100643088D01*
X138161773Y-100591678D01*
X138234478Y-100518973D01*
X138285888Y-100429928D01*
X138312500Y-100330610D01*
X138312500Y-100227790D01*
X138285888Y-100128472D01*
X138249642Y-100065692D01*
X138234480Y-100039430D01*
X138234476Y-100039425D01*
X138161774Y-99966723D01*
X138161769Y-99966719D01*
X138072730Y-99915313D01*
X138072729Y-99915312D01*
X138072728Y-99915312D01*
X137973410Y-99888700D01*
X137870590Y-99888700D01*
X137771272Y-99915312D01*
X137771269Y-99915313D01*
X137682230Y-99966719D01*
X137682225Y-99966723D01*
X137609523Y-100039425D01*
X137609519Y-100039430D01*
X137558113Y-100128469D01*
X137558112Y-100128472D01*
X137531500Y-100227790D01*
X136971298Y-100227790D01*
X136991392Y-100192986D01*
X137025500Y-100065692D01*
X137025500Y-99933908D01*
X137006833Y-99864240D01*
X141240899Y-99864240D01*
X141272518Y-100023195D01*
X141272521Y-100023205D01*
X141334541Y-100172936D01*
X141334542Y-100172938D01*
X141424589Y-100307702D01*
X141424592Y-100307706D01*
X141539192Y-100422306D01*
X141539196Y-100422309D01*
X141550851Y-100430097D01*
X141595656Y-100483709D01*
X141604363Y-100553034D01*
X141574208Y-100616062D01*
X141550855Y-100636298D01*
X141539200Y-100644086D01*
X141539192Y-100644092D01*
X141424592Y-100758692D01*
X141424589Y-100758696D01*
X141334542Y-100893460D01*
X141334541Y-100893462D01*
X141272521Y-101043193D01*
X141272518Y-101043203D01*
X141240900Y-101202158D01*
X141240900Y-101202161D01*
X141240900Y-101364239D01*
X141240900Y-101364241D01*
X141240899Y-101364241D01*
X141272518Y-101523196D01*
X141272521Y-101523206D01*
X141334541Y-101672937D01*
X141334542Y-101672939D01*
X141424589Y-101807703D01*
X141424592Y-101807707D01*
X141539192Y-101922307D01*
X141539196Y-101922310D01*
X141673958Y-102012356D01*
X141673959Y-102012356D01*
X141673960Y-102012357D01*
X141673962Y-102012358D01*
X141823693Y-102074378D01*
X141823698Y-102074380D01*
X141823702Y-102074380D01*
X141823703Y-102074381D01*
X141982658Y-102106000D01*
X141982661Y-102106000D01*
X142144741Y-102106000D01*
X142251683Y-102084727D01*
X142303702Y-102074380D01*
X142453442Y-102012356D01*
X142588204Y-101922310D01*
X142702810Y-101807704D01*
X142792856Y-101672942D01*
X142854880Y-101523202D01*
X142886500Y-101364239D01*
X142886500Y-101202161D01*
X142886500Y-101202158D01*
X142854881Y-101043203D01*
X142854880Y-101043202D01*
X142854880Y-101043198D01*
X142854878Y-101043193D01*
X142792858Y-100893462D01*
X142792857Y-100893460D01*
X142791140Y-100890891D01*
X142702810Y-100758696D01*
X142702807Y-100758692D01*
X142588207Y-100644092D01*
X142588201Y-100644087D01*
X142576547Y-100636300D01*
X142531742Y-100582687D01*
X142523036Y-100513362D01*
X142553192Y-100450335D01*
X142576549Y-100430096D01*
X142588204Y-100422309D01*
X142702810Y-100307703D01*
X142792856Y-100172941D01*
X142854880Y-100023201D01*
X142872642Y-99933908D01*
X142886500Y-99864240D01*
X142886500Y-99702157D01*
X142854881Y-99543202D01*
X142854880Y-99543201D01*
X142854880Y-99543197D01*
X142839135Y-99505184D01*
X142792858Y-99393461D01*
X142792857Y-99393459D01*
X142702810Y-99258695D01*
X142702807Y-99258691D01*
X142588207Y-99144091D01*
X142588203Y-99144088D01*
X142453439Y-99054041D01*
X142453437Y-99054040D01*
X142303706Y-98992020D01*
X142303696Y-98992017D01*
X142144741Y-98960399D01*
X142144739Y-98960399D01*
X141982661Y-98960399D01*
X141982659Y-98960399D01*
X141823703Y-98992017D01*
X141823693Y-98992020D01*
X141673962Y-99054040D01*
X141673960Y-99054041D01*
X141539196Y-99144088D01*
X141539192Y-99144091D01*
X141424592Y-99258691D01*
X141424589Y-99258695D01*
X141334542Y-99393459D01*
X141334541Y-99393461D01*
X141272521Y-99543192D01*
X141272518Y-99543202D01*
X141240900Y-99702157D01*
X141240900Y-99702160D01*
X141240900Y-99864238D01*
X141240900Y-99864240D01*
X141240899Y-99864240D01*
X137006833Y-99864240D01*
X136991392Y-99806614D01*
X136925500Y-99692486D01*
X136832314Y-99599300D01*
X136735150Y-99543202D01*
X136718187Y-99533408D01*
X136654539Y-99516354D01*
X136590892Y-99499300D01*
X136459108Y-99499300D01*
X136331812Y-99533408D01*
X136217686Y-99599300D01*
X136217683Y-99599302D01*
X136124502Y-99692483D01*
X136124500Y-99692486D01*
X136058608Y-99806612D01*
X136024500Y-99933908D01*
X129864253Y-99933908D01*
X129742156Y-99782125D01*
X129740040Y-99779419D01*
X129531685Y-99505184D01*
X129529645Y-99502420D01*
X129329151Y-99222776D01*
X129327189Y-99219958D01*
X129134414Y-98934721D01*
X129132532Y-98931851D01*
X128950147Y-98645194D01*
X128947475Y-98640796D01*
X128610431Y-98059092D01*
X128600327Y-98041654D01*
X128597079Y-98035673D01*
X128542059Y-97927308D01*
X147098900Y-97927308D01*
X147098900Y-98059091D01*
X147133008Y-98186387D01*
X147140872Y-98200007D01*
X147198900Y-98300514D01*
X147292086Y-98393700D01*
X147363121Y-98434712D01*
X147403437Y-98457989D01*
X147406214Y-98459592D01*
X147533508Y-98493700D01*
X147533510Y-98493700D01*
X147665290Y-98493700D01*
X147665292Y-98493700D01*
X147792586Y-98459592D01*
X147906714Y-98393700D01*
X147999900Y-98300514D01*
X148065792Y-98186386D01*
X148099900Y-98059092D01*
X148099900Y-97927308D01*
X148065792Y-97800014D01*
X147999900Y-97685886D01*
X147906714Y-97592700D01*
X147849650Y-97559754D01*
X147792587Y-97526808D01*
X147710066Y-97504697D01*
X147665292Y-97492700D01*
X147533508Y-97492700D01*
X147406212Y-97526808D01*
X147292086Y-97592700D01*
X147292083Y-97592702D01*
X147198902Y-97685883D01*
X147198900Y-97685886D01*
X147133008Y-97800012D01*
X147098900Y-97927308D01*
X128542059Y-97927308D01*
X128285719Y-97422436D01*
X128282788Y-97416245D01*
X128280707Y-97411516D01*
X128011964Y-96800719D01*
X128011964Y-96800718D01*
X128005998Y-96787158D01*
X128003411Y-96780809D01*
X127995188Y-96758908D01*
X129547500Y-96758908D01*
X129547500Y-96890691D01*
X129581608Y-97017987D01*
X129608902Y-97065260D01*
X129647500Y-97132114D01*
X129740686Y-97225300D01*
X129854814Y-97291192D01*
X129982108Y-97325300D01*
X129982110Y-97325300D01*
X130113890Y-97325300D01*
X130113892Y-97325300D01*
X130241186Y-97291192D01*
X130355314Y-97225300D01*
X130418995Y-97161619D01*
X130480318Y-97128134D01*
X130506676Y-97125300D01*
X132957760Y-97125300D01*
X132957762Y-97125300D01*
X133034189Y-97104821D01*
X133102711Y-97065260D01*
X133158660Y-97009311D01*
X133318381Y-96849590D01*
X136769500Y-96849590D01*
X136769500Y-96952410D01*
X136784747Y-97009311D01*
X136796112Y-97051727D01*
X136796113Y-97051730D01*
X136847519Y-97140769D01*
X136847521Y-97140772D01*
X136847522Y-97140773D01*
X136920227Y-97213478D01*
X136920228Y-97213479D01*
X136920230Y-97213480D01*
X136940703Y-97225300D01*
X137009272Y-97264888D01*
X137108590Y-97291500D01*
X137108592Y-97291500D01*
X137211408Y-97291500D01*
X137211410Y-97291500D01*
X137310728Y-97264888D01*
X137391745Y-97218113D01*
X137453745Y-97201500D01*
X141974760Y-97201500D01*
X141974762Y-97201500D01*
X142051189Y-97181021D01*
X142119711Y-97141460D01*
X142175660Y-97085511D01*
X142222863Y-97038308D01*
X142831700Y-97038308D01*
X142831700Y-97170092D01*
X142834880Y-97181961D01*
X142865808Y-97297387D01*
X142881924Y-97325300D01*
X142931700Y-97411514D01*
X143024886Y-97504700D01*
X143139014Y-97570592D01*
X143266308Y-97604700D01*
X143266310Y-97604700D01*
X143398090Y-97604700D01*
X143398092Y-97604700D01*
X143525386Y-97570592D01*
X143639514Y-97504700D01*
X143732700Y-97411514D01*
X143798592Y-97297386D01*
X143832700Y-97170092D01*
X143832700Y-97038308D01*
X143798592Y-96911014D01*
X143732700Y-96796886D01*
X143639514Y-96703700D01*
X143565949Y-96661227D01*
X143525387Y-96637808D01*
X143461739Y-96620754D01*
X143398092Y-96603700D01*
X143266308Y-96603700D01*
X143139012Y-96637808D01*
X143024886Y-96703700D01*
X143024883Y-96703702D01*
X142931702Y-96796883D01*
X142931700Y-96796886D01*
X142865808Y-96911012D01*
X142857371Y-96942500D01*
X142831700Y-97038308D01*
X142222863Y-97038308D01*
X144229717Y-95031454D01*
X144291040Y-94997969D01*
X144360732Y-95002953D01*
X144416665Y-95044825D01*
X144441082Y-95110289D01*
X144441398Y-95119135D01*
X144441398Y-95366269D01*
X144421713Y-95433308D01*
X144405079Y-95453950D01*
X144140223Y-95718805D01*
X144084636Y-95750899D01*
X143994270Y-95775112D01*
X143994269Y-95775113D01*
X143905230Y-95826519D01*
X143905225Y-95826523D01*
X143832523Y-95899225D01*
X143832519Y-95899230D01*
X143781113Y-95988269D01*
X143781112Y-95988272D01*
X143754500Y-96087590D01*
X143754500Y-96190409D01*
X143781112Y-96289727D01*
X143781113Y-96289730D01*
X143832519Y-96378769D01*
X143832521Y-96378772D01*
X143832522Y-96378773D01*
X143905227Y-96451478D01*
X143905228Y-96451479D01*
X143905230Y-96451480D01*
X143943552Y-96473605D01*
X143994272Y-96502888D01*
X144093590Y-96529500D01*
X144093592Y-96529500D01*
X144196408Y-96529500D01*
X144196410Y-96529500D01*
X144295728Y-96502888D01*
X144384773Y-96451478D01*
X144457478Y-96378773D01*
X144508888Y-96289728D01*
X144533101Y-96199361D01*
X144565192Y-96143778D01*
X144982358Y-95726613D01*
X144987000Y-95718573D01*
X145021919Y-95658091D01*
X145042398Y-95581664D01*
X145042398Y-94538190D01*
X145989700Y-94538190D01*
X145989700Y-94641010D01*
X146014540Y-94733712D01*
X146016312Y-94740327D01*
X146016313Y-94740330D01*
X146067719Y-94829369D01*
X146067721Y-94829372D01*
X146067722Y-94829373D01*
X146140427Y-94902078D01*
X146140428Y-94902079D01*
X146140430Y-94902080D01*
X146149655Y-94907406D01*
X146229472Y-94953488D01*
X146328790Y-94980100D01*
X146328792Y-94980100D01*
X146431608Y-94980100D01*
X146431610Y-94980100D01*
X146530928Y-94953488D01*
X146619973Y-94902078D01*
X146692678Y-94829373D01*
X146744088Y-94740328D01*
X146770700Y-94641010D01*
X146770700Y-94538190D01*
X146744088Y-94438872D01*
X146705080Y-94371308D01*
X146692680Y-94349830D01*
X146692676Y-94349825D01*
X146619974Y-94277123D01*
X146619969Y-94277119D01*
X146530930Y-94225713D01*
X146530929Y-94225712D01*
X146530928Y-94225712D01*
X146431610Y-94199100D01*
X146328790Y-94199100D01*
X146229472Y-94225712D01*
X146229469Y-94225713D01*
X146140430Y-94277119D01*
X146140425Y-94277123D01*
X146067723Y-94349825D01*
X146067719Y-94349830D01*
X146016313Y-94438869D01*
X146016312Y-94438872D01*
X145989700Y-94538190D01*
X145042398Y-94538190D01*
X145042398Y-93951117D01*
X145046623Y-93919023D01*
X145057444Y-93878640D01*
X145069398Y-93834028D01*
X145069398Y-93747796D01*
X145047079Y-93664502D01*
X145003963Y-93589822D01*
X144942988Y-93528847D01*
X144868308Y-93485731D01*
X144868309Y-93485731D01*
X144785007Y-93463410D01*
X144777107Y-93462370D01*
X144713212Y-93434099D01*
X144674745Y-93375772D01*
X144671518Y-93354240D01*
X144670361Y-93354393D01*
X144669300Y-93346336D01*
X144669300Y-93346334D01*
X144646981Y-93263040D01*
X144603865Y-93188360D01*
X144542890Y-93127385D01*
X144542889Y-93127384D01*
X144542886Y-93127382D01*
X144463671Y-93081648D01*
X144437990Y-93061942D01*
X144201189Y-92825141D01*
X144201181Y-92825135D01*
X144164946Y-92804215D01*
X144164942Y-92804214D01*
X144145383Y-92792921D01*
X144132667Y-92785579D01*
X144132668Y-92785579D01*
X144094452Y-92775339D01*
X144056239Y-92765100D01*
X144056237Y-92765100D01*
X137479145Y-92765100D01*
X137417145Y-92748487D01*
X137336130Y-92701713D01*
X137336129Y-92701712D01*
X137336128Y-92701712D01*
X137236810Y-92675100D01*
X137133990Y-92675100D01*
X137034672Y-92701712D01*
X137034669Y-92701713D01*
X136945630Y-92753119D01*
X136945625Y-92753123D01*
X136872923Y-92825825D01*
X136872919Y-92825830D01*
X136821513Y-92914869D01*
X136821512Y-92914872D01*
X136794900Y-93014190D01*
X136794900Y-93117010D01*
X136815829Y-93195116D01*
X136821512Y-93216327D01*
X136821513Y-93216330D01*
X136872919Y-93305369D01*
X136872921Y-93305372D01*
X136872922Y-93305373D01*
X136945627Y-93378078D01*
X137034672Y-93429488D01*
X137133990Y-93456100D01*
X137133992Y-93456100D01*
X137236808Y-93456100D01*
X137236810Y-93456100D01*
X137336128Y-93429488D01*
X137417145Y-93382713D01*
X137479145Y-93366100D01*
X138632748Y-93366100D01*
X138699787Y-93385785D01*
X138745542Y-93438589D01*
X138755486Y-93507747D01*
X138752523Y-93522193D01*
X138751912Y-93524470D01*
X138751912Y-93524472D01*
X138725300Y-93623790D01*
X138725300Y-93726610D01*
X138725587Y-93727679D01*
X138751912Y-93825927D01*
X138751913Y-93825930D01*
X138803319Y-93914969D01*
X138803323Y-93914974D01*
X138813368Y-93925019D01*
X138846853Y-93986342D01*
X138841869Y-94056034D01*
X138799997Y-94111967D01*
X138734533Y-94136384D01*
X138725687Y-94136700D01*
X137451778Y-94136700D01*
X137389778Y-94120087D01*
X137384457Y-94117015D01*
X137336128Y-94089112D01*
X137236810Y-94062500D01*
X137133990Y-94062500D01*
X137034672Y-94089112D01*
X137034669Y-94089113D01*
X136945630Y-94140519D01*
X136945625Y-94140523D01*
X136872923Y-94213225D01*
X136872919Y-94213230D01*
X136821513Y-94302269D01*
X136821512Y-94302272D01*
X136794900Y-94401590D01*
X136794900Y-94504410D01*
X136818743Y-94593392D01*
X136821512Y-94603727D01*
X136821513Y-94603730D01*
X136872919Y-94692769D01*
X136872921Y-94692772D01*
X136872922Y-94692773D01*
X136945627Y-94765478D01*
X136945628Y-94765479D01*
X136945630Y-94765480D01*
X136990149Y-94791183D01*
X137034672Y-94816888D01*
X137133990Y-94843500D01*
X137133992Y-94843500D01*
X137236808Y-94843500D01*
X137236810Y-94843500D01*
X137336128Y-94816888D01*
X137425173Y-94765478D01*
X137425177Y-94765473D01*
X137427977Y-94763326D01*
X137430774Y-94762244D01*
X137432211Y-94761415D01*
X137432340Y-94761639D01*
X137493145Y-94738130D01*
X137503466Y-94737700D01*
X138626450Y-94737700D01*
X138693489Y-94757385D01*
X138739244Y-94810189D01*
X138749188Y-94879347D01*
X138720163Y-94942903D01*
X138701938Y-94960075D01*
X138698224Y-94962924D01*
X138625523Y-95035625D01*
X138625519Y-95035630D01*
X138574113Y-95124669D01*
X138574112Y-95124672D01*
X138547500Y-95223990D01*
X138547500Y-95326810D01*
X138571836Y-95417631D01*
X138574112Y-95426127D01*
X138574113Y-95426130D01*
X138625519Y-95515169D01*
X138625521Y-95515172D01*
X138625522Y-95515173D01*
X138698227Y-95587878D01*
X138787272Y-95639288D01*
X138886590Y-95665900D01*
X138886592Y-95665900D01*
X138989408Y-95665900D01*
X138989410Y-95665900D01*
X139088728Y-95639288D01*
X139177773Y-95587878D01*
X139250478Y-95515173D01*
X139301888Y-95426128D01*
X139328500Y-95326810D01*
X139328500Y-95223990D01*
X139301888Y-95124672D01*
X139256577Y-95046190D01*
X139250480Y-95035630D01*
X139250476Y-95035625D01*
X139177775Y-94962924D01*
X139177773Y-94962922D01*
X139177770Y-94962920D01*
X139174062Y-94960075D01*
X139132860Y-94903646D01*
X139128706Y-94833900D01*
X139162920Y-94772980D01*
X139224638Y-94740228D01*
X139249550Y-94737700D01*
X141705903Y-94737700D01*
X141772942Y-94757385D01*
X141818697Y-94810189D01*
X141828641Y-94879347D01*
X141813291Y-94923699D01*
X141799912Y-94946871D01*
X141799912Y-94946872D01*
X141773300Y-95046190D01*
X141773300Y-95149009D01*
X141799912Y-95248327D01*
X141799913Y-95248330D01*
X141851319Y-95337369D01*
X141851323Y-95337374D01*
X141912159Y-95398210D01*
X141945644Y-95459533D01*
X141940660Y-95529225D01*
X141931869Y-95547885D01*
X141926913Y-95556469D01*
X141926912Y-95556472D01*
X141900300Y-95655790D01*
X141900300Y-95758610D01*
X141913838Y-95809132D01*
X141926912Y-95857927D01*
X141926913Y-95857930D01*
X141978319Y-95946969D01*
X141978321Y-95946972D01*
X141978322Y-95946973D01*
X142051027Y-96019678D01*
X142126961Y-96063518D01*
X142175176Y-96114084D01*
X142188400Y-96182691D01*
X142162432Y-96247556D01*
X142152642Y-96258586D01*
X141847048Y-96564181D01*
X141785725Y-96597666D01*
X141759367Y-96600500D01*
X137453745Y-96600500D01*
X137391745Y-96583887D01*
X137310730Y-96537113D01*
X137310729Y-96537112D01*
X137310728Y-96537112D01*
X137211410Y-96510500D01*
X137108590Y-96510500D01*
X137009272Y-96537112D01*
X137009269Y-96537113D01*
X136920230Y-96588519D01*
X136920225Y-96588523D01*
X136847523Y-96661225D01*
X136847519Y-96661230D01*
X136796113Y-96750269D01*
X136796112Y-96750272D01*
X136769500Y-96849590D01*
X133318381Y-96849590D01*
X134220997Y-95946974D01*
X135193951Y-94974019D01*
X135255274Y-94940534D01*
X135281632Y-94937700D01*
X135371690Y-94937700D01*
X135371692Y-94937700D01*
X135498986Y-94903592D01*
X135613114Y-94837700D01*
X135706300Y-94744514D01*
X135772192Y-94630386D01*
X135806300Y-94503092D01*
X135806300Y-94371308D01*
X135772192Y-94244014D01*
X135706300Y-94129886D01*
X135613114Y-94036700D01*
X135556050Y-94003754D01*
X135498987Y-93970808D01*
X135425497Y-93951117D01*
X135371692Y-93936700D01*
X135239908Y-93936700D01*
X135112612Y-93970808D01*
X134998486Y-94036700D01*
X134998483Y-94036702D01*
X134905302Y-94129883D01*
X134905300Y-94129886D01*
X134839408Y-94244012D01*
X134805300Y-94371308D01*
X134805300Y-94461366D01*
X134785615Y-94528405D01*
X134768981Y-94549047D01*
X132830048Y-96487981D01*
X132768725Y-96521466D01*
X132742367Y-96524300D01*
X130506676Y-96524300D01*
X130439637Y-96504615D01*
X130418995Y-96487981D01*
X130355316Y-96424302D01*
X130355314Y-96424300D01*
X130276461Y-96378774D01*
X130241187Y-96358408D01*
X130177539Y-96341354D01*
X130113892Y-96324300D01*
X129982108Y-96324300D01*
X129854812Y-96358408D01*
X129740686Y-96424300D01*
X129740683Y-96424302D01*
X129647502Y-96517483D01*
X129647500Y-96517486D01*
X129581608Y-96631612D01*
X129547500Y-96758908D01*
X127995188Y-96758908D01*
X127761996Y-96137857D01*
X127759765Y-96131374D01*
X127748314Y-96094859D01*
X127554422Y-95476578D01*
X127552569Y-95470044D01*
X127383829Y-94805264D01*
X127382337Y-94798620D01*
X127374731Y-94759758D01*
X127381172Y-94690190D01*
X127424204Y-94635145D01*
X127490164Y-94612102D01*
X127558112Y-94628378D01*
X127599524Y-94667053D01*
X127632897Y-94717000D01*
X127737983Y-94822086D01*
X127737990Y-94822092D01*
X127861563Y-94904660D01*
X127861564Y-94904660D01*
X127861565Y-94904661D01*
X127998875Y-94961537D01*
X128092193Y-94980099D01*
X128144638Y-94990531D01*
X128144642Y-94990532D01*
X128144643Y-94990532D01*
X129493268Y-94990532D01*
X129493269Y-94990531D01*
X129639035Y-94961537D01*
X129776345Y-94904661D01*
X129899921Y-94822091D01*
X130005014Y-94716998D01*
X130087584Y-94593422D01*
X130144460Y-94456112D01*
X130173455Y-94310344D01*
X130173455Y-94161720D01*
X130173448Y-94161685D01*
X131664498Y-94161685D01*
X131664498Y-94310318D01*
X131693491Y-94456074D01*
X131693493Y-94456082D01*
X131750369Y-94593393D01*
X131832937Y-94716966D01*
X131832943Y-94716973D01*
X131938026Y-94822056D01*
X131938033Y-94822062D01*
X132061606Y-94904630D01*
X132061607Y-94904630D01*
X132061608Y-94904631D01*
X132198918Y-94961507D01*
X132292392Y-94980100D01*
X132344681Y-94990501D01*
X132344685Y-94990502D01*
X132344686Y-94990502D01*
X133293311Y-94990502D01*
X133293312Y-94990501D01*
X133439078Y-94961507D01*
X133576388Y-94904631D01*
X133699964Y-94822061D01*
X133805057Y-94716968D01*
X133887627Y-94593392D01*
X133944503Y-94456082D01*
X133973498Y-94310314D01*
X133973498Y-94161690D01*
X133944503Y-94015922D01*
X133887627Y-93878612D01*
X133857837Y-93834028D01*
X133805058Y-93755037D01*
X133805052Y-93755030D01*
X133699969Y-93649947D01*
X133699962Y-93649941D01*
X133576389Y-93567373D01*
X133439078Y-93510497D01*
X133439070Y-93510495D01*
X133293314Y-93481502D01*
X133293310Y-93481502D01*
X132344686Y-93481502D01*
X132344681Y-93481502D01*
X132198925Y-93510495D01*
X132198917Y-93510497D01*
X132061606Y-93567373D01*
X131938033Y-93649941D01*
X131938026Y-93649947D01*
X131832943Y-93755030D01*
X131832937Y-93755037D01*
X131750369Y-93878610D01*
X131693493Y-94015921D01*
X131693491Y-94015929D01*
X131664498Y-94161685D01*
X130173448Y-94161685D01*
X130144460Y-94015952D01*
X130087584Y-93878642D01*
X130057774Y-93834028D01*
X130005015Y-93755067D01*
X130005009Y-93755060D01*
X129899926Y-93649977D01*
X129899919Y-93649971D01*
X129776346Y-93567403D01*
X129639035Y-93510527D01*
X129639027Y-93510525D01*
X129493271Y-93481532D01*
X129493267Y-93481532D01*
X128144643Y-93481532D01*
X128144638Y-93481532D01*
X127998882Y-93510525D01*
X127998875Y-93510527D01*
X127918387Y-93543865D01*
X127918368Y-93543873D01*
X127861565Y-93567403D01*
X127836381Y-93584229D01*
X127836369Y-93584236D01*
X127737986Y-93649974D01*
X127632900Y-93755060D01*
X127632894Y-93755067D01*
X127550326Y-93878640D01*
X127493450Y-94015951D01*
X127493448Y-94015956D01*
X127484738Y-94059746D01*
X127452352Y-94121657D01*
X127391636Y-94156230D01*
X127321866Y-94152489D01*
X127265195Y-94111622D01*
X127240300Y-94052612D01*
X127158827Y-93465951D01*
X127169102Y-93396844D01*
X127215111Y-93344261D01*
X127282244Y-93324898D01*
X127343649Y-93341511D01*
X127365608Y-93354189D01*
X127365609Y-93354189D01*
X127365614Y-93354192D01*
X127492908Y-93388300D01*
X127492910Y-93388300D01*
X127624689Y-93388300D01*
X127624692Y-93388300D01*
X127751986Y-93354192D01*
X127866114Y-93288300D01*
X127959300Y-93195114D01*
X128025192Y-93080986D01*
X128059300Y-92953692D01*
X128059300Y-92821908D01*
X128025192Y-92694614D01*
X128022243Y-92689507D01*
X128011632Y-92671128D01*
X127959300Y-92580486D01*
X127866114Y-92487300D01*
X127809050Y-92454354D01*
X127751987Y-92421408D01*
X127688339Y-92404354D01*
X127624692Y-92387300D01*
X127492908Y-92387300D01*
X127365614Y-92421408D01*
X127365613Y-92421408D01*
X127365611Y-92421409D01*
X127365610Y-92421409D01*
X127273119Y-92474809D01*
X127205218Y-92491282D01*
X127139192Y-92468429D01*
X127096001Y-92413508D01*
X127087166Y-92370838D01*
X127086224Y-92336676D01*
X127078265Y-92047882D01*
X127078218Y-92044466D01*
X127078218Y-91972790D01*
X133950100Y-91972790D01*
X133950100Y-92075610D01*
X133961721Y-92118978D01*
X133976712Y-92174927D01*
X133976713Y-92174930D01*
X134028119Y-92263969D01*
X134028121Y-92263972D01*
X134028122Y-92263973D01*
X134100827Y-92336678D01*
X134189872Y-92388088D01*
X134289190Y-92414700D01*
X134289192Y-92414700D01*
X134392008Y-92414700D01*
X134392010Y-92414700D01*
X134491328Y-92388088D01*
X134580373Y-92336678D01*
X134653078Y-92263973D01*
X134704488Y-92174928D01*
X134731100Y-92075610D01*
X134731100Y-91972790D01*
X134704488Y-91873472D01*
X134673228Y-91819328D01*
X134653080Y-91784430D01*
X134653076Y-91784425D01*
X134580374Y-91711723D01*
X134580369Y-91711719D01*
X134491330Y-91660313D01*
X134491329Y-91660312D01*
X134491328Y-91660312D01*
X134392010Y-91633700D01*
X134289190Y-91633700D01*
X134189872Y-91660312D01*
X134189869Y-91660313D01*
X134100830Y-91711719D01*
X134100825Y-91711723D01*
X134028123Y-91784425D01*
X134028119Y-91784430D01*
X133976713Y-91873469D01*
X133976712Y-91873472D01*
X133950100Y-91972790D01*
X127078218Y-91972790D01*
X127078218Y-91120108D01*
X128531500Y-91120108D01*
X128531500Y-91251892D01*
X128545653Y-91304712D01*
X128565608Y-91379187D01*
X128594267Y-91428825D01*
X128631500Y-91493314D01*
X128724686Y-91586500D01*
X128838814Y-91652392D01*
X128966108Y-91686500D01*
X128966110Y-91686500D01*
X129097890Y-91686500D01*
X129097892Y-91686500D01*
X129225186Y-91652392D01*
X129339314Y-91586500D01*
X129432500Y-91493314D01*
X129498392Y-91379186D01*
X129532500Y-91251892D01*
X129532500Y-91120108D01*
X129498392Y-90992814D01*
X129432500Y-90878686D01*
X129339314Y-90785500D01*
X129268283Y-90744490D01*
X129225187Y-90719608D01*
X129158453Y-90701727D01*
X129097892Y-90685500D01*
X128966108Y-90685500D01*
X128838812Y-90719608D01*
X128724686Y-90785500D01*
X128724683Y-90785502D01*
X128631502Y-90878683D01*
X128631500Y-90878686D01*
X128565608Y-90992812D01*
X128546893Y-91062660D01*
X128531500Y-91120108D01*
X127078218Y-91120108D01*
X127078218Y-90006304D01*
X128847853Y-90006304D01*
X128847853Y-90109124D01*
X128864328Y-90170608D01*
X128874465Y-90208441D01*
X128874466Y-90208444D01*
X128925872Y-90297483D01*
X128925874Y-90297486D01*
X128925875Y-90297487D01*
X128998580Y-90370192D01*
X129087625Y-90421602D01*
X129186943Y-90448214D01*
X129186945Y-90448214D01*
X129289761Y-90448214D01*
X129289763Y-90448214D01*
X129389081Y-90421602D01*
X129478126Y-90370192D01*
X129550831Y-90297487D01*
X129602241Y-90208442D01*
X129628853Y-90109124D01*
X129628853Y-90057590D01*
X134763500Y-90057590D01*
X134763500Y-90160409D01*
X134790112Y-90259727D01*
X134790113Y-90259730D01*
X134841519Y-90348769D01*
X134841521Y-90348772D01*
X134841522Y-90348773D01*
X134914227Y-90421478D01*
X134914228Y-90421479D01*
X134914230Y-90421480D01*
X134931894Y-90431678D01*
X135003272Y-90472888D01*
X135102590Y-90499500D01*
X135102592Y-90499500D01*
X135205408Y-90499500D01*
X135205410Y-90499500D01*
X135304728Y-90472888D01*
X135393773Y-90421478D01*
X135466478Y-90348773D01*
X135517888Y-90259728D01*
X135544500Y-90160410D01*
X135544500Y-90057590D01*
X135517888Y-89958272D01*
X135481540Y-89895315D01*
X135466480Y-89869230D01*
X135466476Y-89869225D01*
X135393774Y-89796523D01*
X135393769Y-89796519D01*
X135304730Y-89745113D01*
X135304729Y-89745112D01*
X135304728Y-89745112D01*
X135205410Y-89718500D01*
X135102590Y-89718500D01*
X135003272Y-89745112D01*
X135003269Y-89745113D01*
X134914230Y-89796519D01*
X134914225Y-89796523D01*
X134841523Y-89869225D01*
X134841519Y-89869230D01*
X134790113Y-89958269D01*
X134790112Y-89958272D01*
X134763500Y-90057590D01*
X129628853Y-90057590D01*
X129628853Y-90006304D01*
X129623277Y-89985497D01*
X129622371Y-89974278D01*
X129627281Y-89950653D01*
X129627855Y-89926534D01*
X129634262Y-89917065D01*
X129636590Y-89905870D01*
X129653493Y-89888651D01*
X129667016Y-89868670D01*
X129677526Y-89864168D01*
X129685536Y-89856010D01*
X129709062Y-89850663D01*
X129731244Y-89841164D01*
X129746165Y-89842231D01*
X129753669Y-89840526D01*
X129761374Y-89843319D01*
X129778060Y-89844512D01*
X129787985Y-89847172D01*
X129787988Y-89847172D01*
X129890803Y-89847172D01*
X129890805Y-89847172D01*
X129990123Y-89820560D01*
X130079168Y-89769150D01*
X130151873Y-89696445D01*
X130203283Y-89607400D01*
X130229895Y-89508082D01*
X130229895Y-89405262D01*
X130203283Y-89305944D01*
X130151873Y-89216899D01*
X130079168Y-89144194D01*
X130079167Y-89144193D01*
X130079164Y-89144191D01*
X129990125Y-89092785D01*
X129990124Y-89092784D01*
X129990123Y-89092784D01*
X129890805Y-89066172D01*
X129787985Y-89066172D01*
X129688667Y-89092784D01*
X129688664Y-89092785D01*
X129599625Y-89144191D01*
X129599620Y-89144195D01*
X129526918Y-89216897D01*
X129526914Y-89216902D01*
X129475508Y-89305941D01*
X129475507Y-89305944D01*
X129448895Y-89405262D01*
X129448895Y-89508083D01*
X129451554Y-89518006D01*
X129449891Y-89587856D01*
X129410727Y-89645718D01*
X129346498Y-89673221D01*
X129299687Y-89669873D01*
X129289764Y-89667214D01*
X129289763Y-89667214D01*
X129186943Y-89667214D01*
X129087625Y-89693826D01*
X129087622Y-89693827D01*
X128998583Y-89745233D01*
X128998578Y-89745237D01*
X128925876Y-89817939D01*
X128925872Y-89817944D01*
X128874466Y-89906983D01*
X128874465Y-89906986D01*
X128847853Y-90006304D01*
X127078218Y-90006304D01*
X127078218Y-88122908D01*
X129750700Y-88122908D01*
X129750700Y-88254691D01*
X129784808Y-88381987D01*
X129811703Y-88428569D01*
X129850700Y-88496114D01*
X129943886Y-88589300D01*
X130058014Y-88655192D01*
X130185308Y-88689300D01*
X130185310Y-88689300D01*
X130325219Y-88689300D01*
X130325219Y-88691436D01*
X130383100Y-88700455D01*
X130435362Y-88746828D01*
X130454256Y-88814094D01*
X130447134Y-88848844D01*
X130448216Y-88849134D01*
X130446112Y-88856983D01*
X130446112Y-88856985D01*
X130419500Y-88956303D01*
X130419500Y-89059123D01*
X130442702Y-89145712D01*
X130446112Y-89158440D01*
X130446113Y-89158443D01*
X130497519Y-89247482D01*
X130497521Y-89247485D01*
X130497522Y-89247486D01*
X130570227Y-89320191D01*
X130659272Y-89371601D01*
X130758590Y-89398213D01*
X130758592Y-89398213D01*
X130861408Y-89398213D01*
X130861410Y-89398213D01*
X130960728Y-89371601D01*
X131049773Y-89320191D01*
X131122478Y-89247486D01*
X131173888Y-89158441D01*
X131200500Y-89059123D01*
X131200500Y-88956303D01*
X131173888Y-88856985D01*
X131122478Y-88767940D01*
X131049773Y-88695235D01*
X131049772Y-88695234D01*
X131049769Y-88695232D01*
X130960730Y-88643826D01*
X130960729Y-88643825D01*
X130960728Y-88643825D01*
X130861410Y-88617213D01*
X130796558Y-88617213D01*
X130729519Y-88597528D01*
X130683764Y-88544724D01*
X130673820Y-88475566D01*
X130689171Y-88431212D01*
X130717591Y-88381987D01*
X130717592Y-88381986D01*
X130751700Y-88254692D01*
X130751700Y-88122908D01*
X130717592Y-87995614D01*
X130651700Y-87881486D01*
X130558514Y-87788300D01*
X130496095Y-87752262D01*
X130444387Y-87722408D01*
X130380739Y-87705354D01*
X130317092Y-87688300D01*
X130185308Y-87688300D01*
X130058012Y-87722408D01*
X129943886Y-87788300D01*
X129943883Y-87788302D01*
X129850702Y-87881483D01*
X129850700Y-87881486D01*
X129784808Y-87995612D01*
X129750700Y-88122908D01*
X127078218Y-88122908D01*
X127078218Y-87564108D01*
X131427100Y-87564108D01*
X131427100Y-87695892D01*
X131442204Y-87752262D01*
X131461208Y-87823187D01*
X131481659Y-87858608D01*
X131527100Y-87937314D01*
X131620286Y-88030500D01*
X131734414Y-88096392D01*
X131861708Y-88130500D01*
X131861710Y-88130500D01*
X131993490Y-88130500D01*
X131993492Y-88130500D01*
X132120786Y-88096392D01*
X132234914Y-88030500D01*
X132328100Y-87937314D01*
X132344568Y-87908790D01*
X134661300Y-87908790D01*
X134661300Y-88011610D01*
X134668391Y-88038072D01*
X134687912Y-88110927D01*
X134687913Y-88110930D01*
X134739319Y-88199969D01*
X134739321Y-88199972D01*
X134739322Y-88199973D01*
X134812027Y-88272678D01*
X134901072Y-88324088D01*
X135000390Y-88350700D01*
X135000392Y-88350700D01*
X135103208Y-88350700D01*
X135103210Y-88350700D01*
X135202528Y-88324088D01*
X135291573Y-88272678D01*
X135364278Y-88199973D01*
X135415688Y-88110928D01*
X135442300Y-88011610D01*
X135442300Y-87908790D01*
X135415688Y-87809472D01*
X135375059Y-87739100D01*
X135364280Y-87720430D01*
X135364276Y-87720425D01*
X135291574Y-87647723D01*
X135291569Y-87647719D01*
X135202530Y-87596313D01*
X135202529Y-87596312D01*
X135202528Y-87596312D01*
X135103210Y-87569700D01*
X135000390Y-87569700D01*
X134901072Y-87596312D01*
X134901069Y-87596313D01*
X134812030Y-87647719D01*
X134812025Y-87647723D01*
X134739323Y-87720425D01*
X134739319Y-87720430D01*
X134687913Y-87809469D01*
X134687912Y-87809472D01*
X134661300Y-87908790D01*
X132344568Y-87908790D01*
X132384803Y-87839102D01*
X132385057Y-87838662D01*
X132385058Y-87838660D01*
X132388613Y-87832502D01*
X132393992Y-87823186D01*
X132428100Y-87695892D01*
X132428100Y-87564108D01*
X132393992Y-87436814D01*
X132328100Y-87322686D01*
X132234914Y-87229500D01*
X132233952Y-87228538D01*
X132200467Y-87167215D01*
X132205451Y-87097523D01*
X132247323Y-87041590D01*
X132259623Y-87033476D01*
X132268973Y-87028078D01*
X132341678Y-86955373D01*
X132393088Y-86866328D01*
X132419700Y-86767010D01*
X132419700Y-86664190D01*
X132393088Y-86564872D01*
X132376706Y-86536498D01*
X132370711Y-86511790D01*
X137074300Y-86511790D01*
X137074300Y-86614610D01*
X137087586Y-86664192D01*
X137100912Y-86713927D01*
X137100913Y-86713930D01*
X137152319Y-86802969D01*
X137152321Y-86802972D01*
X137152322Y-86802973D01*
X137225027Y-86875678D01*
X137225028Y-86875679D01*
X137225030Y-86875680D01*
X137257013Y-86894145D01*
X137314072Y-86927088D01*
X137413390Y-86953700D01*
X137413392Y-86953700D01*
X137516208Y-86953700D01*
X137516210Y-86953700D01*
X137615528Y-86927088D01*
X137704573Y-86875678D01*
X137777278Y-86802973D01*
X137828688Y-86713928D01*
X137855300Y-86614610D01*
X137855300Y-86511790D01*
X137828688Y-86412472D01*
X137793016Y-86350686D01*
X137777280Y-86323430D01*
X137777276Y-86323425D01*
X137704574Y-86250723D01*
X137704569Y-86250719D01*
X137615530Y-86199313D01*
X137615529Y-86199312D01*
X137615528Y-86199312D01*
X137516210Y-86172700D01*
X137413390Y-86172700D01*
X137314072Y-86199312D01*
X137314069Y-86199313D01*
X137225030Y-86250719D01*
X137225025Y-86250723D01*
X137152323Y-86323425D01*
X137152319Y-86323430D01*
X137100913Y-86412469D01*
X137100912Y-86412472D01*
X137074300Y-86511790D01*
X132370711Y-86511790D01*
X132360233Y-86468600D01*
X132383085Y-86402572D01*
X132438005Y-86359381D01*
X132484093Y-86350498D01*
X133293311Y-86350498D01*
X133293312Y-86350497D01*
X133439078Y-86321503D01*
X133576388Y-86264627D01*
X133699964Y-86182057D01*
X133805057Y-86076964D01*
X133887627Y-85953388D01*
X133944503Y-85816078D01*
X133973498Y-85670310D01*
X133973498Y-85521686D01*
X133944503Y-85375918D01*
X133887627Y-85238608D01*
X133878726Y-85225287D01*
X133805058Y-85115033D01*
X133805052Y-85115026D01*
X133699969Y-85009943D01*
X133699962Y-85009937D01*
X133576389Y-84927369D01*
X133576390Y-84927369D01*
X133515002Y-84901942D01*
X133439078Y-84870493D01*
X133439070Y-84870491D01*
X133293314Y-84841498D01*
X133293310Y-84841498D01*
X132994405Y-84841498D01*
X132927366Y-84821813D01*
X132904573Y-84795508D01*
X134449700Y-84795508D01*
X134449700Y-84927292D01*
X134455454Y-84948766D01*
X134483808Y-85054587D01*
X134509739Y-85099500D01*
X134549700Y-85168714D01*
X134642886Y-85261900D01*
X134757014Y-85327792D01*
X134884308Y-85361900D01*
X134884310Y-85361900D01*
X135016090Y-85361900D01*
X135016092Y-85361900D01*
X135143386Y-85327792D01*
X135257514Y-85261900D01*
X135350700Y-85168714D01*
X135416592Y-85054586D01*
X135450700Y-84927292D01*
X135450700Y-84795508D01*
X135416592Y-84668214D01*
X135415595Y-84666488D01*
X135400580Y-84640480D01*
X135350700Y-84554086D01*
X135257514Y-84460900D01*
X135200450Y-84427954D01*
X135143387Y-84395008D01*
X135134283Y-84392568D01*
X135016092Y-84360900D01*
X134884308Y-84360900D01*
X134757012Y-84395008D01*
X134642886Y-84460900D01*
X134642883Y-84460902D01*
X134549702Y-84554083D01*
X134549700Y-84554086D01*
X134483808Y-84668212D01*
X134459105Y-84760408D01*
X134449700Y-84795508D01*
X132904573Y-84795508D01*
X132881611Y-84769009D01*
X132871667Y-84699851D01*
X132887018Y-84655498D01*
X132889137Y-84651828D01*
X132901088Y-84631128D01*
X132927700Y-84531810D01*
X132927700Y-84428990D01*
X132901088Y-84329672D01*
X132870441Y-84276590D01*
X135677300Y-84276590D01*
X135677300Y-84379410D01*
X135702351Y-84472900D01*
X135703912Y-84478727D01*
X135703913Y-84478730D01*
X135755319Y-84567769D01*
X135755321Y-84567772D01*
X135755322Y-84567773D01*
X135828027Y-84640478D01*
X135917072Y-84691888D01*
X136016390Y-84718500D01*
X136016392Y-84718500D01*
X136119208Y-84718500D01*
X136119210Y-84718500D01*
X136218528Y-84691888D01*
X136307573Y-84640478D01*
X136380278Y-84567773D01*
X136431688Y-84478728D01*
X136458300Y-84379410D01*
X136458300Y-84276590D01*
X136431688Y-84177272D01*
X136387863Y-84101364D01*
X136380282Y-84088233D01*
X136380276Y-84088225D01*
X136340041Y-84047990D01*
X137150500Y-84047990D01*
X137150500Y-84150810D01*
X137171571Y-84229446D01*
X137177112Y-84250127D01*
X137177113Y-84250130D01*
X137228519Y-84339169D01*
X137228521Y-84339172D01*
X137228522Y-84339173D01*
X137301227Y-84411878D01*
X137301228Y-84411879D01*
X137301230Y-84411880D01*
X137330866Y-84428990D01*
X137390272Y-84463288D01*
X137489590Y-84489900D01*
X137489592Y-84489900D01*
X137592408Y-84489900D01*
X137592410Y-84489900D01*
X137691728Y-84463288D01*
X137780773Y-84411878D01*
X137853478Y-84339173D01*
X137904888Y-84250128D01*
X137931500Y-84150810D01*
X137931500Y-84047990D01*
X137904888Y-83948672D01*
X137870161Y-83888523D01*
X137853480Y-83859630D01*
X137853476Y-83859625D01*
X137780774Y-83786923D01*
X137780769Y-83786919D01*
X137691730Y-83735513D01*
X137691729Y-83735512D01*
X137691728Y-83735512D01*
X137592410Y-83708900D01*
X137489590Y-83708900D01*
X137390272Y-83735512D01*
X137390269Y-83735513D01*
X137301230Y-83786919D01*
X137301225Y-83786923D01*
X137228523Y-83859625D01*
X137228519Y-83859630D01*
X137177113Y-83948669D01*
X137177112Y-83948672D01*
X137150500Y-84047990D01*
X136340041Y-84047990D01*
X136307574Y-84015523D01*
X136307569Y-84015519D01*
X136218530Y-83964113D01*
X136218529Y-83964112D01*
X136218528Y-83964112D01*
X136119210Y-83937500D01*
X136016390Y-83937500D01*
X135917072Y-83964112D01*
X135917069Y-83964113D01*
X135828030Y-84015519D01*
X135828025Y-84015523D01*
X135755323Y-84088225D01*
X135755319Y-84088230D01*
X135703913Y-84177269D01*
X135703912Y-84177272D01*
X135677300Y-84276590D01*
X132870441Y-84276590D01*
X132856481Y-84252410D01*
X132849680Y-84240630D01*
X132849676Y-84240625D01*
X132776974Y-84167923D01*
X132776969Y-84167919D01*
X132687930Y-84116513D01*
X132687929Y-84116512D01*
X132687928Y-84116512D01*
X132588610Y-84089900D01*
X132485790Y-84089900D01*
X132386472Y-84116512D01*
X132386469Y-84116513D01*
X132297430Y-84167919D01*
X132297425Y-84167923D01*
X132224723Y-84240625D01*
X132224719Y-84240630D01*
X132173313Y-84329669D01*
X132173312Y-84329672D01*
X132146700Y-84428990D01*
X132146700Y-84531810D01*
X132170867Y-84622001D01*
X132173312Y-84631127D01*
X132173315Y-84631134D01*
X132219082Y-84710406D01*
X132235555Y-84778306D01*
X132212702Y-84844333D01*
X132159148Y-84886966D01*
X132061606Y-84927369D01*
X131938033Y-85009937D01*
X131938026Y-85009943D01*
X131832943Y-85115026D01*
X131832937Y-85115033D01*
X131750369Y-85238606D01*
X131693493Y-85375917D01*
X131693491Y-85375925D01*
X131664498Y-85521681D01*
X131664498Y-85670314D01*
X131693491Y-85816070D01*
X131693493Y-85816078D01*
X131750369Y-85953389D01*
X131832937Y-86076962D01*
X131832943Y-86076969D01*
X131909519Y-86153545D01*
X131943004Y-86214868D01*
X131938020Y-86284560D01*
X131896148Y-86340493D01*
X131883838Y-86348613D01*
X131789430Y-86403119D01*
X131789425Y-86403123D01*
X131716723Y-86475825D01*
X131716719Y-86475830D01*
X131665313Y-86564869D01*
X131665312Y-86564872D01*
X131638700Y-86664190D01*
X131638700Y-86767010D01*
X131659402Y-86844269D01*
X131665312Y-86866327D01*
X131665313Y-86866330D01*
X131716719Y-86955369D01*
X131716723Y-86955374D01*
X131740944Y-86979595D01*
X131774429Y-87040918D01*
X131769445Y-87110610D01*
X131727573Y-87166543D01*
X131715265Y-87174662D01*
X131620289Y-87229498D01*
X131620283Y-87229502D01*
X131527102Y-87322683D01*
X131527100Y-87322686D01*
X131461208Y-87436812D01*
X131453732Y-87464715D01*
X131427100Y-87564108D01*
X127078218Y-87564108D01*
X127078218Y-86843136D01*
X127078258Y-86840003D01*
X127083538Y-86631112D01*
X127094466Y-86198808D01*
X127094681Y-86194018D01*
X127116707Y-85852806D01*
X127116974Y-85849404D01*
X127147286Y-85521651D01*
X127464455Y-85521651D01*
X127464455Y-85670284D01*
X127493448Y-85816040D01*
X127493450Y-85816048D01*
X127550326Y-85953359D01*
X127632894Y-86076932D01*
X127632900Y-86076939D01*
X127737983Y-86182022D01*
X127737990Y-86182028D01*
X127861563Y-86264596D01*
X127861564Y-86264596D01*
X127861565Y-86264597D01*
X127998875Y-86321473D01*
X128135317Y-86348613D01*
X128144638Y-86350467D01*
X128144642Y-86350468D01*
X128144643Y-86350468D01*
X129493268Y-86350468D01*
X129493269Y-86350467D01*
X129639035Y-86321473D01*
X129776345Y-86264597D01*
X129899921Y-86182027D01*
X130005014Y-86076934D01*
X130087584Y-85953358D01*
X130144460Y-85816048D01*
X130173455Y-85670280D01*
X130173455Y-85521656D01*
X130144460Y-85375888D01*
X130087584Y-85238578D01*
X130078703Y-85225287D01*
X130005015Y-85115003D01*
X130005009Y-85114996D01*
X129899926Y-85009913D01*
X129899919Y-85009907D01*
X129776346Y-84927339D01*
X129639035Y-84870463D01*
X129639027Y-84870461D01*
X129493271Y-84841468D01*
X129493267Y-84841468D01*
X128144643Y-84841468D01*
X128144638Y-84841468D01*
X127998882Y-84870461D01*
X127998874Y-84870463D01*
X127861563Y-84927339D01*
X127737990Y-85009907D01*
X127737983Y-85009913D01*
X127632900Y-85114996D01*
X127632894Y-85115003D01*
X127550326Y-85238576D01*
X127493450Y-85375887D01*
X127493448Y-85375895D01*
X127464455Y-85521651D01*
X127147286Y-85521651D01*
X127148682Y-85506553D01*
X127149046Y-85503149D01*
X127149341Y-85500705D01*
X127179340Y-85251900D01*
X127190342Y-85160642D01*
X127190801Y-85157234D01*
X127203355Y-85072888D01*
X127241457Y-84816902D01*
X127241986Y-84813655D01*
X127302213Y-84474077D01*
X127302859Y-84470716D01*
X127304390Y-84463288D01*
X127320783Y-84383768D01*
X127353597Y-84322085D01*
X127414552Y-84287933D01*
X127484294Y-84292158D01*
X127529910Y-84321124D01*
X127581686Y-84372900D01*
X127695814Y-84438792D01*
X127823108Y-84472900D01*
X127823110Y-84472900D01*
X127954890Y-84472900D01*
X127954892Y-84472900D01*
X128082186Y-84438792D01*
X128196314Y-84372900D01*
X128289500Y-84279714D01*
X128355392Y-84165586D01*
X128389500Y-84038292D01*
X128389500Y-83906508D01*
X128355392Y-83779214D01*
X128349745Y-83769434D01*
X128331539Y-83737900D01*
X128289500Y-83665086D01*
X128196314Y-83571900D01*
X128124756Y-83530586D01*
X128082187Y-83506008D01*
X127964274Y-83474414D01*
X127954892Y-83471900D01*
X127823108Y-83471900D01*
X127729788Y-83496905D01*
X127726048Y-83497907D01*
X127718422Y-83497725D01*
X127711482Y-83500887D01*
X127683980Y-83496905D01*
X127656198Y-83496244D01*
X127649881Y-83491968D01*
X127642334Y-83490876D01*
X127621349Y-83472657D01*
X127598336Y-83457081D01*
X127595334Y-83450070D01*
X127589574Y-83445070D01*
X127581770Y-83418396D01*
X127570832Y-83392853D01*
X127571604Y-83383650D01*
X127569955Y-83378011D01*
X127575011Y-83343086D01*
X127639135Y-83125485D01*
X127640117Y-83122315D01*
X127746493Y-82795102D01*
X127747597Y-82791861D01*
X127748790Y-82788512D01*
X127752536Y-82777990D01*
X130419500Y-82777990D01*
X130419500Y-82880810D01*
X130439918Y-82957009D01*
X130446112Y-82980127D01*
X130446113Y-82980130D01*
X130497519Y-83069169D01*
X130497521Y-83069172D01*
X130497522Y-83069173D01*
X130570227Y-83141878D01*
X130570228Y-83141879D01*
X130570230Y-83141880D01*
X130596594Y-83157101D01*
X130659272Y-83193288D01*
X130758590Y-83219900D01*
X130758592Y-83219900D01*
X130861407Y-83219900D01*
X130861410Y-83219900D01*
X130960728Y-83193288D01*
X130960731Y-83193285D01*
X130966206Y-83191819D01*
X131036056Y-83193482D01*
X131093919Y-83232644D01*
X131121423Y-83296873D01*
X131122300Y-83311594D01*
X131122300Y-83403292D01*
X131133494Y-83445070D01*
X131156408Y-83530587D01*
X131167996Y-83550657D01*
X131222300Y-83644714D01*
X131315486Y-83737900D01*
X131400396Y-83786923D01*
X131415021Y-83795367D01*
X131429614Y-83803792D01*
X131556908Y-83837900D01*
X131556910Y-83837900D01*
X131688690Y-83837900D01*
X131688692Y-83837900D01*
X131815986Y-83803792D01*
X131930114Y-83737900D01*
X132023300Y-83644714D01*
X132089192Y-83530586D01*
X132123300Y-83403292D01*
X132123300Y-83271508D01*
X132089192Y-83144214D01*
X132088717Y-83143392D01*
X132076516Y-83122258D01*
X132023300Y-83030086D01*
X131930114Y-82936900D01*
X131873050Y-82903954D01*
X131815987Y-82871008D01*
X131752339Y-82853954D01*
X131688692Y-82836900D01*
X131556908Y-82836900D01*
X131429614Y-82871008D01*
X131429613Y-82871008D01*
X131429611Y-82871009D01*
X131429610Y-82871009D01*
X131386500Y-82895899D01*
X131318599Y-82912372D01*
X131252573Y-82889519D01*
X131209382Y-82834598D01*
X131200500Y-82788512D01*
X131200500Y-82777992D01*
X131200500Y-82777990D01*
X131173888Y-82678672D01*
X131135380Y-82611974D01*
X131122480Y-82589630D01*
X131122476Y-82589625D01*
X131049774Y-82516923D01*
X131049769Y-82516919D01*
X130960730Y-82465513D01*
X130960729Y-82465512D01*
X130960728Y-82465512D01*
X130861410Y-82438900D01*
X130758590Y-82438900D01*
X130659272Y-82465512D01*
X130659269Y-82465513D01*
X130570230Y-82516919D01*
X130570225Y-82516923D01*
X130497523Y-82589625D01*
X130497519Y-82589630D01*
X130446113Y-82678669D01*
X130446112Y-82678672D01*
X130419500Y-82777990D01*
X127752536Y-82777990D01*
X127863141Y-82467336D01*
X127864338Y-82464118D01*
X127880039Y-82423609D01*
X127939581Y-82269990D01*
X135169300Y-82269990D01*
X135169300Y-82372810D01*
X135194515Y-82466912D01*
X135195912Y-82472127D01*
X135195913Y-82472130D01*
X135247319Y-82561169D01*
X135247321Y-82561172D01*
X135247322Y-82561173D01*
X135320027Y-82633878D01*
X135409072Y-82685288D01*
X135508390Y-82711900D01*
X135508392Y-82711900D01*
X135611208Y-82711900D01*
X135611210Y-82711900D01*
X135710528Y-82685288D01*
X135799573Y-82633878D01*
X135872278Y-82561173D01*
X135923688Y-82472128D01*
X135950300Y-82372810D01*
X135950300Y-82320790D01*
X137302900Y-82320790D01*
X137302900Y-82423610D01*
X137320802Y-82490419D01*
X137329512Y-82522927D01*
X137329513Y-82522930D01*
X137380919Y-82611969D01*
X137380921Y-82611972D01*
X137380922Y-82611973D01*
X137453627Y-82684678D01*
X137453628Y-82684679D01*
X137453630Y-82684680D01*
X137467097Y-82692455D01*
X137542672Y-82736088D01*
X137641990Y-82762700D01*
X137641992Y-82762700D01*
X137744808Y-82762700D01*
X137744810Y-82762700D01*
X137844128Y-82736088D01*
X137933173Y-82684678D01*
X138005878Y-82611973D01*
X138057288Y-82522928D01*
X138083900Y-82423610D01*
X138083900Y-82320790D01*
X138057288Y-82221472D01*
X138005878Y-82132427D01*
X137933173Y-82059722D01*
X137933172Y-82059721D01*
X137933169Y-82059719D01*
X137844130Y-82008313D01*
X137844129Y-82008312D01*
X137844128Y-82008312D01*
X137744810Y-81981700D01*
X137641990Y-81981700D01*
X137542672Y-82008312D01*
X137542669Y-82008313D01*
X137453630Y-82059719D01*
X137453625Y-82059723D01*
X137380923Y-82132425D01*
X137380919Y-82132430D01*
X137329513Y-82221469D01*
X137329512Y-82221472D01*
X137302900Y-82320790D01*
X135950300Y-82320790D01*
X135950300Y-82269990D01*
X135923688Y-82170672D01*
X135897825Y-82125876D01*
X135872280Y-82081630D01*
X135872276Y-82081625D01*
X135799574Y-82008923D01*
X135799569Y-82008919D01*
X135710530Y-81957513D01*
X135710529Y-81957512D01*
X135710528Y-81957512D01*
X135611210Y-81930900D01*
X135508390Y-81930900D01*
X135409072Y-81957512D01*
X135409069Y-81957513D01*
X135320030Y-82008919D01*
X135320025Y-82008923D01*
X135247323Y-82081625D01*
X135247319Y-82081630D01*
X135195913Y-82170669D01*
X135195912Y-82170672D01*
X135169300Y-82269990D01*
X127939581Y-82269990D01*
X127988701Y-82143259D01*
X127989925Y-82140227D01*
X128123282Y-81822577D01*
X128124607Y-81819539D01*
X128266619Y-81505907D01*
X128268019Y-81502926D01*
X128309681Y-81417308D01*
X141663300Y-81417308D01*
X141663300Y-81549091D01*
X141697408Y-81676387D01*
X141722638Y-81720086D01*
X141763300Y-81790514D01*
X141856486Y-81883700D01*
X141938239Y-81930900D01*
X141963112Y-81945261D01*
X141970614Y-81949592D01*
X142097908Y-81983700D01*
X142097910Y-81983700D01*
X142229690Y-81983700D01*
X142229692Y-81983700D01*
X142356986Y-81949592D01*
X142471114Y-81883700D01*
X142564300Y-81790514D01*
X142630192Y-81676386D01*
X142664300Y-81549092D01*
X142664300Y-81417308D01*
X142630192Y-81290014D01*
X142629195Y-81288288D01*
X142599515Y-81236880D01*
X142564300Y-81175886D01*
X142471114Y-81082700D01*
X142371527Y-81025203D01*
X142356987Y-81016808D01*
X142267576Y-80992851D01*
X142229692Y-80982700D01*
X142097908Y-80982700D01*
X141970612Y-81016808D01*
X141856486Y-81082700D01*
X141856483Y-81082702D01*
X141763302Y-81175883D01*
X141763300Y-81175886D01*
X141697408Y-81290012D01*
X141663300Y-81417308D01*
X128309681Y-81417308D01*
X128418680Y-81193306D01*
X128420179Y-81190330D01*
X128577285Y-80888961D01*
X128579752Y-80884461D01*
X128925038Y-80284274D01*
X128928602Y-80278457D01*
X128997491Y-80172708D01*
X132849500Y-80172708D01*
X132849500Y-80304492D01*
X132858905Y-80339592D01*
X132883608Y-80431787D01*
X132896222Y-80453634D01*
X132949500Y-80545914D01*
X133042686Y-80639100D01*
X133121541Y-80684627D01*
X133154191Y-80703478D01*
X133156814Y-80704992D01*
X133284108Y-80739100D01*
X133284110Y-80739100D01*
X133415890Y-80739100D01*
X133415892Y-80739100D01*
X133543186Y-80704992D01*
X133657314Y-80639100D01*
X133750500Y-80545914D01*
X133816392Y-80431786D01*
X133850500Y-80304492D01*
X133850500Y-80172708D01*
X133816392Y-80045414D01*
X133750500Y-79931286D01*
X133657314Y-79838100D01*
X133574403Y-79790231D01*
X133543187Y-79772208D01*
X133479539Y-79755154D01*
X133415892Y-79738100D01*
X133284108Y-79738100D01*
X133156812Y-79772208D01*
X133042686Y-79838100D01*
X133042683Y-79838102D01*
X132949502Y-79931283D01*
X132949500Y-79931286D01*
X132883608Y-80045412D01*
X132855256Y-80151227D01*
X132849500Y-80172708D01*
X128997491Y-80172708D01*
X129304006Y-79702186D01*
X129307884Y-79696579D01*
X129714318Y-79142293D01*
X129718505Y-79136904D01*
X129965798Y-78836060D01*
X130023574Y-78796771D01*
X130061589Y-78790800D01*
X131175784Y-78790800D01*
X131242823Y-78810485D01*
G37*
%TD.AperFunction*%
%TD*%
M02*
