%TF.GenerationSoftware,KiCad,Pcbnew,10.0.1*%
%TF.CreationDate,2026-06-08T16:40:29+09:00*%
%TF.ProjectId,reband,72656261-6e64-42e6-9b69-6361645f7063,rev?*%
%TF.SameCoordinates,Original*%
%TF.FileFunction,Soldermask,Bot*%
%TF.FilePolarity,Negative*%
%FSLAX46Y46*%
G04 Gerber Fmt 4.6, Leading zero omitted, Abs format (unit mm)*
G04 Created by KiCad (PCBNEW 10.0.1) date 2026-06-08 16:40:29*
%MOMM*%
%LPD*%
G01*
G04 APERTURE LIST*
G04 Aperture macros list*
%AMRoundRect*
0 Rectangle with rounded corners*
0 $1 Rounding radius*
0 $2 $3 $4 $5 $6 $7 $8 $9 X,Y pos of 4 corners*
0 Add a 4 corners polygon primitive as box body*
4,1,4,$2,$3,$4,$5,$6,$7,$8,$9,$2,$3,0*
0 Add four circle primitives for the rounded corners*
1,1,$1+$1,$2,$3*
1,1,$1+$1,$4,$5*
1,1,$1+$1,$6,$7*
1,1,$1+$1,$8,$9*
0 Add four rect primitives between the rounded corners*
20,1,$1+$1,$2,$3,$4,$5,0*
20,1,$1+$1,$4,$5,$6,$7,0*
20,1,$1+$1,$6,$7,$8,$9,0*
20,1,$1+$1,$8,$9,$2,$3,0*%
G04 Aperture macros list end*
%ADD10O,1.908000X1.108000*%
%ADD11O,2.308000X1.108000*%
%ADD12R,0.850000X0.850000*%
%ADD13C,0.850000*%
%ADD14C,1.244600*%
%ADD15C,2.286800*%
%ADD16RoundRect,0.102000X-0.525000X0.700000X-0.525000X-0.700000X0.525000X-0.700000X0.525000X0.700000X0*%
%ADD17R,0.762000X0.355600*%
%ADD18R,0.600000X1.750000*%
%ADD19R,1.200000X0.600000*%
%ADD20RoundRect,0.155000X0.155000X-0.212500X0.155000X0.212500X-0.155000X0.212500X-0.155000X-0.212500X0*%
G04 APERTURE END LIST*
D10*
%TO.C,J2*%
X132818998Y-85221598D03*
D11*
X128818955Y-85221568D03*
X128818955Y-93861632D03*
D10*
X132818998Y-93861602D03*
%TD*%
D12*
%TO.C,J5*%
X138217400Y-103457600D03*
D13*
X139217400Y-103457600D03*
%TD*%
D14*
%TO.C,J1*%
X142063700Y-101283200D03*
X142063700Y-99783199D03*
%TD*%
D15*
%TO.C,J3*%
X147955000Y-99618800D03*
%TD*%
D16*
%TO.C,S2*%
X148423800Y-93577000D03*
X148423800Y-97177000D03*
X149873800Y-93577000D03*
X149873800Y-97177000D03*
%TD*%
D17*
%TO.C,U6*%
X140690600Y-92875400D03*
X140690600Y-93675401D03*
X140690600Y-94475399D03*
X140690600Y-95275400D03*
X140690600Y-96075398D03*
X140690600Y-96875399D03*
X140690600Y-97675400D03*
X138303000Y-97675400D03*
X138303000Y-96875399D03*
X138303000Y-96075401D03*
X138303000Y-95275400D03*
X138303000Y-94475402D03*
X138303000Y-93675401D03*
X138303000Y-92875400D03*
%TD*%
D16*
%TO.C,S1*%
X148423800Y-81613600D03*
X148423800Y-85213600D03*
X149873800Y-81613600D03*
X149873800Y-85213600D03*
%TD*%
D18*
%TO.C,J6*%
X144891000Y-101699000D03*
X143891000Y-99949000D03*
%TD*%
D19*
%TO.C,IC1*%
X136144000Y-91059000D03*
X136144000Y-90109000D03*
X136144000Y-89159000D03*
X138644000Y-89159000D03*
X138644000Y-90109000D03*
X138644000Y-91059000D03*
%TD*%
D15*
%TO.C,J4*%
X131318000Y-99618800D03*
%TD*%
D20*
%TO.C,C16*%
X139700000Y-87435500D03*
X139700000Y-86300500D03*
%TD*%
M02*
