%TF.GenerationSoftware,KiCad,Pcbnew,10.0.1*%
%TF.CreationDate,2026-06-08T16:40:29+09:00*%
%TF.ProjectId,reband,72656261-6e64-42e6-9b69-6361645f7063,rev?*%
%TF.SameCoordinates,Original*%
%TF.FileFunction,Profile,NP*%
%FSLAX46Y46*%
G04 Gerber Fmt 4.6, Leading zero omitted, Abs format (unit mm)*
G04 Created by KiCad (PCBNEW 10.0.1) date 2026-06-08 16:40:29*
%MOMM*%
%LPD*%
G01*
G04 APERTURE LIST*
%TA.AperFunction,Profile*%
%ADD10C,0.313069*%
%TD*%
%ADD11C,0.313069*%
G04 APERTURE END LIST*
D10*
X126577718Y-86835259D02*
X126577718Y-92053089D01*
D11*
X126577718Y-92053089D02*
X126577758Y-92085460D01*
X126577878Y-92117828D01*
X126578078Y-92150193D01*
X126578358Y-92182555D01*
X126578718Y-92214913D01*
X126579157Y-92247267D01*
X126579677Y-92279617D01*
X126580277Y-92311964D01*
X126580956Y-92344306D01*
X126581716Y-92376645D01*
X126582555Y-92408978D01*
X126583474Y-92441308D01*
X126584473Y-92473632D01*
X126585552Y-92505952D01*
X126586711Y-92538266D01*
X126587950Y-92570576D01*
X126589268Y-92602880D01*
X126590667Y-92635179D01*
X126592145Y-92667472D01*
X126593703Y-92699760D01*
X126595340Y-92732041D01*
X126597058Y-92764317D01*
X126598855Y-92796586D01*
X126600732Y-92828850D01*
X126602689Y-92861106D01*
X126604725Y-92893356D01*
X126606841Y-92925599D01*
X126609037Y-92957835D01*
X126611313Y-92990064D01*
X126613668Y-93022286D01*
X126616103Y-93054500D01*
X126618617Y-93086707D01*
X126621211Y-93118906D01*
X126623885Y-93151098D01*
X126626638Y-93183281D01*
X126629471Y-93215456D01*
X126632384Y-93247622D01*
X126635376Y-93279780D01*
X126638447Y-93311930D01*
X126641598Y-93344070D01*
X126644829Y-93376202D01*
X126648138Y-93408324D01*
X126651528Y-93440437D01*
X126654997Y-93472541D01*
X126658545Y-93504635D01*
X126662172Y-93536719D01*
X126665879Y-93568793D01*
X126669666Y-93600857D01*
X126673531Y-93632911D01*
X126677476Y-93664954D01*
X126681500Y-93696987D01*
X126685604Y-93729009D01*
X126689786Y-93761019D01*
X126694048Y-93793019D01*
X126698389Y-93825008D01*
X126702809Y-93856985D01*
X126707309Y-93888951D01*
X126711887Y-93920904D01*
X126716545Y-93952846D01*
X126721281Y-93984776D01*
X126726097Y-94016693D01*
X126730992Y-94048598D01*
X126735965Y-94080491D01*
X126741018Y-94112370D01*
X126746150Y-94144237D01*
X126751360Y-94176090D01*
X126756649Y-94207931D01*
X126762017Y-94239757D01*
X126767464Y-94271570D01*
X126772990Y-94303370D01*
X126778595Y-94335155D01*
X126784278Y-94366926D01*
X126790040Y-94398683D01*
X126795880Y-94430426D01*
X126801799Y-94462153D01*
X126807797Y-94493866D01*
X126813874Y-94525564D01*
X126820028Y-94557247D01*
X126826262Y-94588914D01*
X126832574Y-94620566D01*
X126838964Y-94652202D01*
X126845433Y-94683822D01*
X126851980Y-94715426D01*
X126858605Y-94747014D01*
X126865309Y-94778586D01*
X126872090Y-94810141D01*
X126878950Y-94841679D01*
X126885889Y-94873200D01*
X126892905Y-94904704D01*
X126900000Y-94936191D01*
X126907172Y-94967660D01*
X126914423Y-94999112D01*
X126921751Y-95030546D01*
X126929158Y-95061962D01*
X126936642Y-95093359D01*
X126944204Y-95124739D01*
X126951844Y-95156099D01*
X126959562Y-95187441D01*
X126967357Y-95218764D01*
X126975230Y-95250068D01*
X126983181Y-95281353D01*
X126991209Y-95312618D01*
X126999315Y-95343864D01*
X127007499Y-95375090D01*
X127015760Y-95406296D01*
X127024098Y-95437481D01*
X127032513Y-95468647D01*
X127041006Y-95499792D01*
X127049576Y-95530916D01*
X127058224Y-95562019D01*
X127066948Y-95593101D01*
X127075750Y-95624161D01*
X127084629Y-95655201D01*
X127093584Y-95686218D01*
X127102617Y-95717214D01*
X127111727Y-95748188D01*
X127120913Y-95779140D01*
X127130176Y-95810069D01*
X127139516Y-95840976D01*
X127148933Y-95871860D01*
X127158426Y-95902721D01*
X127167996Y-95933559D01*
X127177642Y-95964373D01*
X127187365Y-95995164D01*
X127197164Y-96025932D01*
X127207040Y-96056675D01*
X127216992Y-96087395D01*
X127227020Y-96118090D01*
X127237124Y-96148761D01*
X127247304Y-96179407D01*
X127257561Y-96210029D01*
X127267893Y-96240625D01*
X127278302Y-96271197D01*
X127288786Y-96301743D01*
X127299346Y-96332263D01*
X127309982Y-96362758D01*
X127320693Y-96393227D01*
X127331480Y-96423669D01*
X127342343Y-96454086D01*
X127353281Y-96484476D01*
X127364294Y-96514839D01*
X127375383Y-96545176D01*
X127386547Y-96575485D01*
X127397787Y-96605767D01*
X127409101Y-96636022D01*
X127420491Y-96666249D01*
X127431955Y-96696448D01*
X127443495Y-96726620D01*
X127455109Y-96756763D01*
X127466798Y-96786878D01*
X127478562Y-96816964D01*
X127490401Y-96847022D01*
X127502314Y-96877050D01*
X127514302Y-96907050D01*
X127526364Y-96937020D01*
X127538501Y-96966961D01*
X127550711Y-96996872D01*
X127562996Y-97026753D01*
X127575355Y-97056605D01*
X127587789Y-97086426D01*
X127600296Y-97116216D01*
X127612877Y-97145976D01*
X127625532Y-97175705D01*
X127638260Y-97205403D01*
X127651063Y-97235070D01*
X127663939Y-97264706D01*
X127676888Y-97294310D01*
X127689911Y-97323882D01*
X127703007Y-97353422D01*
X127716177Y-97382931D01*
X127729419Y-97412407D01*
X127742735Y-97441850D01*
X127756124Y-97471261D01*
X127769585Y-97500639D01*
X127783120Y-97529984D01*
X127796727Y-97559295D01*
X127810407Y-97588573D01*
X127824160Y-97617818D01*
X127837985Y-97647028D01*
X127851882Y-97676205D01*
X127865852Y-97705348D01*
X127879894Y-97734456D01*
X127894008Y-97763530D01*
X127908194Y-97792568D01*
X127922453Y-97821572D01*
X127936783Y-97850541D01*
X127951184Y-97879475D01*
X127965658Y-97908373D01*
X127980203Y-97937235D01*
X127994820Y-97966062D01*
X128009508Y-97994852D01*
X128024267Y-98023606D01*
X128039098Y-98052324D01*
X128054000Y-98081005D01*
X128068973Y-98109650D01*
X128084016Y-98138257D01*
X128099131Y-98166828D01*
X128114316Y-98195361D01*
X128129572Y-98223856D01*
X128144899Y-98252314D01*
X128160296Y-98280734D01*
X128175763Y-98309116D01*
X128191301Y-98337459D01*
X128206909Y-98365764D01*
X128222587Y-98394031D01*
X128238334Y-98422258D01*
X128254152Y-98450447D01*
X128270040Y-98478597D01*
X128285997Y-98506707D01*
X128302023Y-98534777D01*
X128318119Y-98562808D01*
X128334285Y-98590799D01*
X128342393Y-98604780D01*
X128350519Y-98618750D01*
X128358663Y-98632711D01*
X128366823Y-98646661D01*
X128375001Y-98660601D01*
X128383196Y-98674531D01*
X128391408Y-98688451D01*
X128399638Y-98702361D01*
X128407884Y-98716260D01*
X128416148Y-98730150D01*
X128424429Y-98744029D01*
X128432728Y-98757898D01*
X128441043Y-98771756D01*
X128449375Y-98785604D01*
X128457725Y-98799442D01*
X128466092Y-98813270D01*
X128474476Y-98827087D01*
X128482877Y-98840893D01*
X128491295Y-98854690D01*
X128499730Y-98868476D01*
X128508182Y-98882251D01*
X128516651Y-98896016D01*
X128525137Y-98909770D01*
X128533640Y-98923514D01*
X128542160Y-98937247D01*
X128550697Y-98950970D01*
X128559251Y-98964682D01*
X128567822Y-98978384D01*
X128576410Y-98992075D01*
X128585015Y-99005755D01*
X128593637Y-99019424D01*
X128602276Y-99033083D01*
X128610931Y-99046731D01*
X128619603Y-99060369D01*
X128628293Y-99073995D01*
X128636999Y-99087611D01*
X128645722Y-99101216D01*
X128654461Y-99114810D01*
X128663218Y-99128393D01*
X128671991Y-99141965D01*
X128680781Y-99155527D01*
X128689588Y-99169077D01*
X128698411Y-99182617D01*
X128707252Y-99196146D01*
X128716109Y-99209663D01*
X128724982Y-99223170D01*
X128733873Y-99236665D01*
X128742780Y-99250150D01*
X128751703Y-99263623D01*
X128760644Y-99277085D01*
X128769601Y-99290536D01*
X128778574Y-99303976D01*
X128787564Y-99317405D01*
X128796571Y-99330823D01*
X128805594Y-99344229D01*
X128814634Y-99357625D01*
X128823690Y-99371008D01*
X128832763Y-99384381D01*
X128841852Y-99397743D01*
X128850958Y-99411093D01*
X128860081Y-99424431D01*
X128869220Y-99437759D01*
X128878375Y-99451075D01*
X128887546Y-99464379D01*
X128896734Y-99477672D01*
X128905939Y-99490954D01*
X128915160Y-99504224D01*
X128924397Y-99517483D01*
X128933651Y-99530730D01*
X128942921Y-99543966D01*
X128952207Y-99557190D01*
X128961510Y-99570403D01*
X128970828Y-99583604D01*
X128980164Y-99596794D01*
X128989515Y-99609971D01*
X128998883Y-99623138D01*
X129008267Y-99636292D01*
X129017667Y-99649435D01*
X129027083Y-99662566D01*
X129036516Y-99675685D01*
X129045965Y-99688792D01*
X129055430Y-99701888D01*
X129064911Y-99714972D01*
X129074408Y-99728044D01*
X129083921Y-99741104D01*
X129093451Y-99754153D01*
X129102996Y-99767189D01*
X129112558Y-99780214D01*
X129122135Y-99793227D01*
X129131729Y-99806228D01*
X129141339Y-99819216D01*
X129150965Y-99832193D01*
X129160606Y-99845158D01*
X129170264Y-99858111D01*
X129179938Y-99871051D01*
X129189628Y-99883980D01*
X129199333Y-99896897D01*
X129209055Y-99909801D01*
X129218792Y-99922693D01*
X129228545Y-99935574D01*
X129238314Y-99948442D01*
X129248099Y-99961298D01*
X129257900Y-99974141D01*
X129267717Y-99986973D01*
X129277549Y-99999791D01*
X129287398Y-100012599D01*
X129297262Y-100025393D01*
X129307142Y-100038175D01*
X129317037Y-100050945D01*
X129326949Y-100063703D01*
X129336875Y-100076448D01*
X129346818Y-100089181D01*
X129356776Y-100101901D01*
X129366751Y-100114609D01*
X129376740Y-100127304D01*
X129386746Y-100139988D01*
X129396767Y-100152658D01*
X129406804Y-100165316D01*
X129416856Y-100177962D01*
X129426924Y-100190595D01*
X129437007Y-100203215D01*
X129447106Y-100215823D01*
X129457220Y-100228418D01*
X129467350Y-100241001D01*
X129477495Y-100253571D01*
X129487656Y-100266128D01*
X129497833Y-100278672D01*
X129508025Y-100291205D01*
X129518232Y-100303723D01*
X129528455Y-100316230D01*
X129538692Y-100328723D01*
X129548946Y-100341205D01*
X129559215Y-100353672D01*
X129569499Y-100366128D01*
X129579798Y-100378570D01*
X129590113Y-100391000D01*
X129600443Y-100403416D01*
X129610789Y-100415820D01*
X129621149Y-100428211D01*
X129631526Y-100440589D01*
X129641917Y-100452954D01*
X129652323Y-100465306D01*
X129662745Y-100477644D01*
X129673182Y-100489971D01*
X129683633Y-100502283D01*
X129694101Y-100514584D01*
X129704583Y-100526870D01*
X129715081Y-100539144D01*
X129725593Y-100551404D01*
X129736121Y-100563652D01*
X129746663Y-100575886D01*
X129757221Y-100588108D01*
X129767794Y-100600315D01*
X129778382Y-100612511D01*
X129788985Y-100624692D01*
X129799603Y-100636861D01*
X129810235Y-100649015D01*
X129820883Y-100661158D01*
X129831546Y-100673286D01*
X129842224Y-100685401D01*
X129852916Y-100697503D01*
X129863624Y-100709592D01*
X129874346Y-100721666D01*
X129885084Y-100733729D01*
X129895835Y-100745777D01*
X129906603Y-100757812D01*
X129917384Y-100769833D01*
X129928181Y-100781842D01*
X129938992Y-100793836D01*
X129949818Y-100805817D01*
X129960659Y-100817785D01*
X129971515Y-100829739D01*
X129982385Y-100841679D01*
X129993270Y-100853607D01*
X130004169Y-100865519D01*
X130015084Y-100877420D01*
X130026013Y-100889305D01*
X130036957Y-100901178D01*
X130047915Y-100913037D01*
X130058888Y-100924882D01*
X130069875Y-100936714D01*
X130080877Y-100948532D01*
X130091893Y-100960335D01*
X130102925Y-100972126D01*
X130113970Y-100983902D01*
X130125031Y-100995666D01*
X130136105Y-101007414D01*
X130147194Y-101019150D01*
X130158297Y-101030871D01*
X130169416Y-101042579D01*
X130180548Y-101054272D01*
X130191695Y-101065952D01*
X130202856Y-101077617D01*
X130214032Y-101089270D01*
X130225221Y-101100907D01*
X130236426Y-101112532D01*
X130247644Y-101124142D01*
X130258877Y-101135738D01*
X130270124Y-101147320D01*
X130281386Y-101158888D01*
X130292661Y-101170442D01*
X130303951Y-101181982D01*
X130315255Y-101193508D01*
X130326574Y-101205020D01*
X130337906Y-101216518D01*
X130349253Y-101228002D01*
X130360613Y-101239471D01*
X130371989Y-101250927D01*
X130383378Y-101262367D01*
X130394781Y-101273795D01*
X130406198Y-101285207D01*
X130417630Y-101296606D01*
X130429075Y-101307990D01*
X130440535Y-101319360D01*
X130452008Y-101330716D01*
X130463496Y-101342058D01*
X130474996Y-101353385D01*
X130486512Y-101364698D01*
X130498041Y-101375996D01*
X130509585Y-101387281D01*
X130521142Y-101398550D01*
X130532713Y-101409806D01*
X130544298Y-101421047D01*
X130555897Y-101432274D01*
X130567509Y-101443485D01*
X130579136Y-101454684D01*
X130590776Y-101465866D01*
X130602431Y-101477036D01*
X130614098Y-101488190D01*
X130625781Y-101499330D01*
X130637476Y-101510455D01*
X130649185Y-101521566D01*
X130660908Y-101532662D01*
X130672645Y-101543744D01*
X130684395Y-101554810D01*
X130696159Y-101565863D01*
X130707936Y-101576900D01*
X130719728Y-101587924D01*
X130731532Y-101598932D01*
X130743351Y-101609926D01*
X130755183Y-101620905D01*
X130767029Y-101631870D01*
X130778887Y-101642819D01*
X130790761Y-101653754D01*
X130802646Y-101664674D01*
X130814547Y-101675580D01*
X130826459Y-101686470D01*
X130838386Y-101697347D01*
X130850326Y-101708207D01*
X130862280Y-101719054D01*
X130874246Y-101729885D01*
X130886227Y-101740702D01*
X130898220Y-101751503D01*
X130910228Y-101762290D01*
X130922248Y-101773062D01*
X130934282Y-101783819D01*
X130946329Y-101794561D01*
X130958390Y-101805288D01*
X130970463Y-101816000D01*
X130982550Y-101826698D01*
X130994650Y-101837379D01*
X131006764Y-101848047D01*
X131018890Y-101858699D01*
X131031030Y-101869336D01*
X131043182Y-101879958D01*
X131055349Y-101890565D01*
X131067528Y-101901157D01*
X131079721Y-101911734D01*
X131091926Y-101922295D01*
X131104145Y-101932843D01*
X131116376Y-101943374D01*
X131128621Y-101953890D01*
X131140879Y-101964391D01*
X131153150Y-101974878D01*
X131165433Y-101985348D01*
X131177731Y-101995804D01*
X131190040Y-102006244D01*
X131202363Y-102016669D01*
X131214698Y-102027079D01*
X131227048Y-102037474D01*
X131239408Y-102047853D01*
X131251784Y-102058217D01*
X131264170Y-102068565D01*
X131276571Y-102078899D01*
X131288983Y-102089217D01*
X131301410Y-102099520D01*
X131313848Y-102109807D01*
X131326300Y-102120079D01*
X131338764Y-102130335D01*
X131351241Y-102140577D01*
X131363730Y-102150802D01*
X131376233Y-102161013D01*
X131388748Y-102171207D01*
X131401277Y-102181387D01*
X131413816Y-102191551D01*
X131426370Y-102201700D01*
X131438935Y-102211832D01*
X131451515Y-102221950D01*
X131464105Y-102232051D01*
X131476709Y-102242138D01*
X131489325Y-102252209D01*
X131501955Y-102262264D01*
X131514595Y-102272304D01*
X131527250Y-102282328D01*
X131539916Y-102292336D01*
X131552595Y-102302329D01*
X131565286Y-102312306D01*
X131577990Y-102322268D01*
X131590706Y-102332213D01*
X131603435Y-102342144D01*
X131616176Y-102352058D01*
X131628930Y-102361958D01*
X131641695Y-102371840D01*
X131654474Y-102381708D01*
X131667264Y-102391559D01*
X131680068Y-102401395D01*
X131692882Y-102411215D01*
X131705711Y-102421020D01*
X131718550Y-102430808D01*
X131731403Y-102440581D01*
X131744266Y-102450338D01*
X131757144Y-102460079D01*
X131770032Y-102469804D01*
X131782933Y-102479514D01*
X131795846Y-102489207D01*
X131808772Y-102498885D01*
X131821709Y-102508546D01*
X131834659Y-102518193D01*
X131847620Y-102527822D01*
X131860595Y-102537436D01*
X131873580Y-102547034D01*
X131886579Y-102556617D01*
X131899588Y-102566182D01*
X131912611Y-102575733D01*
X131925644Y-102585266D01*
X131938691Y-102594785D01*
X131951748Y-102604287D01*
X131964819Y-102613773D01*
X131977901Y-102623243D01*
X131990995Y-102632697D01*
X132004100Y-102642135D01*
X132017219Y-102651557D01*
X132030348Y-102660962D01*
X132043490Y-102670353D01*
X132056643Y-102679726D01*
X132069809Y-102689084D01*
X132082985Y-102698424D01*
X132096175Y-102707750D01*
X132109375Y-102717058D01*
X132122588Y-102726352D01*
X132135812Y-102735628D01*
X132149048Y-102744889D01*
X132162295Y-102754132D01*
X132175555Y-102763361D01*
X132188826Y-102772572D01*
X132202109Y-102781768D01*
X132215403Y-102790947D01*
X132228710Y-102800110D01*
X132242027Y-102809257D01*
X132255357Y-102818388D01*
X132268697Y-102827501D01*
X132282050Y-102836599D01*
X132295414Y-102845680D01*
X132308790Y-102854746D01*
X132322177Y-102863794D01*
X132335576Y-102872827D01*
X132348986Y-102881843D01*
X132362408Y-102890843D01*
X132375840Y-102899826D01*
X132389286Y-102908793D01*
X132402741Y-102917743D01*
X132416210Y-102926678D01*
X132429688Y-102935595D01*
X132443179Y-102944496D01*
X132456680Y-102953381D01*
X132470194Y-102962249D01*
X132483717Y-102971101D01*
X132497254Y-102979936D01*
X132510800Y-102988755D01*
X132524359Y-102997557D01*
X132537928Y-103006342D01*
X132551510Y-103015112D01*
X132565101Y-103023864D01*
X132578705Y-103032601D01*
X132592319Y-103041320D01*
X132605946Y-103050023D01*
X132619582Y-103058709D01*
X132633231Y-103067379D01*
X132646889Y-103076032D01*
X132660561Y-103084669D01*
X132674242Y-103093288D01*
X132687935Y-103101892D01*
X132701638Y-103110478D01*
X132715354Y-103119049D01*
X132729079Y-103127601D01*
X132742817Y-103136138D01*
X132756564Y-103144658D01*
X132770324Y-103153161D01*
X132784094Y-103161647D01*
X132797875Y-103170117D01*
X132811667Y-103178570D01*
X132825471Y-103187007D01*
X132839284Y-103195426D01*
X132853110Y-103203829D01*
X132866944Y-103212214D01*
X132880792Y-103220584D01*
X132894649Y-103228936D01*
X132908518Y-103237272D01*
X132922397Y-103245590D01*
X132936288Y-103253892D01*
X132950188Y-103262177D01*
X132964100Y-103270445D01*
X132978022Y-103278696D01*
X132991956Y-103286931D01*
X133005900Y-103295148D01*
X133019855Y-103303350D01*
X133033820Y-103311533D01*
X133047797Y-103319700D01*
X133061783Y-103327850D01*
X133075782Y-103335983D01*
X133100000Y-103350000D01*
X133099998Y-75538347D02*
X133071984Y-75554567D01*
X133044012Y-75570855D01*
X133016083Y-75587211D01*
X132988197Y-75603634D01*
X132960354Y-75620125D01*
X132932554Y-75636683D01*
X132904798Y-75653308D01*
X132877085Y-75670000D01*
X132849415Y-75686760D01*
X132821789Y-75703587D01*
X132794207Y-75720481D01*
X132766669Y-75737441D01*
X132739174Y-75754469D01*
X132711724Y-75771563D01*
X132684318Y-75788724D01*
X132656956Y-75805952D01*
X132629639Y-75823246D01*
X132602367Y-75840606D01*
X132575139Y-75858033D01*
X132547956Y-75875526D01*
X132520818Y-75893085D01*
X132493726Y-75910710D01*
X132466678Y-75928401D01*
X132439676Y-75946158D01*
X132412719Y-75963981D01*
X132385808Y-75981870D01*
X132358943Y-75999824D01*
X132332123Y-76017844D01*
X132305350Y-76035929D01*
X132278623Y-76054080D01*
X132251942Y-76072295D01*
X132225307Y-76090576D01*
X132198719Y-76108923D01*
X132172177Y-76127334D01*
X132145682Y-76145810D01*
X132119234Y-76164350D01*
X132092834Y-76182956D01*
X132066480Y-76201626D01*
X132040173Y-76220361D01*
X132013914Y-76239160D01*
X131987703Y-76258023D01*
X131961539Y-76276951D01*
X131935423Y-76295943D01*
X131909355Y-76314999D01*
X131883335Y-76334118D01*
X131857363Y-76353302D01*
X131831439Y-76372549D01*
X131805564Y-76391860D01*
X131779737Y-76411235D01*
X131753959Y-76430673D01*
X131728230Y-76450174D01*
X131702550Y-76469739D01*
X131676919Y-76489367D01*
X131651337Y-76509058D01*
X131625805Y-76528811D01*
X131600322Y-76548628D01*
X131574889Y-76568507D01*
X131549505Y-76588449D01*
X131524171Y-76608454D01*
X131498888Y-76628521D01*
X131473654Y-76648650D01*
X131448471Y-76668841D01*
X131423338Y-76689095D01*
X131398256Y-76709410D01*
X131373224Y-76729788D01*
X131348244Y-76750227D01*
X131323314Y-76770728D01*
X131298435Y-76791290D01*
X131273607Y-76811914D01*
X131248831Y-76832599D01*
X131224107Y-76853345D01*
X131199433Y-76874153D01*
X131174812Y-76895021D01*
X131150243Y-76915950D01*
X131125725Y-76936940D01*
X131101260Y-76957991D01*
X131076847Y-76979102D01*
X131052486Y-77000274D01*
X131028178Y-77021506D01*
X131003923Y-77042798D01*
X130979720Y-77064150D01*
X130955571Y-77085562D01*
X130931474Y-77107034D01*
X130907431Y-77128566D01*
X130883441Y-77150157D01*
X130859504Y-77171808D01*
X130835621Y-77193518D01*
X130811792Y-77215287D01*
X130788017Y-77237116D01*
X130764296Y-77259003D01*
X130740629Y-77280949D01*
X130717016Y-77302954D01*
X130693458Y-77325018D01*
X130669954Y-77347140D01*
X130646505Y-77369320D01*
X130623111Y-77391559D01*
X130599772Y-77413856D01*
X130576488Y-77436211D01*
X130553259Y-77458623D01*
X130530085Y-77481094D01*
X130506967Y-77503622D01*
X130483905Y-77526207D01*
X130460898Y-77548850D01*
X130437948Y-77571550D01*
X130415053Y-77594307D01*
X130392214Y-77617121D01*
X130369432Y-77639991D01*
X130346707Y-77662919D01*
X130324037Y-77685903D01*
X130301425Y-77708943D01*
X130278869Y-77732040D01*
X130256371Y-77755193D01*
X130233929Y-77778402D01*
X130211545Y-77801666D01*
X130189218Y-77824987D01*
X130166949Y-77848363D01*
X130144737Y-77871794D01*
X130122583Y-77895281D01*
X130100487Y-77918823D01*
X130078449Y-77942420D01*
X130056469Y-77966072D01*
X130034547Y-77989779D01*
X130012684Y-78013540D01*
X129990880Y-78037356D01*
X129969134Y-78061226D01*
X129947447Y-78085150D01*
X129925819Y-78109128D01*
X129904250Y-78133161D01*
X129882741Y-78157247D01*
X129861290Y-78181386D01*
X129839899Y-78205579D01*
X129818568Y-78229826D01*
X129797297Y-78254125D01*
X129776085Y-78278478D01*
X129754934Y-78302883D01*
X129733842Y-78327342D01*
X129712811Y-78351852D01*
X129691841Y-78376416D01*
X129670931Y-78401031D01*
X129650081Y-78425699D01*
X129629293Y-78450418D01*
X129608565Y-78475190D01*
X129587898Y-78500013D01*
X129567293Y-78524888D01*
X129546748Y-78549814D01*
X129526266Y-78574791D01*
X129505845Y-78599819D01*
X129485485Y-78624899D01*
X129465188Y-78650029D01*
X129444952Y-78675209D01*
X129424778Y-78700440D01*
X129404667Y-78725722D01*
X129384618Y-78751053D01*
X129364631Y-78776434D01*
X129344707Y-78801866D01*
X129324846Y-78827347D01*
X129305048Y-78852877D01*
X129285312Y-78878457D01*
X129265640Y-78904086D01*
X129246031Y-78929764D01*
X129226485Y-78955490D01*
X129207003Y-78981266D01*
X129187584Y-79007090D01*
X129168229Y-79032962D01*
X129148938Y-79058883D01*
X129129710Y-79084852D01*
X129110547Y-79110868D01*
X129091448Y-79136932D01*
X129072414Y-79163044D01*
X129053443Y-79189203D01*
X129034538Y-79215410D01*
X129015697Y-79241663D01*
X128996921Y-79267964D01*
X128978210Y-79294311D01*
X128959563Y-79320704D01*
X128940983Y-79347144D01*
X128922467Y-79373631D01*
X128904017Y-79400163D01*
X128885632Y-79426741D01*
X128867313Y-79453365D01*
X128849059Y-79480035D01*
X128830872Y-79506749D01*
X128812751Y-79533509D01*
X128794695Y-79560315D01*
X128776706Y-79587164D01*
X128758784Y-79614059D01*
X128740927Y-79640998D01*
X128723138Y-79667982D01*
X128705415Y-79695009D01*
X128687758Y-79722081D01*
X128670169Y-79749197D01*
X128652647Y-79776356D01*
X128635192Y-79803558D01*
X128617804Y-79830804D01*
X128600484Y-79858093D01*
X128583231Y-79885425D01*
X128566045Y-79912800D01*
X128548928Y-79940218D01*
X128531878Y-79967677D01*
X128514896Y-79995179D01*
X128497982Y-80022724D01*
X128481136Y-80050310D01*
X128464359Y-80077937D01*
X128447650Y-80105607D01*
X128431009Y-80133317D01*
X128414437Y-80161069D01*
X128397934Y-80188862D01*
X128381500Y-80216696D01*
X128365134Y-80244570D01*
X128348837Y-80272485D01*
X128332610Y-80300440D01*
X128316452Y-80328435D01*
X128308399Y-80342448D01*
X128300363Y-80356470D01*
X128292344Y-80370503D01*
X128284343Y-80384545D01*
X128276360Y-80398597D01*
X128268393Y-80412659D01*
X128260444Y-80426731D01*
X128252513Y-80440813D01*
X128244599Y-80454905D01*
X128236702Y-80469006D01*
X128228823Y-80483117D01*
X128220962Y-80497238D01*
X128213118Y-80511369D01*
X128205291Y-80525509D01*
X128197482Y-80539659D01*
X128189690Y-80553818D01*
X128181916Y-80567988D01*
X128174159Y-80582166D01*
X128166421Y-80596355D01*
X128158699Y-80610553D01*
X128150995Y-80624760D01*
X128143309Y-80638977D01*
X128135641Y-80653203D01*
X128127989Y-80667439D01*
X128120356Y-80681684D01*
X128112740Y-80695939D01*
X128105142Y-80710203D01*
X128097562Y-80724477D01*
X128089999Y-80738759D01*
X128082454Y-80753052D01*
X128074927Y-80767353D01*
X128067418Y-80781664D01*
X128059926Y-80795984D01*
X128052452Y-80810313D01*
X128044995Y-80824651D01*
X128037557Y-80838999D01*
X128030136Y-80853355D01*
X128022733Y-80867721D01*
X128015348Y-80882096D01*
X128007981Y-80896480D01*
X128000631Y-80910873D01*
X127993299Y-80925276D01*
X127985986Y-80939687D01*
X127978690Y-80954107D01*
X127971412Y-80968536D01*
X127964151Y-80982974D01*
X127956909Y-80997421D01*
X127949685Y-81011877D01*
X127942478Y-81026342D01*
X127935290Y-81040816D01*
X127928119Y-81055298D01*
X127920966Y-81069789D01*
X127913832Y-81084289D01*
X127906715Y-81098798D01*
X127899616Y-81113316D01*
X127892535Y-81127842D01*
X127885473Y-81142377D01*
X127878428Y-81156921D01*
X127871402Y-81171473D01*
X127864393Y-81186034D01*
X127857402Y-81200603D01*
X127850430Y-81215182D01*
X127843476Y-81229768D01*
X127836539Y-81244364D01*
X127829621Y-81258967D01*
X127822721Y-81273579D01*
X127815839Y-81288200D01*
X127808975Y-81302829D01*
X127802130Y-81317466D01*
X127795302Y-81332113D01*
X127788493Y-81346767D01*
X127781702Y-81361429D01*
X127774929Y-81376100D01*
X127768174Y-81390779D01*
X127761437Y-81405467D01*
X127754719Y-81420163D01*
X127748019Y-81434866D01*
X127741337Y-81449579D01*
X127734673Y-81464299D01*
X127728028Y-81479028D01*
X127721401Y-81493764D01*
X127714792Y-81508509D01*
X127708202Y-81523262D01*
X127701629Y-81538023D01*
X127695076Y-81552791D01*
X127688540Y-81567569D01*
X127682023Y-81582353D01*
X127675524Y-81597146D01*
X127669043Y-81611947D01*
X127662581Y-81626756D01*
X127656138Y-81641572D01*
X127649712Y-81656397D01*
X127643305Y-81671229D01*
X127636916Y-81686070D01*
X127630546Y-81700917D01*
X127624195Y-81715774D01*
X127617861Y-81730637D01*
X127611546Y-81745508D01*
X127605250Y-81760387D01*
X127598972Y-81775274D01*
X127592713Y-81790168D01*
X127586472Y-81805070D01*
X127580249Y-81819980D01*
X127574045Y-81834897D01*
X127567860Y-81849822D01*
X127561693Y-81864754D01*
X127555545Y-81879694D01*
X127549415Y-81894641D01*
X127543303Y-81909596D01*
X127537211Y-81924558D01*
X127531137Y-81939528D01*
X127525081Y-81954505D01*
X127519044Y-81969489D01*
X127513025Y-81984481D01*
X127507026Y-81999480D01*
X127501045Y-82014487D01*
X127495082Y-82029500D01*
X127489138Y-82044521D01*
X127483213Y-82059549D01*
X127477306Y-82074585D01*
X127471419Y-82089627D01*
X127465549Y-82104678D01*
X127459699Y-82119734D01*
X127453867Y-82134799D01*
X127448054Y-82149869D01*
X127442259Y-82164948D01*
X127436483Y-82180033D01*
X127430726Y-82195125D01*
X127424988Y-82210224D01*
X127419268Y-82225331D01*
X127413568Y-82240444D01*
X127407886Y-82255564D01*
X127402223Y-82270691D01*
X127396578Y-82285826D01*
X127390952Y-82300966D01*
X127385345Y-82316114D01*
X127379758Y-82331268D01*
X127374188Y-82346430D01*
X127368638Y-82361597D01*
X127363106Y-82376773D01*
X127357593Y-82391954D01*
X127352099Y-82407142D01*
X127346624Y-82422337D01*
X127341168Y-82437539D01*
X127335731Y-82452746D01*
X127330312Y-82467962D01*
X127324913Y-82483182D01*
X127319532Y-82498411D01*
X127314171Y-82513645D01*
X127308828Y-82528886D01*
X127303504Y-82544133D01*
X127298199Y-82559387D01*
X127292913Y-82574647D01*
X127287646Y-82589915D01*
X127282398Y-82605187D01*
X127277168Y-82620467D01*
X127271958Y-82635753D01*
X127266767Y-82651045D01*
X127261595Y-82666343D01*
X127256441Y-82681648D01*
X127251307Y-82696959D01*
X127246192Y-82712277D01*
X127241096Y-82727600D01*
X127236018Y-82742930D01*
X127230960Y-82758265D01*
X127225921Y-82773607D01*
X127220901Y-82788955D01*
X127215900Y-82804309D01*
X127210918Y-82819669D01*
X127205955Y-82835036D01*
X127201011Y-82850408D01*
X127196086Y-82865786D01*
X127191181Y-82881170D01*
X127186294Y-82896561D01*
X127181427Y-82911956D01*
X127176578Y-82927359D01*
X127171749Y-82942766D01*
X127166939Y-82958180D01*
X127162148Y-82973599D01*
X127157376Y-82989025D01*
X127152624Y-83004456D01*
X127147890Y-83019893D01*
X127143176Y-83035335D01*
X127138481Y-83050784D01*
X127133805Y-83066238D01*
X127129148Y-83081698D01*
X127124510Y-83097163D01*
X127119892Y-83112635D01*
X127115293Y-83128111D01*
X127110712Y-83143593D01*
X127106152Y-83159080D01*
X127101610Y-83174574D01*
X127097088Y-83190073D01*
X127092585Y-83205577D01*
X127088101Y-83221087D01*
X127083636Y-83236602D01*
X127079191Y-83252122D01*
X127074765Y-83267649D01*
X127070358Y-83283180D01*
X127065970Y-83298717D01*
X127061602Y-83314258D01*
X127057253Y-83329806D01*
X127052923Y-83345358D01*
X127048613Y-83360917D01*
X127044322Y-83376479D01*
X127040050Y-83392048D01*
X127035798Y-83407621D01*
X127031564Y-83423200D01*
X127027351Y-83438784D01*
X127023156Y-83454373D01*
X127018981Y-83469967D01*
X127014825Y-83485566D01*
X127010689Y-83501170D01*
X127006572Y-83516780D01*
X127002474Y-83532393D01*
X126998396Y-83548013D01*
X126994337Y-83563636D01*
X126990297Y-83579266D01*
X126986277Y-83594899D01*
X126982276Y-83610539D01*
X126978295Y-83626182D01*
X126974333Y-83641831D01*
X126970390Y-83657484D01*
X126966467Y-83673143D01*
X126962564Y-83688805D01*
X126958679Y-83704474D01*
X126954814Y-83720145D01*
X126950969Y-83735823D01*
X126947143Y-83751505D01*
X126943336Y-83767192D01*
X126939550Y-83782882D01*
X126935782Y-83798579D01*
X126932034Y-83814278D01*
X126928305Y-83829984D01*
X126924596Y-83845693D01*
X126920906Y-83861408D01*
X126917236Y-83877126D01*
X126913585Y-83892849D01*
X126909954Y-83908576D01*
X126906342Y-83924309D01*
X126902750Y-83940045D01*
X126899178Y-83955786D01*
X126895625Y-83971530D01*
X126892091Y-83987281D01*
X126888577Y-84003034D01*
X126885082Y-84018793D01*
X126881607Y-84034554D01*
X126878152Y-84050322D01*
X126874716Y-84066092D01*
X126871299Y-84081868D01*
X126867903Y-84097647D01*
X126864525Y-84113431D01*
X126861168Y-84129218D01*
X126857830Y-84145010D01*
X126854511Y-84160805D01*
X126851212Y-84176606D01*
X126847933Y-84192410D01*
X126844673Y-84208218D01*
X126841433Y-84224030D01*
X126838212Y-84239847D01*
X126835011Y-84255666D01*
X126831830Y-84271491D01*
X126828668Y-84287318D01*
X126825526Y-84303151D01*
X126822404Y-84318986D01*
X126819301Y-84334826D01*
X126816217Y-84350669D01*
X126813154Y-84366517D01*
X126810110Y-84382367D01*
X126807085Y-84398223D01*
X126804081Y-84414081D01*
X126801096Y-84429944D01*
X126798130Y-84445809D01*
X126795185Y-84461680D01*
X126792259Y-84477553D01*
X126789352Y-84493431D01*
X126786466Y-84509311D01*
X126783598Y-84525196D01*
X126780751Y-84541083D01*
X126777923Y-84556975D01*
X126775116Y-84572870D01*
X126772327Y-84588769D01*
X126769559Y-84604670D01*
X126766810Y-84620577D01*
X126764081Y-84636485D01*
X126761371Y-84652398D01*
X126758681Y-84668313D01*
X126756011Y-84684233D01*
X126753361Y-84700155D01*
X126750730Y-84716082D01*
X126748119Y-84732010D01*
X126745528Y-84747943D01*
X126742957Y-84763879D01*
X126740405Y-84779819D01*
X126737873Y-84795760D01*
X126735361Y-84811706D01*
X126732868Y-84827654D01*
X126730396Y-84843607D01*
X126727943Y-84859562D01*
X126725509Y-84875521D01*
X126723096Y-84891481D01*
X126720702Y-84907447D01*
X126718329Y-84923413D01*
X126715974Y-84939385D01*
X126713640Y-84955357D01*
X126711325Y-84971335D01*
X126709031Y-84987314D01*
X126706756Y-85003297D01*
X126704500Y-85019282D01*
X126702265Y-85035271D01*
X126700049Y-85051262D01*
X126697853Y-85067257D01*
X126695677Y-85083253D01*
X126693521Y-85099254D01*
X126691385Y-85115256D01*
X126689268Y-85131262D01*
X126687171Y-85147270D01*
X126685094Y-85163282D01*
X126683037Y-85179295D01*
X126681000Y-85195312D01*
X126678982Y-85211331D01*
X126676984Y-85227354D01*
X126675006Y-85243377D01*
X126673048Y-85259406D01*
X126671110Y-85275435D01*
X126669192Y-85291468D01*
X126667293Y-85307502D01*
X126665414Y-85323541D01*
X126663556Y-85339580D01*
X126661716Y-85355623D01*
X126659897Y-85371668D01*
X126658098Y-85387716D01*
X126656319Y-85403765D01*
X126654559Y-85419819D01*
X126652819Y-85435873D01*
X126651099Y-85451931D01*
X126649399Y-85467990D01*
X126647719Y-85484053D01*
X126646059Y-85500116D01*
X126644418Y-85516184D01*
X126642798Y-85532252D01*
X126641197Y-85548324D01*
X126639616Y-85564397D01*
X126638055Y-85580473D01*
X126636514Y-85596550D01*
X126634993Y-85612631D01*
X126633492Y-85628713D01*
X126632011Y-85644798D01*
X126630549Y-85660884D01*
X126629108Y-85676974D01*
X126627686Y-85693063D01*
X126626284Y-85709157D01*
X126624902Y-85725251D01*
X126623540Y-85741349D01*
X126622198Y-85757447D01*
X126620876Y-85773549D01*
X126619574Y-85789651D01*
X126618292Y-85805757D01*
X126617029Y-85821863D01*
X126615787Y-85837972D01*
X126614564Y-85854082D01*
X126613361Y-85870196D01*
X126612179Y-85886309D01*
X126611016Y-85902426D01*
X126609873Y-85918543D01*
X126608750Y-85934664D01*
X126607647Y-85950785D01*
X126606564Y-85966909D01*
X126605501Y-85983033D01*
X126604458Y-85999161D01*
X126603434Y-86015288D01*
X126602431Y-86031420D01*
X126601448Y-86047550D01*
X126600484Y-86063685D01*
X126599541Y-86079819D01*
X126598617Y-86095957D01*
X126597713Y-86112094D01*
X126596830Y-86128235D01*
X126595966Y-86144375D01*
X126595122Y-86160519D01*
X126594298Y-86176663D01*
X126593494Y-86192810D01*
X126592711Y-86208956D01*
X126591947Y-86225106D01*
X126591203Y-86241256D01*
X126590478Y-86257408D01*
X126589774Y-86273560D01*
X126589090Y-86289716D01*
X126588426Y-86305871D01*
X126587782Y-86322029D01*
X126587158Y-86338187D01*
X126586554Y-86354348D01*
X126585969Y-86370508D01*
X126585405Y-86386671D01*
X126584861Y-86402834D01*
X126584336Y-86419000D01*
X126583832Y-86435165D01*
X126583348Y-86451333D01*
X126582883Y-86467500D01*
X126582439Y-86483671D01*
X126582014Y-86499841D01*
X126581610Y-86516014D01*
X126581225Y-86532186D01*
X126580861Y-86548361D01*
X126580516Y-86564535D01*
X126580192Y-86580712D01*
X126579887Y-86596888D01*
X126579603Y-86613067D01*
X126579338Y-86629245D01*
X126579094Y-86645427D01*
X126578869Y-86661607D01*
X126578665Y-86677790D01*
X126578480Y-86693972D01*
X126578315Y-86710157D01*
X126578171Y-86726340D01*
X126578046Y-86742527D01*
X126577942Y-86758712D01*
X126577857Y-86774901D01*
X126577792Y-86791088D01*
X126577748Y-86807278D01*
X126577718Y-86835259D01*
X133100000Y-103350000D02*
X133128054Y-103366151D01*
X133156146Y-103382231D01*
X133184274Y-103398240D01*
X133212440Y-103414179D01*
X133240643Y-103430046D01*
X133268882Y-103445842D01*
X133297158Y-103461568D01*
X133325471Y-103477221D01*
X133353820Y-103492804D01*
X133382205Y-103508316D01*
X133410627Y-103523756D01*
X133439084Y-103539124D01*
X133467578Y-103554421D01*
X133496107Y-103569646D01*
X133524671Y-103584800D01*
X133553271Y-103599882D01*
X133581907Y-103614893D01*
X133610578Y-103629831D01*
X133639283Y-103644698D01*
X133668024Y-103659492D01*
X133696800Y-103674215D01*
X133725610Y-103688865D01*
X133754454Y-103703443D01*
X133783333Y-103717949D01*
X133812247Y-103732383D01*
X133841194Y-103746744D01*
X133870176Y-103761033D01*
X133899191Y-103775250D01*
X133928240Y-103789393D01*
X133957322Y-103803465D01*
X133986438Y-103817463D01*
X134015587Y-103831389D01*
X134044769Y-103845242D01*
X134073984Y-103859022D01*
X134103232Y-103872729D01*
X134132513Y-103886363D01*
X134161826Y-103899924D01*
X134191172Y-103913412D01*
X134220550Y-103926827D01*
X134249960Y-103940168D01*
X134279401Y-103953437D01*
X134308875Y-103966631D01*
X134338381Y-103979753D01*
X134367917Y-103992800D01*
X134397486Y-104005774D01*
X134427085Y-104018675D01*
X134456715Y-104031502D01*
X134486377Y-104044255D01*
X134516069Y-104056934D01*
X134545792Y-104069539D01*
X134575545Y-104082071D01*
X134605328Y-104094528D01*
X134635142Y-104106911D01*
X134664985Y-104119220D01*
X134694859Y-104131455D01*
X134724762Y-104143615D01*
X134754695Y-104155702D01*
X134784656Y-104167713D01*
X134814648Y-104179651D01*
X134844668Y-104191514D01*
X134874717Y-104203302D01*
X134904795Y-104215016D01*
X134934901Y-104226654D01*
X134965036Y-104238219D01*
X134995199Y-104249708D01*
X135025390Y-104261122D01*
X135055609Y-104272462D01*
X135085856Y-104283726D01*
X135116130Y-104294916D01*
X135146432Y-104306030D01*
X135176761Y-104317069D01*
X135207118Y-104328033D01*
X135237501Y-104338921D01*
X135267911Y-104349734D01*
X135298347Y-104360472D01*
X135328810Y-104371134D01*
X135359300Y-104381721D01*
X135389815Y-104392232D01*
X135420357Y-104402667D01*
X135450924Y-104413027D01*
X135481516Y-104423311D01*
X135512135Y-104433519D01*
X135542778Y-104443651D01*
X135573447Y-104453708D01*
X135604140Y-104463688D01*
X135634859Y-104473592D01*
X135665601Y-104483420D01*
X135696369Y-104493172D01*
X135727160Y-104502848D01*
X135757976Y-104512447D01*
X135788815Y-104521970D01*
X135819678Y-104531417D01*
X135850565Y-104540787D01*
X135881475Y-104550081D01*
X135912409Y-104559298D01*
X135943365Y-104568439D01*
X135974344Y-104577503D01*
X136005346Y-104586490D01*
X136036370Y-104595401D01*
X136067417Y-104604234D01*
X136098486Y-104612991D01*
X136129576Y-104621671D01*
X136160689Y-104630274D01*
X136191823Y-104638800D01*
X136222978Y-104647249D01*
X136254155Y-104655620D01*
X136285353Y-104663915D01*
X136316571Y-104672132D01*
X136347811Y-104680272D01*
X136379070Y-104688335D01*
X136410350Y-104696321D01*
X136441651Y-104704228D01*
X136472971Y-104712059D01*
X136504311Y-104719812D01*
X136535670Y-104727487D01*
X136567049Y-104735085D01*
X136598447Y-104742605D01*
X136629864Y-104750048D01*
X136661300Y-104757413D01*
X136692755Y-104764700D01*
X136724228Y-104771909D01*
X136755719Y-104779040D01*
X136787229Y-104786093D01*
X136818756Y-104793069D01*
X136850301Y-104799966D01*
X136881863Y-104806785D01*
X136913443Y-104813527D01*
X136945040Y-104820190D01*
X136976654Y-104826775D01*
X137008285Y-104833281D01*
X137039932Y-104839710D01*
X137071596Y-104846060D01*
X137103275Y-104852332D01*
X137134971Y-104858525D01*
X137166683Y-104864640D01*
X137198410Y-104870677D01*
X137230152Y-104876635D01*
X137261910Y-104882514D01*
X137293683Y-104888315D01*
X137325470Y-104894038D01*
X137357272Y-104899681D01*
X137389089Y-104905246D01*
X137420920Y-104910733D01*
X137452764Y-104916140D01*
X137484623Y-104921469D01*
X137516495Y-104926719D01*
X137548381Y-104931890D01*
X137580280Y-104936982D01*
X137612192Y-104941995D01*
X137644117Y-104946930D01*
X137676054Y-104951785D01*
X137708004Y-104956561D01*
X137739967Y-104961258D01*
X137771941Y-104965877D01*
X137803927Y-104970416D01*
X137835925Y-104974875D01*
X137867934Y-104979256D01*
X137899954Y-104983558D01*
X137931986Y-104987780D01*
X137964028Y-104991923D01*
X137996081Y-104995987D01*
X138028144Y-104999971D01*
X138060218Y-105003876D01*
X138092302Y-105007702D01*
X138124395Y-105011449D01*
X138156498Y-105015116D01*
X138188611Y-105018703D01*
X138220733Y-105022211D01*
X138252863Y-105025640D01*
X138285003Y-105028989D01*
X138317151Y-105032258D01*
X138349308Y-105035448D01*
X138381473Y-105038559D01*
X138413646Y-105041589D01*
X138445826Y-105044541D01*
X138478015Y-105047412D01*
X138510210Y-105050204D01*
X138542413Y-105052916D01*
X138574623Y-105055549D01*
X138606839Y-105058102D01*
X138639062Y-105060575D01*
X138671292Y-105062968D01*
X138703527Y-105065282D01*
X138735769Y-105067516D01*
X138768016Y-105069670D01*
X138800269Y-105071744D01*
X138832527Y-105073738D01*
X138864790Y-105075653D01*
X138897059Y-105077488D01*
X138929331Y-105079242D01*
X138961609Y-105080917D01*
X138993890Y-105082513D01*
X139026176Y-105084028D01*
X139058466Y-105085463D01*
X139090759Y-105086819D01*
X139123056Y-105088094D01*
X139155356Y-105089290D01*
X139187659Y-105090405D01*
X139219964Y-105091441D01*
X139252273Y-105092397D01*
X139284584Y-105093272D01*
X139316897Y-105094068D01*
X139349212Y-105094784D01*
X139381529Y-105095420D01*
X139413847Y-105095976D01*
X139446167Y-105096451D01*
X139478488Y-105096847D01*
X139510810Y-105097163D01*
X139543132Y-105097399D01*
X139575456Y-105097555D01*
X139607779Y-105097631D01*
X139640103Y-105097627D01*
X139656265Y-105097595D01*
X139672426Y-105097542D01*
X139688588Y-105097470D01*
X139704750Y-105097378D01*
X139720911Y-105097266D01*
X139737072Y-105097134D01*
X139753234Y-105096982D01*
X139769395Y-105096810D01*
X139785555Y-105096618D01*
X139801716Y-105096406D01*
X139817876Y-105096174D01*
X139834036Y-105095922D01*
X139850195Y-105095650D01*
X139866354Y-105095358D01*
X139882513Y-105095046D01*
X139898671Y-105094714D01*
X139914829Y-105094362D01*
X139930987Y-105093990D01*
X139947144Y-105093598D01*
X139963300Y-105093186D01*
X139979456Y-105092754D01*
X139995611Y-105092302D01*
X140011766Y-105091830D01*
X140027920Y-105091338D01*
X140044074Y-105090826D01*
X140060227Y-105090294D01*
X140076379Y-105089742D01*
X140092530Y-105089170D01*
X140108680Y-105088578D01*
X140124830Y-105087966D01*
X140140979Y-105087334D01*
X140157128Y-105086682D01*
X140173275Y-105086010D01*
X140189421Y-105085318D01*
X140205567Y-105084607D01*
X140221712Y-105083875D01*
X140237855Y-105083123D01*
X140253998Y-105082351D01*
X140270140Y-105081560D01*
X140286280Y-105080748D01*
X140302420Y-105079916D01*
X140318558Y-105079064D01*
X140334696Y-105078193D01*
X140350832Y-105077301D01*
X140366967Y-105076390D01*
X140383101Y-105075458D01*
X140399233Y-105074507D01*
X140415365Y-105073535D01*
X140431495Y-105072544D01*
X140447624Y-105071533D01*
X140463751Y-105070501D01*
X140479877Y-105069450D01*
X140496002Y-105068379D01*
X140512126Y-105067287D01*
X140528247Y-105066176D01*
X140544368Y-105065045D01*
X140560487Y-105063894D01*
X140576605Y-105062723D01*
X140592720Y-105061532D01*
X140608835Y-105060322D01*
X140624948Y-105059091D01*
X140641059Y-105057840D01*
X140657169Y-105056569D01*
X140673277Y-105055279D01*
X140689383Y-105053968D01*
X140705488Y-105052638D01*
X140721590Y-105051287D01*
X140737691Y-105049917D01*
X140753791Y-105048527D01*
X140769888Y-105047117D01*
X140785984Y-105045687D01*
X140802078Y-105044237D01*
X140818169Y-105042767D01*
X140834259Y-105041277D01*
X140850347Y-105039767D01*
X140866434Y-105038238D01*
X140882517Y-105036688D01*
X140898600Y-105035119D01*
X140914679Y-105033529D01*
X140930758Y-105031920D01*
X140946833Y-105030291D01*
X140962907Y-105028642D01*
X140978978Y-105026973D01*
X140995048Y-105025285D01*
X141011115Y-105023576D01*
X141027180Y-105021847D01*
X141043243Y-105020099D01*
X141059303Y-105018331D01*
X141075361Y-105016543D01*
X141091417Y-105014735D01*
X141107471Y-105012907D01*
X141123522Y-105011059D01*
X141139570Y-105009192D01*
X141155617Y-105007304D01*
X141171661Y-105005397D01*
X141187702Y-105003470D01*
X141203741Y-105001523D01*
X141219777Y-104999556D01*
X141235811Y-104997569D01*
X141251842Y-104995563D01*
X141267871Y-104993536D01*
X141283897Y-104991490D01*
X141299920Y-104989424D01*
X141315941Y-104987338D01*
X141331959Y-104985233D01*
X141347974Y-104983107D01*
X141363986Y-104980962D01*
X141379996Y-104978797D01*
X141396003Y-104976612D01*
X141412007Y-104974408D01*
X141428008Y-104972183D01*
X141444007Y-104969939D01*
X141460002Y-104967675D01*
X141475995Y-104965391D01*
X141491984Y-104963088D01*
X141507971Y-104960764D01*
X141523954Y-104958421D01*
X141539935Y-104956058D01*
X141555912Y-104953675D01*
X141571886Y-104951273D01*
X141587857Y-104948851D01*
X141603826Y-104946409D01*
X141619790Y-104943947D01*
X141635753Y-104941465D01*
X141651711Y-104938964D01*
X141667667Y-104936443D01*
X141683618Y-104933903D01*
X141699567Y-104931342D01*
X141715513Y-104928762D01*
X141731455Y-104926162D01*
X141747394Y-104923543D01*
X141763329Y-104920903D01*
X141779261Y-104918244D01*
X141795190Y-104915565D01*
X141811115Y-104912867D01*
X141827037Y-104910149D01*
X141842955Y-104907411D01*
X141858870Y-104904654D01*
X141874781Y-104901876D01*
X141890689Y-104899079D01*
X141906592Y-104896263D01*
X141922493Y-104893427D01*
X141938389Y-104890571D01*
X141954283Y-104887695D01*
X141970171Y-104884800D01*
X141986057Y-104881885D01*
X142001939Y-104878951D01*
X142017817Y-104875996D01*
X142033691Y-104873023D01*
X142049562Y-104870029D01*
X142065428Y-104867016D01*
X142081291Y-104863983D01*
X142097150Y-104860931D01*
X142113005Y-104857859D01*
X142128856Y-104854768D01*
X142144703Y-104851657D01*
X142160546Y-104848526D01*
X142176385Y-104845375D01*
X142192220Y-104842206D01*
X142208051Y-104839016D01*
X142223878Y-104835807D01*
X142239701Y-104832578D01*
X142255519Y-104829330D01*
X142271334Y-104826062D01*
X142287144Y-104822775D01*
X142302950Y-104819468D01*
X142318751Y-104816141D01*
X142334549Y-104812795D01*
X142350342Y-104809430D01*
X142366132Y-104806045D01*
X142381916Y-104802640D01*
X142397697Y-104799216D01*
X142413472Y-104795772D01*
X142429244Y-104792309D01*
X142445011Y-104788826D01*
X142460774Y-104785324D01*
X142476532Y-104781803D01*
X142492286Y-104778261D01*
X142508035Y-104774701D01*
X142523780Y-104771120D01*
X142539519Y-104767521D01*
X142555255Y-104763902D01*
X142570986Y-104760263D01*
X142586713Y-104756605D01*
X142602434Y-104752928D01*
X142618151Y-104749231D01*
X142633863Y-104745514D01*
X142649571Y-104741778D01*
X142665273Y-104738023D01*
X142680972Y-104734248D01*
X142696664Y-104730455D01*
X142712353Y-104726641D01*
X142728036Y-104722808D01*
X142743715Y-104718956D01*
X142759388Y-104715084D01*
X142775058Y-104711193D01*
X142790721Y-104707283D01*
X142806381Y-104703353D01*
X142822034Y-104699403D01*
X142837684Y-104695435D01*
X142853327Y-104691447D01*
X142868966Y-104687439D01*
X142884600Y-104683413D01*
X142900229Y-104679367D01*
X142915852Y-104675302D01*
X142931471Y-104671217D01*
X142947084Y-104667113D01*
X142962692Y-104662989D01*
X142978295Y-104658847D01*
X142993893Y-104654685D01*
X143009485Y-104650504D01*
X143025072Y-104646303D01*
X143040654Y-104642083D01*
X143056231Y-104637844D01*
X143071801Y-104633586D01*
X143087368Y-104629308D01*
X143102927Y-104625011D01*
X143118483Y-104620695D01*
X143134032Y-104616360D01*
X143149576Y-104612005D01*
X143165114Y-104607631D01*
X143180648Y-104603238D01*
X143196175Y-104598826D01*
X143211697Y-104594394D01*
X143227213Y-104589943D01*
X143242725Y-104585473D01*
X143258229Y-104580984D01*
X143273729Y-104576476D01*
X143289223Y-104571948D01*
X143304711Y-104567401D01*
X143320193Y-104562836D01*
X143335671Y-104558250D01*
X143351141Y-104553646D01*
X143366607Y-104549023D01*
X143382066Y-104544380D01*
X143397520Y-104539718D01*
X143412967Y-104535038D01*
X143428410Y-104530338D01*
X143443845Y-104525619D01*
X143459276Y-104520880D01*
X143474699Y-104516123D01*
X143490118Y-104511347D01*
X143505530Y-104506552D01*
X143520937Y-104501737D01*
X143536336Y-104496903D01*
X143551731Y-104492051D01*
X143567119Y-104487179D01*
X143582502Y-104482288D01*
X143597877Y-104477378D01*
X143613247Y-104472449D01*
X143628610Y-104467501D01*
X143643969Y-104462534D01*
X143659319Y-104457549D01*
X143674665Y-104452543D01*
X143690003Y-104447519D01*
X143705337Y-104442476D01*
X143720662Y-104437414D01*
X143735983Y-104432333D01*
X143751296Y-104427233D01*
X143766604Y-104422114D01*
X143781905Y-104416977D01*
X143797200Y-104411819D01*
X143812488Y-104406644D01*
X143827770Y-104401449D01*
X143843045Y-104396235D01*
X143858315Y-104391002D01*
X143873577Y-104385751D01*
X143888833Y-104380480D01*
X143904082Y-104375191D01*
X143919326Y-104369883D01*
X143934561Y-104364556D01*
X143949792Y-104359209D01*
X143965014Y-104353845D01*
X143980231Y-104348461D01*
X143995441Y-104343058D01*
X144010644Y-104337636D01*
X144025840Y-104332196D01*
X144041031Y-104326737D01*
X144056213Y-104321259D01*
X144071390Y-104315762D01*
X144086559Y-104310246D01*
X144101722Y-104304711D01*
X144116877Y-104299158D01*
X144132027Y-104293586D01*
X144147168Y-104287995D01*
X144162305Y-104282385D01*
X144177432Y-104276757D01*
X144192554Y-104271109D01*
X144207668Y-104265444D01*
X144222777Y-104259759D01*
X144237876Y-104254055D01*
X144252971Y-104248333D01*
X144268057Y-104242592D01*
X144283137Y-104236832D01*
X144298209Y-104231054D01*
X144313275Y-104225256D01*
X144328332Y-104219441D01*
X144343384Y-104213606D01*
X144358427Y-104207753D01*
X144373465Y-104201881D01*
X144388494Y-104195991D01*
X144403517Y-104190081D01*
X144418532Y-104184153D01*
X144433540Y-104178207D01*
X144448540Y-104172242D01*
X144463535Y-104166258D01*
X144478520Y-104160255D01*
X144493500Y-104154234D01*
X144508470Y-104148195D01*
X144523435Y-104142136D01*
X144538391Y-104136060D01*
X144553341Y-104129964D01*
X144568282Y-104123850D01*
X144583218Y-104117717D01*
X144598144Y-104111566D01*
X144613064Y-104105396D01*
X144627976Y-104099208D01*
X144642881Y-104093001D01*
X144657777Y-104086776D01*
X144672667Y-104080532D01*
X144687548Y-104074270D01*
X144702424Y-104067989D01*
X144717289Y-104061690D01*
X144732149Y-104055371D01*
X144747000Y-104049035D01*
X144761844Y-104042680D01*
X144776680Y-104036307D01*
X144791509Y-104029915D01*
X144806328Y-104023505D01*
X144821142Y-104017076D01*
X144835946Y-104010629D01*
X144850745Y-104004164D01*
X144865533Y-103997680D01*
X144880316Y-103991177D01*
X144895089Y-103984657D01*
X144909855Y-103978117D01*
X144924613Y-103971560D01*
X144939364Y-103964984D01*
X144954105Y-103958390D01*
X144968840Y-103951777D01*
X144983566Y-103945146D01*
X144998285Y-103938496D01*
X145012995Y-103931829D01*
X145027698Y-103925142D01*
X145042392Y-103918438D01*
X145057079Y-103911715D01*
X145071756Y-103904975D01*
X145086427Y-103898215D01*
X145101089Y-103891438D01*
X145115743Y-103884641D01*
X145130388Y-103877828D01*
X145145027Y-103870995D01*
X145159656Y-103864144D01*
X145174278Y-103857275D01*
X145188890Y-103850388D01*
X145203496Y-103843482D01*
X145218092Y-103836559D01*
X145232681Y-103829617D01*
X145247260Y-103822657D01*
X145261833Y-103815678D01*
X145276395Y-103808682D01*
X145290951Y-103801667D01*
X145305497Y-103794635D01*
X145320036Y-103787583D01*
X145334566Y-103780514D01*
X145349088Y-103773427D01*
X145363600Y-103766321D01*
X145378106Y-103759197D01*
X145392602Y-103752056D01*
X145407090Y-103744896D01*
X145421569Y-103737718D01*
X145436040Y-103730521D01*
X145450502Y-103723308D01*
X145464956Y-103716075D01*
X145479401Y-103708825D01*
X145493838Y-103701556D01*
X145508265Y-103694270D01*
X145522685Y-103686965D01*
X145537095Y-103679642D01*
X145551498Y-103672301D01*
X145565891Y-103664943D01*
X145580276Y-103657566D01*
X145594652Y-103650171D01*
X145609020Y-103642758D01*
X145623377Y-103635328D01*
X145637728Y-103627878D01*
X145652068Y-103620412D01*
X145666401Y-103612927D01*
X145680724Y-103605424D01*
X145695040Y-103597903D01*
X145709344Y-103590365D01*
X145723642Y-103582808D01*
X145737929Y-103575234D01*
X145752209Y-103567641D01*
X145766479Y-103560031D01*
X145780741Y-103552402D01*
X145794993Y-103544756D01*
X145809237Y-103537092D01*
X145823470Y-103529410D01*
X145837697Y-103521710D01*
X145851912Y-103513992D01*
X145866121Y-103506256D01*
X145880318Y-103498503D01*
X145894508Y-103490731D01*
X145908688Y-103482943D01*
X145922860Y-103475135D01*
X145937021Y-103467311D01*
X145951175Y-103459468D01*
X145965318Y-103451608D01*
X145979453Y-103443729D01*
X145993578Y-103435833D01*
X146007695Y-103427919D01*
X146021801Y-103419988D01*
X146035900Y-103412038D01*
X146049988Y-103404072D01*
X146064068Y-103396086D01*
X146078137Y-103388084D01*
X146092199Y-103380063D01*
X146106250Y-103372026D01*
X146120293Y-103363969D01*
X146144548Y-103350000D01*
X146144548Y-75538347D02*
X146116494Y-75522196D01*
X146088402Y-75506116D01*
X146060274Y-75490107D01*
X146032108Y-75474168D01*
X146003905Y-75458301D01*
X145975666Y-75442505D01*
X145947390Y-75426780D01*
X145919077Y-75411126D01*
X145890728Y-75395543D01*
X145862343Y-75380032D01*
X145833921Y-75364592D01*
X145805464Y-75349223D01*
X145776971Y-75333926D01*
X145748442Y-75318701D01*
X145719877Y-75303547D01*
X145691277Y-75288465D01*
X145662641Y-75273455D01*
X145633971Y-75258516D01*
X145605265Y-75243650D01*
X145576524Y-75228855D01*
X145547749Y-75214133D01*
X145518939Y-75199482D01*
X145490094Y-75184904D01*
X145461215Y-75170398D01*
X145432302Y-75155964D01*
X145403354Y-75141603D01*
X145374373Y-75127314D01*
X145345358Y-75113098D01*
X145316309Y-75098954D01*
X145287226Y-75084883D01*
X145258110Y-75070884D01*
X145228961Y-75056958D01*
X145199779Y-75043105D01*
X145170564Y-75029325D01*
X145141316Y-75015618D01*
X145112035Y-75001984D01*
X145082722Y-74988423D01*
X145053377Y-74974935D01*
X145023999Y-74961520D01*
X144994589Y-74948179D01*
X144965147Y-74934911D01*
X144935673Y-74921716D01*
X144906168Y-74908595D01*
X144876631Y-74895547D01*
X144847063Y-74882573D01*
X144817463Y-74869672D01*
X144787833Y-74856846D01*
X144758172Y-74844093D01*
X144728480Y-74831414D01*
X144698757Y-74818808D01*
X144669004Y-74806277D01*
X144639220Y-74793820D01*
X144609407Y-74781436D01*
X144579563Y-74769127D01*
X144549690Y-74756893D01*
X144519787Y-74744732D01*
X144489854Y-74732646D01*
X144459892Y-74720634D01*
X144429901Y-74708697D01*
X144399881Y-74696834D01*
X144369832Y-74685046D01*
X144339754Y-74673332D01*
X144309647Y-74661693D01*
X144279513Y-74650129D01*
X144249350Y-74638640D01*
X144219158Y-74627225D01*
X144188939Y-74615886D01*
X144158693Y-74604621D01*
X144128418Y-74593432D01*
X144098116Y-74582318D01*
X144067787Y-74571279D01*
X144037431Y-74560315D01*
X144007048Y-74549426D01*
X143976638Y-74538613D01*
X143946201Y-74527876D01*
X143915738Y-74517213D01*
X143885249Y-74506627D01*
X143854733Y-74496116D01*
X143824192Y-74485680D01*
X143793625Y-74475321D01*
X143763032Y-74465037D01*
X143732414Y-74454829D01*
X143701770Y-74444696D01*
X143671102Y-74434640D01*
X143640408Y-74424660D01*
X143609690Y-74414756D01*
X143578947Y-74404927D01*
X143548180Y-74395176D01*
X143517388Y-74385500D01*
X143486573Y-74375900D01*
X143455733Y-74366377D01*
X143424870Y-74356931D01*
X143393983Y-74347560D01*
X143363073Y-74338267D01*
X143332140Y-74329049D01*
X143301184Y-74319909D01*
X143270204Y-74310845D01*
X143239203Y-74301858D01*
X143208178Y-74292947D01*
X143177132Y-74284113D01*
X143146063Y-74275357D01*
X143114972Y-74266677D01*
X143083860Y-74258074D01*
X143052726Y-74249548D01*
X143021570Y-74241099D01*
X142990393Y-74232727D01*
X142959196Y-74224433D01*
X142927977Y-74216215D01*
X142896738Y-74208075D01*
X142865478Y-74200013D01*
X142834198Y-74192027D01*
X142802898Y-74184119D01*
X142771578Y-74176289D01*
X142740238Y-74168536D01*
X142708878Y-74160860D01*
X142677499Y-74153262D01*
X142646101Y-74145742D01*
X142614684Y-74138300D01*
X142583248Y-74130935D01*
X142551793Y-74123648D01*
X142520320Y-74116439D01*
X142488829Y-74109308D01*
X142457320Y-74102254D01*
X142425792Y-74095279D01*
X142394247Y-74088382D01*
X142362685Y-74081562D01*
X142331105Y-74074821D01*
X142299508Y-74068158D01*
X142267894Y-74061573D01*
X142236263Y-74055066D01*
X142204616Y-74048638D01*
X142172953Y-74042288D01*
X142141273Y-74036016D01*
X142109577Y-74029823D01*
X142077866Y-74023708D01*
X142046138Y-74017671D01*
X142014396Y-74011713D01*
X141982638Y-74005833D01*
X141950865Y-74000032D01*
X141919078Y-73994310D01*
X141887276Y-73988666D01*
X141855459Y-73983101D01*
X141823628Y-73977615D01*
X141791784Y-73972208D01*
X141759925Y-73966879D01*
X141728053Y-73961629D01*
X141696167Y-73956458D01*
X141664268Y-73951366D01*
X141632356Y-73946352D01*
X141600431Y-73941418D01*
X141568493Y-73936563D01*
X141536543Y-73931787D01*
X141504581Y-73927089D01*
X141472607Y-73922471D01*
X141440621Y-73917932D01*
X141408623Y-73913472D01*
X141376614Y-73909092D01*
X141344594Y-73904790D01*
X141312562Y-73900568D01*
X141280520Y-73896425D01*
X141248467Y-73892361D01*
X141216403Y-73888376D01*
X141184330Y-73884471D01*
X141152246Y-73880646D01*
X141120152Y-73876899D01*
X141088049Y-73873232D01*
X141055937Y-73869645D01*
X141023815Y-73866137D01*
X140991684Y-73862708D01*
X140959544Y-73859359D01*
X140927396Y-73856089D01*
X140895240Y-73852899D01*
X140863075Y-73849789D01*
X140830902Y-73846758D01*
X140798721Y-73843807D01*
X140766533Y-73840936D01*
X140734337Y-73838144D01*
X140702134Y-73835431D01*
X140669925Y-73832799D01*
X140637708Y-73830246D01*
X140605485Y-73827773D01*
X140573256Y-73825380D01*
X140541020Y-73823066D01*
X140508778Y-73820832D01*
X140476531Y-73818678D01*
X140444278Y-73816604D01*
X140412020Y-73814609D01*
X140379757Y-73812695D01*
X140347489Y-73810860D01*
X140315216Y-73809105D01*
X140282938Y-73807430D01*
X140250657Y-73805835D01*
X140218371Y-73804320D01*
X140186082Y-73802885D01*
X140153788Y-73801529D01*
X140121492Y-73800254D01*
X140089192Y-73799058D01*
X140056889Y-73797943D01*
X140024583Y-73796907D01*
X139992274Y-73795951D01*
X139959963Y-73795075D01*
X139927650Y-73794280D01*
X139895335Y-73793564D01*
X139863018Y-73792928D01*
X139830700Y-73792372D01*
X139798380Y-73791896D01*
X139766059Y-73791501D01*
X139733737Y-73791185D01*
X139701414Y-73790949D01*
X139669091Y-73790793D01*
X139636768Y-73790717D01*
X139604444Y-73790721D01*
X139588282Y-73790753D01*
X139572120Y-73790805D01*
X139555959Y-73790877D01*
X139539797Y-73790969D01*
X139523636Y-73791081D01*
X139507474Y-73791214D01*
X139491313Y-73791366D01*
X139475152Y-73791538D01*
X139458992Y-73791730D01*
X139442831Y-73791942D01*
X139426671Y-73792174D01*
X139410511Y-73792426D01*
X139394352Y-73792698D01*
X139378192Y-73792990D01*
X139362034Y-73793302D01*
X139345875Y-73793634D01*
X139329717Y-73793986D01*
X139313560Y-73794358D01*
X139297403Y-73794750D01*
X139281246Y-73795162D01*
X139265091Y-73795594D01*
X139248935Y-73796046D01*
X139232781Y-73796518D01*
X139216626Y-73797010D01*
X139200473Y-73797522D01*
X139184320Y-73798054D01*
X139168168Y-73798606D01*
X139152017Y-73799178D01*
X139135866Y-73799770D01*
X139119716Y-73800382D01*
X139103567Y-73801014D01*
X139087419Y-73801666D01*
X139071272Y-73802338D01*
X139055125Y-73803029D01*
X139038980Y-73803741D01*
X139022835Y-73804473D01*
X139006691Y-73805225D01*
X138990549Y-73805997D01*
X138974407Y-73806788D01*
X138958266Y-73807600D01*
X138942127Y-73808432D01*
X138925988Y-73809283D01*
X138909851Y-73810155D01*
X138893715Y-73811046D01*
X138877580Y-73811958D01*
X138861446Y-73812890D01*
X138845313Y-73813841D01*
X138829182Y-73814812D01*
X138813052Y-73815804D01*
X138796923Y-73816815D01*
X138780795Y-73817847D01*
X138764669Y-73818898D01*
X138748544Y-73819969D01*
X138732421Y-73821060D01*
X138716299Y-73822171D01*
X138700178Y-73823302D01*
X138684059Y-73824453D01*
X138667942Y-73825624D01*
X138651826Y-73826815D01*
X138635711Y-73828026D01*
X138619599Y-73829257D01*
X138603487Y-73830508D01*
X138587378Y-73831778D01*
X138571270Y-73833069D01*
X138555164Y-73834380D01*
X138539059Y-73835710D01*
X138522956Y-73837060D01*
X138506855Y-73838431D01*
X138490756Y-73839821D01*
X138474658Y-73841231D01*
X138458563Y-73842661D01*
X138442469Y-73844111D01*
X138426377Y-73845581D01*
X138410287Y-73847071D01*
X138394199Y-73848580D01*
X138378113Y-73850110D01*
X138362029Y-73851660D01*
X138345947Y-73853229D01*
X138329867Y-73854818D01*
X138313789Y-73856428D01*
X138297713Y-73858057D01*
X138281639Y-73859706D01*
X138265568Y-73861374D01*
X138249498Y-73863063D01*
X138233431Y-73864772D01*
X138217366Y-73866500D01*
X138201303Y-73868249D01*
X138185243Y-73870017D01*
X138169185Y-73871805D01*
X138153129Y-73873613D01*
X138137075Y-73875441D01*
X138121024Y-73877289D01*
X138104976Y-73879156D01*
X138088929Y-73881044D01*
X138072885Y-73882951D01*
X138056844Y-73884878D01*
X138040805Y-73886825D01*
X138024769Y-73888792D01*
X138008735Y-73890779D01*
X137992704Y-73892785D01*
X137976675Y-73894811D01*
X137960649Y-73896857D01*
X137944626Y-73898923D01*
X137928605Y-73901009D01*
X137912587Y-73903115D01*
X137896572Y-73905240D01*
X137880560Y-73907385D01*
X137864550Y-73909551D01*
X137848543Y-73911735D01*
X137832539Y-73913940D01*
X137816538Y-73916164D01*
X137800539Y-73918409D01*
X137784544Y-73920673D01*
X137768551Y-73922957D01*
X137752562Y-73925260D01*
X137736575Y-73927584D01*
X137720592Y-73929927D01*
X137704611Y-73932290D01*
X137688634Y-73934672D01*
X137672659Y-73937075D01*
X137656689Y-73939497D01*
X137640720Y-73941939D01*
X137624755Y-73944401D01*
X137608793Y-73946882D01*
X137592835Y-73949383D01*
X137576879Y-73951904D01*
X137560928Y-73954445D01*
X137544978Y-73957006D01*
X137529033Y-73959586D01*
X137513091Y-73962186D01*
X137497152Y-73964805D01*
X137481216Y-73967445D01*
X137465285Y-73970103D01*
X137449356Y-73972782D01*
X137433431Y-73975481D01*
X137417509Y-73978199D01*
X137401591Y-73980937D01*
X137385676Y-73983694D01*
X137369765Y-73986471D01*
X137353857Y-73989268D01*
X137337954Y-73992085D01*
X137322053Y-73994921D01*
X137306157Y-73997777D01*
X137290263Y-74000653D01*
X137274374Y-74003548D01*
X137258488Y-74006463D01*
X137242607Y-74009397D01*
X137226728Y-74012351D01*
X137210855Y-74015325D01*
X137194984Y-74018319D01*
X137179117Y-74021331D01*
X137163254Y-74024364D01*
X137147396Y-74027417D01*
X137131540Y-74030489D01*
X137115690Y-74033580D01*
X137099842Y-74036691D01*
X137084000Y-74039822D01*
X137068160Y-74042972D01*
X137052326Y-74046142D01*
X137036494Y-74049332D01*
X137020668Y-74052541D01*
X137004845Y-74055770D01*
X136989027Y-74059018D01*
X136973212Y-74062286D01*
X136957402Y-74065573D01*
X136941595Y-74068880D01*
X136925794Y-74072206D01*
X136909996Y-74075552D01*
X136894203Y-74078918D01*
X136878414Y-74082303D01*
X136862630Y-74085708D01*
X136846849Y-74089132D01*
X136831073Y-74092575D01*
X136815301Y-74096039D01*
X136799535Y-74099521D01*
X136783772Y-74103024D01*
X136768014Y-74106545D01*
X136752260Y-74110087D01*
X136736511Y-74113647D01*
X136720766Y-74117227D01*
X136705026Y-74120827D01*
X136689290Y-74124446D01*
X136673560Y-74128085D01*
X136657833Y-74131743D01*
X136642112Y-74135420D01*
X136626394Y-74139117D01*
X136610683Y-74142833D01*
X136594975Y-74146569D01*
X136579272Y-74150324D01*
X136563574Y-74154099D01*
X136547881Y-74157893D01*
X136532192Y-74161707D01*
X136516509Y-74165540D01*
X136500830Y-74169392D01*
X136485157Y-74173264D01*
X136469488Y-74177155D01*
X136453824Y-74181065D01*
X136438165Y-74184995D01*
X136422511Y-74188944D01*
X136406862Y-74192913D01*
X136391218Y-74196901D01*
X136375579Y-74200908D01*
X136359946Y-74204935D01*
X136344316Y-74208981D01*
X136328693Y-74213046D01*
X136313074Y-74217131D01*
X136297462Y-74221235D01*
X136281853Y-74225358D01*
X136266251Y-74229501D01*
X136250652Y-74233663D01*
X136235061Y-74237844D01*
X136219473Y-74242045D01*
X136203892Y-74246264D01*
X136188315Y-74250504D01*
X136172744Y-74254762D01*
X136157178Y-74259040D01*
X136141618Y-74263336D01*
X136126062Y-74267653D01*
X136110514Y-74271988D01*
X136094969Y-74276343D01*
X136079431Y-74280717D01*
X136063897Y-74285110D01*
X136048370Y-74289522D01*
X136032848Y-74293954D01*
X136017332Y-74298404D01*
X136001821Y-74302875D01*
X135986316Y-74307364D01*
X135970816Y-74311872D01*
X135955323Y-74316400D01*
X135939834Y-74320946D01*
X135924352Y-74325512D01*
X135908875Y-74330097D01*
X135893404Y-74334701D01*
X135877938Y-74339325D01*
X135862480Y-74343967D01*
X135847025Y-74348629D01*
X135831578Y-74353310D01*
X135816136Y-74358010D01*
X135800700Y-74362729D01*
X135785269Y-74367467D01*
X135769846Y-74372224D01*
X135754427Y-74377001D01*
X135739015Y-74381796D01*
X135723608Y-74386611D01*
X135708209Y-74391444D01*
X135692814Y-74396297D01*
X135677427Y-74401169D01*
X135662044Y-74406060D01*
X135646668Y-74410969D01*
X135631298Y-74415898D01*
X135615935Y-74420846D01*
X135600577Y-74425813D01*
X135585226Y-74430799D01*
X135569880Y-74435804D01*
X135554542Y-74440828D01*
X135539208Y-74445871D01*
X135523883Y-74450933D01*
X135508562Y-74456014D01*
X135493249Y-74461114D01*
X135477941Y-74466233D01*
X135462640Y-74471371D01*
X135447345Y-74476528D01*
X135432057Y-74481704D01*
X135416775Y-74486899D01*
X135401500Y-74492112D01*
X135386230Y-74497345D01*
X135370969Y-74502597D01*
X135355712Y-74507867D01*
X135340463Y-74513156D01*
X135325220Y-74518465D01*
X135309984Y-74523792D01*
X135294753Y-74529138D01*
X135279531Y-74534503D01*
X135264314Y-74539887D01*
X135249105Y-74545289D01*
X135233901Y-74550711D01*
X135218705Y-74556151D01*
X135203515Y-74561611D01*
X135188332Y-74567089D01*
X135173155Y-74572586D01*
X135157987Y-74578101D01*
X135142823Y-74583636D01*
X135127668Y-74589189D01*
X135112518Y-74594762D01*
X135097377Y-74600352D01*
X135082241Y-74605962D01*
X135067113Y-74611591D01*
X135051991Y-74617238D01*
X135036877Y-74622904D01*
X135021769Y-74628589D01*
X135006669Y-74634292D01*
X134991574Y-74640015D01*
X134976489Y-74645756D01*
X134961408Y-74651516D01*
X134946337Y-74657294D01*
X134931271Y-74663091D01*
X134916213Y-74668907D01*
X134901161Y-74674742D01*
X134886118Y-74680594D01*
X134871080Y-74686467D01*
X134856051Y-74692357D01*
X134841028Y-74698267D01*
X134826014Y-74704194D01*
X134811005Y-74710141D01*
X134796005Y-74716106D01*
X134781011Y-74722090D01*
X134766025Y-74728092D01*
X134751046Y-74734114D01*
X134736075Y-74740153D01*
X134721110Y-74746211D01*
X134706154Y-74752288D01*
X134691204Y-74758384D01*
X134676263Y-74764497D01*
X134661328Y-74770630D01*
X134646401Y-74776781D01*
X134631481Y-74782951D01*
X134616570Y-74789139D01*
X134601664Y-74795346D01*
X134586768Y-74801571D01*
X134571878Y-74807816D01*
X134556997Y-74814078D01*
X134542122Y-74820359D01*
X134527256Y-74826658D01*
X134512396Y-74832976D01*
X134497545Y-74839312D01*
X134482701Y-74845667D01*
X134467866Y-74852040D01*
X134453037Y-74858432D01*
X134438217Y-74864842D01*
X134423403Y-74871271D01*
X134408599Y-74877718D01*
X134393801Y-74884184D01*
X134379012Y-74890668D01*
X134364230Y-74897170D01*
X134349457Y-74903691D01*
X134334690Y-74910230D01*
X134319933Y-74916787D01*
X134305182Y-74923364D01*
X134290440Y-74929958D01*
X134275705Y-74936571D01*
X134260979Y-74943201D01*
X134246260Y-74949851D01*
X134231551Y-74956519D01*
X134216847Y-74963205D01*
X134202154Y-74969909D01*
X134187467Y-74976632D01*
X134172789Y-74983373D01*
X134158118Y-74990133D01*
X134143457Y-74996910D01*
X134128802Y-75003706D01*
X134114157Y-75010520D01*
X134099518Y-75017353D01*
X134084890Y-75024203D01*
X134070268Y-75031072D01*
X134055655Y-75037959D01*
X134041050Y-75044865D01*
X134026454Y-75051788D01*
X134011865Y-75058731D01*
X133997285Y-75065690D01*
X133982713Y-75072669D01*
X133968150Y-75079665D01*
X133953594Y-75086680D01*
X133939048Y-75093713D01*
X133924509Y-75100764D01*
X133909980Y-75107833D01*
X133895457Y-75114921D01*
X133880945Y-75122026D01*
X133866439Y-75129150D01*
X133851944Y-75136291D01*
X133837455Y-75143452D01*
X133822977Y-75150629D01*
X133808505Y-75157826D01*
X133794044Y-75165040D01*
X133779589Y-75172273D01*
X133765145Y-75179523D01*
X133750707Y-75186792D01*
X133736280Y-75194078D01*
X133721860Y-75201383D01*
X133707450Y-75208705D01*
X133693047Y-75216046D01*
X133678655Y-75223405D01*
X133664269Y-75230782D01*
X133649894Y-75238176D01*
X133635526Y-75245589D01*
X133621168Y-75253020D01*
X133606817Y-75260469D01*
X133592477Y-75267935D01*
X133578144Y-75275421D01*
X133563822Y-75282923D01*
X133549506Y-75290444D01*
X133535201Y-75297982D01*
X133520903Y-75305539D01*
X133506616Y-75313114D01*
X133492336Y-75320707D01*
X133478067Y-75328316D01*
X133463805Y-75335945D01*
X133449553Y-75343591D01*
X133435309Y-75351256D01*
X133421075Y-75358937D01*
X133406849Y-75366638D01*
X133392633Y-75374355D01*
X133378425Y-75382091D01*
X133364227Y-75389844D01*
X133350037Y-75397616D01*
X133335858Y-75405404D01*
X133321686Y-75413212D01*
X133307525Y-75421036D01*
X133293371Y-75428879D01*
X133279228Y-75436739D01*
X133265092Y-75444618D01*
X133250968Y-75452514D01*
X133236851Y-75460428D01*
X133222744Y-75468359D01*
X133208646Y-75476309D01*
X133194558Y-75484276D01*
X133180478Y-75492261D01*
X133166408Y-75500263D01*
X133152347Y-75508284D01*
X133138296Y-75516322D01*
X133124253Y-75524378D01*
X133099998Y-75538347D01*
X146144548Y-103350000D02*
X146172562Y-103333780D01*
X146200534Y-103317492D01*
X146228463Y-103301136D01*
X146256349Y-103284713D01*
X146284192Y-103268222D01*
X146311992Y-103251664D01*
X146339748Y-103235039D01*
X146367461Y-103218347D01*
X146395131Y-103201587D01*
X146422757Y-103184760D01*
X146450339Y-103167866D01*
X146477877Y-103150906D01*
X146505372Y-103133878D01*
X146532822Y-103116784D01*
X146560228Y-103099623D01*
X146587590Y-103082395D01*
X146614907Y-103065101D01*
X146642179Y-103047741D01*
X146669407Y-103030314D01*
X146696590Y-103012821D01*
X146723728Y-102995262D01*
X146750820Y-102977637D01*
X146777868Y-102959946D01*
X146804870Y-102942189D01*
X146831827Y-102924366D01*
X146858738Y-102906477D01*
X146885603Y-102888523D01*
X146912423Y-102870503D01*
X146939196Y-102852418D01*
X146965923Y-102834267D01*
X146992604Y-102816052D01*
X147019239Y-102797771D01*
X147045827Y-102779424D01*
X147072369Y-102761013D01*
X147098864Y-102742537D01*
X147125312Y-102723997D01*
X147151713Y-102705391D01*
X147178066Y-102686721D01*
X147204373Y-102667986D01*
X147230632Y-102649187D01*
X147256843Y-102630324D01*
X147283007Y-102611396D01*
X147309123Y-102592404D01*
X147335191Y-102573348D01*
X147361212Y-102554229D01*
X147387184Y-102535045D01*
X147413107Y-102515798D01*
X147438982Y-102496486D01*
X147464809Y-102477112D01*
X147490587Y-102457674D01*
X147516316Y-102438172D01*
X147541996Y-102418608D01*
X147567627Y-102398980D01*
X147593209Y-102379289D01*
X147618741Y-102359535D01*
X147644224Y-102339719D01*
X147669658Y-102319840D01*
X147695041Y-102299898D01*
X147720375Y-102279893D01*
X147745658Y-102259826D01*
X147770892Y-102239697D01*
X147796075Y-102219506D01*
X147821208Y-102199252D01*
X147846290Y-102178937D01*
X147871322Y-102158559D01*
X147896303Y-102138120D01*
X147921232Y-102117619D01*
X147946111Y-102097057D01*
X147970939Y-102076433D01*
X147995715Y-102055748D01*
X148020440Y-102035002D01*
X148045113Y-102014194D01*
X148069734Y-101993326D01*
X148094304Y-101972397D01*
X148118821Y-101951407D01*
X148143286Y-101930356D01*
X148167699Y-101909245D01*
X148192060Y-101888073D01*
X148216368Y-101866841D01*
X148240624Y-101845549D01*
X148264826Y-101824197D01*
X148288976Y-101802785D01*
X148313072Y-101781313D01*
X148337116Y-101759781D01*
X148361105Y-101738190D01*
X148385042Y-101716539D01*
X148408925Y-101694829D01*
X148432754Y-101673060D01*
X148456529Y-101651231D01*
X148480250Y-101629344D01*
X148503917Y-101607397D01*
X148527530Y-101585392D01*
X148551088Y-101563329D01*
X148574592Y-101541207D01*
X148598041Y-101519026D01*
X148621435Y-101496788D01*
X148644775Y-101474491D01*
X148668059Y-101452136D01*
X148691288Y-101429723D01*
X148714461Y-101407253D01*
X148737579Y-101384725D01*
X148760641Y-101362140D01*
X148783648Y-101339497D01*
X148806599Y-101316797D01*
X148829493Y-101294040D01*
X148852332Y-101271226D01*
X148875114Y-101248355D01*
X148897840Y-101225428D01*
X148920509Y-101202444D01*
X148943122Y-101179403D01*
X148965677Y-101156307D01*
X148988176Y-101133154D01*
X149010617Y-101109945D01*
X149033002Y-101086680D01*
X149055328Y-101063360D01*
X149077598Y-101039984D01*
X149099810Y-101016552D01*
X149121964Y-100993066D01*
X149144060Y-100969524D01*
X149166098Y-100945927D01*
X149188078Y-100922275D01*
X149209999Y-100898568D01*
X149231862Y-100874807D01*
X149253667Y-100850991D01*
X149275412Y-100827121D01*
X149297099Y-100803197D01*
X149318727Y-100779218D01*
X149340296Y-100755186D01*
X149361806Y-100731100D01*
X149383256Y-100706960D01*
X149404647Y-100682767D01*
X149425978Y-100658521D01*
X149447250Y-100634221D01*
X149468461Y-100609869D01*
X149489613Y-100585463D01*
X149510704Y-100561005D01*
X149531735Y-100536494D01*
X149552706Y-100511931D01*
X149573616Y-100487315D01*
X149594465Y-100462648D01*
X149615254Y-100437928D01*
X149635982Y-100413157D01*
X149656649Y-100388334D01*
X149677254Y-100363459D01*
X149697798Y-100338533D01*
X149718281Y-100313556D01*
X149738702Y-100288527D01*
X149759061Y-100263448D01*
X149779359Y-100238318D01*
X149799595Y-100213137D01*
X149819768Y-100187906D01*
X149839880Y-100162625D01*
X149859929Y-100137294D01*
X149879915Y-100111912D01*
X149899839Y-100086481D01*
X149919701Y-100061000D01*
X149939499Y-100035470D01*
X149959234Y-100009890D01*
X149978907Y-99984261D01*
X149998516Y-99958583D01*
X150018062Y-99932856D01*
X150037544Y-99907081D01*
X150056963Y-99881257D01*
X150076318Y-99855384D01*
X150095609Y-99829464D01*
X150114836Y-99803495D01*
X150134000Y-99777478D01*
X150153099Y-99751414D01*
X150172133Y-99725302D01*
X150191103Y-99699143D01*
X150210009Y-99672937D01*
X150228850Y-99646683D01*
X150247626Y-99620383D01*
X150266337Y-99594036D01*
X150284983Y-99567642D01*
X150303564Y-99541202D01*
X150322080Y-99514716D01*
X150340530Y-99488183D01*
X150358915Y-99461605D01*
X150377234Y-99434981D01*
X150395487Y-99408312D01*
X150413675Y-99381597D01*
X150431796Y-99354837D01*
X150449852Y-99328032D01*
X150467841Y-99301182D01*
X150485763Y-99274287D01*
X150503620Y-99247348D01*
X150521409Y-99220365D01*
X150539132Y-99193337D01*
X150556789Y-99166265D01*
X150574378Y-99139150D01*
X150591900Y-99111991D01*
X150609355Y-99084788D01*
X150626743Y-99057542D01*
X150644063Y-99030253D01*
X150661316Y-99002921D01*
X150678502Y-98975546D01*
X150695619Y-98948129D01*
X150712669Y-98920669D01*
X150729651Y-98893167D01*
X150746565Y-98865623D01*
X150763411Y-98838037D01*
X150780188Y-98810409D01*
X150796897Y-98782740D01*
X150813538Y-98755029D01*
X150830110Y-98727277D01*
X150846613Y-98699484D01*
X150863047Y-98671651D01*
X150879413Y-98643776D01*
X150895710Y-98615861D01*
X150911937Y-98587906D01*
X150928095Y-98559911D01*
X150936149Y-98545899D01*
X150944184Y-98531876D01*
X150952203Y-98517844D01*
X150960204Y-98503801D01*
X150968188Y-98489749D01*
X150976154Y-98475687D01*
X150984103Y-98461615D01*
X150992034Y-98447533D01*
X150999948Y-98433442D01*
X151007845Y-98419340D01*
X151015724Y-98405229D01*
X151023585Y-98391108D01*
X151031430Y-98376978D01*
X151039256Y-98362837D01*
X151047065Y-98348687D01*
X151054857Y-98334528D01*
X151062631Y-98320359D01*
X151070388Y-98306180D01*
X151078127Y-98291992D01*
X151085848Y-98277794D01*
X151093552Y-98263586D01*
X151101238Y-98249369D01*
X151108907Y-98235143D01*
X151116558Y-98220907D01*
X151124191Y-98206662D01*
X151131807Y-98192407D01*
X151139405Y-98178143D01*
X151146985Y-98163869D01*
X151154548Y-98149587D01*
X151162093Y-98135295D01*
X151169620Y-98120993D01*
X151177130Y-98106682D01*
X151184621Y-98092363D01*
X151192095Y-98078033D01*
X151199552Y-98063695D01*
X151206990Y-98049347D01*
X151214411Y-98034991D01*
X151221814Y-98020625D01*
X151229199Y-98006250D01*
X151236567Y-97991866D01*
X151243916Y-97977473D01*
X151251248Y-97963071D01*
X151258562Y-97948660D01*
X151265858Y-97934239D01*
X151273136Y-97919810D01*
X151280396Y-97905372D01*
X151287638Y-97890925D01*
X151294863Y-97876469D01*
X151302069Y-97862004D01*
X151309258Y-97847531D01*
X151316428Y-97833048D01*
X151323581Y-97818557D01*
X151330716Y-97804057D01*
X151337832Y-97789548D01*
X151344931Y-97775031D01*
X151352012Y-97760504D01*
X151359074Y-97745969D01*
X151366119Y-97731425D01*
X151373146Y-97716873D01*
X151380154Y-97702312D01*
X151387145Y-97687743D01*
X151394117Y-97673164D01*
X151401072Y-97658578D01*
X151408008Y-97643983D01*
X151414926Y-97629379D01*
X151421826Y-97614767D01*
X151428708Y-97600146D01*
X151435572Y-97585517D01*
X151442418Y-97570880D01*
X151449245Y-97556234D01*
X151456054Y-97541580D01*
X151462846Y-97526917D01*
X151469619Y-97512246D01*
X151476373Y-97497567D01*
X151483110Y-97482879D01*
X151489828Y-97468183D01*
X151496528Y-97453480D01*
X151503210Y-97438767D01*
X151509874Y-97424047D01*
X151516519Y-97409318D01*
X151523146Y-97394582D01*
X151529755Y-97379837D01*
X151536346Y-97365085D01*
X151542918Y-97350323D01*
X151549472Y-97335555D01*
X151556007Y-97320778D01*
X151562524Y-97305993D01*
X151569023Y-97291200D01*
X151575504Y-97276399D01*
X151581966Y-97261590D01*
X151588410Y-97246774D01*
X151594835Y-97231949D01*
X151601242Y-97217117D01*
X151607631Y-97202276D01*
X151614001Y-97187429D01*
X151620353Y-97172573D01*
X151626686Y-97157709D01*
X151633001Y-97142838D01*
X151639297Y-97127959D01*
X151645575Y-97113072D01*
X151651835Y-97098178D01*
X151658076Y-97083276D01*
X151664298Y-97068366D01*
X151670502Y-97053449D01*
X151676687Y-97038525D01*
X151682855Y-97023592D01*
X151689003Y-97008652D01*
X151695133Y-96993705D01*
X151701244Y-96978750D01*
X151707337Y-96963788D01*
X151713411Y-96948819D01*
X151719467Y-96933841D01*
X151725503Y-96918857D01*
X151731522Y-96903865D01*
X151737522Y-96888866D01*
X151743503Y-96873859D01*
X151749465Y-96858846D01*
X151755409Y-96843825D01*
X151761334Y-96828797D01*
X151767241Y-96813761D01*
X151773129Y-96798719D01*
X151778998Y-96783669D01*
X151784849Y-96768612D01*
X151790681Y-96753548D01*
X151796494Y-96738477D01*
X151802288Y-96723398D01*
X151808064Y-96708313D01*
X151813821Y-96693221D01*
X151819559Y-96678122D01*
X151825279Y-96663015D01*
X151830980Y-96647902D01*
X151836662Y-96632782D01*
X151842325Y-96617655D01*
X151847969Y-96602521D01*
X151853595Y-96587380D01*
X151859202Y-96572232D01*
X151864790Y-96557078D01*
X151870359Y-96541916D01*
X151875910Y-96526749D01*
X151881441Y-96511573D01*
X151886954Y-96496392D01*
X151892448Y-96481204D01*
X151897923Y-96466009D01*
X151903379Y-96450807D01*
X151908816Y-96435600D01*
X151914235Y-96420384D01*
X151919634Y-96405164D01*
X151925015Y-96389935D01*
X151930377Y-96374701D01*
X151935720Y-96359460D01*
X151941044Y-96344213D01*
X151946349Y-96328959D01*
X151951635Y-96313699D01*
X151956902Y-96298431D01*
X151962150Y-96283159D01*
X151967379Y-96267879D01*
X151972589Y-96252593D01*
X151977781Y-96237301D01*
X151982953Y-96222003D01*
X151988106Y-96206698D01*
X151993240Y-96191387D01*
X151998356Y-96176069D01*
X152003452Y-96160746D01*
X152008529Y-96145416D01*
X152013587Y-96130081D01*
X152018626Y-96114739D01*
X152023646Y-96099391D01*
X152028648Y-96084037D01*
X152033629Y-96068677D01*
X152038592Y-96053310D01*
X152043536Y-96037938D01*
X152048461Y-96022560D01*
X152053367Y-96007176D01*
X152058253Y-95991785D01*
X152063121Y-95976390D01*
X152067969Y-95960987D01*
X152072798Y-95945580D01*
X152077608Y-95930166D01*
X152082399Y-95914747D01*
X152087171Y-95899321D01*
X152091924Y-95883890D01*
X152096657Y-95868453D01*
X152101372Y-95853011D01*
X152106067Y-95837562D01*
X152110743Y-95822108D01*
X152115400Y-95806648D01*
X152120037Y-95791183D01*
X152124656Y-95775711D01*
X152129255Y-95760235D01*
X152133835Y-95744753D01*
X152138396Y-95729266D01*
X152142937Y-95713772D01*
X152147460Y-95698273D01*
X152151963Y-95682769D01*
X152156447Y-95667259D01*
X152160911Y-95651744D01*
X152165357Y-95636224D01*
X152169783Y-95620697D01*
X152174190Y-95605166D01*
X152178577Y-95589629D01*
X152182946Y-95574088D01*
X152187295Y-95558540D01*
X152191624Y-95542988D01*
X152195935Y-95527429D01*
X152200226Y-95511867D01*
X152204498Y-95496298D01*
X152208750Y-95480725D01*
X152212983Y-95465146D01*
X152217197Y-95449562D01*
X152221392Y-95433973D01*
X152225567Y-95418380D01*
X152229723Y-95402780D01*
X152233859Y-95387176D01*
X152237976Y-95371566D01*
X152242074Y-95355953D01*
X152246152Y-95340333D01*
X152250211Y-95324710D01*
X152254251Y-95309080D01*
X152258271Y-95293447D01*
X152262271Y-95277807D01*
X152266253Y-95262164D01*
X152270215Y-95246515D01*
X152274157Y-95230862D01*
X152278081Y-95215203D01*
X152281984Y-95199541D01*
X152285868Y-95183872D01*
X152289733Y-95168201D01*
X152293579Y-95152523D01*
X152297405Y-95136842D01*
X152301211Y-95121154D01*
X152304998Y-95105464D01*
X152308766Y-95089767D01*
X152312514Y-95074068D01*
X152316243Y-95058362D01*
X152319952Y-95042653D01*
X152323641Y-95026938D01*
X152327311Y-95011220D01*
X152330962Y-94995497D01*
X152334593Y-94979770D01*
X152338205Y-94964037D01*
X152341797Y-94948301D01*
X152345370Y-94932560D01*
X152348923Y-94916816D01*
X152352457Y-94901065D01*
X152355971Y-94885312D01*
X152359466Y-94869553D01*
X152362940Y-94853792D01*
X152366396Y-94838024D01*
X152369832Y-94822254D01*
X152373248Y-94806478D01*
X152376645Y-94790699D01*
X152380022Y-94774915D01*
X152383380Y-94759128D01*
X152386718Y-94743336D01*
X152390037Y-94727541D01*
X152393336Y-94711740D01*
X152396615Y-94695936D01*
X152399875Y-94680128D01*
X152403115Y-94664316D01*
X152406336Y-94648499D01*
X152409536Y-94632680D01*
X152412718Y-94616855D01*
X152415879Y-94601028D01*
X152419022Y-94585195D01*
X152422144Y-94569360D01*
X152425247Y-94553520D01*
X152428330Y-94537677D01*
X152431394Y-94521829D01*
X152434438Y-94505979D01*
X152437462Y-94490123D01*
X152440467Y-94474265D01*
X152443452Y-94458402D01*
X152446417Y-94442537D01*
X152449363Y-94426666D01*
X152452289Y-94410793D01*
X152455196Y-94394915D01*
X152458082Y-94379035D01*
X152460949Y-94363150D01*
X152463797Y-94347263D01*
X152466624Y-94331371D01*
X152469432Y-94315477D01*
X152472221Y-94299577D01*
X152474989Y-94283676D01*
X152477738Y-94267770D01*
X152480467Y-94251861D01*
X152483177Y-94235948D01*
X152485866Y-94220033D01*
X152488537Y-94204113D01*
X152491187Y-94188191D01*
X152493818Y-94172264D01*
X152496428Y-94156336D01*
X152499020Y-94140403D01*
X152501591Y-94124468D01*
X152504143Y-94108528D01*
X152506675Y-94092586D01*
X152509187Y-94076640D01*
X152511679Y-94060692D01*
X152514152Y-94044739D01*
X152516605Y-94028785D01*
X152519038Y-94012825D01*
X152521452Y-93996865D01*
X152523845Y-93980900D01*
X152526219Y-93964933D01*
X152528573Y-93948961D01*
X152530908Y-93932989D01*
X152533222Y-93917011D01*
X152535517Y-93901032D01*
X152537792Y-93885049D01*
X152540047Y-93869064D01*
X152542283Y-93853075D01*
X152544498Y-93837084D01*
X152546694Y-93821089D01*
X152548870Y-93805093D01*
X152551027Y-93789092D01*
X152553163Y-93773090D01*
X152555280Y-93757084D01*
X152557377Y-93741076D01*
X152559454Y-93725064D01*
X152561511Y-93709051D01*
X152563548Y-93693034D01*
X152565566Y-93677015D01*
X152567564Y-93660992D01*
X152569541Y-93644969D01*
X152571500Y-93628941D01*
X152573438Y-93612912D01*
X152575356Y-93596878D01*
X152577255Y-93580844D01*
X152579134Y-93564805D01*
X152580992Y-93548766D01*
X152582831Y-93532723D01*
X152584651Y-93516678D01*
X152586450Y-93500630D01*
X152588229Y-93484581D01*
X152589989Y-93468527D01*
X152591729Y-93452473D01*
X152593449Y-93436415D01*
X152595149Y-93420356D01*
X152596829Y-93404293D01*
X152598489Y-93388230D01*
X152600130Y-93372162D01*
X152601750Y-93356094D01*
X152603351Y-93340022D01*
X152604932Y-93323949D01*
X152606493Y-93307873D01*
X152608033Y-93291796D01*
X152609555Y-93275715D01*
X152611056Y-93259633D01*
X152612537Y-93243548D01*
X152613999Y-93227462D01*
X152615440Y-93211373D01*
X152616862Y-93195283D01*
X152618264Y-93179189D01*
X152619646Y-93163095D01*
X152621008Y-93146997D01*
X152622350Y-93130899D01*
X152623672Y-93114797D01*
X152624974Y-93098695D01*
X152626256Y-93082589D01*
X152627519Y-93066484D01*
X152628761Y-93050374D01*
X152629984Y-93034264D01*
X152631186Y-93018151D01*
X152632369Y-93002037D01*
X152633532Y-92985920D01*
X152634675Y-92969803D01*
X152635798Y-92953682D01*
X152636901Y-92937562D01*
X152637984Y-92921437D01*
X152639047Y-92905313D01*
X152640090Y-92889185D01*
X152641114Y-92873058D01*
X152642117Y-92856927D01*
X152643100Y-92840796D01*
X152644064Y-92824661D01*
X152645007Y-92808527D01*
X152645931Y-92792389D01*
X152646835Y-92776252D01*
X152647718Y-92760111D01*
X152648582Y-92743971D01*
X152649426Y-92727827D01*
X152650250Y-92711683D01*
X152651054Y-92695536D01*
X152651837Y-92679390D01*
X152652601Y-92663240D01*
X152653345Y-92647091D01*
X152654069Y-92630938D01*
X152654773Y-92614786D01*
X152655458Y-92598630D01*
X152656122Y-92582475D01*
X152656766Y-92566317D01*
X152657390Y-92550160D01*
X152657994Y-92533999D01*
X152658579Y-92517839D01*
X152659143Y-92501675D01*
X152659687Y-92485513D01*
X152660212Y-92469347D01*
X152660716Y-92453182D01*
X152661200Y-92437013D01*
X152661665Y-92420846D01*
X152662109Y-92404675D01*
X152662534Y-92388506D01*
X152662938Y-92372333D01*
X152663323Y-92356161D01*
X152663687Y-92339986D01*
X152664032Y-92323812D01*
X152664356Y-92307634D01*
X152664661Y-92291458D01*
X152664945Y-92275279D01*
X152665210Y-92259101D01*
X152665454Y-92242920D01*
X152665679Y-92226740D01*
X152665883Y-92210557D01*
X152666068Y-92194375D01*
X152666233Y-92178190D01*
X152666377Y-92162006D01*
X152666502Y-92145820D01*
X152666606Y-92129634D01*
X152666691Y-92113446D01*
X152666756Y-92097259D01*
X152666800Y-92081069D01*
X152666830Y-92053086D01*
X152666830Y-86835258D02*
X152666790Y-86802887D01*
X152666670Y-86770519D01*
X152666470Y-86738154D01*
X152666190Y-86705792D01*
X152665830Y-86673434D01*
X152665391Y-86641080D01*
X152664871Y-86608730D01*
X152664271Y-86576383D01*
X152663592Y-86544041D01*
X152662832Y-86511703D01*
X152661993Y-86479369D01*
X152661074Y-86447040D01*
X152660075Y-86414715D01*
X152658996Y-86382395D01*
X152657837Y-86350081D01*
X152656598Y-86317771D01*
X152655280Y-86285467D01*
X152653881Y-86253168D01*
X152652403Y-86220875D01*
X152650845Y-86188587D01*
X152649208Y-86156306D01*
X152647490Y-86124030D01*
X152645693Y-86091761D01*
X152643816Y-86059498D01*
X152641859Y-86027241D01*
X152639823Y-85994991D01*
X152637707Y-85962748D01*
X152635511Y-85930512D01*
X152633235Y-85898283D01*
X152630880Y-85866061D01*
X152628445Y-85833847D01*
X152625931Y-85801640D01*
X152623337Y-85769441D01*
X152620663Y-85737250D01*
X152617910Y-85705067D01*
X152615077Y-85672892D01*
X152612164Y-85640725D01*
X152609172Y-85608567D01*
X152606101Y-85576418D01*
X152602950Y-85544277D01*
X152599719Y-85512146D01*
X152596409Y-85480023D01*
X152593020Y-85447910D01*
X152589551Y-85415807D01*
X152586003Y-85383713D01*
X152582376Y-85351629D01*
X152578669Y-85319555D01*
X152574882Y-85287490D01*
X152571017Y-85255437D01*
X152567072Y-85223393D01*
X152563048Y-85191361D01*
X152558944Y-85159339D01*
X152554762Y-85127328D01*
X152550500Y-85095328D01*
X152546159Y-85063339D01*
X152541739Y-85031362D01*
X152537239Y-84999397D01*
X152532661Y-84967443D01*
X152528003Y-84935501D01*
X152523267Y-84903572D01*
X152518451Y-84871654D01*
X152513556Y-84839749D01*
X152508583Y-84807857D01*
X152503530Y-84775977D01*
X152498398Y-84744111D01*
X152493188Y-84712257D01*
X152487899Y-84680417D01*
X152482531Y-84648590D01*
X152477084Y-84616777D01*
X152471558Y-84584978D01*
X152465953Y-84553192D01*
X152460270Y-84521421D01*
X152454508Y-84489664D01*
X152448668Y-84457922D01*
X152442749Y-84426194D01*
X152436751Y-84394481D01*
X152430674Y-84362783D01*
X152424519Y-84331101D01*
X152418286Y-84299433D01*
X152411974Y-84267781D01*
X152405584Y-84236145D01*
X152399115Y-84204525D01*
X152392568Y-84172921D01*
X152385943Y-84141333D01*
X152379239Y-84109761D01*
X152372458Y-84078207D01*
X152365597Y-84046668D01*
X152358659Y-84015147D01*
X152351643Y-83983643D01*
X152344548Y-83952156D01*
X152337376Y-83920687D01*
X152330125Y-83889235D01*
X152322797Y-83857801D01*
X152315390Y-83826386D01*
X152307906Y-83794988D01*
X152300344Y-83763609D01*
X152292704Y-83732248D01*
X152284986Y-83700906D01*
X152277191Y-83669583D01*
X152269318Y-83638279D01*
X152261367Y-83606994D01*
X152253338Y-83575729D01*
X152245233Y-83544483D01*
X152237049Y-83513257D01*
X152228788Y-83482051D01*
X152220450Y-83450866D01*
X152212034Y-83419700D01*
X152203542Y-83388556D01*
X152194971Y-83357432D01*
X152186324Y-83326329D01*
X152177600Y-83295246D01*
X152168798Y-83264186D01*
X152159919Y-83233146D01*
X152150964Y-83202129D01*
X152141931Y-83171133D01*
X152132821Y-83140159D01*
X152123635Y-83109207D01*
X152114372Y-83078278D01*
X152105032Y-83047371D01*
X152095615Y-83016487D01*
X152086122Y-82985626D01*
X152076552Y-82954788D01*
X152066906Y-82923974D01*
X152057183Y-82893183D01*
X152047384Y-82862415D01*
X152037508Y-82831672D01*
X152027556Y-82800952D01*
X152017528Y-82770257D01*
X152007424Y-82739586D01*
X151997244Y-82708940D01*
X151986987Y-82678318D01*
X151976655Y-82647722D01*
X151966246Y-82617150D01*
X151955762Y-82586604D01*
X151945202Y-82556084D01*
X151934566Y-82525589D01*
X151923855Y-82495120D01*
X151913068Y-82464678D01*
X151902205Y-82434261D01*
X151891267Y-82403871D01*
X151880254Y-82373508D01*
X151869165Y-82343171D01*
X151858001Y-82312862D01*
X151846761Y-82282580D01*
X151835447Y-82252325D01*
X151824057Y-82222098D01*
X151812592Y-82191899D01*
X151801053Y-82161727D01*
X151789439Y-82131584D01*
X151777749Y-82101469D01*
X151765985Y-82071383D01*
X151754147Y-82041325D01*
X151742234Y-82011296D01*
X151730246Y-81981297D01*
X151718184Y-81951327D01*
X151706047Y-81921386D01*
X151693836Y-81891475D01*
X151681551Y-81861593D01*
X151669192Y-81831742D01*
X151656759Y-81801921D01*
X151644252Y-81772131D01*
X151631671Y-81742371D01*
X151619016Y-81712642D01*
X151606287Y-81682943D01*
X151593485Y-81653277D01*
X151580609Y-81623641D01*
X151567660Y-81594037D01*
X151554637Y-81564465D01*
X151541541Y-81534924D01*
X151528371Y-81505416D01*
X151515129Y-81475940D01*
X151501813Y-81446497D01*
X151488424Y-81417086D01*
X151474962Y-81387708D01*
X151461428Y-81358363D01*
X151447821Y-81329052D01*
X151434141Y-81299773D01*
X151420388Y-81270529D01*
X151406563Y-81241318D01*
X151392666Y-81212141D01*
X151378696Y-81182999D01*
X151364654Y-81153891D01*
X151350540Y-81124817D01*
X151336353Y-81095778D01*
X151322095Y-81066774D01*
X151307765Y-81037805D01*
X151293363Y-81008872D01*
X151278890Y-80979974D01*
X151264344Y-80951111D01*
X151249728Y-80922285D01*
X151235040Y-80893494D01*
X151220280Y-80864740D01*
X151205450Y-80836022D01*
X151190548Y-80807341D01*
X151175575Y-80778697D01*
X151160531Y-80750089D01*
X151145417Y-80721519D01*
X151130231Y-80692986D01*
X151114975Y-80664490D01*
X151099649Y-80636033D01*
X151084252Y-80607613D01*
X151068784Y-80579231D01*
X151053247Y-80550887D01*
X151037639Y-80522582D01*
X151021961Y-80494316D01*
X151006213Y-80466088D01*
X150990395Y-80437899D01*
X150974508Y-80409750D01*
X150958551Y-80381640D01*
X150942524Y-80353569D01*
X150926428Y-80325538D01*
X150910263Y-80297547D01*
X150902154Y-80283567D01*
X150894028Y-80269596D01*
X150885885Y-80255636D01*
X150877724Y-80241685D01*
X150869547Y-80227745D01*
X150861352Y-80213815D01*
X150853139Y-80199895D01*
X150844910Y-80185985D01*
X150836663Y-80172086D01*
X150828399Y-80158197D01*
X150820118Y-80144318D01*
X150811820Y-80130449D01*
X150803505Y-80116590D01*
X150795172Y-80102742D01*
X150786823Y-80088904D01*
X150778456Y-80075077D01*
X150770072Y-80061260D01*
X150761671Y-80047453D01*
X150753253Y-80033657D01*
X150744818Y-80019871D01*
X150736366Y-80006095D01*
X150727897Y-79992330D01*
X150719411Y-79978576D01*
X150710908Y-79964832D01*
X150702387Y-79951099D01*
X150693850Y-79937376D01*
X150685296Y-79923664D01*
X150676725Y-79909962D01*
X150668137Y-79896272D01*
X150659532Y-79882591D01*
X150650911Y-79868922D01*
X150642272Y-79855263D01*
X150633617Y-79841615D01*
X150624944Y-79827978D01*
X150616255Y-79814351D01*
X150607549Y-79800735D01*
X150598826Y-79787130D01*
X150590086Y-79773536D01*
X150581330Y-79759953D01*
X150572556Y-79746381D01*
X150563766Y-79732819D01*
X150554960Y-79719269D01*
X150546136Y-79705729D01*
X150537296Y-79692201D01*
X150528439Y-79678683D01*
X150519565Y-79665177D01*
X150510675Y-79651681D01*
X150501768Y-79638197D01*
X150492844Y-79624723D01*
X150483904Y-79611261D01*
X150474947Y-79597810D01*
X150465973Y-79584370D01*
X150456983Y-79570941D01*
X150447977Y-79557523D01*
X150438954Y-79544117D01*
X150429914Y-79530722D01*
X150420857Y-79517338D01*
X150411784Y-79503965D01*
X150402695Y-79490604D01*
X150393589Y-79477253D01*
X150384467Y-79463915D01*
X150375328Y-79450587D01*
X150366173Y-79437272D01*
X150357001Y-79423967D01*
X150347813Y-79410674D01*
X150338609Y-79397392D01*
X150329388Y-79384122D01*
X150320150Y-79370863D01*
X150310897Y-79357616D01*
X150301627Y-79344380D01*
X150292341Y-79331156D01*
X150283038Y-79317943D01*
X150273719Y-79304742D01*
X150264384Y-79291553D01*
X150255032Y-79278375D01*
X150245665Y-79265209D01*
X150236281Y-79252054D01*
X150226880Y-79238911D01*
X150217464Y-79225781D01*
X150208032Y-79212661D01*
X150198583Y-79199554D01*
X150189118Y-79186458D01*
X150179637Y-79173374D01*
X150170140Y-79160302D01*
X150160626Y-79147242D01*
X150151097Y-79134193D01*
X150141551Y-79121157D01*
X150131990Y-79108132D01*
X150122412Y-79095119D01*
X150112818Y-79082118D01*
X150103209Y-79069130D01*
X150093583Y-79056153D01*
X150083941Y-79043188D01*
X150074283Y-79030235D01*
X150064610Y-79017295D01*
X150054920Y-79004366D01*
X150045215Y-78991450D01*
X150035493Y-78978545D01*
X150025756Y-78965653D01*
X150016002Y-78952772D01*
X150006233Y-78939905D01*
X149996448Y-78927049D01*
X149986648Y-78914205D01*
X149976831Y-78901374D01*
X149966998Y-78888555D01*
X149957150Y-78875748D01*
X149947286Y-78862953D01*
X149937406Y-78850171D01*
X149927511Y-78837401D01*
X149917599Y-78824643D01*
X149907672Y-78811898D01*
X149897729Y-78799165D01*
X149887771Y-78786445D01*
X149877797Y-78773737D01*
X149867807Y-78761042D01*
X149857802Y-78748358D01*
X149847781Y-78735688D01*
X149837744Y-78723030D01*
X149827692Y-78710385D01*
X149817624Y-78697751D01*
X149807541Y-78685131D01*
X149797442Y-78672523D01*
X149787328Y-78659928D01*
X149777198Y-78647345D01*
X149767052Y-78634776D01*
X149756891Y-78622218D01*
X149746715Y-78609674D01*
X149736523Y-78597142D01*
X149726316Y-78584623D01*
X149716093Y-78572116D01*
X149705855Y-78559623D01*
X149695602Y-78547142D01*
X149685333Y-78534674D01*
X149675049Y-78522218D01*
X149664749Y-78509776D01*
X149654434Y-78497346D01*
X149644104Y-78484930D01*
X149633759Y-78472526D01*
X149623398Y-78460135D01*
X149613022Y-78447757D01*
X149602631Y-78435393D01*
X149592224Y-78423040D01*
X149581803Y-78410702D01*
X149571366Y-78398375D01*
X149560914Y-78386063D01*
X149550447Y-78373763D01*
X149539965Y-78361476D01*
X149529467Y-78349202D01*
X149518955Y-78336942D01*
X149508427Y-78324694D01*
X149497884Y-78312460D01*
X149487326Y-78300238D01*
X149476754Y-78288031D01*
X149466166Y-78275836D01*
X149455563Y-78263654D01*
X149444945Y-78251486D01*
X149434313Y-78239331D01*
X149423664Y-78227189D01*
X149413002Y-78215061D01*
X149402324Y-78202945D01*
X149391632Y-78190843D01*
X149380924Y-78178755D01*
X149370202Y-78166680D01*
X149359464Y-78154618D01*
X149348712Y-78142570D01*
X149337945Y-78130534D01*
X149327164Y-78118513D01*
X149316367Y-78106505D01*
X149305556Y-78094510D01*
X149294730Y-78082529D01*
X149283889Y-78070562D01*
X149273033Y-78058607D01*
X149262163Y-78046667D01*
X149251278Y-78034740D01*
X149240379Y-78022827D01*
X149229464Y-78010927D01*
X149218535Y-77999041D01*
X149207591Y-77987168D01*
X149196633Y-77975309D01*
X149185660Y-77963464D01*
X149174673Y-77951633D01*
X149163671Y-77939815D01*
X149152654Y-77928011D01*
X149141623Y-77916220D01*
X149130578Y-77904444D01*
X149119517Y-77892681D01*
X149108443Y-77880932D01*
X149097353Y-77869197D01*
X149086250Y-77857476D01*
X149075132Y-77845768D01*
X149064000Y-77834075D01*
X149052853Y-77822394D01*
X149041692Y-77810729D01*
X149030516Y-77799076D01*
X149019327Y-77787439D01*
X149008122Y-77775814D01*
X148996904Y-77764205D01*
X148985671Y-77752608D01*
X148974424Y-77741026D01*
X148963162Y-77729458D01*
X148951887Y-77717904D01*
X148940596Y-77706364D01*
X148929293Y-77694838D01*
X148917974Y-77683326D01*
X148906642Y-77671829D01*
X148895295Y-77660345D01*
X148883934Y-77648876D01*
X148872559Y-77637420D01*
X148861170Y-77625979D01*
X148849767Y-77614552D01*
X148838350Y-77603139D01*
X148826918Y-77591740D01*
X148815473Y-77580357D01*
X148804013Y-77568986D01*
X148792540Y-77557631D01*
X148781052Y-77546289D01*
X148769552Y-77534962D01*
X148758036Y-77523649D01*
X148746507Y-77512350D01*
X148734963Y-77501066D01*
X148723406Y-77489796D01*
X148711835Y-77478541D01*
X148700250Y-77467300D01*
X148688651Y-77456073D01*
X148677039Y-77444861D01*
X148665412Y-77433663D01*
X148653772Y-77422480D01*
X148642117Y-77411311D01*
X148630450Y-77400157D01*
X148618767Y-77389017D01*
X148607073Y-77377892D01*
X148595363Y-77366781D01*
X148583640Y-77355685D01*
X148571903Y-77344603D01*
X148560154Y-77333536D01*
X148548389Y-77322484D01*
X148536612Y-77311446D01*
X148524820Y-77300423D01*
X148513016Y-77289415D01*
X148501197Y-77278420D01*
X148489365Y-77267442D01*
X148477519Y-77256477D01*
X148465661Y-77245528D01*
X148453787Y-77234592D01*
X148441902Y-77223672D01*
X148430002Y-77212767D01*
X148418089Y-77201876D01*
X148406162Y-77191000D01*
X148394222Y-77180139D01*
X148382268Y-77169293D01*
X148370302Y-77158462D01*
X148358321Y-77147645D01*
X148346328Y-77136844D01*
X148334320Y-77126056D01*
X148322300Y-77115285D01*
X148310266Y-77104527D01*
X148298220Y-77093786D01*
X148286159Y-77083058D01*
X148274086Y-77072347D01*
X148261998Y-77061649D01*
X148249899Y-77050967D01*
X148237785Y-77040300D01*
X148225659Y-77029648D01*
X148213518Y-77019010D01*
X148201366Y-77008389D01*
X148189199Y-76997781D01*
X148177021Y-76987190D01*
X148164828Y-76976612D01*
X148152623Y-76966051D01*
X148140403Y-76955504D01*
X148128172Y-76944973D01*
X148115927Y-76934456D01*
X148103670Y-76923956D01*
X148091398Y-76913469D01*
X148079115Y-76902999D01*
X148066818Y-76892543D01*
X148054509Y-76882103D01*
X148042185Y-76871677D01*
X148029850Y-76861268D01*
X148017501Y-76850873D01*
X148005140Y-76840494D01*
X147992765Y-76830130D01*
X147980378Y-76819782D01*
X147967977Y-76809448D01*
X147955565Y-76799130D01*
X147943139Y-76788827D01*
X147930701Y-76778540D01*
X147918248Y-76768268D01*
X147905785Y-76758012D01*
X147893307Y-76747770D01*
X147880818Y-76737545D01*
X147868315Y-76727334D01*
X147855801Y-76717139D01*
X147843272Y-76706960D01*
X147830732Y-76696796D01*
X147818178Y-76686647D01*
X147805613Y-76676515D01*
X147793034Y-76666397D01*
X147780444Y-76656295D01*
X147767839Y-76646209D01*
X147755224Y-76636138D01*
X147742594Y-76626083D01*
X147729953Y-76616043D01*
X147717299Y-76606019D01*
X147704633Y-76596011D01*
X147691954Y-76586018D01*
X147679263Y-76576041D01*
X147666558Y-76566079D01*
X147653843Y-76556134D01*
X147641113Y-76546203D01*
X147628373Y-76536289D01*
X147615619Y-76526390D01*
X147602853Y-76516507D01*
X147590074Y-76506639D01*
X147577285Y-76496788D01*
X147564481Y-76486952D01*
X147551666Y-76477132D01*
X147538838Y-76467327D01*
X147525999Y-76457539D01*
X147513146Y-76447766D01*
X147500283Y-76438010D01*
X147487405Y-76428268D01*
X147474517Y-76418543D01*
X147461615Y-76408833D01*
X147448703Y-76399140D01*
X147435777Y-76389462D01*
X147422840Y-76379801D01*
X147409890Y-76370155D01*
X147396929Y-76360525D01*
X147383954Y-76350911D01*
X147370969Y-76341313D01*
X147357970Y-76331731D01*
X147344961Y-76322165D01*
X147331938Y-76312614D01*
X147318905Y-76303081D01*
X147305858Y-76293562D01*
X147292801Y-76284061D01*
X147279730Y-76274574D01*
X147266648Y-76265104D01*
X147253554Y-76255650D01*
X147240449Y-76246213D01*
X147227330Y-76236790D01*
X147214201Y-76227385D01*
X147201059Y-76217995D01*
X147187906Y-76208622D01*
X147174740Y-76199264D01*
X147161564Y-76189923D01*
X147148374Y-76180597D01*
X147135174Y-76171289D01*
X147121961Y-76161996D01*
X147108738Y-76152720D01*
X147095501Y-76143459D01*
X147082254Y-76134215D01*
X147068994Y-76124987D01*
X147055723Y-76115775D01*
X147042440Y-76106579D01*
X147029146Y-76097401D01*
X147015839Y-76088237D01*
X147002522Y-76079091D01*
X146989192Y-76069960D01*
X146975852Y-76060846D01*
X146962499Y-76051748D01*
X146949136Y-76042667D01*
X146935759Y-76033602D01*
X146922373Y-76024553D01*
X146908973Y-76015520D01*
X146895564Y-76006505D01*
X146882141Y-75997505D01*
X146868709Y-75988522D01*
X146855263Y-75979554D01*
X146841808Y-75970605D01*
X146828340Y-75961670D01*
X146814862Y-75952753D01*
X146801371Y-75943851D01*
X146787870Y-75934967D01*
X146774356Y-75926098D01*
X146760832Y-75917247D01*
X146747296Y-75908411D01*
X146733750Y-75899593D01*
X146720190Y-75890790D01*
X146706622Y-75882005D01*
X146693040Y-75873236D01*
X146679449Y-75864484D01*
X146665844Y-75855747D01*
X146652231Y-75847028D01*
X146638604Y-75838325D01*
X146624968Y-75829639D01*
X146611319Y-75820968D01*
X146597660Y-75812316D01*
X146583989Y-75803679D01*
X146570308Y-75795060D01*
X146556614Y-75786456D01*
X146542911Y-75777870D01*
X146529196Y-75769299D01*
X146515471Y-75760747D01*
X146501733Y-75752210D01*
X146487985Y-75743690D01*
X146474225Y-75735187D01*
X146460456Y-75726701D01*
X146446674Y-75718231D01*
X146432883Y-75709778D01*
X146419079Y-75701341D01*
X146405266Y-75692922D01*
X146391440Y-75684519D01*
X146377605Y-75676134D01*
X146363758Y-75667764D01*
X146349901Y-75659412D01*
X146336032Y-75651076D01*
X146322153Y-75642758D01*
X146308262Y-75634456D01*
X146294362Y-75626171D01*
X146280450Y-75617903D01*
X146266528Y-75609652D01*
X146252594Y-75601417D01*
X146238650Y-75593200D01*
X146224695Y-75584999D01*
X146210730Y-75576815D01*
X146196753Y-75568648D01*
X146182767Y-75560498D01*
X146168768Y-75552365D01*
X146144548Y-75538347D01*
D10*
X152666830Y-92053086D02*
X152666830Y-86835258D01*
M02*
