%TF.GenerationSoftware,KiCad,Pcbnew,10.0.1*%
%TF.CreationDate,2026-06-07T13:53:24+09:00*%
%TF.ProjectId,reband,72656261-6e64-42e6-9b69-6361645f7063,rev?*%
%TF.SameCoordinates,Original*%
%TF.FileFunction,Copper,L4,Bot*%
%TF.FilePolarity,Positive*%
%FSLAX46Y46*%
G04 Gerber Fmt 4.6, Leading zero omitted, Abs format (unit mm)*
G04 Created by KiCad (PCBNEW 10.0.1) date 2026-06-07 13:53:24*
%MOMM*%
%LPD*%
G01*
G04 APERTURE LIST*
G04 Aperture macros list*
%AMRoundRect*
0 Rectangle with rounded corners*
0 $1 Rounding radius*
0 $2 $3 $4 $5 $6 $7 $8 $9 X,Y pos of 4 corners*
0 Add a 4 corners polygon primitive as box body*
4,1,4,$2,$3,$4,$5,$6,$7,$8,$9,$2,$3,0*
0 Add four circle primitives for the rounded corners*
1,1,$1+$1,$2,$3*
1,1,$1+$1,$4,$5*
1,1,$1+$1,$6,$7*
1,1,$1+$1,$8,$9*
0 Add four rect primitives between the rounded corners*
20,1,$1+$1,$2,$3,$4,$5,0*
20,1,$1+$1,$4,$5,$6,$7,0*
20,1,$1+$1,$6,$7,$8,$9,0*
20,1,$1+$1,$8,$9,$2,$3,0*%
G04 Aperture macros list end*
%TA.AperFunction,ComponentPad*%
%ADD10O,1.908000X1.108000*%
%TD*%
%TA.AperFunction,ComponentPad*%
%ADD11O,2.308000X1.108000*%
%TD*%
%TA.AperFunction,ComponentPad*%
%ADD12R,0.850000X0.850000*%
%TD*%
%TA.AperFunction,ComponentPad*%
%ADD13C,0.850000*%
%TD*%
%TA.AperFunction,ComponentPad*%
%ADD14C,1.244600*%
%TD*%
%TA.AperFunction,SMDPad,CuDef*%
%ADD15C,2.082800*%
%TD*%
%TA.AperFunction,SMDPad,CuDef*%
%ADD16R,1.050000X1.400000*%
%TD*%
%TA.AperFunction,SMDPad,CuDef*%
%ADD17R,0.762000X0.355600*%
%TD*%
%TA.AperFunction,SMDPad,CuDef*%
%ADD18R,0.600000X1.750000*%
%TD*%
%TA.AperFunction,SMDPad,CuDef*%
%ADD19R,1.200000X0.600000*%
%TD*%
%TA.AperFunction,SMDPad,CuDef*%
%ADD20RoundRect,0.155000X0.155000X-0.212500X0.155000X0.212500X-0.155000X0.212500X-0.155000X-0.212500X0*%
%TD*%
%TA.AperFunction,ViaPad*%
%ADD21C,0.380000*%
%TD*%
%TA.AperFunction,ViaPad*%
%ADD22C,0.600000*%
%TD*%
%TA.AperFunction,Conductor*%
%ADD23C,0.300000*%
%TD*%
%TA.AperFunction,Conductor*%
%ADD24C,0.400000*%
%TD*%
%TA.AperFunction,Conductor*%
%ADD25C,0.200000*%
%TD*%
%TA.AperFunction,Conductor*%
%ADD26C,0.150000*%
%TD*%
%TA.AperFunction,Conductor*%
%ADD27C,0.500000*%
%TD*%
G04 APERTURE END LIST*
D10*
%TO.P,J2,13,GND_13*%
%TO.N,GND*%
X132818998Y-85221598D03*
D11*
%TO.P,J2,14,GND_14*%
X128818955Y-85221568D03*
%TO.P,J2,15,GND_15*%
X128818955Y-93861632D03*
D10*
%TO.P,J2,16,GND_16*%
X132818998Y-93861602D03*
%TD*%
D12*
%TO.P,J5,1,Pin_1_1*%
%TO.N,/RST*%
X138217400Y-103457600D03*
D13*
%TO.P,J5,2,Pin_2_2*%
%TO.N,GND*%
X139217400Y-103457600D03*
%TD*%
D14*
%TO.P,J1,1,1_1*%
%TO.N,Net-(U2-IN)*%
X142063700Y-101283200D03*
%TO.P,J1,2,2_2*%
%TO.N,GND*%
X142063700Y-99783199D03*
%TD*%
D15*
%TO.P,J3,1,1_1*%
%TO.N,Net-(C10-Pad1)*%
X147955000Y-99618800D03*
%TD*%
D16*
%TO.P,S2,1_1*%
%TO.N,/GPIO8*%
X148423800Y-93577000D03*
%TO.P,S2,1_2*%
X148423800Y-97177000D03*
%TO.P,S2,2_1*%
%TO.N,GND*%
X149873800Y-93577000D03*
%TO.P,S2,2_2*%
X149873800Y-97177000D03*
%TD*%
D17*
%TO.P,U6,1,N.C._1*%
%TO.N,unconnected-(U6-N.C.-Pad1)*%
X140690600Y-92875400D03*
%TO.P,U6,2,SCL_2*%
%TO.N,/SCL*%
X140690600Y-93675401D03*
%TO.P,U6,3,SDA_3*%
%TO.N,/SDA*%
X140690600Y-94475399D03*
%TO.P,U6,4,PGND_4*%
%TO.N,GND*%
X140690600Y-95275400D03*
%TO.P,U6,5,NC_5*%
%TO.N,unconnected-(U6-NC-Pad5)*%
X140690600Y-96075398D03*
%TO.P,U6,6,NC_6*%
%TO.N,unconnected-(U6-NC-Pad6)*%
X140690600Y-96875399D03*
%TO.P,U6,7,N.C._7*%
%TO.N,unconnected-(U6-N.C.-Pad7)*%
X140690600Y-97675400D03*
%TO.P,U6,8,N.C._8*%
%TO.N,unconnected-(U6-N.C.-Pad8)*%
X138303000Y-97675400D03*
%TO.P,U6,9,VLED+_9*%
%TO.N,+3.3V*%
X138303000Y-96875399D03*
%TO.P,U6,10,VLED+_10*%
X138303000Y-96075401D03*
%TO.P,U6,11,VDD_11*%
%TO.N,+1V8*%
X138303000Y-95275400D03*
%TO.P,U6,12,GND_12*%
%TO.N,GND*%
X138303000Y-94475402D03*
%TO.P,U6,13,\u002AINT_13*%
%TO.N,/PPG_INT*%
X138303000Y-93675401D03*
%TO.P,U6,14,N.C._14*%
%TO.N,unconnected-(U6-N.C.-Pad14)*%
X138303000Y-92875400D03*
%TD*%
D16*
%TO.P,S1,1_1*%
%TO.N,/BOOT*%
X148423800Y-81613600D03*
%TO.P,S1,1_2*%
X148423800Y-85213600D03*
%TO.P,S1,2_1*%
%TO.N,GND*%
X149873800Y-81613600D03*
%TO.P,S1,2_2*%
X149873800Y-85213600D03*
%TD*%
D18*
%TO.P,J6,1,Pin_1_1*%
%TO.N,/Rx0*%
X144891000Y-101699000D03*
%TO.P,J6,2,Pin_2_2*%
%TO.N,/Tx0*%
X143891000Y-99949000D03*
%TD*%
D19*
%TO.P,IC1,1,I/O1_1_1*%
%TO.N,/USB_D-*%
X136144000Y-91059000D03*
%TO.P,IC1,2,GND_2*%
%TO.N,GND*%
X136144000Y-90109000D03*
%TO.P,IC1,3,I/O2_1_3*%
%TO.N,/USB_D+*%
X136144000Y-89159000D03*
%TO.P,IC1,4,I/O2_2_4*%
%TO.N,/D+*%
X138644000Y-89159000D03*
%TO.P,IC1,5,VBUS_5*%
%TO.N,+5V*%
X138644000Y-90109000D03*
%TO.P,IC1,6,I/O1_2_6*%
%TO.N,/D-*%
X138644000Y-91059000D03*
%TD*%
D15*
%TO.P,J4,1,1_1*%
%TO.N,Net-(C11-Pad1)*%
X131318000Y-99618800D03*
%TD*%
D20*
%TO.P,C16,1*%
%TO.N,+3.3V*%
X139700000Y-87435500D03*
%TO.P,C16,2*%
%TO.N,GND*%
X139700000Y-86300500D03*
%TD*%
D21*
%TO.N,GND*%
X144780000Y-82905600D03*
X132537200Y-84074000D03*
X144780000Y-80391000D03*
D22*
X147624800Y-80213200D03*
D21*
X145897600Y-84861400D03*
D22*
X131572000Y-83058000D03*
X128371600Y-92557600D03*
D21*
X144678400Y-79756000D03*
D22*
X142163800Y-81483200D03*
X142748000Y-79654400D03*
X145211800Y-89103200D03*
D21*
X144780000Y-81661000D03*
X146304000Y-81026000D03*
D22*
X133616700Y-79984600D03*
X143665000Y-88233000D03*
D21*
X146304000Y-82296000D03*
X144780000Y-84328000D03*
X144145000Y-96139000D03*
X145897600Y-84302600D03*
D22*
X139141200Y-82346800D03*
X144500600Y-89077800D03*
X131064000Y-91389200D03*
D21*
X142951200Y-94691200D03*
D22*
X128574800Y-95758000D03*
D21*
X146304000Y-81661000D03*
X135154000Y-90109000D03*
D22*
X143662400Y-89077800D03*
X130657600Y-89001600D03*
X144500600Y-88239600D03*
X145186400Y-86715600D03*
X143332200Y-97104200D03*
D21*
X133540500Y-78689200D03*
D22*
X130657600Y-87985600D03*
D21*
X144272000Y-79375000D03*
D22*
X148793200Y-79654400D03*
D21*
X146304000Y-80391000D03*
X144780000Y-83531200D03*
X144780000Y-81026000D03*
D22*
X151384000Y-86055200D03*
X128828800Y-83947000D03*
D21*
X144780000Y-82296000D03*
D22*
X145186400Y-88239600D03*
D21*
X135623300Y-78790800D03*
X143891000Y-78994000D03*
D22*
X144500600Y-86715600D03*
X143560800Y-81026000D03*
X149910800Y-91592400D03*
D21*
X135051800Y-87960200D03*
D22*
%TO.N,+5V*%
X139293600Y-83667600D03*
X134950200Y-84861400D03*
X134670800Y-91948000D03*
%TO.N,/USB_D+*%
X132029200Y-90271600D03*
X134823200Y-89306400D03*
%TO.N,/USB_D-*%
X134518400Y-90678000D03*
%TO.N,Net-(C10-Pad1)*%
X147167600Y-98145600D03*
D21*
%TO.N,/GPIO8*%
X148361400Y-91668600D03*
X139639800Y-88925400D03*
%TO.N,+3.3V*%
X141007094Y-91787999D03*
X134670800Y-97256600D03*
X140369800Y-87477600D03*
D22*
X139801600Y-82956400D03*
D21*
X146964400Y-86614000D03*
X137947400Y-88417400D03*
X132791200Y-99305300D03*
X144119600Y-84658200D03*
X140055600Y-80213200D03*
X137160000Y-97383600D03*
D22*
%TO.N,/RST*%
X131622800Y-77724000D03*
X136525000Y-99999800D03*
D21*
X142417800Y-84759800D03*
X139331700Y-77317600D03*
%TO.N,+1V8*%
X138938000Y-95275400D03*
X139560300Y-78384400D03*
D22*
%TO.N,Net-(U2-IN)*%
X130302000Y-82092800D03*
D21*
X132689600Y-78536800D03*
X136067800Y-84328000D03*
%TO.N,Net-(U4-VSS)*%
X137464800Y-86563200D03*
X130810000Y-82829400D03*
%TO.N,/BOOT*%
X139725400Y-90373200D03*
X146888200Y-84201000D03*
%TO.N,/SDA*%
X142163800Y-95097600D03*
X143306800Y-84709000D03*
%TO.N,/SCL*%
X141401800Y-84556600D03*
X140004800Y-93675200D03*
X142290800Y-95707200D03*
%TO.N,/GSR_INT*%
X140766800Y-85623400D03*
X146380200Y-94589600D03*
%TO.N,/PPG_INT*%
X140487400Y-86995000D03*
X139115800Y-93675200D03*
X140360400Y-90551000D03*
%TO.N,/BNO_INT*%
X140436600Y-87985600D03*
X137922000Y-100279200D03*
%TO.N,/1.8V_CTRL*%
X137693400Y-82372200D03*
X139496800Y-88188800D03*
%TO.N,/D-*%
X146989800Y-90119200D03*
%TO.N,/D+*%
X146989800Y-89509600D03*
%TO.N,/Rx0*%
X147015200Y-89027000D03*
X145923000Y-98780600D03*
%TO.N,/Tx0*%
X144437100Y-98209100D03*
X147006200Y-88544400D03*
D22*
%TO.N,Net-(C11-Pad1)*%
X130048000Y-96824800D03*
X135305800Y-94437200D03*
D21*
%TO.N,Net-(U3-EL4)*%
X136601200Y-94386400D03*
X143027400Y-93599000D03*
%TO.N,Net-(U3-EL3A)*%
X137185400Y-93065600D03*
%TO.N,Net-(U3-VREF)*%
X137160000Y-96901000D03*
%TO.N,Net-(U4-ISET)*%
X137541000Y-84099400D03*
X135559800Y-82321400D03*
%TD*%
%TO.N,GND*%
D23*
X136144000Y-90109000D02*
X135154000Y-90109000D01*
%TO.N,+5V*%
D24*
X135128000Y-92430600D02*
X134670800Y-91973400D01*
X137464800Y-90449400D02*
X137464800Y-92024200D01*
X134670800Y-91973400D02*
X134670800Y-91948000D01*
X137805200Y-90109000D02*
X137464800Y-90449400D01*
X138644000Y-90109000D02*
X137805200Y-90109000D01*
X137058400Y-92430600D02*
X135128000Y-92430600D01*
X137464800Y-92024200D02*
X137058400Y-92430600D01*
%TO.N,/USB_D+*%
D25*
X131927600Y-89611200D02*
X131927600Y-90170000D01*
X134970600Y-89159000D02*
X136144000Y-89159000D01*
X134823200Y-89306400D02*
X134970600Y-89159000D01*
X134823200Y-89306400D02*
X132232400Y-89306400D01*
X131927600Y-90170000D02*
X132029200Y-90271600D01*
X132232400Y-89306400D02*
X131927600Y-89611200D01*
%TO.N,/USB_D-*%
X136144000Y-91059000D02*
X134899400Y-91059000D01*
X134899400Y-91059000D02*
X134518400Y-90678000D01*
%TO.N,Net-(C10-Pad1)*%
X147955000Y-98933000D02*
X147167600Y-98145600D01*
X147955000Y-99618800D02*
X147955000Y-98933000D01*
%TO.N,/GPIO8*%
D26*
X148423800Y-93577000D02*
X148423800Y-91731000D01*
D24*
X148423800Y-93577000D02*
X148423800Y-97177000D01*
D26*
X148423800Y-91731000D02*
X148361400Y-91668600D01*
%TO.N,+3.3V*%
D25*
X143713200Y-86969600D02*
X143713200Y-85064600D01*
X138303000Y-96875399D02*
X137820601Y-96875399D01*
X139700000Y-87435500D02*
X139962700Y-87435500D01*
X146253200Y-87325200D02*
X144068800Y-87325200D01*
X138303000Y-96075401D02*
X138303000Y-96875399D01*
X137820601Y-96875399D02*
X137312400Y-97383600D01*
X143713200Y-85064600D02*
X144119600Y-84658200D01*
X139962700Y-87435500D02*
X140004800Y-87477600D01*
X144068800Y-87325200D02*
X143713200Y-86969600D01*
X137312400Y-97383600D02*
X137160000Y-97383600D01*
X140004800Y-87477600D02*
X140369800Y-87477600D01*
X146964400Y-86614000D02*
X146253200Y-87325200D01*
%TO.N,/RST*%
X130708400Y-79603600D02*
X130708400Y-78638400D01*
X131038600Y-95123000D02*
X131038600Y-94030800D01*
X142417800Y-84353400D02*
X140487400Y-82423000D01*
X131622800Y-77724000D02*
X131622800Y-77556863D01*
X142417800Y-84759800D02*
X142417800Y-84353400D01*
X140487400Y-82423000D02*
X140487400Y-77952600D01*
X129209800Y-86690200D02*
X129743200Y-86690200D01*
X130708400Y-78638400D02*
X131826000Y-77520800D01*
X139331700Y-77317600D02*
X132892800Y-77317600D01*
X131658863Y-77520800D02*
X132689600Y-77520800D01*
X139852400Y-77317600D02*
X139331700Y-77317600D01*
X128887981Y-81424019D02*
X130708400Y-79603600D01*
X128727200Y-91948000D02*
X128727200Y-87172800D01*
X131622800Y-77556863D02*
X131658863Y-77520800D01*
X128727200Y-87172800D02*
X129209800Y-86690200D01*
X136525000Y-99999800D02*
X135915400Y-99999800D01*
X130530600Y-84556600D02*
X128887981Y-82913981D01*
X132689600Y-77520800D02*
X132892800Y-77317600D01*
X129336800Y-92557600D02*
X128727200Y-91948000D01*
X135915400Y-99999800D02*
X131038600Y-95123000D01*
X140487400Y-77952600D02*
X139852400Y-77317600D01*
X128887981Y-82913981D02*
X128887981Y-81424019D01*
X131038600Y-94030800D02*
X129565400Y-92557600D01*
X129743200Y-86690200D02*
X130530600Y-85902800D01*
X130530600Y-85902800D02*
X130530600Y-84556600D01*
X129565400Y-92557600D02*
X129336800Y-92557600D01*
X131826000Y-77520800D02*
X132689600Y-77520800D01*
%TO.N,+1V8*%
X129565400Y-82854800D02*
X129565400Y-81661000D01*
X132054600Y-78333600D02*
X132308600Y-78079600D01*
X134620000Y-95275400D02*
X134366000Y-95529400D01*
X129565400Y-81661000D02*
X131216400Y-80010000D01*
X132105400Y-95529400D02*
X131470400Y-94894400D01*
X129387600Y-91135200D02*
X129387600Y-87909400D01*
X131470400Y-93218000D02*
X129387600Y-91135200D01*
X131470400Y-94894400D02*
X131470400Y-93218000D01*
X138303000Y-95275400D02*
X134620000Y-95275400D01*
X132308600Y-78079600D02*
X139255500Y-78079600D01*
X134366000Y-95529400D02*
X132105400Y-95529400D01*
X138303000Y-95275400D02*
X138938000Y-95275400D01*
X131724400Y-78333600D02*
X132054600Y-78333600D01*
X131216400Y-80010000D02*
X131216400Y-78841600D01*
X131089400Y-86207600D02*
X131089400Y-84378800D01*
X131089400Y-84378800D02*
X129565400Y-82854800D01*
X131216400Y-78841600D02*
X131724400Y-78333600D01*
X139255500Y-78079600D02*
X139560300Y-78384400D01*
X129387600Y-87909400D02*
X131089400Y-86207600D01*
%TO.N,Net-(U2-IN)*%
D27*
X133426200Y-81686400D02*
X131978400Y-81686400D01*
X131978400Y-81686400D02*
X130708400Y-81686400D01*
D25*
X132689600Y-78536800D02*
X131940300Y-79286100D01*
X131940300Y-79286100D02*
X131940300Y-81648300D01*
D27*
X130708400Y-81686400D02*
X130302000Y-82092800D01*
D25*
X131940300Y-81648300D02*
X131978400Y-81686400D01*
D27*
X136067800Y-84328000D02*
X133426200Y-81686400D01*
%TO.N,Net-(U4-VSS)*%
D25*
X133146800Y-82499200D02*
X131140200Y-82499200D01*
X137464800Y-86563200D02*
X135763000Y-86563200D01*
X135763000Y-86563200D02*
X133858000Y-84658200D01*
X133858000Y-84658200D02*
X133858000Y-83210400D01*
X133858000Y-83210400D02*
X133146800Y-82499200D01*
X131140200Y-82499200D02*
X130810000Y-82829400D01*
%TO.N,/BOOT*%
D24*
X148423800Y-84074000D02*
X148423800Y-85213600D01*
D26*
X146888200Y-84201000D02*
X148296800Y-84201000D01*
X148296800Y-84201000D02*
X148423800Y-84074000D01*
D24*
X148423800Y-81613600D02*
X148423800Y-84074000D01*
%TO.N,/SDA*%
D25*
X141541599Y-94475399D02*
X142163800Y-95097600D01*
X140690600Y-94475399D02*
X141541599Y-94475399D01*
%TO.N,/SCL*%
X140005001Y-93675401D02*
X140004800Y-93675200D01*
X140690600Y-93675401D02*
X140005001Y-93675401D01*
%TO.N,/GSR_INT*%
X146913600Y-94234000D02*
X146913600Y-91694000D01*
X143891000Y-87680800D02*
X141833600Y-85623400D01*
X146380200Y-94589600D02*
X146558000Y-94589600D01*
X149453600Y-88061800D02*
X149072600Y-87680800D01*
X141833600Y-85623400D02*
X140766800Y-85623400D01*
X146558000Y-94589600D02*
X146913600Y-94234000D01*
X146913600Y-91694000D02*
X149453600Y-89154000D01*
X149453600Y-89154000D02*
X149453600Y-88061800D01*
X149072600Y-87680800D02*
X143891000Y-87680800D01*
%TO.N,/PPG_INT*%
D26*
X138303000Y-93675401D02*
X139115599Y-93675401D01*
D23*
X139115599Y-93675401D02*
X139115800Y-93675200D01*
%TO.N,/1.8V_CTRL*%
D25*
X138430000Y-87858600D02*
X138430000Y-83108800D01*
X139496800Y-88188800D02*
X138760200Y-88188800D01*
X138430000Y-83108800D02*
X137693400Y-82372200D01*
X138760200Y-88188800D02*
X138430000Y-87858600D01*
%TO.N,/D-*%
D26*
X141528800Y-89992200D02*
X140462000Y-91059000D01*
X140462000Y-91059000D02*
X138644000Y-91059000D01*
X146862800Y-89992200D02*
X141528800Y-89992200D01*
X146989800Y-90119200D02*
X146862800Y-89992200D01*
X146989800Y-90043000D02*
X147015200Y-90017600D01*
X146989800Y-90119200D02*
X146989800Y-90043000D01*
%TO.N,/D+*%
X146761200Y-89509600D02*
X146989800Y-89509600D01*
X138867600Y-89382600D02*
X140893800Y-89382600D01*
X140893800Y-89382600D02*
X141224000Y-89712800D01*
X141224000Y-89712800D02*
X146558000Y-89712800D01*
X138644000Y-89159000D02*
X138867600Y-89382600D01*
X146558000Y-89712800D02*
X146761200Y-89509600D01*
%TO.N,/Rx0*%
D25*
X144891000Y-99812600D02*
X145923000Y-98780600D01*
X144891000Y-101699000D02*
X144891000Y-99812600D01*
%TO.N,/Tx0*%
X143891000Y-98755200D02*
X144437100Y-98209100D01*
X143891000Y-99949000D02*
X143891000Y-98755200D01*
%TO.N,Net-(C11-Pad1)*%
X130048000Y-98348800D02*
X131318000Y-99618800D01*
X130048000Y-96824800D02*
X130048000Y-98348800D01*
%TO.N,Net-(U4-ISET)*%
X135559800Y-82727800D02*
X135559800Y-82321400D01*
X136931400Y-84099400D02*
X135559800Y-82727800D01*
X137541000Y-84099400D02*
X136931400Y-84099400D01*
%TD*%
%TA.AperFunction,Conductor*%
%TO.N,GND*%
G36*
X149236215Y-78536961D02*
G01*
X149236765Y-78536805D01*
X149269720Y-78546799D01*
X149302706Y-78556485D01*
X149303262Y-78556971D01*
X149303627Y-78557082D01*
X149330092Y-78580427D01*
X149385565Y-78645603D01*
X149438673Y-78708000D01*
X149440864Y-78710648D01*
X149659951Y-78983002D01*
X149662068Y-78985709D01*
X149873786Y-79264374D01*
X149875825Y-79267137D01*
X150079566Y-79551309D01*
X150081528Y-79554127D01*
X150277366Y-79843895D01*
X150279249Y-79846765D01*
X150465401Y-80139343D01*
X150468053Y-80143709D01*
X150514141Y-80223252D01*
X150516565Y-80227435D01*
X150533141Y-80295310D01*
X150510391Y-80361372D01*
X150455536Y-80404647D01*
X150409273Y-80413600D01*
X150123800Y-80413600D01*
X150123800Y-81363600D01*
X150898798Y-81363600D01*
X150932063Y-81330335D01*
X150956832Y-81316810D01*
X150979913Y-81300588D01*
X150987084Y-81300290D01*
X150993386Y-81296850D01*
X151021530Y-81298862D01*
X151049723Y-81297694D01*
X151055918Y-81301321D01*
X151063078Y-81301834D01*
X151085665Y-81318742D01*
X151110015Y-81333002D01*
X151115899Y-81341375D01*
X151119012Y-81343705D01*
X151130309Y-81361878D01*
X151139655Y-81380285D01*
X151142591Y-81386485D01*
X151423844Y-82025713D01*
X151426430Y-82032063D01*
X151671719Y-82685331D01*
X151673951Y-82691814D01*
X151882603Y-83357158D01*
X151884474Y-83363756D01*
X152055922Y-84039204D01*
X152057424Y-84045893D01*
X152191223Y-84729510D01*
X152192353Y-84736271D01*
X152288162Y-85426164D01*
X152288917Y-85432972D01*
X152346519Y-86127520D01*
X152346896Y-86134352D01*
X152366283Y-86837696D01*
X152366330Y-86841113D01*
X152366330Y-92047744D01*
X152366290Y-92050878D01*
X152349917Y-92698504D01*
X152349699Y-92703358D01*
X152327248Y-93051139D01*
X152326979Y-93054570D01*
X152294762Y-93402932D01*
X152294397Y-93406356D01*
X152252437Y-93754371D01*
X152251978Y-93757784D01*
X152200511Y-94103556D01*
X152199957Y-94106954D01*
X152138782Y-94451889D01*
X152138133Y-94455272D01*
X152067571Y-94797549D01*
X152066829Y-94800910D01*
X151986650Y-95141709D01*
X151985816Y-95145048D01*
X151896368Y-95482889D01*
X151895441Y-95486203D01*
X151796480Y-95822018D01*
X151795462Y-95825304D01*
X151687404Y-96157693D01*
X151686296Y-96160947D01*
X151568902Y-96490668D01*
X151567704Y-96493890D01*
X151441362Y-96819854D01*
X151440076Y-96823041D01*
X151304623Y-97145684D01*
X151303250Y-97148832D01*
X151159011Y-97467382D01*
X151157552Y-97470488D01*
X151134301Y-97518273D01*
X151087269Y-97569942D01*
X151019768Y-97587982D01*
X150953230Y-97566664D01*
X150908780Y-97512757D01*
X150898800Y-97464019D01*
X150898800Y-97427000D01*
X150123800Y-97427000D01*
X150123800Y-98377000D01*
X150446628Y-98377000D01*
X150446640Y-98376999D01*
X150454088Y-98376198D01*
X150466532Y-98378442D01*
X150478950Y-98376029D01*
X150500269Y-98384526D01*
X150522848Y-98388598D01*
X150532104Y-98397214D01*
X150543855Y-98401898D01*
X150557194Y-98420570D01*
X150573990Y-98436204D01*
X150577118Y-98448457D01*
X150584471Y-98458749D01*
X150585598Y-98481671D01*
X150591274Y-98503902D01*
X150587363Y-98517561D01*
X150587903Y-98528535D01*
X150574835Y-98561321D01*
X150490113Y-98708587D01*
X150486530Y-98714436D01*
X150105100Y-99299956D01*
X150101199Y-99305596D01*
X149688258Y-99868756D01*
X149684052Y-99874172D01*
X149240939Y-100413245D01*
X149236439Y-100418420D01*
X149132453Y-100531548D01*
X149072593Y-100567583D01*
X149002754Y-100565535D01*
X148945108Y-100526054D01*
X148917959Y-100461675D01*
X148929925Y-100392837D01*
X148940841Y-100374751D01*
X149017168Y-100269697D01*
X149105914Y-100095524D01*
X149166320Y-99909612D01*
X149196900Y-99716540D01*
X149196900Y-99521060D01*
X149166320Y-99327988D01*
X149136117Y-99235032D01*
X149105915Y-99142078D01*
X149105914Y-99142075D01*
X149043901Y-99020369D01*
X149017168Y-98967903D01*
X148902268Y-98809757D01*
X148764043Y-98671532D01*
X148605897Y-98556632D01*
X148574878Y-98540827D01*
X148431724Y-98467885D01*
X148431721Y-98467884D01*
X148245813Y-98407480D01*
X148125107Y-98388362D01*
X148052740Y-98376900D01*
X147875233Y-98376900D01*
X147845792Y-98368255D01*
X147815806Y-98361732D01*
X147810790Y-98357977D01*
X147808194Y-98357215D01*
X147787552Y-98340581D01*
X147725473Y-98278502D01*
X147691988Y-98217179D01*
X147696972Y-98147487D01*
X147738844Y-98091554D01*
X147804308Y-98067137D01*
X147837344Y-98069203D01*
X147864047Y-98074515D01*
X147879051Y-98077500D01*
X148812244Y-98077500D01*
X148879283Y-98097185D01*
X148911510Y-98127189D01*
X148991609Y-98234187D01*
X148991612Y-98234190D01*
X149106706Y-98320350D01*
X149106713Y-98320354D01*
X149241420Y-98370596D01*
X149241427Y-98370598D01*
X149300955Y-98376999D01*
X149300972Y-98377000D01*
X149623800Y-98377000D01*
X149623800Y-96927000D01*
X150123800Y-96927000D01*
X150898800Y-96927000D01*
X150898800Y-96429172D01*
X150898799Y-96429155D01*
X150892398Y-96369627D01*
X150892396Y-96369620D01*
X150842154Y-96234913D01*
X150842150Y-96234906D01*
X150755990Y-96119812D01*
X150755987Y-96119809D01*
X150640893Y-96033649D01*
X150640886Y-96033645D01*
X150506179Y-95983403D01*
X150506172Y-95983401D01*
X150446644Y-95977000D01*
X150123800Y-95977000D01*
X150123800Y-96927000D01*
X149623800Y-96927000D01*
X149623800Y-95977000D01*
X149300955Y-95977000D01*
X149241427Y-95983401D01*
X149241420Y-95983403D01*
X149106713Y-96033645D01*
X149106710Y-96033647D01*
X149022611Y-96096604D01*
X148957147Y-96121021D01*
X148888874Y-96106169D01*
X148839468Y-96056764D01*
X148824300Y-95997337D01*
X148824300Y-94756662D01*
X148843985Y-94689623D01*
X148896789Y-94643868D01*
X148965947Y-94633924D01*
X149022612Y-94657396D01*
X149106710Y-94720352D01*
X149106713Y-94720354D01*
X149241420Y-94770596D01*
X149241427Y-94770598D01*
X149300955Y-94776999D01*
X149300972Y-94777000D01*
X149623800Y-94777000D01*
X150123800Y-94777000D01*
X150446628Y-94777000D01*
X150446644Y-94776999D01*
X150506172Y-94770598D01*
X150506179Y-94770596D01*
X150640886Y-94720354D01*
X150640893Y-94720350D01*
X150755987Y-94634190D01*
X150755990Y-94634187D01*
X150842150Y-94519093D01*
X150842154Y-94519086D01*
X150892396Y-94384379D01*
X150892398Y-94384372D01*
X150898799Y-94324844D01*
X150898800Y-94324827D01*
X150898800Y-93827000D01*
X150123800Y-93827000D01*
X150123800Y-94777000D01*
X149623800Y-94777000D01*
X149623800Y-93327000D01*
X150123800Y-93327000D01*
X150898800Y-93327000D01*
X150898800Y-92829172D01*
X150898799Y-92829155D01*
X150892398Y-92769627D01*
X150892396Y-92769620D01*
X150842154Y-92634913D01*
X150842150Y-92634906D01*
X150755990Y-92519812D01*
X150755987Y-92519809D01*
X150640893Y-92433649D01*
X150640886Y-92433645D01*
X150506179Y-92383403D01*
X150506172Y-92383401D01*
X150446644Y-92377000D01*
X150123800Y-92377000D01*
X150123800Y-93327000D01*
X149623800Y-93327000D01*
X149623800Y-92377000D01*
X149300955Y-92377000D01*
X149241427Y-92383401D01*
X149241420Y-92383403D01*
X149106713Y-92433645D01*
X149106706Y-92433649D01*
X148991612Y-92519809D01*
X148922566Y-92612042D01*
X148866632Y-92653912D01*
X148796940Y-92658896D01*
X148735617Y-92625410D01*
X148702133Y-92564086D01*
X148699300Y-92537730D01*
X148699300Y-91897566D01*
X148715914Y-91835564D01*
X148725287Y-91819330D01*
X148725288Y-91819327D01*
X148751900Y-91720010D01*
X148751900Y-91617190D01*
X148725288Y-91517872D01*
X148688146Y-91453540D01*
X148673880Y-91428830D01*
X148673876Y-91428825D01*
X148601174Y-91356123D01*
X148601169Y-91356119D01*
X148512130Y-91304713D01*
X148512129Y-91304712D01*
X148512128Y-91304712D01*
X148412810Y-91278100D01*
X148309990Y-91278100D01*
X148210672Y-91304712D01*
X148210669Y-91304713D01*
X148121630Y-91356119D01*
X148121625Y-91356123D01*
X148048923Y-91428825D01*
X148048919Y-91428830D01*
X147997513Y-91517869D01*
X147997512Y-91517872D01*
X147970900Y-91617190D01*
X147970900Y-91720010D01*
X147997283Y-91818471D01*
X147997512Y-91819327D01*
X147997513Y-91819330D01*
X148048919Y-91908369D01*
X148048923Y-91908374D01*
X148111981Y-91971432D01*
X148145466Y-92032755D01*
X148148300Y-92059113D01*
X148148300Y-92552500D01*
X148128615Y-92619539D01*
X148075811Y-92665294D01*
X148024300Y-92676500D01*
X147879047Y-92676500D01*
X147820570Y-92688131D01*
X147820569Y-92688132D01*
X147754247Y-92732447D01*
X147709932Y-92798769D01*
X147709931Y-92798770D01*
X147698300Y-92857247D01*
X147698300Y-94296752D01*
X147709931Y-94355229D01*
X147709932Y-94355230D01*
X147754247Y-94421552D01*
X147820569Y-94465867D01*
X147820570Y-94465868D01*
X147879047Y-94477499D01*
X147879050Y-94477500D01*
X147879052Y-94477500D01*
X147899300Y-94477500D01*
X147966339Y-94497185D01*
X148012094Y-94549989D01*
X148023300Y-94601500D01*
X148023300Y-96152500D01*
X148003615Y-96219539D01*
X147950811Y-96265294D01*
X147899300Y-96276500D01*
X147879047Y-96276500D01*
X147820570Y-96288131D01*
X147820569Y-96288132D01*
X147754247Y-96332447D01*
X147709932Y-96398769D01*
X147709931Y-96398770D01*
X147698300Y-96457247D01*
X147698300Y-97669124D01*
X147678615Y-97736163D01*
X147625811Y-97781918D01*
X147556653Y-97791862D01*
X147493097Y-97762837D01*
X147486619Y-97756805D01*
X147474916Y-97745102D01*
X147474914Y-97745100D01*
X147417850Y-97712154D01*
X147360787Y-97679208D01*
X147297139Y-97662154D01*
X147233492Y-97645100D01*
X147101708Y-97645100D01*
X146974412Y-97679208D01*
X146860286Y-97745100D01*
X146860283Y-97745102D01*
X146767102Y-97838283D01*
X146767100Y-97838286D01*
X146701208Y-97952412D01*
X146667692Y-98077500D01*
X146667100Y-98079708D01*
X146667100Y-98211492D01*
X146670540Y-98224329D01*
X146701208Y-98338787D01*
X146722710Y-98376029D01*
X146767100Y-98452914D01*
X146860286Y-98546100D01*
X146974414Y-98611992D01*
X146980965Y-98615774D01*
X147029181Y-98666341D01*
X147042404Y-98734948D01*
X147016436Y-98799813D01*
X147010826Y-98806134D01*
X147007735Y-98809754D01*
X147007732Y-98809757D01*
X146970366Y-98861187D01*
X146892832Y-98967902D01*
X146804085Y-99142075D01*
X146804084Y-99142078D01*
X146743680Y-99327986D01*
X146739131Y-99356708D01*
X146713100Y-99521060D01*
X146713100Y-99716540D01*
X146715460Y-99731441D01*
X146743680Y-99909613D01*
X146804084Y-100095521D01*
X146804085Y-100095524D01*
X146881067Y-100246607D01*
X146892832Y-100269697D01*
X147007732Y-100427843D01*
X147145957Y-100566068D01*
X147304103Y-100680968D01*
X147362192Y-100710566D01*
X147478275Y-100769714D01*
X147478278Y-100769715D01*
X147532616Y-100787370D01*
X147664188Y-100830120D01*
X147857260Y-100860700D01*
X147857261Y-100860700D01*
X148052739Y-100860700D01*
X148052740Y-100860700D01*
X148245812Y-100830120D01*
X148431724Y-100769714D01*
X148605897Y-100680968D01*
X148764043Y-100566068D01*
X148764057Y-100566053D01*
X148767747Y-100562904D01*
X148768481Y-100563763D01*
X148825093Y-100532840D01*
X148894785Y-100537813D01*
X148950725Y-100579676D01*
X148975153Y-100645137D01*
X148960312Y-100713412D01*
X148942763Y-100737917D01*
X148764538Y-100931812D01*
X148759759Y-100936730D01*
X148260546Y-101422913D01*
X148255504Y-101427559D01*
X147730388Y-101885227D01*
X147725098Y-101889586D01*
X147175502Y-102317535D01*
X147169989Y-102321588D01*
X147091951Y-102375707D01*
X146597323Y-102718726D01*
X146591595Y-102722468D01*
X145996735Y-103088126D01*
X145991066Y-103091408D01*
X145427140Y-103398256D01*
X145422828Y-103400494D01*
X145110398Y-103554951D01*
X145107291Y-103556434D01*
X144789507Y-103702705D01*
X144786360Y-103704101D01*
X144463965Y-103841781D01*
X144460780Y-103843089D01*
X144135585Y-103971410D01*
X144132364Y-103972629D01*
X143803126Y-104092090D01*
X143799873Y-104093220D01*
X143468161Y-104203254D01*
X143464879Y-104204292D01*
X143129607Y-104305267D01*
X143126298Y-104306214D01*
X142788990Y-104397672D01*
X142785656Y-104398526D01*
X142445396Y-104480720D01*
X142442042Y-104481481D01*
X142100126Y-104554101D01*
X142096753Y-104554769D01*
X141752524Y-104617959D01*
X141749135Y-104618533D01*
X141403634Y-104672105D01*
X141400232Y-104672584D01*
X141053115Y-104716597D01*
X141049701Y-104716982D01*
X140701755Y-104751338D01*
X140698334Y-104751628D01*
X140349385Y-104776351D01*
X140345958Y-104776546D01*
X139999588Y-104791465D01*
X139994443Y-104791580D01*
X139292337Y-104792662D01*
X139285480Y-104792483D01*
X138587721Y-104754916D01*
X138580885Y-104754358D01*
X137886688Y-104678319D01*
X137879898Y-104677384D01*
X137191469Y-104563170D01*
X137184745Y-104561862D01*
X136504225Y-104409889D01*
X136497577Y-104408210D01*
X135826896Y-104218964D01*
X135820351Y-104216920D01*
X135161454Y-103990995D01*
X135155034Y-103988594D01*
X134509623Y-103726602D01*
X134503350Y-103723851D01*
X133873078Y-103426472D01*
X133866972Y-103423383D01*
X133298637Y-103115815D01*
X133252883Y-103091054D01*
X133247207Y-103087785D01*
X133124670Y-103012847D01*
X137591900Y-103012847D01*
X137591900Y-103902352D01*
X137603531Y-103960829D01*
X137603532Y-103960830D01*
X137647847Y-104027152D01*
X137714169Y-104071467D01*
X137714170Y-104071468D01*
X137772647Y-104083099D01*
X137772650Y-104083100D01*
X138646089Y-104083100D01*
X138713128Y-104102785D01*
X138758883Y-104155589D01*
X138768827Y-104224747D01*
X138760231Y-104243567D01*
X138762450Y-104266100D01*
X138779249Y-104277325D01*
X138779255Y-104277328D01*
X138947582Y-104347051D01*
X138947594Y-104347054D01*
X139126290Y-104382599D01*
X139126294Y-104382600D01*
X139308506Y-104382600D01*
X139308509Y-104382599D01*
X139487205Y-104347054D01*
X139487213Y-104347052D01*
X139655551Y-104277324D01*
X139655554Y-104277323D01*
X139672347Y-104266100D01*
X139672348Y-104266100D01*
X139217401Y-103811153D01*
X139217400Y-103811153D01*
X139054581Y-103973971D01*
X138993258Y-104007456D01*
X138923566Y-104002472D01*
X138867633Y-103960600D01*
X138843216Y-103895136D01*
X138842900Y-103886290D01*
X138842900Y-103529908D01*
X138844641Y-103509202D01*
X138857510Y-103433216D01*
X138845733Y-103411647D01*
X138845327Y-103407872D01*
X138967400Y-103407872D01*
X138967400Y-103507328D01*
X139005460Y-103599214D01*
X139075786Y-103669540D01*
X139167672Y-103707600D01*
X139267128Y-103707600D01*
X139359014Y-103669540D01*
X139429340Y-103599214D01*
X139467400Y-103507328D01*
X139467400Y-103457599D01*
X139570953Y-103457599D01*
X139570953Y-103457601D01*
X140025900Y-103912548D01*
X140025900Y-103912547D01*
X140037123Y-103895754D01*
X140037124Y-103895751D01*
X140106852Y-103727413D01*
X140106854Y-103727405D01*
X140142399Y-103548709D01*
X140142400Y-103548706D01*
X140142400Y-103366494D01*
X140142399Y-103366490D01*
X140106854Y-103187794D01*
X140106851Y-103187782D01*
X140037128Y-103019455D01*
X140037125Y-103019449D01*
X140025900Y-103002650D01*
X139570953Y-103457599D01*
X139467400Y-103457599D01*
X139467400Y-103407872D01*
X139429340Y-103315986D01*
X139359014Y-103245660D01*
X139267128Y-103207600D01*
X139167672Y-103207600D01*
X139075786Y-103245660D01*
X139005460Y-103315986D01*
X138967400Y-103407872D01*
X138845327Y-103407872D01*
X138842900Y-103385292D01*
X138842900Y-103028908D01*
X138862585Y-102961869D01*
X138915389Y-102916114D01*
X138984547Y-102906170D01*
X139048103Y-102935195D01*
X139054581Y-102941227D01*
X139217400Y-103104046D01*
X139217401Y-103104046D01*
X139672347Y-102649098D01*
X139655545Y-102637871D01*
X139487217Y-102568148D01*
X139487205Y-102568145D01*
X139308509Y-102532600D01*
X139126290Y-102532600D01*
X138947594Y-102568145D01*
X138947586Y-102568147D01*
X138779248Y-102637874D01*
X138762450Y-102649098D01*
X138760461Y-102669298D01*
X138767256Y-102681742D01*
X138762272Y-102751434D01*
X138720400Y-102807367D01*
X138654936Y-102831784D01*
X138646090Y-102832100D01*
X137772647Y-102832100D01*
X137714170Y-102843731D01*
X137714169Y-102843732D01*
X137647847Y-102888047D01*
X137603532Y-102954369D01*
X137603531Y-102954370D01*
X137591900Y-103012847D01*
X133124670Y-103012847D01*
X132699515Y-102752841D01*
X132695420Y-102750225D01*
X132405426Y-102556871D01*
X132402589Y-102554922D01*
X132117036Y-102352859D01*
X132114254Y-102350832D01*
X131833826Y-102140475D01*
X131831100Y-102138370D01*
X131557403Y-101920926D01*
X131554737Y-101918747D01*
X131286597Y-101693296D01*
X131283992Y-101691043D01*
X131022870Y-101458813D01*
X131020330Y-101456490D01*
X130946419Y-101386988D01*
X130765239Y-101216616D01*
X130762794Y-101214252D01*
X130560207Y-101012867D01*
X130514877Y-100967806D01*
X130512476Y-100965351D01*
X130271215Y-100711829D01*
X130268878Y-100709305D01*
X130195461Y-100627741D01*
X130034993Y-100449466D01*
X130032741Y-100446894D01*
X129805873Y-100180346D01*
X129803723Y-100177746D01*
X129584573Y-99905313D01*
X129582457Y-99902607D01*
X129370765Y-99623979D01*
X129368725Y-99621215D01*
X129165014Y-99337084D01*
X129163052Y-99334266D01*
X128967165Y-99044427D01*
X128965283Y-99041557D01*
X128779173Y-98749047D01*
X128776501Y-98744648D01*
X128424507Y-98137140D01*
X128421233Y-98131112D01*
X128104883Y-97508044D01*
X128101949Y-97501846D01*
X127946349Y-97148203D01*
X127820706Y-96862645D01*
X127818124Y-96856306D01*
X127794868Y-96794368D01*
X127781554Y-96758908D01*
X129547500Y-96758908D01*
X129547500Y-96890692D01*
X129548042Y-96892713D01*
X129581608Y-97017987D01*
X129601088Y-97051727D01*
X129647500Y-97132114D01*
X129647502Y-97132116D01*
X129711181Y-97195795D01*
X129744666Y-97257118D01*
X129747500Y-97283476D01*
X129747500Y-98388362D01*
X129747966Y-98390100D01*
X129767979Y-98464790D01*
X129767980Y-98464791D01*
X129769903Y-98468122D01*
X129796818Y-98514740D01*
X129807540Y-98533311D01*
X129807542Y-98533313D01*
X130187502Y-98913273D01*
X130220987Y-98974596D01*
X130216003Y-99044288D01*
X130210306Y-99057247D01*
X130167090Y-99142064D01*
X130167084Y-99142078D01*
X130106680Y-99327986D01*
X130102131Y-99356708D01*
X130076100Y-99521060D01*
X130076100Y-99716540D01*
X130078460Y-99731441D01*
X130106680Y-99909613D01*
X130167084Y-100095521D01*
X130167085Y-100095524D01*
X130244067Y-100246607D01*
X130255832Y-100269697D01*
X130370732Y-100427843D01*
X130508957Y-100566068D01*
X130667103Y-100680968D01*
X130725192Y-100710566D01*
X130841275Y-100769714D01*
X130841278Y-100769715D01*
X130895616Y-100787370D01*
X131027188Y-100830120D01*
X131220260Y-100860700D01*
X131220261Y-100860700D01*
X131415739Y-100860700D01*
X131415740Y-100860700D01*
X131608812Y-100830120D01*
X131794724Y-100769714D01*
X131968897Y-100680968D01*
X132127043Y-100566068D01*
X132265268Y-100427843D01*
X132380168Y-100269697D01*
X132468914Y-100095524D01*
X132529320Y-99909612D01*
X132548831Y-99786424D01*
X132578760Y-99723290D01*
X132638072Y-99686359D01*
X132703394Y-99686048D01*
X132739790Y-99695800D01*
X132739793Y-99695800D01*
X132842608Y-99695800D01*
X132842610Y-99695800D01*
X132941928Y-99669188D01*
X133030973Y-99617778D01*
X133103678Y-99545073D01*
X133155088Y-99456028D01*
X133181700Y-99356710D01*
X133181700Y-99253890D01*
X133155088Y-99154572D01*
X133103678Y-99065527D01*
X133030973Y-98992822D01*
X133030972Y-98992821D01*
X133030969Y-98992819D01*
X132941930Y-98941413D01*
X132941929Y-98941412D01*
X132941928Y-98941412D01*
X132842610Y-98914800D01*
X132739790Y-98914800D01*
X132640472Y-98941412D01*
X132640469Y-98941413D01*
X132544389Y-98996885D01*
X132543280Y-98994964D01*
X132488898Y-99015982D01*
X132420455Y-99001937D01*
X132378274Y-98965296D01*
X132320032Y-98885133D01*
X132265268Y-98809757D01*
X132127043Y-98671532D01*
X131968897Y-98556632D01*
X131937878Y-98540827D01*
X131794724Y-98467885D01*
X131794721Y-98467884D01*
X131608813Y-98407480D01*
X131488107Y-98388362D01*
X131415740Y-98376900D01*
X131220260Y-98376900D01*
X131172112Y-98384526D01*
X131027186Y-98407480D01*
X130841278Y-98467884D01*
X130841264Y-98467890D01*
X130756447Y-98511106D01*
X130687778Y-98524002D01*
X130623038Y-98497725D01*
X130612473Y-98488302D01*
X130384819Y-98260648D01*
X130351334Y-98199325D01*
X130348500Y-98172967D01*
X130348500Y-97283476D01*
X130368185Y-97216437D01*
X130384819Y-97195795D01*
X130448500Y-97132114D01*
X130514392Y-97017986D01*
X130548500Y-96890692D01*
X130548500Y-96758908D01*
X130514392Y-96631614D01*
X130448500Y-96517486D01*
X130355314Y-96424300D01*
X130296393Y-96390282D01*
X130241187Y-96358408D01*
X130140509Y-96331432D01*
X130113892Y-96324300D01*
X129982108Y-96324300D01*
X129854812Y-96358408D01*
X129740686Y-96424300D01*
X129740683Y-96424302D01*
X129647502Y-96517483D01*
X129647500Y-96517486D01*
X129581608Y-96631612D01*
X129552955Y-96738549D01*
X129547500Y-96758908D01*
X127781554Y-96758908D01*
X127572814Y-96202979D01*
X127570583Y-96196495D01*
X127449196Y-95809417D01*
X127361947Y-95531198D01*
X127360077Y-95524604D01*
X127354097Y-95501044D01*
X127188618Y-94849122D01*
X127187120Y-94842446D01*
X127187046Y-94842066D01*
X127132098Y-94561318D01*
X127138539Y-94491749D01*
X127181572Y-94436704D01*
X127247532Y-94413662D01*
X127315480Y-94429939D01*
X127356891Y-94468613D01*
X127400259Y-94533517D01*
X127400262Y-94533521D01*
X127547065Y-94680324D01*
X127547069Y-94680327D01*
X127719692Y-94795671D01*
X127719702Y-94795676D01*
X127911513Y-94875127D01*
X127911521Y-94875129D01*
X128115140Y-94915631D01*
X128115144Y-94915632D01*
X128568955Y-94915632D01*
X128568955Y-94161632D01*
X129068955Y-94161632D01*
X129068955Y-94915632D01*
X129522766Y-94915632D01*
X129522769Y-94915631D01*
X129726388Y-94875129D01*
X129726396Y-94875127D01*
X129918207Y-94795676D01*
X129918217Y-94795671D01*
X130090840Y-94680327D01*
X130090844Y-94680324D01*
X130237647Y-94533521D01*
X130237650Y-94533517D01*
X130352994Y-94360894D01*
X130352999Y-94360884D01*
X130432450Y-94169073D01*
X130440192Y-94130153D01*
X130444903Y-94121146D01*
X130445628Y-94111009D01*
X130460823Y-94090710D01*
X130472577Y-94068241D01*
X130481410Y-94063211D01*
X130487500Y-94055076D01*
X130511255Y-94046215D01*
X130533292Y-94033667D01*
X130543441Y-94034210D01*
X130552964Y-94030659D01*
X130577741Y-94036049D01*
X130603062Y-94037406D01*
X130613123Y-94043746D01*
X130621237Y-94045511D01*
X130649491Y-94066662D01*
X130701781Y-94118952D01*
X130735266Y-94180275D01*
X130738100Y-94206633D01*
X130738100Y-95162562D01*
X130746144Y-95192581D01*
X130758579Y-95238991D01*
X130758581Y-95238994D01*
X130783816Y-95282701D01*
X130783816Y-95282704D01*
X130783818Y-95282704D01*
X130798140Y-95307511D01*
X135730889Y-100240260D01*
X135799412Y-100279822D01*
X135875838Y-100300300D01*
X135954962Y-100300300D01*
X136066324Y-100300300D01*
X136133363Y-100319985D01*
X136154005Y-100336619D01*
X136217686Y-100400300D01*
X136331814Y-100466192D01*
X136459108Y-100500300D01*
X136459110Y-100500300D01*
X136590890Y-100500300D01*
X136590892Y-100500300D01*
X136718186Y-100466192D01*
X136832314Y-100400300D01*
X136925500Y-100307114D01*
X136971298Y-100227790D01*
X137531500Y-100227790D01*
X137531500Y-100330610D01*
X137557554Y-100427843D01*
X137558112Y-100429927D01*
X137558113Y-100429930D01*
X137609519Y-100518969D01*
X137609521Y-100518972D01*
X137609522Y-100518973D01*
X137682227Y-100591678D01*
X137682228Y-100591679D01*
X137682230Y-100591680D01*
X137698172Y-100600884D01*
X137771272Y-100643088D01*
X137870590Y-100669700D01*
X137870592Y-100669700D01*
X137973408Y-100669700D01*
X137973410Y-100669700D01*
X138072728Y-100643088D01*
X138161773Y-100591678D01*
X138234478Y-100518973D01*
X138285888Y-100429928D01*
X138312500Y-100330610D01*
X138312500Y-100227790D01*
X138285888Y-100128472D01*
X138249642Y-100065692D01*
X138234480Y-100039430D01*
X138234476Y-100039425D01*
X138161774Y-99966723D01*
X138161769Y-99966719D01*
X138072730Y-99915313D01*
X138072729Y-99915312D01*
X138072728Y-99915312D01*
X137973410Y-99888700D01*
X137870590Y-99888700D01*
X137771272Y-99915312D01*
X137771269Y-99915313D01*
X137682230Y-99966719D01*
X137682225Y-99966723D01*
X137609523Y-100039425D01*
X137609519Y-100039430D01*
X137558113Y-100128469D01*
X137558112Y-100128472D01*
X137531500Y-100227790D01*
X136971298Y-100227790D01*
X136991392Y-100192986D01*
X137025500Y-100065692D01*
X137025500Y-99933908D01*
X136991392Y-99806614D01*
X136979736Y-99786425D01*
X136959862Y-99752002D01*
X136959861Y-99752001D01*
X136951445Y-99737424D01*
X136926878Y-99694872D01*
X140941400Y-99694872D01*
X140941400Y-99871525D01*
X140969035Y-100046005D01*
X141023625Y-100214017D01*
X141103821Y-100371409D01*
X141111443Y-100381900D01*
X141695400Y-99797944D01*
X141695400Y-99831687D01*
X141720499Y-99925357D01*
X141768987Y-100009340D01*
X141837559Y-100077912D01*
X141921542Y-100126400D01*
X142015212Y-100151499D01*
X142048954Y-100151499D01*
X141599567Y-100600884D01*
X141580779Y-100616304D01*
X141539198Y-100644088D01*
X141424588Y-100758697D01*
X141334542Y-100893460D01*
X141334541Y-100893462D01*
X141272521Y-101043193D01*
X141272518Y-101043203D01*
X141240900Y-101202158D01*
X141240900Y-101202161D01*
X141240900Y-101364239D01*
X141240900Y-101364241D01*
X141240899Y-101364241D01*
X141272518Y-101523196D01*
X141272521Y-101523206D01*
X141334541Y-101672937D01*
X141334542Y-101672939D01*
X141424589Y-101807703D01*
X141424592Y-101807707D01*
X141539192Y-101922307D01*
X141539196Y-101922310D01*
X141673958Y-102012356D01*
X141673959Y-102012356D01*
X141673960Y-102012357D01*
X141673962Y-102012358D01*
X141823693Y-102074378D01*
X141823698Y-102074380D01*
X141823702Y-102074380D01*
X141823703Y-102074381D01*
X141982658Y-102106000D01*
X141982661Y-102106000D01*
X142144741Y-102106000D01*
X142251683Y-102084727D01*
X142303702Y-102074380D01*
X142453442Y-102012356D01*
X142588204Y-101922310D01*
X142702810Y-101807704D01*
X142792856Y-101672942D01*
X142854880Y-101523202D01*
X142881975Y-101386988D01*
X142886500Y-101364241D01*
X142886500Y-101202158D01*
X142854881Y-101043203D01*
X142854880Y-101043202D01*
X142854880Y-101043198D01*
X142796490Y-100902231D01*
X142792858Y-100893462D01*
X142792857Y-100893460D01*
X142779483Y-100873445D01*
X142702810Y-100758696D01*
X142702807Y-100758692D01*
X142588207Y-100644092D01*
X142588203Y-100644089D01*
X142546620Y-100616304D01*
X142527830Y-100600883D01*
X142078447Y-100151499D01*
X142112188Y-100151499D01*
X142205858Y-100126400D01*
X142289841Y-100077912D01*
X142358413Y-100009340D01*
X142406901Y-99925357D01*
X142432000Y-99831687D01*
X142432000Y-99797945D01*
X143015955Y-100381900D01*
X143015956Y-100381900D01*
X143023576Y-100371412D01*
X143103774Y-100214017D01*
X143148569Y-100076154D01*
X143188007Y-100018479D01*
X143252365Y-99991281D01*
X143321212Y-100003196D01*
X143372688Y-100050440D01*
X143390500Y-100114473D01*
X143390500Y-100843752D01*
X143402131Y-100902229D01*
X143402132Y-100902230D01*
X143446447Y-100968552D01*
X143512769Y-101012867D01*
X143512770Y-101012868D01*
X143571247Y-101024499D01*
X143571250Y-101024500D01*
X143571252Y-101024500D01*
X144210748Y-101024500D01*
X144242308Y-101018222D01*
X144311898Y-101024448D01*
X144367076Y-101067310D01*
X144390322Y-101133199D01*
X144390500Y-101139839D01*
X144390500Y-102593752D01*
X144402131Y-102652229D01*
X144402132Y-102652230D01*
X144446447Y-102718552D01*
X144512769Y-102762867D01*
X144512770Y-102762868D01*
X144571247Y-102774499D01*
X144571250Y-102774500D01*
X144571252Y-102774500D01*
X145210750Y-102774500D01*
X145210751Y-102774499D01*
X145225568Y-102771552D01*
X145269229Y-102762868D01*
X145269229Y-102762867D01*
X145269231Y-102762867D01*
X145335552Y-102718552D01*
X145379867Y-102652231D01*
X145379867Y-102652229D01*
X145379868Y-102652229D01*
X145391499Y-102593752D01*
X145391500Y-102593750D01*
X145391500Y-100804249D01*
X145391499Y-100804247D01*
X145379868Y-100745770D01*
X145379867Y-100745769D01*
X145335552Y-100679447D01*
X145269228Y-100635131D01*
X145268043Y-100634640D01*
X145265857Y-100632878D01*
X145259077Y-100628348D01*
X145259482Y-100627741D01*
X145213641Y-100590797D01*
X145191579Y-100524502D01*
X145191500Y-100520081D01*
X145191500Y-99988433D01*
X145211185Y-99921394D01*
X145227819Y-99900752D01*
X145571513Y-99557058D01*
X145927778Y-99200792D01*
X145983361Y-99168701D01*
X146073728Y-99144488D01*
X146162773Y-99093078D01*
X146235478Y-99020373D01*
X146286888Y-98931328D01*
X146313500Y-98832010D01*
X146313500Y-98729190D01*
X146286888Y-98629872D01*
X146238523Y-98546101D01*
X146235480Y-98540830D01*
X146235476Y-98540825D01*
X146162774Y-98468123D01*
X146162769Y-98468119D01*
X146073730Y-98416713D01*
X146073729Y-98416712D01*
X146073728Y-98416712D01*
X145974410Y-98390100D01*
X145871590Y-98390100D01*
X145772272Y-98416712D01*
X145772269Y-98416713D01*
X145683230Y-98468119D01*
X145683225Y-98468123D01*
X145610523Y-98540825D01*
X145610519Y-98540830D01*
X145559113Y-98629869D01*
X145559112Y-98629870D01*
X145534899Y-98720236D01*
X145502805Y-98775823D01*
X144711411Y-99567217D01*
X144711407Y-99567221D01*
X144706489Y-99572140D01*
X144650540Y-99628089D01*
X144618240Y-99684034D01*
X144612442Y-99691304D01*
X144591145Y-99706249D01*
X144572320Y-99724200D01*
X144563012Y-99725994D01*
X144555251Y-99731441D01*
X144529257Y-99732500D01*
X144503713Y-99737424D01*
X144494910Y-99733900D01*
X144485439Y-99734286D01*
X144463002Y-99721126D01*
X144438848Y-99711456D01*
X144433347Y-99703732D01*
X144425171Y-99698936D01*
X144413411Y-99675734D01*
X144398320Y-99654542D01*
X144396160Y-99641700D01*
X144393583Y-99636615D01*
X144394234Y-99630249D01*
X144391500Y-99613985D01*
X144391500Y-99054249D01*
X144391499Y-99054247D01*
X144379868Y-98995770D01*
X144379867Y-98995769D01*
X144335551Y-98929446D01*
X144326917Y-98920812D01*
X144329571Y-98918157D01*
X144314614Y-98906961D01*
X144309505Y-98893265D01*
X144300142Y-98882041D01*
X144297541Y-98861187D01*
X144290197Y-98841497D01*
X144293304Y-98827213D01*
X144291495Y-98812708D01*
X144300582Y-98793758D01*
X144305049Y-98773224D01*
X144320016Y-98753229D01*
X144321706Y-98749707D01*
X144326181Y-98744989D01*
X144441878Y-98629292D01*
X144497461Y-98597201D01*
X144587828Y-98572988D01*
X144676873Y-98521578D01*
X144749578Y-98448873D01*
X144800988Y-98359828D01*
X144827600Y-98260510D01*
X144827600Y-98157690D01*
X144800988Y-98058372D01*
X144749578Y-97969327D01*
X144676873Y-97896622D01*
X144676872Y-97896621D01*
X144676869Y-97896619D01*
X144587830Y-97845213D01*
X144587829Y-97845212D01*
X144587828Y-97845212D01*
X144488510Y-97818600D01*
X144385690Y-97818600D01*
X144286372Y-97845212D01*
X144286369Y-97845213D01*
X144197330Y-97896619D01*
X144197325Y-97896623D01*
X144124623Y-97969325D01*
X144124619Y-97969330D01*
X144073213Y-98058369D01*
X144073212Y-98058370D01*
X144048999Y-98148736D01*
X144016905Y-98204323D01*
X143706489Y-98514740D01*
X143650541Y-98570687D01*
X143650535Y-98570695D01*
X143610982Y-98639204D01*
X143610979Y-98639209D01*
X143603709Y-98666341D01*
X143592390Y-98708587D01*
X143590500Y-98715639D01*
X143590500Y-98770081D01*
X143570815Y-98837120D01*
X143518011Y-98882875D01*
X143513957Y-98884640D01*
X143512771Y-98885131D01*
X143446447Y-98929447D01*
X143402132Y-98995769D01*
X143402131Y-98995770D01*
X143390500Y-99054247D01*
X143390500Y-99451924D01*
X143370815Y-99518963D01*
X143318011Y-99564718D01*
X143248853Y-99574662D01*
X143185297Y-99545637D01*
X143148569Y-99490243D01*
X143103774Y-99352380D01*
X143023575Y-99194983D01*
X143015955Y-99184496D01*
X143015955Y-99184495D01*
X142432000Y-99768451D01*
X142432000Y-99734711D01*
X142406901Y-99641041D01*
X142358413Y-99557058D01*
X142289841Y-99488486D01*
X142205858Y-99439998D01*
X142112188Y-99414899D01*
X142078447Y-99414899D01*
X142662401Y-98830942D01*
X142662401Y-98830941D01*
X142651910Y-98823320D01*
X142494518Y-98743124D01*
X142326506Y-98688534D01*
X142152026Y-98660899D01*
X141975374Y-98660899D01*
X141800893Y-98688534D01*
X141632881Y-98743124D01*
X141475484Y-98823324D01*
X141464997Y-98830942D01*
X142048954Y-99414899D01*
X142015212Y-99414899D01*
X141921542Y-99439998D01*
X141837559Y-99488486D01*
X141768987Y-99557058D01*
X141720499Y-99641041D01*
X141695400Y-99734711D01*
X141695400Y-99768453D01*
X141111443Y-99184496D01*
X141103825Y-99194983D01*
X141023625Y-99352380D01*
X140969035Y-99520392D01*
X140941400Y-99694872D01*
X136926878Y-99694872D01*
X136925500Y-99692486D01*
X136832314Y-99599300D01*
X136759149Y-99557058D01*
X136718187Y-99533408D01*
X136654539Y-99516354D01*
X136590892Y-99499300D01*
X136459108Y-99499300D01*
X136331812Y-99533408D01*
X136217686Y-99599300D01*
X136217682Y-99599303D01*
X136166458Y-99650527D01*
X136105135Y-99684011D01*
X136035443Y-99679026D01*
X135991097Y-99650526D01*
X133545761Y-97205190D01*
X134280300Y-97205190D01*
X134280300Y-97308010D01*
X134301626Y-97387598D01*
X134306912Y-97407327D01*
X134306913Y-97407330D01*
X134358319Y-97496369D01*
X134358321Y-97496372D01*
X134358322Y-97496373D01*
X134431027Y-97569078D01*
X134431028Y-97569079D01*
X134431030Y-97569080D01*
X134447263Y-97578452D01*
X134520072Y-97620488D01*
X134619390Y-97647100D01*
X134619392Y-97647100D01*
X134722208Y-97647100D01*
X134722210Y-97647100D01*
X134821528Y-97620488D01*
X134910573Y-97569078D01*
X134983278Y-97496373D01*
X135034688Y-97407328D01*
X135061300Y-97308010D01*
X135061300Y-97205190D01*
X135034688Y-97105872D01*
X135003428Y-97051728D01*
X134983280Y-97016830D01*
X134983276Y-97016825D01*
X134910574Y-96944123D01*
X134910569Y-96944119D01*
X134821530Y-96892713D01*
X134821529Y-96892712D01*
X134821528Y-96892712D01*
X134722210Y-96866100D01*
X134619390Y-96866100D01*
X134520072Y-96892712D01*
X134520069Y-96892713D01*
X134431030Y-96944119D01*
X134431025Y-96944123D01*
X134358323Y-97016825D01*
X134358319Y-97016830D01*
X134306913Y-97105869D01*
X134306912Y-97105872D01*
X134280300Y-97205190D01*
X133545761Y-97205190D01*
X132382152Y-96041581D01*
X132348667Y-95980258D01*
X132353651Y-95910566D01*
X132395523Y-95854633D01*
X132460987Y-95830216D01*
X132469833Y-95829900D01*
X134405560Y-95829900D01*
X134405562Y-95829900D01*
X134481989Y-95809421D01*
X134550511Y-95769860D01*
X134606460Y-95713911D01*
X134708152Y-95612219D01*
X134769475Y-95578734D01*
X134795833Y-95575900D01*
X137663827Y-95575900D01*
X137730866Y-95595585D01*
X137776621Y-95648389D01*
X137786565Y-95717547D01*
X137766929Y-95768791D01*
X137733132Y-95819370D01*
X137733131Y-95819371D01*
X137721500Y-95877848D01*
X137721500Y-96272953D01*
X137733131Y-96331430D01*
X137733132Y-96331431D01*
X137782246Y-96404935D01*
X137803124Y-96471613D01*
X137784640Y-96538993D01*
X137741738Y-96580868D01*
X137727340Y-96589286D01*
X137704613Y-96595377D01*
X137636090Y-96634939D01*
X137617527Y-96653501D01*
X137603733Y-96661568D01*
X137584701Y-96666296D01*
X137567488Y-96675694D01*
X137551490Y-96674548D01*
X137535925Y-96678416D01*
X137517357Y-96672104D01*
X137497797Y-96670704D01*
X137480464Y-96659564D01*
X137469773Y-96655930D01*
X137464504Y-96649306D01*
X137453458Y-96642207D01*
X137399774Y-96588523D01*
X137399769Y-96588519D01*
X137310730Y-96537113D01*
X137310729Y-96537112D01*
X137310728Y-96537112D01*
X137211410Y-96510500D01*
X137108590Y-96510500D01*
X137009272Y-96537112D01*
X137009269Y-96537113D01*
X136920230Y-96588519D01*
X136920225Y-96588523D01*
X136847523Y-96661225D01*
X136847519Y-96661230D01*
X136796113Y-96750269D01*
X136796112Y-96750272D01*
X136769500Y-96849590D01*
X136769500Y-96952410D01*
X136795489Y-97049401D01*
X136796112Y-97051727D01*
X136796114Y-97051732D01*
X136812608Y-97080302D01*
X136829079Y-97148203D01*
X136812608Y-97204298D01*
X136796114Y-97232867D01*
X136796112Y-97232872D01*
X136769500Y-97332190D01*
X136769500Y-97435010D01*
X136789070Y-97508044D01*
X136796112Y-97534327D01*
X136796113Y-97534330D01*
X136847519Y-97623369D01*
X136847521Y-97623372D01*
X136847522Y-97623373D01*
X136920227Y-97696078D01*
X136920228Y-97696079D01*
X136920230Y-97696080D01*
X136964749Y-97721783D01*
X137009272Y-97747488D01*
X137108590Y-97774100D01*
X137108592Y-97774100D01*
X137211408Y-97774100D01*
X137211410Y-97774100D01*
X137310728Y-97747488D01*
X137399773Y-97696078D01*
X137425937Y-97669913D01*
X137442466Y-97656041D01*
X137446913Y-97652925D01*
X137496911Y-97624060D01*
X137517481Y-97603489D01*
X137526354Y-97597274D01*
X137549605Y-97589427D01*
X137571142Y-97577667D01*
X137582123Y-97578452D01*
X137592555Y-97574932D01*
X137616355Y-97580900D01*
X137640834Y-97582651D01*
X137649648Y-97589249D01*
X137660326Y-97591927D01*
X137677122Y-97609817D01*
X137696767Y-97624523D01*
X137700614Y-97634837D01*
X137708150Y-97642864D01*
X137712608Y-97666994D01*
X137721184Y-97689987D01*
X137721500Y-97698833D01*
X137721500Y-97872952D01*
X137733131Y-97931429D01*
X137733132Y-97931430D01*
X137777447Y-97997752D01*
X137843769Y-98042067D01*
X137843770Y-98042068D01*
X137902247Y-98053699D01*
X137902250Y-98053700D01*
X137902252Y-98053700D01*
X138703750Y-98053700D01*
X138703751Y-98053699D01*
X138718568Y-98050752D01*
X138762229Y-98042068D01*
X138762229Y-98042067D01*
X138762231Y-98042067D01*
X138828552Y-97997752D01*
X138872867Y-97931431D01*
X138872867Y-97931429D01*
X138872868Y-97931429D01*
X138884499Y-97872952D01*
X138884500Y-97872950D01*
X138884500Y-97477849D01*
X138884499Y-97477847D01*
X138872868Y-97419371D01*
X138872867Y-97419369D01*
X138828552Y-97353048D01*
X138828550Y-97353047D01*
X138822700Y-97344291D01*
X138801822Y-97277613D01*
X138820306Y-97210233D01*
X138822701Y-97206507D01*
X138872867Y-97131430D01*
X138872868Y-97131428D01*
X138884499Y-97072951D01*
X138884500Y-97072948D01*
X138884500Y-96677848D01*
X138884499Y-96677846D01*
X138872868Y-96619369D01*
X138872867Y-96619367D01*
X138822702Y-96544292D01*
X138801823Y-96477615D01*
X138820307Y-96410234D01*
X138822702Y-96406508D01*
X138872867Y-96331432D01*
X138872868Y-96331430D01*
X138884499Y-96272953D01*
X138884500Y-96272951D01*
X138884500Y-95877850D01*
X138884499Y-95877848D01*
X138871818Y-95814091D01*
X138878045Y-95744499D01*
X138920909Y-95689322D01*
X138981480Y-95667954D01*
X138981350Y-95666961D01*
X138986050Y-95666342D01*
X138986799Y-95666078D01*
X138988377Y-95666035D01*
X138989401Y-95665900D01*
X138989410Y-95665900D01*
X139088728Y-95639288D01*
X139177773Y-95587878D01*
X139250478Y-95515173D01*
X139258635Y-95501044D01*
X139809600Y-95501044D01*
X139816001Y-95560572D01*
X139816003Y-95560579D01*
X139866245Y-95695286D01*
X139866249Y-95695293D01*
X139952409Y-95810387D01*
X139952412Y-95810390D01*
X140059411Y-95890490D01*
X140101282Y-95946423D01*
X140109100Y-95989756D01*
X140109100Y-96272950D01*
X140120731Y-96331427D01*
X140120732Y-96331428D01*
X140170899Y-96406507D01*
X140191777Y-96473184D01*
X140173293Y-96540564D01*
X140170899Y-96544289D01*
X140120732Y-96619368D01*
X140120731Y-96619369D01*
X140109100Y-96677846D01*
X140109100Y-97072951D01*
X140120731Y-97131428D01*
X140120732Y-97131429D01*
X140170899Y-97206508D01*
X140191777Y-97273185D01*
X140173293Y-97340565D01*
X140170899Y-97344290D01*
X140120732Y-97419369D01*
X140120731Y-97419370D01*
X140109100Y-97477847D01*
X140109100Y-97872952D01*
X140120731Y-97931429D01*
X140120732Y-97931430D01*
X140165047Y-97997752D01*
X140231369Y-98042067D01*
X140231370Y-98042068D01*
X140289847Y-98053699D01*
X140289850Y-98053700D01*
X140289852Y-98053700D01*
X141091350Y-98053700D01*
X141091351Y-98053699D01*
X141106168Y-98050752D01*
X141149829Y-98042068D01*
X141149829Y-98042067D01*
X141149831Y-98042067D01*
X141216152Y-97997752D01*
X141260467Y-97931431D01*
X141260467Y-97931429D01*
X141260468Y-97931429D01*
X141272099Y-97872952D01*
X141272100Y-97872950D01*
X141272100Y-97477849D01*
X141272099Y-97477847D01*
X141260468Y-97419371D01*
X141260467Y-97419369D01*
X141216152Y-97353048D01*
X141216150Y-97353047D01*
X141210300Y-97344291D01*
X141189422Y-97277613D01*
X141207906Y-97210233D01*
X141210301Y-97206507D01*
X141260467Y-97131430D01*
X141260468Y-97131428D01*
X141272099Y-97072951D01*
X141272100Y-97072948D01*
X141272100Y-96677848D01*
X141272099Y-96677846D01*
X141260468Y-96619370D01*
X141244436Y-96595377D01*
X141216152Y-96553047D01*
X141216150Y-96553046D01*
X141210300Y-96544290D01*
X141189422Y-96477612D01*
X141207906Y-96410232D01*
X141210301Y-96406506D01*
X141260467Y-96331429D01*
X141260468Y-96331427D01*
X141271393Y-96276500D01*
X141272100Y-96272946D01*
X141272100Y-95989756D01*
X141291785Y-95922717D01*
X141321789Y-95890490D01*
X141428787Y-95810390D01*
X141428790Y-95810387D01*
X141514950Y-95695293D01*
X141514954Y-95695286D01*
X141565196Y-95560579D01*
X141565198Y-95560572D01*
X141571599Y-95501044D01*
X141571600Y-95501027D01*
X141571600Y-95453200D01*
X139809600Y-95453200D01*
X139809600Y-95501044D01*
X139258635Y-95501044D01*
X139301888Y-95426128D01*
X139328500Y-95326810D01*
X139328500Y-95223990D01*
X139301888Y-95124672D01*
X139250478Y-95035627D01*
X139179026Y-94964175D01*
X139145541Y-94902852D01*
X139150525Y-94833160D01*
X139150526Y-94833159D01*
X139177596Y-94760582D01*
X139177598Y-94760574D01*
X139183999Y-94701046D01*
X139184000Y-94701029D01*
X139184000Y-94653202D01*
X137422000Y-94653202D01*
X137422000Y-94701046D01*
X137428401Y-94760574D01*
X137428402Y-94760578D01*
X137445928Y-94807566D01*
X137450912Y-94877258D01*
X137417428Y-94938581D01*
X137356104Y-94972066D01*
X137329746Y-94974900D01*
X136825663Y-94974900D01*
X136758624Y-94955215D01*
X136712869Y-94902411D01*
X136702925Y-94833253D01*
X136731950Y-94769697D01*
X136763663Y-94743513D01*
X136826732Y-94707100D01*
X136840973Y-94698878D01*
X136913678Y-94626173D01*
X136965088Y-94537128D01*
X136991700Y-94437810D01*
X136991700Y-94334990D01*
X136965088Y-94235672D01*
X136926620Y-94169043D01*
X136913680Y-94146630D01*
X136913676Y-94146625D01*
X136840974Y-94073923D01*
X136840969Y-94073919D01*
X136751930Y-94022513D01*
X136751929Y-94022512D01*
X136751928Y-94022512D01*
X136652610Y-93995900D01*
X136549790Y-93995900D01*
X136450472Y-94022512D01*
X136450469Y-94022513D01*
X136361430Y-94073919D01*
X136361425Y-94073923D01*
X136288723Y-94146625D01*
X136288719Y-94146630D01*
X136237313Y-94235669D01*
X136237312Y-94235672D01*
X136210700Y-94334990D01*
X136210700Y-94437810D01*
X136236345Y-94533517D01*
X136237312Y-94537127D01*
X136237313Y-94537130D01*
X136288719Y-94626169D01*
X136288721Y-94626172D01*
X136288722Y-94626173D01*
X136361427Y-94698878D01*
X136361428Y-94698879D01*
X136361430Y-94698880D01*
X136438737Y-94743513D01*
X136486952Y-94794080D01*
X136500176Y-94862687D01*
X136474208Y-94927551D01*
X136417294Y-94968080D01*
X136376737Y-94974900D01*
X135775276Y-94974900D01*
X135708237Y-94955215D01*
X135662482Y-94902411D01*
X135652538Y-94833253D01*
X135681563Y-94769697D01*
X135687595Y-94763219D01*
X135694152Y-94756662D01*
X135706300Y-94744514D01*
X135772192Y-94630386D01*
X135806300Y-94503092D01*
X135806300Y-94371308D01*
X135772192Y-94244014D01*
X135706300Y-94129886D01*
X135613114Y-94036700D01*
X135542447Y-93995900D01*
X135498987Y-93970808D01*
X135435339Y-93953754D01*
X135371692Y-93936700D01*
X135239908Y-93936700D01*
X135112612Y-93970808D01*
X134998486Y-94036700D01*
X134998483Y-94036702D01*
X134905302Y-94129883D01*
X134905300Y-94129886D01*
X134839408Y-94244012D01*
X134825278Y-94296748D01*
X134805300Y-94371308D01*
X134805300Y-94503092D01*
X134817866Y-94549989D01*
X134839408Y-94630387D01*
X134872354Y-94687450D01*
X134905300Y-94744514D01*
X134905302Y-94744516D01*
X134924005Y-94763219D01*
X134957490Y-94824542D01*
X134952506Y-94894234D01*
X134910634Y-94950167D01*
X134845170Y-94974584D01*
X134836324Y-94974900D01*
X134580438Y-94974900D01*
X134561032Y-94980100D01*
X134504008Y-94995379D01*
X134504007Y-94995380D01*
X134481743Y-95008235D01*
X134435492Y-95034937D01*
X134435487Y-95034941D01*
X134277848Y-95192581D01*
X134216525Y-95226066D01*
X134190167Y-95228900D01*
X132281233Y-95228900D01*
X132214194Y-95209215D01*
X132193552Y-95192581D01*
X132106642Y-95105671D01*
X132073157Y-95044348D01*
X132078141Y-94974656D01*
X132120013Y-94918723D01*
X132185477Y-94894306D01*
X132218514Y-94896373D01*
X132315183Y-94915601D01*
X132315187Y-94915602D01*
X132568998Y-94915602D01*
X132568998Y-94161602D01*
X133068998Y-94161602D01*
X133068998Y-94915602D01*
X133322809Y-94915602D01*
X133322812Y-94915601D01*
X133526431Y-94875099D01*
X133526439Y-94875097D01*
X133718250Y-94795646D01*
X133718260Y-94795641D01*
X133890883Y-94680297D01*
X133890887Y-94680294D01*
X134037690Y-94533491D01*
X134037693Y-94533487D01*
X134153037Y-94360864D01*
X134153042Y-94360854D01*
X134232493Y-94169043D01*
X134232495Y-94169037D01*
X134243920Y-94111602D01*
X133385986Y-94111602D01*
X133403203Y-94101662D01*
X133459058Y-94045807D01*
X133498554Y-93977398D01*
X133518998Y-93901098D01*
X133518998Y-93822106D01*
X133498554Y-93745806D01*
X133459058Y-93677397D01*
X133403203Y-93621542D01*
X133385986Y-93611602D01*
X134243920Y-93611602D01*
X134243920Y-93611601D01*
X134232495Y-93554166D01*
X134232493Y-93554160D01*
X134153042Y-93362349D01*
X134153037Y-93362339D01*
X134037693Y-93189716D01*
X134037690Y-93189712D01*
X133890887Y-93042909D01*
X133890883Y-93042906D01*
X133718260Y-92927562D01*
X133718250Y-92927557D01*
X133526439Y-92848106D01*
X133526431Y-92848104D01*
X133322812Y-92807602D01*
X133068998Y-92807602D01*
X133068998Y-93561602D01*
X132568998Y-93561602D01*
X132568998Y-92807602D01*
X132315183Y-92807602D01*
X132111564Y-92848104D01*
X132111556Y-92848106D01*
X131919745Y-92927557D01*
X131919737Y-92927561D01*
X131815638Y-92997118D01*
X131748961Y-93017995D01*
X131681581Y-92999510D01*
X131659067Y-92981696D01*
X129724419Y-91047048D01*
X129690934Y-90985725D01*
X129688100Y-90959367D01*
X129688100Y-88085233D01*
X129707785Y-88018194D01*
X129724419Y-87997552D01*
X130526068Y-87195903D01*
X131329860Y-86392111D01*
X131369422Y-86323588D01*
X131389900Y-86247162D01*
X131389900Y-86168038D01*
X131389900Y-85982444D01*
X131409585Y-85915405D01*
X131462389Y-85869650D01*
X131531547Y-85859706D01*
X131595103Y-85888731D01*
X131601581Y-85894763D01*
X131747108Y-86040290D01*
X131747112Y-86040293D01*
X131919735Y-86155637D01*
X131919745Y-86155642D01*
X132111556Y-86235093D01*
X132111564Y-86235095D01*
X132315183Y-86275597D01*
X132315187Y-86275598D01*
X132568998Y-86275598D01*
X132568998Y-85521598D01*
X133068998Y-85521598D01*
X133068998Y-86275598D01*
X133322809Y-86275598D01*
X133322812Y-86275597D01*
X133526431Y-86235095D01*
X133526439Y-86235093D01*
X133718250Y-86155642D01*
X133718260Y-86155637D01*
X133890883Y-86040293D01*
X133890887Y-86040290D01*
X134037690Y-85893487D01*
X134037693Y-85893483D01*
X134153037Y-85720860D01*
X134153041Y-85720853D01*
X134182379Y-85650023D01*
X134226220Y-85595619D01*
X134292514Y-85573553D01*
X134360213Y-85590831D01*
X134384622Y-85609793D01*
X135522540Y-86747711D01*
X135578489Y-86803660D01*
X135578491Y-86803661D01*
X135578495Y-86803664D01*
X135637043Y-86837466D01*
X135647011Y-86843221D01*
X135723438Y-86863700D01*
X135802562Y-86863700D01*
X137171055Y-86863700D01*
X137233055Y-86880313D01*
X137314072Y-86927088D01*
X137413390Y-86953700D01*
X137413392Y-86953700D01*
X137516208Y-86953700D01*
X137516210Y-86953700D01*
X137615528Y-86927088D01*
X137704573Y-86875678D01*
X137777278Y-86802973D01*
X137828688Y-86713928D01*
X137855300Y-86614610D01*
X137855300Y-86511790D01*
X137828688Y-86412472D01*
X137796635Y-86356954D01*
X137777280Y-86323430D01*
X137777276Y-86323425D01*
X137704574Y-86250723D01*
X137704569Y-86250719D01*
X137615530Y-86199313D01*
X137615529Y-86199312D01*
X137615528Y-86199312D01*
X137516210Y-86172700D01*
X137413390Y-86172700D01*
X137314072Y-86199312D01*
X137314069Y-86199313D01*
X137233055Y-86246087D01*
X137171055Y-86262700D01*
X135938833Y-86262700D01*
X135871794Y-86243015D01*
X135851152Y-86226381D01*
X135136677Y-85511906D01*
X135103192Y-85450583D01*
X135108176Y-85380891D01*
X135150048Y-85324958D01*
X135162352Y-85316841D01*
X135257514Y-85261900D01*
X135350700Y-85168714D01*
X135416592Y-85054586D01*
X135450700Y-84927292D01*
X135450700Y-84795508D01*
X135416592Y-84668214D01*
X135403519Y-84645572D01*
X135387047Y-84577673D01*
X135409899Y-84511646D01*
X135464820Y-84468455D01*
X135534373Y-84461813D01*
X135596476Y-84493828D01*
X135598588Y-84495891D01*
X135791187Y-84688490D01*
X135791189Y-84688491D01*
X135791193Y-84688494D01*
X135893911Y-84747798D01*
X135893916Y-84747800D01*
X135940980Y-84760410D01*
X136008491Y-84778499D01*
X136008494Y-84778499D01*
X136127107Y-84778499D01*
X136127110Y-84778499D01*
X136235742Y-84749392D01*
X136241684Y-84747800D01*
X136241685Y-84747799D01*
X136241687Y-84747799D01*
X136248498Y-84743867D01*
X136344407Y-84688494D01*
X136344406Y-84688494D01*
X136344414Y-84688490D01*
X136428290Y-84604614D01*
X136480908Y-84513476D01*
X136487598Y-84501889D01*
X136487600Y-84501884D01*
X136505575Y-84434799D01*
X136518299Y-84387310D01*
X136518299Y-84387308D01*
X136520402Y-84379460D01*
X136523124Y-84380189D01*
X136545828Y-84328816D01*
X136604138Y-84290323D01*
X136674002Y-84289466D01*
X136728211Y-84321182D01*
X136746889Y-84339860D01*
X136746891Y-84339861D01*
X136746895Y-84339864D01*
X136797444Y-84369048D01*
X136815411Y-84379421D01*
X136891838Y-84399900D01*
X137247255Y-84399900D01*
X137309255Y-84416513D01*
X137390272Y-84463288D01*
X137489590Y-84489900D01*
X137489592Y-84489900D01*
X137592408Y-84489900D01*
X137592410Y-84489900D01*
X137691728Y-84463288D01*
X137780773Y-84411878D01*
X137853478Y-84339173D01*
X137898113Y-84261861D01*
X137948679Y-84213647D01*
X138017286Y-84200423D01*
X138082151Y-84226391D01*
X138122680Y-84283305D01*
X138129500Y-84323862D01*
X138129500Y-87902900D01*
X138109815Y-87969939D01*
X138057011Y-88015694D01*
X138005500Y-88026900D01*
X137895990Y-88026900D01*
X137796672Y-88053512D01*
X137796669Y-88053513D01*
X137707630Y-88104919D01*
X137707625Y-88104923D01*
X137634923Y-88177625D01*
X137634919Y-88177630D01*
X137583513Y-88266669D01*
X137583512Y-88266672D01*
X137556900Y-88365990D01*
X137556900Y-88468810D01*
X137581740Y-88561512D01*
X137583512Y-88568127D01*
X137583513Y-88568130D01*
X137634919Y-88657169D01*
X137634921Y-88657172D01*
X137634922Y-88657173D01*
X137707627Y-88729878D01*
X137781500Y-88772528D01*
X137829715Y-88823094D01*
X137843500Y-88879915D01*
X137843500Y-89478752D01*
X137855131Y-89537229D01*
X137855256Y-89537529D01*
X137855331Y-89538234D01*
X137857515Y-89549210D01*
X137856532Y-89549405D01*
X137862723Y-89606998D01*
X137831448Y-89669477D01*
X137771358Y-89705129D01*
X137756890Y-89707918D01*
X137752476Y-89708499D01*
X137650610Y-89735793D01*
X137559287Y-89788520D01*
X137559284Y-89788522D01*
X137455681Y-89892126D01*
X137394358Y-89925611D01*
X137324666Y-89920627D01*
X137268733Y-89878755D01*
X137244316Y-89813291D01*
X137244000Y-89804445D01*
X137244000Y-89761172D01*
X137243999Y-89761155D01*
X137237598Y-89701627D01*
X137237596Y-89701620D01*
X137187354Y-89566913D01*
X137187350Y-89566906D01*
X137101190Y-89451812D01*
X136994188Y-89371709D01*
X136952318Y-89315775D01*
X136944500Y-89272443D01*
X136944500Y-88839249D01*
X136944499Y-88839247D01*
X136932868Y-88780770D01*
X136932867Y-88780769D01*
X136888552Y-88714447D01*
X136822230Y-88670132D01*
X136822229Y-88670131D01*
X136763752Y-88658500D01*
X136763748Y-88658500D01*
X135524252Y-88658500D01*
X135524247Y-88658500D01*
X135465770Y-88670131D01*
X135465769Y-88670132D01*
X135399447Y-88714447D01*
X135355131Y-88780771D01*
X135354640Y-88781957D01*
X135352878Y-88784142D01*
X135348348Y-88790923D01*
X135347741Y-88790517D01*
X135342098Y-88797519D01*
X135333794Y-88815703D01*
X135320621Y-88824168D01*
X135310797Y-88836359D01*
X135291831Y-88842670D01*
X135275016Y-88853477D01*
X135247447Y-88857440D01*
X135244502Y-88858421D01*
X135240081Y-88858500D01*
X135081641Y-88858500D01*
X135023934Y-88843037D01*
X135023900Y-88843120D01*
X135023270Y-88842859D01*
X135019639Y-88841886D01*
X135016386Y-88840008D01*
X134889092Y-88805900D01*
X134757308Y-88805900D01*
X134630012Y-88840008D01*
X134515886Y-88905900D01*
X134515883Y-88905902D01*
X134452205Y-88969581D01*
X134390882Y-89003066D01*
X134364524Y-89005900D01*
X132192838Y-89005900D01*
X132141886Y-89019552D01*
X132116410Y-89026379D01*
X132087604Y-89043011D01*
X132087603Y-89043011D01*
X132047892Y-89065937D01*
X132047887Y-89065941D01*
X131687141Y-89426687D01*
X131687135Y-89426695D01*
X131647582Y-89495204D01*
X131647579Y-89495209D01*
X131636240Y-89537529D01*
X131629949Y-89561008D01*
X131627100Y-89571639D01*
X131627100Y-89933831D01*
X131610487Y-89995831D01*
X131562809Y-90078411D01*
X131562809Y-90078412D01*
X131562808Y-90078414D01*
X131528700Y-90205708D01*
X131528700Y-90337492D01*
X131537594Y-90370686D01*
X131562808Y-90464787D01*
X131588739Y-90509700D01*
X131628700Y-90578914D01*
X131721886Y-90672100D01*
X131836014Y-90737992D01*
X131963308Y-90772100D01*
X131963310Y-90772100D01*
X132095090Y-90772100D01*
X132095092Y-90772100D01*
X132222386Y-90737992D01*
X132336514Y-90672100D01*
X132429700Y-90578914D01*
X132495592Y-90464786D01*
X132529700Y-90337492D01*
X132529700Y-90205708D01*
X132495592Y-90078414D01*
X132429700Y-89964286D01*
X132336514Y-89871100D01*
X132331239Y-89868054D01*
X132321869Y-89862644D01*
X132304616Y-89844549D01*
X132284604Y-89829567D01*
X132280923Y-89819698D01*
X132273655Y-89812075D01*
X132268924Y-89787525D01*
X132260189Y-89764103D01*
X132262428Y-89753811D01*
X132260435Y-89743468D01*
X132269727Y-89720258D01*
X132275042Y-89695830D01*
X132284642Y-89683005D01*
X132286405Y-89678604D01*
X132296186Y-89667584D01*
X132320554Y-89643217D01*
X132381877Y-89609733D01*
X132408233Y-89606900D01*
X134364524Y-89606900D01*
X134431563Y-89626585D01*
X134452203Y-89643217D01*
X134515886Y-89706900D01*
X134630014Y-89772792D01*
X134757308Y-89806900D01*
X134757310Y-89806900D01*
X134889090Y-89806900D01*
X134889092Y-89806900D01*
X134901019Y-89803704D01*
X134970866Y-89805363D01*
X135020796Y-89835796D01*
X135044000Y-89859000D01*
X136020000Y-89859000D01*
X136087039Y-89878685D01*
X136132794Y-89931489D01*
X136144000Y-89983000D01*
X136144000Y-90235000D01*
X136124315Y-90302039D01*
X136071511Y-90347794D01*
X136020000Y-90359000D01*
X135027965Y-90359000D01*
X135001965Y-90373197D01*
X134932273Y-90368213D01*
X134887926Y-90339712D01*
X134825716Y-90277502D01*
X134825714Y-90277500D01*
X134752102Y-90235000D01*
X134711587Y-90211608D01*
X134631775Y-90190223D01*
X134584292Y-90177500D01*
X134452508Y-90177500D01*
X134325212Y-90211608D01*
X134211086Y-90277500D01*
X134211083Y-90277502D01*
X134117902Y-90370683D01*
X134117900Y-90370686D01*
X134052008Y-90484812D01*
X134029147Y-90570133D01*
X134017900Y-90612108D01*
X134017900Y-90743892D01*
X134025458Y-90772099D01*
X134052008Y-90871187D01*
X134084954Y-90928250D01*
X134117900Y-90985314D01*
X134211086Y-91078500D01*
X134325214Y-91144392D01*
X134452508Y-91178500D01*
X134452510Y-91178500D01*
X134542567Y-91178500D01*
X134572007Y-91187144D01*
X134601994Y-91193668D01*
X134607009Y-91197422D01*
X134609606Y-91198185D01*
X134630248Y-91214819D01*
X134656534Y-91241105D01*
X134690019Y-91302428D01*
X134685035Y-91372120D01*
X134643163Y-91428053D01*
X134600947Y-91448561D01*
X134549094Y-91462454D01*
X134477614Y-91481608D01*
X134477612Y-91481608D01*
X134477612Y-91481609D01*
X134363486Y-91547500D01*
X134363483Y-91547502D01*
X134270302Y-91640683D01*
X134270300Y-91640686D01*
X134204408Y-91754812D01*
X134181741Y-91839408D01*
X134170300Y-91882108D01*
X134170300Y-92013892D01*
X134180149Y-92050650D01*
X134204408Y-92141187D01*
X134210586Y-92151887D01*
X134270300Y-92255314D01*
X134363486Y-92348500D01*
X134477614Y-92414392D01*
X134477615Y-92414392D01*
X134477616Y-92414393D01*
X134538115Y-92430603D01*
X134593704Y-92462697D01*
X134807519Y-92676512D01*
X134807520Y-92676513D01*
X134882087Y-92751080D01*
X134973413Y-92803807D01*
X135075273Y-92831100D01*
X136682359Y-92831100D01*
X136749398Y-92850785D01*
X136795153Y-92903589D01*
X136805097Y-92972747D01*
X136802134Y-92987189D01*
X136794900Y-93014190D01*
X136794900Y-93117010D01*
X136814390Y-93189746D01*
X136821512Y-93216327D01*
X136821513Y-93216330D01*
X136872919Y-93305369D01*
X136872921Y-93305372D01*
X136872922Y-93305373D01*
X136945627Y-93378078D01*
X136945628Y-93378079D01*
X136945630Y-93378080D01*
X136988676Y-93402932D01*
X137034672Y-93429488D01*
X137133990Y-93456100D01*
X137133992Y-93456100D01*
X137236808Y-93456100D01*
X137236810Y-93456100D01*
X137336128Y-93429488D01*
X137425173Y-93378078D01*
X137497878Y-93305373D01*
X137549288Y-93216328D01*
X137549290Y-93216319D01*
X137552397Y-93208821D01*
X137555600Y-93210148D01*
X137583546Y-93164151D01*
X137646349Y-93133531D01*
X137715736Y-93141725D01*
X137769678Y-93186132D01*
X137770189Y-93186890D01*
X137783297Y-93206506D01*
X137804177Y-93273182D01*
X137785695Y-93340563D01*
X137783299Y-93344291D01*
X137733132Y-93419370D01*
X137733131Y-93419371D01*
X137721500Y-93477848D01*
X137721500Y-93761045D01*
X137701815Y-93828084D01*
X137671812Y-93860311D01*
X137564809Y-93940414D01*
X137478649Y-94055508D01*
X137478645Y-94055515D01*
X137428403Y-94190222D01*
X137428401Y-94190229D01*
X137422000Y-94249757D01*
X137422000Y-94297602D01*
X139184000Y-94297602D01*
X139184000Y-94249774D01*
X139183999Y-94249757D01*
X139177598Y-94190230D01*
X139176985Y-94187634D01*
X139177096Y-94185558D01*
X139176769Y-94182515D01*
X139177262Y-94182461D01*
X139180726Y-94117864D01*
X139221593Y-94061193D01*
X139259158Y-94042530D01*
X139259021Y-94042197D01*
X139263882Y-94040183D01*
X139265571Y-94039344D01*
X139266528Y-94039088D01*
X139355573Y-93987678D01*
X139428278Y-93914973D01*
X139430297Y-93911476D01*
X139452913Y-93872305D01*
X139503479Y-93824089D01*
X139572086Y-93810865D01*
X139636951Y-93836833D01*
X139667687Y-93872305D01*
X139692317Y-93914966D01*
X139692321Y-93914971D01*
X139692322Y-93914973D01*
X139765027Y-93987678D01*
X139765028Y-93987679D01*
X139765030Y-93987680D01*
X139779268Y-93995900D01*
X139854072Y-94039088D01*
X139953390Y-94065700D01*
X139953392Y-94065700D01*
X140000205Y-94065700D01*
X140067244Y-94085385D01*
X140112999Y-94138189D01*
X140122943Y-94207347D01*
X140121822Y-94213892D01*
X140109100Y-94277848D01*
X140109100Y-94561043D01*
X140089415Y-94628082D01*
X140059412Y-94660309D01*
X139952409Y-94740412D01*
X139866249Y-94855506D01*
X139866245Y-94855513D01*
X139816003Y-94990220D01*
X139816001Y-94990227D01*
X139809600Y-95049755D01*
X139809600Y-95097600D01*
X141574979Y-95097600D01*
X141575478Y-95097327D01*
X141580904Y-95090080D01*
X141605659Y-95080846D01*
X141628854Y-95068181D01*
X141637885Y-95068826D01*
X141646368Y-95065663D01*
X141672189Y-95071280D01*
X141698546Y-95073165D01*
X141707599Y-95078983D01*
X141714641Y-95080515D01*
X141742895Y-95101666D01*
X141743605Y-95102376D01*
X141775699Y-95157963D01*
X141799912Y-95248329D01*
X141799913Y-95248330D01*
X141851319Y-95337369D01*
X141851323Y-95337374D01*
X141912159Y-95398210D01*
X141945644Y-95459533D01*
X141940660Y-95529225D01*
X141931869Y-95547885D01*
X141926913Y-95556469D01*
X141926912Y-95556472D01*
X141900300Y-95655790D01*
X141900300Y-95758610D01*
X141918171Y-95825304D01*
X141926912Y-95857927D01*
X141926913Y-95857930D01*
X141978319Y-95946969D01*
X141978321Y-95946972D01*
X141978322Y-95946973D01*
X142051027Y-96019678D01*
X142051028Y-96019679D01*
X142051030Y-96019680D01*
X142078402Y-96035483D01*
X142140072Y-96071088D01*
X142239390Y-96097700D01*
X142239392Y-96097700D01*
X142342208Y-96097700D01*
X142342210Y-96097700D01*
X142441528Y-96071088D01*
X142530573Y-96019678D01*
X142603278Y-95946973D01*
X142654688Y-95857928D01*
X142681300Y-95758610D01*
X142681300Y-95655790D01*
X142654688Y-95556472D01*
X142603278Y-95467427D01*
X142542440Y-95406589D01*
X142508955Y-95345266D01*
X142513939Y-95275574D01*
X142522732Y-95256910D01*
X142527688Y-95248328D01*
X142554300Y-95149010D01*
X142554300Y-95046190D01*
X142527688Y-94946872D01*
X142498952Y-94897100D01*
X142476280Y-94857830D01*
X142476276Y-94857825D01*
X142403574Y-94785123D01*
X142403569Y-94785119D01*
X142314530Y-94733713D01*
X142314529Y-94733712D01*
X142224163Y-94709499D01*
X142168576Y-94677405D01*
X141726111Y-94234940D01*
X141726110Y-94234939D01*
X141710128Y-94225712D01*
X141710128Y-94225711D01*
X141710126Y-94225711D01*
X141657588Y-94195378D01*
X141581161Y-94174899D01*
X141581159Y-94174899D01*
X141329775Y-94174899D01*
X141262736Y-94155214D01*
X141216981Y-94102410D01*
X141207037Y-94033252D01*
X141226673Y-93982008D01*
X141254465Y-93940414D01*
X141260467Y-93931432D01*
X141260467Y-93931430D01*
X141260468Y-93931430D01*
X141272099Y-93872953D01*
X141272100Y-93872951D01*
X141272100Y-93547590D01*
X142636900Y-93547590D01*
X142636900Y-93650409D01*
X142663512Y-93749727D01*
X142663513Y-93749730D01*
X142714919Y-93838769D01*
X142714921Y-93838772D01*
X142714922Y-93838773D01*
X142787627Y-93911478D01*
X142787628Y-93911479D01*
X142787630Y-93911480D01*
X142793682Y-93914974D01*
X142876672Y-93962888D01*
X142975990Y-93989500D01*
X142975992Y-93989500D01*
X143078808Y-93989500D01*
X143078810Y-93989500D01*
X143178128Y-93962888D01*
X143267173Y-93911478D01*
X143339878Y-93838773D01*
X143391288Y-93749728D01*
X143417900Y-93650410D01*
X143417900Y-93547590D01*
X143391288Y-93448272D01*
X143350762Y-93378078D01*
X143339880Y-93359230D01*
X143339876Y-93359225D01*
X143267174Y-93286523D01*
X143267169Y-93286519D01*
X143178130Y-93235113D01*
X143178129Y-93235112D01*
X143178128Y-93235112D01*
X143078810Y-93208500D01*
X142975990Y-93208500D01*
X142876672Y-93235112D01*
X142876669Y-93235113D01*
X142787630Y-93286519D01*
X142787625Y-93286523D01*
X142714923Y-93359225D01*
X142714919Y-93359230D01*
X142663513Y-93448269D01*
X142663512Y-93448272D01*
X142636900Y-93547590D01*
X141272100Y-93547590D01*
X141272100Y-93477850D01*
X141272099Y-93477848D01*
X141260468Y-93419372D01*
X141232876Y-93378078D01*
X141216152Y-93353049D01*
X141216150Y-93353048D01*
X141210300Y-93344292D01*
X141189422Y-93277614D01*
X141207906Y-93210234D01*
X141210301Y-93206508D01*
X141221502Y-93189746D01*
X141260467Y-93131431D01*
X141260468Y-93131429D01*
X141272099Y-93072952D01*
X141272100Y-93072950D01*
X141272100Y-92677849D01*
X141272099Y-92677847D01*
X141260468Y-92619370D01*
X141260467Y-92619369D01*
X141216152Y-92553047D01*
X141149830Y-92508732D01*
X141149829Y-92508731D01*
X141091352Y-92497100D01*
X141091348Y-92497100D01*
X140289852Y-92497100D01*
X140289847Y-92497100D01*
X140231370Y-92508731D01*
X140231369Y-92508732D01*
X140165047Y-92553047D01*
X140120732Y-92619369D01*
X140120731Y-92619370D01*
X140109100Y-92677847D01*
X140109100Y-93072952D01*
X140121742Y-93136509D01*
X140115515Y-93206101D01*
X140072651Y-93261278D01*
X140006761Y-93284522D01*
X140000125Y-93284700D01*
X139953390Y-93284700D01*
X139854072Y-93311312D01*
X139854069Y-93311313D01*
X139765030Y-93362719D01*
X139765025Y-93362723D01*
X139692323Y-93435425D01*
X139692319Y-93435430D01*
X139667687Y-93478095D01*
X139617120Y-93526311D01*
X139548513Y-93539533D01*
X139483648Y-93513565D01*
X139452913Y-93478095D01*
X139428280Y-93435430D01*
X139428276Y-93435425D01*
X139355574Y-93362723D01*
X139355569Y-93362719D01*
X139266530Y-93311313D01*
X139266529Y-93311312D01*
X139266528Y-93311312D01*
X139167210Y-93284700D01*
X139064390Y-93284700D01*
X139020422Y-93296480D01*
X138950573Y-93294818D01*
X138892711Y-93255655D01*
X138865207Y-93191426D01*
X138871785Y-93143668D01*
X138870485Y-93143410D01*
X138884499Y-93072952D01*
X138884500Y-93072950D01*
X138884500Y-92677849D01*
X138884499Y-92677847D01*
X138872868Y-92619370D01*
X138872867Y-92619369D01*
X138828552Y-92553047D01*
X138762230Y-92508732D01*
X138762229Y-92508731D01*
X138703752Y-92497100D01*
X138703748Y-92497100D01*
X137902252Y-92497100D01*
X137902251Y-92497100D01*
X137873803Y-92502758D01*
X137804211Y-92496529D01*
X137749035Y-92453665D01*
X137725792Y-92387774D01*
X137741861Y-92319778D01*
X137747562Y-92310703D01*
X137753960Y-92301432D01*
X137785280Y-92270113D01*
X137832422Y-92188460D01*
X137838007Y-92178787D01*
X137865300Y-92076927D01*
X137865300Y-91736589D01*
X140616594Y-91736589D01*
X140616594Y-91839409D01*
X140631390Y-91894626D01*
X140643206Y-91938726D01*
X140643207Y-91938729D01*
X140694613Y-92027768D01*
X140694615Y-92027771D01*
X140694616Y-92027772D01*
X140767321Y-92100477D01*
X140856366Y-92151887D01*
X140955684Y-92178499D01*
X140955686Y-92178499D01*
X141058502Y-92178499D01*
X141058504Y-92178499D01*
X141157822Y-92151887D01*
X141246867Y-92100477D01*
X141319572Y-92027772D01*
X141370982Y-91938727D01*
X141397594Y-91839409D01*
X141397594Y-91736589D01*
X141370982Y-91637271D01*
X141332825Y-91571181D01*
X141319574Y-91548229D01*
X141319570Y-91548224D01*
X141246868Y-91475522D01*
X141246863Y-91475518D01*
X141157824Y-91424112D01*
X141157823Y-91424111D01*
X141157822Y-91424111D01*
X141058504Y-91397499D01*
X140955684Y-91397499D01*
X140856366Y-91424111D01*
X140856365Y-91424111D01*
X140803854Y-91454427D01*
X140803844Y-91454434D01*
X140767321Y-91475521D01*
X140738557Y-91504284D01*
X140738549Y-91504291D01*
X140694617Y-91548224D01*
X140694613Y-91548229D01*
X140643207Y-91637268D01*
X140643206Y-91637271D01*
X140616594Y-91736589D01*
X137865300Y-91736589D01*
X137865300Y-91678977D01*
X137884985Y-91611938D01*
X137937789Y-91566183D01*
X138006947Y-91556239D01*
X138013493Y-91557360D01*
X138024251Y-91559500D01*
X138024252Y-91559500D01*
X139263750Y-91559500D01*
X139263751Y-91559499D01*
X139280142Y-91556239D01*
X139322229Y-91547868D01*
X139322229Y-91547867D01*
X139322231Y-91547867D01*
X139388552Y-91503552D01*
X139432867Y-91437231D01*
X139432867Y-91437229D01*
X139432868Y-91437229D01*
X139433449Y-91434309D01*
X139436470Y-91428532D01*
X139437542Y-91425946D01*
X139437773Y-91426041D01*
X139465834Y-91372398D01*
X139526549Y-91337824D01*
X139555066Y-91334500D01*
X140516799Y-91334500D01*
X140516800Y-91334500D01*
X140618058Y-91292557D01*
X140695557Y-91215058D01*
X141606596Y-90304019D01*
X141667919Y-90270534D01*
X141694277Y-90267700D01*
X146553034Y-90267700D01*
X146620073Y-90287385D01*
X146660421Y-90329700D01*
X146677319Y-90358969D01*
X146677321Y-90358972D01*
X146677322Y-90358973D01*
X146750027Y-90431678D01*
X146839072Y-90483088D01*
X146938390Y-90509700D01*
X146938392Y-90509700D01*
X147041208Y-90509700D01*
X147041210Y-90509700D01*
X147140528Y-90483088D01*
X147229573Y-90431678D01*
X147302278Y-90358973D01*
X147353688Y-90269928D01*
X147380300Y-90170610D01*
X147380300Y-90067790D01*
X147353688Y-89968472D01*
X147302278Y-89879427D01*
X147302277Y-89879426D01*
X147300530Y-89876400D01*
X147284057Y-89808500D01*
X147300530Y-89752400D01*
X147310118Y-89735793D01*
X147353688Y-89660328D01*
X147380300Y-89561010D01*
X147380300Y-89458190D01*
X147353688Y-89358872D01*
X147349892Y-89352297D01*
X147333419Y-89284397D01*
X147349892Y-89228297D01*
X147379088Y-89177728D01*
X147405700Y-89078410D01*
X147405700Y-88975590D01*
X147379088Y-88876272D01*
X147358091Y-88839904D01*
X147341619Y-88772004D01*
X147358094Y-88715902D01*
X147358934Y-88714447D01*
X147370088Y-88695128D01*
X147396700Y-88595810D01*
X147396700Y-88492990D01*
X147370088Y-88393672D01*
X147318678Y-88304627D01*
X147245973Y-88231922D01*
X147212657Y-88212687D01*
X147164442Y-88162121D01*
X147151218Y-88093514D01*
X147177186Y-88028649D01*
X147234100Y-87988120D01*
X147274657Y-87981300D01*
X148896767Y-87981300D01*
X148926207Y-87989944D01*
X148956194Y-87996468D01*
X148961209Y-88000222D01*
X148963806Y-88000985D01*
X148984448Y-88017619D01*
X149116781Y-88149952D01*
X149150266Y-88211275D01*
X149153100Y-88237633D01*
X149153100Y-88978167D01*
X149133415Y-89045206D01*
X149116781Y-89065848D01*
X146673141Y-91509487D01*
X146673135Y-91509495D01*
X146633582Y-91578004D01*
X146633579Y-91578009D01*
X146613100Y-91654439D01*
X146613100Y-94058165D01*
X146604455Y-94087606D01*
X146597931Y-94117594D01*
X146594177Y-94122608D01*
X146593415Y-94125204D01*
X146576779Y-94145848D01*
X146554723Y-94167903D01*
X146493399Y-94201387D01*
X146439670Y-94200109D01*
X146439664Y-94200161D01*
X146439181Y-94200097D01*
X146434959Y-94199997D01*
X146431614Y-94199100D01*
X146431610Y-94199100D01*
X146328790Y-94199100D01*
X146229472Y-94225712D01*
X146229469Y-94225713D01*
X146140430Y-94277119D01*
X146140425Y-94277123D01*
X146067723Y-94349825D01*
X146067719Y-94349830D01*
X146016313Y-94438869D01*
X146016312Y-94438872D01*
X145989700Y-94538190D01*
X145989700Y-94641010D01*
X146014540Y-94733712D01*
X146016312Y-94740327D01*
X146016313Y-94740330D01*
X146067719Y-94829369D01*
X146067721Y-94829372D01*
X146067722Y-94829373D01*
X146140427Y-94902078D01*
X146140428Y-94902079D01*
X146140430Y-94902080D01*
X146163903Y-94915632D01*
X146229472Y-94953488D01*
X146328790Y-94980100D01*
X146328792Y-94980100D01*
X146431608Y-94980100D01*
X146431610Y-94980100D01*
X146530928Y-94953488D01*
X146619973Y-94902078D01*
X146621033Y-94901017D01*
X146622331Y-94900268D01*
X146626424Y-94897128D01*
X146626837Y-94897666D01*
X146667162Y-94874386D01*
X146666477Y-94872733D01*
X146673991Y-94869620D01*
X146729278Y-94837700D01*
X146742511Y-94830060D01*
X146798460Y-94774111D01*
X147154060Y-94418511D01*
X147181178Y-94371541D01*
X147193621Y-94349989D01*
X147214100Y-94273562D01*
X147214100Y-91869833D01*
X147233785Y-91802794D01*
X147250419Y-91782152D01*
X149694057Y-89338514D01*
X149694060Y-89338511D01*
X149707114Y-89315900D01*
X149707187Y-89315775D01*
X149733618Y-89269994D01*
X149733620Y-89269991D01*
X149733621Y-89269989D01*
X149754100Y-89193562D01*
X149754100Y-88022238D01*
X149733621Y-87945811D01*
X149719447Y-87921260D01*
X149694064Y-87877295D01*
X149694058Y-87877287D01*
X149257112Y-87440341D01*
X149257111Y-87440340D01*
X149232602Y-87426190D01*
X149232602Y-87426188D01*
X149232599Y-87426188D01*
X149188594Y-87400781D01*
X149188591Y-87400779D01*
X149150375Y-87390539D01*
X149112162Y-87380300D01*
X149112160Y-87380300D01*
X146922433Y-87380300D01*
X146901187Y-87374061D01*
X146879100Y-87372482D01*
X146868316Y-87364409D01*
X146855394Y-87360615D01*
X146840895Y-87343883D01*
X146823166Y-87330611D01*
X146818458Y-87317988D01*
X146809639Y-87307811D01*
X146806487Y-87285895D01*
X146798749Y-87265147D01*
X146801612Y-87251985D01*
X146799695Y-87238653D01*
X146808894Y-87218508D01*
X146813601Y-87196874D01*
X146826870Y-87179146D01*
X146828720Y-87175097D01*
X146834737Y-87168633D01*
X146969179Y-87034191D01*
X147024761Y-87002101D01*
X147115128Y-86977888D01*
X147204173Y-86926478D01*
X147276878Y-86853773D01*
X147328288Y-86764728D01*
X147354900Y-86665410D01*
X147354900Y-86562590D01*
X147328288Y-86463272D01*
X147295913Y-86407196D01*
X147276880Y-86374230D01*
X147276876Y-86374225D01*
X147204174Y-86301523D01*
X147204169Y-86301519D01*
X147115130Y-86250113D01*
X147115129Y-86250112D01*
X147115128Y-86250112D01*
X147015810Y-86223500D01*
X146912990Y-86223500D01*
X146813672Y-86250112D01*
X146813669Y-86250113D01*
X146724630Y-86301519D01*
X146724625Y-86301523D01*
X146651923Y-86374225D01*
X146651919Y-86374230D01*
X146600513Y-86463269D01*
X146600512Y-86463270D01*
X146576299Y-86553636D01*
X146544205Y-86609223D01*
X146165048Y-86988381D01*
X146103725Y-87021866D01*
X146077367Y-87024700D01*
X144244633Y-87024700D01*
X144215192Y-87016055D01*
X144185206Y-87009532D01*
X144180190Y-87005777D01*
X144177594Y-87005015D01*
X144156952Y-86988381D01*
X144050019Y-86881448D01*
X144016534Y-86820125D01*
X144013700Y-86793767D01*
X144013700Y-85240433D01*
X144033385Y-85173394D01*
X144050013Y-85152757D01*
X144124379Y-85078391D01*
X144179961Y-85046301D01*
X144270328Y-85022088D01*
X144359373Y-84970678D01*
X144432078Y-84897973D01*
X144483488Y-84808928D01*
X144510100Y-84709610D01*
X144510100Y-84606790D01*
X144483488Y-84507472D01*
X144432078Y-84418427D01*
X144359373Y-84345722D01*
X144359372Y-84345721D01*
X144359369Y-84345719D01*
X144270330Y-84294313D01*
X144270329Y-84294312D01*
X144270328Y-84294312D01*
X144171010Y-84267700D01*
X144068190Y-84267700D01*
X143968872Y-84294312D01*
X143968869Y-84294313D01*
X143879830Y-84345719D01*
X143879825Y-84345723D01*
X143807123Y-84418425D01*
X143807117Y-84418433D01*
X143800568Y-84429776D01*
X143749999Y-84477989D01*
X143681391Y-84491209D01*
X143616528Y-84465238D01*
X143605503Y-84455452D01*
X143546574Y-84396523D01*
X143546569Y-84396519D01*
X143457530Y-84345113D01*
X143457529Y-84345112D01*
X143457528Y-84345112D01*
X143358210Y-84318500D01*
X143255390Y-84318500D01*
X143156072Y-84345112D01*
X143156069Y-84345113D01*
X143067030Y-84396519D01*
X143067025Y-84396523D01*
X142994321Y-84469227D01*
X142955022Y-84537296D01*
X142950626Y-84541486D01*
X142948641Y-84547224D01*
X142925639Y-84565311D01*
X142904455Y-84585511D01*
X142898491Y-84586660D01*
X142893718Y-84590414D01*
X142864579Y-84593195D01*
X142835847Y-84598733D01*
X142830211Y-84596476D01*
X142824165Y-84597054D01*
X142798147Y-84583640D01*
X142770983Y-84572765D01*
X142766080Y-84567107D01*
X142762063Y-84565036D01*
X142740246Y-84537292D01*
X142734911Y-84528051D01*
X142718300Y-84466054D01*
X142718300Y-84313839D01*
X142711258Y-84287558D01*
X142697821Y-84237411D01*
X142658260Y-84168889D01*
X142638961Y-84149590D01*
X146497700Y-84149590D01*
X146497700Y-84252410D01*
X146524156Y-84351143D01*
X146524312Y-84351727D01*
X146524313Y-84351730D01*
X146575719Y-84440769D01*
X146575721Y-84440772D01*
X146575722Y-84440773D01*
X146648427Y-84513478D01*
X146737472Y-84564888D01*
X146836790Y-84591500D01*
X146836792Y-84591500D01*
X146939608Y-84591500D01*
X146939610Y-84591500D01*
X147038928Y-84564888D01*
X147127973Y-84513478D01*
X147128632Y-84512819D01*
X147129323Y-84512441D01*
X147134418Y-84508532D01*
X147135027Y-84509326D01*
X147189955Y-84479334D01*
X147216313Y-84476500D01*
X147574300Y-84476500D01*
X147641339Y-84496185D01*
X147687094Y-84548989D01*
X147698300Y-84600500D01*
X147698300Y-85933352D01*
X147709931Y-85991829D01*
X147709932Y-85991830D01*
X147754247Y-86058152D01*
X147820569Y-86102467D01*
X147820570Y-86102468D01*
X147879047Y-86114099D01*
X147879050Y-86114100D01*
X148812244Y-86114100D01*
X148879283Y-86133785D01*
X148911510Y-86163789D01*
X148991609Y-86270787D01*
X148991612Y-86270790D01*
X149106706Y-86356950D01*
X149106713Y-86356954D01*
X149241420Y-86407196D01*
X149241427Y-86407198D01*
X149300955Y-86413599D01*
X149300972Y-86413600D01*
X149623800Y-86413600D01*
X150123800Y-86413600D01*
X150446628Y-86413600D01*
X150446644Y-86413599D01*
X150506172Y-86407198D01*
X150506179Y-86407196D01*
X150640886Y-86356954D01*
X150640893Y-86356950D01*
X150755987Y-86270790D01*
X150755990Y-86270787D01*
X150842150Y-86155693D01*
X150842154Y-86155686D01*
X150892396Y-86020979D01*
X150892398Y-86020972D01*
X150898799Y-85961444D01*
X150898800Y-85961427D01*
X150898800Y-85463600D01*
X150123800Y-85463600D01*
X150123800Y-86413600D01*
X149623800Y-86413600D01*
X149623800Y-84963600D01*
X150123800Y-84963600D01*
X150898800Y-84963600D01*
X150898800Y-84465772D01*
X150898799Y-84465755D01*
X150892398Y-84406227D01*
X150892396Y-84406220D01*
X150842154Y-84271513D01*
X150842150Y-84271506D01*
X150755990Y-84156412D01*
X150755987Y-84156409D01*
X150640893Y-84070249D01*
X150640886Y-84070245D01*
X150506179Y-84020003D01*
X150506172Y-84020001D01*
X150446644Y-84013600D01*
X150123800Y-84013600D01*
X150123800Y-84963600D01*
X149623800Y-84963600D01*
X149623800Y-84013600D01*
X149300955Y-84013600D01*
X149241427Y-84020001D01*
X149241420Y-84020003D01*
X149106713Y-84070245D01*
X149106710Y-84070247D01*
X149022611Y-84133204D01*
X148957147Y-84157621D01*
X148888874Y-84142769D01*
X148839468Y-84093364D01*
X148824300Y-84033937D01*
X148824300Y-82793262D01*
X148843985Y-82726223D01*
X148896789Y-82680468D01*
X148965947Y-82670524D01*
X149022612Y-82693996D01*
X149106710Y-82756952D01*
X149106713Y-82756954D01*
X149241420Y-82807196D01*
X149241427Y-82807198D01*
X149300955Y-82813599D01*
X149300972Y-82813600D01*
X149623800Y-82813600D01*
X150123800Y-82813600D01*
X150446628Y-82813600D01*
X150446644Y-82813599D01*
X150506172Y-82807198D01*
X150506179Y-82807196D01*
X150640886Y-82756954D01*
X150640893Y-82756950D01*
X150755987Y-82670790D01*
X150755990Y-82670787D01*
X150842150Y-82555693D01*
X150842154Y-82555686D01*
X150892396Y-82420979D01*
X150892398Y-82420972D01*
X150898799Y-82361444D01*
X150898800Y-82361427D01*
X150898800Y-81863600D01*
X150123800Y-81863600D01*
X150123800Y-82813600D01*
X149623800Y-82813600D01*
X149623800Y-80413600D01*
X149300955Y-80413600D01*
X149241427Y-80420001D01*
X149241420Y-80420003D01*
X149106713Y-80470245D01*
X149106706Y-80470249D01*
X148991612Y-80556409D01*
X148991609Y-80556412D01*
X148911510Y-80663411D01*
X148855577Y-80705282D01*
X148812244Y-80713100D01*
X147879047Y-80713100D01*
X147820570Y-80724731D01*
X147820569Y-80724732D01*
X147754247Y-80769047D01*
X147709932Y-80835369D01*
X147709931Y-80835370D01*
X147698300Y-80893847D01*
X147698300Y-82333352D01*
X147709931Y-82391829D01*
X147709932Y-82391830D01*
X147754247Y-82458152D01*
X147820569Y-82502467D01*
X147820570Y-82502468D01*
X147879047Y-82514099D01*
X147879050Y-82514100D01*
X147879052Y-82514100D01*
X147899300Y-82514100D01*
X147966339Y-82533785D01*
X148012094Y-82586589D01*
X148023300Y-82638100D01*
X148023300Y-83801500D01*
X148003615Y-83868539D01*
X147950811Y-83914294D01*
X147899300Y-83925500D01*
X147216313Y-83925500D01*
X147149274Y-83905815D01*
X147128632Y-83889181D01*
X147127974Y-83888523D01*
X147127969Y-83888519D01*
X147038930Y-83837113D01*
X147038929Y-83837112D01*
X147038928Y-83837112D01*
X146939610Y-83810500D01*
X146836790Y-83810500D01*
X146737472Y-83837112D01*
X146737469Y-83837113D01*
X146648430Y-83888519D01*
X146648425Y-83888523D01*
X146575723Y-83961225D01*
X146575719Y-83961230D01*
X146524313Y-84050269D01*
X146524312Y-84050272D01*
X146497700Y-84149590D01*
X142638961Y-84149590D01*
X142602311Y-84112940D01*
X140824219Y-82334848D01*
X140790734Y-82273525D01*
X140787900Y-82247167D01*
X140787900Y-78660800D01*
X140807585Y-78593761D01*
X140860389Y-78548006D01*
X140911900Y-78536800D01*
X149235667Y-78536800D01*
X149236215Y-78536961D01*
G37*
%TD.AperFunction*%
%TA.AperFunction,Conductor*%
G36*
X127162546Y-85413150D02*
G01*
X127194675Y-85474796D01*
X127205457Y-85529001D01*
X127205459Y-85529009D01*
X127284910Y-85720820D01*
X127284915Y-85720830D01*
X127400259Y-85893453D01*
X127400262Y-85893457D01*
X127547065Y-86040260D01*
X127547069Y-86040263D01*
X127719692Y-86155607D01*
X127719702Y-86155612D01*
X127911513Y-86235063D01*
X127911521Y-86235065D01*
X128115140Y-86275567D01*
X128115144Y-86275568D01*
X128568955Y-86275568D01*
X128568955Y-85521568D01*
X129068955Y-85521568D01*
X129068955Y-86292054D01*
X129082609Y-86317060D01*
X129077625Y-86386752D01*
X129035753Y-86442685D01*
X129026702Y-86448655D01*
X129025287Y-86449741D01*
X128486741Y-86988287D01*
X128486735Y-86988295D01*
X128447182Y-87056804D01*
X128447179Y-87056809D01*
X128445470Y-87063189D01*
X128426700Y-87133238D01*
X128426700Y-91987562D01*
X128429089Y-91996477D01*
X128447179Y-92063991D01*
X128447181Y-92063994D01*
X128473812Y-92110119D01*
X128473814Y-92110121D01*
X128486742Y-92132514D01*
X128486743Y-92132515D01*
X129032636Y-92678407D01*
X129066121Y-92739730D01*
X129068955Y-92766088D01*
X129068955Y-93561632D01*
X128568955Y-93561632D01*
X128568955Y-92807632D01*
X128115140Y-92807632D01*
X127911521Y-92848134D01*
X127911513Y-92848136D01*
X127719702Y-92927587D01*
X127719692Y-92927592D01*
X127547069Y-93042936D01*
X127547065Y-93042939D01*
X127400262Y-93189742D01*
X127400259Y-93189746D01*
X127284915Y-93362369D01*
X127284910Y-93362379D01*
X127203128Y-93559819D01*
X127201865Y-93559296D01*
X127201096Y-93564472D01*
X127182909Y-93585257D01*
X127167405Y-93608116D01*
X127160225Y-93611181D01*
X127155087Y-93617055D01*
X127128552Y-93624708D01*
X127103149Y-93635557D01*
X127095453Y-93634255D01*
X127087954Y-93636418D01*
X127061490Y-93628509D01*
X127034259Y-93623902D01*
X127028488Y-93618646D01*
X127021010Y-93616411D01*
X127003021Y-93595448D01*
X126982605Y-93576852D01*
X126979441Y-93567970D01*
X126975509Y-93563388D01*
X126965730Y-93529480D01*
X126956380Y-93462157D01*
X126955630Y-93455392D01*
X126898025Y-92760804D01*
X126897651Y-92754011D01*
X126878265Y-92050650D01*
X126878218Y-92047234D01*
X126878218Y-86840600D01*
X126878258Y-86837466D01*
X126878985Y-86808715D01*
X126894630Y-86189808D01*
X126894845Y-86185021D01*
X126917300Y-85837175D01*
X126917567Y-85833772D01*
X126918665Y-85821908D01*
X126949585Y-85487567D01*
X126975359Y-85422626D01*
X127032153Y-85381928D01*
X127101933Y-85378396D01*
X127162546Y-85413150D01*
G37*
%TD.AperFunction*%
%TA.AperFunction,Conductor*%
G36*
X140507303Y-82868320D02*
G01*
X140513781Y-82874352D01*
X141607256Y-83967827D01*
X141640741Y-84029150D01*
X141635757Y-84098842D01*
X141593885Y-84154775D01*
X141528421Y-84179192D01*
X141487483Y-84175283D01*
X141453211Y-84166100D01*
X141453210Y-84166100D01*
X141350390Y-84166100D01*
X141251072Y-84192712D01*
X141251069Y-84192713D01*
X141162030Y-84244119D01*
X141162025Y-84244123D01*
X141089323Y-84316825D01*
X141089319Y-84316830D01*
X141037913Y-84405869D01*
X141037912Y-84405872D01*
X141011300Y-84505190D01*
X141011300Y-84608010D01*
X141036535Y-84702187D01*
X141037912Y-84707327D01*
X141037913Y-84707330D01*
X141089319Y-84796369D01*
X141089321Y-84796372D01*
X141089322Y-84796373D01*
X141162027Y-84869078D01*
X141162028Y-84869079D01*
X141162030Y-84869080D01*
X141186641Y-84883289D01*
X141251072Y-84920488D01*
X141350390Y-84947100D01*
X141350392Y-84947100D01*
X141453208Y-84947100D01*
X141453210Y-84947100D01*
X141552528Y-84920488D01*
X141641573Y-84869078D01*
X141714278Y-84796373D01*
X141765688Y-84707328D01*
X141792300Y-84608010D01*
X141792300Y-84505190D01*
X141783116Y-84470914D01*
X141783188Y-84467862D01*
X141781725Y-84465182D01*
X141784014Y-84433161D01*
X141784779Y-84401068D01*
X141786490Y-84398538D01*
X141786709Y-84395490D01*
X141805946Y-84369792D01*
X141823941Y-84343205D01*
X141826750Y-84342001D01*
X141828581Y-84339557D01*
X141858650Y-84328341D01*
X141888169Y-84315701D01*
X141891182Y-84316207D01*
X141894045Y-84315140D01*
X141925409Y-84321962D01*
X141957072Y-84327287D01*
X141960233Y-84329538D01*
X141962318Y-84329992D01*
X141990572Y-84351143D01*
X142057856Y-84418427D01*
X142091341Y-84479750D01*
X142086357Y-84549442D01*
X142077563Y-84568107D01*
X142053912Y-84609071D01*
X142053912Y-84609072D01*
X142027300Y-84708390D01*
X142027300Y-84811210D01*
X142046614Y-84883289D01*
X142053912Y-84910527D01*
X142053913Y-84910530D01*
X142105319Y-84999569D01*
X142105321Y-84999572D01*
X142105322Y-84999573D01*
X142178027Y-85072278D01*
X142178028Y-85072279D01*
X142178030Y-85072280D01*
X142188620Y-85078394D01*
X142267072Y-85123688D01*
X142366390Y-85150300D01*
X142366392Y-85150300D01*
X142469208Y-85150300D01*
X142469210Y-85150300D01*
X142568528Y-85123688D01*
X142657573Y-85072278D01*
X142730278Y-84999573D01*
X142769578Y-84931502D01*
X142820143Y-84883289D01*
X142888750Y-84870065D01*
X142953615Y-84896033D01*
X142984350Y-84931503D01*
X142994317Y-84948766D01*
X142994321Y-84948771D01*
X142994322Y-84948773D01*
X143067027Y-85021478D01*
X143067028Y-85021479D01*
X143067030Y-85021480D01*
X143110020Y-85046300D01*
X143156072Y-85072888D01*
X143255390Y-85099500D01*
X143255392Y-85099500D01*
X143288700Y-85099500D01*
X143355739Y-85119185D01*
X143401494Y-85171989D01*
X143412700Y-85223500D01*
X143412700Y-86478167D01*
X143393015Y-86545206D01*
X143340211Y-86590961D01*
X143271053Y-86600905D01*
X143207497Y-86571880D01*
X143201019Y-86565848D01*
X142018112Y-85382941D01*
X142018111Y-85382940D01*
X141981668Y-85361900D01*
X141981668Y-85361899D01*
X141981664Y-85361898D01*
X141970472Y-85355436D01*
X141949590Y-85343379D01*
X141949591Y-85343379D01*
X141907895Y-85332207D01*
X141873162Y-85322900D01*
X141873160Y-85322900D01*
X141060545Y-85322900D01*
X140998545Y-85306287D01*
X140917530Y-85259513D01*
X140917529Y-85259512D01*
X140917528Y-85259512D01*
X140818210Y-85232900D01*
X140715390Y-85232900D01*
X140616072Y-85259512D01*
X140616069Y-85259513D01*
X140527030Y-85310919D01*
X140527025Y-85310923D01*
X140454323Y-85383625D01*
X140454319Y-85383630D01*
X140402913Y-85472669D01*
X140399803Y-85480179D01*
X140397597Y-85479265D01*
X140367547Y-85528542D01*
X140304693Y-85559058D01*
X140235319Y-85550748D01*
X140221036Y-85543502D01*
X140117197Y-85482092D01*
X140117194Y-85482090D01*
X139958280Y-85435921D01*
X139958281Y-85435921D01*
X139950000Y-85435269D01*
X139950000Y-86050500D01*
X140509999Y-86050500D01*
X140531645Y-86028854D01*
X140592968Y-85995368D01*
X140651418Y-85996758D01*
X140715390Y-86013900D01*
X140715392Y-86013900D01*
X140818208Y-86013900D01*
X140818210Y-86013900D01*
X140917528Y-85987288D01*
X140998545Y-85940513D01*
X141060545Y-85923900D01*
X141657767Y-85923900D01*
X141724806Y-85943585D01*
X141745448Y-85960219D01*
X143650540Y-87865311D01*
X143706489Y-87921260D01*
X143706491Y-87921261D01*
X143706495Y-87921264D01*
X143756760Y-87950284D01*
X143775011Y-87960821D01*
X143851438Y-87981300D01*
X146737743Y-87981300D01*
X146804782Y-88000985D01*
X146850537Y-88053789D01*
X146860481Y-88122947D01*
X146831456Y-88186503D01*
X146799743Y-88212686D01*
X146784274Y-88221618D01*
X146766428Y-88231921D01*
X146766425Y-88231923D01*
X146693723Y-88304625D01*
X146693719Y-88304630D01*
X146642313Y-88393669D01*
X146642312Y-88393672D01*
X146615700Y-88492990D01*
X146615700Y-88595810D01*
X146635615Y-88670132D01*
X146642312Y-88695127D01*
X146642314Y-88695132D01*
X146663308Y-88731496D01*
X146679779Y-88799396D01*
X146663309Y-88855491D01*
X146651313Y-88876269D01*
X146651312Y-88876272D01*
X146624700Y-88975590D01*
X146624700Y-89078411D01*
X146643802Y-89149702D01*
X146643516Y-89161700D01*
X146647711Y-89172947D01*
X146642700Y-89195981D01*
X146642139Y-89219551D01*
X146635038Y-89231199D01*
X146632859Y-89241220D01*
X146611709Y-89269475D01*
X146605141Y-89276042D01*
X146605141Y-89276043D01*
X146528888Y-89352297D01*
X146480204Y-89400981D01*
X146418881Y-89434466D01*
X146392522Y-89437300D01*
X141389478Y-89437300D01*
X141322439Y-89417615D01*
X141301797Y-89400981D01*
X141049860Y-89149045D01*
X141049858Y-89149043D01*
X141049854Y-89149041D01*
X141049852Y-89149040D01*
X141041815Y-89145711D01*
X141041814Y-89145711D01*
X140948600Y-89107100D01*
X140154300Y-89107100D01*
X140087261Y-89087415D01*
X140041506Y-89034611D01*
X140030300Y-88983100D01*
X140030300Y-88873992D01*
X140030300Y-88873990D01*
X140003688Y-88774672D01*
X139957765Y-88695130D01*
X139952280Y-88685630D01*
X139952276Y-88685625D01*
X139879572Y-88612921D01*
X139868191Y-88606351D01*
X139854412Y-88598395D01*
X139853899Y-88597857D01*
X139853179Y-88597674D01*
X139829837Y-88572622D01*
X139806198Y-88547830D01*
X139806057Y-88547099D01*
X139805550Y-88546555D01*
X139799464Y-88512898D01*
X139792974Y-88479224D01*
X139793207Y-88478286D01*
X139793119Y-88477800D01*
X139794000Y-88475095D01*
X139801834Y-88443599D01*
X139807185Y-88430665D01*
X139809278Y-88428573D01*
X139860688Y-88339528D01*
X139887300Y-88240210D01*
X139887300Y-88237046D01*
X139892799Y-88223757D01*
X139909833Y-88202602D01*
X139923967Y-88179414D01*
X139931421Y-88175792D01*
X139936620Y-88169337D01*
X139962385Y-88160750D01*
X139986814Y-88148884D01*
X139995043Y-88149867D01*
X140002906Y-88147248D01*
X140029219Y-88153953D01*
X140056189Y-88157178D01*
X140062580Y-88162455D01*
X140070612Y-88164502D01*
X140089124Y-88184371D01*
X140110068Y-88201663D01*
X140114765Y-88209167D01*
X140124119Y-88225369D01*
X140124121Y-88225372D01*
X140124122Y-88225373D01*
X140196827Y-88298078D01*
X140196828Y-88298079D01*
X140196830Y-88298080D01*
X140208170Y-88304627D01*
X140285872Y-88349488D01*
X140385190Y-88376100D01*
X140385192Y-88376100D01*
X140488008Y-88376100D01*
X140488010Y-88376100D01*
X140587328Y-88349488D01*
X140676373Y-88298078D01*
X140749078Y-88225373D01*
X140800488Y-88136328D01*
X140827100Y-88037010D01*
X140827100Y-87934190D01*
X140800488Y-87834872D01*
X140759679Y-87764188D01*
X140745015Y-87738789D01*
X140746915Y-87737691D01*
X140725863Y-87683241D01*
X140733139Y-87636595D01*
X140731584Y-87636179D01*
X140733688Y-87628328D01*
X140760300Y-87529010D01*
X140760300Y-87426190D01*
X140746741Y-87375587D01*
X140748404Y-87305740D01*
X140778832Y-87255818D01*
X140799878Y-87234773D01*
X140851288Y-87145728D01*
X140877900Y-87046410D01*
X140877900Y-86943590D01*
X140851288Y-86844272D01*
X140805365Y-86764730D01*
X140799880Y-86755230D01*
X140799876Y-86755225D01*
X140727174Y-86682523D01*
X140727169Y-86682519D01*
X140638130Y-86631113D01*
X140638129Y-86631112D01*
X140638128Y-86631112D01*
X140601906Y-86621406D01*
X140542246Y-86585042D01*
X140540077Y-86580577D01*
X140510000Y-86550500D01*
X139824000Y-86550500D01*
X139756961Y-86530815D01*
X139711206Y-86478011D01*
X139700000Y-86426500D01*
X139700000Y-86300500D01*
X139574000Y-86300500D01*
X139506961Y-86280815D01*
X139461206Y-86228011D01*
X139450000Y-86176500D01*
X139450000Y-85435269D01*
X139441718Y-85435921D01*
X139282805Y-85482090D01*
X139282802Y-85482092D01*
X139140357Y-85566333D01*
X139140349Y-85566339D01*
X139023339Y-85683349D01*
X139023333Y-85683357D01*
X138961232Y-85788366D01*
X138910163Y-85836049D01*
X138841422Y-85848553D01*
X138776832Y-85821908D01*
X138736902Y-85764573D01*
X138730500Y-85725245D01*
X138730500Y-84111676D01*
X138750185Y-84044637D01*
X138802989Y-83998882D01*
X138872147Y-83988938D01*
X138935703Y-84017963D01*
X138942181Y-84023995D01*
X138986286Y-84068100D01*
X139100414Y-84133992D01*
X139227708Y-84168100D01*
X139227710Y-84168100D01*
X139359490Y-84168100D01*
X139359492Y-84168100D01*
X139486786Y-84133992D01*
X139600914Y-84068100D01*
X139694100Y-83974914D01*
X139759992Y-83860786D01*
X139794100Y-83733492D01*
X139794100Y-83601708D01*
X139794099Y-83601706D01*
X139793039Y-83593652D01*
X139795177Y-83593370D01*
X139796568Y-83534877D01*
X139835729Y-83477013D01*
X139882585Y-83452855D01*
X139994786Y-83422792D01*
X140108914Y-83356900D01*
X140202100Y-83263714D01*
X140267992Y-83149586D01*
X140302100Y-83022292D01*
X140302100Y-82962033D01*
X140321785Y-82894994D01*
X140374589Y-82849239D01*
X140443747Y-82839295D01*
X140507303Y-82868320D01*
G37*
%TD.AperFunction*%
%TA.AperFunction,Conductor*%
G36*
X133038006Y-82819385D02*
G01*
X133058648Y-82836019D01*
X133521181Y-83298552D01*
X133554666Y-83359875D01*
X133557500Y-83386233D01*
X133557500Y-84063186D01*
X133537815Y-84130225D01*
X133485011Y-84175980D01*
X133415853Y-84185924D01*
X133409310Y-84184804D01*
X133322807Y-84167598D01*
X133068998Y-84167598D01*
X133068998Y-84921598D01*
X132568998Y-84921598D01*
X132568998Y-84167598D01*
X132315183Y-84167598D01*
X132111564Y-84208100D01*
X132111556Y-84208102D01*
X131919745Y-84287553D01*
X131919735Y-84287558D01*
X131747112Y-84402902D01*
X131747108Y-84402905D01*
X131601581Y-84548433D01*
X131540258Y-84581918D01*
X131470566Y-84576934D01*
X131414633Y-84535062D01*
X131390216Y-84469598D01*
X131389900Y-84460752D01*
X131389900Y-84339239D01*
X131389883Y-84339174D01*
X131369421Y-84262811D01*
X131363416Y-84252410D01*
X131329864Y-84194295D01*
X131329858Y-84194287D01*
X130535149Y-83399578D01*
X130501664Y-83338255D01*
X130506648Y-83268563D01*
X130548520Y-83212630D01*
X130613984Y-83188213D01*
X130654924Y-83192122D01*
X130659268Y-83193286D01*
X130659272Y-83193288D01*
X130758590Y-83219900D01*
X130758593Y-83219900D01*
X130861408Y-83219900D01*
X130861410Y-83219900D01*
X130960728Y-83193288D01*
X131049773Y-83141878D01*
X131122478Y-83069173D01*
X131173888Y-82980128D01*
X131197607Y-82891605D01*
X131233972Y-82831946D01*
X131296819Y-82801417D01*
X131317382Y-82799700D01*
X132970967Y-82799700D01*
X133038006Y-82819385D01*
G37*
%TD.AperFunction*%
%TA.AperFunction,Conductor*%
G36*
X130350939Y-78556485D02*
G01*
X130396694Y-78609289D01*
X130407900Y-78660800D01*
X130407900Y-79427767D01*
X130388215Y-79494806D01*
X130371581Y-79515448D01*
X128647522Y-81239506D01*
X128647516Y-81239514D01*
X128607963Y-81308023D01*
X128607960Y-81308028D01*
X128599025Y-81341375D01*
X128587481Y-81384457D01*
X128587481Y-82953543D01*
X128607960Y-83029969D01*
X128607960Y-83029970D01*
X128630632Y-83069240D01*
X128635045Y-83076882D01*
X128645166Y-83094412D01*
X128647523Y-83098495D01*
X128647524Y-83098496D01*
X129504916Y-83955887D01*
X129538401Y-84017210D01*
X129533417Y-84086901D01*
X129491545Y-84142835D01*
X129426081Y-84167252D01*
X129417235Y-84167568D01*
X129068955Y-84167568D01*
X129068955Y-84921568D01*
X128568955Y-84921568D01*
X128568955Y-84167568D01*
X128115140Y-84167568D01*
X127911521Y-84208070D01*
X127911513Y-84208072D01*
X127719702Y-84287523D01*
X127719692Y-84287528D01*
X127547069Y-84402872D01*
X127547065Y-84402875D01*
X127400262Y-84549678D01*
X127300445Y-84699063D01*
X127292787Y-84705462D01*
X127288348Y-84714397D01*
X127266427Y-84727491D01*
X127246832Y-84743867D01*
X127236932Y-84745110D01*
X127228365Y-84750228D01*
X127202841Y-84749392D01*
X127177507Y-84752574D01*
X127168506Y-84748267D01*
X127158533Y-84747941D01*
X127137514Y-84733439D01*
X127114480Y-84722419D01*
X127109235Y-84713929D01*
X127101023Y-84708263D01*
X127091180Y-84684700D01*
X127077761Y-84662975D01*
X127077221Y-84651280D01*
X127074093Y-84643791D01*
X127075247Y-84608525D01*
X127105768Y-84436439D01*
X127106411Y-84433090D01*
X127107094Y-84429776D01*
X127176979Y-84090775D01*
X127177714Y-84087445D01*
X127181760Y-84070249D01*
X127257915Y-83746556D01*
X127258716Y-83743352D01*
X127348187Y-83405422D01*
X127349109Y-83402129D01*
X127362437Y-83356900D01*
X127448073Y-83066297D01*
X127449054Y-83063127D01*
X127557159Y-82730598D01*
X127558256Y-82727380D01*
X127675645Y-82397673D01*
X127676843Y-82394451D01*
X127803210Y-82068422D01*
X127804443Y-82065366D01*
X127939934Y-81742633D01*
X127941259Y-81739595D01*
X128085569Y-81420884D01*
X128086969Y-81417905D01*
X128240053Y-81103305D01*
X128241552Y-81100329D01*
X128401860Y-80792819D01*
X128404327Y-80788319D01*
X128440908Y-80724733D01*
X128754445Y-80179733D01*
X128758008Y-80173916D01*
X129139457Y-79588370D01*
X129143353Y-79582738D01*
X129556306Y-79019562D01*
X129560493Y-79014173D01*
X129915688Y-78582060D01*
X129973464Y-78542771D01*
X130011479Y-78536800D01*
X130283900Y-78536800D01*
X130350939Y-78556485D01*
G37*
%TD.AperFunction*%
%TA.AperFunction,Conductor*%
G36*
X139192825Y-78556485D02*
G01*
X139233172Y-78598799D01*
X139247822Y-78624173D01*
X139320527Y-78696878D01*
X139320528Y-78696879D01*
X139320530Y-78696880D01*
X139344377Y-78710648D01*
X139409572Y-78748288D01*
X139508890Y-78774900D01*
X139508892Y-78774900D01*
X139611708Y-78774900D01*
X139611710Y-78774900D01*
X139711028Y-78748288D01*
X139800073Y-78696878D01*
X139872778Y-78624173D01*
X139887427Y-78598799D01*
X139896113Y-78590517D01*
X139901101Y-78579597D01*
X139920934Y-78566850D01*
X139937994Y-78550585D01*
X139951248Y-78547369D01*
X139959879Y-78541823D01*
X139994814Y-78536800D01*
X140062900Y-78536800D01*
X140129939Y-78556485D01*
X140175694Y-78609289D01*
X140186900Y-78660800D01*
X140186900Y-79698700D01*
X140167215Y-79765739D01*
X140114411Y-79811494D01*
X140062900Y-79822700D01*
X140004190Y-79822700D01*
X139904872Y-79849312D01*
X139904869Y-79849313D01*
X139815830Y-79900719D01*
X139815825Y-79900723D01*
X139743123Y-79973425D01*
X139743119Y-79973430D01*
X139691713Y-80062469D01*
X139691712Y-80062472D01*
X139665100Y-80161790D01*
X139665100Y-80264609D01*
X139691712Y-80363927D01*
X139691713Y-80363930D01*
X139743119Y-80452969D01*
X139743121Y-80452972D01*
X139743122Y-80452973D01*
X139815827Y-80525678D01*
X139815828Y-80525679D01*
X139815830Y-80525680D01*
X139860349Y-80551383D01*
X139904872Y-80577088D01*
X140004190Y-80603700D01*
X140004192Y-80603700D01*
X140062900Y-80603700D01*
X140129939Y-80623385D01*
X140175694Y-80676189D01*
X140186900Y-80727700D01*
X140186900Y-82386150D01*
X140167215Y-82453189D01*
X140114411Y-82498944D01*
X140045253Y-82508888D01*
X140000902Y-82493538D01*
X139994791Y-82490010D01*
X139994788Y-82490009D01*
X139994787Y-82490008D01*
X139994786Y-82490008D01*
X139867492Y-82455900D01*
X139735708Y-82455900D01*
X139608412Y-82490008D01*
X139494286Y-82555900D01*
X139494283Y-82555902D01*
X139401102Y-82649083D01*
X139401100Y-82649086D01*
X139335208Y-82763212D01*
X139301100Y-82890508D01*
X139301100Y-83022290D01*
X139302161Y-83030348D01*
X139300023Y-83030629D01*
X139298625Y-83089139D01*
X139259457Y-83146997D01*
X139212611Y-83171145D01*
X139179962Y-83179893D01*
X139100414Y-83201208D01*
X139100412Y-83201208D01*
X139100412Y-83201209D01*
X138986286Y-83267100D01*
X138986283Y-83267102D01*
X138942181Y-83311205D01*
X138880858Y-83344690D01*
X138811166Y-83339706D01*
X138755233Y-83297834D01*
X138730816Y-83232370D01*
X138730500Y-83223524D01*
X138730500Y-83069240D01*
X138730499Y-83069236D01*
X138730482Y-83069174D01*
X138719978Y-83029969D01*
X138710022Y-82992812D01*
X138670460Y-82924289D01*
X138113594Y-82367423D01*
X138081500Y-82311836D01*
X138057288Y-82221472D01*
X138015904Y-82149793D01*
X138005880Y-82132430D01*
X138005876Y-82132425D01*
X137933174Y-82059723D01*
X137933169Y-82059719D01*
X137844130Y-82008313D01*
X137844129Y-82008312D01*
X137844128Y-82008312D01*
X137744810Y-81981700D01*
X137641990Y-81981700D01*
X137542672Y-82008312D01*
X137542669Y-82008313D01*
X137453630Y-82059719D01*
X137453625Y-82059723D01*
X137380923Y-82132425D01*
X137380919Y-82132430D01*
X137329513Y-82221469D01*
X137329512Y-82221472D01*
X137302900Y-82320790D01*
X137302900Y-82423610D01*
X137329293Y-82522108D01*
X137329512Y-82522927D01*
X137329513Y-82522930D01*
X137380919Y-82611969D01*
X137380921Y-82611972D01*
X137380922Y-82611973D01*
X137453627Y-82684678D01*
X137453628Y-82684679D01*
X137453630Y-82684680D01*
X137465987Y-82691814D01*
X137542672Y-82736088D01*
X137633036Y-82760300D01*
X137688623Y-82792394D01*
X138093181Y-83196952D01*
X138126666Y-83258275D01*
X138129500Y-83284633D01*
X138129500Y-83874937D01*
X138109815Y-83941976D01*
X138057011Y-83987731D01*
X137987853Y-83997675D01*
X137924297Y-83968650D01*
X137898113Y-83936937D01*
X137853480Y-83859630D01*
X137853476Y-83859625D01*
X137780774Y-83786923D01*
X137780769Y-83786919D01*
X137691730Y-83735513D01*
X137691729Y-83735512D01*
X137691728Y-83735512D01*
X137592410Y-83708900D01*
X137489590Y-83708900D01*
X137390272Y-83735512D01*
X137390269Y-83735513D01*
X137309255Y-83782287D01*
X137293766Y-83786437D01*
X137282190Y-83793877D01*
X137247255Y-83798900D01*
X137107233Y-83798900D01*
X137040194Y-83779215D01*
X137019552Y-83762581D01*
X135919743Y-82662772D01*
X135886258Y-82601449D01*
X135891242Y-82531757D01*
X135900032Y-82513100D01*
X135923688Y-82472128D01*
X135950300Y-82372810D01*
X135950300Y-82269990D01*
X135923688Y-82170672D01*
X135872278Y-82081627D01*
X135799573Y-82008922D01*
X135799572Y-82008921D01*
X135799569Y-82008919D01*
X135710530Y-81957513D01*
X135710529Y-81957512D01*
X135710528Y-81957512D01*
X135611210Y-81930900D01*
X135508390Y-81930900D01*
X135409072Y-81957512D01*
X135409069Y-81957513D01*
X135320030Y-82008919D01*
X135320025Y-82008923D01*
X135247323Y-82081625D01*
X135247319Y-82081630D01*
X135195913Y-82170669D01*
X135195912Y-82170672D01*
X135169300Y-82269990D01*
X135169300Y-82372810D01*
X135194140Y-82465512D01*
X135195912Y-82472127D01*
X135195912Y-82472128D01*
X135198825Y-82477173D01*
X135215297Y-82545073D01*
X135192444Y-82611100D01*
X135137522Y-82654290D01*
X135067969Y-82660931D01*
X135005867Y-82628914D01*
X135003756Y-82626853D01*
X133702816Y-81325913D01*
X133702814Y-81325911D01*
X133651450Y-81296256D01*
X133600088Y-81266601D01*
X133587980Y-81263357D01*
X133575873Y-81260113D01*
X133575870Y-81260112D01*
X133537678Y-81249878D01*
X133485509Y-81235900D01*
X133485508Y-81235900D01*
X132364800Y-81235900D01*
X132297761Y-81216215D01*
X132252006Y-81163411D01*
X132240800Y-81111900D01*
X132240800Y-79461933D01*
X132260485Y-79394894D01*
X132277119Y-79374252D01*
X132481260Y-79170111D01*
X132694378Y-78956992D01*
X132749961Y-78924901D01*
X132840328Y-78900688D01*
X132929373Y-78849278D01*
X133002078Y-78776573D01*
X133053488Y-78687528D01*
X133069249Y-78628705D01*
X133105614Y-78569046D01*
X133168462Y-78538517D01*
X133189024Y-78536800D01*
X139125786Y-78536800D01*
X139192825Y-78556485D01*
G37*
%TD.AperFunction*%
%TD*%
M02*
