%TF.GenerationSoftware,KiCad,Pcbnew,(5.1.6)-1*%
%TF.CreationDate,2021-02-23T05:00:00+06:00*%
%TF.ProjectId,Cabinate,43616269-6e61-4746-952e-6b696361645f,rev?*%
%TF.SameCoordinates,Original*%
%TF.FileFunction,Soldermask,Top*%
%TF.FilePolarity,Negative*%
%FSLAX46Y46*%
G04 Gerber Fmt 4.6, Leading zero omitted, Abs format (unit mm)*
G04 Created by KiCad (PCBNEW (5.1.6)-1) date 2021-02-23 05:00:00*
%MOMM*%
%LPD*%
G01*
G04 APERTURE LIST*
%ADD10O,1.900000X3.700000*%
%ADD11C,1.900000*%
%ADD12O,1.700000X1.700000*%
%ADD13C,1.700000*%
%ADD14R,1.600000X1.600000*%
%ADD15C,1.600000*%
%ADD16C,1.300000*%
%ADD17R,1.300000X1.300000*%
%ADD18C,2.100000*%
%ADD19O,2.005000X2.100000*%
%ADD20R,2.005000X2.100000*%
%ADD21O,2.500000X2.500000*%
%ADD22R,2.500000X2.500000*%
%ADD23C,2.500000*%
%ADD24R,1.700000X1.700000*%
%ADD25C,1.981200*%
%ADD26C,3.002280*%
%ADD27C,2.082800*%
%ADD28R,2.082800X2.082800*%
%ADD29O,2.100000X2.005000*%
%ADD30R,2.100000X2.005000*%
%ADD31C,1.540000*%
%ADD32C,1.854200*%
%ADD33R,1.854200X1.854200*%
%ADD34C,3.100000*%
%ADD35C,2.600000*%
%ADD36O,3.700000X1.900000*%
%ADD37C,3.910000*%
%ADD38O,2.500000X1.700000*%
%ADD39R,2.500000X1.700000*%
%ADD40O,1.800000X1.800000*%
%ADD41R,1.800000X1.800000*%
G04 APERTURE END LIST*
D10*
%TO.C,J3*%
X127280000Y-154600000D03*
G36*
G01*
X121250000Y-156186111D02*
X121250000Y-153013889D01*
G75*
G02*
X121513889Y-152750000I263889J0D01*
G01*
X122886111Y-152750000D01*
G75*
G02*
X123150000Y-153013889I0J-263889D01*
G01*
X123150000Y-156186111D01*
G75*
G02*
X122886111Y-156450000I-263889J0D01*
G01*
X121513889Y-156450000D01*
G75*
G02*
X121250000Y-156186111I0J263889D01*
G01*
G37*
%TD*%
D11*
%TO.C,RV2*%
X195900000Y-26400000D03*
X190820000Y-28940000D03*
X183200000Y-26400000D03*
%TD*%
D12*
%TO.C,R23*%
X195800000Y-23020000D03*
D13*
X195800000Y-15400000D03*
%TD*%
D12*
%TO.C,R22*%
X67620000Y-68800000D03*
D13*
X60000000Y-68800000D03*
%TD*%
D12*
%TO.C,R21*%
X57000000Y-61180000D03*
D13*
X57000000Y-68800000D03*
%TD*%
D12*
%TO.C,R20*%
X67620000Y-65600000D03*
D13*
X60000000Y-65600000D03*
%TD*%
D14*
%TO.C,Q5*%
X65000000Y-61200000D03*
D15*
X59920000Y-61200000D03*
X62460000Y-61200000D03*
%TD*%
D16*
%TO.C,C8*%
X176800000Y-26800000D03*
D17*
X176800000Y-28800000D03*
%TD*%
D18*
%TO.C,C7*%
X122600000Y-36400000D03*
X122600000Y-41400000D03*
%TD*%
%TO.C,C6*%
X106800000Y-36200000D03*
X106800000Y-41200000D03*
%TD*%
D19*
%TO.C,U6*%
X117190000Y-39500000D03*
X114650000Y-39500000D03*
D20*
X112110000Y-39500000D03*
%TD*%
D12*
%TO.C,R19*%
X110200000Y-105620000D03*
D13*
X110200000Y-98000000D03*
%TD*%
D21*
%TO.C,D4*%
X178440000Y-121200000D03*
D22*
X188600000Y-121200000D03*
%TD*%
D16*
%TO.C,C5*%
X94600000Y-107400000D03*
D17*
X96600000Y-107400000D03*
%TD*%
D21*
%TO.C,R18*%
X101800000Y-108480000D03*
D23*
X101800000Y-128800000D03*
%TD*%
D12*
%TO.C,R17*%
X96600000Y-128820000D03*
D13*
X96600000Y-121200000D03*
%TD*%
D12*
%TO.C,R16*%
X96600000Y-111180000D03*
D13*
X96600000Y-118800000D03*
%TD*%
D12*
%TO.C,R14*%
X147400000Y-155560000D03*
D13*
X147400000Y-145400000D03*
%TD*%
D12*
%TO.C,R15*%
X150800000Y-155560000D03*
D13*
X150800000Y-145400000D03*
%TD*%
D12*
%TO.C,U5*%
X81000000Y-60020000D03*
X78460000Y-52400000D03*
X78460000Y-60020000D03*
D24*
X81000000Y-52400000D03*
%TD*%
D12*
%TO.C,U4*%
X87200000Y-60020000D03*
X84660000Y-52400000D03*
X84660000Y-60020000D03*
D24*
X87200000Y-52400000D03*
%TD*%
D12*
%TO.C,R13*%
X107000000Y-105620000D03*
D13*
X107000000Y-98000000D03*
%TD*%
D16*
%TO.C,C4*%
X94600000Y-102600000D03*
D17*
X96600000Y-102600000D03*
%TD*%
D12*
%TO.C,R12*%
X144020000Y-37200000D03*
D13*
X136400000Y-37200000D03*
%TD*%
D25*
%TO.C,LS1*%
X137151340Y-45000000D03*
X143648660Y-45000000D03*
%TD*%
D12*
%TO.C,R11*%
X52800000Y-98180000D03*
D13*
X52800000Y-105800000D03*
%TD*%
D26*
%TO.C,LCD1*%
X87899080Y-40501980D03*
X56900920Y-40501980D03*
X87899080Y-115498020D03*
X56900920Y-115498020D03*
D27*
X56900920Y-71901460D03*
X56900920Y-74441460D03*
X56900920Y-76981460D03*
X56900920Y-79518920D03*
X56900920Y-82058920D03*
X56900920Y-84598920D03*
X56900920Y-87138920D03*
X56900920Y-89678920D03*
X56900920Y-92218920D03*
X56900920Y-94758920D03*
X56900920Y-97298920D03*
X56900920Y-99838920D03*
X56900920Y-102378920D03*
X56900920Y-104918920D03*
X56900920Y-107458920D03*
D28*
X56900920Y-109998920D03*
%TD*%
D12*
%TO.C,R10*%
X121200000Y-103780000D03*
D13*
X121200000Y-111400000D03*
%TD*%
D12*
%TO.C,R9*%
X137800000Y-103780000D03*
D13*
X137800000Y-111400000D03*
%TD*%
D12*
%TO.C,R8*%
X124400000Y-103780000D03*
D13*
X124400000Y-111400000D03*
%TD*%
D12*
%TO.C,R7*%
X141200000Y-103780000D03*
D13*
X141200000Y-111400000D03*
%TD*%
D14*
%TO.C,Q4*%
X113000000Y-111400000D03*
D15*
X118080000Y-111400000D03*
X115540000Y-111400000D03*
%TD*%
D14*
%TO.C,Q3*%
X130000000Y-110800000D03*
D15*
X135080000Y-110800000D03*
X132540000Y-110800000D03*
%TD*%
D21*
%TO.C,R6*%
X116400000Y-149520000D03*
D23*
X116400000Y-129200000D03*
%TD*%
D21*
%TO.C,R5*%
X131400000Y-149520000D03*
D23*
X131400000Y-129200000D03*
%TD*%
D29*
%TO.C,Q2*%
X116400000Y-123280000D03*
X116400000Y-120740000D03*
D30*
X116400000Y-118200000D03*
%TD*%
D29*
%TO.C,Q1*%
X131400000Y-123280000D03*
X131400000Y-120740000D03*
D30*
X131400000Y-118200000D03*
%TD*%
D12*
%TO.C,R4*%
X74400000Y-135980000D03*
D13*
X74400000Y-143600000D03*
%TD*%
D31*
%TO.C,RV1*%
X68600000Y-127720000D03*
X68600000Y-130260000D03*
X68600000Y-132800000D03*
%TD*%
D13*
%TO.C,C3*%
X107200000Y-149400000D03*
D24*
X107200000Y-145600000D03*
%TD*%
D12*
%TO.C,D3*%
X104200000Y-134180000D03*
D24*
X104200000Y-141800000D03*
%TD*%
D12*
%TO.C,R3*%
X63000000Y-135900000D03*
D13*
X63000000Y-123200000D03*
%TD*%
D12*
%TO.C,R2*%
X70600000Y-135980000D03*
D13*
X70600000Y-143600000D03*
%TD*%
D32*
%TO.C,C2*%
X70600000Y-148649680D03*
D33*
X70600000Y-146150320D03*
%TD*%
D34*
%TO.C,K6*%
X154600000Y-36600000D03*
D35*
X156550000Y-30650000D03*
D34*
X168800000Y-30600000D03*
X168750000Y-42650000D03*
D35*
X156550000Y-42650000D03*
%TD*%
D34*
%TO.C,K5*%
X154600000Y-54800000D03*
D35*
X156550000Y-48850000D03*
D34*
X168800000Y-48800000D03*
X168750000Y-60850000D03*
D35*
X156550000Y-60850000D03*
%TD*%
D34*
%TO.C,K4*%
X154600000Y-73000000D03*
D35*
X156550000Y-67050000D03*
D34*
X168800000Y-67000000D03*
X168750000Y-79050000D03*
D35*
X156550000Y-79050000D03*
%TD*%
D34*
%TO.C,K3*%
X154400000Y-90800000D03*
D35*
X156350000Y-84850000D03*
D34*
X168600000Y-84800000D03*
X168550000Y-96850000D03*
D35*
X156350000Y-96850000D03*
%TD*%
D34*
%TO.C,K2*%
X154600000Y-112800000D03*
D35*
X156550000Y-106850000D03*
D34*
X168800000Y-106800000D03*
X168750000Y-118850000D03*
D35*
X156550000Y-118850000D03*
%TD*%
D34*
%TO.C,K1*%
X154600000Y-130800000D03*
D35*
X156550000Y-124850000D03*
D34*
X168800000Y-124800000D03*
X168750000Y-136850000D03*
D35*
X156550000Y-136850000D03*
%TD*%
D21*
%TO.C,D2*%
X169240000Y-155600000D03*
D22*
X154000000Y-155600000D03*
%TD*%
D12*
%TO.C,R1*%
X78800000Y-124840000D03*
D13*
X78800000Y-135000000D03*
%TD*%
D36*
%TO.C,J2*%
X192000000Y-35120000D03*
X192000000Y-40200000D03*
X192000000Y-45280000D03*
X192000000Y-50360000D03*
X192000000Y-55440000D03*
X192000000Y-60520000D03*
X192000000Y-65600000D03*
X192000000Y-70680000D03*
X192000000Y-75760000D03*
X192000000Y-80840000D03*
X192000000Y-85920000D03*
G36*
G01*
X193586111Y-91950000D02*
X190413889Y-91950000D01*
G75*
G02*
X190150000Y-91686111I0J263889D01*
G01*
X190150000Y-90313889D01*
G75*
G02*
X190413889Y-90050000I263889J0D01*
G01*
X193586111Y-90050000D01*
G75*
G02*
X193850000Y-90313889I0J-263889D01*
G01*
X193850000Y-91686111D01*
G75*
G02*
X193586111Y-91950000I-263889J0D01*
G01*
G37*
%TD*%
%TO.C,J1*%
X192000000Y-100920000D03*
X192000000Y-106000000D03*
X192000000Y-111080000D03*
X192000000Y-116160000D03*
X192000000Y-121240000D03*
X192000000Y-126320000D03*
X192000000Y-131400000D03*
X192000000Y-136480000D03*
X192000000Y-141560000D03*
X192000000Y-146640000D03*
X192000000Y-151720000D03*
G36*
G01*
X193586111Y-157750000D02*
X190413889Y-157750000D01*
G75*
G02*
X190150000Y-157486111I0J263889D01*
G01*
X190150000Y-156113889D01*
G75*
G02*
X190413889Y-155850000I263889J0D01*
G01*
X193586111Y-155850000D01*
G75*
G02*
X193850000Y-156113889I0J-263889D01*
G01*
X193850000Y-157486111D01*
G75*
G02*
X193586111Y-157750000I-263889J0D01*
G01*
G37*
%TD*%
D12*
%TO.C,D1*%
X78800000Y-149420000D03*
D24*
X78800000Y-141800000D03*
%TD*%
D18*
%TO.C,C1*%
X74400000Y-133000000D03*
X74400000Y-128000000D03*
%TD*%
D37*
%TO.C,TX1*%
X97750000Y-149420000D03*
X85050000Y-149420000D03*
X97750000Y-134180000D03*
X85050000Y-134180000D03*
X97750000Y-144340000D03*
X85050000Y-144340000D03*
X97750000Y-139260000D03*
X85050000Y-139260000D03*
%TD*%
D29*
%TO.C,U3*%
X66000000Y-139780000D03*
X66000000Y-142320000D03*
X66000000Y-144860000D03*
D30*
X66000000Y-147400000D03*
%TD*%
D38*
%TO.C,U2*%
X145420000Y-68600000D03*
X137800000Y-86380000D03*
X145420000Y-71140000D03*
X137800000Y-83840000D03*
X145420000Y-73680000D03*
X137800000Y-81300000D03*
X145420000Y-76220000D03*
X137800000Y-78760000D03*
X145420000Y-78760000D03*
X137800000Y-76220000D03*
X145420000Y-81300000D03*
X137800000Y-73680000D03*
X145420000Y-83840000D03*
X137800000Y-71140000D03*
X145420000Y-86380000D03*
D39*
X137800000Y-68600000D03*
%TD*%
D40*
%TO.C,U1*%
X109460000Y-94830000D03*
X119620000Y-92290000D03*
X119620000Y-94830000D03*
X117080000Y-92290000D03*
X117080000Y-94830000D03*
X114540000Y-92290000D03*
X114540000Y-94830000D03*
X112000000Y-92290000D03*
X112000000Y-94830000D03*
X109460000Y-92290000D03*
X106920000Y-92290000D03*
X106920000Y-94830000D03*
X104380000Y-94830000D03*
X101840000Y-92290000D03*
X101840000Y-94830000D03*
X104380000Y-92290000D03*
X94220000Y-66890000D03*
X96760000Y-66890000D03*
X94220000Y-69430000D03*
X96760000Y-69430000D03*
X94220000Y-71970000D03*
X96760000Y-71970000D03*
X94220000Y-74510000D03*
X96760000Y-74510000D03*
X94220000Y-77050000D03*
X96760000Y-77050000D03*
X94220000Y-79590000D03*
X96760000Y-79590000D03*
X94220000Y-82130000D03*
X96760000Y-82130000D03*
X94220000Y-84670000D03*
X96760000Y-84670000D03*
X127240000Y-84670000D03*
D41*
X124700000Y-84670000D03*
D40*
X127240000Y-82130000D03*
X124700000Y-82130000D03*
X127240000Y-79590000D03*
X124700000Y-79590000D03*
X127240000Y-77050000D03*
X124700000Y-77050000D03*
X127240000Y-74510000D03*
X124700000Y-74510000D03*
X127240000Y-71970000D03*
X124700000Y-71970000D03*
X127240000Y-69430000D03*
X124700000Y-69430000D03*
X127240000Y-66890000D03*
X124700000Y-66890000D03*
X104380000Y-54190000D03*
X101840000Y-56730000D03*
X101840000Y-54190000D03*
X104380000Y-56730000D03*
X106920000Y-56730000D03*
X106920000Y-54190000D03*
X109460000Y-56730000D03*
X109460000Y-54190000D03*
X112000000Y-56730000D03*
X112000000Y-54190000D03*
X114540000Y-56730000D03*
X114540000Y-54190000D03*
X117080000Y-56730000D03*
X117080000Y-54190000D03*
X119620000Y-56730000D03*
X119620000Y-54190000D03*
%TD*%
M02*
