%TF.GenerationSoftware,KiCad,Pcbnew,(5.1.6)-1*%
%TF.CreationDate,2021-02-23T05:00:00+06:00*%
%TF.ProjectId,Cabinate,43616269-6e61-4746-952e-6b696361645f,rev?*%
%TF.SameCoordinates,Original*%
%TF.FileFunction,Copper,L1,Top*%
%TF.FilePolarity,Positive*%
%FSLAX46Y46*%
G04 Gerber Fmt 4.6, Leading zero omitted, Abs format (unit mm)*
G04 Created by KiCad (PCBNEW (5.1.6)-1) date 2021-02-23 05:00:00*
%MOMM*%
%LPD*%
G01*
G04 APERTURE LIST*
%TA.AperFunction,ComponentPad*%
%ADD10O,1.800000X3.600000*%
%TD*%
%TA.AperFunction,ComponentPad*%
%ADD11C,1.800000*%
%TD*%
%TA.AperFunction,ComponentPad*%
%ADD12O,1.600000X1.600000*%
%TD*%
%TA.AperFunction,ComponentPad*%
%ADD13C,1.600000*%
%TD*%
%TA.AperFunction,ComponentPad*%
%ADD14R,1.500000X1.500000*%
%TD*%
%TA.AperFunction,ComponentPad*%
%ADD15C,1.500000*%
%TD*%
%TA.AperFunction,ComponentPad*%
%ADD16C,1.200000*%
%TD*%
%TA.AperFunction,ComponentPad*%
%ADD17R,1.200000X1.200000*%
%TD*%
%TA.AperFunction,ComponentPad*%
%ADD18C,2.000000*%
%TD*%
%TA.AperFunction,ComponentPad*%
%ADD19O,1.905000X2.000000*%
%TD*%
%TA.AperFunction,ComponentPad*%
%ADD20R,1.905000X2.000000*%
%TD*%
%TA.AperFunction,ComponentPad*%
%ADD21O,2.400000X2.400000*%
%TD*%
%TA.AperFunction,ComponentPad*%
%ADD22R,2.400000X2.400000*%
%TD*%
%TA.AperFunction,ComponentPad*%
%ADD23C,2.400000*%
%TD*%
%TA.AperFunction,ComponentPad*%
%ADD24R,1.600000X1.600000*%
%TD*%
%TA.AperFunction,ComponentPad*%
%ADD25C,1.778000*%
%TD*%
%TA.AperFunction,ComponentPad*%
%ADD26C,1.879600*%
%TD*%
%TA.AperFunction,ComponentPad*%
%ADD27R,1.879600X1.879600*%
%TD*%
%TA.AperFunction,ComponentPad*%
%ADD28O,2.000000X1.905000*%
%TD*%
%TA.AperFunction,ComponentPad*%
%ADD29R,2.000000X1.905000*%
%TD*%
%TA.AperFunction,ComponentPad*%
%ADD30C,1.440000*%
%TD*%
%TA.AperFunction,ComponentPad*%
%ADD31C,1.651000*%
%TD*%
%TA.AperFunction,ComponentPad*%
%ADD32R,1.651000X1.651000*%
%TD*%
%TA.AperFunction,ComponentPad*%
%ADD33C,3.000000*%
%TD*%
%TA.AperFunction,ComponentPad*%
%ADD34C,2.500000*%
%TD*%
%TA.AperFunction,ComponentPad*%
%ADD35O,3.600000X1.800000*%
%TD*%
%TA.AperFunction,ComponentPad*%
%ADD36C,3.810000*%
%TD*%
%TA.AperFunction,ComponentPad*%
%ADD37O,2.400000X1.600000*%
%TD*%
%TA.AperFunction,ComponentPad*%
%ADD38R,2.400000X1.600000*%
%TD*%
%TA.AperFunction,ComponentPad*%
%ADD39O,1.700000X1.700000*%
%TD*%
%TA.AperFunction,ComponentPad*%
%ADD40R,1.700000X1.700000*%
%TD*%
%TA.AperFunction,ViaPad*%
%ADD41C,2.500000*%
%TD*%
%TA.AperFunction,ViaPad*%
%ADD42C,2.000000*%
%TD*%
%TA.AperFunction,Conductor*%
%ADD43C,1.000000*%
%TD*%
%TA.AperFunction,Conductor*%
%ADD44C,0.500000*%
%TD*%
%TA.AperFunction,Conductor*%
%ADD45C,0.800000*%
%TD*%
%TA.AperFunction,Conductor*%
%ADD46C,1.200000*%
%TD*%
%TA.AperFunction,Conductor*%
%ADD47C,0.300000*%
%TD*%
G04 APERTURE END LIST*
D10*
%TO.P,J3,2*%
%TO.N,GND*%
X127280000Y-154600000D03*
%TO.P,J3,1*%
%TO.N,Net-(J1-Pad1)*%
%TA.AperFunction,ComponentPad*%
G36*
G01*
X121300000Y-156150000D02*
X121300000Y-153050000D01*
G75*
G02*
X121550000Y-152800000I250000J0D01*
G01*
X122850000Y-152800000D01*
G75*
G02*
X123100000Y-153050000I0J-250000D01*
G01*
X123100000Y-156150000D01*
G75*
G02*
X122850000Y-156400000I-250000J0D01*
G01*
X121550000Y-156400000D01*
G75*
G02*
X121300000Y-156150000I0J250000D01*
G01*
G37*
%TD.AperFunction*%
%TD*%
D11*
%TO.P,RV2,3*%
%TO.N,Net-(R23-Pad2)*%
X195900000Y-26400000D03*
%TO.P,RV2,2*%
%TO.N,VBat*%
X190820000Y-28940000D03*
%TO.P,RV2,1*%
%TO.N,GND*%
X183200000Y-26400000D03*
%TD*%
D12*
%TO.P,R23,2*%
%TO.N,Net-(R23-Pad2)*%
X195800000Y-23020000D03*
D13*
%TO.P,R23,1*%
%TO.N,48V*%
X195800000Y-15400000D03*
%TD*%
D12*
%TO.P,R22,2*%
%TO.N,GND*%
X67620000Y-68800000D03*
D13*
%TO.P,R22,1*%
%TO.N,LED-*%
X60000000Y-68800000D03*
%TD*%
D12*
%TO.P,R21,2*%
%TO.N,Net-(Q5-Pad3)*%
X57000000Y-61180000D03*
D13*
%TO.P,R21,1*%
%TO.N,LED-*%
X57000000Y-68800000D03*
%TD*%
D12*
%TO.P,R20,2*%
%TO.N,BKLED*%
X67620000Y-65600000D03*
D13*
%TO.P,R20,1*%
%TO.N,Net-(Q5-Pad2)*%
X60000000Y-65600000D03*
%TD*%
D14*
%TO.P,Q5,1*%
%TO.N,GND*%
X65000000Y-61200000D03*
D15*
%TO.P,Q5,3*%
%TO.N,Net-(Q5-Pad3)*%
X59920000Y-61200000D03*
%TO.P,Q5,2*%
%TO.N,Net-(Q5-Pad2)*%
X62460000Y-61200000D03*
%TD*%
D16*
%TO.P,C8,2*%
%TO.N,GND*%
X176800000Y-26800000D03*
D17*
%TO.P,C8,1*%
%TO.N,VBat*%
X176800000Y-28800000D03*
%TD*%
D18*
%TO.P,C7,2*%
%TO.N,GND*%
X122600000Y-36400000D03*
%TO.P,C7,1*%
%TO.N,VCC*%
X122600000Y-41400000D03*
%TD*%
%TO.P,C6,2*%
%TO.N,GND*%
X106800000Y-36200000D03*
%TO.P,C6,1*%
%TO.N,+12V*%
X106800000Y-41200000D03*
%TD*%
D19*
%TO.P,U6,3*%
%TO.N,VCC*%
X117190000Y-39500000D03*
%TO.P,U6,2*%
%TO.N,GND*%
X114650000Y-39500000D03*
D20*
%TO.P,U6,1*%
%TO.N,+12V*%
X112110000Y-39500000D03*
%TD*%
D12*
%TO.P,R19,2*%
%TO.N,S2*%
X110200000Y-105620000D03*
D13*
%TO.P,R19,1*%
%TO.N,ADC5*%
X110200000Y-98000000D03*
%TD*%
D21*
%TO.P,D4,2*%
%TO.N,+12V*%
X178440000Y-121200000D03*
D22*
%TO.P,D4,1*%
%TO.N,Net-(D4-Pad1)*%
X188600000Y-121200000D03*
%TD*%
D16*
%TO.P,C5,2*%
%TO.N,GND*%
X94600000Y-107400000D03*
D17*
%TO.P,C5,1*%
%TO.N,ADC5*%
X96600000Y-107400000D03*
%TD*%
D21*
%TO.P,R18,2*%
%TO.N,GND*%
X101800000Y-108480000D03*
D23*
%TO.P,R18,1*%
%TO.N,FIRE*%
X101800000Y-128800000D03*
%TD*%
D12*
%TO.P,R17,2*%
%TO.N,FIRE*%
X96600000Y-128820000D03*
D13*
%TO.P,R17,1*%
%TO.N,ADC3*%
X96600000Y-121200000D03*
%TD*%
D12*
%TO.P,R16,2*%
%TO.N,GND*%
X96600000Y-111180000D03*
D13*
%TO.P,R16,1*%
%TO.N,ADC3*%
X96600000Y-118800000D03*
%TD*%
D12*
%TO.P,R14,2*%
%TO.N,+48V*%
X147400000Y-155560000D03*
D13*
%TO.P,R14,1*%
%TO.N,Net-(J1-Pad11)*%
X147400000Y-145400000D03*
%TD*%
D12*
%TO.P,R15,2*%
%TO.N,+48V*%
X150800000Y-155560000D03*
D13*
%TO.P,R15,1*%
%TO.N,Net-(J1-Pad9)*%
X150800000Y-145400000D03*
%TD*%
D12*
%TO.P,U5,4*%
%TO.N,WATERT*%
X81000000Y-60020000D03*
%TO.P,U5,2*%
%TO.N,GND*%
X78460000Y-52400000D03*
%TO.P,U5,3*%
X78460000Y-60020000D03*
D24*
%TO.P,U5,1*%
%TO.N,WATER*%
X81000000Y-52400000D03*
%TD*%
D12*
%TO.P,U4,4*%
%TO.N,DOORT*%
X87200000Y-60020000D03*
%TO.P,U4,2*%
%TO.N,GND*%
X84660000Y-52400000D03*
%TO.P,U4,3*%
X84660000Y-60020000D03*
D24*
%TO.P,U4,1*%
%TO.N,DOOR*%
X87200000Y-52400000D03*
%TD*%
D12*
%TO.P,R13,2*%
%TO.N,S1*%
X107000000Y-105620000D03*
D13*
%TO.P,R13,1*%
%TO.N,ADC7*%
X107000000Y-98000000D03*
%TD*%
D16*
%TO.P,C4,2*%
%TO.N,GND*%
X94600000Y-102600000D03*
D17*
%TO.P,C4,1*%
%TO.N,ADC7*%
X96600000Y-102600000D03*
%TD*%
D12*
%TO.P,R12,2*%
%TO.N,Net-(R12-Pad2)*%
X144020000Y-37200000D03*
D13*
%TO.P,R12,1*%
%TO.N,Net-(LS1-Pad-)*%
X136400000Y-37200000D03*
%TD*%
D25*
%TO.P,LS1,-*%
%TO.N,Net-(LS1-Pad-)*%
X137151340Y-45000000D03*
%TO.P,LS1,+*%
%TO.N,+12V*%
X143648660Y-45000000D03*
%TD*%
D12*
%TO.P,R11,2*%
%TO.N,GND*%
X52800000Y-98180000D03*
D13*
%TO.P,R11,1*%
%TO.N,Net-(LCD1-Pad3)*%
X52800000Y-105800000D03*
%TD*%
D26*
%TO.P,LCD1,16*%
%TO.N,LED-*%
X56900920Y-71901460D03*
%TO.P,LCD1,15*%
%TO.N,VCC*%
X56900920Y-74441460D03*
%TO.P,LCD1,14*%
%TO.N,D7*%
X56900920Y-76981460D03*
%TO.P,LCD1,13*%
%TO.N,D6*%
X56900920Y-79518920D03*
%TO.P,LCD1,12*%
%TO.N,D5*%
X56900920Y-82058920D03*
%TO.P,LCD1,11*%
%TO.N,D4*%
X56900920Y-84598920D03*
%TO.P,LCD1,10*%
%TO.N,N/C*%
X56900920Y-87138920D03*
%TO.P,LCD1,9*%
X56900920Y-89678920D03*
%TO.P,LCD1,8*%
X56900920Y-92218920D03*
%TO.P,LCD1,7*%
X56900920Y-94758920D03*
%TO.P,LCD1,6*%
%TO.N,E*%
X56900920Y-97298920D03*
%TO.P,LCD1,5*%
%TO.N,GND*%
X56900920Y-99838920D03*
%TO.P,LCD1,4*%
%TO.N,RS*%
X56900920Y-102378920D03*
%TO.P,LCD1,3*%
%TO.N,Net-(LCD1-Pad3)*%
X56900920Y-104918920D03*
%TO.P,LCD1,2*%
%TO.N,VCC*%
X56900920Y-107458920D03*
D27*
%TO.P,LCD1,1*%
%TO.N,GND*%
X56900920Y-109998920D03*
%TD*%
D12*
%TO.P,R10,2*%
%TO.N,+12V*%
X121200000Y-103780000D03*
D13*
%TO.P,R10,1*%
%TO.N,Net-(Q2-Pad1)*%
X121200000Y-111400000D03*
%TD*%
D12*
%TO.P,R9,2*%
%TO.N,+12V*%
X137800000Y-103780000D03*
D13*
%TO.P,R9,1*%
%TO.N,Net-(Q1-Pad1)*%
X137800000Y-111400000D03*
%TD*%
D12*
%TO.P,R8,2*%
%TO.N,~FAN1*%
X124400000Y-103780000D03*
D13*
%TO.P,R8,1*%
%TO.N,Net-(Q4-Pad2)*%
X124400000Y-111400000D03*
%TD*%
D12*
%TO.P,R7,2*%
%TO.N,~FAN2*%
X141200000Y-103780000D03*
D13*
%TO.P,R7,1*%
%TO.N,Net-(Q3-Pad2)*%
X141200000Y-111400000D03*
%TD*%
D14*
%TO.P,Q4,1*%
%TO.N,GND*%
X113000000Y-111400000D03*
D15*
%TO.P,Q4,3*%
%TO.N,Net-(Q2-Pad1)*%
X118080000Y-111400000D03*
%TO.P,Q4,2*%
%TO.N,Net-(Q4-Pad2)*%
X115540000Y-111400000D03*
%TD*%
D14*
%TO.P,Q3,1*%
%TO.N,GND*%
X130000000Y-110800000D03*
D15*
%TO.P,Q3,3*%
%TO.N,Net-(Q1-Pad1)*%
X135080000Y-110800000D03*
%TO.P,Q3,2*%
%TO.N,Net-(Q3-Pad2)*%
X132540000Y-110800000D03*
%TD*%
D21*
%TO.P,R6,2*%
%TO.N,GND*%
X116400000Y-149520000D03*
D23*
%TO.P,R6,1*%
%TO.N,S2*%
X116400000Y-129200000D03*
%TD*%
D21*
%TO.P,R5,2*%
%TO.N,GND*%
X131400000Y-149520000D03*
D23*
%TO.P,R5,1*%
%TO.N,S1*%
X131400000Y-129200000D03*
%TD*%
D28*
%TO.P,Q2,3*%
%TO.N,S2*%
X116400000Y-123280000D03*
%TO.P,Q2,2*%
%TO.N,F2*%
X116400000Y-120740000D03*
D29*
%TO.P,Q2,1*%
%TO.N,Net-(Q2-Pad1)*%
X116400000Y-118200000D03*
%TD*%
D28*
%TO.P,Q1,3*%
%TO.N,S1*%
X131400000Y-123280000D03*
%TO.P,Q1,2*%
%TO.N,F1*%
X131400000Y-120740000D03*
D29*
%TO.P,Q1,1*%
%TO.N,Net-(Q1-Pad1)*%
X131400000Y-118200000D03*
%TD*%
D12*
%TO.P,R4,2*%
%TO.N,Net-(R4-Pad2)*%
X74400000Y-135980000D03*
D13*
%TO.P,R4,1*%
%TO.N,GND*%
X74400000Y-143600000D03*
%TD*%
D30*
%TO.P,RV1,3*%
%TO.N,+12V*%
X68600000Y-127720000D03*
%TO.P,RV1,2*%
%TO.N,Net-(R2-Pad2)*%
X68600000Y-130260000D03*
%TO.P,RV1,1*%
%TO.N,Net-(R4-Pad2)*%
X68600000Y-132800000D03*
%TD*%
D13*
%TO.P,C3,2*%
%TO.N,GND*%
X107200000Y-149400000D03*
D24*
%TO.P,C3,1*%
%TO.N,+12V*%
X107200000Y-145600000D03*
%TD*%
D12*
%TO.P,D3,2*%
%TO.N,Net-(D3-Pad2)*%
X104200000Y-134180000D03*
D24*
%TO.P,D3,1*%
%TO.N,+12V*%
X104200000Y-141800000D03*
%TD*%
D12*
%TO.P,R3,2*%
%TO.N,+12V*%
X63000000Y-135900000D03*
D13*
%TO.P,R3,1*%
%TO.N,+48V*%
X63000000Y-123200000D03*
%TD*%
D12*
%TO.P,R2,2*%
%TO.N,Net-(R2-Pad2)*%
X70600000Y-135980000D03*
D13*
%TO.P,R2,1*%
%TO.N,+12V*%
X70600000Y-143600000D03*
%TD*%
D31*
%TO.P,C2,2*%
%TO.N,GND*%
X70600000Y-148649680D03*
D32*
%TO.P,C2,1*%
%TO.N,+12V*%
X70600000Y-146150320D03*
%TD*%
D33*
%TO.P,K6,1*%
%TO.N,Net-(J2-Pad12)*%
X154600000Y-36600000D03*
D34*
%TO.P,K6,5*%
%TO.N,+12V*%
X156550000Y-30650000D03*
D33*
%TO.P,K6,4*%
%TO.N,N/C*%
X168800000Y-30600000D03*
%TO.P,K6,3*%
%TO.N,Net-(J2-Pad11)*%
X168750000Y-42650000D03*
D34*
%TO.P,K6,2*%
%TO.N,REL6*%
X156550000Y-42650000D03*
%TD*%
D33*
%TO.P,K5,1*%
%TO.N,Net-(J2-Pad10)*%
X154600000Y-54800000D03*
D34*
%TO.P,K5,5*%
%TO.N,+12V*%
X156550000Y-48850000D03*
D33*
%TO.P,K5,4*%
%TO.N,N/C*%
X168800000Y-48800000D03*
%TO.P,K5,3*%
%TO.N,Net-(J2-Pad9)*%
X168750000Y-60850000D03*
D34*
%TO.P,K5,2*%
%TO.N,REL5*%
X156550000Y-60850000D03*
%TD*%
D33*
%TO.P,K4,1*%
%TO.N,Net-(J2-Pad8)*%
X154600000Y-73000000D03*
D34*
%TO.P,K4,5*%
%TO.N,+12V*%
X156550000Y-67050000D03*
D33*
%TO.P,K4,4*%
%TO.N,N/C*%
X168800000Y-67000000D03*
%TO.P,K4,3*%
%TO.N,Net-(J2-Pad7)*%
X168750000Y-79050000D03*
D34*
%TO.P,K4,2*%
%TO.N,REL4*%
X156550000Y-79050000D03*
%TD*%
D33*
%TO.P,K3,1*%
%TO.N,Net-(J2-Pad6)*%
X154400000Y-90800000D03*
D34*
%TO.P,K3,5*%
%TO.N,+12V*%
X156350000Y-84850000D03*
D33*
%TO.P,K3,4*%
%TO.N,N/C*%
X168600000Y-84800000D03*
%TO.P,K3,3*%
%TO.N,Net-(J2-Pad5)*%
X168550000Y-96850000D03*
D34*
%TO.P,K3,2*%
%TO.N,REL3*%
X156350000Y-96850000D03*
%TD*%
D33*
%TO.P,K2,1*%
%TO.N,Net-(J2-Pad4)*%
X154600000Y-112800000D03*
D34*
%TO.P,K2,5*%
%TO.N,+12V*%
X156550000Y-106850000D03*
D33*
%TO.P,K2,4*%
%TO.N,N/C*%
X168800000Y-106800000D03*
%TO.P,K2,3*%
%TO.N,Net-(J2-Pad3)*%
X168750000Y-118850000D03*
D34*
%TO.P,K2,2*%
%TO.N,REL2*%
X156550000Y-118850000D03*
%TD*%
D33*
%TO.P,K1,1*%
%TO.N,Net-(J2-Pad2)*%
X154600000Y-130800000D03*
D34*
%TO.P,K1,5*%
%TO.N,+12V*%
X156550000Y-124850000D03*
D33*
%TO.P,K1,4*%
%TO.N,N/C*%
X168800000Y-124800000D03*
%TO.P,K1,3*%
%TO.N,Net-(J2-Pad1)*%
X168750000Y-136850000D03*
D34*
%TO.P,K1,2*%
%TO.N,REL1*%
X156550000Y-136850000D03*
%TD*%
D21*
%TO.P,D2,2*%
%TO.N,48V*%
X169240000Y-155600000D03*
D22*
%TO.P,D2,1*%
%TO.N,+48V*%
X154000000Y-155600000D03*
%TD*%
D12*
%TO.P,R1,2*%
%TO.N,+48V*%
X78800000Y-124840000D03*
D13*
%TO.P,R1,1*%
%TO.N,Net-(C1-Pad2)*%
X78800000Y-135000000D03*
%TD*%
D35*
%TO.P,J2,12*%
%TO.N,Net-(J2-Pad12)*%
X192000000Y-35120000D03*
%TO.P,J2,11*%
%TO.N,Net-(J2-Pad11)*%
X192000000Y-40200000D03*
%TO.P,J2,10*%
%TO.N,Net-(J2-Pad10)*%
X192000000Y-45280000D03*
%TO.P,J2,9*%
%TO.N,Net-(J2-Pad9)*%
X192000000Y-50360000D03*
%TO.P,J2,8*%
%TO.N,Net-(J2-Pad8)*%
X192000000Y-55440000D03*
%TO.P,J2,7*%
%TO.N,Net-(J2-Pad7)*%
X192000000Y-60520000D03*
%TO.P,J2,6*%
%TO.N,Net-(J2-Pad6)*%
X192000000Y-65600000D03*
%TO.P,J2,5*%
%TO.N,Net-(J2-Pad5)*%
X192000000Y-70680000D03*
%TO.P,J2,4*%
%TO.N,Net-(J2-Pad4)*%
X192000000Y-75760000D03*
%TO.P,J2,3*%
%TO.N,Net-(J2-Pad3)*%
X192000000Y-80840000D03*
%TO.P,J2,2*%
%TO.N,Net-(J2-Pad2)*%
X192000000Y-85920000D03*
%TO.P,J2,1*%
%TO.N,Net-(J2-Pad1)*%
%TA.AperFunction,ComponentPad*%
G36*
G01*
X193550000Y-91900000D02*
X190450000Y-91900000D01*
G75*
G02*
X190200000Y-91650000I0J250000D01*
G01*
X190200000Y-90350000D01*
G75*
G02*
X190450000Y-90100000I250000J0D01*
G01*
X193550000Y-90100000D01*
G75*
G02*
X193800000Y-90350000I0J-250000D01*
G01*
X193800000Y-91650000D01*
G75*
G02*
X193550000Y-91900000I-250000J0D01*
G01*
G37*
%TD.AperFunction*%
%TD*%
%TO.P,J1,12*%
%TO.N,WATER*%
X192000000Y-100920000D03*
%TO.P,J1,11*%
%TO.N,Net-(J1-Pad11)*%
X192000000Y-106000000D03*
%TO.P,J1,10*%
%TO.N,DOOR*%
X192000000Y-111080000D03*
%TO.P,J1,9*%
%TO.N,Net-(J1-Pad9)*%
X192000000Y-116160000D03*
%TO.P,J1,8*%
%TO.N,Net-(D4-Pad1)*%
X192000000Y-121240000D03*
%TO.P,J1,7*%
%TO.N,FIRE*%
X192000000Y-126320000D03*
%TO.P,J1,6*%
%TO.N,48V*%
X192000000Y-131400000D03*
%TO.P,J1,5*%
%TO.N,F2*%
X192000000Y-136480000D03*
%TO.P,J1,4*%
%TO.N,48V*%
X192000000Y-141560000D03*
%TO.P,J1,3*%
%TO.N,F1*%
X192000000Y-146640000D03*
%TO.P,J1,2*%
%TO.N,48V*%
X192000000Y-151720000D03*
%TO.P,J1,1*%
%TO.N,Net-(J1-Pad1)*%
%TA.AperFunction,ComponentPad*%
G36*
G01*
X193550000Y-157700000D02*
X190450000Y-157700000D01*
G75*
G02*
X190200000Y-157450000I0J250000D01*
G01*
X190200000Y-156150000D01*
G75*
G02*
X190450000Y-155900000I250000J0D01*
G01*
X193550000Y-155900000D01*
G75*
G02*
X193800000Y-156150000I0J-250000D01*
G01*
X193800000Y-157450000D01*
G75*
G02*
X193550000Y-157700000I-250000J0D01*
G01*
G37*
%TD.AperFunction*%
%TD*%
D12*
%TO.P,D1,2*%
%TO.N,Net-(D1-Pad2)*%
X78800000Y-149420000D03*
D24*
%TO.P,D1,1*%
%TO.N,Net-(C1-Pad2)*%
X78800000Y-141800000D03*
%TD*%
D18*
%TO.P,C1,2*%
%TO.N,Net-(C1-Pad2)*%
X74400000Y-133000000D03*
%TO.P,C1,1*%
%TO.N,+48V*%
X74400000Y-128000000D03*
%TD*%
D36*
%TO.P,TX1,P$5*%
%TO.N,GND*%
X97750000Y-149420000D03*
%TO.P,TX1,P$4*%
%TO.N,Net-(D1-Pad2)*%
X85050000Y-149420000D03*
%TO.P,TX1,P$8*%
%TO.N,Net-(D3-Pad2)*%
X97750000Y-134180000D03*
%TO.P,TX1,P$1*%
%TO.N,+48V*%
X85050000Y-134180000D03*
%TO.P,TX1,P$6*%
%TO.N,+12V*%
X97750000Y-144340000D03*
%TO.P,TX1,P$3*%
%TO.N,GND*%
X85050000Y-144340000D03*
%TO.P,TX1,P$7*%
%TO.N,+48V*%
X97750000Y-139260000D03*
%TO.P,TX1,P$2*%
%TO.N,+12V*%
X85050000Y-139260000D03*
%TD*%
D28*
%TO.P,U3,4*%
%TO.N,Net-(R2-Pad2)*%
X66000000Y-139780000D03*
%TO.P,U3,3*%
%TO.N,+12V*%
X66000000Y-142320000D03*
%TO.P,U3,2*%
%TO.N,Net-(D1-Pad2)*%
X66000000Y-144860000D03*
D29*
%TO.P,U3,1*%
%TO.N,GND*%
X66000000Y-147400000D03*
%TD*%
D37*
%TO.P,U2,16*%
%TO.N,Net-(R12-Pad2)*%
X145420000Y-68600000D03*
%TO.P,U2,8*%
%TO.N,GND*%
X137800000Y-86380000D03*
%TO.P,U2,15*%
%TO.N,REL6*%
X145420000Y-71140000D03*
%TO.P,U2,7*%
%TO.N,Net-(U1-Pad5)*%
X137800000Y-83840000D03*
%TO.P,U2,14*%
%TO.N,REL5*%
X145420000Y-73680000D03*
%TO.P,U2,6*%
%TO.N,Net-(U1-Pad4)*%
X137800000Y-81300000D03*
%TO.P,U2,13*%
%TO.N,REL4*%
X145420000Y-76220000D03*
%TO.P,U2,5*%
%TO.N,Net-(U1-Pad6)*%
X137800000Y-78760000D03*
%TO.P,U2,12*%
%TO.N,REL3*%
X145420000Y-78760000D03*
%TO.P,U2,4*%
%TO.N,Net-(U1-Pad8)*%
X137800000Y-76220000D03*
%TO.P,U2,11*%
%TO.N,REL2*%
X145420000Y-81300000D03*
%TO.P,U2,3*%
%TO.N,10*%
X137800000Y-73680000D03*
%TO.P,U2,10*%
%TO.N,REL1*%
X145420000Y-83840000D03*
%TO.P,U2,2*%
%TO.N,12*%
X137800000Y-71140000D03*
%TO.P,U2,9*%
%TO.N,+12V*%
X145420000Y-86380000D03*
D38*
%TO.P,U2,1*%
%TO.N,13*%
X137800000Y-68600000D03*
%TD*%
D39*
%TO.P,U1,56*%
%TO.N,ADC5*%
X109460000Y-94830000D03*
%TO.P,U1,63*%
%TO.N,GND*%
X119620000Y-92290000D03*
%TO.P,U1,64*%
%TO.N,VCC*%
X119620000Y-94830000D03*
%TO.P,U1,61*%
%TO.N,VBat*%
X117080000Y-92290000D03*
%TO.P,U1,62*%
%TO.N,N/C*%
X117080000Y-94830000D03*
%TO.P,U1,59*%
%TO.N,~FAN2*%
X114540000Y-92290000D03*
%TO.P,U1,60*%
%TO.N,~FAN1*%
X114540000Y-94830000D03*
%TO.P,U1,57*%
%TO.N,DOORT*%
X112000000Y-92290000D03*
%TO.P,U1,58*%
%TO.N,ADC3*%
X112000000Y-94830000D03*
%TO.P,U1,55*%
%TO.N,WATERT*%
X109460000Y-92290000D03*
%TO.P,U1,53*%
%TO.N,GND*%
X106920000Y-92290000D03*
%TO.P,U1,54*%
%TO.N,ADC7*%
X106920000Y-94830000D03*
%TO.P,U1,52*%
%TO.N,VCC*%
X104380000Y-94830000D03*
%TO.P,U1,49*%
%TO.N,RS*%
X101840000Y-92290000D03*
%TO.P,U1,50*%
%TO.N,N/C*%
X101840000Y-94830000D03*
%TO.P,U1,51*%
%TO.N,E*%
X104380000Y-92290000D03*
%TO.P,U1,34*%
%TO.N,N/C*%
X94220000Y-66890000D03*
%TO.P,U1,33*%
X96760000Y-66890000D03*
%TO.P,U1,36*%
X94220000Y-69430000D03*
%TO.P,U1,35*%
X96760000Y-69430000D03*
%TO.P,U1,38*%
X94220000Y-71970000D03*
%TO.P,U1,37*%
X96760000Y-71970000D03*
%TO.P,U1,40*%
%TO.N,BKLED*%
X94220000Y-74510000D03*
%TO.P,U1,39*%
%TO.N,N/C*%
X96760000Y-74510000D03*
%TO.P,U1,42*%
X94220000Y-77050000D03*
%TO.P,U1,41*%
X96760000Y-77050000D03*
%TO.P,U1,44*%
%TO.N,D7*%
X94220000Y-79590000D03*
%TO.P,U1,43*%
%TO.N,N/C*%
X96760000Y-79590000D03*
%TO.P,U1,46*%
%TO.N,D5*%
X94220000Y-82130000D03*
%TO.P,U1,45*%
%TO.N,D6*%
X96760000Y-82130000D03*
%TO.P,U1,48*%
%TO.N,N/C*%
X94220000Y-84670000D03*
%TO.P,U1,47*%
%TO.N,D4*%
X96760000Y-84670000D03*
%TO.P,U1,2*%
%TO.N,N/C*%
X127240000Y-84670000D03*
D40*
%TO.P,U1,1*%
X124700000Y-84670000D03*
D39*
%TO.P,U1,4*%
%TO.N,Net-(U1-Pad4)*%
X127240000Y-82130000D03*
%TO.P,U1,3*%
%TO.N,N/C*%
X124700000Y-82130000D03*
%TO.P,U1,6*%
%TO.N,Net-(U1-Pad6)*%
X127240000Y-79590000D03*
%TO.P,U1,5*%
%TO.N,Net-(U1-Pad5)*%
X124700000Y-79590000D03*
%TO.P,U1,8*%
%TO.N,Net-(U1-Pad8)*%
X127240000Y-77050000D03*
%TO.P,U1,7*%
%TO.N,N/C*%
X124700000Y-77050000D03*
%TO.P,U1,10*%
%TO.N,10*%
X127240000Y-74510000D03*
%TO.P,U1,9*%
%TO.N,N/C*%
X124700000Y-74510000D03*
%TO.P,U1,12*%
%TO.N,12*%
X127240000Y-71970000D03*
%TO.P,U1,11*%
%TO.N,N/C*%
X124700000Y-71970000D03*
%TO.P,U1,14*%
X127240000Y-69430000D03*
%TO.P,U1,13*%
%TO.N,13*%
X124700000Y-69430000D03*
%TO.P,U1,16*%
%TO.N,N/C*%
X127240000Y-66890000D03*
%TO.P,U1,15*%
X124700000Y-66890000D03*
%TO.P,U1,30*%
X104380000Y-54190000D03*
%TO.P,U1,31*%
X101840000Y-56730000D03*
%TO.P,U1,32*%
X101840000Y-54190000D03*
%TO.P,U1,29*%
X104380000Y-56730000D03*
%TO.P,U1,27*%
X106920000Y-56730000D03*
%TO.P,U1,28*%
X106920000Y-54190000D03*
%TO.P,U1,25*%
X109460000Y-56730000D03*
%TO.P,U1,26*%
X109460000Y-54190000D03*
%TO.P,U1,23*%
X112000000Y-56730000D03*
%TO.P,U1,24*%
X112000000Y-54190000D03*
%TO.P,U1,21*%
%TO.N,VCC*%
X114540000Y-56730000D03*
%TO.P,U1,22*%
%TO.N,GND*%
X114540000Y-54190000D03*
%TO.P,U1,19*%
%TO.N,N/C*%
X117080000Y-56730000D03*
%TO.P,U1,20*%
X117080000Y-54190000D03*
%TO.P,U1,17*%
X119620000Y-56730000D03*
%TO.P,U1,18*%
X119620000Y-54190000D03*
%TD*%
D41*
%TO.N,GND*%
X129600000Y-113200000D03*
X113200000Y-113200000D03*
X118200000Y-59800000D03*
X111200000Y-59800000D03*
D42*
X116600000Y-85400000D03*
X105800000Y-85400000D03*
X120200000Y-72000000D03*
X114600000Y-72000000D03*
D41*
X89540000Y-146740000D03*
X89400000Y-130800000D03*
X68200000Y-46600000D03*
X88000000Y-46600000D03*
X113200000Y-115800000D03*
X93600000Y-115800000D03*
%TO.N,VCC*%
X117000000Y-100000000D03*
X100600000Y-99850000D03*
D42*
X121800000Y-97400000D03*
X121800000Y-77400000D03*
D41*
X76800000Y-76600000D03*
X76800000Y-98200000D03*
%TO.N,+12V*%
X146600000Y-121400000D03*
X154000000Y-121400000D03*
X161400000Y-86000000D03*
X161400000Y-100200000D03*
X161200000Y-125800000D03*
X161200000Y-107800000D03*
X162200000Y-158600000D03*
X162200000Y-127800000D03*
D42*
%TO.N,13*%
X122600000Y-65200000D03*
X137800000Y-65200000D03*
D41*
%TO.N,D6*%
X60800000Y-88400000D03*
X60800000Y-79600000D03*
D42*
%TO.N,~FAN2*%
X120200000Y-89600000D03*
X114600000Y-89600000D03*
D41*
%TO.N,FIRE*%
X188400000Y-129600000D03*
X181800000Y-129600000D03*
X146200000Y-141200000D03*
X136400000Y-141200000D03*
%TO.N,VBat*%
X95800000Y-39800000D03*
X95800000Y-55000000D03*
%TD*%
D43*
%TO.N,GND*%
X129600000Y-113200000D02*
X113200000Y-113200000D01*
D44*
X118200000Y-59800000D02*
X111200000Y-59800000D01*
D45*
X116600000Y-85400000D02*
X105800000Y-85400000D01*
X120200000Y-72000000D02*
X114600000Y-72000000D01*
D44*
X89540000Y-146740000D02*
X89540000Y-130940000D01*
X89540000Y-130940000D02*
X89400000Y-130800000D01*
D46*
X68200000Y-46600000D02*
X88000000Y-46600000D01*
D44*
X113200000Y-115800000D02*
X93600000Y-115800000D01*
D43*
%TO.N,VCC*%
X117000000Y-100000000D02*
X100600000Y-100000000D01*
X100600000Y-100000000D02*
X100600000Y-99850000D01*
D47*
X121800000Y-97400000D02*
X121800000Y-77400000D01*
D46*
X76800000Y-76600000D02*
X76800000Y-98200000D01*
D45*
%TO.N,+12V*%
X146600000Y-121400000D02*
X154000000Y-121400000D01*
D44*
X161400000Y-86000000D02*
X161400000Y-100200000D01*
D46*
X161200000Y-125800000D02*
X161200000Y-107800000D01*
X162200000Y-158600000D02*
X162200000Y-127800000D01*
D47*
%TO.N,13*%
X122600000Y-65200000D02*
X137800000Y-65200000D01*
D46*
%TO.N,D6*%
X60800000Y-88400000D02*
X60800000Y-79600000D01*
D45*
%TO.N,~FAN2*%
X119800000Y-89600000D02*
X114600000Y-89600000D01*
D43*
%TO.N,FIRE*%
X188400000Y-129600000D02*
X181800000Y-129600000D01*
X146200000Y-141200000D02*
X137600000Y-141200000D01*
X137600000Y-141200000D02*
X136400000Y-141200000D01*
D46*
%TO.N,VBat*%
X95800000Y-39800000D02*
X95800000Y-55000000D01*
%TD*%
M02*
