G04 #@! TF.GenerationSoftware,KiCad,Pcbnew,(5.1.6)-1*
G04 #@! TF.CreationDate,2020-11-22T14:51:22+06:00*
G04 #@! TF.ProjectId,Logger,4c6f6767-6572-42e6-9b69-6361645f7063,rev?*
G04 #@! TF.SameCoordinates,Original*
G04 #@! TF.FileFunction,Copper,L1,Top*
G04 #@! TF.FilePolarity,Positive*
%FSLAX46Y46*%
G04 Gerber Fmt 4.6, Leading zero omitted, Abs format (unit mm)*
G04 Created by KiCad (PCBNEW (5.1.6)-1) date 2020-11-22 14:51:22*
%MOMM*%
%LPD*%
G01*
G04 APERTURE LIST*
G04 #@! TA.AperFunction,ComponentPad*
%ADD10O,1.879600X3.759200*%
G04 #@! TD*
G04 #@! TA.AperFunction,ComponentPad*
%ADD11O,3.759200X1.879600*%
G04 #@! TD*
G04 #@! TA.AperFunction,ComponentPad*
%ADD12C,4.000000*%
G04 #@! TD*
G04 #@! TA.AperFunction,ComponentPad*
%ADD13R,4.000000X4.000000*%
G04 #@! TD*
G04 #@! TA.AperFunction,ComponentPad*
%ADD14O,2.000000X2.000000*%
G04 #@! TD*
G04 #@! TA.AperFunction,ComponentPad*
%ADD15C,2.000000*%
G04 #@! TD*
G04 #@! TA.AperFunction,WasherPad*
%ADD16C,3.000000*%
G04 #@! TD*
G04 #@! TA.AperFunction,ComponentPad*
%ADD17C,2.200000*%
G04 #@! TD*
G04 #@! TA.AperFunction,ViaPad*
%ADD18C,2.500000*%
G04 #@! TD*
G04 #@! TA.AperFunction,Conductor*
%ADD19C,1.500000*%
G04 #@! TD*
G04 #@! TA.AperFunction,Conductor*
%ADD20C,1.800000*%
G04 #@! TD*
G04 APERTURE END LIST*
D10*
X-43180000Y37084000D03*
X-40640000Y37084000D03*
X-38100000Y37084000D03*
X-35560000Y37084000D03*
X-33020000Y37084000D03*
X-30480000Y37084000D03*
X-17272000Y14224000D03*
X-19812000Y14224000D03*
X-22352000Y14224000D03*
X-24892000Y14224000D03*
X-27432000Y14224000D03*
X-29972000Y14224000D03*
D11*
X-100584000Y94234000D03*
X-100584000Y96774000D03*
X-100584000Y99314000D03*
X-100584000Y101854000D03*
X-100584000Y104394000D03*
X-100584000Y106934000D03*
X-106934000Y94234000D03*
X-106934000Y96774000D03*
X-106934000Y99314000D03*
X-106934000Y101854000D03*
X-106934000Y104394000D03*
X-106934000Y106934000D03*
D12*
X-117856000Y113538000D03*
X-117856000Y108458000D03*
X-117856000Y103378000D03*
X-117856000Y98298000D03*
X-117856000Y93218000D03*
D13*
X-117856000Y88138000D03*
D10*
X-46736000Y88392000D03*
X-49276000Y88392000D03*
X-51816000Y88392000D03*
X-54356000Y88392000D03*
X-56896000Y88392000D03*
X-59436000Y88392000D03*
X-46736000Y83820000D03*
X-49276000Y83820000D03*
X-51816000Y83820000D03*
X-54356000Y83820000D03*
X-56896000Y83820000D03*
X-59436000Y83820000D03*
X-46736000Y97790000D03*
X-49276000Y97790000D03*
X-51816000Y97790000D03*
X-54356000Y97790000D03*
X-56896000Y97790000D03*
X-59436000Y97790000D03*
X-46736000Y93218000D03*
X-49276000Y93218000D03*
X-51816000Y93218000D03*
X-54356000Y93218000D03*
X-56896000Y93218000D03*
X-59436000Y93218000D03*
X-81280000Y93396000D03*
X-78740000Y93396000D03*
X-76200000Y93396000D03*
X-73660000Y93396000D03*
X-71120000Y93396000D03*
X-68580000Y93396000D03*
X-81280000Y88646000D03*
X-78740000Y88646000D03*
X-76200000Y88646000D03*
X-73660000Y88646000D03*
X-71120000Y88646000D03*
X-68580000Y88646000D03*
X-81280000Y83820000D03*
X-78740000Y83820000D03*
X-76200000Y83820000D03*
X-73660000Y83820000D03*
X-71120000Y83820000D03*
X-68580000Y83820000D03*
X-85344000Y24638000D03*
X-82804000Y24638000D03*
X-80264000Y24638000D03*
X-77724000Y24638000D03*
X-75184000Y24638000D03*
X-72644000Y24638000D03*
X-53340000Y24638000D03*
X-55880000Y24638000D03*
X-58420000Y24638000D03*
X-60960000Y24638000D03*
X-63500000Y24638000D03*
X-66040000Y24638000D03*
D11*
X-82896000Y15240000D03*
X-82896000Y12700000D03*
X-82896000Y10160000D03*
X-82896000Y7620000D03*
X-82896000Y5080000D03*
X-82896000Y2540000D03*
D14*
X-35052000Y17780000D03*
D15*
X-40132000Y17780000D03*
D14*
X-35052000Y15494000D03*
D15*
X-40132000Y15494000D03*
X-40151500Y20312500D03*
X-37611500Y20312500D03*
X-35071500Y20312500D03*
X-32468000Y20312500D03*
X-29864500Y20312500D03*
X-27388000Y20312500D03*
D16*
X-44406000Y20312500D03*
X-44406000Y3167500D03*
X-24086000Y3167500D03*
X-24086000Y20312500D03*
D17*
X-20306000Y78220000D03*
X-26656000Y29960000D03*
X-50786000Y73140000D03*
X-50786000Y45200000D03*
X-102856000Y78220000D03*
X-101586000Y29960000D03*
X-71106000Y78220000D03*
X-83806000Y78220000D03*
X-90410000Y29960000D03*
X-20306000Y73140000D03*
X-22846000Y73140000D03*
X-73646000Y78220000D03*
X-76186000Y78220000D03*
X-92950000Y29960000D03*
X-25386000Y78220000D03*
X-27926000Y78220000D03*
X-30466000Y78220000D03*
X-33006000Y78220000D03*
X-35546000Y78220000D03*
X-38086000Y78220000D03*
X-40626000Y78220000D03*
X-43166000Y78220000D03*
X-48246000Y78220000D03*
X-50786000Y78220000D03*
X-53326000Y78220000D03*
X-55866000Y78220000D03*
X-58406000Y78220000D03*
X-60946000Y78220000D03*
X-63486000Y78220000D03*
X-66026000Y78220000D03*
X-20306000Y70600000D03*
X-22846000Y70600000D03*
X-20306000Y68060000D03*
X-22846000Y68060000D03*
X-20306000Y65520000D03*
X-22846000Y65520000D03*
X-20306000Y62980000D03*
X-22846000Y62980000D03*
X-20306000Y60440000D03*
X-22846000Y60440000D03*
X-20306000Y57900000D03*
X-22846000Y57900000D03*
X-20306000Y55360000D03*
X-22846000Y55360000D03*
X-20306000Y52820000D03*
X-22846000Y52820000D03*
X-20306000Y50280000D03*
X-22846000Y50280000D03*
X-20306000Y47740000D03*
X-22846000Y47740000D03*
X-20306000Y45200000D03*
X-22846000Y45200000D03*
X-20306000Y42660000D03*
X-22846000Y42660000D03*
X-20306000Y40120000D03*
X-22846000Y40120000D03*
X-20306000Y37580000D03*
X-22846000Y37580000D03*
X-20306000Y35040000D03*
X-22846000Y35040000D03*
X-20306000Y32500000D03*
X-22846000Y32500000D03*
X-30466000Y29960000D03*
X-33006000Y29960000D03*
X-35546000Y29960000D03*
X-38086000Y29960000D03*
X-40626000Y29960000D03*
X-43166000Y29960000D03*
X-45706000Y29960000D03*
X-48246000Y29960000D03*
X-87870000Y29960000D03*
X-85330000Y29960000D03*
X-82790000Y29960000D03*
X-80250000Y29960000D03*
X-77710000Y29960000D03*
X-75170000Y29960000D03*
X-71106000Y29960000D03*
X-68566000Y29960000D03*
X-20306000Y29960000D03*
X-22846000Y29960000D03*
X-78726000Y78220000D03*
X-66026000Y29960000D03*
X-63486000Y29960000D03*
X-81266000Y78220000D03*
X-60946000Y29960000D03*
X-58406000Y29960000D03*
X-55866000Y29960000D03*
X-53326000Y29960000D03*
D18*
X-51562000Y3302000D03*
X-51562000Y19812000D03*
X-78740000Y59436000D03*
X-78740000Y70866000D03*
X-35071500Y23094500D03*
X-29483500Y23094500D03*
X-73914000Y18542000D03*
X-73914000Y2540000D03*
X-35560000Y64262000D03*
X-35560000Y73152000D03*
X-3048000Y68072000D03*
X-12192000Y68072000D03*
X-98552000Y63500000D03*
X-86360000Y63500000D03*
D19*
X-40132000Y20293000D02*
X-40151500Y20312500D01*
X-51562000Y3302000D02*
X-51562000Y19812000D01*
X-78740000Y59436000D02*
X-78740000Y70866000D01*
X-35052000Y20293000D02*
X-35071500Y20312500D01*
X-35071500Y23094500D02*
X-29483500Y23094500D01*
X-73914000Y18542000D02*
X-73914000Y2540000D01*
X-35560000Y64262000D02*
X-35560000Y73152000D01*
D20*
X-22858000Y73152000D02*
X-22846000Y73140000D01*
D19*
X-20294000Y68072000D02*
X-20306000Y68060000D01*
X-12192000Y68072000D02*
X-3048000Y68072000D01*
X-86360000Y63500000D02*
X-98552000Y63500000D01*
M02*
