M48
; DRILL file {KiCad (5.1.6)-1} date 11/22/20 15:31:07
; FORMAT={-:-/ absolute / metric / decimal}
; #@! TF.CreationDate,2020-11-22T15:31:07+06:00
; #@! TF.GenerationSoftware,Kicad,Pcbnew,(5.1.6)-1
FMAT,2
METRIC
T1C0.700
T2C0.800
T3C1.016
T4C1.100
T5C1.118
T6C2.000
%
G90
G05
T1
X-40.132Y15.494
X-35.052Y15.494
X-40.132Y17.78
X-35.052Y17.78
T2
X-98.552Y63.5
X-86.36Y63.5
X-78.74Y70.866
X-78.74Y59.436
X-73.914Y18.542
X-73.914Y2.54
X-51.562Y19.812
X-51.562Y3.302
X-35.56Y73.152
X-35.56Y64.262
X-35.072Y23.095
X-29.483Y23.095
X-12.192Y68.072
X-3.048Y68.072
X-40.151Y20.312
X-37.611Y20.312
X-35.072Y20.312
X-32.468Y20.312
X-29.864Y20.312
X-27.388Y20.312
T3
X-102.856Y78.22
X-101.586Y29.96
X-92.95Y29.96
X-90.41Y29.96
X-87.87Y29.96
X-85.33Y29.96
X-83.806Y78.22
X-82.79Y29.96
X-81.266Y78.22
X-80.25Y29.96
X-78.726Y78.22
X-77.71Y29.96
X-76.186Y78.22
X-75.17Y29.96
X-73.646Y78.22
X-71.106Y78.22
X-71.106Y29.96
X-68.566Y29.96
X-66.026Y78.22
X-66.026Y29.96
X-63.486Y78.22
X-63.486Y29.96
X-60.946Y78.22
X-60.946Y29.96
X-58.406Y78.22
X-58.406Y29.96
X-55.866Y78.22
X-55.866Y29.96
X-53.326Y78.22
X-53.326Y29.96
X-50.786Y78.22
X-50.786Y73.14
X-50.786Y45.2
X-48.246Y78.22
X-48.246Y29.96
X-45.706Y29.96
X-43.166Y78.22
X-43.166Y29.96
X-40.626Y78.22
X-40.626Y29.96
X-38.086Y78.22
X-38.086Y29.96
X-35.546Y78.22
X-35.546Y29.96
X-33.006Y78.22
X-33.006Y29.96
X-30.466Y78.22
X-30.466Y29.96
X-27.926Y78.22
X-26.656Y29.96
X-25.386Y78.22
X-22.846Y73.14
X-22.846Y70.6
X-22.846Y68.06
X-22.846Y65.52
X-22.846Y62.98
X-22.846Y60.44
X-22.846Y57.9
X-22.846Y55.36
X-22.846Y52.82
X-22.846Y50.28
X-22.846Y47.74
X-22.846Y45.2
X-22.846Y42.66
X-22.846Y40.12
X-22.846Y37.58
X-22.846Y35.04
X-22.846Y32.5
X-22.846Y29.96
X-20.306Y78.22
X-20.306Y73.14
X-20.306Y70.6
X-20.306Y68.06
X-20.306Y65.52
X-20.306Y62.98
X-20.306Y60.44
X-20.306Y57.9
X-20.306Y55.36
X-20.306Y52.82
X-20.306Y50.28
X-20.306Y47.74
X-20.306Y45.2
X-20.306Y42.66
X-20.306Y40.12
X-20.306Y37.58
X-20.306Y35.04
X-20.306Y32.5
X-20.306Y29.96
T4
X-117.856Y113.538
X-117.856Y108.458
X-117.856Y103.378
X-117.856Y98.298
X-117.856Y93.218
X-117.856Y88.138
T5
X-82.896Y15.24
X-82.896Y12.7
X-82.896Y10.16
X-82.896Y7.62
X-82.896Y5.08
X-82.896Y2.54
X-100.584Y106.934
X-100.584Y104.394
X-100.584Y101.854
X-100.584Y99.314
X-100.584Y96.774
X-100.584Y94.234
X-85.344Y24.638
X-82.804Y24.638
X-80.264Y24.638
X-77.724Y24.638
X-75.184Y24.638
X-72.644Y24.638
X-59.436Y93.218
X-56.896Y93.218
X-54.356Y93.218
X-51.816Y93.218
X-49.276Y93.218
X-46.736Y93.218
X-81.28Y88.646
X-78.74Y88.646
X-76.2Y88.646
X-73.66Y88.646
X-71.12Y88.646
X-68.58Y88.646
X-59.436Y83.82
X-56.896Y83.82
X-54.356Y83.82
X-51.816Y83.82
X-49.276Y83.82
X-46.736Y83.82
X-59.436Y88.392
X-56.896Y88.392
X-54.356Y88.392
X-51.816Y88.392
X-49.276Y88.392
X-46.736Y88.392
X-106.934Y106.934
X-106.934Y104.394
X-106.934Y101.854
X-106.934Y99.314
X-106.934Y96.774
X-106.934Y94.234
X-66.04Y24.638
X-63.5Y24.638
X-60.96Y24.638
X-58.42Y24.638
X-55.88Y24.638
X-53.34Y24.638
X-29.972Y14.224
X-27.432Y14.224
X-24.892Y14.224
X-22.352Y14.224
X-19.812Y14.224
X-17.272Y14.224
X-81.28Y83.82
X-78.74Y83.82
X-76.2Y83.82
X-73.66Y83.82
X-71.12Y83.82
X-68.58Y83.82
X-59.436Y97.79
X-56.896Y97.79
X-54.356Y97.79
X-51.816Y97.79
X-49.276Y97.79
X-46.736Y97.79
X-81.28Y93.396
X-78.74Y93.396
X-76.2Y93.396
X-73.66Y93.396
X-71.12Y93.396
X-68.58Y93.396
X-43.18Y37.084
X-40.64Y37.084
X-38.1Y37.084
X-35.56Y37.084
X-33.02Y37.084
X-30.48Y37.084
T6
X-44.406Y20.312
X-44.406Y3.167
X-24.086Y20.312
X-24.086Y3.167
T0
M30
