G04 #@! TF.GenerationSoftware,KiCad,Pcbnew,(5.1.6)-1*
G04 #@! TF.CreationDate,2020-11-22T14:51:22+06:00*
G04 #@! TF.ProjectId,Logger,4c6f6767-6572-42e6-9b69-6361645f7063,rev?*
G04 #@! TF.SameCoordinates,Original*
G04 #@! TF.FileFunction,Legend,Bot*
G04 #@! TF.FilePolarity,Positive*
%FSLAX46Y46*%
G04 Gerber Fmt 4.6, Leading zero omitted, Abs format (unit mm)*
G04 Created by KiCad (PCBNEW (5.1.6)-1) date 2020-11-22 14:51:22*
%MOMM*%
%LPD*%
G01*
G04 APERTURE LIST*
%ADD10C,0.120000*%
%ADD11C,0.304800*%
%ADD12C,0.203200*%
%ADD13C,0.152400*%
%ADD14C,0.150000*%
%ADD15C,0.127000*%
%ADD16C,0.228600*%
G04 APERTURE END LIST*
D10*
X-32214000Y11740000D02*
G75*
G03*
X-32214000Y11740000I-2032000J0D01*
G01*
X-23133500Y3167500D02*
G75*
G03*
X-23133500Y3167500I-952500J0D01*
G01*
X-43453500Y3167500D02*
G75*
G03*
X-43453500Y3167500I-952500J0D01*
G01*
X-22181000Y11803500D02*
X-22181000Y1643500D01*
X-24086000Y945000D02*
X-44406000Y945000D01*
X-46184000Y1580000D02*
X-46184000Y11740000D01*
X-23133500Y20312500D02*
G75*
G03*
X-23133500Y20312500I-952500J0D01*
G01*
X-43453500Y20312500D02*
G75*
G03*
X-43453500Y20312500I-952500J0D01*
G01*
X-22181000Y21900000D02*
X-22181000Y11740000D01*
X-44406000Y21900000D02*
X-24086000Y21900000D01*
X-46184000Y11740000D02*
X-46184000Y21900000D01*
D11*
X-23608000Y27978800D02*
X-22846000Y27978800D01*
D12*
X-69836000Y77585000D02*
X-69836000Y78855000D01*
X-83171000Y79490000D02*
X-84441000Y79490000D01*
X-85076000Y78855000D02*
X-84441000Y79490000D01*
X-84441000Y76950000D02*
X-85076000Y77585000D01*
X-85076000Y77585000D02*
X-85076000Y78855000D01*
X-81901000Y79490000D02*
X-82536000Y78855000D01*
X-80631000Y79490000D02*
X-81901000Y79490000D01*
X-79996000Y78855000D02*
X-80631000Y79490000D01*
X-80631000Y76950000D02*
X-79996000Y77585000D01*
X-81901000Y76950000D02*
X-80631000Y76950000D01*
X-82536000Y77585000D02*
X-81901000Y76950000D01*
X-82536000Y78855000D02*
X-83171000Y79490000D01*
X-83171000Y76950000D02*
X-82536000Y77585000D01*
X-84441000Y76950000D02*
X-83171000Y76950000D01*
X-75551000Y79490000D02*
X-76821000Y79490000D01*
X-77456000Y78855000D02*
X-76821000Y79490000D01*
X-76821000Y76950000D02*
X-77456000Y77585000D01*
X-79361000Y79490000D02*
X-79996000Y78855000D01*
X-78091000Y79490000D02*
X-79361000Y79490000D01*
X-77456000Y78855000D02*
X-78091000Y79490000D01*
X-78091000Y76950000D02*
X-77456000Y77585000D01*
X-79361000Y76950000D02*
X-78091000Y76950000D01*
X-79996000Y77585000D02*
X-79361000Y76950000D01*
X-74281000Y79490000D02*
X-74916000Y78855000D01*
X-73011000Y79490000D02*
X-74281000Y79490000D01*
X-72376000Y78855000D02*
X-73011000Y79490000D01*
X-73011000Y76950000D02*
X-72376000Y77585000D01*
X-74281000Y76950000D02*
X-73011000Y76950000D01*
X-74916000Y77585000D02*
X-74281000Y76950000D01*
X-74916000Y78855000D02*
X-75551000Y79490000D01*
X-75551000Y76950000D02*
X-74916000Y77585000D01*
X-76821000Y76950000D02*
X-75551000Y76950000D01*
X-71741000Y79490000D02*
X-72376000Y78855000D01*
X-70471000Y79490000D02*
X-71741000Y79490000D01*
X-69836000Y78855000D02*
X-70471000Y79490000D01*
X-70471000Y76950000D02*
X-69836000Y77585000D01*
X-71741000Y76950000D02*
X-70471000Y76950000D01*
X-72376000Y77585000D02*
X-71741000Y76950000D01*
D11*
X-70217000Y70193600D02*
X-84695000Y70193600D01*
D12*
X-53453000Y35040000D02*
X-53961000Y34532000D01*
X-52947540Y34532000D02*
X-53453000Y35040000D01*
X-53453000Y33770000D02*
X-53453000Y35040000D01*
X-55993000Y33770000D02*
X-55485000Y34278000D01*
X-56501000Y34278000D02*
X-55993000Y33770000D01*
X-55993000Y35040000D02*
X-55993000Y33770000D01*
D11*
X-19036000Y74410000D02*
X-16041340Y74410000D01*
X-30567600Y41212200D02*
X-28535600Y39180200D01*
X-28891200Y71895400D02*
X-16013400Y71895400D01*
X-30593000Y70193600D02*
X-28891200Y71895400D01*
X-30593000Y70193600D02*
X-66915000Y70193600D01*
X-20306000Y75222800D02*
X-20306000Y74460800D01*
X-22846000Y75222800D02*
X-20306000Y75222800D01*
X-22846000Y74486200D02*
X-22846000Y75222800D01*
X-20306000Y27978800D02*
X-20306000Y28639200D01*
X-22846000Y27978800D02*
X-20306000Y27978800D01*
X-22846000Y28616340D02*
X-22846000Y27978800D01*
X-28535600Y39180200D02*
X-28535600Y32119000D01*
X-30567600Y41212200D02*
X-30567600Y69330000D01*
X-56882000Y41009000D02*
X-31355000Y41009000D01*
X-57390000Y37707000D02*
X-88759000Y37707000D01*
D12*
X-19671000Y31230000D02*
X-23481000Y31230000D01*
X-23481000Y28690000D02*
X-19671000Y28690000D01*
X-19036000Y29325000D02*
X-19036000Y30595000D01*
X-24116000Y30595000D02*
X-23481000Y31230000D01*
X-23481000Y28690000D02*
X-24116000Y29325000D01*
X-24116000Y29325000D02*
X-24116000Y30595000D01*
X-19036000Y30595000D02*
X-19671000Y31230000D01*
X-19671000Y28690000D02*
X-19036000Y29325000D01*
X-19671000Y74410000D02*
X-23481000Y74410000D01*
X-23481000Y71870000D02*
X-19671000Y71870000D01*
X-19036000Y72505000D02*
X-19036000Y73775000D01*
X-24116000Y73775000D02*
X-23481000Y74410000D01*
X-23481000Y71870000D02*
X-24116000Y72505000D01*
X-24116000Y72505000D02*
X-24116000Y73775000D01*
X-19036000Y73775000D02*
X-19671000Y74410000D01*
X-19671000Y71870000D02*
X-19036000Y72505000D01*
D13*
X-19036000Y71235000D02*
X-19036000Y69965000D01*
X-19036000Y68695000D02*
X-19036000Y67425000D01*
X-19036000Y66155000D02*
X-19036000Y64885000D01*
X-19036000Y63615000D02*
X-19036000Y62345000D01*
X-19036000Y61075000D02*
X-19036000Y59805000D01*
X-19036000Y58535000D02*
X-19036000Y57265000D01*
X-19036000Y55995000D02*
X-19036000Y54725000D01*
X-19036000Y53455000D02*
X-19036000Y52185000D01*
X-23481000Y51550000D02*
X-19671000Y51550000D01*
X-23481000Y54090000D02*
X-19671000Y54090000D01*
X-23481000Y56630000D02*
X-19671000Y56630000D01*
X-23481000Y59170000D02*
X-19671000Y59170000D01*
X-23481000Y61710000D02*
X-19671000Y61710000D01*
X-23481000Y64250000D02*
X-19671000Y64250000D01*
X-23481000Y66790000D02*
X-19671000Y66790000D01*
X-23481000Y69330000D02*
X-19671000Y69330000D01*
X-19671000Y56630000D02*
X-19036000Y55995000D01*
X-19671000Y54090000D02*
X-19036000Y54725000D01*
X-19671000Y54090000D02*
X-19036000Y53455000D01*
X-19671000Y51550000D02*
X-19036000Y52185000D01*
X-24116000Y52185000D02*
X-23481000Y51550000D01*
X-24116000Y53455000D02*
X-24116000Y52185000D01*
X-23481000Y54090000D02*
X-24116000Y53455000D01*
X-24116000Y54725000D02*
X-23481000Y54090000D01*
X-24116000Y55995000D02*
X-24116000Y54725000D01*
X-23481000Y56630000D02*
X-24116000Y55995000D01*
X-24116000Y57265000D02*
X-23481000Y56630000D01*
X-24116000Y58535000D02*
X-24116000Y57265000D01*
X-23481000Y59170000D02*
X-24116000Y58535000D01*
X-24116000Y59805000D02*
X-23481000Y59170000D01*
X-24116000Y61075000D02*
X-24116000Y59805000D01*
X-23481000Y61710000D02*
X-24116000Y61075000D01*
X-24116000Y62345000D02*
X-23481000Y61710000D01*
X-24116000Y63615000D02*
X-24116000Y62345000D01*
X-23481000Y64250000D02*
X-24116000Y63615000D01*
X-24116000Y64885000D02*
X-23481000Y64250000D01*
X-24116000Y66155000D02*
X-24116000Y64885000D01*
X-23481000Y66790000D02*
X-24116000Y66155000D01*
X-24116000Y67425000D02*
X-23481000Y66790000D01*
X-24116000Y68695000D02*
X-24116000Y67425000D01*
X-23481000Y69330000D02*
X-24116000Y68695000D01*
X-24116000Y69965000D02*
X-23481000Y69330000D01*
X-24116000Y71235000D02*
X-24116000Y69965000D01*
X-23481000Y71870000D02*
X-24116000Y71235000D01*
X-19036000Y57265000D02*
X-19671000Y56630000D01*
X-19671000Y59170000D02*
X-19036000Y58535000D01*
X-19036000Y59805000D02*
X-19671000Y59170000D01*
X-19671000Y61710000D02*
X-19036000Y61075000D01*
X-19036000Y62345000D02*
X-19671000Y61710000D01*
X-19671000Y64250000D02*
X-19036000Y63615000D01*
X-19036000Y64885000D02*
X-19671000Y64250000D01*
X-19671000Y66790000D02*
X-19036000Y66155000D01*
X-19036000Y67425000D02*
X-19671000Y66790000D01*
X-19671000Y69330000D02*
X-19036000Y68695000D01*
X-19036000Y69965000D02*
X-19671000Y69330000D01*
X-19671000Y71870000D02*
X-19036000Y71235000D01*
X-19036000Y50915000D02*
X-19036000Y49645000D01*
X-19036000Y48375000D02*
X-19036000Y47105000D01*
X-19036000Y45835000D02*
X-19036000Y44565000D01*
X-19036000Y43295000D02*
X-19036000Y42025000D01*
X-19036000Y40755000D02*
X-19036000Y39485000D01*
X-19036000Y38215000D02*
X-19036000Y36945000D01*
X-19036000Y35675000D02*
X-19036000Y34405000D01*
X-19036000Y33135000D02*
X-19036000Y31865000D01*
X-23481000Y33770000D02*
X-19671000Y33770000D01*
X-23481000Y36310000D02*
X-19671000Y36310000D01*
X-23481000Y38850000D02*
X-19671000Y38850000D01*
X-23481000Y41390000D02*
X-19671000Y41390000D01*
X-23481000Y43930000D02*
X-19671000Y43930000D01*
X-23481000Y46470000D02*
X-19671000Y46470000D01*
X-23481000Y49010000D02*
X-19671000Y49010000D01*
X-19671000Y36310000D02*
X-19036000Y35675000D01*
X-19671000Y33770000D02*
X-19036000Y34405000D01*
X-19671000Y33770000D02*
X-19036000Y33135000D01*
X-19671000Y31230000D02*
X-19036000Y31865000D01*
X-24116000Y31865000D02*
X-23481000Y31230000D01*
X-24116000Y33135000D02*
X-24116000Y31865000D01*
X-23481000Y33770000D02*
X-24116000Y33135000D01*
X-24116000Y34405000D02*
X-23481000Y33770000D01*
X-24116000Y35675000D02*
X-24116000Y34405000D01*
X-23481000Y36310000D02*
X-24116000Y35675000D01*
X-24116000Y36945000D02*
X-23481000Y36310000D01*
X-24116000Y38215000D02*
X-24116000Y36945000D01*
X-23481000Y38850000D02*
X-24116000Y38215000D01*
X-24116000Y39485000D02*
X-23481000Y38850000D01*
X-24116000Y40755000D02*
X-24116000Y39485000D01*
X-23481000Y41390000D02*
X-24116000Y40755000D01*
X-24116000Y42025000D02*
X-23481000Y41390000D01*
X-24116000Y43295000D02*
X-24116000Y42025000D01*
X-23481000Y43930000D02*
X-24116000Y43295000D01*
X-24116000Y44565000D02*
X-23481000Y43930000D01*
X-24116000Y45835000D02*
X-24116000Y44565000D01*
X-23481000Y46470000D02*
X-24116000Y45835000D01*
X-24116000Y47105000D02*
X-23481000Y46470000D01*
X-24116000Y48375000D02*
X-24116000Y47105000D01*
X-23481000Y49010000D02*
X-24116000Y48375000D01*
X-24116000Y49645000D02*
X-23481000Y49010000D01*
X-24116000Y50915000D02*
X-24116000Y49645000D01*
X-23481000Y51550000D02*
X-24116000Y50915000D01*
X-19036000Y36945000D02*
X-19671000Y36310000D01*
X-19671000Y38850000D02*
X-19036000Y38215000D01*
X-19036000Y39485000D02*
X-19671000Y38850000D01*
X-19671000Y41390000D02*
X-19036000Y40755000D01*
X-19036000Y42025000D02*
X-19671000Y41390000D01*
X-19671000Y43930000D02*
X-19036000Y43295000D01*
X-19036000Y44565000D02*
X-19671000Y43930000D01*
X-19671000Y46470000D02*
X-19036000Y45835000D01*
X-19036000Y47105000D02*
X-19671000Y46470000D01*
X-19671000Y49010000D02*
X-19036000Y48375000D01*
X-19036000Y49645000D02*
X-19671000Y49010000D01*
X-19671000Y51550000D02*
X-19036000Y50915000D01*
D12*
X-74532460Y31230000D02*
X-75805000Y31230000D01*
X-76440000Y30595000D02*
X-75805000Y31230000D01*
X-75805000Y28690000D02*
X-76440000Y29325000D01*
X-73900000Y30595000D02*
X-74532460Y31230000D01*
X-73900000Y29325000D02*
X-73900000Y30595000D01*
X-74532460Y28690000D02*
X-73900000Y29325000D01*
X-75805000Y28690000D02*
X-74532460Y28690000D01*
X-92315000Y31230000D02*
X-93585000Y31230000D01*
X-94220000Y30595000D02*
X-93585000Y31230000D01*
X-93585000Y28690000D02*
X-94220000Y29325000D01*
X-94220000Y29325000D02*
X-94220000Y30595000D01*
X-91045000Y31230000D02*
X-91680000Y30595000D01*
X-89775000Y31230000D02*
X-91045000Y31230000D01*
X-89140000Y30595000D02*
X-89775000Y31230000D01*
X-89775000Y28690000D02*
X-89140000Y29325000D01*
X-91045000Y28690000D02*
X-89775000Y28690000D01*
X-91680000Y29325000D02*
X-91045000Y28690000D01*
X-91680000Y30595000D02*
X-92315000Y31230000D01*
X-92315000Y28690000D02*
X-91680000Y29325000D01*
X-93585000Y28690000D02*
X-92315000Y28690000D01*
X-84695000Y31230000D02*
X-85965000Y31230000D01*
X-86600000Y30595000D02*
X-85965000Y31230000D01*
X-85965000Y28690000D02*
X-86600000Y29325000D01*
X-88505000Y31230000D02*
X-89140000Y30595000D01*
X-87235000Y31230000D02*
X-88505000Y31230000D01*
X-86600000Y30595000D02*
X-87235000Y31230000D01*
X-87235000Y28690000D02*
X-86600000Y29325000D01*
X-88505000Y28690000D02*
X-87235000Y28690000D01*
X-89140000Y29325000D02*
X-88505000Y28690000D01*
X-83425000Y31230000D02*
X-84060000Y30595000D01*
X-82155000Y31230000D02*
X-83425000Y31230000D01*
X-81520000Y30595000D02*
X-82155000Y31230000D01*
X-82155000Y28690000D02*
X-81520000Y29325000D01*
X-83425000Y28690000D02*
X-82155000Y28690000D01*
X-84060000Y29325000D02*
X-83425000Y28690000D01*
X-84060000Y30595000D02*
X-84695000Y31230000D01*
X-84695000Y28690000D02*
X-84060000Y29325000D01*
X-85965000Y28690000D02*
X-84695000Y28690000D01*
X-77075000Y31230000D02*
X-78345000Y31230000D01*
X-78980000Y30595000D02*
X-78345000Y31230000D01*
X-78345000Y28690000D02*
X-78980000Y29325000D01*
X-80885000Y31230000D02*
X-81520000Y30595000D01*
X-79615000Y31230000D02*
X-80885000Y31230000D01*
X-78980000Y30595000D02*
X-79615000Y31230000D01*
X-79615000Y28690000D02*
X-78980000Y29325000D01*
X-80885000Y28690000D02*
X-79615000Y28690000D01*
X-81520000Y29325000D02*
X-80885000Y28690000D01*
X-76440000Y30595000D02*
X-77075000Y31230000D01*
X-77075000Y28690000D02*
X-76440000Y29325000D01*
X-78345000Y28690000D02*
X-77075000Y28690000D01*
X-52691000Y31230000D02*
X-53961000Y31230000D01*
X-54596000Y30595000D02*
X-53961000Y31230000D01*
X-53961000Y28690000D02*
X-54596000Y29325000D01*
X-52056000Y30595000D02*
X-52691000Y31230000D01*
X-52056000Y29325000D02*
X-52056000Y30595000D01*
X-52691000Y28690000D02*
X-52056000Y29325000D01*
X-53961000Y28690000D02*
X-52691000Y28690000D01*
X-70471000Y31230000D02*
X-71741000Y31230000D01*
X-72376000Y30595000D02*
X-71741000Y31230000D01*
X-71741000Y28690000D02*
X-72376000Y29325000D01*
X-72376000Y29325000D02*
X-72376000Y30595000D01*
X-69201000Y31230000D02*
X-69836000Y30595000D01*
X-67931000Y31230000D02*
X-69201000Y31230000D01*
X-67296000Y30595000D02*
X-67931000Y31230000D01*
X-67931000Y28690000D02*
X-67296000Y29325000D01*
X-69201000Y28690000D02*
X-67931000Y28690000D01*
X-69836000Y29325000D02*
X-69201000Y28690000D01*
X-69836000Y30595000D02*
X-70471000Y31230000D01*
X-70471000Y28690000D02*
X-69836000Y29325000D01*
X-71741000Y28690000D02*
X-70471000Y28690000D01*
X-62851000Y31230000D02*
X-64121000Y31230000D01*
X-64756000Y30595000D02*
X-64121000Y31230000D01*
X-64121000Y28690000D02*
X-64756000Y29325000D01*
X-66661000Y31230000D02*
X-67296000Y30595000D01*
X-65391000Y31230000D02*
X-66661000Y31230000D01*
X-64756000Y30595000D02*
X-65391000Y31230000D01*
X-65391000Y28690000D02*
X-64756000Y29325000D01*
X-66661000Y28690000D02*
X-65391000Y28690000D01*
X-67296000Y29325000D02*
X-66661000Y28690000D01*
X-61581000Y31230000D02*
X-62216000Y30595000D01*
X-60311000Y31230000D02*
X-61581000Y31230000D01*
X-59676000Y30595000D02*
X-60311000Y31230000D01*
X-60311000Y28690000D02*
X-59676000Y29325000D01*
X-61581000Y28690000D02*
X-60311000Y28690000D01*
X-62216000Y29325000D02*
X-61581000Y28690000D01*
X-62216000Y30595000D02*
X-62851000Y31230000D01*
X-62851000Y28690000D02*
X-62216000Y29325000D01*
X-64121000Y28690000D02*
X-62851000Y28690000D01*
X-55231000Y31230000D02*
X-56501000Y31230000D01*
X-57136000Y30595000D02*
X-56501000Y31230000D01*
X-56501000Y28690000D02*
X-57136000Y29325000D01*
X-59041000Y31230000D02*
X-59676000Y30595000D01*
X-57771000Y31230000D02*
X-59041000Y31230000D01*
X-57136000Y30595000D02*
X-57771000Y31230000D01*
X-57771000Y28690000D02*
X-57136000Y29325000D01*
X-59041000Y28690000D02*
X-57771000Y28690000D01*
X-59676000Y29325000D02*
X-59041000Y28690000D01*
X-54596000Y30595000D02*
X-55231000Y31230000D01*
X-55231000Y28690000D02*
X-54596000Y29325000D01*
X-56501000Y28690000D02*
X-55231000Y28690000D01*
X-47611000Y79490000D02*
X-48881000Y79490000D01*
X-49516000Y78855000D02*
X-48881000Y79490000D01*
X-48881000Y76950000D02*
X-49516000Y77585000D01*
X-46976000Y78855000D02*
X-47611000Y79490000D01*
X-46976000Y77585000D02*
X-46976000Y78855000D01*
X-47611000Y76950000D02*
X-46976000Y77585000D01*
X-48881000Y76950000D02*
X-47611000Y76950000D01*
X-65391000Y79490000D02*
X-66661000Y79490000D01*
X-67296000Y78855000D02*
X-66661000Y79490000D01*
X-66661000Y76950000D02*
X-67296000Y77585000D01*
X-67296000Y77585000D02*
X-67296000Y78855000D01*
X-64121000Y79490000D02*
X-64756000Y78855000D01*
X-62851000Y79490000D02*
X-64121000Y79490000D01*
X-62216000Y78855000D02*
X-62851000Y79490000D01*
X-62851000Y76950000D02*
X-62216000Y77585000D01*
X-64121000Y76950000D02*
X-62851000Y76950000D01*
X-64756000Y77585000D02*
X-64121000Y76950000D01*
X-64756000Y78855000D02*
X-65391000Y79490000D01*
X-65391000Y76950000D02*
X-64756000Y77585000D01*
X-66661000Y76950000D02*
X-65391000Y76950000D01*
X-57771000Y79490000D02*
X-59041000Y79490000D01*
X-59676000Y78855000D02*
X-59041000Y79490000D01*
X-59041000Y76950000D02*
X-59676000Y77585000D01*
X-61581000Y79490000D02*
X-62216000Y78855000D01*
X-60311000Y79490000D02*
X-61581000Y79490000D01*
X-59676000Y78855000D02*
X-60311000Y79490000D01*
X-60311000Y76950000D02*
X-59676000Y77585000D01*
X-61581000Y76950000D02*
X-60311000Y76950000D01*
X-62216000Y77585000D02*
X-61581000Y76950000D01*
X-56501000Y79490000D02*
X-57136000Y78855000D01*
X-55231000Y79490000D02*
X-56501000Y79490000D01*
X-54596000Y78855000D02*
X-55231000Y79490000D01*
X-55231000Y76950000D02*
X-54596000Y77585000D01*
X-56501000Y76950000D02*
X-55231000Y76950000D01*
X-57136000Y77585000D02*
X-56501000Y76950000D01*
X-57136000Y78855000D02*
X-57771000Y79490000D01*
X-57771000Y76950000D02*
X-57136000Y77585000D01*
X-59041000Y76950000D02*
X-57771000Y76950000D01*
X-50151000Y79490000D02*
X-51421000Y79490000D01*
X-52056000Y78855000D02*
X-51421000Y79490000D01*
X-51421000Y76950000D02*
X-52056000Y77585000D01*
X-53961000Y79490000D02*
X-54596000Y78855000D01*
X-52691000Y79490000D02*
X-53961000Y79490000D01*
X-52056000Y78855000D02*
X-52691000Y79490000D01*
X-52691000Y76950000D02*
X-52056000Y77585000D01*
X-53961000Y76950000D02*
X-52691000Y76950000D01*
X-54596000Y77585000D02*
X-53961000Y76950000D01*
X-49516000Y78855000D02*
X-50151000Y79490000D01*
X-50151000Y76950000D02*
X-49516000Y77585000D01*
X-51421000Y76950000D02*
X-50151000Y76950000D01*
X-29831000Y31230000D02*
X-31101000Y31230000D01*
X-31736000Y30595000D02*
X-31101000Y31230000D01*
X-31101000Y28690000D02*
X-31736000Y29325000D01*
X-29196000Y30595000D02*
X-29831000Y31230000D01*
X-29196000Y29325000D02*
X-29196000Y30595000D01*
X-29831000Y28690000D02*
X-29196000Y29325000D01*
X-31101000Y28690000D02*
X-29831000Y28690000D01*
X-47611000Y31230000D02*
X-48881000Y31230000D01*
X-49516000Y30595000D02*
X-48881000Y31230000D01*
X-48881000Y28690000D02*
X-49516000Y29325000D01*
X-49516000Y29325000D02*
X-49516000Y30595000D01*
X-46341000Y31230000D02*
X-46976000Y30595000D01*
X-45071000Y31230000D02*
X-46341000Y31230000D01*
X-44436000Y30595000D02*
X-45071000Y31230000D01*
X-45071000Y28690000D02*
X-44436000Y29325000D01*
X-46341000Y28690000D02*
X-45071000Y28690000D01*
X-46976000Y29325000D02*
X-46341000Y28690000D01*
X-46976000Y30595000D02*
X-47611000Y31230000D01*
X-47611000Y28690000D02*
X-46976000Y29325000D01*
X-48881000Y28690000D02*
X-47611000Y28690000D01*
X-39991000Y31230000D02*
X-41261000Y31230000D01*
X-41896000Y30595000D02*
X-41261000Y31230000D01*
X-41261000Y28690000D02*
X-41896000Y29325000D01*
X-43801000Y31230000D02*
X-44436000Y30595000D01*
X-42531000Y31230000D02*
X-43801000Y31230000D01*
X-41896000Y30595000D02*
X-42531000Y31230000D01*
X-42531000Y28690000D02*
X-41896000Y29325000D01*
X-43801000Y28690000D02*
X-42531000Y28690000D01*
X-44436000Y29325000D02*
X-43801000Y28690000D01*
X-38721000Y31230000D02*
X-39356000Y30595000D01*
X-37451000Y31230000D02*
X-38721000Y31230000D01*
X-36816000Y30595000D02*
X-37451000Y31230000D01*
X-37451000Y28690000D02*
X-36816000Y29325000D01*
X-38721000Y28690000D02*
X-37451000Y28690000D01*
X-39356000Y29325000D02*
X-38721000Y28690000D01*
X-39356000Y30595000D02*
X-39991000Y31230000D01*
X-39991000Y28690000D02*
X-39356000Y29325000D01*
X-41261000Y28690000D02*
X-39991000Y28690000D01*
X-32371000Y31230000D02*
X-33641000Y31230000D01*
X-34276000Y30595000D02*
X-33641000Y31230000D01*
X-33641000Y28690000D02*
X-34276000Y29325000D01*
X-36181000Y31230000D02*
X-36816000Y30595000D01*
X-34911000Y31230000D02*
X-36181000Y31230000D01*
X-34276000Y30595000D02*
X-34911000Y31230000D01*
X-34911000Y28690000D02*
X-34276000Y29325000D01*
X-36181000Y28690000D02*
X-34911000Y28690000D01*
X-36816000Y29325000D02*
X-36181000Y28690000D01*
X-31736000Y30595000D02*
X-32371000Y31230000D01*
X-32371000Y28690000D02*
X-31736000Y29325000D01*
X-33641000Y28690000D02*
X-32371000Y28690000D01*
X-24751000Y79490000D02*
X-26021000Y79490000D01*
X-26656000Y78855000D02*
X-26021000Y79490000D01*
X-26021000Y76950000D02*
X-26656000Y77585000D01*
X-24116000Y78855000D02*
X-24751000Y79490000D01*
X-24116000Y77585000D02*
X-24116000Y78855000D01*
X-24751000Y76950000D02*
X-24116000Y77585000D01*
X-26021000Y76950000D02*
X-24751000Y76950000D01*
X-42531000Y79490000D02*
X-43801000Y79490000D01*
X-44436000Y78855000D02*
X-43801000Y79490000D01*
X-43801000Y76950000D02*
X-44436000Y77585000D01*
X-44436000Y77585000D02*
X-44436000Y78855000D01*
X-41261000Y79490000D02*
X-41896000Y78855000D01*
X-39991000Y79490000D02*
X-41261000Y79490000D01*
X-39356000Y78855000D02*
X-39991000Y79490000D01*
X-39991000Y76950000D02*
X-39356000Y77585000D01*
X-41261000Y76950000D02*
X-39991000Y76950000D01*
X-41896000Y77585000D02*
X-41261000Y76950000D01*
X-41896000Y78855000D02*
X-42531000Y79490000D01*
X-42531000Y76950000D02*
X-41896000Y77585000D01*
X-43801000Y76950000D02*
X-42531000Y76950000D01*
X-34911000Y79490000D02*
X-36181000Y79490000D01*
X-36816000Y78855000D02*
X-36181000Y79490000D01*
X-36181000Y76950000D02*
X-36816000Y77585000D01*
X-38721000Y79490000D02*
X-39356000Y78855000D01*
X-37451000Y79490000D02*
X-38721000Y79490000D01*
X-36816000Y78855000D02*
X-37451000Y79490000D01*
X-37451000Y76950000D02*
X-36816000Y77585000D01*
X-38721000Y76950000D02*
X-37451000Y76950000D01*
X-39356000Y77585000D02*
X-38721000Y76950000D01*
X-33641000Y79490000D02*
X-34276000Y78855000D01*
X-32371000Y79490000D02*
X-33641000Y79490000D01*
X-31736000Y78855000D02*
X-32371000Y79490000D01*
X-32371000Y76950000D02*
X-31736000Y77585000D01*
X-33641000Y76950000D02*
X-32371000Y76950000D01*
X-34276000Y77585000D02*
X-33641000Y76950000D01*
X-34276000Y78855000D02*
X-34911000Y79490000D01*
X-34911000Y76950000D02*
X-34276000Y77585000D01*
X-36181000Y76950000D02*
X-34911000Y76950000D01*
X-27291000Y79490000D02*
X-28561000Y79490000D01*
X-29196000Y78855000D02*
X-28561000Y79490000D01*
X-28561000Y76950000D02*
X-29196000Y77585000D01*
X-31101000Y79490000D02*
X-31736000Y78855000D01*
X-29831000Y79490000D02*
X-31101000Y79490000D01*
X-29196000Y78855000D02*
X-29831000Y79490000D01*
X-29831000Y76950000D02*
X-29196000Y77585000D01*
X-31101000Y76950000D02*
X-29831000Y76950000D01*
X-31736000Y77585000D02*
X-31101000Y76950000D01*
X-26656000Y78855000D02*
X-27291000Y79490000D01*
X-27291000Y76950000D02*
X-26656000Y77585000D01*
X-28561000Y76950000D02*
X-27291000Y76950000D01*
D14*
X-33484095Y12787619D02*
X-33484095Y11978095D01*
X-33531714Y11882857D01*
X-33579333Y11835238D01*
X-33674571Y11787619D01*
X-33865047Y11787619D01*
X-33960285Y11835238D01*
X-34007904Y11882857D01*
X-34055523Y11978095D01*
X-34055523Y12787619D01*
X-35055523Y11787619D02*
X-34484095Y11787619D01*
X-34769809Y11787619D02*
X-34769809Y12787619D01*
X-34674571Y12644761D01*
X-34579333Y12549523D01*
X-34484095Y12501904D01*
D15*
X-114039257Y28733542D02*
X-114126342Y28704514D01*
X-114155371Y28675485D01*
X-114184400Y28617428D01*
X-114184400Y28530342D01*
X-114155371Y28472285D01*
X-114126342Y28443257D01*
X-114068285Y28414228D01*
X-113836057Y28414228D01*
X-113836057Y29023828D01*
X-114039257Y29023828D01*
X-114097314Y28994800D01*
X-114126342Y28965771D01*
X-114155371Y28907714D01*
X-114155371Y28849657D01*
X-114126342Y28791600D01*
X-114097314Y28762571D01*
X-114039257Y28733542D01*
X-113836057Y28733542D01*
X-114764971Y28414228D02*
X-114416628Y28414228D01*
X-114590800Y28414228D02*
X-114590800Y29023828D01*
X-114532742Y28936742D01*
X-114474685Y28878685D01*
X-114416628Y28849657D01*
X-104692057Y79388400D02*
X-104982342Y79388400D01*
X-104634000Y79214228D02*
X-104837200Y79823828D01*
X-105040400Y79214228D01*
X-105591942Y79214228D02*
X-105388742Y79504514D01*
X-105243600Y79214228D02*
X-105243600Y79823828D01*
X-105475828Y79823828D01*
X-105533885Y79794800D01*
X-105562914Y79765771D01*
X-105591942Y79707714D01*
X-105591942Y79620628D01*
X-105562914Y79562571D01*
X-105533885Y79533542D01*
X-105475828Y79504514D01*
X-105243600Y79504514D01*
X-105853200Y79214228D02*
X-105853200Y79823828D01*
X-105998342Y79823828D01*
X-106085428Y79794800D01*
X-106143485Y79736742D01*
X-106172514Y79678685D01*
X-106201542Y79562571D01*
X-106201542Y79475485D01*
X-106172514Y79359371D01*
X-106143485Y79301314D01*
X-106085428Y79243257D01*
X-105998342Y79214228D01*
X-105853200Y79214228D01*
X-106462800Y79823828D02*
X-106462800Y79330342D01*
X-106491828Y79272285D01*
X-106520857Y79243257D01*
X-106578914Y79214228D01*
X-106695028Y79214228D01*
X-106753085Y79243257D01*
X-106782114Y79272285D01*
X-106811142Y79330342D01*
X-106811142Y79823828D01*
X-107101428Y79214228D02*
X-107101428Y79823828D01*
X-107391714Y79214228D02*
X-107391714Y79823828D01*
X-107740057Y79214228D01*
X-107740057Y79823828D01*
X-108146457Y79823828D02*
X-108262571Y79823828D01*
X-108320628Y79794800D01*
X-108378685Y79736742D01*
X-108407714Y79620628D01*
X-108407714Y79417428D01*
X-108378685Y79301314D01*
X-108320628Y79243257D01*
X-108262571Y79214228D01*
X-108146457Y79214228D01*
X-108088400Y79243257D01*
X-108030342Y79301314D01*
X-108001314Y79417428D01*
X-108001314Y79620628D01*
X-108030342Y79736742D01*
X-108088400Y79794800D01*
X-108146457Y79823828D01*
X-108523828Y79156171D02*
X-108988285Y79156171D01*
X-109133428Y79214228D02*
X-109133428Y79823828D01*
X-109336628Y79388400D01*
X-109539828Y79823828D01*
X-109539828Y79214228D01*
X-109830114Y79533542D02*
X-110033314Y79533542D01*
X-110120400Y79214228D02*
X-109830114Y79214228D01*
X-109830114Y79823828D01*
X-110120400Y79823828D01*
X-110700971Y79794800D02*
X-110642914Y79823828D01*
X-110555828Y79823828D01*
X-110468742Y79794800D01*
X-110410685Y79736742D01*
X-110381657Y79678685D01*
X-110352628Y79562571D01*
X-110352628Y79475485D01*
X-110381657Y79359371D01*
X-110410685Y79301314D01*
X-110468742Y79243257D01*
X-110555828Y79214228D01*
X-110613885Y79214228D01*
X-110700971Y79243257D01*
X-110730000Y79272285D01*
X-110730000Y79475485D01*
X-110613885Y79475485D01*
X-110962228Y79388400D02*
X-111252514Y79388400D01*
X-110904171Y79214228D02*
X-111107371Y79823828D01*
X-111310571Y79214228D01*
X-111368628Y79156171D02*
X-111833085Y79156171D01*
X-112326571Y79214228D02*
X-112123371Y79504514D01*
X-111978228Y79214228D02*
X-111978228Y79823828D01*
X-112210457Y79823828D01*
X-112268514Y79794800D01*
X-112297542Y79765771D01*
X-112326571Y79707714D01*
X-112326571Y79620628D01*
X-112297542Y79562571D01*
X-112268514Y79533542D01*
X-112210457Y79504514D01*
X-111978228Y79504514D01*
X-112529771Y79823828D02*
X-112907142Y79823828D01*
X-112703942Y79591600D01*
X-112791028Y79591600D01*
X-112849085Y79562571D01*
X-112878114Y79533542D01*
X-112907142Y79475485D01*
X-112907142Y79330342D01*
X-112878114Y79272285D01*
X-112849085Y79243257D01*
X-112791028Y79214228D01*
X-112616857Y79214228D01*
X-112558800Y79243257D01*
X-112529771Y79272285D01*
X-113371600Y79533542D02*
X-113168400Y79533542D01*
X-113168400Y79214228D02*
X-113168400Y79823828D01*
X-113458685Y79823828D01*
X-113690914Y79823828D02*
X-113690914Y79330342D01*
X-113719942Y79272285D01*
X-113748971Y79243257D01*
X-113807028Y79214228D01*
X-113923142Y79214228D01*
X-113981200Y79243257D01*
X-114010228Y79272285D01*
X-114039257Y79330342D01*
X-114039257Y79823828D01*
X-114619828Y79214228D02*
X-114329542Y79214228D01*
X-114329542Y79823828D01*
X-115113314Y79214228D02*
X-114823028Y79214228D01*
X-114823028Y79823828D01*
X-115316514Y79446457D02*
X-115780971Y79446457D01*
X-116042228Y79243257D02*
X-116129314Y79214228D01*
X-116274457Y79214228D01*
X-116332514Y79243257D01*
X-116361542Y79272285D01*
X-116390571Y79330342D01*
X-116390571Y79388400D01*
X-116361542Y79446457D01*
X-116332514Y79475485D01*
X-116274457Y79504514D01*
X-116158342Y79533542D01*
X-116100285Y79562571D01*
X-116071257Y79591600D01*
X-116042228Y79649657D01*
X-116042228Y79707714D01*
X-116071257Y79765771D01*
X-116100285Y79794800D01*
X-116158342Y79823828D01*
X-116303485Y79823828D01*
X-116390571Y79794800D01*
X-116651828Y79620628D02*
X-116651828Y79011028D01*
X-116651828Y79591600D02*
X-116709885Y79620628D01*
X-116826000Y79620628D01*
X-116884057Y79591600D01*
X-116913085Y79562571D01*
X-116942114Y79504514D01*
X-116942114Y79330342D01*
X-116913085Y79272285D01*
X-116884057Y79243257D01*
X-116826000Y79214228D01*
X-116709885Y79214228D01*
X-116651828Y79243257D01*
X-117464628Y79214228D02*
X-117464628Y79533542D01*
X-117435600Y79591600D01*
X-117377542Y79620628D01*
X-117261428Y79620628D01*
X-117203371Y79591600D01*
X-117464628Y79243257D02*
X-117406571Y79214228D01*
X-117261428Y79214228D01*
X-117203371Y79243257D01*
X-117174342Y79301314D01*
X-117174342Y79359371D01*
X-117203371Y79417428D01*
X-117261428Y79446457D01*
X-117406571Y79446457D01*
X-117464628Y79475485D01*
X-117754914Y79214228D02*
X-117754914Y79620628D01*
X-117754914Y79504514D02*
X-117783942Y79562571D01*
X-117812971Y79591600D01*
X-117871028Y79620628D01*
X-117929085Y79620628D01*
X-118132285Y79214228D02*
X-118132285Y79823828D01*
X-118190342Y79446457D02*
X-118364514Y79214228D01*
X-118364514Y79620628D02*
X-118132285Y79388400D01*
X-118828971Y79533542D02*
X-118625771Y79533542D01*
X-118625771Y79214228D02*
X-118625771Y79823828D01*
X-118916057Y79823828D01*
X-119409542Y79620628D02*
X-119409542Y79214228D01*
X-119148285Y79620628D02*
X-119148285Y79301314D01*
X-119177314Y79243257D01*
X-119235371Y79214228D01*
X-119322457Y79214228D01*
X-119380514Y79243257D01*
X-119409542Y79272285D01*
X-119699828Y79620628D02*
X-119699828Y79214228D01*
X-119699828Y79562571D02*
X-119728857Y79591600D01*
X-119786914Y79620628D01*
X-119874000Y79620628D01*
X-119932057Y79591600D01*
X-119961085Y79533542D01*
X-119961085Y79214228D01*
X-120251371Y79446457D02*
X-120715828Y79446457D01*
X-121209314Y79533542D02*
X-121296400Y79504514D01*
X-121325428Y79475485D01*
X-121354457Y79417428D01*
X-121354457Y79330342D01*
X-121325428Y79272285D01*
X-121296400Y79243257D01*
X-121238342Y79214228D01*
X-121006114Y79214228D01*
X-121006114Y79823828D01*
X-121209314Y79823828D01*
X-121267371Y79794800D01*
X-121296400Y79765771D01*
X-121325428Y79707714D01*
X-121325428Y79649657D01*
X-121296400Y79591600D01*
X-121267371Y79562571D01*
X-121209314Y79533542D01*
X-121006114Y79533542D01*
X-121702800Y79214228D02*
X-121644742Y79243257D01*
X-121615714Y79272285D01*
X-121586685Y79330342D01*
X-121586685Y79504514D01*
X-121615714Y79562571D01*
X-121644742Y79591600D01*
X-121702800Y79620628D01*
X-121789885Y79620628D01*
X-121847942Y79591600D01*
X-121876971Y79562571D01*
X-121906000Y79504514D01*
X-121906000Y79330342D01*
X-121876971Y79272285D01*
X-121847942Y79243257D01*
X-121789885Y79214228D01*
X-121702800Y79214228D01*
X-122428514Y79214228D02*
X-122428514Y79533542D01*
X-122399485Y79591600D01*
X-122341428Y79620628D01*
X-122225314Y79620628D01*
X-122167257Y79591600D01*
X-122428514Y79243257D02*
X-122370457Y79214228D01*
X-122225314Y79214228D01*
X-122167257Y79243257D01*
X-122138228Y79301314D01*
X-122138228Y79359371D01*
X-122167257Y79417428D01*
X-122225314Y79446457D01*
X-122370457Y79446457D01*
X-122428514Y79475485D01*
X-122718800Y79214228D02*
X-122718800Y79620628D01*
X-122718800Y79504514D02*
X-122747828Y79562571D01*
X-122776857Y79591600D01*
X-122834914Y79620628D01*
X-122892971Y79620628D01*
X-123357428Y79214228D02*
X-123357428Y79823828D01*
X-123357428Y79243257D02*
X-123299371Y79214228D01*
X-123183257Y79214228D01*
X-123125200Y79243257D01*
X-123096171Y79272285D01*
X-123067142Y79330342D01*
X-123067142Y79504514D01*
X-123096171Y79562571D01*
X-123125200Y79591600D01*
X-123183257Y79620628D01*
X-123299371Y79620628D01*
X-123357428Y79591600D01*
X-123618685Y79243257D02*
X-123676742Y79214228D01*
X-123792857Y79214228D01*
X-123850914Y79243257D01*
X-123879942Y79301314D01*
X-123879942Y79330342D01*
X-123850914Y79388400D01*
X-123792857Y79417428D01*
X-123705771Y79417428D01*
X-123647714Y79446457D01*
X-123618685Y79504514D01*
X-123618685Y79533542D01*
X-123647714Y79591600D01*
X-123705771Y79620628D01*
X-123792857Y79620628D01*
X-123850914Y79591600D01*
X-24327666Y28732333D02*
X-23904333Y28732333D01*
X-23862000Y28309000D01*
X-23904333Y28351333D01*
X-23989000Y28393666D01*
X-24200666Y28393666D01*
X-24285333Y28351333D01*
X-24327666Y28309000D01*
X-24370000Y28224333D01*
X-24370000Y28012666D01*
X-24327666Y27928000D01*
X-24285333Y27885666D01*
X-24200666Y27843333D01*
X-23989000Y27843333D01*
X-23904333Y27885666D01*
X-23862000Y27928000D01*
X-24624000Y28732333D02*
X-24920333Y27843333D01*
X-25216666Y28732333D01*
D12*
X-93108326Y32279866D02*
X-93108326Y32957200D01*
X-93514726Y32144400D02*
X-92092326Y32618533D01*
X-93514726Y33092666D01*
X-93514726Y34379600D02*
X-92837393Y33905466D01*
X-93514726Y33566800D02*
X-92092326Y33566800D01*
X-92092326Y34108666D01*
X-92160060Y34244133D01*
X-92227793Y34311866D01*
X-92363260Y34379600D01*
X-92566460Y34379600D01*
X-92701926Y34311866D01*
X-92769660Y34244133D01*
X-92837393Y34108666D01*
X-92837393Y33566800D01*
X-92769660Y34989200D02*
X-92769660Y35463333D01*
X-93514726Y35666533D02*
X-93514726Y34989200D01*
X-92092326Y34989200D01*
X-92092326Y35666533D01*
X-92769660Y36750266D02*
X-92769660Y36276133D01*
X-93514726Y36276133D02*
X-92092326Y36276133D01*
X-92092326Y36953466D01*
X-89749600Y32787866D02*
X-89681866Y32652400D01*
X-89681866Y32449200D01*
X-89749600Y32246000D01*
X-89885066Y32110533D01*
X-90020533Y32042800D01*
X-90291466Y31975066D01*
X-90494666Y31975066D01*
X-90765600Y32042800D01*
X-90901066Y32110533D01*
X-91036533Y32246000D01*
X-91104266Y32449200D01*
X-91104266Y32584666D01*
X-91036533Y32787866D01*
X-90968800Y32855600D01*
X-90494666Y32855600D01*
X-90494666Y32584666D01*
X-91104266Y33465200D02*
X-89681866Y33465200D01*
X-91104266Y34278000D01*
X-89681866Y34278000D01*
X-91104266Y34955333D02*
X-89681866Y34955333D01*
X-89681866Y35294000D01*
X-89749600Y35497200D01*
X-89885066Y35632666D01*
X-90020533Y35700400D01*
X-90291466Y35768133D01*
X-90494666Y35768133D01*
X-90765600Y35700400D01*
X-90901066Y35632666D01*
X-91036533Y35497200D01*
X-91104266Y35294000D01*
X-91104266Y34955333D01*
D13*
X-70549619Y73598409D02*
X-71565619Y73937076D01*
X-70549619Y74275742D01*
X-71565619Y74614409D02*
X-70888285Y74614409D01*
X-70549619Y74614409D02*
X-70598000Y74566028D01*
X-70646380Y74614409D01*
X-70598000Y74662790D01*
X-70549619Y74614409D01*
X-70646380Y74614409D01*
X-70888285Y75098219D02*
X-71565619Y75098219D01*
X-70985047Y75098219D02*
X-70936666Y75146600D01*
X-70888285Y75243361D01*
X-70888285Y75388504D01*
X-70936666Y75485266D01*
X-71033428Y75533647D01*
X-71565619Y75533647D01*
X-73138000Y73864504D02*
X-73089619Y73767742D01*
X-73089619Y73622600D01*
X-73138000Y73477457D01*
X-73234761Y73380695D01*
X-73331523Y73332314D01*
X-73525047Y73283933D01*
X-73670190Y73283933D01*
X-73863714Y73332314D01*
X-73960476Y73380695D01*
X-74057238Y73477457D01*
X-74105619Y73622600D01*
X-74105619Y73719361D01*
X-74057238Y73864504D01*
X-74008857Y73912885D01*
X-73670190Y73912885D01*
X-73670190Y73719361D01*
X-74105619Y74348314D02*
X-73089619Y74348314D01*
X-74105619Y74928885D01*
X-73089619Y74928885D01*
X-74105619Y75412695D02*
X-73089619Y75412695D01*
X-73089619Y75654600D01*
X-73138000Y75799742D01*
X-73234761Y75896504D01*
X-73331523Y75944885D01*
X-73525047Y75993266D01*
X-73670190Y75993266D01*
X-73863714Y75944885D01*
X-73960476Y75896504D01*
X-74057238Y75799742D01*
X-74105619Y75654600D01*
X-74105619Y75412695D01*
X-75678000Y73864504D02*
X-75629619Y73767742D01*
X-75629619Y73622600D01*
X-75678000Y73477457D01*
X-75774761Y73380695D01*
X-75871523Y73332314D01*
X-76065047Y73283933D01*
X-76210190Y73283933D01*
X-76403714Y73332314D01*
X-76500476Y73380695D01*
X-76597238Y73477457D01*
X-76645619Y73622600D01*
X-76645619Y73719361D01*
X-76597238Y73864504D01*
X-76548857Y73912885D01*
X-76210190Y73912885D01*
X-76210190Y73719361D01*
X-76645619Y74348314D02*
X-75629619Y74348314D01*
X-76645619Y74928885D01*
X-75629619Y74928885D01*
X-76645619Y75412695D02*
X-75629619Y75412695D01*
X-75629619Y75654600D01*
X-75678000Y75799742D01*
X-75774761Y75896504D01*
X-75871523Y75944885D01*
X-76065047Y75993266D01*
X-76210190Y75993266D01*
X-76403714Y75944885D01*
X-76500476Y75896504D01*
X-76597238Y75799742D01*
X-76645619Y75654600D01*
X-76645619Y75412695D01*
X-78169619Y74953076D02*
X-78169619Y74469266D01*
X-78653428Y74420885D01*
X-78605047Y74469266D01*
X-78556666Y74566028D01*
X-78556666Y74807933D01*
X-78605047Y74904695D01*
X-78653428Y74953076D01*
X-78750190Y75001457D01*
X-78992095Y75001457D01*
X-79088857Y74953076D01*
X-79137238Y74904695D01*
X-79185619Y74807933D01*
X-79185619Y74566028D01*
X-79137238Y74469266D01*
X-79088857Y74420885D01*
X-78169619Y75291742D02*
X-79185619Y75630409D01*
X-78169619Y75969076D01*
X-80709619Y74953076D02*
X-80709619Y74469266D01*
X-81193428Y74420885D01*
X-81145047Y74469266D01*
X-81096666Y74566028D01*
X-81096666Y74807933D01*
X-81145047Y74904695D01*
X-81193428Y74953076D01*
X-81290190Y75001457D01*
X-81532095Y75001457D01*
X-81628857Y74953076D01*
X-81677238Y74904695D01*
X-81725619Y74807933D01*
X-81725619Y74566028D01*
X-81677238Y74469266D01*
X-81628857Y74420885D01*
X-80709619Y75291742D02*
X-81725619Y75630409D01*
X-80709619Y75969076D01*
X-84265619Y72146980D02*
X-83781809Y71808314D01*
X-84265619Y71566409D02*
X-83249619Y71566409D01*
X-83249619Y71953457D01*
X-83298000Y72050219D01*
X-83346380Y72098600D01*
X-83443142Y72146980D01*
X-83588285Y72146980D01*
X-83685047Y72098600D01*
X-83733428Y72050219D01*
X-83781809Y71953457D01*
X-83781809Y71566409D01*
X-83733428Y72582409D02*
X-83733428Y72921076D01*
X-84265619Y73066219D02*
X-84265619Y72582409D01*
X-83249619Y72582409D01*
X-83249619Y73066219D01*
X-84217238Y73453266D02*
X-84265619Y73598409D01*
X-84265619Y73840314D01*
X-84217238Y73937076D01*
X-84168857Y73985457D01*
X-84072095Y74033838D01*
X-83975333Y74033838D01*
X-83878571Y73985457D01*
X-83830190Y73937076D01*
X-83781809Y73840314D01*
X-83733428Y73646790D01*
X-83685047Y73550028D01*
X-83636666Y73501647D01*
X-83539904Y73453266D01*
X-83443142Y73453266D01*
X-83346380Y73501647D01*
X-83298000Y73550028D01*
X-83249619Y73646790D01*
X-83249619Y73888695D01*
X-83298000Y74033838D01*
X-83733428Y74469266D02*
X-83733428Y74807933D01*
X-84265619Y74953076D02*
X-84265619Y74469266D01*
X-83249619Y74469266D01*
X-83249619Y74953076D01*
X-83249619Y75243361D02*
X-83249619Y75823933D01*
X-84265619Y75533647D02*
X-83249619Y75533647D01*
D16*
X-69872285Y71180571D02*
X-69872285Y72704571D01*
X-70452857Y72704571D01*
X-70598000Y72632000D01*
X-70670571Y72559428D01*
X-70743142Y72414285D01*
X-70743142Y72196571D01*
X-70670571Y72051428D01*
X-70598000Y71978857D01*
X-70452857Y71906285D01*
X-69872285Y71906285D01*
X-71686571Y72704571D02*
X-71976857Y72704571D01*
X-72122000Y72632000D01*
X-72267142Y72486857D01*
X-72339714Y72196571D01*
X-72339714Y71688571D01*
X-72267142Y71398285D01*
X-72122000Y71253142D01*
X-71976857Y71180571D01*
X-71686571Y71180571D01*
X-71541428Y71253142D01*
X-71396285Y71398285D01*
X-71323714Y71688571D01*
X-71323714Y72196571D01*
X-71396285Y72486857D01*
X-71541428Y72632000D01*
X-71686571Y72704571D01*
X-72847714Y72704571D02*
X-73210571Y71180571D01*
X-73500857Y72269142D01*
X-73791142Y71180571D01*
X-74154000Y72704571D01*
X-74734571Y71978857D02*
X-75242571Y71978857D01*
X-75460285Y71180571D02*
X-74734571Y71180571D01*
X-74734571Y72704571D01*
X-75460285Y72704571D01*
X-76984285Y71180571D02*
X-76476285Y71906285D01*
X-76113428Y71180571D02*
X-76113428Y72704571D01*
X-76694000Y72704571D01*
X-76839142Y72632000D01*
X-76911714Y72559428D01*
X-76984285Y72414285D01*
X-76984285Y72196571D01*
X-76911714Y72051428D01*
X-76839142Y71978857D01*
X-76694000Y71906285D01*
X-76113428Y71906285D01*
D13*
X-31004238Y35357016D02*
X-31052619Y35502159D01*
X-31052619Y35744063D01*
X-31004238Y35840825D01*
X-30955857Y35889206D01*
X-30859095Y35937587D01*
X-30762333Y35937587D01*
X-30665571Y35889206D01*
X-30617190Y35840825D01*
X-30568809Y35744063D01*
X-30520428Y35550540D01*
X-30472047Y35453778D01*
X-30423666Y35405397D01*
X-30326904Y35357016D01*
X-30230142Y35357016D01*
X-30133380Y35405397D01*
X-30085000Y35453778D01*
X-30036619Y35550540D01*
X-30036619Y35792444D01*
X-30085000Y35937587D01*
X-30955857Y36953587D02*
X-31004238Y36905206D01*
X-31052619Y36760063D01*
X-31052619Y36663301D01*
X-31004238Y36518159D01*
X-30907476Y36421397D01*
X-30810714Y36373016D01*
X-30617190Y36324635D01*
X-30472047Y36324635D01*
X-30278523Y36373016D01*
X-30181761Y36421397D01*
X-30085000Y36518159D01*
X-30036619Y36663301D01*
X-30036619Y36760063D01*
X-30085000Y36905206D01*
X-30133380Y36953587D01*
X-31052619Y37872825D02*
X-31052619Y37389016D01*
X-30036619Y37389016D01*
X-33544238Y35332825D02*
X-33592619Y35477968D01*
X-33592619Y35719873D01*
X-33544238Y35816635D01*
X-33495857Y35865016D01*
X-33399095Y35913397D01*
X-33302333Y35913397D01*
X-33205571Y35865016D01*
X-33157190Y35816635D01*
X-33108809Y35719873D01*
X-33060428Y35526349D01*
X-33012047Y35429587D01*
X-32963666Y35381206D01*
X-32866904Y35332825D01*
X-32770142Y35332825D01*
X-32673380Y35381206D01*
X-32625000Y35429587D01*
X-32576619Y35526349D01*
X-32576619Y35768254D01*
X-32625000Y35913397D01*
X-33592619Y36348825D02*
X-32576619Y36348825D01*
X-32576619Y36590730D01*
X-32625000Y36735873D01*
X-32721761Y36832635D01*
X-32818523Y36881016D01*
X-33012047Y36929397D01*
X-33157190Y36929397D01*
X-33350714Y36881016D01*
X-33447476Y36832635D01*
X-33544238Y36735873D01*
X-33592619Y36590730D01*
X-33592619Y36348825D01*
X-33302333Y37316444D02*
X-33302333Y37800254D01*
X-33592619Y37219682D02*
X-32576619Y37558349D01*
X-33592619Y37897016D01*
X-36132619Y35913397D02*
X-35648809Y35574730D01*
X-36132619Y35332825D02*
X-35116619Y35332825D01*
X-35116619Y35719873D01*
X-35165000Y35816635D01*
X-35213380Y35865016D01*
X-35310142Y35913397D01*
X-35455285Y35913397D01*
X-35552047Y35865016D01*
X-35600428Y35816635D01*
X-35648809Y35719873D01*
X-35648809Y35332825D01*
X-35116619Y36252063D02*
X-36132619Y36929397D01*
X-35116619Y36929397D02*
X-36132619Y36252063D01*
X-36132619Y37848635D02*
X-36132619Y37268063D01*
X-36132619Y37558349D02*
X-35116619Y37558349D01*
X-35261761Y37461587D01*
X-35358523Y37364825D01*
X-35406904Y37268063D01*
X-37656619Y35308635D02*
X-37656619Y35889206D01*
X-38672619Y35598920D02*
X-37656619Y35598920D01*
X-37656619Y36131111D02*
X-38672619Y36808444D01*
X-37656619Y36808444D02*
X-38672619Y36131111D01*
X-38672619Y37727682D02*
X-38672619Y37147111D01*
X-38672619Y37437397D02*
X-37656619Y37437397D01*
X-37801761Y37340635D01*
X-37898523Y37243873D01*
X-37946904Y37147111D01*
X-41212619Y35913397D02*
X-40728809Y35574730D01*
X-41212619Y35332825D02*
X-40196619Y35332825D01*
X-40196619Y35719873D01*
X-40245000Y35816635D01*
X-40293380Y35865016D01*
X-40390142Y35913397D01*
X-40535285Y35913397D01*
X-40632047Y35865016D01*
X-40680428Y35816635D01*
X-40728809Y35719873D01*
X-40728809Y35332825D01*
X-40196619Y36252063D02*
X-41212619Y36929397D01*
X-40196619Y36929397D02*
X-41212619Y36252063D01*
X-40293380Y37268063D02*
X-40245000Y37316444D01*
X-40196619Y37413206D01*
X-40196619Y37655111D01*
X-40245000Y37751873D01*
X-40293380Y37800254D01*
X-40390142Y37848635D01*
X-40486904Y37848635D01*
X-40632047Y37800254D01*
X-41212619Y37219682D01*
X-41212619Y37848635D01*
X-42736619Y35308635D02*
X-42736619Y35889206D01*
X-43752619Y35598920D02*
X-42736619Y35598920D01*
X-42736619Y36131111D02*
X-43752619Y36808444D01*
X-42736619Y36808444D02*
X-43752619Y36131111D01*
X-42833380Y37147111D02*
X-42785000Y37195492D01*
X-42736619Y37292254D01*
X-42736619Y37534159D01*
X-42785000Y37630920D01*
X-42833380Y37679301D01*
X-42930142Y37727682D01*
X-43026904Y37727682D01*
X-43172047Y37679301D01*
X-43752619Y37098730D01*
X-43752619Y37727682D01*
X-46292619Y35913397D02*
X-45808809Y35574730D01*
X-46292619Y35332825D02*
X-45276619Y35332825D01*
X-45276619Y35719873D01*
X-45325000Y35816635D01*
X-45373380Y35865016D01*
X-45470142Y35913397D01*
X-45615285Y35913397D01*
X-45712047Y35865016D01*
X-45760428Y35816635D01*
X-45808809Y35719873D01*
X-45808809Y35332825D01*
X-45276619Y36252063D02*
X-46292619Y36929397D01*
X-45276619Y36929397D02*
X-46292619Y36252063D01*
X-45276619Y37219682D02*
X-45276619Y37848635D01*
X-45663666Y37509968D01*
X-45663666Y37655111D01*
X-45712047Y37751873D01*
X-45760428Y37800254D01*
X-45857190Y37848635D01*
X-46099095Y37848635D01*
X-46195857Y37800254D01*
X-46244238Y37751873D01*
X-46292619Y37655111D01*
X-46292619Y37364825D01*
X-46244238Y37268063D01*
X-46195857Y37219682D01*
X-47816619Y35308635D02*
X-47816619Y35889206D01*
X-48832619Y35598920D02*
X-47816619Y35598920D01*
X-47816619Y36131111D02*
X-48832619Y36808444D01*
X-47816619Y36808444D02*
X-48832619Y36131111D01*
X-47816619Y37098730D02*
X-47816619Y37727682D01*
X-48203666Y37389016D01*
X-48203666Y37534159D01*
X-48252047Y37630920D01*
X-48300428Y37679301D01*
X-48397190Y37727682D01*
X-48639095Y37727682D01*
X-48735857Y37679301D01*
X-48784238Y37630920D01*
X-48832619Y37534159D01*
X-48832619Y37243873D01*
X-48784238Y37147111D01*
X-48735857Y37098730D01*
D16*
X-83189142Y35493571D02*
X-83189142Y37017571D01*
X-83769714Y37017571D01*
X-83914857Y36945000D01*
X-83987428Y36872428D01*
X-84060000Y36727285D01*
X-84060000Y36509571D01*
X-83987428Y36364428D01*
X-83914857Y36291857D01*
X-83769714Y36219285D01*
X-83189142Y36219285D01*
X-84568000Y37017571D02*
X-84930857Y35493571D01*
X-85221142Y36582142D01*
X-85511428Y35493571D01*
X-85874285Y37017571D01*
X-86454857Y35493571D02*
X-86454857Y37017571D01*
X-86962857Y35929000D01*
X-87470857Y37017571D01*
X-87470857Y35493571D01*
D13*
X-53912619Y35913397D02*
X-53428809Y35574730D01*
X-53912619Y35332825D02*
X-52896619Y35332825D01*
X-52896619Y35719873D01*
X-52945000Y35816635D01*
X-52993380Y35865016D01*
X-53090142Y35913397D01*
X-53235285Y35913397D01*
X-53332047Y35865016D01*
X-53380428Y35816635D01*
X-53428809Y35719873D01*
X-53428809Y35332825D01*
X-52896619Y36252063D02*
X-53912619Y36929397D01*
X-52896619Y36929397D02*
X-53912619Y36252063D01*
X-52896619Y37509968D02*
X-52896619Y37606730D01*
X-52945000Y37703492D01*
X-52993380Y37751873D01*
X-53090142Y37800254D01*
X-53283666Y37848635D01*
X-53525571Y37848635D01*
X-53719095Y37800254D01*
X-53815857Y37751873D01*
X-53864238Y37703492D01*
X-53912619Y37606730D01*
X-53912619Y37509968D01*
X-53864238Y37413206D01*
X-53815857Y37364825D01*
X-53719095Y37316444D01*
X-53525571Y37268063D01*
X-53283666Y37268063D01*
X-53090142Y37316444D01*
X-52993380Y37364825D01*
X-52945000Y37413206D01*
X-52896619Y37509968D01*
X-55436619Y35308635D02*
X-55436619Y35889206D01*
X-56452619Y35598920D02*
X-55436619Y35598920D01*
X-55436619Y36131111D02*
X-56452619Y36808444D01*
X-55436619Y36808444D02*
X-56452619Y36131111D01*
X-55436619Y37389016D02*
X-55436619Y37485778D01*
X-55485000Y37582540D01*
X-55533380Y37630920D01*
X-55630142Y37679301D01*
X-55823666Y37727682D01*
X-56065571Y37727682D01*
X-56259095Y37679301D01*
X-56355857Y37630920D01*
X-56404238Y37582540D01*
X-56452619Y37485778D01*
X-56452619Y37389016D01*
X-56404238Y37292254D01*
X-56355857Y37243873D01*
X-56259095Y37195492D01*
X-56065571Y37147111D01*
X-55823666Y37147111D01*
X-55630142Y37195492D01*
X-55533380Y37243873D01*
X-55485000Y37292254D01*
X-55436619Y37389016D01*
X-16102904Y73876600D02*
X-16006142Y73924980D01*
X-15861000Y73924980D01*
X-15715857Y73876600D01*
X-15619095Y73779838D01*
X-15570714Y73683076D01*
X-15522333Y73489552D01*
X-15522333Y73344409D01*
X-15570714Y73150885D01*
X-15619095Y73054123D01*
X-15715857Y72957361D01*
X-15861000Y72908980D01*
X-15957761Y72908980D01*
X-16102904Y72957361D01*
X-16151285Y73005742D01*
X-16151285Y73344409D01*
X-15957761Y73344409D01*
X-16586714Y72908980D02*
X-16586714Y73924980D01*
X-17167285Y72908980D01*
X-17167285Y73924980D01*
X-17651095Y72908980D02*
X-17651095Y73924980D01*
X-17893000Y73924980D01*
X-18038142Y73876600D01*
X-18134904Y73779838D01*
X-18183285Y73683076D01*
X-18231666Y73489552D01*
X-18231666Y73344409D01*
X-18183285Y73150885D01*
X-18134904Y73054123D01*
X-18038142Y72957361D01*
X-17893000Y72908980D01*
X-17651095Y72908980D01*
D16*
X-29760968Y60004571D02*
X-28236968Y60004571D01*
X-28236968Y60367428D01*
X-28309540Y60585142D01*
X-28454682Y60730285D01*
X-28599825Y60802857D01*
X-28890111Y60875428D01*
X-29107825Y60875428D01*
X-29398111Y60802857D01*
X-29543254Y60730285D01*
X-29688397Y60585142D01*
X-29760968Y60367428D01*
X-29760968Y60004571D01*
X-29760968Y61528571D02*
X-28236968Y61528571D01*
X-28309540Y63052571D02*
X-28236968Y62907428D01*
X-28236968Y62689714D01*
X-28309540Y62472000D01*
X-28454682Y62326857D01*
X-28599825Y62254285D01*
X-28890111Y62181714D01*
X-29107825Y62181714D01*
X-29398111Y62254285D01*
X-29543254Y62326857D01*
X-29688397Y62472000D01*
X-29760968Y62689714D01*
X-29760968Y62834857D01*
X-29688397Y63052571D01*
X-29615825Y63125142D01*
X-29107825Y63125142D01*
X-29107825Y62834857D01*
X-29760968Y63778285D02*
X-28236968Y63778285D01*
X-28236968Y64286285D02*
X-28236968Y65157142D01*
X-29760968Y64721714D02*
X-28236968Y64721714D01*
X-29325540Y65592571D02*
X-29325540Y66318285D01*
X-29760968Y65447428D02*
X-28236968Y65955428D01*
X-29760968Y66463428D01*
X-29760968Y67697142D02*
X-29760968Y66971428D01*
X-28236968Y66971428D01*
X-38485142Y39197254D02*
X-38412571Y39124682D01*
X-38194857Y39052111D01*
X-38049714Y39052111D01*
X-37832000Y39124682D01*
X-37686857Y39269825D01*
X-37614285Y39414968D01*
X-37541714Y39705254D01*
X-37541714Y39922968D01*
X-37614285Y40213254D01*
X-37686857Y40358397D01*
X-37832000Y40503540D01*
X-38049714Y40576111D01*
X-38194857Y40576111D01*
X-38412571Y40503540D01*
X-38485142Y40430968D01*
X-39428571Y40576111D02*
X-39718857Y40576111D01*
X-39864000Y40503540D01*
X-40009142Y40358397D01*
X-40081714Y40068111D01*
X-40081714Y39560111D01*
X-40009142Y39269825D01*
X-39864000Y39124682D01*
X-39718857Y39052111D01*
X-39428571Y39052111D01*
X-39283428Y39124682D01*
X-39138285Y39269825D01*
X-39065714Y39560111D01*
X-39065714Y40068111D01*
X-39138285Y40358397D01*
X-39283428Y40503540D01*
X-39428571Y40576111D01*
X-40734857Y39052111D02*
X-40734857Y40576111D01*
X-41242857Y39487540D01*
X-41750857Y40576111D01*
X-41750857Y39052111D01*
X-42476571Y39052111D02*
X-42476571Y40576111D01*
X-42984571Y39487540D01*
X-43492571Y40576111D01*
X-43492571Y39052111D01*
X-44218285Y40576111D02*
X-44218285Y39342397D01*
X-44290857Y39197254D01*
X-44363428Y39124682D01*
X-44508571Y39052111D01*
X-44798857Y39052111D01*
X-44944000Y39124682D01*
X-45016571Y39197254D01*
X-45089142Y39342397D01*
X-45089142Y40576111D01*
X-45814857Y39052111D02*
X-45814857Y40576111D01*
X-46685714Y39052111D01*
X-46685714Y40576111D01*
X-47411428Y39052111D02*
X-47411428Y40576111D01*
X-49008000Y39197254D02*
X-48935428Y39124682D01*
X-48717714Y39052111D01*
X-48572571Y39052111D01*
X-48354857Y39124682D01*
X-48209714Y39269825D01*
X-48137142Y39414968D01*
X-48064571Y39705254D01*
X-48064571Y39922968D01*
X-48137142Y40213254D01*
X-48209714Y40358397D01*
X-48354857Y40503540D01*
X-48572571Y40576111D01*
X-48717714Y40576111D01*
X-48935428Y40503540D01*
X-49008000Y40430968D01*
X-49588571Y39487540D02*
X-50314285Y39487540D01*
X-49443428Y39052111D02*
X-49951428Y40576111D01*
X-50459428Y39052111D01*
X-50749714Y40576111D02*
X-51620571Y40576111D01*
X-51185142Y39052111D02*
X-51185142Y40576111D01*
X-52128571Y39052111D02*
X-52128571Y40576111D01*
X-53144571Y40576111D02*
X-53434857Y40576111D01*
X-53580000Y40503540D01*
X-53725142Y40358397D01*
X-53797714Y40068111D01*
X-53797714Y39560111D01*
X-53725142Y39269825D01*
X-53580000Y39124682D01*
X-53434857Y39052111D01*
X-53144571Y39052111D01*
X-52999428Y39124682D01*
X-52854285Y39269825D01*
X-52781714Y39560111D01*
X-52781714Y40068111D01*
X-52854285Y40358397D01*
X-52999428Y40503540D01*
X-53144571Y40576111D01*
X-54450857Y39052111D02*
X-54450857Y40576111D01*
X-55321714Y39052111D01*
X-55321714Y40576111D01*
X-53180857Y71616000D02*
X-53906571Y71616000D01*
X-53035714Y71180571D02*
X-53543714Y72704571D01*
X-54051714Y71180571D01*
X-54559714Y71180571D02*
X-54559714Y72704571D01*
X-55430571Y71180571D01*
X-55430571Y72704571D01*
X-56083714Y71616000D02*
X-56809428Y71616000D01*
X-55938571Y71180571D02*
X-56446571Y72704571D01*
X-56954571Y71180571D01*
X-58188285Y71180571D02*
X-57462571Y71180571D01*
X-57462571Y72704571D01*
X-58986571Y72704571D02*
X-59276857Y72704571D01*
X-59422000Y72632000D01*
X-59567142Y72486857D01*
X-59639714Y72196571D01*
X-59639714Y71688571D01*
X-59567142Y71398285D01*
X-59422000Y71253142D01*
X-59276857Y71180571D01*
X-58986571Y71180571D01*
X-58841428Y71253142D01*
X-58696285Y71398285D01*
X-58623714Y71688571D01*
X-58623714Y72196571D01*
X-58696285Y72486857D01*
X-58841428Y72632000D01*
X-58986571Y72704571D01*
X-61091142Y72632000D02*
X-60946000Y72704571D01*
X-60728285Y72704571D01*
X-60510571Y72632000D01*
X-60365428Y72486857D01*
X-60292857Y72341714D01*
X-60220285Y72051428D01*
X-60220285Y71833714D01*
X-60292857Y71543428D01*
X-60365428Y71398285D01*
X-60510571Y71253142D01*
X-60728285Y71180571D01*
X-60873428Y71180571D01*
X-61091142Y71253142D01*
X-61163714Y71325714D01*
X-61163714Y71833714D01*
X-60873428Y71833714D01*
X-62978000Y71180571D02*
X-62978000Y72704571D01*
X-63703714Y71180571D02*
X-63703714Y72704571D01*
X-64574571Y71180571D01*
X-64574571Y72704571D01*
D12*
X-25699266Y72335666D02*
X-25699266Y73013000D01*
X-26105666Y72200200D02*
X-24683266Y72674333D01*
X-26105666Y73148466D01*
X-26105666Y74367666D02*
X-26105666Y73554866D01*
X-26105666Y73961266D02*
X-24683266Y73961266D01*
X-24886466Y73825800D01*
X-25021933Y73690333D01*
X-25089666Y73554866D01*
X-24683266Y75654600D02*
X-24683266Y74977266D01*
X-25360600Y74909533D01*
X-25292866Y74977266D01*
X-25225133Y75112733D01*
X-25225133Y75451400D01*
X-25292866Y75586866D01*
X-25360600Y75654600D01*
X-25496066Y75722333D01*
X-25834733Y75722333D01*
X-25970200Y75654600D01*
X-26037933Y75586866D01*
X-26105666Y75451400D01*
X-26105666Y75112733D01*
X-26037933Y74977266D01*
X-25970200Y74909533D01*
X-28112266Y72335666D02*
X-28112266Y73013000D01*
X-28518666Y72200200D02*
X-27096266Y72674333D01*
X-28518666Y73148466D01*
X-28518666Y74367666D02*
X-28518666Y73554866D01*
X-28518666Y73961266D02*
X-27096266Y73961266D01*
X-27299466Y73825800D01*
X-27434933Y73690333D01*
X-27502666Y73554866D01*
X-27570400Y75586866D02*
X-28518666Y75586866D01*
X-27028533Y75248200D02*
X-28044533Y74909533D01*
X-28044533Y75790066D01*
X-30652266Y72335666D02*
X-30652266Y73013000D01*
X-31058666Y72200200D02*
X-29636266Y72674333D01*
X-31058666Y73148466D01*
X-31058666Y74367666D02*
X-31058666Y73554866D01*
X-31058666Y73961266D02*
X-29636266Y73961266D01*
X-29839466Y73825800D01*
X-29974933Y73690333D01*
X-30042666Y73554866D01*
X-29636266Y74841800D02*
X-29636266Y75722333D01*
X-30178133Y75248200D01*
X-30178133Y75451400D01*
X-30245866Y75586866D01*
X-30313600Y75654600D01*
X-30449066Y75722333D01*
X-30787733Y75722333D01*
X-30923200Y75654600D01*
X-30990933Y75586866D01*
X-31058666Y75451400D01*
X-31058666Y75045000D01*
X-30990933Y74909533D01*
X-30923200Y74841800D01*
X-33192266Y72335666D02*
X-33192266Y73013000D01*
X-33598666Y72200200D02*
X-32176266Y72674333D01*
X-33598666Y73148466D01*
X-33598666Y74367666D02*
X-33598666Y73554866D01*
X-33598666Y73961266D02*
X-32176266Y73961266D01*
X-32379466Y73825800D01*
X-32514933Y73690333D01*
X-32582666Y73554866D01*
X-32311733Y74909533D02*
X-32244000Y74977266D01*
X-32176266Y75112733D01*
X-32176266Y75451400D01*
X-32244000Y75586866D01*
X-32311733Y75654600D01*
X-32447200Y75722333D01*
X-32582666Y75722333D01*
X-32785866Y75654600D01*
X-33598666Y74841800D01*
X-33598666Y75722333D01*
X-35732266Y72335666D02*
X-35732266Y73013000D01*
X-36138666Y72200200D02*
X-34716266Y72674333D01*
X-36138666Y73148466D01*
X-36138666Y74367666D02*
X-36138666Y73554866D01*
X-36138666Y73961266D02*
X-34716266Y73961266D01*
X-34919466Y73825800D01*
X-35054933Y73690333D01*
X-35122666Y73554866D01*
X-36138666Y75722333D02*
X-36138666Y74909533D01*
X-36138666Y75315933D02*
X-34716266Y75315933D01*
X-34919466Y75180466D01*
X-35054933Y75045000D01*
X-35122666Y74909533D01*
X-38272266Y72335666D02*
X-38272266Y73013000D01*
X-38678666Y72200200D02*
X-37256266Y72674333D01*
X-38678666Y73148466D01*
X-38678666Y74367666D02*
X-38678666Y73554866D01*
X-38678666Y73961266D02*
X-37256266Y73961266D01*
X-37459466Y73825800D01*
X-37594933Y73690333D01*
X-37662666Y73554866D01*
X-37256266Y75248200D02*
X-37256266Y75383666D01*
X-37324000Y75519133D01*
X-37391733Y75586866D01*
X-37527200Y75654600D01*
X-37798133Y75722333D01*
X-38136800Y75722333D01*
X-38407733Y75654600D01*
X-38543200Y75586866D01*
X-38610933Y75519133D01*
X-38678666Y75383666D01*
X-38678666Y75248200D01*
X-38610933Y75112733D01*
X-38543200Y75045000D01*
X-38407733Y74977266D01*
X-38136800Y74909533D01*
X-37798133Y74909533D01*
X-37527200Y74977266D01*
X-37391733Y75045000D01*
X-37324000Y75112733D01*
X-37256266Y75248200D01*
X-40812266Y73721660D02*
X-40812266Y74398993D01*
X-41218666Y73586193D02*
X-39796266Y74060326D01*
X-41218666Y74534460D01*
X-41218666Y75076326D02*
X-41218666Y75347260D01*
X-41150933Y75482726D01*
X-41083200Y75550460D01*
X-40880000Y75685926D01*
X-40609066Y75753660D01*
X-40067200Y75753660D01*
X-39931733Y75685926D01*
X-39864000Y75618193D01*
X-39796266Y75482726D01*
X-39796266Y75211793D01*
X-39864000Y75076326D01*
X-39931733Y75008593D01*
X-40067200Y74940860D01*
X-40405866Y74940860D01*
X-40541333Y75008593D01*
X-40609066Y75076326D01*
X-40676800Y75211793D01*
X-40676800Y75482726D01*
X-40609066Y75618193D01*
X-40541333Y75685926D01*
X-40405866Y75753660D01*
X-43352266Y73721660D02*
X-43352266Y74398993D01*
X-43758666Y73586193D02*
X-42336266Y74060326D01*
X-43758666Y74534460D01*
X-42945866Y75211793D02*
X-42878133Y75076326D01*
X-42810400Y75008593D01*
X-42674933Y74940860D01*
X-42607200Y74940860D01*
X-42471733Y75008593D01*
X-42404000Y75076326D01*
X-42336266Y75211793D01*
X-42336266Y75482726D01*
X-42404000Y75618193D01*
X-42471733Y75685926D01*
X-42607200Y75753660D01*
X-42674933Y75753660D01*
X-42810400Y75685926D01*
X-42878133Y75618193D01*
X-42945866Y75482726D01*
X-42945866Y75211793D01*
X-43013600Y75076326D01*
X-43081333Y75008593D01*
X-43216800Y74940860D01*
X-43487733Y74940860D01*
X-43623200Y75008593D01*
X-43690933Y75076326D01*
X-43758666Y75211793D01*
X-43758666Y75482726D01*
X-43690933Y75618193D01*
X-43623200Y75685926D01*
X-43487733Y75753660D01*
X-43216800Y75753660D01*
X-43081333Y75685926D01*
X-43013600Y75618193D01*
X-42945866Y75482726D01*
X-48432266Y73721660D02*
X-48432266Y74398993D01*
X-48838666Y73586193D02*
X-47416266Y74060326D01*
X-48838666Y74534460D01*
X-47416266Y74873126D02*
X-47416266Y75821393D01*
X-48838666Y75211793D01*
X-50083266Y75722333D02*
X-50083266Y75451400D01*
X-50151000Y75315933D01*
X-50218733Y75248200D01*
X-50421933Y75112733D01*
X-50692866Y75045000D01*
X-51234733Y75045000D01*
X-51370200Y75112733D01*
X-51437933Y75180466D01*
X-51505666Y75315933D01*
X-51505666Y75586866D01*
X-51437933Y75722333D01*
X-51370200Y75790066D01*
X-51234733Y75857800D01*
X-50896066Y75857800D01*
X-50760600Y75790066D01*
X-50692866Y75722333D01*
X-50625133Y75586866D01*
X-50625133Y75315933D01*
X-50692866Y75180466D01*
X-50760600Y75112733D01*
X-50896066Y75045000D01*
X-53639266Y73721660D02*
X-53639266Y74398993D01*
X-54045666Y73586193D02*
X-52623266Y74060326D01*
X-54045666Y74534460D01*
X-52623266Y75685926D02*
X-52623266Y75008593D01*
X-53300600Y74940860D01*
X-53232866Y75008593D01*
X-53165133Y75144060D01*
X-53165133Y75482726D01*
X-53232866Y75618193D01*
X-53300600Y75685926D01*
X-53436066Y75753660D01*
X-53774733Y75753660D01*
X-53910200Y75685926D01*
X-53977933Y75618193D01*
X-54045666Y75482726D01*
X-54045666Y75144060D01*
X-53977933Y75008593D01*
X-53910200Y74940860D01*
X-56052266Y73721660D02*
X-56052266Y74398993D01*
X-56458666Y73586193D02*
X-55036266Y74060326D01*
X-56458666Y74534460D01*
X-55510400Y75618193D02*
X-56458666Y75618193D01*
X-54968533Y75279526D02*
X-55984533Y74940860D01*
X-55984533Y75821393D01*
X-58592266Y73721660D02*
X-58592266Y74398993D01*
X-58998666Y73586193D02*
X-57576266Y74060326D01*
X-58998666Y74534460D01*
X-57576266Y74873126D02*
X-57576266Y75753660D01*
X-58118133Y75279526D01*
X-58118133Y75482726D01*
X-58185866Y75618193D01*
X-58253600Y75685926D01*
X-58389066Y75753660D01*
X-58727733Y75753660D01*
X-58863200Y75685926D01*
X-58930933Y75618193D01*
X-58998666Y75482726D01*
X-58998666Y75076326D01*
X-58930933Y74940860D01*
X-58863200Y74873126D01*
X-61132266Y73721660D02*
X-61132266Y74398993D01*
X-61538666Y73586193D02*
X-60116266Y74060326D01*
X-61538666Y74534460D01*
X-60251733Y74940860D02*
X-60184000Y75008593D01*
X-60116266Y75144060D01*
X-60116266Y75482726D01*
X-60184000Y75618193D01*
X-60251733Y75685926D01*
X-60387200Y75753660D01*
X-60522666Y75753660D01*
X-60725866Y75685926D01*
X-61538666Y74873126D01*
X-61538666Y75753660D01*
X-63928806Y73721660D02*
X-63928806Y74398993D01*
X-64335206Y73586193D02*
X-62912806Y74060326D01*
X-64335206Y74534460D01*
X-64335206Y75753660D02*
X-64335206Y74940860D01*
X-64335206Y75347260D02*
X-62912806Y75347260D01*
X-63116006Y75211793D01*
X-63251473Y75076326D01*
X-63319206Y74940860D01*
X-66212266Y73721660D02*
X-66212266Y74398993D01*
X-66618666Y73586193D02*
X-65196266Y74060326D01*
X-66618666Y74534459D01*
X-65196266Y75279526D02*
X-65196266Y75414993D01*
X-65264000Y75550460D01*
X-65331733Y75618193D01*
X-65467200Y75685926D01*
X-65738133Y75753660D01*
X-66076800Y75753660D01*
X-66347733Y75685926D01*
X-66483200Y75618193D01*
X-66550933Y75550460D01*
X-66618666Y75414993D01*
X-66618666Y75279526D01*
X-66550933Y75144059D01*
X-66483200Y75076326D01*
X-66347733Y75008593D01*
X-66076800Y74940860D01*
X-65738133Y74940860D01*
X-65467200Y75008593D01*
X-65331733Y75076326D01*
X-65264000Y75144060D01*
X-65196266Y75279526D01*
X-16639933Y71404333D02*
X-15962600Y71404333D01*
X-15894866Y70727000D01*
X-15962600Y70794733D01*
X-16098066Y70862466D01*
X-16436733Y70862466D01*
X-16572200Y70794733D01*
X-16639933Y70727000D01*
X-16707666Y70591533D01*
X-16707666Y70252866D01*
X-16639933Y70117400D01*
X-16572200Y70049666D01*
X-16436733Y69981933D01*
X-16098066Y69981933D01*
X-15962600Y70049666D01*
X-15894866Y70117400D01*
X-17181800Y71404333D02*
X-18062333Y71404333D01*
X-17588200Y70862466D01*
X-17791400Y70862466D01*
X-17926866Y70794733D01*
X-17994600Y70727000D01*
X-18062333Y70591533D01*
X-18062333Y70252866D01*
X-17994600Y70117400D01*
X-17926866Y70049666D01*
X-17791400Y69981933D01*
X-17385000Y69981933D01*
X-17249533Y70049666D01*
X-17181800Y70117400D01*
X-16639933Y68864333D02*
X-15962600Y68864333D01*
X-15894866Y68187000D01*
X-15962600Y68254733D01*
X-16098066Y68322466D01*
X-16436733Y68322466D01*
X-16572200Y68254733D01*
X-16639933Y68187000D01*
X-16707666Y68051533D01*
X-16707666Y67712866D01*
X-16639933Y67577400D01*
X-16572200Y67509666D01*
X-16436733Y67441933D01*
X-16098066Y67441933D01*
X-15962600Y67509666D01*
X-15894866Y67577400D01*
X-18062333Y67441933D02*
X-17249533Y67441933D01*
X-17655933Y67441933D02*
X-17655933Y68864333D01*
X-17520466Y68661133D01*
X-17385000Y68525666D01*
X-17249533Y68457933D01*
X-16572200Y65850200D02*
X-16572200Y64901933D01*
X-16233533Y66392066D02*
X-15894866Y65376066D01*
X-16775400Y65376066D01*
X-17385000Y64901933D02*
X-17655933Y64901933D01*
X-17791400Y64969666D01*
X-17859133Y65037400D01*
X-17994600Y65240600D01*
X-18062333Y65511533D01*
X-18062333Y66053400D01*
X-17994600Y66188866D01*
X-17926866Y66256600D01*
X-17791400Y66324333D01*
X-17520466Y66324333D01*
X-17385000Y66256600D01*
X-17317266Y66188866D01*
X-17249533Y66053400D01*
X-17249533Y65714733D01*
X-17317266Y65579266D01*
X-17385000Y65511533D01*
X-17520466Y65443800D01*
X-17791400Y65443800D01*
X-17926866Y65511533D01*
X-17994600Y65579266D01*
X-18062333Y65714733D01*
X-16572200Y63310200D02*
X-16572200Y62361933D01*
X-16233533Y63852066D02*
X-15894866Y62836066D01*
X-16775400Y62836066D01*
X-17181800Y63784333D02*
X-18130066Y63784333D01*
X-17520466Y62361933D01*
X-16572200Y60770200D02*
X-16572200Y59821933D01*
X-16233533Y61312066D02*
X-15894866Y60296066D01*
X-16775400Y60296066D01*
X-17994600Y61244333D02*
X-17317266Y61244333D01*
X-17249533Y60567000D01*
X-17317266Y60634733D01*
X-17452733Y60702466D01*
X-17791400Y60702466D01*
X-17926866Y60634733D01*
X-17994600Y60567000D01*
X-18062333Y60431533D01*
X-18062333Y60092866D01*
X-17994600Y59957400D01*
X-17926866Y59889666D01*
X-17791400Y59821933D01*
X-17452733Y59821933D01*
X-17317266Y59889666D01*
X-17249533Y59957400D01*
X-16572200Y58230200D02*
X-16572200Y57281933D01*
X-16233533Y58772066D02*
X-15894866Y57756066D01*
X-16775400Y57756066D01*
X-17181800Y58704333D02*
X-18062333Y58704333D01*
X-17588200Y58162466D01*
X-17791400Y58162466D01*
X-17926866Y58094733D01*
X-17994600Y58027000D01*
X-18062333Y57891533D01*
X-18062333Y57552866D01*
X-17994600Y57417400D01*
X-17926866Y57349666D01*
X-17791400Y57281933D01*
X-17385000Y57281933D01*
X-17249533Y57349666D01*
X-17181800Y57417400D01*
X-16572200Y55687660D02*
X-16572200Y54739393D01*
X-16233533Y56229526D02*
X-15894866Y55213526D01*
X-16775400Y55213526D01*
X-18062333Y54739393D02*
X-17249533Y54739393D01*
X-17655933Y54739393D02*
X-17655933Y56161793D01*
X-17520466Y55958593D01*
X-17385000Y55823126D01*
X-17249533Y55755393D01*
X-15827133Y53624333D02*
X-16707666Y53624333D01*
X-16233533Y53082466D01*
X-16436733Y53082466D01*
X-16572200Y53014733D01*
X-16639933Y52947000D01*
X-16707666Y52811533D01*
X-16707666Y52472866D01*
X-16639933Y52337400D01*
X-16572200Y52269666D01*
X-16436733Y52201933D01*
X-16030333Y52201933D01*
X-15894866Y52269666D01*
X-15827133Y52337400D01*
X-17385000Y52201933D02*
X-17655933Y52201933D01*
X-17791400Y52269666D01*
X-17859133Y52337400D01*
X-17994600Y52540600D01*
X-18062333Y52811533D01*
X-18062333Y53353400D01*
X-17994600Y53488866D01*
X-17926866Y53556600D01*
X-17791400Y53624333D01*
X-17520466Y53624333D01*
X-17385000Y53556600D01*
X-17317266Y53488866D01*
X-17249533Y53353400D01*
X-17249533Y53014733D01*
X-17317266Y52879266D01*
X-17385000Y52811533D01*
X-17520466Y52743800D01*
X-17791400Y52743800D01*
X-17926866Y52811533D01*
X-17994600Y52879266D01*
X-18062333Y53014733D01*
X-15827133Y51084333D02*
X-16707666Y51084333D01*
X-16233533Y50542466D01*
X-16436733Y50542466D01*
X-16572200Y50474733D01*
X-16639933Y50407000D01*
X-16707666Y50271533D01*
X-16707666Y49932866D01*
X-16639933Y49797400D01*
X-16572200Y49729666D01*
X-16436733Y49661933D01*
X-16030333Y49661933D01*
X-15894866Y49729666D01*
X-15827133Y49797400D01*
X-17181800Y51084333D02*
X-18130066Y51084333D01*
X-17520466Y49661933D01*
X-15827133Y48544333D02*
X-16707666Y48544333D01*
X-16233533Y48002466D01*
X-16436733Y48002466D01*
X-16572200Y47934733D01*
X-16639933Y47867000D01*
X-16707666Y47731533D01*
X-16707666Y47392866D01*
X-16639933Y47257400D01*
X-16572200Y47189666D01*
X-16436733Y47121933D01*
X-16030333Y47121933D01*
X-15894866Y47189666D01*
X-15827133Y47257400D01*
X-17994600Y48544333D02*
X-17317266Y48544333D01*
X-17249533Y47867000D01*
X-17317266Y47934733D01*
X-17452733Y48002466D01*
X-17791400Y48002466D01*
X-17926866Y47934733D01*
X-17994600Y47867000D01*
X-18062333Y47731533D01*
X-18062333Y47392866D01*
X-17994600Y47257400D01*
X-17926866Y47189666D01*
X-17791400Y47121933D01*
X-17452733Y47121933D01*
X-17317266Y47189666D01*
X-17249533Y47257400D01*
X-15827133Y46006873D02*
X-16707666Y46006873D01*
X-16233533Y45465006D01*
X-16436733Y45465006D01*
X-16572200Y45397273D01*
X-16639933Y45329540D01*
X-16707666Y45194073D01*
X-16707666Y44855406D01*
X-16639933Y44719940D01*
X-16572200Y44652206D01*
X-16436733Y44584473D01*
X-16030333Y44584473D01*
X-15894866Y44652206D01*
X-15827133Y44719940D01*
X-17181800Y46006873D02*
X-18062333Y46006873D01*
X-17588200Y45465006D01*
X-17791400Y45465006D01*
X-17926866Y45397273D01*
X-17994600Y45329540D01*
X-18062333Y45194073D01*
X-18062333Y44855406D01*
X-17994600Y44719940D01*
X-17926866Y44652206D01*
X-17791400Y44584473D01*
X-17385000Y44584473D01*
X-17249533Y44652206D01*
X-17181800Y44719940D01*
X-15827133Y43464333D02*
X-16707666Y43464333D01*
X-16233533Y42922466D01*
X-16436733Y42922466D01*
X-16572200Y42854733D01*
X-16639933Y42787000D01*
X-16707666Y42651533D01*
X-16707666Y42312866D01*
X-16639933Y42177400D01*
X-16572200Y42109666D01*
X-16436733Y42041933D01*
X-16030333Y42041933D01*
X-15894866Y42109666D01*
X-15827133Y42177400D01*
X-18062333Y42041933D02*
X-17249533Y42041933D01*
X-17655933Y42041933D02*
X-17655933Y43464333D01*
X-17520466Y43261133D01*
X-17385000Y43125666D01*
X-17249533Y43057933D01*
X-25377533Y71429733D02*
X-24700200Y71429733D01*
X-24632466Y70752400D01*
X-24700200Y70820133D01*
X-24835666Y70887866D01*
X-25174333Y70887866D01*
X-25309800Y70820133D01*
X-25377533Y70752400D01*
X-25445266Y70616933D01*
X-25445266Y70278266D01*
X-25377533Y70142800D01*
X-25309800Y70075066D01*
X-25174333Y70007333D01*
X-24835666Y70007333D01*
X-24700200Y70075066D01*
X-24632466Y70142800D01*
X-25987133Y71294266D02*
X-26054866Y71362000D01*
X-26190333Y71429733D01*
X-26529000Y71429733D01*
X-26664466Y71362000D01*
X-26732200Y71294266D01*
X-26799933Y71158800D01*
X-26799933Y71023333D01*
X-26732200Y70820133D01*
X-25919400Y70007333D01*
X-26799933Y70007333D01*
X-25309800Y65875600D02*
X-25309800Y64927333D01*
X-24971133Y66417466D02*
X-24632466Y65401466D01*
X-25513000Y65401466D01*
X-26258066Y65740133D02*
X-26122600Y65807866D01*
X-26054866Y65875600D01*
X-25987133Y66011066D01*
X-25987133Y66078800D01*
X-26054866Y66214266D01*
X-26122600Y66282000D01*
X-26258066Y66349733D01*
X-26529000Y66349733D01*
X-26664466Y66282000D01*
X-26732200Y66214266D01*
X-26799933Y66078800D01*
X-26799933Y66011066D01*
X-26732200Y65875600D01*
X-26664466Y65807866D01*
X-26529000Y65740133D01*
X-26258066Y65740133D01*
X-26122600Y65672400D01*
X-26054866Y65604666D01*
X-25987133Y65469200D01*
X-25987133Y65198266D01*
X-26054866Y65062800D01*
X-26122600Y64995066D01*
X-26258066Y64927333D01*
X-26529000Y64927333D01*
X-26664466Y64995066D01*
X-26732200Y65062800D01*
X-26799933Y65198266D01*
X-26799933Y65469200D01*
X-26732200Y65604666D01*
X-26664466Y65672400D01*
X-26529000Y65740133D01*
X-25377533Y68889733D02*
X-24700200Y68889733D01*
X-24632466Y68212400D01*
X-24700200Y68280133D01*
X-24835666Y68347866D01*
X-25174333Y68347866D01*
X-25309800Y68280133D01*
X-25377533Y68212400D01*
X-25445266Y68076933D01*
X-25445266Y67738266D01*
X-25377533Y67602800D01*
X-25309800Y67535066D01*
X-25174333Y67467333D01*
X-24835666Y67467333D01*
X-24700200Y67535066D01*
X-24632466Y67602800D01*
X-26325800Y68889733D02*
X-26461266Y68889733D01*
X-26596733Y68822000D01*
X-26664466Y68754266D01*
X-26732200Y68618800D01*
X-26799933Y68347866D01*
X-26799933Y68009200D01*
X-26732200Y67738266D01*
X-26664466Y67602800D01*
X-26596733Y67535066D01*
X-26461266Y67467333D01*
X-26325800Y67467333D01*
X-26190333Y67535066D01*
X-26122600Y67602800D01*
X-26054866Y67738266D01*
X-25987133Y68009200D01*
X-25987133Y68347866D01*
X-26054866Y68618800D01*
X-26122600Y68754266D01*
X-26190333Y68822000D01*
X-26325800Y68889733D01*
X-25309800Y63335600D02*
X-25309800Y62387333D01*
X-24971133Y63877466D02*
X-24632466Y62861466D01*
X-25513000Y62861466D01*
X-26664466Y63809733D02*
X-26393533Y63809733D01*
X-26258066Y63742000D01*
X-26190333Y63674266D01*
X-26054866Y63471066D01*
X-25987133Y63200133D01*
X-25987133Y62658266D01*
X-26054866Y62522800D01*
X-26122600Y62455066D01*
X-26258066Y62387333D01*
X-26529000Y62387333D01*
X-26664466Y62455066D01*
X-26732200Y62522800D01*
X-26799933Y62658266D01*
X-26799933Y62996933D01*
X-26732200Y63132400D01*
X-26664466Y63200133D01*
X-26529000Y63267866D01*
X-26258066Y63267866D01*
X-26122600Y63200133D01*
X-26054866Y63132400D01*
X-25987133Y62996933D01*
X-25309800Y60795600D02*
X-25309800Y59847333D01*
X-24971133Y61337466D02*
X-24632466Y60321466D01*
X-25513000Y60321466D01*
X-26664466Y60795600D02*
X-26664466Y59847333D01*
X-26325800Y61337466D02*
X-25987133Y60321466D01*
X-26867666Y60321466D01*
X-25309800Y58255600D02*
X-25309800Y57307333D01*
X-24971133Y58797466D02*
X-24632466Y57781466D01*
X-25513000Y57781466D01*
X-25987133Y58594266D02*
X-26054866Y58662000D01*
X-26190333Y58729733D01*
X-26529000Y58729733D01*
X-26664466Y58662000D01*
X-26732200Y58594266D01*
X-26799933Y58458800D01*
X-26799933Y58323333D01*
X-26732200Y58120133D01*
X-25919400Y57307333D01*
X-26799933Y57307333D01*
X-25309800Y55715600D02*
X-25309800Y54767333D01*
X-24971133Y56257466D02*
X-24632466Y55241466D01*
X-25513000Y55241466D01*
X-26325800Y56189733D02*
X-26461266Y56189733D01*
X-26596733Y56122000D01*
X-26664466Y56054266D01*
X-26732200Y55918800D01*
X-26799933Y55647866D01*
X-26799933Y55309200D01*
X-26732200Y55038266D01*
X-26664466Y54902800D01*
X-26596733Y54835066D01*
X-26461266Y54767333D01*
X-26325800Y54767333D01*
X-26190333Y54835066D01*
X-26122600Y54902800D01*
X-26054866Y55038266D01*
X-25987133Y55309200D01*
X-25987133Y55647866D01*
X-26054866Y55918800D01*
X-26122600Y56054266D01*
X-26190333Y56122000D01*
X-26325800Y56189733D01*
X-24564733Y53649733D02*
X-25445266Y53649733D01*
X-24971133Y53107866D01*
X-25174333Y53107866D01*
X-25309800Y53040133D01*
X-25377533Y52972400D01*
X-25445266Y52836933D01*
X-25445266Y52498266D01*
X-25377533Y52362800D01*
X-25309800Y52295066D01*
X-25174333Y52227333D01*
X-24767933Y52227333D01*
X-24632466Y52295066D01*
X-24564733Y52362800D01*
X-26258066Y53040133D02*
X-26122600Y53107866D01*
X-26054866Y53175600D01*
X-25987133Y53311066D01*
X-25987133Y53378800D01*
X-26054866Y53514266D01*
X-26122600Y53582000D01*
X-26258066Y53649733D01*
X-26529000Y53649733D01*
X-26664466Y53582000D01*
X-26732200Y53514266D01*
X-26799933Y53378800D01*
X-26799933Y53311066D01*
X-26732200Y53175600D01*
X-26664466Y53107866D01*
X-26529000Y53040133D01*
X-26258066Y53040133D01*
X-26122600Y52972400D01*
X-26054866Y52904666D01*
X-25987133Y52769200D01*
X-25987133Y52498266D01*
X-26054866Y52362800D01*
X-26122600Y52295066D01*
X-26258066Y52227333D01*
X-26529000Y52227333D01*
X-26664466Y52295066D01*
X-26732200Y52362800D01*
X-26799933Y52498266D01*
X-26799933Y52769200D01*
X-26732200Y52904666D01*
X-26664466Y52972400D01*
X-26529000Y53040133D01*
X-24564733Y51109733D02*
X-25445266Y51109733D01*
X-24971133Y50567866D01*
X-25174333Y50567866D01*
X-25309800Y50500133D01*
X-25377533Y50432400D01*
X-25445266Y50296933D01*
X-25445266Y49958266D01*
X-25377533Y49822800D01*
X-25309800Y49755066D01*
X-25174333Y49687333D01*
X-24767933Y49687333D01*
X-24632466Y49755066D01*
X-24564733Y49822800D01*
X-26664466Y51109733D02*
X-26393533Y51109733D01*
X-26258066Y51042000D01*
X-26190333Y50974266D01*
X-26054866Y50771066D01*
X-25987133Y50500133D01*
X-25987133Y49958266D01*
X-26054866Y49822800D01*
X-26122600Y49755066D01*
X-26258066Y49687333D01*
X-26529000Y49687333D01*
X-26664466Y49755066D01*
X-26732200Y49822800D01*
X-26799933Y49958266D01*
X-26799933Y50296933D01*
X-26732200Y50432400D01*
X-26664466Y50500133D01*
X-26529000Y50567866D01*
X-26258066Y50567866D01*
X-26122600Y50500133D01*
X-26054866Y50432400D01*
X-25987133Y50296933D01*
X-24564733Y48569733D02*
X-25445266Y48569733D01*
X-24971133Y48027866D01*
X-25174333Y48027866D01*
X-25309800Y47960133D01*
X-25377533Y47892400D01*
X-25445266Y47756933D01*
X-25445266Y47418266D01*
X-25377533Y47282800D01*
X-25309800Y47215066D01*
X-25174333Y47147333D01*
X-24767933Y47147333D01*
X-24632466Y47215066D01*
X-24564733Y47282800D01*
X-26664466Y48095600D02*
X-26664466Y47147333D01*
X-26325800Y48637466D02*
X-25987133Y47621466D01*
X-26867666Y47621466D01*
X-24564733Y46032273D02*
X-25445266Y46032273D01*
X-24971133Y45490406D01*
X-25174333Y45490406D01*
X-25309800Y45422673D01*
X-25377533Y45354940D01*
X-25445266Y45219473D01*
X-25445266Y44880806D01*
X-25377533Y44745340D01*
X-25309800Y44677606D01*
X-25174333Y44609873D01*
X-24767933Y44609873D01*
X-24632466Y44677606D01*
X-24564733Y44745340D01*
X-25987133Y45896806D02*
X-26054866Y45964540D01*
X-26190333Y46032273D01*
X-26529000Y46032273D01*
X-26664466Y45964540D01*
X-26732200Y45896806D01*
X-26799933Y45761340D01*
X-26799933Y45625873D01*
X-26732200Y45422673D01*
X-25919400Y44609873D01*
X-26799933Y44609873D01*
X-24564733Y43489733D02*
X-25445266Y43489733D01*
X-24971133Y42947866D01*
X-25174333Y42947866D01*
X-25309800Y42880133D01*
X-25377533Y42812400D01*
X-25445266Y42676933D01*
X-25445266Y42338266D01*
X-25377533Y42202800D01*
X-25309800Y42135066D01*
X-25174333Y42067333D01*
X-24767933Y42067333D01*
X-24632466Y42135066D01*
X-24564733Y42202800D01*
X-26325800Y43489733D02*
X-26461266Y43489733D01*
X-26596733Y43422000D01*
X-26664466Y43354266D01*
X-26732200Y43218800D01*
X-26799933Y42947866D01*
X-26799933Y42609200D01*
X-26732200Y42338266D01*
X-26664466Y42202800D01*
X-26596733Y42135066D01*
X-26461266Y42067333D01*
X-26325800Y42067333D01*
X-26190333Y42135066D01*
X-26122600Y42202800D01*
X-26054866Y42338266D01*
X-25987133Y42609200D01*
X-25987133Y42947866D01*
X-26054866Y43218800D01*
X-26122600Y43354266D01*
X-26190333Y43422000D01*
X-26325800Y43489733D01*
X-24632466Y40814266D02*
X-24700200Y40882000D01*
X-24835666Y40949733D01*
X-25174333Y40949733D01*
X-25309800Y40882000D01*
X-25377533Y40814266D01*
X-25445266Y40678800D01*
X-25445266Y40543333D01*
X-25377533Y40340133D01*
X-24564733Y39527333D01*
X-25445266Y39527333D01*
X-26258066Y40340133D02*
X-26122600Y40407866D01*
X-26054866Y40475600D01*
X-25987133Y40611066D01*
X-25987133Y40678800D01*
X-26054866Y40814266D01*
X-26122600Y40882000D01*
X-26258066Y40949733D01*
X-26529000Y40949733D01*
X-26664466Y40882000D01*
X-26732200Y40814266D01*
X-26799933Y40678800D01*
X-26799933Y40611066D01*
X-26732200Y40475600D01*
X-26664466Y40407866D01*
X-26529000Y40340133D01*
X-26258066Y40340133D01*
X-26122600Y40272400D01*
X-26054866Y40204666D01*
X-25987133Y40069200D01*
X-25987133Y39798266D01*
X-26054866Y39662800D01*
X-26122600Y39595066D01*
X-26258066Y39527333D01*
X-26529000Y39527333D01*
X-26664466Y39595066D01*
X-26732200Y39662800D01*
X-26799933Y39798266D01*
X-26799933Y40069200D01*
X-26732200Y40204666D01*
X-26664466Y40272400D01*
X-26529000Y40340133D01*
X-24632466Y38274266D02*
X-24700200Y38342000D01*
X-24835666Y38409733D01*
X-25174333Y38409733D01*
X-25309800Y38342000D01*
X-25377533Y38274266D01*
X-25445266Y38138800D01*
X-25445266Y38003333D01*
X-25377533Y37800133D01*
X-24564733Y36987333D01*
X-25445266Y36987333D01*
X-26664466Y38409733D02*
X-26393533Y38409733D01*
X-26258066Y38342000D01*
X-26190333Y38274266D01*
X-26054866Y38071066D01*
X-25987133Y37800133D01*
X-25987133Y37258266D01*
X-26054866Y37122800D01*
X-26122600Y37055066D01*
X-26258066Y36987333D01*
X-26529000Y36987333D01*
X-26664466Y37055066D01*
X-26732200Y37122800D01*
X-26799933Y37258266D01*
X-26799933Y37596933D01*
X-26732200Y37732400D01*
X-26664466Y37800133D01*
X-26529000Y37867866D01*
X-26258066Y37867866D01*
X-26122600Y37800133D01*
X-26054866Y37732400D01*
X-25987133Y37596933D01*
X-24632466Y35734266D02*
X-24700200Y35802000D01*
X-24835666Y35869733D01*
X-25174333Y35869733D01*
X-25309800Y35802000D01*
X-25377533Y35734266D01*
X-25445266Y35598800D01*
X-25445266Y35463333D01*
X-25377533Y35260133D01*
X-24564733Y34447333D01*
X-25445266Y34447333D01*
X-26664466Y35395600D02*
X-26664466Y34447333D01*
X-26325800Y35937466D02*
X-25987133Y34921466D01*
X-26867666Y34921466D01*
X-24632466Y33194266D02*
X-24700200Y33262000D01*
X-24835666Y33329733D01*
X-25174333Y33329733D01*
X-25309800Y33262000D01*
X-25377533Y33194266D01*
X-25445266Y33058800D01*
X-25445266Y32923333D01*
X-25377533Y32720133D01*
X-24564733Y31907333D01*
X-25445266Y31907333D01*
X-25987133Y33194266D02*
X-26054866Y33262000D01*
X-26190333Y33329733D01*
X-26529000Y33329733D01*
X-26664466Y33262000D01*
X-26732200Y33194266D01*
X-26799933Y33058800D01*
X-26799933Y32923333D01*
X-26732200Y32720133D01*
X-25919400Y31907333D01*
X-26799933Y31907333D01*
X-30152733Y31390866D02*
X-30085000Y31458600D01*
X-30017266Y31594066D01*
X-30017266Y31932733D01*
X-30085000Y32068200D01*
X-30152733Y32135933D01*
X-30288200Y32203666D01*
X-30423666Y32203666D01*
X-30626866Y32135933D01*
X-31439666Y31323133D01*
X-31439666Y32203666D01*
X-31439666Y33558333D02*
X-31439666Y32745533D01*
X-31439666Y33151933D02*
X-30017266Y33151933D01*
X-30220466Y33016466D01*
X-30355933Y32881000D01*
X-30423666Y32745533D01*
X-32692733Y31390866D02*
X-32625000Y31458599D01*
X-32557266Y31594066D01*
X-32557266Y31932733D01*
X-32625000Y32068199D01*
X-32692733Y32135933D01*
X-32828200Y32203666D01*
X-32963666Y32203666D01*
X-33166866Y32135933D01*
X-33979666Y31323133D01*
X-33979666Y32203666D01*
X-32557266Y33084200D02*
X-32557266Y33219666D01*
X-32625000Y33355133D01*
X-32692733Y33422866D01*
X-32828200Y33490600D01*
X-33099133Y33558333D01*
X-33437800Y33558333D01*
X-33708733Y33490600D01*
X-33844200Y33422866D01*
X-33911933Y33355133D01*
X-33979666Y33219666D01*
X-33979666Y33084200D01*
X-33911933Y32948733D01*
X-33844200Y32881000D01*
X-33708733Y32813266D01*
X-33437800Y32745533D01*
X-33099133Y32745533D01*
X-32828200Y32813266D01*
X-32692733Y32881000D01*
X-32625000Y32948733D01*
X-32557266Y33084200D01*
X-36519666Y32203666D02*
X-36519666Y31390866D01*
X-36519666Y31797266D02*
X-35097266Y31797266D01*
X-35300466Y31661800D01*
X-35435933Y31526333D01*
X-35503666Y31390866D01*
X-36519666Y32881000D02*
X-36519666Y33151933D01*
X-36451933Y33287400D01*
X-36384200Y33355133D01*
X-36181000Y33490600D01*
X-35910066Y33558333D01*
X-35368200Y33558333D01*
X-35232733Y33490600D01*
X-35165000Y33422866D01*
X-35097266Y33287400D01*
X-35097266Y33016466D01*
X-35165000Y32881000D01*
X-35232733Y32813266D01*
X-35368200Y32745533D01*
X-35706866Y32745533D01*
X-35842333Y32813266D01*
X-35910066Y32881000D01*
X-35977800Y33016466D01*
X-35977800Y33287400D01*
X-35910066Y33422866D01*
X-35842333Y33490600D01*
X-35706866Y33558333D01*
X-39059666Y32203666D02*
X-39059666Y31390866D01*
X-39059666Y31797266D02*
X-37637266Y31797266D01*
X-37840466Y31661800D01*
X-37975933Y31526333D01*
X-38043666Y31390866D01*
X-38246866Y33016466D02*
X-38179133Y32881000D01*
X-38111400Y32813266D01*
X-37975933Y32745533D01*
X-37908200Y32745533D01*
X-37772733Y32813266D01*
X-37705000Y32881000D01*
X-37637266Y33016466D01*
X-37637266Y33287400D01*
X-37705000Y33422866D01*
X-37772733Y33490600D01*
X-37908200Y33558333D01*
X-37975933Y33558333D01*
X-38111400Y33490600D01*
X-38179133Y33422866D01*
X-38246866Y33287400D01*
X-38246866Y33016466D01*
X-38314600Y32881000D01*
X-38382333Y32813266D01*
X-38517800Y32745533D01*
X-38788733Y32745533D01*
X-38924200Y32813266D01*
X-38991933Y32881000D01*
X-39059666Y33016466D01*
X-39059666Y33287400D01*
X-38991933Y33422866D01*
X-38924200Y33490600D01*
X-38788733Y33558333D01*
X-38517800Y33558333D01*
X-38382333Y33490600D01*
X-38314600Y33422866D01*
X-38246866Y33287400D01*
X-41599666Y32203666D02*
X-41599666Y31390866D01*
X-41599666Y31797266D02*
X-40177266Y31797266D01*
X-40380466Y31661800D01*
X-40515933Y31526333D01*
X-40583666Y31390866D01*
X-40177266Y32677800D02*
X-40177266Y33626066D01*
X-41599666Y33016466D01*
X-44139666Y32203666D02*
X-44139666Y31390866D01*
X-44139666Y31797266D02*
X-42717266Y31797266D01*
X-42920466Y31661800D01*
X-43055933Y31526333D01*
X-43123666Y31390866D01*
X-42717266Y33422866D02*
X-42717266Y33151933D01*
X-42785000Y33016466D01*
X-42852733Y32948733D01*
X-43055933Y32813266D01*
X-43326866Y32745533D01*
X-43868733Y32745533D01*
X-44004200Y32813266D01*
X-44071933Y32881000D01*
X-44139666Y33016466D01*
X-44139666Y33287400D01*
X-44071933Y33422866D01*
X-44004200Y33490600D01*
X-43868733Y33558333D01*
X-43530066Y33558333D01*
X-43394600Y33490600D01*
X-43326866Y33422866D01*
X-43259133Y33287400D01*
X-43259133Y33016466D01*
X-43326866Y32881000D01*
X-43394600Y32813266D01*
X-43530066Y32745533D01*
X-46679666Y32203666D02*
X-46679666Y31390866D01*
X-46679666Y31797266D02*
X-45257266Y31797266D01*
X-45460466Y31661800D01*
X-45595933Y31526333D01*
X-45663666Y31390866D01*
X-45257266Y33490600D02*
X-45257266Y32813266D01*
X-45934600Y32745533D01*
X-45866866Y32813266D01*
X-45799133Y32948733D01*
X-45799133Y33287400D01*
X-45866866Y33422866D01*
X-45934600Y33490600D01*
X-46070066Y33558333D01*
X-46408733Y33558333D01*
X-46544200Y33490600D01*
X-46611933Y33422866D01*
X-46679666Y33287400D01*
X-46679666Y32948733D01*
X-46611933Y32813266D01*
X-46544200Y32745533D01*
X-49219666Y32203666D02*
X-49219666Y31390866D01*
X-49219666Y31797266D02*
X-47797266Y31797266D01*
X-48000466Y31661800D01*
X-48135933Y31526333D01*
X-48203666Y31390866D01*
X-48271400Y33422866D02*
X-49219666Y33422866D01*
X-47729533Y33084200D02*
X-48745533Y32745533D01*
X-48745533Y33626066D01*
X-88587126Y32584666D02*
X-88587126Y31771866D01*
X-88587126Y32178266D02*
X-87164726Y32178266D01*
X-87367926Y32042800D01*
X-87503393Y31907333D01*
X-87571126Y31771866D01*
X-87164726Y33058800D02*
X-87164726Y33939333D01*
X-87706593Y33465200D01*
X-87706593Y33668400D01*
X-87774326Y33803866D01*
X-87842060Y33871600D01*
X-87977526Y33939333D01*
X-88316193Y33939333D01*
X-88451660Y33871600D01*
X-88519393Y33803866D01*
X-88587126Y33668400D01*
X-88587126Y33262000D01*
X-88519393Y33126533D01*
X-88451660Y33058800D01*
X-86049666Y32584666D02*
X-86049666Y31771866D01*
X-86049666Y32178266D02*
X-84627266Y32178266D01*
X-84830466Y32042800D01*
X-84965933Y31907333D01*
X-85033666Y31771866D01*
X-84762733Y33126533D02*
X-84695000Y33194266D01*
X-84627266Y33329733D01*
X-84627266Y33668400D01*
X-84695000Y33803866D01*
X-84762733Y33871600D01*
X-84898200Y33939333D01*
X-85033666Y33939333D01*
X-85236866Y33871600D01*
X-86049666Y33058800D01*
X-86049666Y33939333D01*
X-83509666Y32584666D02*
X-83509666Y31771866D01*
X-83509666Y32178266D02*
X-82087266Y32178266D01*
X-82290466Y32042800D01*
X-82425933Y31907333D01*
X-82493666Y31771866D01*
X-83509666Y33939333D02*
X-83509666Y33126533D01*
X-83509666Y33532933D02*
X-82087266Y33532933D01*
X-82290466Y33397466D01*
X-82425933Y33262000D01*
X-82493666Y33126533D01*
X-80969666Y32584666D02*
X-80969666Y31771866D01*
X-80969666Y32178266D02*
X-79547266Y32178266D01*
X-79750466Y32042800D01*
X-79885933Y31907333D01*
X-79953666Y31771866D01*
X-79547266Y33465200D02*
X-79547266Y33600666D01*
X-79615000Y33736133D01*
X-79682733Y33803866D01*
X-79818200Y33871600D01*
X-80089133Y33939333D01*
X-80427800Y33939333D01*
X-80698733Y33871600D01*
X-80834200Y33803866D01*
X-80901933Y33736133D01*
X-80969666Y33600666D01*
X-80969666Y33465200D01*
X-80901933Y33329733D01*
X-80834200Y33262000D01*
X-80698733Y33194266D01*
X-80427800Y33126533D01*
X-80089133Y33126533D01*
X-79818200Y33194266D01*
X-79682733Y33262000D01*
X-79615000Y33329733D01*
X-79547266Y33465200D01*
X-78429666Y32025866D02*
X-78429666Y32296800D01*
X-78361933Y32432266D01*
X-78294200Y32500000D01*
X-78091000Y32635466D01*
X-77820066Y32703200D01*
X-77278200Y32703200D01*
X-77142733Y32635466D01*
X-77075000Y32567733D01*
X-77007266Y32432266D01*
X-77007266Y32161333D01*
X-77075000Y32025866D01*
X-77142733Y31958133D01*
X-77278200Y31890400D01*
X-77616866Y31890400D01*
X-77752333Y31958133D01*
X-77820066Y32025866D01*
X-77887800Y32161333D01*
X-77887800Y32432266D01*
X-77820066Y32567733D01*
X-77752333Y32635466D01*
X-77616866Y32703200D01*
X-75076866Y32161333D02*
X-75009133Y32025866D01*
X-74941400Y31958133D01*
X-74805933Y31890400D01*
X-74738200Y31890400D01*
X-74602733Y31958133D01*
X-74535000Y32025866D01*
X-74467266Y32161333D01*
X-74467266Y32432266D01*
X-74535000Y32567733D01*
X-74602733Y32635466D01*
X-74738200Y32703200D01*
X-74805933Y32703200D01*
X-74941400Y32635466D01*
X-75009133Y32567733D01*
X-75076866Y32432266D01*
X-75076866Y32161333D01*
X-75144600Y32025866D01*
X-75212333Y31958133D01*
X-75347800Y31890400D01*
X-75618733Y31890400D01*
X-75754200Y31958133D01*
X-75821933Y32025866D01*
X-75889666Y32161333D01*
X-75889666Y32432266D01*
X-75821933Y32567733D01*
X-75754200Y32635466D01*
X-75618733Y32703200D01*
X-75347800Y32703200D01*
X-75212333Y32635466D01*
X-75144600Y32567733D01*
X-75076866Y32432266D01*
X-70657266Y31822666D02*
X-70657266Y32770933D01*
X-72079666Y32161333D01*
X-68117266Y32567733D02*
X-68117266Y32296800D01*
X-68185000Y32161333D01*
X-68252733Y32093600D01*
X-68455933Y31958133D01*
X-68726866Y31890400D01*
X-69268733Y31890400D01*
X-69404200Y31958133D01*
X-69471933Y32025866D01*
X-69539666Y32161333D01*
X-69539666Y32432266D01*
X-69471933Y32567733D01*
X-69404200Y32635466D01*
X-69268733Y32703200D01*
X-68930066Y32703200D01*
X-68794600Y32635466D01*
X-68726866Y32567733D01*
X-68659133Y32432266D01*
X-68659133Y32161333D01*
X-68726866Y32025866D01*
X-68794600Y31958133D01*
X-68930066Y31890400D01*
X-65577266Y32635466D02*
X-65577266Y31958133D01*
X-66254600Y31890400D01*
X-66186866Y31958133D01*
X-66119133Y32093600D01*
X-66119133Y32432266D01*
X-66186866Y32567733D01*
X-66254600Y32635466D01*
X-66390066Y32703200D01*
X-66728733Y32703200D01*
X-66864200Y32635466D01*
X-66931933Y32567733D01*
X-66999666Y32432266D01*
X-66999666Y32093600D01*
X-66931933Y31958133D01*
X-66864200Y31890400D01*
X-63511400Y32567733D02*
X-64459666Y32567733D01*
X-62969533Y32229066D02*
X-63985533Y31890400D01*
X-63985533Y32770933D01*
X-60497266Y31822666D02*
X-60497266Y32703200D01*
X-61039133Y32229066D01*
X-61039133Y32432266D01*
X-61106866Y32567733D01*
X-61174600Y32635466D01*
X-61310066Y32703200D01*
X-61648733Y32703200D01*
X-61784200Y32635466D01*
X-61851933Y32567733D01*
X-61919666Y32432266D01*
X-61919666Y32025866D01*
X-61851933Y31890400D01*
X-61784200Y31822666D01*
X-58092733Y31890400D02*
X-58025000Y31958133D01*
X-57957266Y32093600D01*
X-57957266Y32432266D01*
X-58025000Y32567733D01*
X-58092733Y32635466D01*
X-58228200Y32703200D01*
X-58363666Y32703200D01*
X-58566866Y32635466D01*
X-59379666Y31822666D01*
X-59379666Y32703200D01*
X-56839666Y32703200D02*
X-56839666Y31890400D01*
X-56839666Y32296800D02*
X-55417266Y32296800D01*
X-55620466Y32161333D01*
X-55755933Y32025866D01*
X-55823666Y31890400D01*
X-52877266Y32229066D02*
X-52877266Y32364533D01*
X-52945000Y32500000D01*
X-53012733Y32567733D01*
X-53148200Y32635466D01*
X-53419133Y32703200D01*
X-53757800Y32703200D01*
X-54028733Y32635466D01*
X-54164200Y32567733D01*
X-54231933Y32500000D01*
X-54299666Y32364533D01*
X-54299666Y32229066D01*
X-54231933Y32093600D01*
X-54164200Y32025866D01*
X-54028733Y31958133D01*
X-53757800Y31890400D01*
X-53419133Y31890400D01*
X-53148200Y31958133D01*
X-53012733Y32025866D01*
X-52945000Y32093600D01*
X-52877266Y32229066D01*
M02*
