G04 #@! TF.GenerationSoftware,KiCad,Pcbnew,(5.1.6)-1*
G04 #@! TF.CreationDate,2020-11-22T14:51:22+06:00*
G04 #@! TF.ProjectId,Logger,4c6f6767-6572-42e6-9b69-6361645f7063,rev?*
G04 #@! TF.SameCoordinates,Original*
G04 #@! TF.FileFunction,Copper,L2,Bot*
G04 #@! TF.FilePolarity,Positive*
%FSLAX46Y46*%
G04 Gerber Fmt 4.6, Leading zero omitted, Abs format (unit mm)*
G04 Created by KiCad (PCBNEW (5.1.6)-1) date 2020-11-22 14:51:22*
%MOMM*%
%LPD*%
G01*
G04 APERTURE LIST*
G04 #@! TA.AperFunction,ComponentPad*
%ADD10O,1.879600X3.759200*%
G04 #@! TD*
G04 #@! TA.AperFunction,ComponentPad*
%ADD11O,3.759200X1.879600*%
G04 #@! TD*
G04 #@! TA.AperFunction,ComponentPad*
%ADD12C,4.000000*%
G04 #@! TD*
G04 #@! TA.AperFunction,ComponentPad*
%ADD13R,4.000000X4.000000*%
G04 #@! TD*
G04 #@! TA.AperFunction,ComponentPad*
%ADD14O,2.000000X2.000000*%
G04 #@! TD*
G04 #@! TA.AperFunction,ComponentPad*
%ADD15C,2.000000*%
G04 #@! TD*
G04 #@! TA.AperFunction,WasherPad*
%ADD16C,3.000000*%
G04 #@! TD*
G04 #@! TA.AperFunction,ComponentPad*
%ADD17C,2.200000*%
G04 #@! TD*
G04 #@! TA.AperFunction,ViaPad*
%ADD18C,2.500000*%
G04 #@! TD*
G04 #@! TA.AperFunction,Conductor*
%ADD19C,1.500000*%
G04 #@! TD*
G04 #@! TA.AperFunction,Conductor*
%ADD20C,2.000000*%
G04 #@! TD*
G04 #@! TA.AperFunction,Conductor*
%ADD21C,1.800000*%
G04 #@! TD*
G04 APERTURE END LIST*
D10*
X-43180000Y37084000D03*
X-40640000Y37084000D03*
X-38100000Y37084000D03*
X-35560000Y37084000D03*
X-33020000Y37084000D03*
X-30480000Y37084000D03*
X-17272000Y14224000D03*
X-19812000Y14224000D03*
X-22352000Y14224000D03*
X-24892000Y14224000D03*
X-27432000Y14224000D03*
X-29972000Y14224000D03*
D11*
X-100584000Y94234000D03*
X-100584000Y96774000D03*
X-100584000Y99314000D03*
X-100584000Y101854000D03*
X-100584000Y104394000D03*
X-100584000Y106934000D03*
X-106934000Y94234000D03*
X-106934000Y96774000D03*
X-106934000Y99314000D03*
X-106934000Y101854000D03*
X-106934000Y104394000D03*
X-106934000Y106934000D03*
D12*
X-117856000Y113538000D03*
X-117856000Y108458000D03*
X-117856000Y103378000D03*
X-117856000Y98298000D03*
X-117856000Y93218000D03*
D13*
X-117856000Y88138000D03*
D10*
X-46736000Y88392000D03*
X-49276000Y88392000D03*
X-51816000Y88392000D03*
X-54356000Y88392000D03*
X-56896000Y88392000D03*
X-59436000Y88392000D03*
X-46736000Y83820000D03*
X-49276000Y83820000D03*
X-51816000Y83820000D03*
X-54356000Y83820000D03*
X-56896000Y83820000D03*
X-59436000Y83820000D03*
X-46736000Y97790000D03*
X-49276000Y97790000D03*
X-51816000Y97790000D03*
X-54356000Y97790000D03*
X-56896000Y97790000D03*
X-59436000Y97790000D03*
X-46736000Y93218000D03*
X-49276000Y93218000D03*
X-51816000Y93218000D03*
X-54356000Y93218000D03*
X-56896000Y93218000D03*
X-59436000Y93218000D03*
X-81280000Y93396000D03*
X-78740000Y93396000D03*
X-76200000Y93396000D03*
X-73660000Y93396000D03*
X-71120000Y93396000D03*
X-68580000Y93396000D03*
X-81280000Y88646000D03*
X-78740000Y88646000D03*
X-76200000Y88646000D03*
X-73660000Y88646000D03*
X-71120000Y88646000D03*
X-68580000Y88646000D03*
X-81280000Y83820000D03*
X-78740000Y83820000D03*
X-76200000Y83820000D03*
X-73660000Y83820000D03*
X-71120000Y83820000D03*
X-68580000Y83820000D03*
X-85344000Y24638000D03*
X-82804000Y24638000D03*
X-80264000Y24638000D03*
X-77724000Y24638000D03*
X-75184000Y24638000D03*
X-72644000Y24638000D03*
X-53340000Y24638000D03*
X-55880000Y24638000D03*
X-58420000Y24638000D03*
X-60960000Y24638000D03*
X-63500000Y24638000D03*
X-66040000Y24638000D03*
D11*
X-82896000Y15240000D03*
X-82896000Y12700000D03*
X-82896000Y10160000D03*
X-82896000Y7620000D03*
X-82896000Y5080000D03*
X-82896000Y2540000D03*
D14*
X-35052000Y17780000D03*
D15*
X-40132000Y17780000D03*
D14*
X-35052000Y15494000D03*
D15*
X-40132000Y15494000D03*
X-40151500Y20312500D03*
X-37611500Y20312500D03*
X-35071500Y20312500D03*
X-32468000Y20312500D03*
X-29864500Y20312500D03*
X-27388000Y20312500D03*
D16*
X-44406000Y20312500D03*
X-44406000Y3167500D03*
X-24086000Y3167500D03*
X-24086000Y20312500D03*
D17*
X-20306000Y78220000D03*
X-26656000Y29960000D03*
X-50786000Y73140000D03*
X-50786000Y45200000D03*
X-102856000Y78220000D03*
X-101586000Y29960000D03*
X-71106000Y78220000D03*
X-83806000Y78220000D03*
X-90410000Y29960000D03*
X-20306000Y73140000D03*
X-22846000Y73140000D03*
X-73646000Y78220000D03*
X-76186000Y78220000D03*
X-92950000Y29960000D03*
X-25386000Y78220000D03*
X-27926000Y78220000D03*
X-30466000Y78220000D03*
X-33006000Y78220000D03*
X-35546000Y78220000D03*
X-38086000Y78220000D03*
X-40626000Y78220000D03*
X-43166000Y78220000D03*
X-48246000Y78220000D03*
X-50786000Y78220000D03*
X-53326000Y78220000D03*
X-55866000Y78220000D03*
X-58406000Y78220000D03*
X-60946000Y78220000D03*
X-63486000Y78220000D03*
X-66026000Y78220000D03*
X-20306000Y70600000D03*
X-22846000Y70600000D03*
X-20306000Y68060000D03*
X-22846000Y68060000D03*
X-20306000Y65520000D03*
X-22846000Y65520000D03*
X-20306000Y62980000D03*
X-22846000Y62980000D03*
X-20306000Y60440000D03*
X-22846000Y60440000D03*
X-20306000Y57900000D03*
X-22846000Y57900000D03*
X-20306000Y55360000D03*
X-22846000Y55360000D03*
X-20306000Y52820000D03*
X-22846000Y52820000D03*
X-20306000Y50280000D03*
X-22846000Y50280000D03*
X-20306000Y47740000D03*
X-22846000Y47740000D03*
X-20306000Y45200000D03*
X-22846000Y45200000D03*
X-20306000Y42660000D03*
X-22846000Y42660000D03*
X-20306000Y40120000D03*
X-22846000Y40120000D03*
X-20306000Y37580000D03*
X-22846000Y37580000D03*
X-20306000Y35040000D03*
X-22846000Y35040000D03*
X-20306000Y32500000D03*
X-22846000Y32500000D03*
X-30466000Y29960000D03*
X-33006000Y29960000D03*
X-35546000Y29960000D03*
X-38086000Y29960000D03*
X-40626000Y29960000D03*
X-43166000Y29960000D03*
X-45706000Y29960000D03*
X-48246000Y29960000D03*
X-87870000Y29960000D03*
X-85330000Y29960000D03*
X-82790000Y29960000D03*
X-80250000Y29960000D03*
X-77710000Y29960000D03*
X-75170000Y29960000D03*
X-71106000Y29960000D03*
X-68566000Y29960000D03*
X-20306000Y29960000D03*
X-22846000Y29960000D03*
X-78726000Y78220000D03*
X-66026000Y29960000D03*
X-63486000Y29960000D03*
X-81266000Y78220000D03*
X-60946000Y29960000D03*
X-58406000Y29960000D03*
X-55866000Y29960000D03*
X-53326000Y29960000D03*
D18*
X-51562000Y3302000D03*
X-51562000Y19812000D03*
X-78740000Y59436000D03*
X-78740000Y70866000D03*
X-35071500Y23094500D03*
X-29483500Y23094500D03*
X-73914000Y18542000D03*
X-73914000Y2540000D03*
X-35560000Y64262000D03*
X-35560000Y73152000D03*
X-3048000Y68072000D03*
X-12192000Y68072000D03*
X-98552000Y63500000D03*
X-86360000Y63500000D03*
D19*
X-82896000Y5080000D02*
X-57404000Y5080000D01*
X-57404000Y5080000D02*
X-55626000Y3302000D01*
X-55626000Y3302000D02*
X-51562000Y3302000D01*
X-51562000Y19812000D02*
X-48768000Y17018000D01*
X-40894000Y17018000D02*
X-40132000Y17780000D01*
X-48768000Y17018000D02*
X-40894000Y17018000D01*
X-40132000Y20293000D02*
X-40151500Y20312500D01*
X-40132000Y17780000D02*
X-40132000Y20293000D01*
X-40132000Y15494000D02*
X-40132000Y17780000D01*
X-78740000Y78206000D02*
X-78726000Y78220000D01*
X-78740000Y70866000D02*
X-78740000Y78206000D01*
X-50800000Y20574000D02*
X-51562000Y19812000D01*
X-50800000Y39878000D02*
X-50800000Y20574000D01*
X-78740000Y59436000D02*
X-70358000Y59436000D01*
X-70358000Y59436000D02*
X-50800000Y39878000D01*
X-78740000Y78234000D02*
X-78726000Y78220000D01*
X-78740000Y83820000D02*
X-78740000Y78234000D01*
X-78740000Y83820000D02*
X-78740000Y88646000D01*
X-78740000Y88646000D02*
X-78740000Y93396000D01*
D20*
X-20306000Y29960000D02*
X-22846000Y29960000D01*
D19*
X-38100000Y37084000D02*
X-38100000Y39878000D01*
X-38100000Y39878000D02*
X-39370000Y41148000D01*
X-49530000Y41148000D02*
X-50800000Y39878000D01*
X-39370000Y41148000D02*
X-49530000Y41148000D01*
X-35052000Y20293000D02*
X-35071500Y20312500D01*
X-35052000Y17780000D02*
X-35052000Y20293000D01*
X-35071500Y20312500D02*
X-35071500Y23094500D01*
X-29483500Y23094500D02*
X-29483500Y26435500D01*
X-30466000Y27418000D02*
X-30466000Y29960000D01*
X-29483500Y26435500D02*
X-30466000Y27418000D01*
D21*
X-30466000Y37070000D02*
X-30480000Y37084000D01*
X-30466000Y29960000D02*
X-30466000Y37070000D01*
D19*
X-35052000Y15494000D02*
X-33020000Y15494000D01*
X-32468000Y16046000D02*
X-32468000Y20312500D01*
X-33020000Y15494000D02*
X-32468000Y16046000D01*
X-33006000Y29960000D02*
X-33006000Y25894000D01*
X-32468000Y25356000D02*
X-32468000Y20312500D01*
X-33006000Y25894000D02*
X-32468000Y25356000D01*
D21*
X-33006000Y37070000D02*
X-33020000Y37084000D01*
X-33006000Y29960000D02*
X-33006000Y37070000D01*
D19*
X-71106000Y83806000D02*
X-71120000Y83820000D01*
X-71106000Y78220000D02*
X-71106000Y83806000D01*
X-68580000Y80774000D02*
X-66026000Y78220000D01*
X-68580000Y83820000D02*
X-68580000Y80774000D01*
X-85344000Y29946000D02*
X-85330000Y29960000D01*
X-85344000Y24638000D02*
X-85344000Y29946000D01*
X-82804000Y29946000D02*
X-82790000Y29960000D01*
X-82804000Y24638000D02*
X-82804000Y29946000D01*
X-80264000Y29946000D02*
X-80250000Y29960000D01*
X-80264000Y24638000D02*
X-80264000Y29946000D01*
X-77724000Y29946000D02*
X-77710000Y29960000D01*
X-77724000Y24638000D02*
X-77724000Y29946000D01*
X-75184000Y29946000D02*
X-75170000Y29960000D01*
X-75184000Y24638000D02*
X-75184000Y29946000D01*
X-71106000Y26176000D02*
X-72644000Y24638000D01*
X-71106000Y29960000D02*
X-71106000Y26176000D01*
X-66026000Y24652000D02*
X-66040000Y24638000D01*
X-66026000Y29960000D02*
X-66026000Y24652000D01*
X-63486000Y24652000D02*
X-63500000Y24638000D01*
X-63486000Y29960000D02*
X-63486000Y24652000D01*
X-81280000Y78234000D02*
X-81266000Y78220000D01*
X-81280000Y83820000D02*
X-81280000Y78234000D01*
X-60946000Y24652000D02*
X-60960000Y24638000D01*
X-60946000Y29960000D02*
X-60946000Y24652000D01*
X-58406000Y24652000D02*
X-58420000Y24638000D01*
X-58406000Y29960000D02*
X-58406000Y24652000D01*
X-55866000Y24652000D02*
X-55880000Y24638000D01*
X-55866000Y29960000D02*
X-55866000Y24652000D01*
X-53326000Y24652000D02*
X-53340000Y24638000D01*
X-53326000Y29960000D02*
X-53326000Y24652000D01*
X-73914000Y2540000D02*
X-82896000Y2540000D01*
X-38608000Y12446000D02*
X-37611500Y13442500D01*
X-49276000Y12446000D02*
X-38608000Y12446000D01*
X-37611500Y13442500D02*
X-37611500Y20312500D01*
X-73914000Y18542000D02*
X-55372000Y18542000D01*
X-55372000Y18542000D02*
X-49276000Y12446000D01*
X-73914000Y18542000D02*
X-87884000Y18542000D01*
X-90410000Y21068000D02*
X-90410000Y29960000D01*
X-87884000Y18542000D02*
X-90410000Y21068000D01*
X-73646000Y83806000D02*
X-73660000Y83820000D01*
X-73646000Y78220000D02*
X-73646000Y83806000D01*
X-76186000Y83806000D02*
X-76200000Y83820000D01*
X-76186000Y78220000D02*
X-76186000Y83806000D01*
X-76200000Y83820000D02*
X-73660000Y83820000D01*
X-76200000Y88646000D02*
X-76200000Y93396000D01*
X-76200000Y83820000D02*
X-76200000Y88646000D01*
X-73660000Y93396000D02*
X-73660000Y88646000D01*
X-73660000Y88646000D02*
X-73660000Y83820000D01*
X-35560000Y37084000D02*
X-35560000Y64262000D01*
D21*
X-35560000Y73152000D02*
X-22858000Y73152000D01*
X-22846000Y73140000D02*
X-20306000Y73140000D01*
D19*
X-9640000Y70600000D02*
X-20306000Y70600000D01*
X-58420000Y15240000D02*
X-52070000Y8890000D01*
X-6604000Y67564000D02*
X-9640000Y70600000D01*
X-52070000Y8890000D02*
X-16764000Y8890000D01*
X-82896000Y15240000D02*
X-58420000Y15240000D01*
X-16764000Y8890000D02*
X-6604000Y19050000D01*
X-6604000Y19050000D02*
X-6604000Y67564000D01*
X-95758000Y15494000D02*
X-92964000Y12700000D01*
X-40207500Y70600000D02*
X-43370500Y67437000D01*
X-92964000Y12700000D02*
X-82896000Y12700000D01*
X-22846000Y70600000D02*
X-40207500Y70600000D01*
X-91313000Y67437000D02*
X-95758000Y62992000D01*
X-43370500Y67437000D02*
X-91313000Y67437000D01*
X-95758000Y62992000D02*
X-95758000Y15494000D01*
X-12192000Y68072000D02*
X-20294000Y68072000D01*
X-57404000Y10160000D02*
X-53848000Y6604000D01*
X-82896000Y10160000D02*
X-57404000Y10160000D01*
X-53848000Y6604000D02*
X-14224000Y6604000D01*
X-3048000Y22606000D02*
X-3048000Y68072000D01*
X-14224000Y6604000D02*
X-3048000Y17780000D01*
X-3048000Y17780000D02*
X-3048000Y22606000D01*
X-43434000Y63500000D02*
X-86360000Y63500000D01*
X-22846000Y68060000D02*
X-38874000Y68060000D01*
X-38874000Y68060000D02*
X-43434000Y63500000D01*
X-86106000Y7620000D02*
X-82896000Y7620000D01*
X-88900000Y10414000D02*
X-86106000Y7620000D01*
X-98552000Y63500000D02*
X-98552000Y13716000D01*
X-95250000Y10414000D02*
X-88900000Y10414000D01*
X-98552000Y13716000D02*
X-95250000Y10414000D01*
X-81280000Y88646000D02*
X-81280000Y93396000D01*
X-71120000Y88646000D02*
X-71120000Y93396000D01*
X-68580000Y93396000D02*
X-68580000Y88646000D01*
X-46736000Y97790000D02*
X-46736000Y93218000D01*
X-49276000Y97790000D02*
X-49276000Y93218000D01*
X-51816000Y97790000D02*
X-51816000Y93218000D01*
X-54356000Y97790000D02*
X-54356000Y93218000D01*
X-56896000Y97790000D02*
X-56896000Y93218000D01*
X-59436000Y97790000D02*
X-59436000Y93218000D01*
X-46736000Y88392000D02*
X-46736000Y83820000D01*
X-49276000Y88392000D02*
X-49276000Y83820000D01*
X-51816000Y88392000D02*
X-51816000Y83820000D01*
X-54356000Y88392000D02*
X-54356000Y83820000D01*
X-56896000Y88392000D02*
X-56896000Y83820000D01*
X-59436000Y88392000D02*
X-59436000Y83820000D01*
D20*
X-117856000Y113538000D02*
X-109220000Y113538000D01*
X-106934000Y111252000D02*
X-106934000Y106934000D01*
X-109220000Y113538000D02*
X-106934000Y111252000D01*
X-106934000Y106934000D02*
X-100584000Y106934000D01*
X-106934000Y104394000D02*
X-108966000Y104394000D01*
X-113030000Y108458000D02*
X-117856000Y108458000D01*
X-108966000Y104394000D02*
X-113030000Y108458000D01*
X-106934000Y104394000D02*
X-100584000Y104394000D01*
X-106934000Y101854000D02*
X-110744000Y101854000D01*
X-112268000Y103378000D02*
X-117856000Y103378000D01*
X-110744000Y101854000D02*
X-112268000Y103378000D01*
X-106934000Y101854000D02*
X-100584000Y101854000D01*
X-106934000Y99314000D02*
X-113030000Y99314000D01*
X-114046000Y98298000D02*
X-117856000Y98298000D01*
X-113030000Y99314000D02*
X-114046000Y98298000D01*
X-106934000Y99314000D02*
X-100584000Y99314000D01*
X-106934000Y96774000D02*
X-110744000Y96774000D01*
X-114300000Y93218000D02*
X-117856000Y93218000D01*
X-110744000Y96774000D02*
X-114300000Y93218000D01*
X-106934000Y96774000D02*
X-100584000Y96774000D01*
X-106934000Y94234000D02*
X-108458000Y94234000D01*
X-114554000Y88138000D02*
X-117856000Y88138000D01*
X-108458000Y94234000D02*
X-114554000Y88138000D01*
X-106934000Y94234000D02*
X-100584000Y94234000D01*
X-27388000Y14268000D02*
X-27432000Y14224000D01*
X-27388000Y20312500D02*
X-27388000Y14268000D01*
X-29864500Y14331500D02*
X-29972000Y14224000D01*
X-29864500Y20312500D02*
X-29864500Y14331500D01*
M02*
